%TF.GenerationSoftware,KiCad,Pcbnew,9.0.6*%
%TF.CreationDate,2026-04-12T19:10:28+02:00*%
%TF.ProjectId,rayman_main,7261796d-616e-45f6-9d61-696e2e6b6963,rev?*%
%TF.SameCoordinates,Original*%
%TF.FileFunction,Legend,Bot*%
%TF.FilePolarity,Positive*%
%FSLAX46Y46*%
G04 Gerber Fmt 4.6, Leading zero omitted, Abs format (unit mm)*
G04 Created by KiCad (PCBNEW 9.0.6) date 2026-04-12 19:10:28*
%MOMM*%
%LPD*%
G01*
G04 APERTURE LIST*
%ADD10C,0.300000*%
%ADD11C,0.100000*%
%ADD12C,0.120000*%
%ADD13C,0.203200*%
%ADD14C,0.127000*%
%ADD15C,0.200000*%
G04 APERTURE END LIST*
D10*
X91258570Y-30335912D02*
X91758570Y-29621626D01*
X92115713Y-30335912D02*
X92115713Y-28835912D01*
X92115713Y-28835912D02*
X91544284Y-28835912D01*
X91544284Y-28835912D02*
X91401427Y-28907341D01*
X91401427Y-28907341D02*
X91329998Y-28978769D01*
X91329998Y-28978769D02*
X91258570Y-29121626D01*
X91258570Y-29121626D02*
X91258570Y-29335912D01*
X91258570Y-29335912D02*
X91329998Y-29478769D01*
X91329998Y-29478769D02*
X91401427Y-29550198D01*
X91401427Y-29550198D02*
X91544284Y-29621626D01*
X91544284Y-29621626D02*
X92115713Y-29621626D01*
X90044284Y-30264484D02*
X90187141Y-30335912D01*
X90187141Y-30335912D02*
X90472856Y-30335912D01*
X90472856Y-30335912D02*
X90615713Y-30264484D01*
X90615713Y-30264484D02*
X90687141Y-30121626D01*
X90687141Y-30121626D02*
X90687141Y-29550198D01*
X90687141Y-29550198D02*
X90615713Y-29407341D01*
X90615713Y-29407341D02*
X90472856Y-29335912D01*
X90472856Y-29335912D02*
X90187141Y-29335912D01*
X90187141Y-29335912D02*
X90044284Y-29407341D01*
X90044284Y-29407341D02*
X89972856Y-29550198D01*
X89972856Y-29550198D02*
X89972856Y-29693055D01*
X89972856Y-29693055D02*
X90687141Y-29835912D01*
X89472856Y-29335912D02*
X89115713Y-30335912D01*
X89115713Y-30335912D02*
X88758570Y-29335912D01*
X86258570Y-30335912D02*
X87115713Y-30335912D01*
X86687142Y-30335912D02*
X86687142Y-28835912D01*
X86687142Y-28835912D02*
X86829999Y-29050198D01*
X86829999Y-29050198D02*
X86972856Y-29193055D01*
X86972856Y-29193055D02*
X87115713Y-29264484D01*
X85615714Y-30193055D02*
X85544285Y-30264484D01*
X85544285Y-30264484D02*
X85615714Y-30335912D01*
X85615714Y-30335912D02*
X85687142Y-30264484D01*
X85687142Y-30264484D02*
X85615714Y-30193055D01*
X85615714Y-30193055D02*
X85615714Y-30335912D01*
X84187142Y-28835912D02*
X84901428Y-28835912D01*
X84901428Y-28835912D02*
X84972856Y-29550198D01*
X84972856Y-29550198D02*
X84901428Y-29478769D01*
X84901428Y-29478769D02*
X84758571Y-29407341D01*
X84758571Y-29407341D02*
X84401428Y-29407341D01*
X84401428Y-29407341D02*
X84258571Y-29478769D01*
X84258571Y-29478769D02*
X84187142Y-29550198D01*
X84187142Y-29550198D02*
X84115713Y-29693055D01*
X84115713Y-29693055D02*
X84115713Y-30050198D01*
X84115713Y-30050198D02*
X84187142Y-30193055D01*
X84187142Y-30193055D02*
X84258571Y-30264484D01*
X84258571Y-30264484D02*
X84401428Y-30335912D01*
X84401428Y-30335912D02*
X84758571Y-30335912D01*
X84758571Y-30335912D02*
X84901428Y-30264484D01*
X84901428Y-30264484D02*
X84972856Y-30193055D01*
X95687141Y-31393685D02*
X95615713Y-31322257D01*
X95615713Y-31322257D02*
X95472856Y-31250828D01*
X95472856Y-31250828D02*
X95115713Y-31250828D01*
X95115713Y-31250828D02*
X94972856Y-31322257D01*
X94972856Y-31322257D02*
X94901427Y-31393685D01*
X94901427Y-31393685D02*
X94829998Y-31536542D01*
X94829998Y-31536542D02*
X94829998Y-31679400D01*
X94829998Y-31679400D02*
X94901427Y-31893685D01*
X94901427Y-31893685D02*
X95758570Y-32750828D01*
X95758570Y-32750828D02*
X94829998Y-32750828D01*
X93472856Y-31250828D02*
X94187142Y-31250828D01*
X94187142Y-31250828D02*
X94258570Y-31965114D01*
X94258570Y-31965114D02*
X94187142Y-31893685D01*
X94187142Y-31893685D02*
X94044285Y-31822257D01*
X94044285Y-31822257D02*
X93687142Y-31822257D01*
X93687142Y-31822257D02*
X93544285Y-31893685D01*
X93544285Y-31893685D02*
X93472856Y-31965114D01*
X93472856Y-31965114D02*
X93401427Y-32107971D01*
X93401427Y-32107971D02*
X93401427Y-32465114D01*
X93401427Y-32465114D02*
X93472856Y-32607971D01*
X93472856Y-32607971D02*
X93544285Y-32679400D01*
X93544285Y-32679400D02*
X93687142Y-32750828D01*
X93687142Y-32750828D02*
X94044285Y-32750828D01*
X94044285Y-32750828D02*
X94187142Y-32679400D01*
X94187142Y-32679400D02*
X94258570Y-32607971D01*
X92758571Y-32179400D02*
X91615714Y-32179400D01*
X90901428Y-32750828D02*
X90901428Y-31250828D01*
X90901428Y-31250828D02*
X90401428Y-32322257D01*
X90401428Y-32322257D02*
X89901428Y-31250828D01*
X89901428Y-31250828D02*
X89901428Y-32750828D01*
X89258570Y-32322257D02*
X88544285Y-32322257D01*
X89401427Y-32750828D02*
X88901427Y-31250828D01*
X88901427Y-31250828D02*
X88401427Y-32750828D01*
X87044285Y-32750828D02*
X87544285Y-32036542D01*
X87901428Y-32750828D02*
X87901428Y-31250828D01*
X87901428Y-31250828D02*
X87329999Y-31250828D01*
X87329999Y-31250828D02*
X87187142Y-31322257D01*
X87187142Y-31322257D02*
X87115713Y-31393685D01*
X87115713Y-31393685D02*
X87044285Y-31536542D01*
X87044285Y-31536542D02*
X87044285Y-31750828D01*
X87044285Y-31750828D02*
X87115713Y-31893685D01*
X87115713Y-31893685D02*
X87187142Y-31965114D01*
X87187142Y-31965114D02*
X87329999Y-32036542D01*
X87329999Y-32036542D02*
X87901428Y-32036542D01*
X86401428Y-32179400D02*
X85258571Y-32179400D01*
X84615713Y-31393685D02*
X84544285Y-31322257D01*
X84544285Y-31322257D02*
X84401428Y-31250828D01*
X84401428Y-31250828D02*
X84044285Y-31250828D01*
X84044285Y-31250828D02*
X83901428Y-31322257D01*
X83901428Y-31322257D02*
X83829999Y-31393685D01*
X83829999Y-31393685D02*
X83758570Y-31536542D01*
X83758570Y-31536542D02*
X83758570Y-31679400D01*
X83758570Y-31679400D02*
X83829999Y-31893685D01*
X83829999Y-31893685D02*
X84687142Y-32750828D01*
X84687142Y-32750828D02*
X83758570Y-32750828D01*
X82829999Y-31250828D02*
X82687142Y-31250828D01*
X82687142Y-31250828D02*
X82544285Y-31322257D01*
X82544285Y-31322257D02*
X82472857Y-31393685D01*
X82472857Y-31393685D02*
X82401428Y-31536542D01*
X82401428Y-31536542D02*
X82329999Y-31822257D01*
X82329999Y-31822257D02*
X82329999Y-32179400D01*
X82329999Y-32179400D02*
X82401428Y-32465114D01*
X82401428Y-32465114D02*
X82472857Y-32607971D01*
X82472857Y-32607971D02*
X82544285Y-32679400D01*
X82544285Y-32679400D02*
X82687142Y-32750828D01*
X82687142Y-32750828D02*
X82829999Y-32750828D01*
X82829999Y-32750828D02*
X82972857Y-32679400D01*
X82972857Y-32679400D02*
X83044285Y-32607971D01*
X83044285Y-32607971D02*
X83115714Y-32465114D01*
X83115714Y-32465114D02*
X83187142Y-32179400D01*
X83187142Y-32179400D02*
X83187142Y-31822257D01*
X83187142Y-31822257D02*
X83115714Y-31536542D01*
X83115714Y-31536542D02*
X83044285Y-31393685D01*
X83044285Y-31393685D02*
X82972857Y-31322257D01*
X82972857Y-31322257D02*
X82829999Y-31250828D01*
X81758571Y-31393685D02*
X81687143Y-31322257D01*
X81687143Y-31322257D02*
X81544286Y-31250828D01*
X81544286Y-31250828D02*
X81187143Y-31250828D01*
X81187143Y-31250828D02*
X81044286Y-31322257D01*
X81044286Y-31322257D02*
X80972857Y-31393685D01*
X80972857Y-31393685D02*
X80901428Y-31536542D01*
X80901428Y-31536542D02*
X80901428Y-31679400D01*
X80901428Y-31679400D02*
X80972857Y-31893685D01*
X80972857Y-31893685D02*
X81830000Y-32750828D01*
X81830000Y-32750828D02*
X80901428Y-32750828D01*
X79615715Y-31250828D02*
X79901429Y-31250828D01*
X79901429Y-31250828D02*
X80044286Y-31322257D01*
X80044286Y-31322257D02*
X80115715Y-31393685D01*
X80115715Y-31393685D02*
X80258572Y-31607971D01*
X80258572Y-31607971D02*
X80330000Y-31893685D01*
X80330000Y-31893685D02*
X80330000Y-32465114D01*
X80330000Y-32465114D02*
X80258572Y-32607971D01*
X80258572Y-32607971D02*
X80187143Y-32679400D01*
X80187143Y-32679400D02*
X80044286Y-32750828D01*
X80044286Y-32750828D02*
X79758572Y-32750828D01*
X79758572Y-32750828D02*
X79615715Y-32679400D01*
X79615715Y-32679400D02*
X79544286Y-32607971D01*
X79544286Y-32607971D02*
X79472857Y-32465114D01*
X79472857Y-32465114D02*
X79472857Y-32107971D01*
X79472857Y-32107971D02*
X79544286Y-31965114D01*
X79544286Y-31965114D02*
X79615715Y-31893685D01*
X79615715Y-31893685D02*
X79758572Y-31822257D01*
X79758572Y-31822257D02*
X80044286Y-31822257D01*
X80044286Y-31822257D02*
X80187143Y-31893685D01*
X80187143Y-31893685D02*
X80258572Y-31965114D01*
X80258572Y-31965114D02*
X80330000Y-32107971D01*
D11*
X90944285Y-107024895D02*
X91210952Y-106643942D01*
X91401428Y-107024895D02*
X91401428Y-106224895D01*
X91401428Y-106224895D02*
X91096666Y-106224895D01*
X91096666Y-106224895D02*
X91020476Y-106262990D01*
X91020476Y-106262990D02*
X90982381Y-106301085D01*
X90982381Y-106301085D02*
X90944285Y-106377276D01*
X90944285Y-106377276D02*
X90944285Y-106491561D01*
X90944285Y-106491561D02*
X90982381Y-106567752D01*
X90982381Y-106567752D02*
X91020476Y-106605847D01*
X91020476Y-106605847D02*
X91096666Y-106643942D01*
X91096666Y-106643942D02*
X91401428Y-106643942D01*
X90258571Y-106491561D02*
X90258571Y-107024895D01*
X90449047Y-106186800D02*
X90639524Y-106758228D01*
X90639524Y-106758228D02*
X90144285Y-106758228D01*
X89496666Y-106491561D02*
X89496666Y-107024895D01*
X89687142Y-106186800D02*
X89877619Y-106758228D01*
X89877619Y-106758228D02*
X89382380Y-106758228D01*
X126435847Y-111419523D02*
X126435847Y-111152857D01*
X126854895Y-111152857D02*
X126054895Y-111152857D01*
X126054895Y-111152857D02*
X126054895Y-111533809D01*
X126854895Y-112219523D02*
X126854895Y-111838571D01*
X126854895Y-111838571D02*
X126054895Y-111838571D01*
X126854895Y-112905237D02*
X126854895Y-112448094D01*
X126854895Y-112676666D02*
X126054895Y-112676666D01*
X126054895Y-112676666D02*
X126169180Y-112600475D01*
X126169180Y-112600475D02*
X126245371Y-112524285D01*
X126245371Y-112524285D02*
X126283466Y-112448094D01*
X119184895Y-114608571D02*
X118384895Y-114608571D01*
X118384895Y-114608571D02*
X118384895Y-114799047D01*
X118384895Y-114799047D02*
X118422990Y-114913333D01*
X118422990Y-114913333D02*
X118499180Y-114989523D01*
X118499180Y-114989523D02*
X118575371Y-115027618D01*
X118575371Y-115027618D02*
X118727752Y-115065714D01*
X118727752Y-115065714D02*
X118842038Y-115065714D01*
X118842038Y-115065714D02*
X118994419Y-115027618D01*
X118994419Y-115027618D02*
X119070609Y-114989523D01*
X119070609Y-114989523D02*
X119146800Y-114913333D01*
X119146800Y-114913333D02*
X119184895Y-114799047D01*
X119184895Y-114799047D02*
X119184895Y-114608571D01*
X119184895Y-115827618D02*
X119184895Y-115370475D01*
X119184895Y-115599047D02*
X118384895Y-115599047D01*
X118384895Y-115599047D02*
X118499180Y-115522856D01*
X118499180Y-115522856D02*
X118575371Y-115446666D01*
X118575371Y-115446666D02*
X118613466Y-115370475D01*
X118384895Y-116094285D02*
X118384895Y-116627619D01*
X118384895Y-116627619D02*
X119184895Y-116284761D01*
X117911085Y-85333809D02*
X117872990Y-85257619D01*
X117872990Y-85257619D02*
X117796800Y-85181428D01*
X117796800Y-85181428D02*
X117682514Y-85067142D01*
X117682514Y-85067142D02*
X117644419Y-84990952D01*
X117644419Y-84990952D02*
X117644419Y-84914761D01*
X117834895Y-84952857D02*
X117796800Y-84876666D01*
X117796800Y-84876666D02*
X117720609Y-84800476D01*
X117720609Y-84800476D02*
X117568228Y-84762380D01*
X117568228Y-84762380D02*
X117301561Y-84762380D01*
X117301561Y-84762380D02*
X117149180Y-84800476D01*
X117149180Y-84800476D02*
X117072990Y-84876666D01*
X117072990Y-84876666D02*
X117034895Y-84952857D01*
X117034895Y-84952857D02*
X117034895Y-85105238D01*
X117034895Y-85105238D02*
X117072990Y-85181428D01*
X117072990Y-85181428D02*
X117149180Y-85257619D01*
X117149180Y-85257619D02*
X117301561Y-85295714D01*
X117301561Y-85295714D02*
X117568228Y-85295714D01*
X117568228Y-85295714D02*
X117720609Y-85257619D01*
X117720609Y-85257619D02*
X117796800Y-85181428D01*
X117796800Y-85181428D02*
X117834895Y-85105238D01*
X117834895Y-85105238D02*
X117834895Y-84952857D01*
X117834895Y-86057618D02*
X117834895Y-85600475D01*
X117834895Y-85829047D02*
X117034895Y-85829047D01*
X117034895Y-85829047D02*
X117149180Y-85752856D01*
X117149180Y-85752856D02*
X117225371Y-85676666D01*
X117225371Y-85676666D02*
X117263466Y-85600475D01*
X113724285Y-68684895D02*
X113990952Y-68303942D01*
X114181428Y-68684895D02*
X114181428Y-67884895D01*
X114181428Y-67884895D02*
X113876666Y-67884895D01*
X113876666Y-67884895D02*
X113800476Y-67922990D01*
X113800476Y-67922990D02*
X113762381Y-67961085D01*
X113762381Y-67961085D02*
X113724285Y-68037276D01*
X113724285Y-68037276D02*
X113724285Y-68151561D01*
X113724285Y-68151561D02*
X113762381Y-68227752D01*
X113762381Y-68227752D02*
X113800476Y-68265847D01*
X113800476Y-68265847D02*
X113876666Y-68303942D01*
X113876666Y-68303942D02*
X114181428Y-68303942D01*
X113457619Y-67884895D02*
X112962381Y-67884895D01*
X112962381Y-67884895D02*
X113229047Y-68189657D01*
X113229047Y-68189657D02*
X113114762Y-68189657D01*
X113114762Y-68189657D02*
X113038571Y-68227752D01*
X113038571Y-68227752D02*
X113000476Y-68265847D01*
X113000476Y-68265847D02*
X112962381Y-68342038D01*
X112962381Y-68342038D02*
X112962381Y-68532514D01*
X112962381Y-68532514D02*
X113000476Y-68608704D01*
X113000476Y-68608704D02*
X113038571Y-68646800D01*
X113038571Y-68646800D02*
X113114762Y-68684895D01*
X113114762Y-68684895D02*
X113343333Y-68684895D01*
X113343333Y-68684895D02*
X113419524Y-68646800D01*
X113419524Y-68646800D02*
X113457619Y-68608704D01*
X112276666Y-68151561D02*
X112276666Y-68684895D01*
X112467142Y-67846800D02*
X112657619Y-68418228D01*
X112657619Y-68418228D02*
X112162380Y-68418228D01*
X106994895Y-94225714D02*
X106613942Y-93959047D01*
X106994895Y-93768571D02*
X106194895Y-93768571D01*
X106194895Y-93768571D02*
X106194895Y-94073333D01*
X106194895Y-94073333D02*
X106232990Y-94149523D01*
X106232990Y-94149523D02*
X106271085Y-94187618D01*
X106271085Y-94187618D02*
X106347276Y-94225714D01*
X106347276Y-94225714D02*
X106461561Y-94225714D01*
X106461561Y-94225714D02*
X106537752Y-94187618D01*
X106537752Y-94187618D02*
X106575847Y-94149523D01*
X106575847Y-94149523D02*
X106613942Y-94073333D01*
X106613942Y-94073333D02*
X106613942Y-93768571D01*
X106194895Y-94492380D02*
X106194895Y-94987618D01*
X106194895Y-94987618D02*
X106499657Y-94720952D01*
X106499657Y-94720952D02*
X106499657Y-94835237D01*
X106499657Y-94835237D02*
X106537752Y-94911428D01*
X106537752Y-94911428D02*
X106575847Y-94949523D01*
X106575847Y-94949523D02*
X106652038Y-94987618D01*
X106652038Y-94987618D02*
X106842514Y-94987618D01*
X106842514Y-94987618D02*
X106918704Y-94949523D01*
X106918704Y-94949523D02*
X106956800Y-94911428D01*
X106956800Y-94911428D02*
X106994895Y-94835237D01*
X106994895Y-94835237D02*
X106994895Y-94606666D01*
X106994895Y-94606666D02*
X106956800Y-94530475D01*
X106956800Y-94530475D02*
X106918704Y-94492380D01*
X106271085Y-95292380D02*
X106232990Y-95330476D01*
X106232990Y-95330476D02*
X106194895Y-95406666D01*
X106194895Y-95406666D02*
X106194895Y-95597142D01*
X106194895Y-95597142D02*
X106232990Y-95673333D01*
X106232990Y-95673333D02*
X106271085Y-95711428D01*
X106271085Y-95711428D02*
X106347276Y-95749523D01*
X106347276Y-95749523D02*
X106423466Y-95749523D01*
X106423466Y-95749523D02*
X106537752Y-95711428D01*
X106537752Y-95711428D02*
X106994895Y-95254285D01*
X106994895Y-95254285D02*
X106994895Y-95749523D01*
X141554895Y-33166667D02*
X141173942Y-32900000D01*
X141554895Y-32709524D02*
X140754895Y-32709524D01*
X140754895Y-32709524D02*
X140754895Y-33014286D01*
X140754895Y-33014286D02*
X140792990Y-33090476D01*
X140792990Y-33090476D02*
X140831085Y-33128571D01*
X140831085Y-33128571D02*
X140907276Y-33166667D01*
X140907276Y-33166667D02*
X141021561Y-33166667D01*
X141021561Y-33166667D02*
X141097752Y-33128571D01*
X141097752Y-33128571D02*
X141135847Y-33090476D01*
X141135847Y-33090476D02*
X141173942Y-33014286D01*
X141173942Y-33014286D02*
X141173942Y-32709524D01*
X140754895Y-33433333D02*
X140754895Y-33966667D01*
X140754895Y-33966667D02*
X141554895Y-33623809D01*
X146084285Y-120104895D02*
X146350952Y-119723942D01*
X146541428Y-120104895D02*
X146541428Y-119304895D01*
X146541428Y-119304895D02*
X146236666Y-119304895D01*
X146236666Y-119304895D02*
X146160476Y-119342990D01*
X146160476Y-119342990D02*
X146122381Y-119381085D01*
X146122381Y-119381085D02*
X146084285Y-119457276D01*
X146084285Y-119457276D02*
X146084285Y-119571561D01*
X146084285Y-119571561D02*
X146122381Y-119647752D01*
X146122381Y-119647752D02*
X146160476Y-119685847D01*
X146160476Y-119685847D02*
X146236666Y-119723942D01*
X146236666Y-119723942D02*
X146541428Y-119723942D01*
X145817619Y-119304895D02*
X145322381Y-119304895D01*
X145322381Y-119304895D02*
X145589047Y-119609657D01*
X145589047Y-119609657D02*
X145474762Y-119609657D01*
X145474762Y-119609657D02*
X145398571Y-119647752D01*
X145398571Y-119647752D02*
X145360476Y-119685847D01*
X145360476Y-119685847D02*
X145322381Y-119762038D01*
X145322381Y-119762038D02*
X145322381Y-119952514D01*
X145322381Y-119952514D02*
X145360476Y-120028704D01*
X145360476Y-120028704D02*
X145398571Y-120066800D01*
X145398571Y-120066800D02*
X145474762Y-120104895D01*
X145474762Y-120104895D02*
X145703333Y-120104895D01*
X145703333Y-120104895D02*
X145779524Y-120066800D01*
X145779524Y-120066800D02*
X145817619Y-120028704D01*
X144941428Y-120104895D02*
X144789047Y-120104895D01*
X144789047Y-120104895D02*
X144712857Y-120066800D01*
X144712857Y-120066800D02*
X144674761Y-120028704D01*
X144674761Y-120028704D02*
X144598571Y-119914419D01*
X144598571Y-119914419D02*
X144560476Y-119762038D01*
X144560476Y-119762038D02*
X144560476Y-119457276D01*
X144560476Y-119457276D02*
X144598571Y-119381085D01*
X144598571Y-119381085D02*
X144636666Y-119342990D01*
X144636666Y-119342990D02*
X144712857Y-119304895D01*
X144712857Y-119304895D02*
X144865238Y-119304895D01*
X144865238Y-119304895D02*
X144941428Y-119342990D01*
X144941428Y-119342990D02*
X144979523Y-119381085D01*
X144979523Y-119381085D02*
X145017619Y-119457276D01*
X145017619Y-119457276D02*
X145017619Y-119647752D01*
X145017619Y-119647752D02*
X144979523Y-119723942D01*
X144979523Y-119723942D02*
X144941428Y-119762038D01*
X144941428Y-119762038D02*
X144865238Y-119800133D01*
X144865238Y-119800133D02*
X144712857Y-119800133D01*
X144712857Y-119800133D02*
X144636666Y-119762038D01*
X144636666Y-119762038D02*
X144598571Y-119723942D01*
X144598571Y-119723942D02*
X144560476Y-119647752D01*
X72114285Y-116684895D02*
X72380952Y-116303942D01*
X72571428Y-116684895D02*
X72571428Y-115884895D01*
X72571428Y-115884895D02*
X72266666Y-115884895D01*
X72266666Y-115884895D02*
X72190476Y-115922990D01*
X72190476Y-115922990D02*
X72152381Y-115961085D01*
X72152381Y-115961085D02*
X72114285Y-116037276D01*
X72114285Y-116037276D02*
X72114285Y-116151561D01*
X72114285Y-116151561D02*
X72152381Y-116227752D01*
X72152381Y-116227752D02*
X72190476Y-116265847D01*
X72190476Y-116265847D02*
X72266666Y-116303942D01*
X72266666Y-116303942D02*
X72571428Y-116303942D01*
X71428571Y-116151561D02*
X71428571Y-116684895D01*
X71619047Y-115846800D02*
X71809524Y-116418228D01*
X71809524Y-116418228D02*
X71314285Y-116418228D01*
X71047619Y-115961085D02*
X71009523Y-115922990D01*
X71009523Y-115922990D02*
X70933333Y-115884895D01*
X70933333Y-115884895D02*
X70742857Y-115884895D01*
X70742857Y-115884895D02*
X70666666Y-115922990D01*
X70666666Y-115922990D02*
X70628571Y-115961085D01*
X70628571Y-115961085D02*
X70590476Y-116037276D01*
X70590476Y-116037276D02*
X70590476Y-116113466D01*
X70590476Y-116113466D02*
X70628571Y-116227752D01*
X70628571Y-116227752D02*
X71085714Y-116684895D01*
X71085714Y-116684895D02*
X70590476Y-116684895D01*
X109324285Y-104834895D02*
X109590952Y-104453942D01*
X109781428Y-104834895D02*
X109781428Y-104034895D01*
X109781428Y-104034895D02*
X109476666Y-104034895D01*
X109476666Y-104034895D02*
X109400476Y-104072990D01*
X109400476Y-104072990D02*
X109362381Y-104111085D01*
X109362381Y-104111085D02*
X109324285Y-104187276D01*
X109324285Y-104187276D02*
X109324285Y-104301561D01*
X109324285Y-104301561D02*
X109362381Y-104377752D01*
X109362381Y-104377752D02*
X109400476Y-104415847D01*
X109400476Y-104415847D02*
X109476666Y-104453942D01*
X109476666Y-104453942D02*
X109781428Y-104453942D01*
X109019524Y-104111085D02*
X108981428Y-104072990D01*
X108981428Y-104072990D02*
X108905238Y-104034895D01*
X108905238Y-104034895D02*
X108714762Y-104034895D01*
X108714762Y-104034895D02*
X108638571Y-104072990D01*
X108638571Y-104072990D02*
X108600476Y-104111085D01*
X108600476Y-104111085D02*
X108562381Y-104187276D01*
X108562381Y-104187276D02*
X108562381Y-104263466D01*
X108562381Y-104263466D02*
X108600476Y-104377752D01*
X108600476Y-104377752D02*
X109057619Y-104834895D01*
X109057619Y-104834895D02*
X108562381Y-104834895D01*
X107800476Y-104834895D02*
X108257619Y-104834895D01*
X108029047Y-104834895D02*
X108029047Y-104034895D01*
X108029047Y-104034895D02*
X108105238Y-104149180D01*
X108105238Y-104149180D02*
X108181428Y-104225371D01*
X108181428Y-104225371D02*
X108257619Y-104263466D01*
X103174895Y-94225714D02*
X102793942Y-93959047D01*
X103174895Y-93768571D02*
X102374895Y-93768571D01*
X102374895Y-93768571D02*
X102374895Y-94073333D01*
X102374895Y-94073333D02*
X102412990Y-94149523D01*
X102412990Y-94149523D02*
X102451085Y-94187618D01*
X102451085Y-94187618D02*
X102527276Y-94225714D01*
X102527276Y-94225714D02*
X102641561Y-94225714D01*
X102641561Y-94225714D02*
X102717752Y-94187618D01*
X102717752Y-94187618D02*
X102755847Y-94149523D01*
X102755847Y-94149523D02*
X102793942Y-94073333D01*
X102793942Y-94073333D02*
X102793942Y-93768571D01*
X102374895Y-94492380D02*
X102374895Y-94987618D01*
X102374895Y-94987618D02*
X102679657Y-94720952D01*
X102679657Y-94720952D02*
X102679657Y-94835237D01*
X102679657Y-94835237D02*
X102717752Y-94911428D01*
X102717752Y-94911428D02*
X102755847Y-94949523D01*
X102755847Y-94949523D02*
X102832038Y-94987618D01*
X102832038Y-94987618D02*
X103022514Y-94987618D01*
X103022514Y-94987618D02*
X103098704Y-94949523D01*
X103098704Y-94949523D02*
X103136800Y-94911428D01*
X103136800Y-94911428D02*
X103174895Y-94835237D01*
X103174895Y-94835237D02*
X103174895Y-94606666D01*
X103174895Y-94606666D02*
X103136800Y-94530475D01*
X103136800Y-94530475D02*
X103098704Y-94492380D01*
X103174895Y-95749523D02*
X103174895Y-95292380D01*
X103174895Y-95520952D02*
X102374895Y-95520952D01*
X102374895Y-95520952D02*
X102489180Y-95444761D01*
X102489180Y-95444761D02*
X102565371Y-95368571D01*
X102565371Y-95368571D02*
X102603466Y-95292380D01*
X111874895Y-51175714D02*
X111493942Y-50909047D01*
X111874895Y-50718571D02*
X111074895Y-50718571D01*
X111074895Y-50718571D02*
X111074895Y-51023333D01*
X111074895Y-51023333D02*
X111112990Y-51099523D01*
X111112990Y-51099523D02*
X111151085Y-51137618D01*
X111151085Y-51137618D02*
X111227276Y-51175714D01*
X111227276Y-51175714D02*
X111341561Y-51175714D01*
X111341561Y-51175714D02*
X111417752Y-51137618D01*
X111417752Y-51137618D02*
X111455847Y-51099523D01*
X111455847Y-51099523D02*
X111493942Y-51023333D01*
X111493942Y-51023333D02*
X111493942Y-50718571D01*
X111151085Y-51480475D02*
X111112990Y-51518571D01*
X111112990Y-51518571D02*
X111074895Y-51594761D01*
X111074895Y-51594761D02*
X111074895Y-51785237D01*
X111074895Y-51785237D02*
X111112990Y-51861428D01*
X111112990Y-51861428D02*
X111151085Y-51899523D01*
X111151085Y-51899523D02*
X111227276Y-51937618D01*
X111227276Y-51937618D02*
X111303466Y-51937618D01*
X111303466Y-51937618D02*
X111417752Y-51899523D01*
X111417752Y-51899523D02*
X111874895Y-51442380D01*
X111874895Y-51442380D02*
X111874895Y-51937618D01*
X111074895Y-52204285D02*
X111074895Y-52737619D01*
X111074895Y-52737619D02*
X111874895Y-52394761D01*
X91554285Y-119714895D02*
X91820952Y-119333942D01*
X92011428Y-119714895D02*
X92011428Y-118914895D01*
X92011428Y-118914895D02*
X91706666Y-118914895D01*
X91706666Y-118914895D02*
X91630476Y-118952990D01*
X91630476Y-118952990D02*
X91592381Y-118991085D01*
X91592381Y-118991085D02*
X91554285Y-119067276D01*
X91554285Y-119067276D02*
X91554285Y-119181561D01*
X91554285Y-119181561D02*
X91592381Y-119257752D01*
X91592381Y-119257752D02*
X91630476Y-119295847D01*
X91630476Y-119295847D02*
X91706666Y-119333942D01*
X91706666Y-119333942D02*
X92011428Y-119333942D01*
X90868571Y-119181561D02*
X90868571Y-119714895D01*
X91059047Y-118876800D02*
X91249524Y-119448228D01*
X91249524Y-119448228D02*
X90754285Y-119448228D01*
X90525714Y-118914895D02*
X90030476Y-118914895D01*
X90030476Y-118914895D02*
X90297142Y-119219657D01*
X90297142Y-119219657D02*
X90182857Y-119219657D01*
X90182857Y-119219657D02*
X90106666Y-119257752D01*
X90106666Y-119257752D02*
X90068571Y-119295847D01*
X90068571Y-119295847D02*
X90030476Y-119372038D01*
X90030476Y-119372038D02*
X90030476Y-119562514D01*
X90030476Y-119562514D02*
X90068571Y-119638704D01*
X90068571Y-119638704D02*
X90106666Y-119676800D01*
X90106666Y-119676800D02*
X90182857Y-119714895D01*
X90182857Y-119714895D02*
X90411428Y-119714895D01*
X90411428Y-119714895D02*
X90487619Y-119676800D01*
X90487619Y-119676800D02*
X90525714Y-119638704D01*
X114074895Y-82665714D02*
X113693942Y-82399047D01*
X114074895Y-82208571D02*
X113274895Y-82208571D01*
X113274895Y-82208571D02*
X113274895Y-82513333D01*
X113274895Y-82513333D02*
X113312990Y-82589523D01*
X113312990Y-82589523D02*
X113351085Y-82627618D01*
X113351085Y-82627618D02*
X113427276Y-82665714D01*
X113427276Y-82665714D02*
X113541561Y-82665714D01*
X113541561Y-82665714D02*
X113617752Y-82627618D01*
X113617752Y-82627618D02*
X113655847Y-82589523D01*
X113655847Y-82589523D02*
X113693942Y-82513333D01*
X113693942Y-82513333D02*
X113693942Y-82208571D01*
X113351085Y-82970475D02*
X113312990Y-83008571D01*
X113312990Y-83008571D02*
X113274895Y-83084761D01*
X113274895Y-83084761D02*
X113274895Y-83275237D01*
X113274895Y-83275237D02*
X113312990Y-83351428D01*
X113312990Y-83351428D02*
X113351085Y-83389523D01*
X113351085Y-83389523D02*
X113427276Y-83427618D01*
X113427276Y-83427618D02*
X113503466Y-83427618D01*
X113503466Y-83427618D02*
X113617752Y-83389523D01*
X113617752Y-83389523D02*
X114074895Y-82932380D01*
X114074895Y-82932380D02*
X114074895Y-83427618D01*
X113617752Y-83884761D02*
X113579657Y-83808571D01*
X113579657Y-83808571D02*
X113541561Y-83770476D01*
X113541561Y-83770476D02*
X113465371Y-83732380D01*
X113465371Y-83732380D02*
X113427276Y-83732380D01*
X113427276Y-83732380D02*
X113351085Y-83770476D01*
X113351085Y-83770476D02*
X113312990Y-83808571D01*
X113312990Y-83808571D02*
X113274895Y-83884761D01*
X113274895Y-83884761D02*
X113274895Y-84037142D01*
X113274895Y-84037142D02*
X113312990Y-84113333D01*
X113312990Y-84113333D02*
X113351085Y-84151428D01*
X113351085Y-84151428D02*
X113427276Y-84189523D01*
X113427276Y-84189523D02*
X113465371Y-84189523D01*
X113465371Y-84189523D02*
X113541561Y-84151428D01*
X113541561Y-84151428D02*
X113579657Y-84113333D01*
X113579657Y-84113333D02*
X113617752Y-84037142D01*
X113617752Y-84037142D02*
X113617752Y-83884761D01*
X113617752Y-83884761D02*
X113655847Y-83808571D01*
X113655847Y-83808571D02*
X113693942Y-83770476D01*
X113693942Y-83770476D02*
X113770133Y-83732380D01*
X113770133Y-83732380D02*
X113922514Y-83732380D01*
X113922514Y-83732380D02*
X113998704Y-83770476D01*
X113998704Y-83770476D02*
X114036800Y-83808571D01*
X114036800Y-83808571D02*
X114074895Y-83884761D01*
X114074895Y-83884761D02*
X114074895Y-84037142D01*
X114074895Y-84037142D02*
X114036800Y-84113333D01*
X114036800Y-84113333D02*
X113998704Y-84151428D01*
X113998704Y-84151428D02*
X113922514Y-84189523D01*
X113922514Y-84189523D02*
X113770133Y-84189523D01*
X113770133Y-84189523D02*
X113693942Y-84151428D01*
X113693942Y-84151428D02*
X113655847Y-84113333D01*
X113655847Y-84113333D02*
X113617752Y-84037142D01*
X99354895Y-94225714D02*
X98973942Y-93959047D01*
X99354895Y-93768571D02*
X98554895Y-93768571D01*
X98554895Y-93768571D02*
X98554895Y-94073333D01*
X98554895Y-94073333D02*
X98592990Y-94149523D01*
X98592990Y-94149523D02*
X98631085Y-94187618D01*
X98631085Y-94187618D02*
X98707276Y-94225714D01*
X98707276Y-94225714D02*
X98821561Y-94225714D01*
X98821561Y-94225714D02*
X98897752Y-94187618D01*
X98897752Y-94187618D02*
X98935847Y-94149523D01*
X98935847Y-94149523D02*
X98973942Y-94073333D01*
X98973942Y-94073333D02*
X98973942Y-93768571D01*
X98554895Y-94492380D02*
X98554895Y-94987618D01*
X98554895Y-94987618D02*
X98859657Y-94720952D01*
X98859657Y-94720952D02*
X98859657Y-94835237D01*
X98859657Y-94835237D02*
X98897752Y-94911428D01*
X98897752Y-94911428D02*
X98935847Y-94949523D01*
X98935847Y-94949523D02*
X99012038Y-94987618D01*
X99012038Y-94987618D02*
X99202514Y-94987618D01*
X99202514Y-94987618D02*
X99278704Y-94949523D01*
X99278704Y-94949523D02*
X99316800Y-94911428D01*
X99316800Y-94911428D02*
X99354895Y-94835237D01*
X99354895Y-94835237D02*
X99354895Y-94606666D01*
X99354895Y-94606666D02*
X99316800Y-94530475D01*
X99316800Y-94530475D02*
X99278704Y-94492380D01*
X98554895Y-95482857D02*
X98554895Y-95559047D01*
X98554895Y-95559047D02*
X98592990Y-95635238D01*
X98592990Y-95635238D02*
X98631085Y-95673333D01*
X98631085Y-95673333D02*
X98707276Y-95711428D01*
X98707276Y-95711428D02*
X98859657Y-95749523D01*
X98859657Y-95749523D02*
X99050133Y-95749523D01*
X99050133Y-95749523D02*
X99202514Y-95711428D01*
X99202514Y-95711428D02*
X99278704Y-95673333D01*
X99278704Y-95673333D02*
X99316800Y-95635238D01*
X99316800Y-95635238D02*
X99354895Y-95559047D01*
X99354895Y-95559047D02*
X99354895Y-95482857D01*
X99354895Y-95482857D02*
X99316800Y-95406666D01*
X99316800Y-95406666D02*
X99278704Y-95368571D01*
X99278704Y-95368571D02*
X99202514Y-95330476D01*
X99202514Y-95330476D02*
X99050133Y-95292380D01*
X99050133Y-95292380D02*
X98859657Y-95292380D01*
X98859657Y-95292380D02*
X98707276Y-95330476D01*
X98707276Y-95330476D02*
X98631085Y-95368571D01*
X98631085Y-95368571D02*
X98592990Y-95406666D01*
X98592990Y-95406666D02*
X98554895Y-95482857D01*
X114384895Y-50555714D02*
X114003942Y-50289047D01*
X114384895Y-50098571D02*
X113584895Y-50098571D01*
X113584895Y-50098571D02*
X113584895Y-50403333D01*
X113584895Y-50403333D02*
X113622990Y-50479523D01*
X113622990Y-50479523D02*
X113661085Y-50517618D01*
X113661085Y-50517618D02*
X113737276Y-50555714D01*
X113737276Y-50555714D02*
X113851561Y-50555714D01*
X113851561Y-50555714D02*
X113927752Y-50517618D01*
X113927752Y-50517618D02*
X113965847Y-50479523D01*
X113965847Y-50479523D02*
X114003942Y-50403333D01*
X114003942Y-50403333D02*
X114003942Y-50098571D01*
X114384895Y-51317618D02*
X114384895Y-50860475D01*
X114384895Y-51089047D02*
X113584895Y-51089047D01*
X113584895Y-51089047D02*
X113699180Y-51012856D01*
X113699180Y-51012856D02*
X113775371Y-50936666D01*
X113775371Y-50936666D02*
X113813466Y-50860475D01*
X113584895Y-52041428D02*
X113584895Y-51660476D01*
X113584895Y-51660476D02*
X113965847Y-51622380D01*
X113965847Y-51622380D02*
X113927752Y-51660476D01*
X113927752Y-51660476D02*
X113889657Y-51736666D01*
X113889657Y-51736666D02*
X113889657Y-51927142D01*
X113889657Y-51927142D02*
X113927752Y-52003333D01*
X113927752Y-52003333D02*
X113965847Y-52041428D01*
X113965847Y-52041428D02*
X114042038Y-52079523D01*
X114042038Y-52079523D02*
X114232514Y-52079523D01*
X114232514Y-52079523D02*
X114308704Y-52041428D01*
X114308704Y-52041428D02*
X114346800Y-52003333D01*
X114346800Y-52003333D02*
X114384895Y-51927142D01*
X114384895Y-51927142D02*
X114384895Y-51736666D01*
X114384895Y-51736666D02*
X114346800Y-51660476D01*
X114346800Y-51660476D02*
X114308704Y-51622380D01*
X109634895Y-51175714D02*
X109253942Y-50909047D01*
X109634895Y-50718571D02*
X108834895Y-50718571D01*
X108834895Y-50718571D02*
X108834895Y-51023333D01*
X108834895Y-51023333D02*
X108872990Y-51099523D01*
X108872990Y-51099523D02*
X108911085Y-51137618D01*
X108911085Y-51137618D02*
X108987276Y-51175714D01*
X108987276Y-51175714D02*
X109101561Y-51175714D01*
X109101561Y-51175714D02*
X109177752Y-51137618D01*
X109177752Y-51137618D02*
X109215847Y-51099523D01*
X109215847Y-51099523D02*
X109253942Y-51023333D01*
X109253942Y-51023333D02*
X109253942Y-50718571D01*
X108911085Y-51480475D02*
X108872990Y-51518571D01*
X108872990Y-51518571D02*
X108834895Y-51594761D01*
X108834895Y-51594761D02*
X108834895Y-51785237D01*
X108834895Y-51785237D02*
X108872990Y-51861428D01*
X108872990Y-51861428D02*
X108911085Y-51899523D01*
X108911085Y-51899523D02*
X108987276Y-51937618D01*
X108987276Y-51937618D02*
X109063466Y-51937618D01*
X109063466Y-51937618D02*
X109177752Y-51899523D01*
X109177752Y-51899523D02*
X109634895Y-51442380D01*
X109634895Y-51442380D02*
X109634895Y-51937618D01*
X108834895Y-52661428D02*
X108834895Y-52280476D01*
X108834895Y-52280476D02*
X109215847Y-52242380D01*
X109215847Y-52242380D02*
X109177752Y-52280476D01*
X109177752Y-52280476D02*
X109139657Y-52356666D01*
X109139657Y-52356666D02*
X109139657Y-52547142D01*
X109139657Y-52547142D02*
X109177752Y-52623333D01*
X109177752Y-52623333D02*
X109215847Y-52661428D01*
X109215847Y-52661428D02*
X109292038Y-52699523D01*
X109292038Y-52699523D02*
X109482514Y-52699523D01*
X109482514Y-52699523D02*
X109558704Y-52661428D01*
X109558704Y-52661428D02*
X109596800Y-52623333D01*
X109596800Y-52623333D02*
X109634895Y-52547142D01*
X109634895Y-52547142D02*
X109634895Y-52356666D01*
X109634895Y-52356666D02*
X109596800Y-52280476D01*
X109596800Y-52280476D02*
X109558704Y-52242380D01*
X131814285Y-110888704D02*
X131852381Y-110926800D01*
X131852381Y-110926800D02*
X131966666Y-110964895D01*
X131966666Y-110964895D02*
X132042857Y-110964895D01*
X132042857Y-110964895D02*
X132157143Y-110926800D01*
X132157143Y-110926800D02*
X132233333Y-110850609D01*
X132233333Y-110850609D02*
X132271428Y-110774419D01*
X132271428Y-110774419D02*
X132309524Y-110622038D01*
X132309524Y-110622038D02*
X132309524Y-110507752D01*
X132309524Y-110507752D02*
X132271428Y-110355371D01*
X132271428Y-110355371D02*
X132233333Y-110279180D01*
X132233333Y-110279180D02*
X132157143Y-110202990D01*
X132157143Y-110202990D02*
X132042857Y-110164895D01*
X132042857Y-110164895D02*
X131966666Y-110164895D01*
X131966666Y-110164895D02*
X131852381Y-110202990D01*
X131852381Y-110202990D02*
X131814285Y-110241085D01*
X131509524Y-110241085D02*
X131471428Y-110202990D01*
X131471428Y-110202990D02*
X131395238Y-110164895D01*
X131395238Y-110164895D02*
X131204762Y-110164895D01*
X131204762Y-110164895D02*
X131128571Y-110202990D01*
X131128571Y-110202990D02*
X131090476Y-110241085D01*
X131090476Y-110241085D02*
X131052381Y-110317276D01*
X131052381Y-110317276D02*
X131052381Y-110393466D01*
X131052381Y-110393466D02*
X131090476Y-110507752D01*
X131090476Y-110507752D02*
X131547619Y-110964895D01*
X131547619Y-110964895D02*
X131052381Y-110964895D01*
X130290476Y-110964895D02*
X130747619Y-110964895D01*
X130519047Y-110964895D02*
X130519047Y-110164895D01*
X130519047Y-110164895D02*
X130595238Y-110279180D01*
X130595238Y-110279180D02*
X130671428Y-110355371D01*
X130671428Y-110355371D02*
X130747619Y-110393466D01*
X90944285Y-103964895D02*
X91210952Y-103583942D01*
X91401428Y-103964895D02*
X91401428Y-103164895D01*
X91401428Y-103164895D02*
X91096666Y-103164895D01*
X91096666Y-103164895D02*
X91020476Y-103202990D01*
X91020476Y-103202990D02*
X90982381Y-103241085D01*
X90982381Y-103241085D02*
X90944285Y-103317276D01*
X90944285Y-103317276D02*
X90944285Y-103431561D01*
X90944285Y-103431561D02*
X90982381Y-103507752D01*
X90982381Y-103507752D02*
X91020476Y-103545847D01*
X91020476Y-103545847D02*
X91096666Y-103583942D01*
X91096666Y-103583942D02*
X91401428Y-103583942D01*
X90677619Y-103164895D02*
X90182381Y-103164895D01*
X90182381Y-103164895D02*
X90449047Y-103469657D01*
X90449047Y-103469657D02*
X90334762Y-103469657D01*
X90334762Y-103469657D02*
X90258571Y-103507752D01*
X90258571Y-103507752D02*
X90220476Y-103545847D01*
X90220476Y-103545847D02*
X90182381Y-103622038D01*
X90182381Y-103622038D02*
X90182381Y-103812514D01*
X90182381Y-103812514D02*
X90220476Y-103888704D01*
X90220476Y-103888704D02*
X90258571Y-103926800D01*
X90258571Y-103926800D02*
X90334762Y-103964895D01*
X90334762Y-103964895D02*
X90563333Y-103964895D01*
X90563333Y-103964895D02*
X90639524Y-103926800D01*
X90639524Y-103926800D02*
X90677619Y-103888704D01*
X89496666Y-103164895D02*
X89649047Y-103164895D01*
X89649047Y-103164895D02*
X89725238Y-103202990D01*
X89725238Y-103202990D02*
X89763333Y-103241085D01*
X89763333Y-103241085D02*
X89839523Y-103355371D01*
X89839523Y-103355371D02*
X89877619Y-103507752D01*
X89877619Y-103507752D02*
X89877619Y-103812514D01*
X89877619Y-103812514D02*
X89839523Y-103888704D01*
X89839523Y-103888704D02*
X89801428Y-103926800D01*
X89801428Y-103926800D02*
X89725238Y-103964895D01*
X89725238Y-103964895D02*
X89572857Y-103964895D01*
X89572857Y-103964895D02*
X89496666Y-103926800D01*
X89496666Y-103926800D02*
X89458571Y-103888704D01*
X89458571Y-103888704D02*
X89420476Y-103812514D01*
X89420476Y-103812514D02*
X89420476Y-103622038D01*
X89420476Y-103622038D02*
X89458571Y-103545847D01*
X89458571Y-103545847D02*
X89496666Y-103507752D01*
X89496666Y-103507752D02*
X89572857Y-103469657D01*
X89572857Y-103469657D02*
X89725238Y-103469657D01*
X89725238Y-103469657D02*
X89801428Y-103507752D01*
X89801428Y-103507752D02*
X89839523Y-103545847D01*
X89839523Y-103545847D02*
X89877619Y-103622038D01*
X149434285Y-112728704D02*
X149472381Y-112766800D01*
X149472381Y-112766800D02*
X149586666Y-112804895D01*
X149586666Y-112804895D02*
X149662857Y-112804895D01*
X149662857Y-112804895D02*
X149777143Y-112766800D01*
X149777143Y-112766800D02*
X149853333Y-112690609D01*
X149853333Y-112690609D02*
X149891428Y-112614419D01*
X149891428Y-112614419D02*
X149929524Y-112462038D01*
X149929524Y-112462038D02*
X149929524Y-112347752D01*
X149929524Y-112347752D02*
X149891428Y-112195371D01*
X149891428Y-112195371D02*
X149853333Y-112119180D01*
X149853333Y-112119180D02*
X149777143Y-112042990D01*
X149777143Y-112042990D02*
X149662857Y-112004895D01*
X149662857Y-112004895D02*
X149586666Y-112004895D01*
X149586666Y-112004895D02*
X149472381Y-112042990D01*
X149472381Y-112042990D02*
X149434285Y-112081085D01*
X149129524Y-112081085D02*
X149091428Y-112042990D01*
X149091428Y-112042990D02*
X149015238Y-112004895D01*
X149015238Y-112004895D02*
X148824762Y-112004895D01*
X148824762Y-112004895D02*
X148748571Y-112042990D01*
X148748571Y-112042990D02*
X148710476Y-112081085D01*
X148710476Y-112081085D02*
X148672381Y-112157276D01*
X148672381Y-112157276D02*
X148672381Y-112233466D01*
X148672381Y-112233466D02*
X148710476Y-112347752D01*
X148710476Y-112347752D02*
X149167619Y-112804895D01*
X149167619Y-112804895D02*
X148672381Y-112804895D01*
X148177142Y-112004895D02*
X148100952Y-112004895D01*
X148100952Y-112004895D02*
X148024761Y-112042990D01*
X148024761Y-112042990D02*
X147986666Y-112081085D01*
X147986666Y-112081085D02*
X147948571Y-112157276D01*
X147948571Y-112157276D02*
X147910476Y-112309657D01*
X147910476Y-112309657D02*
X147910476Y-112500133D01*
X147910476Y-112500133D02*
X147948571Y-112652514D01*
X147948571Y-112652514D02*
X147986666Y-112728704D01*
X147986666Y-112728704D02*
X148024761Y-112766800D01*
X148024761Y-112766800D02*
X148100952Y-112804895D01*
X148100952Y-112804895D02*
X148177142Y-112804895D01*
X148177142Y-112804895D02*
X148253333Y-112766800D01*
X148253333Y-112766800D02*
X148291428Y-112728704D01*
X148291428Y-112728704D02*
X148329523Y-112652514D01*
X148329523Y-112652514D02*
X148367619Y-112500133D01*
X148367619Y-112500133D02*
X148367619Y-112309657D01*
X148367619Y-112309657D02*
X148329523Y-112157276D01*
X148329523Y-112157276D02*
X148291428Y-112081085D01*
X148291428Y-112081085D02*
X148253333Y-112042990D01*
X148253333Y-112042990D02*
X148177142Y-112004895D01*
X119954895Y-77815714D02*
X119573942Y-77549047D01*
X119954895Y-77358571D02*
X119154895Y-77358571D01*
X119154895Y-77358571D02*
X119154895Y-77663333D01*
X119154895Y-77663333D02*
X119192990Y-77739523D01*
X119192990Y-77739523D02*
X119231085Y-77777618D01*
X119231085Y-77777618D02*
X119307276Y-77815714D01*
X119307276Y-77815714D02*
X119421561Y-77815714D01*
X119421561Y-77815714D02*
X119497752Y-77777618D01*
X119497752Y-77777618D02*
X119535847Y-77739523D01*
X119535847Y-77739523D02*
X119573942Y-77663333D01*
X119573942Y-77663333D02*
X119573942Y-77358571D01*
X119231085Y-78120475D02*
X119192990Y-78158571D01*
X119192990Y-78158571D02*
X119154895Y-78234761D01*
X119154895Y-78234761D02*
X119154895Y-78425237D01*
X119154895Y-78425237D02*
X119192990Y-78501428D01*
X119192990Y-78501428D02*
X119231085Y-78539523D01*
X119231085Y-78539523D02*
X119307276Y-78577618D01*
X119307276Y-78577618D02*
X119383466Y-78577618D01*
X119383466Y-78577618D02*
X119497752Y-78539523D01*
X119497752Y-78539523D02*
X119954895Y-78082380D01*
X119954895Y-78082380D02*
X119954895Y-78577618D01*
X119154895Y-78844285D02*
X119154895Y-79339523D01*
X119154895Y-79339523D02*
X119459657Y-79072857D01*
X119459657Y-79072857D02*
X119459657Y-79187142D01*
X119459657Y-79187142D02*
X119497752Y-79263333D01*
X119497752Y-79263333D02*
X119535847Y-79301428D01*
X119535847Y-79301428D02*
X119612038Y-79339523D01*
X119612038Y-79339523D02*
X119802514Y-79339523D01*
X119802514Y-79339523D02*
X119878704Y-79301428D01*
X119878704Y-79301428D02*
X119916800Y-79263333D01*
X119916800Y-79263333D02*
X119954895Y-79187142D01*
X119954895Y-79187142D02*
X119954895Y-78958571D01*
X119954895Y-78958571D02*
X119916800Y-78882380D01*
X119916800Y-78882380D02*
X119878704Y-78844285D01*
X109234285Y-107704895D02*
X109500952Y-107323942D01*
X109691428Y-107704895D02*
X109691428Y-106904895D01*
X109691428Y-106904895D02*
X109386666Y-106904895D01*
X109386666Y-106904895D02*
X109310476Y-106942990D01*
X109310476Y-106942990D02*
X109272381Y-106981085D01*
X109272381Y-106981085D02*
X109234285Y-107057276D01*
X109234285Y-107057276D02*
X109234285Y-107171561D01*
X109234285Y-107171561D02*
X109272381Y-107247752D01*
X109272381Y-107247752D02*
X109310476Y-107285847D01*
X109310476Y-107285847D02*
X109386666Y-107323942D01*
X109386666Y-107323942D02*
X109691428Y-107323942D01*
X108929524Y-106981085D02*
X108891428Y-106942990D01*
X108891428Y-106942990D02*
X108815238Y-106904895D01*
X108815238Y-106904895D02*
X108624762Y-106904895D01*
X108624762Y-106904895D02*
X108548571Y-106942990D01*
X108548571Y-106942990D02*
X108510476Y-106981085D01*
X108510476Y-106981085D02*
X108472381Y-107057276D01*
X108472381Y-107057276D02*
X108472381Y-107133466D01*
X108472381Y-107133466D02*
X108510476Y-107247752D01*
X108510476Y-107247752D02*
X108967619Y-107704895D01*
X108967619Y-107704895D02*
X108472381Y-107704895D01*
X107977142Y-106904895D02*
X107900952Y-106904895D01*
X107900952Y-106904895D02*
X107824761Y-106942990D01*
X107824761Y-106942990D02*
X107786666Y-106981085D01*
X107786666Y-106981085D02*
X107748571Y-107057276D01*
X107748571Y-107057276D02*
X107710476Y-107209657D01*
X107710476Y-107209657D02*
X107710476Y-107400133D01*
X107710476Y-107400133D02*
X107748571Y-107552514D01*
X107748571Y-107552514D02*
X107786666Y-107628704D01*
X107786666Y-107628704D02*
X107824761Y-107666800D01*
X107824761Y-107666800D02*
X107900952Y-107704895D01*
X107900952Y-107704895D02*
X107977142Y-107704895D01*
X107977142Y-107704895D02*
X108053333Y-107666800D01*
X108053333Y-107666800D02*
X108091428Y-107628704D01*
X108091428Y-107628704D02*
X108129523Y-107552514D01*
X108129523Y-107552514D02*
X108167619Y-107400133D01*
X108167619Y-107400133D02*
X108167619Y-107209657D01*
X108167619Y-107209657D02*
X108129523Y-107057276D01*
X108129523Y-107057276D02*
X108091428Y-106981085D01*
X108091428Y-106981085D02*
X108053333Y-106942990D01*
X108053333Y-106942990D02*
X107977142Y-106904895D01*
X135344895Y-118427976D02*
X135992514Y-118427976D01*
X135992514Y-118427976D02*
X136068704Y-118466071D01*
X136068704Y-118466071D02*
X136106800Y-118504166D01*
X136106800Y-118504166D02*
X136144895Y-118580357D01*
X136144895Y-118580357D02*
X136144895Y-118732738D01*
X136144895Y-118732738D02*
X136106800Y-118808928D01*
X136106800Y-118808928D02*
X136068704Y-118847023D01*
X136068704Y-118847023D02*
X135992514Y-118885119D01*
X135992514Y-118885119D02*
X135344895Y-118885119D01*
X135611561Y-119608928D02*
X136144895Y-119608928D01*
X135306800Y-119418452D02*
X135878228Y-119227975D01*
X135878228Y-119227975D02*
X135878228Y-119723214D01*
X139785104Y-52659523D02*
X139137485Y-52659523D01*
X139137485Y-52659523D02*
X139061295Y-52621428D01*
X139061295Y-52621428D02*
X139023200Y-52583333D01*
X139023200Y-52583333D02*
X138985104Y-52507142D01*
X138985104Y-52507142D02*
X138985104Y-52354761D01*
X138985104Y-52354761D02*
X139023200Y-52278571D01*
X139023200Y-52278571D02*
X139061295Y-52240476D01*
X139061295Y-52240476D02*
X139137485Y-52202380D01*
X139137485Y-52202380D02*
X139785104Y-52202380D01*
X138985104Y-51402381D02*
X138985104Y-51859524D01*
X138985104Y-51630952D02*
X139785104Y-51630952D01*
X139785104Y-51630952D02*
X139670819Y-51707143D01*
X139670819Y-51707143D02*
X139594628Y-51783333D01*
X139594628Y-51783333D02*
X139556533Y-51859524D01*
X131814285Y-113198704D02*
X131852381Y-113236800D01*
X131852381Y-113236800D02*
X131966666Y-113274895D01*
X131966666Y-113274895D02*
X132042857Y-113274895D01*
X132042857Y-113274895D02*
X132157143Y-113236800D01*
X132157143Y-113236800D02*
X132233333Y-113160609D01*
X132233333Y-113160609D02*
X132271428Y-113084419D01*
X132271428Y-113084419D02*
X132309524Y-112932038D01*
X132309524Y-112932038D02*
X132309524Y-112817752D01*
X132309524Y-112817752D02*
X132271428Y-112665371D01*
X132271428Y-112665371D02*
X132233333Y-112589180D01*
X132233333Y-112589180D02*
X132157143Y-112512990D01*
X132157143Y-112512990D02*
X132042857Y-112474895D01*
X132042857Y-112474895D02*
X131966666Y-112474895D01*
X131966666Y-112474895D02*
X131852381Y-112512990D01*
X131852381Y-112512990D02*
X131814285Y-112551085D01*
X131509524Y-112551085D02*
X131471428Y-112512990D01*
X131471428Y-112512990D02*
X131395238Y-112474895D01*
X131395238Y-112474895D02*
X131204762Y-112474895D01*
X131204762Y-112474895D02*
X131128571Y-112512990D01*
X131128571Y-112512990D02*
X131090476Y-112551085D01*
X131090476Y-112551085D02*
X131052381Y-112627276D01*
X131052381Y-112627276D02*
X131052381Y-112703466D01*
X131052381Y-112703466D02*
X131090476Y-112817752D01*
X131090476Y-112817752D02*
X131547619Y-113274895D01*
X131547619Y-113274895D02*
X131052381Y-113274895D01*
X130747619Y-112551085D02*
X130709523Y-112512990D01*
X130709523Y-112512990D02*
X130633333Y-112474895D01*
X130633333Y-112474895D02*
X130442857Y-112474895D01*
X130442857Y-112474895D02*
X130366666Y-112512990D01*
X130366666Y-112512990D02*
X130328571Y-112551085D01*
X130328571Y-112551085D02*
X130290476Y-112627276D01*
X130290476Y-112627276D02*
X130290476Y-112703466D01*
X130290476Y-112703466D02*
X130328571Y-112817752D01*
X130328571Y-112817752D02*
X130785714Y-113274895D01*
X130785714Y-113274895D02*
X130290476Y-113274895D01*
X136894285Y-125934895D02*
X137160952Y-125553942D01*
X137351428Y-125934895D02*
X137351428Y-125134895D01*
X137351428Y-125134895D02*
X137046666Y-125134895D01*
X137046666Y-125134895D02*
X136970476Y-125172990D01*
X136970476Y-125172990D02*
X136932381Y-125211085D01*
X136932381Y-125211085D02*
X136894285Y-125287276D01*
X136894285Y-125287276D02*
X136894285Y-125401561D01*
X136894285Y-125401561D02*
X136932381Y-125477752D01*
X136932381Y-125477752D02*
X136970476Y-125515847D01*
X136970476Y-125515847D02*
X137046666Y-125553942D01*
X137046666Y-125553942D02*
X137351428Y-125553942D01*
X136208571Y-125401561D02*
X136208571Y-125934895D01*
X136399047Y-125096800D02*
X136589524Y-125668228D01*
X136589524Y-125668228D02*
X136094285Y-125668228D01*
X135637142Y-125134895D02*
X135560952Y-125134895D01*
X135560952Y-125134895D02*
X135484761Y-125172990D01*
X135484761Y-125172990D02*
X135446666Y-125211085D01*
X135446666Y-125211085D02*
X135408571Y-125287276D01*
X135408571Y-125287276D02*
X135370476Y-125439657D01*
X135370476Y-125439657D02*
X135370476Y-125630133D01*
X135370476Y-125630133D02*
X135408571Y-125782514D01*
X135408571Y-125782514D02*
X135446666Y-125858704D01*
X135446666Y-125858704D02*
X135484761Y-125896800D01*
X135484761Y-125896800D02*
X135560952Y-125934895D01*
X135560952Y-125934895D02*
X135637142Y-125934895D01*
X135637142Y-125934895D02*
X135713333Y-125896800D01*
X135713333Y-125896800D02*
X135751428Y-125858704D01*
X135751428Y-125858704D02*
X135789523Y-125782514D01*
X135789523Y-125782514D02*
X135827619Y-125630133D01*
X135827619Y-125630133D02*
X135827619Y-125439657D01*
X135827619Y-125439657D02*
X135789523Y-125287276D01*
X135789523Y-125287276D02*
X135751428Y-125211085D01*
X135751428Y-125211085D02*
X135713333Y-125172990D01*
X135713333Y-125172990D02*
X135637142Y-125134895D01*
X107394895Y-51175714D02*
X107013942Y-50909047D01*
X107394895Y-50718571D02*
X106594895Y-50718571D01*
X106594895Y-50718571D02*
X106594895Y-51023333D01*
X106594895Y-51023333D02*
X106632990Y-51099523D01*
X106632990Y-51099523D02*
X106671085Y-51137618D01*
X106671085Y-51137618D02*
X106747276Y-51175714D01*
X106747276Y-51175714D02*
X106861561Y-51175714D01*
X106861561Y-51175714D02*
X106937752Y-51137618D01*
X106937752Y-51137618D02*
X106975847Y-51099523D01*
X106975847Y-51099523D02*
X107013942Y-51023333D01*
X107013942Y-51023333D02*
X107013942Y-50718571D01*
X106671085Y-51480475D02*
X106632990Y-51518571D01*
X106632990Y-51518571D02*
X106594895Y-51594761D01*
X106594895Y-51594761D02*
X106594895Y-51785237D01*
X106594895Y-51785237D02*
X106632990Y-51861428D01*
X106632990Y-51861428D02*
X106671085Y-51899523D01*
X106671085Y-51899523D02*
X106747276Y-51937618D01*
X106747276Y-51937618D02*
X106823466Y-51937618D01*
X106823466Y-51937618D02*
X106937752Y-51899523D01*
X106937752Y-51899523D02*
X107394895Y-51442380D01*
X107394895Y-51442380D02*
X107394895Y-51937618D01*
X106671085Y-52242380D02*
X106632990Y-52280476D01*
X106632990Y-52280476D02*
X106594895Y-52356666D01*
X106594895Y-52356666D02*
X106594895Y-52547142D01*
X106594895Y-52547142D02*
X106632990Y-52623333D01*
X106632990Y-52623333D02*
X106671085Y-52661428D01*
X106671085Y-52661428D02*
X106747276Y-52699523D01*
X106747276Y-52699523D02*
X106823466Y-52699523D01*
X106823466Y-52699523D02*
X106937752Y-52661428D01*
X106937752Y-52661428D02*
X107394895Y-52204285D01*
X107394895Y-52204285D02*
X107394895Y-52699523D01*
X116724895Y-50555714D02*
X116343942Y-50289047D01*
X116724895Y-50098571D02*
X115924895Y-50098571D01*
X115924895Y-50098571D02*
X115924895Y-50403333D01*
X115924895Y-50403333D02*
X115962990Y-50479523D01*
X115962990Y-50479523D02*
X116001085Y-50517618D01*
X116001085Y-50517618D02*
X116077276Y-50555714D01*
X116077276Y-50555714D02*
X116191561Y-50555714D01*
X116191561Y-50555714D02*
X116267752Y-50517618D01*
X116267752Y-50517618D02*
X116305847Y-50479523D01*
X116305847Y-50479523D02*
X116343942Y-50403333D01*
X116343942Y-50403333D02*
X116343942Y-50098571D01*
X116724895Y-51317618D02*
X116724895Y-50860475D01*
X116724895Y-51089047D02*
X115924895Y-51089047D01*
X115924895Y-51089047D02*
X116039180Y-51012856D01*
X116039180Y-51012856D02*
X116115371Y-50936666D01*
X116115371Y-50936666D02*
X116153466Y-50860475D01*
X116267752Y-51774761D02*
X116229657Y-51698571D01*
X116229657Y-51698571D02*
X116191561Y-51660476D01*
X116191561Y-51660476D02*
X116115371Y-51622380D01*
X116115371Y-51622380D02*
X116077276Y-51622380D01*
X116077276Y-51622380D02*
X116001085Y-51660476D01*
X116001085Y-51660476D02*
X115962990Y-51698571D01*
X115962990Y-51698571D02*
X115924895Y-51774761D01*
X115924895Y-51774761D02*
X115924895Y-51927142D01*
X115924895Y-51927142D02*
X115962990Y-52003333D01*
X115962990Y-52003333D02*
X116001085Y-52041428D01*
X116001085Y-52041428D02*
X116077276Y-52079523D01*
X116077276Y-52079523D02*
X116115371Y-52079523D01*
X116115371Y-52079523D02*
X116191561Y-52041428D01*
X116191561Y-52041428D02*
X116229657Y-52003333D01*
X116229657Y-52003333D02*
X116267752Y-51927142D01*
X116267752Y-51927142D02*
X116267752Y-51774761D01*
X116267752Y-51774761D02*
X116305847Y-51698571D01*
X116305847Y-51698571D02*
X116343942Y-51660476D01*
X116343942Y-51660476D02*
X116420133Y-51622380D01*
X116420133Y-51622380D02*
X116572514Y-51622380D01*
X116572514Y-51622380D02*
X116648704Y-51660476D01*
X116648704Y-51660476D02*
X116686800Y-51698571D01*
X116686800Y-51698571D02*
X116724895Y-51774761D01*
X116724895Y-51774761D02*
X116724895Y-51927142D01*
X116724895Y-51927142D02*
X116686800Y-52003333D01*
X116686800Y-52003333D02*
X116648704Y-52041428D01*
X116648704Y-52041428D02*
X116572514Y-52079523D01*
X116572514Y-52079523D02*
X116420133Y-52079523D01*
X116420133Y-52079523D02*
X116343942Y-52041428D01*
X116343942Y-52041428D02*
X116305847Y-52003333D01*
X116305847Y-52003333D02*
X116267752Y-51927142D01*
X149343332Y-35114895D02*
X149609999Y-34733942D01*
X149800475Y-35114895D02*
X149800475Y-34314895D01*
X149800475Y-34314895D02*
X149495713Y-34314895D01*
X149495713Y-34314895D02*
X149419523Y-34352990D01*
X149419523Y-34352990D02*
X149381428Y-34391085D01*
X149381428Y-34391085D02*
X149343332Y-34467276D01*
X149343332Y-34467276D02*
X149343332Y-34581561D01*
X149343332Y-34581561D02*
X149381428Y-34657752D01*
X149381428Y-34657752D02*
X149419523Y-34695847D01*
X149419523Y-34695847D02*
X149495713Y-34733942D01*
X149495713Y-34733942D02*
X149800475Y-34733942D01*
X148581428Y-35114895D02*
X149038571Y-35114895D01*
X148809999Y-35114895D02*
X148809999Y-34314895D01*
X148809999Y-34314895D02*
X148886190Y-34429180D01*
X148886190Y-34429180D02*
X148962380Y-34505371D01*
X148962380Y-34505371D02*
X149038571Y-34543466D01*
X106792380Y-34254895D02*
X106335237Y-34254895D01*
X106563809Y-35054895D02*
X106563809Y-34254895D01*
X105801904Y-34635847D02*
X106068570Y-34635847D01*
X106068570Y-35054895D02*
X106068570Y-34254895D01*
X106068570Y-34254895D02*
X105687618Y-34254895D01*
X104963809Y-35054895D02*
X105420952Y-35054895D01*
X105192380Y-35054895D02*
X105192380Y-34254895D01*
X105192380Y-34254895D02*
X105268571Y-34369180D01*
X105268571Y-34369180D02*
X105344761Y-34445371D01*
X105344761Y-34445371D02*
X105420952Y-34483466D01*
X149434285Y-110308704D02*
X149472381Y-110346800D01*
X149472381Y-110346800D02*
X149586666Y-110384895D01*
X149586666Y-110384895D02*
X149662857Y-110384895D01*
X149662857Y-110384895D02*
X149777143Y-110346800D01*
X149777143Y-110346800D02*
X149853333Y-110270609D01*
X149853333Y-110270609D02*
X149891428Y-110194419D01*
X149891428Y-110194419D02*
X149929524Y-110042038D01*
X149929524Y-110042038D02*
X149929524Y-109927752D01*
X149929524Y-109927752D02*
X149891428Y-109775371D01*
X149891428Y-109775371D02*
X149853333Y-109699180D01*
X149853333Y-109699180D02*
X149777143Y-109622990D01*
X149777143Y-109622990D02*
X149662857Y-109584895D01*
X149662857Y-109584895D02*
X149586666Y-109584895D01*
X149586666Y-109584895D02*
X149472381Y-109622990D01*
X149472381Y-109622990D02*
X149434285Y-109661085D01*
X148672381Y-110384895D02*
X149129524Y-110384895D01*
X148900952Y-110384895D02*
X148900952Y-109584895D01*
X148900952Y-109584895D02*
X148977143Y-109699180D01*
X148977143Y-109699180D02*
X149053333Y-109775371D01*
X149053333Y-109775371D02*
X149129524Y-109813466D01*
X148291428Y-110384895D02*
X148139047Y-110384895D01*
X148139047Y-110384895D02*
X148062857Y-110346800D01*
X148062857Y-110346800D02*
X148024761Y-110308704D01*
X148024761Y-110308704D02*
X147948571Y-110194419D01*
X147948571Y-110194419D02*
X147910476Y-110042038D01*
X147910476Y-110042038D02*
X147910476Y-109737276D01*
X147910476Y-109737276D02*
X147948571Y-109661085D01*
X147948571Y-109661085D02*
X147986666Y-109622990D01*
X147986666Y-109622990D02*
X148062857Y-109584895D01*
X148062857Y-109584895D02*
X148215238Y-109584895D01*
X148215238Y-109584895D02*
X148291428Y-109622990D01*
X148291428Y-109622990D02*
X148329523Y-109661085D01*
X148329523Y-109661085D02*
X148367619Y-109737276D01*
X148367619Y-109737276D02*
X148367619Y-109927752D01*
X148367619Y-109927752D02*
X148329523Y-110003942D01*
X148329523Y-110003942D02*
X148291428Y-110042038D01*
X148291428Y-110042038D02*
X148215238Y-110080133D01*
X148215238Y-110080133D02*
X148062857Y-110080133D01*
X148062857Y-110080133D02*
X147986666Y-110042038D01*
X147986666Y-110042038D02*
X147948571Y-110003942D01*
X147948571Y-110003942D02*
X147910476Y-109927752D01*
X144424285Y-125934895D02*
X144690952Y-125553942D01*
X144881428Y-125934895D02*
X144881428Y-125134895D01*
X144881428Y-125134895D02*
X144576666Y-125134895D01*
X144576666Y-125134895D02*
X144500476Y-125172990D01*
X144500476Y-125172990D02*
X144462381Y-125211085D01*
X144462381Y-125211085D02*
X144424285Y-125287276D01*
X144424285Y-125287276D02*
X144424285Y-125401561D01*
X144424285Y-125401561D02*
X144462381Y-125477752D01*
X144462381Y-125477752D02*
X144500476Y-125515847D01*
X144500476Y-125515847D02*
X144576666Y-125553942D01*
X144576666Y-125553942D02*
X144881428Y-125553942D01*
X144119524Y-125211085D02*
X144081428Y-125172990D01*
X144081428Y-125172990D02*
X144005238Y-125134895D01*
X144005238Y-125134895D02*
X143814762Y-125134895D01*
X143814762Y-125134895D02*
X143738571Y-125172990D01*
X143738571Y-125172990D02*
X143700476Y-125211085D01*
X143700476Y-125211085D02*
X143662381Y-125287276D01*
X143662381Y-125287276D02*
X143662381Y-125363466D01*
X143662381Y-125363466D02*
X143700476Y-125477752D01*
X143700476Y-125477752D02*
X144157619Y-125934895D01*
X144157619Y-125934895D02*
X143662381Y-125934895D01*
X142976666Y-125134895D02*
X143129047Y-125134895D01*
X143129047Y-125134895D02*
X143205238Y-125172990D01*
X143205238Y-125172990D02*
X143243333Y-125211085D01*
X143243333Y-125211085D02*
X143319523Y-125325371D01*
X143319523Y-125325371D02*
X143357619Y-125477752D01*
X143357619Y-125477752D02*
X143357619Y-125782514D01*
X143357619Y-125782514D02*
X143319523Y-125858704D01*
X143319523Y-125858704D02*
X143281428Y-125896800D01*
X143281428Y-125896800D02*
X143205238Y-125934895D01*
X143205238Y-125934895D02*
X143052857Y-125934895D01*
X143052857Y-125934895D02*
X142976666Y-125896800D01*
X142976666Y-125896800D02*
X142938571Y-125858704D01*
X142938571Y-125858704D02*
X142900476Y-125782514D01*
X142900476Y-125782514D02*
X142900476Y-125592038D01*
X142900476Y-125592038D02*
X142938571Y-125515847D01*
X142938571Y-125515847D02*
X142976666Y-125477752D01*
X142976666Y-125477752D02*
X143052857Y-125439657D01*
X143052857Y-125439657D02*
X143205238Y-125439657D01*
X143205238Y-125439657D02*
X143281428Y-125477752D01*
X143281428Y-125477752D02*
X143319523Y-125515847D01*
X143319523Y-125515847D02*
X143357619Y-125592038D01*
X105078704Y-51175714D02*
X105116800Y-51137618D01*
X105116800Y-51137618D02*
X105154895Y-51023333D01*
X105154895Y-51023333D02*
X105154895Y-50947142D01*
X105154895Y-50947142D02*
X105116800Y-50832856D01*
X105116800Y-50832856D02*
X105040609Y-50756666D01*
X105040609Y-50756666D02*
X104964419Y-50718571D01*
X104964419Y-50718571D02*
X104812038Y-50680475D01*
X104812038Y-50680475D02*
X104697752Y-50680475D01*
X104697752Y-50680475D02*
X104545371Y-50718571D01*
X104545371Y-50718571D02*
X104469180Y-50756666D01*
X104469180Y-50756666D02*
X104392990Y-50832856D01*
X104392990Y-50832856D02*
X104354895Y-50947142D01*
X104354895Y-50947142D02*
X104354895Y-51023333D01*
X104354895Y-51023333D02*
X104392990Y-51137618D01*
X104392990Y-51137618D02*
X104431085Y-51175714D01*
X105154895Y-51937618D02*
X105154895Y-51480475D01*
X105154895Y-51709047D02*
X104354895Y-51709047D01*
X104354895Y-51709047D02*
X104469180Y-51632856D01*
X104469180Y-51632856D02*
X104545371Y-51556666D01*
X104545371Y-51556666D02*
X104583466Y-51480475D01*
X104354895Y-52204285D02*
X104354895Y-52699523D01*
X104354895Y-52699523D02*
X104659657Y-52432857D01*
X104659657Y-52432857D02*
X104659657Y-52547142D01*
X104659657Y-52547142D02*
X104697752Y-52623333D01*
X104697752Y-52623333D02*
X104735847Y-52661428D01*
X104735847Y-52661428D02*
X104812038Y-52699523D01*
X104812038Y-52699523D02*
X105002514Y-52699523D01*
X105002514Y-52699523D02*
X105078704Y-52661428D01*
X105078704Y-52661428D02*
X105116800Y-52623333D01*
X105116800Y-52623333D02*
X105154895Y-52547142D01*
X105154895Y-52547142D02*
X105154895Y-52318571D01*
X105154895Y-52318571D02*
X105116800Y-52242380D01*
X105116800Y-52242380D02*
X105078704Y-52204285D01*
X90944285Y-100934895D02*
X91210952Y-100553942D01*
X91401428Y-100934895D02*
X91401428Y-100134895D01*
X91401428Y-100134895D02*
X91096666Y-100134895D01*
X91096666Y-100134895D02*
X91020476Y-100172990D01*
X91020476Y-100172990D02*
X90982381Y-100211085D01*
X90982381Y-100211085D02*
X90944285Y-100287276D01*
X90944285Y-100287276D02*
X90944285Y-100401561D01*
X90944285Y-100401561D02*
X90982381Y-100477752D01*
X90982381Y-100477752D02*
X91020476Y-100515847D01*
X91020476Y-100515847D02*
X91096666Y-100553942D01*
X91096666Y-100553942D02*
X91401428Y-100553942D01*
X90677619Y-100134895D02*
X90182381Y-100134895D01*
X90182381Y-100134895D02*
X90449047Y-100439657D01*
X90449047Y-100439657D02*
X90334762Y-100439657D01*
X90334762Y-100439657D02*
X90258571Y-100477752D01*
X90258571Y-100477752D02*
X90220476Y-100515847D01*
X90220476Y-100515847D02*
X90182381Y-100592038D01*
X90182381Y-100592038D02*
X90182381Y-100782514D01*
X90182381Y-100782514D02*
X90220476Y-100858704D01*
X90220476Y-100858704D02*
X90258571Y-100896800D01*
X90258571Y-100896800D02*
X90334762Y-100934895D01*
X90334762Y-100934895D02*
X90563333Y-100934895D01*
X90563333Y-100934895D02*
X90639524Y-100896800D01*
X90639524Y-100896800D02*
X90677619Y-100858704D01*
X89915714Y-100134895D02*
X89382380Y-100134895D01*
X89382380Y-100134895D02*
X89725238Y-100934895D01*
X149293332Y-43024895D02*
X149559999Y-42643942D01*
X149750475Y-43024895D02*
X149750475Y-42224895D01*
X149750475Y-42224895D02*
X149445713Y-42224895D01*
X149445713Y-42224895D02*
X149369523Y-42262990D01*
X149369523Y-42262990D02*
X149331428Y-42301085D01*
X149331428Y-42301085D02*
X149293332Y-42377276D01*
X149293332Y-42377276D02*
X149293332Y-42491561D01*
X149293332Y-42491561D02*
X149331428Y-42567752D01*
X149331428Y-42567752D02*
X149369523Y-42605847D01*
X149369523Y-42605847D02*
X149445713Y-42643942D01*
X149445713Y-42643942D02*
X149750475Y-42643942D01*
X148607618Y-42491561D02*
X148607618Y-43024895D01*
X148798094Y-42186800D02*
X148988571Y-42758228D01*
X148988571Y-42758228D02*
X148493332Y-42758228D01*
X102838704Y-51175714D02*
X102876800Y-51137618D01*
X102876800Y-51137618D02*
X102914895Y-51023333D01*
X102914895Y-51023333D02*
X102914895Y-50947142D01*
X102914895Y-50947142D02*
X102876800Y-50832856D01*
X102876800Y-50832856D02*
X102800609Y-50756666D01*
X102800609Y-50756666D02*
X102724419Y-50718571D01*
X102724419Y-50718571D02*
X102572038Y-50680475D01*
X102572038Y-50680475D02*
X102457752Y-50680475D01*
X102457752Y-50680475D02*
X102305371Y-50718571D01*
X102305371Y-50718571D02*
X102229180Y-50756666D01*
X102229180Y-50756666D02*
X102152990Y-50832856D01*
X102152990Y-50832856D02*
X102114895Y-50947142D01*
X102114895Y-50947142D02*
X102114895Y-51023333D01*
X102114895Y-51023333D02*
X102152990Y-51137618D01*
X102152990Y-51137618D02*
X102191085Y-51175714D01*
X102914895Y-51937618D02*
X102914895Y-51480475D01*
X102914895Y-51709047D02*
X102114895Y-51709047D01*
X102114895Y-51709047D02*
X102229180Y-51632856D01*
X102229180Y-51632856D02*
X102305371Y-51556666D01*
X102305371Y-51556666D02*
X102343466Y-51480475D01*
X102191085Y-52242380D02*
X102152990Y-52280476D01*
X102152990Y-52280476D02*
X102114895Y-52356666D01*
X102114895Y-52356666D02*
X102114895Y-52547142D01*
X102114895Y-52547142D02*
X102152990Y-52623333D01*
X102152990Y-52623333D02*
X102191085Y-52661428D01*
X102191085Y-52661428D02*
X102267276Y-52699523D01*
X102267276Y-52699523D02*
X102343466Y-52699523D01*
X102343466Y-52699523D02*
X102457752Y-52661428D01*
X102457752Y-52661428D02*
X102914895Y-52204285D01*
X102914895Y-52204285D02*
X102914895Y-52699523D01*
X112203332Y-43834895D02*
X112469999Y-43453942D01*
X112660475Y-43834895D02*
X112660475Y-43034895D01*
X112660475Y-43034895D02*
X112355713Y-43034895D01*
X112355713Y-43034895D02*
X112279523Y-43072990D01*
X112279523Y-43072990D02*
X112241428Y-43111085D01*
X112241428Y-43111085D02*
X112203332Y-43187276D01*
X112203332Y-43187276D02*
X112203332Y-43301561D01*
X112203332Y-43301561D02*
X112241428Y-43377752D01*
X112241428Y-43377752D02*
X112279523Y-43415847D01*
X112279523Y-43415847D02*
X112355713Y-43453942D01*
X112355713Y-43453942D02*
X112660475Y-43453942D01*
X111479523Y-43034895D02*
X111860475Y-43034895D01*
X111860475Y-43034895D02*
X111898571Y-43415847D01*
X111898571Y-43415847D02*
X111860475Y-43377752D01*
X111860475Y-43377752D02*
X111784285Y-43339657D01*
X111784285Y-43339657D02*
X111593809Y-43339657D01*
X111593809Y-43339657D02*
X111517618Y-43377752D01*
X111517618Y-43377752D02*
X111479523Y-43415847D01*
X111479523Y-43415847D02*
X111441428Y-43492038D01*
X111441428Y-43492038D02*
X111441428Y-43682514D01*
X111441428Y-43682514D02*
X111479523Y-43758704D01*
X111479523Y-43758704D02*
X111517618Y-43796800D01*
X111517618Y-43796800D02*
X111593809Y-43834895D01*
X111593809Y-43834895D02*
X111784285Y-43834895D01*
X111784285Y-43834895D02*
X111860475Y-43796800D01*
X111860475Y-43796800D02*
X111898571Y-43758704D01*
X140689285Y-125934895D02*
X140955952Y-125553942D01*
X141146428Y-125934895D02*
X141146428Y-125134895D01*
X141146428Y-125134895D02*
X140841666Y-125134895D01*
X140841666Y-125134895D02*
X140765476Y-125172990D01*
X140765476Y-125172990D02*
X140727381Y-125211085D01*
X140727381Y-125211085D02*
X140689285Y-125287276D01*
X140689285Y-125287276D02*
X140689285Y-125401561D01*
X140689285Y-125401561D02*
X140727381Y-125477752D01*
X140727381Y-125477752D02*
X140765476Y-125515847D01*
X140765476Y-125515847D02*
X140841666Y-125553942D01*
X140841666Y-125553942D02*
X141146428Y-125553942D01*
X140003571Y-125401561D02*
X140003571Y-125934895D01*
X140194047Y-125096800D02*
X140384524Y-125668228D01*
X140384524Y-125668228D02*
X139889285Y-125668228D01*
X139165476Y-125934895D02*
X139622619Y-125934895D01*
X139394047Y-125934895D02*
X139394047Y-125134895D01*
X139394047Y-125134895D02*
X139470238Y-125249180D01*
X139470238Y-125249180D02*
X139546428Y-125325371D01*
X139546428Y-125325371D02*
X139622619Y-125363466D01*
D12*
%TO.C,R44*%
X93794564Y-105915000D02*
X93340436Y-105915000D01*
X93794564Y-107385000D02*
X93340436Y-107385000D01*
%TO.C,FL1*%
D11*
X125420000Y-113689500D02*
G75*
G02*
X125320000Y-113689500I-50000J0D01*
G01*
X125320000Y-113689500D02*
G75*
G02*
X125420000Y-113689500I50000J0D01*
G01*
D13*
%TO.C,D17*%
X120830000Y-114150000D02*
X121630000Y-114150000D01*
X120830000Y-114750000D02*
X120830000Y-114150000D01*
X120830000Y-116350000D02*
X120830000Y-116950000D01*
X120830000Y-116950000D02*
X121630000Y-116950000D01*
D12*
%TO.C,Q1*%
X117250000Y-82790000D02*
X117250000Y-84310000D01*
X117250000Y-84310000D02*
X118250000Y-84310000D01*
X117300000Y-82790000D02*
X117250000Y-82790000D01*
X119200000Y-82790000D02*
X118420000Y-82790000D01*
X119370000Y-84310000D02*
X120370000Y-84310000D01*
X120370000Y-82790000D02*
X120320000Y-82790000D01*
X120370000Y-84310000D02*
X120370000Y-82790000D01*
X118760000Y-82490000D02*
X118430000Y-82250000D01*
X118760000Y-82010000D01*
X118760000Y-82490000D01*
G36*
X118760000Y-82490000D02*
G01*
X118430000Y-82250000D01*
X118760000Y-82010000D01*
X118760000Y-82490000D01*
G37*
%TO.C,R34*%
X112982936Y-65935000D02*
X113437064Y-65935000D01*
X112982936Y-67405000D02*
X113437064Y-67405000D01*
%TO.C,R32*%
X105895000Y-97982936D02*
X105895000Y-98437064D01*
X107365000Y-97982936D02*
X107365000Y-98437064D01*
%TO.C,R7*%
X140385000Y-36202936D02*
X140385000Y-36657064D01*
X141855000Y-36202936D02*
X141855000Y-36657064D01*
%TO.C,R39*%
X144477064Y-120745000D02*
X144022936Y-120745000D01*
X144477064Y-122215000D02*
X144022936Y-122215000D01*
%TO.C,R42*%
X72357064Y-117275000D02*
X71902936Y-117275000D01*
X72357064Y-118745000D02*
X71902936Y-118745000D01*
%TO.C,R21*%
X112327064Y-103785000D02*
X111872936Y-103785000D01*
X112327064Y-105255000D02*
X111872936Y-105255000D01*
%TO.C,R31*%
X102075000Y-97982936D02*
X102075000Y-98437064D01*
X103545000Y-97982936D02*
X103545000Y-98437064D01*
%TO.C,R27*%
X110764999Y-48927064D02*
X110764999Y-48472936D01*
X112234999Y-48927064D02*
X112234999Y-48472936D01*
%TO.C,R43*%
X90812936Y-116965000D02*
X91267064Y-116965000D01*
X90812936Y-118435000D02*
X91267064Y-118435000D01*
%TO.C,R28*%
X114625000Y-82952936D02*
X114625000Y-83407064D01*
X116095000Y-82952936D02*
X116095000Y-83407064D01*
%TO.C,R30*%
X98255000Y-97982936D02*
X98255000Y-98437064D01*
X99725000Y-97982936D02*
X99725000Y-98437064D01*
%TO.C,R15*%
X113315000Y-53752936D02*
X113315000Y-54207064D01*
X114785000Y-53752936D02*
X114785000Y-54207064D01*
%TO.C,R25*%
X108554999Y-48472936D02*
X108554999Y-48927064D01*
X110024999Y-48472936D02*
X110024999Y-48927064D01*
%TO.C,C21*%
X134861252Y-109825000D02*
X134338748Y-109825000D01*
X134861252Y-111295000D02*
X134338748Y-111295000D01*
%TO.C,R36*%
X93340436Y-102875000D02*
X93794564Y-102875000D01*
X93340436Y-104345000D02*
X93794564Y-104345000D01*
%TO.C,C20*%
X145238748Y-111685000D02*
X145761252Y-111685000D01*
X145238748Y-113155000D02*
X145761252Y-113155000D01*
%TO.C,R23*%
X120505000Y-78102936D02*
X120505000Y-78557064D01*
X121975000Y-78102936D02*
X121975000Y-78557064D01*
%TO.C,R20*%
X112327064Y-106615000D02*
X111872936Y-106615000D01*
X112327064Y-108085000D02*
X111872936Y-108085000D01*
D14*
%TO.C,U4*%
X136680000Y-115897500D02*
X136930000Y-115897500D01*
X136680000Y-119597500D02*
X136680000Y-115897500D01*
X138080000Y-119597500D02*
X136680000Y-119597500D01*
X141980000Y-119597500D02*
X143380000Y-119597500D01*
X143380000Y-115897500D02*
X143130000Y-115897500D01*
X143380000Y-119597500D02*
X143380000Y-115897500D01*
D15*
X137830000Y-113147500D02*
G75*
G02*
X137630000Y-113147500I-100000J0D01*
G01*
X137630000Y-113147500D02*
G75*
G02*
X137830000Y-113147500I100000J0D01*
G01*
D12*
%TO.C,U1*%
X119650000Y-27750000D02*
X119650000Y-33950000D01*
X119650000Y-53600000D02*
X119650000Y-52600000D01*
X119650000Y-53600000D02*
X121150000Y-53600000D01*
X138050000Y-27750000D02*
X119650000Y-27750000D01*
X138050000Y-27750000D02*
X138050000Y-33950000D01*
X138050000Y-52600000D02*
X138050000Y-53600000D01*
X138050000Y-53600000D02*
X136550000Y-53600000D01*
X138550000Y-34625000D02*
X138050000Y-34625000D01*
X138050000Y-34125000D01*
X138550000Y-34625000D01*
G36*
X138550000Y-34625000D02*
G01*
X138050000Y-34625000D01*
X138050000Y-34125000D01*
X138550000Y-34625000D01*
G37*
%TO.C,C22*%
X134861252Y-112155000D02*
X134338748Y-112155000D01*
X134861252Y-113625000D02*
X134338748Y-113625000D01*
%TO.C,R40*%
X136657064Y-123135000D02*
X136202936Y-123135000D01*
X136657064Y-124605000D02*
X136202936Y-124605000D01*
%TO.C,R22*%
X106405000Y-48472936D02*
X106405000Y-48927064D01*
X107875000Y-48472936D02*
X107875000Y-48927064D01*
%TO.C,R18*%
X115685000Y-53802936D02*
X115685000Y-54257064D01*
X117155000Y-53802936D02*
X117155000Y-54257064D01*
%TO.C,R1*%
X149367064Y-35655000D02*
X148912936Y-35655000D01*
X149367064Y-37125000D02*
X148912936Y-37125000D01*
D14*
%TO.C,TF1*%
X98655000Y-27530000D02*
X113405000Y-27530000D01*
X98655000Y-30510000D02*
X98655000Y-27530000D01*
X98655000Y-40010000D02*
X98655000Y-33350000D01*
X111760000Y-42030000D02*
X108950000Y-42030000D01*
X113405000Y-30510000D02*
X113405000Y-27530000D01*
X113405000Y-40410000D02*
X113405000Y-33350000D01*
D15*
X108380000Y-43880000D02*
G75*
G02*
X108180000Y-43880000I-100000J0D01*
G01*
X108180000Y-43880000D02*
G75*
G02*
X108380000Y-43880000I100000J0D01*
G01*
D12*
%TO.C,C19*%
X145238748Y-109275000D02*
X145761252Y-109275000D01*
X145238748Y-110745000D02*
X145761252Y-110745000D01*
%TO.C,R26*%
X143652936Y-123135000D02*
X144107064Y-123135000D01*
X143652936Y-124605000D02*
X144107064Y-124605000D01*
%TO.C,C13*%
X104115000Y-48911252D02*
X104115000Y-48388748D01*
X105585000Y-48911252D02*
X105585000Y-48388748D01*
%TO.C,R37*%
X93340436Y-99835000D02*
X93794564Y-99835000D01*
X93340436Y-101305000D02*
X93794564Y-101305000D01*
%TO.C,R4*%
X149387064Y-43575000D02*
X148932936Y-43575000D01*
X149387064Y-45045000D02*
X148932936Y-45045000D01*
%TO.C,C12*%
X101845000Y-48911252D02*
X101845000Y-48388748D01*
X103315000Y-48911252D02*
X103315000Y-48388748D01*
%TO.C,R5*%
X112297064Y-44385000D02*
X111842936Y-44385000D01*
X112297064Y-45855000D02*
X111842936Y-45855000D01*
%TO.C,R41*%
X139927936Y-123135000D02*
X140382064Y-123135000D01*
X139927936Y-124605000D02*
X140382064Y-124605000D01*
%TD*%
M02*
