%TF.GenerationSoftware,KiCad,Pcbnew,9.0.6*%
%TF.CreationDate,2026-03-26T02:15:03+01:00*%
%TF.ProjectId,rayman_main,7261796d-616e-45f6-9d61-696e2e6b6963,rev?*%
%TF.SameCoordinates,Original*%
%TF.FileFunction,Legend,Bot*%
%TF.FilePolarity,Positive*%
%FSLAX46Y46*%
G04 Gerber Fmt 4.6, Leading zero omitted, Abs format (unit mm)*
G04 Created by KiCad (PCBNEW 9.0.6) date 2026-03-26 02:15:03*
%MOMM*%
%LPD*%
G01*
G04 APERTURE LIST*
%ADD10C,0.300000*%
%ADD11C,0.150000*%
%ADD12C,0.120000*%
%ADD13C,0.127000*%
%ADD14C,0.200000*%
G04 APERTURE END LIST*
D10*
X91258570Y-30335912D02*
X91758570Y-29621626D01*
X92115713Y-30335912D02*
X92115713Y-28835912D01*
X92115713Y-28835912D02*
X91544284Y-28835912D01*
X91544284Y-28835912D02*
X91401427Y-28907341D01*
X91401427Y-28907341D02*
X91329998Y-28978769D01*
X91329998Y-28978769D02*
X91258570Y-29121626D01*
X91258570Y-29121626D02*
X91258570Y-29335912D01*
X91258570Y-29335912D02*
X91329998Y-29478769D01*
X91329998Y-29478769D02*
X91401427Y-29550198D01*
X91401427Y-29550198D02*
X91544284Y-29621626D01*
X91544284Y-29621626D02*
X92115713Y-29621626D01*
X90044284Y-30264484D02*
X90187141Y-30335912D01*
X90187141Y-30335912D02*
X90472856Y-30335912D01*
X90472856Y-30335912D02*
X90615713Y-30264484D01*
X90615713Y-30264484D02*
X90687141Y-30121626D01*
X90687141Y-30121626D02*
X90687141Y-29550198D01*
X90687141Y-29550198D02*
X90615713Y-29407341D01*
X90615713Y-29407341D02*
X90472856Y-29335912D01*
X90472856Y-29335912D02*
X90187141Y-29335912D01*
X90187141Y-29335912D02*
X90044284Y-29407341D01*
X90044284Y-29407341D02*
X89972856Y-29550198D01*
X89972856Y-29550198D02*
X89972856Y-29693055D01*
X89972856Y-29693055D02*
X90687141Y-29835912D01*
X89472856Y-29335912D02*
X89115713Y-30335912D01*
X89115713Y-30335912D02*
X88758570Y-29335912D01*
X86258570Y-30335912D02*
X87115713Y-30335912D01*
X86687142Y-30335912D02*
X86687142Y-28835912D01*
X86687142Y-28835912D02*
X86829999Y-29050198D01*
X86829999Y-29050198D02*
X86972856Y-29193055D01*
X86972856Y-29193055D02*
X87115713Y-29264484D01*
X85615714Y-30193055D02*
X85544285Y-30264484D01*
X85544285Y-30264484D02*
X85615714Y-30335912D01*
X85615714Y-30335912D02*
X85687142Y-30264484D01*
X85687142Y-30264484D02*
X85615714Y-30193055D01*
X85615714Y-30193055D02*
X85615714Y-30335912D01*
X84187142Y-28835912D02*
X84901428Y-28835912D01*
X84901428Y-28835912D02*
X84972856Y-29550198D01*
X84972856Y-29550198D02*
X84901428Y-29478769D01*
X84901428Y-29478769D02*
X84758571Y-29407341D01*
X84758571Y-29407341D02*
X84401428Y-29407341D01*
X84401428Y-29407341D02*
X84258571Y-29478769D01*
X84258571Y-29478769D02*
X84187142Y-29550198D01*
X84187142Y-29550198D02*
X84115713Y-29693055D01*
X84115713Y-29693055D02*
X84115713Y-30050198D01*
X84115713Y-30050198D02*
X84187142Y-30193055D01*
X84187142Y-30193055D02*
X84258571Y-30264484D01*
X84258571Y-30264484D02*
X84401428Y-30335912D01*
X84401428Y-30335912D02*
X84758571Y-30335912D01*
X84758571Y-30335912D02*
X84901428Y-30264484D01*
X84901428Y-30264484D02*
X84972856Y-30193055D01*
X95687141Y-31393685D02*
X95615713Y-31322257D01*
X95615713Y-31322257D02*
X95472856Y-31250828D01*
X95472856Y-31250828D02*
X95115713Y-31250828D01*
X95115713Y-31250828D02*
X94972856Y-31322257D01*
X94972856Y-31322257D02*
X94901427Y-31393685D01*
X94901427Y-31393685D02*
X94829998Y-31536542D01*
X94829998Y-31536542D02*
X94829998Y-31679400D01*
X94829998Y-31679400D02*
X94901427Y-31893685D01*
X94901427Y-31893685D02*
X95758570Y-32750828D01*
X95758570Y-32750828D02*
X94829998Y-32750828D01*
X93472856Y-31250828D02*
X94187142Y-31250828D01*
X94187142Y-31250828D02*
X94258570Y-31965114D01*
X94258570Y-31965114D02*
X94187142Y-31893685D01*
X94187142Y-31893685D02*
X94044285Y-31822257D01*
X94044285Y-31822257D02*
X93687142Y-31822257D01*
X93687142Y-31822257D02*
X93544285Y-31893685D01*
X93544285Y-31893685D02*
X93472856Y-31965114D01*
X93472856Y-31965114D02*
X93401427Y-32107971D01*
X93401427Y-32107971D02*
X93401427Y-32465114D01*
X93401427Y-32465114D02*
X93472856Y-32607971D01*
X93472856Y-32607971D02*
X93544285Y-32679400D01*
X93544285Y-32679400D02*
X93687142Y-32750828D01*
X93687142Y-32750828D02*
X94044285Y-32750828D01*
X94044285Y-32750828D02*
X94187142Y-32679400D01*
X94187142Y-32679400D02*
X94258570Y-32607971D01*
X92758571Y-32179400D02*
X91615714Y-32179400D01*
X90901428Y-32750828D02*
X90901428Y-31250828D01*
X90901428Y-31250828D02*
X90401428Y-32322257D01*
X90401428Y-32322257D02*
X89901428Y-31250828D01*
X89901428Y-31250828D02*
X89901428Y-32750828D01*
X89258570Y-32322257D02*
X88544285Y-32322257D01*
X89401427Y-32750828D02*
X88901427Y-31250828D01*
X88901427Y-31250828D02*
X88401427Y-32750828D01*
X87044285Y-32750828D02*
X87544285Y-32036542D01*
X87901428Y-32750828D02*
X87901428Y-31250828D01*
X87901428Y-31250828D02*
X87329999Y-31250828D01*
X87329999Y-31250828D02*
X87187142Y-31322257D01*
X87187142Y-31322257D02*
X87115713Y-31393685D01*
X87115713Y-31393685D02*
X87044285Y-31536542D01*
X87044285Y-31536542D02*
X87044285Y-31750828D01*
X87044285Y-31750828D02*
X87115713Y-31893685D01*
X87115713Y-31893685D02*
X87187142Y-31965114D01*
X87187142Y-31965114D02*
X87329999Y-32036542D01*
X87329999Y-32036542D02*
X87901428Y-32036542D01*
X86401428Y-32179400D02*
X85258571Y-32179400D01*
X84615713Y-31393685D02*
X84544285Y-31322257D01*
X84544285Y-31322257D02*
X84401428Y-31250828D01*
X84401428Y-31250828D02*
X84044285Y-31250828D01*
X84044285Y-31250828D02*
X83901428Y-31322257D01*
X83901428Y-31322257D02*
X83829999Y-31393685D01*
X83829999Y-31393685D02*
X83758570Y-31536542D01*
X83758570Y-31536542D02*
X83758570Y-31679400D01*
X83758570Y-31679400D02*
X83829999Y-31893685D01*
X83829999Y-31893685D02*
X84687142Y-32750828D01*
X84687142Y-32750828D02*
X83758570Y-32750828D01*
X82829999Y-31250828D02*
X82687142Y-31250828D01*
X82687142Y-31250828D02*
X82544285Y-31322257D01*
X82544285Y-31322257D02*
X82472857Y-31393685D01*
X82472857Y-31393685D02*
X82401428Y-31536542D01*
X82401428Y-31536542D02*
X82329999Y-31822257D01*
X82329999Y-31822257D02*
X82329999Y-32179400D01*
X82329999Y-32179400D02*
X82401428Y-32465114D01*
X82401428Y-32465114D02*
X82472857Y-32607971D01*
X82472857Y-32607971D02*
X82544285Y-32679400D01*
X82544285Y-32679400D02*
X82687142Y-32750828D01*
X82687142Y-32750828D02*
X82829999Y-32750828D01*
X82829999Y-32750828D02*
X82972857Y-32679400D01*
X82972857Y-32679400D02*
X83044285Y-32607971D01*
X83044285Y-32607971D02*
X83115714Y-32465114D01*
X83115714Y-32465114D02*
X83187142Y-32179400D01*
X83187142Y-32179400D02*
X83187142Y-31822257D01*
X83187142Y-31822257D02*
X83115714Y-31536542D01*
X83115714Y-31536542D02*
X83044285Y-31393685D01*
X83044285Y-31393685D02*
X82972857Y-31322257D01*
X82972857Y-31322257D02*
X82829999Y-31250828D01*
X81758571Y-31393685D02*
X81687143Y-31322257D01*
X81687143Y-31322257D02*
X81544286Y-31250828D01*
X81544286Y-31250828D02*
X81187143Y-31250828D01*
X81187143Y-31250828D02*
X81044286Y-31322257D01*
X81044286Y-31322257D02*
X80972857Y-31393685D01*
X80972857Y-31393685D02*
X80901428Y-31536542D01*
X80901428Y-31536542D02*
X80901428Y-31679400D01*
X80901428Y-31679400D02*
X80972857Y-31893685D01*
X80972857Y-31893685D02*
X81830000Y-32750828D01*
X81830000Y-32750828D02*
X80901428Y-32750828D01*
X79615715Y-31250828D02*
X79901429Y-31250828D01*
X79901429Y-31250828D02*
X80044286Y-31322257D01*
X80044286Y-31322257D02*
X80115715Y-31393685D01*
X80115715Y-31393685D02*
X80258572Y-31607971D01*
X80258572Y-31607971D02*
X80330000Y-31893685D01*
X80330000Y-31893685D02*
X80330000Y-32465114D01*
X80330000Y-32465114D02*
X80258572Y-32607971D01*
X80258572Y-32607971D02*
X80187143Y-32679400D01*
X80187143Y-32679400D02*
X80044286Y-32750828D01*
X80044286Y-32750828D02*
X79758572Y-32750828D01*
X79758572Y-32750828D02*
X79615715Y-32679400D01*
X79615715Y-32679400D02*
X79544286Y-32607971D01*
X79544286Y-32607971D02*
X79472857Y-32465114D01*
X79472857Y-32465114D02*
X79472857Y-32107971D01*
X79472857Y-32107971D02*
X79544286Y-31965114D01*
X79544286Y-31965114D02*
X79615715Y-31893685D01*
X79615715Y-31893685D02*
X79758572Y-31822257D01*
X79758572Y-31822257D02*
X80044286Y-31822257D01*
X80044286Y-31822257D02*
X80187143Y-31893685D01*
X80187143Y-31893685D02*
X80258572Y-31965114D01*
X80258572Y-31965114D02*
X80330000Y-32107971D01*
D11*
X118020057Y-85314761D02*
X117972438Y-85219523D01*
X117972438Y-85219523D02*
X117877200Y-85124285D01*
X117877200Y-85124285D02*
X117734342Y-84981428D01*
X117734342Y-84981428D02*
X117686723Y-84886190D01*
X117686723Y-84886190D02*
X117686723Y-84790952D01*
X117924819Y-84838571D02*
X117877200Y-84743333D01*
X117877200Y-84743333D02*
X117781961Y-84648095D01*
X117781961Y-84648095D02*
X117591485Y-84600476D01*
X117591485Y-84600476D02*
X117258152Y-84600476D01*
X117258152Y-84600476D02*
X117067676Y-84648095D01*
X117067676Y-84648095D02*
X116972438Y-84743333D01*
X116972438Y-84743333D02*
X116924819Y-84838571D01*
X116924819Y-84838571D02*
X116924819Y-85029047D01*
X116924819Y-85029047D02*
X116972438Y-85124285D01*
X116972438Y-85124285D02*
X117067676Y-85219523D01*
X117067676Y-85219523D02*
X117258152Y-85267142D01*
X117258152Y-85267142D02*
X117591485Y-85267142D01*
X117591485Y-85267142D02*
X117781961Y-85219523D01*
X117781961Y-85219523D02*
X117877200Y-85124285D01*
X117877200Y-85124285D02*
X117924819Y-85029047D01*
X117924819Y-85029047D02*
X117924819Y-84838571D01*
X117924819Y-86219523D02*
X117924819Y-85648095D01*
X117924819Y-85933809D02*
X116924819Y-85933809D01*
X116924819Y-85933809D02*
X117067676Y-85838571D01*
X117067676Y-85838571D02*
X117162914Y-85743333D01*
X117162914Y-85743333D02*
X117210533Y-85648095D01*
X113852857Y-68774819D02*
X114186190Y-68298628D01*
X114424285Y-68774819D02*
X114424285Y-67774819D01*
X114424285Y-67774819D02*
X114043333Y-67774819D01*
X114043333Y-67774819D02*
X113948095Y-67822438D01*
X113948095Y-67822438D02*
X113900476Y-67870057D01*
X113900476Y-67870057D02*
X113852857Y-67965295D01*
X113852857Y-67965295D02*
X113852857Y-68108152D01*
X113852857Y-68108152D02*
X113900476Y-68203390D01*
X113900476Y-68203390D02*
X113948095Y-68251009D01*
X113948095Y-68251009D02*
X114043333Y-68298628D01*
X114043333Y-68298628D02*
X114424285Y-68298628D01*
X113519523Y-67774819D02*
X112900476Y-67774819D01*
X112900476Y-67774819D02*
X113233809Y-68155771D01*
X113233809Y-68155771D02*
X113090952Y-68155771D01*
X113090952Y-68155771D02*
X112995714Y-68203390D01*
X112995714Y-68203390D02*
X112948095Y-68251009D01*
X112948095Y-68251009D02*
X112900476Y-68346247D01*
X112900476Y-68346247D02*
X112900476Y-68584342D01*
X112900476Y-68584342D02*
X112948095Y-68679580D01*
X112948095Y-68679580D02*
X112995714Y-68727200D01*
X112995714Y-68727200D02*
X113090952Y-68774819D01*
X113090952Y-68774819D02*
X113376666Y-68774819D01*
X113376666Y-68774819D02*
X113471904Y-68727200D01*
X113471904Y-68727200D02*
X113519523Y-68679580D01*
X112043333Y-68108152D02*
X112043333Y-68774819D01*
X112281428Y-67727200D02*
X112519523Y-68441485D01*
X112519523Y-68441485D02*
X111900476Y-68441485D01*
X107084819Y-94097142D02*
X106608628Y-93763809D01*
X107084819Y-93525714D02*
X106084819Y-93525714D01*
X106084819Y-93525714D02*
X106084819Y-93906666D01*
X106084819Y-93906666D02*
X106132438Y-94001904D01*
X106132438Y-94001904D02*
X106180057Y-94049523D01*
X106180057Y-94049523D02*
X106275295Y-94097142D01*
X106275295Y-94097142D02*
X106418152Y-94097142D01*
X106418152Y-94097142D02*
X106513390Y-94049523D01*
X106513390Y-94049523D02*
X106561009Y-94001904D01*
X106561009Y-94001904D02*
X106608628Y-93906666D01*
X106608628Y-93906666D02*
X106608628Y-93525714D01*
X106084819Y-94430476D02*
X106084819Y-95049523D01*
X106084819Y-95049523D02*
X106465771Y-94716190D01*
X106465771Y-94716190D02*
X106465771Y-94859047D01*
X106465771Y-94859047D02*
X106513390Y-94954285D01*
X106513390Y-94954285D02*
X106561009Y-95001904D01*
X106561009Y-95001904D02*
X106656247Y-95049523D01*
X106656247Y-95049523D02*
X106894342Y-95049523D01*
X106894342Y-95049523D02*
X106989580Y-95001904D01*
X106989580Y-95001904D02*
X107037200Y-94954285D01*
X107037200Y-94954285D02*
X107084819Y-94859047D01*
X107084819Y-94859047D02*
X107084819Y-94573333D01*
X107084819Y-94573333D02*
X107037200Y-94478095D01*
X107037200Y-94478095D02*
X106989580Y-94430476D01*
X106180057Y-95430476D02*
X106132438Y-95478095D01*
X106132438Y-95478095D02*
X106084819Y-95573333D01*
X106084819Y-95573333D02*
X106084819Y-95811428D01*
X106084819Y-95811428D02*
X106132438Y-95906666D01*
X106132438Y-95906666D02*
X106180057Y-95954285D01*
X106180057Y-95954285D02*
X106275295Y-96001904D01*
X106275295Y-96001904D02*
X106370533Y-96001904D01*
X106370533Y-96001904D02*
X106513390Y-95954285D01*
X106513390Y-95954285D02*
X107084819Y-95382857D01*
X107084819Y-95382857D02*
X107084819Y-96001904D01*
X141644819Y-33133333D02*
X141168628Y-32800000D01*
X141644819Y-32561905D02*
X140644819Y-32561905D01*
X140644819Y-32561905D02*
X140644819Y-32942857D01*
X140644819Y-32942857D02*
X140692438Y-33038095D01*
X140692438Y-33038095D02*
X140740057Y-33085714D01*
X140740057Y-33085714D02*
X140835295Y-33133333D01*
X140835295Y-33133333D02*
X140978152Y-33133333D01*
X140978152Y-33133333D02*
X141073390Y-33085714D01*
X141073390Y-33085714D02*
X141121009Y-33038095D01*
X141121009Y-33038095D02*
X141168628Y-32942857D01*
X141168628Y-32942857D02*
X141168628Y-32561905D01*
X140644819Y-33466667D02*
X140644819Y-34133333D01*
X140644819Y-34133333D02*
X141644819Y-33704762D01*
X146212857Y-120194819D02*
X146546190Y-119718628D01*
X146784285Y-120194819D02*
X146784285Y-119194819D01*
X146784285Y-119194819D02*
X146403333Y-119194819D01*
X146403333Y-119194819D02*
X146308095Y-119242438D01*
X146308095Y-119242438D02*
X146260476Y-119290057D01*
X146260476Y-119290057D02*
X146212857Y-119385295D01*
X146212857Y-119385295D02*
X146212857Y-119528152D01*
X146212857Y-119528152D02*
X146260476Y-119623390D01*
X146260476Y-119623390D02*
X146308095Y-119671009D01*
X146308095Y-119671009D02*
X146403333Y-119718628D01*
X146403333Y-119718628D02*
X146784285Y-119718628D01*
X145879523Y-119194819D02*
X145260476Y-119194819D01*
X145260476Y-119194819D02*
X145593809Y-119575771D01*
X145593809Y-119575771D02*
X145450952Y-119575771D01*
X145450952Y-119575771D02*
X145355714Y-119623390D01*
X145355714Y-119623390D02*
X145308095Y-119671009D01*
X145308095Y-119671009D02*
X145260476Y-119766247D01*
X145260476Y-119766247D02*
X145260476Y-120004342D01*
X145260476Y-120004342D02*
X145308095Y-120099580D01*
X145308095Y-120099580D02*
X145355714Y-120147200D01*
X145355714Y-120147200D02*
X145450952Y-120194819D01*
X145450952Y-120194819D02*
X145736666Y-120194819D01*
X145736666Y-120194819D02*
X145831904Y-120147200D01*
X145831904Y-120147200D02*
X145879523Y-120099580D01*
X144784285Y-120194819D02*
X144593809Y-120194819D01*
X144593809Y-120194819D02*
X144498571Y-120147200D01*
X144498571Y-120147200D02*
X144450952Y-120099580D01*
X144450952Y-120099580D02*
X144355714Y-119956723D01*
X144355714Y-119956723D02*
X144308095Y-119766247D01*
X144308095Y-119766247D02*
X144308095Y-119385295D01*
X144308095Y-119385295D02*
X144355714Y-119290057D01*
X144355714Y-119290057D02*
X144403333Y-119242438D01*
X144403333Y-119242438D02*
X144498571Y-119194819D01*
X144498571Y-119194819D02*
X144689047Y-119194819D01*
X144689047Y-119194819D02*
X144784285Y-119242438D01*
X144784285Y-119242438D02*
X144831904Y-119290057D01*
X144831904Y-119290057D02*
X144879523Y-119385295D01*
X144879523Y-119385295D02*
X144879523Y-119623390D01*
X144879523Y-119623390D02*
X144831904Y-119718628D01*
X144831904Y-119718628D02*
X144784285Y-119766247D01*
X144784285Y-119766247D02*
X144689047Y-119813866D01*
X144689047Y-119813866D02*
X144498571Y-119813866D01*
X144498571Y-119813866D02*
X144403333Y-119766247D01*
X144403333Y-119766247D02*
X144355714Y-119718628D01*
X144355714Y-119718628D02*
X144308095Y-119623390D01*
X72242857Y-116774819D02*
X72576190Y-116298628D01*
X72814285Y-116774819D02*
X72814285Y-115774819D01*
X72814285Y-115774819D02*
X72433333Y-115774819D01*
X72433333Y-115774819D02*
X72338095Y-115822438D01*
X72338095Y-115822438D02*
X72290476Y-115870057D01*
X72290476Y-115870057D02*
X72242857Y-115965295D01*
X72242857Y-115965295D02*
X72242857Y-116108152D01*
X72242857Y-116108152D02*
X72290476Y-116203390D01*
X72290476Y-116203390D02*
X72338095Y-116251009D01*
X72338095Y-116251009D02*
X72433333Y-116298628D01*
X72433333Y-116298628D02*
X72814285Y-116298628D01*
X71385714Y-116108152D02*
X71385714Y-116774819D01*
X71623809Y-115727200D02*
X71861904Y-116441485D01*
X71861904Y-116441485D02*
X71242857Y-116441485D01*
X70909523Y-115870057D02*
X70861904Y-115822438D01*
X70861904Y-115822438D02*
X70766666Y-115774819D01*
X70766666Y-115774819D02*
X70528571Y-115774819D01*
X70528571Y-115774819D02*
X70433333Y-115822438D01*
X70433333Y-115822438D02*
X70385714Y-115870057D01*
X70385714Y-115870057D02*
X70338095Y-115965295D01*
X70338095Y-115965295D02*
X70338095Y-116060533D01*
X70338095Y-116060533D02*
X70385714Y-116203390D01*
X70385714Y-116203390D02*
X70957142Y-116774819D01*
X70957142Y-116774819D02*
X70338095Y-116774819D01*
X109452857Y-104924819D02*
X109786190Y-104448628D01*
X110024285Y-104924819D02*
X110024285Y-103924819D01*
X110024285Y-103924819D02*
X109643333Y-103924819D01*
X109643333Y-103924819D02*
X109548095Y-103972438D01*
X109548095Y-103972438D02*
X109500476Y-104020057D01*
X109500476Y-104020057D02*
X109452857Y-104115295D01*
X109452857Y-104115295D02*
X109452857Y-104258152D01*
X109452857Y-104258152D02*
X109500476Y-104353390D01*
X109500476Y-104353390D02*
X109548095Y-104401009D01*
X109548095Y-104401009D02*
X109643333Y-104448628D01*
X109643333Y-104448628D02*
X110024285Y-104448628D01*
X109071904Y-104020057D02*
X109024285Y-103972438D01*
X109024285Y-103972438D02*
X108929047Y-103924819D01*
X108929047Y-103924819D02*
X108690952Y-103924819D01*
X108690952Y-103924819D02*
X108595714Y-103972438D01*
X108595714Y-103972438D02*
X108548095Y-104020057D01*
X108548095Y-104020057D02*
X108500476Y-104115295D01*
X108500476Y-104115295D02*
X108500476Y-104210533D01*
X108500476Y-104210533D02*
X108548095Y-104353390D01*
X108548095Y-104353390D02*
X109119523Y-104924819D01*
X109119523Y-104924819D02*
X108500476Y-104924819D01*
X107548095Y-104924819D02*
X108119523Y-104924819D01*
X107833809Y-104924819D02*
X107833809Y-103924819D01*
X107833809Y-103924819D02*
X107929047Y-104067676D01*
X107929047Y-104067676D02*
X108024285Y-104162914D01*
X108024285Y-104162914D02*
X108119523Y-104210533D01*
X103264819Y-94097142D02*
X102788628Y-93763809D01*
X103264819Y-93525714D02*
X102264819Y-93525714D01*
X102264819Y-93525714D02*
X102264819Y-93906666D01*
X102264819Y-93906666D02*
X102312438Y-94001904D01*
X102312438Y-94001904D02*
X102360057Y-94049523D01*
X102360057Y-94049523D02*
X102455295Y-94097142D01*
X102455295Y-94097142D02*
X102598152Y-94097142D01*
X102598152Y-94097142D02*
X102693390Y-94049523D01*
X102693390Y-94049523D02*
X102741009Y-94001904D01*
X102741009Y-94001904D02*
X102788628Y-93906666D01*
X102788628Y-93906666D02*
X102788628Y-93525714D01*
X102264819Y-94430476D02*
X102264819Y-95049523D01*
X102264819Y-95049523D02*
X102645771Y-94716190D01*
X102645771Y-94716190D02*
X102645771Y-94859047D01*
X102645771Y-94859047D02*
X102693390Y-94954285D01*
X102693390Y-94954285D02*
X102741009Y-95001904D01*
X102741009Y-95001904D02*
X102836247Y-95049523D01*
X102836247Y-95049523D02*
X103074342Y-95049523D01*
X103074342Y-95049523D02*
X103169580Y-95001904D01*
X103169580Y-95001904D02*
X103217200Y-94954285D01*
X103217200Y-94954285D02*
X103264819Y-94859047D01*
X103264819Y-94859047D02*
X103264819Y-94573333D01*
X103264819Y-94573333D02*
X103217200Y-94478095D01*
X103217200Y-94478095D02*
X103169580Y-94430476D01*
X103264819Y-96001904D02*
X103264819Y-95430476D01*
X103264819Y-95716190D02*
X102264819Y-95716190D01*
X102264819Y-95716190D02*
X102407676Y-95620952D01*
X102407676Y-95620952D02*
X102502914Y-95525714D01*
X102502914Y-95525714D02*
X102550533Y-95430476D01*
X111784819Y-50427142D02*
X111308628Y-50093809D01*
X111784819Y-49855714D02*
X110784819Y-49855714D01*
X110784819Y-49855714D02*
X110784819Y-50236666D01*
X110784819Y-50236666D02*
X110832438Y-50331904D01*
X110832438Y-50331904D02*
X110880057Y-50379523D01*
X110880057Y-50379523D02*
X110975295Y-50427142D01*
X110975295Y-50427142D02*
X111118152Y-50427142D01*
X111118152Y-50427142D02*
X111213390Y-50379523D01*
X111213390Y-50379523D02*
X111261009Y-50331904D01*
X111261009Y-50331904D02*
X111308628Y-50236666D01*
X111308628Y-50236666D02*
X111308628Y-49855714D01*
X110880057Y-50808095D02*
X110832438Y-50855714D01*
X110832438Y-50855714D02*
X110784819Y-50950952D01*
X110784819Y-50950952D02*
X110784819Y-51189047D01*
X110784819Y-51189047D02*
X110832438Y-51284285D01*
X110832438Y-51284285D02*
X110880057Y-51331904D01*
X110880057Y-51331904D02*
X110975295Y-51379523D01*
X110975295Y-51379523D02*
X111070533Y-51379523D01*
X111070533Y-51379523D02*
X111213390Y-51331904D01*
X111213390Y-51331904D02*
X111784819Y-50760476D01*
X111784819Y-50760476D02*
X111784819Y-51379523D01*
X110784819Y-51712857D02*
X110784819Y-52379523D01*
X110784819Y-52379523D02*
X111784819Y-51950952D01*
X91682857Y-119804819D02*
X92016190Y-119328628D01*
X92254285Y-119804819D02*
X92254285Y-118804819D01*
X92254285Y-118804819D02*
X91873333Y-118804819D01*
X91873333Y-118804819D02*
X91778095Y-118852438D01*
X91778095Y-118852438D02*
X91730476Y-118900057D01*
X91730476Y-118900057D02*
X91682857Y-118995295D01*
X91682857Y-118995295D02*
X91682857Y-119138152D01*
X91682857Y-119138152D02*
X91730476Y-119233390D01*
X91730476Y-119233390D02*
X91778095Y-119281009D01*
X91778095Y-119281009D02*
X91873333Y-119328628D01*
X91873333Y-119328628D02*
X92254285Y-119328628D01*
X90825714Y-119138152D02*
X90825714Y-119804819D01*
X91063809Y-118757200D02*
X91301904Y-119471485D01*
X91301904Y-119471485D02*
X90682857Y-119471485D01*
X90397142Y-118804819D02*
X89778095Y-118804819D01*
X89778095Y-118804819D02*
X90111428Y-119185771D01*
X90111428Y-119185771D02*
X89968571Y-119185771D01*
X89968571Y-119185771D02*
X89873333Y-119233390D01*
X89873333Y-119233390D02*
X89825714Y-119281009D01*
X89825714Y-119281009D02*
X89778095Y-119376247D01*
X89778095Y-119376247D02*
X89778095Y-119614342D01*
X89778095Y-119614342D02*
X89825714Y-119709580D01*
X89825714Y-119709580D02*
X89873333Y-119757200D01*
X89873333Y-119757200D02*
X89968571Y-119804819D01*
X89968571Y-119804819D02*
X90254285Y-119804819D01*
X90254285Y-119804819D02*
X90349523Y-119757200D01*
X90349523Y-119757200D02*
X90397142Y-119709580D01*
X114164819Y-82537142D02*
X113688628Y-82203809D01*
X114164819Y-81965714D02*
X113164819Y-81965714D01*
X113164819Y-81965714D02*
X113164819Y-82346666D01*
X113164819Y-82346666D02*
X113212438Y-82441904D01*
X113212438Y-82441904D02*
X113260057Y-82489523D01*
X113260057Y-82489523D02*
X113355295Y-82537142D01*
X113355295Y-82537142D02*
X113498152Y-82537142D01*
X113498152Y-82537142D02*
X113593390Y-82489523D01*
X113593390Y-82489523D02*
X113641009Y-82441904D01*
X113641009Y-82441904D02*
X113688628Y-82346666D01*
X113688628Y-82346666D02*
X113688628Y-81965714D01*
X113260057Y-82918095D02*
X113212438Y-82965714D01*
X113212438Y-82965714D02*
X113164819Y-83060952D01*
X113164819Y-83060952D02*
X113164819Y-83299047D01*
X113164819Y-83299047D02*
X113212438Y-83394285D01*
X113212438Y-83394285D02*
X113260057Y-83441904D01*
X113260057Y-83441904D02*
X113355295Y-83489523D01*
X113355295Y-83489523D02*
X113450533Y-83489523D01*
X113450533Y-83489523D02*
X113593390Y-83441904D01*
X113593390Y-83441904D02*
X114164819Y-82870476D01*
X114164819Y-82870476D02*
X114164819Y-83489523D01*
X113593390Y-84060952D02*
X113545771Y-83965714D01*
X113545771Y-83965714D02*
X113498152Y-83918095D01*
X113498152Y-83918095D02*
X113402914Y-83870476D01*
X113402914Y-83870476D02*
X113355295Y-83870476D01*
X113355295Y-83870476D02*
X113260057Y-83918095D01*
X113260057Y-83918095D02*
X113212438Y-83965714D01*
X113212438Y-83965714D02*
X113164819Y-84060952D01*
X113164819Y-84060952D02*
X113164819Y-84251428D01*
X113164819Y-84251428D02*
X113212438Y-84346666D01*
X113212438Y-84346666D02*
X113260057Y-84394285D01*
X113260057Y-84394285D02*
X113355295Y-84441904D01*
X113355295Y-84441904D02*
X113402914Y-84441904D01*
X113402914Y-84441904D02*
X113498152Y-84394285D01*
X113498152Y-84394285D02*
X113545771Y-84346666D01*
X113545771Y-84346666D02*
X113593390Y-84251428D01*
X113593390Y-84251428D02*
X113593390Y-84060952D01*
X113593390Y-84060952D02*
X113641009Y-83965714D01*
X113641009Y-83965714D02*
X113688628Y-83918095D01*
X113688628Y-83918095D02*
X113783866Y-83870476D01*
X113783866Y-83870476D02*
X113974342Y-83870476D01*
X113974342Y-83870476D02*
X114069580Y-83918095D01*
X114069580Y-83918095D02*
X114117200Y-83965714D01*
X114117200Y-83965714D02*
X114164819Y-84060952D01*
X114164819Y-84060952D02*
X114164819Y-84251428D01*
X114164819Y-84251428D02*
X114117200Y-84346666D01*
X114117200Y-84346666D02*
X114069580Y-84394285D01*
X114069580Y-84394285D02*
X113974342Y-84441904D01*
X113974342Y-84441904D02*
X113783866Y-84441904D01*
X113783866Y-84441904D02*
X113688628Y-84394285D01*
X113688628Y-84394285D02*
X113641009Y-84346666D01*
X113641009Y-84346666D02*
X113593390Y-84251428D01*
X99444819Y-94097142D02*
X98968628Y-93763809D01*
X99444819Y-93525714D02*
X98444819Y-93525714D01*
X98444819Y-93525714D02*
X98444819Y-93906666D01*
X98444819Y-93906666D02*
X98492438Y-94001904D01*
X98492438Y-94001904D02*
X98540057Y-94049523D01*
X98540057Y-94049523D02*
X98635295Y-94097142D01*
X98635295Y-94097142D02*
X98778152Y-94097142D01*
X98778152Y-94097142D02*
X98873390Y-94049523D01*
X98873390Y-94049523D02*
X98921009Y-94001904D01*
X98921009Y-94001904D02*
X98968628Y-93906666D01*
X98968628Y-93906666D02*
X98968628Y-93525714D01*
X98444819Y-94430476D02*
X98444819Y-95049523D01*
X98444819Y-95049523D02*
X98825771Y-94716190D01*
X98825771Y-94716190D02*
X98825771Y-94859047D01*
X98825771Y-94859047D02*
X98873390Y-94954285D01*
X98873390Y-94954285D02*
X98921009Y-95001904D01*
X98921009Y-95001904D02*
X99016247Y-95049523D01*
X99016247Y-95049523D02*
X99254342Y-95049523D01*
X99254342Y-95049523D02*
X99349580Y-95001904D01*
X99349580Y-95001904D02*
X99397200Y-94954285D01*
X99397200Y-94954285D02*
X99444819Y-94859047D01*
X99444819Y-94859047D02*
X99444819Y-94573333D01*
X99444819Y-94573333D02*
X99397200Y-94478095D01*
X99397200Y-94478095D02*
X99349580Y-94430476D01*
X98444819Y-95668571D02*
X98444819Y-95763809D01*
X98444819Y-95763809D02*
X98492438Y-95859047D01*
X98492438Y-95859047D02*
X98540057Y-95906666D01*
X98540057Y-95906666D02*
X98635295Y-95954285D01*
X98635295Y-95954285D02*
X98825771Y-96001904D01*
X98825771Y-96001904D02*
X99063866Y-96001904D01*
X99063866Y-96001904D02*
X99254342Y-95954285D01*
X99254342Y-95954285D02*
X99349580Y-95906666D01*
X99349580Y-95906666D02*
X99397200Y-95859047D01*
X99397200Y-95859047D02*
X99444819Y-95763809D01*
X99444819Y-95763809D02*
X99444819Y-95668571D01*
X99444819Y-95668571D02*
X99397200Y-95573333D01*
X99397200Y-95573333D02*
X99349580Y-95525714D01*
X99349580Y-95525714D02*
X99254342Y-95478095D01*
X99254342Y-95478095D02*
X99063866Y-95430476D01*
X99063866Y-95430476D02*
X98825771Y-95430476D01*
X98825771Y-95430476D02*
X98635295Y-95478095D01*
X98635295Y-95478095D02*
X98540057Y-95525714D01*
X98540057Y-95525714D02*
X98492438Y-95573333D01*
X98492438Y-95573333D02*
X98444819Y-95668571D01*
X114474819Y-50427142D02*
X113998628Y-50093809D01*
X114474819Y-49855714D02*
X113474819Y-49855714D01*
X113474819Y-49855714D02*
X113474819Y-50236666D01*
X113474819Y-50236666D02*
X113522438Y-50331904D01*
X113522438Y-50331904D02*
X113570057Y-50379523D01*
X113570057Y-50379523D02*
X113665295Y-50427142D01*
X113665295Y-50427142D02*
X113808152Y-50427142D01*
X113808152Y-50427142D02*
X113903390Y-50379523D01*
X113903390Y-50379523D02*
X113951009Y-50331904D01*
X113951009Y-50331904D02*
X113998628Y-50236666D01*
X113998628Y-50236666D02*
X113998628Y-49855714D01*
X114474819Y-51379523D02*
X114474819Y-50808095D01*
X114474819Y-51093809D02*
X113474819Y-51093809D01*
X113474819Y-51093809D02*
X113617676Y-50998571D01*
X113617676Y-50998571D02*
X113712914Y-50903333D01*
X113712914Y-50903333D02*
X113760533Y-50808095D01*
X113474819Y-52284285D02*
X113474819Y-51808095D01*
X113474819Y-51808095D02*
X113951009Y-51760476D01*
X113951009Y-51760476D02*
X113903390Y-51808095D01*
X113903390Y-51808095D02*
X113855771Y-51903333D01*
X113855771Y-51903333D02*
X113855771Y-52141428D01*
X113855771Y-52141428D02*
X113903390Y-52236666D01*
X113903390Y-52236666D02*
X113951009Y-52284285D01*
X113951009Y-52284285D02*
X114046247Y-52331904D01*
X114046247Y-52331904D02*
X114284342Y-52331904D01*
X114284342Y-52331904D02*
X114379580Y-52284285D01*
X114379580Y-52284285D02*
X114427200Y-52236666D01*
X114427200Y-52236666D02*
X114474819Y-52141428D01*
X114474819Y-52141428D02*
X114474819Y-51903333D01*
X114474819Y-51903333D02*
X114427200Y-51808095D01*
X114427200Y-51808095D02*
X114379580Y-51760476D01*
X109544819Y-50427142D02*
X109068628Y-50093809D01*
X109544819Y-49855714D02*
X108544819Y-49855714D01*
X108544819Y-49855714D02*
X108544819Y-50236666D01*
X108544819Y-50236666D02*
X108592438Y-50331904D01*
X108592438Y-50331904D02*
X108640057Y-50379523D01*
X108640057Y-50379523D02*
X108735295Y-50427142D01*
X108735295Y-50427142D02*
X108878152Y-50427142D01*
X108878152Y-50427142D02*
X108973390Y-50379523D01*
X108973390Y-50379523D02*
X109021009Y-50331904D01*
X109021009Y-50331904D02*
X109068628Y-50236666D01*
X109068628Y-50236666D02*
X109068628Y-49855714D01*
X108640057Y-50808095D02*
X108592438Y-50855714D01*
X108592438Y-50855714D02*
X108544819Y-50950952D01*
X108544819Y-50950952D02*
X108544819Y-51189047D01*
X108544819Y-51189047D02*
X108592438Y-51284285D01*
X108592438Y-51284285D02*
X108640057Y-51331904D01*
X108640057Y-51331904D02*
X108735295Y-51379523D01*
X108735295Y-51379523D02*
X108830533Y-51379523D01*
X108830533Y-51379523D02*
X108973390Y-51331904D01*
X108973390Y-51331904D02*
X109544819Y-50760476D01*
X109544819Y-50760476D02*
X109544819Y-51379523D01*
X108544819Y-52284285D02*
X108544819Y-51808095D01*
X108544819Y-51808095D02*
X109021009Y-51760476D01*
X109021009Y-51760476D02*
X108973390Y-51808095D01*
X108973390Y-51808095D02*
X108925771Y-51903333D01*
X108925771Y-51903333D02*
X108925771Y-52141428D01*
X108925771Y-52141428D02*
X108973390Y-52236666D01*
X108973390Y-52236666D02*
X109021009Y-52284285D01*
X109021009Y-52284285D02*
X109116247Y-52331904D01*
X109116247Y-52331904D02*
X109354342Y-52331904D01*
X109354342Y-52331904D02*
X109449580Y-52284285D01*
X109449580Y-52284285D02*
X109497200Y-52236666D01*
X109497200Y-52236666D02*
X109544819Y-52141428D01*
X109544819Y-52141428D02*
X109544819Y-51903333D01*
X109544819Y-51903333D02*
X109497200Y-51808095D01*
X109497200Y-51808095D02*
X109449580Y-51760476D01*
X131942857Y-110959580D02*
X131990476Y-111007200D01*
X131990476Y-111007200D02*
X132133333Y-111054819D01*
X132133333Y-111054819D02*
X132228571Y-111054819D01*
X132228571Y-111054819D02*
X132371428Y-111007200D01*
X132371428Y-111007200D02*
X132466666Y-110911961D01*
X132466666Y-110911961D02*
X132514285Y-110816723D01*
X132514285Y-110816723D02*
X132561904Y-110626247D01*
X132561904Y-110626247D02*
X132561904Y-110483390D01*
X132561904Y-110483390D02*
X132514285Y-110292914D01*
X132514285Y-110292914D02*
X132466666Y-110197676D01*
X132466666Y-110197676D02*
X132371428Y-110102438D01*
X132371428Y-110102438D02*
X132228571Y-110054819D01*
X132228571Y-110054819D02*
X132133333Y-110054819D01*
X132133333Y-110054819D02*
X131990476Y-110102438D01*
X131990476Y-110102438D02*
X131942857Y-110150057D01*
X131561904Y-110150057D02*
X131514285Y-110102438D01*
X131514285Y-110102438D02*
X131419047Y-110054819D01*
X131419047Y-110054819D02*
X131180952Y-110054819D01*
X131180952Y-110054819D02*
X131085714Y-110102438D01*
X131085714Y-110102438D02*
X131038095Y-110150057D01*
X131038095Y-110150057D02*
X130990476Y-110245295D01*
X130990476Y-110245295D02*
X130990476Y-110340533D01*
X130990476Y-110340533D02*
X131038095Y-110483390D01*
X131038095Y-110483390D02*
X131609523Y-111054819D01*
X131609523Y-111054819D02*
X130990476Y-111054819D01*
X130038095Y-111054819D02*
X130609523Y-111054819D01*
X130323809Y-111054819D02*
X130323809Y-110054819D01*
X130323809Y-110054819D02*
X130419047Y-110197676D01*
X130419047Y-110197676D02*
X130514285Y-110292914D01*
X130514285Y-110292914D02*
X130609523Y-110340533D01*
X91072857Y-103964819D02*
X91406190Y-103488628D01*
X91644285Y-103964819D02*
X91644285Y-102964819D01*
X91644285Y-102964819D02*
X91263333Y-102964819D01*
X91263333Y-102964819D02*
X91168095Y-103012438D01*
X91168095Y-103012438D02*
X91120476Y-103060057D01*
X91120476Y-103060057D02*
X91072857Y-103155295D01*
X91072857Y-103155295D02*
X91072857Y-103298152D01*
X91072857Y-103298152D02*
X91120476Y-103393390D01*
X91120476Y-103393390D02*
X91168095Y-103441009D01*
X91168095Y-103441009D02*
X91263333Y-103488628D01*
X91263333Y-103488628D02*
X91644285Y-103488628D01*
X90739523Y-102964819D02*
X90120476Y-102964819D01*
X90120476Y-102964819D02*
X90453809Y-103345771D01*
X90453809Y-103345771D02*
X90310952Y-103345771D01*
X90310952Y-103345771D02*
X90215714Y-103393390D01*
X90215714Y-103393390D02*
X90168095Y-103441009D01*
X90168095Y-103441009D02*
X90120476Y-103536247D01*
X90120476Y-103536247D02*
X90120476Y-103774342D01*
X90120476Y-103774342D02*
X90168095Y-103869580D01*
X90168095Y-103869580D02*
X90215714Y-103917200D01*
X90215714Y-103917200D02*
X90310952Y-103964819D01*
X90310952Y-103964819D02*
X90596666Y-103964819D01*
X90596666Y-103964819D02*
X90691904Y-103917200D01*
X90691904Y-103917200D02*
X90739523Y-103869580D01*
X89263333Y-102964819D02*
X89453809Y-102964819D01*
X89453809Y-102964819D02*
X89549047Y-103012438D01*
X89549047Y-103012438D02*
X89596666Y-103060057D01*
X89596666Y-103060057D02*
X89691904Y-103202914D01*
X89691904Y-103202914D02*
X89739523Y-103393390D01*
X89739523Y-103393390D02*
X89739523Y-103774342D01*
X89739523Y-103774342D02*
X89691904Y-103869580D01*
X89691904Y-103869580D02*
X89644285Y-103917200D01*
X89644285Y-103917200D02*
X89549047Y-103964819D01*
X89549047Y-103964819D02*
X89358571Y-103964819D01*
X89358571Y-103964819D02*
X89263333Y-103917200D01*
X89263333Y-103917200D02*
X89215714Y-103869580D01*
X89215714Y-103869580D02*
X89168095Y-103774342D01*
X89168095Y-103774342D02*
X89168095Y-103536247D01*
X89168095Y-103536247D02*
X89215714Y-103441009D01*
X89215714Y-103441009D02*
X89263333Y-103393390D01*
X89263333Y-103393390D02*
X89358571Y-103345771D01*
X89358571Y-103345771D02*
X89549047Y-103345771D01*
X89549047Y-103345771D02*
X89644285Y-103393390D01*
X89644285Y-103393390D02*
X89691904Y-103441009D01*
X89691904Y-103441009D02*
X89739523Y-103536247D01*
X149562857Y-112799580D02*
X149610476Y-112847200D01*
X149610476Y-112847200D02*
X149753333Y-112894819D01*
X149753333Y-112894819D02*
X149848571Y-112894819D01*
X149848571Y-112894819D02*
X149991428Y-112847200D01*
X149991428Y-112847200D02*
X150086666Y-112751961D01*
X150086666Y-112751961D02*
X150134285Y-112656723D01*
X150134285Y-112656723D02*
X150181904Y-112466247D01*
X150181904Y-112466247D02*
X150181904Y-112323390D01*
X150181904Y-112323390D02*
X150134285Y-112132914D01*
X150134285Y-112132914D02*
X150086666Y-112037676D01*
X150086666Y-112037676D02*
X149991428Y-111942438D01*
X149991428Y-111942438D02*
X149848571Y-111894819D01*
X149848571Y-111894819D02*
X149753333Y-111894819D01*
X149753333Y-111894819D02*
X149610476Y-111942438D01*
X149610476Y-111942438D02*
X149562857Y-111990057D01*
X149181904Y-111990057D02*
X149134285Y-111942438D01*
X149134285Y-111942438D02*
X149039047Y-111894819D01*
X149039047Y-111894819D02*
X148800952Y-111894819D01*
X148800952Y-111894819D02*
X148705714Y-111942438D01*
X148705714Y-111942438D02*
X148658095Y-111990057D01*
X148658095Y-111990057D02*
X148610476Y-112085295D01*
X148610476Y-112085295D02*
X148610476Y-112180533D01*
X148610476Y-112180533D02*
X148658095Y-112323390D01*
X148658095Y-112323390D02*
X149229523Y-112894819D01*
X149229523Y-112894819D02*
X148610476Y-112894819D01*
X147991428Y-111894819D02*
X147896190Y-111894819D01*
X147896190Y-111894819D02*
X147800952Y-111942438D01*
X147800952Y-111942438D02*
X147753333Y-111990057D01*
X147753333Y-111990057D02*
X147705714Y-112085295D01*
X147705714Y-112085295D02*
X147658095Y-112275771D01*
X147658095Y-112275771D02*
X147658095Y-112513866D01*
X147658095Y-112513866D02*
X147705714Y-112704342D01*
X147705714Y-112704342D02*
X147753333Y-112799580D01*
X147753333Y-112799580D02*
X147800952Y-112847200D01*
X147800952Y-112847200D02*
X147896190Y-112894819D01*
X147896190Y-112894819D02*
X147991428Y-112894819D01*
X147991428Y-112894819D02*
X148086666Y-112847200D01*
X148086666Y-112847200D02*
X148134285Y-112799580D01*
X148134285Y-112799580D02*
X148181904Y-112704342D01*
X148181904Y-112704342D02*
X148229523Y-112513866D01*
X148229523Y-112513866D02*
X148229523Y-112275771D01*
X148229523Y-112275771D02*
X148181904Y-112085295D01*
X148181904Y-112085295D02*
X148134285Y-111990057D01*
X148134285Y-111990057D02*
X148086666Y-111942438D01*
X148086666Y-111942438D02*
X147991428Y-111894819D01*
X120044819Y-77687142D02*
X119568628Y-77353809D01*
X120044819Y-77115714D02*
X119044819Y-77115714D01*
X119044819Y-77115714D02*
X119044819Y-77496666D01*
X119044819Y-77496666D02*
X119092438Y-77591904D01*
X119092438Y-77591904D02*
X119140057Y-77639523D01*
X119140057Y-77639523D02*
X119235295Y-77687142D01*
X119235295Y-77687142D02*
X119378152Y-77687142D01*
X119378152Y-77687142D02*
X119473390Y-77639523D01*
X119473390Y-77639523D02*
X119521009Y-77591904D01*
X119521009Y-77591904D02*
X119568628Y-77496666D01*
X119568628Y-77496666D02*
X119568628Y-77115714D01*
X119140057Y-78068095D02*
X119092438Y-78115714D01*
X119092438Y-78115714D02*
X119044819Y-78210952D01*
X119044819Y-78210952D02*
X119044819Y-78449047D01*
X119044819Y-78449047D02*
X119092438Y-78544285D01*
X119092438Y-78544285D02*
X119140057Y-78591904D01*
X119140057Y-78591904D02*
X119235295Y-78639523D01*
X119235295Y-78639523D02*
X119330533Y-78639523D01*
X119330533Y-78639523D02*
X119473390Y-78591904D01*
X119473390Y-78591904D02*
X120044819Y-78020476D01*
X120044819Y-78020476D02*
X120044819Y-78639523D01*
X119044819Y-78972857D02*
X119044819Y-79591904D01*
X119044819Y-79591904D02*
X119425771Y-79258571D01*
X119425771Y-79258571D02*
X119425771Y-79401428D01*
X119425771Y-79401428D02*
X119473390Y-79496666D01*
X119473390Y-79496666D02*
X119521009Y-79544285D01*
X119521009Y-79544285D02*
X119616247Y-79591904D01*
X119616247Y-79591904D02*
X119854342Y-79591904D01*
X119854342Y-79591904D02*
X119949580Y-79544285D01*
X119949580Y-79544285D02*
X119997200Y-79496666D01*
X119997200Y-79496666D02*
X120044819Y-79401428D01*
X120044819Y-79401428D02*
X120044819Y-79115714D01*
X120044819Y-79115714D02*
X119997200Y-79020476D01*
X119997200Y-79020476D02*
X119949580Y-78972857D01*
X95612857Y-38744819D02*
X95946190Y-38268628D01*
X96184285Y-38744819D02*
X96184285Y-37744819D01*
X96184285Y-37744819D02*
X95803333Y-37744819D01*
X95803333Y-37744819D02*
X95708095Y-37792438D01*
X95708095Y-37792438D02*
X95660476Y-37840057D01*
X95660476Y-37840057D02*
X95612857Y-37935295D01*
X95612857Y-37935295D02*
X95612857Y-38078152D01*
X95612857Y-38078152D02*
X95660476Y-38173390D01*
X95660476Y-38173390D02*
X95708095Y-38221009D01*
X95708095Y-38221009D02*
X95803333Y-38268628D01*
X95803333Y-38268628D02*
X96184285Y-38268628D01*
X95279523Y-37744819D02*
X94660476Y-37744819D01*
X94660476Y-37744819D02*
X94993809Y-38125771D01*
X94993809Y-38125771D02*
X94850952Y-38125771D01*
X94850952Y-38125771D02*
X94755714Y-38173390D01*
X94755714Y-38173390D02*
X94708095Y-38221009D01*
X94708095Y-38221009D02*
X94660476Y-38316247D01*
X94660476Y-38316247D02*
X94660476Y-38554342D01*
X94660476Y-38554342D02*
X94708095Y-38649580D01*
X94708095Y-38649580D02*
X94755714Y-38697200D01*
X94755714Y-38697200D02*
X94850952Y-38744819D01*
X94850952Y-38744819D02*
X95136666Y-38744819D01*
X95136666Y-38744819D02*
X95231904Y-38697200D01*
X95231904Y-38697200D02*
X95279523Y-38649580D01*
X94327142Y-37744819D02*
X93708095Y-37744819D01*
X93708095Y-37744819D02*
X94041428Y-38125771D01*
X94041428Y-38125771D02*
X93898571Y-38125771D01*
X93898571Y-38125771D02*
X93803333Y-38173390D01*
X93803333Y-38173390D02*
X93755714Y-38221009D01*
X93755714Y-38221009D02*
X93708095Y-38316247D01*
X93708095Y-38316247D02*
X93708095Y-38554342D01*
X93708095Y-38554342D02*
X93755714Y-38649580D01*
X93755714Y-38649580D02*
X93803333Y-38697200D01*
X93803333Y-38697200D02*
X93898571Y-38744819D01*
X93898571Y-38744819D02*
X94184285Y-38744819D01*
X94184285Y-38744819D02*
X94279523Y-38697200D01*
X94279523Y-38697200D02*
X94327142Y-38649580D01*
X109362857Y-107794819D02*
X109696190Y-107318628D01*
X109934285Y-107794819D02*
X109934285Y-106794819D01*
X109934285Y-106794819D02*
X109553333Y-106794819D01*
X109553333Y-106794819D02*
X109458095Y-106842438D01*
X109458095Y-106842438D02*
X109410476Y-106890057D01*
X109410476Y-106890057D02*
X109362857Y-106985295D01*
X109362857Y-106985295D02*
X109362857Y-107128152D01*
X109362857Y-107128152D02*
X109410476Y-107223390D01*
X109410476Y-107223390D02*
X109458095Y-107271009D01*
X109458095Y-107271009D02*
X109553333Y-107318628D01*
X109553333Y-107318628D02*
X109934285Y-107318628D01*
X108981904Y-106890057D02*
X108934285Y-106842438D01*
X108934285Y-106842438D02*
X108839047Y-106794819D01*
X108839047Y-106794819D02*
X108600952Y-106794819D01*
X108600952Y-106794819D02*
X108505714Y-106842438D01*
X108505714Y-106842438D02*
X108458095Y-106890057D01*
X108458095Y-106890057D02*
X108410476Y-106985295D01*
X108410476Y-106985295D02*
X108410476Y-107080533D01*
X108410476Y-107080533D02*
X108458095Y-107223390D01*
X108458095Y-107223390D02*
X109029523Y-107794819D01*
X109029523Y-107794819D02*
X108410476Y-107794819D01*
X107791428Y-106794819D02*
X107696190Y-106794819D01*
X107696190Y-106794819D02*
X107600952Y-106842438D01*
X107600952Y-106842438D02*
X107553333Y-106890057D01*
X107553333Y-106890057D02*
X107505714Y-106985295D01*
X107505714Y-106985295D02*
X107458095Y-107175771D01*
X107458095Y-107175771D02*
X107458095Y-107413866D01*
X107458095Y-107413866D02*
X107505714Y-107604342D01*
X107505714Y-107604342D02*
X107553333Y-107699580D01*
X107553333Y-107699580D02*
X107600952Y-107747200D01*
X107600952Y-107747200D02*
X107696190Y-107794819D01*
X107696190Y-107794819D02*
X107791428Y-107794819D01*
X107791428Y-107794819D02*
X107886666Y-107747200D01*
X107886666Y-107747200D02*
X107934285Y-107699580D01*
X107934285Y-107699580D02*
X107981904Y-107604342D01*
X107981904Y-107604342D02*
X108029523Y-107413866D01*
X108029523Y-107413866D02*
X108029523Y-107175771D01*
X108029523Y-107175771D02*
X107981904Y-106985295D01*
X107981904Y-106985295D02*
X107934285Y-106890057D01*
X107934285Y-106890057D02*
X107886666Y-106842438D01*
X107886666Y-106842438D02*
X107791428Y-106794819D01*
X135234819Y-118275595D02*
X136044342Y-118275595D01*
X136044342Y-118275595D02*
X136139580Y-118323214D01*
X136139580Y-118323214D02*
X136187200Y-118370833D01*
X136187200Y-118370833D02*
X136234819Y-118466071D01*
X136234819Y-118466071D02*
X136234819Y-118656547D01*
X136234819Y-118656547D02*
X136187200Y-118751785D01*
X136187200Y-118751785D02*
X136139580Y-118799404D01*
X136139580Y-118799404D02*
X136044342Y-118847023D01*
X136044342Y-118847023D02*
X135234819Y-118847023D01*
X135568152Y-119751785D02*
X136234819Y-119751785D01*
X135187200Y-119513690D02*
X135901485Y-119275595D01*
X135901485Y-119275595D02*
X135901485Y-119894642D01*
X139895180Y-52811904D02*
X139085657Y-52811904D01*
X139085657Y-52811904D02*
X138990419Y-52764285D01*
X138990419Y-52764285D02*
X138942800Y-52716666D01*
X138942800Y-52716666D02*
X138895180Y-52621428D01*
X138895180Y-52621428D02*
X138895180Y-52430952D01*
X138895180Y-52430952D02*
X138942800Y-52335714D01*
X138942800Y-52335714D02*
X138990419Y-52288095D01*
X138990419Y-52288095D02*
X139085657Y-52240476D01*
X139085657Y-52240476D02*
X139895180Y-52240476D01*
X138895180Y-51240476D02*
X138895180Y-51811904D01*
X138895180Y-51526190D02*
X139895180Y-51526190D01*
X139895180Y-51526190D02*
X139752323Y-51621428D01*
X139752323Y-51621428D02*
X139657085Y-51716666D01*
X139657085Y-51716666D02*
X139609466Y-51811904D01*
X131942857Y-113269580D02*
X131990476Y-113317200D01*
X131990476Y-113317200D02*
X132133333Y-113364819D01*
X132133333Y-113364819D02*
X132228571Y-113364819D01*
X132228571Y-113364819D02*
X132371428Y-113317200D01*
X132371428Y-113317200D02*
X132466666Y-113221961D01*
X132466666Y-113221961D02*
X132514285Y-113126723D01*
X132514285Y-113126723D02*
X132561904Y-112936247D01*
X132561904Y-112936247D02*
X132561904Y-112793390D01*
X132561904Y-112793390D02*
X132514285Y-112602914D01*
X132514285Y-112602914D02*
X132466666Y-112507676D01*
X132466666Y-112507676D02*
X132371428Y-112412438D01*
X132371428Y-112412438D02*
X132228571Y-112364819D01*
X132228571Y-112364819D02*
X132133333Y-112364819D01*
X132133333Y-112364819D02*
X131990476Y-112412438D01*
X131990476Y-112412438D02*
X131942857Y-112460057D01*
X131561904Y-112460057D02*
X131514285Y-112412438D01*
X131514285Y-112412438D02*
X131419047Y-112364819D01*
X131419047Y-112364819D02*
X131180952Y-112364819D01*
X131180952Y-112364819D02*
X131085714Y-112412438D01*
X131085714Y-112412438D02*
X131038095Y-112460057D01*
X131038095Y-112460057D02*
X130990476Y-112555295D01*
X130990476Y-112555295D02*
X130990476Y-112650533D01*
X130990476Y-112650533D02*
X131038095Y-112793390D01*
X131038095Y-112793390D02*
X131609523Y-113364819D01*
X131609523Y-113364819D02*
X130990476Y-113364819D01*
X130609523Y-112460057D02*
X130561904Y-112412438D01*
X130561904Y-112412438D02*
X130466666Y-112364819D01*
X130466666Y-112364819D02*
X130228571Y-112364819D01*
X130228571Y-112364819D02*
X130133333Y-112412438D01*
X130133333Y-112412438D02*
X130085714Y-112460057D01*
X130085714Y-112460057D02*
X130038095Y-112555295D01*
X130038095Y-112555295D02*
X130038095Y-112650533D01*
X130038095Y-112650533D02*
X130085714Y-112793390D01*
X130085714Y-112793390D02*
X130657142Y-113364819D01*
X130657142Y-113364819D02*
X130038095Y-113364819D01*
X137022857Y-126024819D02*
X137356190Y-125548628D01*
X137594285Y-126024819D02*
X137594285Y-125024819D01*
X137594285Y-125024819D02*
X137213333Y-125024819D01*
X137213333Y-125024819D02*
X137118095Y-125072438D01*
X137118095Y-125072438D02*
X137070476Y-125120057D01*
X137070476Y-125120057D02*
X137022857Y-125215295D01*
X137022857Y-125215295D02*
X137022857Y-125358152D01*
X137022857Y-125358152D02*
X137070476Y-125453390D01*
X137070476Y-125453390D02*
X137118095Y-125501009D01*
X137118095Y-125501009D02*
X137213333Y-125548628D01*
X137213333Y-125548628D02*
X137594285Y-125548628D01*
X136165714Y-125358152D02*
X136165714Y-126024819D01*
X136403809Y-124977200D02*
X136641904Y-125691485D01*
X136641904Y-125691485D02*
X136022857Y-125691485D01*
X135451428Y-125024819D02*
X135356190Y-125024819D01*
X135356190Y-125024819D02*
X135260952Y-125072438D01*
X135260952Y-125072438D02*
X135213333Y-125120057D01*
X135213333Y-125120057D02*
X135165714Y-125215295D01*
X135165714Y-125215295D02*
X135118095Y-125405771D01*
X135118095Y-125405771D02*
X135118095Y-125643866D01*
X135118095Y-125643866D02*
X135165714Y-125834342D01*
X135165714Y-125834342D02*
X135213333Y-125929580D01*
X135213333Y-125929580D02*
X135260952Y-125977200D01*
X135260952Y-125977200D02*
X135356190Y-126024819D01*
X135356190Y-126024819D02*
X135451428Y-126024819D01*
X135451428Y-126024819D02*
X135546666Y-125977200D01*
X135546666Y-125977200D02*
X135594285Y-125929580D01*
X135594285Y-125929580D02*
X135641904Y-125834342D01*
X135641904Y-125834342D02*
X135689523Y-125643866D01*
X135689523Y-125643866D02*
X135689523Y-125405771D01*
X135689523Y-125405771D02*
X135641904Y-125215295D01*
X135641904Y-125215295D02*
X135594285Y-125120057D01*
X135594285Y-125120057D02*
X135546666Y-125072438D01*
X135546666Y-125072438D02*
X135451428Y-125024819D01*
X107304819Y-50427142D02*
X106828628Y-50093809D01*
X107304819Y-49855714D02*
X106304819Y-49855714D01*
X106304819Y-49855714D02*
X106304819Y-50236666D01*
X106304819Y-50236666D02*
X106352438Y-50331904D01*
X106352438Y-50331904D02*
X106400057Y-50379523D01*
X106400057Y-50379523D02*
X106495295Y-50427142D01*
X106495295Y-50427142D02*
X106638152Y-50427142D01*
X106638152Y-50427142D02*
X106733390Y-50379523D01*
X106733390Y-50379523D02*
X106781009Y-50331904D01*
X106781009Y-50331904D02*
X106828628Y-50236666D01*
X106828628Y-50236666D02*
X106828628Y-49855714D01*
X106400057Y-50808095D02*
X106352438Y-50855714D01*
X106352438Y-50855714D02*
X106304819Y-50950952D01*
X106304819Y-50950952D02*
X106304819Y-51189047D01*
X106304819Y-51189047D02*
X106352438Y-51284285D01*
X106352438Y-51284285D02*
X106400057Y-51331904D01*
X106400057Y-51331904D02*
X106495295Y-51379523D01*
X106495295Y-51379523D02*
X106590533Y-51379523D01*
X106590533Y-51379523D02*
X106733390Y-51331904D01*
X106733390Y-51331904D02*
X107304819Y-50760476D01*
X107304819Y-50760476D02*
X107304819Y-51379523D01*
X106400057Y-51760476D02*
X106352438Y-51808095D01*
X106352438Y-51808095D02*
X106304819Y-51903333D01*
X106304819Y-51903333D02*
X106304819Y-52141428D01*
X106304819Y-52141428D02*
X106352438Y-52236666D01*
X106352438Y-52236666D02*
X106400057Y-52284285D01*
X106400057Y-52284285D02*
X106495295Y-52331904D01*
X106495295Y-52331904D02*
X106590533Y-52331904D01*
X106590533Y-52331904D02*
X106733390Y-52284285D01*
X106733390Y-52284285D02*
X107304819Y-51712857D01*
X107304819Y-51712857D02*
X107304819Y-52331904D01*
X116814819Y-50427142D02*
X116338628Y-50093809D01*
X116814819Y-49855714D02*
X115814819Y-49855714D01*
X115814819Y-49855714D02*
X115814819Y-50236666D01*
X115814819Y-50236666D02*
X115862438Y-50331904D01*
X115862438Y-50331904D02*
X115910057Y-50379523D01*
X115910057Y-50379523D02*
X116005295Y-50427142D01*
X116005295Y-50427142D02*
X116148152Y-50427142D01*
X116148152Y-50427142D02*
X116243390Y-50379523D01*
X116243390Y-50379523D02*
X116291009Y-50331904D01*
X116291009Y-50331904D02*
X116338628Y-50236666D01*
X116338628Y-50236666D02*
X116338628Y-49855714D01*
X116814819Y-51379523D02*
X116814819Y-50808095D01*
X116814819Y-51093809D02*
X115814819Y-51093809D01*
X115814819Y-51093809D02*
X115957676Y-50998571D01*
X115957676Y-50998571D02*
X116052914Y-50903333D01*
X116052914Y-50903333D02*
X116100533Y-50808095D01*
X116243390Y-51950952D02*
X116195771Y-51855714D01*
X116195771Y-51855714D02*
X116148152Y-51808095D01*
X116148152Y-51808095D02*
X116052914Y-51760476D01*
X116052914Y-51760476D02*
X116005295Y-51760476D01*
X116005295Y-51760476D02*
X115910057Y-51808095D01*
X115910057Y-51808095D02*
X115862438Y-51855714D01*
X115862438Y-51855714D02*
X115814819Y-51950952D01*
X115814819Y-51950952D02*
X115814819Y-52141428D01*
X115814819Y-52141428D02*
X115862438Y-52236666D01*
X115862438Y-52236666D02*
X115910057Y-52284285D01*
X115910057Y-52284285D02*
X116005295Y-52331904D01*
X116005295Y-52331904D02*
X116052914Y-52331904D01*
X116052914Y-52331904D02*
X116148152Y-52284285D01*
X116148152Y-52284285D02*
X116195771Y-52236666D01*
X116195771Y-52236666D02*
X116243390Y-52141428D01*
X116243390Y-52141428D02*
X116243390Y-51950952D01*
X116243390Y-51950952D02*
X116291009Y-51855714D01*
X116291009Y-51855714D02*
X116338628Y-51808095D01*
X116338628Y-51808095D02*
X116433866Y-51760476D01*
X116433866Y-51760476D02*
X116624342Y-51760476D01*
X116624342Y-51760476D02*
X116719580Y-51808095D01*
X116719580Y-51808095D02*
X116767200Y-51855714D01*
X116767200Y-51855714D02*
X116814819Y-51950952D01*
X116814819Y-51950952D02*
X116814819Y-52141428D01*
X116814819Y-52141428D02*
X116767200Y-52236666D01*
X116767200Y-52236666D02*
X116719580Y-52284285D01*
X116719580Y-52284285D02*
X116624342Y-52331904D01*
X116624342Y-52331904D02*
X116433866Y-52331904D01*
X116433866Y-52331904D02*
X116338628Y-52284285D01*
X116338628Y-52284285D02*
X116291009Y-52236666D01*
X116291009Y-52236666D02*
X116243390Y-52141428D01*
X149376666Y-35204819D02*
X149709999Y-34728628D01*
X149948094Y-35204819D02*
X149948094Y-34204819D01*
X149948094Y-34204819D02*
X149567142Y-34204819D01*
X149567142Y-34204819D02*
X149471904Y-34252438D01*
X149471904Y-34252438D02*
X149424285Y-34300057D01*
X149424285Y-34300057D02*
X149376666Y-34395295D01*
X149376666Y-34395295D02*
X149376666Y-34538152D01*
X149376666Y-34538152D02*
X149424285Y-34633390D01*
X149424285Y-34633390D02*
X149471904Y-34681009D01*
X149471904Y-34681009D02*
X149567142Y-34728628D01*
X149567142Y-34728628D02*
X149948094Y-34728628D01*
X148424285Y-35204819D02*
X148995713Y-35204819D01*
X148709999Y-35204819D02*
X148709999Y-34204819D01*
X148709999Y-34204819D02*
X148805237Y-34347676D01*
X148805237Y-34347676D02*
X148900475Y-34442914D01*
X148900475Y-34442914D02*
X148995713Y-34490533D01*
X107030475Y-34144819D02*
X106459047Y-34144819D01*
X106744761Y-35144819D02*
X106744761Y-34144819D01*
X105792380Y-34621009D02*
X106125713Y-34621009D01*
X106125713Y-35144819D02*
X106125713Y-34144819D01*
X106125713Y-34144819D02*
X105649523Y-34144819D01*
X104744761Y-35144819D02*
X105316189Y-35144819D01*
X105030475Y-35144819D02*
X105030475Y-34144819D01*
X105030475Y-34144819D02*
X105125713Y-34287676D01*
X105125713Y-34287676D02*
X105220951Y-34382914D01*
X105220951Y-34382914D02*
X105316189Y-34430533D01*
X149562857Y-110379580D02*
X149610476Y-110427200D01*
X149610476Y-110427200D02*
X149753333Y-110474819D01*
X149753333Y-110474819D02*
X149848571Y-110474819D01*
X149848571Y-110474819D02*
X149991428Y-110427200D01*
X149991428Y-110427200D02*
X150086666Y-110331961D01*
X150086666Y-110331961D02*
X150134285Y-110236723D01*
X150134285Y-110236723D02*
X150181904Y-110046247D01*
X150181904Y-110046247D02*
X150181904Y-109903390D01*
X150181904Y-109903390D02*
X150134285Y-109712914D01*
X150134285Y-109712914D02*
X150086666Y-109617676D01*
X150086666Y-109617676D02*
X149991428Y-109522438D01*
X149991428Y-109522438D02*
X149848571Y-109474819D01*
X149848571Y-109474819D02*
X149753333Y-109474819D01*
X149753333Y-109474819D02*
X149610476Y-109522438D01*
X149610476Y-109522438D02*
X149562857Y-109570057D01*
X148610476Y-110474819D02*
X149181904Y-110474819D01*
X148896190Y-110474819D02*
X148896190Y-109474819D01*
X148896190Y-109474819D02*
X148991428Y-109617676D01*
X148991428Y-109617676D02*
X149086666Y-109712914D01*
X149086666Y-109712914D02*
X149181904Y-109760533D01*
X148134285Y-110474819D02*
X147943809Y-110474819D01*
X147943809Y-110474819D02*
X147848571Y-110427200D01*
X147848571Y-110427200D02*
X147800952Y-110379580D01*
X147800952Y-110379580D02*
X147705714Y-110236723D01*
X147705714Y-110236723D02*
X147658095Y-110046247D01*
X147658095Y-110046247D02*
X147658095Y-109665295D01*
X147658095Y-109665295D02*
X147705714Y-109570057D01*
X147705714Y-109570057D02*
X147753333Y-109522438D01*
X147753333Y-109522438D02*
X147848571Y-109474819D01*
X147848571Y-109474819D02*
X148039047Y-109474819D01*
X148039047Y-109474819D02*
X148134285Y-109522438D01*
X148134285Y-109522438D02*
X148181904Y-109570057D01*
X148181904Y-109570057D02*
X148229523Y-109665295D01*
X148229523Y-109665295D02*
X148229523Y-109903390D01*
X148229523Y-109903390D02*
X148181904Y-109998628D01*
X148181904Y-109998628D02*
X148134285Y-110046247D01*
X148134285Y-110046247D02*
X148039047Y-110093866D01*
X148039047Y-110093866D02*
X147848571Y-110093866D01*
X147848571Y-110093866D02*
X147753333Y-110046247D01*
X147753333Y-110046247D02*
X147705714Y-109998628D01*
X147705714Y-109998628D02*
X147658095Y-109903390D01*
X144552857Y-126024819D02*
X144886190Y-125548628D01*
X145124285Y-126024819D02*
X145124285Y-125024819D01*
X145124285Y-125024819D02*
X144743333Y-125024819D01*
X144743333Y-125024819D02*
X144648095Y-125072438D01*
X144648095Y-125072438D02*
X144600476Y-125120057D01*
X144600476Y-125120057D02*
X144552857Y-125215295D01*
X144552857Y-125215295D02*
X144552857Y-125358152D01*
X144552857Y-125358152D02*
X144600476Y-125453390D01*
X144600476Y-125453390D02*
X144648095Y-125501009D01*
X144648095Y-125501009D02*
X144743333Y-125548628D01*
X144743333Y-125548628D02*
X145124285Y-125548628D01*
X144171904Y-125120057D02*
X144124285Y-125072438D01*
X144124285Y-125072438D02*
X144029047Y-125024819D01*
X144029047Y-125024819D02*
X143790952Y-125024819D01*
X143790952Y-125024819D02*
X143695714Y-125072438D01*
X143695714Y-125072438D02*
X143648095Y-125120057D01*
X143648095Y-125120057D02*
X143600476Y-125215295D01*
X143600476Y-125215295D02*
X143600476Y-125310533D01*
X143600476Y-125310533D02*
X143648095Y-125453390D01*
X143648095Y-125453390D02*
X144219523Y-126024819D01*
X144219523Y-126024819D02*
X143600476Y-126024819D01*
X142743333Y-125024819D02*
X142933809Y-125024819D01*
X142933809Y-125024819D02*
X143029047Y-125072438D01*
X143029047Y-125072438D02*
X143076666Y-125120057D01*
X143076666Y-125120057D02*
X143171904Y-125262914D01*
X143171904Y-125262914D02*
X143219523Y-125453390D01*
X143219523Y-125453390D02*
X143219523Y-125834342D01*
X143219523Y-125834342D02*
X143171904Y-125929580D01*
X143171904Y-125929580D02*
X143124285Y-125977200D01*
X143124285Y-125977200D02*
X143029047Y-126024819D01*
X143029047Y-126024819D02*
X142838571Y-126024819D01*
X142838571Y-126024819D02*
X142743333Y-125977200D01*
X142743333Y-125977200D02*
X142695714Y-125929580D01*
X142695714Y-125929580D02*
X142648095Y-125834342D01*
X142648095Y-125834342D02*
X142648095Y-125596247D01*
X142648095Y-125596247D02*
X142695714Y-125501009D01*
X142695714Y-125501009D02*
X142743333Y-125453390D01*
X142743333Y-125453390D02*
X142838571Y-125405771D01*
X142838571Y-125405771D02*
X143029047Y-125405771D01*
X143029047Y-125405771D02*
X143124285Y-125453390D01*
X143124285Y-125453390D02*
X143171904Y-125501009D01*
X143171904Y-125501009D02*
X143219523Y-125596247D01*
X104969580Y-50427142D02*
X105017200Y-50379523D01*
X105017200Y-50379523D02*
X105064819Y-50236666D01*
X105064819Y-50236666D02*
X105064819Y-50141428D01*
X105064819Y-50141428D02*
X105017200Y-49998571D01*
X105017200Y-49998571D02*
X104921961Y-49903333D01*
X104921961Y-49903333D02*
X104826723Y-49855714D01*
X104826723Y-49855714D02*
X104636247Y-49808095D01*
X104636247Y-49808095D02*
X104493390Y-49808095D01*
X104493390Y-49808095D02*
X104302914Y-49855714D01*
X104302914Y-49855714D02*
X104207676Y-49903333D01*
X104207676Y-49903333D02*
X104112438Y-49998571D01*
X104112438Y-49998571D02*
X104064819Y-50141428D01*
X104064819Y-50141428D02*
X104064819Y-50236666D01*
X104064819Y-50236666D02*
X104112438Y-50379523D01*
X104112438Y-50379523D02*
X104160057Y-50427142D01*
X105064819Y-51379523D02*
X105064819Y-50808095D01*
X105064819Y-51093809D02*
X104064819Y-51093809D01*
X104064819Y-51093809D02*
X104207676Y-50998571D01*
X104207676Y-50998571D02*
X104302914Y-50903333D01*
X104302914Y-50903333D02*
X104350533Y-50808095D01*
X104064819Y-51712857D02*
X104064819Y-52331904D01*
X104064819Y-52331904D02*
X104445771Y-51998571D01*
X104445771Y-51998571D02*
X104445771Y-52141428D01*
X104445771Y-52141428D02*
X104493390Y-52236666D01*
X104493390Y-52236666D02*
X104541009Y-52284285D01*
X104541009Y-52284285D02*
X104636247Y-52331904D01*
X104636247Y-52331904D02*
X104874342Y-52331904D01*
X104874342Y-52331904D02*
X104969580Y-52284285D01*
X104969580Y-52284285D02*
X105017200Y-52236666D01*
X105017200Y-52236666D02*
X105064819Y-52141428D01*
X105064819Y-52141428D02*
X105064819Y-51855714D01*
X105064819Y-51855714D02*
X105017200Y-51760476D01*
X105017200Y-51760476D02*
X104969580Y-51712857D01*
X91072857Y-101024819D02*
X91406190Y-100548628D01*
X91644285Y-101024819D02*
X91644285Y-100024819D01*
X91644285Y-100024819D02*
X91263333Y-100024819D01*
X91263333Y-100024819D02*
X91168095Y-100072438D01*
X91168095Y-100072438D02*
X91120476Y-100120057D01*
X91120476Y-100120057D02*
X91072857Y-100215295D01*
X91072857Y-100215295D02*
X91072857Y-100358152D01*
X91072857Y-100358152D02*
X91120476Y-100453390D01*
X91120476Y-100453390D02*
X91168095Y-100501009D01*
X91168095Y-100501009D02*
X91263333Y-100548628D01*
X91263333Y-100548628D02*
X91644285Y-100548628D01*
X90739523Y-100024819D02*
X90120476Y-100024819D01*
X90120476Y-100024819D02*
X90453809Y-100405771D01*
X90453809Y-100405771D02*
X90310952Y-100405771D01*
X90310952Y-100405771D02*
X90215714Y-100453390D01*
X90215714Y-100453390D02*
X90168095Y-100501009D01*
X90168095Y-100501009D02*
X90120476Y-100596247D01*
X90120476Y-100596247D02*
X90120476Y-100834342D01*
X90120476Y-100834342D02*
X90168095Y-100929580D01*
X90168095Y-100929580D02*
X90215714Y-100977200D01*
X90215714Y-100977200D02*
X90310952Y-101024819D01*
X90310952Y-101024819D02*
X90596666Y-101024819D01*
X90596666Y-101024819D02*
X90691904Y-100977200D01*
X90691904Y-100977200D02*
X90739523Y-100929580D01*
X89787142Y-100024819D02*
X89120476Y-100024819D01*
X89120476Y-100024819D02*
X89549047Y-101024819D01*
X149326666Y-43114819D02*
X149659999Y-42638628D01*
X149898094Y-43114819D02*
X149898094Y-42114819D01*
X149898094Y-42114819D02*
X149517142Y-42114819D01*
X149517142Y-42114819D02*
X149421904Y-42162438D01*
X149421904Y-42162438D02*
X149374285Y-42210057D01*
X149374285Y-42210057D02*
X149326666Y-42305295D01*
X149326666Y-42305295D02*
X149326666Y-42448152D01*
X149326666Y-42448152D02*
X149374285Y-42543390D01*
X149374285Y-42543390D02*
X149421904Y-42591009D01*
X149421904Y-42591009D02*
X149517142Y-42638628D01*
X149517142Y-42638628D02*
X149898094Y-42638628D01*
X148469523Y-42448152D02*
X148469523Y-43114819D01*
X148707618Y-42067200D02*
X148945713Y-42781485D01*
X148945713Y-42781485D02*
X148326666Y-42781485D01*
X102729580Y-50427142D02*
X102777200Y-50379523D01*
X102777200Y-50379523D02*
X102824819Y-50236666D01*
X102824819Y-50236666D02*
X102824819Y-50141428D01*
X102824819Y-50141428D02*
X102777200Y-49998571D01*
X102777200Y-49998571D02*
X102681961Y-49903333D01*
X102681961Y-49903333D02*
X102586723Y-49855714D01*
X102586723Y-49855714D02*
X102396247Y-49808095D01*
X102396247Y-49808095D02*
X102253390Y-49808095D01*
X102253390Y-49808095D02*
X102062914Y-49855714D01*
X102062914Y-49855714D02*
X101967676Y-49903333D01*
X101967676Y-49903333D02*
X101872438Y-49998571D01*
X101872438Y-49998571D02*
X101824819Y-50141428D01*
X101824819Y-50141428D02*
X101824819Y-50236666D01*
X101824819Y-50236666D02*
X101872438Y-50379523D01*
X101872438Y-50379523D02*
X101920057Y-50427142D01*
X102824819Y-51379523D02*
X102824819Y-50808095D01*
X102824819Y-51093809D02*
X101824819Y-51093809D01*
X101824819Y-51093809D02*
X101967676Y-50998571D01*
X101967676Y-50998571D02*
X102062914Y-50903333D01*
X102062914Y-50903333D02*
X102110533Y-50808095D01*
X101920057Y-51760476D02*
X101872438Y-51808095D01*
X101872438Y-51808095D02*
X101824819Y-51903333D01*
X101824819Y-51903333D02*
X101824819Y-52141428D01*
X101824819Y-52141428D02*
X101872438Y-52236666D01*
X101872438Y-52236666D02*
X101920057Y-52284285D01*
X101920057Y-52284285D02*
X102015295Y-52331904D01*
X102015295Y-52331904D02*
X102110533Y-52331904D01*
X102110533Y-52331904D02*
X102253390Y-52284285D01*
X102253390Y-52284285D02*
X102824819Y-51712857D01*
X102824819Y-51712857D02*
X102824819Y-52331904D01*
X112236666Y-43924819D02*
X112569999Y-43448628D01*
X112808094Y-43924819D02*
X112808094Y-42924819D01*
X112808094Y-42924819D02*
X112427142Y-42924819D01*
X112427142Y-42924819D02*
X112331904Y-42972438D01*
X112331904Y-42972438D02*
X112284285Y-43020057D01*
X112284285Y-43020057D02*
X112236666Y-43115295D01*
X112236666Y-43115295D02*
X112236666Y-43258152D01*
X112236666Y-43258152D02*
X112284285Y-43353390D01*
X112284285Y-43353390D02*
X112331904Y-43401009D01*
X112331904Y-43401009D02*
X112427142Y-43448628D01*
X112427142Y-43448628D02*
X112808094Y-43448628D01*
X111331904Y-42924819D02*
X111808094Y-42924819D01*
X111808094Y-42924819D02*
X111855713Y-43401009D01*
X111855713Y-43401009D02*
X111808094Y-43353390D01*
X111808094Y-43353390D02*
X111712856Y-43305771D01*
X111712856Y-43305771D02*
X111474761Y-43305771D01*
X111474761Y-43305771D02*
X111379523Y-43353390D01*
X111379523Y-43353390D02*
X111331904Y-43401009D01*
X111331904Y-43401009D02*
X111284285Y-43496247D01*
X111284285Y-43496247D02*
X111284285Y-43734342D01*
X111284285Y-43734342D02*
X111331904Y-43829580D01*
X111331904Y-43829580D02*
X111379523Y-43877200D01*
X111379523Y-43877200D02*
X111474761Y-43924819D01*
X111474761Y-43924819D02*
X111712856Y-43924819D01*
X111712856Y-43924819D02*
X111808094Y-43877200D01*
X111808094Y-43877200D02*
X111855713Y-43829580D01*
X140817857Y-126024819D02*
X141151190Y-125548628D01*
X141389285Y-126024819D02*
X141389285Y-125024819D01*
X141389285Y-125024819D02*
X141008333Y-125024819D01*
X141008333Y-125024819D02*
X140913095Y-125072438D01*
X140913095Y-125072438D02*
X140865476Y-125120057D01*
X140865476Y-125120057D02*
X140817857Y-125215295D01*
X140817857Y-125215295D02*
X140817857Y-125358152D01*
X140817857Y-125358152D02*
X140865476Y-125453390D01*
X140865476Y-125453390D02*
X140913095Y-125501009D01*
X140913095Y-125501009D02*
X141008333Y-125548628D01*
X141008333Y-125548628D02*
X141389285Y-125548628D01*
X139960714Y-125358152D02*
X139960714Y-126024819D01*
X140198809Y-124977200D02*
X140436904Y-125691485D01*
X140436904Y-125691485D02*
X139817857Y-125691485D01*
X138913095Y-126024819D02*
X139484523Y-126024819D01*
X139198809Y-126024819D02*
X139198809Y-125024819D01*
X139198809Y-125024819D02*
X139294047Y-125167676D01*
X139294047Y-125167676D02*
X139389285Y-125262914D01*
X139389285Y-125262914D02*
X139484523Y-125310533D01*
D12*
%TO.C,Q1*%
X117250000Y-82790000D02*
X117250000Y-84310000D01*
X117250000Y-84310000D02*
X118250000Y-84310000D01*
X117300000Y-82790000D02*
X117250000Y-82790000D01*
X119200000Y-82790000D02*
X118420000Y-82790000D01*
X119370000Y-84310000D02*
X120370000Y-84310000D01*
X120370000Y-82790000D02*
X120320000Y-82790000D01*
X120370000Y-84310000D02*
X120370000Y-82790000D01*
X118760000Y-82490000D02*
X118430000Y-82250000D01*
X118760000Y-82010000D01*
X118760000Y-82490000D01*
G36*
X118760000Y-82490000D02*
G01*
X118430000Y-82250000D01*
X118760000Y-82010000D01*
X118760000Y-82490000D01*
G37*
%TO.C,R34*%
X112982936Y-65935000D02*
X113437064Y-65935000D01*
X112982936Y-67405000D02*
X113437064Y-67405000D01*
%TO.C,R32*%
X105895000Y-97982936D02*
X105895000Y-98437064D01*
X107365000Y-97982936D02*
X107365000Y-98437064D01*
%TO.C,R7*%
X140385000Y-36202936D02*
X140385000Y-36657064D01*
X141855000Y-36202936D02*
X141855000Y-36657064D01*
%TO.C,R39*%
X144477064Y-120745000D02*
X144022936Y-120745000D01*
X144477064Y-122215000D02*
X144022936Y-122215000D01*
%TO.C,R42*%
X72357064Y-117275000D02*
X71902936Y-117275000D01*
X72357064Y-118745000D02*
X71902936Y-118745000D01*
%TO.C,R21*%
X112327064Y-103785000D02*
X111872936Y-103785000D01*
X112327064Y-105255000D02*
X111872936Y-105255000D01*
%TO.C,R31*%
X102075000Y-97982936D02*
X102075000Y-98437064D01*
X103545000Y-97982936D02*
X103545000Y-98437064D01*
%TO.C,R27*%
X110584999Y-48307064D02*
X110584999Y-47852936D01*
X112054999Y-48307064D02*
X112054999Y-47852936D01*
%TO.C,R43*%
X90812936Y-116965000D02*
X91267064Y-116965000D01*
X90812936Y-118435000D02*
X91267064Y-118435000D01*
%TO.C,R28*%
X114625000Y-82952936D02*
X114625000Y-83407064D01*
X116095000Y-82952936D02*
X116095000Y-83407064D01*
%TO.C,R30*%
X98255000Y-97982936D02*
X98255000Y-98437064D01*
X99725000Y-97982936D02*
X99725000Y-98437064D01*
%TO.C,R15*%
X113315000Y-53752936D02*
X113315000Y-54207064D01*
X114785000Y-53752936D02*
X114785000Y-54207064D01*
%TO.C,R25*%
X108374999Y-47852936D02*
X108374999Y-48307064D01*
X109844999Y-47852936D02*
X109844999Y-48307064D01*
%TO.C,C21*%
X134861252Y-109825000D02*
X134338748Y-109825000D01*
X134861252Y-111295000D02*
X134338748Y-111295000D01*
%TO.C,R36*%
X93340436Y-102785000D02*
X93794564Y-102785000D01*
X93340436Y-104255000D02*
X93794564Y-104255000D01*
%TO.C,C20*%
X145238748Y-111685000D02*
X145761252Y-111685000D01*
X145238748Y-113155000D02*
X145761252Y-113155000D01*
%TO.C,R23*%
X120505000Y-78102936D02*
X120505000Y-78557064D01*
X121975000Y-78102936D02*
X121975000Y-78557064D01*
%TO.C,R33*%
X94742936Y-35905000D02*
X95197064Y-35905000D01*
X94742936Y-37375000D02*
X95197064Y-37375000D01*
%TO.C,R20*%
X112327064Y-106615000D02*
X111872936Y-106615000D01*
X112327064Y-108085000D02*
X111872936Y-108085000D01*
D13*
%TO.C,U4*%
X136680000Y-115897500D02*
X136930000Y-115897500D01*
X136680000Y-119597500D02*
X136680000Y-115897500D01*
X138080000Y-119597500D02*
X136680000Y-119597500D01*
X141980000Y-119597500D02*
X143380000Y-119597500D01*
X143380000Y-115897500D02*
X143130000Y-115897500D01*
X143380000Y-119597500D02*
X143380000Y-115897500D01*
D14*
X137830000Y-113147500D02*
G75*
G02*
X137630000Y-113147500I-100000J0D01*
G01*
X137630000Y-113147500D02*
G75*
G02*
X137830000Y-113147500I100000J0D01*
G01*
D12*
%TO.C,U1*%
X119650000Y-27750000D02*
X119650000Y-33950000D01*
X119650000Y-53600000D02*
X119650000Y-52600000D01*
X119650000Y-53600000D02*
X121150000Y-53600000D01*
X138050000Y-27750000D02*
X119650000Y-27750000D01*
X138050000Y-27750000D02*
X138050000Y-33950000D01*
X138050000Y-52600000D02*
X138050000Y-53600000D01*
X138050000Y-53600000D02*
X136550000Y-53600000D01*
X138550000Y-34625000D02*
X138050000Y-34625000D01*
X138050000Y-34125000D01*
X138550000Y-34625000D01*
G36*
X138550000Y-34625000D02*
G01*
X138050000Y-34625000D01*
X138050000Y-34125000D01*
X138550000Y-34625000D01*
G37*
%TO.C,C22*%
X134861252Y-112155000D02*
X134338748Y-112155000D01*
X134861252Y-113625000D02*
X134338748Y-113625000D01*
%TO.C,R40*%
X136657064Y-123135000D02*
X136202936Y-123135000D01*
X136657064Y-124605000D02*
X136202936Y-124605000D01*
%TO.C,R22*%
X106225000Y-47852936D02*
X106225000Y-48307064D01*
X107695000Y-47852936D02*
X107695000Y-48307064D01*
%TO.C,R18*%
X115685000Y-53802936D02*
X115685000Y-54257064D01*
X117155000Y-53802936D02*
X117155000Y-54257064D01*
%TO.C,R1*%
X149367064Y-35655000D02*
X148912936Y-35655000D01*
X149367064Y-37125000D02*
X148912936Y-37125000D01*
D13*
%TO.C,TF1*%
X98655000Y-27530000D02*
X113405000Y-27530000D01*
X98655000Y-30510000D02*
X98655000Y-27530000D01*
X98655000Y-40010000D02*
X98655000Y-33350000D01*
X111760000Y-42030000D02*
X108950000Y-42030000D01*
X113405000Y-30510000D02*
X113405000Y-27530000D01*
X113405000Y-40410000D02*
X113405000Y-33350000D01*
D14*
X108380000Y-43880000D02*
G75*
G02*
X108180000Y-43880000I-100000J0D01*
G01*
X108180000Y-43880000D02*
G75*
G02*
X108380000Y-43880000I100000J0D01*
G01*
D12*
%TO.C,C19*%
X145238748Y-109275000D02*
X145761252Y-109275000D01*
X145238748Y-110745000D02*
X145761252Y-110745000D01*
%TO.C,R26*%
X143652936Y-123135000D02*
X144107064Y-123135000D01*
X143652936Y-124605000D02*
X144107064Y-124605000D01*
%TO.C,C13*%
X103935000Y-48291252D02*
X103935000Y-47768748D01*
X105405000Y-48291252D02*
X105405000Y-47768748D01*
%TO.C,R37*%
X93340436Y-99835000D02*
X93794564Y-99835000D01*
X93340436Y-101305000D02*
X93794564Y-101305000D01*
%TO.C,R4*%
X149387064Y-43575000D02*
X148932936Y-43575000D01*
X149387064Y-45045000D02*
X148932936Y-45045000D01*
%TO.C,C12*%
X101665000Y-48291252D02*
X101665000Y-47768748D01*
X103135000Y-48291252D02*
X103135000Y-47768748D01*
%TO.C,R5*%
X112297064Y-44385000D02*
X111842936Y-44385000D01*
X112297064Y-45855000D02*
X111842936Y-45855000D01*
%TO.C,R41*%
X139927936Y-123135000D02*
X140382064Y-123135000D01*
X139927936Y-124605000D02*
X140382064Y-124605000D01*
%TD*%
M02*
