%TF.GenerationSoftware,KiCad,Pcbnew,9.0.6*%
%TF.CreationDate,2026-04-12T19:10:28+02:00*%
%TF.ProjectId,rayman_main,7261796d-616e-45f6-9d61-696e2e6b6963,rev?*%
%TF.SameCoordinates,Original*%
%TF.FileFunction,Other,Comment*%
%FSLAX46Y46*%
G04 Gerber Fmt 4.6, Leading zero omitted, Abs format (unit mm)*
G04 Created by KiCad (PCBNEW 9.0.6) date 2026-04-12 19:10:28*
%MOMM*%
%LPD*%
G01*
G04 APERTURE LIST*
%ADD10C,0.100000*%
%ADD11C,0.150000*%
G04 APERTURE END LIST*
D10*
X123992857Y-22094895D02*
X123992857Y-21294895D01*
X124450000Y-22094895D02*
X124107142Y-21637752D01*
X124450000Y-21294895D02*
X123992857Y-21752038D01*
X124792857Y-21675847D02*
X125059523Y-21675847D01*
X125173809Y-22094895D02*
X124792857Y-22094895D01*
X124792857Y-22094895D02*
X124792857Y-21294895D01*
X124792857Y-21294895D02*
X125173809Y-21294895D01*
X125516667Y-21675847D02*
X125783333Y-21675847D01*
X125897619Y-22094895D02*
X125516667Y-22094895D01*
X125516667Y-22094895D02*
X125516667Y-21294895D01*
X125516667Y-21294895D02*
X125897619Y-21294895D01*
X126240477Y-22094895D02*
X126240477Y-21294895D01*
X126240477Y-21294895D02*
X126545239Y-21294895D01*
X126545239Y-21294895D02*
X126621429Y-21332990D01*
X126621429Y-21332990D02*
X126659524Y-21371085D01*
X126659524Y-21371085D02*
X126697620Y-21447276D01*
X126697620Y-21447276D02*
X126697620Y-21561561D01*
X126697620Y-21561561D02*
X126659524Y-21637752D01*
X126659524Y-21637752D02*
X126621429Y-21675847D01*
X126621429Y-21675847D02*
X126545239Y-21713942D01*
X126545239Y-21713942D02*
X126240477Y-21713942D01*
X127040477Y-21790133D02*
X127650001Y-21790133D01*
X128183334Y-21294895D02*
X128335715Y-21294895D01*
X128335715Y-21294895D02*
X128411905Y-21332990D01*
X128411905Y-21332990D02*
X128488096Y-21409180D01*
X128488096Y-21409180D02*
X128526191Y-21561561D01*
X128526191Y-21561561D02*
X128526191Y-21828228D01*
X128526191Y-21828228D02*
X128488096Y-21980609D01*
X128488096Y-21980609D02*
X128411905Y-22056800D01*
X128411905Y-22056800D02*
X128335715Y-22094895D01*
X128335715Y-22094895D02*
X128183334Y-22094895D01*
X128183334Y-22094895D02*
X128107143Y-22056800D01*
X128107143Y-22056800D02*
X128030953Y-21980609D01*
X128030953Y-21980609D02*
X127992857Y-21828228D01*
X127992857Y-21828228D02*
X127992857Y-21561561D01*
X127992857Y-21561561D02*
X128030953Y-21409180D01*
X128030953Y-21409180D02*
X128107143Y-21332990D01*
X128107143Y-21332990D02*
X128183334Y-21294895D01*
X128869048Y-21294895D02*
X128869048Y-21942514D01*
X128869048Y-21942514D02*
X128907143Y-22018704D01*
X128907143Y-22018704D02*
X128945238Y-22056800D01*
X128945238Y-22056800D02*
X129021429Y-22094895D01*
X129021429Y-22094895D02*
X129173810Y-22094895D01*
X129173810Y-22094895D02*
X129250000Y-22056800D01*
X129250000Y-22056800D02*
X129288095Y-22018704D01*
X129288095Y-22018704D02*
X129326191Y-21942514D01*
X129326191Y-21942514D02*
X129326191Y-21294895D01*
X129592857Y-21294895D02*
X130050000Y-21294895D01*
X129821428Y-22094895D02*
X129821428Y-21294895D01*
X130850000Y-21294895D02*
X131383334Y-21294895D01*
X131383334Y-21294895D02*
X130850000Y-22094895D01*
X130850000Y-22094895D02*
X131383334Y-22094895D01*
X131840477Y-21294895D02*
X131992858Y-21294895D01*
X131992858Y-21294895D02*
X132069048Y-21332990D01*
X132069048Y-21332990D02*
X132145239Y-21409180D01*
X132145239Y-21409180D02*
X132183334Y-21561561D01*
X132183334Y-21561561D02*
X132183334Y-21828228D01*
X132183334Y-21828228D02*
X132145239Y-21980609D01*
X132145239Y-21980609D02*
X132069048Y-22056800D01*
X132069048Y-22056800D02*
X131992858Y-22094895D01*
X131992858Y-22094895D02*
X131840477Y-22094895D01*
X131840477Y-22094895D02*
X131764286Y-22056800D01*
X131764286Y-22056800D02*
X131688096Y-21980609D01*
X131688096Y-21980609D02*
X131650000Y-21828228D01*
X131650000Y-21828228D02*
X131650000Y-21561561D01*
X131650000Y-21561561D02*
X131688096Y-21409180D01*
X131688096Y-21409180D02*
X131764286Y-21332990D01*
X131764286Y-21332990D02*
X131840477Y-21294895D01*
X132526191Y-22094895D02*
X132526191Y-21294895D01*
X132526191Y-21294895D02*
X132983334Y-22094895D01*
X132983334Y-22094895D02*
X132983334Y-21294895D01*
X133364286Y-21675847D02*
X133630952Y-21675847D01*
X133745238Y-22094895D02*
X133364286Y-22094895D01*
X133364286Y-22094895D02*
X133364286Y-21294895D01*
X133364286Y-21294895D02*
X133745238Y-21294895D01*
X126690475Y-31346323D02*
X127071428Y-31346323D01*
X126614285Y-31574895D02*
X126880952Y-30774895D01*
X126880952Y-30774895D02*
X127147618Y-31574895D01*
X127414285Y-31041561D02*
X127414285Y-31574895D01*
X127414285Y-31117752D02*
X127452380Y-31079657D01*
X127452380Y-31079657D02*
X127528570Y-31041561D01*
X127528570Y-31041561D02*
X127642856Y-31041561D01*
X127642856Y-31041561D02*
X127719047Y-31079657D01*
X127719047Y-31079657D02*
X127757142Y-31155847D01*
X127757142Y-31155847D02*
X127757142Y-31574895D01*
X128023809Y-31041561D02*
X128328571Y-31041561D01*
X128138095Y-30774895D02*
X128138095Y-31460609D01*
X128138095Y-31460609D02*
X128176190Y-31536800D01*
X128176190Y-31536800D02*
X128252380Y-31574895D01*
X128252380Y-31574895D02*
X128328571Y-31574895D01*
X128900000Y-31536800D02*
X128823809Y-31574895D01*
X128823809Y-31574895D02*
X128671428Y-31574895D01*
X128671428Y-31574895D02*
X128595238Y-31536800D01*
X128595238Y-31536800D02*
X128557142Y-31460609D01*
X128557142Y-31460609D02*
X128557142Y-31155847D01*
X128557142Y-31155847D02*
X128595238Y-31079657D01*
X128595238Y-31079657D02*
X128671428Y-31041561D01*
X128671428Y-31041561D02*
X128823809Y-31041561D01*
X128823809Y-31041561D02*
X128900000Y-31079657D01*
X128900000Y-31079657D02*
X128938095Y-31155847D01*
X128938095Y-31155847D02*
X128938095Y-31232038D01*
X128938095Y-31232038D02*
X128557142Y-31308228D01*
X129280952Y-31041561D02*
X129280952Y-31574895D01*
X129280952Y-31117752D02*
X129319047Y-31079657D01*
X129319047Y-31079657D02*
X129395237Y-31041561D01*
X129395237Y-31041561D02*
X129509523Y-31041561D01*
X129509523Y-31041561D02*
X129585714Y-31079657D01*
X129585714Y-31079657D02*
X129623809Y-31155847D01*
X129623809Y-31155847D02*
X129623809Y-31574895D01*
X130004762Y-31041561D02*
X130004762Y-31574895D01*
X130004762Y-31117752D02*
X130042857Y-31079657D01*
X130042857Y-31079657D02*
X130119047Y-31041561D01*
X130119047Y-31041561D02*
X130233333Y-31041561D01*
X130233333Y-31041561D02*
X130309524Y-31079657D01*
X130309524Y-31079657D02*
X130347619Y-31155847D01*
X130347619Y-31155847D02*
X130347619Y-31574895D01*
X131071429Y-31574895D02*
X131071429Y-31155847D01*
X131071429Y-31155847D02*
X131033334Y-31079657D01*
X131033334Y-31079657D02*
X130957143Y-31041561D01*
X130957143Y-31041561D02*
X130804762Y-31041561D01*
X130804762Y-31041561D02*
X130728572Y-31079657D01*
X131071429Y-31536800D02*
X130995238Y-31574895D01*
X130995238Y-31574895D02*
X130804762Y-31574895D01*
X130804762Y-31574895D02*
X130728572Y-31536800D01*
X130728572Y-31536800D02*
X130690476Y-31460609D01*
X130690476Y-31460609D02*
X130690476Y-31384419D01*
X130690476Y-31384419D02*
X130728572Y-31308228D01*
X130728572Y-31308228D02*
X130804762Y-31270133D01*
X130804762Y-31270133D02*
X130995238Y-31270133D01*
X130995238Y-31270133D02*
X131071429Y-31232038D01*
D11*
%TO.C,REF\u002A\u002A*%
X153790000Y-114890000D02*
G75*
G02*
X149090000Y-114890000I-2350000J0D01*
G01*
X149090000Y-114890000D02*
G75*
G02*
X153790000Y-114890000I2350000J0D01*
G01*
X77790000Y-31890000D02*
G75*
G02*
X73090000Y-31890000I-2350000J0D01*
G01*
X73090000Y-31890000D02*
G75*
G02*
X77790000Y-31890000I2350000J0D01*
G01*
X154930000Y-31670000D02*
G75*
G02*
X150230000Y-31670000I-2350000J0D01*
G01*
X150230000Y-31670000D02*
G75*
G02*
X154930000Y-31670000I2350000J0D01*
G01*
X77790000Y-114890000D02*
G75*
G02*
X73090000Y-114890000I-2350000J0D01*
G01*
X73090000Y-114890000D02*
G75*
G02*
X77790000Y-114890000I2350000J0D01*
G01*
%TD*%
M02*
