%TF.GenerationSoftware,KiCad,Pcbnew,9.0.6*%
%TF.CreationDate,2026-04-12T19:10:29+02:00*%
%TF.ProjectId,rayman_main,7261796d-616e-45f6-9d61-696e2e6b6963,rev?*%
%TF.SameCoordinates,Original*%
%TF.FileFunction,AssemblyDrawing,Bot*%
%FSLAX46Y46*%
G04 Gerber Fmt 4.6, Leading zero omitted, Abs format (unit mm)*
G04 Created by KiCad (PCBNEW 9.0.6) date 2026-04-12 19:10:29*
%MOMM*%
%LPD*%
G01*
G04 APERTURE LIST*
%ADD10C,0.100000*%
%ADD11C,0.127000*%
%ADD12C,0.152400*%
%ADD13C,0.200000*%
G04 APERTURE END LIST*
D10*
X94119881Y-108664895D02*
X94577024Y-108664895D01*
X94348452Y-108664895D02*
X94348452Y-107864895D01*
X94348452Y-107864895D02*
X94424643Y-107979180D01*
X94424643Y-107979180D02*
X94500833Y-108055371D01*
X94500833Y-108055371D02*
X94577024Y-108093466D01*
X93624642Y-107864895D02*
X93548452Y-107864895D01*
X93548452Y-107864895D02*
X93472261Y-107902990D01*
X93472261Y-107902990D02*
X93434166Y-107941085D01*
X93434166Y-107941085D02*
X93396071Y-108017276D01*
X93396071Y-108017276D02*
X93357976Y-108169657D01*
X93357976Y-108169657D02*
X93357976Y-108360133D01*
X93357976Y-108360133D02*
X93396071Y-108512514D01*
X93396071Y-108512514D02*
X93434166Y-108588704D01*
X93434166Y-108588704D02*
X93472261Y-108626800D01*
X93472261Y-108626800D02*
X93548452Y-108664895D01*
X93548452Y-108664895D02*
X93624642Y-108664895D01*
X93624642Y-108664895D02*
X93700833Y-108626800D01*
X93700833Y-108626800D02*
X93738928Y-108588704D01*
X93738928Y-108588704D02*
X93777023Y-108512514D01*
X93777023Y-108512514D02*
X93815119Y-108360133D01*
X93815119Y-108360133D02*
X93815119Y-108169657D01*
X93815119Y-108169657D02*
X93777023Y-108017276D01*
X93777023Y-108017276D02*
X93738928Y-107941085D01*
X93738928Y-107941085D02*
X93700833Y-107902990D01*
X93700833Y-107902990D02*
X93624642Y-107864895D01*
X93015118Y-108664895D02*
X93015118Y-107864895D01*
X92557975Y-108664895D02*
X92900833Y-108207752D01*
X92557975Y-107864895D02*
X93015118Y-108322038D01*
X94081785Y-107014895D02*
X94348452Y-106633942D01*
X94538928Y-107014895D02*
X94538928Y-106214895D01*
X94538928Y-106214895D02*
X94234166Y-106214895D01*
X94234166Y-106214895D02*
X94157976Y-106252990D01*
X94157976Y-106252990D02*
X94119881Y-106291085D01*
X94119881Y-106291085D02*
X94081785Y-106367276D01*
X94081785Y-106367276D02*
X94081785Y-106481561D01*
X94081785Y-106481561D02*
X94119881Y-106557752D01*
X94119881Y-106557752D02*
X94157976Y-106595847D01*
X94157976Y-106595847D02*
X94234166Y-106633942D01*
X94234166Y-106633942D02*
X94538928Y-106633942D01*
X93396071Y-106481561D02*
X93396071Y-107014895D01*
X93586547Y-106176800D02*
X93777024Y-106748228D01*
X93777024Y-106748228D02*
X93281785Y-106748228D01*
X92634166Y-106481561D02*
X92634166Y-107014895D01*
X92824642Y-106176800D02*
X93015119Y-106748228D01*
X93015119Y-106748228D02*
X92519880Y-106748228D01*
X123966047Y-99249523D02*
X123966047Y-99630476D01*
X124194619Y-99173333D02*
X123394619Y-99440000D01*
X123394619Y-99440000D02*
X124194619Y-99706666D01*
X124118428Y-100430476D02*
X124156524Y-100392380D01*
X124156524Y-100392380D02*
X124194619Y-100278095D01*
X124194619Y-100278095D02*
X124194619Y-100201904D01*
X124194619Y-100201904D02*
X124156524Y-100087618D01*
X124156524Y-100087618D02*
X124080333Y-100011428D01*
X124080333Y-100011428D02*
X124004143Y-99973333D01*
X124004143Y-99973333D02*
X123851762Y-99935237D01*
X123851762Y-99935237D02*
X123737476Y-99935237D01*
X123737476Y-99935237D02*
X123585095Y-99973333D01*
X123585095Y-99973333D02*
X123508904Y-100011428D01*
X123508904Y-100011428D02*
X123432714Y-100087618D01*
X123432714Y-100087618D02*
X123394619Y-100201904D01*
X123394619Y-100201904D02*
X123394619Y-100278095D01*
X123394619Y-100278095D02*
X123432714Y-100392380D01*
X123432714Y-100392380D02*
X123470809Y-100430476D01*
X124194619Y-100773333D02*
X123394619Y-100773333D01*
X123394619Y-100773333D02*
X123966047Y-101039999D01*
X123966047Y-101039999D02*
X123394619Y-101306666D01*
X123394619Y-101306666D02*
X124194619Y-101306666D01*
X123470809Y-101649523D02*
X123432714Y-101687619D01*
X123432714Y-101687619D02*
X123394619Y-101763809D01*
X123394619Y-101763809D02*
X123394619Y-101954285D01*
X123394619Y-101954285D02*
X123432714Y-102030476D01*
X123432714Y-102030476D02*
X123470809Y-102068571D01*
X123470809Y-102068571D02*
X123547000Y-102106666D01*
X123547000Y-102106666D02*
X123623190Y-102106666D01*
X123623190Y-102106666D02*
X123737476Y-102068571D01*
X123737476Y-102068571D02*
X124194619Y-101611428D01*
X124194619Y-101611428D02*
X124194619Y-102106666D01*
X123394619Y-102601905D02*
X123394619Y-102678095D01*
X123394619Y-102678095D02*
X123432714Y-102754286D01*
X123432714Y-102754286D02*
X123470809Y-102792381D01*
X123470809Y-102792381D02*
X123547000Y-102830476D01*
X123547000Y-102830476D02*
X123699381Y-102868571D01*
X123699381Y-102868571D02*
X123889857Y-102868571D01*
X123889857Y-102868571D02*
X124042238Y-102830476D01*
X124042238Y-102830476D02*
X124118428Y-102792381D01*
X124118428Y-102792381D02*
X124156524Y-102754286D01*
X124156524Y-102754286D02*
X124194619Y-102678095D01*
X124194619Y-102678095D02*
X124194619Y-102601905D01*
X124194619Y-102601905D02*
X124156524Y-102525714D01*
X124156524Y-102525714D02*
X124118428Y-102487619D01*
X124118428Y-102487619D02*
X124042238Y-102449524D01*
X124042238Y-102449524D02*
X123889857Y-102411428D01*
X123889857Y-102411428D02*
X123699381Y-102411428D01*
X123699381Y-102411428D02*
X123547000Y-102449524D01*
X123547000Y-102449524D02*
X123470809Y-102487619D01*
X123470809Y-102487619D02*
X123432714Y-102525714D01*
X123432714Y-102525714D02*
X123394619Y-102601905D01*
X124194619Y-103630476D02*
X124194619Y-103173333D01*
X124194619Y-103401905D02*
X123394619Y-103401905D01*
X123394619Y-103401905D02*
X123508904Y-103325714D01*
X123508904Y-103325714D02*
X123585095Y-103249524D01*
X123585095Y-103249524D02*
X123623190Y-103173333D01*
X123470809Y-103935238D02*
X123432714Y-103973334D01*
X123432714Y-103973334D02*
X123394619Y-104049524D01*
X123394619Y-104049524D02*
X123394619Y-104240000D01*
X123394619Y-104240000D02*
X123432714Y-104316191D01*
X123432714Y-104316191D02*
X123470809Y-104354286D01*
X123470809Y-104354286D02*
X123547000Y-104392381D01*
X123547000Y-104392381D02*
X123623190Y-104392381D01*
X123623190Y-104392381D02*
X123737476Y-104354286D01*
X123737476Y-104354286D02*
X124194619Y-103897143D01*
X124194619Y-103897143D02*
X124194619Y-104392381D01*
X123889857Y-104735239D02*
X123889857Y-105344763D01*
X124194619Y-105763810D02*
X124194619Y-105916191D01*
X124194619Y-105916191D02*
X124156524Y-105992381D01*
X124156524Y-105992381D02*
X124118428Y-106030477D01*
X124118428Y-106030477D02*
X124004143Y-106106667D01*
X124004143Y-106106667D02*
X123851762Y-106144762D01*
X123851762Y-106144762D02*
X123547000Y-106144762D01*
X123547000Y-106144762D02*
X123470809Y-106106667D01*
X123470809Y-106106667D02*
X123432714Y-106068572D01*
X123432714Y-106068572D02*
X123394619Y-105992381D01*
X123394619Y-105992381D02*
X123394619Y-105840000D01*
X123394619Y-105840000D02*
X123432714Y-105763810D01*
X123432714Y-105763810D02*
X123470809Y-105725715D01*
X123470809Y-105725715D02*
X123547000Y-105687619D01*
X123547000Y-105687619D02*
X123737476Y-105687619D01*
X123737476Y-105687619D02*
X123813666Y-105725715D01*
X123813666Y-105725715D02*
X123851762Y-105763810D01*
X123851762Y-105763810D02*
X123889857Y-105840000D01*
X123889857Y-105840000D02*
X123889857Y-105992381D01*
X123889857Y-105992381D02*
X123851762Y-106068572D01*
X123851762Y-106068572D02*
X123813666Y-106106667D01*
X123813666Y-106106667D02*
X123737476Y-106144762D01*
X123394619Y-106640001D02*
X123394619Y-106716191D01*
X123394619Y-106716191D02*
X123432714Y-106792382D01*
X123432714Y-106792382D02*
X123470809Y-106830477D01*
X123470809Y-106830477D02*
X123547000Y-106868572D01*
X123547000Y-106868572D02*
X123699381Y-106906667D01*
X123699381Y-106906667D02*
X123889857Y-106906667D01*
X123889857Y-106906667D02*
X124042238Y-106868572D01*
X124042238Y-106868572D02*
X124118428Y-106830477D01*
X124118428Y-106830477D02*
X124156524Y-106792382D01*
X124156524Y-106792382D02*
X124194619Y-106716191D01*
X124194619Y-106716191D02*
X124194619Y-106640001D01*
X124194619Y-106640001D02*
X124156524Y-106563810D01*
X124156524Y-106563810D02*
X124118428Y-106525715D01*
X124118428Y-106525715D02*
X124042238Y-106487620D01*
X124042238Y-106487620D02*
X123889857Y-106449524D01*
X123889857Y-106449524D02*
X123699381Y-106449524D01*
X123699381Y-106449524D02*
X123547000Y-106487620D01*
X123547000Y-106487620D02*
X123470809Y-106525715D01*
X123470809Y-106525715D02*
X123432714Y-106563810D01*
X123432714Y-106563810D02*
X123394619Y-106640001D01*
X123394619Y-107401906D02*
X123394619Y-107478096D01*
X123394619Y-107478096D02*
X123432714Y-107554287D01*
X123432714Y-107554287D02*
X123470809Y-107592382D01*
X123470809Y-107592382D02*
X123547000Y-107630477D01*
X123547000Y-107630477D02*
X123699381Y-107668572D01*
X123699381Y-107668572D02*
X123889857Y-107668572D01*
X123889857Y-107668572D02*
X124042238Y-107630477D01*
X124042238Y-107630477D02*
X124118428Y-107592382D01*
X124118428Y-107592382D02*
X124156524Y-107554287D01*
X124156524Y-107554287D02*
X124194619Y-107478096D01*
X124194619Y-107478096D02*
X124194619Y-107401906D01*
X124194619Y-107401906D02*
X124156524Y-107325715D01*
X124156524Y-107325715D02*
X124118428Y-107287620D01*
X124118428Y-107287620D02*
X124042238Y-107249525D01*
X124042238Y-107249525D02*
X123889857Y-107211429D01*
X123889857Y-107211429D02*
X123699381Y-107211429D01*
X123699381Y-107211429D02*
X123547000Y-107249525D01*
X123547000Y-107249525D02*
X123470809Y-107287620D01*
X123470809Y-107287620D02*
X123432714Y-107325715D01*
X123432714Y-107325715D02*
X123394619Y-107401906D01*
X123889857Y-108011430D02*
X123889857Y-108620954D01*
X123470809Y-108963810D02*
X123432714Y-109001906D01*
X123432714Y-109001906D02*
X123394619Y-109078096D01*
X123394619Y-109078096D02*
X123394619Y-109268572D01*
X123394619Y-109268572D02*
X123432714Y-109344763D01*
X123432714Y-109344763D02*
X123470809Y-109382858D01*
X123470809Y-109382858D02*
X123547000Y-109420953D01*
X123547000Y-109420953D02*
X123623190Y-109420953D01*
X123623190Y-109420953D02*
X123737476Y-109382858D01*
X123737476Y-109382858D02*
X124194619Y-108925715D01*
X124194619Y-108925715D02*
X124194619Y-109420953D01*
X124194619Y-109763811D02*
X123394619Y-109763811D01*
X123394619Y-109763811D02*
X123394619Y-110068573D01*
X123394619Y-110068573D02*
X123432714Y-110144763D01*
X123432714Y-110144763D02*
X123470809Y-110182858D01*
X123470809Y-110182858D02*
X123547000Y-110220954D01*
X123547000Y-110220954D02*
X123661285Y-110220954D01*
X123661285Y-110220954D02*
X123737476Y-110182858D01*
X123737476Y-110182858D02*
X123775571Y-110144763D01*
X123775571Y-110144763D02*
X123813666Y-110068573D01*
X123813666Y-110068573D02*
X123813666Y-109763811D01*
X123889857Y-110563811D02*
X123889857Y-111173335D01*
X123394619Y-111440001D02*
X123394619Y-111897144D01*
X124194619Y-111668572D02*
X123394619Y-111668572D01*
X123394619Y-112316192D02*
X123394619Y-112392382D01*
X123394619Y-112392382D02*
X123432714Y-112468573D01*
X123432714Y-112468573D02*
X123470809Y-112506668D01*
X123470809Y-112506668D02*
X123547000Y-112544763D01*
X123547000Y-112544763D02*
X123699381Y-112582858D01*
X123699381Y-112582858D02*
X123889857Y-112582858D01*
X123889857Y-112582858D02*
X124042238Y-112544763D01*
X124042238Y-112544763D02*
X124118428Y-112506668D01*
X124118428Y-112506668D02*
X124156524Y-112468573D01*
X124156524Y-112468573D02*
X124194619Y-112392382D01*
X124194619Y-112392382D02*
X124194619Y-112316192D01*
X124194619Y-112316192D02*
X124156524Y-112240001D01*
X124156524Y-112240001D02*
X124118428Y-112201906D01*
X124118428Y-112201906D02*
X124042238Y-112163811D01*
X124042238Y-112163811D02*
X123889857Y-112125715D01*
X123889857Y-112125715D02*
X123699381Y-112125715D01*
X123699381Y-112125715D02*
X123547000Y-112163811D01*
X123547000Y-112163811D02*
X123470809Y-112201906D01*
X123470809Y-112201906D02*
X123432714Y-112240001D01*
X123432714Y-112240001D02*
X123394619Y-112316192D01*
X123394619Y-113078097D02*
X123394619Y-113154287D01*
X123394619Y-113154287D02*
X123432714Y-113230478D01*
X123432714Y-113230478D02*
X123470809Y-113268573D01*
X123470809Y-113268573D02*
X123547000Y-113306668D01*
X123547000Y-113306668D02*
X123699381Y-113344763D01*
X123699381Y-113344763D02*
X123889857Y-113344763D01*
X123889857Y-113344763D02*
X124042238Y-113306668D01*
X124042238Y-113306668D02*
X124118428Y-113268573D01*
X124118428Y-113268573D02*
X124156524Y-113230478D01*
X124156524Y-113230478D02*
X124194619Y-113154287D01*
X124194619Y-113154287D02*
X124194619Y-113078097D01*
X124194619Y-113078097D02*
X124156524Y-113001906D01*
X124156524Y-113001906D02*
X124118428Y-112963811D01*
X124118428Y-112963811D02*
X124042238Y-112925716D01*
X124042238Y-112925716D02*
X123889857Y-112887620D01*
X123889857Y-112887620D02*
X123699381Y-112887620D01*
X123699381Y-112887620D02*
X123547000Y-112925716D01*
X123547000Y-112925716D02*
X123470809Y-112963811D01*
X123470809Y-112963811D02*
X123432714Y-113001906D01*
X123432714Y-113001906D02*
X123394619Y-113078097D01*
X124194619Y-114106668D02*
X124194619Y-113649525D01*
X124194619Y-113878097D02*
X123394619Y-113878097D01*
X123394619Y-113878097D02*
X123508904Y-113801906D01*
X123508904Y-113801906D02*
X123585095Y-113725716D01*
X123585095Y-113725716D02*
X123623190Y-113649525D01*
X121882186Y-113061454D02*
X121082186Y-113061454D01*
X121082186Y-113061454D02*
X121082186Y-113366216D01*
X121082186Y-113366216D02*
X121120281Y-113442406D01*
X121120281Y-113442406D02*
X121158376Y-113480501D01*
X121158376Y-113480501D02*
X121234567Y-113518597D01*
X121234567Y-113518597D02*
X121348852Y-113518597D01*
X121348852Y-113518597D02*
X121425043Y-113480501D01*
X121425043Y-113480501D02*
X121463138Y-113442406D01*
X121463138Y-113442406D02*
X121501233Y-113366216D01*
X121501233Y-113366216D02*
X121501233Y-113061454D01*
X121463138Y-113861454D02*
X121463138Y-114128120D01*
X121882186Y-114242406D02*
X121882186Y-113861454D01*
X121882186Y-113861454D02*
X121082186Y-113861454D01*
X121082186Y-113861454D02*
X121082186Y-114242406D01*
X121844091Y-114547168D02*
X121882186Y-114661454D01*
X121882186Y-114661454D02*
X121882186Y-114851930D01*
X121882186Y-114851930D02*
X121844091Y-114928121D01*
X121844091Y-114928121D02*
X121805995Y-114966216D01*
X121805995Y-114966216D02*
X121729805Y-115004311D01*
X121729805Y-115004311D02*
X121653614Y-115004311D01*
X121653614Y-115004311D02*
X121577424Y-114966216D01*
X121577424Y-114966216D02*
X121539329Y-114928121D01*
X121539329Y-114928121D02*
X121501233Y-114851930D01*
X121501233Y-114851930D02*
X121463138Y-114699549D01*
X121463138Y-114699549D02*
X121425043Y-114623359D01*
X121425043Y-114623359D02*
X121386948Y-114585264D01*
X121386948Y-114585264D02*
X121310757Y-114547168D01*
X121310757Y-114547168D02*
X121234567Y-114547168D01*
X121234567Y-114547168D02*
X121158376Y-114585264D01*
X121158376Y-114585264D02*
X121120281Y-114623359D01*
X121120281Y-114623359D02*
X121082186Y-114699549D01*
X121082186Y-114699549D02*
X121082186Y-114890026D01*
X121082186Y-114890026D02*
X121120281Y-115004311D01*
X121882186Y-115347169D02*
X121082186Y-115347169D01*
X121082186Y-115347169D02*
X121082186Y-115537645D01*
X121082186Y-115537645D02*
X121120281Y-115651931D01*
X121120281Y-115651931D02*
X121196471Y-115728121D01*
X121196471Y-115728121D02*
X121272662Y-115766216D01*
X121272662Y-115766216D02*
X121425043Y-115804312D01*
X121425043Y-115804312D02*
X121539329Y-115804312D01*
X121539329Y-115804312D02*
X121691710Y-115766216D01*
X121691710Y-115766216D02*
X121767900Y-115728121D01*
X121767900Y-115728121D02*
X121844091Y-115651931D01*
X121844091Y-115651931D02*
X121882186Y-115537645D01*
X121882186Y-115537645D02*
X121882186Y-115347169D01*
X121882186Y-116566216D02*
X121882186Y-116109073D01*
X121882186Y-116337645D02*
X121082186Y-116337645D01*
X121082186Y-116337645D02*
X121196471Y-116261454D01*
X121196471Y-116261454D02*
X121272662Y-116185264D01*
X121272662Y-116185264D02*
X121310757Y-116109073D01*
X121805995Y-117366217D02*
X121844091Y-117328121D01*
X121844091Y-117328121D02*
X121882186Y-117213836D01*
X121882186Y-117213836D02*
X121882186Y-117137645D01*
X121882186Y-117137645D02*
X121844091Y-117023359D01*
X121844091Y-117023359D02*
X121767900Y-116947169D01*
X121767900Y-116947169D02*
X121691710Y-116909074D01*
X121691710Y-116909074D02*
X121539329Y-116870978D01*
X121539329Y-116870978D02*
X121425043Y-116870978D01*
X121425043Y-116870978D02*
X121272662Y-116909074D01*
X121272662Y-116909074D02*
X121196471Y-116947169D01*
X121196471Y-116947169D02*
X121120281Y-117023359D01*
X121120281Y-117023359D02*
X121082186Y-117137645D01*
X121082186Y-117137645D02*
X121082186Y-117213836D01*
X121082186Y-117213836D02*
X121120281Y-117328121D01*
X121120281Y-117328121D02*
X121158376Y-117366217D01*
X121653614Y-117670978D02*
X121653614Y-118051931D01*
X121882186Y-117594788D02*
X121082186Y-117861455D01*
X121082186Y-117861455D02*
X121882186Y-118128121D01*
X121882186Y-118394788D02*
X121082186Y-118394788D01*
X121082186Y-118394788D02*
X121882186Y-118851931D01*
X121882186Y-118851931D02*
X121082186Y-118851931D01*
X121155847Y-82064285D02*
X121193942Y-82178571D01*
X121193942Y-82178571D02*
X121232038Y-82216666D01*
X121232038Y-82216666D02*
X121308228Y-82254762D01*
X121308228Y-82254762D02*
X121422514Y-82254762D01*
X121422514Y-82254762D02*
X121498704Y-82216666D01*
X121498704Y-82216666D02*
X121536800Y-82178571D01*
X121536800Y-82178571D02*
X121574895Y-82102381D01*
X121574895Y-82102381D02*
X121574895Y-81797619D01*
X121574895Y-81797619D02*
X120774895Y-81797619D01*
X120774895Y-81797619D02*
X120774895Y-82064285D01*
X120774895Y-82064285D02*
X120812990Y-82140476D01*
X120812990Y-82140476D02*
X120851085Y-82178571D01*
X120851085Y-82178571D02*
X120927276Y-82216666D01*
X120927276Y-82216666D02*
X121003466Y-82216666D01*
X121003466Y-82216666D02*
X121079657Y-82178571D01*
X121079657Y-82178571D02*
X121117752Y-82140476D01*
X121117752Y-82140476D02*
X121155847Y-82064285D01*
X121155847Y-82064285D02*
X121155847Y-81797619D01*
X121498704Y-83054762D02*
X121536800Y-83016666D01*
X121536800Y-83016666D02*
X121574895Y-82902381D01*
X121574895Y-82902381D02*
X121574895Y-82826190D01*
X121574895Y-82826190D02*
X121536800Y-82711904D01*
X121536800Y-82711904D02*
X121460609Y-82635714D01*
X121460609Y-82635714D02*
X121384419Y-82597619D01*
X121384419Y-82597619D02*
X121232038Y-82559523D01*
X121232038Y-82559523D02*
X121117752Y-82559523D01*
X121117752Y-82559523D02*
X120965371Y-82597619D01*
X120965371Y-82597619D02*
X120889180Y-82635714D01*
X120889180Y-82635714D02*
X120812990Y-82711904D01*
X120812990Y-82711904D02*
X120774895Y-82826190D01*
X120774895Y-82826190D02*
X120774895Y-82902381D01*
X120774895Y-82902381D02*
X120812990Y-83016666D01*
X120812990Y-83016666D02*
X120851085Y-83054762D01*
X121117752Y-83511904D02*
X121079657Y-83435714D01*
X121079657Y-83435714D02*
X121041561Y-83397619D01*
X121041561Y-83397619D02*
X120965371Y-83359523D01*
X120965371Y-83359523D02*
X120927276Y-83359523D01*
X120927276Y-83359523D02*
X120851085Y-83397619D01*
X120851085Y-83397619D02*
X120812990Y-83435714D01*
X120812990Y-83435714D02*
X120774895Y-83511904D01*
X120774895Y-83511904D02*
X120774895Y-83664285D01*
X120774895Y-83664285D02*
X120812990Y-83740476D01*
X120812990Y-83740476D02*
X120851085Y-83778571D01*
X120851085Y-83778571D02*
X120927276Y-83816666D01*
X120927276Y-83816666D02*
X120965371Y-83816666D01*
X120965371Y-83816666D02*
X121041561Y-83778571D01*
X121041561Y-83778571D02*
X121079657Y-83740476D01*
X121079657Y-83740476D02*
X121117752Y-83664285D01*
X121117752Y-83664285D02*
X121117752Y-83511904D01*
X121117752Y-83511904D02*
X121155847Y-83435714D01*
X121155847Y-83435714D02*
X121193942Y-83397619D01*
X121193942Y-83397619D02*
X121270133Y-83359523D01*
X121270133Y-83359523D02*
X121422514Y-83359523D01*
X121422514Y-83359523D02*
X121498704Y-83397619D01*
X121498704Y-83397619D02*
X121536800Y-83435714D01*
X121536800Y-83435714D02*
X121574895Y-83511904D01*
X121574895Y-83511904D02*
X121574895Y-83664285D01*
X121574895Y-83664285D02*
X121536800Y-83740476D01*
X121536800Y-83740476D02*
X121498704Y-83778571D01*
X121498704Y-83778571D02*
X121422514Y-83816666D01*
X121422514Y-83816666D02*
X121270133Y-83816666D01*
X121270133Y-83816666D02*
X121193942Y-83778571D01*
X121193942Y-83778571D02*
X121155847Y-83740476D01*
X121155847Y-83740476D02*
X121117752Y-83664285D01*
X121574895Y-84578571D02*
X121574895Y-84121428D01*
X121574895Y-84350000D02*
X120774895Y-84350000D01*
X120774895Y-84350000D02*
X120889180Y-84273809D01*
X120889180Y-84273809D02*
X120965371Y-84197619D01*
X120965371Y-84197619D02*
X121003466Y-84121428D01*
X120774895Y-84845238D02*
X120774895Y-85378572D01*
X120774895Y-85378572D02*
X121574895Y-85035714D01*
X118886190Y-83991085D02*
X118962380Y-83952990D01*
X118962380Y-83952990D02*
X119038571Y-83876800D01*
X119038571Y-83876800D02*
X119152857Y-83762514D01*
X119152857Y-83762514D02*
X119229047Y-83724419D01*
X119229047Y-83724419D02*
X119305238Y-83724419D01*
X119267142Y-83914895D02*
X119343333Y-83876800D01*
X119343333Y-83876800D02*
X119419523Y-83800609D01*
X119419523Y-83800609D02*
X119457619Y-83648228D01*
X119457619Y-83648228D02*
X119457619Y-83381561D01*
X119457619Y-83381561D02*
X119419523Y-83229180D01*
X119419523Y-83229180D02*
X119343333Y-83152990D01*
X119343333Y-83152990D02*
X119267142Y-83114895D01*
X119267142Y-83114895D02*
X119114761Y-83114895D01*
X119114761Y-83114895D02*
X119038571Y-83152990D01*
X119038571Y-83152990D02*
X118962380Y-83229180D01*
X118962380Y-83229180D02*
X118924285Y-83381561D01*
X118924285Y-83381561D02*
X118924285Y-83648228D01*
X118924285Y-83648228D02*
X118962380Y-83800609D01*
X118962380Y-83800609D02*
X119038571Y-83876800D01*
X119038571Y-83876800D02*
X119114761Y-83914895D01*
X119114761Y-83914895D02*
X119267142Y-83914895D01*
X118162381Y-83914895D02*
X118619524Y-83914895D01*
X118390952Y-83914895D02*
X118390952Y-83114895D01*
X118390952Y-83114895D02*
X118467143Y-83229180D01*
X118467143Y-83229180D02*
X118543333Y-83305371D01*
X118543333Y-83305371D02*
X118619524Y-83343466D01*
X114600476Y-64661085D02*
X114562380Y-64622990D01*
X114562380Y-64622990D02*
X114486190Y-64584895D01*
X114486190Y-64584895D02*
X114295714Y-64584895D01*
X114295714Y-64584895D02*
X114219523Y-64622990D01*
X114219523Y-64622990D02*
X114181428Y-64661085D01*
X114181428Y-64661085D02*
X114143333Y-64737276D01*
X114143333Y-64737276D02*
X114143333Y-64813466D01*
X114143333Y-64813466D02*
X114181428Y-64927752D01*
X114181428Y-64927752D02*
X114638571Y-65384895D01*
X114638571Y-65384895D02*
X114143333Y-65384895D01*
X113838571Y-64661085D02*
X113800475Y-64622990D01*
X113800475Y-64622990D02*
X113724285Y-64584895D01*
X113724285Y-64584895D02*
X113533809Y-64584895D01*
X113533809Y-64584895D02*
X113457618Y-64622990D01*
X113457618Y-64622990D02*
X113419523Y-64661085D01*
X113419523Y-64661085D02*
X113381428Y-64737276D01*
X113381428Y-64737276D02*
X113381428Y-64813466D01*
X113381428Y-64813466D02*
X113419523Y-64927752D01*
X113419523Y-64927752D02*
X113876666Y-65384895D01*
X113876666Y-65384895D02*
X113381428Y-65384895D01*
X112886189Y-64584895D02*
X112809999Y-64584895D01*
X112809999Y-64584895D02*
X112733808Y-64622990D01*
X112733808Y-64622990D02*
X112695713Y-64661085D01*
X112695713Y-64661085D02*
X112657618Y-64737276D01*
X112657618Y-64737276D02*
X112619523Y-64889657D01*
X112619523Y-64889657D02*
X112619523Y-65080133D01*
X112619523Y-65080133D02*
X112657618Y-65232514D01*
X112657618Y-65232514D02*
X112695713Y-65308704D01*
X112695713Y-65308704D02*
X112733808Y-65346800D01*
X112733808Y-65346800D02*
X112809999Y-65384895D01*
X112809999Y-65384895D02*
X112886189Y-65384895D01*
X112886189Y-65384895D02*
X112962380Y-65346800D01*
X112962380Y-65346800D02*
X113000475Y-65308704D01*
X113000475Y-65308704D02*
X113038570Y-65232514D01*
X113038570Y-65232514D02*
X113076666Y-65080133D01*
X113076666Y-65080133D02*
X113076666Y-64889657D01*
X113076666Y-64889657D02*
X113038570Y-64737276D01*
X113038570Y-64737276D02*
X113000475Y-64661085D01*
X113000475Y-64661085D02*
X112962380Y-64622990D01*
X112962380Y-64622990D02*
X112886189Y-64584895D01*
X111819522Y-65384895D02*
X112086189Y-65003942D01*
X112276665Y-65384895D02*
X112276665Y-64584895D01*
X112276665Y-64584895D02*
X111971903Y-64584895D01*
X111971903Y-64584895D02*
X111895713Y-64622990D01*
X111895713Y-64622990D02*
X111857618Y-64661085D01*
X111857618Y-64661085D02*
X111819522Y-64737276D01*
X111819522Y-64737276D02*
X111819522Y-64851561D01*
X111819522Y-64851561D02*
X111857618Y-64927752D01*
X111857618Y-64927752D02*
X111895713Y-64965847D01*
X111895713Y-64965847D02*
X111971903Y-65003942D01*
X111971903Y-65003942D02*
X112276665Y-65003942D01*
X113724285Y-67034895D02*
X113990952Y-66653942D01*
X114181428Y-67034895D02*
X114181428Y-66234895D01*
X114181428Y-66234895D02*
X113876666Y-66234895D01*
X113876666Y-66234895D02*
X113800476Y-66272990D01*
X113800476Y-66272990D02*
X113762381Y-66311085D01*
X113762381Y-66311085D02*
X113724285Y-66387276D01*
X113724285Y-66387276D02*
X113724285Y-66501561D01*
X113724285Y-66501561D02*
X113762381Y-66577752D01*
X113762381Y-66577752D02*
X113800476Y-66615847D01*
X113800476Y-66615847D02*
X113876666Y-66653942D01*
X113876666Y-66653942D02*
X114181428Y-66653942D01*
X113457619Y-66234895D02*
X112962381Y-66234895D01*
X112962381Y-66234895D02*
X113229047Y-66539657D01*
X113229047Y-66539657D02*
X113114762Y-66539657D01*
X113114762Y-66539657D02*
X113038571Y-66577752D01*
X113038571Y-66577752D02*
X113000476Y-66615847D01*
X113000476Y-66615847D02*
X112962381Y-66692038D01*
X112962381Y-66692038D02*
X112962381Y-66882514D01*
X112962381Y-66882514D02*
X113000476Y-66958704D01*
X113000476Y-66958704D02*
X113038571Y-66996800D01*
X113038571Y-66996800D02*
X113114762Y-67034895D01*
X113114762Y-67034895D02*
X113343333Y-67034895D01*
X113343333Y-67034895D02*
X113419524Y-66996800D01*
X113419524Y-66996800D02*
X113457619Y-66958704D01*
X112276666Y-66501561D02*
X112276666Y-67034895D01*
X112467142Y-66196800D02*
X112657619Y-66768228D01*
X112657619Y-66768228D02*
X112162380Y-66768228D01*
X108111561Y-97200476D02*
X108644895Y-97200476D01*
X107806800Y-97010000D02*
X108378228Y-96819523D01*
X108378228Y-96819523D02*
X108378228Y-97314762D01*
X107844895Y-97543333D02*
X107844895Y-98076667D01*
X107844895Y-98076667D02*
X108644895Y-97733809D01*
X107844895Y-98533810D02*
X107844895Y-98610000D01*
X107844895Y-98610000D02*
X107882990Y-98686191D01*
X107882990Y-98686191D02*
X107921085Y-98724286D01*
X107921085Y-98724286D02*
X107997276Y-98762381D01*
X107997276Y-98762381D02*
X108149657Y-98800476D01*
X108149657Y-98800476D02*
X108340133Y-98800476D01*
X108340133Y-98800476D02*
X108492514Y-98762381D01*
X108492514Y-98762381D02*
X108568704Y-98724286D01*
X108568704Y-98724286D02*
X108606800Y-98686191D01*
X108606800Y-98686191D02*
X108644895Y-98610000D01*
X108644895Y-98610000D02*
X108644895Y-98533810D01*
X108644895Y-98533810D02*
X108606800Y-98457619D01*
X108606800Y-98457619D02*
X108568704Y-98419524D01*
X108568704Y-98419524D02*
X108492514Y-98381429D01*
X108492514Y-98381429D02*
X108340133Y-98343333D01*
X108340133Y-98343333D02*
X108149657Y-98343333D01*
X108149657Y-98343333D02*
X107997276Y-98381429D01*
X107997276Y-98381429D02*
X107921085Y-98419524D01*
X107921085Y-98419524D02*
X107882990Y-98457619D01*
X107882990Y-98457619D02*
X107844895Y-98533810D01*
X108644895Y-99600477D02*
X108263942Y-99333810D01*
X108644895Y-99143334D02*
X107844895Y-99143334D01*
X107844895Y-99143334D02*
X107844895Y-99448096D01*
X107844895Y-99448096D02*
X107882990Y-99524286D01*
X107882990Y-99524286D02*
X107921085Y-99562381D01*
X107921085Y-99562381D02*
X107997276Y-99600477D01*
X107997276Y-99600477D02*
X108111561Y-99600477D01*
X108111561Y-99600477D02*
X108187752Y-99562381D01*
X108187752Y-99562381D02*
X108225847Y-99524286D01*
X108225847Y-99524286D02*
X108263942Y-99448096D01*
X108263942Y-99448096D02*
X108263942Y-99143334D01*
X106994895Y-97695714D02*
X106613942Y-97429047D01*
X106994895Y-97238571D02*
X106194895Y-97238571D01*
X106194895Y-97238571D02*
X106194895Y-97543333D01*
X106194895Y-97543333D02*
X106232990Y-97619523D01*
X106232990Y-97619523D02*
X106271085Y-97657618D01*
X106271085Y-97657618D02*
X106347276Y-97695714D01*
X106347276Y-97695714D02*
X106461561Y-97695714D01*
X106461561Y-97695714D02*
X106537752Y-97657618D01*
X106537752Y-97657618D02*
X106575847Y-97619523D01*
X106575847Y-97619523D02*
X106613942Y-97543333D01*
X106613942Y-97543333D02*
X106613942Y-97238571D01*
X106194895Y-97962380D02*
X106194895Y-98457618D01*
X106194895Y-98457618D02*
X106499657Y-98190952D01*
X106499657Y-98190952D02*
X106499657Y-98305237D01*
X106499657Y-98305237D02*
X106537752Y-98381428D01*
X106537752Y-98381428D02*
X106575847Y-98419523D01*
X106575847Y-98419523D02*
X106652038Y-98457618D01*
X106652038Y-98457618D02*
X106842514Y-98457618D01*
X106842514Y-98457618D02*
X106918704Y-98419523D01*
X106918704Y-98419523D02*
X106956800Y-98381428D01*
X106956800Y-98381428D02*
X106994895Y-98305237D01*
X106994895Y-98305237D02*
X106994895Y-98076666D01*
X106994895Y-98076666D02*
X106956800Y-98000475D01*
X106956800Y-98000475D02*
X106918704Y-97962380D01*
X106271085Y-98762380D02*
X106232990Y-98800476D01*
X106232990Y-98800476D02*
X106194895Y-98876666D01*
X106194895Y-98876666D02*
X106194895Y-99067142D01*
X106194895Y-99067142D02*
X106232990Y-99143333D01*
X106232990Y-99143333D02*
X106271085Y-99181428D01*
X106271085Y-99181428D02*
X106347276Y-99219523D01*
X106347276Y-99219523D02*
X106423466Y-99219523D01*
X106423466Y-99219523D02*
X106537752Y-99181428D01*
X106537752Y-99181428D02*
X106994895Y-98724285D01*
X106994895Y-98724285D02*
X106994895Y-99219523D01*
X143134895Y-35953809D02*
X143134895Y-35496666D01*
X143134895Y-35725238D02*
X142334895Y-35725238D01*
X142334895Y-35725238D02*
X142449180Y-35649047D01*
X142449180Y-35649047D02*
X142525371Y-35572857D01*
X142525371Y-35572857D02*
X142563466Y-35496666D01*
X142334895Y-36449048D02*
X142334895Y-36525238D01*
X142334895Y-36525238D02*
X142372990Y-36601429D01*
X142372990Y-36601429D02*
X142411085Y-36639524D01*
X142411085Y-36639524D02*
X142487276Y-36677619D01*
X142487276Y-36677619D02*
X142639657Y-36715714D01*
X142639657Y-36715714D02*
X142830133Y-36715714D01*
X142830133Y-36715714D02*
X142982514Y-36677619D01*
X142982514Y-36677619D02*
X143058704Y-36639524D01*
X143058704Y-36639524D02*
X143096800Y-36601429D01*
X143096800Y-36601429D02*
X143134895Y-36525238D01*
X143134895Y-36525238D02*
X143134895Y-36449048D01*
X143134895Y-36449048D02*
X143096800Y-36372857D01*
X143096800Y-36372857D02*
X143058704Y-36334762D01*
X143058704Y-36334762D02*
X142982514Y-36296667D01*
X142982514Y-36296667D02*
X142830133Y-36258571D01*
X142830133Y-36258571D02*
X142639657Y-36258571D01*
X142639657Y-36258571D02*
X142487276Y-36296667D01*
X142487276Y-36296667D02*
X142411085Y-36334762D01*
X142411085Y-36334762D02*
X142372990Y-36372857D01*
X142372990Y-36372857D02*
X142334895Y-36449048D01*
X143134895Y-37058572D02*
X142334895Y-37058572D01*
X142830133Y-37134762D02*
X143134895Y-37363334D01*
X142601561Y-37363334D02*
X142906323Y-37058572D01*
X141484895Y-36296667D02*
X141103942Y-36030000D01*
X141484895Y-35839524D02*
X140684895Y-35839524D01*
X140684895Y-35839524D02*
X140684895Y-36144286D01*
X140684895Y-36144286D02*
X140722990Y-36220476D01*
X140722990Y-36220476D02*
X140761085Y-36258571D01*
X140761085Y-36258571D02*
X140837276Y-36296667D01*
X140837276Y-36296667D02*
X140951561Y-36296667D01*
X140951561Y-36296667D02*
X141027752Y-36258571D01*
X141027752Y-36258571D02*
X141065847Y-36220476D01*
X141065847Y-36220476D02*
X141103942Y-36144286D01*
X141103942Y-36144286D02*
X141103942Y-35839524D01*
X140684895Y-36563333D02*
X140684895Y-37096667D01*
X140684895Y-37096667D02*
X141484895Y-36753809D01*
X144802380Y-122694895D02*
X144954761Y-122694895D01*
X144954761Y-122694895D02*
X145030952Y-122732990D01*
X145030952Y-122732990D02*
X145069047Y-122771085D01*
X145069047Y-122771085D02*
X145145237Y-122885371D01*
X145145237Y-122885371D02*
X145183333Y-123037752D01*
X145183333Y-123037752D02*
X145183333Y-123342514D01*
X145183333Y-123342514D02*
X145145237Y-123418704D01*
X145145237Y-123418704D02*
X145107142Y-123456800D01*
X145107142Y-123456800D02*
X145030952Y-123494895D01*
X145030952Y-123494895D02*
X144878571Y-123494895D01*
X144878571Y-123494895D02*
X144802380Y-123456800D01*
X144802380Y-123456800D02*
X144764285Y-123418704D01*
X144764285Y-123418704D02*
X144726190Y-123342514D01*
X144726190Y-123342514D02*
X144726190Y-123152038D01*
X144726190Y-123152038D02*
X144764285Y-123075847D01*
X144764285Y-123075847D02*
X144802380Y-123037752D01*
X144802380Y-123037752D02*
X144878571Y-122999657D01*
X144878571Y-122999657D02*
X145030952Y-122999657D01*
X145030952Y-122999657D02*
X145107142Y-123037752D01*
X145107142Y-123037752D02*
X145145237Y-123075847D01*
X145145237Y-123075847D02*
X145183333Y-123152038D01*
X144383332Y-123494895D02*
X144383332Y-122694895D01*
X144307142Y-123190133D02*
X144078570Y-123494895D01*
X144078570Y-122961561D02*
X144383332Y-123266323D01*
X143621428Y-123037752D02*
X143697618Y-122999657D01*
X143697618Y-122999657D02*
X143735713Y-122961561D01*
X143735713Y-122961561D02*
X143773809Y-122885371D01*
X143773809Y-122885371D02*
X143773809Y-122847276D01*
X143773809Y-122847276D02*
X143735713Y-122771085D01*
X143735713Y-122771085D02*
X143697618Y-122732990D01*
X143697618Y-122732990D02*
X143621428Y-122694895D01*
X143621428Y-122694895D02*
X143469047Y-122694895D01*
X143469047Y-122694895D02*
X143392856Y-122732990D01*
X143392856Y-122732990D02*
X143354761Y-122771085D01*
X143354761Y-122771085D02*
X143316666Y-122847276D01*
X143316666Y-122847276D02*
X143316666Y-122885371D01*
X143316666Y-122885371D02*
X143354761Y-122961561D01*
X143354761Y-122961561D02*
X143392856Y-122999657D01*
X143392856Y-122999657D02*
X143469047Y-123037752D01*
X143469047Y-123037752D02*
X143621428Y-123037752D01*
X143621428Y-123037752D02*
X143697618Y-123075847D01*
X143697618Y-123075847D02*
X143735713Y-123113942D01*
X143735713Y-123113942D02*
X143773809Y-123190133D01*
X143773809Y-123190133D02*
X143773809Y-123342514D01*
X143773809Y-123342514D02*
X143735713Y-123418704D01*
X143735713Y-123418704D02*
X143697618Y-123456800D01*
X143697618Y-123456800D02*
X143621428Y-123494895D01*
X143621428Y-123494895D02*
X143469047Y-123494895D01*
X143469047Y-123494895D02*
X143392856Y-123456800D01*
X143392856Y-123456800D02*
X143354761Y-123418704D01*
X143354761Y-123418704D02*
X143316666Y-123342514D01*
X143316666Y-123342514D02*
X143316666Y-123190133D01*
X143316666Y-123190133D02*
X143354761Y-123113942D01*
X143354761Y-123113942D02*
X143392856Y-123075847D01*
X143392856Y-123075847D02*
X143469047Y-123037752D01*
X144764285Y-121844895D02*
X145030952Y-121463942D01*
X145221428Y-121844895D02*
X145221428Y-121044895D01*
X145221428Y-121044895D02*
X144916666Y-121044895D01*
X144916666Y-121044895D02*
X144840476Y-121082990D01*
X144840476Y-121082990D02*
X144802381Y-121121085D01*
X144802381Y-121121085D02*
X144764285Y-121197276D01*
X144764285Y-121197276D02*
X144764285Y-121311561D01*
X144764285Y-121311561D02*
X144802381Y-121387752D01*
X144802381Y-121387752D02*
X144840476Y-121425847D01*
X144840476Y-121425847D02*
X144916666Y-121463942D01*
X144916666Y-121463942D02*
X145221428Y-121463942D01*
X144497619Y-121044895D02*
X144002381Y-121044895D01*
X144002381Y-121044895D02*
X144269047Y-121349657D01*
X144269047Y-121349657D02*
X144154762Y-121349657D01*
X144154762Y-121349657D02*
X144078571Y-121387752D01*
X144078571Y-121387752D02*
X144040476Y-121425847D01*
X144040476Y-121425847D02*
X144002381Y-121502038D01*
X144002381Y-121502038D02*
X144002381Y-121692514D01*
X144002381Y-121692514D02*
X144040476Y-121768704D01*
X144040476Y-121768704D02*
X144078571Y-121806800D01*
X144078571Y-121806800D02*
X144154762Y-121844895D01*
X144154762Y-121844895D02*
X144383333Y-121844895D01*
X144383333Y-121844895D02*
X144459524Y-121806800D01*
X144459524Y-121806800D02*
X144497619Y-121768704D01*
X143621428Y-121844895D02*
X143469047Y-121844895D01*
X143469047Y-121844895D02*
X143392857Y-121806800D01*
X143392857Y-121806800D02*
X143354761Y-121768704D01*
X143354761Y-121768704D02*
X143278571Y-121654419D01*
X143278571Y-121654419D02*
X143240476Y-121502038D01*
X143240476Y-121502038D02*
X143240476Y-121197276D01*
X143240476Y-121197276D02*
X143278571Y-121121085D01*
X143278571Y-121121085D02*
X143316666Y-121082990D01*
X143316666Y-121082990D02*
X143392857Y-121044895D01*
X143392857Y-121044895D02*
X143545238Y-121044895D01*
X143545238Y-121044895D02*
X143621428Y-121082990D01*
X143621428Y-121082990D02*
X143659523Y-121121085D01*
X143659523Y-121121085D02*
X143697619Y-121197276D01*
X143697619Y-121197276D02*
X143697619Y-121387752D01*
X143697619Y-121387752D02*
X143659523Y-121463942D01*
X143659523Y-121463942D02*
X143621428Y-121502038D01*
X143621428Y-121502038D02*
X143545238Y-121540133D01*
X143545238Y-121540133D02*
X143392857Y-121540133D01*
X143392857Y-121540133D02*
X143316666Y-121502038D01*
X143316666Y-121502038D02*
X143278571Y-121463942D01*
X143278571Y-121463942D02*
X143240476Y-121387752D01*
X72682380Y-119224895D02*
X72834761Y-119224895D01*
X72834761Y-119224895D02*
X72910952Y-119262990D01*
X72910952Y-119262990D02*
X72949047Y-119301085D01*
X72949047Y-119301085D02*
X73025237Y-119415371D01*
X73025237Y-119415371D02*
X73063333Y-119567752D01*
X73063333Y-119567752D02*
X73063333Y-119872514D01*
X73063333Y-119872514D02*
X73025237Y-119948704D01*
X73025237Y-119948704D02*
X72987142Y-119986800D01*
X72987142Y-119986800D02*
X72910952Y-120024895D01*
X72910952Y-120024895D02*
X72758571Y-120024895D01*
X72758571Y-120024895D02*
X72682380Y-119986800D01*
X72682380Y-119986800D02*
X72644285Y-119948704D01*
X72644285Y-119948704D02*
X72606190Y-119872514D01*
X72606190Y-119872514D02*
X72606190Y-119682038D01*
X72606190Y-119682038D02*
X72644285Y-119605847D01*
X72644285Y-119605847D02*
X72682380Y-119567752D01*
X72682380Y-119567752D02*
X72758571Y-119529657D01*
X72758571Y-119529657D02*
X72910952Y-119529657D01*
X72910952Y-119529657D02*
X72987142Y-119567752D01*
X72987142Y-119567752D02*
X73025237Y-119605847D01*
X73025237Y-119605847D02*
X73063333Y-119682038D01*
X72263332Y-120024895D02*
X72263332Y-119224895D01*
X72187142Y-119720133D02*
X71958570Y-120024895D01*
X71958570Y-119491561D02*
X72263332Y-119796323D01*
X71653809Y-119301085D02*
X71615713Y-119262990D01*
X71615713Y-119262990D02*
X71539523Y-119224895D01*
X71539523Y-119224895D02*
X71349047Y-119224895D01*
X71349047Y-119224895D02*
X71272856Y-119262990D01*
X71272856Y-119262990D02*
X71234761Y-119301085D01*
X71234761Y-119301085D02*
X71196666Y-119377276D01*
X71196666Y-119377276D02*
X71196666Y-119453466D01*
X71196666Y-119453466D02*
X71234761Y-119567752D01*
X71234761Y-119567752D02*
X71691904Y-120024895D01*
X71691904Y-120024895D02*
X71196666Y-120024895D01*
X72644285Y-118374895D02*
X72910952Y-117993942D01*
X73101428Y-118374895D02*
X73101428Y-117574895D01*
X73101428Y-117574895D02*
X72796666Y-117574895D01*
X72796666Y-117574895D02*
X72720476Y-117612990D01*
X72720476Y-117612990D02*
X72682381Y-117651085D01*
X72682381Y-117651085D02*
X72644285Y-117727276D01*
X72644285Y-117727276D02*
X72644285Y-117841561D01*
X72644285Y-117841561D02*
X72682381Y-117917752D01*
X72682381Y-117917752D02*
X72720476Y-117955847D01*
X72720476Y-117955847D02*
X72796666Y-117993942D01*
X72796666Y-117993942D02*
X73101428Y-117993942D01*
X71958571Y-117841561D02*
X71958571Y-118374895D01*
X72149047Y-117536800D02*
X72339524Y-118108228D01*
X72339524Y-118108228D02*
X71844285Y-118108228D01*
X71577619Y-117651085D02*
X71539523Y-117612990D01*
X71539523Y-117612990D02*
X71463333Y-117574895D01*
X71463333Y-117574895D02*
X71272857Y-117574895D01*
X71272857Y-117574895D02*
X71196666Y-117612990D01*
X71196666Y-117612990D02*
X71158571Y-117651085D01*
X71158571Y-117651085D02*
X71120476Y-117727276D01*
X71120476Y-117727276D02*
X71120476Y-117803466D01*
X71120476Y-117803466D02*
X71158571Y-117917752D01*
X71158571Y-117917752D02*
X71615714Y-118374895D01*
X71615714Y-118374895D02*
X71120476Y-118374895D01*
X113033333Y-105811085D02*
X112995237Y-105772990D01*
X112995237Y-105772990D02*
X112919047Y-105734895D01*
X112919047Y-105734895D02*
X112728571Y-105734895D01*
X112728571Y-105734895D02*
X112652380Y-105772990D01*
X112652380Y-105772990D02*
X112614285Y-105811085D01*
X112614285Y-105811085D02*
X112576190Y-105887276D01*
X112576190Y-105887276D02*
X112576190Y-105963466D01*
X112576190Y-105963466D02*
X112614285Y-106077752D01*
X112614285Y-106077752D02*
X113071428Y-106534895D01*
X113071428Y-106534895D02*
X112576190Y-106534895D01*
X112233332Y-106534895D02*
X112233332Y-105734895D01*
X112157142Y-106230133D02*
X111928570Y-106534895D01*
X111928570Y-106001561D02*
X112233332Y-106306323D01*
X111623809Y-105811085D02*
X111585713Y-105772990D01*
X111585713Y-105772990D02*
X111509523Y-105734895D01*
X111509523Y-105734895D02*
X111319047Y-105734895D01*
X111319047Y-105734895D02*
X111242856Y-105772990D01*
X111242856Y-105772990D02*
X111204761Y-105811085D01*
X111204761Y-105811085D02*
X111166666Y-105887276D01*
X111166666Y-105887276D02*
X111166666Y-105963466D01*
X111166666Y-105963466D02*
X111204761Y-106077752D01*
X111204761Y-106077752D02*
X111661904Y-106534895D01*
X111661904Y-106534895D02*
X111166666Y-106534895D01*
X112614285Y-104884895D02*
X112880952Y-104503942D01*
X113071428Y-104884895D02*
X113071428Y-104084895D01*
X113071428Y-104084895D02*
X112766666Y-104084895D01*
X112766666Y-104084895D02*
X112690476Y-104122990D01*
X112690476Y-104122990D02*
X112652381Y-104161085D01*
X112652381Y-104161085D02*
X112614285Y-104237276D01*
X112614285Y-104237276D02*
X112614285Y-104351561D01*
X112614285Y-104351561D02*
X112652381Y-104427752D01*
X112652381Y-104427752D02*
X112690476Y-104465847D01*
X112690476Y-104465847D02*
X112766666Y-104503942D01*
X112766666Y-104503942D02*
X113071428Y-104503942D01*
X112309524Y-104161085D02*
X112271428Y-104122990D01*
X112271428Y-104122990D02*
X112195238Y-104084895D01*
X112195238Y-104084895D02*
X112004762Y-104084895D01*
X112004762Y-104084895D02*
X111928571Y-104122990D01*
X111928571Y-104122990D02*
X111890476Y-104161085D01*
X111890476Y-104161085D02*
X111852381Y-104237276D01*
X111852381Y-104237276D02*
X111852381Y-104313466D01*
X111852381Y-104313466D02*
X111890476Y-104427752D01*
X111890476Y-104427752D02*
X112347619Y-104884895D01*
X112347619Y-104884895D02*
X111852381Y-104884895D01*
X111090476Y-104884895D02*
X111547619Y-104884895D01*
X111319047Y-104884895D02*
X111319047Y-104084895D01*
X111319047Y-104084895D02*
X111395238Y-104199180D01*
X111395238Y-104199180D02*
X111471428Y-104275371D01*
X111471428Y-104275371D02*
X111547619Y-104313466D01*
X104291561Y-97200476D02*
X104824895Y-97200476D01*
X103986800Y-97010000D02*
X104558228Y-96819523D01*
X104558228Y-96819523D02*
X104558228Y-97314762D01*
X104024895Y-97543333D02*
X104024895Y-98076667D01*
X104024895Y-98076667D02*
X104824895Y-97733809D01*
X104024895Y-98533810D02*
X104024895Y-98610000D01*
X104024895Y-98610000D02*
X104062990Y-98686191D01*
X104062990Y-98686191D02*
X104101085Y-98724286D01*
X104101085Y-98724286D02*
X104177276Y-98762381D01*
X104177276Y-98762381D02*
X104329657Y-98800476D01*
X104329657Y-98800476D02*
X104520133Y-98800476D01*
X104520133Y-98800476D02*
X104672514Y-98762381D01*
X104672514Y-98762381D02*
X104748704Y-98724286D01*
X104748704Y-98724286D02*
X104786800Y-98686191D01*
X104786800Y-98686191D02*
X104824895Y-98610000D01*
X104824895Y-98610000D02*
X104824895Y-98533810D01*
X104824895Y-98533810D02*
X104786800Y-98457619D01*
X104786800Y-98457619D02*
X104748704Y-98419524D01*
X104748704Y-98419524D02*
X104672514Y-98381429D01*
X104672514Y-98381429D02*
X104520133Y-98343333D01*
X104520133Y-98343333D02*
X104329657Y-98343333D01*
X104329657Y-98343333D02*
X104177276Y-98381429D01*
X104177276Y-98381429D02*
X104101085Y-98419524D01*
X104101085Y-98419524D02*
X104062990Y-98457619D01*
X104062990Y-98457619D02*
X104024895Y-98533810D01*
X104824895Y-99600477D02*
X104443942Y-99333810D01*
X104824895Y-99143334D02*
X104024895Y-99143334D01*
X104024895Y-99143334D02*
X104024895Y-99448096D01*
X104024895Y-99448096D02*
X104062990Y-99524286D01*
X104062990Y-99524286D02*
X104101085Y-99562381D01*
X104101085Y-99562381D02*
X104177276Y-99600477D01*
X104177276Y-99600477D02*
X104291561Y-99600477D01*
X104291561Y-99600477D02*
X104367752Y-99562381D01*
X104367752Y-99562381D02*
X104405847Y-99524286D01*
X104405847Y-99524286D02*
X104443942Y-99448096D01*
X104443942Y-99448096D02*
X104443942Y-99143334D01*
X103174895Y-97695714D02*
X102793942Y-97429047D01*
X103174895Y-97238571D02*
X102374895Y-97238571D01*
X102374895Y-97238571D02*
X102374895Y-97543333D01*
X102374895Y-97543333D02*
X102412990Y-97619523D01*
X102412990Y-97619523D02*
X102451085Y-97657618D01*
X102451085Y-97657618D02*
X102527276Y-97695714D01*
X102527276Y-97695714D02*
X102641561Y-97695714D01*
X102641561Y-97695714D02*
X102717752Y-97657618D01*
X102717752Y-97657618D02*
X102755847Y-97619523D01*
X102755847Y-97619523D02*
X102793942Y-97543333D01*
X102793942Y-97543333D02*
X102793942Y-97238571D01*
X102374895Y-97962380D02*
X102374895Y-98457618D01*
X102374895Y-98457618D02*
X102679657Y-98190952D01*
X102679657Y-98190952D02*
X102679657Y-98305237D01*
X102679657Y-98305237D02*
X102717752Y-98381428D01*
X102717752Y-98381428D02*
X102755847Y-98419523D01*
X102755847Y-98419523D02*
X102832038Y-98457618D01*
X102832038Y-98457618D02*
X103022514Y-98457618D01*
X103022514Y-98457618D02*
X103098704Y-98419523D01*
X103098704Y-98419523D02*
X103136800Y-98381428D01*
X103136800Y-98381428D02*
X103174895Y-98305237D01*
X103174895Y-98305237D02*
X103174895Y-98076666D01*
X103174895Y-98076666D02*
X103136800Y-98000475D01*
X103136800Y-98000475D02*
X103098704Y-97962380D01*
X103174895Y-99219523D02*
X103174895Y-98762380D01*
X103174895Y-98990952D02*
X102374895Y-98990952D01*
X102374895Y-98990952D02*
X102489180Y-98914761D01*
X102489180Y-98914761D02*
X102565371Y-98838571D01*
X102565371Y-98838571D02*
X102603466Y-98762380D01*
X109681560Y-48147619D02*
X110214894Y-48147619D01*
X109376799Y-47957143D02*
X109948227Y-47766666D01*
X109948227Y-47766666D02*
X109948227Y-48261905D01*
X109414894Y-48490476D02*
X109414894Y-49023810D01*
X109414894Y-49023810D02*
X110214894Y-48680952D01*
X110214894Y-49328572D02*
X109414894Y-49328572D01*
X109910132Y-49404762D02*
X110214894Y-49633334D01*
X109681560Y-49633334D02*
X109986322Y-49328572D01*
X111864894Y-48185714D02*
X111483941Y-47919047D01*
X111864894Y-47728571D02*
X111064894Y-47728571D01*
X111064894Y-47728571D02*
X111064894Y-48033333D01*
X111064894Y-48033333D02*
X111102989Y-48109523D01*
X111102989Y-48109523D02*
X111141084Y-48147618D01*
X111141084Y-48147618D02*
X111217275Y-48185714D01*
X111217275Y-48185714D02*
X111331560Y-48185714D01*
X111331560Y-48185714D02*
X111407751Y-48147618D01*
X111407751Y-48147618D02*
X111445846Y-48109523D01*
X111445846Y-48109523D02*
X111483941Y-48033333D01*
X111483941Y-48033333D02*
X111483941Y-47728571D01*
X111141084Y-48490475D02*
X111102989Y-48528571D01*
X111102989Y-48528571D02*
X111064894Y-48604761D01*
X111064894Y-48604761D02*
X111064894Y-48795237D01*
X111064894Y-48795237D02*
X111102989Y-48871428D01*
X111102989Y-48871428D02*
X111141084Y-48909523D01*
X111141084Y-48909523D02*
X111217275Y-48947618D01*
X111217275Y-48947618D02*
X111293465Y-48947618D01*
X111293465Y-48947618D02*
X111407751Y-48909523D01*
X111407751Y-48909523D02*
X111864894Y-48452380D01*
X111864894Y-48452380D02*
X111864894Y-48947618D01*
X111064894Y-49214285D02*
X111064894Y-49747619D01*
X111064894Y-49747619D02*
X111864894Y-49404761D01*
X91592380Y-115614895D02*
X91744761Y-115614895D01*
X91744761Y-115614895D02*
X91820952Y-115652990D01*
X91820952Y-115652990D02*
X91859047Y-115691085D01*
X91859047Y-115691085D02*
X91935237Y-115805371D01*
X91935237Y-115805371D02*
X91973333Y-115957752D01*
X91973333Y-115957752D02*
X91973333Y-116262514D01*
X91973333Y-116262514D02*
X91935237Y-116338704D01*
X91935237Y-116338704D02*
X91897142Y-116376800D01*
X91897142Y-116376800D02*
X91820952Y-116414895D01*
X91820952Y-116414895D02*
X91668571Y-116414895D01*
X91668571Y-116414895D02*
X91592380Y-116376800D01*
X91592380Y-116376800D02*
X91554285Y-116338704D01*
X91554285Y-116338704D02*
X91516190Y-116262514D01*
X91516190Y-116262514D02*
X91516190Y-116072038D01*
X91516190Y-116072038D02*
X91554285Y-115995847D01*
X91554285Y-115995847D02*
X91592380Y-115957752D01*
X91592380Y-115957752D02*
X91668571Y-115919657D01*
X91668571Y-115919657D02*
X91820952Y-115919657D01*
X91820952Y-115919657D02*
X91897142Y-115957752D01*
X91897142Y-115957752D02*
X91935237Y-115995847D01*
X91935237Y-115995847D02*
X91973333Y-116072038D01*
X91173332Y-116414895D02*
X91173332Y-115614895D01*
X91097142Y-116110133D02*
X90868570Y-116414895D01*
X90868570Y-115881561D02*
X91173332Y-116186323D01*
X90563809Y-115691085D02*
X90525713Y-115652990D01*
X90525713Y-115652990D02*
X90449523Y-115614895D01*
X90449523Y-115614895D02*
X90259047Y-115614895D01*
X90259047Y-115614895D02*
X90182856Y-115652990D01*
X90182856Y-115652990D02*
X90144761Y-115691085D01*
X90144761Y-115691085D02*
X90106666Y-115767276D01*
X90106666Y-115767276D02*
X90106666Y-115843466D01*
X90106666Y-115843466D02*
X90144761Y-115957752D01*
X90144761Y-115957752D02*
X90601904Y-116414895D01*
X90601904Y-116414895D02*
X90106666Y-116414895D01*
X91554285Y-118064895D02*
X91820952Y-117683942D01*
X92011428Y-118064895D02*
X92011428Y-117264895D01*
X92011428Y-117264895D02*
X91706666Y-117264895D01*
X91706666Y-117264895D02*
X91630476Y-117302990D01*
X91630476Y-117302990D02*
X91592381Y-117341085D01*
X91592381Y-117341085D02*
X91554285Y-117417276D01*
X91554285Y-117417276D02*
X91554285Y-117531561D01*
X91554285Y-117531561D02*
X91592381Y-117607752D01*
X91592381Y-117607752D02*
X91630476Y-117645847D01*
X91630476Y-117645847D02*
X91706666Y-117683942D01*
X91706666Y-117683942D02*
X92011428Y-117683942D01*
X90868571Y-117531561D02*
X90868571Y-118064895D01*
X91059047Y-117226800D02*
X91249524Y-117798228D01*
X91249524Y-117798228D02*
X90754285Y-117798228D01*
X90525714Y-117264895D02*
X90030476Y-117264895D01*
X90030476Y-117264895D02*
X90297142Y-117569657D01*
X90297142Y-117569657D02*
X90182857Y-117569657D01*
X90182857Y-117569657D02*
X90106666Y-117607752D01*
X90106666Y-117607752D02*
X90068571Y-117645847D01*
X90068571Y-117645847D02*
X90030476Y-117722038D01*
X90030476Y-117722038D02*
X90030476Y-117912514D01*
X90030476Y-117912514D02*
X90068571Y-117988704D01*
X90068571Y-117988704D02*
X90106666Y-118026800D01*
X90106666Y-118026800D02*
X90182857Y-118064895D01*
X90182857Y-118064895D02*
X90411428Y-118064895D01*
X90411428Y-118064895D02*
X90487619Y-118026800D01*
X90487619Y-118026800D02*
X90525714Y-117988704D01*
X117374895Y-82322856D02*
X117374895Y-81865713D01*
X117374895Y-82094285D02*
X116574895Y-82094285D01*
X116574895Y-82094285D02*
X116689180Y-82018094D01*
X116689180Y-82018094D02*
X116765371Y-81941904D01*
X116765371Y-81941904D02*
X116803466Y-81865713D01*
X116574895Y-82818095D02*
X116574895Y-82894285D01*
X116574895Y-82894285D02*
X116612990Y-82970476D01*
X116612990Y-82970476D02*
X116651085Y-83008571D01*
X116651085Y-83008571D02*
X116727276Y-83046666D01*
X116727276Y-83046666D02*
X116879657Y-83084761D01*
X116879657Y-83084761D02*
X117070133Y-83084761D01*
X117070133Y-83084761D02*
X117222514Y-83046666D01*
X117222514Y-83046666D02*
X117298704Y-83008571D01*
X117298704Y-83008571D02*
X117336800Y-82970476D01*
X117336800Y-82970476D02*
X117374895Y-82894285D01*
X117374895Y-82894285D02*
X117374895Y-82818095D01*
X117374895Y-82818095D02*
X117336800Y-82741904D01*
X117336800Y-82741904D02*
X117298704Y-82703809D01*
X117298704Y-82703809D02*
X117222514Y-82665714D01*
X117222514Y-82665714D02*
X117070133Y-82627618D01*
X117070133Y-82627618D02*
X116879657Y-82627618D01*
X116879657Y-82627618D02*
X116727276Y-82665714D01*
X116727276Y-82665714D02*
X116651085Y-82703809D01*
X116651085Y-82703809D02*
X116612990Y-82741904D01*
X116612990Y-82741904D02*
X116574895Y-82818095D01*
X116574895Y-83580000D02*
X116574895Y-83656190D01*
X116574895Y-83656190D02*
X116612990Y-83732381D01*
X116612990Y-83732381D02*
X116651085Y-83770476D01*
X116651085Y-83770476D02*
X116727276Y-83808571D01*
X116727276Y-83808571D02*
X116879657Y-83846666D01*
X116879657Y-83846666D02*
X117070133Y-83846666D01*
X117070133Y-83846666D02*
X117222514Y-83808571D01*
X117222514Y-83808571D02*
X117298704Y-83770476D01*
X117298704Y-83770476D02*
X117336800Y-83732381D01*
X117336800Y-83732381D02*
X117374895Y-83656190D01*
X117374895Y-83656190D02*
X117374895Y-83580000D01*
X117374895Y-83580000D02*
X117336800Y-83503809D01*
X117336800Y-83503809D02*
X117298704Y-83465714D01*
X117298704Y-83465714D02*
X117222514Y-83427619D01*
X117222514Y-83427619D02*
X117070133Y-83389523D01*
X117070133Y-83389523D02*
X116879657Y-83389523D01*
X116879657Y-83389523D02*
X116727276Y-83427619D01*
X116727276Y-83427619D02*
X116651085Y-83465714D01*
X116651085Y-83465714D02*
X116612990Y-83503809D01*
X116612990Y-83503809D02*
X116574895Y-83580000D01*
X117374895Y-84189524D02*
X116574895Y-84189524D01*
X117070133Y-84265714D02*
X117374895Y-84494286D01*
X116841561Y-84494286D02*
X117146323Y-84189524D01*
X115724895Y-82665714D02*
X115343942Y-82399047D01*
X115724895Y-82208571D02*
X114924895Y-82208571D01*
X114924895Y-82208571D02*
X114924895Y-82513333D01*
X114924895Y-82513333D02*
X114962990Y-82589523D01*
X114962990Y-82589523D02*
X115001085Y-82627618D01*
X115001085Y-82627618D02*
X115077276Y-82665714D01*
X115077276Y-82665714D02*
X115191561Y-82665714D01*
X115191561Y-82665714D02*
X115267752Y-82627618D01*
X115267752Y-82627618D02*
X115305847Y-82589523D01*
X115305847Y-82589523D02*
X115343942Y-82513333D01*
X115343942Y-82513333D02*
X115343942Y-82208571D01*
X115001085Y-82970475D02*
X114962990Y-83008571D01*
X114962990Y-83008571D02*
X114924895Y-83084761D01*
X114924895Y-83084761D02*
X114924895Y-83275237D01*
X114924895Y-83275237D02*
X114962990Y-83351428D01*
X114962990Y-83351428D02*
X115001085Y-83389523D01*
X115001085Y-83389523D02*
X115077276Y-83427618D01*
X115077276Y-83427618D02*
X115153466Y-83427618D01*
X115153466Y-83427618D02*
X115267752Y-83389523D01*
X115267752Y-83389523D02*
X115724895Y-82932380D01*
X115724895Y-82932380D02*
X115724895Y-83427618D01*
X115267752Y-83884761D02*
X115229657Y-83808571D01*
X115229657Y-83808571D02*
X115191561Y-83770476D01*
X115191561Y-83770476D02*
X115115371Y-83732380D01*
X115115371Y-83732380D02*
X115077276Y-83732380D01*
X115077276Y-83732380D02*
X115001085Y-83770476D01*
X115001085Y-83770476D02*
X114962990Y-83808571D01*
X114962990Y-83808571D02*
X114924895Y-83884761D01*
X114924895Y-83884761D02*
X114924895Y-84037142D01*
X114924895Y-84037142D02*
X114962990Y-84113333D01*
X114962990Y-84113333D02*
X115001085Y-84151428D01*
X115001085Y-84151428D02*
X115077276Y-84189523D01*
X115077276Y-84189523D02*
X115115371Y-84189523D01*
X115115371Y-84189523D02*
X115191561Y-84151428D01*
X115191561Y-84151428D02*
X115229657Y-84113333D01*
X115229657Y-84113333D02*
X115267752Y-84037142D01*
X115267752Y-84037142D02*
X115267752Y-83884761D01*
X115267752Y-83884761D02*
X115305847Y-83808571D01*
X115305847Y-83808571D02*
X115343942Y-83770476D01*
X115343942Y-83770476D02*
X115420133Y-83732380D01*
X115420133Y-83732380D02*
X115572514Y-83732380D01*
X115572514Y-83732380D02*
X115648704Y-83770476D01*
X115648704Y-83770476D02*
X115686800Y-83808571D01*
X115686800Y-83808571D02*
X115724895Y-83884761D01*
X115724895Y-83884761D02*
X115724895Y-84037142D01*
X115724895Y-84037142D02*
X115686800Y-84113333D01*
X115686800Y-84113333D02*
X115648704Y-84151428D01*
X115648704Y-84151428D02*
X115572514Y-84189523D01*
X115572514Y-84189523D02*
X115420133Y-84189523D01*
X115420133Y-84189523D02*
X115343942Y-84151428D01*
X115343942Y-84151428D02*
X115305847Y-84113333D01*
X115305847Y-84113333D02*
X115267752Y-84037142D01*
X100204895Y-96781428D02*
X100204895Y-97276666D01*
X100204895Y-97276666D02*
X100509657Y-97010000D01*
X100509657Y-97010000D02*
X100509657Y-97124285D01*
X100509657Y-97124285D02*
X100547752Y-97200476D01*
X100547752Y-97200476D02*
X100585847Y-97238571D01*
X100585847Y-97238571D02*
X100662038Y-97276666D01*
X100662038Y-97276666D02*
X100852514Y-97276666D01*
X100852514Y-97276666D02*
X100928704Y-97238571D01*
X100928704Y-97238571D02*
X100966800Y-97200476D01*
X100966800Y-97200476D02*
X101004895Y-97124285D01*
X101004895Y-97124285D02*
X101004895Y-96895714D01*
X101004895Y-96895714D02*
X100966800Y-96819523D01*
X100966800Y-96819523D02*
X100928704Y-96781428D01*
X100204895Y-97543333D02*
X100204895Y-98038571D01*
X100204895Y-98038571D02*
X100509657Y-97771905D01*
X100509657Y-97771905D02*
X100509657Y-97886190D01*
X100509657Y-97886190D02*
X100547752Y-97962381D01*
X100547752Y-97962381D02*
X100585847Y-98000476D01*
X100585847Y-98000476D02*
X100662038Y-98038571D01*
X100662038Y-98038571D02*
X100852514Y-98038571D01*
X100852514Y-98038571D02*
X100928704Y-98000476D01*
X100928704Y-98000476D02*
X100966800Y-97962381D01*
X100966800Y-97962381D02*
X101004895Y-97886190D01*
X101004895Y-97886190D02*
X101004895Y-97657619D01*
X101004895Y-97657619D02*
X100966800Y-97581428D01*
X100966800Y-97581428D02*
X100928704Y-97543333D01*
X100204895Y-98533810D02*
X100204895Y-98610000D01*
X100204895Y-98610000D02*
X100242990Y-98686191D01*
X100242990Y-98686191D02*
X100281085Y-98724286D01*
X100281085Y-98724286D02*
X100357276Y-98762381D01*
X100357276Y-98762381D02*
X100509657Y-98800476D01*
X100509657Y-98800476D02*
X100700133Y-98800476D01*
X100700133Y-98800476D02*
X100852514Y-98762381D01*
X100852514Y-98762381D02*
X100928704Y-98724286D01*
X100928704Y-98724286D02*
X100966800Y-98686191D01*
X100966800Y-98686191D02*
X101004895Y-98610000D01*
X101004895Y-98610000D02*
X101004895Y-98533810D01*
X101004895Y-98533810D02*
X100966800Y-98457619D01*
X100966800Y-98457619D02*
X100928704Y-98419524D01*
X100928704Y-98419524D02*
X100852514Y-98381429D01*
X100852514Y-98381429D02*
X100700133Y-98343333D01*
X100700133Y-98343333D02*
X100509657Y-98343333D01*
X100509657Y-98343333D02*
X100357276Y-98381429D01*
X100357276Y-98381429D02*
X100281085Y-98419524D01*
X100281085Y-98419524D02*
X100242990Y-98457619D01*
X100242990Y-98457619D02*
X100204895Y-98533810D01*
X101004895Y-99600477D02*
X100623942Y-99333810D01*
X101004895Y-99143334D02*
X100204895Y-99143334D01*
X100204895Y-99143334D02*
X100204895Y-99448096D01*
X100204895Y-99448096D02*
X100242990Y-99524286D01*
X100242990Y-99524286D02*
X100281085Y-99562381D01*
X100281085Y-99562381D02*
X100357276Y-99600477D01*
X100357276Y-99600477D02*
X100471561Y-99600477D01*
X100471561Y-99600477D02*
X100547752Y-99562381D01*
X100547752Y-99562381D02*
X100585847Y-99524286D01*
X100585847Y-99524286D02*
X100623942Y-99448096D01*
X100623942Y-99448096D02*
X100623942Y-99143334D01*
X99354895Y-97695714D02*
X98973942Y-97429047D01*
X99354895Y-97238571D02*
X98554895Y-97238571D01*
X98554895Y-97238571D02*
X98554895Y-97543333D01*
X98554895Y-97543333D02*
X98592990Y-97619523D01*
X98592990Y-97619523D02*
X98631085Y-97657618D01*
X98631085Y-97657618D02*
X98707276Y-97695714D01*
X98707276Y-97695714D02*
X98821561Y-97695714D01*
X98821561Y-97695714D02*
X98897752Y-97657618D01*
X98897752Y-97657618D02*
X98935847Y-97619523D01*
X98935847Y-97619523D02*
X98973942Y-97543333D01*
X98973942Y-97543333D02*
X98973942Y-97238571D01*
X98554895Y-97962380D02*
X98554895Y-98457618D01*
X98554895Y-98457618D02*
X98859657Y-98190952D01*
X98859657Y-98190952D02*
X98859657Y-98305237D01*
X98859657Y-98305237D02*
X98897752Y-98381428D01*
X98897752Y-98381428D02*
X98935847Y-98419523D01*
X98935847Y-98419523D02*
X99012038Y-98457618D01*
X99012038Y-98457618D02*
X99202514Y-98457618D01*
X99202514Y-98457618D02*
X99278704Y-98419523D01*
X99278704Y-98419523D02*
X99316800Y-98381428D01*
X99316800Y-98381428D02*
X99354895Y-98305237D01*
X99354895Y-98305237D02*
X99354895Y-98076666D01*
X99354895Y-98076666D02*
X99316800Y-98000475D01*
X99316800Y-98000475D02*
X99278704Y-97962380D01*
X98554895Y-98952857D02*
X98554895Y-99029047D01*
X98554895Y-99029047D02*
X98592990Y-99105238D01*
X98592990Y-99105238D02*
X98631085Y-99143333D01*
X98631085Y-99143333D02*
X98707276Y-99181428D01*
X98707276Y-99181428D02*
X98859657Y-99219523D01*
X98859657Y-99219523D02*
X99050133Y-99219523D01*
X99050133Y-99219523D02*
X99202514Y-99181428D01*
X99202514Y-99181428D02*
X99278704Y-99143333D01*
X99278704Y-99143333D02*
X99316800Y-99105238D01*
X99316800Y-99105238D02*
X99354895Y-99029047D01*
X99354895Y-99029047D02*
X99354895Y-98952857D01*
X99354895Y-98952857D02*
X99316800Y-98876666D01*
X99316800Y-98876666D02*
X99278704Y-98838571D01*
X99278704Y-98838571D02*
X99202514Y-98800476D01*
X99202514Y-98800476D02*
X99050133Y-98762380D01*
X99050133Y-98762380D02*
X98859657Y-98762380D01*
X98859657Y-98762380D02*
X98707276Y-98800476D01*
X98707276Y-98800476D02*
X98631085Y-98838571D01*
X98631085Y-98838571D02*
X98592990Y-98876666D01*
X98592990Y-98876666D02*
X98554895Y-98952857D01*
X115264895Y-52932380D02*
X115264895Y-53427618D01*
X115264895Y-53427618D02*
X115569657Y-53160952D01*
X115569657Y-53160952D02*
X115569657Y-53275237D01*
X115569657Y-53275237D02*
X115607752Y-53351428D01*
X115607752Y-53351428D02*
X115645847Y-53389523D01*
X115645847Y-53389523D02*
X115722038Y-53427618D01*
X115722038Y-53427618D02*
X115912514Y-53427618D01*
X115912514Y-53427618D02*
X115988704Y-53389523D01*
X115988704Y-53389523D02*
X116026800Y-53351428D01*
X116026800Y-53351428D02*
X116064895Y-53275237D01*
X116064895Y-53275237D02*
X116064895Y-53046666D01*
X116064895Y-53046666D02*
X116026800Y-52970475D01*
X116026800Y-52970475D02*
X115988704Y-52932380D01*
X115264895Y-53694285D02*
X115264895Y-54189523D01*
X115264895Y-54189523D02*
X115569657Y-53922857D01*
X115569657Y-53922857D02*
X115569657Y-54037142D01*
X115569657Y-54037142D02*
X115607752Y-54113333D01*
X115607752Y-54113333D02*
X115645847Y-54151428D01*
X115645847Y-54151428D02*
X115722038Y-54189523D01*
X115722038Y-54189523D02*
X115912514Y-54189523D01*
X115912514Y-54189523D02*
X115988704Y-54151428D01*
X115988704Y-54151428D02*
X116026800Y-54113333D01*
X116026800Y-54113333D02*
X116064895Y-54037142D01*
X116064895Y-54037142D02*
X116064895Y-53808571D01*
X116064895Y-53808571D02*
X116026800Y-53732380D01*
X116026800Y-53732380D02*
X115988704Y-53694285D01*
X116064895Y-54989524D02*
X115683942Y-54722857D01*
X116064895Y-54532381D02*
X115264895Y-54532381D01*
X115264895Y-54532381D02*
X115264895Y-54837143D01*
X115264895Y-54837143D02*
X115302990Y-54913333D01*
X115302990Y-54913333D02*
X115341085Y-54951428D01*
X115341085Y-54951428D02*
X115417276Y-54989524D01*
X115417276Y-54989524D02*
X115531561Y-54989524D01*
X115531561Y-54989524D02*
X115607752Y-54951428D01*
X115607752Y-54951428D02*
X115645847Y-54913333D01*
X115645847Y-54913333D02*
X115683942Y-54837143D01*
X115683942Y-54837143D02*
X115683942Y-54532381D01*
X114414895Y-53465714D02*
X114033942Y-53199047D01*
X114414895Y-53008571D02*
X113614895Y-53008571D01*
X113614895Y-53008571D02*
X113614895Y-53313333D01*
X113614895Y-53313333D02*
X113652990Y-53389523D01*
X113652990Y-53389523D02*
X113691085Y-53427618D01*
X113691085Y-53427618D02*
X113767276Y-53465714D01*
X113767276Y-53465714D02*
X113881561Y-53465714D01*
X113881561Y-53465714D02*
X113957752Y-53427618D01*
X113957752Y-53427618D02*
X113995847Y-53389523D01*
X113995847Y-53389523D02*
X114033942Y-53313333D01*
X114033942Y-53313333D02*
X114033942Y-53008571D01*
X114414895Y-54227618D02*
X114414895Y-53770475D01*
X114414895Y-53999047D02*
X113614895Y-53999047D01*
X113614895Y-53999047D02*
X113729180Y-53922856D01*
X113729180Y-53922856D02*
X113805371Y-53846666D01*
X113805371Y-53846666D02*
X113843466Y-53770475D01*
X113614895Y-54951428D02*
X113614895Y-54570476D01*
X113614895Y-54570476D02*
X113995847Y-54532380D01*
X113995847Y-54532380D02*
X113957752Y-54570476D01*
X113957752Y-54570476D02*
X113919657Y-54646666D01*
X113919657Y-54646666D02*
X113919657Y-54837142D01*
X113919657Y-54837142D02*
X113957752Y-54913333D01*
X113957752Y-54913333D02*
X113995847Y-54951428D01*
X113995847Y-54951428D02*
X114072038Y-54989523D01*
X114072038Y-54989523D02*
X114262514Y-54989523D01*
X114262514Y-54989523D02*
X114338704Y-54951428D01*
X114338704Y-54951428D02*
X114376800Y-54913333D01*
X114376800Y-54913333D02*
X114414895Y-54837142D01*
X114414895Y-54837142D02*
X114414895Y-54646666D01*
X114414895Y-54646666D02*
X114376800Y-54570476D01*
X114376800Y-54570476D02*
X114338704Y-54532380D01*
X110771560Y-48147619D02*
X111304894Y-48147619D01*
X110466799Y-47957143D02*
X111038227Y-47766666D01*
X111038227Y-47766666D02*
X111038227Y-48261905D01*
X110504894Y-48490476D02*
X110504894Y-49023810D01*
X110504894Y-49023810D02*
X111304894Y-48680952D01*
X111304894Y-49328572D02*
X110504894Y-49328572D01*
X111000132Y-49404762D02*
X111304894Y-49633334D01*
X110771560Y-49633334D02*
X111076322Y-49328572D01*
X109654894Y-48185714D02*
X109273941Y-47919047D01*
X109654894Y-47728571D02*
X108854894Y-47728571D01*
X108854894Y-47728571D02*
X108854894Y-48033333D01*
X108854894Y-48033333D02*
X108892989Y-48109523D01*
X108892989Y-48109523D02*
X108931084Y-48147618D01*
X108931084Y-48147618D02*
X109007275Y-48185714D01*
X109007275Y-48185714D02*
X109121560Y-48185714D01*
X109121560Y-48185714D02*
X109197751Y-48147618D01*
X109197751Y-48147618D02*
X109235846Y-48109523D01*
X109235846Y-48109523D02*
X109273941Y-48033333D01*
X109273941Y-48033333D02*
X109273941Y-47728571D01*
X108931084Y-48490475D02*
X108892989Y-48528571D01*
X108892989Y-48528571D02*
X108854894Y-48604761D01*
X108854894Y-48604761D02*
X108854894Y-48795237D01*
X108854894Y-48795237D02*
X108892989Y-48871428D01*
X108892989Y-48871428D02*
X108931084Y-48909523D01*
X108931084Y-48909523D02*
X109007275Y-48947618D01*
X109007275Y-48947618D02*
X109083465Y-48947618D01*
X109083465Y-48947618D02*
X109197751Y-48909523D01*
X109197751Y-48909523D02*
X109654894Y-48452380D01*
X109654894Y-48452380D02*
X109654894Y-48947618D01*
X108854894Y-49671428D02*
X108854894Y-49290476D01*
X108854894Y-49290476D02*
X109235846Y-49252380D01*
X109235846Y-49252380D02*
X109197751Y-49290476D01*
X109197751Y-49290476D02*
X109159656Y-49366666D01*
X109159656Y-49366666D02*
X109159656Y-49557142D01*
X109159656Y-49557142D02*
X109197751Y-49633333D01*
X109197751Y-49633333D02*
X109235846Y-49671428D01*
X109235846Y-49671428D02*
X109312037Y-49709523D01*
X109312037Y-49709523D02*
X109502513Y-49709523D01*
X109502513Y-49709523D02*
X109578703Y-49671428D01*
X109578703Y-49671428D02*
X109616799Y-49633333D01*
X109616799Y-49633333D02*
X109654894Y-49557142D01*
X109654894Y-49557142D02*
X109654894Y-49366666D01*
X109654894Y-49366666D02*
X109616799Y-49290476D01*
X109616799Y-49290476D02*
X109578703Y-49252380D01*
X135495238Y-112604895D02*
X135952381Y-112604895D01*
X135723809Y-112604895D02*
X135723809Y-111804895D01*
X135723809Y-111804895D02*
X135800000Y-111919180D01*
X135800000Y-111919180D02*
X135876190Y-111995371D01*
X135876190Y-111995371D02*
X135952381Y-112033466D01*
X134999999Y-111804895D02*
X134923809Y-111804895D01*
X134923809Y-111804895D02*
X134847618Y-111842990D01*
X134847618Y-111842990D02*
X134809523Y-111881085D01*
X134809523Y-111881085D02*
X134771428Y-111957276D01*
X134771428Y-111957276D02*
X134733333Y-112109657D01*
X134733333Y-112109657D02*
X134733333Y-112300133D01*
X134733333Y-112300133D02*
X134771428Y-112452514D01*
X134771428Y-112452514D02*
X134809523Y-112528704D01*
X134809523Y-112528704D02*
X134847618Y-112566800D01*
X134847618Y-112566800D02*
X134923809Y-112604895D01*
X134923809Y-112604895D02*
X134999999Y-112604895D01*
X134999999Y-112604895D02*
X135076190Y-112566800D01*
X135076190Y-112566800D02*
X135114285Y-112528704D01*
X135114285Y-112528704D02*
X135152380Y-112452514D01*
X135152380Y-112452514D02*
X135190476Y-112300133D01*
X135190476Y-112300133D02*
X135190476Y-112109657D01*
X135190476Y-112109657D02*
X135152380Y-111957276D01*
X135152380Y-111957276D02*
X135114285Y-111881085D01*
X135114285Y-111881085D02*
X135076190Y-111842990D01*
X135076190Y-111842990D02*
X134999999Y-111804895D01*
X134238094Y-111804895D02*
X134161904Y-111804895D01*
X134161904Y-111804895D02*
X134085713Y-111842990D01*
X134085713Y-111842990D02*
X134047618Y-111881085D01*
X134047618Y-111881085D02*
X134009523Y-111957276D01*
X134009523Y-111957276D02*
X133971428Y-112109657D01*
X133971428Y-112109657D02*
X133971428Y-112300133D01*
X133971428Y-112300133D02*
X134009523Y-112452514D01*
X134009523Y-112452514D02*
X134047618Y-112528704D01*
X134047618Y-112528704D02*
X134085713Y-112566800D01*
X134085713Y-112566800D02*
X134161904Y-112604895D01*
X134161904Y-112604895D02*
X134238094Y-112604895D01*
X134238094Y-112604895D02*
X134314285Y-112566800D01*
X134314285Y-112566800D02*
X134352380Y-112528704D01*
X134352380Y-112528704D02*
X134390475Y-112452514D01*
X134390475Y-112452514D02*
X134428571Y-112300133D01*
X134428571Y-112300133D02*
X134428571Y-112109657D01*
X134428571Y-112109657D02*
X134390475Y-111957276D01*
X134390475Y-111957276D02*
X134352380Y-111881085D01*
X134352380Y-111881085D02*
X134314285Y-111842990D01*
X134314285Y-111842990D02*
X134238094Y-111804895D01*
X133628570Y-112071561D02*
X133628570Y-112604895D01*
X133628570Y-112147752D02*
X133590475Y-112109657D01*
X133590475Y-112109657D02*
X133514285Y-112071561D01*
X133514285Y-112071561D02*
X133399999Y-112071561D01*
X133399999Y-112071561D02*
X133323808Y-112109657D01*
X133323808Y-112109657D02*
X133285713Y-112185847D01*
X133285713Y-112185847D02*
X133285713Y-112604895D01*
X135114285Y-110848704D02*
X135152381Y-110886800D01*
X135152381Y-110886800D02*
X135266666Y-110924895D01*
X135266666Y-110924895D02*
X135342857Y-110924895D01*
X135342857Y-110924895D02*
X135457143Y-110886800D01*
X135457143Y-110886800D02*
X135533333Y-110810609D01*
X135533333Y-110810609D02*
X135571428Y-110734419D01*
X135571428Y-110734419D02*
X135609524Y-110582038D01*
X135609524Y-110582038D02*
X135609524Y-110467752D01*
X135609524Y-110467752D02*
X135571428Y-110315371D01*
X135571428Y-110315371D02*
X135533333Y-110239180D01*
X135533333Y-110239180D02*
X135457143Y-110162990D01*
X135457143Y-110162990D02*
X135342857Y-110124895D01*
X135342857Y-110124895D02*
X135266666Y-110124895D01*
X135266666Y-110124895D02*
X135152381Y-110162990D01*
X135152381Y-110162990D02*
X135114285Y-110201085D01*
X134809524Y-110201085D02*
X134771428Y-110162990D01*
X134771428Y-110162990D02*
X134695238Y-110124895D01*
X134695238Y-110124895D02*
X134504762Y-110124895D01*
X134504762Y-110124895D02*
X134428571Y-110162990D01*
X134428571Y-110162990D02*
X134390476Y-110201085D01*
X134390476Y-110201085D02*
X134352381Y-110277276D01*
X134352381Y-110277276D02*
X134352381Y-110353466D01*
X134352381Y-110353466D02*
X134390476Y-110467752D01*
X134390476Y-110467752D02*
X134847619Y-110924895D01*
X134847619Y-110924895D02*
X134352381Y-110924895D01*
X133590476Y-110924895D02*
X134047619Y-110924895D01*
X133819047Y-110924895D02*
X133819047Y-110124895D01*
X133819047Y-110124895D02*
X133895238Y-110239180D01*
X133895238Y-110239180D02*
X133971428Y-110315371D01*
X133971428Y-110315371D02*
X134047619Y-110353466D01*
X94538928Y-101524895D02*
X94043690Y-101524895D01*
X94043690Y-101524895D02*
X94310356Y-101829657D01*
X94310356Y-101829657D02*
X94196071Y-101829657D01*
X94196071Y-101829657D02*
X94119880Y-101867752D01*
X94119880Y-101867752D02*
X94081785Y-101905847D01*
X94081785Y-101905847D02*
X94043690Y-101982038D01*
X94043690Y-101982038D02*
X94043690Y-102172514D01*
X94043690Y-102172514D02*
X94081785Y-102248704D01*
X94081785Y-102248704D02*
X94119880Y-102286800D01*
X94119880Y-102286800D02*
X94196071Y-102324895D01*
X94196071Y-102324895D02*
X94424642Y-102324895D01*
X94424642Y-102324895D02*
X94500833Y-102286800D01*
X94500833Y-102286800D02*
X94538928Y-102248704D01*
X93548451Y-101524895D02*
X93472261Y-101524895D01*
X93472261Y-101524895D02*
X93396070Y-101562990D01*
X93396070Y-101562990D02*
X93357975Y-101601085D01*
X93357975Y-101601085D02*
X93319880Y-101677276D01*
X93319880Y-101677276D02*
X93281785Y-101829657D01*
X93281785Y-101829657D02*
X93281785Y-102020133D01*
X93281785Y-102020133D02*
X93319880Y-102172514D01*
X93319880Y-102172514D02*
X93357975Y-102248704D01*
X93357975Y-102248704D02*
X93396070Y-102286800D01*
X93396070Y-102286800D02*
X93472261Y-102324895D01*
X93472261Y-102324895D02*
X93548451Y-102324895D01*
X93548451Y-102324895D02*
X93624642Y-102286800D01*
X93624642Y-102286800D02*
X93662737Y-102248704D01*
X93662737Y-102248704D02*
X93700832Y-102172514D01*
X93700832Y-102172514D02*
X93738928Y-102020133D01*
X93738928Y-102020133D02*
X93738928Y-101829657D01*
X93738928Y-101829657D02*
X93700832Y-101677276D01*
X93700832Y-101677276D02*
X93662737Y-101601085D01*
X93662737Y-101601085D02*
X93624642Y-101562990D01*
X93624642Y-101562990D02*
X93548451Y-101524895D01*
X92938927Y-102324895D02*
X92938927Y-101524895D01*
X92862737Y-102020133D02*
X92634165Y-102324895D01*
X92634165Y-101791561D02*
X92938927Y-102096323D01*
X94081785Y-103974895D02*
X94348452Y-103593942D01*
X94538928Y-103974895D02*
X94538928Y-103174895D01*
X94538928Y-103174895D02*
X94234166Y-103174895D01*
X94234166Y-103174895D02*
X94157976Y-103212990D01*
X94157976Y-103212990D02*
X94119881Y-103251085D01*
X94119881Y-103251085D02*
X94081785Y-103327276D01*
X94081785Y-103327276D02*
X94081785Y-103441561D01*
X94081785Y-103441561D02*
X94119881Y-103517752D01*
X94119881Y-103517752D02*
X94157976Y-103555847D01*
X94157976Y-103555847D02*
X94234166Y-103593942D01*
X94234166Y-103593942D02*
X94538928Y-103593942D01*
X93815119Y-103174895D02*
X93319881Y-103174895D01*
X93319881Y-103174895D02*
X93586547Y-103479657D01*
X93586547Y-103479657D02*
X93472262Y-103479657D01*
X93472262Y-103479657D02*
X93396071Y-103517752D01*
X93396071Y-103517752D02*
X93357976Y-103555847D01*
X93357976Y-103555847D02*
X93319881Y-103632038D01*
X93319881Y-103632038D02*
X93319881Y-103822514D01*
X93319881Y-103822514D02*
X93357976Y-103898704D01*
X93357976Y-103898704D02*
X93396071Y-103936800D01*
X93396071Y-103936800D02*
X93472262Y-103974895D01*
X93472262Y-103974895D02*
X93700833Y-103974895D01*
X93700833Y-103974895D02*
X93777024Y-103936800D01*
X93777024Y-103936800D02*
X93815119Y-103898704D01*
X92634166Y-103174895D02*
X92786547Y-103174895D01*
X92786547Y-103174895D02*
X92862738Y-103212990D01*
X92862738Y-103212990D02*
X92900833Y-103251085D01*
X92900833Y-103251085D02*
X92977023Y-103365371D01*
X92977023Y-103365371D02*
X93015119Y-103517752D01*
X93015119Y-103517752D02*
X93015119Y-103822514D01*
X93015119Y-103822514D02*
X92977023Y-103898704D01*
X92977023Y-103898704D02*
X92938928Y-103936800D01*
X92938928Y-103936800D02*
X92862738Y-103974895D01*
X92862738Y-103974895D02*
X92710357Y-103974895D01*
X92710357Y-103974895D02*
X92634166Y-103936800D01*
X92634166Y-103936800D02*
X92596071Y-103898704D01*
X92596071Y-103898704D02*
X92557976Y-103822514D01*
X92557976Y-103822514D02*
X92557976Y-103632038D01*
X92557976Y-103632038D02*
X92596071Y-103555847D01*
X92596071Y-103555847D02*
X92634166Y-103517752D01*
X92634166Y-103517752D02*
X92710357Y-103479657D01*
X92710357Y-103479657D02*
X92862738Y-103479657D01*
X92862738Y-103479657D02*
X92938928Y-103517752D01*
X92938928Y-103517752D02*
X92977023Y-103555847D01*
X92977023Y-103555847D02*
X93015119Y-103632038D01*
X146471429Y-110381085D02*
X146433333Y-110342990D01*
X146433333Y-110342990D02*
X146357143Y-110304895D01*
X146357143Y-110304895D02*
X146166667Y-110304895D01*
X146166667Y-110304895D02*
X146090476Y-110342990D01*
X146090476Y-110342990D02*
X146052381Y-110381085D01*
X146052381Y-110381085D02*
X146014286Y-110457276D01*
X146014286Y-110457276D02*
X146014286Y-110533466D01*
X146014286Y-110533466D02*
X146052381Y-110647752D01*
X146052381Y-110647752D02*
X146509524Y-111104895D01*
X146509524Y-111104895D02*
X146014286Y-111104895D01*
X145709524Y-110381085D02*
X145671428Y-110342990D01*
X145671428Y-110342990D02*
X145595238Y-110304895D01*
X145595238Y-110304895D02*
X145404762Y-110304895D01*
X145404762Y-110304895D02*
X145328571Y-110342990D01*
X145328571Y-110342990D02*
X145290476Y-110381085D01*
X145290476Y-110381085D02*
X145252381Y-110457276D01*
X145252381Y-110457276D02*
X145252381Y-110533466D01*
X145252381Y-110533466D02*
X145290476Y-110647752D01*
X145290476Y-110647752D02*
X145747619Y-111104895D01*
X145747619Y-111104895D02*
X145252381Y-111104895D01*
X144566666Y-110571561D02*
X144566666Y-111104895D01*
X144909523Y-110571561D02*
X144909523Y-110990609D01*
X144909523Y-110990609D02*
X144871428Y-111066800D01*
X144871428Y-111066800D02*
X144795238Y-111104895D01*
X144795238Y-111104895D02*
X144680952Y-111104895D01*
X144680952Y-111104895D02*
X144604761Y-111066800D01*
X144604761Y-111066800D02*
X144566666Y-111028704D01*
X146014285Y-112708704D02*
X146052381Y-112746800D01*
X146052381Y-112746800D02*
X146166666Y-112784895D01*
X146166666Y-112784895D02*
X146242857Y-112784895D01*
X146242857Y-112784895D02*
X146357143Y-112746800D01*
X146357143Y-112746800D02*
X146433333Y-112670609D01*
X146433333Y-112670609D02*
X146471428Y-112594419D01*
X146471428Y-112594419D02*
X146509524Y-112442038D01*
X146509524Y-112442038D02*
X146509524Y-112327752D01*
X146509524Y-112327752D02*
X146471428Y-112175371D01*
X146471428Y-112175371D02*
X146433333Y-112099180D01*
X146433333Y-112099180D02*
X146357143Y-112022990D01*
X146357143Y-112022990D02*
X146242857Y-111984895D01*
X146242857Y-111984895D02*
X146166666Y-111984895D01*
X146166666Y-111984895D02*
X146052381Y-112022990D01*
X146052381Y-112022990D02*
X146014285Y-112061085D01*
X145709524Y-112061085D02*
X145671428Y-112022990D01*
X145671428Y-112022990D02*
X145595238Y-111984895D01*
X145595238Y-111984895D02*
X145404762Y-111984895D01*
X145404762Y-111984895D02*
X145328571Y-112022990D01*
X145328571Y-112022990D02*
X145290476Y-112061085D01*
X145290476Y-112061085D02*
X145252381Y-112137276D01*
X145252381Y-112137276D02*
X145252381Y-112213466D01*
X145252381Y-112213466D02*
X145290476Y-112327752D01*
X145290476Y-112327752D02*
X145747619Y-112784895D01*
X145747619Y-112784895D02*
X145252381Y-112784895D01*
X144757142Y-111984895D02*
X144680952Y-111984895D01*
X144680952Y-111984895D02*
X144604761Y-112022990D01*
X144604761Y-112022990D02*
X144566666Y-112061085D01*
X144566666Y-112061085D02*
X144528571Y-112137276D01*
X144528571Y-112137276D02*
X144490476Y-112289657D01*
X144490476Y-112289657D02*
X144490476Y-112480133D01*
X144490476Y-112480133D02*
X144528571Y-112632514D01*
X144528571Y-112632514D02*
X144566666Y-112708704D01*
X144566666Y-112708704D02*
X144604761Y-112746800D01*
X144604761Y-112746800D02*
X144680952Y-112784895D01*
X144680952Y-112784895D02*
X144757142Y-112784895D01*
X144757142Y-112784895D02*
X144833333Y-112746800D01*
X144833333Y-112746800D02*
X144871428Y-112708704D01*
X144871428Y-112708704D02*
X144909523Y-112632514D01*
X144909523Y-112632514D02*
X144947619Y-112480133D01*
X144947619Y-112480133D02*
X144947619Y-112289657D01*
X144947619Y-112289657D02*
X144909523Y-112137276D01*
X144909523Y-112137276D02*
X144871428Y-112061085D01*
X144871428Y-112061085D02*
X144833333Y-112022990D01*
X144833333Y-112022990D02*
X144757142Y-111984895D01*
X122721561Y-77777619D02*
X123254895Y-77777619D01*
X122416800Y-77587143D02*
X122988228Y-77396666D01*
X122988228Y-77396666D02*
X122988228Y-77891905D01*
X123254895Y-78196667D02*
X122454895Y-78196667D01*
X122950133Y-78272857D02*
X123254895Y-78501429D01*
X122721561Y-78501429D02*
X123026323Y-78196667D01*
X122454895Y-78768095D02*
X122454895Y-79301429D01*
X122454895Y-79301429D02*
X123254895Y-78958571D01*
X121604895Y-77815714D02*
X121223942Y-77549047D01*
X121604895Y-77358571D02*
X120804895Y-77358571D01*
X120804895Y-77358571D02*
X120804895Y-77663333D01*
X120804895Y-77663333D02*
X120842990Y-77739523D01*
X120842990Y-77739523D02*
X120881085Y-77777618D01*
X120881085Y-77777618D02*
X120957276Y-77815714D01*
X120957276Y-77815714D02*
X121071561Y-77815714D01*
X121071561Y-77815714D02*
X121147752Y-77777618D01*
X121147752Y-77777618D02*
X121185847Y-77739523D01*
X121185847Y-77739523D02*
X121223942Y-77663333D01*
X121223942Y-77663333D02*
X121223942Y-77358571D01*
X120881085Y-78120475D02*
X120842990Y-78158571D01*
X120842990Y-78158571D02*
X120804895Y-78234761D01*
X120804895Y-78234761D02*
X120804895Y-78425237D01*
X120804895Y-78425237D02*
X120842990Y-78501428D01*
X120842990Y-78501428D02*
X120881085Y-78539523D01*
X120881085Y-78539523D02*
X120957276Y-78577618D01*
X120957276Y-78577618D02*
X121033466Y-78577618D01*
X121033466Y-78577618D02*
X121147752Y-78539523D01*
X121147752Y-78539523D02*
X121604895Y-78082380D01*
X121604895Y-78082380D02*
X121604895Y-78577618D01*
X120804895Y-78844285D02*
X120804895Y-79339523D01*
X120804895Y-79339523D02*
X121109657Y-79072857D01*
X121109657Y-79072857D02*
X121109657Y-79187142D01*
X121109657Y-79187142D02*
X121147752Y-79263333D01*
X121147752Y-79263333D02*
X121185847Y-79301428D01*
X121185847Y-79301428D02*
X121262038Y-79339523D01*
X121262038Y-79339523D02*
X121452514Y-79339523D01*
X121452514Y-79339523D02*
X121528704Y-79301428D01*
X121528704Y-79301428D02*
X121566800Y-79263333D01*
X121566800Y-79263333D02*
X121604895Y-79187142D01*
X121604895Y-79187142D02*
X121604895Y-78958571D01*
X121604895Y-78958571D02*
X121566800Y-78882380D01*
X121566800Y-78882380D02*
X121528704Y-78844285D01*
X113033333Y-108641085D02*
X112995237Y-108602990D01*
X112995237Y-108602990D02*
X112919047Y-108564895D01*
X112919047Y-108564895D02*
X112728571Y-108564895D01*
X112728571Y-108564895D02*
X112652380Y-108602990D01*
X112652380Y-108602990D02*
X112614285Y-108641085D01*
X112614285Y-108641085D02*
X112576190Y-108717276D01*
X112576190Y-108717276D02*
X112576190Y-108793466D01*
X112576190Y-108793466D02*
X112614285Y-108907752D01*
X112614285Y-108907752D02*
X113071428Y-109364895D01*
X113071428Y-109364895D02*
X112576190Y-109364895D01*
X112233332Y-109364895D02*
X112233332Y-108564895D01*
X112157142Y-109060133D02*
X111928570Y-109364895D01*
X111928570Y-108831561D02*
X112233332Y-109136323D01*
X111623809Y-108641085D02*
X111585713Y-108602990D01*
X111585713Y-108602990D02*
X111509523Y-108564895D01*
X111509523Y-108564895D02*
X111319047Y-108564895D01*
X111319047Y-108564895D02*
X111242856Y-108602990D01*
X111242856Y-108602990D02*
X111204761Y-108641085D01*
X111204761Y-108641085D02*
X111166666Y-108717276D01*
X111166666Y-108717276D02*
X111166666Y-108793466D01*
X111166666Y-108793466D02*
X111204761Y-108907752D01*
X111204761Y-108907752D02*
X111661904Y-109364895D01*
X111661904Y-109364895D02*
X111166666Y-109364895D01*
X112614285Y-107714895D02*
X112880952Y-107333942D01*
X113071428Y-107714895D02*
X113071428Y-106914895D01*
X113071428Y-106914895D02*
X112766666Y-106914895D01*
X112766666Y-106914895D02*
X112690476Y-106952990D01*
X112690476Y-106952990D02*
X112652381Y-106991085D01*
X112652381Y-106991085D02*
X112614285Y-107067276D01*
X112614285Y-107067276D02*
X112614285Y-107181561D01*
X112614285Y-107181561D02*
X112652381Y-107257752D01*
X112652381Y-107257752D02*
X112690476Y-107295847D01*
X112690476Y-107295847D02*
X112766666Y-107333942D01*
X112766666Y-107333942D02*
X113071428Y-107333942D01*
X112309524Y-106991085D02*
X112271428Y-106952990D01*
X112271428Y-106952990D02*
X112195238Y-106914895D01*
X112195238Y-106914895D02*
X112004762Y-106914895D01*
X112004762Y-106914895D02*
X111928571Y-106952990D01*
X111928571Y-106952990D02*
X111890476Y-106991085D01*
X111890476Y-106991085D02*
X111852381Y-107067276D01*
X111852381Y-107067276D02*
X111852381Y-107143466D01*
X111852381Y-107143466D02*
X111890476Y-107257752D01*
X111890476Y-107257752D02*
X112347619Y-107714895D01*
X112347619Y-107714895D02*
X111852381Y-107714895D01*
X111357142Y-106914895D02*
X111280952Y-106914895D01*
X111280952Y-106914895D02*
X111204761Y-106952990D01*
X111204761Y-106952990D02*
X111166666Y-106991085D01*
X111166666Y-106991085D02*
X111128571Y-107067276D01*
X111128571Y-107067276D02*
X111090476Y-107219657D01*
X111090476Y-107219657D02*
X111090476Y-107410133D01*
X111090476Y-107410133D02*
X111128571Y-107562514D01*
X111128571Y-107562514D02*
X111166666Y-107638704D01*
X111166666Y-107638704D02*
X111204761Y-107676800D01*
X111204761Y-107676800D02*
X111280952Y-107714895D01*
X111280952Y-107714895D02*
X111357142Y-107714895D01*
X111357142Y-107714895D02*
X111433333Y-107676800D01*
X111433333Y-107676800D02*
X111471428Y-107638704D01*
X111471428Y-107638704D02*
X111509523Y-107562514D01*
X111509523Y-107562514D02*
X111547619Y-107410133D01*
X111547619Y-107410133D02*
X111547619Y-107219657D01*
X111547619Y-107219657D02*
X111509523Y-107067276D01*
X111509523Y-107067276D02*
X111471428Y-106991085D01*
X111471428Y-106991085D02*
X111433333Y-106952990D01*
X111433333Y-106952990D02*
X111357142Y-106914895D01*
X144959895Y-118171070D02*
X144159895Y-118171070D01*
X144159895Y-118171070D02*
X144731323Y-118437736D01*
X144731323Y-118437736D02*
X144159895Y-118704403D01*
X144159895Y-118704403D02*
X144959895Y-118704403D01*
X144883704Y-119542499D02*
X144921800Y-119504403D01*
X144921800Y-119504403D02*
X144959895Y-119390118D01*
X144959895Y-119390118D02*
X144959895Y-119313927D01*
X144959895Y-119313927D02*
X144921800Y-119199641D01*
X144921800Y-119199641D02*
X144845609Y-119123451D01*
X144845609Y-119123451D02*
X144769419Y-119085356D01*
X144769419Y-119085356D02*
X144617038Y-119047260D01*
X144617038Y-119047260D02*
X144502752Y-119047260D01*
X144502752Y-119047260D02*
X144350371Y-119085356D01*
X144350371Y-119085356D02*
X144274180Y-119123451D01*
X144274180Y-119123451D02*
X144197990Y-119199641D01*
X144197990Y-119199641D02*
X144159895Y-119313927D01*
X144159895Y-119313927D02*
X144159895Y-119390118D01*
X144159895Y-119390118D02*
X144197990Y-119504403D01*
X144197990Y-119504403D02*
X144236085Y-119542499D01*
X144959895Y-119885356D02*
X144159895Y-119885356D01*
X144159895Y-119885356D02*
X144159895Y-120190118D01*
X144159895Y-120190118D02*
X144197990Y-120266308D01*
X144197990Y-120266308D02*
X144236085Y-120304403D01*
X144236085Y-120304403D02*
X144312276Y-120342499D01*
X144312276Y-120342499D02*
X144426561Y-120342499D01*
X144426561Y-120342499D02*
X144502752Y-120304403D01*
X144502752Y-120304403D02*
X144540847Y-120266308D01*
X144540847Y-120266308D02*
X144578942Y-120190118D01*
X144578942Y-120190118D02*
X144578942Y-119885356D01*
X144959895Y-121104403D02*
X144959895Y-120647260D01*
X144959895Y-120875832D02*
X144159895Y-120875832D01*
X144159895Y-120875832D02*
X144274180Y-120799641D01*
X144274180Y-120799641D02*
X144350371Y-120723451D01*
X144350371Y-120723451D02*
X144388466Y-120647260D01*
X144502752Y-121561546D02*
X144464657Y-121485356D01*
X144464657Y-121485356D02*
X144426561Y-121447261D01*
X144426561Y-121447261D02*
X144350371Y-121409165D01*
X144350371Y-121409165D02*
X144312276Y-121409165D01*
X144312276Y-121409165D02*
X144236085Y-121447261D01*
X144236085Y-121447261D02*
X144197990Y-121485356D01*
X144197990Y-121485356D02*
X144159895Y-121561546D01*
X144159895Y-121561546D02*
X144159895Y-121713927D01*
X144159895Y-121713927D02*
X144197990Y-121790118D01*
X144197990Y-121790118D02*
X144236085Y-121828213D01*
X144236085Y-121828213D02*
X144312276Y-121866308D01*
X144312276Y-121866308D02*
X144350371Y-121866308D01*
X144350371Y-121866308D02*
X144426561Y-121828213D01*
X144426561Y-121828213D02*
X144464657Y-121790118D01*
X144464657Y-121790118D02*
X144502752Y-121713927D01*
X144502752Y-121713927D02*
X144502752Y-121561546D01*
X144502752Y-121561546D02*
X144540847Y-121485356D01*
X144540847Y-121485356D02*
X144578942Y-121447261D01*
X144578942Y-121447261D02*
X144655133Y-121409165D01*
X144655133Y-121409165D02*
X144807514Y-121409165D01*
X144807514Y-121409165D02*
X144883704Y-121447261D01*
X144883704Y-121447261D02*
X144921800Y-121485356D01*
X144921800Y-121485356D02*
X144959895Y-121561546D01*
X144959895Y-121561546D02*
X144959895Y-121713927D01*
X144959895Y-121713927D02*
X144921800Y-121790118D01*
X144921800Y-121790118D02*
X144883704Y-121828213D01*
X144883704Y-121828213D02*
X144807514Y-121866308D01*
X144807514Y-121866308D02*
X144655133Y-121866308D01*
X144655133Y-121866308D02*
X144578942Y-121828213D01*
X144578942Y-121828213D02*
X144540847Y-121790118D01*
X144540847Y-121790118D02*
X144502752Y-121713927D01*
X144236085Y-122171070D02*
X144197990Y-122209166D01*
X144197990Y-122209166D02*
X144159895Y-122285356D01*
X144159895Y-122285356D02*
X144159895Y-122475832D01*
X144159895Y-122475832D02*
X144197990Y-122552023D01*
X144197990Y-122552023D02*
X144236085Y-122590118D01*
X144236085Y-122590118D02*
X144312276Y-122628213D01*
X144312276Y-122628213D02*
X144388466Y-122628213D01*
X144388466Y-122628213D02*
X144502752Y-122590118D01*
X144502752Y-122590118D02*
X144959895Y-122132975D01*
X144959895Y-122132975D02*
X144959895Y-122628213D01*
X144159895Y-123313928D02*
X144159895Y-123161547D01*
X144159895Y-123161547D02*
X144197990Y-123085356D01*
X144197990Y-123085356D02*
X144236085Y-123047261D01*
X144236085Y-123047261D02*
X144350371Y-122971071D01*
X144350371Y-122971071D02*
X144502752Y-122932975D01*
X144502752Y-122932975D02*
X144807514Y-122932975D01*
X144807514Y-122932975D02*
X144883704Y-122971071D01*
X144883704Y-122971071D02*
X144921800Y-123009166D01*
X144921800Y-123009166D02*
X144959895Y-123085356D01*
X144959895Y-123085356D02*
X144959895Y-123237737D01*
X144959895Y-123237737D02*
X144921800Y-123313928D01*
X144921800Y-123313928D02*
X144883704Y-123352023D01*
X144883704Y-123352023D02*
X144807514Y-123390118D01*
X144807514Y-123390118D02*
X144617038Y-123390118D01*
X144617038Y-123390118D02*
X144540847Y-123352023D01*
X144540847Y-123352023D02*
X144502752Y-123313928D01*
X144502752Y-123313928D02*
X144464657Y-123237737D01*
X144464657Y-123237737D02*
X144464657Y-123085356D01*
X144464657Y-123085356D02*
X144502752Y-123009166D01*
X144502752Y-123009166D02*
X144540847Y-122971071D01*
X144540847Y-122971071D02*
X144617038Y-122932975D01*
X144921800Y-123694880D02*
X144959895Y-123809166D01*
X144959895Y-123809166D02*
X144959895Y-123999642D01*
X144959895Y-123999642D02*
X144921800Y-124075833D01*
X144921800Y-124075833D02*
X144883704Y-124113928D01*
X144883704Y-124113928D02*
X144807514Y-124152023D01*
X144807514Y-124152023D02*
X144731323Y-124152023D01*
X144731323Y-124152023D02*
X144655133Y-124113928D01*
X144655133Y-124113928D02*
X144617038Y-124075833D01*
X144617038Y-124075833D02*
X144578942Y-123999642D01*
X144578942Y-123999642D02*
X144540847Y-123847261D01*
X144540847Y-123847261D02*
X144502752Y-123771071D01*
X144502752Y-123771071D02*
X144464657Y-123732976D01*
X144464657Y-123732976D02*
X144388466Y-123694880D01*
X144388466Y-123694880D02*
X144312276Y-123694880D01*
X144312276Y-123694880D02*
X144236085Y-123732976D01*
X144236085Y-123732976D02*
X144197990Y-123771071D01*
X144197990Y-123771071D02*
X144159895Y-123847261D01*
X144159895Y-123847261D02*
X144159895Y-124037738D01*
X144159895Y-124037738D02*
X144197990Y-124152023D01*
X144655133Y-124494881D02*
X144655133Y-125104405D01*
X144159895Y-125409166D02*
X144159895Y-125904404D01*
X144159895Y-125904404D02*
X144464657Y-125637738D01*
X144464657Y-125637738D02*
X144464657Y-125752023D01*
X144464657Y-125752023D02*
X144502752Y-125828214D01*
X144502752Y-125828214D02*
X144540847Y-125866309D01*
X144540847Y-125866309D02*
X144617038Y-125904404D01*
X144617038Y-125904404D02*
X144807514Y-125904404D01*
X144807514Y-125904404D02*
X144883704Y-125866309D01*
X144883704Y-125866309D02*
X144921800Y-125828214D01*
X144921800Y-125828214D02*
X144959895Y-125752023D01*
X144959895Y-125752023D02*
X144959895Y-125523452D01*
X144959895Y-125523452D02*
X144921800Y-125447261D01*
X144921800Y-125447261D02*
X144883704Y-125409166D01*
X144159895Y-126171071D02*
X144159895Y-126666309D01*
X144159895Y-126666309D02*
X144464657Y-126399643D01*
X144464657Y-126399643D02*
X144464657Y-126513928D01*
X144464657Y-126513928D02*
X144502752Y-126590119D01*
X144502752Y-126590119D02*
X144540847Y-126628214D01*
X144540847Y-126628214D02*
X144617038Y-126666309D01*
X144617038Y-126666309D02*
X144807514Y-126666309D01*
X144807514Y-126666309D02*
X144883704Y-126628214D01*
X144883704Y-126628214D02*
X144921800Y-126590119D01*
X144921800Y-126590119D02*
X144959895Y-126513928D01*
X144959895Y-126513928D02*
X144959895Y-126285357D01*
X144959895Y-126285357D02*
X144921800Y-126209166D01*
X144921800Y-126209166D02*
X144883704Y-126171071D01*
X144159895Y-127161548D02*
X144159895Y-127237738D01*
X144159895Y-127237738D02*
X144197990Y-127313929D01*
X144197990Y-127313929D02*
X144236085Y-127352024D01*
X144236085Y-127352024D02*
X144312276Y-127390119D01*
X144312276Y-127390119D02*
X144464657Y-127428214D01*
X144464657Y-127428214D02*
X144655133Y-127428214D01*
X144655133Y-127428214D02*
X144807514Y-127390119D01*
X144807514Y-127390119D02*
X144883704Y-127352024D01*
X144883704Y-127352024D02*
X144921800Y-127313929D01*
X144921800Y-127313929D02*
X144959895Y-127237738D01*
X144959895Y-127237738D02*
X144959895Y-127161548D01*
X144959895Y-127161548D02*
X144921800Y-127085357D01*
X144921800Y-127085357D02*
X144883704Y-127047262D01*
X144883704Y-127047262D02*
X144807514Y-127009167D01*
X144807514Y-127009167D02*
X144655133Y-126971071D01*
X144655133Y-126971071D02*
X144464657Y-126971071D01*
X144464657Y-126971071D02*
X144312276Y-127009167D01*
X144312276Y-127009167D02*
X144236085Y-127047262D01*
X144236085Y-127047262D02*
X144197990Y-127085357D01*
X144197990Y-127085357D02*
X144159895Y-127161548D01*
X144236085Y-127732976D02*
X144197990Y-127771072D01*
X144197990Y-127771072D02*
X144159895Y-127847262D01*
X144159895Y-127847262D02*
X144159895Y-128037738D01*
X144159895Y-128037738D02*
X144197990Y-128113929D01*
X144197990Y-128113929D02*
X144236085Y-128152024D01*
X144236085Y-128152024D02*
X144312276Y-128190119D01*
X144312276Y-128190119D02*
X144388466Y-128190119D01*
X144388466Y-128190119D02*
X144502752Y-128152024D01*
X144502752Y-128152024D02*
X144959895Y-127694881D01*
X144959895Y-127694881D02*
X144959895Y-128190119D01*
X144540847Y-128532977D02*
X144540847Y-128799643D01*
X144959895Y-128913929D02*
X144959895Y-128532977D01*
X144959895Y-128532977D02*
X144159895Y-128532977D01*
X144159895Y-128532977D02*
X144159895Y-128913929D01*
X144121800Y-129828215D02*
X145150371Y-129142501D01*
X144959895Y-130094882D02*
X144159895Y-130094882D01*
X144159895Y-130094882D02*
X144159895Y-130285358D01*
X144159895Y-130285358D02*
X144197990Y-130399644D01*
X144197990Y-130399644D02*
X144274180Y-130475834D01*
X144274180Y-130475834D02*
X144350371Y-130513929D01*
X144350371Y-130513929D02*
X144502752Y-130552025D01*
X144502752Y-130552025D02*
X144617038Y-130552025D01*
X144617038Y-130552025D02*
X144769419Y-130513929D01*
X144769419Y-130513929D02*
X144845609Y-130475834D01*
X144845609Y-130475834D02*
X144921800Y-130399644D01*
X144921800Y-130399644D02*
X144959895Y-130285358D01*
X144959895Y-130285358D02*
X144959895Y-130094882D01*
X144540847Y-131161548D02*
X144578942Y-131275834D01*
X144578942Y-131275834D02*
X144617038Y-131313929D01*
X144617038Y-131313929D02*
X144693228Y-131352025D01*
X144693228Y-131352025D02*
X144807514Y-131352025D01*
X144807514Y-131352025D02*
X144883704Y-131313929D01*
X144883704Y-131313929D02*
X144921800Y-131275834D01*
X144921800Y-131275834D02*
X144959895Y-131199644D01*
X144959895Y-131199644D02*
X144959895Y-130894882D01*
X144959895Y-130894882D02*
X144159895Y-130894882D01*
X144159895Y-130894882D02*
X144159895Y-131161548D01*
X144159895Y-131161548D02*
X144197990Y-131237739D01*
X144197990Y-131237739D02*
X144236085Y-131275834D01*
X144236085Y-131275834D02*
X144312276Y-131313929D01*
X144312276Y-131313929D02*
X144388466Y-131313929D01*
X144388466Y-131313929D02*
X144464657Y-131275834D01*
X144464657Y-131275834D02*
X144502752Y-131237739D01*
X144502752Y-131237739D02*
X144540847Y-131161548D01*
X144540847Y-131161548D02*
X144540847Y-130894882D01*
X135345238Y-55195847D02*
X135078572Y-55195847D01*
X134964286Y-55614895D02*
X135345238Y-55614895D01*
X135345238Y-55614895D02*
X135345238Y-54814895D01*
X135345238Y-54814895D02*
X134964286Y-54814895D01*
X134659524Y-55576800D02*
X134545238Y-55614895D01*
X134545238Y-55614895D02*
X134354762Y-55614895D01*
X134354762Y-55614895D02*
X134278571Y-55576800D01*
X134278571Y-55576800D02*
X134240476Y-55538704D01*
X134240476Y-55538704D02*
X134202381Y-55462514D01*
X134202381Y-55462514D02*
X134202381Y-55386323D01*
X134202381Y-55386323D02*
X134240476Y-55310133D01*
X134240476Y-55310133D02*
X134278571Y-55272038D01*
X134278571Y-55272038D02*
X134354762Y-55233942D01*
X134354762Y-55233942D02*
X134507143Y-55195847D01*
X134507143Y-55195847D02*
X134583333Y-55157752D01*
X134583333Y-55157752D02*
X134621428Y-55119657D01*
X134621428Y-55119657D02*
X134659524Y-55043466D01*
X134659524Y-55043466D02*
X134659524Y-54967276D01*
X134659524Y-54967276D02*
X134621428Y-54891085D01*
X134621428Y-54891085D02*
X134583333Y-54852990D01*
X134583333Y-54852990D02*
X134507143Y-54814895D01*
X134507143Y-54814895D02*
X134316666Y-54814895D01*
X134316666Y-54814895D02*
X134202381Y-54852990D01*
X133859523Y-55614895D02*
X133859523Y-54814895D01*
X133859523Y-54814895D02*
X133554761Y-54814895D01*
X133554761Y-54814895D02*
X133478571Y-54852990D01*
X133478571Y-54852990D02*
X133440476Y-54891085D01*
X133440476Y-54891085D02*
X133402380Y-54967276D01*
X133402380Y-54967276D02*
X133402380Y-55081561D01*
X133402380Y-55081561D02*
X133440476Y-55157752D01*
X133440476Y-55157752D02*
X133478571Y-55195847D01*
X133478571Y-55195847D02*
X133554761Y-55233942D01*
X133554761Y-55233942D02*
X133859523Y-55233942D01*
X133135714Y-54814895D02*
X132640476Y-54814895D01*
X132640476Y-54814895D02*
X132907142Y-55119657D01*
X132907142Y-55119657D02*
X132792857Y-55119657D01*
X132792857Y-55119657D02*
X132716666Y-55157752D01*
X132716666Y-55157752D02*
X132678571Y-55195847D01*
X132678571Y-55195847D02*
X132640476Y-55272038D01*
X132640476Y-55272038D02*
X132640476Y-55462514D01*
X132640476Y-55462514D02*
X132678571Y-55538704D01*
X132678571Y-55538704D02*
X132716666Y-55576800D01*
X132716666Y-55576800D02*
X132792857Y-55614895D01*
X132792857Y-55614895D02*
X133021428Y-55614895D01*
X133021428Y-55614895D02*
X133097619Y-55576800D01*
X133097619Y-55576800D02*
X133135714Y-55538704D01*
X132335714Y-54891085D02*
X132297618Y-54852990D01*
X132297618Y-54852990D02*
X132221428Y-54814895D01*
X132221428Y-54814895D02*
X132030952Y-54814895D01*
X132030952Y-54814895D02*
X131954761Y-54852990D01*
X131954761Y-54852990D02*
X131916666Y-54891085D01*
X131916666Y-54891085D02*
X131878571Y-54967276D01*
X131878571Y-54967276D02*
X131878571Y-55043466D01*
X131878571Y-55043466D02*
X131916666Y-55157752D01*
X131916666Y-55157752D02*
X132373809Y-55614895D01*
X132373809Y-55614895D02*
X131878571Y-55614895D01*
X131535713Y-55310133D02*
X130926190Y-55310133D01*
X130583333Y-55576800D02*
X130469047Y-55614895D01*
X130469047Y-55614895D02*
X130278571Y-55614895D01*
X130278571Y-55614895D02*
X130202380Y-55576800D01*
X130202380Y-55576800D02*
X130164285Y-55538704D01*
X130164285Y-55538704D02*
X130126190Y-55462514D01*
X130126190Y-55462514D02*
X130126190Y-55386323D01*
X130126190Y-55386323D02*
X130164285Y-55310133D01*
X130164285Y-55310133D02*
X130202380Y-55272038D01*
X130202380Y-55272038D02*
X130278571Y-55233942D01*
X130278571Y-55233942D02*
X130430952Y-55195847D01*
X130430952Y-55195847D02*
X130507142Y-55157752D01*
X130507142Y-55157752D02*
X130545237Y-55119657D01*
X130545237Y-55119657D02*
X130583333Y-55043466D01*
X130583333Y-55043466D02*
X130583333Y-54967276D01*
X130583333Y-54967276D02*
X130545237Y-54891085D01*
X130545237Y-54891085D02*
X130507142Y-54852990D01*
X130507142Y-54852990D02*
X130430952Y-54814895D01*
X130430952Y-54814895D02*
X130240475Y-54814895D01*
X130240475Y-54814895D02*
X130126190Y-54852990D01*
X129859523Y-54814895D02*
X129364285Y-54814895D01*
X129364285Y-54814895D02*
X129630951Y-55119657D01*
X129630951Y-55119657D02*
X129516666Y-55119657D01*
X129516666Y-55119657D02*
X129440475Y-55157752D01*
X129440475Y-55157752D02*
X129402380Y-55195847D01*
X129402380Y-55195847D02*
X129364285Y-55272038D01*
X129364285Y-55272038D02*
X129364285Y-55462514D01*
X129364285Y-55462514D02*
X129402380Y-55538704D01*
X129402380Y-55538704D02*
X129440475Y-55576800D01*
X129440475Y-55576800D02*
X129516666Y-55614895D01*
X129516666Y-55614895D02*
X129745237Y-55614895D01*
X129745237Y-55614895D02*
X129821428Y-55576800D01*
X129821428Y-55576800D02*
X129859523Y-55538704D01*
X129021427Y-55310133D02*
X128411904Y-55310133D01*
X128107142Y-54814895D02*
X127916666Y-55614895D01*
X127916666Y-55614895D02*
X127764285Y-55043466D01*
X127764285Y-55043466D02*
X127611904Y-55614895D01*
X127611904Y-55614895D02*
X127421428Y-54814895D01*
X126659522Y-55614895D02*
X126926189Y-55233942D01*
X127116665Y-55614895D02*
X127116665Y-54814895D01*
X127116665Y-54814895D02*
X126811903Y-54814895D01*
X126811903Y-54814895D02*
X126735713Y-54852990D01*
X126735713Y-54852990D02*
X126697618Y-54891085D01*
X126697618Y-54891085D02*
X126659522Y-54967276D01*
X126659522Y-54967276D02*
X126659522Y-55081561D01*
X126659522Y-55081561D02*
X126697618Y-55157752D01*
X126697618Y-55157752D02*
X126735713Y-55195847D01*
X126735713Y-55195847D02*
X126811903Y-55233942D01*
X126811903Y-55233942D02*
X127116665Y-55233942D01*
X126164284Y-54814895D02*
X126011903Y-54814895D01*
X126011903Y-54814895D02*
X125935713Y-54852990D01*
X125935713Y-54852990D02*
X125859522Y-54929180D01*
X125859522Y-54929180D02*
X125821427Y-55081561D01*
X125821427Y-55081561D02*
X125821427Y-55348228D01*
X125821427Y-55348228D02*
X125859522Y-55500609D01*
X125859522Y-55500609D02*
X125935713Y-55576800D01*
X125935713Y-55576800D02*
X126011903Y-55614895D01*
X126011903Y-55614895D02*
X126164284Y-55614895D01*
X126164284Y-55614895D02*
X126240475Y-55576800D01*
X126240475Y-55576800D02*
X126316665Y-55500609D01*
X126316665Y-55500609D02*
X126354761Y-55348228D01*
X126354761Y-55348228D02*
X126354761Y-55081561D01*
X126354761Y-55081561D02*
X126316665Y-54929180D01*
X126316665Y-54929180D02*
X126240475Y-54852990D01*
X126240475Y-54852990D02*
X126164284Y-54814895D01*
X125326189Y-54814895D02*
X125173808Y-54814895D01*
X125173808Y-54814895D02*
X125097618Y-54852990D01*
X125097618Y-54852990D02*
X125021427Y-54929180D01*
X125021427Y-54929180D02*
X124983332Y-55081561D01*
X124983332Y-55081561D02*
X124983332Y-55348228D01*
X124983332Y-55348228D02*
X125021427Y-55500609D01*
X125021427Y-55500609D02*
X125097618Y-55576800D01*
X125097618Y-55576800D02*
X125173808Y-55614895D01*
X125173808Y-55614895D02*
X125326189Y-55614895D01*
X125326189Y-55614895D02*
X125402380Y-55576800D01*
X125402380Y-55576800D02*
X125478570Y-55500609D01*
X125478570Y-55500609D02*
X125516666Y-55348228D01*
X125516666Y-55348228D02*
X125516666Y-55081561D01*
X125516666Y-55081561D02*
X125478570Y-54929180D01*
X125478570Y-54929180D02*
X125402380Y-54852990D01*
X125402380Y-54852990D02*
X125326189Y-54814895D01*
X124640475Y-55614895D02*
X124640475Y-54814895D01*
X124640475Y-54814895D02*
X124373809Y-55386323D01*
X124373809Y-55386323D02*
X124107142Y-54814895D01*
X124107142Y-54814895D02*
X124107142Y-55614895D01*
X123726189Y-55310133D02*
X123116666Y-55310133D01*
X122316666Y-55614895D02*
X122773809Y-55614895D01*
X122545237Y-55614895D02*
X122545237Y-54814895D01*
X122545237Y-54814895D02*
X122621428Y-54929180D01*
X122621428Y-54929180D02*
X122697618Y-55005371D01*
X122697618Y-55005371D02*
X122773809Y-55043466D01*
X129459523Y-39614895D02*
X129459523Y-40262514D01*
X129459523Y-40262514D02*
X129421428Y-40338704D01*
X129421428Y-40338704D02*
X129383333Y-40376800D01*
X129383333Y-40376800D02*
X129307142Y-40414895D01*
X129307142Y-40414895D02*
X129154761Y-40414895D01*
X129154761Y-40414895D02*
X129078571Y-40376800D01*
X129078571Y-40376800D02*
X129040476Y-40338704D01*
X129040476Y-40338704D02*
X129002380Y-40262514D01*
X129002380Y-40262514D02*
X129002380Y-39614895D01*
X128202381Y-40414895D02*
X128659524Y-40414895D01*
X128430952Y-40414895D02*
X128430952Y-39614895D01*
X128430952Y-39614895D02*
X128507143Y-39729180D01*
X128507143Y-39729180D02*
X128583333Y-39805371D01*
X128583333Y-39805371D02*
X128659524Y-39843466D01*
X135114286Y-114934895D02*
X135571429Y-114934895D01*
X135342857Y-114934895D02*
X135342857Y-114134895D01*
X135342857Y-114134895D02*
X135419048Y-114249180D01*
X135419048Y-114249180D02*
X135495238Y-114325371D01*
X135495238Y-114325371D02*
X135571429Y-114363466D01*
X134619047Y-114134895D02*
X134542857Y-114134895D01*
X134542857Y-114134895D02*
X134466666Y-114172990D01*
X134466666Y-114172990D02*
X134428571Y-114211085D01*
X134428571Y-114211085D02*
X134390476Y-114287276D01*
X134390476Y-114287276D02*
X134352381Y-114439657D01*
X134352381Y-114439657D02*
X134352381Y-114630133D01*
X134352381Y-114630133D02*
X134390476Y-114782514D01*
X134390476Y-114782514D02*
X134428571Y-114858704D01*
X134428571Y-114858704D02*
X134466666Y-114896800D01*
X134466666Y-114896800D02*
X134542857Y-114934895D01*
X134542857Y-114934895D02*
X134619047Y-114934895D01*
X134619047Y-114934895D02*
X134695238Y-114896800D01*
X134695238Y-114896800D02*
X134733333Y-114858704D01*
X134733333Y-114858704D02*
X134771428Y-114782514D01*
X134771428Y-114782514D02*
X134809524Y-114630133D01*
X134809524Y-114630133D02*
X134809524Y-114439657D01*
X134809524Y-114439657D02*
X134771428Y-114287276D01*
X134771428Y-114287276D02*
X134733333Y-114211085D01*
X134733333Y-114211085D02*
X134695238Y-114172990D01*
X134695238Y-114172990D02*
X134619047Y-114134895D01*
X133666666Y-114401561D02*
X133666666Y-114934895D01*
X134009523Y-114401561D02*
X134009523Y-114820609D01*
X134009523Y-114820609D02*
X133971428Y-114896800D01*
X133971428Y-114896800D02*
X133895238Y-114934895D01*
X133895238Y-114934895D02*
X133780952Y-114934895D01*
X133780952Y-114934895D02*
X133704761Y-114896800D01*
X133704761Y-114896800D02*
X133666666Y-114858704D01*
X135114285Y-113178704D02*
X135152381Y-113216800D01*
X135152381Y-113216800D02*
X135266666Y-113254895D01*
X135266666Y-113254895D02*
X135342857Y-113254895D01*
X135342857Y-113254895D02*
X135457143Y-113216800D01*
X135457143Y-113216800D02*
X135533333Y-113140609D01*
X135533333Y-113140609D02*
X135571428Y-113064419D01*
X135571428Y-113064419D02*
X135609524Y-112912038D01*
X135609524Y-112912038D02*
X135609524Y-112797752D01*
X135609524Y-112797752D02*
X135571428Y-112645371D01*
X135571428Y-112645371D02*
X135533333Y-112569180D01*
X135533333Y-112569180D02*
X135457143Y-112492990D01*
X135457143Y-112492990D02*
X135342857Y-112454895D01*
X135342857Y-112454895D02*
X135266666Y-112454895D01*
X135266666Y-112454895D02*
X135152381Y-112492990D01*
X135152381Y-112492990D02*
X135114285Y-112531085D01*
X134809524Y-112531085D02*
X134771428Y-112492990D01*
X134771428Y-112492990D02*
X134695238Y-112454895D01*
X134695238Y-112454895D02*
X134504762Y-112454895D01*
X134504762Y-112454895D02*
X134428571Y-112492990D01*
X134428571Y-112492990D02*
X134390476Y-112531085D01*
X134390476Y-112531085D02*
X134352381Y-112607276D01*
X134352381Y-112607276D02*
X134352381Y-112683466D01*
X134352381Y-112683466D02*
X134390476Y-112797752D01*
X134390476Y-112797752D02*
X134847619Y-113254895D01*
X134847619Y-113254895D02*
X134352381Y-113254895D01*
X134047619Y-112531085D02*
X134009523Y-112492990D01*
X134009523Y-112492990D02*
X133933333Y-112454895D01*
X133933333Y-112454895D02*
X133742857Y-112454895D01*
X133742857Y-112454895D02*
X133666666Y-112492990D01*
X133666666Y-112492990D02*
X133628571Y-112531085D01*
X133628571Y-112531085D02*
X133590476Y-112607276D01*
X133590476Y-112607276D02*
X133590476Y-112683466D01*
X133590476Y-112683466D02*
X133628571Y-112797752D01*
X133628571Y-112797752D02*
X134085714Y-113254895D01*
X134085714Y-113254895D02*
X133590476Y-113254895D01*
X136906190Y-125884895D02*
X137363333Y-125884895D01*
X137134761Y-125884895D02*
X137134761Y-125084895D01*
X137134761Y-125084895D02*
X137210952Y-125199180D01*
X137210952Y-125199180D02*
X137287142Y-125275371D01*
X137287142Y-125275371D02*
X137363333Y-125313466D01*
X136410951Y-125084895D02*
X136334761Y-125084895D01*
X136334761Y-125084895D02*
X136258570Y-125122990D01*
X136258570Y-125122990D02*
X136220475Y-125161085D01*
X136220475Y-125161085D02*
X136182380Y-125237276D01*
X136182380Y-125237276D02*
X136144285Y-125389657D01*
X136144285Y-125389657D02*
X136144285Y-125580133D01*
X136144285Y-125580133D02*
X136182380Y-125732514D01*
X136182380Y-125732514D02*
X136220475Y-125808704D01*
X136220475Y-125808704D02*
X136258570Y-125846800D01*
X136258570Y-125846800D02*
X136334761Y-125884895D01*
X136334761Y-125884895D02*
X136410951Y-125884895D01*
X136410951Y-125884895D02*
X136487142Y-125846800D01*
X136487142Y-125846800D02*
X136525237Y-125808704D01*
X136525237Y-125808704D02*
X136563332Y-125732514D01*
X136563332Y-125732514D02*
X136601428Y-125580133D01*
X136601428Y-125580133D02*
X136601428Y-125389657D01*
X136601428Y-125389657D02*
X136563332Y-125237276D01*
X136563332Y-125237276D02*
X136525237Y-125161085D01*
X136525237Y-125161085D02*
X136487142Y-125122990D01*
X136487142Y-125122990D02*
X136410951Y-125084895D01*
X135801427Y-125884895D02*
X135801427Y-125084895D01*
X135725237Y-125580133D02*
X135496665Y-125884895D01*
X135496665Y-125351561D02*
X135801427Y-125656323D01*
X136944285Y-124234895D02*
X137210952Y-123853942D01*
X137401428Y-124234895D02*
X137401428Y-123434895D01*
X137401428Y-123434895D02*
X137096666Y-123434895D01*
X137096666Y-123434895D02*
X137020476Y-123472990D01*
X137020476Y-123472990D02*
X136982381Y-123511085D01*
X136982381Y-123511085D02*
X136944285Y-123587276D01*
X136944285Y-123587276D02*
X136944285Y-123701561D01*
X136944285Y-123701561D02*
X136982381Y-123777752D01*
X136982381Y-123777752D02*
X137020476Y-123815847D01*
X137020476Y-123815847D02*
X137096666Y-123853942D01*
X137096666Y-123853942D02*
X137401428Y-123853942D01*
X136258571Y-123701561D02*
X136258571Y-124234895D01*
X136449047Y-123396800D02*
X136639524Y-123968228D01*
X136639524Y-123968228D02*
X136144285Y-123968228D01*
X135687142Y-123434895D02*
X135610952Y-123434895D01*
X135610952Y-123434895D02*
X135534761Y-123472990D01*
X135534761Y-123472990D02*
X135496666Y-123511085D01*
X135496666Y-123511085D02*
X135458571Y-123587276D01*
X135458571Y-123587276D02*
X135420476Y-123739657D01*
X135420476Y-123739657D02*
X135420476Y-123930133D01*
X135420476Y-123930133D02*
X135458571Y-124082514D01*
X135458571Y-124082514D02*
X135496666Y-124158704D01*
X135496666Y-124158704D02*
X135534761Y-124196800D01*
X135534761Y-124196800D02*
X135610952Y-124234895D01*
X135610952Y-124234895D02*
X135687142Y-124234895D01*
X135687142Y-124234895D02*
X135763333Y-124196800D01*
X135763333Y-124196800D02*
X135801428Y-124158704D01*
X135801428Y-124158704D02*
X135839523Y-124082514D01*
X135839523Y-124082514D02*
X135877619Y-123930133D01*
X135877619Y-123930133D02*
X135877619Y-123739657D01*
X135877619Y-123739657D02*
X135839523Y-123587276D01*
X135839523Y-123587276D02*
X135801428Y-123511085D01*
X135801428Y-123511085D02*
X135763333Y-123472990D01*
X135763333Y-123472990D02*
X135687142Y-123434895D01*
X108621561Y-48147619D02*
X109154895Y-48147619D01*
X108316800Y-47957143D02*
X108888228Y-47766666D01*
X108888228Y-47766666D02*
X108888228Y-48261905D01*
X108354895Y-48490476D02*
X108354895Y-49023810D01*
X108354895Y-49023810D02*
X109154895Y-48680952D01*
X109154895Y-49328572D02*
X108354895Y-49328572D01*
X108850133Y-49404762D02*
X109154895Y-49633334D01*
X108621561Y-49633334D02*
X108926323Y-49328572D01*
X107504895Y-48185714D02*
X107123942Y-47919047D01*
X107504895Y-47728571D02*
X106704895Y-47728571D01*
X106704895Y-47728571D02*
X106704895Y-48033333D01*
X106704895Y-48033333D02*
X106742990Y-48109523D01*
X106742990Y-48109523D02*
X106781085Y-48147618D01*
X106781085Y-48147618D02*
X106857276Y-48185714D01*
X106857276Y-48185714D02*
X106971561Y-48185714D01*
X106971561Y-48185714D02*
X107047752Y-48147618D01*
X107047752Y-48147618D02*
X107085847Y-48109523D01*
X107085847Y-48109523D02*
X107123942Y-48033333D01*
X107123942Y-48033333D02*
X107123942Y-47728571D01*
X106781085Y-48490475D02*
X106742990Y-48528571D01*
X106742990Y-48528571D02*
X106704895Y-48604761D01*
X106704895Y-48604761D02*
X106704895Y-48795237D01*
X106704895Y-48795237D02*
X106742990Y-48871428D01*
X106742990Y-48871428D02*
X106781085Y-48909523D01*
X106781085Y-48909523D02*
X106857276Y-48947618D01*
X106857276Y-48947618D02*
X106933466Y-48947618D01*
X106933466Y-48947618D02*
X107047752Y-48909523D01*
X107047752Y-48909523D02*
X107504895Y-48452380D01*
X107504895Y-48452380D02*
X107504895Y-48947618D01*
X106781085Y-49252380D02*
X106742990Y-49290476D01*
X106742990Y-49290476D02*
X106704895Y-49366666D01*
X106704895Y-49366666D02*
X106704895Y-49557142D01*
X106704895Y-49557142D02*
X106742990Y-49633333D01*
X106742990Y-49633333D02*
X106781085Y-49671428D01*
X106781085Y-49671428D02*
X106857276Y-49709523D01*
X106857276Y-49709523D02*
X106933466Y-49709523D01*
X106933466Y-49709523D02*
X107047752Y-49671428D01*
X107047752Y-49671428D02*
X107504895Y-49214285D01*
X107504895Y-49214285D02*
X107504895Y-49709523D01*
X117634895Y-52982380D02*
X117634895Y-53477618D01*
X117634895Y-53477618D02*
X117939657Y-53210952D01*
X117939657Y-53210952D02*
X117939657Y-53325237D01*
X117939657Y-53325237D02*
X117977752Y-53401428D01*
X117977752Y-53401428D02*
X118015847Y-53439523D01*
X118015847Y-53439523D02*
X118092038Y-53477618D01*
X118092038Y-53477618D02*
X118282514Y-53477618D01*
X118282514Y-53477618D02*
X118358704Y-53439523D01*
X118358704Y-53439523D02*
X118396800Y-53401428D01*
X118396800Y-53401428D02*
X118434895Y-53325237D01*
X118434895Y-53325237D02*
X118434895Y-53096666D01*
X118434895Y-53096666D02*
X118396800Y-53020475D01*
X118396800Y-53020475D02*
X118358704Y-52982380D01*
X117634895Y-53744285D02*
X117634895Y-54239523D01*
X117634895Y-54239523D02*
X117939657Y-53972857D01*
X117939657Y-53972857D02*
X117939657Y-54087142D01*
X117939657Y-54087142D02*
X117977752Y-54163333D01*
X117977752Y-54163333D02*
X118015847Y-54201428D01*
X118015847Y-54201428D02*
X118092038Y-54239523D01*
X118092038Y-54239523D02*
X118282514Y-54239523D01*
X118282514Y-54239523D02*
X118358704Y-54201428D01*
X118358704Y-54201428D02*
X118396800Y-54163333D01*
X118396800Y-54163333D02*
X118434895Y-54087142D01*
X118434895Y-54087142D02*
X118434895Y-53858571D01*
X118434895Y-53858571D02*
X118396800Y-53782380D01*
X118396800Y-53782380D02*
X118358704Y-53744285D01*
X118434895Y-55039524D02*
X118053942Y-54772857D01*
X118434895Y-54582381D02*
X117634895Y-54582381D01*
X117634895Y-54582381D02*
X117634895Y-54887143D01*
X117634895Y-54887143D02*
X117672990Y-54963333D01*
X117672990Y-54963333D02*
X117711085Y-55001428D01*
X117711085Y-55001428D02*
X117787276Y-55039524D01*
X117787276Y-55039524D02*
X117901561Y-55039524D01*
X117901561Y-55039524D02*
X117977752Y-55001428D01*
X117977752Y-55001428D02*
X118015847Y-54963333D01*
X118015847Y-54963333D02*
X118053942Y-54887143D01*
X118053942Y-54887143D02*
X118053942Y-54582381D01*
X116784895Y-53515714D02*
X116403942Y-53249047D01*
X116784895Y-53058571D02*
X115984895Y-53058571D01*
X115984895Y-53058571D02*
X115984895Y-53363333D01*
X115984895Y-53363333D02*
X116022990Y-53439523D01*
X116022990Y-53439523D02*
X116061085Y-53477618D01*
X116061085Y-53477618D02*
X116137276Y-53515714D01*
X116137276Y-53515714D02*
X116251561Y-53515714D01*
X116251561Y-53515714D02*
X116327752Y-53477618D01*
X116327752Y-53477618D02*
X116365847Y-53439523D01*
X116365847Y-53439523D02*
X116403942Y-53363333D01*
X116403942Y-53363333D02*
X116403942Y-53058571D01*
X116784895Y-54277618D02*
X116784895Y-53820475D01*
X116784895Y-54049047D02*
X115984895Y-54049047D01*
X115984895Y-54049047D02*
X116099180Y-53972856D01*
X116099180Y-53972856D02*
X116175371Y-53896666D01*
X116175371Y-53896666D02*
X116213466Y-53820475D01*
X116327752Y-54734761D02*
X116289657Y-54658571D01*
X116289657Y-54658571D02*
X116251561Y-54620476D01*
X116251561Y-54620476D02*
X116175371Y-54582380D01*
X116175371Y-54582380D02*
X116137276Y-54582380D01*
X116137276Y-54582380D02*
X116061085Y-54620476D01*
X116061085Y-54620476D02*
X116022990Y-54658571D01*
X116022990Y-54658571D02*
X115984895Y-54734761D01*
X115984895Y-54734761D02*
X115984895Y-54887142D01*
X115984895Y-54887142D02*
X116022990Y-54963333D01*
X116022990Y-54963333D02*
X116061085Y-55001428D01*
X116061085Y-55001428D02*
X116137276Y-55039523D01*
X116137276Y-55039523D02*
X116175371Y-55039523D01*
X116175371Y-55039523D02*
X116251561Y-55001428D01*
X116251561Y-55001428D02*
X116289657Y-54963333D01*
X116289657Y-54963333D02*
X116327752Y-54887142D01*
X116327752Y-54887142D02*
X116327752Y-54734761D01*
X116327752Y-54734761D02*
X116365847Y-54658571D01*
X116365847Y-54658571D02*
X116403942Y-54620476D01*
X116403942Y-54620476D02*
X116480133Y-54582380D01*
X116480133Y-54582380D02*
X116632514Y-54582380D01*
X116632514Y-54582380D02*
X116708704Y-54620476D01*
X116708704Y-54620476D02*
X116746800Y-54658571D01*
X116746800Y-54658571D02*
X116784895Y-54734761D01*
X116784895Y-54734761D02*
X116784895Y-54887142D01*
X116784895Y-54887142D02*
X116746800Y-54963333D01*
X116746800Y-54963333D02*
X116708704Y-55001428D01*
X116708704Y-55001428D02*
X116632514Y-55039523D01*
X116632514Y-55039523D02*
X116480133Y-55039523D01*
X116480133Y-55039523D02*
X116403942Y-55001428D01*
X116403942Y-55001428D02*
X116365847Y-54963333D01*
X116365847Y-54963333D02*
X116327752Y-54887142D01*
X149235238Y-38404895D02*
X149692381Y-38404895D01*
X149463809Y-38404895D02*
X149463809Y-37604895D01*
X149463809Y-37604895D02*
X149540000Y-37719180D01*
X149540000Y-37719180D02*
X149616190Y-37795371D01*
X149616190Y-37795371D02*
X149692381Y-37833466D01*
X148892380Y-38404895D02*
X148892380Y-37604895D01*
X148816190Y-38100133D02*
X148587618Y-38404895D01*
X148587618Y-37871561D02*
X148892380Y-38176323D01*
X149273332Y-36754895D02*
X149539999Y-36373942D01*
X149730475Y-36754895D02*
X149730475Y-35954895D01*
X149730475Y-35954895D02*
X149425713Y-35954895D01*
X149425713Y-35954895D02*
X149349523Y-35992990D01*
X149349523Y-35992990D02*
X149311428Y-36031085D01*
X149311428Y-36031085D02*
X149273332Y-36107276D01*
X149273332Y-36107276D02*
X149273332Y-36221561D01*
X149273332Y-36221561D02*
X149311428Y-36297752D01*
X149311428Y-36297752D02*
X149349523Y-36335847D01*
X149349523Y-36335847D02*
X149425713Y-36373942D01*
X149425713Y-36373942D02*
X149730475Y-36373942D01*
X148511428Y-36754895D02*
X148968571Y-36754895D01*
X148739999Y-36754895D02*
X148739999Y-35954895D01*
X148739999Y-35954895D02*
X148816190Y-36069180D01*
X148816190Y-36069180D02*
X148892380Y-36145371D01*
X148892380Y-36145371D02*
X148968571Y-36183466D01*
X106143571Y-44741800D02*
X106029285Y-44779895D01*
X106029285Y-44779895D02*
X105838809Y-44779895D01*
X105838809Y-44779895D02*
X105762618Y-44741800D01*
X105762618Y-44741800D02*
X105724523Y-44703704D01*
X105724523Y-44703704D02*
X105686428Y-44627514D01*
X105686428Y-44627514D02*
X105686428Y-44551323D01*
X105686428Y-44551323D02*
X105724523Y-44475133D01*
X105724523Y-44475133D02*
X105762618Y-44437038D01*
X105762618Y-44437038D02*
X105838809Y-44398942D01*
X105838809Y-44398942D02*
X105991190Y-44360847D01*
X105991190Y-44360847D02*
X106067380Y-44322752D01*
X106067380Y-44322752D02*
X106105475Y-44284657D01*
X106105475Y-44284657D02*
X106143571Y-44208466D01*
X106143571Y-44208466D02*
X106143571Y-44132276D01*
X106143571Y-44132276D02*
X106105475Y-44056085D01*
X106105475Y-44056085D02*
X106067380Y-44017990D01*
X106067380Y-44017990D02*
X105991190Y-43979895D01*
X105991190Y-43979895D02*
X105800713Y-43979895D01*
X105800713Y-43979895D02*
X105686428Y-44017990D01*
X105343570Y-44779895D02*
X105343570Y-43979895D01*
X105343570Y-43979895D02*
X105153094Y-43979895D01*
X105153094Y-43979895D02*
X105038808Y-44017990D01*
X105038808Y-44017990D02*
X104962618Y-44094180D01*
X104962618Y-44094180D02*
X104924523Y-44170371D01*
X104924523Y-44170371D02*
X104886427Y-44322752D01*
X104886427Y-44322752D02*
X104886427Y-44437038D01*
X104886427Y-44437038D02*
X104924523Y-44589419D01*
X104924523Y-44589419D02*
X104962618Y-44665609D01*
X104962618Y-44665609D02*
X105038808Y-44741800D01*
X105038808Y-44741800D02*
X105153094Y-44779895D01*
X105153094Y-44779895D02*
X105343570Y-44779895D01*
X146395238Y-108694895D02*
X146852381Y-108694895D01*
X146623809Y-108694895D02*
X146623809Y-107894895D01*
X146623809Y-107894895D02*
X146700000Y-108009180D01*
X146700000Y-108009180D02*
X146776190Y-108085371D01*
X146776190Y-108085371D02*
X146852381Y-108123466D01*
X145899999Y-107894895D02*
X145823809Y-107894895D01*
X145823809Y-107894895D02*
X145747618Y-107932990D01*
X145747618Y-107932990D02*
X145709523Y-107971085D01*
X145709523Y-107971085D02*
X145671428Y-108047276D01*
X145671428Y-108047276D02*
X145633333Y-108199657D01*
X145633333Y-108199657D02*
X145633333Y-108390133D01*
X145633333Y-108390133D02*
X145671428Y-108542514D01*
X145671428Y-108542514D02*
X145709523Y-108618704D01*
X145709523Y-108618704D02*
X145747618Y-108656800D01*
X145747618Y-108656800D02*
X145823809Y-108694895D01*
X145823809Y-108694895D02*
X145899999Y-108694895D01*
X145899999Y-108694895D02*
X145976190Y-108656800D01*
X145976190Y-108656800D02*
X146014285Y-108618704D01*
X146014285Y-108618704D02*
X146052380Y-108542514D01*
X146052380Y-108542514D02*
X146090476Y-108390133D01*
X146090476Y-108390133D02*
X146090476Y-108199657D01*
X146090476Y-108199657D02*
X146052380Y-108047276D01*
X146052380Y-108047276D02*
X146014285Y-107971085D01*
X146014285Y-107971085D02*
X145976190Y-107932990D01*
X145976190Y-107932990D02*
X145899999Y-107894895D01*
X145138094Y-107894895D02*
X145061904Y-107894895D01*
X145061904Y-107894895D02*
X144985713Y-107932990D01*
X144985713Y-107932990D02*
X144947618Y-107971085D01*
X144947618Y-107971085D02*
X144909523Y-108047276D01*
X144909523Y-108047276D02*
X144871428Y-108199657D01*
X144871428Y-108199657D02*
X144871428Y-108390133D01*
X144871428Y-108390133D02*
X144909523Y-108542514D01*
X144909523Y-108542514D02*
X144947618Y-108618704D01*
X144947618Y-108618704D02*
X144985713Y-108656800D01*
X144985713Y-108656800D02*
X145061904Y-108694895D01*
X145061904Y-108694895D02*
X145138094Y-108694895D01*
X145138094Y-108694895D02*
X145214285Y-108656800D01*
X145214285Y-108656800D02*
X145252380Y-108618704D01*
X145252380Y-108618704D02*
X145290475Y-108542514D01*
X145290475Y-108542514D02*
X145328571Y-108390133D01*
X145328571Y-108390133D02*
X145328571Y-108199657D01*
X145328571Y-108199657D02*
X145290475Y-108047276D01*
X145290475Y-108047276D02*
X145252380Y-107971085D01*
X145252380Y-107971085D02*
X145214285Y-107932990D01*
X145214285Y-107932990D02*
X145138094Y-107894895D01*
X144528570Y-108161561D02*
X144528570Y-108694895D01*
X144528570Y-108237752D02*
X144490475Y-108199657D01*
X144490475Y-108199657D02*
X144414285Y-108161561D01*
X144414285Y-108161561D02*
X144299999Y-108161561D01*
X144299999Y-108161561D02*
X144223808Y-108199657D01*
X144223808Y-108199657D02*
X144185713Y-108275847D01*
X144185713Y-108275847D02*
X144185713Y-108694895D01*
X146014285Y-110298704D02*
X146052381Y-110336800D01*
X146052381Y-110336800D02*
X146166666Y-110374895D01*
X146166666Y-110374895D02*
X146242857Y-110374895D01*
X146242857Y-110374895D02*
X146357143Y-110336800D01*
X146357143Y-110336800D02*
X146433333Y-110260609D01*
X146433333Y-110260609D02*
X146471428Y-110184419D01*
X146471428Y-110184419D02*
X146509524Y-110032038D01*
X146509524Y-110032038D02*
X146509524Y-109917752D01*
X146509524Y-109917752D02*
X146471428Y-109765371D01*
X146471428Y-109765371D02*
X146433333Y-109689180D01*
X146433333Y-109689180D02*
X146357143Y-109612990D01*
X146357143Y-109612990D02*
X146242857Y-109574895D01*
X146242857Y-109574895D02*
X146166666Y-109574895D01*
X146166666Y-109574895D02*
X146052381Y-109612990D01*
X146052381Y-109612990D02*
X146014285Y-109651085D01*
X145252381Y-110374895D02*
X145709524Y-110374895D01*
X145480952Y-110374895D02*
X145480952Y-109574895D01*
X145480952Y-109574895D02*
X145557143Y-109689180D01*
X145557143Y-109689180D02*
X145633333Y-109765371D01*
X145633333Y-109765371D02*
X145709524Y-109803466D01*
X144871428Y-110374895D02*
X144719047Y-110374895D01*
X144719047Y-110374895D02*
X144642857Y-110336800D01*
X144642857Y-110336800D02*
X144604761Y-110298704D01*
X144604761Y-110298704D02*
X144528571Y-110184419D01*
X144528571Y-110184419D02*
X144490476Y-110032038D01*
X144490476Y-110032038D02*
X144490476Y-109727276D01*
X144490476Y-109727276D02*
X144528571Y-109651085D01*
X144528571Y-109651085D02*
X144566666Y-109612990D01*
X144566666Y-109612990D02*
X144642857Y-109574895D01*
X144642857Y-109574895D02*
X144795238Y-109574895D01*
X144795238Y-109574895D02*
X144871428Y-109612990D01*
X144871428Y-109612990D02*
X144909523Y-109651085D01*
X144909523Y-109651085D02*
X144947619Y-109727276D01*
X144947619Y-109727276D02*
X144947619Y-109917752D01*
X144947619Y-109917752D02*
X144909523Y-109993942D01*
X144909523Y-109993942D02*
X144871428Y-110032038D01*
X144871428Y-110032038D02*
X144795238Y-110070133D01*
X144795238Y-110070133D02*
X144642857Y-110070133D01*
X144642857Y-110070133D02*
X144566666Y-110032038D01*
X144566666Y-110032038D02*
X144528571Y-109993942D01*
X144528571Y-109993942D02*
X144490476Y-109917752D01*
X144356190Y-122584895D02*
X144813333Y-122584895D01*
X144584761Y-122584895D02*
X144584761Y-121784895D01*
X144584761Y-121784895D02*
X144660952Y-121899180D01*
X144660952Y-121899180D02*
X144737142Y-121975371D01*
X144737142Y-121975371D02*
X144813333Y-122013466D01*
X144013332Y-122584895D02*
X144013332Y-121784895D01*
X143937142Y-122280133D02*
X143708570Y-122584895D01*
X143708570Y-122051561D02*
X144013332Y-122356323D01*
X143251428Y-122127752D02*
X143327618Y-122089657D01*
X143327618Y-122089657D02*
X143365713Y-122051561D01*
X143365713Y-122051561D02*
X143403809Y-121975371D01*
X143403809Y-121975371D02*
X143403809Y-121937276D01*
X143403809Y-121937276D02*
X143365713Y-121861085D01*
X143365713Y-121861085D02*
X143327618Y-121822990D01*
X143327618Y-121822990D02*
X143251428Y-121784895D01*
X143251428Y-121784895D02*
X143099047Y-121784895D01*
X143099047Y-121784895D02*
X143022856Y-121822990D01*
X143022856Y-121822990D02*
X142984761Y-121861085D01*
X142984761Y-121861085D02*
X142946666Y-121937276D01*
X142946666Y-121937276D02*
X142946666Y-121975371D01*
X142946666Y-121975371D02*
X142984761Y-122051561D01*
X142984761Y-122051561D02*
X143022856Y-122089657D01*
X143022856Y-122089657D02*
X143099047Y-122127752D01*
X143099047Y-122127752D02*
X143251428Y-122127752D01*
X143251428Y-122127752D02*
X143327618Y-122165847D01*
X143327618Y-122165847D02*
X143365713Y-122203942D01*
X143365713Y-122203942D02*
X143403809Y-122280133D01*
X143403809Y-122280133D02*
X143403809Y-122432514D01*
X143403809Y-122432514D02*
X143365713Y-122508704D01*
X143365713Y-122508704D02*
X143327618Y-122546800D01*
X143327618Y-122546800D02*
X143251428Y-122584895D01*
X143251428Y-122584895D02*
X143099047Y-122584895D01*
X143099047Y-122584895D02*
X143022856Y-122546800D01*
X143022856Y-122546800D02*
X142984761Y-122508704D01*
X142984761Y-122508704D02*
X142946666Y-122432514D01*
X142946666Y-122432514D02*
X142946666Y-122280133D01*
X142946666Y-122280133D02*
X142984761Y-122203942D01*
X142984761Y-122203942D02*
X143022856Y-122165847D01*
X143022856Y-122165847D02*
X143099047Y-122127752D01*
X144394285Y-124234895D02*
X144660952Y-123853942D01*
X144851428Y-124234895D02*
X144851428Y-123434895D01*
X144851428Y-123434895D02*
X144546666Y-123434895D01*
X144546666Y-123434895D02*
X144470476Y-123472990D01*
X144470476Y-123472990D02*
X144432381Y-123511085D01*
X144432381Y-123511085D02*
X144394285Y-123587276D01*
X144394285Y-123587276D02*
X144394285Y-123701561D01*
X144394285Y-123701561D02*
X144432381Y-123777752D01*
X144432381Y-123777752D02*
X144470476Y-123815847D01*
X144470476Y-123815847D02*
X144546666Y-123853942D01*
X144546666Y-123853942D02*
X144851428Y-123853942D01*
X144089524Y-123511085D02*
X144051428Y-123472990D01*
X144051428Y-123472990D02*
X143975238Y-123434895D01*
X143975238Y-123434895D02*
X143784762Y-123434895D01*
X143784762Y-123434895D02*
X143708571Y-123472990D01*
X143708571Y-123472990D02*
X143670476Y-123511085D01*
X143670476Y-123511085D02*
X143632381Y-123587276D01*
X143632381Y-123587276D02*
X143632381Y-123663466D01*
X143632381Y-123663466D02*
X143670476Y-123777752D01*
X143670476Y-123777752D02*
X144127619Y-124234895D01*
X144127619Y-124234895D02*
X143632381Y-124234895D01*
X142946666Y-123434895D02*
X143099047Y-123434895D01*
X143099047Y-123434895D02*
X143175238Y-123472990D01*
X143175238Y-123472990D02*
X143213333Y-123511085D01*
X143213333Y-123511085D02*
X143289523Y-123625371D01*
X143289523Y-123625371D02*
X143327619Y-123777752D01*
X143327619Y-123777752D02*
X143327619Y-124082514D01*
X143327619Y-124082514D02*
X143289523Y-124158704D01*
X143289523Y-124158704D02*
X143251428Y-124196800D01*
X143251428Y-124196800D02*
X143175238Y-124234895D01*
X143175238Y-124234895D02*
X143022857Y-124234895D01*
X143022857Y-124234895D02*
X142946666Y-124196800D01*
X142946666Y-124196800D02*
X142908571Y-124158704D01*
X142908571Y-124158704D02*
X142870476Y-124082514D01*
X142870476Y-124082514D02*
X142870476Y-123892038D01*
X142870476Y-123892038D02*
X142908571Y-123815847D01*
X142908571Y-123815847D02*
X142946666Y-123777752D01*
X142946666Y-123777752D02*
X143022857Y-123739657D01*
X143022857Y-123739657D02*
X143175238Y-123739657D01*
X143175238Y-123739657D02*
X143251428Y-123777752D01*
X143251428Y-123777752D02*
X143289523Y-123815847D01*
X143289523Y-123815847D02*
X143327619Y-123892038D01*
X103534895Y-47754761D02*
X103534895Y-47297618D01*
X103534895Y-47526190D02*
X102734895Y-47526190D01*
X102734895Y-47526190D02*
X102849180Y-47449999D01*
X102849180Y-47449999D02*
X102925371Y-47373809D01*
X102925371Y-47373809D02*
X102963466Y-47297618D01*
X102734895Y-48250000D02*
X102734895Y-48326190D01*
X102734895Y-48326190D02*
X102772990Y-48402381D01*
X102772990Y-48402381D02*
X102811085Y-48440476D01*
X102811085Y-48440476D02*
X102887276Y-48478571D01*
X102887276Y-48478571D02*
X103039657Y-48516666D01*
X103039657Y-48516666D02*
X103230133Y-48516666D01*
X103230133Y-48516666D02*
X103382514Y-48478571D01*
X103382514Y-48478571D02*
X103458704Y-48440476D01*
X103458704Y-48440476D02*
X103496800Y-48402381D01*
X103496800Y-48402381D02*
X103534895Y-48326190D01*
X103534895Y-48326190D02*
X103534895Y-48250000D01*
X103534895Y-48250000D02*
X103496800Y-48173809D01*
X103496800Y-48173809D02*
X103458704Y-48135714D01*
X103458704Y-48135714D02*
X103382514Y-48097619D01*
X103382514Y-48097619D02*
X103230133Y-48059523D01*
X103230133Y-48059523D02*
X103039657Y-48059523D01*
X103039657Y-48059523D02*
X102887276Y-48097619D01*
X102887276Y-48097619D02*
X102811085Y-48135714D01*
X102811085Y-48135714D02*
X102772990Y-48173809D01*
X102772990Y-48173809D02*
X102734895Y-48250000D01*
X102734895Y-49011905D02*
X102734895Y-49088095D01*
X102734895Y-49088095D02*
X102772990Y-49164286D01*
X102772990Y-49164286D02*
X102811085Y-49202381D01*
X102811085Y-49202381D02*
X102887276Y-49240476D01*
X102887276Y-49240476D02*
X103039657Y-49278571D01*
X103039657Y-49278571D02*
X103230133Y-49278571D01*
X103230133Y-49278571D02*
X103382514Y-49240476D01*
X103382514Y-49240476D02*
X103458704Y-49202381D01*
X103458704Y-49202381D02*
X103496800Y-49164286D01*
X103496800Y-49164286D02*
X103534895Y-49088095D01*
X103534895Y-49088095D02*
X103534895Y-49011905D01*
X103534895Y-49011905D02*
X103496800Y-48935714D01*
X103496800Y-48935714D02*
X103458704Y-48897619D01*
X103458704Y-48897619D02*
X103382514Y-48859524D01*
X103382514Y-48859524D02*
X103230133Y-48821428D01*
X103230133Y-48821428D02*
X103039657Y-48821428D01*
X103039657Y-48821428D02*
X102887276Y-48859524D01*
X102887276Y-48859524D02*
X102811085Y-48897619D01*
X102811085Y-48897619D02*
X102772990Y-48935714D01*
X102772990Y-48935714D02*
X102734895Y-49011905D01*
X103001561Y-49621429D02*
X103534895Y-49621429D01*
X103077752Y-49621429D02*
X103039657Y-49659524D01*
X103039657Y-49659524D02*
X103001561Y-49735714D01*
X103001561Y-49735714D02*
X103001561Y-49850000D01*
X103001561Y-49850000D02*
X103039657Y-49926191D01*
X103039657Y-49926191D02*
X103115847Y-49964286D01*
X103115847Y-49964286D02*
X103534895Y-49964286D01*
X105138704Y-48135714D02*
X105176800Y-48097618D01*
X105176800Y-48097618D02*
X105214895Y-47983333D01*
X105214895Y-47983333D02*
X105214895Y-47907142D01*
X105214895Y-47907142D02*
X105176800Y-47792856D01*
X105176800Y-47792856D02*
X105100609Y-47716666D01*
X105100609Y-47716666D02*
X105024419Y-47678571D01*
X105024419Y-47678571D02*
X104872038Y-47640475D01*
X104872038Y-47640475D02*
X104757752Y-47640475D01*
X104757752Y-47640475D02*
X104605371Y-47678571D01*
X104605371Y-47678571D02*
X104529180Y-47716666D01*
X104529180Y-47716666D02*
X104452990Y-47792856D01*
X104452990Y-47792856D02*
X104414895Y-47907142D01*
X104414895Y-47907142D02*
X104414895Y-47983333D01*
X104414895Y-47983333D02*
X104452990Y-48097618D01*
X104452990Y-48097618D02*
X104491085Y-48135714D01*
X105214895Y-48897618D02*
X105214895Y-48440475D01*
X105214895Y-48669047D02*
X104414895Y-48669047D01*
X104414895Y-48669047D02*
X104529180Y-48592856D01*
X104529180Y-48592856D02*
X104605371Y-48516666D01*
X104605371Y-48516666D02*
X104643466Y-48440475D01*
X104414895Y-49164285D02*
X104414895Y-49659523D01*
X104414895Y-49659523D02*
X104719657Y-49392857D01*
X104719657Y-49392857D02*
X104719657Y-49507142D01*
X104719657Y-49507142D02*
X104757752Y-49583333D01*
X104757752Y-49583333D02*
X104795847Y-49621428D01*
X104795847Y-49621428D02*
X104872038Y-49659523D01*
X104872038Y-49659523D02*
X105062514Y-49659523D01*
X105062514Y-49659523D02*
X105138704Y-49621428D01*
X105138704Y-49621428D02*
X105176800Y-49583333D01*
X105176800Y-49583333D02*
X105214895Y-49507142D01*
X105214895Y-49507142D02*
X105214895Y-49278571D01*
X105214895Y-49278571D02*
X105176800Y-49202380D01*
X105176800Y-49202380D02*
X105138704Y-49164285D01*
X94538928Y-98484895D02*
X94043690Y-98484895D01*
X94043690Y-98484895D02*
X94310356Y-98789657D01*
X94310356Y-98789657D02*
X94196071Y-98789657D01*
X94196071Y-98789657D02*
X94119880Y-98827752D01*
X94119880Y-98827752D02*
X94081785Y-98865847D01*
X94081785Y-98865847D02*
X94043690Y-98942038D01*
X94043690Y-98942038D02*
X94043690Y-99132514D01*
X94043690Y-99132514D02*
X94081785Y-99208704D01*
X94081785Y-99208704D02*
X94119880Y-99246800D01*
X94119880Y-99246800D02*
X94196071Y-99284895D01*
X94196071Y-99284895D02*
X94424642Y-99284895D01*
X94424642Y-99284895D02*
X94500833Y-99246800D01*
X94500833Y-99246800D02*
X94538928Y-99208704D01*
X93548451Y-98484895D02*
X93472261Y-98484895D01*
X93472261Y-98484895D02*
X93396070Y-98522990D01*
X93396070Y-98522990D02*
X93357975Y-98561085D01*
X93357975Y-98561085D02*
X93319880Y-98637276D01*
X93319880Y-98637276D02*
X93281785Y-98789657D01*
X93281785Y-98789657D02*
X93281785Y-98980133D01*
X93281785Y-98980133D02*
X93319880Y-99132514D01*
X93319880Y-99132514D02*
X93357975Y-99208704D01*
X93357975Y-99208704D02*
X93396070Y-99246800D01*
X93396070Y-99246800D02*
X93472261Y-99284895D01*
X93472261Y-99284895D02*
X93548451Y-99284895D01*
X93548451Y-99284895D02*
X93624642Y-99246800D01*
X93624642Y-99246800D02*
X93662737Y-99208704D01*
X93662737Y-99208704D02*
X93700832Y-99132514D01*
X93700832Y-99132514D02*
X93738928Y-98980133D01*
X93738928Y-98980133D02*
X93738928Y-98789657D01*
X93738928Y-98789657D02*
X93700832Y-98637276D01*
X93700832Y-98637276D02*
X93662737Y-98561085D01*
X93662737Y-98561085D02*
X93624642Y-98522990D01*
X93624642Y-98522990D02*
X93548451Y-98484895D01*
X92938927Y-99284895D02*
X92938927Y-98484895D01*
X92862737Y-98980133D02*
X92634165Y-99284895D01*
X92634165Y-98751561D02*
X92938927Y-99056323D01*
X94081785Y-100934895D02*
X94348452Y-100553942D01*
X94538928Y-100934895D02*
X94538928Y-100134895D01*
X94538928Y-100134895D02*
X94234166Y-100134895D01*
X94234166Y-100134895D02*
X94157976Y-100172990D01*
X94157976Y-100172990D02*
X94119881Y-100211085D01*
X94119881Y-100211085D02*
X94081785Y-100287276D01*
X94081785Y-100287276D02*
X94081785Y-100401561D01*
X94081785Y-100401561D02*
X94119881Y-100477752D01*
X94119881Y-100477752D02*
X94157976Y-100515847D01*
X94157976Y-100515847D02*
X94234166Y-100553942D01*
X94234166Y-100553942D02*
X94538928Y-100553942D01*
X93815119Y-100134895D02*
X93319881Y-100134895D01*
X93319881Y-100134895D02*
X93586547Y-100439657D01*
X93586547Y-100439657D02*
X93472262Y-100439657D01*
X93472262Y-100439657D02*
X93396071Y-100477752D01*
X93396071Y-100477752D02*
X93357976Y-100515847D01*
X93357976Y-100515847D02*
X93319881Y-100592038D01*
X93319881Y-100592038D02*
X93319881Y-100782514D01*
X93319881Y-100782514D02*
X93357976Y-100858704D01*
X93357976Y-100858704D02*
X93396071Y-100896800D01*
X93396071Y-100896800D02*
X93472262Y-100934895D01*
X93472262Y-100934895D02*
X93700833Y-100934895D01*
X93700833Y-100934895D02*
X93777024Y-100896800D01*
X93777024Y-100896800D02*
X93815119Y-100858704D01*
X93053214Y-100134895D02*
X92519880Y-100134895D01*
X92519880Y-100134895D02*
X92862738Y-100934895D01*
X149255238Y-46324895D02*
X149712381Y-46324895D01*
X149483809Y-46324895D02*
X149483809Y-45524895D01*
X149483809Y-45524895D02*
X149560000Y-45639180D01*
X149560000Y-45639180D02*
X149636190Y-45715371D01*
X149636190Y-45715371D02*
X149712381Y-45753466D01*
X148912380Y-46324895D02*
X148912380Y-45524895D01*
X148836190Y-46020133D02*
X148607618Y-46324895D01*
X148607618Y-45791561D02*
X148912380Y-46096323D01*
X149293332Y-44674895D02*
X149559999Y-44293942D01*
X149750475Y-44674895D02*
X149750475Y-43874895D01*
X149750475Y-43874895D02*
X149445713Y-43874895D01*
X149445713Y-43874895D02*
X149369523Y-43912990D01*
X149369523Y-43912990D02*
X149331428Y-43951085D01*
X149331428Y-43951085D02*
X149293332Y-44027276D01*
X149293332Y-44027276D02*
X149293332Y-44141561D01*
X149293332Y-44141561D02*
X149331428Y-44217752D01*
X149331428Y-44217752D02*
X149369523Y-44255847D01*
X149369523Y-44255847D02*
X149445713Y-44293942D01*
X149445713Y-44293942D02*
X149750475Y-44293942D01*
X148607618Y-44141561D02*
X148607618Y-44674895D01*
X148798094Y-43836800D02*
X148988571Y-44408228D01*
X148988571Y-44408228D02*
X148493332Y-44408228D01*
X100541085Y-47678570D02*
X100502990Y-47716666D01*
X100502990Y-47716666D02*
X100464895Y-47792856D01*
X100464895Y-47792856D02*
X100464895Y-47983332D01*
X100464895Y-47983332D02*
X100502990Y-48059523D01*
X100502990Y-48059523D02*
X100541085Y-48097618D01*
X100541085Y-48097618D02*
X100617276Y-48135713D01*
X100617276Y-48135713D02*
X100693466Y-48135713D01*
X100693466Y-48135713D02*
X100807752Y-48097618D01*
X100807752Y-48097618D02*
X101264895Y-47640475D01*
X101264895Y-47640475D02*
X101264895Y-48135713D01*
X100541085Y-48440475D02*
X100502990Y-48478571D01*
X100502990Y-48478571D02*
X100464895Y-48554761D01*
X100464895Y-48554761D02*
X100464895Y-48745237D01*
X100464895Y-48745237D02*
X100502990Y-48821428D01*
X100502990Y-48821428D02*
X100541085Y-48859523D01*
X100541085Y-48859523D02*
X100617276Y-48897618D01*
X100617276Y-48897618D02*
X100693466Y-48897618D01*
X100693466Y-48897618D02*
X100807752Y-48859523D01*
X100807752Y-48859523D02*
X101264895Y-48402380D01*
X101264895Y-48402380D02*
X101264895Y-48897618D01*
X100731561Y-49583333D02*
X101264895Y-49583333D01*
X100731561Y-49240476D02*
X101150609Y-49240476D01*
X101150609Y-49240476D02*
X101226800Y-49278571D01*
X101226800Y-49278571D02*
X101264895Y-49354761D01*
X101264895Y-49354761D02*
X101264895Y-49469047D01*
X101264895Y-49469047D02*
X101226800Y-49545238D01*
X101226800Y-49545238D02*
X101188704Y-49583333D01*
X102868704Y-48135714D02*
X102906800Y-48097618D01*
X102906800Y-48097618D02*
X102944895Y-47983333D01*
X102944895Y-47983333D02*
X102944895Y-47907142D01*
X102944895Y-47907142D02*
X102906800Y-47792856D01*
X102906800Y-47792856D02*
X102830609Y-47716666D01*
X102830609Y-47716666D02*
X102754419Y-47678571D01*
X102754419Y-47678571D02*
X102602038Y-47640475D01*
X102602038Y-47640475D02*
X102487752Y-47640475D01*
X102487752Y-47640475D02*
X102335371Y-47678571D01*
X102335371Y-47678571D02*
X102259180Y-47716666D01*
X102259180Y-47716666D02*
X102182990Y-47792856D01*
X102182990Y-47792856D02*
X102144895Y-47907142D01*
X102144895Y-47907142D02*
X102144895Y-47983333D01*
X102144895Y-47983333D02*
X102182990Y-48097618D01*
X102182990Y-48097618D02*
X102221085Y-48135714D01*
X102944895Y-48897618D02*
X102944895Y-48440475D01*
X102944895Y-48669047D02*
X102144895Y-48669047D01*
X102144895Y-48669047D02*
X102259180Y-48592856D01*
X102259180Y-48592856D02*
X102335371Y-48516666D01*
X102335371Y-48516666D02*
X102373466Y-48440475D01*
X102221085Y-49202380D02*
X102182990Y-49240476D01*
X102182990Y-49240476D02*
X102144895Y-49316666D01*
X102144895Y-49316666D02*
X102144895Y-49507142D01*
X102144895Y-49507142D02*
X102182990Y-49583333D01*
X102182990Y-49583333D02*
X102221085Y-49621428D01*
X102221085Y-49621428D02*
X102297276Y-49659523D01*
X102297276Y-49659523D02*
X102373466Y-49659523D01*
X102373466Y-49659523D02*
X102487752Y-49621428D01*
X102487752Y-49621428D02*
X102944895Y-49164285D01*
X102944895Y-49164285D02*
X102944895Y-49659523D01*
X113117619Y-46334895D02*
X112622381Y-46334895D01*
X112622381Y-46334895D02*
X112889047Y-46639657D01*
X112889047Y-46639657D02*
X112774762Y-46639657D01*
X112774762Y-46639657D02*
X112698571Y-46677752D01*
X112698571Y-46677752D02*
X112660476Y-46715847D01*
X112660476Y-46715847D02*
X112622381Y-46792038D01*
X112622381Y-46792038D02*
X112622381Y-46982514D01*
X112622381Y-46982514D02*
X112660476Y-47058704D01*
X112660476Y-47058704D02*
X112698571Y-47096800D01*
X112698571Y-47096800D02*
X112774762Y-47134895D01*
X112774762Y-47134895D02*
X113003333Y-47134895D01*
X113003333Y-47134895D02*
X113079524Y-47096800D01*
X113079524Y-47096800D02*
X113117619Y-47058704D01*
X112355714Y-46334895D02*
X111860476Y-46334895D01*
X111860476Y-46334895D02*
X112127142Y-46639657D01*
X112127142Y-46639657D02*
X112012857Y-46639657D01*
X112012857Y-46639657D02*
X111936666Y-46677752D01*
X111936666Y-46677752D02*
X111898571Y-46715847D01*
X111898571Y-46715847D02*
X111860476Y-46792038D01*
X111860476Y-46792038D02*
X111860476Y-46982514D01*
X111860476Y-46982514D02*
X111898571Y-47058704D01*
X111898571Y-47058704D02*
X111936666Y-47096800D01*
X111936666Y-47096800D02*
X112012857Y-47134895D01*
X112012857Y-47134895D02*
X112241428Y-47134895D01*
X112241428Y-47134895D02*
X112317619Y-47096800D01*
X112317619Y-47096800D02*
X112355714Y-47058704D01*
X111060475Y-47134895D02*
X111327142Y-46753942D01*
X111517618Y-47134895D02*
X111517618Y-46334895D01*
X111517618Y-46334895D02*
X111212856Y-46334895D01*
X111212856Y-46334895D02*
X111136666Y-46372990D01*
X111136666Y-46372990D02*
X111098571Y-46411085D01*
X111098571Y-46411085D02*
X111060475Y-46487276D01*
X111060475Y-46487276D02*
X111060475Y-46601561D01*
X111060475Y-46601561D02*
X111098571Y-46677752D01*
X111098571Y-46677752D02*
X111136666Y-46715847D01*
X111136666Y-46715847D02*
X111212856Y-46753942D01*
X111212856Y-46753942D02*
X111517618Y-46753942D01*
X112203332Y-45484895D02*
X112469999Y-45103942D01*
X112660475Y-45484895D02*
X112660475Y-44684895D01*
X112660475Y-44684895D02*
X112355713Y-44684895D01*
X112355713Y-44684895D02*
X112279523Y-44722990D01*
X112279523Y-44722990D02*
X112241428Y-44761085D01*
X112241428Y-44761085D02*
X112203332Y-44837276D01*
X112203332Y-44837276D02*
X112203332Y-44951561D01*
X112203332Y-44951561D02*
X112241428Y-45027752D01*
X112241428Y-45027752D02*
X112279523Y-45065847D01*
X112279523Y-45065847D02*
X112355713Y-45103942D01*
X112355713Y-45103942D02*
X112660475Y-45103942D01*
X111479523Y-44684895D02*
X111860475Y-44684895D01*
X111860475Y-44684895D02*
X111898571Y-45065847D01*
X111898571Y-45065847D02*
X111860475Y-45027752D01*
X111860475Y-45027752D02*
X111784285Y-44989657D01*
X111784285Y-44989657D02*
X111593809Y-44989657D01*
X111593809Y-44989657D02*
X111517618Y-45027752D01*
X111517618Y-45027752D02*
X111479523Y-45065847D01*
X111479523Y-45065847D02*
X111441428Y-45142038D01*
X111441428Y-45142038D02*
X111441428Y-45332514D01*
X111441428Y-45332514D02*
X111479523Y-45408704D01*
X111479523Y-45408704D02*
X111517618Y-45446800D01*
X111517618Y-45446800D02*
X111593809Y-45484895D01*
X111593809Y-45484895D02*
X111784285Y-45484895D01*
X111784285Y-45484895D02*
X111860475Y-45446800D01*
X111860475Y-45446800D02*
X111898571Y-45408704D01*
X141088333Y-121861085D02*
X141050237Y-121822990D01*
X141050237Y-121822990D02*
X140974047Y-121784895D01*
X140974047Y-121784895D02*
X140783571Y-121784895D01*
X140783571Y-121784895D02*
X140707380Y-121822990D01*
X140707380Y-121822990D02*
X140669285Y-121861085D01*
X140669285Y-121861085D02*
X140631190Y-121937276D01*
X140631190Y-121937276D02*
X140631190Y-122013466D01*
X140631190Y-122013466D02*
X140669285Y-122127752D01*
X140669285Y-122127752D02*
X141126428Y-122584895D01*
X141126428Y-122584895D02*
X140631190Y-122584895D01*
X140326428Y-121861085D02*
X140288332Y-121822990D01*
X140288332Y-121822990D02*
X140212142Y-121784895D01*
X140212142Y-121784895D02*
X140021666Y-121784895D01*
X140021666Y-121784895D02*
X139945475Y-121822990D01*
X139945475Y-121822990D02*
X139907380Y-121861085D01*
X139907380Y-121861085D02*
X139869285Y-121937276D01*
X139869285Y-121937276D02*
X139869285Y-122013466D01*
X139869285Y-122013466D02*
X139907380Y-122127752D01*
X139907380Y-122127752D02*
X140364523Y-122584895D01*
X140364523Y-122584895D02*
X139869285Y-122584895D01*
X139526427Y-122584895D02*
X139526427Y-121784895D01*
X139450237Y-122280133D02*
X139221665Y-122584895D01*
X139221665Y-122051561D02*
X139526427Y-122356323D01*
X140669285Y-124234895D02*
X140935952Y-123853942D01*
X141126428Y-124234895D02*
X141126428Y-123434895D01*
X141126428Y-123434895D02*
X140821666Y-123434895D01*
X140821666Y-123434895D02*
X140745476Y-123472990D01*
X140745476Y-123472990D02*
X140707381Y-123511085D01*
X140707381Y-123511085D02*
X140669285Y-123587276D01*
X140669285Y-123587276D02*
X140669285Y-123701561D01*
X140669285Y-123701561D02*
X140707381Y-123777752D01*
X140707381Y-123777752D02*
X140745476Y-123815847D01*
X140745476Y-123815847D02*
X140821666Y-123853942D01*
X140821666Y-123853942D02*
X141126428Y-123853942D01*
X139983571Y-123701561D02*
X139983571Y-124234895D01*
X140174047Y-123396800D02*
X140364524Y-123968228D01*
X140364524Y-123968228D02*
X139869285Y-123968228D01*
X139145476Y-124234895D02*
X139602619Y-124234895D01*
X139374047Y-124234895D02*
X139374047Y-123434895D01*
X139374047Y-123434895D02*
X139450238Y-123549180D01*
X139450238Y-123549180D02*
X139526428Y-123625371D01*
X139526428Y-123625371D02*
X139602619Y-123663466D01*
%TO.C,R44*%
X94567500Y-106025000D02*
X92567500Y-106025000D01*
X94567500Y-107275000D02*
X94567500Y-106025000D01*
X92567500Y-106025000D02*
X92567500Y-107275000D01*
X92567500Y-107275000D02*
X94567500Y-107275000D01*
D11*
%TO.C,FL1*%
X124370000Y-110989500D02*
X124370000Y-112989500D01*
X124370000Y-112989500D02*
X125570000Y-112989500D01*
X125570000Y-110989500D02*
X124370000Y-110989500D01*
X125570000Y-112989500D02*
X125570000Y-110989500D01*
D10*
X125420000Y-112789500D02*
G75*
G02*
X125320000Y-112789500I-50000J0D01*
G01*
X125320000Y-112789500D02*
G75*
G02*
X125420000Y-112789500I50000J0D01*
G01*
D12*
%TO.C,D17*%
X120869600Y-114127600D02*
X120869600Y-116972400D01*
X120869600Y-116972400D02*
X122190400Y-116972400D01*
X122190400Y-114127600D02*
X120869600Y-114127600D01*
X122190400Y-116972400D02*
X122190400Y-114127600D01*
D10*
%TO.C,Q1*%
X120260000Y-84200000D02*
X117360000Y-84200000D01*
X117360000Y-83225000D01*
X117685000Y-82900000D01*
X120260000Y-82900000D01*
X120260000Y-84200000D01*
%TO.C,R34*%
X112210000Y-66045000D02*
X112210000Y-67295000D01*
X112210000Y-67295000D02*
X114210000Y-67295000D01*
X114210000Y-66045000D02*
X112210000Y-66045000D01*
X114210000Y-67295000D02*
X114210000Y-66045000D01*
%TO.C,R32*%
X106005000Y-97210000D02*
X106005000Y-99210000D01*
X106005000Y-99210000D02*
X107255000Y-99210000D01*
X107255000Y-97210000D02*
X106005000Y-97210000D01*
X107255000Y-99210000D02*
X107255000Y-97210000D01*
%TO.C,R7*%
X140495000Y-35430000D02*
X140495000Y-37430000D01*
X140495000Y-37430000D02*
X141745000Y-37430000D01*
X141745000Y-35430000D02*
X140495000Y-35430000D01*
X141745000Y-37430000D02*
X141745000Y-35430000D01*
%TO.C,R39*%
X143250000Y-120855000D02*
X143250000Y-122105000D01*
X143250000Y-122105000D02*
X145250000Y-122105000D01*
X145250000Y-120855000D02*
X143250000Y-120855000D01*
X145250000Y-122105000D02*
X145250000Y-120855000D01*
%TO.C,R42*%
X71130000Y-117385000D02*
X71130000Y-118635000D01*
X71130000Y-118635000D02*
X73130000Y-118635000D01*
X73130000Y-117385000D02*
X71130000Y-117385000D01*
X73130000Y-118635000D02*
X73130000Y-117385000D01*
%TO.C,R21*%
X111100000Y-103895000D02*
X111100000Y-105145000D01*
X111100000Y-105145000D02*
X113100000Y-105145000D01*
X113100000Y-103895000D02*
X111100000Y-103895000D01*
X113100000Y-105145000D02*
X113100000Y-103895000D01*
%TO.C,R31*%
X102185000Y-97210000D02*
X102185000Y-99210000D01*
X102185000Y-99210000D02*
X103435000Y-99210000D01*
X103435000Y-97210000D02*
X102185000Y-97210000D01*
X103435000Y-99210000D02*
X103435000Y-97210000D01*
%TO.C,R27*%
X110874999Y-47700000D02*
X110874999Y-49700000D01*
X110874999Y-49700000D02*
X112124999Y-49700000D01*
X112124999Y-47700000D02*
X110874999Y-47700000D01*
X112124999Y-49700000D02*
X112124999Y-47700000D01*
%TO.C,R43*%
X90040000Y-117075000D02*
X90040000Y-118325000D01*
X90040000Y-118325000D02*
X92040000Y-118325000D01*
X92040000Y-117075000D02*
X90040000Y-117075000D01*
X92040000Y-118325000D02*
X92040000Y-117075000D01*
%TO.C,R28*%
X114735000Y-82180000D02*
X114735000Y-84180000D01*
X114735000Y-84180000D02*
X115985000Y-84180000D01*
X115985000Y-82180000D02*
X114735000Y-82180000D01*
X115985000Y-84180000D02*
X115985000Y-82180000D01*
%TO.C,R30*%
X98365000Y-97210000D02*
X98365000Y-99210000D01*
X98365000Y-99210000D02*
X99615000Y-99210000D01*
X99615000Y-97210000D02*
X98365000Y-97210000D01*
X99615000Y-99210000D02*
X99615000Y-97210000D01*
%TO.C,R15*%
X113425000Y-52980000D02*
X113425000Y-54980000D01*
X113425000Y-54980000D02*
X114675000Y-54980000D01*
X114675000Y-52980000D02*
X113425000Y-52980000D01*
X114675000Y-54980000D02*
X114675000Y-52980000D01*
%TO.C,R25*%
X108664999Y-47700000D02*
X108664999Y-49700000D01*
X108664999Y-49700000D02*
X109914999Y-49700000D01*
X109914999Y-47700000D02*
X108664999Y-47700000D01*
X109914999Y-49700000D02*
X109914999Y-47700000D01*
%TO.C,C21*%
X133600000Y-109935000D02*
X133600000Y-111185000D01*
X133600000Y-111185000D02*
X135600000Y-111185000D01*
X135600000Y-109935000D02*
X133600000Y-109935000D01*
X135600000Y-111185000D02*
X135600000Y-109935000D01*
%TO.C,R36*%
X92567500Y-102985000D02*
X92567500Y-104235000D01*
X92567500Y-104235000D02*
X94567500Y-104235000D01*
X94567500Y-102985000D02*
X92567500Y-102985000D01*
X94567500Y-104235000D02*
X94567500Y-102985000D01*
%TO.C,C20*%
X144500000Y-111795000D02*
X144500000Y-113045000D01*
X144500000Y-113045000D02*
X146500000Y-113045000D01*
X146500000Y-111795000D02*
X144500000Y-111795000D01*
X146500000Y-113045000D02*
X146500000Y-111795000D01*
%TO.C,R23*%
X120615000Y-77330000D02*
X120615000Y-79330000D01*
X120615000Y-79330000D02*
X121865000Y-79330000D01*
X121865000Y-77330000D02*
X120615000Y-77330000D01*
X121865000Y-79330000D02*
X121865000Y-77330000D01*
%TO.C,R20*%
X111100000Y-106725000D02*
X111100000Y-107975000D01*
X111100000Y-107975000D02*
X113100000Y-107975000D01*
X113100000Y-106725000D02*
X111100000Y-106725000D01*
X113100000Y-107975000D02*
X113100000Y-106725000D01*
D11*
%TO.C,U4*%
X136680000Y-115897500D02*
X136680000Y-119597500D01*
X136680000Y-119597500D02*
X143380000Y-119597500D01*
X143380000Y-115897500D02*
X136680000Y-115897500D01*
X143380000Y-119597500D02*
X143380000Y-115897500D01*
D13*
X137830000Y-113147500D02*
G75*
G02*
X137630000Y-113147500I-100000J0D01*
G01*
X137630000Y-113147500D02*
G75*
G02*
X137830000Y-113147500I100000J0D01*
G01*
D10*
%TO.C,U1*%
X119850000Y-53400000D02*
X119850000Y-27900000D01*
X137850000Y-27900000D02*
X119850000Y-27900000D01*
X137850000Y-33900000D02*
X119850000Y-33900000D01*
X137850000Y-53400000D02*
X119850000Y-53400000D01*
X137850000Y-53400000D02*
X137850000Y-27900000D01*
%TO.C,C22*%
X133600000Y-112265000D02*
X133600000Y-113515000D01*
X133600000Y-113515000D02*
X135600000Y-113515000D01*
X135600000Y-112265000D02*
X133600000Y-112265000D01*
X135600000Y-113515000D02*
X135600000Y-112265000D01*
%TO.C,R40*%
X135430000Y-123245000D02*
X135430000Y-124495000D01*
X135430000Y-124495000D02*
X137430000Y-124495000D01*
X137430000Y-123245000D02*
X135430000Y-123245000D01*
X137430000Y-124495000D02*
X137430000Y-123245000D01*
%TO.C,R22*%
X106515000Y-47700000D02*
X106515000Y-49700000D01*
X106515000Y-49700000D02*
X107765000Y-49700000D01*
X107765000Y-47700000D02*
X106515000Y-47700000D01*
X107765000Y-49700000D02*
X107765000Y-47700000D01*
%TO.C,R18*%
X115795000Y-53030000D02*
X115795000Y-55030000D01*
X115795000Y-55030000D02*
X117045000Y-55030000D01*
X117045000Y-53030000D02*
X115795000Y-53030000D01*
X117045000Y-55030000D02*
X117045000Y-53030000D01*
%TO.C,R1*%
X148140000Y-35765000D02*
X148140000Y-37015000D01*
X148140000Y-37015000D02*
X150140000Y-37015000D01*
X150140000Y-35765000D02*
X148140000Y-35765000D01*
X150140000Y-37015000D02*
X150140000Y-35765000D01*
D11*
%TO.C,TF1*%
X98655000Y-27530000D02*
X99580000Y-27530000D01*
X98655000Y-42030000D02*
X98655000Y-27530000D01*
X99580000Y-27530000D02*
X99580000Y-22430000D01*
X99580000Y-27530000D02*
X110580000Y-27530000D01*
X100080000Y-21930000D02*
X110080000Y-21930000D01*
X100080000Y-25230000D02*
X110080000Y-25230000D01*
X110580000Y-22430000D02*
X110580000Y-27530000D01*
X110580000Y-27530000D02*
X113405000Y-27530000D01*
X113405000Y-27530000D02*
X113405000Y-42030000D01*
X113405000Y-42030000D02*
X98655000Y-42030000D01*
X99580000Y-22430000D02*
G75*
G02*
X100080000Y-21930000I500001J-1D01*
G01*
X99580000Y-25730000D02*
G75*
G02*
X100080000Y-25230000I500001J-1D01*
G01*
X110080000Y-21930000D02*
G75*
G02*
X110580000Y-22430000I0J-500000D01*
G01*
X110080000Y-25230000D02*
G75*
G02*
X110580000Y-25730000I0J-500000D01*
G01*
D13*
X108380000Y-43880000D02*
G75*
G02*
X108180000Y-43880000I-100000J0D01*
G01*
X108180000Y-43880000D02*
G75*
G02*
X108380000Y-43880000I100000J0D01*
G01*
D10*
%TO.C,C19*%
X144500000Y-109385000D02*
X144500000Y-110635000D01*
X144500000Y-110635000D02*
X146500000Y-110635000D01*
X146500000Y-109385000D02*
X144500000Y-109385000D01*
X146500000Y-110635000D02*
X146500000Y-109385000D01*
%TO.C,R26*%
X142880000Y-123245000D02*
X142880000Y-124495000D01*
X142880000Y-124495000D02*
X144880000Y-124495000D01*
X144880000Y-123245000D02*
X142880000Y-123245000D01*
X144880000Y-124495000D02*
X144880000Y-123245000D01*
%TO.C,C13*%
X104225000Y-47650000D02*
X104225000Y-49650000D01*
X104225000Y-49650000D02*
X105475000Y-49650000D01*
X105475000Y-47650000D02*
X104225000Y-47650000D01*
X105475000Y-49650000D02*
X105475000Y-47650000D01*
%TO.C,R37*%
X92567500Y-99945000D02*
X92567500Y-101195000D01*
X92567500Y-101195000D02*
X94567500Y-101195000D01*
X94567500Y-99945000D02*
X92567500Y-99945000D01*
X94567500Y-101195000D02*
X94567500Y-99945000D01*
%TO.C,R4*%
X148160000Y-43685000D02*
X148160000Y-44935000D01*
X148160000Y-44935000D02*
X150160000Y-44935000D01*
X150160000Y-43685000D02*
X148160000Y-43685000D01*
X150160000Y-44935000D02*
X150160000Y-43685000D01*
%TO.C,C12*%
X101955000Y-47650000D02*
X101955000Y-49650000D01*
X101955000Y-49650000D02*
X103205000Y-49650000D01*
X103205000Y-47650000D02*
X101955000Y-47650000D01*
X103205000Y-49650000D02*
X103205000Y-47650000D01*
%TO.C,R5*%
X111070000Y-44495000D02*
X111070000Y-45745000D01*
X111070000Y-45745000D02*
X113070000Y-45745000D01*
X113070000Y-44495000D02*
X111070000Y-44495000D01*
X113070000Y-45745000D02*
X113070000Y-44495000D01*
%TO.C,R41*%
X139155000Y-123245000D02*
X139155000Y-124495000D01*
X139155000Y-124495000D02*
X141155000Y-124495000D01*
X141155000Y-123245000D02*
X139155000Y-123245000D01*
X141155000Y-124495000D02*
X141155000Y-123245000D01*
%TD*%
M02*
