%TF.GenerationSoftware,KiCad,Pcbnew,9.0.6*%
%TF.CreationDate,2026-03-26T02:15:04+01:00*%
%TF.ProjectId,rayman_main,7261796d-616e-45f6-9d61-696e2e6b6963,rev?*%
%TF.SameCoordinates,Original*%
%TF.FileFunction,AssemblyDrawing,Bot*%
%FSLAX46Y46*%
G04 Gerber Fmt 4.6, Leading zero omitted, Abs format (unit mm)*
G04 Created by KiCad (PCBNEW 9.0.6) date 2026-03-26 02:15:04*
%MOMM*%
%LPD*%
G01*
G04 APERTURE LIST*
%ADD10C,0.150000*%
%ADD11C,0.110000*%
%ADD12C,0.080000*%
%ADD13C,0.100000*%
%ADD14C,0.127000*%
%ADD15C,0.200000*%
G04 APERTURE END LIST*
D10*
X121141009Y-81692857D02*
X121188628Y-81835714D01*
X121188628Y-81835714D02*
X121236247Y-81883333D01*
X121236247Y-81883333D02*
X121331485Y-81930952D01*
X121331485Y-81930952D02*
X121474342Y-81930952D01*
X121474342Y-81930952D02*
X121569580Y-81883333D01*
X121569580Y-81883333D02*
X121617200Y-81835714D01*
X121617200Y-81835714D02*
X121664819Y-81740476D01*
X121664819Y-81740476D02*
X121664819Y-81359524D01*
X121664819Y-81359524D02*
X120664819Y-81359524D01*
X120664819Y-81359524D02*
X120664819Y-81692857D01*
X120664819Y-81692857D02*
X120712438Y-81788095D01*
X120712438Y-81788095D02*
X120760057Y-81835714D01*
X120760057Y-81835714D02*
X120855295Y-81883333D01*
X120855295Y-81883333D02*
X120950533Y-81883333D01*
X120950533Y-81883333D02*
X121045771Y-81835714D01*
X121045771Y-81835714D02*
X121093390Y-81788095D01*
X121093390Y-81788095D02*
X121141009Y-81692857D01*
X121141009Y-81692857D02*
X121141009Y-81359524D01*
X121569580Y-82930952D02*
X121617200Y-82883333D01*
X121617200Y-82883333D02*
X121664819Y-82740476D01*
X121664819Y-82740476D02*
X121664819Y-82645238D01*
X121664819Y-82645238D02*
X121617200Y-82502381D01*
X121617200Y-82502381D02*
X121521961Y-82407143D01*
X121521961Y-82407143D02*
X121426723Y-82359524D01*
X121426723Y-82359524D02*
X121236247Y-82311905D01*
X121236247Y-82311905D02*
X121093390Y-82311905D01*
X121093390Y-82311905D02*
X120902914Y-82359524D01*
X120902914Y-82359524D02*
X120807676Y-82407143D01*
X120807676Y-82407143D02*
X120712438Y-82502381D01*
X120712438Y-82502381D02*
X120664819Y-82645238D01*
X120664819Y-82645238D02*
X120664819Y-82740476D01*
X120664819Y-82740476D02*
X120712438Y-82883333D01*
X120712438Y-82883333D02*
X120760057Y-82930952D01*
X121093390Y-83502381D02*
X121045771Y-83407143D01*
X121045771Y-83407143D02*
X120998152Y-83359524D01*
X120998152Y-83359524D02*
X120902914Y-83311905D01*
X120902914Y-83311905D02*
X120855295Y-83311905D01*
X120855295Y-83311905D02*
X120760057Y-83359524D01*
X120760057Y-83359524D02*
X120712438Y-83407143D01*
X120712438Y-83407143D02*
X120664819Y-83502381D01*
X120664819Y-83502381D02*
X120664819Y-83692857D01*
X120664819Y-83692857D02*
X120712438Y-83788095D01*
X120712438Y-83788095D02*
X120760057Y-83835714D01*
X120760057Y-83835714D02*
X120855295Y-83883333D01*
X120855295Y-83883333D02*
X120902914Y-83883333D01*
X120902914Y-83883333D02*
X120998152Y-83835714D01*
X120998152Y-83835714D02*
X121045771Y-83788095D01*
X121045771Y-83788095D02*
X121093390Y-83692857D01*
X121093390Y-83692857D02*
X121093390Y-83502381D01*
X121093390Y-83502381D02*
X121141009Y-83407143D01*
X121141009Y-83407143D02*
X121188628Y-83359524D01*
X121188628Y-83359524D02*
X121283866Y-83311905D01*
X121283866Y-83311905D02*
X121474342Y-83311905D01*
X121474342Y-83311905D02*
X121569580Y-83359524D01*
X121569580Y-83359524D02*
X121617200Y-83407143D01*
X121617200Y-83407143D02*
X121664819Y-83502381D01*
X121664819Y-83502381D02*
X121664819Y-83692857D01*
X121664819Y-83692857D02*
X121617200Y-83788095D01*
X121617200Y-83788095D02*
X121569580Y-83835714D01*
X121569580Y-83835714D02*
X121474342Y-83883333D01*
X121474342Y-83883333D02*
X121283866Y-83883333D01*
X121283866Y-83883333D02*
X121188628Y-83835714D01*
X121188628Y-83835714D02*
X121141009Y-83788095D01*
X121141009Y-83788095D02*
X121093390Y-83692857D01*
X121664819Y-84835714D02*
X121664819Y-84264286D01*
X121664819Y-84550000D02*
X120664819Y-84550000D01*
X120664819Y-84550000D02*
X120807676Y-84454762D01*
X120807676Y-84454762D02*
X120902914Y-84359524D01*
X120902914Y-84359524D02*
X120950533Y-84264286D01*
X120664819Y-85169048D02*
X120664819Y-85835714D01*
X120664819Y-85835714D02*
X121664819Y-85407143D01*
D11*
X118878571Y-83945937D02*
X118947142Y-83911651D01*
X118947142Y-83911651D02*
X119015714Y-83843080D01*
X119015714Y-83843080D02*
X119118571Y-83740222D01*
X119118571Y-83740222D02*
X119187142Y-83705937D01*
X119187142Y-83705937D02*
X119255714Y-83705937D01*
X119221428Y-83877365D02*
X119290000Y-83843080D01*
X119290000Y-83843080D02*
X119358571Y-83774508D01*
X119358571Y-83774508D02*
X119392857Y-83637365D01*
X119392857Y-83637365D02*
X119392857Y-83397365D01*
X119392857Y-83397365D02*
X119358571Y-83260222D01*
X119358571Y-83260222D02*
X119290000Y-83191651D01*
X119290000Y-83191651D02*
X119221428Y-83157365D01*
X119221428Y-83157365D02*
X119084285Y-83157365D01*
X119084285Y-83157365D02*
X119015714Y-83191651D01*
X119015714Y-83191651D02*
X118947142Y-83260222D01*
X118947142Y-83260222D02*
X118912857Y-83397365D01*
X118912857Y-83397365D02*
X118912857Y-83637365D01*
X118912857Y-83637365D02*
X118947142Y-83774508D01*
X118947142Y-83774508D02*
X119015714Y-83843080D01*
X119015714Y-83843080D02*
X119084285Y-83877365D01*
X119084285Y-83877365D02*
X119221428Y-83877365D01*
X118227142Y-83877365D02*
X118638571Y-83877365D01*
X118432856Y-83877365D02*
X118432856Y-83157365D01*
X118432856Y-83157365D02*
X118501428Y-83260222D01*
X118501428Y-83260222D02*
X118569999Y-83328794D01*
X118569999Y-83328794D02*
X118638571Y-83363080D01*
D10*
X114948094Y-64570057D02*
X114900475Y-64522438D01*
X114900475Y-64522438D02*
X114805237Y-64474819D01*
X114805237Y-64474819D02*
X114567142Y-64474819D01*
X114567142Y-64474819D02*
X114471904Y-64522438D01*
X114471904Y-64522438D02*
X114424285Y-64570057D01*
X114424285Y-64570057D02*
X114376666Y-64665295D01*
X114376666Y-64665295D02*
X114376666Y-64760533D01*
X114376666Y-64760533D02*
X114424285Y-64903390D01*
X114424285Y-64903390D02*
X114995713Y-65474819D01*
X114995713Y-65474819D02*
X114376666Y-65474819D01*
X113995713Y-64570057D02*
X113948094Y-64522438D01*
X113948094Y-64522438D02*
X113852856Y-64474819D01*
X113852856Y-64474819D02*
X113614761Y-64474819D01*
X113614761Y-64474819D02*
X113519523Y-64522438D01*
X113519523Y-64522438D02*
X113471904Y-64570057D01*
X113471904Y-64570057D02*
X113424285Y-64665295D01*
X113424285Y-64665295D02*
X113424285Y-64760533D01*
X113424285Y-64760533D02*
X113471904Y-64903390D01*
X113471904Y-64903390D02*
X114043332Y-65474819D01*
X114043332Y-65474819D02*
X113424285Y-65474819D01*
X112805237Y-64474819D02*
X112709999Y-64474819D01*
X112709999Y-64474819D02*
X112614761Y-64522438D01*
X112614761Y-64522438D02*
X112567142Y-64570057D01*
X112567142Y-64570057D02*
X112519523Y-64665295D01*
X112519523Y-64665295D02*
X112471904Y-64855771D01*
X112471904Y-64855771D02*
X112471904Y-65093866D01*
X112471904Y-65093866D02*
X112519523Y-65284342D01*
X112519523Y-65284342D02*
X112567142Y-65379580D01*
X112567142Y-65379580D02*
X112614761Y-65427200D01*
X112614761Y-65427200D02*
X112709999Y-65474819D01*
X112709999Y-65474819D02*
X112805237Y-65474819D01*
X112805237Y-65474819D02*
X112900475Y-65427200D01*
X112900475Y-65427200D02*
X112948094Y-65379580D01*
X112948094Y-65379580D02*
X112995713Y-65284342D01*
X112995713Y-65284342D02*
X113043332Y-65093866D01*
X113043332Y-65093866D02*
X113043332Y-64855771D01*
X113043332Y-64855771D02*
X112995713Y-64665295D01*
X112995713Y-64665295D02*
X112948094Y-64570057D01*
X112948094Y-64570057D02*
X112900475Y-64522438D01*
X112900475Y-64522438D02*
X112805237Y-64474819D01*
X111471904Y-65474819D02*
X111805237Y-64998628D01*
X112043332Y-65474819D02*
X112043332Y-64474819D01*
X112043332Y-64474819D02*
X111662380Y-64474819D01*
X111662380Y-64474819D02*
X111567142Y-64522438D01*
X111567142Y-64522438D02*
X111519523Y-64570057D01*
X111519523Y-64570057D02*
X111471904Y-64665295D01*
X111471904Y-64665295D02*
X111471904Y-64808152D01*
X111471904Y-64808152D02*
X111519523Y-64903390D01*
X111519523Y-64903390D02*
X111567142Y-64951009D01*
X111567142Y-64951009D02*
X111662380Y-64998628D01*
X111662380Y-64998628D02*
X112043332Y-64998628D01*
D12*
X113531428Y-66897149D02*
X113698094Y-66659054D01*
X113817142Y-66897149D02*
X113817142Y-66397149D01*
X113817142Y-66397149D02*
X113626666Y-66397149D01*
X113626666Y-66397149D02*
X113579047Y-66420959D01*
X113579047Y-66420959D02*
X113555237Y-66444768D01*
X113555237Y-66444768D02*
X113531428Y-66492387D01*
X113531428Y-66492387D02*
X113531428Y-66563816D01*
X113531428Y-66563816D02*
X113555237Y-66611435D01*
X113555237Y-66611435D02*
X113579047Y-66635244D01*
X113579047Y-66635244D02*
X113626666Y-66659054D01*
X113626666Y-66659054D02*
X113817142Y-66659054D01*
X113364761Y-66397149D02*
X113055237Y-66397149D01*
X113055237Y-66397149D02*
X113221904Y-66587625D01*
X113221904Y-66587625D02*
X113150475Y-66587625D01*
X113150475Y-66587625D02*
X113102856Y-66611435D01*
X113102856Y-66611435D02*
X113079047Y-66635244D01*
X113079047Y-66635244D02*
X113055237Y-66682863D01*
X113055237Y-66682863D02*
X113055237Y-66801911D01*
X113055237Y-66801911D02*
X113079047Y-66849530D01*
X113079047Y-66849530D02*
X113102856Y-66873340D01*
X113102856Y-66873340D02*
X113150475Y-66897149D01*
X113150475Y-66897149D02*
X113293332Y-66897149D01*
X113293332Y-66897149D02*
X113340951Y-66873340D01*
X113340951Y-66873340D02*
X113364761Y-66849530D01*
X112626666Y-66563816D02*
X112626666Y-66897149D01*
X112745714Y-66373340D02*
X112864761Y-66730482D01*
X112864761Y-66730482D02*
X112555238Y-66730482D01*
D10*
X108068152Y-96948095D02*
X108734819Y-96948095D01*
X107687200Y-96710000D02*
X108401485Y-96471905D01*
X108401485Y-96471905D02*
X108401485Y-97090952D01*
X107734819Y-97376667D02*
X107734819Y-98043333D01*
X107734819Y-98043333D02*
X108734819Y-97614762D01*
X107734819Y-98614762D02*
X107734819Y-98710000D01*
X107734819Y-98710000D02*
X107782438Y-98805238D01*
X107782438Y-98805238D02*
X107830057Y-98852857D01*
X107830057Y-98852857D02*
X107925295Y-98900476D01*
X107925295Y-98900476D02*
X108115771Y-98948095D01*
X108115771Y-98948095D02*
X108353866Y-98948095D01*
X108353866Y-98948095D02*
X108544342Y-98900476D01*
X108544342Y-98900476D02*
X108639580Y-98852857D01*
X108639580Y-98852857D02*
X108687200Y-98805238D01*
X108687200Y-98805238D02*
X108734819Y-98710000D01*
X108734819Y-98710000D02*
X108734819Y-98614762D01*
X108734819Y-98614762D02*
X108687200Y-98519524D01*
X108687200Y-98519524D02*
X108639580Y-98471905D01*
X108639580Y-98471905D02*
X108544342Y-98424286D01*
X108544342Y-98424286D02*
X108353866Y-98376667D01*
X108353866Y-98376667D02*
X108115771Y-98376667D01*
X108115771Y-98376667D02*
X107925295Y-98424286D01*
X107925295Y-98424286D02*
X107830057Y-98471905D01*
X107830057Y-98471905D02*
X107782438Y-98519524D01*
X107782438Y-98519524D02*
X107734819Y-98614762D01*
X108734819Y-99948095D02*
X108258628Y-99614762D01*
X108734819Y-99376667D02*
X107734819Y-99376667D01*
X107734819Y-99376667D02*
X107734819Y-99757619D01*
X107734819Y-99757619D02*
X107782438Y-99852857D01*
X107782438Y-99852857D02*
X107830057Y-99900476D01*
X107830057Y-99900476D02*
X107925295Y-99948095D01*
X107925295Y-99948095D02*
X108068152Y-99948095D01*
X108068152Y-99948095D02*
X108163390Y-99900476D01*
X108163390Y-99900476D02*
X108211009Y-99852857D01*
X108211009Y-99852857D02*
X108258628Y-99757619D01*
X108258628Y-99757619D02*
X108258628Y-99376667D01*
D12*
X106857149Y-97888571D02*
X106619054Y-97721905D01*
X106857149Y-97602857D02*
X106357149Y-97602857D01*
X106357149Y-97602857D02*
X106357149Y-97793333D01*
X106357149Y-97793333D02*
X106380959Y-97840952D01*
X106380959Y-97840952D02*
X106404768Y-97864762D01*
X106404768Y-97864762D02*
X106452387Y-97888571D01*
X106452387Y-97888571D02*
X106523816Y-97888571D01*
X106523816Y-97888571D02*
X106571435Y-97864762D01*
X106571435Y-97864762D02*
X106595244Y-97840952D01*
X106595244Y-97840952D02*
X106619054Y-97793333D01*
X106619054Y-97793333D02*
X106619054Y-97602857D01*
X106357149Y-98055238D02*
X106357149Y-98364762D01*
X106357149Y-98364762D02*
X106547625Y-98198095D01*
X106547625Y-98198095D02*
X106547625Y-98269524D01*
X106547625Y-98269524D02*
X106571435Y-98317143D01*
X106571435Y-98317143D02*
X106595244Y-98340952D01*
X106595244Y-98340952D02*
X106642863Y-98364762D01*
X106642863Y-98364762D02*
X106761911Y-98364762D01*
X106761911Y-98364762D02*
X106809530Y-98340952D01*
X106809530Y-98340952D02*
X106833340Y-98317143D01*
X106833340Y-98317143D02*
X106857149Y-98269524D01*
X106857149Y-98269524D02*
X106857149Y-98126667D01*
X106857149Y-98126667D02*
X106833340Y-98079048D01*
X106833340Y-98079048D02*
X106809530Y-98055238D01*
X106404768Y-98555238D02*
X106380959Y-98579047D01*
X106380959Y-98579047D02*
X106357149Y-98626666D01*
X106357149Y-98626666D02*
X106357149Y-98745714D01*
X106357149Y-98745714D02*
X106380959Y-98793333D01*
X106380959Y-98793333D02*
X106404768Y-98817142D01*
X106404768Y-98817142D02*
X106452387Y-98840952D01*
X106452387Y-98840952D02*
X106500006Y-98840952D01*
X106500006Y-98840952D02*
X106571435Y-98817142D01*
X106571435Y-98817142D02*
X106857149Y-98531428D01*
X106857149Y-98531428D02*
X106857149Y-98840952D01*
D10*
X143224819Y-35834761D02*
X143224819Y-35263333D01*
X143224819Y-35549047D02*
X142224819Y-35549047D01*
X142224819Y-35549047D02*
X142367676Y-35453809D01*
X142367676Y-35453809D02*
X142462914Y-35358571D01*
X142462914Y-35358571D02*
X142510533Y-35263333D01*
X142224819Y-36453809D02*
X142224819Y-36549047D01*
X142224819Y-36549047D02*
X142272438Y-36644285D01*
X142272438Y-36644285D02*
X142320057Y-36691904D01*
X142320057Y-36691904D02*
X142415295Y-36739523D01*
X142415295Y-36739523D02*
X142605771Y-36787142D01*
X142605771Y-36787142D02*
X142843866Y-36787142D01*
X142843866Y-36787142D02*
X143034342Y-36739523D01*
X143034342Y-36739523D02*
X143129580Y-36691904D01*
X143129580Y-36691904D02*
X143177200Y-36644285D01*
X143177200Y-36644285D02*
X143224819Y-36549047D01*
X143224819Y-36549047D02*
X143224819Y-36453809D01*
X143224819Y-36453809D02*
X143177200Y-36358571D01*
X143177200Y-36358571D02*
X143129580Y-36310952D01*
X143129580Y-36310952D02*
X143034342Y-36263333D01*
X143034342Y-36263333D02*
X142843866Y-36215714D01*
X142843866Y-36215714D02*
X142605771Y-36215714D01*
X142605771Y-36215714D02*
X142415295Y-36263333D01*
X142415295Y-36263333D02*
X142320057Y-36310952D01*
X142320057Y-36310952D02*
X142272438Y-36358571D01*
X142272438Y-36358571D02*
X142224819Y-36453809D01*
X143224819Y-37215714D02*
X142224819Y-37215714D01*
X142843866Y-37310952D02*
X143224819Y-37596666D01*
X142558152Y-37596666D02*
X142939104Y-37215714D01*
D12*
X141347149Y-36346666D02*
X141109054Y-36180000D01*
X141347149Y-36060952D02*
X140847149Y-36060952D01*
X140847149Y-36060952D02*
X140847149Y-36251428D01*
X140847149Y-36251428D02*
X140870959Y-36299047D01*
X140870959Y-36299047D02*
X140894768Y-36322857D01*
X140894768Y-36322857D02*
X140942387Y-36346666D01*
X140942387Y-36346666D02*
X141013816Y-36346666D01*
X141013816Y-36346666D02*
X141061435Y-36322857D01*
X141061435Y-36322857D02*
X141085244Y-36299047D01*
X141085244Y-36299047D02*
X141109054Y-36251428D01*
X141109054Y-36251428D02*
X141109054Y-36060952D01*
X140847149Y-36513333D02*
X140847149Y-36846666D01*
X140847149Y-36846666D02*
X141347149Y-36632381D01*
D10*
X144940476Y-122584819D02*
X145130952Y-122584819D01*
X145130952Y-122584819D02*
X145226190Y-122632438D01*
X145226190Y-122632438D02*
X145273809Y-122680057D01*
X145273809Y-122680057D02*
X145369047Y-122822914D01*
X145369047Y-122822914D02*
X145416666Y-123013390D01*
X145416666Y-123013390D02*
X145416666Y-123394342D01*
X145416666Y-123394342D02*
X145369047Y-123489580D01*
X145369047Y-123489580D02*
X145321428Y-123537200D01*
X145321428Y-123537200D02*
X145226190Y-123584819D01*
X145226190Y-123584819D02*
X145035714Y-123584819D01*
X145035714Y-123584819D02*
X144940476Y-123537200D01*
X144940476Y-123537200D02*
X144892857Y-123489580D01*
X144892857Y-123489580D02*
X144845238Y-123394342D01*
X144845238Y-123394342D02*
X144845238Y-123156247D01*
X144845238Y-123156247D02*
X144892857Y-123061009D01*
X144892857Y-123061009D02*
X144940476Y-123013390D01*
X144940476Y-123013390D02*
X145035714Y-122965771D01*
X145035714Y-122965771D02*
X145226190Y-122965771D01*
X145226190Y-122965771D02*
X145321428Y-123013390D01*
X145321428Y-123013390D02*
X145369047Y-123061009D01*
X145369047Y-123061009D02*
X145416666Y-123156247D01*
X144416666Y-123584819D02*
X144416666Y-122584819D01*
X144321428Y-123203866D02*
X144035714Y-123584819D01*
X144035714Y-122918152D02*
X144416666Y-123299104D01*
X143464285Y-123013390D02*
X143559523Y-122965771D01*
X143559523Y-122965771D02*
X143607142Y-122918152D01*
X143607142Y-122918152D02*
X143654761Y-122822914D01*
X143654761Y-122822914D02*
X143654761Y-122775295D01*
X143654761Y-122775295D02*
X143607142Y-122680057D01*
X143607142Y-122680057D02*
X143559523Y-122632438D01*
X143559523Y-122632438D02*
X143464285Y-122584819D01*
X143464285Y-122584819D02*
X143273809Y-122584819D01*
X143273809Y-122584819D02*
X143178571Y-122632438D01*
X143178571Y-122632438D02*
X143130952Y-122680057D01*
X143130952Y-122680057D02*
X143083333Y-122775295D01*
X143083333Y-122775295D02*
X143083333Y-122822914D01*
X143083333Y-122822914D02*
X143130952Y-122918152D01*
X143130952Y-122918152D02*
X143178571Y-122965771D01*
X143178571Y-122965771D02*
X143273809Y-123013390D01*
X143273809Y-123013390D02*
X143464285Y-123013390D01*
X143464285Y-123013390D02*
X143559523Y-123061009D01*
X143559523Y-123061009D02*
X143607142Y-123108628D01*
X143607142Y-123108628D02*
X143654761Y-123203866D01*
X143654761Y-123203866D02*
X143654761Y-123394342D01*
X143654761Y-123394342D02*
X143607142Y-123489580D01*
X143607142Y-123489580D02*
X143559523Y-123537200D01*
X143559523Y-123537200D02*
X143464285Y-123584819D01*
X143464285Y-123584819D02*
X143273809Y-123584819D01*
X143273809Y-123584819D02*
X143178571Y-123537200D01*
X143178571Y-123537200D02*
X143130952Y-123489580D01*
X143130952Y-123489580D02*
X143083333Y-123394342D01*
X143083333Y-123394342D02*
X143083333Y-123203866D01*
X143083333Y-123203866D02*
X143130952Y-123108628D01*
X143130952Y-123108628D02*
X143178571Y-123061009D01*
X143178571Y-123061009D02*
X143273809Y-123013390D01*
D12*
X144571428Y-121707149D02*
X144738094Y-121469054D01*
X144857142Y-121707149D02*
X144857142Y-121207149D01*
X144857142Y-121207149D02*
X144666666Y-121207149D01*
X144666666Y-121207149D02*
X144619047Y-121230959D01*
X144619047Y-121230959D02*
X144595237Y-121254768D01*
X144595237Y-121254768D02*
X144571428Y-121302387D01*
X144571428Y-121302387D02*
X144571428Y-121373816D01*
X144571428Y-121373816D02*
X144595237Y-121421435D01*
X144595237Y-121421435D02*
X144619047Y-121445244D01*
X144619047Y-121445244D02*
X144666666Y-121469054D01*
X144666666Y-121469054D02*
X144857142Y-121469054D01*
X144404761Y-121207149D02*
X144095237Y-121207149D01*
X144095237Y-121207149D02*
X144261904Y-121397625D01*
X144261904Y-121397625D02*
X144190475Y-121397625D01*
X144190475Y-121397625D02*
X144142856Y-121421435D01*
X144142856Y-121421435D02*
X144119047Y-121445244D01*
X144119047Y-121445244D02*
X144095237Y-121492863D01*
X144095237Y-121492863D02*
X144095237Y-121611911D01*
X144095237Y-121611911D02*
X144119047Y-121659530D01*
X144119047Y-121659530D02*
X144142856Y-121683340D01*
X144142856Y-121683340D02*
X144190475Y-121707149D01*
X144190475Y-121707149D02*
X144333332Y-121707149D01*
X144333332Y-121707149D02*
X144380951Y-121683340D01*
X144380951Y-121683340D02*
X144404761Y-121659530D01*
X143857142Y-121707149D02*
X143761904Y-121707149D01*
X143761904Y-121707149D02*
X143714285Y-121683340D01*
X143714285Y-121683340D02*
X143690476Y-121659530D01*
X143690476Y-121659530D02*
X143642857Y-121588101D01*
X143642857Y-121588101D02*
X143619047Y-121492863D01*
X143619047Y-121492863D02*
X143619047Y-121302387D01*
X143619047Y-121302387D02*
X143642857Y-121254768D01*
X143642857Y-121254768D02*
X143666666Y-121230959D01*
X143666666Y-121230959D02*
X143714285Y-121207149D01*
X143714285Y-121207149D02*
X143809523Y-121207149D01*
X143809523Y-121207149D02*
X143857142Y-121230959D01*
X143857142Y-121230959D02*
X143880952Y-121254768D01*
X143880952Y-121254768D02*
X143904761Y-121302387D01*
X143904761Y-121302387D02*
X143904761Y-121421435D01*
X143904761Y-121421435D02*
X143880952Y-121469054D01*
X143880952Y-121469054D02*
X143857142Y-121492863D01*
X143857142Y-121492863D02*
X143809523Y-121516673D01*
X143809523Y-121516673D02*
X143714285Y-121516673D01*
X143714285Y-121516673D02*
X143666666Y-121492863D01*
X143666666Y-121492863D02*
X143642857Y-121469054D01*
X143642857Y-121469054D02*
X143619047Y-121421435D01*
D10*
X72820476Y-119114819D02*
X73010952Y-119114819D01*
X73010952Y-119114819D02*
X73106190Y-119162438D01*
X73106190Y-119162438D02*
X73153809Y-119210057D01*
X73153809Y-119210057D02*
X73249047Y-119352914D01*
X73249047Y-119352914D02*
X73296666Y-119543390D01*
X73296666Y-119543390D02*
X73296666Y-119924342D01*
X73296666Y-119924342D02*
X73249047Y-120019580D01*
X73249047Y-120019580D02*
X73201428Y-120067200D01*
X73201428Y-120067200D02*
X73106190Y-120114819D01*
X73106190Y-120114819D02*
X72915714Y-120114819D01*
X72915714Y-120114819D02*
X72820476Y-120067200D01*
X72820476Y-120067200D02*
X72772857Y-120019580D01*
X72772857Y-120019580D02*
X72725238Y-119924342D01*
X72725238Y-119924342D02*
X72725238Y-119686247D01*
X72725238Y-119686247D02*
X72772857Y-119591009D01*
X72772857Y-119591009D02*
X72820476Y-119543390D01*
X72820476Y-119543390D02*
X72915714Y-119495771D01*
X72915714Y-119495771D02*
X73106190Y-119495771D01*
X73106190Y-119495771D02*
X73201428Y-119543390D01*
X73201428Y-119543390D02*
X73249047Y-119591009D01*
X73249047Y-119591009D02*
X73296666Y-119686247D01*
X72296666Y-120114819D02*
X72296666Y-119114819D01*
X72201428Y-119733866D02*
X71915714Y-120114819D01*
X71915714Y-119448152D02*
X72296666Y-119829104D01*
X71534761Y-119210057D02*
X71487142Y-119162438D01*
X71487142Y-119162438D02*
X71391904Y-119114819D01*
X71391904Y-119114819D02*
X71153809Y-119114819D01*
X71153809Y-119114819D02*
X71058571Y-119162438D01*
X71058571Y-119162438D02*
X71010952Y-119210057D01*
X71010952Y-119210057D02*
X70963333Y-119305295D01*
X70963333Y-119305295D02*
X70963333Y-119400533D01*
X70963333Y-119400533D02*
X71010952Y-119543390D01*
X71010952Y-119543390D02*
X71582380Y-120114819D01*
X71582380Y-120114819D02*
X70963333Y-120114819D01*
D12*
X72451428Y-118237149D02*
X72618094Y-117999054D01*
X72737142Y-118237149D02*
X72737142Y-117737149D01*
X72737142Y-117737149D02*
X72546666Y-117737149D01*
X72546666Y-117737149D02*
X72499047Y-117760959D01*
X72499047Y-117760959D02*
X72475237Y-117784768D01*
X72475237Y-117784768D02*
X72451428Y-117832387D01*
X72451428Y-117832387D02*
X72451428Y-117903816D01*
X72451428Y-117903816D02*
X72475237Y-117951435D01*
X72475237Y-117951435D02*
X72499047Y-117975244D01*
X72499047Y-117975244D02*
X72546666Y-117999054D01*
X72546666Y-117999054D02*
X72737142Y-117999054D01*
X72022856Y-117903816D02*
X72022856Y-118237149D01*
X72141904Y-117713340D02*
X72260951Y-118070482D01*
X72260951Y-118070482D02*
X71951428Y-118070482D01*
X71784761Y-117784768D02*
X71760952Y-117760959D01*
X71760952Y-117760959D02*
X71713333Y-117737149D01*
X71713333Y-117737149D02*
X71594285Y-117737149D01*
X71594285Y-117737149D02*
X71546666Y-117760959D01*
X71546666Y-117760959D02*
X71522857Y-117784768D01*
X71522857Y-117784768D02*
X71499047Y-117832387D01*
X71499047Y-117832387D02*
X71499047Y-117880006D01*
X71499047Y-117880006D02*
X71522857Y-117951435D01*
X71522857Y-117951435D02*
X71808571Y-118237149D01*
X71808571Y-118237149D02*
X71499047Y-118237149D01*
D10*
X113266666Y-105720057D02*
X113219047Y-105672438D01*
X113219047Y-105672438D02*
X113123809Y-105624819D01*
X113123809Y-105624819D02*
X112885714Y-105624819D01*
X112885714Y-105624819D02*
X112790476Y-105672438D01*
X112790476Y-105672438D02*
X112742857Y-105720057D01*
X112742857Y-105720057D02*
X112695238Y-105815295D01*
X112695238Y-105815295D02*
X112695238Y-105910533D01*
X112695238Y-105910533D02*
X112742857Y-106053390D01*
X112742857Y-106053390D02*
X113314285Y-106624819D01*
X113314285Y-106624819D02*
X112695238Y-106624819D01*
X112266666Y-106624819D02*
X112266666Y-105624819D01*
X112171428Y-106243866D02*
X111885714Y-106624819D01*
X111885714Y-105958152D02*
X112266666Y-106339104D01*
X111504761Y-105720057D02*
X111457142Y-105672438D01*
X111457142Y-105672438D02*
X111361904Y-105624819D01*
X111361904Y-105624819D02*
X111123809Y-105624819D01*
X111123809Y-105624819D02*
X111028571Y-105672438D01*
X111028571Y-105672438D02*
X110980952Y-105720057D01*
X110980952Y-105720057D02*
X110933333Y-105815295D01*
X110933333Y-105815295D02*
X110933333Y-105910533D01*
X110933333Y-105910533D02*
X110980952Y-106053390D01*
X110980952Y-106053390D02*
X111552380Y-106624819D01*
X111552380Y-106624819D02*
X110933333Y-106624819D01*
D12*
X112421428Y-104747149D02*
X112588094Y-104509054D01*
X112707142Y-104747149D02*
X112707142Y-104247149D01*
X112707142Y-104247149D02*
X112516666Y-104247149D01*
X112516666Y-104247149D02*
X112469047Y-104270959D01*
X112469047Y-104270959D02*
X112445237Y-104294768D01*
X112445237Y-104294768D02*
X112421428Y-104342387D01*
X112421428Y-104342387D02*
X112421428Y-104413816D01*
X112421428Y-104413816D02*
X112445237Y-104461435D01*
X112445237Y-104461435D02*
X112469047Y-104485244D01*
X112469047Y-104485244D02*
X112516666Y-104509054D01*
X112516666Y-104509054D02*
X112707142Y-104509054D01*
X112230951Y-104294768D02*
X112207142Y-104270959D01*
X112207142Y-104270959D02*
X112159523Y-104247149D01*
X112159523Y-104247149D02*
X112040475Y-104247149D01*
X112040475Y-104247149D02*
X111992856Y-104270959D01*
X111992856Y-104270959D02*
X111969047Y-104294768D01*
X111969047Y-104294768D02*
X111945237Y-104342387D01*
X111945237Y-104342387D02*
X111945237Y-104390006D01*
X111945237Y-104390006D02*
X111969047Y-104461435D01*
X111969047Y-104461435D02*
X112254761Y-104747149D01*
X112254761Y-104747149D02*
X111945237Y-104747149D01*
X111469047Y-104747149D02*
X111754761Y-104747149D01*
X111611904Y-104747149D02*
X111611904Y-104247149D01*
X111611904Y-104247149D02*
X111659523Y-104318578D01*
X111659523Y-104318578D02*
X111707142Y-104366197D01*
X111707142Y-104366197D02*
X111754761Y-104390006D01*
D10*
X104248152Y-96948095D02*
X104914819Y-96948095D01*
X103867200Y-96710000D02*
X104581485Y-96471905D01*
X104581485Y-96471905D02*
X104581485Y-97090952D01*
X103914819Y-97376667D02*
X103914819Y-98043333D01*
X103914819Y-98043333D02*
X104914819Y-97614762D01*
X103914819Y-98614762D02*
X103914819Y-98710000D01*
X103914819Y-98710000D02*
X103962438Y-98805238D01*
X103962438Y-98805238D02*
X104010057Y-98852857D01*
X104010057Y-98852857D02*
X104105295Y-98900476D01*
X104105295Y-98900476D02*
X104295771Y-98948095D01*
X104295771Y-98948095D02*
X104533866Y-98948095D01*
X104533866Y-98948095D02*
X104724342Y-98900476D01*
X104724342Y-98900476D02*
X104819580Y-98852857D01*
X104819580Y-98852857D02*
X104867200Y-98805238D01*
X104867200Y-98805238D02*
X104914819Y-98710000D01*
X104914819Y-98710000D02*
X104914819Y-98614762D01*
X104914819Y-98614762D02*
X104867200Y-98519524D01*
X104867200Y-98519524D02*
X104819580Y-98471905D01*
X104819580Y-98471905D02*
X104724342Y-98424286D01*
X104724342Y-98424286D02*
X104533866Y-98376667D01*
X104533866Y-98376667D02*
X104295771Y-98376667D01*
X104295771Y-98376667D02*
X104105295Y-98424286D01*
X104105295Y-98424286D02*
X104010057Y-98471905D01*
X104010057Y-98471905D02*
X103962438Y-98519524D01*
X103962438Y-98519524D02*
X103914819Y-98614762D01*
X104914819Y-99948095D02*
X104438628Y-99614762D01*
X104914819Y-99376667D02*
X103914819Y-99376667D01*
X103914819Y-99376667D02*
X103914819Y-99757619D01*
X103914819Y-99757619D02*
X103962438Y-99852857D01*
X103962438Y-99852857D02*
X104010057Y-99900476D01*
X104010057Y-99900476D02*
X104105295Y-99948095D01*
X104105295Y-99948095D02*
X104248152Y-99948095D01*
X104248152Y-99948095D02*
X104343390Y-99900476D01*
X104343390Y-99900476D02*
X104391009Y-99852857D01*
X104391009Y-99852857D02*
X104438628Y-99757619D01*
X104438628Y-99757619D02*
X104438628Y-99376667D01*
D12*
X103037149Y-97888571D02*
X102799054Y-97721905D01*
X103037149Y-97602857D02*
X102537149Y-97602857D01*
X102537149Y-97602857D02*
X102537149Y-97793333D01*
X102537149Y-97793333D02*
X102560959Y-97840952D01*
X102560959Y-97840952D02*
X102584768Y-97864762D01*
X102584768Y-97864762D02*
X102632387Y-97888571D01*
X102632387Y-97888571D02*
X102703816Y-97888571D01*
X102703816Y-97888571D02*
X102751435Y-97864762D01*
X102751435Y-97864762D02*
X102775244Y-97840952D01*
X102775244Y-97840952D02*
X102799054Y-97793333D01*
X102799054Y-97793333D02*
X102799054Y-97602857D01*
X102537149Y-98055238D02*
X102537149Y-98364762D01*
X102537149Y-98364762D02*
X102727625Y-98198095D01*
X102727625Y-98198095D02*
X102727625Y-98269524D01*
X102727625Y-98269524D02*
X102751435Y-98317143D01*
X102751435Y-98317143D02*
X102775244Y-98340952D01*
X102775244Y-98340952D02*
X102822863Y-98364762D01*
X102822863Y-98364762D02*
X102941911Y-98364762D01*
X102941911Y-98364762D02*
X102989530Y-98340952D01*
X102989530Y-98340952D02*
X103013340Y-98317143D01*
X103013340Y-98317143D02*
X103037149Y-98269524D01*
X103037149Y-98269524D02*
X103037149Y-98126667D01*
X103037149Y-98126667D02*
X103013340Y-98079048D01*
X103013340Y-98079048D02*
X102989530Y-98055238D01*
X103037149Y-98840952D02*
X103037149Y-98555238D01*
X103037149Y-98698095D02*
X102537149Y-98698095D01*
X102537149Y-98698095D02*
X102608578Y-98650476D01*
X102608578Y-98650476D02*
X102656197Y-98602857D01*
X102656197Y-98602857D02*
X102680006Y-98555238D01*
D10*
X109458151Y-47389523D02*
X110124818Y-47389523D01*
X109077199Y-47151428D02*
X109791484Y-46913333D01*
X109791484Y-46913333D02*
X109791484Y-47532380D01*
X109124818Y-47818095D02*
X109124818Y-48484761D01*
X109124818Y-48484761D02*
X110124818Y-48056190D01*
X110124818Y-48865714D02*
X109124818Y-48865714D01*
X109743865Y-48960952D02*
X110124818Y-49246666D01*
X109458151Y-49246666D02*
X109839103Y-48865714D01*
D12*
X111547148Y-47758571D02*
X111309053Y-47591905D01*
X111547148Y-47472857D02*
X111047148Y-47472857D01*
X111047148Y-47472857D02*
X111047148Y-47663333D01*
X111047148Y-47663333D02*
X111070958Y-47710952D01*
X111070958Y-47710952D02*
X111094767Y-47734762D01*
X111094767Y-47734762D02*
X111142386Y-47758571D01*
X111142386Y-47758571D02*
X111213815Y-47758571D01*
X111213815Y-47758571D02*
X111261434Y-47734762D01*
X111261434Y-47734762D02*
X111285243Y-47710952D01*
X111285243Y-47710952D02*
X111309053Y-47663333D01*
X111309053Y-47663333D02*
X111309053Y-47472857D01*
X111094767Y-47949048D02*
X111070958Y-47972857D01*
X111070958Y-47972857D02*
X111047148Y-48020476D01*
X111047148Y-48020476D02*
X111047148Y-48139524D01*
X111047148Y-48139524D02*
X111070958Y-48187143D01*
X111070958Y-48187143D02*
X111094767Y-48210952D01*
X111094767Y-48210952D02*
X111142386Y-48234762D01*
X111142386Y-48234762D02*
X111190005Y-48234762D01*
X111190005Y-48234762D02*
X111261434Y-48210952D01*
X111261434Y-48210952D02*
X111547148Y-47925238D01*
X111547148Y-47925238D02*
X111547148Y-48234762D01*
X111047148Y-48401428D02*
X111047148Y-48734761D01*
X111047148Y-48734761D02*
X111547148Y-48520476D01*
D10*
X91730476Y-115504819D02*
X91920952Y-115504819D01*
X91920952Y-115504819D02*
X92016190Y-115552438D01*
X92016190Y-115552438D02*
X92063809Y-115600057D01*
X92063809Y-115600057D02*
X92159047Y-115742914D01*
X92159047Y-115742914D02*
X92206666Y-115933390D01*
X92206666Y-115933390D02*
X92206666Y-116314342D01*
X92206666Y-116314342D02*
X92159047Y-116409580D01*
X92159047Y-116409580D02*
X92111428Y-116457200D01*
X92111428Y-116457200D02*
X92016190Y-116504819D01*
X92016190Y-116504819D02*
X91825714Y-116504819D01*
X91825714Y-116504819D02*
X91730476Y-116457200D01*
X91730476Y-116457200D02*
X91682857Y-116409580D01*
X91682857Y-116409580D02*
X91635238Y-116314342D01*
X91635238Y-116314342D02*
X91635238Y-116076247D01*
X91635238Y-116076247D02*
X91682857Y-115981009D01*
X91682857Y-115981009D02*
X91730476Y-115933390D01*
X91730476Y-115933390D02*
X91825714Y-115885771D01*
X91825714Y-115885771D02*
X92016190Y-115885771D01*
X92016190Y-115885771D02*
X92111428Y-115933390D01*
X92111428Y-115933390D02*
X92159047Y-115981009D01*
X92159047Y-115981009D02*
X92206666Y-116076247D01*
X91206666Y-116504819D02*
X91206666Y-115504819D01*
X91111428Y-116123866D02*
X90825714Y-116504819D01*
X90825714Y-115838152D02*
X91206666Y-116219104D01*
X90444761Y-115600057D02*
X90397142Y-115552438D01*
X90397142Y-115552438D02*
X90301904Y-115504819D01*
X90301904Y-115504819D02*
X90063809Y-115504819D01*
X90063809Y-115504819D02*
X89968571Y-115552438D01*
X89968571Y-115552438D02*
X89920952Y-115600057D01*
X89920952Y-115600057D02*
X89873333Y-115695295D01*
X89873333Y-115695295D02*
X89873333Y-115790533D01*
X89873333Y-115790533D02*
X89920952Y-115933390D01*
X89920952Y-115933390D02*
X90492380Y-116504819D01*
X90492380Y-116504819D02*
X89873333Y-116504819D01*
D12*
X91361428Y-117927149D02*
X91528094Y-117689054D01*
X91647142Y-117927149D02*
X91647142Y-117427149D01*
X91647142Y-117427149D02*
X91456666Y-117427149D01*
X91456666Y-117427149D02*
X91409047Y-117450959D01*
X91409047Y-117450959D02*
X91385237Y-117474768D01*
X91385237Y-117474768D02*
X91361428Y-117522387D01*
X91361428Y-117522387D02*
X91361428Y-117593816D01*
X91361428Y-117593816D02*
X91385237Y-117641435D01*
X91385237Y-117641435D02*
X91409047Y-117665244D01*
X91409047Y-117665244D02*
X91456666Y-117689054D01*
X91456666Y-117689054D02*
X91647142Y-117689054D01*
X90932856Y-117593816D02*
X90932856Y-117927149D01*
X91051904Y-117403340D02*
X91170951Y-117760482D01*
X91170951Y-117760482D02*
X90861428Y-117760482D01*
X90718571Y-117427149D02*
X90409047Y-117427149D01*
X90409047Y-117427149D02*
X90575714Y-117617625D01*
X90575714Y-117617625D02*
X90504285Y-117617625D01*
X90504285Y-117617625D02*
X90456666Y-117641435D01*
X90456666Y-117641435D02*
X90432857Y-117665244D01*
X90432857Y-117665244D02*
X90409047Y-117712863D01*
X90409047Y-117712863D02*
X90409047Y-117831911D01*
X90409047Y-117831911D02*
X90432857Y-117879530D01*
X90432857Y-117879530D02*
X90456666Y-117903340D01*
X90456666Y-117903340D02*
X90504285Y-117927149D01*
X90504285Y-117927149D02*
X90647142Y-117927149D01*
X90647142Y-117927149D02*
X90694761Y-117903340D01*
X90694761Y-117903340D02*
X90718571Y-117879530D01*
D10*
X117464819Y-82108571D02*
X117464819Y-81537143D01*
X117464819Y-81822857D02*
X116464819Y-81822857D01*
X116464819Y-81822857D02*
X116607676Y-81727619D01*
X116607676Y-81727619D02*
X116702914Y-81632381D01*
X116702914Y-81632381D02*
X116750533Y-81537143D01*
X116464819Y-82727619D02*
X116464819Y-82822857D01*
X116464819Y-82822857D02*
X116512438Y-82918095D01*
X116512438Y-82918095D02*
X116560057Y-82965714D01*
X116560057Y-82965714D02*
X116655295Y-83013333D01*
X116655295Y-83013333D02*
X116845771Y-83060952D01*
X116845771Y-83060952D02*
X117083866Y-83060952D01*
X117083866Y-83060952D02*
X117274342Y-83013333D01*
X117274342Y-83013333D02*
X117369580Y-82965714D01*
X117369580Y-82965714D02*
X117417200Y-82918095D01*
X117417200Y-82918095D02*
X117464819Y-82822857D01*
X117464819Y-82822857D02*
X117464819Y-82727619D01*
X117464819Y-82727619D02*
X117417200Y-82632381D01*
X117417200Y-82632381D02*
X117369580Y-82584762D01*
X117369580Y-82584762D02*
X117274342Y-82537143D01*
X117274342Y-82537143D02*
X117083866Y-82489524D01*
X117083866Y-82489524D02*
X116845771Y-82489524D01*
X116845771Y-82489524D02*
X116655295Y-82537143D01*
X116655295Y-82537143D02*
X116560057Y-82584762D01*
X116560057Y-82584762D02*
X116512438Y-82632381D01*
X116512438Y-82632381D02*
X116464819Y-82727619D01*
X116464819Y-83680000D02*
X116464819Y-83775238D01*
X116464819Y-83775238D02*
X116512438Y-83870476D01*
X116512438Y-83870476D02*
X116560057Y-83918095D01*
X116560057Y-83918095D02*
X116655295Y-83965714D01*
X116655295Y-83965714D02*
X116845771Y-84013333D01*
X116845771Y-84013333D02*
X117083866Y-84013333D01*
X117083866Y-84013333D02*
X117274342Y-83965714D01*
X117274342Y-83965714D02*
X117369580Y-83918095D01*
X117369580Y-83918095D02*
X117417200Y-83870476D01*
X117417200Y-83870476D02*
X117464819Y-83775238D01*
X117464819Y-83775238D02*
X117464819Y-83680000D01*
X117464819Y-83680000D02*
X117417200Y-83584762D01*
X117417200Y-83584762D02*
X117369580Y-83537143D01*
X117369580Y-83537143D02*
X117274342Y-83489524D01*
X117274342Y-83489524D02*
X117083866Y-83441905D01*
X117083866Y-83441905D02*
X116845771Y-83441905D01*
X116845771Y-83441905D02*
X116655295Y-83489524D01*
X116655295Y-83489524D02*
X116560057Y-83537143D01*
X116560057Y-83537143D02*
X116512438Y-83584762D01*
X116512438Y-83584762D02*
X116464819Y-83680000D01*
X117464819Y-84441905D02*
X116464819Y-84441905D01*
X117083866Y-84537143D02*
X117464819Y-84822857D01*
X116798152Y-84822857D02*
X117179104Y-84441905D01*
D12*
X115587149Y-82858571D02*
X115349054Y-82691905D01*
X115587149Y-82572857D02*
X115087149Y-82572857D01*
X115087149Y-82572857D02*
X115087149Y-82763333D01*
X115087149Y-82763333D02*
X115110959Y-82810952D01*
X115110959Y-82810952D02*
X115134768Y-82834762D01*
X115134768Y-82834762D02*
X115182387Y-82858571D01*
X115182387Y-82858571D02*
X115253816Y-82858571D01*
X115253816Y-82858571D02*
X115301435Y-82834762D01*
X115301435Y-82834762D02*
X115325244Y-82810952D01*
X115325244Y-82810952D02*
X115349054Y-82763333D01*
X115349054Y-82763333D02*
X115349054Y-82572857D01*
X115134768Y-83049048D02*
X115110959Y-83072857D01*
X115110959Y-83072857D02*
X115087149Y-83120476D01*
X115087149Y-83120476D02*
X115087149Y-83239524D01*
X115087149Y-83239524D02*
X115110959Y-83287143D01*
X115110959Y-83287143D02*
X115134768Y-83310952D01*
X115134768Y-83310952D02*
X115182387Y-83334762D01*
X115182387Y-83334762D02*
X115230006Y-83334762D01*
X115230006Y-83334762D02*
X115301435Y-83310952D01*
X115301435Y-83310952D02*
X115587149Y-83025238D01*
X115587149Y-83025238D02*
X115587149Y-83334762D01*
X115301435Y-83620476D02*
X115277625Y-83572857D01*
X115277625Y-83572857D02*
X115253816Y-83549047D01*
X115253816Y-83549047D02*
X115206197Y-83525238D01*
X115206197Y-83525238D02*
X115182387Y-83525238D01*
X115182387Y-83525238D02*
X115134768Y-83549047D01*
X115134768Y-83549047D02*
X115110959Y-83572857D01*
X115110959Y-83572857D02*
X115087149Y-83620476D01*
X115087149Y-83620476D02*
X115087149Y-83715714D01*
X115087149Y-83715714D02*
X115110959Y-83763333D01*
X115110959Y-83763333D02*
X115134768Y-83787142D01*
X115134768Y-83787142D02*
X115182387Y-83810952D01*
X115182387Y-83810952D02*
X115206197Y-83810952D01*
X115206197Y-83810952D02*
X115253816Y-83787142D01*
X115253816Y-83787142D02*
X115277625Y-83763333D01*
X115277625Y-83763333D02*
X115301435Y-83715714D01*
X115301435Y-83715714D02*
X115301435Y-83620476D01*
X115301435Y-83620476D02*
X115325244Y-83572857D01*
X115325244Y-83572857D02*
X115349054Y-83549047D01*
X115349054Y-83549047D02*
X115396673Y-83525238D01*
X115396673Y-83525238D02*
X115491911Y-83525238D01*
X115491911Y-83525238D02*
X115539530Y-83549047D01*
X115539530Y-83549047D02*
X115563340Y-83572857D01*
X115563340Y-83572857D02*
X115587149Y-83620476D01*
X115587149Y-83620476D02*
X115587149Y-83715714D01*
X115587149Y-83715714D02*
X115563340Y-83763333D01*
X115563340Y-83763333D02*
X115539530Y-83787142D01*
X115539530Y-83787142D02*
X115491911Y-83810952D01*
X115491911Y-83810952D02*
X115396673Y-83810952D01*
X115396673Y-83810952D02*
X115349054Y-83787142D01*
X115349054Y-83787142D02*
X115325244Y-83763333D01*
X115325244Y-83763333D02*
X115301435Y-83715714D01*
D10*
X100094819Y-96424286D02*
X100094819Y-97043333D01*
X100094819Y-97043333D02*
X100475771Y-96710000D01*
X100475771Y-96710000D02*
X100475771Y-96852857D01*
X100475771Y-96852857D02*
X100523390Y-96948095D01*
X100523390Y-96948095D02*
X100571009Y-96995714D01*
X100571009Y-96995714D02*
X100666247Y-97043333D01*
X100666247Y-97043333D02*
X100904342Y-97043333D01*
X100904342Y-97043333D02*
X100999580Y-96995714D01*
X100999580Y-96995714D02*
X101047200Y-96948095D01*
X101047200Y-96948095D02*
X101094819Y-96852857D01*
X101094819Y-96852857D02*
X101094819Y-96567143D01*
X101094819Y-96567143D02*
X101047200Y-96471905D01*
X101047200Y-96471905D02*
X100999580Y-96424286D01*
X100094819Y-97376667D02*
X100094819Y-97995714D01*
X100094819Y-97995714D02*
X100475771Y-97662381D01*
X100475771Y-97662381D02*
X100475771Y-97805238D01*
X100475771Y-97805238D02*
X100523390Y-97900476D01*
X100523390Y-97900476D02*
X100571009Y-97948095D01*
X100571009Y-97948095D02*
X100666247Y-97995714D01*
X100666247Y-97995714D02*
X100904342Y-97995714D01*
X100904342Y-97995714D02*
X100999580Y-97948095D01*
X100999580Y-97948095D02*
X101047200Y-97900476D01*
X101047200Y-97900476D02*
X101094819Y-97805238D01*
X101094819Y-97805238D02*
X101094819Y-97519524D01*
X101094819Y-97519524D02*
X101047200Y-97424286D01*
X101047200Y-97424286D02*
X100999580Y-97376667D01*
X100094819Y-98614762D02*
X100094819Y-98710000D01*
X100094819Y-98710000D02*
X100142438Y-98805238D01*
X100142438Y-98805238D02*
X100190057Y-98852857D01*
X100190057Y-98852857D02*
X100285295Y-98900476D01*
X100285295Y-98900476D02*
X100475771Y-98948095D01*
X100475771Y-98948095D02*
X100713866Y-98948095D01*
X100713866Y-98948095D02*
X100904342Y-98900476D01*
X100904342Y-98900476D02*
X100999580Y-98852857D01*
X100999580Y-98852857D02*
X101047200Y-98805238D01*
X101047200Y-98805238D02*
X101094819Y-98710000D01*
X101094819Y-98710000D02*
X101094819Y-98614762D01*
X101094819Y-98614762D02*
X101047200Y-98519524D01*
X101047200Y-98519524D02*
X100999580Y-98471905D01*
X100999580Y-98471905D02*
X100904342Y-98424286D01*
X100904342Y-98424286D02*
X100713866Y-98376667D01*
X100713866Y-98376667D02*
X100475771Y-98376667D01*
X100475771Y-98376667D02*
X100285295Y-98424286D01*
X100285295Y-98424286D02*
X100190057Y-98471905D01*
X100190057Y-98471905D02*
X100142438Y-98519524D01*
X100142438Y-98519524D02*
X100094819Y-98614762D01*
X101094819Y-99948095D02*
X100618628Y-99614762D01*
X101094819Y-99376667D02*
X100094819Y-99376667D01*
X100094819Y-99376667D02*
X100094819Y-99757619D01*
X100094819Y-99757619D02*
X100142438Y-99852857D01*
X100142438Y-99852857D02*
X100190057Y-99900476D01*
X100190057Y-99900476D02*
X100285295Y-99948095D01*
X100285295Y-99948095D02*
X100428152Y-99948095D01*
X100428152Y-99948095D02*
X100523390Y-99900476D01*
X100523390Y-99900476D02*
X100571009Y-99852857D01*
X100571009Y-99852857D02*
X100618628Y-99757619D01*
X100618628Y-99757619D02*
X100618628Y-99376667D01*
D12*
X99217149Y-97888571D02*
X98979054Y-97721905D01*
X99217149Y-97602857D02*
X98717149Y-97602857D01*
X98717149Y-97602857D02*
X98717149Y-97793333D01*
X98717149Y-97793333D02*
X98740959Y-97840952D01*
X98740959Y-97840952D02*
X98764768Y-97864762D01*
X98764768Y-97864762D02*
X98812387Y-97888571D01*
X98812387Y-97888571D02*
X98883816Y-97888571D01*
X98883816Y-97888571D02*
X98931435Y-97864762D01*
X98931435Y-97864762D02*
X98955244Y-97840952D01*
X98955244Y-97840952D02*
X98979054Y-97793333D01*
X98979054Y-97793333D02*
X98979054Y-97602857D01*
X98717149Y-98055238D02*
X98717149Y-98364762D01*
X98717149Y-98364762D02*
X98907625Y-98198095D01*
X98907625Y-98198095D02*
X98907625Y-98269524D01*
X98907625Y-98269524D02*
X98931435Y-98317143D01*
X98931435Y-98317143D02*
X98955244Y-98340952D01*
X98955244Y-98340952D02*
X99002863Y-98364762D01*
X99002863Y-98364762D02*
X99121911Y-98364762D01*
X99121911Y-98364762D02*
X99169530Y-98340952D01*
X99169530Y-98340952D02*
X99193340Y-98317143D01*
X99193340Y-98317143D02*
X99217149Y-98269524D01*
X99217149Y-98269524D02*
X99217149Y-98126667D01*
X99217149Y-98126667D02*
X99193340Y-98079048D01*
X99193340Y-98079048D02*
X99169530Y-98055238D01*
X98717149Y-98674285D02*
X98717149Y-98721904D01*
X98717149Y-98721904D02*
X98740959Y-98769523D01*
X98740959Y-98769523D02*
X98764768Y-98793333D01*
X98764768Y-98793333D02*
X98812387Y-98817142D01*
X98812387Y-98817142D02*
X98907625Y-98840952D01*
X98907625Y-98840952D02*
X99026673Y-98840952D01*
X99026673Y-98840952D02*
X99121911Y-98817142D01*
X99121911Y-98817142D02*
X99169530Y-98793333D01*
X99169530Y-98793333D02*
X99193340Y-98769523D01*
X99193340Y-98769523D02*
X99217149Y-98721904D01*
X99217149Y-98721904D02*
X99217149Y-98674285D01*
X99217149Y-98674285D02*
X99193340Y-98626666D01*
X99193340Y-98626666D02*
X99169530Y-98602857D01*
X99169530Y-98602857D02*
X99121911Y-98579047D01*
X99121911Y-98579047D02*
X99026673Y-98555238D01*
X99026673Y-98555238D02*
X98907625Y-98555238D01*
X98907625Y-98555238D02*
X98812387Y-98579047D01*
X98812387Y-98579047D02*
X98764768Y-98602857D01*
X98764768Y-98602857D02*
X98740959Y-98626666D01*
X98740959Y-98626666D02*
X98717149Y-98674285D01*
D10*
X115154819Y-52670476D02*
X115154819Y-53289523D01*
X115154819Y-53289523D02*
X115535771Y-52956190D01*
X115535771Y-52956190D02*
X115535771Y-53099047D01*
X115535771Y-53099047D02*
X115583390Y-53194285D01*
X115583390Y-53194285D02*
X115631009Y-53241904D01*
X115631009Y-53241904D02*
X115726247Y-53289523D01*
X115726247Y-53289523D02*
X115964342Y-53289523D01*
X115964342Y-53289523D02*
X116059580Y-53241904D01*
X116059580Y-53241904D02*
X116107200Y-53194285D01*
X116107200Y-53194285D02*
X116154819Y-53099047D01*
X116154819Y-53099047D02*
X116154819Y-52813333D01*
X116154819Y-52813333D02*
X116107200Y-52718095D01*
X116107200Y-52718095D02*
X116059580Y-52670476D01*
X115154819Y-53622857D02*
X115154819Y-54241904D01*
X115154819Y-54241904D02*
X115535771Y-53908571D01*
X115535771Y-53908571D02*
X115535771Y-54051428D01*
X115535771Y-54051428D02*
X115583390Y-54146666D01*
X115583390Y-54146666D02*
X115631009Y-54194285D01*
X115631009Y-54194285D02*
X115726247Y-54241904D01*
X115726247Y-54241904D02*
X115964342Y-54241904D01*
X115964342Y-54241904D02*
X116059580Y-54194285D01*
X116059580Y-54194285D02*
X116107200Y-54146666D01*
X116107200Y-54146666D02*
X116154819Y-54051428D01*
X116154819Y-54051428D02*
X116154819Y-53765714D01*
X116154819Y-53765714D02*
X116107200Y-53670476D01*
X116107200Y-53670476D02*
X116059580Y-53622857D01*
X116154819Y-55241904D02*
X115678628Y-54908571D01*
X116154819Y-54670476D02*
X115154819Y-54670476D01*
X115154819Y-54670476D02*
X115154819Y-55051428D01*
X115154819Y-55051428D02*
X115202438Y-55146666D01*
X115202438Y-55146666D02*
X115250057Y-55194285D01*
X115250057Y-55194285D02*
X115345295Y-55241904D01*
X115345295Y-55241904D02*
X115488152Y-55241904D01*
X115488152Y-55241904D02*
X115583390Y-55194285D01*
X115583390Y-55194285D02*
X115631009Y-55146666D01*
X115631009Y-55146666D02*
X115678628Y-55051428D01*
X115678628Y-55051428D02*
X115678628Y-54670476D01*
D12*
X114277149Y-53658571D02*
X114039054Y-53491905D01*
X114277149Y-53372857D02*
X113777149Y-53372857D01*
X113777149Y-53372857D02*
X113777149Y-53563333D01*
X113777149Y-53563333D02*
X113800959Y-53610952D01*
X113800959Y-53610952D02*
X113824768Y-53634762D01*
X113824768Y-53634762D02*
X113872387Y-53658571D01*
X113872387Y-53658571D02*
X113943816Y-53658571D01*
X113943816Y-53658571D02*
X113991435Y-53634762D01*
X113991435Y-53634762D02*
X114015244Y-53610952D01*
X114015244Y-53610952D02*
X114039054Y-53563333D01*
X114039054Y-53563333D02*
X114039054Y-53372857D01*
X114277149Y-54134762D02*
X114277149Y-53849048D01*
X114277149Y-53991905D02*
X113777149Y-53991905D01*
X113777149Y-53991905D02*
X113848578Y-53944286D01*
X113848578Y-53944286D02*
X113896197Y-53896667D01*
X113896197Y-53896667D02*
X113920006Y-53849048D01*
X113777149Y-54587142D02*
X113777149Y-54349047D01*
X113777149Y-54349047D02*
X114015244Y-54325238D01*
X114015244Y-54325238D02*
X113991435Y-54349047D01*
X113991435Y-54349047D02*
X113967625Y-54396666D01*
X113967625Y-54396666D02*
X113967625Y-54515714D01*
X113967625Y-54515714D02*
X113991435Y-54563333D01*
X113991435Y-54563333D02*
X114015244Y-54587142D01*
X114015244Y-54587142D02*
X114062863Y-54610952D01*
X114062863Y-54610952D02*
X114181911Y-54610952D01*
X114181911Y-54610952D02*
X114229530Y-54587142D01*
X114229530Y-54587142D02*
X114253340Y-54563333D01*
X114253340Y-54563333D02*
X114277149Y-54515714D01*
X114277149Y-54515714D02*
X114277149Y-54396666D01*
X114277149Y-54396666D02*
X114253340Y-54349047D01*
X114253340Y-54349047D02*
X114229530Y-54325238D01*
D10*
X110548151Y-47389523D02*
X111214818Y-47389523D01*
X110167199Y-47151428D02*
X110881484Y-46913333D01*
X110881484Y-46913333D02*
X110881484Y-47532380D01*
X110214818Y-47818095D02*
X110214818Y-48484761D01*
X110214818Y-48484761D02*
X111214818Y-48056190D01*
X111214818Y-48865714D02*
X110214818Y-48865714D01*
X110833865Y-48960952D02*
X111214818Y-49246666D01*
X110548151Y-49246666D02*
X110929103Y-48865714D01*
D12*
X109337148Y-47758571D02*
X109099053Y-47591905D01*
X109337148Y-47472857D02*
X108837148Y-47472857D01*
X108837148Y-47472857D02*
X108837148Y-47663333D01*
X108837148Y-47663333D02*
X108860958Y-47710952D01*
X108860958Y-47710952D02*
X108884767Y-47734762D01*
X108884767Y-47734762D02*
X108932386Y-47758571D01*
X108932386Y-47758571D02*
X109003815Y-47758571D01*
X109003815Y-47758571D02*
X109051434Y-47734762D01*
X109051434Y-47734762D02*
X109075243Y-47710952D01*
X109075243Y-47710952D02*
X109099053Y-47663333D01*
X109099053Y-47663333D02*
X109099053Y-47472857D01*
X108884767Y-47949048D02*
X108860958Y-47972857D01*
X108860958Y-47972857D02*
X108837148Y-48020476D01*
X108837148Y-48020476D02*
X108837148Y-48139524D01*
X108837148Y-48139524D02*
X108860958Y-48187143D01*
X108860958Y-48187143D02*
X108884767Y-48210952D01*
X108884767Y-48210952D02*
X108932386Y-48234762D01*
X108932386Y-48234762D02*
X108980005Y-48234762D01*
X108980005Y-48234762D02*
X109051434Y-48210952D01*
X109051434Y-48210952D02*
X109337148Y-47925238D01*
X109337148Y-47925238D02*
X109337148Y-48234762D01*
X108837148Y-48687142D02*
X108837148Y-48449047D01*
X108837148Y-48449047D02*
X109075243Y-48425238D01*
X109075243Y-48425238D02*
X109051434Y-48449047D01*
X109051434Y-48449047D02*
X109027624Y-48496666D01*
X109027624Y-48496666D02*
X109027624Y-48615714D01*
X109027624Y-48615714D02*
X109051434Y-48663333D01*
X109051434Y-48663333D02*
X109075243Y-48687142D01*
X109075243Y-48687142D02*
X109122862Y-48710952D01*
X109122862Y-48710952D02*
X109241910Y-48710952D01*
X109241910Y-48710952D02*
X109289529Y-48687142D01*
X109289529Y-48687142D02*
X109313339Y-48663333D01*
X109313339Y-48663333D02*
X109337148Y-48615714D01*
X109337148Y-48615714D02*
X109337148Y-48496666D01*
X109337148Y-48496666D02*
X109313339Y-48449047D01*
X109313339Y-48449047D02*
X109289529Y-48425238D01*
D10*
X135719047Y-112694819D02*
X136290475Y-112694819D01*
X136004761Y-112694819D02*
X136004761Y-111694819D01*
X136004761Y-111694819D02*
X136099999Y-111837676D01*
X136099999Y-111837676D02*
X136195237Y-111932914D01*
X136195237Y-111932914D02*
X136290475Y-111980533D01*
X135099999Y-111694819D02*
X135004761Y-111694819D01*
X135004761Y-111694819D02*
X134909523Y-111742438D01*
X134909523Y-111742438D02*
X134861904Y-111790057D01*
X134861904Y-111790057D02*
X134814285Y-111885295D01*
X134814285Y-111885295D02*
X134766666Y-112075771D01*
X134766666Y-112075771D02*
X134766666Y-112313866D01*
X134766666Y-112313866D02*
X134814285Y-112504342D01*
X134814285Y-112504342D02*
X134861904Y-112599580D01*
X134861904Y-112599580D02*
X134909523Y-112647200D01*
X134909523Y-112647200D02*
X135004761Y-112694819D01*
X135004761Y-112694819D02*
X135099999Y-112694819D01*
X135099999Y-112694819D02*
X135195237Y-112647200D01*
X135195237Y-112647200D02*
X135242856Y-112599580D01*
X135242856Y-112599580D02*
X135290475Y-112504342D01*
X135290475Y-112504342D02*
X135338094Y-112313866D01*
X135338094Y-112313866D02*
X135338094Y-112075771D01*
X135338094Y-112075771D02*
X135290475Y-111885295D01*
X135290475Y-111885295D02*
X135242856Y-111790057D01*
X135242856Y-111790057D02*
X135195237Y-111742438D01*
X135195237Y-111742438D02*
X135099999Y-111694819D01*
X134147618Y-111694819D02*
X134052380Y-111694819D01*
X134052380Y-111694819D02*
X133957142Y-111742438D01*
X133957142Y-111742438D02*
X133909523Y-111790057D01*
X133909523Y-111790057D02*
X133861904Y-111885295D01*
X133861904Y-111885295D02*
X133814285Y-112075771D01*
X133814285Y-112075771D02*
X133814285Y-112313866D01*
X133814285Y-112313866D02*
X133861904Y-112504342D01*
X133861904Y-112504342D02*
X133909523Y-112599580D01*
X133909523Y-112599580D02*
X133957142Y-112647200D01*
X133957142Y-112647200D02*
X134052380Y-112694819D01*
X134052380Y-112694819D02*
X134147618Y-112694819D01*
X134147618Y-112694819D02*
X134242856Y-112647200D01*
X134242856Y-112647200D02*
X134290475Y-112599580D01*
X134290475Y-112599580D02*
X134338094Y-112504342D01*
X134338094Y-112504342D02*
X134385713Y-112313866D01*
X134385713Y-112313866D02*
X134385713Y-112075771D01*
X134385713Y-112075771D02*
X134338094Y-111885295D01*
X134338094Y-111885295D02*
X134290475Y-111790057D01*
X134290475Y-111790057D02*
X134242856Y-111742438D01*
X134242856Y-111742438D02*
X134147618Y-111694819D01*
X133385713Y-112028152D02*
X133385713Y-112694819D01*
X133385713Y-112123390D02*
X133338094Y-112075771D01*
X133338094Y-112075771D02*
X133242856Y-112028152D01*
X133242856Y-112028152D02*
X133099999Y-112028152D01*
X133099999Y-112028152D02*
X133004761Y-112075771D01*
X133004761Y-112075771D02*
X132957142Y-112171009D01*
X132957142Y-112171009D02*
X132957142Y-112694819D01*
D12*
X134921428Y-110739530D02*
X134945237Y-110763340D01*
X134945237Y-110763340D02*
X135016666Y-110787149D01*
X135016666Y-110787149D02*
X135064285Y-110787149D01*
X135064285Y-110787149D02*
X135135713Y-110763340D01*
X135135713Y-110763340D02*
X135183332Y-110715720D01*
X135183332Y-110715720D02*
X135207142Y-110668101D01*
X135207142Y-110668101D02*
X135230951Y-110572863D01*
X135230951Y-110572863D02*
X135230951Y-110501435D01*
X135230951Y-110501435D02*
X135207142Y-110406197D01*
X135207142Y-110406197D02*
X135183332Y-110358578D01*
X135183332Y-110358578D02*
X135135713Y-110310959D01*
X135135713Y-110310959D02*
X135064285Y-110287149D01*
X135064285Y-110287149D02*
X135016666Y-110287149D01*
X135016666Y-110287149D02*
X134945237Y-110310959D01*
X134945237Y-110310959D02*
X134921428Y-110334768D01*
X134730951Y-110334768D02*
X134707142Y-110310959D01*
X134707142Y-110310959D02*
X134659523Y-110287149D01*
X134659523Y-110287149D02*
X134540475Y-110287149D01*
X134540475Y-110287149D02*
X134492856Y-110310959D01*
X134492856Y-110310959D02*
X134469047Y-110334768D01*
X134469047Y-110334768D02*
X134445237Y-110382387D01*
X134445237Y-110382387D02*
X134445237Y-110430006D01*
X134445237Y-110430006D02*
X134469047Y-110501435D01*
X134469047Y-110501435D02*
X134754761Y-110787149D01*
X134754761Y-110787149D02*
X134445237Y-110787149D01*
X133969047Y-110787149D02*
X134254761Y-110787149D01*
X134111904Y-110787149D02*
X134111904Y-110287149D01*
X134111904Y-110287149D02*
X134159523Y-110358578D01*
X134159523Y-110358578D02*
X134207142Y-110406197D01*
X134207142Y-110406197D02*
X134254761Y-110430006D01*
D10*
X94781785Y-101324819D02*
X94162738Y-101324819D01*
X94162738Y-101324819D02*
X94496071Y-101705771D01*
X94496071Y-101705771D02*
X94353214Y-101705771D01*
X94353214Y-101705771D02*
X94257976Y-101753390D01*
X94257976Y-101753390D02*
X94210357Y-101801009D01*
X94210357Y-101801009D02*
X94162738Y-101896247D01*
X94162738Y-101896247D02*
X94162738Y-102134342D01*
X94162738Y-102134342D02*
X94210357Y-102229580D01*
X94210357Y-102229580D02*
X94257976Y-102277200D01*
X94257976Y-102277200D02*
X94353214Y-102324819D01*
X94353214Y-102324819D02*
X94638928Y-102324819D01*
X94638928Y-102324819D02*
X94734166Y-102277200D01*
X94734166Y-102277200D02*
X94781785Y-102229580D01*
X93543690Y-101324819D02*
X93448452Y-101324819D01*
X93448452Y-101324819D02*
X93353214Y-101372438D01*
X93353214Y-101372438D02*
X93305595Y-101420057D01*
X93305595Y-101420057D02*
X93257976Y-101515295D01*
X93257976Y-101515295D02*
X93210357Y-101705771D01*
X93210357Y-101705771D02*
X93210357Y-101943866D01*
X93210357Y-101943866D02*
X93257976Y-102134342D01*
X93257976Y-102134342D02*
X93305595Y-102229580D01*
X93305595Y-102229580D02*
X93353214Y-102277200D01*
X93353214Y-102277200D02*
X93448452Y-102324819D01*
X93448452Y-102324819D02*
X93543690Y-102324819D01*
X93543690Y-102324819D02*
X93638928Y-102277200D01*
X93638928Y-102277200D02*
X93686547Y-102229580D01*
X93686547Y-102229580D02*
X93734166Y-102134342D01*
X93734166Y-102134342D02*
X93781785Y-101943866D01*
X93781785Y-101943866D02*
X93781785Y-101705771D01*
X93781785Y-101705771D02*
X93734166Y-101515295D01*
X93734166Y-101515295D02*
X93686547Y-101420057D01*
X93686547Y-101420057D02*
X93638928Y-101372438D01*
X93638928Y-101372438D02*
X93543690Y-101324819D01*
X92781785Y-102324819D02*
X92781785Y-101324819D01*
X92686547Y-101943866D02*
X92400833Y-102324819D01*
X92400833Y-101658152D02*
X92781785Y-102039104D01*
D12*
X93888928Y-103747149D02*
X94055594Y-103509054D01*
X94174642Y-103747149D02*
X94174642Y-103247149D01*
X94174642Y-103247149D02*
X93984166Y-103247149D01*
X93984166Y-103247149D02*
X93936547Y-103270959D01*
X93936547Y-103270959D02*
X93912737Y-103294768D01*
X93912737Y-103294768D02*
X93888928Y-103342387D01*
X93888928Y-103342387D02*
X93888928Y-103413816D01*
X93888928Y-103413816D02*
X93912737Y-103461435D01*
X93912737Y-103461435D02*
X93936547Y-103485244D01*
X93936547Y-103485244D02*
X93984166Y-103509054D01*
X93984166Y-103509054D02*
X94174642Y-103509054D01*
X93722261Y-103247149D02*
X93412737Y-103247149D01*
X93412737Y-103247149D02*
X93579404Y-103437625D01*
X93579404Y-103437625D02*
X93507975Y-103437625D01*
X93507975Y-103437625D02*
X93460356Y-103461435D01*
X93460356Y-103461435D02*
X93436547Y-103485244D01*
X93436547Y-103485244D02*
X93412737Y-103532863D01*
X93412737Y-103532863D02*
X93412737Y-103651911D01*
X93412737Y-103651911D02*
X93436547Y-103699530D01*
X93436547Y-103699530D02*
X93460356Y-103723340D01*
X93460356Y-103723340D02*
X93507975Y-103747149D01*
X93507975Y-103747149D02*
X93650832Y-103747149D01*
X93650832Y-103747149D02*
X93698451Y-103723340D01*
X93698451Y-103723340D02*
X93722261Y-103699530D01*
X92984166Y-103247149D02*
X93079404Y-103247149D01*
X93079404Y-103247149D02*
X93127023Y-103270959D01*
X93127023Y-103270959D02*
X93150833Y-103294768D01*
X93150833Y-103294768D02*
X93198452Y-103366197D01*
X93198452Y-103366197D02*
X93222261Y-103461435D01*
X93222261Y-103461435D02*
X93222261Y-103651911D01*
X93222261Y-103651911D02*
X93198452Y-103699530D01*
X93198452Y-103699530D02*
X93174642Y-103723340D01*
X93174642Y-103723340D02*
X93127023Y-103747149D01*
X93127023Y-103747149D02*
X93031785Y-103747149D01*
X93031785Y-103747149D02*
X92984166Y-103723340D01*
X92984166Y-103723340D02*
X92960357Y-103699530D01*
X92960357Y-103699530D02*
X92936547Y-103651911D01*
X92936547Y-103651911D02*
X92936547Y-103532863D01*
X92936547Y-103532863D02*
X92960357Y-103485244D01*
X92960357Y-103485244D02*
X92984166Y-103461435D01*
X92984166Y-103461435D02*
X93031785Y-103437625D01*
X93031785Y-103437625D02*
X93127023Y-103437625D01*
X93127023Y-103437625D02*
X93174642Y-103461435D01*
X93174642Y-103461435D02*
X93198452Y-103485244D01*
X93198452Y-103485244D02*
X93222261Y-103532863D01*
D10*
X146714285Y-110290057D02*
X146666666Y-110242438D01*
X146666666Y-110242438D02*
X146571428Y-110194819D01*
X146571428Y-110194819D02*
X146333333Y-110194819D01*
X146333333Y-110194819D02*
X146238095Y-110242438D01*
X146238095Y-110242438D02*
X146190476Y-110290057D01*
X146190476Y-110290057D02*
X146142857Y-110385295D01*
X146142857Y-110385295D02*
X146142857Y-110480533D01*
X146142857Y-110480533D02*
X146190476Y-110623390D01*
X146190476Y-110623390D02*
X146761904Y-111194819D01*
X146761904Y-111194819D02*
X146142857Y-111194819D01*
X145761904Y-110290057D02*
X145714285Y-110242438D01*
X145714285Y-110242438D02*
X145619047Y-110194819D01*
X145619047Y-110194819D02*
X145380952Y-110194819D01*
X145380952Y-110194819D02*
X145285714Y-110242438D01*
X145285714Y-110242438D02*
X145238095Y-110290057D01*
X145238095Y-110290057D02*
X145190476Y-110385295D01*
X145190476Y-110385295D02*
X145190476Y-110480533D01*
X145190476Y-110480533D02*
X145238095Y-110623390D01*
X145238095Y-110623390D02*
X145809523Y-111194819D01*
X145809523Y-111194819D02*
X145190476Y-111194819D01*
X144333333Y-110528152D02*
X144333333Y-111194819D01*
X144761904Y-110528152D02*
X144761904Y-111051961D01*
X144761904Y-111051961D02*
X144714285Y-111147200D01*
X144714285Y-111147200D02*
X144619047Y-111194819D01*
X144619047Y-111194819D02*
X144476190Y-111194819D01*
X144476190Y-111194819D02*
X144380952Y-111147200D01*
X144380952Y-111147200D02*
X144333333Y-111099580D01*
D12*
X145821428Y-112599530D02*
X145845237Y-112623340D01*
X145845237Y-112623340D02*
X145916666Y-112647149D01*
X145916666Y-112647149D02*
X145964285Y-112647149D01*
X145964285Y-112647149D02*
X146035713Y-112623340D01*
X146035713Y-112623340D02*
X146083332Y-112575720D01*
X146083332Y-112575720D02*
X146107142Y-112528101D01*
X146107142Y-112528101D02*
X146130951Y-112432863D01*
X146130951Y-112432863D02*
X146130951Y-112361435D01*
X146130951Y-112361435D02*
X146107142Y-112266197D01*
X146107142Y-112266197D02*
X146083332Y-112218578D01*
X146083332Y-112218578D02*
X146035713Y-112170959D01*
X146035713Y-112170959D02*
X145964285Y-112147149D01*
X145964285Y-112147149D02*
X145916666Y-112147149D01*
X145916666Y-112147149D02*
X145845237Y-112170959D01*
X145845237Y-112170959D02*
X145821428Y-112194768D01*
X145630951Y-112194768D02*
X145607142Y-112170959D01*
X145607142Y-112170959D02*
X145559523Y-112147149D01*
X145559523Y-112147149D02*
X145440475Y-112147149D01*
X145440475Y-112147149D02*
X145392856Y-112170959D01*
X145392856Y-112170959D02*
X145369047Y-112194768D01*
X145369047Y-112194768D02*
X145345237Y-112242387D01*
X145345237Y-112242387D02*
X145345237Y-112290006D01*
X145345237Y-112290006D02*
X145369047Y-112361435D01*
X145369047Y-112361435D02*
X145654761Y-112647149D01*
X145654761Y-112647149D02*
X145345237Y-112647149D01*
X145035714Y-112147149D02*
X144988095Y-112147149D01*
X144988095Y-112147149D02*
X144940476Y-112170959D01*
X144940476Y-112170959D02*
X144916666Y-112194768D01*
X144916666Y-112194768D02*
X144892857Y-112242387D01*
X144892857Y-112242387D02*
X144869047Y-112337625D01*
X144869047Y-112337625D02*
X144869047Y-112456673D01*
X144869047Y-112456673D02*
X144892857Y-112551911D01*
X144892857Y-112551911D02*
X144916666Y-112599530D01*
X144916666Y-112599530D02*
X144940476Y-112623340D01*
X144940476Y-112623340D02*
X144988095Y-112647149D01*
X144988095Y-112647149D02*
X145035714Y-112647149D01*
X145035714Y-112647149D02*
X145083333Y-112623340D01*
X145083333Y-112623340D02*
X145107142Y-112599530D01*
X145107142Y-112599530D02*
X145130952Y-112551911D01*
X145130952Y-112551911D02*
X145154761Y-112456673D01*
X145154761Y-112456673D02*
X145154761Y-112337625D01*
X145154761Y-112337625D02*
X145130952Y-112242387D01*
X145130952Y-112242387D02*
X145107142Y-112194768D01*
X145107142Y-112194768D02*
X145083333Y-112170959D01*
X145083333Y-112170959D02*
X145035714Y-112147149D01*
D10*
X122678152Y-77639523D02*
X123344819Y-77639523D01*
X122297200Y-77401428D02*
X123011485Y-77163333D01*
X123011485Y-77163333D02*
X123011485Y-77782380D01*
X123344819Y-78163333D02*
X122344819Y-78163333D01*
X122963866Y-78258571D02*
X123344819Y-78544285D01*
X122678152Y-78544285D02*
X123059104Y-78163333D01*
X122344819Y-78877619D02*
X122344819Y-79544285D01*
X122344819Y-79544285D02*
X123344819Y-79115714D01*
D12*
X121467149Y-78008571D02*
X121229054Y-77841905D01*
X121467149Y-77722857D02*
X120967149Y-77722857D01*
X120967149Y-77722857D02*
X120967149Y-77913333D01*
X120967149Y-77913333D02*
X120990959Y-77960952D01*
X120990959Y-77960952D02*
X121014768Y-77984762D01*
X121014768Y-77984762D02*
X121062387Y-78008571D01*
X121062387Y-78008571D02*
X121133816Y-78008571D01*
X121133816Y-78008571D02*
X121181435Y-77984762D01*
X121181435Y-77984762D02*
X121205244Y-77960952D01*
X121205244Y-77960952D02*
X121229054Y-77913333D01*
X121229054Y-77913333D02*
X121229054Y-77722857D01*
X121014768Y-78199048D02*
X120990959Y-78222857D01*
X120990959Y-78222857D02*
X120967149Y-78270476D01*
X120967149Y-78270476D02*
X120967149Y-78389524D01*
X120967149Y-78389524D02*
X120990959Y-78437143D01*
X120990959Y-78437143D02*
X121014768Y-78460952D01*
X121014768Y-78460952D02*
X121062387Y-78484762D01*
X121062387Y-78484762D02*
X121110006Y-78484762D01*
X121110006Y-78484762D02*
X121181435Y-78460952D01*
X121181435Y-78460952D02*
X121467149Y-78175238D01*
X121467149Y-78175238D02*
X121467149Y-78484762D01*
X120967149Y-78651428D02*
X120967149Y-78960952D01*
X120967149Y-78960952D02*
X121157625Y-78794285D01*
X121157625Y-78794285D02*
X121157625Y-78865714D01*
X121157625Y-78865714D02*
X121181435Y-78913333D01*
X121181435Y-78913333D02*
X121205244Y-78937142D01*
X121205244Y-78937142D02*
X121252863Y-78960952D01*
X121252863Y-78960952D02*
X121371911Y-78960952D01*
X121371911Y-78960952D02*
X121419530Y-78937142D01*
X121419530Y-78937142D02*
X121443340Y-78913333D01*
X121443340Y-78913333D02*
X121467149Y-78865714D01*
X121467149Y-78865714D02*
X121467149Y-78722857D01*
X121467149Y-78722857D02*
X121443340Y-78675238D01*
X121443340Y-78675238D02*
X121419530Y-78651428D01*
D10*
X96708094Y-34540057D02*
X96660475Y-34492438D01*
X96660475Y-34492438D02*
X96565237Y-34444819D01*
X96565237Y-34444819D02*
X96327142Y-34444819D01*
X96327142Y-34444819D02*
X96231904Y-34492438D01*
X96231904Y-34492438D02*
X96184285Y-34540057D01*
X96184285Y-34540057D02*
X96136666Y-34635295D01*
X96136666Y-34635295D02*
X96136666Y-34730533D01*
X96136666Y-34730533D02*
X96184285Y-34873390D01*
X96184285Y-34873390D02*
X96755713Y-35444819D01*
X96755713Y-35444819D02*
X96136666Y-35444819D01*
X95755713Y-34540057D02*
X95708094Y-34492438D01*
X95708094Y-34492438D02*
X95612856Y-34444819D01*
X95612856Y-34444819D02*
X95374761Y-34444819D01*
X95374761Y-34444819D02*
X95279523Y-34492438D01*
X95279523Y-34492438D02*
X95231904Y-34540057D01*
X95231904Y-34540057D02*
X95184285Y-34635295D01*
X95184285Y-34635295D02*
X95184285Y-34730533D01*
X95184285Y-34730533D02*
X95231904Y-34873390D01*
X95231904Y-34873390D02*
X95803332Y-35444819D01*
X95803332Y-35444819D02*
X95184285Y-35444819D01*
X94565237Y-34444819D02*
X94469999Y-34444819D01*
X94469999Y-34444819D02*
X94374761Y-34492438D01*
X94374761Y-34492438D02*
X94327142Y-34540057D01*
X94327142Y-34540057D02*
X94279523Y-34635295D01*
X94279523Y-34635295D02*
X94231904Y-34825771D01*
X94231904Y-34825771D02*
X94231904Y-35063866D01*
X94231904Y-35063866D02*
X94279523Y-35254342D01*
X94279523Y-35254342D02*
X94327142Y-35349580D01*
X94327142Y-35349580D02*
X94374761Y-35397200D01*
X94374761Y-35397200D02*
X94469999Y-35444819D01*
X94469999Y-35444819D02*
X94565237Y-35444819D01*
X94565237Y-35444819D02*
X94660475Y-35397200D01*
X94660475Y-35397200D02*
X94708094Y-35349580D01*
X94708094Y-35349580D02*
X94755713Y-35254342D01*
X94755713Y-35254342D02*
X94803332Y-35063866D01*
X94803332Y-35063866D02*
X94803332Y-34825771D01*
X94803332Y-34825771D02*
X94755713Y-34635295D01*
X94755713Y-34635295D02*
X94708094Y-34540057D01*
X94708094Y-34540057D02*
X94660475Y-34492438D01*
X94660475Y-34492438D02*
X94565237Y-34444819D01*
X93231904Y-35444819D02*
X93565237Y-34968628D01*
X93803332Y-35444819D02*
X93803332Y-34444819D01*
X93803332Y-34444819D02*
X93422380Y-34444819D01*
X93422380Y-34444819D02*
X93327142Y-34492438D01*
X93327142Y-34492438D02*
X93279523Y-34540057D01*
X93279523Y-34540057D02*
X93231904Y-34635295D01*
X93231904Y-34635295D02*
X93231904Y-34778152D01*
X93231904Y-34778152D02*
X93279523Y-34873390D01*
X93279523Y-34873390D02*
X93327142Y-34921009D01*
X93327142Y-34921009D02*
X93422380Y-34968628D01*
X93422380Y-34968628D02*
X93803332Y-34968628D01*
D12*
X95291428Y-36867149D02*
X95458094Y-36629054D01*
X95577142Y-36867149D02*
X95577142Y-36367149D01*
X95577142Y-36367149D02*
X95386666Y-36367149D01*
X95386666Y-36367149D02*
X95339047Y-36390959D01*
X95339047Y-36390959D02*
X95315237Y-36414768D01*
X95315237Y-36414768D02*
X95291428Y-36462387D01*
X95291428Y-36462387D02*
X95291428Y-36533816D01*
X95291428Y-36533816D02*
X95315237Y-36581435D01*
X95315237Y-36581435D02*
X95339047Y-36605244D01*
X95339047Y-36605244D02*
X95386666Y-36629054D01*
X95386666Y-36629054D02*
X95577142Y-36629054D01*
X95124761Y-36367149D02*
X94815237Y-36367149D01*
X94815237Y-36367149D02*
X94981904Y-36557625D01*
X94981904Y-36557625D02*
X94910475Y-36557625D01*
X94910475Y-36557625D02*
X94862856Y-36581435D01*
X94862856Y-36581435D02*
X94839047Y-36605244D01*
X94839047Y-36605244D02*
X94815237Y-36652863D01*
X94815237Y-36652863D02*
X94815237Y-36771911D01*
X94815237Y-36771911D02*
X94839047Y-36819530D01*
X94839047Y-36819530D02*
X94862856Y-36843340D01*
X94862856Y-36843340D02*
X94910475Y-36867149D01*
X94910475Y-36867149D02*
X95053332Y-36867149D01*
X95053332Y-36867149D02*
X95100951Y-36843340D01*
X95100951Y-36843340D02*
X95124761Y-36819530D01*
X94648571Y-36367149D02*
X94339047Y-36367149D01*
X94339047Y-36367149D02*
X94505714Y-36557625D01*
X94505714Y-36557625D02*
X94434285Y-36557625D01*
X94434285Y-36557625D02*
X94386666Y-36581435D01*
X94386666Y-36581435D02*
X94362857Y-36605244D01*
X94362857Y-36605244D02*
X94339047Y-36652863D01*
X94339047Y-36652863D02*
X94339047Y-36771911D01*
X94339047Y-36771911D02*
X94362857Y-36819530D01*
X94362857Y-36819530D02*
X94386666Y-36843340D01*
X94386666Y-36843340D02*
X94434285Y-36867149D01*
X94434285Y-36867149D02*
X94577142Y-36867149D01*
X94577142Y-36867149D02*
X94624761Y-36843340D01*
X94624761Y-36843340D02*
X94648571Y-36819530D01*
D10*
X113266666Y-108550057D02*
X113219047Y-108502438D01*
X113219047Y-108502438D02*
X113123809Y-108454819D01*
X113123809Y-108454819D02*
X112885714Y-108454819D01*
X112885714Y-108454819D02*
X112790476Y-108502438D01*
X112790476Y-108502438D02*
X112742857Y-108550057D01*
X112742857Y-108550057D02*
X112695238Y-108645295D01*
X112695238Y-108645295D02*
X112695238Y-108740533D01*
X112695238Y-108740533D02*
X112742857Y-108883390D01*
X112742857Y-108883390D02*
X113314285Y-109454819D01*
X113314285Y-109454819D02*
X112695238Y-109454819D01*
X112266666Y-109454819D02*
X112266666Y-108454819D01*
X112171428Y-109073866D02*
X111885714Y-109454819D01*
X111885714Y-108788152D02*
X112266666Y-109169104D01*
X111504761Y-108550057D02*
X111457142Y-108502438D01*
X111457142Y-108502438D02*
X111361904Y-108454819D01*
X111361904Y-108454819D02*
X111123809Y-108454819D01*
X111123809Y-108454819D02*
X111028571Y-108502438D01*
X111028571Y-108502438D02*
X110980952Y-108550057D01*
X110980952Y-108550057D02*
X110933333Y-108645295D01*
X110933333Y-108645295D02*
X110933333Y-108740533D01*
X110933333Y-108740533D02*
X110980952Y-108883390D01*
X110980952Y-108883390D02*
X111552380Y-109454819D01*
X111552380Y-109454819D02*
X110933333Y-109454819D01*
D12*
X112421428Y-107577149D02*
X112588094Y-107339054D01*
X112707142Y-107577149D02*
X112707142Y-107077149D01*
X112707142Y-107077149D02*
X112516666Y-107077149D01*
X112516666Y-107077149D02*
X112469047Y-107100959D01*
X112469047Y-107100959D02*
X112445237Y-107124768D01*
X112445237Y-107124768D02*
X112421428Y-107172387D01*
X112421428Y-107172387D02*
X112421428Y-107243816D01*
X112421428Y-107243816D02*
X112445237Y-107291435D01*
X112445237Y-107291435D02*
X112469047Y-107315244D01*
X112469047Y-107315244D02*
X112516666Y-107339054D01*
X112516666Y-107339054D02*
X112707142Y-107339054D01*
X112230951Y-107124768D02*
X112207142Y-107100959D01*
X112207142Y-107100959D02*
X112159523Y-107077149D01*
X112159523Y-107077149D02*
X112040475Y-107077149D01*
X112040475Y-107077149D02*
X111992856Y-107100959D01*
X111992856Y-107100959D02*
X111969047Y-107124768D01*
X111969047Y-107124768D02*
X111945237Y-107172387D01*
X111945237Y-107172387D02*
X111945237Y-107220006D01*
X111945237Y-107220006D02*
X111969047Y-107291435D01*
X111969047Y-107291435D02*
X112254761Y-107577149D01*
X112254761Y-107577149D02*
X111945237Y-107577149D01*
X111635714Y-107077149D02*
X111588095Y-107077149D01*
X111588095Y-107077149D02*
X111540476Y-107100959D01*
X111540476Y-107100959D02*
X111516666Y-107124768D01*
X111516666Y-107124768D02*
X111492857Y-107172387D01*
X111492857Y-107172387D02*
X111469047Y-107267625D01*
X111469047Y-107267625D02*
X111469047Y-107386673D01*
X111469047Y-107386673D02*
X111492857Y-107481911D01*
X111492857Y-107481911D02*
X111516666Y-107529530D01*
X111516666Y-107529530D02*
X111540476Y-107553340D01*
X111540476Y-107553340D02*
X111588095Y-107577149D01*
X111588095Y-107577149D02*
X111635714Y-107577149D01*
X111635714Y-107577149D02*
X111683333Y-107553340D01*
X111683333Y-107553340D02*
X111707142Y-107529530D01*
X111707142Y-107529530D02*
X111730952Y-107481911D01*
X111730952Y-107481911D02*
X111754761Y-107386673D01*
X111754761Y-107386673D02*
X111754761Y-107267625D01*
X111754761Y-107267625D02*
X111730952Y-107172387D01*
X111730952Y-107172387D02*
X111707142Y-107124768D01*
X111707142Y-107124768D02*
X111683333Y-107100959D01*
X111683333Y-107100959D02*
X111635714Y-107077149D01*
D10*
X145049819Y-116528214D02*
X144049819Y-116528214D01*
X144049819Y-116528214D02*
X144764104Y-116861547D01*
X144764104Y-116861547D02*
X144049819Y-117194880D01*
X144049819Y-117194880D02*
X145049819Y-117194880D01*
X144954580Y-118242499D02*
X145002200Y-118194880D01*
X145002200Y-118194880D02*
X145049819Y-118052023D01*
X145049819Y-118052023D02*
X145049819Y-117956785D01*
X145049819Y-117956785D02*
X145002200Y-117813928D01*
X145002200Y-117813928D02*
X144906961Y-117718690D01*
X144906961Y-117718690D02*
X144811723Y-117671071D01*
X144811723Y-117671071D02*
X144621247Y-117623452D01*
X144621247Y-117623452D02*
X144478390Y-117623452D01*
X144478390Y-117623452D02*
X144287914Y-117671071D01*
X144287914Y-117671071D02*
X144192676Y-117718690D01*
X144192676Y-117718690D02*
X144097438Y-117813928D01*
X144097438Y-117813928D02*
X144049819Y-117956785D01*
X144049819Y-117956785D02*
X144049819Y-118052023D01*
X144049819Y-118052023D02*
X144097438Y-118194880D01*
X144097438Y-118194880D02*
X144145057Y-118242499D01*
X145049819Y-118671071D02*
X144049819Y-118671071D01*
X144049819Y-118671071D02*
X144049819Y-119052023D01*
X144049819Y-119052023D02*
X144097438Y-119147261D01*
X144097438Y-119147261D02*
X144145057Y-119194880D01*
X144145057Y-119194880D02*
X144240295Y-119242499D01*
X144240295Y-119242499D02*
X144383152Y-119242499D01*
X144383152Y-119242499D02*
X144478390Y-119194880D01*
X144478390Y-119194880D02*
X144526009Y-119147261D01*
X144526009Y-119147261D02*
X144573628Y-119052023D01*
X144573628Y-119052023D02*
X144573628Y-118671071D01*
X145049819Y-120194880D02*
X145049819Y-119623452D01*
X145049819Y-119909166D02*
X144049819Y-119909166D01*
X144049819Y-119909166D02*
X144192676Y-119813928D01*
X144192676Y-119813928D02*
X144287914Y-119718690D01*
X144287914Y-119718690D02*
X144335533Y-119623452D01*
X144478390Y-120766309D02*
X144430771Y-120671071D01*
X144430771Y-120671071D02*
X144383152Y-120623452D01*
X144383152Y-120623452D02*
X144287914Y-120575833D01*
X144287914Y-120575833D02*
X144240295Y-120575833D01*
X144240295Y-120575833D02*
X144145057Y-120623452D01*
X144145057Y-120623452D02*
X144097438Y-120671071D01*
X144097438Y-120671071D02*
X144049819Y-120766309D01*
X144049819Y-120766309D02*
X144049819Y-120956785D01*
X144049819Y-120956785D02*
X144097438Y-121052023D01*
X144097438Y-121052023D02*
X144145057Y-121099642D01*
X144145057Y-121099642D02*
X144240295Y-121147261D01*
X144240295Y-121147261D02*
X144287914Y-121147261D01*
X144287914Y-121147261D02*
X144383152Y-121099642D01*
X144383152Y-121099642D02*
X144430771Y-121052023D01*
X144430771Y-121052023D02*
X144478390Y-120956785D01*
X144478390Y-120956785D02*
X144478390Y-120766309D01*
X144478390Y-120766309D02*
X144526009Y-120671071D01*
X144526009Y-120671071D02*
X144573628Y-120623452D01*
X144573628Y-120623452D02*
X144668866Y-120575833D01*
X144668866Y-120575833D02*
X144859342Y-120575833D01*
X144859342Y-120575833D02*
X144954580Y-120623452D01*
X144954580Y-120623452D02*
X145002200Y-120671071D01*
X145002200Y-120671071D02*
X145049819Y-120766309D01*
X145049819Y-120766309D02*
X145049819Y-120956785D01*
X145049819Y-120956785D02*
X145002200Y-121052023D01*
X145002200Y-121052023D02*
X144954580Y-121099642D01*
X144954580Y-121099642D02*
X144859342Y-121147261D01*
X144859342Y-121147261D02*
X144668866Y-121147261D01*
X144668866Y-121147261D02*
X144573628Y-121099642D01*
X144573628Y-121099642D02*
X144526009Y-121052023D01*
X144526009Y-121052023D02*
X144478390Y-120956785D01*
X144145057Y-121528214D02*
X144097438Y-121575833D01*
X144097438Y-121575833D02*
X144049819Y-121671071D01*
X144049819Y-121671071D02*
X144049819Y-121909166D01*
X144049819Y-121909166D02*
X144097438Y-122004404D01*
X144097438Y-122004404D02*
X144145057Y-122052023D01*
X144145057Y-122052023D02*
X144240295Y-122099642D01*
X144240295Y-122099642D02*
X144335533Y-122099642D01*
X144335533Y-122099642D02*
X144478390Y-122052023D01*
X144478390Y-122052023D02*
X145049819Y-121480595D01*
X145049819Y-121480595D02*
X145049819Y-122099642D01*
X144049819Y-122956785D02*
X144049819Y-122766309D01*
X144049819Y-122766309D02*
X144097438Y-122671071D01*
X144097438Y-122671071D02*
X144145057Y-122623452D01*
X144145057Y-122623452D02*
X144287914Y-122528214D01*
X144287914Y-122528214D02*
X144478390Y-122480595D01*
X144478390Y-122480595D02*
X144859342Y-122480595D01*
X144859342Y-122480595D02*
X144954580Y-122528214D01*
X144954580Y-122528214D02*
X145002200Y-122575833D01*
X145002200Y-122575833D02*
X145049819Y-122671071D01*
X145049819Y-122671071D02*
X145049819Y-122861547D01*
X145049819Y-122861547D02*
X145002200Y-122956785D01*
X145002200Y-122956785D02*
X144954580Y-123004404D01*
X144954580Y-123004404D02*
X144859342Y-123052023D01*
X144859342Y-123052023D02*
X144621247Y-123052023D01*
X144621247Y-123052023D02*
X144526009Y-123004404D01*
X144526009Y-123004404D02*
X144478390Y-122956785D01*
X144478390Y-122956785D02*
X144430771Y-122861547D01*
X144430771Y-122861547D02*
X144430771Y-122671071D01*
X144430771Y-122671071D02*
X144478390Y-122575833D01*
X144478390Y-122575833D02*
X144526009Y-122528214D01*
X144526009Y-122528214D02*
X144621247Y-122480595D01*
X145002200Y-123432976D02*
X145049819Y-123575833D01*
X145049819Y-123575833D02*
X145049819Y-123813928D01*
X145049819Y-123813928D02*
X145002200Y-123909166D01*
X145002200Y-123909166D02*
X144954580Y-123956785D01*
X144954580Y-123956785D02*
X144859342Y-124004404D01*
X144859342Y-124004404D02*
X144764104Y-124004404D01*
X144764104Y-124004404D02*
X144668866Y-123956785D01*
X144668866Y-123956785D02*
X144621247Y-123909166D01*
X144621247Y-123909166D02*
X144573628Y-123813928D01*
X144573628Y-123813928D02*
X144526009Y-123623452D01*
X144526009Y-123623452D02*
X144478390Y-123528214D01*
X144478390Y-123528214D02*
X144430771Y-123480595D01*
X144430771Y-123480595D02*
X144335533Y-123432976D01*
X144335533Y-123432976D02*
X144240295Y-123432976D01*
X144240295Y-123432976D02*
X144145057Y-123480595D01*
X144145057Y-123480595D02*
X144097438Y-123528214D01*
X144097438Y-123528214D02*
X144049819Y-123623452D01*
X144049819Y-123623452D02*
X144049819Y-123861547D01*
X144049819Y-123861547D02*
X144097438Y-124004404D01*
X144668866Y-124432976D02*
X144668866Y-125194881D01*
X144049819Y-125575833D02*
X144049819Y-126194880D01*
X144049819Y-126194880D02*
X144430771Y-125861547D01*
X144430771Y-125861547D02*
X144430771Y-126004404D01*
X144430771Y-126004404D02*
X144478390Y-126099642D01*
X144478390Y-126099642D02*
X144526009Y-126147261D01*
X144526009Y-126147261D02*
X144621247Y-126194880D01*
X144621247Y-126194880D02*
X144859342Y-126194880D01*
X144859342Y-126194880D02*
X144954580Y-126147261D01*
X144954580Y-126147261D02*
X145002200Y-126099642D01*
X145002200Y-126099642D02*
X145049819Y-126004404D01*
X145049819Y-126004404D02*
X145049819Y-125718690D01*
X145049819Y-125718690D02*
X145002200Y-125623452D01*
X145002200Y-125623452D02*
X144954580Y-125575833D01*
X144049819Y-126528214D02*
X144049819Y-127147261D01*
X144049819Y-127147261D02*
X144430771Y-126813928D01*
X144430771Y-126813928D02*
X144430771Y-126956785D01*
X144430771Y-126956785D02*
X144478390Y-127052023D01*
X144478390Y-127052023D02*
X144526009Y-127099642D01*
X144526009Y-127099642D02*
X144621247Y-127147261D01*
X144621247Y-127147261D02*
X144859342Y-127147261D01*
X144859342Y-127147261D02*
X144954580Y-127099642D01*
X144954580Y-127099642D02*
X145002200Y-127052023D01*
X145002200Y-127052023D02*
X145049819Y-126956785D01*
X145049819Y-126956785D02*
X145049819Y-126671071D01*
X145049819Y-126671071D02*
X145002200Y-126575833D01*
X145002200Y-126575833D02*
X144954580Y-126528214D01*
X144049819Y-127766309D02*
X144049819Y-127861547D01*
X144049819Y-127861547D02*
X144097438Y-127956785D01*
X144097438Y-127956785D02*
X144145057Y-128004404D01*
X144145057Y-128004404D02*
X144240295Y-128052023D01*
X144240295Y-128052023D02*
X144430771Y-128099642D01*
X144430771Y-128099642D02*
X144668866Y-128099642D01*
X144668866Y-128099642D02*
X144859342Y-128052023D01*
X144859342Y-128052023D02*
X144954580Y-128004404D01*
X144954580Y-128004404D02*
X145002200Y-127956785D01*
X145002200Y-127956785D02*
X145049819Y-127861547D01*
X145049819Y-127861547D02*
X145049819Y-127766309D01*
X145049819Y-127766309D02*
X145002200Y-127671071D01*
X145002200Y-127671071D02*
X144954580Y-127623452D01*
X144954580Y-127623452D02*
X144859342Y-127575833D01*
X144859342Y-127575833D02*
X144668866Y-127528214D01*
X144668866Y-127528214D02*
X144430771Y-127528214D01*
X144430771Y-127528214D02*
X144240295Y-127575833D01*
X144240295Y-127575833D02*
X144145057Y-127623452D01*
X144145057Y-127623452D02*
X144097438Y-127671071D01*
X144097438Y-127671071D02*
X144049819Y-127766309D01*
X144145057Y-128480595D02*
X144097438Y-128528214D01*
X144097438Y-128528214D02*
X144049819Y-128623452D01*
X144049819Y-128623452D02*
X144049819Y-128861547D01*
X144049819Y-128861547D02*
X144097438Y-128956785D01*
X144097438Y-128956785D02*
X144145057Y-129004404D01*
X144145057Y-129004404D02*
X144240295Y-129052023D01*
X144240295Y-129052023D02*
X144335533Y-129052023D01*
X144335533Y-129052023D02*
X144478390Y-129004404D01*
X144478390Y-129004404D02*
X145049819Y-128432976D01*
X145049819Y-128432976D02*
X145049819Y-129052023D01*
X144526009Y-129480595D02*
X144526009Y-129813928D01*
X145049819Y-129956785D02*
X145049819Y-129480595D01*
X145049819Y-129480595D02*
X144049819Y-129480595D01*
X144049819Y-129480595D02*
X144049819Y-129956785D01*
X144002200Y-131099642D02*
X145287914Y-130242500D01*
X145049819Y-131432976D02*
X144049819Y-131432976D01*
X144049819Y-131432976D02*
X144049819Y-131671071D01*
X144049819Y-131671071D02*
X144097438Y-131813928D01*
X144097438Y-131813928D02*
X144192676Y-131909166D01*
X144192676Y-131909166D02*
X144287914Y-131956785D01*
X144287914Y-131956785D02*
X144478390Y-132004404D01*
X144478390Y-132004404D02*
X144621247Y-132004404D01*
X144621247Y-132004404D02*
X144811723Y-131956785D01*
X144811723Y-131956785D02*
X144906961Y-131909166D01*
X144906961Y-131909166D02*
X145002200Y-131813928D01*
X145002200Y-131813928D02*
X145049819Y-131671071D01*
X145049819Y-131671071D02*
X145049819Y-131432976D01*
X144526009Y-132766309D02*
X144573628Y-132909166D01*
X144573628Y-132909166D02*
X144621247Y-132956785D01*
X144621247Y-132956785D02*
X144716485Y-133004404D01*
X144716485Y-133004404D02*
X144859342Y-133004404D01*
X144859342Y-133004404D02*
X144954580Y-132956785D01*
X144954580Y-132956785D02*
X145002200Y-132909166D01*
X145002200Y-132909166D02*
X145049819Y-132813928D01*
X145049819Y-132813928D02*
X145049819Y-132432976D01*
X145049819Y-132432976D02*
X144049819Y-132432976D01*
X144049819Y-132432976D02*
X144049819Y-132766309D01*
X144049819Y-132766309D02*
X144097438Y-132861547D01*
X144097438Y-132861547D02*
X144145057Y-132909166D01*
X144145057Y-132909166D02*
X144240295Y-132956785D01*
X144240295Y-132956785D02*
X144335533Y-132956785D01*
X144335533Y-132956785D02*
X144430771Y-132909166D01*
X144430771Y-132909166D02*
X144478390Y-132861547D01*
X144478390Y-132861547D02*
X144526009Y-132766309D01*
X144526009Y-132766309D02*
X144526009Y-132432976D01*
X136969046Y-55181009D02*
X136635713Y-55181009D01*
X136492856Y-55704819D02*
X136969046Y-55704819D01*
X136969046Y-55704819D02*
X136969046Y-54704819D01*
X136969046Y-54704819D02*
X136492856Y-54704819D01*
X136111903Y-55657200D02*
X135969046Y-55704819D01*
X135969046Y-55704819D02*
X135730951Y-55704819D01*
X135730951Y-55704819D02*
X135635713Y-55657200D01*
X135635713Y-55657200D02*
X135588094Y-55609580D01*
X135588094Y-55609580D02*
X135540475Y-55514342D01*
X135540475Y-55514342D02*
X135540475Y-55419104D01*
X135540475Y-55419104D02*
X135588094Y-55323866D01*
X135588094Y-55323866D02*
X135635713Y-55276247D01*
X135635713Y-55276247D02*
X135730951Y-55228628D01*
X135730951Y-55228628D02*
X135921427Y-55181009D01*
X135921427Y-55181009D02*
X136016665Y-55133390D01*
X136016665Y-55133390D02*
X136064284Y-55085771D01*
X136064284Y-55085771D02*
X136111903Y-54990533D01*
X136111903Y-54990533D02*
X136111903Y-54895295D01*
X136111903Y-54895295D02*
X136064284Y-54800057D01*
X136064284Y-54800057D02*
X136016665Y-54752438D01*
X136016665Y-54752438D02*
X135921427Y-54704819D01*
X135921427Y-54704819D02*
X135683332Y-54704819D01*
X135683332Y-54704819D02*
X135540475Y-54752438D01*
X135111903Y-55704819D02*
X135111903Y-54704819D01*
X135111903Y-54704819D02*
X134730951Y-54704819D01*
X134730951Y-54704819D02*
X134635713Y-54752438D01*
X134635713Y-54752438D02*
X134588094Y-54800057D01*
X134588094Y-54800057D02*
X134540475Y-54895295D01*
X134540475Y-54895295D02*
X134540475Y-55038152D01*
X134540475Y-55038152D02*
X134588094Y-55133390D01*
X134588094Y-55133390D02*
X134635713Y-55181009D01*
X134635713Y-55181009D02*
X134730951Y-55228628D01*
X134730951Y-55228628D02*
X135111903Y-55228628D01*
X134207141Y-54704819D02*
X133588094Y-54704819D01*
X133588094Y-54704819D02*
X133921427Y-55085771D01*
X133921427Y-55085771D02*
X133778570Y-55085771D01*
X133778570Y-55085771D02*
X133683332Y-55133390D01*
X133683332Y-55133390D02*
X133635713Y-55181009D01*
X133635713Y-55181009D02*
X133588094Y-55276247D01*
X133588094Y-55276247D02*
X133588094Y-55514342D01*
X133588094Y-55514342D02*
X133635713Y-55609580D01*
X133635713Y-55609580D02*
X133683332Y-55657200D01*
X133683332Y-55657200D02*
X133778570Y-55704819D01*
X133778570Y-55704819D02*
X134064284Y-55704819D01*
X134064284Y-55704819D02*
X134159522Y-55657200D01*
X134159522Y-55657200D02*
X134207141Y-55609580D01*
X133207141Y-54800057D02*
X133159522Y-54752438D01*
X133159522Y-54752438D02*
X133064284Y-54704819D01*
X133064284Y-54704819D02*
X132826189Y-54704819D01*
X132826189Y-54704819D02*
X132730951Y-54752438D01*
X132730951Y-54752438D02*
X132683332Y-54800057D01*
X132683332Y-54800057D02*
X132635713Y-54895295D01*
X132635713Y-54895295D02*
X132635713Y-54990533D01*
X132635713Y-54990533D02*
X132683332Y-55133390D01*
X132683332Y-55133390D02*
X133254760Y-55704819D01*
X133254760Y-55704819D02*
X132635713Y-55704819D01*
X132207141Y-55323866D02*
X131445237Y-55323866D01*
X131016665Y-55657200D02*
X130873808Y-55704819D01*
X130873808Y-55704819D02*
X130635713Y-55704819D01*
X130635713Y-55704819D02*
X130540475Y-55657200D01*
X130540475Y-55657200D02*
X130492856Y-55609580D01*
X130492856Y-55609580D02*
X130445237Y-55514342D01*
X130445237Y-55514342D02*
X130445237Y-55419104D01*
X130445237Y-55419104D02*
X130492856Y-55323866D01*
X130492856Y-55323866D02*
X130540475Y-55276247D01*
X130540475Y-55276247D02*
X130635713Y-55228628D01*
X130635713Y-55228628D02*
X130826189Y-55181009D01*
X130826189Y-55181009D02*
X130921427Y-55133390D01*
X130921427Y-55133390D02*
X130969046Y-55085771D01*
X130969046Y-55085771D02*
X131016665Y-54990533D01*
X131016665Y-54990533D02*
X131016665Y-54895295D01*
X131016665Y-54895295D02*
X130969046Y-54800057D01*
X130969046Y-54800057D02*
X130921427Y-54752438D01*
X130921427Y-54752438D02*
X130826189Y-54704819D01*
X130826189Y-54704819D02*
X130588094Y-54704819D01*
X130588094Y-54704819D02*
X130445237Y-54752438D01*
X130111903Y-54704819D02*
X129492856Y-54704819D01*
X129492856Y-54704819D02*
X129826189Y-55085771D01*
X129826189Y-55085771D02*
X129683332Y-55085771D01*
X129683332Y-55085771D02*
X129588094Y-55133390D01*
X129588094Y-55133390D02*
X129540475Y-55181009D01*
X129540475Y-55181009D02*
X129492856Y-55276247D01*
X129492856Y-55276247D02*
X129492856Y-55514342D01*
X129492856Y-55514342D02*
X129540475Y-55609580D01*
X129540475Y-55609580D02*
X129588094Y-55657200D01*
X129588094Y-55657200D02*
X129683332Y-55704819D01*
X129683332Y-55704819D02*
X129969046Y-55704819D01*
X129969046Y-55704819D02*
X130064284Y-55657200D01*
X130064284Y-55657200D02*
X130111903Y-55609580D01*
X129064284Y-55323866D02*
X128302380Y-55323866D01*
X127921427Y-54704819D02*
X127683332Y-55704819D01*
X127683332Y-55704819D02*
X127492856Y-54990533D01*
X127492856Y-54990533D02*
X127302380Y-55704819D01*
X127302380Y-55704819D02*
X127064285Y-54704819D01*
X126111904Y-55704819D02*
X126445237Y-55228628D01*
X126683332Y-55704819D02*
X126683332Y-54704819D01*
X126683332Y-54704819D02*
X126302380Y-54704819D01*
X126302380Y-54704819D02*
X126207142Y-54752438D01*
X126207142Y-54752438D02*
X126159523Y-54800057D01*
X126159523Y-54800057D02*
X126111904Y-54895295D01*
X126111904Y-54895295D02*
X126111904Y-55038152D01*
X126111904Y-55038152D02*
X126159523Y-55133390D01*
X126159523Y-55133390D02*
X126207142Y-55181009D01*
X126207142Y-55181009D02*
X126302380Y-55228628D01*
X126302380Y-55228628D02*
X126683332Y-55228628D01*
X125492856Y-54704819D02*
X125302380Y-54704819D01*
X125302380Y-54704819D02*
X125207142Y-54752438D01*
X125207142Y-54752438D02*
X125111904Y-54847676D01*
X125111904Y-54847676D02*
X125064285Y-55038152D01*
X125064285Y-55038152D02*
X125064285Y-55371485D01*
X125064285Y-55371485D02*
X125111904Y-55561961D01*
X125111904Y-55561961D02*
X125207142Y-55657200D01*
X125207142Y-55657200D02*
X125302380Y-55704819D01*
X125302380Y-55704819D02*
X125492856Y-55704819D01*
X125492856Y-55704819D02*
X125588094Y-55657200D01*
X125588094Y-55657200D02*
X125683332Y-55561961D01*
X125683332Y-55561961D02*
X125730951Y-55371485D01*
X125730951Y-55371485D02*
X125730951Y-55038152D01*
X125730951Y-55038152D02*
X125683332Y-54847676D01*
X125683332Y-54847676D02*
X125588094Y-54752438D01*
X125588094Y-54752438D02*
X125492856Y-54704819D01*
X124445237Y-54704819D02*
X124254761Y-54704819D01*
X124254761Y-54704819D02*
X124159523Y-54752438D01*
X124159523Y-54752438D02*
X124064285Y-54847676D01*
X124064285Y-54847676D02*
X124016666Y-55038152D01*
X124016666Y-55038152D02*
X124016666Y-55371485D01*
X124016666Y-55371485D02*
X124064285Y-55561961D01*
X124064285Y-55561961D02*
X124159523Y-55657200D01*
X124159523Y-55657200D02*
X124254761Y-55704819D01*
X124254761Y-55704819D02*
X124445237Y-55704819D01*
X124445237Y-55704819D02*
X124540475Y-55657200D01*
X124540475Y-55657200D02*
X124635713Y-55561961D01*
X124635713Y-55561961D02*
X124683332Y-55371485D01*
X124683332Y-55371485D02*
X124683332Y-55038152D01*
X124683332Y-55038152D02*
X124635713Y-54847676D01*
X124635713Y-54847676D02*
X124540475Y-54752438D01*
X124540475Y-54752438D02*
X124445237Y-54704819D01*
X123588094Y-55704819D02*
X123588094Y-54704819D01*
X123588094Y-54704819D02*
X123254761Y-55419104D01*
X123254761Y-55419104D02*
X122921428Y-54704819D01*
X122921428Y-54704819D02*
X122921428Y-55704819D01*
X122445237Y-55323866D02*
X121683333Y-55323866D01*
X120683333Y-55704819D02*
X121254761Y-55704819D01*
X120969047Y-55704819D02*
X120969047Y-54704819D01*
X120969047Y-54704819D02*
X121064285Y-54847676D01*
X121064285Y-54847676D02*
X121159523Y-54942914D01*
X121159523Y-54942914D02*
X121254761Y-54990533D01*
X129611904Y-39504819D02*
X129611904Y-40314342D01*
X129611904Y-40314342D02*
X129564285Y-40409580D01*
X129564285Y-40409580D02*
X129516666Y-40457200D01*
X129516666Y-40457200D02*
X129421428Y-40504819D01*
X129421428Y-40504819D02*
X129230952Y-40504819D01*
X129230952Y-40504819D02*
X129135714Y-40457200D01*
X129135714Y-40457200D02*
X129088095Y-40409580D01*
X129088095Y-40409580D02*
X129040476Y-40314342D01*
X129040476Y-40314342D02*
X129040476Y-39504819D01*
X128040476Y-40504819D02*
X128611904Y-40504819D01*
X128326190Y-40504819D02*
X128326190Y-39504819D01*
X128326190Y-39504819D02*
X128421428Y-39647676D01*
X128421428Y-39647676D02*
X128516666Y-39742914D01*
X128516666Y-39742914D02*
X128611904Y-39790533D01*
X135242857Y-115024819D02*
X135814285Y-115024819D01*
X135528571Y-115024819D02*
X135528571Y-114024819D01*
X135528571Y-114024819D02*
X135623809Y-114167676D01*
X135623809Y-114167676D02*
X135719047Y-114262914D01*
X135719047Y-114262914D02*
X135814285Y-114310533D01*
X134623809Y-114024819D02*
X134528571Y-114024819D01*
X134528571Y-114024819D02*
X134433333Y-114072438D01*
X134433333Y-114072438D02*
X134385714Y-114120057D01*
X134385714Y-114120057D02*
X134338095Y-114215295D01*
X134338095Y-114215295D02*
X134290476Y-114405771D01*
X134290476Y-114405771D02*
X134290476Y-114643866D01*
X134290476Y-114643866D02*
X134338095Y-114834342D01*
X134338095Y-114834342D02*
X134385714Y-114929580D01*
X134385714Y-114929580D02*
X134433333Y-114977200D01*
X134433333Y-114977200D02*
X134528571Y-115024819D01*
X134528571Y-115024819D02*
X134623809Y-115024819D01*
X134623809Y-115024819D02*
X134719047Y-114977200D01*
X134719047Y-114977200D02*
X134766666Y-114929580D01*
X134766666Y-114929580D02*
X134814285Y-114834342D01*
X134814285Y-114834342D02*
X134861904Y-114643866D01*
X134861904Y-114643866D02*
X134861904Y-114405771D01*
X134861904Y-114405771D02*
X134814285Y-114215295D01*
X134814285Y-114215295D02*
X134766666Y-114120057D01*
X134766666Y-114120057D02*
X134719047Y-114072438D01*
X134719047Y-114072438D02*
X134623809Y-114024819D01*
X133433333Y-114358152D02*
X133433333Y-115024819D01*
X133861904Y-114358152D02*
X133861904Y-114881961D01*
X133861904Y-114881961D02*
X133814285Y-114977200D01*
X133814285Y-114977200D02*
X133719047Y-115024819D01*
X133719047Y-115024819D02*
X133576190Y-115024819D01*
X133576190Y-115024819D02*
X133480952Y-114977200D01*
X133480952Y-114977200D02*
X133433333Y-114929580D01*
D12*
X134921428Y-113069530D02*
X134945237Y-113093340D01*
X134945237Y-113093340D02*
X135016666Y-113117149D01*
X135016666Y-113117149D02*
X135064285Y-113117149D01*
X135064285Y-113117149D02*
X135135713Y-113093340D01*
X135135713Y-113093340D02*
X135183332Y-113045720D01*
X135183332Y-113045720D02*
X135207142Y-112998101D01*
X135207142Y-112998101D02*
X135230951Y-112902863D01*
X135230951Y-112902863D02*
X135230951Y-112831435D01*
X135230951Y-112831435D02*
X135207142Y-112736197D01*
X135207142Y-112736197D02*
X135183332Y-112688578D01*
X135183332Y-112688578D02*
X135135713Y-112640959D01*
X135135713Y-112640959D02*
X135064285Y-112617149D01*
X135064285Y-112617149D02*
X135016666Y-112617149D01*
X135016666Y-112617149D02*
X134945237Y-112640959D01*
X134945237Y-112640959D02*
X134921428Y-112664768D01*
X134730951Y-112664768D02*
X134707142Y-112640959D01*
X134707142Y-112640959D02*
X134659523Y-112617149D01*
X134659523Y-112617149D02*
X134540475Y-112617149D01*
X134540475Y-112617149D02*
X134492856Y-112640959D01*
X134492856Y-112640959D02*
X134469047Y-112664768D01*
X134469047Y-112664768D02*
X134445237Y-112712387D01*
X134445237Y-112712387D02*
X134445237Y-112760006D01*
X134445237Y-112760006D02*
X134469047Y-112831435D01*
X134469047Y-112831435D02*
X134754761Y-113117149D01*
X134754761Y-113117149D02*
X134445237Y-113117149D01*
X134254761Y-112664768D02*
X134230952Y-112640959D01*
X134230952Y-112640959D02*
X134183333Y-112617149D01*
X134183333Y-112617149D02*
X134064285Y-112617149D01*
X134064285Y-112617149D02*
X134016666Y-112640959D01*
X134016666Y-112640959D02*
X133992857Y-112664768D01*
X133992857Y-112664768D02*
X133969047Y-112712387D01*
X133969047Y-112712387D02*
X133969047Y-112760006D01*
X133969047Y-112760006D02*
X133992857Y-112831435D01*
X133992857Y-112831435D02*
X134278571Y-113117149D01*
X134278571Y-113117149D02*
X133969047Y-113117149D01*
D10*
X137025238Y-125974819D02*
X137596666Y-125974819D01*
X137310952Y-125974819D02*
X137310952Y-124974819D01*
X137310952Y-124974819D02*
X137406190Y-125117676D01*
X137406190Y-125117676D02*
X137501428Y-125212914D01*
X137501428Y-125212914D02*
X137596666Y-125260533D01*
X136406190Y-124974819D02*
X136310952Y-124974819D01*
X136310952Y-124974819D02*
X136215714Y-125022438D01*
X136215714Y-125022438D02*
X136168095Y-125070057D01*
X136168095Y-125070057D02*
X136120476Y-125165295D01*
X136120476Y-125165295D02*
X136072857Y-125355771D01*
X136072857Y-125355771D02*
X136072857Y-125593866D01*
X136072857Y-125593866D02*
X136120476Y-125784342D01*
X136120476Y-125784342D02*
X136168095Y-125879580D01*
X136168095Y-125879580D02*
X136215714Y-125927200D01*
X136215714Y-125927200D02*
X136310952Y-125974819D01*
X136310952Y-125974819D02*
X136406190Y-125974819D01*
X136406190Y-125974819D02*
X136501428Y-125927200D01*
X136501428Y-125927200D02*
X136549047Y-125879580D01*
X136549047Y-125879580D02*
X136596666Y-125784342D01*
X136596666Y-125784342D02*
X136644285Y-125593866D01*
X136644285Y-125593866D02*
X136644285Y-125355771D01*
X136644285Y-125355771D02*
X136596666Y-125165295D01*
X136596666Y-125165295D02*
X136549047Y-125070057D01*
X136549047Y-125070057D02*
X136501428Y-125022438D01*
X136501428Y-125022438D02*
X136406190Y-124974819D01*
X135644285Y-125974819D02*
X135644285Y-124974819D01*
X135549047Y-125593866D02*
X135263333Y-125974819D01*
X135263333Y-125308152D02*
X135644285Y-125689104D01*
D12*
X136751428Y-124097149D02*
X136918094Y-123859054D01*
X137037142Y-124097149D02*
X137037142Y-123597149D01*
X137037142Y-123597149D02*
X136846666Y-123597149D01*
X136846666Y-123597149D02*
X136799047Y-123620959D01*
X136799047Y-123620959D02*
X136775237Y-123644768D01*
X136775237Y-123644768D02*
X136751428Y-123692387D01*
X136751428Y-123692387D02*
X136751428Y-123763816D01*
X136751428Y-123763816D02*
X136775237Y-123811435D01*
X136775237Y-123811435D02*
X136799047Y-123835244D01*
X136799047Y-123835244D02*
X136846666Y-123859054D01*
X136846666Y-123859054D02*
X137037142Y-123859054D01*
X136322856Y-123763816D02*
X136322856Y-124097149D01*
X136441904Y-123573340D02*
X136560951Y-123930482D01*
X136560951Y-123930482D02*
X136251428Y-123930482D01*
X135965714Y-123597149D02*
X135918095Y-123597149D01*
X135918095Y-123597149D02*
X135870476Y-123620959D01*
X135870476Y-123620959D02*
X135846666Y-123644768D01*
X135846666Y-123644768D02*
X135822857Y-123692387D01*
X135822857Y-123692387D02*
X135799047Y-123787625D01*
X135799047Y-123787625D02*
X135799047Y-123906673D01*
X135799047Y-123906673D02*
X135822857Y-124001911D01*
X135822857Y-124001911D02*
X135846666Y-124049530D01*
X135846666Y-124049530D02*
X135870476Y-124073340D01*
X135870476Y-124073340D02*
X135918095Y-124097149D01*
X135918095Y-124097149D02*
X135965714Y-124097149D01*
X135965714Y-124097149D02*
X136013333Y-124073340D01*
X136013333Y-124073340D02*
X136037142Y-124049530D01*
X136037142Y-124049530D02*
X136060952Y-124001911D01*
X136060952Y-124001911D02*
X136084761Y-123906673D01*
X136084761Y-123906673D02*
X136084761Y-123787625D01*
X136084761Y-123787625D02*
X136060952Y-123692387D01*
X136060952Y-123692387D02*
X136037142Y-123644768D01*
X136037142Y-123644768D02*
X136013333Y-123620959D01*
X136013333Y-123620959D02*
X135965714Y-123597149D01*
D10*
X108398152Y-47389523D02*
X109064819Y-47389523D01*
X108017200Y-47151428D02*
X108731485Y-46913333D01*
X108731485Y-46913333D02*
X108731485Y-47532380D01*
X108064819Y-47818095D02*
X108064819Y-48484761D01*
X108064819Y-48484761D02*
X109064819Y-48056190D01*
X109064819Y-48865714D02*
X108064819Y-48865714D01*
X108683866Y-48960952D02*
X109064819Y-49246666D01*
X108398152Y-49246666D02*
X108779104Y-48865714D01*
D12*
X107187149Y-47758571D02*
X106949054Y-47591905D01*
X107187149Y-47472857D02*
X106687149Y-47472857D01*
X106687149Y-47472857D02*
X106687149Y-47663333D01*
X106687149Y-47663333D02*
X106710959Y-47710952D01*
X106710959Y-47710952D02*
X106734768Y-47734762D01*
X106734768Y-47734762D02*
X106782387Y-47758571D01*
X106782387Y-47758571D02*
X106853816Y-47758571D01*
X106853816Y-47758571D02*
X106901435Y-47734762D01*
X106901435Y-47734762D02*
X106925244Y-47710952D01*
X106925244Y-47710952D02*
X106949054Y-47663333D01*
X106949054Y-47663333D02*
X106949054Y-47472857D01*
X106734768Y-47949048D02*
X106710959Y-47972857D01*
X106710959Y-47972857D02*
X106687149Y-48020476D01*
X106687149Y-48020476D02*
X106687149Y-48139524D01*
X106687149Y-48139524D02*
X106710959Y-48187143D01*
X106710959Y-48187143D02*
X106734768Y-48210952D01*
X106734768Y-48210952D02*
X106782387Y-48234762D01*
X106782387Y-48234762D02*
X106830006Y-48234762D01*
X106830006Y-48234762D02*
X106901435Y-48210952D01*
X106901435Y-48210952D02*
X107187149Y-47925238D01*
X107187149Y-47925238D02*
X107187149Y-48234762D01*
X106734768Y-48425238D02*
X106710959Y-48449047D01*
X106710959Y-48449047D02*
X106687149Y-48496666D01*
X106687149Y-48496666D02*
X106687149Y-48615714D01*
X106687149Y-48615714D02*
X106710959Y-48663333D01*
X106710959Y-48663333D02*
X106734768Y-48687142D01*
X106734768Y-48687142D02*
X106782387Y-48710952D01*
X106782387Y-48710952D02*
X106830006Y-48710952D01*
X106830006Y-48710952D02*
X106901435Y-48687142D01*
X106901435Y-48687142D02*
X107187149Y-48401428D01*
X107187149Y-48401428D02*
X107187149Y-48710952D01*
D10*
X117524819Y-52720476D02*
X117524819Y-53339523D01*
X117524819Y-53339523D02*
X117905771Y-53006190D01*
X117905771Y-53006190D02*
X117905771Y-53149047D01*
X117905771Y-53149047D02*
X117953390Y-53244285D01*
X117953390Y-53244285D02*
X118001009Y-53291904D01*
X118001009Y-53291904D02*
X118096247Y-53339523D01*
X118096247Y-53339523D02*
X118334342Y-53339523D01*
X118334342Y-53339523D02*
X118429580Y-53291904D01*
X118429580Y-53291904D02*
X118477200Y-53244285D01*
X118477200Y-53244285D02*
X118524819Y-53149047D01*
X118524819Y-53149047D02*
X118524819Y-52863333D01*
X118524819Y-52863333D02*
X118477200Y-52768095D01*
X118477200Y-52768095D02*
X118429580Y-52720476D01*
X117524819Y-53672857D02*
X117524819Y-54291904D01*
X117524819Y-54291904D02*
X117905771Y-53958571D01*
X117905771Y-53958571D02*
X117905771Y-54101428D01*
X117905771Y-54101428D02*
X117953390Y-54196666D01*
X117953390Y-54196666D02*
X118001009Y-54244285D01*
X118001009Y-54244285D02*
X118096247Y-54291904D01*
X118096247Y-54291904D02*
X118334342Y-54291904D01*
X118334342Y-54291904D02*
X118429580Y-54244285D01*
X118429580Y-54244285D02*
X118477200Y-54196666D01*
X118477200Y-54196666D02*
X118524819Y-54101428D01*
X118524819Y-54101428D02*
X118524819Y-53815714D01*
X118524819Y-53815714D02*
X118477200Y-53720476D01*
X118477200Y-53720476D02*
X118429580Y-53672857D01*
X118524819Y-55291904D02*
X118048628Y-54958571D01*
X118524819Y-54720476D02*
X117524819Y-54720476D01*
X117524819Y-54720476D02*
X117524819Y-55101428D01*
X117524819Y-55101428D02*
X117572438Y-55196666D01*
X117572438Y-55196666D02*
X117620057Y-55244285D01*
X117620057Y-55244285D02*
X117715295Y-55291904D01*
X117715295Y-55291904D02*
X117858152Y-55291904D01*
X117858152Y-55291904D02*
X117953390Y-55244285D01*
X117953390Y-55244285D02*
X118001009Y-55196666D01*
X118001009Y-55196666D02*
X118048628Y-55101428D01*
X118048628Y-55101428D02*
X118048628Y-54720476D01*
D12*
X116647149Y-53708571D02*
X116409054Y-53541905D01*
X116647149Y-53422857D02*
X116147149Y-53422857D01*
X116147149Y-53422857D02*
X116147149Y-53613333D01*
X116147149Y-53613333D02*
X116170959Y-53660952D01*
X116170959Y-53660952D02*
X116194768Y-53684762D01*
X116194768Y-53684762D02*
X116242387Y-53708571D01*
X116242387Y-53708571D02*
X116313816Y-53708571D01*
X116313816Y-53708571D02*
X116361435Y-53684762D01*
X116361435Y-53684762D02*
X116385244Y-53660952D01*
X116385244Y-53660952D02*
X116409054Y-53613333D01*
X116409054Y-53613333D02*
X116409054Y-53422857D01*
X116647149Y-54184762D02*
X116647149Y-53899048D01*
X116647149Y-54041905D02*
X116147149Y-54041905D01*
X116147149Y-54041905D02*
X116218578Y-53994286D01*
X116218578Y-53994286D02*
X116266197Y-53946667D01*
X116266197Y-53946667D02*
X116290006Y-53899048D01*
X116361435Y-54470476D02*
X116337625Y-54422857D01*
X116337625Y-54422857D02*
X116313816Y-54399047D01*
X116313816Y-54399047D02*
X116266197Y-54375238D01*
X116266197Y-54375238D02*
X116242387Y-54375238D01*
X116242387Y-54375238D02*
X116194768Y-54399047D01*
X116194768Y-54399047D02*
X116170959Y-54422857D01*
X116170959Y-54422857D02*
X116147149Y-54470476D01*
X116147149Y-54470476D02*
X116147149Y-54565714D01*
X116147149Y-54565714D02*
X116170959Y-54613333D01*
X116170959Y-54613333D02*
X116194768Y-54637142D01*
X116194768Y-54637142D02*
X116242387Y-54660952D01*
X116242387Y-54660952D02*
X116266197Y-54660952D01*
X116266197Y-54660952D02*
X116313816Y-54637142D01*
X116313816Y-54637142D02*
X116337625Y-54613333D01*
X116337625Y-54613333D02*
X116361435Y-54565714D01*
X116361435Y-54565714D02*
X116361435Y-54470476D01*
X116361435Y-54470476D02*
X116385244Y-54422857D01*
X116385244Y-54422857D02*
X116409054Y-54399047D01*
X116409054Y-54399047D02*
X116456673Y-54375238D01*
X116456673Y-54375238D02*
X116551911Y-54375238D01*
X116551911Y-54375238D02*
X116599530Y-54399047D01*
X116599530Y-54399047D02*
X116623340Y-54422857D01*
X116623340Y-54422857D02*
X116647149Y-54470476D01*
X116647149Y-54470476D02*
X116647149Y-54565714D01*
X116647149Y-54565714D02*
X116623340Y-54613333D01*
X116623340Y-54613333D02*
X116599530Y-54637142D01*
X116599530Y-54637142D02*
X116551911Y-54660952D01*
X116551911Y-54660952D02*
X116456673Y-54660952D01*
X116456673Y-54660952D02*
X116409054Y-54637142D01*
X116409054Y-54637142D02*
X116385244Y-54613333D01*
X116385244Y-54613333D02*
X116361435Y-54565714D01*
D10*
X149259047Y-38494819D02*
X149830475Y-38494819D01*
X149544761Y-38494819D02*
X149544761Y-37494819D01*
X149544761Y-37494819D02*
X149639999Y-37637676D01*
X149639999Y-37637676D02*
X149735237Y-37732914D01*
X149735237Y-37732914D02*
X149830475Y-37780533D01*
X148830475Y-38494819D02*
X148830475Y-37494819D01*
X148735237Y-38113866D02*
X148449523Y-38494819D01*
X148449523Y-37828152D02*
X148830475Y-38209104D01*
D12*
X149223333Y-36617149D02*
X149389999Y-36379054D01*
X149509047Y-36617149D02*
X149509047Y-36117149D01*
X149509047Y-36117149D02*
X149318571Y-36117149D01*
X149318571Y-36117149D02*
X149270952Y-36140959D01*
X149270952Y-36140959D02*
X149247142Y-36164768D01*
X149247142Y-36164768D02*
X149223333Y-36212387D01*
X149223333Y-36212387D02*
X149223333Y-36283816D01*
X149223333Y-36283816D02*
X149247142Y-36331435D01*
X149247142Y-36331435D02*
X149270952Y-36355244D01*
X149270952Y-36355244D02*
X149318571Y-36379054D01*
X149318571Y-36379054D02*
X149509047Y-36379054D01*
X148747142Y-36617149D02*
X149032856Y-36617149D01*
X148889999Y-36617149D02*
X148889999Y-36117149D01*
X148889999Y-36117149D02*
X148937618Y-36188578D01*
X148937618Y-36188578D02*
X148985237Y-36236197D01*
X148985237Y-36236197D02*
X149032856Y-36260006D01*
D10*
X106300713Y-44822200D02*
X106157856Y-44869819D01*
X106157856Y-44869819D02*
X105919761Y-44869819D01*
X105919761Y-44869819D02*
X105824523Y-44822200D01*
X105824523Y-44822200D02*
X105776904Y-44774580D01*
X105776904Y-44774580D02*
X105729285Y-44679342D01*
X105729285Y-44679342D02*
X105729285Y-44584104D01*
X105729285Y-44584104D02*
X105776904Y-44488866D01*
X105776904Y-44488866D02*
X105824523Y-44441247D01*
X105824523Y-44441247D02*
X105919761Y-44393628D01*
X105919761Y-44393628D02*
X106110237Y-44346009D01*
X106110237Y-44346009D02*
X106205475Y-44298390D01*
X106205475Y-44298390D02*
X106253094Y-44250771D01*
X106253094Y-44250771D02*
X106300713Y-44155533D01*
X106300713Y-44155533D02*
X106300713Y-44060295D01*
X106300713Y-44060295D02*
X106253094Y-43965057D01*
X106253094Y-43965057D02*
X106205475Y-43917438D01*
X106205475Y-43917438D02*
X106110237Y-43869819D01*
X106110237Y-43869819D02*
X105872142Y-43869819D01*
X105872142Y-43869819D02*
X105729285Y-43917438D01*
X105300713Y-44869819D02*
X105300713Y-43869819D01*
X105300713Y-43869819D02*
X105062618Y-43869819D01*
X105062618Y-43869819D02*
X104919761Y-43917438D01*
X104919761Y-43917438D02*
X104824523Y-44012676D01*
X104824523Y-44012676D02*
X104776904Y-44107914D01*
X104776904Y-44107914D02*
X104729285Y-44298390D01*
X104729285Y-44298390D02*
X104729285Y-44441247D01*
X104729285Y-44441247D02*
X104776904Y-44631723D01*
X104776904Y-44631723D02*
X104824523Y-44726961D01*
X104824523Y-44726961D02*
X104919761Y-44822200D01*
X104919761Y-44822200D02*
X105062618Y-44869819D01*
X105062618Y-44869819D02*
X105300713Y-44869819D01*
X146619047Y-108784819D02*
X147190475Y-108784819D01*
X146904761Y-108784819D02*
X146904761Y-107784819D01*
X146904761Y-107784819D02*
X146999999Y-107927676D01*
X146999999Y-107927676D02*
X147095237Y-108022914D01*
X147095237Y-108022914D02*
X147190475Y-108070533D01*
X145999999Y-107784819D02*
X145904761Y-107784819D01*
X145904761Y-107784819D02*
X145809523Y-107832438D01*
X145809523Y-107832438D02*
X145761904Y-107880057D01*
X145761904Y-107880057D02*
X145714285Y-107975295D01*
X145714285Y-107975295D02*
X145666666Y-108165771D01*
X145666666Y-108165771D02*
X145666666Y-108403866D01*
X145666666Y-108403866D02*
X145714285Y-108594342D01*
X145714285Y-108594342D02*
X145761904Y-108689580D01*
X145761904Y-108689580D02*
X145809523Y-108737200D01*
X145809523Y-108737200D02*
X145904761Y-108784819D01*
X145904761Y-108784819D02*
X145999999Y-108784819D01*
X145999999Y-108784819D02*
X146095237Y-108737200D01*
X146095237Y-108737200D02*
X146142856Y-108689580D01*
X146142856Y-108689580D02*
X146190475Y-108594342D01*
X146190475Y-108594342D02*
X146238094Y-108403866D01*
X146238094Y-108403866D02*
X146238094Y-108165771D01*
X146238094Y-108165771D02*
X146190475Y-107975295D01*
X146190475Y-107975295D02*
X146142856Y-107880057D01*
X146142856Y-107880057D02*
X146095237Y-107832438D01*
X146095237Y-107832438D02*
X145999999Y-107784819D01*
X145047618Y-107784819D02*
X144952380Y-107784819D01*
X144952380Y-107784819D02*
X144857142Y-107832438D01*
X144857142Y-107832438D02*
X144809523Y-107880057D01*
X144809523Y-107880057D02*
X144761904Y-107975295D01*
X144761904Y-107975295D02*
X144714285Y-108165771D01*
X144714285Y-108165771D02*
X144714285Y-108403866D01*
X144714285Y-108403866D02*
X144761904Y-108594342D01*
X144761904Y-108594342D02*
X144809523Y-108689580D01*
X144809523Y-108689580D02*
X144857142Y-108737200D01*
X144857142Y-108737200D02*
X144952380Y-108784819D01*
X144952380Y-108784819D02*
X145047618Y-108784819D01*
X145047618Y-108784819D02*
X145142856Y-108737200D01*
X145142856Y-108737200D02*
X145190475Y-108689580D01*
X145190475Y-108689580D02*
X145238094Y-108594342D01*
X145238094Y-108594342D02*
X145285713Y-108403866D01*
X145285713Y-108403866D02*
X145285713Y-108165771D01*
X145285713Y-108165771D02*
X145238094Y-107975295D01*
X145238094Y-107975295D02*
X145190475Y-107880057D01*
X145190475Y-107880057D02*
X145142856Y-107832438D01*
X145142856Y-107832438D02*
X145047618Y-107784819D01*
X144285713Y-108118152D02*
X144285713Y-108784819D01*
X144285713Y-108213390D02*
X144238094Y-108165771D01*
X144238094Y-108165771D02*
X144142856Y-108118152D01*
X144142856Y-108118152D02*
X143999999Y-108118152D01*
X143999999Y-108118152D02*
X143904761Y-108165771D01*
X143904761Y-108165771D02*
X143857142Y-108261009D01*
X143857142Y-108261009D02*
X143857142Y-108784819D01*
D12*
X145821428Y-110189530D02*
X145845237Y-110213340D01*
X145845237Y-110213340D02*
X145916666Y-110237149D01*
X145916666Y-110237149D02*
X145964285Y-110237149D01*
X145964285Y-110237149D02*
X146035713Y-110213340D01*
X146035713Y-110213340D02*
X146083332Y-110165720D01*
X146083332Y-110165720D02*
X146107142Y-110118101D01*
X146107142Y-110118101D02*
X146130951Y-110022863D01*
X146130951Y-110022863D02*
X146130951Y-109951435D01*
X146130951Y-109951435D02*
X146107142Y-109856197D01*
X146107142Y-109856197D02*
X146083332Y-109808578D01*
X146083332Y-109808578D02*
X146035713Y-109760959D01*
X146035713Y-109760959D02*
X145964285Y-109737149D01*
X145964285Y-109737149D02*
X145916666Y-109737149D01*
X145916666Y-109737149D02*
X145845237Y-109760959D01*
X145845237Y-109760959D02*
X145821428Y-109784768D01*
X145345237Y-110237149D02*
X145630951Y-110237149D01*
X145488094Y-110237149D02*
X145488094Y-109737149D01*
X145488094Y-109737149D02*
X145535713Y-109808578D01*
X145535713Y-109808578D02*
X145583332Y-109856197D01*
X145583332Y-109856197D02*
X145630951Y-109880006D01*
X145107142Y-110237149D02*
X145011904Y-110237149D01*
X145011904Y-110237149D02*
X144964285Y-110213340D01*
X144964285Y-110213340D02*
X144940476Y-110189530D01*
X144940476Y-110189530D02*
X144892857Y-110118101D01*
X144892857Y-110118101D02*
X144869047Y-110022863D01*
X144869047Y-110022863D02*
X144869047Y-109832387D01*
X144869047Y-109832387D02*
X144892857Y-109784768D01*
X144892857Y-109784768D02*
X144916666Y-109760959D01*
X144916666Y-109760959D02*
X144964285Y-109737149D01*
X144964285Y-109737149D02*
X145059523Y-109737149D01*
X145059523Y-109737149D02*
X145107142Y-109760959D01*
X145107142Y-109760959D02*
X145130952Y-109784768D01*
X145130952Y-109784768D02*
X145154761Y-109832387D01*
X145154761Y-109832387D02*
X145154761Y-109951435D01*
X145154761Y-109951435D02*
X145130952Y-109999054D01*
X145130952Y-109999054D02*
X145107142Y-110022863D01*
X145107142Y-110022863D02*
X145059523Y-110046673D01*
X145059523Y-110046673D02*
X144964285Y-110046673D01*
X144964285Y-110046673D02*
X144916666Y-110022863D01*
X144916666Y-110022863D02*
X144892857Y-109999054D01*
X144892857Y-109999054D02*
X144869047Y-109951435D01*
D10*
X144475238Y-122674819D02*
X145046666Y-122674819D01*
X144760952Y-122674819D02*
X144760952Y-121674819D01*
X144760952Y-121674819D02*
X144856190Y-121817676D01*
X144856190Y-121817676D02*
X144951428Y-121912914D01*
X144951428Y-121912914D02*
X145046666Y-121960533D01*
X144046666Y-122674819D02*
X144046666Y-121674819D01*
X143951428Y-122293866D02*
X143665714Y-122674819D01*
X143665714Y-122008152D02*
X144046666Y-122389104D01*
X143094285Y-122103390D02*
X143189523Y-122055771D01*
X143189523Y-122055771D02*
X143237142Y-122008152D01*
X143237142Y-122008152D02*
X143284761Y-121912914D01*
X143284761Y-121912914D02*
X143284761Y-121865295D01*
X143284761Y-121865295D02*
X143237142Y-121770057D01*
X143237142Y-121770057D02*
X143189523Y-121722438D01*
X143189523Y-121722438D02*
X143094285Y-121674819D01*
X143094285Y-121674819D02*
X142903809Y-121674819D01*
X142903809Y-121674819D02*
X142808571Y-121722438D01*
X142808571Y-121722438D02*
X142760952Y-121770057D01*
X142760952Y-121770057D02*
X142713333Y-121865295D01*
X142713333Y-121865295D02*
X142713333Y-121912914D01*
X142713333Y-121912914D02*
X142760952Y-122008152D01*
X142760952Y-122008152D02*
X142808571Y-122055771D01*
X142808571Y-122055771D02*
X142903809Y-122103390D01*
X142903809Y-122103390D02*
X143094285Y-122103390D01*
X143094285Y-122103390D02*
X143189523Y-122151009D01*
X143189523Y-122151009D02*
X143237142Y-122198628D01*
X143237142Y-122198628D02*
X143284761Y-122293866D01*
X143284761Y-122293866D02*
X143284761Y-122484342D01*
X143284761Y-122484342D02*
X143237142Y-122579580D01*
X143237142Y-122579580D02*
X143189523Y-122627200D01*
X143189523Y-122627200D02*
X143094285Y-122674819D01*
X143094285Y-122674819D02*
X142903809Y-122674819D01*
X142903809Y-122674819D02*
X142808571Y-122627200D01*
X142808571Y-122627200D02*
X142760952Y-122579580D01*
X142760952Y-122579580D02*
X142713333Y-122484342D01*
X142713333Y-122484342D02*
X142713333Y-122293866D01*
X142713333Y-122293866D02*
X142760952Y-122198628D01*
X142760952Y-122198628D02*
X142808571Y-122151009D01*
X142808571Y-122151009D02*
X142903809Y-122103390D01*
D12*
X144201428Y-124097149D02*
X144368094Y-123859054D01*
X144487142Y-124097149D02*
X144487142Y-123597149D01*
X144487142Y-123597149D02*
X144296666Y-123597149D01*
X144296666Y-123597149D02*
X144249047Y-123620959D01*
X144249047Y-123620959D02*
X144225237Y-123644768D01*
X144225237Y-123644768D02*
X144201428Y-123692387D01*
X144201428Y-123692387D02*
X144201428Y-123763816D01*
X144201428Y-123763816D02*
X144225237Y-123811435D01*
X144225237Y-123811435D02*
X144249047Y-123835244D01*
X144249047Y-123835244D02*
X144296666Y-123859054D01*
X144296666Y-123859054D02*
X144487142Y-123859054D01*
X144010951Y-123644768D02*
X143987142Y-123620959D01*
X143987142Y-123620959D02*
X143939523Y-123597149D01*
X143939523Y-123597149D02*
X143820475Y-123597149D01*
X143820475Y-123597149D02*
X143772856Y-123620959D01*
X143772856Y-123620959D02*
X143749047Y-123644768D01*
X143749047Y-123644768D02*
X143725237Y-123692387D01*
X143725237Y-123692387D02*
X143725237Y-123740006D01*
X143725237Y-123740006D02*
X143749047Y-123811435D01*
X143749047Y-123811435D02*
X144034761Y-124097149D01*
X144034761Y-124097149D02*
X143725237Y-124097149D01*
X143296666Y-123597149D02*
X143391904Y-123597149D01*
X143391904Y-123597149D02*
X143439523Y-123620959D01*
X143439523Y-123620959D02*
X143463333Y-123644768D01*
X143463333Y-123644768D02*
X143510952Y-123716197D01*
X143510952Y-123716197D02*
X143534761Y-123811435D01*
X143534761Y-123811435D02*
X143534761Y-124001911D01*
X143534761Y-124001911D02*
X143510952Y-124049530D01*
X143510952Y-124049530D02*
X143487142Y-124073340D01*
X143487142Y-124073340D02*
X143439523Y-124097149D01*
X143439523Y-124097149D02*
X143344285Y-124097149D01*
X143344285Y-124097149D02*
X143296666Y-124073340D01*
X143296666Y-124073340D02*
X143272857Y-124049530D01*
X143272857Y-124049530D02*
X143249047Y-124001911D01*
X143249047Y-124001911D02*
X143249047Y-123882863D01*
X143249047Y-123882863D02*
X143272857Y-123835244D01*
X143272857Y-123835244D02*
X143296666Y-123811435D01*
X143296666Y-123811435D02*
X143344285Y-123787625D01*
X143344285Y-123787625D02*
X143439523Y-123787625D01*
X143439523Y-123787625D02*
X143487142Y-123811435D01*
X143487142Y-123811435D02*
X143510952Y-123835244D01*
X143510952Y-123835244D02*
X143534761Y-123882863D01*
D10*
X103444819Y-46910952D02*
X103444819Y-46339524D01*
X103444819Y-46625238D02*
X102444819Y-46625238D01*
X102444819Y-46625238D02*
X102587676Y-46530000D01*
X102587676Y-46530000D02*
X102682914Y-46434762D01*
X102682914Y-46434762D02*
X102730533Y-46339524D01*
X102444819Y-47530000D02*
X102444819Y-47625238D01*
X102444819Y-47625238D02*
X102492438Y-47720476D01*
X102492438Y-47720476D02*
X102540057Y-47768095D01*
X102540057Y-47768095D02*
X102635295Y-47815714D01*
X102635295Y-47815714D02*
X102825771Y-47863333D01*
X102825771Y-47863333D02*
X103063866Y-47863333D01*
X103063866Y-47863333D02*
X103254342Y-47815714D01*
X103254342Y-47815714D02*
X103349580Y-47768095D01*
X103349580Y-47768095D02*
X103397200Y-47720476D01*
X103397200Y-47720476D02*
X103444819Y-47625238D01*
X103444819Y-47625238D02*
X103444819Y-47530000D01*
X103444819Y-47530000D02*
X103397200Y-47434762D01*
X103397200Y-47434762D02*
X103349580Y-47387143D01*
X103349580Y-47387143D02*
X103254342Y-47339524D01*
X103254342Y-47339524D02*
X103063866Y-47291905D01*
X103063866Y-47291905D02*
X102825771Y-47291905D01*
X102825771Y-47291905D02*
X102635295Y-47339524D01*
X102635295Y-47339524D02*
X102540057Y-47387143D01*
X102540057Y-47387143D02*
X102492438Y-47434762D01*
X102492438Y-47434762D02*
X102444819Y-47530000D01*
X102444819Y-48482381D02*
X102444819Y-48577619D01*
X102444819Y-48577619D02*
X102492438Y-48672857D01*
X102492438Y-48672857D02*
X102540057Y-48720476D01*
X102540057Y-48720476D02*
X102635295Y-48768095D01*
X102635295Y-48768095D02*
X102825771Y-48815714D01*
X102825771Y-48815714D02*
X103063866Y-48815714D01*
X103063866Y-48815714D02*
X103254342Y-48768095D01*
X103254342Y-48768095D02*
X103349580Y-48720476D01*
X103349580Y-48720476D02*
X103397200Y-48672857D01*
X103397200Y-48672857D02*
X103444819Y-48577619D01*
X103444819Y-48577619D02*
X103444819Y-48482381D01*
X103444819Y-48482381D02*
X103397200Y-48387143D01*
X103397200Y-48387143D02*
X103349580Y-48339524D01*
X103349580Y-48339524D02*
X103254342Y-48291905D01*
X103254342Y-48291905D02*
X103063866Y-48244286D01*
X103063866Y-48244286D02*
X102825771Y-48244286D01*
X102825771Y-48244286D02*
X102635295Y-48291905D01*
X102635295Y-48291905D02*
X102540057Y-48339524D01*
X102540057Y-48339524D02*
X102492438Y-48387143D01*
X102492438Y-48387143D02*
X102444819Y-48482381D01*
X102778152Y-49244286D02*
X103444819Y-49244286D01*
X102873390Y-49244286D02*
X102825771Y-49291905D01*
X102825771Y-49291905D02*
X102778152Y-49387143D01*
X102778152Y-49387143D02*
X102778152Y-49530000D01*
X102778152Y-49530000D02*
X102825771Y-49625238D01*
X102825771Y-49625238D02*
X102921009Y-49672857D01*
X102921009Y-49672857D02*
X103444819Y-49672857D01*
D12*
X104849530Y-47708571D02*
X104873340Y-47684762D01*
X104873340Y-47684762D02*
X104897149Y-47613333D01*
X104897149Y-47613333D02*
X104897149Y-47565714D01*
X104897149Y-47565714D02*
X104873340Y-47494286D01*
X104873340Y-47494286D02*
X104825720Y-47446667D01*
X104825720Y-47446667D02*
X104778101Y-47422857D01*
X104778101Y-47422857D02*
X104682863Y-47399048D01*
X104682863Y-47399048D02*
X104611435Y-47399048D01*
X104611435Y-47399048D02*
X104516197Y-47422857D01*
X104516197Y-47422857D02*
X104468578Y-47446667D01*
X104468578Y-47446667D02*
X104420959Y-47494286D01*
X104420959Y-47494286D02*
X104397149Y-47565714D01*
X104397149Y-47565714D02*
X104397149Y-47613333D01*
X104397149Y-47613333D02*
X104420959Y-47684762D01*
X104420959Y-47684762D02*
X104444768Y-47708571D01*
X104897149Y-48184762D02*
X104897149Y-47899048D01*
X104897149Y-48041905D02*
X104397149Y-48041905D01*
X104397149Y-48041905D02*
X104468578Y-47994286D01*
X104468578Y-47994286D02*
X104516197Y-47946667D01*
X104516197Y-47946667D02*
X104540006Y-47899048D01*
X104397149Y-48351428D02*
X104397149Y-48660952D01*
X104397149Y-48660952D02*
X104587625Y-48494285D01*
X104587625Y-48494285D02*
X104587625Y-48565714D01*
X104587625Y-48565714D02*
X104611435Y-48613333D01*
X104611435Y-48613333D02*
X104635244Y-48637142D01*
X104635244Y-48637142D02*
X104682863Y-48660952D01*
X104682863Y-48660952D02*
X104801911Y-48660952D01*
X104801911Y-48660952D02*
X104849530Y-48637142D01*
X104849530Y-48637142D02*
X104873340Y-48613333D01*
X104873340Y-48613333D02*
X104897149Y-48565714D01*
X104897149Y-48565714D02*
X104897149Y-48422857D01*
X104897149Y-48422857D02*
X104873340Y-48375238D01*
X104873340Y-48375238D02*
X104849530Y-48351428D01*
D10*
X94781785Y-98374819D02*
X94162738Y-98374819D01*
X94162738Y-98374819D02*
X94496071Y-98755771D01*
X94496071Y-98755771D02*
X94353214Y-98755771D01*
X94353214Y-98755771D02*
X94257976Y-98803390D01*
X94257976Y-98803390D02*
X94210357Y-98851009D01*
X94210357Y-98851009D02*
X94162738Y-98946247D01*
X94162738Y-98946247D02*
X94162738Y-99184342D01*
X94162738Y-99184342D02*
X94210357Y-99279580D01*
X94210357Y-99279580D02*
X94257976Y-99327200D01*
X94257976Y-99327200D02*
X94353214Y-99374819D01*
X94353214Y-99374819D02*
X94638928Y-99374819D01*
X94638928Y-99374819D02*
X94734166Y-99327200D01*
X94734166Y-99327200D02*
X94781785Y-99279580D01*
X93543690Y-98374819D02*
X93448452Y-98374819D01*
X93448452Y-98374819D02*
X93353214Y-98422438D01*
X93353214Y-98422438D02*
X93305595Y-98470057D01*
X93305595Y-98470057D02*
X93257976Y-98565295D01*
X93257976Y-98565295D02*
X93210357Y-98755771D01*
X93210357Y-98755771D02*
X93210357Y-98993866D01*
X93210357Y-98993866D02*
X93257976Y-99184342D01*
X93257976Y-99184342D02*
X93305595Y-99279580D01*
X93305595Y-99279580D02*
X93353214Y-99327200D01*
X93353214Y-99327200D02*
X93448452Y-99374819D01*
X93448452Y-99374819D02*
X93543690Y-99374819D01*
X93543690Y-99374819D02*
X93638928Y-99327200D01*
X93638928Y-99327200D02*
X93686547Y-99279580D01*
X93686547Y-99279580D02*
X93734166Y-99184342D01*
X93734166Y-99184342D02*
X93781785Y-98993866D01*
X93781785Y-98993866D02*
X93781785Y-98755771D01*
X93781785Y-98755771D02*
X93734166Y-98565295D01*
X93734166Y-98565295D02*
X93686547Y-98470057D01*
X93686547Y-98470057D02*
X93638928Y-98422438D01*
X93638928Y-98422438D02*
X93543690Y-98374819D01*
X92781785Y-99374819D02*
X92781785Y-98374819D01*
X92686547Y-98993866D02*
X92400833Y-99374819D01*
X92400833Y-98708152D02*
X92781785Y-99089104D01*
D12*
X93888928Y-100797149D02*
X94055594Y-100559054D01*
X94174642Y-100797149D02*
X94174642Y-100297149D01*
X94174642Y-100297149D02*
X93984166Y-100297149D01*
X93984166Y-100297149D02*
X93936547Y-100320959D01*
X93936547Y-100320959D02*
X93912737Y-100344768D01*
X93912737Y-100344768D02*
X93888928Y-100392387D01*
X93888928Y-100392387D02*
X93888928Y-100463816D01*
X93888928Y-100463816D02*
X93912737Y-100511435D01*
X93912737Y-100511435D02*
X93936547Y-100535244D01*
X93936547Y-100535244D02*
X93984166Y-100559054D01*
X93984166Y-100559054D02*
X94174642Y-100559054D01*
X93722261Y-100297149D02*
X93412737Y-100297149D01*
X93412737Y-100297149D02*
X93579404Y-100487625D01*
X93579404Y-100487625D02*
X93507975Y-100487625D01*
X93507975Y-100487625D02*
X93460356Y-100511435D01*
X93460356Y-100511435D02*
X93436547Y-100535244D01*
X93436547Y-100535244D02*
X93412737Y-100582863D01*
X93412737Y-100582863D02*
X93412737Y-100701911D01*
X93412737Y-100701911D02*
X93436547Y-100749530D01*
X93436547Y-100749530D02*
X93460356Y-100773340D01*
X93460356Y-100773340D02*
X93507975Y-100797149D01*
X93507975Y-100797149D02*
X93650832Y-100797149D01*
X93650832Y-100797149D02*
X93698451Y-100773340D01*
X93698451Y-100773340D02*
X93722261Y-100749530D01*
X93246071Y-100297149D02*
X92912738Y-100297149D01*
X92912738Y-100297149D02*
X93127023Y-100797149D01*
D10*
X149279047Y-46414819D02*
X149850475Y-46414819D01*
X149564761Y-46414819D02*
X149564761Y-45414819D01*
X149564761Y-45414819D02*
X149659999Y-45557676D01*
X149659999Y-45557676D02*
X149755237Y-45652914D01*
X149755237Y-45652914D02*
X149850475Y-45700533D01*
X148850475Y-46414819D02*
X148850475Y-45414819D01*
X148755237Y-46033866D02*
X148469523Y-46414819D01*
X148469523Y-45748152D02*
X148850475Y-46129104D01*
D12*
X149243333Y-44537149D02*
X149409999Y-44299054D01*
X149529047Y-44537149D02*
X149529047Y-44037149D01*
X149529047Y-44037149D02*
X149338571Y-44037149D01*
X149338571Y-44037149D02*
X149290952Y-44060959D01*
X149290952Y-44060959D02*
X149267142Y-44084768D01*
X149267142Y-44084768D02*
X149243333Y-44132387D01*
X149243333Y-44132387D02*
X149243333Y-44203816D01*
X149243333Y-44203816D02*
X149267142Y-44251435D01*
X149267142Y-44251435D02*
X149290952Y-44275244D01*
X149290952Y-44275244D02*
X149338571Y-44299054D01*
X149338571Y-44299054D02*
X149529047Y-44299054D01*
X148814761Y-44203816D02*
X148814761Y-44537149D01*
X148933809Y-44013340D02*
X149052856Y-44370482D01*
X149052856Y-44370482D02*
X148743333Y-44370482D01*
D10*
X100270057Y-46815714D02*
X100222438Y-46863333D01*
X100222438Y-46863333D02*
X100174819Y-46958571D01*
X100174819Y-46958571D02*
X100174819Y-47196666D01*
X100174819Y-47196666D02*
X100222438Y-47291904D01*
X100222438Y-47291904D02*
X100270057Y-47339523D01*
X100270057Y-47339523D02*
X100365295Y-47387142D01*
X100365295Y-47387142D02*
X100460533Y-47387142D01*
X100460533Y-47387142D02*
X100603390Y-47339523D01*
X100603390Y-47339523D02*
X101174819Y-46768095D01*
X101174819Y-46768095D02*
X101174819Y-47387142D01*
X100270057Y-47768095D02*
X100222438Y-47815714D01*
X100222438Y-47815714D02*
X100174819Y-47910952D01*
X100174819Y-47910952D02*
X100174819Y-48149047D01*
X100174819Y-48149047D02*
X100222438Y-48244285D01*
X100222438Y-48244285D02*
X100270057Y-48291904D01*
X100270057Y-48291904D02*
X100365295Y-48339523D01*
X100365295Y-48339523D02*
X100460533Y-48339523D01*
X100460533Y-48339523D02*
X100603390Y-48291904D01*
X100603390Y-48291904D02*
X101174819Y-47720476D01*
X101174819Y-47720476D02*
X101174819Y-48339523D01*
X100508152Y-49196666D02*
X101174819Y-49196666D01*
X100508152Y-48768095D02*
X101031961Y-48768095D01*
X101031961Y-48768095D02*
X101127200Y-48815714D01*
X101127200Y-48815714D02*
X101174819Y-48910952D01*
X101174819Y-48910952D02*
X101174819Y-49053809D01*
X101174819Y-49053809D02*
X101127200Y-49149047D01*
X101127200Y-49149047D02*
X101079580Y-49196666D01*
D12*
X102579530Y-47708571D02*
X102603340Y-47684762D01*
X102603340Y-47684762D02*
X102627149Y-47613333D01*
X102627149Y-47613333D02*
X102627149Y-47565714D01*
X102627149Y-47565714D02*
X102603340Y-47494286D01*
X102603340Y-47494286D02*
X102555720Y-47446667D01*
X102555720Y-47446667D02*
X102508101Y-47422857D01*
X102508101Y-47422857D02*
X102412863Y-47399048D01*
X102412863Y-47399048D02*
X102341435Y-47399048D01*
X102341435Y-47399048D02*
X102246197Y-47422857D01*
X102246197Y-47422857D02*
X102198578Y-47446667D01*
X102198578Y-47446667D02*
X102150959Y-47494286D01*
X102150959Y-47494286D02*
X102127149Y-47565714D01*
X102127149Y-47565714D02*
X102127149Y-47613333D01*
X102127149Y-47613333D02*
X102150959Y-47684762D01*
X102150959Y-47684762D02*
X102174768Y-47708571D01*
X102627149Y-48184762D02*
X102627149Y-47899048D01*
X102627149Y-48041905D02*
X102127149Y-48041905D01*
X102127149Y-48041905D02*
X102198578Y-47994286D01*
X102198578Y-47994286D02*
X102246197Y-47946667D01*
X102246197Y-47946667D02*
X102270006Y-47899048D01*
X102174768Y-48375238D02*
X102150959Y-48399047D01*
X102150959Y-48399047D02*
X102127149Y-48446666D01*
X102127149Y-48446666D02*
X102127149Y-48565714D01*
X102127149Y-48565714D02*
X102150959Y-48613333D01*
X102150959Y-48613333D02*
X102174768Y-48637142D01*
X102174768Y-48637142D02*
X102222387Y-48660952D01*
X102222387Y-48660952D02*
X102270006Y-48660952D01*
X102270006Y-48660952D02*
X102341435Y-48637142D01*
X102341435Y-48637142D02*
X102627149Y-48351428D01*
X102627149Y-48351428D02*
X102627149Y-48660952D01*
D10*
X113379523Y-46224819D02*
X112760476Y-46224819D01*
X112760476Y-46224819D02*
X113093809Y-46605771D01*
X113093809Y-46605771D02*
X112950952Y-46605771D01*
X112950952Y-46605771D02*
X112855714Y-46653390D01*
X112855714Y-46653390D02*
X112808095Y-46701009D01*
X112808095Y-46701009D02*
X112760476Y-46796247D01*
X112760476Y-46796247D02*
X112760476Y-47034342D01*
X112760476Y-47034342D02*
X112808095Y-47129580D01*
X112808095Y-47129580D02*
X112855714Y-47177200D01*
X112855714Y-47177200D02*
X112950952Y-47224819D01*
X112950952Y-47224819D02*
X113236666Y-47224819D01*
X113236666Y-47224819D02*
X113331904Y-47177200D01*
X113331904Y-47177200D02*
X113379523Y-47129580D01*
X112427142Y-46224819D02*
X111808095Y-46224819D01*
X111808095Y-46224819D02*
X112141428Y-46605771D01*
X112141428Y-46605771D02*
X111998571Y-46605771D01*
X111998571Y-46605771D02*
X111903333Y-46653390D01*
X111903333Y-46653390D02*
X111855714Y-46701009D01*
X111855714Y-46701009D02*
X111808095Y-46796247D01*
X111808095Y-46796247D02*
X111808095Y-47034342D01*
X111808095Y-47034342D02*
X111855714Y-47129580D01*
X111855714Y-47129580D02*
X111903333Y-47177200D01*
X111903333Y-47177200D02*
X111998571Y-47224819D01*
X111998571Y-47224819D02*
X112284285Y-47224819D01*
X112284285Y-47224819D02*
X112379523Y-47177200D01*
X112379523Y-47177200D02*
X112427142Y-47129580D01*
X110808095Y-47224819D02*
X111141428Y-46748628D01*
X111379523Y-47224819D02*
X111379523Y-46224819D01*
X111379523Y-46224819D02*
X110998571Y-46224819D01*
X110998571Y-46224819D02*
X110903333Y-46272438D01*
X110903333Y-46272438D02*
X110855714Y-46320057D01*
X110855714Y-46320057D02*
X110808095Y-46415295D01*
X110808095Y-46415295D02*
X110808095Y-46558152D01*
X110808095Y-46558152D02*
X110855714Y-46653390D01*
X110855714Y-46653390D02*
X110903333Y-46701009D01*
X110903333Y-46701009D02*
X110998571Y-46748628D01*
X110998571Y-46748628D02*
X111379523Y-46748628D01*
D12*
X112153333Y-45347149D02*
X112319999Y-45109054D01*
X112439047Y-45347149D02*
X112439047Y-44847149D01*
X112439047Y-44847149D02*
X112248571Y-44847149D01*
X112248571Y-44847149D02*
X112200952Y-44870959D01*
X112200952Y-44870959D02*
X112177142Y-44894768D01*
X112177142Y-44894768D02*
X112153333Y-44942387D01*
X112153333Y-44942387D02*
X112153333Y-45013816D01*
X112153333Y-45013816D02*
X112177142Y-45061435D01*
X112177142Y-45061435D02*
X112200952Y-45085244D01*
X112200952Y-45085244D02*
X112248571Y-45109054D01*
X112248571Y-45109054D02*
X112439047Y-45109054D01*
X111700952Y-44847149D02*
X111939047Y-44847149D01*
X111939047Y-44847149D02*
X111962856Y-45085244D01*
X111962856Y-45085244D02*
X111939047Y-45061435D01*
X111939047Y-45061435D02*
X111891428Y-45037625D01*
X111891428Y-45037625D02*
X111772380Y-45037625D01*
X111772380Y-45037625D02*
X111724761Y-45061435D01*
X111724761Y-45061435D02*
X111700952Y-45085244D01*
X111700952Y-45085244D02*
X111677142Y-45132863D01*
X111677142Y-45132863D02*
X111677142Y-45251911D01*
X111677142Y-45251911D02*
X111700952Y-45299530D01*
X111700952Y-45299530D02*
X111724761Y-45323340D01*
X111724761Y-45323340D02*
X111772380Y-45347149D01*
X111772380Y-45347149D02*
X111891428Y-45347149D01*
X111891428Y-45347149D02*
X111939047Y-45323340D01*
X111939047Y-45323340D02*
X111962856Y-45299530D01*
D10*
X141321666Y-121770057D02*
X141274047Y-121722438D01*
X141274047Y-121722438D02*
X141178809Y-121674819D01*
X141178809Y-121674819D02*
X140940714Y-121674819D01*
X140940714Y-121674819D02*
X140845476Y-121722438D01*
X140845476Y-121722438D02*
X140797857Y-121770057D01*
X140797857Y-121770057D02*
X140750238Y-121865295D01*
X140750238Y-121865295D02*
X140750238Y-121960533D01*
X140750238Y-121960533D02*
X140797857Y-122103390D01*
X140797857Y-122103390D02*
X141369285Y-122674819D01*
X141369285Y-122674819D02*
X140750238Y-122674819D01*
X140369285Y-121770057D02*
X140321666Y-121722438D01*
X140321666Y-121722438D02*
X140226428Y-121674819D01*
X140226428Y-121674819D02*
X139988333Y-121674819D01*
X139988333Y-121674819D02*
X139893095Y-121722438D01*
X139893095Y-121722438D02*
X139845476Y-121770057D01*
X139845476Y-121770057D02*
X139797857Y-121865295D01*
X139797857Y-121865295D02*
X139797857Y-121960533D01*
X139797857Y-121960533D02*
X139845476Y-122103390D01*
X139845476Y-122103390D02*
X140416904Y-122674819D01*
X140416904Y-122674819D02*
X139797857Y-122674819D01*
X139369285Y-122674819D02*
X139369285Y-121674819D01*
X139274047Y-122293866D02*
X138988333Y-122674819D01*
X138988333Y-122008152D02*
X139369285Y-122389104D01*
D12*
X140476428Y-124097149D02*
X140643094Y-123859054D01*
X140762142Y-124097149D02*
X140762142Y-123597149D01*
X140762142Y-123597149D02*
X140571666Y-123597149D01*
X140571666Y-123597149D02*
X140524047Y-123620959D01*
X140524047Y-123620959D02*
X140500237Y-123644768D01*
X140500237Y-123644768D02*
X140476428Y-123692387D01*
X140476428Y-123692387D02*
X140476428Y-123763816D01*
X140476428Y-123763816D02*
X140500237Y-123811435D01*
X140500237Y-123811435D02*
X140524047Y-123835244D01*
X140524047Y-123835244D02*
X140571666Y-123859054D01*
X140571666Y-123859054D02*
X140762142Y-123859054D01*
X140047856Y-123763816D02*
X140047856Y-124097149D01*
X140166904Y-123573340D02*
X140285951Y-123930482D01*
X140285951Y-123930482D02*
X139976428Y-123930482D01*
X139524047Y-124097149D02*
X139809761Y-124097149D01*
X139666904Y-124097149D02*
X139666904Y-123597149D01*
X139666904Y-123597149D02*
X139714523Y-123668578D01*
X139714523Y-123668578D02*
X139762142Y-123716197D01*
X139762142Y-123716197D02*
X139809761Y-123740006D01*
D13*
%TO.C,Q1*%
X120260000Y-84200000D02*
X117360000Y-84200000D01*
X117360000Y-83225000D01*
X117685000Y-82900000D01*
X120260000Y-82900000D01*
X120260000Y-84200000D01*
%TO.C,R34*%
X112210000Y-66045000D02*
X112210000Y-67295000D01*
X112210000Y-67295000D02*
X114210000Y-67295000D01*
X114210000Y-66045000D02*
X112210000Y-66045000D01*
X114210000Y-67295000D02*
X114210000Y-66045000D01*
%TO.C,R32*%
X106005000Y-97210000D02*
X106005000Y-99210000D01*
X106005000Y-99210000D02*
X107255000Y-99210000D01*
X107255000Y-97210000D02*
X106005000Y-97210000D01*
X107255000Y-99210000D02*
X107255000Y-97210000D01*
%TO.C,R7*%
X140495000Y-35430000D02*
X140495000Y-37430000D01*
X140495000Y-37430000D02*
X141745000Y-37430000D01*
X141745000Y-35430000D02*
X140495000Y-35430000D01*
X141745000Y-37430000D02*
X141745000Y-35430000D01*
%TO.C,R39*%
X143250000Y-120855000D02*
X143250000Y-122105000D01*
X143250000Y-122105000D02*
X145250000Y-122105000D01*
X145250000Y-120855000D02*
X143250000Y-120855000D01*
X145250000Y-122105000D02*
X145250000Y-120855000D01*
%TO.C,R42*%
X71130000Y-117385000D02*
X71130000Y-118635000D01*
X71130000Y-118635000D02*
X73130000Y-118635000D01*
X73130000Y-117385000D02*
X71130000Y-117385000D01*
X73130000Y-118635000D02*
X73130000Y-117385000D01*
%TO.C,R21*%
X111100000Y-103895000D02*
X111100000Y-105145000D01*
X111100000Y-105145000D02*
X113100000Y-105145000D01*
X113100000Y-103895000D02*
X111100000Y-103895000D01*
X113100000Y-105145000D02*
X113100000Y-103895000D01*
%TO.C,R31*%
X102185000Y-97210000D02*
X102185000Y-99210000D01*
X102185000Y-99210000D02*
X103435000Y-99210000D01*
X103435000Y-97210000D02*
X102185000Y-97210000D01*
X103435000Y-99210000D02*
X103435000Y-97210000D01*
%TO.C,R27*%
X110694999Y-47080000D02*
X110694999Y-49080000D01*
X110694999Y-49080000D02*
X111944999Y-49080000D01*
X111944999Y-47080000D02*
X110694999Y-47080000D01*
X111944999Y-49080000D02*
X111944999Y-47080000D01*
%TO.C,R43*%
X90040000Y-117075000D02*
X90040000Y-118325000D01*
X90040000Y-118325000D02*
X92040000Y-118325000D01*
X92040000Y-117075000D02*
X90040000Y-117075000D01*
X92040000Y-118325000D02*
X92040000Y-117075000D01*
%TO.C,R28*%
X114735000Y-82180000D02*
X114735000Y-84180000D01*
X114735000Y-84180000D02*
X115985000Y-84180000D01*
X115985000Y-82180000D02*
X114735000Y-82180000D01*
X115985000Y-84180000D02*
X115985000Y-82180000D01*
%TO.C,R30*%
X98365000Y-97210000D02*
X98365000Y-99210000D01*
X98365000Y-99210000D02*
X99615000Y-99210000D01*
X99615000Y-97210000D02*
X98365000Y-97210000D01*
X99615000Y-99210000D02*
X99615000Y-97210000D01*
%TO.C,R15*%
X113425000Y-52980000D02*
X113425000Y-54980000D01*
X113425000Y-54980000D02*
X114675000Y-54980000D01*
X114675000Y-52980000D02*
X113425000Y-52980000D01*
X114675000Y-54980000D02*
X114675000Y-52980000D01*
%TO.C,R25*%
X108484999Y-47080000D02*
X108484999Y-49080000D01*
X108484999Y-49080000D02*
X109734999Y-49080000D01*
X109734999Y-47080000D02*
X108484999Y-47080000D01*
X109734999Y-49080000D02*
X109734999Y-47080000D01*
%TO.C,C21*%
X133600000Y-109935000D02*
X133600000Y-111185000D01*
X133600000Y-111185000D02*
X135600000Y-111185000D01*
X135600000Y-109935000D02*
X133600000Y-109935000D01*
X135600000Y-111185000D02*
X135600000Y-109935000D01*
%TO.C,R36*%
X92567500Y-102895000D02*
X92567500Y-104145000D01*
X92567500Y-104145000D02*
X94567500Y-104145000D01*
X94567500Y-102895000D02*
X92567500Y-102895000D01*
X94567500Y-104145000D02*
X94567500Y-102895000D01*
%TO.C,C20*%
X144500000Y-111795000D02*
X144500000Y-113045000D01*
X144500000Y-113045000D02*
X146500000Y-113045000D01*
X146500000Y-111795000D02*
X144500000Y-111795000D01*
X146500000Y-113045000D02*
X146500000Y-111795000D01*
%TO.C,R23*%
X120615000Y-77330000D02*
X120615000Y-79330000D01*
X120615000Y-79330000D02*
X121865000Y-79330000D01*
X121865000Y-77330000D02*
X120615000Y-77330000D01*
X121865000Y-79330000D02*
X121865000Y-77330000D01*
%TO.C,R33*%
X93970000Y-36015000D02*
X93970000Y-37265000D01*
X93970000Y-37265000D02*
X95970000Y-37265000D01*
X95970000Y-36015000D02*
X93970000Y-36015000D01*
X95970000Y-37265000D02*
X95970000Y-36015000D01*
%TO.C,R20*%
X111100000Y-106725000D02*
X111100000Y-107975000D01*
X111100000Y-107975000D02*
X113100000Y-107975000D01*
X113100000Y-106725000D02*
X111100000Y-106725000D01*
X113100000Y-107975000D02*
X113100000Y-106725000D01*
D14*
%TO.C,U4*%
X136680000Y-115897500D02*
X136680000Y-119597500D01*
X136680000Y-119597500D02*
X143380000Y-119597500D01*
X143380000Y-115897500D02*
X136680000Y-115897500D01*
X143380000Y-119597500D02*
X143380000Y-115897500D01*
D15*
X137830000Y-113147500D02*
G75*
G02*
X137630000Y-113147500I-100000J0D01*
G01*
X137630000Y-113147500D02*
G75*
G02*
X137830000Y-113147500I100000J0D01*
G01*
D13*
%TO.C,U1*%
X119850000Y-53400000D02*
X119850000Y-27900000D01*
X137850000Y-27900000D02*
X119850000Y-27900000D01*
X137850000Y-33900000D02*
X119850000Y-33900000D01*
X137850000Y-53400000D02*
X119850000Y-53400000D01*
X137850000Y-53400000D02*
X137850000Y-27900000D01*
%TO.C,C22*%
X133600000Y-112265000D02*
X133600000Y-113515000D01*
X133600000Y-113515000D02*
X135600000Y-113515000D01*
X135600000Y-112265000D02*
X133600000Y-112265000D01*
X135600000Y-113515000D02*
X135600000Y-112265000D01*
%TO.C,R40*%
X135430000Y-123245000D02*
X135430000Y-124495000D01*
X135430000Y-124495000D02*
X137430000Y-124495000D01*
X137430000Y-123245000D02*
X135430000Y-123245000D01*
X137430000Y-124495000D02*
X137430000Y-123245000D01*
%TO.C,R22*%
X106335000Y-47080000D02*
X106335000Y-49080000D01*
X106335000Y-49080000D02*
X107585000Y-49080000D01*
X107585000Y-47080000D02*
X106335000Y-47080000D01*
X107585000Y-49080000D02*
X107585000Y-47080000D01*
%TO.C,R18*%
X115795000Y-53030000D02*
X115795000Y-55030000D01*
X115795000Y-55030000D02*
X117045000Y-55030000D01*
X117045000Y-53030000D02*
X115795000Y-53030000D01*
X117045000Y-55030000D02*
X117045000Y-53030000D01*
%TO.C,R1*%
X148140000Y-35765000D02*
X148140000Y-37015000D01*
X148140000Y-37015000D02*
X150140000Y-37015000D01*
X150140000Y-35765000D02*
X148140000Y-35765000D01*
X150140000Y-37015000D02*
X150140000Y-35765000D01*
D14*
%TO.C,TF1*%
X98655000Y-27530000D02*
X99580000Y-27530000D01*
X98655000Y-42030000D02*
X98655000Y-27530000D01*
X99580000Y-27530000D02*
X99580000Y-22430000D01*
X99580000Y-27530000D02*
X110580000Y-27530000D01*
X100080000Y-21930000D02*
X110080000Y-21930000D01*
X100080000Y-25230000D02*
X110080000Y-25230000D01*
X110580000Y-22430000D02*
X110580000Y-27530000D01*
X110580000Y-27530000D02*
X113405000Y-27530000D01*
X113405000Y-27530000D02*
X113405000Y-42030000D01*
X113405000Y-42030000D02*
X98655000Y-42030000D01*
X99580000Y-22430000D02*
G75*
G02*
X100080000Y-21930000I500001J-1D01*
G01*
X99580000Y-25730000D02*
G75*
G02*
X100080000Y-25230000I500001J-1D01*
G01*
X110080000Y-21930000D02*
G75*
G02*
X110580000Y-22430000I0J-500000D01*
G01*
X110080000Y-25230000D02*
G75*
G02*
X110580000Y-25730000I0J-500000D01*
G01*
D15*
X108380000Y-43880000D02*
G75*
G02*
X108180000Y-43880000I-100000J0D01*
G01*
X108180000Y-43880000D02*
G75*
G02*
X108380000Y-43880000I100000J0D01*
G01*
D13*
%TO.C,C19*%
X144500000Y-109385000D02*
X144500000Y-110635000D01*
X144500000Y-110635000D02*
X146500000Y-110635000D01*
X146500000Y-109385000D02*
X144500000Y-109385000D01*
X146500000Y-110635000D02*
X146500000Y-109385000D01*
%TO.C,R26*%
X142880000Y-123245000D02*
X142880000Y-124495000D01*
X142880000Y-124495000D02*
X144880000Y-124495000D01*
X144880000Y-123245000D02*
X142880000Y-123245000D01*
X144880000Y-124495000D02*
X144880000Y-123245000D01*
%TO.C,C13*%
X104045000Y-47030000D02*
X104045000Y-49030000D01*
X104045000Y-49030000D02*
X105295000Y-49030000D01*
X105295000Y-47030000D02*
X104045000Y-47030000D01*
X105295000Y-49030000D02*
X105295000Y-47030000D01*
%TO.C,R37*%
X92567500Y-99945000D02*
X92567500Y-101195000D01*
X92567500Y-101195000D02*
X94567500Y-101195000D01*
X94567500Y-99945000D02*
X92567500Y-99945000D01*
X94567500Y-101195000D02*
X94567500Y-99945000D01*
%TO.C,R4*%
X148160000Y-43685000D02*
X148160000Y-44935000D01*
X148160000Y-44935000D02*
X150160000Y-44935000D01*
X150160000Y-43685000D02*
X148160000Y-43685000D01*
X150160000Y-44935000D02*
X150160000Y-43685000D01*
%TO.C,C12*%
X101775000Y-47030000D02*
X101775000Y-49030000D01*
X101775000Y-49030000D02*
X103025000Y-49030000D01*
X103025000Y-47030000D02*
X101775000Y-47030000D01*
X103025000Y-49030000D02*
X103025000Y-47030000D01*
%TO.C,R5*%
X111070000Y-44495000D02*
X111070000Y-45745000D01*
X111070000Y-45745000D02*
X113070000Y-45745000D01*
X113070000Y-44495000D02*
X111070000Y-44495000D01*
X113070000Y-45745000D02*
X113070000Y-44495000D01*
%TO.C,R41*%
X139155000Y-123245000D02*
X139155000Y-124495000D01*
X139155000Y-124495000D02*
X141155000Y-124495000D01*
X141155000Y-123245000D02*
X139155000Y-123245000D01*
X141155000Y-124495000D02*
X141155000Y-123245000D01*
%TD*%
M02*
