M48
; DRILL file {KiCad 9.0.6} date 2026-04-12T19:10:25+0200
; FORMAT={-:-/ absolute / metric / decimal}
; #@! TF.CreationDate,2026-04-12T19:10:25+02:00
; #@! TF.GenerationSoftware,Kicad,Pcbnew,9.0.6
; #@! TF.FileFunction,Plated,1,2,PTH
FMAT,2
METRIC
; #@! TA.AperFunction,Plated,PTH,ViaDrill
T1C0.300
; #@! TA.AperFunction,Plated,PTH,ComponentDrill
T2C0.300
; #@! TA.AperFunction,Plated,PTH,ViaDrill
T3C0.400
; #@! TA.AperFunction,Plated,PTH,ViaDrill
T4C0.500
; #@! TA.AperFunction,Plated,PTH,ComponentDrill
T5C0.740
; #@! TA.AperFunction,Plated,PTH,ComponentDrill
T6C0.800
; #@! TA.AperFunction,Plated,PTH,ComponentDrill
T7C0.890
; #@! TA.AperFunction,Plated,PTH,ComponentDrill
T8C0.900
; #@! TA.AperFunction,Plated,PTH,ComponentDrill
T9C0.950
; #@! TA.AperFunction,Plated,PTH,ComponentDrill
T10C1.000
; #@! TA.AperFunction,Plated,PTH,ComponentDrill
T11C1.300
; #@! TA.AperFunction,Plated,PTH,ComponentDrill
T12C1.570
; #@! TA.AperFunction,Plated,PTH,ComponentDrill
T13C2.700
%
G90
G05
T1
X71.222Y-120.45
X79.44Y-105.09
X80.15Y-101.261
X81.155Y-101.261
X82.16Y-101.261
X84.287Y-105.39
X85.243Y-105.39
X86.199Y-105.39
X88.24Y-91.67
X90.54Y-106.15
X92.57Y-64.08
X93.78Y-120.21
X94.45Y-115.13
X94.51Y-106.55
X96.13Y-36.43
X97.174Y-106.068
X97.9Y-105.42
X98.415Y-104.11
X99.025Y-103.39
X101.776Y-59.82
X101.83Y-42.68
X103.88Y-42.68
X104.19Y-122.91
X105.89Y-42.68
X107.04Y-55.764
X107.145Y-48.5
X107.35Y-42.68
X109.29Y-49.612
X110.891Y-60.886
X111.157Y-45.12
X111.5Y-51.86
X111.7Y-110.98
X111.72Y-109.1
X111.97Y-96.176
X112.17Y-61.332
X112.575Y-96.176
X113.12Y-53.989
X114.239Y-51.452
X114.54Y-110.98
X114.55Y-109.07
X114.854Y-50.865
X115.65Y-88.05
X115.945Y-61.634
X116.01Y-72.97
X116.837Y-84.6
X116.86Y-72.97
X116.945Y-69.108
X117.13Y-37.29
X117.237Y-41.667
X117.24Y-44.28
X117.24Y-45.36
X117.24Y-50.29
X118.14Y-88.55
X118.14Y-89.27
X118.7Y-62.39
X118.938Y-79.56
X119.81Y-62.39
X120.0Y-39.2
X120.26Y-51.84
X123.1Y-98.78
X125.32Y-107.74
X126.79Y-55.73
X128.067Y-55.73
X128.54Y-107.99
X129.343Y-55.73
X130.62Y-55.73
X131.49Y-58.615
X131.897Y-55.73
X133.173Y-55.73
X134.45Y-55.73
X135.54Y-123.8
X137.6Y-37.93
X137.6Y-41.74
X137.73Y-117.27
X141.09Y-123.8
X141.11Y-35.5
X142.95Y-48.17
X143.01Y-38.77
X143.01Y-123.8
X143.418Y-121.904
X143.84Y-117.11
X144.81Y-123.8
T2
X128.95Y-42.41
X128.95Y-43.81
X129.65Y-41.71
X129.65Y-43.11
X129.65Y-44.51
X130.35Y-42.41
X130.35Y-43.81
X131.05Y-41.71
X131.05Y-43.11
X131.05Y-44.51
X131.75Y-42.41
X131.75Y-43.81
T3
X86.302Y-101.336
T4
X78.26Y-103.21
X90.175Y-100.43
X90.19Y-101.863
X91.0Y-100.43
X91.0Y-101.88
X102.66Y-74.09
X102.66Y-75.54
X103.98Y-74.09
X103.98Y-75.54
X104.48Y-50.93
X108.1Y-92.66
X108.1Y-94.11
X109.22Y-44.25
X109.42Y-92.66
X109.42Y-94.11
X114.74Y-43.56
X117.195Y-70.94
X122.98Y-85.28
X122.98Y-92.05
X130.442Y-96.458
X133.88Y-115.94
X133.88Y-117.39
X135.2Y-115.94
X135.2Y-117.39
X145.29Y-118.3
X145.29Y-119.75
X146.61Y-118.3
X146.61Y-119.75
T5
X97.222Y-81.035
X97.222Y-88.975
X99.762Y-81.035
X99.762Y-88.975
X102.302Y-81.035
X102.302Y-88.975
X104.843Y-81.035
X104.843Y-88.975
X107.382Y-81.035
X107.382Y-88.975
X109.922Y-81.035
X109.922Y-88.975
X112.462Y-81.035
X112.462Y-88.975
T6
X72.63Y-35.88
X72.63Y-53.914
X72.64Y-57.52
X72.64Y-75.554
X75.17Y-35.88
X75.17Y-53.914
X75.18Y-57.52
X75.18Y-75.554
X77.71Y-35.88
X77.71Y-53.914
X77.72Y-57.52
X77.72Y-75.554
X80.25Y-35.88
X80.25Y-53.914
X80.26Y-57.52
X80.26Y-75.554
X82.79Y-35.88
X82.79Y-53.914
X82.8Y-57.52
X82.8Y-75.554
X85.33Y-35.88
X85.33Y-53.914
X85.34Y-57.52
X85.34Y-75.554
X87.87Y-35.88
X87.87Y-53.914
X87.88Y-57.52
X87.88Y-75.554
X90.41Y-35.88
X90.41Y-53.914
X90.42Y-57.52
X90.42Y-75.554
X117.025Y-102.542
X124.645Y-102.542
T7
X101.144Y-119.45
X102.16Y-121.23
X103.176Y-119.45
X104.192Y-121.23
X105.208Y-119.45
X106.224Y-121.23
X107.24Y-119.45
X108.256Y-121.23
X121.174Y-119.45
X122.19Y-121.23
X123.206Y-119.45
X124.222Y-121.23
X125.238Y-119.45
X126.254Y-121.23
X127.27Y-119.45
X128.286Y-121.23
T8
X130.88Y-85.73
X132.18Y-78.23
T9
X147.64Y-39.24
X147.64Y-48.6
X150.14Y-39.24
X150.14Y-48.6
X152.64Y-39.24
X152.64Y-48.6
T10
X75.43Y-94.74
X75.43Y-97.24
X76.94Y-121.5
X79.44Y-121.5
X85.59Y-121.525
X88.09Y-121.525
X144.23Y-63.0
X144.23Y-70.5
X149.427Y-121.285
X151.927Y-121.285
X152.427Y-106.402
X152.427Y-110.182
T11
X141.8Y-76.65
X141.8Y-99.15
X152.427Y-84.983
X152.427Y-90.022
X152.77Y-64.07
X152.77Y-69.07
T12
X96.566Y-120.34
X112.826Y-120.34
X116.596Y-120.34
X132.856Y-120.34
T13
X75.44Y-31.89
X75.44Y-114.89
X151.44Y-114.89
X152.58Y-31.67
M30
