M48
; DRILL file {KiCad 9.0.6} date 2026-01-11T17:06:16+0100
; FORMAT={-:-/ absolute / metric / decimal}
; #@! TF.CreationDate,2026-01-11T17:06:16+01:00
; #@! TF.GenerationSoftware,Kicad,Pcbnew,9.0.6
; #@! TF.FileFunction,Plated,1,2,PTH
FMAT,2
METRIC
; #@! TA.AperFunction,Plated,PTH,ViaDrill
T1C0.300
; #@! TA.AperFunction,Plated,PTH,ViaDrill
T2C0.600
; #@! TA.AperFunction,Plated,PTH,ComponentDrill
T3C0.750
; #@! TA.AperFunction,Plated,PTH,ComponentDrill
T4C0.800
; #@! TA.AperFunction,Plated,PTH,ComponentDrill
T5C0.890
; #@! TA.AperFunction,Plated,PTH,ComponentDrill
T6C1.000
; #@! TA.AperFunction,Plated,PTH,ComponentDrill
T7C1.100
; #@! TA.AperFunction,Plated,PTH,ComponentDrill
T8C1.570
; #@! TA.AperFunction,Plated,PTH,ComponentDrill
T9C2.700
%
G90
G05
T1
X114.26Y-55.8
X116.22Y-55.76
X116.25Y-53.01
X122.8Y-74.31
X124.59Y-76.05
X128.11Y-75.85
X130.47Y-70.67
X130.47Y-72.22
X130.628Y-76.915
X135.14Y-58.68
X135.16Y-56.53
X136.103Y-77.867
X141.16Y-51.26
X142.76Y-78.53
X143.19Y-76.165
X144.34Y-71.06
X145.475Y-76.241
X146.11Y-89.31
X147.12Y-71.43
X147.48Y-97.61
X147.57Y-76.43
X148.42Y-83.45
X148.42Y-85.04
X148.42Y-86.73
X148.45Y-76.452
X149.2Y-84.27
X149.2Y-85.92
X149.2Y-87.57
X149.325Y-76.452
X149.54Y-72.98
X149.74Y-69.85
X150.02Y-83.45
X150.02Y-85.04
X150.02Y-86.73
X150.02Y-88.48
X150.24Y-76.452
X150.85Y-84.27
X150.85Y-85.92
X150.85Y-87.57
X151.69Y-83.45
X151.69Y-85.04
X151.69Y-86.73
X151.69Y-88.48
X152.5Y-84.27
X152.5Y-85.92
X152.5Y-87.57
X152.57Y-76.452
X152.82Y-37.71
X152.93Y-71.36
X153.29Y-83.45
X153.29Y-85.04
X153.29Y-86.73
X153.29Y-88.48
X155.94Y-75.96
X155.95Y-68.17
X157.66Y-63.76
X158.0Y-37.66
X160.605Y-86.684
X160.982Y-88.345
X160.987Y-87.443
X163.008Y-84.021
X163.85Y-83.02
X168.43Y-41.68
X171.97Y-96.33
X174.17Y-42.68
X198.73Y-88.623
X200.692Y-63.44
X200.692Y-66.31
X201.71Y-88.68
X202.808Y-86.035
T2
X131.71Y-50.385
X140.16Y-46.94
X145.99Y-53.25
X145.99Y-70.35
X155.4Y-47.49
X157.37Y-76.35
X163.22Y-46.01
X163.5Y-76.64
X177.53Y-97.61
X182.09Y-96.99
X196.51Y-37.7
T3
X198.85Y-70.18
X198.85Y-72.18
X198.85Y-74.18
T4
X122.275Y-54.677
X129.895Y-54.677
T5
X117.84Y-43.71
X118.856Y-45.49
X119.872Y-43.71
X120.888Y-45.49
X121.904Y-43.71
X122.92Y-45.49
X123.936Y-43.71
X124.952Y-45.49
T6
X140.85Y-41.42
X143.39Y-41.42
X145.93Y-41.42
X148.47Y-41.42
X151.01Y-41.42
X153.55Y-41.42
X156.09Y-41.42
X158.63Y-41.42
X196.07Y-94.66
X198.57Y-94.66
T7
X169.75Y-54.5
X169.75Y-59.0
X176.25Y-54.5
X176.25Y-59.0
X182.75Y-41.75
X182.75Y-46.25
X182.75Y-66.75
X182.75Y-71.25
X189.25Y-41.75
X189.25Y-46.25
X189.25Y-66.75
X189.25Y-71.25
X194.75Y-54.5
X194.75Y-59.0
X201.25Y-54.5
X201.25Y-59.0
T8
X113.27Y-44.6
X129.53Y-44.6
T9
X108.217Y-42.383
X108.217Y-96.383
X134.74Y-42.42
X134.74Y-93.42
X164.74Y-42.42
X164.74Y-93.42
X198.217Y-42.383
X198.217Y-82.383
M30
