<?xml version="1.0" standalone="no"?>
 <!DOCTYPE svg PUBLIC "-//W3C//DTD SVG 1.1//EN" 
 "http://www.w3.org/Graphics/SVG/1.1/DTD/svg11.dtd"> 
<svg
  xmlns:svg="http://www.w3.org/2000/svg"
  xmlns="http://www.w3.org/2000/svg"
  xmlns:xlink="http://www.w3.org/1999/xlink"
  version="1.1"
  width="297.0022mm" height="210.0072mm" viewBox="0.0000 0.0000 297.0022 210.0072">
<title>SVG Image created as nowe_ust-B_Paste.svg date 2026/02/26 12:06:51 </title>
  <desc>Image generated by PCBNEW </desc>
<g style="fill:#000000; fill-opacity:1.0000;stroke:#000000; stroke-opacity:1.0000;
stroke-linecap:round; stroke-linejoin:round;"
 transform="translate(0 0) scale(1 1)">
<path style="fill:#000000; fill-opacity:1.0000; 
stroke:#000000; stroke-width:0.0100; stroke-opacity:1; 
stroke-linecap:round; stroke-linejoin:round;fill-rule:evenodd;"
d="M 174.9050,84.8450
173.0250,84.8450
173.0250,82.9650
174.9050,82.9650
Z" /> 
<path style="fill:#000000; fill-opacity:1.0000; 
stroke:#000000; stroke-width:0.0100; stroke-opacity:1; 
stroke-linecap:round; stroke-linejoin:round;fill-rule:evenodd;"
d="M 174.9050,87.7950
173.0250,87.7950
173.0250,85.9150
174.9050,85.9150
Z" /> 
<path style="fill:#000000; fill-opacity:1.0000; 
stroke:#000000; stroke-width:0.0100; stroke-opacity:1; 
stroke-linecap:round; stroke-linejoin:round;fill-rule:evenodd;"
d="M 177.8550,84.8450
175.9750,84.8450
175.9750,82.9650
177.8550,82.9650
Z" /> 
<path style="fill:#000000; fill-opacity:1.0000; 
stroke:#000000; stroke-width:0.0100; stroke-opacity:1; 
stroke-linecap:round; stroke-linejoin:round;fill-rule:evenodd;"
d="M 177.8550,87.7950
175.9750,87.7950
175.9750,85.9150
177.8550,85.9150
Z" /> 
<path style="fill:#000000; fill-opacity:1.0000; stroke:none;fill-rule:evenodd;"
d="M 150.6250,44.2050
150.6440,44.1093
150.6982,44.0282
150.7793,43.9740
150.8750,43.9550
151.5500,43.9550
151.6457,43.9740
151.7268,44.0282
151.7810,44.1093
151.8000,44.2050
151.8000,45.1550
151.7810,45.2507
151.7268,45.3318
151.6457,45.3860
151.5500,45.4050
150.8750,45.4050
150.7793,45.3860
150.6982,45.3318
150.6440,45.2507
150.6250,45.1550
Z" /> 
<path style="fill:#000000; fill-opacity:1.0000; stroke:none;fill-rule:evenodd;"
d="M 152.7000,44.2050
152.7190,44.1093
152.7732,44.0282
152.8543,43.9740
152.9500,43.9550
153.6250,43.9550
153.7207,43.9740
153.8018,44.0282
153.8560,44.1093
153.8750,44.2050
153.8750,45.1550
153.8560,45.2507
153.8018,45.3318
153.7207,45.3860
153.6250,45.4050
152.9500,45.4050
152.8543,45.3860
152.7732,45.3318
152.7190,45.2507
152.7000,45.1550
Z" /> 
<path style="fill:#000000; fill-opacity:1.0000; stroke:none;fill-rule:evenodd;"
d="M 125.7250,77.5720
125.7440,77.4763
125.7982,77.3952
125.8793,77.3410
125.9750,77.3220
126.5000,77.3220
126.5957,77.3410
126.6768,77.3952
126.7310,77.4763
126.7500,77.5720
126.7500,78.4720
126.7310,78.5677
126.6768,78.6488
126.5957,78.7030
126.5000,78.7220
125.9750,78.7220
125.8793,78.7030
125.7982,78.6488
125.7440,78.5677
125.7250,78.4720
Z" /> 
<path style="fill:#000000; fill-opacity:1.0000; stroke:none;fill-rule:evenodd;"
d="M 127.5500,77.5720
127.5690,77.4763
127.6232,77.3952
127.7043,77.3410
127.8000,77.3220
128.3250,77.3220
128.4207,77.3410
128.5018,77.3952
128.5560,77.4763
128.5750,77.5720
128.5750,78.4720
128.5560,78.5677
128.5018,78.6488
128.4207,78.7030
128.3250,78.7220
127.8000,78.7220
127.7043,78.7030
127.6232,78.6488
127.5690,78.5677
127.5500,78.4720
Z" /> 
<path style="fill:#000000; fill-opacity:1.0000; stroke:none;fill-rule:evenodd;"
d="M 201.2050,66.7600
201.1860,66.8557
201.1318,66.9368
201.0507,66.9910
200.9550,67.0100
200.4300,67.0100
200.3343,66.9910
200.2532,66.9368
200.1990,66.8557
200.1800,66.7600
200.1800,65.8600
200.1990,65.7643
200.2532,65.6832
200.3343,65.6290
200.4300,65.6100
200.9550,65.6100
201.0507,65.6290
201.1318,65.6832
201.1860,65.7643
201.2050,65.8600
Z" /> 
<path style="fill:#000000; fill-opacity:1.0000; stroke:none;fill-rule:evenodd;"
d="M 199.3800,66.7600
199.3610,66.8557
199.3068,66.9368
199.2257,66.9910
199.1300,67.0100
198.6050,67.0100
198.5093,66.9910
198.4282,66.9368
198.3740,66.8557
198.3550,66.7600
198.3550,65.8600
198.3740,65.7643
198.4282,65.6832
198.5093,65.6290
198.6050,65.6100
199.1300,65.6100
199.2257,65.6290
199.3068,65.6832
199.3610,65.7643
199.3800,65.8600
Z" /> 
<path style="fill:#000000; fill-opacity:1.0000; stroke:none;fill-rule:evenodd;"
d="M 201.2050,63.8900
201.1860,63.9857
201.1318,64.0668
201.0507,64.1210
200.9550,64.1400
200.4300,64.1400
200.3343,64.1210
200.2532,64.0668
200.1990,63.9857
200.1800,63.8900
200.1800,62.9900
200.1990,62.8943
200.2532,62.8132
200.3343,62.7590
200.4300,62.7400
200.9550,62.7400
201.0507,62.7590
201.1318,62.8132
201.1860,62.8943
201.2050,62.9900
Z" /> 
<path style="fill:#000000; fill-opacity:1.0000; stroke:none;fill-rule:evenodd;"
d="M 199.3800,63.8900
199.3610,63.9857
199.3068,64.0668
199.2257,64.1210
199.1300,64.1400
198.6050,64.1400
198.5093,64.1210
198.4282,64.0668
198.3740,63.9857
198.3550,63.8900
198.3550,62.9900
198.3740,62.8943
198.4282,62.8132
198.5093,62.7590
198.6050,62.7400
199.1300,62.7400
199.2257,62.7590
199.3068,62.8132
199.3610,62.8943
199.3800,62.9900
Z" /> 
<path style="fill:#000000; fill-opacity:1.0000; stroke:none;fill-rule:evenodd;"
d="M 167.8650,78.5200
167.8840,78.4243
167.9382,78.3432
168.0193,78.2890
168.1150,78.2700
168.6400,78.2700
168.7357,78.2890
168.8168,78.3432
168.8710,78.4243
168.8900,78.5200
168.8900,79.4200
168.8710,79.5157
168.8168,79.5968
168.7357,79.6510
168.6400,79.6700
168.1150,79.6700
168.0193,79.6510
167.9382,79.5968
167.8840,79.5157
167.8650,79.4200
Z" /> 
<path style="fill:#000000; fill-opacity:1.0000; stroke:none;fill-rule:evenodd;"
d="M 169.6900,78.5200
169.7090,78.4243
169.7632,78.3432
169.8443,78.2890
169.9400,78.2700
170.4650,78.2700
170.5607,78.2890
170.6418,78.3432
170.6960,78.4243
170.7150,78.5200
170.7150,79.4200
170.6960,79.5157
170.6418,79.5968
170.5607,79.6510
170.4650,79.6700
169.9400,79.6700
169.8443,79.6510
169.7632,79.5968
169.7090,79.5157
169.6900,79.4200
Z" /> 
<path style="fill:#000000; fill-opacity:1.0000; stroke:none;fill-rule:evenodd;"
d="M 143.4500,92.0700
143.4500,91.6700
144.2500,91.6700
144.2500,92.0700
Z" /> 
<path style="fill:#000000; fill-opacity:1.0000; stroke:none;fill-rule:evenodd;"
d="M 143.4500,91.2200
143.4500,90.8200
144.2500,90.8200
144.2500,91.2200
Z" /> 
<path style="fill:#000000; fill-opacity:1.0000; stroke:none;fill-rule:evenodd;"
d="M 143.4500,90.3700
143.4500,89.9700
144.2500,89.9700
144.2500,90.3700
Z" /> 
<path style="fill:#000000; fill-opacity:1.0000; stroke:none;fill-rule:evenodd;"
d="M 143.4500,89.5200
143.4500,89.1200
144.2500,89.1200
144.2500,89.5200
Z" /> 
<path style="fill:#000000; fill-opacity:1.0000; stroke:none;fill-rule:evenodd;"
d="M 143.4500,88.6700
143.4500,88.2700
144.2500,88.2700
144.2500,88.6700
Z" /> 
<path style="fill:#000000; fill-opacity:1.0000; stroke:none;fill-rule:evenodd;"
d="M 143.4500,87.8200
143.4500,87.4200
144.2500,87.4200
144.2500,87.8200
Z" /> 
<path style="fill:#000000; fill-opacity:1.0000; stroke:none;fill-rule:evenodd;"
d="M 143.4500,86.9700
143.4500,86.5700
144.2500,86.5700
144.2500,86.9700
Z" /> 
<path style="fill:#000000; fill-opacity:1.0000; stroke:none;fill-rule:evenodd;"
d="M 143.4500,86.1200
143.4500,85.7200
144.2500,85.7200
144.2500,86.1200
Z" /> 
<path style="fill:#000000; fill-opacity:1.0000; stroke:none;fill-rule:evenodd;"
d="M 143.4500,85.2700
143.4500,84.8700
144.2500,84.8700
144.2500,85.2700
Z" /> 
<path style="fill:#000000; fill-opacity:1.0000; stroke:none;fill-rule:evenodd;"
d="M 143.4500,84.4200
143.4500,84.0200
144.2500,84.0200
144.2500,84.4200
Z" /> 
<path style="fill:#000000; fill-opacity:1.0000; stroke:none;fill-rule:evenodd;"
d="M 143.4500,83.5700
143.4500,83.1700
144.2500,83.1700
144.2500,83.5700
Z" /> 
<path style="fill:#000000; fill-opacity:1.0000; stroke:none;fill-rule:evenodd;"
d="M 143.4500,82.7200
143.4500,82.3200
144.2500,82.3200
144.2500,82.7200
Z" /> 
<path style="fill:#000000; fill-opacity:1.0000; stroke:none;fill-rule:evenodd;"
d="M 143.4500,81.8700
143.4500,81.4700
144.2500,81.4700
144.2500,81.8700
Z" /> 
<path style="fill:#000000; fill-opacity:1.0000; stroke:none;fill-rule:evenodd;"
d="M 143.4500,81.0200
143.4500,80.6200
144.2500,80.6200
144.2500,81.0200
Z" /> 
<path style="fill:#000000; fill-opacity:1.0000; stroke:none;fill-rule:evenodd;"
d="M 143.4500,80.1700
143.4500,79.7700
144.2500,79.7700
144.2500,80.1700
Z" /> 
<path style="fill:#000000; fill-opacity:1.0000; stroke:none;fill-rule:evenodd;"
d="M 144.7000,78.5200
145.1000,78.5200
145.1000,79.3200
144.7000,79.3200
Z" /> 
<path style="fill:#000000; fill-opacity:1.0000; stroke:none;fill-rule:evenodd;"
d="M 145.5500,78.5200
145.9500,78.5200
145.9500,79.3200
145.5500,79.3200
Z" /> 
<path style="fill:#000000; fill-opacity:1.0000; stroke:none;fill-rule:evenodd;"
d="M 146.4000,78.5200
146.8000,78.5200
146.8000,79.3200
146.4000,79.3200
Z" /> 
<path style="fill:#000000; fill-opacity:1.0000; stroke:none;fill-rule:evenodd;"
d="M 147.2500,78.5200
147.6500,78.5200
147.6500,79.3200
147.2500,79.3200
Z" /> 
<path style="fill:#000000; fill-opacity:1.0000; stroke:none;fill-rule:evenodd;"
d="M 148.1000,78.5200
148.5000,78.5200
148.5000,79.3200
148.1000,79.3200
Z" /> 
<path style="fill:#000000; fill-opacity:1.0000; stroke:none;fill-rule:evenodd;"
d="M 148.9500,78.5200
149.3500,78.5200
149.3500,79.3200
148.9500,79.3200
Z" /> 
<path style="fill:#000000; fill-opacity:1.0000; stroke:none;fill-rule:evenodd;"
d="M 149.8000,78.5200
150.2000,78.5200
150.2000,79.3200
149.8000,79.3200
Z" /> 
<path style="fill:#000000; fill-opacity:1.0000; stroke:none;fill-rule:evenodd;"
d="M 150.6500,78.5200
151.0500,78.5200
151.0500,79.3200
150.6500,79.3200
Z" /> 
<path style="fill:#000000; fill-opacity:1.0000; stroke:none;fill-rule:evenodd;"
d="M 151.5000,78.5200
151.9000,78.5200
151.9000,79.3200
151.5000,79.3200
Z" /> 
<path style="fill:#000000; fill-opacity:1.0000; stroke:none;fill-rule:evenodd;"
d="M 152.3500,78.5200
152.7500,78.5200
152.7500,79.3200
152.3500,79.3200
Z" /> 
<path style="fill:#000000; fill-opacity:1.0000; stroke:none;fill-rule:evenodd;"
d="M 153.2000,78.5200
153.6000,78.5200
153.6000,79.3200
153.2000,79.3200
Z" /> 
<path style="fill:#000000; fill-opacity:1.0000; stroke:none;fill-rule:evenodd;"
d="M 154.0500,78.5200
154.4500,78.5200
154.4500,79.3200
154.0500,79.3200
Z" /> 
<path style="fill:#000000; fill-opacity:1.0000; stroke:none;fill-rule:evenodd;"
d="M 154.9000,78.5200
155.3000,78.5200
155.3000,79.3200
154.9000,79.3200
Z" /> 
<path style="fill:#000000; fill-opacity:1.0000; stroke:none;fill-rule:evenodd;"
d="M 155.7500,78.5200
156.1500,78.5200
156.1500,79.3200
155.7500,79.3200
Z" /> 
<path style="fill:#000000; fill-opacity:1.0000; stroke:none;fill-rule:evenodd;"
d="M 156.6000,78.5200
157.0000,78.5200
157.0000,79.3200
156.6000,79.3200
Z" /> 
<path style="fill:#000000; fill-opacity:1.0000; stroke:none;fill-rule:evenodd;"
d="M 157.4500,80.1700
157.4500,79.7700
158.2500,79.7700
158.2500,80.1700
Z" /> 
<path style="fill:#000000; fill-opacity:1.0000; stroke:none;fill-rule:evenodd;"
d="M 157.4500,81.0200
157.4500,80.6200
158.2500,80.6200
158.2500,81.0200
Z" /> 
<path style="fill:#000000; fill-opacity:1.0000; stroke:none;fill-rule:evenodd;"
d="M 157.4500,81.8700
157.4500,81.4700
158.2500,81.4700
158.2500,81.8700
Z" /> 
<path style="fill:#000000; fill-opacity:1.0000; stroke:none;fill-rule:evenodd;"
d="M 157.4500,82.7200
157.4500,82.3200
158.2500,82.3200
158.2500,82.7200
Z" /> 
<path style="fill:#000000; fill-opacity:1.0000; stroke:none;fill-rule:evenodd;"
d="M 157.4500,83.5700
157.4500,83.1700
158.2500,83.1700
158.2500,83.5700
Z" /> 
<path style="fill:#000000; fill-opacity:1.0000; stroke:none;fill-rule:evenodd;"
d="M 157.4500,84.4200
157.4500,84.0200
158.2500,84.0200
158.2500,84.4200
Z" /> 
<path style="fill:#000000; fill-opacity:1.0000; stroke:none;fill-rule:evenodd;"
d="M 157.4500,85.2700
157.4500,84.8700
158.2500,84.8700
158.2500,85.2700
Z" /> 
<path style="fill:#000000; fill-opacity:1.0000; stroke:none;fill-rule:evenodd;"
d="M 157.4500,86.1200
157.4500,85.7200
158.2500,85.7200
158.2500,86.1200
Z" /> 
<path style="fill:#000000; fill-opacity:1.0000; stroke:none;fill-rule:evenodd;"
d="M 157.4500,86.9700
157.4500,86.5700
158.2500,86.5700
158.2500,86.9700
Z" /> 
<path style="fill:#000000; fill-opacity:1.0000; stroke:none;fill-rule:evenodd;"
d="M 157.4500,87.8200
157.4500,87.4200
158.2500,87.4200
158.2500,87.8200
Z" /> 
<path style="fill:#000000; fill-opacity:1.0000; stroke:none;fill-rule:evenodd;"
d="M 157.4500,88.6700
157.4500,88.2700
158.2500,88.2700
158.2500,88.6700
Z" /> 
<path style="fill:#000000; fill-opacity:1.0000; stroke:none;fill-rule:evenodd;"
d="M 157.4500,89.5200
157.4500,89.1200
158.2500,89.1200
158.2500,89.5200
Z" /> 
<path style="fill:#000000; fill-opacity:1.0000; stroke:none;fill-rule:evenodd;"
d="M 157.4500,90.3700
157.4500,89.9700
158.2500,89.9700
158.2500,90.3700
Z" /> 
<path style="fill:#000000; fill-opacity:1.0000; stroke:none;fill-rule:evenodd;"
d="M 157.4500,91.2200
157.4500,90.8200
158.2500,90.8200
158.2500,91.2200
Z" /> 
<path style="fill:#000000; fill-opacity:1.0000; stroke:none;fill-rule:evenodd;"
d="M 157.4500,92.0700
157.4500,91.6700
158.2500,91.6700
158.2500,92.0700
Z" /> 
<path style="fill:#000000; fill-opacity:1.0000; stroke:none;fill-rule:evenodd;"
d="M 156.6000,92.5200
157.0000,92.5200
157.0000,93.3200
156.6000,93.3200
Z" /> 
<path style="fill:#000000; fill-opacity:1.0000; stroke:none;fill-rule:evenodd;"
d="M 155.7500,92.5200
156.1500,92.5200
156.1500,93.3200
155.7500,93.3200
Z" /> 
<path style="fill:#000000; fill-opacity:1.0000; stroke:none;fill-rule:evenodd;"
d="M 154.9000,92.5200
155.3000,92.5200
155.3000,93.3200
154.9000,93.3200
Z" /> 
<path style="fill:#000000; fill-opacity:1.0000; stroke:none;fill-rule:evenodd;"
d="M 154.0500,92.5200
154.4500,92.5200
154.4500,93.3200
154.0500,93.3200
Z" /> 
<path style="fill:#000000; fill-opacity:1.0000; stroke:none;fill-rule:evenodd;"
d="M 153.2000,92.5200
153.6000,92.5200
153.6000,93.3200
153.2000,93.3200
Z" /> 
<path style="fill:#000000; fill-opacity:1.0000; stroke:none;fill-rule:evenodd;"
d="M 152.3500,92.5200
152.7500,92.5200
152.7500,93.3200
152.3500,93.3200
Z" /> 
<path style="fill:#000000; fill-opacity:1.0000; stroke:none;fill-rule:evenodd;"
d="M 151.5000,92.5200
151.9000,92.5200
151.9000,93.3200
151.5000,93.3200
Z" /> 
<path style="fill:#000000; fill-opacity:1.0000; stroke:none;fill-rule:evenodd;"
d="M 150.6500,92.5200
151.0500,92.5200
151.0500,93.3200
150.6500,93.3200
Z" /> 
<path style="fill:#000000; fill-opacity:1.0000; stroke:none;fill-rule:evenodd;"
d="M 149.8000,92.5200
150.2000,92.5200
150.2000,93.3200
149.8000,93.3200
Z" /> 
<path style="fill:#000000; fill-opacity:1.0000; stroke:none;fill-rule:evenodd;"
d="M 148.9500,92.5200
149.3500,92.5200
149.3500,93.3200
148.9500,93.3200
Z" /> 
<path style="fill:#000000; fill-opacity:1.0000; stroke:none;fill-rule:evenodd;"
d="M 148.1000,92.5200
148.5000,92.5200
148.5000,93.3200
148.1000,93.3200
Z" /> 
<path style="fill:#000000; fill-opacity:1.0000; stroke:none;fill-rule:evenodd;"
d="M 147.2500,92.5200
147.6500,92.5200
147.6500,93.3200
147.2500,93.3200
Z" /> 
<path style="fill:#000000; fill-opacity:1.0000; stroke:none;fill-rule:evenodd;"
d="M 146.4000,92.5200
146.8000,92.5200
146.8000,93.3200
146.4000,93.3200
Z" /> 
<path style="fill:#000000; fill-opacity:1.0000; stroke:none;fill-rule:evenodd;"
d="M 145.5500,92.5200
145.9500,92.5200
145.9500,93.3200
145.5500,93.3200
Z" /> 
<path style="fill:#000000; fill-opacity:1.0000; stroke:none;fill-rule:evenodd;"
d="M 144.7000,92.5200
145.1000,92.5200
145.1000,93.3200
144.7000,93.3200
Z" /> 
<path style="fill:#000000; fill-opacity:1.0000; stroke:none;fill-rule:evenodd;"
d="M 148.6000,84.8700
148.6000,83.6700
149.8000,83.6700
149.8000,84.8700
Z" /> 
<path style="fill:#000000; fill-opacity:1.0000; stroke:none;fill-rule:evenodd;"
d="M 148.6000,86.5200
148.6000,85.3200
149.8000,85.3200
149.8000,86.5200
Z" /> 
<path style="fill:#000000; fill-opacity:1.0000; stroke:none;fill-rule:evenodd;"
d="M 148.6000,86.9700
149.8000,86.9700
149.8000,88.1700
148.9960,88.1700
148.6000,87.7740
Z" /> 
<path style="fill:#000000; fill-opacity:1.0000; stroke:none;fill-rule:evenodd;"
d="M 150.2500,84.8700
150.2500,83.6700
151.4500,83.6700
151.4500,84.8700
Z" /> 
<path style="fill:#000000; fill-opacity:1.0000; stroke:none;fill-rule:evenodd;"
d="M 150.2500,86.5200
150.2500,85.3200
151.4500,85.3200
151.4500,86.5200
Z" /> 
<path style="fill:#000000; fill-opacity:1.0000; stroke:none;fill-rule:evenodd;"
d="M 150.2500,88.1700
150.2500,86.9700
151.4500,86.9700
151.4500,88.1700
Z" /> 
<path style="fill:#000000; fill-opacity:1.0000; stroke:none;fill-rule:evenodd;"
d="M 151.9000,84.8700
151.9000,83.6700
153.1000,83.6700
153.1000,84.8700
Z" /> 
<path style="fill:#000000; fill-opacity:1.0000; stroke:none;fill-rule:evenodd;"
d="M 151.9000,86.5200
151.9000,85.3200
153.1000,85.3200
153.1000,86.5200
Z" /> 
<path style="fill:#000000; fill-opacity:1.0000; stroke:none;fill-rule:evenodd;"
d="M 151.9000,88.1700
151.9000,86.9700
153.1000,86.9700
153.1000,88.1700
Z" /> 
<path style="fill:#000000; fill-opacity:1.0000; stroke:none;fill-rule:evenodd;"
d="M 143.4500,93.3200
143.4500,92.5200
144.2500,92.5200
144.2500,93.3200
Z" /> 
<path style="fill:#000000; fill-opacity:1.0000; stroke:none;fill-rule:evenodd;"
d="M 143.4500,79.3200
143.4500,78.5200
144.2500,78.5200
144.2500,79.3200
Z" /> 
<path style="fill:#000000; fill-opacity:1.0000; stroke:none;fill-rule:evenodd;"
d="M 157.4500,79.3200
157.4500,78.5200
158.2500,78.5200
158.2500,79.3200
Z" /> 
<path style="fill:#000000; fill-opacity:1.0000; stroke:none;fill-rule:evenodd;"
d="M 157.4500,93.3200
157.4500,92.5200
158.2500,92.5200
158.2500,93.3200
Z" /> 
<path style="fill:#000000; fill-opacity:1.0000; stroke:none;fill-rule:evenodd;"
d="M 148.1000,68.9750
148.1957,68.9940
148.2768,69.0482
148.3310,69.1293
148.3500,69.2250
148.3500,69.7500
148.3310,69.8457
148.2768,69.9268
148.1957,69.9810
148.1000,70.0000
147.2000,70.0000
147.1043,69.9810
147.0232,69.9268
146.9690,69.8457
146.9500,69.7500
146.9500,69.2250
146.9690,69.1293
147.0232,69.0482
147.1043,68.9940
147.2000,68.9750
Z" /> 
<path style="fill:#000000; fill-opacity:1.0000; stroke:none;fill-rule:evenodd;"
d="M 148.1000,70.8000
148.1957,70.8190
148.2768,70.8732
148.3310,70.9543
148.3500,71.0500
148.3500,71.5750
148.3310,71.6707
148.2768,71.7518
148.1957,71.8060
148.1000,71.8250
147.2000,71.8250
147.1043,71.8060
147.0232,71.7518
146.9690,71.6707
146.9500,71.5750
146.9500,71.0500
146.9690,70.9543
147.0232,70.8732
147.1043,70.8190
147.2000,70.8000
Z" /> 
<path style="fill:#000000; fill-opacity:1.0000; stroke:none;fill-rule:evenodd;"
d="M 125.7250,81.9040
125.7440,81.8083
125.7982,81.7272
125.8793,81.6730
125.9750,81.6540
126.5000,81.6540
126.5957,81.6730
126.6768,81.7272
126.7310,81.8083
126.7500,81.9040
126.7500,82.8040
126.7310,82.8997
126.6768,82.9808
126.5957,83.0350
126.5000,83.0540
125.9750,83.0540
125.8793,83.0350
125.7982,82.9808
125.7440,82.8997
125.7250,82.8040
Z" /> 
<path style="fill:#000000; fill-opacity:1.0000; stroke:none;fill-rule:evenodd;"
d="M 127.5500,81.9040
127.5690,81.8083
127.6232,81.7272
127.7043,81.6730
127.8000,81.6540
128.3250,81.6540
128.4207,81.6730
128.5018,81.7272
128.5560,81.8083
128.5750,81.9040
128.5750,82.8040
128.5560,82.8997
128.5018,82.9808
128.4207,83.0350
128.3250,83.0540
127.8000,83.0540
127.7043,83.0350
127.6232,82.9808
127.5690,82.8997
127.5500,82.8040
Z" /> 
<path style="fill:#000000; fill-opacity:1.0000; stroke:none;fill-rule:evenodd;"
d="M 126.1950,49.9900
126.1760,50.0857
126.1218,50.1668
126.0407,50.2210
125.9450,50.2400
125.4200,50.2400
125.3243,50.2210
125.2432,50.1668
125.1890,50.0857
125.1700,49.9900
125.1700,49.0900
125.1890,48.9943
125.2432,48.9132
125.3243,48.8590
125.4200,48.8400
125.9450,48.8400
126.0407,48.8590
126.1218,48.9132
126.1760,48.9943
126.1950,49.0900
Z" /> 
<path style="fill:#000000; fill-opacity:1.0000; stroke:none;fill-rule:evenodd;"
d="M 124.3700,49.9900
124.3510,50.0857
124.2968,50.1668
124.2157,50.2210
124.1200,50.2400
123.5950,50.2400
123.4993,50.2210
123.4182,50.1668
123.3640,50.0857
123.3450,49.9900
123.3450,49.0900
123.3640,48.9943
123.4182,48.9132
123.4993,48.8590
123.5950,48.8400
124.1200,48.8400
124.2157,48.8590
124.2968,48.9132
124.3510,48.9943
124.3700,49.0900
Z" /> 
<path style="fill:#000000; fill-opacity:1.0000; stroke:none;fill-rule:evenodd;"
d="M 139.0200,78.6950
138.9243,78.6760
138.8432,78.6218
138.7890,78.5407
138.7700,78.4450
138.7700,77.9200
138.7890,77.8243
138.8432,77.7432
138.9243,77.6890
139.0200,77.6700
139.9200,77.6700
140.0157,77.6890
140.0968,77.7432
140.1510,77.8243
140.1700,77.9200
140.1700,78.4450
140.1510,78.5407
140.0968,78.6218
140.0157,78.6760
139.9200,78.6950
Z" /> 
<path style="fill:#000000; fill-opacity:1.0000; stroke:none;fill-rule:evenodd;"
d="M 139.0200,76.8700
138.9243,76.8510
138.8432,76.7968
138.7890,76.7157
138.7700,76.6200
138.7700,76.0950
138.7890,75.9993
138.8432,75.9182
138.9243,75.8640
139.0200,75.8450
139.9200,75.8450
140.0157,75.8640
140.0968,75.9182
140.1510,75.9993
140.1700,76.0950
140.1700,76.6200
140.1510,76.7157
140.0968,76.7968
140.0157,76.8510
139.9200,76.8700
Z" /> 
<path style="fill:#000000; fill-opacity:1.0000; stroke:none;fill-rule:evenodd;"
d="M 172.4550,77.6550
173.8550,77.6550
173.8550,80.0550
172.4550,80.0550
Z" /> 
<path style="fill:#000000; fill-opacity:1.0000; stroke:none;fill-rule:evenodd;"
d="M 177.0250,77.6550
178.4250,77.6550
178.4250,80.0550
177.0250,80.0550
Z" /> 
<path style="fill:#000000; fill-opacity:1.0000; stroke:none;fill-rule:evenodd;"
d="M 186.9400,90.9000
187.0357,90.9190
187.1168,90.9732
187.1710,91.0543
187.1900,91.1500
187.1900,93.1500
187.1710,93.2457
187.1168,93.3268
187.0357,93.3810
186.9400,93.4000
185.1400,93.4000
185.0443,93.3810
184.9632,93.3268
184.9090,93.2457
184.8900,93.1500
184.8900,91.1500
184.9090,91.0543
184.9632,90.9732
185.0443,90.9190
185.1400,90.9000
Z" /> 
<path style="fill:#000000; fill-opacity:1.0000; stroke:none;fill-rule:evenodd;"
d="M 186.9400,95.2000
187.0357,95.2190
187.1168,95.2732
187.1710,95.3543
187.1900,95.4500
187.1900,97.4500
187.1710,97.5457
187.1168,97.6268
187.0357,97.6810
186.9400,97.7000
185.1400,97.7000
185.0443,97.6810
184.9632,97.6268
184.9090,97.5457
184.8900,97.4500
184.8900,95.4500
184.9090,95.3543
184.9632,95.2732
185.0443,95.2190
185.1400,95.2000
Z" /> 
<path style="fill:#000000; fill-opacity:1.0000; stroke:none;fill-rule:evenodd;"
d="M 164.4850,74.5000
164.5040,74.4043
164.5582,74.3232
164.6393,74.2690
164.7350,74.2500
165.2600,74.2500
165.3557,74.2690
165.4368,74.3232
165.4910,74.4043
165.5100,74.5000
165.5100,75.4000
165.4910,75.4957
165.4368,75.5768
165.3557,75.6310
165.2600,75.6500
164.7350,75.6500
164.6393,75.6310
164.5582,75.5768
164.5040,75.4957
164.4850,75.4000
Z" /> 
<path style="fill:#000000; fill-opacity:1.0000; stroke:none;fill-rule:evenodd;"
d="M 166.3100,74.5000
166.3290,74.4043
166.3832,74.3232
166.4643,74.2690
166.5600,74.2500
167.0850,74.2500
167.1807,74.2690
167.2618,74.3232
167.3160,74.4043
167.3350,74.5000
167.3350,75.4000
167.3160,75.4957
167.2618,75.5768
167.1807,75.6310
167.0850,75.6500
166.5600,75.6500
166.4643,75.6310
166.3832,75.5768
166.3290,75.4957
166.3100,75.4000
Z" /> 
<path style="fill:#000000; fill-opacity:1.0000; stroke:none;fill-rule:evenodd;"
d="M 137.5650,91.4850
137.5840,91.3893
137.6382,91.3082
137.7193,91.2540
137.8150,91.2350
138.4900,91.2350
138.5857,91.2540
138.6668,91.3082
138.7210,91.3893
138.7400,91.4850
138.7400,92.4350
138.7210,92.5307
138.6668,92.6118
138.5857,92.6660
138.4900,92.6850
137.8150,92.6850
137.7193,92.6660
137.6382,92.6118
137.5840,92.5307
137.5650,92.4350
Z" /> 
<path style="fill:#000000; fill-opacity:1.0000; stroke:none;fill-rule:evenodd;"
d="M 139.6400,91.4850
139.6590,91.3893
139.7132,91.3082
139.7943,91.2540
139.8900,91.2350
140.5650,91.2350
140.6607,91.2540
140.7418,91.3082
140.7960,91.3893
140.8150,91.4850
140.8150,92.4350
140.7960,92.5307
140.7418,92.6118
140.6607,92.6660
140.5650,92.6850
139.8900,92.6850
139.7943,92.6660
139.7132,92.6118
139.6590,92.5307
139.6400,92.4350
Z" /> 
<path style="fill:#000000; fill-opacity:1.0000; stroke:none;fill-rule:evenodd;"
d="M 126.4425,65.1850
126.4235,65.2807
126.3693,65.3618
126.2882,65.4160
126.1925,65.4350
125.5175,65.4350
125.4218,65.4160
125.3407,65.3618
125.2865,65.2807
125.2675,65.1850
125.2675,64.2350
125.2865,64.1393
125.3407,64.0582
125.4218,64.0040
125.5175,63.9850
126.1925,63.9850
126.2882,64.0040
126.3693,64.0582
126.4235,64.1393
126.4425,64.2350
Z" /> 
<path style="fill:#000000; fill-opacity:1.0000; stroke:none;fill-rule:evenodd;"
d="M 124.3675,65.1850
124.3485,65.2807
124.2943,65.3618
124.2132,65.4160
124.1175,65.4350
123.4425,65.4350
123.3468,65.4160
123.2657,65.3618
123.2115,65.2807
123.1925,65.1850
123.1925,64.2350
123.2115,64.1393
123.2657,64.0582
123.3468,64.0040
123.4425,63.9850
124.1175,63.9850
124.2132,64.0040
124.2943,64.0582
124.3485,64.1393
124.3675,64.2350
Z" /> 
<path style="fill:#000000; fill-opacity:1.0000; stroke:none;fill-rule:evenodd;"
d="M 166.1850,85.4967
166.1660,85.5923
166.1118,85.6734
166.0307,85.7276
165.9350,85.7467
165.4100,85.7467
165.3143,85.7276
165.2332,85.6734
165.1790,85.5923
165.1600,85.4967
165.1600,84.5967
165.1790,84.5010
165.2332,84.4199
165.3143,84.3657
165.4100,84.3467
165.9350,84.3467
166.0307,84.3657
166.1118,84.4199
166.1660,84.5010
166.1850,84.5967
Z" /> 
<path style="fill:#000000; fill-opacity:1.0000; stroke:none;fill-rule:evenodd;"
d="M 164.3600,85.4967
164.3410,85.5923
164.2868,85.6734
164.2057,85.7276
164.1100,85.7467
163.5850,85.7467
163.4893,85.7276
163.4082,85.6734
163.3540,85.5923
163.3350,85.4967
163.3350,84.5967
163.3540,84.5010
163.4082,84.4199
163.4893,84.3657
163.5850,84.3467
164.1100,84.3467
164.2057,84.3657
164.2868,84.4199
164.3410,84.5010
164.3600,84.5967
Z" /> 
<path style="fill:#000000; fill-opacity:1.0000; stroke:none;fill-rule:evenodd;"
d="M 173.7250,42.2100
173.7440,42.1143
173.7982,42.0332
173.8793,41.9790
173.9750,41.9600
174.5000,41.9600
174.5957,41.9790
174.6768,42.0332
174.7310,42.1143
174.7500,42.2100
174.7500,43.1100
174.7310,43.2057
174.6768,43.2868
174.5957,43.3410
174.5000,43.3600
173.9750,43.3600
173.8793,43.3410
173.7982,43.2868
173.7440,43.2057
173.7250,43.1100
Z" /> 
<path style="fill:#000000; fill-opacity:1.0000; stroke:none;fill-rule:evenodd;"
d="M 175.5500,42.2100
175.5690,42.1143
175.6232,42.0332
175.7043,41.9790
175.8000,41.9600
176.3250,41.9600
176.4207,41.9790
176.5018,42.0332
176.5560,42.1143
176.5750,42.2100
176.5750,43.1100
176.5560,43.2057
176.5018,43.2868
176.4207,43.3410
176.3250,43.3600
175.8000,43.3600
175.7043,43.3410
175.6232,43.2868
175.5690,43.2057
175.5500,43.1100
Z" /> 
<path style="fill:#000000; fill-opacity:1.0000; stroke:none;fill-rule:evenodd;"
d="M 187.2850,89.5000
187.2660,89.5957
187.2118,89.6768
187.1307,89.7310
187.0350,89.7500
186.5100,89.7500
186.4143,89.7310
186.3332,89.6768
186.2790,89.5957
186.2600,89.5000
186.2600,88.6000
186.2790,88.5043
186.3332,88.4232
186.4143,88.3690
186.5100,88.3500
187.0350,88.3500
187.1307,88.3690
187.2118,88.4232
187.2660,88.5043
187.2850,88.6000
Z" /> 
<path style="fill:#000000; fill-opacity:1.0000; stroke:none;fill-rule:evenodd;"
d="M 185.4600,89.5000
185.4410,89.5957
185.3868,89.6768
185.3057,89.7310
185.2100,89.7500
184.6850,89.7500
184.5893,89.7310
184.5082,89.6768
184.4540,89.5957
184.4350,89.5000
184.4350,88.6000
184.4540,88.5043
184.5082,88.4232
184.5893,88.3690
184.6850,88.3500
185.2100,88.3500
185.3057,88.3690
185.3868,88.4232
185.4410,88.5043
185.4600,88.6000
Z" /> 
<path style="fill:#000000; fill-opacity:1.0000; stroke:none;fill-rule:evenodd;"
d="M 163.3100,88.6750
163.3290,88.5793
163.3832,88.4982
163.4643,88.4440
163.5600,88.4250
164.0600,88.4250
164.1557,88.4440
164.2368,88.4982
164.2910,88.5793
164.3100,88.6750
164.3100,89.6250
164.2910,89.7207
164.2368,89.8018
164.1557,89.8560
164.0600,89.8750
163.5600,89.8750
163.4643,89.8560
163.3832,89.8018
163.3290,89.7207
163.3100,89.6250
Z" /> 
<path style="fill:#000000; fill-opacity:1.0000; stroke:none;fill-rule:evenodd;"
d="M 165.2100,88.6750
165.2290,88.5793
165.2832,88.4982
165.3643,88.4440
165.4600,88.4250
165.9600,88.4250
166.0557,88.4440
166.1368,88.4982
166.1910,88.5793
166.2100,88.6750
166.2100,89.6250
166.1910,89.7207
166.1368,89.8018
166.0557,89.8560
165.9600,89.8750
165.4600,89.8750
165.3643,89.8560
165.2832,89.8018
165.2290,89.7207
165.2100,89.6250
Z" /> 
<path style="fill:#000000; fill-opacity:1.0000; stroke:none;fill-rule:evenodd;"
d="M 167.5750,81.9650
167.5940,81.8693
167.6482,81.7882
167.7293,81.7340
167.8250,81.7150
168.5000,81.7150
168.5957,81.7340
168.6768,81.7882
168.7310,81.8693
168.7500,81.9650
168.7500,82.9150
168.7310,83.0107
168.6768,83.0918
168.5957,83.1460
168.5000,83.1650
167.8250,83.1650
167.7293,83.1460
167.6482,83.0918
167.5940,83.0107
167.5750,82.9150
Z" /> 
<path style="fill:#000000; fill-opacity:1.0000; stroke:none;fill-rule:evenodd;"
d="M 169.6500,81.9650
169.6690,81.8693
169.7232,81.7882
169.8043,81.7340
169.9000,81.7150
170.5750,81.7150
170.6707,81.7340
170.7518,81.7882
170.8060,81.8693
170.8250,81.9650
170.8250,82.9150
170.8060,83.0107
170.7518,83.0918
170.6707,83.1460
170.5750,83.1650
169.9000,83.1650
169.8043,83.1460
169.7232,83.0918
169.6690,83.0107
169.6500,82.9150
Z" /> 
<path style="fill:#000000; fill-opacity:1.0000; stroke:none;fill-rule:evenodd;"
d="M 126.2350,52.7600
126.2160,52.8557
126.1618,52.9368
126.0807,52.9910
125.9850,53.0100
125.4600,53.0100
125.3643,52.9910
125.2832,52.9368
125.2290,52.8557
125.2100,52.7600
125.2100,51.8600
125.2290,51.7643
125.2832,51.6832
125.3643,51.6290
125.4600,51.6100
125.9850,51.6100
126.0807,51.6290
126.1618,51.6832
126.2160,51.7643
126.2350,51.8600
Z" /> 
<path style="fill:#000000; fill-opacity:1.0000; stroke:none;fill-rule:evenodd;"
d="M 124.4100,52.7600
124.3910,52.8557
124.3368,52.9368
124.2557,52.9910
124.1600,53.0100
123.6350,53.0100
123.5393,52.9910
123.4582,52.9368
123.4040,52.8557
123.3850,52.7600
123.3850,51.8600
123.4040,51.7643
123.4582,51.6832
123.5393,51.6290
123.6350,51.6100
124.1600,51.6100
124.2557,51.6290
124.3368,51.6832
124.3910,51.7643
124.4100,51.8600
Z" /> 
<path style="fill:#000000; fill-opacity:1.0000; stroke:none;fill-rule:evenodd;"
d="M 188.4650,79.0800
188.4460,79.1757
188.3918,79.2568
188.3107,79.3110
188.2150,79.3300
187.6900,79.3300
187.5943,79.3110
187.5132,79.2568
187.4590,79.1757
187.4400,79.0800
187.4400,78.1800
187.4590,78.0843
187.5132,78.0032
187.5943,77.9490
187.6900,77.9300
188.2150,77.9300
188.3107,77.9490
188.3918,78.0032
188.4460,78.0843
188.4650,78.1800
Z" /> 
<path style="fill:#000000; fill-opacity:1.0000; stroke:none;fill-rule:evenodd;"
d="M 186.6400,79.0800
186.6210,79.1757
186.5668,79.2568
186.4857,79.3110
186.3900,79.3300
185.8650,79.3300
185.7693,79.3110
185.6882,79.2568
185.6340,79.1757
185.6150,79.0800
185.6150,78.1800
185.6340,78.0843
185.6882,78.0032
185.7693,77.9490
185.8650,77.9300
186.3900,77.9300
186.4857,77.9490
186.5668,78.0032
186.6210,78.0843
186.6400,78.1800
Z" /> 
<path style="fill:#000000; fill-opacity:1.0000; stroke:none;fill-rule:evenodd;"
d="M 150.2750,67.5300
150.2560,67.6257
150.2018,67.7068
150.1207,67.7610
150.0250,67.7800
149.5000,67.7800
149.4043,67.7610
149.3232,67.7068
149.2690,67.6257
149.2500,67.5300
149.2500,66.6300
149.2690,66.5343
149.3232,66.4532
149.4043,66.3990
149.5000,66.3800
150.0250,66.3800
150.1207,66.3990
150.2018,66.4532
150.2560,66.5343
150.2750,66.6300
Z" /> 
<path style="fill:#000000; fill-opacity:1.0000; stroke:none;fill-rule:evenodd;"
d="M 148.4500,67.5300
148.4310,67.6257
148.3768,67.7068
148.2957,67.7610
148.2000,67.7800
147.6750,67.7800
147.5793,67.7610
147.4982,67.7068
147.4440,67.6257
147.4250,67.5300
147.4250,66.6300
147.4440,66.5343
147.4982,66.4532
147.5793,66.3990
147.6750,66.3800
148.2000,66.3800
148.2957,66.3990
148.3768,66.4532
148.4310,66.5343
148.4500,66.6300
Z" /> 
<path style="fill:#000000; fill-opacity:1.0000; stroke:none;fill-rule:evenodd;"
d="M 144.7550,37.9000
144.7740,37.8043
144.8282,37.7232
144.9093,37.6690
145.0050,37.6500
145.5300,37.6500
145.6257,37.6690
145.7068,37.7232
145.7610,37.8043
145.7800,37.9000
145.7800,38.8000
145.7610,38.8957
145.7068,38.9768
145.6257,39.0310
145.5300,39.0500
145.0050,39.0500
144.9093,39.0310
144.8282,38.9768
144.7740,38.8957
144.7550,38.8000
Z" /> 
<path style="fill:#000000; fill-opacity:1.0000; stroke:none;fill-rule:evenodd;"
d="M 146.5800,37.9000
146.5990,37.8043
146.6532,37.7232
146.7343,37.6690
146.8300,37.6500
147.3550,37.6500
147.4507,37.6690
147.5318,37.7232
147.5860,37.8043
147.6050,37.9000
147.6050,38.8000
147.5860,38.8957
147.5318,38.9768
147.4507,39.0310
147.3550,39.0500
146.8300,39.0500
146.7343,39.0310
146.6532,38.9768
146.5990,38.8957
146.5800,38.8000
Z" /> 
<path style="fill:#000000; fill-opacity:1.0000; stroke:none;fill-rule:evenodd;"
d="M 135.6250,53.7100
135.6060,53.8057
135.5518,53.8868
135.4707,53.9410
135.3750,53.9600
134.8500,53.9600
134.7543,53.9410
134.6732,53.8868
134.6190,53.8057
134.6000,53.7100
134.6000,52.8100
134.6190,52.7143
134.6732,52.6332
134.7543,52.5790
134.8500,52.5600
135.3750,52.5600
135.4707,52.5790
135.5518,52.6332
135.6060,52.7143
135.6250,52.8100
Z" /> 
<path style="fill:#000000; fill-opacity:1.0000; stroke:none;fill-rule:evenodd;"
d="M 133.8000,53.7100
133.7810,53.8057
133.7268,53.8868
133.6457,53.9410
133.5500,53.9600
133.0250,53.9600
132.9293,53.9410
132.8482,53.8868
132.7940,53.8057
132.7750,53.7100
132.7750,52.8100
132.7940,52.7143
132.8482,52.6332
132.9293,52.5790
133.0250,52.5600
133.5500,52.5600
133.6457,52.5790
133.7268,52.6332
133.7810,52.7143
133.8000,52.8100
Z" /> 
<path style="fill:#000000; fill-opacity:1.0000; stroke:none;fill-rule:evenodd;"
d="M 152.4500,71.8550
152.3543,71.8360
152.2732,71.7818
152.2190,71.7007
152.2000,71.6050
152.2000,71.0800
152.2190,70.9843
152.2732,70.9032
152.3543,70.8490
152.4500,70.8300
153.3500,70.8300
153.4457,70.8490
153.5268,70.9032
153.5810,70.9843
153.6000,71.0800
153.6000,71.6050
153.5810,71.7007
153.5268,71.7818
153.4457,71.8360
153.3500,71.8550
Z" /> 
<path style="fill:#000000; fill-opacity:1.0000; stroke:none;fill-rule:evenodd;"
d="M 152.4500,70.0300
152.3543,70.0110
152.2732,69.9568
152.2190,69.8757
152.2000,69.7800
152.2000,69.2550
152.2190,69.1593
152.2732,69.0782
152.3543,69.0240
152.4500,69.0050
153.3500,69.0050
153.4457,69.0240
153.5268,69.0782
153.5810,69.1593
153.6000,69.2550
153.6000,69.7800
153.5810,69.8757
153.5268,69.9568
153.4457,70.0110
153.3500,70.0300
Z" /> 
<path style="fill:#000000; fill-opacity:1.0000; stroke:none;fill-rule:evenodd;"
d="M 181.3100,81.7350
181.4057,81.7540
181.4868,81.8082
181.5410,81.8893
181.5600,81.9850
181.5600,82.5100
181.5410,82.6057
181.4868,82.6868
181.4057,82.7410
181.3100,82.7600
180.4100,82.7600
180.3143,82.7410
180.2332,82.6868
180.1790,82.6057
180.1600,82.5100
180.1600,81.9850
180.1790,81.8893
180.2332,81.8082
180.3143,81.7540
180.4100,81.7350
Z" /> 
<path style="fill:#000000; fill-opacity:1.0000; stroke:none;fill-rule:evenodd;"
d="M 181.3100,83.5600
181.4057,83.5790
181.4868,83.6332
181.5410,83.7143
181.5600,83.8100
181.5600,84.3350
181.5410,84.4307
181.4868,84.5118
181.4057,84.5660
181.3100,84.5850
180.4100,84.5850
180.3143,84.5660
180.2332,84.5118
180.1790,84.4307
180.1600,84.3350
180.1600,83.8100
180.1790,83.7143
180.2332,83.6332
180.3143,83.5790
180.4100,83.5600
Z" /> 
<path style="fill:#000000; fill-opacity:1.0000; stroke:none;fill-rule:evenodd;"
d="M 198.2800,89.1350
198.1843,89.1160
198.1032,89.0618
198.0490,88.9807
198.0300,88.8850
198.0300,88.3600
198.0490,88.2643
198.1032,88.1832
198.1843,88.1290
198.2800,88.1100
199.1800,88.1100
199.2757,88.1290
199.3568,88.1832
199.4110,88.2643
199.4300,88.3600
199.4300,88.8850
199.4110,88.9807
199.3568,89.0618
199.2757,89.1160
199.1800,89.1350
Z" /> 
<path style="fill:#000000; fill-opacity:1.0000; stroke:none;fill-rule:evenodd;"
d="M 198.2800,87.3100
198.1843,87.2910
198.1032,87.2368
198.0490,87.1557
198.0300,87.0600
198.0300,86.5350
198.0490,86.4393
198.1032,86.3582
198.1843,86.3040
198.2800,86.2850
199.1800,86.2850
199.2757,86.3040
199.3568,86.3582
199.4110,86.4393
199.4300,86.5350
199.4300,87.0600
199.4110,87.1557
199.3568,87.2368
199.2757,87.2910
199.1800,87.3100
Z" /> 
<path style="fill:#000000; fill-opacity:1.0000; stroke:none;fill-rule:evenodd;"
d="M 153.3050,38.1500
153.2860,38.2457
153.2318,38.3268
153.1507,38.3810
153.0550,38.4000
152.5300,38.4000
152.4343,38.3810
152.3532,38.3268
152.2990,38.2457
152.2800,38.1500
152.2800,37.2500
152.2990,37.1543
152.3532,37.0732
152.4343,37.0190
152.5300,37.0000
153.0550,37.0000
153.1507,37.0190
153.2318,37.0732
153.2860,37.1543
153.3050,37.2500
Z" /> 
<path style="fill:#000000; fill-opacity:1.0000; stroke:none;fill-rule:evenodd;"
d="M 151.4800,38.1500
151.4610,38.2457
151.4068,38.3268
151.3257,38.3810
151.2300,38.4000
150.7050,38.4000
150.6093,38.3810
150.5282,38.3268
150.4740,38.2457
150.4550,38.1500
150.4550,37.2500
150.4740,37.1543
150.5282,37.0732
150.6093,37.0190
150.7050,37.0000
151.2300,37.0000
151.3257,37.0190
151.4068,37.0732
151.4610,37.1543
151.4800,37.2500
Z" /> 
<path style="fill:#000000; fill-opacity:1.0000; stroke:none;fill-rule:evenodd;"
d="M 138.4350,89.6750
138.3393,89.6560
138.2582,89.6018
138.2040,89.5207
138.1850,89.4250
138.1850,88.7500
138.2040,88.6543
138.2582,88.5732
138.3393,88.5190
138.4350,88.5000
139.3850,88.5000
139.4807,88.5190
139.5618,88.5732
139.6160,88.6543
139.6350,88.7500
139.6350,89.4250
139.6160,89.5207
139.5618,89.6018
139.4807,89.6560
139.3850,89.6750
Z" /> 
<path style="fill:#000000; fill-opacity:1.0000; stroke:none;fill-rule:evenodd;"
d="M 138.4350,87.6000
138.3393,87.5810
138.2582,87.5268
138.2040,87.4457
138.1850,87.3500
138.1850,86.6750
138.2040,86.5793
138.2582,86.4982
138.3393,86.4440
138.4350,86.4250
139.3850,86.4250
139.4807,86.4440
139.5618,86.4982
139.6160,86.5793
139.6350,86.6750
139.6350,87.3500
139.6160,87.4457
139.5618,87.5268
139.4807,87.5810
139.3850,87.6000
Z" /> 
<path style="fill:#000000; fill-opacity:1.0000; stroke:none;fill-rule:evenodd;"
d="M 119.9700,56.2800
118.3700,56.2800
118.3700,55.5800
119.9700,55.5800
Z" /> 
<path style="fill:#000000; fill-opacity:1.0000; stroke:none;fill-rule:evenodd;"
d="M 119.9700,57.3800
118.3700,57.3800
118.3700,56.6800
119.9700,56.6800
Z" /> 
<path style="fill:#000000; fill-opacity:1.0000; stroke:none;fill-rule:evenodd;"
d="M 119.9700,58.4800
118.3700,58.4800
118.3700,57.7800
119.9700,57.7800
Z" /> 
<path style="fill:#000000; fill-opacity:1.0000; stroke:none;fill-rule:evenodd;"
d="M 119.9700,59.5800
118.3700,59.5800
118.3700,58.8800
119.9700,58.8800
Z" /> 
<path style="fill:#000000; fill-opacity:1.0000; stroke:none;fill-rule:evenodd;"
d="M 119.9700,60.6800
118.3700,60.6800
118.3700,59.9800
119.9700,59.9800
Z" /> 
<path style="fill:#000000; fill-opacity:1.0000; stroke:none;fill-rule:evenodd;"
d="M 119.9700,61.7800
118.3700,61.7800
118.3700,61.0800
119.9700,61.0800
Z" /> 
<path style="fill:#000000; fill-opacity:1.0000; stroke:none;fill-rule:evenodd;"
d="M 119.9700,62.8800
118.3700,62.8800
118.3700,62.1800
119.9700,62.1800
Z" /> 
<path style="fill:#000000; fill-opacity:1.0000; stroke:none;fill-rule:evenodd;"
d="M 119.9700,63.9800
118.3700,63.9800
118.3700,63.2800
119.9700,63.2800
Z" /> 
<path style="fill:#000000; fill-opacity:1.0000; stroke:none;fill-rule:evenodd;"
d="M 119.9700,65.0800
118.3700,65.0800
118.3700,64.3800
119.9700,64.3800
Z" /> 
<path style="fill:#000000; fill-opacity:1.0000; stroke:none;fill-rule:evenodd;"
d="M 118.7700,66.5300
116.9700,66.5300
116.9700,65.3300
118.7700,65.3300
Z" /> 
<path style="fill:#000000; fill-opacity:1.0000; stroke:none;fill-rule:evenodd;"
d="M 118.8700,52.1300
117.3700,52.1300
117.3700,50.5300
118.8700,50.5300
Z" /> 
<path style="fill:#000000; fill-opacity:1.0000; stroke:none;fill-rule:evenodd;"
d="M 109.6700,66.5300
107.4700,66.5300
107.4700,65.3300
109.6700,65.3300
Z" /> 
<path style="fill:#000000; fill-opacity:1.0000; stroke:none;fill-rule:evenodd;"
d="M 109.6700,51.0300
107.4700,51.0300
107.4700,49.8300
109.6700,49.8300
Z" /> 
<path style="fill:#000000; fill-opacity:1.0000; stroke:none;fill-rule:evenodd;"
d="M 128.5750,76.3060
128.5560,76.4017
128.5018,76.4828
128.4207,76.5370
128.3250,76.5560
127.8000,76.5560
127.7043,76.5370
127.6232,76.4828
127.5690,76.4017
127.5500,76.3060
127.5500,75.4060
127.5690,75.3103
127.6232,75.2292
127.7043,75.1750
127.8000,75.1560
128.3250,75.1560
128.4207,75.1750
128.5018,75.2292
128.5560,75.3103
128.5750,75.4060
Z" /> 
<path style="fill:#000000; fill-opacity:1.0000; stroke:none;fill-rule:evenodd;"
d="M 126.7500,76.3060
126.7310,76.4017
126.6768,76.4828
126.5957,76.5370
126.5000,76.5560
125.9750,76.5560
125.8793,76.5370
125.7982,76.4828
125.7440,76.4017
125.7250,76.3060
125.7250,75.4060
125.7440,75.3103
125.7982,75.2292
125.8793,75.1750
125.9750,75.1560
126.5000,75.1560
126.5957,75.1750
126.6768,75.2292
126.7310,75.3103
126.7500,75.4060
Z" /> 
<path style="fill:#000000; fill-opacity:1.0000; stroke:none;fill-rule:evenodd;"
d="M 126.4425,62.7150
126.4235,62.8107
126.3693,62.8918
126.2882,62.9460
126.1925,62.9650
125.5175,62.9650
125.4218,62.9460
125.3407,62.8918
125.2865,62.8107
125.2675,62.7150
125.2675,61.7650
125.2865,61.6693
125.3407,61.5882
125.4218,61.5340
125.5175,61.5150
126.1925,61.5150
126.2882,61.5340
126.3693,61.5882
126.4235,61.6693
126.4425,61.7650
Z" /> 
<path style="fill:#000000; fill-opacity:1.0000; stroke:none;fill-rule:evenodd;"
d="M 124.3675,62.7150
124.3485,62.8107
124.2943,62.8918
124.2132,62.9460
124.1175,62.9650
123.4425,62.9650
123.3468,62.9460
123.2657,62.8918
123.2115,62.8107
123.1925,62.7150
123.1925,61.7650
123.2115,61.6693
123.2657,61.5882
123.3468,61.5340
123.4425,61.5150
124.1175,61.5150
124.2132,61.5340
124.2943,61.5882
124.3485,61.6693
124.3675,61.7650
Z" /> 
<path style="fill:#000000; fill-opacity:1.0000; stroke:none;fill-rule:evenodd;"
d="M 181.7562,98.2800
181.7137,98.2715
181.6776,98.2474
181.6535,98.2113
181.6450,98.1687
181.6450,96.4213
181.6535,96.3787
181.6776,96.3426
181.7137,96.3185
181.7562,96.3100
182.4237,96.3100
182.4663,96.3185
182.5024,96.3426
182.5265,96.3787
182.5350,96.4213
182.5350,98.1687
182.5265,98.2113
182.5024,98.2474
182.4663,98.2715
182.4237,98.2800
Z" /> 
<path style="fill:#000000; fill-opacity:1.0000; stroke:none;fill-rule:evenodd;"
d="M 179.4562,98.2800
179.4137,98.2715
179.3776,98.2474
179.3535,98.2113
179.3450,98.1687
179.3450,96.4213
179.3535,96.3787
179.3776,96.3426
179.4137,96.3185
179.4562,96.3100
180.1238,96.3100
180.1663,96.3185
180.2024,96.3426
180.2265,96.3787
180.2350,96.4213
180.2350,98.1687
180.2265,98.2113
180.2024,98.2474
180.1663,98.2715
180.1238,98.2800
Z" /> 
<path style="fill:#000000; fill-opacity:1.0000; stroke:none;fill-rule:evenodd;"
d="M 177.1562,98.2800
177.1137,98.2715
177.0776,98.2474
177.0535,98.2113
177.0450,98.1687
177.0450,96.4213
177.0535,96.3787
177.0776,96.3426
177.1137,96.3185
177.1562,96.3100
177.8237,96.3100
177.8663,96.3185
177.9024,96.3426
177.9265,96.3787
177.9350,96.4213
177.9350,98.1687
177.9265,98.2113
177.9024,98.2474
177.8663,98.2715
177.8237,98.2800
Z" /> 
<path style="fill:#000000; fill-opacity:1.0000; stroke:none;fill-rule:evenodd;"
d="M 178.4412,92.2300
178.3470,92.2113
178.2671,92.1579
178.2137,92.0780
178.1950,91.9838
178.1950,90.5062
178.2137,90.4120
178.2671,90.3321
178.3470,90.2787
178.4412,90.2600
181.1387,90.2600
181.2330,90.2787
181.3129,90.3321
181.3663,90.4120
181.3850,90.5062
181.3850,91.9838
181.3663,92.0780
181.3129,92.1579
181.2330,92.2113
181.1387,92.2300
Z" /> 
<path style="fill:#000000; fill-opacity:1.0000; stroke:none;fill-rule:evenodd;"
d="M 189.8700,97.3975
189.7743,97.3785
189.6932,97.3243
189.6390,97.2432
189.6200,97.1475
189.6200,95.1475
189.6390,95.0518
189.6932,94.9707
189.7743,94.9165
189.8700,94.8975
191.1700,94.8975
191.2657,94.9165
191.3468,94.9707
191.4010,95.0518
191.4200,95.1475
191.4200,97.1475
191.4010,97.2432
191.3468,97.3243
191.2657,97.3785
191.1700,97.3975
Z" /> 
<path style="fill:#000000; fill-opacity:1.0000; stroke:none;fill-rule:evenodd;"
d="M 189.8700,93.3975
189.7743,93.3785
189.6932,93.3243
189.6390,93.2432
189.6200,93.1475
189.6200,91.1475
189.6390,91.0518
189.6932,90.9707
189.7743,90.9165
189.8700,90.8975
191.1700,90.8975
191.2657,90.9165
191.3468,90.9707
191.4010,91.0518
191.4200,91.1475
191.4200,93.1475
191.4010,93.2432
191.3468,93.3243
191.2657,93.3785
191.1700,93.3975
Z" /> 
<path style="fill:#000000; fill-opacity:1.0000; stroke:none;fill-rule:evenodd;"
d="M 202.2100,86.3225
202.3057,86.3415
202.3868,86.3957
202.4410,86.4768
202.4600,86.5725
202.4600,87.0975
202.4410,87.1932
202.3868,87.2743
202.3057,87.3285
202.2100,87.3475
201.3100,87.3475
201.2143,87.3285
201.1332,87.2743
201.0790,87.1932
201.0600,87.0975
201.0600,86.5725
201.0790,86.4768
201.1332,86.3957
201.2143,86.3415
201.3100,86.3225
Z" /> 
<path style="fill:#000000; fill-opacity:1.0000; stroke:none;fill-rule:evenodd;"
d="M 202.2100,88.1475
202.3057,88.1665
202.3868,88.2207
202.4410,88.3018
202.4600,88.3975
202.4600,88.9225
202.4410,89.0182
202.3868,89.0993
202.3057,89.1535
202.2100,89.1725
201.3100,89.1725
201.2143,89.1535
201.1332,89.0993
201.0790,89.0182
201.0600,88.9225
201.0600,88.3975
201.0790,88.3018
201.1332,88.2207
201.2143,88.1665
201.3100,88.1475
Z" /> 
<path style="fill:#000000; fill-opacity:1.0000; stroke:none;fill-rule:evenodd;"
d="M 125.7250,79.7380
125.7440,79.6423
125.7982,79.5612
125.8793,79.5070
125.9750,79.4880
126.5000,79.4880
126.5957,79.5070
126.6768,79.5612
126.7310,79.6423
126.7500,79.7380
126.7500,80.6380
126.7310,80.7337
126.6768,80.8148
126.5957,80.8690
126.5000,80.8880
125.9750,80.8880
125.8793,80.8690
125.7982,80.8148
125.7440,80.7337
125.7250,80.6380
Z" /> 
<path style="fill:#000000; fill-opacity:1.0000; stroke:none;fill-rule:evenodd;"
d="M 127.5500,79.7380
127.5690,79.6423
127.6232,79.5612
127.7043,79.5070
127.8000,79.4880
128.3250,79.4880
128.4207,79.5070
128.5018,79.5612
128.5560,79.6423
128.5750,79.7380
128.5750,80.6380
128.5560,80.7337
128.5018,80.8148
128.4207,80.8690
128.3250,80.8880
127.8000,80.8880
127.7043,80.8690
127.6232,80.8148
127.5690,80.7337
127.5500,80.6380
Z" /> 
<path style="fill:#000000; fill-opacity:1.0000; stroke:none;fill-rule:evenodd;"
d="M 183.3050,81.0250
183.3240,80.9293
183.3782,80.8482
183.4593,80.7940
183.5550,80.7750
184.2300,80.7750
184.3257,80.7940
184.4068,80.8482
184.4610,80.9293
184.4800,81.0250
184.4800,81.9750
184.4610,82.0707
184.4068,82.1518
184.3257,82.2060
184.2300,82.2250
183.5550,82.2250
183.4593,82.2060
183.3782,82.1518
183.3240,82.0707
183.3050,81.9750
Z" /> 
<path style="fill:#000000; fill-opacity:1.0000; stroke:none;fill-rule:evenodd;"
d="M 185.3800,81.0250
185.3990,80.9293
185.4532,80.8482
185.5343,80.7940
185.6300,80.7750
186.3050,80.7750
186.4007,80.7940
186.4818,80.8482
186.5360,80.9293
186.5550,81.0250
186.5550,81.9750
186.5360,82.0707
186.4818,82.1518
186.4007,82.2060
186.3050,82.2250
185.6300,82.2250
185.5343,82.2060
185.4532,82.1518
185.3990,82.0707
185.3800,81.9750
Z" /> 
<path style="fill:#000000; fill-opacity:1.0000; stroke:none;fill-rule:evenodd;"
d="M 166.1850,87.5333
166.1660,87.6290
166.1118,87.7101
166.0307,87.7643
165.9350,87.7833
165.4100,87.7833
165.3143,87.7643
165.2332,87.7101
165.1790,87.6290
165.1600,87.5333
165.1600,86.6333
165.1790,86.5377
165.2332,86.4566
165.3143,86.4024
165.4100,86.3833
165.9350,86.3833
166.0307,86.4024
166.1118,86.4566
166.1660,86.5377
166.1850,86.6333
Z" /> 
<path style="fill:#000000; fill-opacity:1.0000; stroke:none;fill-rule:evenodd;"
d="M 164.3600,87.5333
164.3410,87.6290
164.2868,87.7101
164.2057,87.7643
164.1100,87.7833
163.5850,87.7833
163.4893,87.7643
163.4082,87.7101
163.3540,87.6290
163.3350,87.5333
163.3350,86.6333
163.3540,86.5377
163.4082,86.4566
163.4893,86.4024
163.5850,86.3833
164.1100,86.3833
164.2057,86.4024
164.2868,86.4566
164.3410,86.5377
164.3600,86.6333
Z" /> 
<path style="fill:#000000; fill-opacity:1.0000; stroke:none;fill-rule:evenodd;"
d="M 188.2700,84.5850
188.1743,84.5660
188.0932,84.5118
188.0390,84.4307
188.0200,84.3350
188.0200,83.8100
188.0390,83.7143
188.0932,83.6332
188.1743,83.5790
188.2700,83.5600
189.1700,83.5600
189.2657,83.5790
189.3468,83.6332
189.4010,83.7143
189.4200,83.8100
189.4200,84.3350
189.4010,84.4307
189.3468,84.5118
189.2657,84.5660
189.1700,84.5850
Z" /> 
<path style="fill:#000000; fill-opacity:1.0000; stroke:none;fill-rule:evenodd;"
d="M 188.2700,82.7600
188.1743,82.7410
188.0932,82.6868
188.0390,82.6057
188.0200,82.5100
188.0200,81.9850
188.0390,81.8893
188.0932,81.8082
188.1743,81.7540
188.2700,81.7350
189.1700,81.7350
189.2657,81.7540
189.3468,81.8082
189.4010,81.8893
189.4200,81.9850
189.4200,82.5100
189.4010,82.6057
189.3468,82.6868
189.2657,82.7410
189.1700,82.7600
Z" /> 
<path style="fill:#000000; fill-opacity:1.0000; stroke:none;fill-rule:evenodd;"
d="M 148.1983,48.6804
148.7317,48.6804
148.7317,50.6616
148.1983,50.6616
Z" /> 
<path style="fill:#000000; fill-opacity:1.0000; stroke:none;fill-rule:evenodd;"
d="M 149.4683,48.6804
150.0017,48.6804
150.0017,50.6616
149.4683,50.6616
Z" /> 
<path style="fill:#000000; fill-opacity:1.0000; stroke:none;fill-rule:evenodd;"
d="M 150.7383,48.6804
151.2717,48.6804
151.2717,50.6616
150.7383,50.6616
Z" /> 
<path style="fill:#000000; fill-opacity:1.0000; stroke:none;fill-rule:evenodd;"
d="M 152.0083,48.6804
152.5417,48.6804
152.5417,50.6616
152.0083,50.6616
Z" /> 
<path style="fill:#000000; fill-opacity:1.0000; stroke:none;fill-rule:evenodd;"
d="M 153.2783,48.6804
153.8117,48.6804
153.8117,50.6616
153.2783,50.6616
Z" /> 
<path style="fill:#000000; fill-opacity:1.0000; stroke:none;fill-rule:evenodd;"
d="M 154.5483,48.6804
155.0817,48.6804
155.0817,50.6616
154.5483,50.6616
Z" /> 
<path style="fill:#000000; fill-opacity:1.0000; stroke:none;fill-rule:evenodd;"
d="M 155.8183,48.6804
156.3517,48.6804
156.3517,50.6616
155.8183,50.6616
Z" /> 
<path style="fill:#000000; fill-opacity:1.0000; stroke:none;fill-rule:evenodd;"
d="M 157.0883,48.6804
157.6217,48.6804
157.6217,50.6616
157.0883,50.6616
Z" /> 
<path style="fill:#000000; fill-opacity:1.0000; stroke:none;fill-rule:evenodd;"
d="M 157.0883,58.0784
157.6217,58.0784
157.6217,60.0596
157.0883,60.0596
Z" /> 
<path style="fill:#000000; fill-opacity:1.0000; stroke:none;fill-rule:evenodd;"
d="M 155.8183,58.0784
156.3517,58.0784
156.3517,60.0596
155.8183,60.0596
Z" /> 
<path style="fill:#000000; fill-opacity:1.0000; stroke:none;fill-rule:evenodd;"
d="M 154.5483,58.0784
155.0817,58.0784
155.0817,60.0596
154.5483,60.0596
Z" /> 
<path style="fill:#000000; fill-opacity:1.0000; stroke:none;fill-rule:evenodd;"
d="M 153.2783,58.0784
153.8117,58.0784
153.8117,60.0596
153.2783,60.0596
Z" /> 
<path style="fill:#000000; fill-opacity:1.0000; stroke:none;fill-rule:evenodd;"
d="M 152.0083,58.0784
152.5417,58.0784
152.5417,60.0596
152.0083,60.0596
Z" /> 
<path style="fill:#000000; fill-opacity:1.0000; stroke:none;fill-rule:evenodd;"
d="M 150.7383,58.0784
151.2717,58.0784
151.2717,60.0596
150.7383,60.0596
Z" /> 
<path style="fill:#000000; fill-opacity:1.0000; stroke:none;fill-rule:evenodd;"
d="M 149.4683,58.0784
150.0017,58.0784
150.0017,60.0596
149.4683,60.0596
Z" /> 
<path style="fill:#000000; fill-opacity:1.0000; stroke:none;fill-rule:evenodd;"
d="M 148.1983,58.0784
148.7317,58.0784
148.7317,60.0596
148.1983,60.0596
Z" /> 
<path style="fill:#000000; fill-opacity:1.0000; stroke:none;fill-rule:evenodd;"
d="M 158.4450,38.1500
158.4260,38.2457
158.3718,38.3268
158.2907,38.3810
158.1950,38.4000
157.6700,38.4000
157.5743,38.3810
157.4932,38.3268
157.4390,38.2457
157.4200,38.1500
157.4200,37.2500
157.4390,37.1543
157.4932,37.0732
157.5743,37.0190
157.6700,37.0000
158.1950,37.0000
158.2907,37.0190
158.3718,37.0732
158.4260,37.1543
158.4450,37.2500
Z" /> 
<path style="fill:#000000; fill-opacity:1.0000; stroke:none;fill-rule:evenodd;"
d="M 156.6200,38.1500
156.6010,38.2457
156.5468,38.3268
156.4657,38.3810
156.3700,38.4000
155.8450,38.4000
155.7493,38.3810
155.6682,38.3268
155.6140,38.2457
155.5950,38.1500
155.5950,37.2500
155.6140,37.1543
155.6682,37.0732
155.7493,37.0190
155.8450,37.0000
156.3700,37.0000
156.4657,37.0190
156.5468,37.0732
156.6010,37.1543
156.6200,37.2500
Z" /> 
<path style="fill:#000000; fill-opacity:1.0000; stroke:none;fill-rule:evenodd;"
d="M 160.1150,74.4550
160.1340,74.3593
160.1882,74.2782
160.2693,74.2240
160.3650,74.2050
161.0400,74.2050
161.1357,74.2240
161.2168,74.2782
161.2710,74.3593
161.2900,74.4550
161.2900,75.4050
161.2710,75.5007
161.2168,75.5818
161.1357,75.6360
161.0400,75.6550
160.3650,75.6550
160.2693,75.6360
160.1882,75.5818
160.1340,75.5007
160.1150,75.4050
Z" /> 
<path style="fill:#000000; fill-opacity:1.0000; stroke:none;fill-rule:evenodd;"
d="M 162.1900,74.4550
162.2090,74.3593
162.2632,74.2782
162.3443,74.2240
162.4400,74.2050
163.1150,74.2050
163.2107,74.2240
163.2918,74.2782
163.3460,74.3593
163.3650,74.4550
163.3650,75.4050
163.3460,75.5007
163.2918,75.5818
163.2107,75.6360
163.1150,75.6550
162.4400,75.6550
162.3443,75.6360
162.2632,75.5818
162.2090,75.5007
162.1900,75.4050
Z" /> 
<path style="fill:#000000; fill-opacity:1.0000; stroke:none;fill-rule:evenodd;"
d="M 137.5650,93.7150
137.5840,93.6193
137.6382,93.5382
137.7193,93.4840
137.8150,93.4650
138.4900,93.4650
138.5857,93.4840
138.6668,93.5382
138.7210,93.6193
138.7400,93.7150
138.7400,94.6650
138.7210,94.7607
138.6668,94.8418
138.5857,94.8960
138.4900,94.9150
137.8150,94.9150
137.7193,94.8960
137.6382,94.8418
137.5840,94.7607
137.5650,94.6650
Z" /> 
<path style="fill:#000000; fill-opacity:1.0000; stroke:none;fill-rule:evenodd;"
d="M 139.6400,93.7150
139.6590,93.6193
139.7132,93.5382
139.7943,93.4840
139.8900,93.4650
140.5650,93.4650
140.6607,93.4840
140.7418,93.5382
140.7960,93.6193
140.8150,93.7150
140.8150,94.6650
140.7960,94.7607
140.7418,94.8418
140.6607,94.8960
140.5650,94.9150
139.8900,94.9150
139.7943,94.8960
139.7132,94.8418
139.6590,94.7607
139.6400,94.6650
Z" /> 
<path style="fill:#000000; fill-opacity:1.0000; stroke:none;fill-rule:evenodd;"
d="M 125.7250,84.0700
125.7440,83.9743
125.7982,83.8932
125.8793,83.8390
125.9750,83.8200
126.5000,83.8200
126.5957,83.8390
126.6768,83.8932
126.7310,83.9743
126.7500,84.0700
126.7500,84.9700
126.7310,85.0657
126.6768,85.1468
126.5957,85.2010
126.5000,85.2200
125.9750,85.2200
125.8793,85.2010
125.7982,85.1468
125.7440,85.0657
125.7250,84.9700
Z" /> 
<path style="fill:#000000; fill-opacity:1.0000; stroke:none;fill-rule:evenodd;"
d="M 127.5500,84.0700
127.5690,83.9743
127.6232,83.8932
127.7043,83.8390
127.8000,83.8200
128.3250,83.8200
128.4207,83.8390
128.5018,83.8932
128.5560,83.9743
128.5750,84.0700
128.5750,84.9700
128.5560,85.0657
128.5018,85.1468
128.4207,85.2010
128.3250,85.2200
127.8000,85.2200
127.7043,85.2010
127.6232,85.1468
127.5690,85.0657
127.5500,84.9700
Z" /> 
<path style="fill:#000000; fill-opacity:1.0000; stroke:none;fill-rule:evenodd;"
d="M 137.6000,50.6500
137.6287,50.6557
137.6530,50.6720
137.6693,50.6963
137.6750,50.7250
137.6750,52.5450
137.6693,52.5737
137.6530,52.5980
137.6287,52.6143
137.6000,52.6200
137.1500,52.6200
137.1213,52.6143
137.0970,52.5980
137.0807,52.5737
137.0750,52.5450
137.0750,50.7250
137.0807,50.6963
137.0970,50.6720
137.1213,50.6557
137.1500,50.6500
Z" /> 
<path style="fill:#000000; fill-opacity:1.0000; stroke:none;fill-rule:evenodd;"
d="M 138.8700,50.6500
138.8987,50.6557
138.9230,50.6720
138.9393,50.6963
138.9450,50.7250
138.9450,52.5450
138.9393,52.5737
138.9230,52.5980
138.8987,52.6143
138.8700,52.6200
138.4200,52.6200
138.3913,52.6143
138.3670,52.5980
138.3507,52.5737
138.3450,52.5450
138.3450,50.7250
138.3507,50.6963
138.3670,50.6720
138.3913,50.6557
138.4200,50.6500
Z" /> 
<path style="fill:#000000; fill-opacity:1.0000; stroke:none;fill-rule:evenodd;"
d="M 140.1400,50.6500
140.1687,50.6557
140.1930,50.6720
140.2093,50.6963
140.2150,50.7250
140.2150,52.5450
140.2093,52.5737
140.1930,52.5980
140.1687,52.6143
140.1400,52.6200
139.6900,52.6200
139.6613,52.6143
139.6370,52.5980
139.6207,52.5737
139.6150,52.5450
139.6150,50.7250
139.6207,50.6963
139.6370,50.6720
139.6613,50.6557
139.6900,50.6500
Z" /> 
<path style="fill:#000000; fill-opacity:1.0000; stroke:none;fill-rule:evenodd;"
d="M 141.4100,50.6500
141.4387,50.6557
141.4630,50.6720
141.4793,50.6963
141.4850,50.7250
141.4850,52.5450
141.4793,52.5737
141.4630,52.5980
141.4387,52.6143
141.4100,52.6200
140.9600,52.6200
140.9313,52.6143
140.9070,52.5980
140.8907,52.5737
140.8850,52.5450
140.8850,50.7250
140.8907,50.6963
140.9070,50.6720
140.9313,50.6557
140.9600,50.6500
Z" /> 
<path style="fill:#000000; fill-opacity:1.0000; stroke:none;fill-rule:evenodd;"
d="M 141.4100,55.5900
141.4387,55.5957
141.4630,55.6120
141.4793,55.6363
141.4850,55.6650
141.4850,57.4850
141.4793,57.5137
141.4630,57.5380
141.4387,57.5543
141.4100,57.5600
140.9600,57.5600
140.9313,57.5543
140.9070,57.5380
140.8907,57.5137
140.8850,57.4850
140.8850,55.6650
140.8907,55.6363
140.9070,55.6120
140.9313,55.5957
140.9600,55.5900
Z" /> 
<path style="fill:#000000; fill-opacity:1.0000; stroke:none;fill-rule:evenodd;"
d="M 140.1400,55.5900
140.1687,55.5957
140.1930,55.6120
140.2093,55.6363
140.2150,55.6650
140.2150,57.4850
140.2093,57.5137
140.1930,57.5380
140.1687,57.5543
140.1400,57.5600
139.6900,57.5600
139.6613,57.5543
139.6370,57.5380
139.6207,57.5137
139.6150,57.4850
139.6150,55.6650
139.6207,55.6363
139.6370,55.6120
139.6613,55.5957
139.6900,55.5900
Z" /> 
<path style="fill:#000000; fill-opacity:1.0000; stroke:none;fill-rule:evenodd;"
d="M 138.8700,55.5900
138.8987,55.5957
138.9230,55.6120
138.9393,55.6363
138.9450,55.6650
138.9450,57.4850
138.9393,57.5137
138.9230,57.5380
138.8987,57.5543
138.8700,57.5600
138.4200,57.5600
138.3913,57.5543
138.3670,57.5380
138.3507,57.5137
138.3450,57.4850
138.3450,55.6650
138.3507,55.6363
138.3670,55.6120
138.3913,55.5957
138.4200,55.5900
Z" /> 
<path style="fill:#000000; fill-opacity:1.0000; stroke:none;fill-rule:evenodd;"
d="M 137.6000,55.5900
137.6287,55.5957
137.6530,55.6120
137.6693,55.6363
137.6750,55.6650
137.6750,57.4850
137.6693,57.5137
137.6530,57.5380
137.6287,57.5543
137.6000,57.5600
137.1500,57.5600
137.1213,57.5543
137.0970,57.5380
137.0807,57.5137
137.0750,57.4850
137.0750,55.6650
137.0807,55.6363
137.0970,55.6120
137.1213,55.5957
137.1500,55.5900
Z" /> 
<path style="fill:#000000; fill-opacity:1.0000; stroke:none;fill-rule:evenodd;"
d="M 163.3350,82.5600
163.3540,82.4643
163.4082,82.3832
163.4893,82.3290
163.5850,82.3100
164.1100,82.3100
164.2057,82.3290
164.2868,82.3832
164.3410,82.4643
164.3600,82.5600
164.3600,83.4600
164.3410,83.5557
164.2868,83.6368
164.2057,83.6910
164.1100,83.7100
163.5850,83.7100
163.4893,83.6910
163.4082,83.6368
163.3540,83.5557
163.3350,83.4600
Z" /> 
<path style="fill:#000000; fill-opacity:1.0000; stroke:none;fill-rule:evenodd;"
d="M 165.1600,82.5600
165.1790,82.4643
165.2332,82.3832
165.3143,82.3290
165.4100,82.3100
165.9350,82.3100
166.0307,82.3290
166.1118,82.3832
166.1660,82.4643
166.1850,82.5600
166.1850,83.4600
166.1660,83.5557
166.1118,83.6368
166.0307,83.6910
165.9350,83.7100
165.4100,83.7100
165.3143,83.6910
165.2332,83.6368
165.1790,83.5557
165.1600,83.4600
Z" /> 
<path style="fill:#000000; fill-opacity:1.0000; stroke:none;fill-rule:evenodd;"
d="M 150.6250,46.3850
150.6440,46.2893
150.6982,46.2082
150.7793,46.1540
150.8750,46.1350
151.5500,46.1350
151.6457,46.1540
151.7268,46.2082
151.7810,46.2893
151.8000,46.3850
151.8000,47.3350
151.7810,47.4307
151.7268,47.5118
151.6457,47.5660
151.5500,47.5850
150.8750,47.5850
150.7793,47.5660
150.6982,47.5118
150.6440,47.4307
150.6250,47.3350
Z" /> 
<path style="fill:#000000; fill-opacity:1.0000; stroke:none;fill-rule:evenodd;"
d="M 152.7000,46.3850
152.7190,46.2893
152.7732,46.2082
152.8543,46.1540
152.9500,46.1350
153.6250,46.1350
153.7207,46.1540
153.8018,46.2082
153.8560,46.2893
153.8750,46.3850
153.8750,47.3350
153.8560,47.4307
153.8018,47.5118
153.7207,47.5660
153.6250,47.5850
152.9500,47.5850
152.8543,47.5660
152.7732,47.5118
152.7190,47.4307
152.7000,47.3350
Z" /> 
<path style="fill:#000000; fill-opacity:1.0000; stroke:none;fill-rule:evenodd;"
d="M 135.9450,89.6750
135.8493,89.6560
135.7682,89.6018
135.7140,89.5207
135.6950,89.4250
135.6950,88.7500
135.7140,88.6543
135.7682,88.5732
135.8493,88.5190
135.9450,88.5000
136.8950,88.5000
136.9907,88.5190
137.0718,88.5732
137.1260,88.6543
137.1450,88.7500
137.1450,89.4250
137.1260,89.5207
137.0718,89.6018
136.9907,89.6560
136.8950,89.6750
Z" /> 
<path style="fill:#000000; fill-opacity:1.0000; stroke:none;fill-rule:evenodd;"
d="M 135.9450,87.6000
135.8493,87.5810
135.7682,87.5268
135.7140,87.4457
135.6950,87.3500
135.6950,86.6750
135.7140,86.5793
135.7682,86.4982
135.8493,86.4440
135.9450,86.4250
136.8950,86.4250
136.9907,86.4440
137.0718,86.4982
137.1260,86.5793
137.1450,86.6750
137.1450,87.3500
137.1260,87.4457
137.0718,87.5268
136.9907,87.5810
136.8950,87.6000
Z" /> 
<path style="fill:#000000; fill-opacity:1.0000; stroke:none;fill-rule:evenodd;"
d="M 133.4550,89.6750
133.3593,89.6560
133.2782,89.6018
133.2240,89.5207
133.2050,89.4250
133.2050,88.7500
133.2240,88.6543
133.2782,88.5732
133.3593,88.5190
133.4550,88.5000
134.4050,88.5000
134.5007,88.5190
134.5818,88.5732
134.6360,88.6543
134.6550,88.7500
134.6550,89.4250
134.6360,89.5207
134.5818,89.6018
134.5007,89.6560
134.4050,89.6750
Z" /> 
<path style="fill:#000000; fill-opacity:1.0000; stroke:none;fill-rule:evenodd;"
d="M 133.4550,87.6000
133.3593,87.5810
133.2782,87.5268
133.2240,87.4457
133.2050,87.3500
133.2050,86.6750
133.2240,86.5793
133.2782,86.4982
133.3593,86.4440
133.4550,86.4250
134.4050,86.4250
134.5007,86.4440
134.5818,86.4982
134.6360,86.5793
134.6550,86.6750
134.6550,87.3500
134.6360,87.4457
134.5818,87.5268
134.5007,87.5810
134.4050,87.6000
Z" /> 
<path style="fill:#000000; fill-opacity:1.0000; stroke:none;fill-rule:evenodd;"
d="M 184.6200,87.1450
184.5626,87.1336
184.5139,87.1011
184.4814,87.0524
184.4700,86.9950
184.4700,85.8200
184.4814,85.7626
184.5139,85.7139
184.5626,85.6814
184.6200,85.6700
184.9200,85.6700
184.9774,85.6814
185.0261,85.7139
185.0586,85.7626
185.0700,85.8200
185.0700,86.9950
185.0586,87.0524
185.0261,87.1011
184.9774,87.1336
184.9200,87.1450
Z" /> 
<path style="fill:#000000; fill-opacity:1.0000; stroke:none;fill-rule:evenodd;"
d="M 182.7200,87.1450
182.6626,87.1336
182.6139,87.1011
182.5814,87.0524
182.5700,86.9950
182.5700,85.8200
182.5814,85.7626
182.6139,85.7139
182.6626,85.6814
182.7200,85.6700
183.0200,85.6700
183.0774,85.6814
183.1261,85.7139
183.1586,85.7626
183.1700,85.8200
183.1700,86.9950
183.1586,87.0524
183.1261,87.1011
183.0774,87.1336
183.0200,87.1450
Z" /> 
<path style="fill:#000000; fill-opacity:1.0000; stroke:none;fill-rule:evenodd;"
d="M 183.6700,85.2700
183.6126,85.2586
183.5639,85.2261
183.5314,85.1774
183.5200,85.1200
183.5200,83.9450
183.5314,83.8876
183.5639,83.8389
183.6126,83.8064
183.6700,83.7950
183.9700,83.7950
184.0274,83.8064
184.0761,83.8389
184.1086,83.8876
184.1200,83.9450
184.1200,85.1200
184.1086,85.1774
184.0761,85.2261
184.0274,85.2586
183.9700,85.2700
Z" /> 
<path style="fill:#000000; fill-opacity:1.0000; stroke:none;fill-rule:evenodd;"
d="M 135.6250,56.9600
135.6060,57.0557
135.5518,57.1368
135.4707,57.1910
135.3750,57.2100
134.8500,57.2100
134.7543,57.1910
134.6732,57.1368
134.6190,57.0557
134.6000,56.9600
134.6000,56.0600
134.6190,55.9643
134.6732,55.8832
134.7543,55.8290
134.8500,55.8100
135.3750,55.8100
135.4707,55.8290
135.5518,55.8832
135.6060,55.9643
135.6250,56.0600
Z" /> 
<path style="fill:#000000; fill-opacity:1.0000; stroke:none;fill-rule:evenodd;"
d="M 133.8000,56.9600
133.7810,57.0557
133.7268,57.1368
133.6457,57.1910
133.5500,57.2100
133.0250,57.2100
132.9293,57.1910
132.8482,57.1368
132.7940,57.0557
132.7750,56.9600
132.7750,56.0600
132.7940,55.9643
132.8482,55.8832
132.9293,55.8290
133.0250,55.8100
133.5500,55.8100
133.6457,55.8290
133.7268,55.8832
133.7810,55.9643
133.8000,56.0600
Z" /> 
<path style="fill:#000000; fill-opacity:1.0000; stroke:none;fill-rule:evenodd;"
d="M 181.5150,78.1800
181.5340,78.0843
181.5882,78.0032
181.6693,77.9490
181.7650,77.9300
182.2900,77.9300
182.3857,77.9490
182.4668,78.0032
182.5210,78.0843
182.5400,78.1800
182.5400,79.0800
182.5210,79.1757
182.4668,79.2568
182.3857,79.3110
182.2900,79.3300
181.7650,79.3300
181.6693,79.3110
181.5882,79.2568
181.5340,79.1757
181.5150,79.0800
Z" /> 
<path style="fill:#000000; fill-opacity:1.0000; stroke:none;fill-rule:evenodd;"
d="M 183.3400,78.1800
183.3590,78.0843
183.4132,78.0032
183.4943,77.9490
183.5900,77.9300
184.1150,77.9300
184.2107,77.9490
184.2918,78.0032
184.3460,78.0843
184.3650,78.1800
184.3650,79.0800
184.3460,79.1757
184.2918,79.2568
184.2107,79.3110
184.1150,79.3300
183.5900,79.3300
183.4943,79.3110
183.4132,79.2568
183.3590,79.1757
183.3400,79.0800
Z" /> 
</g> 
</svg>
