%TF.GenerationSoftware,KiCad,Pcbnew,9.0.6*%
%TF.CreationDate,2026-01-11T17:06:29+01:00*%
%TF.ProjectId,nowe_ust,6e6f7765-5f75-4737-942e-6b696361645f,rev?*%
%TF.SameCoordinates,Original*%
%TF.FileFunction,AssemblyDrawing,Top*%
%FSLAX46Y46*%
G04 Gerber Fmt 4.6, Leading zero omitted, Abs format (unit mm)*
G04 Created by KiCad (PCBNEW 9.0.6) date 2026-01-11 17:06:29*
%MOMM*%
%LPD*%
G01*
G04 APERTURE LIST*
%ADD10C,0.150000*%
%ADD11C,0.090000*%
%ADD12C,0.080000*%
%ADD13C,0.100000*%
%ADD14C,0.127000*%
G04 APERTURE END LIST*
D10*
X93526169Y-100138258D02*
X93526169Y-99138258D01*
X93526169Y-99138258D02*
X93859502Y-99852543D01*
X93859502Y-99852543D02*
X94192835Y-99138258D01*
X94192835Y-99138258D02*
X94192835Y-100138258D01*
X94811883Y-100138258D02*
X94716645Y-100090639D01*
X94716645Y-100090639D02*
X94669026Y-100043019D01*
X94669026Y-100043019D02*
X94621407Y-99947781D01*
X94621407Y-99947781D02*
X94621407Y-99662067D01*
X94621407Y-99662067D02*
X94669026Y-99566829D01*
X94669026Y-99566829D02*
X94716645Y-99519210D01*
X94716645Y-99519210D02*
X94811883Y-99471591D01*
X94811883Y-99471591D02*
X94954740Y-99471591D01*
X94954740Y-99471591D02*
X95049978Y-99519210D01*
X95049978Y-99519210D02*
X95097597Y-99566829D01*
X95097597Y-99566829D02*
X95145216Y-99662067D01*
X95145216Y-99662067D02*
X95145216Y-99947781D01*
X95145216Y-99947781D02*
X95097597Y-100043019D01*
X95097597Y-100043019D02*
X95049978Y-100090639D01*
X95049978Y-100090639D02*
X94954740Y-100138258D01*
X94954740Y-100138258D02*
X94811883Y-100138258D01*
X96002359Y-99471591D02*
X96002359Y-100138258D01*
X95573788Y-99471591D02*
X95573788Y-99995400D01*
X95573788Y-99995400D02*
X95621407Y-100090639D01*
X95621407Y-100090639D02*
X95716645Y-100138258D01*
X95716645Y-100138258D02*
X95859502Y-100138258D01*
X95859502Y-100138258D02*
X95954740Y-100090639D01*
X95954740Y-100090639D02*
X96002359Y-100043019D01*
X96478550Y-99471591D02*
X96478550Y-100138258D01*
X96478550Y-99566829D02*
X96526169Y-99519210D01*
X96526169Y-99519210D02*
X96621407Y-99471591D01*
X96621407Y-99471591D02*
X96764264Y-99471591D01*
X96764264Y-99471591D02*
X96859502Y-99519210D01*
X96859502Y-99519210D02*
X96907121Y-99614448D01*
X96907121Y-99614448D02*
X96907121Y-100138258D01*
X97240455Y-99471591D02*
X97621407Y-99471591D01*
X97383312Y-99138258D02*
X97383312Y-99995400D01*
X97383312Y-99995400D02*
X97430931Y-100090639D01*
X97430931Y-100090639D02*
X97526169Y-100138258D01*
X97526169Y-100138258D02*
X97621407Y-100138258D01*
X97954741Y-100138258D02*
X97954741Y-99471591D01*
X97954741Y-99138258D02*
X97907122Y-99185877D01*
X97907122Y-99185877D02*
X97954741Y-99233496D01*
X97954741Y-99233496D02*
X98002360Y-99185877D01*
X98002360Y-99185877D02*
X97954741Y-99138258D01*
X97954741Y-99138258D02*
X97954741Y-99233496D01*
X98430931Y-99471591D02*
X98430931Y-100138258D01*
X98430931Y-99566829D02*
X98478550Y-99519210D01*
X98478550Y-99519210D02*
X98573788Y-99471591D01*
X98573788Y-99471591D02*
X98716645Y-99471591D01*
X98716645Y-99471591D02*
X98811883Y-99519210D01*
X98811883Y-99519210D02*
X98859502Y-99614448D01*
X98859502Y-99614448D02*
X98859502Y-100138258D01*
X99764264Y-99471591D02*
X99764264Y-100281115D01*
X99764264Y-100281115D02*
X99716645Y-100376353D01*
X99716645Y-100376353D02*
X99669026Y-100423972D01*
X99669026Y-100423972D02*
X99573788Y-100471591D01*
X99573788Y-100471591D02*
X99430931Y-100471591D01*
X99430931Y-100471591D02*
X99335693Y-100423972D01*
X99764264Y-100090639D02*
X99669026Y-100138258D01*
X99669026Y-100138258D02*
X99478550Y-100138258D01*
X99478550Y-100138258D02*
X99383312Y-100090639D01*
X99383312Y-100090639D02*
X99335693Y-100043019D01*
X99335693Y-100043019D02*
X99288074Y-99947781D01*
X99288074Y-99947781D02*
X99288074Y-99662067D01*
X99288074Y-99662067D02*
X99335693Y-99566829D01*
X99335693Y-99566829D02*
X99383312Y-99519210D01*
X99383312Y-99519210D02*
X99478550Y-99471591D01*
X99478550Y-99471591D02*
X99669026Y-99471591D01*
X99669026Y-99471591D02*
X99764264Y-99519210D01*
X100240455Y-100138258D02*
X100240455Y-99138258D01*
X100240455Y-99614448D02*
X100811883Y-99614448D01*
X100811883Y-100138258D02*
X100811883Y-99138258D01*
X101430931Y-100138258D02*
X101335693Y-100090639D01*
X101335693Y-100090639D02*
X101288074Y-100043019D01*
X101288074Y-100043019D02*
X101240455Y-99947781D01*
X101240455Y-99947781D02*
X101240455Y-99662067D01*
X101240455Y-99662067D02*
X101288074Y-99566829D01*
X101288074Y-99566829D02*
X101335693Y-99519210D01*
X101335693Y-99519210D02*
X101430931Y-99471591D01*
X101430931Y-99471591D02*
X101573788Y-99471591D01*
X101573788Y-99471591D02*
X101669026Y-99519210D01*
X101669026Y-99519210D02*
X101716645Y-99566829D01*
X101716645Y-99566829D02*
X101764264Y-99662067D01*
X101764264Y-99662067D02*
X101764264Y-99947781D01*
X101764264Y-99947781D02*
X101716645Y-100043019D01*
X101716645Y-100043019D02*
X101669026Y-100090639D01*
X101669026Y-100090639D02*
X101573788Y-100138258D01*
X101573788Y-100138258D02*
X101430931Y-100138258D01*
X102335693Y-100138258D02*
X102240455Y-100090639D01*
X102240455Y-100090639D02*
X102192836Y-99995400D01*
X102192836Y-99995400D02*
X102192836Y-99138258D01*
X103097598Y-100090639D02*
X103002360Y-100138258D01*
X103002360Y-100138258D02*
X102811884Y-100138258D01*
X102811884Y-100138258D02*
X102716646Y-100090639D01*
X102716646Y-100090639D02*
X102669027Y-99995400D01*
X102669027Y-99995400D02*
X102669027Y-99614448D01*
X102669027Y-99614448D02*
X102716646Y-99519210D01*
X102716646Y-99519210D02*
X102811884Y-99471591D01*
X102811884Y-99471591D02*
X103002360Y-99471591D01*
X103002360Y-99471591D02*
X103097598Y-99519210D01*
X103097598Y-99519210D02*
X103145217Y-99614448D01*
X103145217Y-99614448D02*
X103145217Y-99709686D01*
X103145217Y-99709686D02*
X102669027Y-99804924D01*
X103335694Y-100233496D02*
X104097598Y-100233496D01*
X104288075Y-99233496D02*
X104335694Y-99185877D01*
X104335694Y-99185877D02*
X104430932Y-99138258D01*
X104430932Y-99138258D02*
X104669027Y-99138258D01*
X104669027Y-99138258D02*
X104764265Y-99185877D01*
X104764265Y-99185877D02*
X104811884Y-99233496D01*
X104811884Y-99233496D02*
X104859503Y-99328734D01*
X104859503Y-99328734D02*
X104859503Y-99423972D01*
X104859503Y-99423972D02*
X104811884Y-99566829D01*
X104811884Y-99566829D02*
X104240456Y-100138258D01*
X104240456Y-100138258D02*
X104859503Y-100138258D01*
X105288075Y-100043019D02*
X105335694Y-100090639D01*
X105335694Y-100090639D02*
X105288075Y-100138258D01*
X105288075Y-100138258D02*
X105240456Y-100090639D01*
X105240456Y-100090639D02*
X105288075Y-100043019D01*
X105288075Y-100043019D02*
X105288075Y-100138258D01*
X105669027Y-99138258D02*
X106335693Y-99138258D01*
X106335693Y-99138258D02*
X105907122Y-100138258D01*
X106716646Y-100138258D02*
X106716646Y-99471591D01*
X106716646Y-99566829D02*
X106764265Y-99519210D01*
X106764265Y-99519210D02*
X106859503Y-99471591D01*
X106859503Y-99471591D02*
X107002360Y-99471591D01*
X107002360Y-99471591D02*
X107097598Y-99519210D01*
X107097598Y-99519210D02*
X107145217Y-99614448D01*
X107145217Y-99614448D02*
X107145217Y-100138258D01*
X107145217Y-99614448D02*
X107192836Y-99519210D01*
X107192836Y-99519210D02*
X107288074Y-99471591D01*
X107288074Y-99471591D02*
X107430931Y-99471591D01*
X107430931Y-99471591D02*
X107526170Y-99519210D01*
X107526170Y-99519210D02*
X107573789Y-99614448D01*
X107573789Y-99614448D02*
X107573789Y-100138258D01*
X108049979Y-100138258D02*
X108049979Y-99471591D01*
X108049979Y-99566829D02*
X108097598Y-99519210D01*
X108097598Y-99519210D02*
X108192836Y-99471591D01*
X108192836Y-99471591D02*
X108335693Y-99471591D01*
X108335693Y-99471591D02*
X108430931Y-99519210D01*
X108430931Y-99519210D02*
X108478550Y-99614448D01*
X108478550Y-99614448D02*
X108478550Y-100138258D01*
X108478550Y-99614448D02*
X108526169Y-99519210D01*
X108526169Y-99519210D02*
X108621407Y-99471591D01*
X108621407Y-99471591D02*
X108764264Y-99471591D01*
X108764264Y-99471591D02*
X108859503Y-99519210D01*
X108859503Y-99519210D02*
X108907122Y-99614448D01*
X108907122Y-99614448D02*
X108907122Y-100138258D01*
X109145217Y-100233496D02*
X109907121Y-100233496D01*
X110145217Y-100138258D02*
X110145217Y-99138258D01*
X110145217Y-99138258D02*
X110478550Y-99852543D01*
X110478550Y-99852543D02*
X110811883Y-99138258D01*
X110811883Y-99138258D02*
X110811883Y-100138258D01*
X111240455Y-99233496D02*
X111288074Y-99185877D01*
X111288074Y-99185877D02*
X111383312Y-99138258D01*
X111383312Y-99138258D02*
X111621407Y-99138258D01*
X111621407Y-99138258D02*
X111716645Y-99185877D01*
X111716645Y-99185877D02*
X111764264Y-99233496D01*
X111764264Y-99233496D02*
X111811883Y-99328734D01*
X111811883Y-99328734D02*
X111811883Y-99423972D01*
X111811883Y-99423972D02*
X111764264Y-99566829D01*
X111764264Y-99566829D02*
X111192836Y-100138258D01*
X111192836Y-100138258D02*
X111811883Y-100138258D01*
X112240455Y-100043019D02*
X112288074Y-100090639D01*
X112288074Y-100090639D02*
X112240455Y-100138258D01*
X112240455Y-100138258D02*
X112192836Y-100090639D01*
X112192836Y-100090639D02*
X112240455Y-100043019D01*
X112240455Y-100043019D02*
X112240455Y-100138258D01*
X113192835Y-99138258D02*
X112716645Y-99138258D01*
X112716645Y-99138258D02*
X112669026Y-99614448D01*
X112669026Y-99614448D02*
X112716645Y-99566829D01*
X112716645Y-99566829D02*
X112811883Y-99519210D01*
X112811883Y-99519210D02*
X113049978Y-99519210D01*
X113049978Y-99519210D02*
X113145216Y-99566829D01*
X113145216Y-99566829D02*
X113192835Y-99614448D01*
X113192835Y-99614448D02*
X113240454Y-99709686D01*
X113240454Y-99709686D02*
X113240454Y-99947781D01*
X113240454Y-99947781D02*
X113192835Y-100043019D01*
X113192835Y-100043019D02*
X113145216Y-100090639D01*
X113145216Y-100090639D02*
X113049978Y-100138258D01*
X113049978Y-100138258D02*
X112811883Y-100138258D01*
X112811883Y-100138258D02*
X112716645Y-100090639D01*
X112716645Y-100090639D02*
X112669026Y-100043019D01*
X113430931Y-100233496D02*
X114192835Y-100233496D01*
X114430931Y-100138258D02*
X114430931Y-99138258D01*
X114430931Y-99138258D02*
X114669026Y-99138258D01*
X114669026Y-99138258D02*
X114811883Y-99185877D01*
X114811883Y-99185877D02*
X114907121Y-99281115D01*
X114907121Y-99281115D02*
X114954740Y-99376353D01*
X114954740Y-99376353D02*
X115002359Y-99566829D01*
X115002359Y-99566829D02*
X115002359Y-99709686D01*
X115002359Y-99709686D02*
X114954740Y-99900162D01*
X114954740Y-99900162D02*
X114907121Y-99995400D01*
X114907121Y-99995400D02*
X114811883Y-100090639D01*
X114811883Y-100090639D02*
X114669026Y-100138258D01*
X114669026Y-100138258D02*
X114430931Y-100138258D01*
X115430931Y-100138258D02*
X115430931Y-99138258D01*
X115907121Y-100138258D02*
X115907121Y-99138258D01*
X115907121Y-99138258D02*
X116478549Y-100138258D01*
X116478549Y-100138258D02*
X116478549Y-99138258D01*
X117002359Y-100138258D02*
X117192835Y-100138258D01*
X117192835Y-100138258D02*
X117288073Y-100090639D01*
X117288073Y-100090639D02*
X117335692Y-100043019D01*
X117335692Y-100043019D02*
X117430930Y-99900162D01*
X117430930Y-99900162D02*
X117478549Y-99709686D01*
X117478549Y-99709686D02*
X117478549Y-99328734D01*
X117478549Y-99328734D02*
X117430930Y-99233496D01*
X117430930Y-99233496D02*
X117383311Y-99185877D01*
X117383311Y-99185877D02*
X117288073Y-99138258D01*
X117288073Y-99138258D02*
X117097597Y-99138258D01*
X117097597Y-99138258D02*
X117002359Y-99185877D01*
X117002359Y-99185877D02*
X116954740Y-99233496D01*
X116954740Y-99233496D02*
X116907121Y-99328734D01*
X116907121Y-99328734D02*
X116907121Y-99566829D01*
X116907121Y-99566829D02*
X116954740Y-99662067D01*
X116954740Y-99662067D02*
X117002359Y-99709686D01*
X117002359Y-99709686D02*
X117097597Y-99757305D01*
X117097597Y-99757305D02*
X117288073Y-99757305D01*
X117288073Y-99757305D02*
X117383311Y-99709686D01*
X117383311Y-99709686D02*
X117430930Y-99662067D01*
X117430930Y-99662067D02*
X117478549Y-99566829D01*
X118335692Y-99138258D02*
X118145216Y-99138258D01*
X118145216Y-99138258D02*
X118049978Y-99185877D01*
X118049978Y-99185877D02*
X118002359Y-99233496D01*
X118002359Y-99233496D02*
X117907121Y-99376353D01*
X117907121Y-99376353D02*
X117859502Y-99566829D01*
X117859502Y-99566829D02*
X117859502Y-99947781D01*
X117859502Y-99947781D02*
X117907121Y-100043019D01*
X117907121Y-100043019D02*
X117954740Y-100090639D01*
X117954740Y-100090639D02*
X118049978Y-100138258D01*
X118049978Y-100138258D02*
X118240454Y-100138258D01*
X118240454Y-100138258D02*
X118335692Y-100090639D01*
X118335692Y-100090639D02*
X118383311Y-100043019D01*
X118383311Y-100043019D02*
X118430930Y-99947781D01*
X118430930Y-99947781D02*
X118430930Y-99709686D01*
X118430930Y-99709686D02*
X118383311Y-99614448D01*
X118383311Y-99614448D02*
X118335692Y-99566829D01*
X118335692Y-99566829D02*
X118240454Y-99519210D01*
X118240454Y-99519210D02*
X118049978Y-99519210D01*
X118049978Y-99519210D02*
X117954740Y-99566829D01*
X117954740Y-99566829D02*
X117907121Y-99614448D01*
X117907121Y-99614448D02*
X117859502Y-99709686D01*
X119335692Y-99138258D02*
X118859502Y-99138258D01*
X118859502Y-99138258D02*
X118811883Y-99614448D01*
X118811883Y-99614448D02*
X118859502Y-99566829D01*
X118859502Y-99566829D02*
X118954740Y-99519210D01*
X118954740Y-99519210D02*
X119192835Y-99519210D01*
X119192835Y-99519210D02*
X119288073Y-99566829D01*
X119288073Y-99566829D02*
X119335692Y-99614448D01*
X119335692Y-99614448D02*
X119383311Y-99709686D01*
X119383311Y-99709686D02*
X119383311Y-99947781D01*
X119383311Y-99947781D02*
X119335692Y-100043019D01*
X119335692Y-100043019D02*
X119288073Y-100090639D01*
X119288073Y-100090639D02*
X119192835Y-100138258D01*
X119192835Y-100138258D02*
X118954740Y-100138258D01*
X118954740Y-100138258D02*
X118859502Y-100090639D01*
X118859502Y-100090639D02*
X118811883Y-100043019D01*
X119573788Y-100233496D02*
X120335692Y-100233496D01*
X120573788Y-100138258D02*
X120573788Y-99138258D01*
X120573788Y-99138258D02*
X120954740Y-99138258D01*
X120954740Y-99138258D02*
X121049978Y-99185877D01*
X121049978Y-99185877D02*
X121097597Y-99233496D01*
X121097597Y-99233496D02*
X121145216Y-99328734D01*
X121145216Y-99328734D02*
X121145216Y-99471591D01*
X121145216Y-99471591D02*
X121097597Y-99566829D01*
X121097597Y-99566829D02*
X121049978Y-99614448D01*
X121049978Y-99614448D02*
X120954740Y-99662067D01*
X120954740Y-99662067D02*
X120573788Y-99662067D01*
X122002359Y-100138258D02*
X122002359Y-99614448D01*
X122002359Y-99614448D02*
X121954740Y-99519210D01*
X121954740Y-99519210D02*
X121859502Y-99471591D01*
X121859502Y-99471591D02*
X121669026Y-99471591D01*
X121669026Y-99471591D02*
X121573788Y-99519210D01*
X122002359Y-100090639D02*
X121907121Y-100138258D01*
X121907121Y-100138258D02*
X121669026Y-100138258D01*
X121669026Y-100138258D02*
X121573788Y-100090639D01*
X121573788Y-100090639D02*
X121526169Y-99995400D01*
X121526169Y-99995400D02*
X121526169Y-99900162D01*
X121526169Y-99900162D02*
X121573788Y-99804924D01*
X121573788Y-99804924D02*
X121669026Y-99757305D01*
X121669026Y-99757305D02*
X121907121Y-99757305D01*
X121907121Y-99757305D02*
X122002359Y-99709686D01*
X122907121Y-100138258D02*
X122907121Y-99138258D01*
X122907121Y-100090639D02*
X122811883Y-100138258D01*
X122811883Y-100138258D02*
X122621407Y-100138258D01*
X122621407Y-100138258D02*
X122526169Y-100090639D01*
X122526169Y-100090639D02*
X122478550Y-100043019D01*
X122478550Y-100043019D02*
X122430931Y-99947781D01*
X122430931Y-99947781D02*
X122430931Y-99662067D01*
X122430931Y-99662067D02*
X122478550Y-99566829D01*
X122478550Y-99566829D02*
X122526169Y-99519210D01*
X122526169Y-99519210D02*
X122621407Y-99471591D01*
X122621407Y-99471591D02*
X122811883Y-99471591D01*
X122811883Y-99471591D02*
X122907121Y-99519210D01*
X106883311Y-96838258D02*
X106549978Y-96362067D01*
X106311883Y-96838258D02*
X106311883Y-95838258D01*
X106311883Y-95838258D02*
X106692835Y-95838258D01*
X106692835Y-95838258D02*
X106788073Y-95885877D01*
X106788073Y-95885877D02*
X106835692Y-95933496D01*
X106835692Y-95933496D02*
X106883311Y-96028734D01*
X106883311Y-96028734D02*
X106883311Y-96171591D01*
X106883311Y-96171591D02*
X106835692Y-96266829D01*
X106835692Y-96266829D02*
X106788073Y-96314448D01*
X106788073Y-96314448D02*
X106692835Y-96362067D01*
X106692835Y-96362067D02*
X106311883Y-96362067D01*
X107311883Y-96314448D02*
X107645216Y-96314448D01*
X107788073Y-96838258D02*
X107311883Y-96838258D01*
X107311883Y-96838258D02*
X107311883Y-95838258D01*
X107311883Y-95838258D02*
X107788073Y-95838258D01*
X108549978Y-96314448D02*
X108216645Y-96314448D01*
X108216645Y-96838258D02*
X108216645Y-95838258D01*
X108216645Y-95838258D02*
X108692835Y-95838258D01*
X109216645Y-95838258D02*
X109216645Y-96076353D01*
X108978550Y-95981115D02*
X109216645Y-96076353D01*
X109216645Y-96076353D02*
X109454740Y-95981115D01*
X109073788Y-96266829D02*
X109216645Y-96076353D01*
X109216645Y-96076353D02*
X109359502Y-96266829D01*
X109978550Y-95838258D02*
X109978550Y-96076353D01*
X109740455Y-95981115D02*
X109978550Y-96076353D01*
X109978550Y-96076353D02*
X110216645Y-95981115D01*
X109835693Y-96266829D02*
X109978550Y-96076353D01*
X109978550Y-96076353D02*
X110121407Y-96266829D01*
X183526169Y-46138258D02*
X183526169Y-45138258D01*
X183526169Y-45138258D02*
X183859502Y-45852543D01*
X183859502Y-45852543D02*
X184192835Y-45138258D01*
X184192835Y-45138258D02*
X184192835Y-46138258D01*
X184811883Y-46138258D02*
X184716645Y-46090639D01*
X184716645Y-46090639D02*
X184669026Y-46043019D01*
X184669026Y-46043019D02*
X184621407Y-45947781D01*
X184621407Y-45947781D02*
X184621407Y-45662067D01*
X184621407Y-45662067D02*
X184669026Y-45566829D01*
X184669026Y-45566829D02*
X184716645Y-45519210D01*
X184716645Y-45519210D02*
X184811883Y-45471591D01*
X184811883Y-45471591D02*
X184954740Y-45471591D01*
X184954740Y-45471591D02*
X185049978Y-45519210D01*
X185049978Y-45519210D02*
X185097597Y-45566829D01*
X185097597Y-45566829D02*
X185145216Y-45662067D01*
X185145216Y-45662067D02*
X185145216Y-45947781D01*
X185145216Y-45947781D02*
X185097597Y-46043019D01*
X185097597Y-46043019D02*
X185049978Y-46090639D01*
X185049978Y-46090639D02*
X184954740Y-46138258D01*
X184954740Y-46138258D02*
X184811883Y-46138258D01*
X186002359Y-45471591D02*
X186002359Y-46138258D01*
X185573788Y-45471591D02*
X185573788Y-45995400D01*
X185573788Y-45995400D02*
X185621407Y-46090639D01*
X185621407Y-46090639D02*
X185716645Y-46138258D01*
X185716645Y-46138258D02*
X185859502Y-46138258D01*
X185859502Y-46138258D02*
X185954740Y-46090639D01*
X185954740Y-46090639D02*
X186002359Y-46043019D01*
X186478550Y-45471591D02*
X186478550Y-46138258D01*
X186478550Y-45566829D02*
X186526169Y-45519210D01*
X186526169Y-45519210D02*
X186621407Y-45471591D01*
X186621407Y-45471591D02*
X186764264Y-45471591D01*
X186764264Y-45471591D02*
X186859502Y-45519210D01*
X186859502Y-45519210D02*
X186907121Y-45614448D01*
X186907121Y-45614448D02*
X186907121Y-46138258D01*
X187240455Y-45471591D02*
X187621407Y-45471591D01*
X187383312Y-45138258D02*
X187383312Y-45995400D01*
X187383312Y-45995400D02*
X187430931Y-46090639D01*
X187430931Y-46090639D02*
X187526169Y-46138258D01*
X187526169Y-46138258D02*
X187621407Y-46138258D01*
X187954741Y-46138258D02*
X187954741Y-45471591D01*
X187954741Y-45138258D02*
X187907122Y-45185877D01*
X187907122Y-45185877D02*
X187954741Y-45233496D01*
X187954741Y-45233496D02*
X188002360Y-45185877D01*
X188002360Y-45185877D02*
X187954741Y-45138258D01*
X187954741Y-45138258D02*
X187954741Y-45233496D01*
X188430931Y-45471591D02*
X188430931Y-46138258D01*
X188430931Y-45566829D02*
X188478550Y-45519210D01*
X188478550Y-45519210D02*
X188573788Y-45471591D01*
X188573788Y-45471591D02*
X188716645Y-45471591D01*
X188716645Y-45471591D02*
X188811883Y-45519210D01*
X188811883Y-45519210D02*
X188859502Y-45614448D01*
X188859502Y-45614448D02*
X188859502Y-46138258D01*
X189764264Y-45471591D02*
X189764264Y-46281115D01*
X189764264Y-46281115D02*
X189716645Y-46376353D01*
X189716645Y-46376353D02*
X189669026Y-46423972D01*
X189669026Y-46423972D02*
X189573788Y-46471591D01*
X189573788Y-46471591D02*
X189430931Y-46471591D01*
X189430931Y-46471591D02*
X189335693Y-46423972D01*
X189764264Y-46090639D02*
X189669026Y-46138258D01*
X189669026Y-46138258D02*
X189478550Y-46138258D01*
X189478550Y-46138258D02*
X189383312Y-46090639D01*
X189383312Y-46090639D02*
X189335693Y-46043019D01*
X189335693Y-46043019D02*
X189288074Y-45947781D01*
X189288074Y-45947781D02*
X189288074Y-45662067D01*
X189288074Y-45662067D02*
X189335693Y-45566829D01*
X189335693Y-45566829D02*
X189383312Y-45519210D01*
X189383312Y-45519210D02*
X189478550Y-45471591D01*
X189478550Y-45471591D02*
X189669026Y-45471591D01*
X189669026Y-45471591D02*
X189764264Y-45519210D01*
X190240455Y-46138258D02*
X190240455Y-45138258D01*
X190240455Y-45614448D02*
X190811883Y-45614448D01*
X190811883Y-46138258D02*
X190811883Y-45138258D01*
X191430931Y-46138258D02*
X191335693Y-46090639D01*
X191335693Y-46090639D02*
X191288074Y-46043019D01*
X191288074Y-46043019D02*
X191240455Y-45947781D01*
X191240455Y-45947781D02*
X191240455Y-45662067D01*
X191240455Y-45662067D02*
X191288074Y-45566829D01*
X191288074Y-45566829D02*
X191335693Y-45519210D01*
X191335693Y-45519210D02*
X191430931Y-45471591D01*
X191430931Y-45471591D02*
X191573788Y-45471591D01*
X191573788Y-45471591D02*
X191669026Y-45519210D01*
X191669026Y-45519210D02*
X191716645Y-45566829D01*
X191716645Y-45566829D02*
X191764264Y-45662067D01*
X191764264Y-45662067D02*
X191764264Y-45947781D01*
X191764264Y-45947781D02*
X191716645Y-46043019D01*
X191716645Y-46043019D02*
X191669026Y-46090639D01*
X191669026Y-46090639D02*
X191573788Y-46138258D01*
X191573788Y-46138258D02*
X191430931Y-46138258D01*
X192335693Y-46138258D02*
X192240455Y-46090639D01*
X192240455Y-46090639D02*
X192192836Y-45995400D01*
X192192836Y-45995400D02*
X192192836Y-45138258D01*
X193097598Y-46090639D02*
X193002360Y-46138258D01*
X193002360Y-46138258D02*
X192811884Y-46138258D01*
X192811884Y-46138258D02*
X192716646Y-46090639D01*
X192716646Y-46090639D02*
X192669027Y-45995400D01*
X192669027Y-45995400D02*
X192669027Y-45614448D01*
X192669027Y-45614448D02*
X192716646Y-45519210D01*
X192716646Y-45519210D02*
X192811884Y-45471591D01*
X192811884Y-45471591D02*
X193002360Y-45471591D01*
X193002360Y-45471591D02*
X193097598Y-45519210D01*
X193097598Y-45519210D02*
X193145217Y-45614448D01*
X193145217Y-45614448D02*
X193145217Y-45709686D01*
X193145217Y-45709686D02*
X192669027Y-45804924D01*
X193335694Y-46233496D02*
X194097598Y-46233496D01*
X194288075Y-45233496D02*
X194335694Y-45185877D01*
X194335694Y-45185877D02*
X194430932Y-45138258D01*
X194430932Y-45138258D02*
X194669027Y-45138258D01*
X194669027Y-45138258D02*
X194764265Y-45185877D01*
X194764265Y-45185877D02*
X194811884Y-45233496D01*
X194811884Y-45233496D02*
X194859503Y-45328734D01*
X194859503Y-45328734D02*
X194859503Y-45423972D01*
X194859503Y-45423972D02*
X194811884Y-45566829D01*
X194811884Y-45566829D02*
X194240456Y-46138258D01*
X194240456Y-46138258D02*
X194859503Y-46138258D01*
X195288075Y-46043019D02*
X195335694Y-46090639D01*
X195335694Y-46090639D02*
X195288075Y-46138258D01*
X195288075Y-46138258D02*
X195240456Y-46090639D01*
X195240456Y-46090639D02*
X195288075Y-46043019D01*
X195288075Y-46043019D02*
X195288075Y-46138258D01*
X195669027Y-45138258D02*
X196335693Y-45138258D01*
X196335693Y-45138258D02*
X195907122Y-46138258D01*
X196716646Y-46138258D02*
X196716646Y-45471591D01*
X196716646Y-45566829D02*
X196764265Y-45519210D01*
X196764265Y-45519210D02*
X196859503Y-45471591D01*
X196859503Y-45471591D02*
X197002360Y-45471591D01*
X197002360Y-45471591D02*
X197097598Y-45519210D01*
X197097598Y-45519210D02*
X197145217Y-45614448D01*
X197145217Y-45614448D02*
X197145217Y-46138258D01*
X197145217Y-45614448D02*
X197192836Y-45519210D01*
X197192836Y-45519210D02*
X197288074Y-45471591D01*
X197288074Y-45471591D02*
X197430931Y-45471591D01*
X197430931Y-45471591D02*
X197526170Y-45519210D01*
X197526170Y-45519210D02*
X197573789Y-45614448D01*
X197573789Y-45614448D02*
X197573789Y-46138258D01*
X198049979Y-46138258D02*
X198049979Y-45471591D01*
X198049979Y-45566829D02*
X198097598Y-45519210D01*
X198097598Y-45519210D02*
X198192836Y-45471591D01*
X198192836Y-45471591D02*
X198335693Y-45471591D01*
X198335693Y-45471591D02*
X198430931Y-45519210D01*
X198430931Y-45519210D02*
X198478550Y-45614448D01*
X198478550Y-45614448D02*
X198478550Y-46138258D01*
X198478550Y-45614448D02*
X198526169Y-45519210D01*
X198526169Y-45519210D02*
X198621407Y-45471591D01*
X198621407Y-45471591D02*
X198764264Y-45471591D01*
X198764264Y-45471591D02*
X198859503Y-45519210D01*
X198859503Y-45519210D02*
X198907122Y-45614448D01*
X198907122Y-45614448D02*
X198907122Y-46138258D01*
X199145217Y-46233496D02*
X199907121Y-46233496D01*
X200145217Y-46138258D02*
X200145217Y-45138258D01*
X200145217Y-45138258D02*
X200478550Y-45852543D01*
X200478550Y-45852543D02*
X200811883Y-45138258D01*
X200811883Y-45138258D02*
X200811883Y-46138258D01*
X201240455Y-45233496D02*
X201288074Y-45185877D01*
X201288074Y-45185877D02*
X201383312Y-45138258D01*
X201383312Y-45138258D02*
X201621407Y-45138258D01*
X201621407Y-45138258D02*
X201716645Y-45185877D01*
X201716645Y-45185877D02*
X201764264Y-45233496D01*
X201764264Y-45233496D02*
X201811883Y-45328734D01*
X201811883Y-45328734D02*
X201811883Y-45423972D01*
X201811883Y-45423972D02*
X201764264Y-45566829D01*
X201764264Y-45566829D02*
X201192836Y-46138258D01*
X201192836Y-46138258D02*
X201811883Y-46138258D01*
X202240455Y-46043019D02*
X202288074Y-46090639D01*
X202288074Y-46090639D02*
X202240455Y-46138258D01*
X202240455Y-46138258D02*
X202192836Y-46090639D01*
X202192836Y-46090639D02*
X202240455Y-46043019D01*
X202240455Y-46043019D02*
X202240455Y-46138258D01*
X203192835Y-45138258D02*
X202716645Y-45138258D01*
X202716645Y-45138258D02*
X202669026Y-45614448D01*
X202669026Y-45614448D02*
X202716645Y-45566829D01*
X202716645Y-45566829D02*
X202811883Y-45519210D01*
X202811883Y-45519210D02*
X203049978Y-45519210D01*
X203049978Y-45519210D02*
X203145216Y-45566829D01*
X203145216Y-45566829D02*
X203192835Y-45614448D01*
X203192835Y-45614448D02*
X203240454Y-45709686D01*
X203240454Y-45709686D02*
X203240454Y-45947781D01*
X203240454Y-45947781D02*
X203192835Y-46043019D01*
X203192835Y-46043019D02*
X203145216Y-46090639D01*
X203145216Y-46090639D02*
X203049978Y-46138258D01*
X203049978Y-46138258D02*
X202811883Y-46138258D01*
X202811883Y-46138258D02*
X202716645Y-46090639D01*
X202716645Y-46090639D02*
X202669026Y-46043019D01*
X203430931Y-46233496D02*
X204192835Y-46233496D01*
X204430931Y-46138258D02*
X204430931Y-45138258D01*
X204430931Y-45138258D02*
X204669026Y-45138258D01*
X204669026Y-45138258D02*
X204811883Y-45185877D01*
X204811883Y-45185877D02*
X204907121Y-45281115D01*
X204907121Y-45281115D02*
X204954740Y-45376353D01*
X204954740Y-45376353D02*
X205002359Y-45566829D01*
X205002359Y-45566829D02*
X205002359Y-45709686D01*
X205002359Y-45709686D02*
X204954740Y-45900162D01*
X204954740Y-45900162D02*
X204907121Y-45995400D01*
X204907121Y-45995400D02*
X204811883Y-46090639D01*
X204811883Y-46090639D02*
X204669026Y-46138258D01*
X204669026Y-46138258D02*
X204430931Y-46138258D01*
X205430931Y-46138258D02*
X205430931Y-45138258D01*
X205907121Y-46138258D02*
X205907121Y-45138258D01*
X205907121Y-45138258D02*
X206478549Y-46138258D01*
X206478549Y-46138258D02*
X206478549Y-45138258D01*
X207002359Y-46138258D02*
X207192835Y-46138258D01*
X207192835Y-46138258D02*
X207288073Y-46090639D01*
X207288073Y-46090639D02*
X207335692Y-46043019D01*
X207335692Y-46043019D02*
X207430930Y-45900162D01*
X207430930Y-45900162D02*
X207478549Y-45709686D01*
X207478549Y-45709686D02*
X207478549Y-45328734D01*
X207478549Y-45328734D02*
X207430930Y-45233496D01*
X207430930Y-45233496D02*
X207383311Y-45185877D01*
X207383311Y-45185877D02*
X207288073Y-45138258D01*
X207288073Y-45138258D02*
X207097597Y-45138258D01*
X207097597Y-45138258D02*
X207002359Y-45185877D01*
X207002359Y-45185877D02*
X206954740Y-45233496D01*
X206954740Y-45233496D02*
X206907121Y-45328734D01*
X206907121Y-45328734D02*
X206907121Y-45566829D01*
X206907121Y-45566829D02*
X206954740Y-45662067D01*
X206954740Y-45662067D02*
X207002359Y-45709686D01*
X207002359Y-45709686D02*
X207097597Y-45757305D01*
X207097597Y-45757305D02*
X207288073Y-45757305D01*
X207288073Y-45757305D02*
X207383311Y-45709686D01*
X207383311Y-45709686D02*
X207430930Y-45662067D01*
X207430930Y-45662067D02*
X207478549Y-45566829D01*
X208335692Y-45138258D02*
X208145216Y-45138258D01*
X208145216Y-45138258D02*
X208049978Y-45185877D01*
X208049978Y-45185877D02*
X208002359Y-45233496D01*
X208002359Y-45233496D02*
X207907121Y-45376353D01*
X207907121Y-45376353D02*
X207859502Y-45566829D01*
X207859502Y-45566829D02*
X207859502Y-45947781D01*
X207859502Y-45947781D02*
X207907121Y-46043019D01*
X207907121Y-46043019D02*
X207954740Y-46090639D01*
X207954740Y-46090639D02*
X208049978Y-46138258D01*
X208049978Y-46138258D02*
X208240454Y-46138258D01*
X208240454Y-46138258D02*
X208335692Y-46090639D01*
X208335692Y-46090639D02*
X208383311Y-46043019D01*
X208383311Y-46043019D02*
X208430930Y-45947781D01*
X208430930Y-45947781D02*
X208430930Y-45709686D01*
X208430930Y-45709686D02*
X208383311Y-45614448D01*
X208383311Y-45614448D02*
X208335692Y-45566829D01*
X208335692Y-45566829D02*
X208240454Y-45519210D01*
X208240454Y-45519210D02*
X208049978Y-45519210D01*
X208049978Y-45519210D02*
X207954740Y-45566829D01*
X207954740Y-45566829D02*
X207907121Y-45614448D01*
X207907121Y-45614448D02*
X207859502Y-45709686D01*
X209335692Y-45138258D02*
X208859502Y-45138258D01*
X208859502Y-45138258D02*
X208811883Y-45614448D01*
X208811883Y-45614448D02*
X208859502Y-45566829D01*
X208859502Y-45566829D02*
X208954740Y-45519210D01*
X208954740Y-45519210D02*
X209192835Y-45519210D01*
X209192835Y-45519210D02*
X209288073Y-45566829D01*
X209288073Y-45566829D02*
X209335692Y-45614448D01*
X209335692Y-45614448D02*
X209383311Y-45709686D01*
X209383311Y-45709686D02*
X209383311Y-45947781D01*
X209383311Y-45947781D02*
X209335692Y-46043019D01*
X209335692Y-46043019D02*
X209288073Y-46090639D01*
X209288073Y-46090639D02*
X209192835Y-46138258D01*
X209192835Y-46138258D02*
X208954740Y-46138258D01*
X208954740Y-46138258D02*
X208859502Y-46090639D01*
X208859502Y-46090639D02*
X208811883Y-46043019D01*
X209573788Y-46233496D02*
X210335692Y-46233496D01*
X210573788Y-46138258D02*
X210573788Y-45138258D01*
X210573788Y-45138258D02*
X210954740Y-45138258D01*
X210954740Y-45138258D02*
X211049978Y-45185877D01*
X211049978Y-45185877D02*
X211097597Y-45233496D01*
X211097597Y-45233496D02*
X211145216Y-45328734D01*
X211145216Y-45328734D02*
X211145216Y-45471591D01*
X211145216Y-45471591D02*
X211097597Y-45566829D01*
X211097597Y-45566829D02*
X211049978Y-45614448D01*
X211049978Y-45614448D02*
X210954740Y-45662067D01*
X210954740Y-45662067D02*
X210573788Y-45662067D01*
X212002359Y-46138258D02*
X212002359Y-45614448D01*
X212002359Y-45614448D02*
X211954740Y-45519210D01*
X211954740Y-45519210D02*
X211859502Y-45471591D01*
X211859502Y-45471591D02*
X211669026Y-45471591D01*
X211669026Y-45471591D02*
X211573788Y-45519210D01*
X212002359Y-46090639D02*
X211907121Y-46138258D01*
X211907121Y-46138258D02*
X211669026Y-46138258D01*
X211669026Y-46138258D02*
X211573788Y-46090639D01*
X211573788Y-46090639D02*
X211526169Y-45995400D01*
X211526169Y-45995400D02*
X211526169Y-45900162D01*
X211526169Y-45900162D02*
X211573788Y-45804924D01*
X211573788Y-45804924D02*
X211669026Y-45757305D01*
X211669026Y-45757305D02*
X211907121Y-45757305D01*
X211907121Y-45757305D02*
X212002359Y-45709686D01*
X212907121Y-46138258D02*
X212907121Y-45138258D01*
X212907121Y-46090639D02*
X212811883Y-46138258D01*
X212811883Y-46138258D02*
X212621407Y-46138258D01*
X212621407Y-46138258D02*
X212526169Y-46090639D01*
X212526169Y-46090639D02*
X212478550Y-46043019D01*
X212478550Y-46043019D02*
X212430931Y-45947781D01*
X212430931Y-45947781D02*
X212430931Y-45662067D01*
X212430931Y-45662067D02*
X212478550Y-45566829D01*
X212478550Y-45566829D02*
X212526169Y-45519210D01*
X212526169Y-45519210D02*
X212621407Y-45471591D01*
X212621407Y-45471591D02*
X212811883Y-45471591D01*
X212811883Y-45471591D02*
X212907121Y-45519210D01*
X196883311Y-42838258D02*
X196549978Y-42362067D01*
X196311883Y-42838258D02*
X196311883Y-41838258D01*
X196311883Y-41838258D02*
X196692835Y-41838258D01*
X196692835Y-41838258D02*
X196788073Y-41885877D01*
X196788073Y-41885877D02*
X196835692Y-41933496D01*
X196835692Y-41933496D02*
X196883311Y-42028734D01*
X196883311Y-42028734D02*
X196883311Y-42171591D01*
X196883311Y-42171591D02*
X196835692Y-42266829D01*
X196835692Y-42266829D02*
X196788073Y-42314448D01*
X196788073Y-42314448D02*
X196692835Y-42362067D01*
X196692835Y-42362067D02*
X196311883Y-42362067D01*
X197311883Y-42314448D02*
X197645216Y-42314448D01*
X197788073Y-42838258D02*
X197311883Y-42838258D01*
X197311883Y-42838258D02*
X197311883Y-41838258D01*
X197311883Y-41838258D02*
X197788073Y-41838258D01*
X198549978Y-42314448D02*
X198216645Y-42314448D01*
X198216645Y-42838258D02*
X198216645Y-41838258D01*
X198216645Y-41838258D02*
X198692835Y-41838258D01*
X199216645Y-41838258D02*
X199216645Y-42076353D01*
X198978550Y-41981115D02*
X199216645Y-42076353D01*
X199216645Y-42076353D02*
X199454740Y-41981115D01*
X199073788Y-42266829D02*
X199216645Y-42076353D01*
X199216645Y-42076353D02*
X199359502Y-42266829D01*
X199978550Y-41838258D02*
X199978550Y-42076353D01*
X199740455Y-41981115D02*
X199978550Y-42076353D01*
X199978550Y-42076353D02*
X200216645Y-41981115D01*
X199835693Y-42266829D02*
X199978550Y-42076353D01*
X199978550Y-42076353D02*
X200121407Y-42266829D01*
X121870714Y-51974700D02*
X122013571Y-52022319D01*
X122013571Y-52022319D02*
X122251666Y-52022319D01*
X122251666Y-52022319D02*
X122346904Y-51974700D01*
X122346904Y-51974700D02*
X122394523Y-51927080D01*
X122394523Y-51927080D02*
X122442142Y-51831842D01*
X122442142Y-51831842D02*
X122442142Y-51736604D01*
X122442142Y-51736604D02*
X122394523Y-51641366D01*
X122394523Y-51641366D02*
X122346904Y-51593747D01*
X122346904Y-51593747D02*
X122251666Y-51546128D01*
X122251666Y-51546128D02*
X122061190Y-51498509D01*
X122061190Y-51498509D02*
X121965952Y-51450890D01*
X121965952Y-51450890D02*
X121918333Y-51403271D01*
X121918333Y-51403271D02*
X121870714Y-51308033D01*
X121870714Y-51308033D02*
X121870714Y-51212795D01*
X121870714Y-51212795D02*
X121918333Y-51117557D01*
X121918333Y-51117557D02*
X121965952Y-51069938D01*
X121965952Y-51069938D02*
X122061190Y-51022319D01*
X122061190Y-51022319D02*
X122299285Y-51022319D01*
X122299285Y-51022319D02*
X122442142Y-51069938D01*
X122775476Y-51022319D02*
X123013571Y-52022319D01*
X123013571Y-52022319D02*
X123204047Y-51308033D01*
X123204047Y-51308033D02*
X123394523Y-52022319D01*
X123394523Y-52022319D02*
X123632619Y-51022319D01*
X123775476Y-52117557D02*
X124537380Y-52117557D01*
X124775476Y-52022319D02*
X124775476Y-51022319D01*
X124775476Y-51022319D02*
X125013571Y-51022319D01*
X125013571Y-51022319D02*
X125156428Y-51069938D01*
X125156428Y-51069938D02*
X125251666Y-51165176D01*
X125251666Y-51165176D02*
X125299285Y-51260414D01*
X125299285Y-51260414D02*
X125346904Y-51450890D01*
X125346904Y-51450890D02*
X125346904Y-51593747D01*
X125346904Y-51593747D02*
X125299285Y-51784223D01*
X125299285Y-51784223D02*
X125251666Y-51879461D01*
X125251666Y-51879461D02*
X125156428Y-51974700D01*
X125156428Y-51974700D02*
X125013571Y-52022319D01*
X125013571Y-52022319D02*
X124775476Y-52022319D01*
X125775476Y-52022319D02*
X125775476Y-51022319D01*
X126251666Y-52022319D02*
X126251666Y-51022319D01*
X126251666Y-51022319D02*
X126632618Y-51022319D01*
X126632618Y-51022319D02*
X126727856Y-51069938D01*
X126727856Y-51069938D02*
X126775475Y-51117557D01*
X126775475Y-51117557D02*
X126823094Y-51212795D01*
X126823094Y-51212795D02*
X126823094Y-51355652D01*
X126823094Y-51355652D02*
X126775475Y-51450890D01*
X126775475Y-51450890D02*
X126727856Y-51498509D01*
X126727856Y-51498509D02*
X126632618Y-51546128D01*
X126632618Y-51546128D02*
X126251666Y-51546128D01*
X127013571Y-52117557D02*
X127775475Y-52117557D01*
X127918333Y-52022319D02*
X128442142Y-51355652D01*
X127918333Y-51355652D02*
X128442142Y-52022319D01*
X129013571Y-51022319D02*
X129108809Y-51022319D01*
X129108809Y-51022319D02*
X129204047Y-51069938D01*
X129204047Y-51069938D02*
X129251666Y-51117557D01*
X129251666Y-51117557D02*
X129299285Y-51212795D01*
X129299285Y-51212795D02*
X129346904Y-51403271D01*
X129346904Y-51403271D02*
X129346904Y-51641366D01*
X129346904Y-51641366D02*
X129299285Y-51831842D01*
X129299285Y-51831842D02*
X129251666Y-51927080D01*
X129251666Y-51927080D02*
X129204047Y-51974700D01*
X129204047Y-51974700D02*
X129108809Y-52022319D01*
X129108809Y-52022319D02*
X129013571Y-52022319D01*
X129013571Y-52022319D02*
X128918333Y-51974700D01*
X128918333Y-51974700D02*
X128870714Y-51927080D01*
X128870714Y-51927080D02*
X128823095Y-51831842D01*
X128823095Y-51831842D02*
X128775476Y-51641366D01*
X128775476Y-51641366D02*
X128775476Y-51403271D01*
X128775476Y-51403271D02*
X128823095Y-51212795D01*
X128823095Y-51212795D02*
X128870714Y-51117557D01*
X128870714Y-51117557D02*
X128918333Y-51069938D01*
X128918333Y-51069938D02*
X129013571Y-51022319D01*
X130299285Y-52022319D02*
X129727857Y-52022319D01*
X130013571Y-52022319D02*
X130013571Y-51022319D01*
X130013571Y-51022319D02*
X129918333Y-51165176D01*
X129918333Y-51165176D02*
X129823095Y-51260414D01*
X129823095Y-51260414D02*
X129727857Y-51308033D01*
D11*
X123749320Y-55477500D02*
X123777891Y-55391786D01*
X123777891Y-55391786D02*
X123777891Y-55248928D01*
X123777891Y-55248928D02*
X123749320Y-55191786D01*
X123749320Y-55191786D02*
X123720748Y-55163214D01*
X123720748Y-55163214D02*
X123663605Y-55134643D01*
X123663605Y-55134643D02*
X123606462Y-55134643D01*
X123606462Y-55134643D02*
X123549320Y-55163214D01*
X123549320Y-55163214D02*
X123520748Y-55191786D01*
X123520748Y-55191786D02*
X123492177Y-55248928D01*
X123492177Y-55248928D02*
X123463605Y-55363214D01*
X123463605Y-55363214D02*
X123435034Y-55420357D01*
X123435034Y-55420357D02*
X123406462Y-55448928D01*
X123406462Y-55448928D02*
X123349320Y-55477500D01*
X123349320Y-55477500D02*
X123292177Y-55477500D01*
X123292177Y-55477500D02*
X123235034Y-55448928D01*
X123235034Y-55448928D02*
X123206462Y-55420357D01*
X123206462Y-55420357D02*
X123177891Y-55363214D01*
X123177891Y-55363214D02*
X123177891Y-55220357D01*
X123177891Y-55220357D02*
X123206462Y-55134643D01*
X123177891Y-54934642D02*
X123777891Y-54791785D01*
X123777891Y-54791785D02*
X123349320Y-54677499D01*
X123349320Y-54677499D02*
X123777891Y-54563214D01*
X123777891Y-54563214D02*
X123177891Y-54420357D01*
X123777891Y-53877500D02*
X123777891Y-54220357D01*
X123777891Y-54048928D02*
X123177891Y-54048928D01*
X123177891Y-54048928D02*
X123263605Y-54106071D01*
X123263605Y-54106071D02*
X123320748Y-54163214D01*
X123320748Y-54163214D02*
X123349320Y-54220357D01*
X125095714Y-56292891D02*
X125038571Y-56264320D01*
X125038571Y-56264320D02*
X125010000Y-56235748D01*
X125010000Y-56235748D02*
X124981428Y-56178605D01*
X124981428Y-56178605D02*
X124981428Y-56007177D01*
X124981428Y-56007177D02*
X125010000Y-55950034D01*
X125010000Y-55950034D02*
X125038571Y-55921462D01*
X125038571Y-55921462D02*
X125095714Y-55892891D01*
X125095714Y-55892891D02*
X125181428Y-55892891D01*
X125181428Y-55892891D02*
X125238571Y-55921462D01*
X125238571Y-55921462D02*
X125267143Y-55950034D01*
X125267143Y-55950034D02*
X125295714Y-56007177D01*
X125295714Y-56007177D02*
X125295714Y-56178605D01*
X125295714Y-56178605D02*
X125267143Y-56235748D01*
X125267143Y-56235748D02*
X125238571Y-56264320D01*
X125238571Y-56264320D02*
X125181428Y-56292891D01*
X125181428Y-56292891D02*
X125095714Y-56292891D01*
X125552857Y-55892891D02*
X125552857Y-56292891D01*
X125552857Y-55950034D02*
X125581428Y-55921462D01*
X125581428Y-55921462D02*
X125638571Y-55892891D01*
X125638571Y-55892891D02*
X125724285Y-55892891D01*
X125724285Y-55892891D02*
X125781428Y-55921462D01*
X125781428Y-55921462D02*
X125810000Y-55978605D01*
X125810000Y-55978605D02*
X125810000Y-56292891D01*
D10*
X206469104Y-77084761D02*
X206469104Y-76608571D01*
X206754819Y-77179999D02*
X205754819Y-76846666D01*
X205754819Y-76846666D02*
X206754819Y-76513333D01*
X205754819Y-76275237D02*
X206754819Y-75608571D01*
X205754819Y-75608571D02*
X206754819Y-76275237D01*
X206754819Y-75227618D02*
X205754819Y-75227618D01*
X206231009Y-75227618D02*
X206231009Y-74656190D01*
X206754819Y-74656190D02*
X205754819Y-74656190D01*
X206373866Y-74179999D02*
X206373866Y-73418095D01*
X205754819Y-73037142D02*
X205754819Y-72418095D01*
X205754819Y-72418095D02*
X206135771Y-72751428D01*
X206135771Y-72751428D02*
X206135771Y-72608571D01*
X206135771Y-72608571D02*
X206183390Y-72513333D01*
X206183390Y-72513333D02*
X206231009Y-72465714D01*
X206231009Y-72465714D02*
X206326247Y-72418095D01*
X206326247Y-72418095D02*
X206564342Y-72418095D01*
X206564342Y-72418095D02*
X206659580Y-72465714D01*
X206659580Y-72465714D02*
X206707200Y-72513333D01*
X206707200Y-72513333D02*
X206754819Y-72608571D01*
X206754819Y-72608571D02*
X206754819Y-72894285D01*
X206754819Y-72894285D02*
X206707200Y-72989523D01*
X206707200Y-72989523D02*
X206659580Y-73037142D01*
X206469104Y-72037142D02*
X206469104Y-71560952D01*
X206754819Y-72132380D02*
X205754819Y-71799047D01*
X205754819Y-71799047D02*
X206754819Y-71465714D01*
X205754819Y-71227618D02*
X206754819Y-70989523D01*
X206754819Y-70989523D02*
X206040533Y-70799047D01*
X206040533Y-70799047D02*
X206754819Y-70608571D01*
X206754819Y-70608571D02*
X205754819Y-70370476D01*
X206373866Y-69989523D02*
X206373866Y-69227619D01*
X206754819Y-68227619D02*
X206754819Y-68799047D01*
X206754819Y-68513333D02*
X205754819Y-68513333D01*
X205754819Y-68513333D02*
X205897676Y-68608571D01*
X205897676Y-68608571D02*
X205992914Y-68703809D01*
X205992914Y-68703809D02*
X206040533Y-68799047D01*
X206754819Y-67275238D02*
X206754819Y-67846666D01*
X206754819Y-67560952D02*
X205754819Y-67560952D01*
X205754819Y-67560952D02*
X205897676Y-67656190D01*
X205897676Y-67656190D02*
X205992914Y-67751428D01*
X205992914Y-67751428D02*
X206040533Y-67846666D01*
X201709580Y-72870476D02*
X201757200Y-72918095D01*
X201757200Y-72918095D02*
X201804819Y-73060952D01*
X201804819Y-73060952D02*
X201804819Y-73156190D01*
X201804819Y-73156190D02*
X201757200Y-73299047D01*
X201757200Y-73299047D02*
X201661961Y-73394285D01*
X201661961Y-73394285D02*
X201566723Y-73441904D01*
X201566723Y-73441904D02*
X201376247Y-73489523D01*
X201376247Y-73489523D02*
X201233390Y-73489523D01*
X201233390Y-73489523D02*
X201042914Y-73441904D01*
X201042914Y-73441904D02*
X200947676Y-73394285D01*
X200947676Y-73394285D02*
X200852438Y-73299047D01*
X200852438Y-73299047D02*
X200804819Y-73156190D01*
X200804819Y-73156190D02*
X200804819Y-73060952D01*
X200804819Y-73060952D02*
X200852438Y-72918095D01*
X200852438Y-72918095D02*
X200900057Y-72870476D01*
X201804819Y-72441904D02*
X200804819Y-72441904D01*
X200804819Y-72441904D02*
X201804819Y-71870476D01*
X201804819Y-71870476D02*
X200804819Y-71870476D01*
X200900057Y-71441904D02*
X200852438Y-71394285D01*
X200852438Y-71394285D02*
X200804819Y-71299047D01*
X200804819Y-71299047D02*
X200804819Y-71060952D01*
X200804819Y-71060952D02*
X200852438Y-70965714D01*
X200852438Y-70965714D02*
X200900057Y-70918095D01*
X200900057Y-70918095D02*
X200995295Y-70870476D01*
X200995295Y-70870476D02*
X201090533Y-70870476D01*
X201090533Y-70870476D02*
X201233390Y-70918095D01*
X201233390Y-70918095D02*
X201804819Y-71489523D01*
X201804819Y-71489523D02*
X201804819Y-70870476D01*
X183526169Y-86138258D02*
X183526169Y-85138258D01*
X183526169Y-85138258D02*
X183859502Y-85852543D01*
X183859502Y-85852543D02*
X184192835Y-85138258D01*
X184192835Y-85138258D02*
X184192835Y-86138258D01*
X184811883Y-86138258D02*
X184716645Y-86090639D01*
X184716645Y-86090639D02*
X184669026Y-86043019D01*
X184669026Y-86043019D02*
X184621407Y-85947781D01*
X184621407Y-85947781D02*
X184621407Y-85662067D01*
X184621407Y-85662067D02*
X184669026Y-85566829D01*
X184669026Y-85566829D02*
X184716645Y-85519210D01*
X184716645Y-85519210D02*
X184811883Y-85471591D01*
X184811883Y-85471591D02*
X184954740Y-85471591D01*
X184954740Y-85471591D02*
X185049978Y-85519210D01*
X185049978Y-85519210D02*
X185097597Y-85566829D01*
X185097597Y-85566829D02*
X185145216Y-85662067D01*
X185145216Y-85662067D02*
X185145216Y-85947781D01*
X185145216Y-85947781D02*
X185097597Y-86043019D01*
X185097597Y-86043019D02*
X185049978Y-86090639D01*
X185049978Y-86090639D02*
X184954740Y-86138258D01*
X184954740Y-86138258D02*
X184811883Y-86138258D01*
X186002359Y-85471591D02*
X186002359Y-86138258D01*
X185573788Y-85471591D02*
X185573788Y-85995400D01*
X185573788Y-85995400D02*
X185621407Y-86090639D01*
X185621407Y-86090639D02*
X185716645Y-86138258D01*
X185716645Y-86138258D02*
X185859502Y-86138258D01*
X185859502Y-86138258D02*
X185954740Y-86090639D01*
X185954740Y-86090639D02*
X186002359Y-86043019D01*
X186478550Y-85471591D02*
X186478550Y-86138258D01*
X186478550Y-85566829D02*
X186526169Y-85519210D01*
X186526169Y-85519210D02*
X186621407Y-85471591D01*
X186621407Y-85471591D02*
X186764264Y-85471591D01*
X186764264Y-85471591D02*
X186859502Y-85519210D01*
X186859502Y-85519210D02*
X186907121Y-85614448D01*
X186907121Y-85614448D02*
X186907121Y-86138258D01*
X187240455Y-85471591D02*
X187621407Y-85471591D01*
X187383312Y-85138258D02*
X187383312Y-85995400D01*
X187383312Y-85995400D02*
X187430931Y-86090639D01*
X187430931Y-86090639D02*
X187526169Y-86138258D01*
X187526169Y-86138258D02*
X187621407Y-86138258D01*
X187954741Y-86138258D02*
X187954741Y-85471591D01*
X187954741Y-85138258D02*
X187907122Y-85185877D01*
X187907122Y-85185877D02*
X187954741Y-85233496D01*
X187954741Y-85233496D02*
X188002360Y-85185877D01*
X188002360Y-85185877D02*
X187954741Y-85138258D01*
X187954741Y-85138258D02*
X187954741Y-85233496D01*
X188430931Y-85471591D02*
X188430931Y-86138258D01*
X188430931Y-85566829D02*
X188478550Y-85519210D01*
X188478550Y-85519210D02*
X188573788Y-85471591D01*
X188573788Y-85471591D02*
X188716645Y-85471591D01*
X188716645Y-85471591D02*
X188811883Y-85519210D01*
X188811883Y-85519210D02*
X188859502Y-85614448D01*
X188859502Y-85614448D02*
X188859502Y-86138258D01*
X189764264Y-85471591D02*
X189764264Y-86281115D01*
X189764264Y-86281115D02*
X189716645Y-86376353D01*
X189716645Y-86376353D02*
X189669026Y-86423972D01*
X189669026Y-86423972D02*
X189573788Y-86471591D01*
X189573788Y-86471591D02*
X189430931Y-86471591D01*
X189430931Y-86471591D02*
X189335693Y-86423972D01*
X189764264Y-86090639D02*
X189669026Y-86138258D01*
X189669026Y-86138258D02*
X189478550Y-86138258D01*
X189478550Y-86138258D02*
X189383312Y-86090639D01*
X189383312Y-86090639D02*
X189335693Y-86043019D01*
X189335693Y-86043019D02*
X189288074Y-85947781D01*
X189288074Y-85947781D02*
X189288074Y-85662067D01*
X189288074Y-85662067D02*
X189335693Y-85566829D01*
X189335693Y-85566829D02*
X189383312Y-85519210D01*
X189383312Y-85519210D02*
X189478550Y-85471591D01*
X189478550Y-85471591D02*
X189669026Y-85471591D01*
X189669026Y-85471591D02*
X189764264Y-85519210D01*
X190240455Y-86138258D02*
X190240455Y-85138258D01*
X190240455Y-85614448D02*
X190811883Y-85614448D01*
X190811883Y-86138258D02*
X190811883Y-85138258D01*
X191430931Y-86138258D02*
X191335693Y-86090639D01*
X191335693Y-86090639D02*
X191288074Y-86043019D01*
X191288074Y-86043019D02*
X191240455Y-85947781D01*
X191240455Y-85947781D02*
X191240455Y-85662067D01*
X191240455Y-85662067D02*
X191288074Y-85566829D01*
X191288074Y-85566829D02*
X191335693Y-85519210D01*
X191335693Y-85519210D02*
X191430931Y-85471591D01*
X191430931Y-85471591D02*
X191573788Y-85471591D01*
X191573788Y-85471591D02*
X191669026Y-85519210D01*
X191669026Y-85519210D02*
X191716645Y-85566829D01*
X191716645Y-85566829D02*
X191764264Y-85662067D01*
X191764264Y-85662067D02*
X191764264Y-85947781D01*
X191764264Y-85947781D02*
X191716645Y-86043019D01*
X191716645Y-86043019D02*
X191669026Y-86090639D01*
X191669026Y-86090639D02*
X191573788Y-86138258D01*
X191573788Y-86138258D02*
X191430931Y-86138258D01*
X192335693Y-86138258D02*
X192240455Y-86090639D01*
X192240455Y-86090639D02*
X192192836Y-85995400D01*
X192192836Y-85995400D02*
X192192836Y-85138258D01*
X193097598Y-86090639D02*
X193002360Y-86138258D01*
X193002360Y-86138258D02*
X192811884Y-86138258D01*
X192811884Y-86138258D02*
X192716646Y-86090639D01*
X192716646Y-86090639D02*
X192669027Y-85995400D01*
X192669027Y-85995400D02*
X192669027Y-85614448D01*
X192669027Y-85614448D02*
X192716646Y-85519210D01*
X192716646Y-85519210D02*
X192811884Y-85471591D01*
X192811884Y-85471591D02*
X193002360Y-85471591D01*
X193002360Y-85471591D02*
X193097598Y-85519210D01*
X193097598Y-85519210D02*
X193145217Y-85614448D01*
X193145217Y-85614448D02*
X193145217Y-85709686D01*
X193145217Y-85709686D02*
X192669027Y-85804924D01*
X193335694Y-86233496D02*
X194097598Y-86233496D01*
X194288075Y-85233496D02*
X194335694Y-85185877D01*
X194335694Y-85185877D02*
X194430932Y-85138258D01*
X194430932Y-85138258D02*
X194669027Y-85138258D01*
X194669027Y-85138258D02*
X194764265Y-85185877D01*
X194764265Y-85185877D02*
X194811884Y-85233496D01*
X194811884Y-85233496D02*
X194859503Y-85328734D01*
X194859503Y-85328734D02*
X194859503Y-85423972D01*
X194859503Y-85423972D02*
X194811884Y-85566829D01*
X194811884Y-85566829D02*
X194240456Y-86138258D01*
X194240456Y-86138258D02*
X194859503Y-86138258D01*
X195288075Y-86043019D02*
X195335694Y-86090639D01*
X195335694Y-86090639D02*
X195288075Y-86138258D01*
X195288075Y-86138258D02*
X195240456Y-86090639D01*
X195240456Y-86090639D02*
X195288075Y-86043019D01*
X195288075Y-86043019D02*
X195288075Y-86138258D01*
X195669027Y-85138258D02*
X196335693Y-85138258D01*
X196335693Y-85138258D02*
X195907122Y-86138258D01*
X196716646Y-86138258D02*
X196716646Y-85471591D01*
X196716646Y-85566829D02*
X196764265Y-85519210D01*
X196764265Y-85519210D02*
X196859503Y-85471591D01*
X196859503Y-85471591D02*
X197002360Y-85471591D01*
X197002360Y-85471591D02*
X197097598Y-85519210D01*
X197097598Y-85519210D02*
X197145217Y-85614448D01*
X197145217Y-85614448D02*
X197145217Y-86138258D01*
X197145217Y-85614448D02*
X197192836Y-85519210D01*
X197192836Y-85519210D02*
X197288074Y-85471591D01*
X197288074Y-85471591D02*
X197430931Y-85471591D01*
X197430931Y-85471591D02*
X197526170Y-85519210D01*
X197526170Y-85519210D02*
X197573789Y-85614448D01*
X197573789Y-85614448D02*
X197573789Y-86138258D01*
X198049979Y-86138258D02*
X198049979Y-85471591D01*
X198049979Y-85566829D02*
X198097598Y-85519210D01*
X198097598Y-85519210D02*
X198192836Y-85471591D01*
X198192836Y-85471591D02*
X198335693Y-85471591D01*
X198335693Y-85471591D02*
X198430931Y-85519210D01*
X198430931Y-85519210D02*
X198478550Y-85614448D01*
X198478550Y-85614448D02*
X198478550Y-86138258D01*
X198478550Y-85614448D02*
X198526169Y-85519210D01*
X198526169Y-85519210D02*
X198621407Y-85471591D01*
X198621407Y-85471591D02*
X198764264Y-85471591D01*
X198764264Y-85471591D02*
X198859503Y-85519210D01*
X198859503Y-85519210D02*
X198907122Y-85614448D01*
X198907122Y-85614448D02*
X198907122Y-86138258D01*
X199145217Y-86233496D02*
X199907121Y-86233496D01*
X200145217Y-86138258D02*
X200145217Y-85138258D01*
X200145217Y-85138258D02*
X200478550Y-85852543D01*
X200478550Y-85852543D02*
X200811883Y-85138258D01*
X200811883Y-85138258D02*
X200811883Y-86138258D01*
X201240455Y-85233496D02*
X201288074Y-85185877D01*
X201288074Y-85185877D02*
X201383312Y-85138258D01*
X201383312Y-85138258D02*
X201621407Y-85138258D01*
X201621407Y-85138258D02*
X201716645Y-85185877D01*
X201716645Y-85185877D02*
X201764264Y-85233496D01*
X201764264Y-85233496D02*
X201811883Y-85328734D01*
X201811883Y-85328734D02*
X201811883Y-85423972D01*
X201811883Y-85423972D02*
X201764264Y-85566829D01*
X201764264Y-85566829D02*
X201192836Y-86138258D01*
X201192836Y-86138258D02*
X201811883Y-86138258D01*
X202240455Y-86043019D02*
X202288074Y-86090639D01*
X202288074Y-86090639D02*
X202240455Y-86138258D01*
X202240455Y-86138258D02*
X202192836Y-86090639D01*
X202192836Y-86090639D02*
X202240455Y-86043019D01*
X202240455Y-86043019D02*
X202240455Y-86138258D01*
X203192835Y-85138258D02*
X202716645Y-85138258D01*
X202716645Y-85138258D02*
X202669026Y-85614448D01*
X202669026Y-85614448D02*
X202716645Y-85566829D01*
X202716645Y-85566829D02*
X202811883Y-85519210D01*
X202811883Y-85519210D02*
X203049978Y-85519210D01*
X203049978Y-85519210D02*
X203145216Y-85566829D01*
X203145216Y-85566829D02*
X203192835Y-85614448D01*
X203192835Y-85614448D02*
X203240454Y-85709686D01*
X203240454Y-85709686D02*
X203240454Y-85947781D01*
X203240454Y-85947781D02*
X203192835Y-86043019D01*
X203192835Y-86043019D02*
X203145216Y-86090639D01*
X203145216Y-86090639D02*
X203049978Y-86138258D01*
X203049978Y-86138258D02*
X202811883Y-86138258D01*
X202811883Y-86138258D02*
X202716645Y-86090639D01*
X202716645Y-86090639D02*
X202669026Y-86043019D01*
X203430931Y-86233496D02*
X204192835Y-86233496D01*
X204430931Y-86138258D02*
X204430931Y-85138258D01*
X204430931Y-85138258D02*
X204669026Y-85138258D01*
X204669026Y-85138258D02*
X204811883Y-85185877D01*
X204811883Y-85185877D02*
X204907121Y-85281115D01*
X204907121Y-85281115D02*
X204954740Y-85376353D01*
X204954740Y-85376353D02*
X205002359Y-85566829D01*
X205002359Y-85566829D02*
X205002359Y-85709686D01*
X205002359Y-85709686D02*
X204954740Y-85900162D01*
X204954740Y-85900162D02*
X204907121Y-85995400D01*
X204907121Y-85995400D02*
X204811883Y-86090639D01*
X204811883Y-86090639D02*
X204669026Y-86138258D01*
X204669026Y-86138258D02*
X204430931Y-86138258D01*
X205430931Y-86138258D02*
X205430931Y-85138258D01*
X205907121Y-86138258D02*
X205907121Y-85138258D01*
X205907121Y-85138258D02*
X206478549Y-86138258D01*
X206478549Y-86138258D02*
X206478549Y-85138258D01*
X207002359Y-86138258D02*
X207192835Y-86138258D01*
X207192835Y-86138258D02*
X207288073Y-86090639D01*
X207288073Y-86090639D02*
X207335692Y-86043019D01*
X207335692Y-86043019D02*
X207430930Y-85900162D01*
X207430930Y-85900162D02*
X207478549Y-85709686D01*
X207478549Y-85709686D02*
X207478549Y-85328734D01*
X207478549Y-85328734D02*
X207430930Y-85233496D01*
X207430930Y-85233496D02*
X207383311Y-85185877D01*
X207383311Y-85185877D02*
X207288073Y-85138258D01*
X207288073Y-85138258D02*
X207097597Y-85138258D01*
X207097597Y-85138258D02*
X207002359Y-85185877D01*
X207002359Y-85185877D02*
X206954740Y-85233496D01*
X206954740Y-85233496D02*
X206907121Y-85328734D01*
X206907121Y-85328734D02*
X206907121Y-85566829D01*
X206907121Y-85566829D02*
X206954740Y-85662067D01*
X206954740Y-85662067D02*
X207002359Y-85709686D01*
X207002359Y-85709686D02*
X207097597Y-85757305D01*
X207097597Y-85757305D02*
X207288073Y-85757305D01*
X207288073Y-85757305D02*
X207383311Y-85709686D01*
X207383311Y-85709686D02*
X207430930Y-85662067D01*
X207430930Y-85662067D02*
X207478549Y-85566829D01*
X208335692Y-85138258D02*
X208145216Y-85138258D01*
X208145216Y-85138258D02*
X208049978Y-85185877D01*
X208049978Y-85185877D02*
X208002359Y-85233496D01*
X208002359Y-85233496D02*
X207907121Y-85376353D01*
X207907121Y-85376353D02*
X207859502Y-85566829D01*
X207859502Y-85566829D02*
X207859502Y-85947781D01*
X207859502Y-85947781D02*
X207907121Y-86043019D01*
X207907121Y-86043019D02*
X207954740Y-86090639D01*
X207954740Y-86090639D02*
X208049978Y-86138258D01*
X208049978Y-86138258D02*
X208240454Y-86138258D01*
X208240454Y-86138258D02*
X208335692Y-86090639D01*
X208335692Y-86090639D02*
X208383311Y-86043019D01*
X208383311Y-86043019D02*
X208430930Y-85947781D01*
X208430930Y-85947781D02*
X208430930Y-85709686D01*
X208430930Y-85709686D02*
X208383311Y-85614448D01*
X208383311Y-85614448D02*
X208335692Y-85566829D01*
X208335692Y-85566829D02*
X208240454Y-85519210D01*
X208240454Y-85519210D02*
X208049978Y-85519210D01*
X208049978Y-85519210D02*
X207954740Y-85566829D01*
X207954740Y-85566829D02*
X207907121Y-85614448D01*
X207907121Y-85614448D02*
X207859502Y-85709686D01*
X209335692Y-85138258D02*
X208859502Y-85138258D01*
X208859502Y-85138258D02*
X208811883Y-85614448D01*
X208811883Y-85614448D02*
X208859502Y-85566829D01*
X208859502Y-85566829D02*
X208954740Y-85519210D01*
X208954740Y-85519210D02*
X209192835Y-85519210D01*
X209192835Y-85519210D02*
X209288073Y-85566829D01*
X209288073Y-85566829D02*
X209335692Y-85614448D01*
X209335692Y-85614448D02*
X209383311Y-85709686D01*
X209383311Y-85709686D02*
X209383311Y-85947781D01*
X209383311Y-85947781D02*
X209335692Y-86043019D01*
X209335692Y-86043019D02*
X209288073Y-86090639D01*
X209288073Y-86090639D02*
X209192835Y-86138258D01*
X209192835Y-86138258D02*
X208954740Y-86138258D01*
X208954740Y-86138258D02*
X208859502Y-86090639D01*
X208859502Y-86090639D02*
X208811883Y-86043019D01*
X209573788Y-86233496D02*
X210335692Y-86233496D01*
X210573788Y-86138258D02*
X210573788Y-85138258D01*
X210573788Y-85138258D02*
X210954740Y-85138258D01*
X210954740Y-85138258D02*
X211049978Y-85185877D01*
X211049978Y-85185877D02*
X211097597Y-85233496D01*
X211097597Y-85233496D02*
X211145216Y-85328734D01*
X211145216Y-85328734D02*
X211145216Y-85471591D01*
X211145216Y-85471591D02*
X211097597Y-85566829D01*
X211097597Y-85566829D02*
X211049978Y-85614448D01*
X211049978Y-85614448D02*
X210954740Y-85662067D01*
X210954740Y-85662067D02*
X210573788Y-85662067D01*
X212002359Y-86138258D02*
X212002359Y-85614448D01*
X212002359Y-85614448D02*
X211954740Y-85519210D01*
X211954740Y-85519210D02*
X211859502Y-85471591D01*
X211859502Y-85471591D02*
X211669026Y-85471591D01*
X211669026Y-85471591D02*
X211573788Y-85519210D01*
X212002359Y-86090639D02*
X211907121Y-86138258D01*
X211907121Y-86138258D02*
X211669026Y-86138258D01*
X211669026Y-86138258D02*
X211573788Y-86090639D01*
X211573788Y-86090639D02*
X211526169Y-85995400D01*
X211526169Y-85995400D02*
X211526169Y-85900162D01*
X211526169Y-85900162D02*
X211573788Y-85804924D01*
X211573788Y-85804924D02*
X211669026Y-85757305D01*
X211669026Y-85757305D02*
X211907121Y-85757305D01*
X211907121Y-85757305D02*
X212002359Y-85709686D01*
X212907121Y-86138258D02*
X212907121Y-85138258D01*
X212907121Y-86090639D02*
X212811883Y-86138258D01*
X212811883Y-86138258D02*
X212621407Y-86138258D01*
X212621407Y-86138258D02*
X212526169Y-86090639D01*
X212526169Y-86090639D02*
X212478550Y-86043019D01*
X212478550Y-86043019D02*
X212430931Y-85947781D01*
X212430931Y-85947781D02*
X212430931Y-85662067D01*
X212430931Y-85662067D02*
X212478550Y-85566829D01*
X212478550Y-85566829D02*
X212526169Y-85519210D01*
X212526169Y-85519210D02*
X212621407Y-85471591D01*
X212621407Y-85471591D02*
X212811883Y-85471591D01*
X212811883Y-85471591D02*
X212907121Y-85519210D01*
X196883311Y-82838258D02*
X196549978Y-82362067D01*
X196311883Y-82838258D02*
X196311883Y-81838258D01*
X196311883Y-81838258D02*
X196692835Y-81838258D01*
X196692835Y-81838258D02*
X196788073Y-81885877D01*
X196788073Y-81885877D02*
X196835692Y-81933496D01*
X196835692Y-81933496D02*
X196883311Y-82028734D01*
X196883311Y-82028734D02*
X196883311Y-82171591D01*
X196883311Y-82171591D02*
X196835692Y-82266829D01*
X196835692Y-82266829D02*
X196788073Y-82314448D01*
X196788073Y-82314448D02*
X196692835Y-82362067D01*
X196692835Y-82362067D02*
X196311883Y-82362067D01*
X197311883Y-82314448D02*
X197645216Y-82314448D01*
X197788073Y-82838258D02*
X197311883Y-82838258D01*
X197311883Y-82838258D02*
X197311883Y-81838258D01*
X197311883Y-81838258D02*
X197788073Y-81838258D01*
X198549978Y-82314448D02*
X198216645Y-82314448D01*
X198216645Y-82838258D02*
X198216645Y-81838258D01*
X198216645Y-81838258D02*
X198692835Y-81838258D01*
X199216645Y-81838258D02*
X199216645Y-82076353D01*
X198978550Y-81981115D02*
X199216645Y-82076353D01*
X199216645Y-82076353D02*
X199454740Y-81981115D01*
X199073788Y-82266829D02*
X199216645Y-82076353D01*
X199216645Y-82076353D02*
X199359502Y-82266829D01*
X199978550Y-81838258D02*
X199978550Y-82076353D01*
X199740455Y-81981115D02*
X199978550Y-82076353D01*
X199978550Y-82076353D02*
X200216645Y-81981115D01*
X199835693Y-82266829D02*
X199978550Y-82076353D01*
X199978550Y-82076353D02*
X200121407Y-82266829D01*
X170249580Y-75189524D02*
X170297200Y-75237143D01*
X170297200Y-75237143D02*
X170344819Y-75380000D01*
X170344819Y-75380000D02*
X170344819Y-75475238D01*
X170344819Y-75475238D02*
X170297200Y-75618095D01*
X170297200Y-75618095D02*
X170201961Y-75713333D01*
X170201961Y-75713333D02*
X170106723Y-75760952D01*
X170106723Y-75760952D02*
X169916247Y-75808571D01*
X169916247Y-75808571D02*
X169773390Y-75808571D01*
X169773390Y-75808571D02*
X169582914Y-75760952D01*
X169582914Y-75760952D02*
X169487676Y-75713333D01*
X169487676Y-75713333D02*
X169392438Y-75618095D01*
X169392438Y-75618095D02*
X169344819Y-75475238D01*
X169344819Y-75475238D02*
X169344819Y-75380000D01*
X169344819Y-75380000D02*
X169392438Y-75237143D01*
X169392438Y-75237143D02*
X169440057Y-75189524D01*
X170344819Y-74618095D02*
X170297200Y-74713333D01*
X170297200Y-74713333D02*
X170249580Y-74760952D01*
X170249580Y-74760952D02*
X170154342Y-74808571D01*
X170154342Y-74808571D02*
X169868628Y-74808571D01*
X169868628Y-74808571D02*
X169773390Y-74760952D01*
X169773390Y-74760952D02*
X169725771Y-74713333D01*
X169725771Y-74713333D02*
X169678152Y-74618095D01*
X169678152Y-74618095D02*
X169678152Y-74475238D01*
X169678152Y-74475238D02*
X169725771Y-74380000D01*
X169725771Y-74380000D02*
X169773390Y-74332381D01*
X169773390Y-74332381D02*
X169868628Y-74284762D01*
X169868628Y-74284762D02*
X170154342Y-74284762D01*
X170154342Y-74284762D02*
X170249580Y-74332381D01*
X170249580Y-74332381D02*
X170297200Y-74380000D01*
X170297200Y-74380000D02*
X170344819Y-74475238D01*
X170344819Y-74475238D02*
X170344819Y-74618095D01*
X169678152Y-73856190D02*
X170344819Y-73856190D01*
X169773390Y-73856190D02*
X169725771Y-73808571D01*
X169725771Y-73808571D02*
X169678152Y-73713333D01*
X169678152Y-73713333D02*
X169678152Y-73570476D01*
X169678152Y-73570476D02*
X169725771Y-73475238D01*
X169725771Y-73475238D02*
X169821009Y-73427619D01*
X169821009Y-73427619D02*
X170344819Y-73427619D01*
X169678152Y-72951428D02*
X170344819Y-72951428D01*
X169773390Y-72951428D02*
X169725771Y-72903809D01*
X169725771Y-72903809D02*
X169678152Y-72808571D01*
X169678152Y-72808571D02*
X169678152Y-72665714D01*
X169678152Y-72665714D02*
X169725771Y-72570476D01*
X169725771Y-72570476D02*
X169821009Y-72522857D01*
X169821009Y-72522857D02*
X170344819Y-72522857D01*
X170440057Y-72284762D02*
X170440057Y-71522857D01*
X169344819Y-71094285D02*
X169344819Y-70999047D01*
X169344819Y-70999047D02*
X169392438Y-70903809D01*
X169392438Y-70903809D02*
X169440057Y-70856190D01*
X169440057Y-70856190D02*
X169535295Y-70808571D01*
X169535295Y-70808571D02*
X169725771Y-70760952D01*
X169725771Y-70760952D02*
X169963866Y-70760952D01*
X169963866Y-70760952D02*
X170154342Y-70808571D01*
X170154342Y-70808571D02*
X170249580Y-70856190D01*
X170249580Y-70856190D02*
X170297200Y-70903809D01*
X170297200Y-70903809D02*
X170344819Y-70999047D01*
X170344819Y-70999047D02*
X170344819Y-71094285D01*
X170344819Y-71094285D02*
X170297200Y-71189523D01*
X170297200Y-71189523D02*
X170249580Y-71237142D01*
X170249580Y-71237142D02*
X170154342Y-71284761D01*
X170154342Y-71284761D02*
X169963866Y-71332380D01*
X169963866Y-71332380D02*
X169725771Y-71332380D01*
X169725771Y-71332380D02*
X169535295Y-71284761D01*
X169535295Y-71284761D02*
X169440057Y-71237142D01*
X169440057Y-71237142D02*
X169392438Y-71189523D01*
X169392438Y-71189523D02*
X169344819Y-71094285D01*
X170344819Y-69808571D02*
X170344819Y-70379999D01*
X170344819Y-70094285D02*
X169344819Y-70094285D01*
X169344819Y-70094285D02*
X169487676Y-70189523D01*
X169487676Y-70189523D02*
X169582914Y-70284761D01*
X169582914Y-70284761D02*
X169630533Y-70379999D01*
X170344819Y-69475237D02*
X169678152Y-68951428D01*
X169678152Y-69475237D02*
X170344819Y-68951428D01*
X169344819Y-68379999D02*
X169344819Y-68284761D01*
X169344819Y-68284761D02*
X169392438Y-68189523D01*
X169392438Y-68189523D02*
X169440057Y-68141904D01*
X169440057Y-68141904D02*
X169535295Y-68094285D01*
X169535295Y-68094285D02*
X169725771Y-68046666D01*
X169725771Y-68046666D02*
X169963866Y-68046666D01*
X169963866Y-68046666D02*
X170154342Y-68094285D01*
X170154342Y-68094285D02*
X170249580Y-68141904D01*
X170249580Y-68141904D02*
X170297200Y-68189523D01*
X170297200Y-68189523D02*
X170344819Y-68284761D01*
X170344819Y-68284761D02*
X170344819Y-68379999D01*
X170344819Y-68379999D02*
X170297200Y-68475237D01*
X170297200Y-68475237D02*
X170249580Y-68522856D01*
X170249580Y-68522856D02*
X170154342Y-68570475D01*
X170154342Y-68570475D02*
X169963866Y-68618094D01*
X169963866Y-68618094D02*
X169725771Y-68618094D01*
X169725771Y-68618094D02*
X169535295Y-68570475D01*
X169535295Y-68570475D02*
X169440057Y-68522856D01*
X169440057Y-68522856D02*
X169392438Y-68475237D01*
X169392438Y-68475237D02*
X169344819Y-68379999D01*
X169344819Y-67141904D02*
X169344819Y-67618094D01*
X169344819Y-67618094D02*
X169821009Y-67665713D01*
X169821009Y-67665713D02*
X169773390Y-67618094D01*
X169773390Y-67618094D02*
X169725771Y-67522856D01*
X169725771Y-67522856D02*
X169725771Y-67284761D01*
X169725771Y-67284761D02*
X169773390Y-67189523D01*
X169773390Y-67189523D02*
X169821009Y-67141904D01*
X169821009Y-67141904D02*
X169916247Y-67094285D01*
X169916247Y-67094285D02*
X170154342Y-67094285D01*
X170154342Y-67094285D02*
X170249580Y-67141904D01*
X170249580Y-67141904D02*
X170297200Y-67189523D01*
X170297200Y-67189523D02*
X170344819Y-67284761D01*
X170344819Y-67284761D02*
X170344819Y-67522856D01*
X170344819Y-67522856D02*
X170297200Y-67618094D01*
X170297200Y-67618094D02*
X170249580Y-67665713D01*
X170440057Y-66903809D02*
X170440057Y-66141904D01*
X170344819Y-65903808D02*
X169344819Y-65903808D01*
X169344819Y-65903808D02*
X169344819Y-65522856D01*
X169344819Y-65522856D02*
X169392438Y-65427618D01*
X169392438Y-65427618D02*
X169440057Y-65379999D01*
X169440057Y-65379999D02*
X169535295Y-65332380D01*
X169535295Y-65332380D02*
X169678152Y-65332380D01*
X169678152Y-65332380D02*
X169773390Y-65379999D01*
X169773390Y-65379999D02*
X169821009Y-65427618D01*
X169821009Y-65427618D02*
X169868628Y-65522856D01*
X169868628Y-65522856D02*
X169868628Y-65903808D01*
X170344819Y-64903808D02*
X169678152Y-64903808D01*
X169344819Y-64903808D02*
X169392438Y-64951427D01*
X169392438Y-64951427D02*
X169440057Y-64903808D01*
X169440057Y-64903808D02*
X169392438Y-64856189D01*
X169392438Y-64856189D02*
X169344819Y-64903808D01*
X169344819Y-64903808D02*
X169440057Y-64903808D01*
X169678152Y-64427618D02*
X170344819Y-64427618D01*
X169773390Y-64427618D02*
X169725771Y-64379999D01*
X169725771Y-64379999D02*
X169678152Y-64284761D01*
X169678152Y-64284761D02*
X169678152Y-64141904D01*
X169678152Y-64141904D02*
X169725771Y-64046666D01*
X169725771Y-64046666D02*
X169821009Y-63999047D01*
X169821009Y-63999047D02*
X170344819Y-63999047D01*
X173894819Y-72141904D02*
X172894819Y-72141904D01*
X172894819Y-72141904D02*
X172894819Y-71760952D01*
X172894819Y-71760952D02*
X172942438Y-71665714D01*
X172942438Y-71665714D02*
X172990057Y-71618095D01*
X172990057Y-71618095D02*
X173085295Y-71570476D01*
X173085295Y-71570476D02*
X173228152Y-71570476D01*
X173228152Y-71570476D02*
X173323390Y-71618095D01*
X173323390Y-71618095D02*
X173371009Y-71665714D01*
X173371009Y-71665714D02*
X173418628Y-71760952D01*
X173418628Y-71760952D02*
X173418628Y-72141904D01*
X173894819Y-70570476D02*
X173418628Y-70903809D01*
X173894819Y-71141904D02*
X172894819Y-71141904D01*
X172894819Y-71141904D02*
X172894819Y-70760952D01*
X172894819Y-70760952D02*
X172942438Y-70665714D01*
X172942438Y-70665714D02*
X172990057Y-70618095D01*
X172990057Y-70618095D02*
X173085295Y-70570476D01*
X173085295Y-70570476D02*
X173228152Y-70570476D01*
X173228152Y-70570476D02*
X173323390Y-70618095D01*
X173323390Y-70618095D02*
X173371009Y-70665714D01*
X173371009Y-70665714D02*
X173418628Y-70760952D01*
X173418628Y-70760952D02*
X173418628Y-71141904D01*
X172894819Y-69951428D02*
X172894819Y-69760952D01*
X172894819Y-69760952D02*
X172942438Y-69665714D01*
X172942438Y-69665714D02*
X173037676Y-69570476D01*
X173037676Y-69570476D02*
X173228152Y-69522857D01*
X173228152Y-69522857D02*
X173561485Y-69522857D01*
X173561485Y-69522857D02*
X173751961Y-69570476D01*
X173751961Y-69570476D02*
X173847200Y-69665714D01*
X173847200Y-69665714D02*
X173894819Y-69760952D01*
X173894819Y-69760952D02*
X173894819Y-69951428D01*
X173894819Y-69951428D02*
X173847200Y-70046666D01*
X173847200Y-70046666D02*
X173751961Y-70141904D01*
X173751961Y-70141904D02*
X173561485Y-70189523D01*
X173561485Y-70189523D02*
X173228152Y-70189523D01*
X173228152Y-70189523D02*
X173037676Y-70141904D01*
X173037676Y-70141904D02*
X172942438Y-70046666D01*
X172942438Y-70046666D02*
X172894819Y-69951428D01*
X172942438Y-68570476D02*
X172894819Y-68665714D01*
X172894819Y-68665714D02*
X172894819Y-68808571D01*
X172894819Y-68808571D02*
X172942438Y-68951428D01*
X172942438Y-68951428D02*
X173037676Y-69046666D01*
X173037676Y-69046666D02*
X173132914Y-69094285D01*
X173132914Y-69094285D02*
X173323390Y-69141904D01*
X173323390Y-69141904D02*
X173466247Y-69141904D01*
X173466247Y-69141904D02*
X173656723Y-69094285D01*
X173656723Y-69094285D02*
X173751961Y-69046666D01*
X173751961Y-69046666D02*
X173847200Y-68951428D01*
X173847200Y-68951428D02*
X173894819Y-68808571D01*
X173894819Y-68808571D02*
X173894819Y-68713333D01*
X173894819Y-68713333D02*
X173847200Y-68570476D01*
X173847200Y-68570476D02*
X173799580Y-68522857D01*
X173799580Y-68522857D02*
X173466247Y-68522857D01*
X173466247Y-68522857D02*
X173466247Y-68713333D01*
X173894819Y-67570476D02*
X173894819Y-68141904D01*
X173894819Y-67856190D02*
X172894819Y-67856190D01*
X172894819Y-67856190D02*
X173037676Y-67951428D01*
X173037676Y-67951428D02*
X173132914Y-68046666D01*
X173132914Y-68046666D02*
X173180533Y-68141904D01*
X191833333Y-60654819D02*
X192404761Y-60654819D01*
X192119047Y-61654819D02*
X192119047Y-60654819D01*
X192690476Y-61607200D02*
X192833333Y-61654819D01*
X192833333Y-61654819D02*
X193071428Y-61654819D01*
X193071428Y-61654819D02*
X193166666Y-61607200D01*
X193166666Y-61607200D02*
X193214285Y-61559580D01*
X193214285Y-61559580D02*
X193261904Y-61464342D01*
X193261904Y-61464342D02*
X193261904Y-61369104D01*
X193261904Y-61369104D02*
X193214285Y-61273866D01*
X193214285Y-61273866D02*
X193166666Y-61226247D01*
X193166666Y-61226247D02*
X193071428Y-61178628D01*
X193071428Y-61178628D02*
X192880952Y-61131009D01*
X192880952Y-61131009D02*
X192785714Y-61083390D01*
X192785714Y-61083390D02*
X192738095Y-61035771D01*
X192738095Y-61035771D02*
X192690476Y-60940533D01*
X192690476Y-60940533D02*
X192690476Y-60845295D01*
X192690476Y-60845295D02*
X192738095Y-60750057D01*
X192738095Y-60750057D02*
X192785714Y-60702438D01*
X192785714Y-60702438D02*
X192880952Y-60654819D01*
X192880952Y-60654819D02*
X193119047Y-60654819D01*
X193119047Y-60654819D02*
X193261904Y-60702438D01*
X193690476Y-61273866D02*
X194452381Y-61273866D01*
X195357142Y-60654819D02*
X195166666Y-60654819D01*
X195166666Y-60654819D02*
X195071428Y-60702438D01*
X195071428Y-60702438D02*
X195023809Y-60750057D01*
X195023809Y-60750057D02*
X194928571Y-60892914D01*
X194928571Y-60892914D02*
X194880952Y-61083390D01*
X194880952Y-61083390D02*
X194880952Y-61464342D01*
X194880952Y-61464342D02*
X194928571Y-61559580D01*
X194928571Y-61559580D02*
X194976190Y-61607200D01*
X194976190Y-61607200D02*
X195071428Y-61654819D01*
X195071428Y-61654819D02*
X195261904Y-61654819D01*
X195261904Y-61654819D02*
X195357142Y-61607200D01*
X195357142Y-61607200D02*
X195404761Y-61559580D01*
X195404761Y-61559580D02*
X195452380Y-61464342D01*
X195452380Y-61464342D02*
X195452380Y-61226247D01*
X195452380Y-61226247D02*
X195404761Y-61131009D01*
X195404761Y-61131009D02*
X195357142Y-61083390D01*
X195357142Y-61083390D02*
X195261904Y-61035771D01*
X195261904Y-61035771D02*
X195071428Y-61035771D01*
X195071428Y-61035771D02*
X194976190Y-61083390D01*
X194976190Y-61083390D02*
X194928571Y-61131009D01*
X194928571Y-61131009D02*
X194880952Y-61226247D01*
X196309523Y-60654819D02*
X196119047Y-60654819D01*
X196119047Y-60654819D02*
X196023809Y-60702438D01*
X196023809Y-60702438D02*
X195976190Y-60750057D01*
X195976190Y-60750057D02*
X195880952Y-60892914D01*
X195880952Y-60892914D02*
X195833333Y-61083390D01*
X195833333Y-61083390D02*
X195833333Y-61464342D01*
X195833333Y-61464342D02*
X195880952Y-61559580D01*
X195880952Y-61559580D02*
X195928571Y-61607200D01*
X195928571Y-61607200D02*
X196023809Y-61654819D01*
X196023809Y-61654819D02*
X196214285Y-61654819D01*
X196214285Y-61654819D02*
X196309523Y-61607200D01*
X196309523Y-61607200D02*
X196357142Y-61559580D01*
X196357142Y-61559580D02*
X196404761Y-61464342D01*
X196404761Y-61464342D02*
X196404761Y-61226247D01*
X196404761Y-61226247D02*
X196357142Y-61131009D01*
X196357142Y-61131009D02*
X196309523Y-61083390D01*
X196309523Y-61083390D02*
X196214285Y-61035771D01*
X196214285Y-61035771D02*
X196023809Y-61035771D01*
X196023809Y-61035771D02*
X195928571Y-61083390D01*
X195928571Y-61083390D02*
X195880952Y-61131009D01*
X195880952Y-61131009D02*
X195833333Y-61226247D01*
X197261904Y-60988152D02*
X197261904Y-61654819D01*
X197023809Y-60607200D02*
X196785714Y-61321485D01*
X196785714Y-61321485D02*
X197404761Y-61321485D01*
X198261904Y-60654819D02*
X197785714Y-60654819D01*
X197785714Y-60654819D02*
X197738095Y-61131009D01*
X197738095Y-61131009D02*
X197785714Y-61083390D01*
X197785714Y-61083390D02*
X197880952Y-61035771D01*
X197880952Y-61035771D02*
X198119047Y-61035771D01*
X198119047Y-61035771D02*
X198214285Y-61083390D01*
X198214285Y-61083390D02*
X198261904Y-61131009D01*
X198261904Y-61131009D02*
X198309523Y-61226247D01*
X198309523Y-61226247D02*
X198309523Y-61464342D01*
X198309523Y-61464342D02*
X198261904Y-61559580D01*
X198261904Y-61559580D02*
X198214285Y-61607200D01*
X198214285Y-61607200D02*
X198119047Y-61654819D01*
X198119047Y-61654819D02*
X197880952Y-61654819D01*
X197880952Y-61654819D02*
X197785714Y-61607200D01*
X197785714Y-61607200D02*
X197738095Y-61559580D01*
X198738095Y-61654819D02*
X198738095Y-60654819D01*
X198738095Y-60654819D02*
X198976190Y-60654819D01*
X198976190Y-60654819D02*
X199119047Y-60702438D01*
X199119047Y-60702438D02*
X199214285Y-60797676D01*
X199214285Y-60797676D02*
X199261904Y-60892914D01*
X199261904Y-60892914D02*
X199309523Y-61083390D01*
X199309523Y-61083390D02*
X199309523Y-61226247D01*
X199309523Y-61226247D02*
X199261904Y-61416723D01*
X199261904Y-61416723D02*
X199214285Y-61511961D01*
X199214285Y-61511961D02*
X199119047Y-61607200D01*
X199119047Y-61607200D02*
X198976190Y-61654819D01*
X198976190Y-61654819D02*
X198738095Y-61654819D01*
X199738095Y-61654819D02*
X199738095Y-60654819D01*
X199738095Y-60654819D02*
X199976190Y-60654819D01*
X199976190Y-60654819D02*
X200119047Y-60702438D01*
X200119047Y-60702438D02*
X200214285Y-60797676D01*
X200214285Y-60797676D02*
X200261904Y-60892914D01*
X200261904Y-60892914D02*
X200309523Y-61083390D01*
X200309523Y-61083390D02*
X200309523Y-61226247D01*
X200309523Y-61226247D02*
X200261904Y-61416723D01*
X200261904Y-61416723D02*
X200214285Y-61511961D01*
X200214285Y-61511961D02*
X200119047Y-61607200D01*
X200119047Y-61607200D02*
X199976190Y-61654819D01*
X199976190Y-61654819D02*
X199738095Y-61654819D01*
X201166666Y-60654819D02*
X200976190Y-60654819D01*
X200976190Y-60654819D02*
X200880952Y-60702438D01*
X200880952Y-60702438D02*
X200833333Y-60750057D01*
X200833333Y-60750057D02*
X200738095Y-60892914D01*
X200738095Y-60892914D02*
X200690476Y-61083390D01*
X200690476Y-61083390D02*
X200690476Y-61464342D01*
X200690476Y-61464342D02*
X200738095Y-61559580D01*
X200738095Y-61559580D02*
X200785714Y-61607200D01*
X200785714Y-61607200D02*
X200880952Y-61654819D01*
X200880952Y-61654819D02*
X201071428Y-61654819D01*
X201071428Y-61654819D02*
X201166666Y-61607200D01*
X201166666Y-61607200D02*
X201214285Y-61559580D01*
X201214285Y-61559580D02*
X201261904Y-61464342D01*
X201261904Y-61464342D02*
X201261904Y-61226247D01*
X201261904Y-61226247D02*
X201214285Y-61131009D01*
X201214285Y-61131009D02*
X201166666Y-61083390D01*
X201166666Y-61083390D02*
X201071428Y-61035771D01*
X201071428Y-61035771D02*
X200880952Y-61035771D01*
X200880952Y-61035771D02*
X200785714Y-61083390D01*
X200785714Y-61083390D02*
X200738095Y-61131009D01*
X200738095Y-61131009D02*
X200690476Y-61226247D01*
X201595238Y-60654819D02*
X202261904Y-61654819D01*
X202261904Y-60654819D02*
X201595238Y-61654819D01*
X203071428Y-60654819D02*
X202880952Y-60654819D01*
X202880952Y-60654819D02*
X202785714Y-60702438D01*
X202785714Y-60702438D02*
X202738095Y-60750057D01*
X202738095Y-60750057D02*
X202642857Y-60892914D01*
X202642857Y-60892914D02*
X202595238Y-61083390D01*
X202595238Y-61083390D02*
X202595238Y-61464342D01*
X202595238Y-61464342D02*
X202642857Y-61559580D01*
X202642857Y-61559580D02*
X202690476Y-61607200D01*
X202690476Y-61607200D02*
X202785714Y-61654819D01*
X202785714Y-61654819D02*
X202976190Y-61654819D01*
X202976190Y-61654819D02*
X203071428Y-61607200D01*
X203071428Y-61607200D02*
X203119047Y-61559580D01*
X203119047Y-61559580D02*
X203166666Y-61464342D01*
X203166666Y-61464342D02*
X203166666Y-61226247D01*
X203166666Y-61226247D02*
X203119047Y-61131009D01*
X203119047Y-61131009D02*
X203071428Y-61083390D01*
X203071428Y-61083390D02*
X202976190Y-61035771D01*
X202976190Y-61035771D02*
X202785714Y-61035771D01*
X202785714Y-61035771D02*
X202690476Y-61083390D01*
X202690476Y-61083390D02*
X202642857Y-61131009D01*
X202642857Y-61131009D02*
X202595238Y-61226247D01*
X203500000Y-60654819D02*
X204166666Y-61654819D01*
X204166666Y-60654819D02*
X203500000Y-61654819D01*
X205023809Y-60654819D02*
X204547619Y-60654819D01*
X204547619Y-60654819D02*
X204500000Y-61131009D01*
X204500000Y-61131009D02*
X204547619Y-61083390D01*
X204547619Y-61083390D02*
X204642857Y-61035771D01*
X204642857Y-61035771D02*
X204880952Y-61035771D01*
X204880952Y-61035771D02*
X204976190Y-61083390D01*
X204976190Y-61083390D02*
X205023809Y-61131009D01*
X205023809Y-61131009D02*
X205071428Y-61226247D01*
X205071428Y-61226247D02*
X205071428Y-61464342D01*
X205071428Y-61464342D02*
X205023809Y-61559580D01*
X205023809Y-61559580D02*
X204976190Y-61607200D01*
X204976190Y-61607200D02*
X204880952Y-61654819D01*
X204880952Y-61654819D02*
X204642857Y-61654819D01*
X204642857Y-61654819D02*
X204547619Y-61607200D01*
X204547619Y-61607200D02*
X204500000Y-61559580D01*
X195047619Y-57157200D02*
X195190476Y-57204819D01*
X195190476Y-57204819D02*
X195428571Y-57204819D01*
X195428571Y-57204819D02*
X195523809Y-57157200D01*
X195523809Y-57157200D02*
X195571428Y-57109580D01*
X195571428Y-57109580D02*
X195619047Y-57014342D01*
X195619047Y-57014342D02*
X195619047Y-56919104D01*
X195619047Y-56919104D02*
X195571428Y-56823866D01*
X195571428Y-56823866D02*
X195523809Y-56776247D01*
X195523809Y-56776247D02*
X195428571Y-56728628D01*
X195428571Y-56728628D02*
X195238095Y-56681009D01*
X195238095Y-56681009D02*
X195142857Y-56633390D01*
X195142857Y-56633390D02*
X195095238Y-56585771D01*
X195095238Y-56585771D02*
X195047619Y-56490533D01*
X195047619Y-56490533D02*
X195047619Y-56395295D01*
X195047619Y-56395295D02*
X195095238Y-56300057D01*
X195095238Y-56300057D02*
X195142857Y-56252438D01*
X195142857Y-56252438D02*
X195238095Y-56204819D01*
X195238095Y-56204819D02*
X195476190Y-56204819D01*
X195476190Y-56204819D02*
X195619047Y-56252438D01*
X196047619Y-56681009D02*
X196380952Y-56681009D01*
X196523809Y-57204819D02*
X196047619Y-57204819D01*
X196047619Y-57204819D02*
X196047619Y-56204819D01*
X196047619Y-56204819D02*
X196523809Y-56204819D01*
X197428571Y-57204819D02*
X196952381Y-57204819D01*
X196952381Y-57204819D02*
X196952381Y-56204819D01*
X197761905Y-56681009D02*
X198095238Y-56681009D01*
X198238095Y-57204819D02*
X197761905Y-57204819D01*
X197761905Y-57204819D02*
X197761905Y-56204819D01*
X197761905Y-56204819D02*
X198238095Y-56204819D01*
X199238095Y-57109580D02*
X199190476Y-57157200D01*
X199190476Y-57157200D02*
X199047619Y-57204819D01*
X199047619Y-57204819D02*
X198952381Y-57204819D01*
X198952381Y-57204819D02*
X198809524Y-57157200D01*
X198809524Y-57157200D02*
X198714286Y-57061961D01*
X198714286Y-57061961D02*
X198666667Y-56966723D01*
X198666667Y-56966723D02*
X198619048Y-56776247D01*
X198619048Y-56776247D02*
X198619048Y-56633390D01*
X198619048Y-56633390D02*
X198666667Y-56442914D01*
X198666667Y-56442914D02*
X198714286Y-56347676D01*
X198714286Y-56347676D02*
X198809524Y-56252438D01*
X198809524Y-56252438D02*
X198952381Y-56204819D01*
X198952381Y-56204819D02*
X199047619Y-56204819D01*
X199047619Y-56204819D02*
X199190476Y-56252438D01*
X199190476Y-56252438D02*
X199238095Y-56300057D01*
X199523810Y-56204819D02*
X200095238Y-56204819D01*
X199809524Y-57204819D02*
X199809524Y-56204819D01*
X200952381Y-57204819D02*
X200380953Y-57204819D01*
X200666667Y-57204819D02*
X200666667Y-56204819D01*
X200666667Y-56204819D02*
X200571429Y-56347676D01*
X200571429Y-56347676D02*
X200476191Y-56442914D01*
X200476191Y-56442914D02*
X200380953Y-56490533D01*
X199855237Y-68394819D02*
X199759999Y-68347200D01*
X199759999Y-68347200D02*
X199712380Y-68251961D01*
X199712380Y-68251961D02*
X199712380Y-67394819D01*
X200617142Y-68347200D02*
X200521904Y-68394819D01*
X200521904Y-68394819D02*
X200331428Y-68394819D01*
X200331428Y-68394819D02*
X200236190Y-68347200D01*
X200236190Y-68347200D02*
X200188571Y-68251961D01*
X200188571Y-68251961D02*
X200188571Y-67871009D01*
X200188571Y-67871009D02*
X200236190Y-67775771D01*
X200236190Y-67775771D02*
X200331428Y-67728152D01*
X200331428Y-67728152D02*
X200521904Y-67728152D01*
X200521904Y-67728152D02*
X200617142Y-67775771D01*
X200617142Y-67775771D02*
X200664761Y-67871009D01*
X200664761Y-67871009D02*
X200664761Y-67966247D01*
X200664761Y-67966247D02*
X200188571Y-68061485D01*
X201521904Y-68394819D02*
X201521904Y-67394819D01*
X201521904Y-68347200D02*
X201426666Y-68394819D01*
X201426666Y-68394819D02*
X201236190Y-68394819D01*
X201236190Y-68394819D02*
X201140952Y-68347200D01*
X201140952Y-68347200D02*
X201093333Y-68299580D01*
X201093333Y-68299580D02*
X201045714Y-68204342D01*
X201045714Y-68204342D02*
X201045714Y-67918628D01*
X201045714Y-67918628D02*
X201093333Y-67823390D01*
X201093333Y-67823390D02*
X201140952Y-67775771D01*
X201140952Y-67775771D02*
X201236190Y-67728152D01*
X201236190Y-67728152D02*
X201426666Y-67728152D01*
X201426666Y-67728152D02*
X201521904Y-67775771D01*
X201950476Y-67490057D02*
X201998095Y-67442438D01*
X201998095Y-67442438D02*
X202093333Y-67394819D01*
X202093333Y-67394819D02*
X202331428Y-67394819D01*
X202331428Y-67394819D02*
X202426666Y-67442438D01*
X202426666Y-67442438D02*
X202474285Y-67490057D01*
X202474285Y-67490057D02*
X202521904Y-67585295D01*
X202521904Y-67585295D02*
X202521904Y-67680533D01*
X202521904Y-67680533D02*
X202474285Y-67823390D01*
X202474285Y-67823390D02*
X201902857Y-68394819D01*
X201902857Y-68394819D02*
X202521904Y-68394819D01*
X202855238Y-67728152D02*
X203379047Y-67728152D01*
X203379047Y-67728152D02*
X202855238Y-68394819D01*
X202855238Y-68394819D02*
X203379047Y-68394819D01*
X203902857Y-68394819D02*
X203807619Y-68347200D01*
X203807619Y-68347200D02*
X203760000Y-68251961D01*
X203760000Y-68251961D02*
X203760000Y-67394819D01*
D12*
X201390952Y-66517149D02*
X201390952Y-66017149D01*
X201390952Y-66017149D02*
X201510000Y-66017149D01*
X201510000Y-66017149D02*
X201581428Y-66040959D01*
X201581428Y-66040959D02*
X201629047Y-66088578D01*
X201629047Y-66088578D02*
X201652857Y-66136197D01*
X201652857Y-66136197D02*
X201676666Y-66231435D01*
X201676666Y-66231435D02*
X201676666Y-66302863D01*
X201676666Y-66302863D02*
X201652857Y-66398101D01*
X201652857Y-66398101D02*
X201629047Y-66445720D01*
X201629047Y-66445720D02*
X201581428Y-66493340D01*
X201581428Y-66493340D02*
X201510000Y-66517149D01*
X201510000Y-66517149D02*
X201390952Y-66517149D01*
X202105238Y-66017149D02*
X202010000Y-66017149D01*
X202010000Y-66017149D02*
X201962381Y-66040959D01*
X201962381Y-66040959D02*
X201938571Y-66064768D01*
X201938571Y-66064768D02*
X201890952Y-66136197D01*
X201890952Y-66136197D02*
X201867143Y-66231435D01*
X201867143Y-66231435D02*
X201867143Y-66421911D01*
X201867143Y-66421911D02*
X201890952Y-66469530D01*
X201890952Y-66469530D02*
X201914762Y-66493340D01*
X201914762Y-66493340D02*
X201962381Y-66517149D01*
X201962381Y-66517149D02*
X202057619Y-66517149D01*
X202057619Y-66517149D02*
X202105238Y-66493340D01*
X202105238Y-66493340D02*
X202129047Y-66469530D01*
X202129047Y-66469530D02*
X202152857Y-66421911D01*
X202152857Y-66421911D02*
X202152857Y-66302863D01*
X202152857Y-66302863D02*
X202129047Y-66255244D01*
X202129047Y-66255244D02*
X202105238Y-66231435D01*
X202105238Y-66231435D02*
X202057619Y-66207625D01*
X202057619Y-66207625D02*
X201962381Y-66207625D01*
X201962381Y-66207625D02*
X201914762Y-66231435D01*
X201914762Y-66231435D02*
X201890952Y-66255244D01*
X201890952Y-66255244D02*
X201867143Y-66302863D01*
D10*
X180148614Y-96989590D02*
X179576425Y-96989590D01*
X179862520Y-96989590D02*
X179862520Y-95988259D01*
X179862520Y-95988259D02*
X179767155Y-96131306D01*
X179767155Y-96131306D02*
X179671790Y-96226671D01*
X179671790Y-96226671D02*
X179576425Y-96274354D01*
X180720804Y-96417401D02*
X180625439Y-96369718D01*
X180625439Y-96369718D02*
X180577757Y-96322036D01*
X180577757Y-96322036D02*
X180530074Y-96226671D01*
X180530074Y-96226671D02*
X180530074Y-96178989D01*
X180530074Y-96178989D02*
X180577757Y-96083624D01*
X180577757Y-96083624D02*
X180625439Y-96035941D01*
X180625439Y-96035941D02*
X180720804Y-95988259D01*
X180720804Y-95988259D02*
X180911534Y-95988259D01*
X180911534Y-95988259D02*
X181006899Y-96035941D01*
X181006899Y-96035941D02*
X181054581Y-96083624D01*
X181054581Y-96083624D02*
X181102263Y-96178989D01*
X181102263Y-96178989D02*
X181102263Y-96226671D01*
X181102263Y-96226671D02*
X181054581Y-96322036D01*
X181054581Y-96322036D02*
X181006899Y-96369718D01*
X181006899Y-96369718D02*
X180911534Y-96417401D01*
X180911534Y-96417401D02*
X180720804Y-96417401D01*
X180720804Y-96417401D02*
X180625439Y-96465083D01*
X180625439Y-96465083D02*
X180577757Y-96512766D01*
X180577757Y-96512766D02*
X180530074Y-96608131D01*
X180530074Y-96608131D02*
X180530074Y-96798860D01*
X180530074Y-96798860D02*
X180577757Y-96894225D01*
X180577757Y-96894225D02*
X180625439Y-96941908D01*
X180625439Y-96941908D02*
X180720804Y-96989590D01*
X180720804Y-96989590D02*
X180911534Y-96989590D01*
X180911534Y-96989590D02*
X181006899Y-96941908D01*
X181006899Y-96941908D02*
X181054581Y-96894225D01*
X181054581Y-96894225D02*
X181102263Y-96798860D01*
X181102263Y-96798860D02*
X181102263Y-96608131D01*
X181102263Y-96608131D02*
X181054581Y-96512766D01*
X181054581Y-96512766D02*
X181006899Y-96465083D01*
X181006899Y-96465083D02*
X180911534Y-96417401D01*
X181722135Y-95988259D02*
X181817500Y-95988259D01*
X181817500Y-95988259D02*
X181912865Y-96035941D01*
X181912865Y-96035941D02*
X181960548Y-96083624D01*
X181960548Y-96083624D02*
X182008230Y-96178989D01*
X182008230Y-96178989D02*
X182055912Y-96369718D01*
X182055912Y-96369718D02*
X182055912Y-96608131D01*
X182055912Y-96608131D02*
X182008230Y-96798860D01*
X182008230Y-96798860D02*
X181960548Y-96894225D01*
X181960548Y-96894225D02*
X181912865Y-96941908D01*
X181912865Y-96941908D02*
X181817500Y-96989590D01*
X181817500Y-96989590D02*
X181722135Y-96989590D01*
X181722135Y-96989590D02*
X181626771Y-96941908D01*
X181626771Y-96941908D02*
X181579088Y-96894225D01*
X181579088Y-96894225D02*
X181531406Y-96798860D01*
X181531406Y-96798860D02*
X181483723Y-96608131D01*
X181483723Y-96608131D02*
X181483723Y-96369718D01*
X181483723Y-96369718D02*
X181531406Y-96178989D01*
X181531406Y-96178989D02*
X181579088Y-96083624D01*
X181579088Y-96083624D02*
X181626771Y-96035941D01*
X181626771Y-96035941D02*
X181722135Y-95988259D01*
X182628102Y-96417401D02*
X182532737Y-96369718D01*
X182532737Y-96369718D02*
X182485055Y-96322036D01*
X182485055Y-96322036D02*
X182437372Y-96226671D01*
X182437372Y-96226671D02*
X182437372Y-96178989D01*
X182437372Y-96178989D02*
X182485055Y-96083624D01*
X182485055Y-96083624D02*
X182532737Y-96035941D01*
X182532737Y-96035941D02*
X182628102Y-95988259D01*
X182628102Y-95988259D02*
X182818832Y-95988259D01*
X182818832Y-95988259D02*
X182914197Y-96035941D01*
X182914197Y-96035941D02*
X182961879Y-96083624D01*
X182961879Y-96083624D02*
X183009561Y-96178989D01*
X183009561Y-96178989D02*
X183009561Y-96226671D01*
X183009561Y-96226671D02*
X182961879Y-96322036D01*
X182961879Y-96322036D02*
X182914197Y-96369718D01*
X182914197Y-96369718D02*
X182818832Y-96417401D01*
X182818832Y-96417401D02*
X182628102Y-96417401D01*
X182628102Y-96417401D02*
X182532737Y-96465083D01*
X182532737Y-96465083D02*
X182485055Y-96512766D01*
X182485055Y-96512766D02*
X182437372Y-96608131D01*
X182437372Y-96608131D02*
X182437372Y-96798860D01*
X182437372Y-96798860D02*
X182485055Y-96894225D01*
X182485055Y-96894225D02*
X182532737Y-96941908D01*
X182532737Y-96941908D02*
X182628102Y-96989590D01*
X182628102Y-96989590D02*
X182818832Y-96989590D01*
X182818832Y-96989590D02*
X182914197Y-96941908D01*
X182914197Y-96941908D02*
X182961879Y-96894225D01*
X182961879Y-96894225D02*
X183009561Y-96798860D01*
X183009561Y-96798860D02*
X183009561Y-96608131D01*
X183009561Y-96608131D02*
X182961879Y-96512766D01*
X182961879Y-96512766D02*
X182914197Y-96465083D01*
X182914197Y-96465083D02*
X182818832Y-96417401D01*
X184153940Y-96941908D02*
X184296988Y-96989590D01*
X184296988Y-96989590D02*
X184535400Y-96989590D01*
X184535400Y-96989590D02*
X184630765Y-96941908D01*
X184630765Y-96941908D02*
X184678447Y-96894225D01*
X184678447Y-96894225D02*
X184726129Y-96798860D01*
X184726129Y-96798860D02*
X184726129Y-96703495D01*
X184726129Y-96703495D02*
X184678447Y-96608131D01*
X184678447Y-96608131D02*
X184630765Y-96560448D01*
X184630765Y-96560448D02*
X184535400Y-96512766D01*
X184535400Y-96512766D02*
X184344670Y-96465083D01*
X184344670Y-96465083D02*
X184249305Y-96417401D01*
X184249305Y-96417401D02*
X184201623Y-96369718D01*
X184201623Y-96369718D02*
X184153940Y-96274354D01*
X184153940Y-96274354D02*
X184153940Y-96178989D01*
X184153940Y-96178989D02*
X184201623Y-96083624D01*
X184201623Y-96083624D02*
X184249305Y-96035941D01*
X184249305Y-96035941D02*
X184344670Y-95988259D01*
X184344670Y-95988259D02*
X184583082Y-95988259D01*
X184583082Y-95988259D02*
X184726129Y-96035941D01*
X185155272Y-96989590D02*
X185155272Y-95988259D01*
X185155272Y-95988259D02*
X185489049Y-96703495D01*
X185489049Y-96703495D02*
X185822826Y-95988259D01*
X185822826Y-95988259D02*
X185822826Y-96989590D01*
X186299650Y-96989590D02*
X186299650Y-95988259D01*
X186299650Y-95988259D02*
X186538062Y-95988259D01*
X186538062Y-95988259D02*
X186681109Y-96035941D01*
X186681109Y-96035941D02*
X186776474Y-96131306D01*
X186776474Y-96131306D02*
X186824156Y-96226671D01*
X186824156Y-96226671D02*
X186871839Y-96417401D01*
X186871839Y-96417401D02*
X186871839Y-96560448D01*
X186871839Y-96560448D02*
X186824156Y-96751178D01*
X186824156Y-96751178D02*
X186776474Y-96846543D01*
X186776474Y-96846543D02*
X186681109Y-96941908D01*
X186681109Y-96941908D02*
X186538062Y-96989590D01*
X186538062Y-96989590D02*
X186299650Y-96989590D01*
X188397677Y-96465083D02*
X188063900Y-96465083D01*
X188063900Y-96989590D02*
X188063900Y-95988259D01*
X188063900Y-95988259D02*
X188540724Y-95988259D01*
X188922184Y-95988259D02*
X188922184Y-96798860D01*
X188922184Y-96798860D02*
X188969866Y-96894225D01*
X188969866Y-96894225D02*
X189017549Y-96941908D01*
X189017549Y-96941908D02*
X189112913Y-96989590D01*
X189112913Y-96989590D02*
X189303643Y-96989590D01*
X189303643Y-96989590D02*
X189399008Y-96941908D01*
X189399008Y-96941908D02*
X189446690Y-96894225D01*
X189446690Y-96894225D02*
X189494373Y-96798860D01*
X189494373Y-96798860D02*
X189494373Y-95988259D01*
X189923514Y-96941908D02*
X190066562Y-96989590D01*
X190066562Y-96989590D02*
X190304974Y-96989590D01*
X190304974Y-96989590D02*
X190400339Y-96941908D01*
X190400339Y-96941908D02*
X190448021Y-96894225D01*
X190448021Y-96894225D02*
X190495703Y-96798860D01*
X190495703Y-96798860D02*
X190495703Y-96703495D01*
X190495703Y-96703495D02*
X190448021Y-96608131D01*
X190448021Y-96608131D02*
X190400339Y-96560448D01*
X190400339Y-96560448D02*
X190304974Y-96512766D01*
X190304974Y-96512766D02*
X190114244Y-96465083D01*
X190114244Y-96465083D02*
X190018879Y-96417401D01*
X190018879Y-96417401D02*
X189971197Y-96369718D01*
X189971197Y-96369718D02*
X189923514Y-96274354D01*
X189923514Y-96274354D02*
X189923514Y-96178989D01*
X189923514Y-96178989D02*
X189971197Y-96083624D01*
X189971197Y-96083624D02*
X190018879Y-96035941D01*
X190018879Y-96035941D02*
X190114244Y-95988259D01*
X190114244Y-95988259D02*
X190352656Y-95988259D01*
X190352656Y-95988259D02*
X190495703Y-96035941D01*
X190924846Y-96465083D02*
X191258623Y-96465083D01*
X191401670Y-96989590D02*
X190924846Y-96989590D01*
X190924846Y-96989590D02*
X190924846Y-95988259D01*
X190924846Y-95988259D02*
X191401670Y-95988259D01*
X191830812Y-96989590D02*
X191830812Y-95988259D01*
X191830812Y-96465083D02*
X192403001Y-96465083D01*
X192403001Y-96989590D02*
X192403001Y-95988259D01*
X193070554Y-95988259D02*
X193261284Y-95988259D01*
X193261284Y-95988259D02*
X193356649Y-96035941D01*
X193356649Y-96035941D02*
X193452014Y-96131306D01*
X193452014Y-96131306D02*
X193499696Y-96322036D01*
X193499696Y-96322036D02*
X193499696Y-96655813D01*
X193499696Y-96655813D02*
X193452014Y-96846543D01*
X193452014Y-96846543D02*
X193356649Y-96941908D01*
X193356649Y-96941908D02*
X193261284Y-96989590D01*
X193261284Y-96989590D02*
X193070554Y-96989590D01*
X193070554Y-96989590D02*
X192975190Y-96941908D01*
X192975190Y-96941908D02*
X192879825Y-96846543D01*
X192879825Y-96846543D02*
X192832142Y-96655813D01*
X192832142Y-96655813D02*
X192832142Y-96322036D01*
X192832142Y-96322036D02*
X192879825Y-96131306D01*
X192879825Y-96131306D02*
X192975190Y-96035941D01*
X192975190Y-96035941D02*
X193070554Y-95988259D01*
X194405662Y-96989590D02*
X193928838Y-96989590D01*
X193928838Y-96989590D02*
X193928838Y-95988259D01*
X194739439Y-96989590D02*
X194739439Y-95988259D01*
X194739439Y-95988259D02*
X194977851Y-95988259D01*
X194977851Y-95988259D02*
X195120898Y-96035941D01*
X195120898Y-96035941D02*
X195216263Y-96131306D01*
X195216263Y-96131306D02*
X195263945Y-96226671D01*
X195263945Y-96226671D02*
X195311628Y-96417401D01*
X195311628Y-96417401D02*
X195311628Y-96560448D01*
X195311628Y-96560448D02*
X195263945Y-96751178D01*
X195263945Y-96751178D02*
X195216263Y-96846543D01*
X195216263Y-96846543D02*
X195120898Y-96941908D01*
X195120898Y-96941908D02*
X194977851Y-96989590D01*
X194977851Y-96989590D02*
X194739439Y-96989590D01*
X195740770Y-96465083D02*
X196074547Y-96465083D01*
X196217594Y-96989590D02*
X195740770Y-96989590D01*
X195740770Y-96989590D02*
X195740770Y-95988259D01*
X195740770Y-95988259D02*
X196217594Y-95988259D01*
X197218925Y-96989590D02*
X196885148Y-96512766D01*
X196646736Y-96989590D02*
X196646736Y-95988259D01*
X196646736Y-95988259D02*
X197028195Y-95988259D01*
X197028195Y-95988259D02*
X197123560Y-96035941D01*
X197123560Y-96035941D02*
X197171242Y-96083624D01*
X197171242Y-96083624D02*
X197218925Y-96178989D01*
X197218925Y-96178989D02*
X197218925Y-96322036D01*
X197218925Y-96322036D02*
X197171242Y-96417401D01*
X197171242Y-96417401D02*
X197123560Y-96465083D01*
X197123560Y-96465083D02*
X197028195Y-96512766D01*
X197028195Y-96512766D02*
X196646736Y-96512766D01*
X176004819Y-95687619D02*
X176004819Y-96259047D01*
X176004819Y-95973333D02*
X175004819Y-95973333D01*
X175004819Y-95973333D02*
X175147676Y-96068571D01*
X175147676Y-96068571D02*
X175242914Y-96163809D01*
X175242914Y-96163809D02*
X175290533Y-96259047D01*
X175004819Y-95068571D02*
X175004819Y-94973333D01*
X175004819Y-94973333D02*
X175052438Y-94878095D01*
X175052438Y-94878095D02*
X175100057Y-94830476D01*
X175100057Y-94830476D02*
X175195295Y-94782857D01*
X175195295Y-94782857D02*
X175385771Y-94735238D01*
X175385771Y-94735238D02*
X175623866Y-94735238D01*
X175623866Y-94735238D02*
X175814342Y-94782857D01*
X175814342Y-94782857D02*
X175909580Y-94830476D01*
X175909580Y-94830476D02*
X175957200Y-94878095D01*
X175957200Y-94878095D02*
X176004819Y-94973333D01*
X176004819Y-94973333D02*
X176004819Y-95068571D01*
X176004819Y-95068571D02*
X175957200Y-95163809D01*
X175957200Y-95163809D02*
X175909580Y-95211428D01*
X175909580Y-95211428D02*
X175814342Y-95259047D01*
X175814342Y-95259047D02*
X175623866Y-95306666D01*
X175623866Y-95306666D02*
X175385771Y-95306666D01*
X175385771Y-95306666D02*
X175195295Y-95259047D01*
X175195295Y-95259047D02*
X175100057Y-95211428D01*
X175100057Y-95211428D02*
X175052438Y-95163809D01*
X175052438Y-95163809D02*
X175004819Y-95068571D01*
X175004819Y-94116190D02*
X175004819Y-94020952D01*
X175004819Y-94020952D02*
X175052438Y-93925714D01*
X175052438Y-93925714D02*
X175100057Y-93878095D01*
X175100057Y-93878095D02*
X175195295Y-93830476D01*
X175195295Y-93830476D02*
X175385771Y-93782857D01*
X175385771Y-93782857D02*
X175623866Y-93782857D01*
X175623866Y-93782857D02*
X175814342Y-93830476D01*
X175814342Y-93830476D02*
X175909580Y-93878095D01*
X175909580Y-93878095D02*
X175957200Y-93925714D01*
X175957200Y-93925714D02*
X176004819Y-94020952D01*
X176004819Y-94020952D02*
X176004819Y-94116190D01*
X176004819Y-94116190D02*
X175957200Y-94211428D01*
X175957200Y-94211428D02*
X175909580Y-94259047D01*
X175909580Y-94259047D02*
X175814342Y-94306666D01*
X175814342Y-94306666D02*
X175623866Y-94354285D01*
X175623866Y-94354285D02*
X175385771Y-94354285D01*
X175385771Y-94354285D02*
X175195295Y-94306666D01*
X175195295Y-94306666D02*
X175100057Y-94259047D01*
X175100057Y-94259047D02*
X175052438Y-94211428D01*
X175052438Y-94211428D02*
X175004819Y-94116190D01*
X175338152Y-92925714D02*
X176004819Y-92925714D01*
X175338152Y-93354285D02*
X175861961Y-93354285D01*
X175861961Y-93354285D02*
X175957200Y-93306666D01*
X175957200Y-93306666D02*
X176004819Y-93211428D01*
X176004819Y-93211428D02*
X176004819Y-93068571D01*
X176004819Y-93068571D02*
X175957200Y-92973333D01*
X175957200Y-92973333D02*
X175909580Y-92925714D01*
X175481009Y-92116190D02*
X175481009Y-92449523D01*
X176004819Y-92449523D02*
X175004819Y-92449523D01*
X175004819Y-92449523D02*
X175004819Y-91973333D01*
X172209580Y-94306666D02*
X172257200Y-94354285D01*
X172257200Y-94354285D02*
X172304819Y-94497142D01*
X172304819Y-94497142D02*
X172304819Y-94592380D01*
X172304819Y-94592380D02*
X172257200Y-94735237D01*
X172257200Y-94735237D02*
X172161961Y-94830475D01*
X172161961Y-94830475D02*
X172066723Y-94878094D01*
X172066723Y-94878094D02*
X171876247Y-94925713D01*
X171876247Y-94925713D02*
X171733390Y-94925713D01*
X171733390Y-94925713D02*
X171542914Y-94878094D01*
X171542914Y-94878094D02*
X171447676Y-94830475D01*
X171447676Y-94830475D02*
X171352438Y-94735237D01*
X171352438Y-94735237D02*
X171304819Y-94592380D01*
X171304819Y-94592380D02*
X171304819Y-94497142D01*
X171304819Y-94497142D02*
X171352438Y-94354285D01*
X171352438Y-94354285D02*
X171400057Y-94306666D01*
X171304819Y-93449523D02*
X171304819Y-93639999D01*
X171304819Y-93639999D02*
X171352438Y-93735237D01*
X171352438Y-93735237D02*
X171400057Y-93782856D01*
X171400057Y-93782856D02*
X171542914Y-93878094D01*
X171542914Y-93878094D02*
X171733390Y-93925713D01*
X171733390Y-93925713D02*
X172114342Y-93925713D01*
X172114342Y-93925713D02*
X172209580Y-93878094D01*
X172209580Y-93878094D02*
X172257200Y-93830475D01*
X172257200Y-93830475D02*
X172304819Y-93735237D01*
X172304819Y-93735237D02*
X172304819Y-93544761D01*
X172304819Y-93544761D02*
X172257200Y-93449523D01*
X172257200Y-93449523D02*
X172209580Y-93401904D01*
X172209580Y-93401904D02*
X172114342Y-93354285D01*
X172114342Y-93354285D02*
X171876247Y-93354285D01*
X171876247Y-93354285D02*
X171781009Y-93401904D01*
X171781009Y-93401904D02*
X171733390Y-93449523D01*
X171733390Y-93449523D02*
X171685771Y-93544761D01*
X171685771Y-93544761D02*
X171685771Y-93735237D01*
X171685771Y-93735237D02*
X171733390Y-93830475D01*
X171733390Y-93830475D02*
X171781009Y-93878094D01*
X171781009Y-93878094D02*
X171876247Y-93925713D01*
X197524819Y-89666190D02*
X197524819Y-90142380D01*
X197524819Y-90142380D02*
X196524819Y-90142380D01*
X197001009Y-89332856D02*
X197001009Y-88999523D01*
X197524819Y-88856666D02*
X197524819Y-89332856D01*
X197524819Y-89332856D02*
X196524819Y-89332856D01*
X196524819Y-89332856D02*
X196524819Y-88856666D01*
X197524819Y-88428094D02*
X196524819Y-88428094D01*
X196524819Y-88428094D02*
X196524819Y-88189999D01*
X196524819Y-88189999D02*
X196572438Y-88047142D01*
X196572438Y-88047142D02*
X196667676Y-87951904D01*
X196667676Y-87951904D02*
X196762914Y-87904285D01*
X196762914Y-87904285D02*
X196953390Y-87856666D01*
X196953390Y-87856666D02*
X197096247Y-87856666D01*
X197096247Y-87856666D02*
X197286723Y-87904285D01*
X197286723Y-87904285D02*
X197381961Y-87951904D01*
X197381961Y-87951904D02*
X197477200Y-88047142D01*
X197477200Y-88047142D02*
X197524819Y-88189999D01*
X197524819Y-88189999D02*
X197524819Y-88428094D01*
X196524819Y-87523332D02*
X196524819Y-86904285D01*
X196524819Y-86904285D02*
X196905771Y-87237618D01*
X196905771Y-87237618D02*
X196905771Y-87094761D01*
X196905771Y-87094761D02*
X196953390Y-86999523D01*
X196953390Y-86999523D02*
X197001009Y-86951904D01*
X197001009Y-86951904D02*
X197096247Y-86904285D01*
X197096247Y-86904285D02*
X197334342Y-86904285D01*
X197334342Y-86904285D02*
X197429580Y-86951904D01*
X197429580Y-86951904D02*
X197477200Y-86999523D01*
X197477200Y-86999523D02*
X197524819Y-87094761D01*
X197524819Y-87094761D02*
X197524819Y-87380475D01*
X197524819Y-87380475D02*
X197477200Y-87475713D01*
X197477200Y-87475713D02*
X197429580Y-87523332D01*
X196858152Y-86570951D02*
X197524819Y-86332856D01*
X197524819Y-86332856D02*
X196858152Y-86094761D01*
X196524819Y-85809046D02*
X196524819Y-85189999D01*
X196524819Y-85189999D02*
X196905771Y-85523332D01*
X196905771Y-85523332D02*
X196905771Y-85380475D01*
X196905771Y-85380475D02*
X196953390Y-85285237D01*
X196953390Y-85285237D02*
X197001009Y-85237618D01*
X197001009Y-85237618D02*
X197096247Y-85189999D01*
X197096247Y-85189999D02*
X197334342Y-85189999D01*
X197334342Y-85189999D02*
X197429580Y-85237618D01*
X197429580Y-85237618D02*
X197477200Y-85285237D01*
X197477200Y-85285237D02*
X197524819Y-85380475D01*
X197524819Y-85380475D02*
X197524819Y-85666189D01*
X197524819Y-85666189D02*
X197477200Y-85761427D01*
X197477200Y-85761427D02*
X197429580Y-85809046D01*
D12*
X198947149Y-88059047D02*
X198447149Y-88059047D01*
X198447149Y-88059047D02*
X198447149Y-87939999D01*
X198447149Y-87939999D02*
X198470959Y-87868571D01*
X198470959Y-87868571D02*
X198518578Y-87820952D01*
X198518578Y-87820952D02*
X198566197Y-87797142D01*
X198566197Y-87797142D02*
X198661435Y-87773333D01*
X198661435Y-87773333D02*
X198732863Y-87773333D01*
X198732863Y-87773333D02*
X198828101Y-87797142D01*
X198828101Y-87797142D02*
X198875720Y-87820952D01*
X198875720Y-87820952D02*
X198923340Y-87868571D01*
X198923340Y-87868571D02*
X198947149Y-87939999D01*
X198947149Y-87939999D02*
X198947149Y-88059047D01*
X198661435Y-87487618D02*
X198637625Y-87535237D01*
X198637625Y-87535237D02*
X198613816Y-87559047D01*
X198613816Y-87559047D02*
X198566197Y-87582856D01*
X198566197Y-87582856D02*
X198542387Y-87582856D01*
X198542387Y-87582856D02*
X198494768Y-87559047D01*
X198494768Y-87559047D02*
X198470959Y-87535237D01*
X198470959Y-87535237D02*
X198447149Y-87487618D01*
X198447149Y-87487618D02*
X198447149Y-87392380D01*
X198447149Y-87392380D02*
X198470959Y-87344761D01*
X198470959Y-87344761D02*
X198494768Y-87320952D01*
X198494768Y-87320952D02*
X198542387Y-87297142D01*
X198542387Y-87297142D02*
X198566197Y-87297142D01*
X198566197Y-87297142D02*
X198613816Y-87320952D01*
X198613816Y-87320952D02*
X198637625Y-87344761D01*
X198637625Y-87344761D02*
X198661435Y-87392380D01*
X198661435Y-87392380D02*
X198661435Y-87487618D01*
X198661435Y-87487618D02*
X198685244Y-87535237D01*
X198685244Y-87535237D02*
X198709054Y-87559047D01*
X198709054Y-87559047D02*
X198756673Y-87582856D01*
X198756673Y-87582856D02*
X198851911Y-87582856D01*
X198851911Y-87582856D02*
X198899530Y-87559047D01*
X198899530Y-87559047D02*
X198923340Y-87535237D01*
X198923340Y-87535237D02*
X198947149Y-87487618D01*
X198947149Y-87487618D02*
X198947149Y-87392380D01*
X198947149Y-87392380D02*
X198923340Y-87344761D01*
X198923340Y-87344761D02*
X198899530Y-87320952D01*
X198899530Y-87320952D02*
X198851911Y-87297142D01*
X198851911Y-87297142D02*
X198756673Y-87297142D01*
X198756673Y-87297142D02*
X198709054Y-87320952D01*
X198709054Y-87320952D02*
X198685244Y-87344761D01*
X198685244Y-87344761D02*
X198661435Y-87392380D01*
D10*
X113289999Y-54979580D02*
X113242380Y-55027200D01*
X113242380Y-55027200D02*
X113099523Y-55074819D01*
X113099523Y-55074819D02*
X113004285Y-55074819D01*
X113004285Y-55074819D02*
X112861428Y-55027200D01*
X112861428Y-55027200D02*
X112766190Y-54931961D01*
X112766190Y-54931961D02*
X112718571Y-54836723D01*
X112718571Y-54836723D02*
X112670952Y-54646247D01*
X112670952Y-54646247D02*
X112670952Y-54503390D01*
X112670952Y-54503390D02*
X112718571Y-54312914D01*
X112718571Y-54312914D02*
X112766190Y-54217676D01*
X112766190Y-54217676D02*
X112861428Y-54122438D01*
X112861428Y-54122438D02*
X113004285Y-54074819D01*
X113004285Y-54074819D02*
X113099523Y-54074819D01*
X113099523Y-54074819D02*
X113242380Y-54122438D01*
X113242380Y-54122438D02*
X113289999Y-54170057D01*
X113670952Y-54789104D02*
X114147142Y-54789104D01*
X113575714Y-55074819D02*
X113909047Y-54074819D01*
X113909047Y-54074819D02*
X114242380Y-55074819D01*
X114575714Y-55074819D02*
X114575714Y-54074819D01*
X114575714Y-54074819D02*
X115147142Y-55074819D01*
X115147142Y-55074819D02*
X115147142Y-54074819D01*
X115385238Y-55170057D02*
X116147142Y-55170057D01*
X116956666Y-55074819D02*
X116623333Y-54598628D01*
X116385238Y-55074819D02*
X116385238Y-54074819D01*
X116385238Y-54074819D02*
X116766190Y-54074819D01*
X116766190Y-54074819D02*
X116861428Y-54122438D01*
X116861428Y-54122438D02*
X116909047Y-54170057D01*
X116909047Y-54170057D02*
X116956666Y-54265295D01*
X116956666Y-54265295D02*
X116956666Y-54408152D01*
X116956666Y-54408152D02*
X116909047Y-54503390D01*
X116909047Y-54503390D02*
X116861428Y-54551009D01*
X116861428Y-54551009D02*
X116766190Y-54598628D01*
X116766190Y-54598628D02*
X116385238Y-54598628D01*
X117290000Y-54074819D02*
X117956666Y-55074819D01*
X117956666Y-54074819D02*
X117290000Y-55074819D01*
D12*
X114920952Y-53197149D02*
X114920952Y-52697149D01*
X114920952Y-52697149D02*
X115040000Y-52697149D01*
X115040000Y-52697149D02*
X115111428Y-52720959D01*
X115111428Y-52720959D02*
X115159047Y-52768578D01*
X115159047Y-52768578D02*
X115182857Y-52816197D01*
X115182857Y-52816197D02*
X115206666Y-52911435D01*
X115206666Y-52911435D02*
X115206666Y-52982863D01*
X115206666Y-52982863D02*
X115182857Y-53078101D01*
X115182857Y-53078101D02*
X115159047Y-53125720D01*
X115159047Y-53125720D02*
X115111428Y-53173340D01*
X115111428Y-53173340D02*
X115040000Y-53197149D01*
X115040000Y-53197149D02*
X114920952Y-53197149D01*
X115659047Y-52697149D02*
X115420952Y-52697149D01*
X115420952Y-52697149D02*
X115397143Y-52935244D01*
X115397143Y-52935244D02*
X115420952Y-52911435D01*
X115420952Y-52911435D02*
X115468571Y-52887625D01*
X115468571Y-52887625D02*
X115587619Y-52887625D01*
X115587619Y-52887625D02*
X115635238Y-52911435D01*
X115635238Y-52911435D02*
X115659047Y-52935244D01*
X115659047Y-52935244D02*
X115682857Y-52982863D01*
X115682857Y-52982863D02*
X115682857Y-53101911D01*
X115682857Y-53101911D02*
X115659047Y-53149530D01*
X115659047Y-53149530D02*
X115635238Y-53173340D01*
X115635238Y-53173340D02*
X115587619Y-53197149D01*
X115587619Y-53197149D02*
X115468571Y-53197149D01*
X115468571Y-53197149D02*
X115420952Y-53173340D01*
X115420952Y-53173340D02*
X115397143Y-53149530D01*
D10*
X113409047Y-57749580D02*
X113361428Y-57797200D01*
X113361428Y-57797200D02*
X113218571Y-57844819D01*
X113218571Y-57844819D02*
X113123333Y-57844819D01*
X113123333Y-57844819D02*
X112980476Y-57797200D01*
X112980476Y-57797200D02*
X112885238Y-57701961D01*
X112885238Y-57701961D02*
X112837619Y-57606723D01*
X112837619Y-57606723D02*
X112790000Y-57416247D01*
X112790000Y-57416247D02*
X112790000Y-57273390D01*
X112790000Y-57273390D02*
X112837619Y-57082914D01*
X112837619Y-57082914D02*
X112885238Y-56987676D01*
X112885238Y-56987676D02*
X112980476Y-56892438D01*
X112980476Y-56892438D02*
X113123333Y-56844819D01*
X113123333Y-56844819D02*
X113218571Y-56844819D01*
X113218571Y-56844819D02*
X113361428Y-56892438D01*
X113361428Y-56892438D02*
X113409047Y-56940057D01*
X113790000Y-57559104D02*
X114266190Y-57559104D01*
X113694762Y-57844819D02*
X114028095Y-56844819D01*
X114028095Y-56844819D02*
X114361428Y-57844819D01*
X114694762Y-57844819D02*
X114694762Y-56844819D01*
X114694762Y-56844819D02*
X115266190Y-57844819D01*
X115266190Y-57844819D02*
X115266190Y-56844819D01*
X115504286Y-57940057D02*
X116266190Y-57940057D01*
X116361429Y-56844819D02*
X116932857Y-56844819D01*
X116647143Y-57844819D02*
X116647143Y-56844819D01*
X117170953Y-56844819D02*
X117837619Y-57844819D01*
X117837619Y-56844819D02*
X117170953Y-57844819D01*
D12*
X114920952Y-55967149D02*
X114920952Y-55467149D01*
X114920952Y-55467149D02*
X115040000Y-55467149D01*
X115040000Y-55467149D02*
X115111428Y-55490959D01*
X115111428Y-55490959D02*
X115159047Y-55538578D01*
X115159047Y-55538578D02*
X115182857Y-55586197D01*
X115182857Y-55586197D02*
X115206666Y-55681435D01*
X115206666Y-55681435D02*
X115206666Y-55752863D01*
X115206666Y-55752863D02*
X115182857Y-55848101D01*
X115182857Y-55848101D02*
X115159047Y-55895720D01*
X115159047Y-55895720D02*
X115111428Y-55943340D01*
X115111428Y-55943340D02*
X115040000Y-55967149D01*
X115040000Y-55967149D02*
X114920952Y-55967149D01*
X115397143Y-55514768D02*
X115420952Y-55490959D01*
X115420952Y-55490959D02*
X115468571Y-55467149D01*
X115468571Y-55467149D02*
X115587619Y-55467149D01*
X115587619Y-55467149D02*
X115635238Y-55490959D01*
X115635238Y-55490959D02*
X115659047Y-55514768D01*
X115659047Y-55514768D02*
X115682857Y-55562387D01*
X115682857Y-55562387D02*
X115682857Y-55610006D01*
X115682857Y-55610006D02*
X115659047Y-55681435D01*
X115659047Y-55681435D02*
X115373333Y-55967149D01*
X115373333Y-55967149D02*
X115682857Y-55967149D01*
D10*
X93526169Y-46138258D02*
X93526169Y-45138258D01*
X93526169Y-45138258D02*
X93859502Y-45852543D01*
X93859502Y-45852543D02*
X94192835Y-45138258D01*
X94192835Y-45138258D02*
X94192835Y-46138258D01*
X94811883Y-46138258D02*
X94716645Y-46090639D01*
X94716645Y-46090639D02*
X94669026Y-46043019D01*
X94669026Y-46043019D02*
X94621407Y-45947781D01*
X94621407Y-45947781D02*
X94621407Y-45662067D01*
X94621407Y-45662067D02*
X94669026Y-45566829D01*
X94669026Y-45566829D02*
X94716645Y-45519210D01*
X94716645Y-45519210D02*
X94811883Y-45471591D01*
X94811883Y-45471591D02*
X94954740Y-45471591D01*
X94954740Y-45471591D02*
X95049978Y-45519210D01*
X95049978Y-45519210D02*
X95097597Y-45566829D01*
X95097597Y-45566829D02*
X95145216Y-45662067D01*
X95145216Y-45662067D02*
X95145216Y-45947781D01*
X95145216Y-45947781D02*
X95097597Y-46043019D01*
X95097597Y-46043019D02*
X95049978Y-46090639D01*
X95049978Y-46090639D02*
X94954740Y-46138258D01*
X94954740Y-46138258D02*
X94811883Y-46138258D01*
X96002359Y-45471591D02*
X96002359Y-46138258D01*
X95573788Y-45471591D02*
X95573788Y-45995400D01*
X95573788Y-45995400D02*
X95621407Y-46090639D01*
X95621407Y-46090639D02*
X95716645Y-46138258D01*
X95716645Y-46138258D02*
X95859502Y-46138258D01*
X95859502Y-46138258D02*
X95954740Y-46090639D01*
X95954740Y-46090639D02*
X96002359Y-46043019D01*
X96478550Y-45471591D02*
X96478550Y-46138258D01*
X96478550Y-45566829D02*
X96526169Y-45519210D01*
X96526169Y-45519210D02*
X96621407Y-45471591D01*
X96621407Y-45471591D02*
X96764264Y-45471591D01*
X96764264Y-45471591D02*
X96859502Y-45519210D01*
X96859502Y-45519210D02*
X96907121Y-45614448D01*
X96907121Y-45614448D02*
X96907121Y-46138258D01*
X97240455Y-45471591D02*
X97621407Y-45471591D01*
X97383312Y-45138258D02*
X97383312Y-45995400D01*
X97383312Y-45995400D02*
X97430931Y-46090639D01*
X97430931Y-46090639D02*
X97526169Y-46138258D01*
X97526169Y-46138258D02*
X97621407Y-46138258D01*
X97954741Y-46138258D02*
X97954741Y-45471591D01*
X97954741Y-45138258D02*
X97907122Y-45185877D01*
X97907122Y-45185877D02*
X97954741Y-45233496D01*
X97954741Y-45233496D02*
X98002360Y-45185877D01*
X98002360Y-45185877D02*
X97954741Y-45138258D01*
X97954741Y-45138258D02*
X97954741Y-45233496D01*
X98430931Y-45471591D02*
X98430931Y-46138258D01*
X98430931Y-45566829D02*
X98478550Y-45519210D01*
X98478550Y-45519210D02*
X98573788Y-45471591D01*
X98573788Y-45471591D02*
X98716645Y-45471591D01*
X98716645Y-45471591D02*
X98811883Y-45519210D01*
X98811883Y-45519210D02*
X98859502Y-45614448D01*
X98859502Y-45614448D02*
X98859502Y-46138258D01*
X99764264Y-45471591D02*
X99764264Y-46281115D01*
X99764264Y-46281115D02*
X99716645Y-46376353D01*
X99716645Y-46376353D02*
X99669026Y-46423972D01*
X99669026Y-46423972D02*
X99573788Y-46471591D01*
X99573788Y-46471591D02*
X99430931Y-46471591D01*
X99430931Y-46471591D02*
X99335693Y-46423972D01*
X99764264Y-46090639D02*
X99669026Y-46138258D01*
X99669026Y-46138258D02*
X99478550Y-46138258D01*
X99478550Y-46138258D02*
X99383312Y-46090639D01*
X99383312Y-46090639D02*
X99335693Y-46043019D01*
X99335693Y-46043019D02*
X99288074Y-45947781D01*
X99288074Y-45947781D02*
X99288074Y-45662067D01*
X99288074Y-45662067D02*
X99335693Y-45566829D01*
X99335693Y-45566829D02*
X99383312Y-45519210D01*
X99383312Y-45519210D02*
X99478550Y-45471591D01*
X99478550Y-45471591D02*
X99669026Y-45471591D01*
X99669026Y-45471591D02*
X99764264Y-45519210D01*
X100240455Y-46138258D02*
X100240455Y-45138258D01*
X100240455Y-45614448D02*
X100811883Y-45614448D01*
X100811883Y-46138258D02*
X100811883Y-45138258D01*
X101430931Y-46138258D02*
X101335693Y-46090639D01*
X101335693Y-46090639D02*
X101288074Y-46043019D01*
X101288074Y-46043019D02*
X101240455Y-45947781D01*
X101240455Y-45947781D02*
X101240455Y-45662067D01*
X101240455Y-45662067D02*
X101288074Y-45566829D01*
X101288074Y-45566829D02*
X101335693Y-45519210D01*
X101335693Y-45519210D02*
X101430931Y-45471591D01*
X101430931Y-45471591D02*
X101573788Y-45471591D01*
X101573788Y-45471591D02*
X101669026Y-45519210D01*
X101669026Y-45519210D02*
X101716645Y-45566829D01*
X101716645Y-45566829D02*
X101764264Y-45662067D01*
X101764264Y-45662067D02*
X101764264Y-45947781D01*
X101764264Y-45947781D02*
X101716645Y-46043019D01*
X101716645Y-46043019D02*
X101669026Y-46090639D01*
X101669026Y-46090639D02*
X101573788Y-46138258D01*
X101573788Y-46138258D02*
X101430931Y-46138258D01*
X102335693Y-46138258D02*
X102240455Y-46090639D01*
X102240455Y-46090639D02*
X102192836Y-45995400D01*
X102192836Y-45995400D02*
X102192836Y-45138258D01*
X103097598Y-46090639D02*
X103002360Y-46138258D01*
X103002360Y-46138258D02*
X102811884Y-46138258D01*
X102811884Y-46138258D02*
X102716646Y-46090639D01*
X102716646Y-46090639D02*
X102669027Y-45995400D01*
X102669027Y-45995400D02*
X102669027Y-45614448D01*
X102669027Y-45614448D02*
X102716646Y-45519210D01*
X102716646Y-45519210D02*
X102811884Y-45471591D01*
X102811884Y-45471591D02*
X103002360Y-45471591D01*
X103002360Y-45471591D02*
X103097598Y-45519210D01*
X103097598Y-45519210D02*
X103145217Y-45614448D01*
X103145217Y-45614448D02*
X103145217Y-45709686D01*
X103145217Y-45709686D02*
X102669027Y-45804924D01*
X103335694Y-46233496D02*
X104097598Y-46233496D01*
X104288075Y-45233496D02*
X104335694Y-45185877D01*
X104335694Y-45185877D02*
X104430932Y-45138258D01*
X104430932Y-45138258D02*
X104669027Y-45138258D01*
X104669027Y-45138258D02*
X104764265Y-45185877D01*
X104764265Y-45185877D02*
X104811884Y-45233496D01*
X104811884Y-45233496D02*
X104859503Y-45328734D01*
X104859503Y-45328734D02*
X104859503Y-45423972D01*
X104859503Y-45423972D02*
X104811884Y-45566829D01*
X104811884Y-45566829D02*
X104240456Y-46138258D01*
X104240456Y-46138258D02*
X104859503Y-46138258D01*
X105288075Y-46043019D02*
X105335694Y-46090639D01*
X105335694Y-46090639D02*
X105288075Y-46138258D01*
X105288075Y-46138258D02*
X105240456Y-46090639D01*
X105240456Y-46090639D02*
X105288075Y-46043019D01*
X105288075Y-46043019D02*
X105288075Y-46138258D01*
X105669027Y-45138258D02*
X106335693Y-45138258D01*
X106335693Y-45138258D02*
X105907122Y-46138258D01*
X106716646Y-46138258D02*
X106716646Y-45471591D01*
X106716646Y-45566829D02*
X106764265Y-45519210D01*
X106764265Y-45519210D02*
X106859503Y-45471591D01*
X106859503Y-45471591D02*
X107002360Y-45471591D01*
X107002360Y-45471591D02*
X107097598Y-45519210D01*
X107097598Y-45519210D02*
X107145217Y-45614448D01*
X107145217Y-45614448D02*
X107145217Y-46138258D01*
X107145217Y-45614448D02*
X107192836Y-45519210D01*
X107192836Y-45519210D02*
X107288074Y-45471591D01*
X107288074Y-45471591D02*
X107430931Y-45471591D01*
X107430931Y-45471591D02*
X107526170Y-45519210D01*
X107526170Y-45519210D02*
X107573789Y-45614448D01*
X107573789Y-45614448D02*
X107573789Y-46138258D01*
X108049979Y-46138258D02*
X108049979Y-45471591D01*
X108049979Y-45566829D02*
X108097598Y-45519210D01*
X108097598Y-45519210D02*
X108192836Y-45471591D01*
X108192836Y-45471591D02*
X108335693Y-45471591D01*
X108335693Y-45471591D02*
X108430931Y-45519210D01*
X108430931Y-45519210D02*
X108478550Y-45614448D01*
X108478550Y-45614448D02*
X108478550Y-46138258D01*
X108478550Y-45614448D02*
X108526169Y-45519210D01*
X108526169Y-45519210D02*
X108621407Y-45471591D01*
X108621407Y-45471591D02*
X108764264Y-45471591D01*
X108764264Y-45471591D02*
X108859503Y-45519210D01*
X108859503Y-45519210D02*
X108907122Y-45614448D01*
X108907122Y-45614448D02*
X108907122Y-46138258D01*
X109145217Y-46233496D02*
X109907121Y-46233496D01*
X110145217Y-46138258D02*
X110145217Y-45138258D01*
X110145217Y-45138258D02*
X110478550Y-45852543D01*
X110478550Y-45852543D02*
X110811883Y-45138258D01*
X110811883Y-45138258D02*
X110811883Y-46138258D01*
X111240455Y-45233496D02*
X111288074Y-45185877D01*
X111288074Y-45185877D02*
X111383312Y-45138258D01*
X111383312Y-45138258D02*
X111621407Y-45138258D01*
X111621407Y-45138258D02*
X111716645Y-45185877D01*
X111716645Y-45185877D02*
X111764264Y-45233496D01*
X111764264Y-45233496D02*
X111811883Y-45328734D01*
X111811883Y-45328734D02*
X111811883Y-45423972D01*
X111811883Y-45423972D02*
X111764264Y-45566829D01*
X111764264Y-45566829D02*
X111192836Y-46138258D01*
X111192836Y-46138258D02*
X111811883Y-46138258D01*
X112240455Y-46043019D02*
X112288074Y-46090639D01*
X112288074Y-46090639D02*
X112240455Y-46138258D01*
X112240455Y-46138258D02*
X112192836Y-46090639D01*
X112192836Y-46090639D02*
X112240455Y-46043019D01*
X112240455Y-46043019D02*
X112240455Y-46138258D01*
X113192835Y-45138258D02*
X112716645Y-45138258D01*
X112716645Y-45138258D02*
X112669026Y-45614448D01*
X112669026Y-45614448D02*
X112716645Y-45566829D01*
X112716645Y-45566829D02*
X112811883Y-45519210D01*
X112811883Y-45519210D02*
X113049978Y-45519210D01*
X113049978Y-45519210D02*
X113145216Y-45566829D01*
X113145216Y-45566829D02*
X113192835Y-45614448D01*
X113192835Y-45614448D02*
X113240454Y-45709686D01*
X113240454Y-45709686D02*
X113240454Y-45947781D01*
X113240454Y-45947781D02*
X113192835Y-46043019D01*
X113192835Y-46043019D02*
X113145216Y-46090639D01*
X113145216Y-46090639D02*
X113049978Y-46138258D01*
X113049978Y-46138258D02*
X112811883Y-46138258D01*
X112811883Y-46138258D02*
X112716645Y-46090639D01*
X112716645Y-46090639D02*
X112669026Y-46043019D01*
X113430931Y-46233496D02*
X114192835Y-46233496D01*
X114430931Y-46138258D02*
X114430931Y-45138258D01*
X114430931Y-45138258D02*
X114669026Y-45138258D01*
X114669026Y-45138258D02*
X114811883Y-45185877D01*
X114811883Y-45185877D02*
X114907121Y-45281115D01*
X114907121Y-45281115D02*
X114954740Y-45376353D01*
X114954740Y-45376353D02*
X115002359Y-45566829D01*
X115002359Y-45566829D02*
X115002359Y-45709686D01*
X115002359Y-45709686D02*
X114954740Y-45900162D01*
X114954740Y-45900162D02*
X114907121Y-45995400D01*
X114907121Y-45995400D02*
X114811883Y-46090639D01*
X114811883Y-46090639D02*
X114669026Y-46138258D01*
X114669026Y-46138258D02*
X114430931Y-46138258D01*
X115430931Y-46138258D02*
X115430931Y-45138258D01*
X115907121Y-46138258D02*
X115907121Y-45138258D01*
X115907121Y-45138258D02*
X116478549Y-46138258D01*
X116478549Y-46138258D02*
X116478549Y-45138258D01*
X117002359Y-46138258D02*
X117192835Y-46138258D01*
X117192835Y-46138258D02*
X117288073Y-46090639D01*
X117288073Y-46090639D02*
X117335692Y-46043019D01*
X117335692Y-46043019D02*
X117430930Y-45900162D01*
X117430930Y-45900162D02*
X117478549Y-45709686D01*
X117478549Y-45709686D02*
X117478549Y-45328734D01*
X117478549Y-45328734D02*
X117430930Y-45233496D01*
X117430930Y-45233496D02*
X117383311Y-45185877D01*
X117383311Y-45185877D02*
X117288073Y-45138258D01*
X117288073Y-45138258D02*
X117097597Y-45138258D01*
X117097597Y-45138258D02*
X117002359Y-45185877D01*
X117002359Y-45185877D02*
X116954740Y-45233496D01*
X116954740Y-45233496D02*
X116907121Y-45328734D01*
X116907121Y-45328734D02*
X116907121Y-45566829D01*
X116907121Y-45566829D02*
X116954740Y-45662067D01*
X116954740Y-45662067D02*
X117002359Y-45709686D01*
X117002359Y-45709686D02*
X117097597Y-45757305D01*
X117097597Y-45757305D02*
X117288073Y-45757305D01*
X117288073Y-45757305D02*
X117383311Y-45709686D01*
X117383311Y-45709686D02*
X117430930Y-45662067D01*
X117430930Y-45662067D02*
X117478549Y-45566829D01*
X118335692Y-45138258D02*
X118145216Y-45138258D01*
X118145216Y-45138258D02*
X118049978Y-45185877D01*
X118049978Y-45185877D02*
X118002359Y-45233496D01*
X118002359Y-45233496D02*
X117907121Y-45376353D01*
X117907121Y-45376353D02*
X117859502Y-45566829D01*
X117859502Y-45566829D02*
X117859502Y-45947781D01*
X117859502Y-45947781D02*
X117907121Y-46043019D01*
X117907121Y-46043019D02*
X117954740Y-46090639D01*
X117954740Y-46090639D02*
X118049978Y-46138258D01*
X118049978Y-46138258D02*
X118240454Y-46138258D01*
X118240454Y-46138258D02*
X118335692Y-46090639D01*
X118335692Y-46090639D02*
X118383311Y-46043019D01*
X118383311Y-46043019D02*
X118430930Y-45947781D01*
X118430930Y-45947781D02*
X118430930Y-45709686D01*
X118430930Y-45709686D02*
X118383311Y-45614448D01*
X118383311Y-45614448D02*
X118335692Y-45566829D01*
X118335692Y-45566829D02*
X118240454Y-45519210D01*
X118240454Y-45519210D02*
X118049978Y-45519210D01*
X118049978Y-45519210D02*
X117954740Y-45566829D01*
X117954740Y-45566829D02*
X117907121Y-45614448D01*
X117907121Y-45614448D02*
X117859502Y-45709686D01*
X119335692Y-45138258D02*
X118859502Y-45138258D01*
X118859502Y-45138258D02*
X118811883Y-45614448D01*
X118811883Y-45614448D02*
X118859502Y-45566829D01*
X118859502Y-45566829D02*
X118954740Y-45519210D01*
X118954740Y-45519210D02*
X119192835Y-45519210D01*
X119192835Y-45519210D02*
X119288073Y-45566829D01*
X119288073Y-45566829D02*
X119335692Y-45614448D01*
X119335692Y-45614448D02*
X119383311Y-45709686D01*
X119383311Y-45709686D02*
X119383311Y-45947781D01*
X119383311Y-45947781D02*
X119335692Y-46043019D01*
X119335692Y-46043019D02*
X119288073Y-46090639D01*
X119288073Y-46090639D02*
X119192835Y-46138258D01*
X119192835Y-46138258D02*
X118954740Y-46138258D01*
X118954740Y-46138258D02*
X118859502Y-46090639D01*
X118859502Y-46090639D02*
X118811883Y-46043019D01*
X119573788Y-46233496D02*
X120335692Y-46233496D01*
X120573788Y-46138258D02*
X120573788Y-45138258D01*
X120573788Y-45138258D02*
X120954740Y-45138258D01*
X120954740Y-45138258D02*
X121049978Y-45185877D01*
X121049978Y-45185877D02*
X121097597Y-45233496D01*
X121097597Y-45233496D02*
X121145216Y-45328734D01*
X121145216Y-45328734D02*
X121145216Y-45471591D01*
X121145216Y-45471591D02*
X121097597Y-45566829D01*
X121097597Y-45566829D02*
X121049978Y-45614448D01*
X121049978Y-45614448D02*
X120954740Y-45662067D01*
X120954740Y-45662067D02*
X120573788Y-45662067D01*
X122002359Y-46138258D02*
X122002359Y-45614448D01*
X122002359Y-45614448D02*
X121954740Y-45519210D01*
X121954740Y-45519210D02*
X121859502Y-45471591D01*
X121859502Y-45471591D02*
X121669026Y-45471591D01*
X121669026Y-45471591D02*
X121573788Y-45519210D01*
X122002359Y-46090639D02*
X121907121Y-46138258D01*
X121907121Y-46138258D02*
X121669026Y-46138258D01*
X121669026Y-46138258D02*
X121573788Y-46090639D01*
X121573788Y-46090639D02*
X121526169Y-45995400D01*
X121526169Y-45995400D02*
X121526169Y-45900162D01*
X121526169Y-45900162D02*
X121573788Y-45804924D01*
X121573788Y-45804924D02*
X121669026Y-45757305D01*
X121669026Y-45757305D02*
X121907121Y-45757305D01*
X121907121Y-45757305D02*
X122002359Y-45709686D01*
X122907121Y-46138258D02*
X122907121Y-45138258D01*
X122907121Y-46090639D02*
X122811883Y-46138258D01*
X122811883Y-46138258D02*
X122621407Y-46138258D01*
X122621407Y-46138258D02*
X122526169Y-46090639D01*
X122526169Y-46090639D02*
X122478550Y-46043019D01*
X122478550Y-46043019D02*
X122430931Y-45947781D01*
X122430931Y-45947781D02*
X122430931Y-45662067D01*
X122430931Y-45662067D02*
X122478550Y-45566829D01*
X122478550Y-45566829D02*
X122526169Y-45519210D01*
X122526169Y-45519210D02*
X122621407Y-45471591D01*
X122621407Y-45471591D02*
X122811883Y-45471591D01*
X122811883Y-45471591D02*
X122907121Y-45519210D01*
X106883311Y-42838258D02*
X106549978Y-42362067D01*
X106311883Y-42838258D02*
X106311883Y-41838258D01*
X106311883Y-41838258D02*
X106692835Y-41838258D01*
X106692835Y-41838258D02*
X106788073Y-41885877D01*
X106788073Y-41885877D02*
X106835692Y-41933496D01*
X106835692Y-41933496D02*
X106883311Y-42028734D01*
X106883311Y-42028734D02*
X106883311Y-42171591D01*
X106883311Y-42171591D02*
X106835692Y-42266829D01*
X106835692Y-42266829D02*
X106788073Y-42314448D01*
X106788073Y-42314448D02*
X106692835Y-42362067D01*
X106692835Y-42362067D02*
X106311883Y-42362067D01*
X107311883Y-42314448D02*
X107645216Y-42314448D01*
X107788073Y-42838258D02*
X107311883Y-42838258D01*
X107311883Y-42838258D02*
X107311883Y-41838258D01*
X107311883Y-41838258D02*
X107788073Y-41838258D01*
X108549978Y-42314448D02*
X108216645Y-42314448D01*
X108216645Y-42838258D02*
X108216645Y-41838258D01*
X108216645Y-41838258D02*
X108692835Y-41838258D01*
X109216645Y-41838258D02*
X109216645Y-42076353D01*
X108978550Y-41981115D02*
X109216645Y-42076353D01*
X109216645Y-42076353D02*
X109454740Y-41981115D01*
X109073788Y-42266829D02*
X109216645Y-42076353D01*
X109216645Y-42076353D02*
X109359502Y-42266829D01*
X109978550Y-41838258D02*
X109978550Y-42076353D01*
X109740455Y-41981115D02*
X109978550Y-42076353D01*
X109978550Y-42076353D02*
X110216645Y-41981115D01*
X109835693Y-42266829D02*
X109978550Y-42076353D01*
X109978550Y-42076353D02*
X110121407Y-42266829D01*
X166833333Y-60654819D02*
X167404761Y-60654819D01*
X167119047Y-61654819D02*
X167119047Y-60654819D01*
X167690476Y-61607200D02*
X167833333Y-61654819D01*
X167833333Y-61654819D02*
X168071428Y-61654819D01*
X168071428Y-61654819D02*
X168166666Y-61607200D01*
X168166666Y-61607200D02*
X168214285Y-61559580D01*
X168214285Y-61559580D02*
X168261904Y-61464342D01*
X168261904Y-61464342D02*
X168261904Y-61369104D01*
X168261904Y-61369104D02*
X168214285Y-61273866D01*
X168214285Y-61273866D02*
X168166666Y-61226247D01*
X168166666Y-61226247D02*
X168071428Y-61178628D01*
X168071428Y-61178628D02*
X167880952Y-61131009D01*
X167880952Y-61131009D02*
X167785714Y-61083390D01*
X167785714Y-61083390D02*
X167738095Y-61035771D01*
X167738095Y-61035771D02*
X167690476Y-60940533D01*
X167690476Y-60940533D02*
X167690476Y-60845295D01*
X167690476Y-60845295D02*
X167738095Y-60750057D01*
X167738095Y-60750057D02*
X167785714Y-60702438D01*
X167785714Y-60702438D02*
X167880952Y-60654819D01*
X167880952Y-60654819D02*
X168119047Y-60654819D01*
X168119047Y-60654819D02*
X168261904Y-60702438D01*
X168690476Y-61273866D02*
X169452381Y-61273866D01*
X170357142Y-60654819D02*
X170166666Y-60654819D01*
X170166666Y-60654819D02*
X170071428Y-60702438D01*
X170071428Y-60702438D02*
X170023809Y-60750057D01*
X170023809Y-60750057D02*
X169928571Y-60892914D01*
X169928571Y-60892914D02*
X169880952Y-61083390D01*
X169880952Y-61083390D02*
X169880952Y-61464342D01*
X169880952Y-61464342D02*
X169928571Y-61559580D01*
X169928571Y-61559580D02*
X169976190Y-61607200D01*
X169976190Y-61607200D02*
X170071428Y-61654819D01*
X170071428Y-61654819D02*
X170261904Y-61654819D01*
X170261904Y-61654819D02*
X170357142Y-61607200D01*
X170357142Y-61607200D02*
X170404761Y-61559580D01*
X170404761Y-61559580D02*
X170452380Y-61464342D01*
X170452380Y-61464342D02*
X170452380Y-61226247D01*
X170452380Y-61226247D02*
X170404761Y-61131009D01*
X170404761Y-61131009D02*
X170357142Y-61083390D01*
X170357142Y-61083390D02*
X170261904Y-61035771D01*
X170261904Y-61035771D02*
X170071428Y-61035771D01*
X170071428Y-61035771D02*
X169976190Y-61083390D01*
X169976190Y-61083390D02*
X169928571Y-61131009D01*
X169928571Y-61131009D02*
X169880952Y-61226247D01*
X171309523Y-60654819D02*
X171119047Y-60654819D01*
X171119047Y-60654819D02*
X171023809Y-60702438D01*
X171023809Y-60702438D02*
X170976190Y-60750057D01*
X170976190Y-60750057D02*
X170880952Y-60892914D01*
X170880952Y-60892914D02*
X170833333Y-61083390D01*
X170833333Y-61083390D02*
X170833333Y-61464342D01*
X170833333Y-61464342D02*
X170880952Y-61559580D01*
X170880952Y-61559580D02*
X170928571Y-61607200D01*
X170928571Y-61607200D02*
X171023809Y-61654819D01*
X171023809Y-61654819D02*
X171214285Y-61654819D01*
X171214285Y-61654819D02*
X171309523Y-61607200D01*
X171309523Y-61607200D02*
X171357142Y-61559580D01*
X171357142Y-61559580D02*
X171404761Y-61464342D01*
X171404761Y-61464342D02*
X171404761Y-61226247D01*
X171404761Y-61226247D02*
X171357142Y-61131009D01*
X171357142Y-61131009D02*
X171309523Y-61083390D01*
X171309523Y-61083390D02*
X171214285Y-61035771D01*
X171214285Y-61035771D02*
X171023809Y-61035771D01*
X171023809Y-61035771D02*
X170928571Y-61083390D01*
X170928571Y-61083390D02*
X170880952Y-61131009D01*
X170880952Y-61131009D02*
X170833333Y-61226247D01*
X172261904Y-60988152D02*
X172261904Y-61654819D01*
X172023809Y-60607200D02*
X171785714Y-61321485D01*
X171785714Y-61321485D02*
X172404761Y-61321485D01*
X173261904Y-60654819D02*
X172785714Y-60654819D01*
X172785714Y-60654819D02*
X172738095Y-61131009D01*
X172738095Y-61131009D02*
X172785714Y-61083390D01*
X172785714Y-61083390D02*
X172880952Y-61035771D01*
X172880952Y-61035771D02*
X173119047Y-61035771D01*
X173119047Y-61035771D02*
X173214285Y-61083390D01*
X173214285Y-61083390D02*
X173261904Y-61131009D01*
X173261904Y-61131009D02*
X173309523Y-61226247D01*
X173309523Y-61226247D02*
X173309523Y-61464342D01*
X173309523Y-61464342D02*
X173261904Y-61559580D01*
X173261904Y-61559580D02*
X173214285Y-61607200D01*
X173214285Y-61607200D02*
X173119047Y-61654819D01*
X173119047Y-61654819D02*
X172880952Y-61654819D01*
X172880952Y-61654819D02*
X172785714Y-61607200D01*
X172785714Y-61607200D02*
X172738095Y-61559580D01*
X173738095Y-61654819D02*
X173738095Y-60654819D01*
X173738095Y-60654819D02*
X173976190Y-60654819D01*
X173976190Y-60654819D02*
X174119047Y-60702438D01*
X174119047Y-60702438D02*
X174214285Y-60797676D01*
X174214285Y-60797676D02*
X174261904Y-60892914D01*
X174261904Y-60892914D02*
X174309523Y-61083390D01*
X174309523Y-61083390D02*
X174309523Y-61226247D01*
X174309523Y-61226247D02*
X174261904Y-61416723D01*
X174261904Y-61416723D02*
X174214285Y-61511961D01*
X174214285Y-61511961D02*
X174119047Y-61607200D01*
X174119047Y-61607200D02*
X173976190Y-61654819D01*
X173976190Y-61654819D02*
X173738095Y-61654819D01*
X174738095Y-61654819D02*
X174738095Y-60654819D01*
X174738095Y-60654819D02*
X174976190Y-60654819D01*
X174976190Y-60654819D02*
X175119047Y-60702438D01*
X175119047Y-60702438D02*
X175214285Y-60797676D01*
X175214285Y-60797676D02*
X175261904Y-60892914D01*
X175261904Y-60892914D02*
X175309523Y-61083390D01*
X175309523Y-61083390D02*
X175309523Y-61226247D01*
X175309523Y-61226247D02*
X175261904Y-61416723D01*
X175261904Y-61416723D02*
X175214285Y-61511961D01*
X175214285Y-61511961D02*
X175119047Y-61607200D01*
X175119047Y-61607200D02*
X174976190Y-61654819D01*
X174976190Y-61654819D02*
X174738095Y-61654819D01*
X176166666Y-60654819D02*
X175976190Y-60654819D01*
X175976190Y-60654819D02*
X175880952Y-60702438D01*
X175880952Y-60702438D02*
X175833333Y-60750057D01*
X175833333Y-60750057D02*
X175738095Y-60892914D01*
X175738095Y-60892914D02*
X175690476Y-61083390D01*
X175690476Y-61083390D02*
X175690476Y-61464342D01*
X175690476Y-61464342D02*
X175738095Y-61559580D01*
X175738095Y-61559580D02*
X175785714Y-61607200D01*
X175785714Y-61607200D02*
X175880952Y-61654819D01*
X175880952Y-61654819D02*
X176071428Y-61654819D01*
X176071428Y-61654819D02*
X176166666Y-61607200D01*
X176166666Y-61607200D02*
X176214285Y-61559580D01*
X176214285Y-61559580D02*
X176261904Y-61464342D01*
X176261904Y-61464342D02*
X176261904Y-61226247D01*
X176261904Y-61226247D02*
X176214285Y-61131009D01*
X176214285Y-61131009D02*
X176166666Y-61083390D01*
X176166666Y-61083390D02*
X176071428Y-61035771D01*
X176071428Y-61035771D02*
X175880952Y-61035771D01*
X175880952Y-61035771D02*
X175785714Y-61083390D01*
X175785714Y-61083390D02*
X175738095Y-61131009D01*
X175738095Y-61131009D02*
X175690476Y-61226247D01*
X176595238Y-60654819D02*
X177261904Y-61654819D01*
X177261904Y-60654819D02*
X176595238Y-61654819D01*
X178071428Y-60654819D02*
X177880952Y-60654819D01*
X177880952Y-60654819D02*
X177785714Y-60702438D01*
X177785714Y-60702438D02*
X177738095Y-60750057D01*
X177738095Y-60750057D02*
X177642857Y-60892914D01*
X177642857Y-60892914D02*
X177595238Y-61083390D01*
X177595238Y-61083390D02*
X177595238Y-61464342D01*
X177595238Y-61464342D02*
X177642857Y-61559580D01*
X177642857Y-61559580D02*
X177690476Y-61607200D01*
X177690476Y-61607200D02*
X177785714Y-61654819D01*
X177785714Y-61654819D02*
X177976190Y-61654819D01*
X177976190Y-61654819D02*
X178071428Y-61607200D01*
X178071428Y-61607200D02*
X178119047Y-61559580D01*
X178119047Y-61559580D02*
X178166666Y-61464342D01*
X178166666Y-61464342D02*
X178166666Y-61226247D01*
X178166666Y-61226247D02*
X178119047Y-61131009D01*
X178119047Y-61131009D02*
X178071428Y-61083390D01*
X178071428Y-61083390D02*
X177976190Y-61035771D01*
X177976190Y-61035771D02*
X177785714Y-61035771D01*
X177785714Y-61035771D02*
X177690476Y-61083390D01*
X177690476Y-61083390D02*
X177642857Y-61131009D01*
X177642857Y-61131009D02*
X177595238Y-61226247D01*
X178500000Y-60654819D02*
X179166666Y-61654819D01*
X179166666Y-60654819D02*
X178500000Y-61654819D01*
X180023809Y-60654819D02*
X179547619Y-60654819D01*
X179547619Y-60654819D02*
X179500000Y-61131009D01*
X179500000Y-61131009D02*
X179547619Y-61083390D01*
X179547619Y-61083390D02*
X179642857Y-61035771D01*
X179642857Y-61035771D02*
X179880952Y-61035771D01*
X179880952Y-61035771D02*
X179976190Y-61083390D01*
X179976190Y-61083390D02*
X180023809Y-61131009D01*
X180023809Y-61131009D02*
X180071428Y-61226247D01*
X180071428Y-61226247D02*
X180071428Y-61464342D01*
X180071428Y-61464342D02*
X180023809Y-61559580D01*
X180023809Y-61559580D02*
X179976190Y-61607200D01*
X179976190Y-61607200D02*
X179880952Y-61654819D01*
X179880952Y-61654819D02*
X179642857Y-61654819D01*
X179642857Y-61654819D02*
X179547619Y-61607200D01*
X179547619Y-61607200D02*
X179500000Y-61559580D01*
X171166666Y-56681009D02*
X171309523Y-56728628D01*
X171309523Y-56728628D02*
X171357142Y-56776247D01*
X171357142Y-56776247D02*
X171404761Y-56871485D01*
X171404761Y-56871485D02*
X171404761Y-57014342D01*
X171404761Y-57014342D02*
X171357142Y-57109580D01*
X171357142Y-57109580D02*
X171309523Y-57157200D01*
X171309523Y-57157200D02*
X171214285Y-57204819D01*
X171214285Y-57204819D02*
X170833333Y-57204819D01*
X170833333Y-57204819D02*
X170833333Y-56204819D01*
X170833333Y-56204819D02*
X171166666Y-56204819D01*
X171166666Y-56204819D02*
X171261904Y-56252438D01*
X171261904Y-56252438D02*
X171309523Y-56300057D01*
X171309523Y-56300057D02*
X171357142Y-56395295D01*
X171357142Y-56395295D02*
X171357142Y-56490533D01*
X171357142Y-56490533D02*
X171309523Y-56585771D01*
X171309523Y-56585771D02*
X171261904Y-56633390D01*
X171261904Y-56633390D02*
X171166666Y-56681009D01*
X171166666Y-56681009D02*
X170833333Y-56681009D01*
X171785714Y-56919104D02*
X172261904Y-56919104D01*
X171690476Y-57204819D02*
X172023809Y-56204819D01*
X172023809Y-56204819D02*
X172357142Y-57204819D01*
X173261904Y-57109580D02*
X173214285Y-57157200D01*
X173214285Y-57157200D02*
X173071428Y-57204819D01*
X173071428Y-57204819D02*
X172976190Y-57204819D01*
X172976190Y-57204819D02*
X172833333Y-57157200D01*
X172833333Y-57157200D02*
X172738095Y-57061961D01*
X172738095Y-57061961D02*
X172690476Y-56966723D01*
X172690476Y-56966723D02*
X172642857Y-56776247D01*
X172642857Y-56776247D02*
X172642857Y-56633390D01*
X172642857Y-56633390D02*
X172690476Y-56442914D01*
X172690476Y-56442914D02*
X172738095Y-56347676D01*
X172738095Y-56347676D02*
X172833333Y-56252438D01*
X172833333Y-56252438D02*
X172976190Y-56204819D01*
X172976190Y-56204819D02*
X173071428Y-56204819D01*
X173071428Y-56204819D02*
X173214285Y-56252438D01*
X173214285Y-56252438D02*
X173261904Y-56300057D01*
X173690476Y-57204819D02*
X173690476Y-56204819D01*
X174261904Y-57204819D02*
X173833333Y-56633390D01*
X174261904Y-56204819D02*
X173690476Y-56776247D01*
X175214285Y-57204819D02*
X174642857Y-57204819D01*
X174928571Y-57204819D02*
X174928571Y-56204819D01*
X174928571Y-56204819D02*
X174833333Y-56347676D01*
X174833333Y-56347676D02*
X174738095Y-56442914D01*
X174738095Y-56442914D02*
X174642857Y-56490533D01*
X179833333Y-47904819D02*
X180404761Y-47904819D01*
X180119047Y-48904819D02*
X180119047Y-47904819D01*
X180690476Y-48857200D02*
X180833333Y-48904819D01*
X180833333Y-48904819D02*
X181071428Y-48904819D01*
X181071428Y-48904819D02*
X181166666Y-48857200D01*
X181166666Y-48857200D02*
X181214285Y-48809580D01*
X181214285Y-48809580D02*
X181261904Y-48714342D01*
X181261904Y-48714342D02*
X181261904Y-48619104D01*
X181261904Y-48619104D02*
X181214285Y-48523866D01*
X181214285Y-48523866D02*
X181166666Y-48476247D01*
X181166666Y-48476247D02*
X181071428Y-48428628D01*
X181071428Y-48428628D02*
X180880952Y-48381009D01*
X180880952Y-48381009D02*
X180785714Y-48333390D01*
X180785714Y-48333390D02*
X180738095Y-48285771D01*
X180738095Y-48285771D02*
X180690476Y-48190533D01*
X180690476Y-48190533D02*
X180690476Y-48095295D01*
X180690476Y-48095295D02*
X180738095Y-48000057D01*
X180738095Y-48000057D02*
X180785714Y-47952438D01*
X180785714Y-47952438D02*
X180880952Y-47904819D01*
X180880952Y-47904819D02*
X181119047Y-47904819D01*
X181119047Y-47904819D02*
X181261904Y-47952438D01*
X181690476Y-48523866D02*
X182452381Y-48523866D01*
X183357142Y-47904819D02*
X183166666Y-47904819D01*
X183166666Y-47904819D02*
X183071428Y-47952438D01*
X183071428Y-47952438D02*
X183023809Y-48000057D01*
X183023809Y-48000057D02*
X182928571Y-48142914D01*
X182928571Y-48142914D02*
X182880952Y-48333390D01*
X182880952Y-48333390D02*
X182880952Y-48714342D01*
X182880952Y-48714342D02*
X182928571Y-48809580D01*
X182928571Y-48809580D02*
X182976190Y-48857200D01*
X182976190Y-48857200D02*
X183071428Y-48904819D01*
X183071428Y-48904819D02*
X183261904Y-48904819D01*
X183261904Y-48904819D02*
X183357142Y-48857200D01*
X183357142Y-48857200D02*
X183404761Y-48809580D01*
X183404761Y-48809580D02*
X183452380Y-48714342D01*
X183452380Y-48714342D02*
X183452380Y-48476247D01*
X183452380Y-48476247D02*
X183404761Y-48381009D01*
X183404761Y-48381009D02*
X183357142Y-48333390D01*
X183357142Y-48333390D02*
X183261904Y-48285771D01*
X183261904Y-48285771D02*
X183071428Y-48285771D01*
X183071428Y-48285771D02*
X182976190Y-48333390D01*
X182976190Y-48333390D02*
X182928571Y-48381009D01*
X182928571Y-48381009D02*
X182880952Y-48476247D01*
X184309523Y-47904819D02*
X184119047Y-47904819D01*
X184119047Y-47904819D02*
X184023809Y-47952438D01*
X184023809Y-47952438D02*
X183976190Y-48000057D01*
X183976190Y-48000057D02*
X183880952Y-48142914D01*
X183880952Y-48142914D02*
X183833333Y-48333390D01*
X183833333Y-48333390D02*
X183833333Y-48714342D01*
X183833333Y-48714342D02*
X183880952Y-48809580D01*
X183880952Y-48809580D02*
X183928571Y-48857200D01*
X183928571Y-48857200D02*
X184023809Y-48904819D01*
X184023809Y-48904819D02*
X184214285Y-48904819D01*
X184214285Y-48904819D02*
X184309523Y-48857200D01*
X184309523Y-48857200D02*
X184357142Y-48809580D01*
X184357142Y-48809580D02*
X184404761Y-48714342D01*
X184404761Y-48714342D02*
X184404761Y-48476247D01*
X184404761Y-48476247D02*
X184357142Y-48381009D01*
X184357142Y-48381009D02*
X184309523Y-48333390D01*
X184309523Y-48333390D02*
X184214285Y-48285771D01*
X184214285Y-48285771D02*
X184023809Y-48285771D01*
X184023809Y-48285771D02*
X183928571Y-48333390D01*
X183928571Y-48333390D02*
X183880952Y-48381009D01*
X183880952Y-48381009D02*
X183833333Y-48476247D01*
X185261904Y-48238152D02*
X185261904Y-48904819D01*
X185023809Y-47857200D02*
X184785714Y-48571485D01*
X184785714Y-48571485D02*
X185404761Y-48571485D01*
X186261904Y-47904819D02*
X185785714Y-47904819D01*
X185785714Y-47904819D02*
X185738095Y-48381009D01*
X185738095Y-48381009D02*
X185785714Y-48333390D01*
X185785714Y-48333390D02*
X185880952Y-48285771D01*
X185880952Y-48285771D02*
X186119047Y-48285771D01*
X186119047Y-48285771D02*
X186214285Y-48333390D01*
X186214285Y-48333390D02*
X186261904Y-48381009D01*
X186261904Y-48381009D02*
X186309523Y-48476247D01*
X186309523Y-48476247D02*
X186309523Y-48714342D01*
X186309523Y-48714342D02*
X186261904Y-48809580D01*
X186261904Y-48809580D02*
X186214285Y-48857200D01*
X186214285Y-48857200D02*
X186119047Y-48904819D01*
X186119047Y-48904819D02*
X185880952Y-48904819D01*
X185880952Y-48904819D02*
X185785714Y-48857200D01*
X185785714Y-48857200D02*
X185738095Y-48809580D01*
X186738095Y-48904819D02*
X186738095Y-47904819D01*
X186738095Y-47904819D02*
X186976190Y-47904819D01*
X186976190Y-47904819D02*
X187119047Y-47952438D01*
X187119047Y-47952438D02*
X187214285Y-48047676D01*
X187214285Y-48047676D02*
X187261904Y-48142914D01*
X187261904Y-48142914D02*
X187309523Y-48333390D01*
X187309523Y-48333390D02*
X187309523Y-48476247D01*
X187309523Y-48476247D02*
X187261904Y-48666723D01*
X187261904Y-48666723D02*
X187214285Y-48761961D01*
X187214285Y-48761961D02*
X187119047Y-48857200D01*
X187119047Y-48857200D02*
X186976190Y-48904819D01*
X186976190Y-48904819D02*
X186738095Y-48904819D01*
X187738095Y-48904819D02*
X187738095Y-47904819D01*
X187738095Y-47904819D02*
X187976190Y-47904819D01*
X187976190Y-47904819D02*
X188119047Y-47952438D01*
X188119047Y-47952438D02*
X188214285Y-48047676D01*
X188214285Y-48047676D02*
X188261904Y-48142914D01*
X188261904Y-48142914D02*
X188309523Y-48333390D01*
X188309523Y-48333390D02*
X188309523Y-48476247D01*
X188309523Y-48476247D02*
X188261904Y-48666723D01*
X188261904Y-48666723D02*
X188214285Y-48761961D01*
X188214285Y-48761961D02*
X188119047Y-48857200D01*
X188119047Y-48857200D02*
X187976190Y-48904819D01*
X187976190Y-48904819D02*
X187738095Y-48904819D01*
X189166666Y-47904819D02*
X188976190Y-47904819D01*
X188976190Y-47904819D02*
X188880952Y-47952438D01*
X188880952Y-47952438D02*
X188833333Y-48000057D01*
X188833333Y-48000057D02*
X188738095Y-48142914D01*
X188738095Y-48142914D02*
X188690476Y-48333390D01*
X188690476Y-48333390D02*
X188690476Y-48714342D01*
X188690476Y-48714342D02*
X188738095Y-48809580D01*
X188738095Y-48809580D02*
X188785714Y-48857200D01*
X188785714Y-48857200D02*
X188880952Y-48904819D01*
X188880952Y-48904819D02*
X189071428Y-48904819D01*
X189071428Y-48904819D02*
X189166666Y-48857200D01*
X189166666Y-48857200D02*
X189214285Y-48809580D01*
X189214285Y-48809580D02*
X189261904Y-48714342D01*
X189261904Y-48714342D02*
X189261904Y-48476247D01*
X189261904Y-48476247D02*
X189214285Y-48381009D01*
X189214285Y-48381009D02*
X189166666Y-48333390D01*
X189166666Y-48333390D02*
X189071428Y-48285771D01*
X189071428Y-48285771D02*
X188880952Y-48285771D01*
X188880952Y-48285771D02*
X188785714Y-48333390D01*
X188785714Y-48333390D02*
X188738095Y-48381009D01*
X188738095Y-48381009D02*
X188690476Y-48476247D01*
X189595238Y-47904819D02*
X190261904Y-48904819D01*
X190261904Y-47904819D02*
X189595238Y-48904819D01*
X191071428Y-47904819D02*
X190880952Y-47904819D01*
X190880952Y-47904819D02*
X190785714Y-47952438D01*
X190785714Y-47952438D02*
X190738095Y-48000057D01*
X190738095Y-48000057D02*
X190642857Y-48142914D01*
X190642857Y-48142914D02*
X190595238Y-48333390D01*
X190595238Y-48333390D02*
X190595238Y-48714342D01*
X190595238Y-48714342D02*
X190642857Y-48809580D01*
X190642857Y-48809580D02*
X190690476Y-48857200D01*
X190690476Y-48857200D02*
X190785714Y-48904819D01*
X190785714Y-48904819D02*
X190976190Y-48904819D01*
X190976190Y-48904819D02*
X191071428Y-48857200D01*
X191071428Y-48857200D02*
X191119047Y-48809580D01*
X191119047Y-48809580D02*
X191166666Y-48714342D01*
X191166666Y-48714342D02*
X191166666Y-48476247D01*
X191166666Y-48476247D02*
X191119047Y-48381009D01*
X191119047Y-48381009D02*
X191071428Y-48333390D01*
X191071428Y-48333390D02*
X190976190Y-48285771D01*
X190976190Y-48285771D02*
X190785714Y-48285771D01*
X190785714Y-48285771D02*
X190690476Y-48333390D01*
X190690476Y-48333390D02*
X190642857Y-48381009D01*
X190642857Y-48381009D02*
X190595238Y-48476247D01*
X191500000Y-47904819D02*
X192166666Y-48904819D01*
X192166666Y-47904819D02*
X191500000Y-48904819D01*
X193023809Y-47904819D02*
X192547619Y-47904819D01*
X192547619Y-47904819D02*
X192500000Y-48381009D01*
X192500000Y-48381009D02*
X192547619Y-48333390D01*
X192547619Y-48333390D02*
X192642857Y-48285771D01*
X192642857Y-48285771D02*
X192880952Y-48285771D01*
X192880952Y-48285771D02*
X192976190Y-48333390D01*
X192976190Y-48333390D02*
X193023809Y-48381009D01*
X193023809Y-48381009D02*
X193071428Y-48476247D01*
X193071428Y-48476247D02*
X193071428Y-48714342D01*
X193071428Y-48714342D02*
X193023809Y-48809580D01*
X193023809Y-48809580D02*
X192976190Y-48857200D01*
X192976190Y-48857200D02*
X192880952Y-48904819D01*
X192880952Y-48904819D02*
X192642857Y-48904819D01*
X192642857Y-48904819D02*
X192547619Y-48857200D01*
X192547619Y-48857200D02*
X192500000Y-48809580D01*
X184738095Y-43454819D02*
X184738095Y-44264342D01*
X184738095Y-44264342D02*
X184785714Y-44359580D01*
X184785714Y-44359580D02*
X184833333Y-44407200D01*
X184833333Y-44407200D02*
X184928571Y-44454819D01*
X184928571Y-44454819D02*
X185119047Y-44454819D01*
X185119047Y-44454819D02*
X185214285Y-44407200D01*
X185214285Y-44407200D02*
X185261904Y-44359580D01*
X185261904Y-44359580D02*
X185309523Y-44264342D01*
X185309523Y-44264342D02*
X185309523Y-43454819D01*
X185785714Y-44454819D02*
X185785714Y-43454819D01*
X185785714Y-43454819D02*
X186166666Y-43454819D01*
X186166666Y-43454819D02*
X186261904Y-43502438D01*
X186261904Y-43502438D02*
X186309523Y-43550057D01*
X186309523Y-43550057D02*
X186357142Y-43645295D01*
X186357142Y-43645295D02*
X186357142Y-43788152D01*
X186357142Y-43788152D02*
X186309523Y-43883390D01*
X186309523Y-43883390D02*
X186261904Y-43931009D01*
X186261904Y-43931009D02*
X186166666Y-43978628D01*
X186166666Y-43978628D02*
X185785714Y-43978628D01*
X187309523Y-44454819D02*
X186738095Y-44454819D01*
X187023809Y-44454819D02*
X187023809Y-43454819D01*
X187023809Y-43454819D02*
X186928571Y-43597676D01*
X186928571Y-43597676D02*
X186833333Y-43692914D01*
X186833333Y-43692914D02*
X186738095Y-43740533D01*
X192415238Y-103629104D02*
X192891428Y-103629104D01*
X192320000Y-103914819D02*
X192653333Y-102914819D01*
X192653333Y-102914819D02*
X192986666Y-103914819D01*
X193224762Y-102914819D02*
X193891428Y-103914819D01*
X193891428Y-102914819D02*
X193224762Y-103914819D01*
X194272381Y-103914819D02*
X194272381Y-102914819D01*
X194272381Y-103391009D02*
X194843809Y-103391009D01*
X194843809Y-103914819D02*
X194843809Y-102914819D01*
X195320000Y-103533866D02*
X196081905Y-103533866D01*
X196510476Y-103010057D02*
X196558095Y-102962438D01*
X196558095Y-102962438D02*
X196653333Y-102914819D01*
X196653333Y-102914819D02*
X196891428Y-102914819D01*
X196891428Y-102914819D02*
X196986666Y-102962438D01*
X196986666Y-102962438D02*
X197034285Y-103010057D01*
X197034285Y-103010057D02*
X197081904Y-103105295D01*
X197081904Y-103105295D02*
X197081904Y-103200533D01*
X197081904Y-103200533D02*
X197034285Y-103343390D01*
X197034285Y-103343390D02*
X196462857Y-103914819D01*
X196462857Y-103914819D02*
X197081904Y-103914819D01*
X197462857Y-103629104D02*
X197939047Y-103629104D01*
X197367619Y-103914819D02*
X197700952Y-102914819D01*
X197700952Y-102914819D02*
X198034285Y-103914819D01*
X198272381Y-102914819D02*
X198510476Y-103914819D01*
X198510476Y-103914819D02*
X198700952Y-103200533D01*
X198700952Y-103200533D02*
X198891428Y-103914819D01*
X198891428Y-103914819D02*
X199129524Y-102914819D01*
X199510476Y-103533866D02*
X200272381Y-103533866D01*
X201272380Y-103914819D02*
X200700952Y-103914819D01*
X200986666Y-103914819D02*
X200986666Y-102914819D01*
X200986666Y-102914819D02*
X200891428Y-103057676D01*
X200891428Y-103057676D02*
X200796190Y-103152914D01*
X200796190Y-103152914D02*
X200700952Y-103200533D01*
X202224761Y-103914819D02*
X201653333Y-103914819D01*
X201939047Y-103914819D02*
X201939047Y-102914819D01*
X201939047Y-102914819D02*
X201843809Y-103057676D01*
X201843809Y-103057676D02*
X201748571Y-103152914D01*
X201748571Y-103152914D02*
X201653333Y-103200533D01*
X196629523Y-96869580D02*
X196581904Y-96917200D01*
X196581904Y-96917200D02*
X196439047Y-96964819D01*
X196439047Y-96964819D02*
X196343809Y-96964819D01*
X196343809Y-96964819D02*
X196200952Y-96917200D01*
X196200952Y-96917200D02*
X196105714Y-96821961D01*
X196105714Y-96821961D02*
X196058095Y-96726723D01*
X196058095Y-96726723D02*
X196010476Y-96536247D01*
X196010476Y-96536247D02*
X196010476Y-96393390D01*
X196010476Y-96393390D02*
X196058095Y-96202914D01*
X196058095Y-96202914D02*
X196105714Y-96107676D01*
X196105714Y-96107676D02*
X196200952Y-96012438D01*
X196200952Y-96012438D02*
X196343809Y-95964819D01*
X196343809Y-95964819D02*
X196439047Y-95964819D01*
X196439047Y-95964819D02*
X196581904Y-96012438D01*
X196581904Y-96012438D02*
X196629523Y-96060057D01*
X197058095Y-96964819D02*
X197058095Y-95964819D01*
X197058095Y-95964819D02*
X197629523Y-96964819D01*
X197629523Y-96964819D02*
X197629523Y-95964819D01*
X198629523Y-96964819D02*
X198058095Y-96964819D01*
X198343809Y-96964819D02*
X198343809Y-95964819D01*
X198343809Y-95964819D02*
X198248571Y-96107676D01*
X198248571Y-96107676D02*
X198153333Y-96202914D01*
X198153333Y-96202914D02*
X198058095Y-96250533D01*
X199915237Y-65524819D02*
X199819999Y-65477200D01*
X199819999Y-65477200D02*
X199772380Y-65381961D01*
X199772380Y-65381961D02*
X199772380Y-64524819D01*
X200677142Y-65477200D02*
X200581904Y-65524819D01*
X200581904Y-65524819D02*
X200391428Y-65524819D01*
X200391428Y-65524819D02*
X200296190Y-65477200D01*
X200296190Y-65477200D02*
X200248571Y-65381961D01*
X200248571Y-65381961D02*
X200248571Y-65001009D01*
X200248571Y-65001009D02*
X200296190Y-64905771D01*
X200296190Y-64905771D02*
X200391428Y-64858152D01*
X200391428Y-64858152D02*
X200581904Y-64858152D01*
X200581904Y-64858152D02*
X200677142Y-64905771D01*
X200677142Y-64905771D02*
X200724761Y-65001009D01*
X200724761Y-65001009D02*
X200724761Y-65096247D01*
X200724761Y-65096247D02*
X200248571Y-65191485D01*
X201581904Y-65524819D02*
X201581904Y-64524819D01*
X201581904Y-65477200D02*
X201486666Y-65524819D01*
X201486666Y-65524819D02*
X201296190Y-65524819D01*
X201296190Y-65524819D02*
X201200952Y-65477200D01*
X201200952Y-65477200D02*
X201153333Y-65429580D01*
X201153333Y-65429580D02*
X201105714Y-65334342D01*
X201105714Y-65334342D02*
X201105714Y-65048628D01*
X201105714Y-65048628D02*
X201153333Y-64953390D01*
X201153333Y-64953390D02*
X201200952Y-64905771D01*
X201200952Y-64905771D02*
X201296190Y-64858152D01*
X201296190Y-64858152D02*
X201486666Y-64858152D01*
X201486666Y-64858152D02*
X201581904Y-64905771D01*
X202534285Y-64524819D02*
X202058095Y-64524819D01*
X202058095Y-64524819D02*
X202010476Y-65001009D01*
X202010476Y-65001009D02*
X202058095Y-64953390D01*
X202058095Y-64953390D02*
X202153333Y-64905771D01*
X202153333Y-64905771D02*
X202391428Y-64905771D01*
X202391428Y-64905771D02*
X202486666Y-64953390D01*
X202486666Y-64953390D02*
X202534285Y-65001009D01*
X202534285Y-65001009D02*
X202581904Y-65096247D01*
X202581904Y-65096247D02*
X202581904Y-65334342D01*
X202581904Y-65334342D02*
X202534285Y-65429580D01*
X202534285Y-65429580D02*
X202486666Y-65477200D01*
X202486666Y-65477200D02*
X202391428Y-65524819D01*
X202391428Y-65524819D02*
X202153333Y-65524819D01*
X202153333Y-65524819D02*
X202058095Y-65477200D01*
X202058095Y-65477200D02*
X202010476Y-65429580D01*
X202915238Y-64858152D02*
X203439047Y-64858152D01*
X203439047Y-64858152D02*
X202915238Y-65524819D01*
X202915238Y-65524819D02*
X203439047Y-65524819D01*
X203962857Y-65524819D02*
X203867619Y-65477200D01*
X203867619Y-65477200D02*
X203820000Y-65381961D01*
X203820000Y-65381961D02*
X203820000Y-64524819D01*
D12*
X201450952Y-63647149D02*
X201450952Y-63147149D01*
X201450952Y-63147149D02*
X201570000Y-63147149D01*
X201570000Y-63147149D02*
X201641428Y-63170959D01*
X201641428Y-63170959D02*
X201689047Y-63218578D01*
X201689047Y-63218578D02*
X201712857Y-63266197D01*
X201712857Y-63266197D02*
X201736666Y-63361435D01*
X201736666Y-63361435D02*
X201736666Y-63432863D01*
X201736666Y-63432863D02*
X201712857Y-63528101D01*
X201712857Y-63528101D02*
X201689047Y-63575720D01*
X201689047Y-63575720D02*
X201641428Y-63623340D01*
X201641428Y-63623340D02*
X201570000Y-63647149D01*
X201570000Y-63647149D02*
X201450952Y-63647149D01*
X201903333Y-63147149D02*
X202236666Y-63147149D01*
X202236666Y-63147149D02*
X202022381Y-63647149D01*
D10*
X170856666Y-41524819D02*
X170761428Y-41477200D01*
X170761428Y-41477200D02*
X170713809Y-41381961D01*
X170713809Y-41381961D02*
X170713809Y-40524819D01*
X171618571Y-41477200D02*
X171523333Y-41524819D01*
X171523333Y-41524819D02*
X171332857Y-41524819D01*
X171332857Y-41524819D02*
X171237619Y-41477200D01*
X171237619Y-41477200D02*
X171190000Y-41381961D01*
X171190000Y-41381961D02*
X171190000Y-41001009D01*
X171190000Y-41001009D02*
X171237619Y-40905771D01*
X171237619Y-40905771D02*
X171332857Y-40858152D01*
X171332857Y-40858152D02*
X171523333Y-40858152D01*
X171523333Y-40858152D02*
X171618571Y-40905771D01*
X171618571Y-40905771D02*
X171666190Y-41001009D01*
X171666190Y-41001009D02*
X171666190Y-41096247D01*
X171666190Y-41096247D02*
X171190000Y-41191485D01*
X172523333Y-41524819D02*
X172523333Y-40524819D01*
X172523333Y-41477200D02*
X172428095Y-41524819D01*
X172428095Y-41524819D02*
X172237619Y-41524819D01*
X172237619Y-41524819D02*
X172142381Y-41477200D01*
X172142381Y-41477200D02*
X172094762Y-41429580D01*
X172094762Y-41429580D02*
X172047143Y-41334342D01*
X172047143Y-41334342D02*
X172047143Y-41048628D01*
X172047143Y-41048628D02*
X172094762Y-40953390D01*
X172094762Y-40953390D02*
X172142381Y-40905771D01*
X172142381Y-40905771D02*
X172237619Y-40858152D01*
X172237619Y-40858152D02*
X172428095Y-40858152D01*
X172428095Y-40858152D02*
X172523333Y-40905771D01*
X172761429Y-41620057D02*
X173523333Y-41620057D01*
X173761429Y-41524819D02*
X173761429Y-40524819D01*
X173761429Y-40905771D02*
X173856667Y-40858152D01*
X173856667Y-40858152D02*
X174047143Y-40858152D01*
X174047143Y-40858152D02*
X174142381Y-40905771D01*
X174142381Y-40905771D02*
X174190000Y-40953390D01*
X174190000Y-40953390D02*
X174237619Y-41048628D01*
X174237619Y-41048628D02*
X174237619Y-41334342D01*
X174237619Y-41334342D02*
X174190000Y-41429580D01*
X174190000Y-41429580D02*
X174142381Y-41477200D01*
X174142381Y-41477200D02*
X174047143Y-41524819D01*
X174047143Y-41524819D02*
X173856667Y-41524819D01*
X173856667Y-41524819D02*
X173761429Y-41477200D01*
X174523334Y-40858152D02*
X174904286Y-40858152D01*
X174666191Y-40524819D02*
X174666191Y-41381961D01*
X174666191Y-41381961D02*
X174713810Y-41477200D01*
X174713810Y-41477200D02*
X174809048Y-41524819D01*
X174809048Y-41524819D02*
X174904286Y-41524819D01*
X175237620Y-40858152D02*
X175237620Y-41524819D01*
X175237620Y-40953390D02*
X175285239Y-40905771D01*
X175285239Y-40905771D02*
X175380477Y-40858152D01*
X175380477Y-40858152D02*
X175523334Y-40858152D01*
X175523334Y-40858152D02*
X175618572Y-40905771D01*
X175618572Y-40905771D02*
X175666191Y-41001009D01*
X175666191Y-41001009D02*
X175666191Y-41524819D01*
D12*
X172820952Y-42947149D02*
X172820952Y-42447149D01*
X172820952Y-42447149D02*
X172940000Y-42447149D01*
X172940000Y-42447149D02*
X173011428Y-42470959D01*
X173011428Y-42470959D02*
X173059047Y-42518578D01*
X173059047Y-42518578D02*
X173082857Y-42566197D01*
X173082857Y-42566197D02*
X173106666Y-42661435D01*
X173106666Y-42661435D02*
X173106666Y-42732863D01*
X173106666Y-42732863D02*
X173082857Y-42828101D01*
X173082857Y-42828101D02*
X173059047Y-42875720D01*
X173059047Y-42875720D02*
X173011428Y-42923340D01*
X173011428Y-42923340D02*
X172940000Y-42947149D01*
X172940000Y-42947149D02*
X172820952Y-42947149D01*
X173582857Y-42947149D02*
X173297143Y-42947149D01*
X173440000Y-42947149D02*
X173440000Y-42447149D01*
X173440000Y-42447149D02*
X173392381Y-42518578D01*
X173392381Y-42518578D02*
X173344762Y-42566197D01*
X173344762Y-42566197D02*
X173297143Y-42590006D01*
D10*
X142239999Y-99374819D02*
X141668571Y-99374819D01*
X141954285Y-99374819D02*
X141954285Y-98374819D01*
X141954285Y-98374819D02*
X141859047Y-98517676D01*
X141859047Y-98517676D02*
X141763809Y-98612914D01*
X141763809Y-98612914D02*
X141668571Y-98660533D01*
X142668571Y-99279580D02*
X142716190Y-99327200D01*
X142716190Y-99327200D02*
X142668571Y-99374819D01*
X142668571Y-99374819D02*
X142620952Y-99327200D01*
X142620952Y-99327200D02*
X142668571Y-99279580D01*
X142668571Y-99279580D02*
X142668571Y-99374819D01*
X143287618Y-98803390D02*
X143192380Y-98755771D01*
X143192380Y-98755771D02*
X143144761Y-98708152D01*
X143144761Y-98708152D02*
X143097142Y-98612914D01*
X143097142Y-98612914D02*
X143097142Y-98565295D01*
X143097142Y-98565295D02*
X143144761Y-98470057D01*
X143144761Y-98470057D02*
X143192380Y-98422438D01*
X143192380Y-98422438D02*
X143287618Y-98374819D01*
X143287618Y-98374819D02*
X143478094Y-98374819D01*
X143478094Y-98374819D02*
X143573332Y-98422438D01*
X143573332Y-98422438D02*
X143620951Y-98470057D01*
X143620951Y-98470057D02*
X143668570Y-98565295D01*
X143668570Y-98565295D02*
X143668570Y-98612914D01*
X143668570Y-98612914D02*
X143620951Y-98708152D01*
X143620951Y-98708152D02*
X143573332Y-98755771D01*
X143573332Y-98755771D02*
X143478094Y-98803390D01*
X143478094Y-98803390D02*
X143287618Y-98803390D01*
X143287618Y-98803390D02*
X143192380Y-98851009D01*
X143192380Y-98851009D02*
X143144761Y-98898628D01*
X143144761Y-98898628D02*
X143097142Y-98993866D01*
X143097142Y-98993866D02*
X143097142Y-99184342D01*
X143097142Y-99184342D02*
X143144761Y-99279580D01*
X143144761Y-99279580D02*
X143192380Y-99327200D01*
X143192380Y-99327200D02*
X143287618Y-99374819D01*
X143287618Y-99374819D02*
X143478094Y-99374819D01*
X143478094Y-99374819D02*
X143573332Y-99327200D01*
X143573332Y-99327200D02*
X143620951Y-99279580D01*
X143620951Y-99279580D02*
X143668570Y-99184342D01*
X143668570Y-99184342D02*
X143668570Y-98993866D01*
X143668570Y-98993866D02*
X143620951Y-98898628D01*
X143620951Y-98898628D02*
X143573332Y-98851009D01*
X143573332Y-98851009D02*
X143478094Y-98803390D01*
X144716190Y-98374819D02*
X145287618Y-98374819D01*
X145001904Y-99374819D02*
X145001904Y-98374819D01*
X145954285Y-98851009D02*
X145620952Y-98851009D01*
X145620952Y-99374819D02*
X145620952Y-98374819D01*
X145620952Y-98374819D02*
X146097142Y-98374819D01*
X146335238Y-98374819D02*
X146906666Y-98374819D01*
X146620952Y-99374819D02*
X146620952Y-98374819D01*
X148525714Y-99374819D02*
X147954286Y-99374819D01*
X148240000Y-99374819D02*
X148240000Y-98374819D01*
X148240000Y-98374819D02*
X148144762Y-98517676D01*
X148144762Y-98517676D02*
X148049524Y-98612914D01*
X148049524Y-98612914D02*
X147954286Y-98660533D01*
X148906667Y-98470057D02*
X148954286Y-98422438D01*
X148954286Y-98422438D02*
X149049524Y-98374819D01*
X149049524Y-98374819D02*
X149287619Y-98374819D01*
X149287619Y-98374819D02*
X149382857Y-98422438D01*
X149382857Y-98422438D02*
X149430476Y-98470057D01*
X149430476Y-98470057D02*
X149478095Y-98565295D01*
X149478095Y-98565295D02*
X149478095Y-98660533D01*
X149478095Y-98660533D02*
X149430476Y-98803390D01*
X149430476Y-98803390D02*
X148859048Y-99374819D01*
X148859048Y-99374819D02*
X149478095Y-99374819D01*
X150049524Y-98803390D02*
X149954286Y-98755771D01*
X149954286Y-98755771D02*
X149906667Y-98708152D01*
X149906667Y-98708152D02*
X149859048Y-98612914D01*
X149859048Y-98612914D02*
X149859048Y-98565295D01*
X149859048Y-98565295D02*
X149906667Y-98470057D01*
X149906667Y-98470057D02*
X149954286Y-98422438D01*
X149954286Y-98422438D02*
X150049524Y-98374819D01*
X150049524Y-98374819D02*
X150240000Y-98374819D01*
X150240000Y-98374819D02*
X150335238Y-98422438D01*
X150335238Y-98422438D02*
X150382857Y-98470057D01*
X150382857Y-98470057D02*
X150430476Y-98565295D01*
X150430476Y-98565295D02*
X150430476Y-98612914D01*
X150430476Y-98612914D02*
X150382857Y-98708152D01*
X150382857Y-98708152D02*
X150335238Y-98755771D01*
X150335238Y-98755771D02*
X150240000Y-98803390D01*
X150240000Y-98803390D02*
X150049524Y-98803390D01*
X150049524Y-98803390D02*
X149954286Y-98851009D01*
X149954286Y-98851009D02*
X149906667Y-98898628D01*
X149906667Y-98898628D02*
X149859048Y-98993866D01*
X149859048Y-98993866D02*
X149859048Y-99184342D01*
X149859048Y-99184342D02*
X149906667Y-99279580D01*
X149906667Y-99279580D02*
X149954286Y-99327200D01*
X149954286Y-99327200D02*
X150049524Y-99374819D01*
X150049524Y-99374819D02*
X150240000Y-99374819D01*
X150240000Y-99374819D02*
X150335238Y-99327200D01*
X150335238Y-99327200D02*
X150382857Y-99279580D01*
X150382857Y-99279580D02*
X150430476Y-99184342D01*
X150430476Y-99184342D02*
X150430476Y-98993866D01*
X150430476Y-98993866D02*
X150382857Y-98898628D01*
X150382857Y-98898628D02*
X150335238Y-98851009D01*
X150335238Y-98851009D02*
X150240000Y-98803390D01*
X151001905Y-98374819D02*
X151001905Y-98612914D01*
X150763810Y-98517676D02*
X151001905Y-98612914D01*
X151001905Y-98612914D02*
X151240000Y-98517676D01*
X150859048Y-98803390D02*
X151001905Y-98612914D01*
X151001905Y-98612914D02*
X151144762Y-98803390D01*
X152192381Y-99374819D02*
X151859048Y-98898628D01*
X151620953Y-99374819D02*
X151620953Y-98374819D01*
X151620953Y-98374819D02*
X152001905Y-98374819D01*
X152001905Y-98374819D02*
X152097143Y-98422438D01*
X152097143Y-98422438D02*
X152144762Y-98470057D01*
X152144762Y-98470057D02*
X152192381Y-98565295D01*
X152192381Y-98565295D02*
X152192381Y-98708152D01*
X152192381Y-98708152D02*
X152144762Y-98803390D01*
X152144762Y-98803390D02*
X152097143Y-98851009D01*
X152097143Y-98851009D02*
X152001905Y-98898628D01*
X152001905Y-98898628D02*
X151620953Y-98898628D01*
X153144762Y-98422438D02*
X153049524Y-98374819D01*
X153049524Y-98374819D02*
X152906667Y-98374819D01*
X152906667Y-98374819D02*
X152763810Y-98422438D01*
X152763810Y-98422438D02*
X152668572Y-98517676D01*
X152668572Y-98517676D02*
X152620953Y-98612914D01*
X152620953Y-98612914D02*
X152573334Y-98803390D01*
X152573334Y-98803390D02*
X152573334Y-98946247D01*
X152573334Y-98946247D02*
X152620953Y-99136723D01*
X152620953Y-99136723D02*
X152668572Y-99231961D01*
X152668572Y-99231961D02*
X152763810Y-99327200D01*
X152763810Y-99327200D02*
X152906667Y-99374819D01*
X152906667Y-99374819D02*
X153001905Y-99374819D01*
X153001905Y-99374819D02*
X153144762Y-99327200D01*
X153144762Y-99327200D02*
X153192381Y-99279580D01*
X153192381Y-99279580D02*
X153192381Y-98946247D01*
X153192381Y-98946247D02*
X153001905Y-98946247D01*
X153954286Y-98851009D02*
X154097143Y-98898628D01*
X154097143Y-98898628D02*
X154144762Y-98946247D01*
X154144762Y-98946247D02*
X154192381Y-99041485D01*
X154192381Y-99041485D02*
X154192381Y-99184342D01*
X154192381Y-99184342D02*
X154144762Y-99279580D01*
X154144762Y-99279580D02*
X154097143Y-99327200D01*
X154097143Y-99327200D02*
X154001905Y-99374819D01*
X154001905Y-99374819D02*
X153620953Y-99374819D01*
X153620953Y-99374819D02*
X153620953Y-98374819D01*
X153620953Y-98374819D02*
X153954286Y-98374819D01*
X153954286Y-98374819D02*
X154049524Y-98422438D01*
X154049524Y-98422438D02*
X154097143Y-98470057D01*
X154097143Y-98470057D02*
X154144762Y-98565295D01*
X154144762Y-98565295D02*
X154144762Y-98660533D01*
X154144762Y-98660533D02*
X154097143Y-98755771D01*
X154097143Y-98755771D02*
X154049524Y-98803390D01*
X154049524Y-98803390D02*
X153954286Y-98851009D01*
X153954286Y-98851009D02*
X153620953Y-98851009D01*
X154763810Y-98374819D02*
X154763810Y-98612914D01*
X154525715Y-98517676D02*
X154763810Y-98612914D01*
X154763810Y-98612914D02*
X155001905Y-98517676D01*
X154620953Y-98803390D02*
X154763810Y-98612914D01*
X154763810Y-98612914D02*
X154906667Y-98803390D01*
X155906667Y-99374819D02*
X155335239Y-99374819D01*
X155620953Y-99374819D02*
X155620953Y-98374819D01*
X155620953Y-98374819D02*
X155525715Y-98517676D01*
X155525715Y-98517676D02*
X155430477Y-98612914D01*
X155430477Y-98612914D02*
X155335239Y-98660533D01*
X156763810Y-98374819D02*
X156573334Y-98374819D01*
X156573334Y-98374819D02*
X156478096Y-98422438D01*
X156478096Y-98422438D02*
X156430477Y-98470057D01*
X156430477Y-98470057D02*
X156335239Y-98612914D01*
X156335239Y-98612914D02*
X156287620Y-98803390D01*
X156287620Y-98803390D02*
X156287620Y-99184342D01*
X156287620Y-99184342D02*
X156335239Y-99279580D01*
X156335239Y-99279580D02*
X156382858Y-99327200D01*
X156382858Y-99327200D02*
X156478096Y-99374819D01*
X156478096Y-99374819D02*
X156668572Y-99374819D01*
X156668572Y-99374819D02*
X156763810Y-99327200D01*
X156763810Y-99327200D02*
X156811429Y-99279580D01*
X156811429Y-99279580D02*
X156859048Y-99184342D01*
X156859048Y-99184342D02*
X156859048Y-98946247D01*
X156859048Y-98946247D02*
X156811429Y-98851009D01*
X156811429Y-98851009D02*
X156763810Y-98803390D01*
X156763810Y-98803390D02*
X156668572Y-98755771D01*
X156668572Y-98755771D02*
X156478096Y-98755771D01*
X156478096Y-98755771D02*
X156382858Y-98803390D01*
X156382858Y-98803390D02*
X156335239Y-98851009D01*
X156335239Y-98851009D02*
X156287620Y-98946247D01*
X157478096Y-98374819D02*
X157573334Y-98374819D01*
X157573334Y-98374819D02*
X157668572Y-98422438D01*
X157668572Y-98422438D02*
X157716191Y-98470057D01*
X157716191Y-98470057D02*
X157763810Y-98565295D01*
X157763810Y-98565295D02*
X157811429Y-98755771D01*
X157811429Y-98755771D02*
X157811429Y-98993866D01*
X157811429Y-98993866D02*
X157763810Y-99184342D01*
X157763810Y-99184342D02*
X157716191Y-99279580D01*
X157716191Y-99279580D02*
X157668572Y-99327200D01*
X157668572Y-99327200D02*
X157573334Y-99374819D01*
X157573334Y-99374819D02*
X157478096Y-99374819D01*
X157478096Y-99374819D02*
X157382858Y-99327200D01*
X157382858Y-99327200D02*
X157335239Y-99279580D01*
X157335239Y-99279580D02*
X157287620Y-99184342D01*
X157287620Y-99184342D02*
X157240001Y-98993866D01*
X157240001Y-98993866D02*
X157240001Y-98755771D01*
X157240001Y-98755771D02*
X157287620Y-98565295D01*
X157287620Y-98565295D02*
X157335239Y-98470057D01*
X157335239Y-98470057D02*
X157382858Y-98422438D01*
X157382858Y-98422438D02*
X157478096Y-98374819D01*
X120376190Y-53664819D02*
X120042857Y-53188628D01*
X119804762Y-53664819D02*
X119804762Y-52664819D01*
X119804762Y-52664819D02*
X120185714Y-52664819D01*
X120185714Y-52664819D02*
X120280952Y-52712438D01*
X120280952Y-52712438D02*
X120328571Y-52760057D01*
X120328571Y-52760057D02*
X120376190Y-52855295D01*
X120376190Y-52855295D02*
X120376190Y-52998152D01*
X120376190Y-52998152D02*
X120328571Y-53093390D01*
X120328571Y-53093390D02*
X120280952Y-53141009D01*
X120280952Y-53141009D02*
X120185714Y-53188628D01*
X120185714Y-53188628D02*
X119804762Y-53188628D01*
X121090476Y-52664819D02*
X121090476Y-53379104D01*
X121090476Y-53379104D02*
X121042857Y-53521961D01*
X121042857Y-53521961D02*
X120947619Y-53617200D01*
X120947619Y-53617200D02*
X120804762Y-53664819D01*
X120804762Y-53664819D02*
X120709524Y-53664819D01*
X121995238Y-52998152D02*
X121995238Y-53664819D01*
X121757143Y-52617200D02*
X121519048Y-53331485D01*
X121519048Y-53331485D02*
X122138095Y-53331485D01*
X122995238Y-52664819D02*
X122519048Y-52664819D01*
X122519048Y-52664819D02*
X122471429Y-53141009D01*
X122471429Y-53141009D02*
X122519048Y-53093390D01*
X122519048Y-53093390D02*
X122614286Y-53045771D01*
X122614286Y-53045771D02*
X122852381Y-53045771D01*
X122852381Y-53045771D02*
X122947619Y-53093390D01*
X122947619Y-53093390D02*
X122995238Y-53141009D01*
X122995238Y-53141009D02*
X123042857Y-53236247D01*
X123042857Y-53236247D02*
X123042857Y-53474342D01*
X123042857Y-53474342D02*
X122995238Y-53569580D01*
X122995238Y-53569580D02*
X122947619Y-53617200D01*
X122947619Y-53617200D02*
X122852381Y-53664819D01*
X122852381Y-53664819D02*
X122614286Y-53664819D01*
X122614286Y-53664819D02*
X122519048Y-53617200D01*
X122519048Y-53617200D02*
X122471429Y-53569580D01*
X119019047Y-38164819D02*
X118685714Y-37688628D01*
X118447619Y-38164819D02*
X118447619Y-37164819D01*
X118447619Y-37164819D02*
X118828571Y-37164819D01*
X118828571Y-37164819D02*
X118923809Y-37212438D01*
X118923809Y-37212438D02*
X118971428Y-37260057D01*
X118971428Y-37260057D02*
X119019047Y-37355295D01*
X119019047Y-37355295D02*
X119019047Y-37498152D01*
X119019047Y-37498152D02*
X118971428Y-37593390D01*
X118971428Y-37593390D02*
X118923809Y-37641009D01*
X118923809Y-37641009D02*
X118828571Y-37688628D01*
X118828571Y-37688628D02*
X118447619Y-37688628D01*
X119733333Y-37164819D02*
X119733333Y-37879104D01*
X119733333Y-37879104D02*
X119685714Y-38021961D01*
X119685714Y-38021961D02*
X119590476Y-38117200D01*
X119590476Y-38117200D02*
X119447619Y-38164819D01*
X119447619Y-38164819D02*
X119352381Y-38164819D01*
X119971429Y-38260057D02*
X120733333Y-38260057D01*
X121542857Y-38069580D02*
X121495238Y-38117200D01*
X121495238Y-38117200D02*
X121352381Y-38164819D01*
X121352381Y-38164819D02*
X121257143Y-38164819D01*
X121257143Y-38164819D02*
X121114286Y-38117200D01*
X121114286Y-38117200D02*
X121019048Y-38021961D01*
X121019048Y-38021961D02*
X120971429Y-37926723D01*
X120971429Y-37926723D02*
X120923810Y-37736247D01*
X120923810Y-37736247D02*
X120923810Y-37593390D01*
X120923810Y-37593390D02*
X120971429Y-37402914D01*
X120971429Y-37402914D02*
X121019048Y-37307676D01*
X121019048Y-37307676D02*
X121114286Y-37212438D01*
X121114286Y-37212438D02*
X121257143Y-37164819D01*
X121257143Y-37164819D02*
X121352381Y-37164819D01*
X121352381Y-37164819D02*
X121495238Y-37212438D01*
X121495238Y-37212438D02*
X121542857Y-37260057D01*
X121923810Y-37879104D02*
X122400000Y-37879104D01*
X121828572Y-38164819D02*
X122161905Y-37164819D01*
X122161905Y-37164819D02*
X122495238Y-38164819D01*
X122828572Y-38164819D02*
X122828572Y-37164819D01*
X122828572Y-37164819D02*
X123400000Y-38164819D01*
X123400000Y-38164819D02*
X123400000Y-37164819D01*
X124400000Y-38164819D02*
X123828572Y-38164819D01*
X124114286Y-38164819D02*
X124114286Y-37164819D01*
X124114286Y-37164819D02*
X124019048Y-37307676D01*
X124019048Y-37307676D02*
X123923810Y-37402914D01*
X123923810Y-37402914D02*
X123828572Y-37450533D01*
X200434819Y-89309047D02*
X200387200Y-89404285D01*
X200387200Y-89404285D02*
X200291961Y-89451904D01*
X200291961Y-89451904D02*
X199434819Y-89451904D01*
X200387200Y-88547142D02*
X200434819Y-88642380D01*
X200434819Y-88642380D02*
X200434819Y-88832856D01*
X200434819Y-88832856D02*
X200387200Y-88928094D01*
X200387200Y-88928094D02*
X200291961Y-88975713D01*
X200291961Y-88975713D02*
X199911009Y-88975713D01*
X199911009Y-88975713D02*
X199815771Y-88928094D01*
X199815771Y-88928094D02*
X199768152Y-88832856D01*
X199768152Y-88832856D02*
X199768152Y-88642380D01*
X199768152Y-88642380D02*
X199815771Y-88547142D01*
X199815771Y-88547142D02*
X199911009Y-88499523D01*
X199911009Y-88499523D02*
X200006247Y-88499523D01*
X200006247Y-88499523D02*
X200101485Y-88975713D01*
X200434819Y-87642380D02*
X199434819Y-87642380D01*
X200387200Y-87642380D02*
X200434819Y-87737618D01*
X200434819Y-87737618D02*
X200434819Y-87928094D01*
X200434819Y-87928094D02*
X200387200Y-88023332D01*
X200387200Y-88023332D02*
X200339580Y-88070951D01*
X200339580Y-88070951D02*
X200244342Y-88118570D01*
X200244342Y-88118570D02*
X199958628Y-88118570D01*
X199958628Y-88118570D02*
X199863390Y-88070951D01*
X199863390Y-88070951D02*
X199815771Y-88023332D01*
X199815771Y-88023332D02*
X199768152Y-87928094D01*
X199768152Y-87928094D02*
X199768152Y-87737618D01*
X199768152Y-87737618D02*
X199815771Y-87642380D01*
X199434819Y-86689999D02*
X199434819Y-87166189D01*
X199434819Y-87166189D02*
X199911009Y-87213808D01*
X199911009Y-87213808D02*
X199863390Y-87166189D01*
X199863390Y-87166189D02*
X199815771Y-87070951D01*
X199815771Y-87070951D02*
X199815771Y-86832856D01*
X199815771Y-86832856D02*
X199863390Y-86737618D01*
X199863390Y-86737618D02*
X199911009Y-86689999D01*
X199911009Y-86689999D02*
X200006247Y-86642380D01*
X200006247Y-86642380D02*
X200244342Y-86642380D01*
X200244342Y-86642380D02*
X200339580Y-86689999D01*
X200339580Y-86689999D02*
X200387200Y-86737618D01*
X200387200Y-86737618D02*
X200434819Y-86832856D01*
X200434819Y-86832856D02*
X200434819Y-87070951D01*
X200434819Y-87070951D02*
X200387200Y-87166189D01*
X200387200Y-87166189D02*
X200339580Y-87213808D01*
X199768152Y-86309046D02*
X200434819Y-86070951D01*
X200434819Y-86070951D02*
X199768152Y-85832856D01*
D12*
X201857149Y-88059047D02*
X201357149Y-88059047D01*
X201357149Y-88059047D02*
X201357149Y-87939999D01*
X201357149Y-87939999D02*
X201380959Y-87868571D01*
X201380959Y-87868571D02*
X201428578Y-87820952D01*
X201428578Y-87820952D02*
X201476197Y-87797142D01*
X201476197Y-87797142D02*
X201571435Y-87773333D01*
X201571435Y-87773333D02*
X201642863Y-87773333D01*
X201642863Y-87773333D02*
X201738101Y-87797142D01*
X201738101Y-87797142D02*
X201785720Y-87820952D01*
X201785720Y-87820952D02*
X201833340Y-87868571D01*
X201833340Y-87868571D02*
X201857149Y-87939999D01*
X201857149Y-87939999D02*
X201857149Y-88059047D01*
X201857149Y-87535237D02*
X201857149Y-87439999D01*
X201857149Y-87439999D02*
X201833340Y-87392380D01*
X201833340Y-87392380D02*
X201809530Y-87368571D01*
X201809530Y-87368571D02*
X201738101Y-87320952D01*
X201738101Y-87320952D02*
X201642863Y-87297142D01*
X201642863Y-87297142D02*
X201452387Y-87297142D01*
X201452387Y-87297142D02*
X201404768Y-87320952D01*
X201404768Y-87320952D02*
X201380959Y-87344761D01*
X201380959Y-87344761D02*
X201357149Y-87392380D01*
X201357149Y-87392380D02*
X201357149Y-87487618D01*
X201357149Y-87487618D02*
X201380959Y-87535237D01*
X201380959Y-87535237D02*
X201404768Y-87559047D01*
X201404768Y-87559047D02*
X201452387Y-87582856D01*
X201452387Y-87582856D02*
X201571435Y-87582856D01*
X201571435Y-87582856D02*
X201619054Y-87559047D01*
X201619054Y-87559047D02*
X201642863Y-87535237D01*
X201642863Y-87535237D02*
X201666673Y-87487618D01*
X201666673Y-87487618D02*
X201666673Y-87392380D01*
X201666673Y-87392380D02*
X201642863Y-87344761D01*
X201642863Y-87344761D02*
X201619054Y-87320952D01*
X201619054Y-87320952D02*
X201571435Y-87297142D01*
D10*
X179833333Y-72904819D02*
X180404761Y-72904819D01*
X180119047Y-73904819D02*
X180119047Y-72904819D01*
X180690476Y-73857200D02*
X180833333Y-73904819D01*
X180833333Y-73904819D02*
X181071428Y-73904819D01*
X181071428Y-73904819D02*
X181166666Y-73857200D01*
X181166666Y-73857200D02*
X181214285Y-73809580D01*
X181214285Y-73809580D02*
X181261904Y-73714342D01*
X181261904Y-73714342D02*
X181261904Y-73619104D01*
X181261904Y-73619104D02*
X181214285Y-73523866D01*
X181214285Y-73523866D02*
X181166666Y-73476247D01*
X181166666Y-73476247D02*
X181071428Y-73428628D01*
X181071428Y-73428628D02*
X180880952Y-73381009D01*
X180880952Y-73381009D02*
X180785714Y-73333390D01*
X180785714Y-73333390D02*
X180738095Y-73285771D01*
X180738095Y-73285771D02*
X180690476Y-73190533D01*
X180690476Y-73190533D02*
X180690476Y-73095295D01*
X180690476Y-73095295D02*
X180738095Y-73000057D01*
X180738095Y-73000057D02*
X180785714Y-72952438D01*
X180785714Y-72952438D02*
X180880952Y-72904819D01*
X180880952Y-72904819D02*
X181119047Y-72904819D01*
X181119047Y-72904819D02*
X181261904Y-72952438D01*
X181690476Y-73523866D02*
X182452381Y-73523866D01*
X183357142Y-72904819D02*
X183166666Y-72904819D01*
X183166666Y-72904819D02*
X183071428Y-72952438D01*
X183071428Y-72952438D02*
X183023809Y-73000057D01*
X183023809Y-73000057D02*
X182928571Y-73142914D01*
X182928571Y-73142914D02*
X182880952Y-73333390D01*
X182880952Y-73333390D02*
X182880952Y-73714342D01*
X182880952Y-73714342D02*
X182928571Y-73809580D01*
X182928571Y-73809580D02*
X182976190Y-73857200D01*
X182976190Y-73857200D02*
X183071428Y-73904819D01*
X183071428Y-73904819D02*
X183261904Y-73904819D01*
X183261904Y-73904819D02*
X183357142Y-73857200D01*
X183357142Y-73857200D02*
X183404761Y-73809580D01*
X183404761Y-73809580D02*
X183452380Y-73714342D01*
X183452380Y-73714342D02*
X183452380Y-73476247D01*
X183452380Y-73476247D02*
X183404761Y-73381009D01*
X183404761Y-73381009D02*
X183357142Y-73333390D01*
X183357142Y-73333390D02*
X183261904Y-73285771D01*
X183261904Y-73285771D02*
X183071428Y-73285771D01*
X183071428Y-73285771D02*
X182976190Y-73333390D01*
X182976190Y-73333390D02*
X182928571Y-73381009D01*
X182928571Y-73381009D02*
X182880952Y-73476247D01*
X184309523Y-72904819D02*
X184119047Y-72904819D01*
X184119047Y-72904819D02*
X184023809Y-72952438D01*
X184023809Y-72952438D02*
X183976190Y-73000057D01*
X183976190Y-73000057D02*
X183880952Y-73142914D01*
X183880952Y-73142914D02*
X183833333Y-73333390D01*
X183833333Y-73333390D02*
X183833333Y-73714342D01*
X183833333Y-73714342D02*
X183880952Y-73809580D01*
X183880952Y-73809580D02*
X183928571Y-73857200D01*
X183928571Y-73857200D02*
X184023809Y-73904819D01*
X184023809Y-73904819D02*
X184214285Y-73904819D01*
X184214285Y-73904819D02*
X184309523Y-73857200D01*
X184309523Y-73857200D02*
X184357142Y-73809580D01*
X184357142Y-73809580D02*
X184404761Y-73714342D01*
X184404761Y-73714342D02*
X184404761Y-73476247D01*
X184404761Y-73476247D02*
X184357142Y-73381009D01*
X184357142Y-73381009D02*
X184309523Y-73333390D01*
X184309523Y-73333390D02*
X184214285Y-73285771D01*
X184214285Y-73285771D02*
X184023809Y-73285771D01*
X184023809Y-73285771D02*
X183928571Y-73333390D01*
X183928571Y-73333390D02*
X183880952Y-73381009D01*
X183880952Y-73381009D02*
X183833333Y-73476247D01*
X185261904Y-73238152D02*
X185261904Y-73904819D01*
X185023809Y-72857200D02*
X184785714Y-73571485D01*
X184785714Y-73571485D02*
X185404761Y-73571485D01*
X186261904Y-72904819D02*
X185785714Y-72904819D01*
X185785714Y-72904819D02*
X185738095Y-73381009D01*
X185738095Y-73381009D02*
X185785714Y-73333390D01*
X185785714Y-73333390D02*
X185880952Y-73285771D01*
X185880952Y-73285771D02*
X186119047Y-73285771D01*
X186119047Y-73285771D02*
X186214285Y-73333390D01*
X186214285Y-73333390D02*
X186261904Y-73381009D01*
X186261904Y-73381009D02*
X186309523Y-73476247D01*
X186309523Y-73476247D02*
X186309523Y-73714342D01*
X186309523Y-73714342D02*
X186261904Y-73809580D01*
X186261904Y-73809580D02*
X186214285Y-73857200D01*
X186214285Y-73857200D02*
X186119047Y-73904819D01*
X186119047Y-73904819D02*
X185880952Y-73904819D01*
X185880952Y-73904819D02*
X185785714Y-73857200D01*
X185785714Y-73857200D02*
X185738095Y-73809580D01*
X186738095Y-73904819D02*
X186738095Y-72904819D01*
X186738095Y-72904819D02*
X186976190Y-72904819D01*
X186976190Y-72904819D02*
X187119047Y-72952438D01*
X187119047Y-72952438D02*
X187214285Y-73047676D01*
X187214285Y-73047676D02*
X187261904Y-73142914D01*
X187261904Y-73142914D02*
X187309523Y-73333390D01*
X187309523Y-73333390D02*
X187309523Y-73476247D01*
X187309523Y-73476247D02*
X187261904Y-73666723D01*
X187261904Y-73666723D02*
X187214285Y-73761961D01*
X187214285Y-73761961D02*
X187119047Y-73857200D01*
X187119047Y-73857200D02*
X186976190Y-73904819D01*
X186976190Y-73904819D02*
X186738095Y-73904819D01*
X187738095Y-73904819D02*
X187738095Y-72904819D01*
X187738095Y-72904819D02*
X187976190Y-72904819D01*
X187976190Y-72904819D02*
X188119047Y-72952438D01*
X188119047Y-72952438D02*
X188214285Y-73047676D01*
X188214285Y-73047676D02*
X188261904Y-73142914D01*
X188261904Y-73142914D02*
X188309523Y-73333390D01*
X188309523Y-73333390D02*
X188309523Y-73476247D01*
X188309523Y-73476247D02*
X188261904Y-73666723D01*
X188261904Y-73666723D02*
X188214285Y-73761961D01*
X188214285Y-73761961D02*
X188119047Y-73857200D01*
X188119047Y-73857200D02*
X187976190Y-73904819D01*
X187976190Y-73904819D02*
X187738095Y-73904819D01*
X189166666Y-72904819D02*
X188976190Y-72904819D01*
X188976190Y-72904819D02*
X188880952Y-72952438D01*
X188880952Y-72952438D02*
X188833333Y-73000057D01*
X188833333Y-73000057D02*
X188738095Y-73142914D01*
X188738095Y-73142914D02*
X188690476Y-73333390D01*
X188690476Y-73333390D02*
X188690476Y-73714342D01*
X188690476Y-73714342D02*
X188738095Y-73809580D01*
X188738095Y-73809580D02*
X188785714Y-73857200D01*
X188785714Y-73857200D02*
X188880952Y-73904819D01*
X188880952Y-73904819D02*
X189071428Y-73904819D01*
X189071428Y-73904819D02*
X189166666Y-73857200D01*
X189166666Y-73857200D02*
X189214285Y-73809580D01*
X189214285Y-73809580D02*
X189261904Y-73714342D01*
X189261904Y-73714342D02*
X189261904Y-73476247D01*
X189261904Y-73476247D02*
X189214285Y-73381009D01*
X189214285Y-73381009D02*
X189166666Y-73333390D01*
X189166666Y-73333390D02*
X189071428Y-73285771D01*
X189071428Y-73285771D02*
X188880952Y-73285771D01*
X188880952Y-73285771D02*
X188785714Y-73333390D01*
X188785714Y-73333390D02*
X188738095Y-73381009D01*
X188738095Y-73381009D02*
X188690476Y-73476247D01*
X189595238Y-72904819D02*
X190261904Y-73904819D01*
X190261904Y-72904819D02*
X189595238Y-73904819D01*
X191071428Y-72904819D02*
X190880952Y-72904819D01*
X190880952Y-72904819D02*
X190785714Y-72952438D01*
X190785714Y-72952438D02*
X190738095Y-73000057D01*
X190738095Y-73000057D02*
X190642857Y-73142914D01*
X190642857Y-73142914D02*
X190595238Y-73333390D01*
X190595238Y-73333390D02*
X190595238Y-73714342D01*
X190595238Y-73714342D02*
X190642857Y-73809580D01*
X190642857Y-73809580D02*
X190690476Y-73857200D01*
X190690476Y-73857200D02*
X190785714Y-73904819D01*
X190785714Y-73904819D02*
X190976190Y-73904819D01*
X190976190Y-73904819D02*
X191071428Y-73857200D01*
X191071428Y-73857200D02*
X191119047Y-73809580D01*
X191119047Y-73809580D02*
X191166666Y-73714342D01*
X191166666Y-73714342D02*
X191166666Y-73476247D01*
X191166666Y-73476247D02*
X191119047Y-73381009D01*
X191119047Y-73381009D02*
X191071428Y-73333390D01*
X191071428Y-73333390D02*
X190976190Y-73285771D01*
X190976190Y-73285771D02*
X190785714Y-73285771D01*
X190785714Y-73285771D02*
X190690476Y-73333390D01*
X190690476Y-73333390D02*
X190642857Y-73381009D01*
X190642857Y-73381009D02*
X190595238Y-73476247D01*
X191500000Y-72904819D02*
X192166666Y-73904819D01*
X192166666Y-72904819D02*
X191500000Y-73904819D01*
X193023809Y-72904819D02*
X192547619Y-72904819D01*
X192547619Y-72904819D02*
X192500000Y-73381009D01*
X192500000Y-73381009D02*
X192547619Y-73333390D01*
X192547619Y-73333390D02*
X192642857Y-73285771D01*
X192642857Y-73285771D02*
X192880952Y-73285771D01*
X192880952Y-73285771D02*
X192976190Y-73333390D01*
X192976190Y-73333390D02*
X193023809Y-73381009D01*
X193023809Y-73381009D02*
X193071428Y-73476247D01*
X193071428Y-73476247D02*
X193071428Y-73714342D01*
X193071428Y-73714342D02*
X193023809Y-73809580D01*
X193023809Y-73809580D02*
X192976190Y-73857200D01*
X192976190Y-73857200D02*
X192880952Y-73904819D01*
X192880952Y-73904819D02*
X192642857Y-73904819D01*
X192642857Y-73904819D02*
X192547619Y-73857200D01*
X192547619Y-73857200D02*
X192500000Y-73809580D01*
X183642857Y-69454819D02*
X183642857Y-68454819D01*
X183642857Y-68454819D02*
X183880952Y-68454819D01*
X183880952Y-68454819D02*
X184023809Y-68502438D01*
X184023809Y-68502438D02*
X184119047Y-68597676D01*
X184119047Y-68597676D02*
X184166666Y-68692914D01*
X184166666Y-68692914D02*
X184214285Y-68883390D01*
X184214285Y-68883390D02*
X184214285Y-69026247D01*
X184214285Y-69026247D02*
X184166666Y-69216723D01*
X184166666Y-69216723D02*
X184119047Y-69311961D01*
X184119047Y-69311961D02*
X184023809Y-69407200D01*
X184023809Y-69407200D02*
X183880952Y-69454819D01*
X183880952Y-69454819D02*
X183642857Y-69454819D01*
X184833333Y-68454819D02*
X185023809Y-68454819D01*
X185023809Y-68454819D02*
X185119047Y-68502438D01*
X185119047Y-68502438D02*
X185214285Y-68597676D01*
X185214285Y-68597676D02*
X185261904Y-68788152D01*
X185261904Y-68788152D02*
X185261904Y-69121485D01*
X185261904Y-69121485D02*
X185214285Y-69311961D01*
X185214285Y-69311961D02*
X185119047Y-69407200D01*
X185119047Y-69407200D02*
X185023809Y-69454819D01*
X185023809Y-69454819D02*
X184833333Y-69454819D01*
X184833333Y-69454819D02*
X184738095Y-69407200D01*
X184738095Y-69407200D02*
X184642857Y-69311961D01*
X184642857Y-69311961D02*
X184595238Y-69121485D01*
X184595238Y-69121485D02*
X184595238Y-68788152D01*
X184595238Y-68788152D02*
X184642857Y-68597676D01*
X184642857Y-68597676D02*
X184738095Y-68502438D01*
X184738095Y-68502438D02*
X184833333Y-68454819D01*
X185595238Y-68454819D02*
X185833333Y-69454819D01*
X185833333Y-69454819D02*
X186023809Y-68740533D01*
X186023809Y-68740533D02*
X186214285Y-69454819D01*
X186214285Y-69454819D02*
X186452381Y-68454819D01*
X186833333Y-69454819D02*
X186833333Y-68454819D01*
X186833333Y-68454819D02*
X187404761Y-69454819D01*
X187404761Y-69454819D02*
X187404761Y-68454819D01*
X188404761Y-69454819D02*
X187833333Y-69454819D01*
X188119047Y-69454819D02*
X188119047Y-68454819D01*
X188119047Y-68454819D02*
X188023809Y-68597676D01*
X188023809Y-68597676D02*
X187928571Y-68692914D01*
X187928571Y-68692914D02*
X187833333Y-68740533D01*
D13*
%TO.C,SW1*%
X122735000Y-52627500D02*
X129435000Y-52627500D01*
X122735000Y-56727500D02*
X122735000Y-52627500D01*
X126688333Y-55312500D02*
X126688333Y-54042500D01*
X128435000Y-56727500D02*
X122735000Y-56727500D01*
X129435000Y-52627500D02*
X129435000Y-55727500D01*
X129435000Y-55727500D02*
X128435000Y-56727500D01*
X127895000Y-55312500D02*
X124275000Y-55312500D01*
X124275000Y-54042500D01*
X127895000Y-54042500D01*
X127895000Y-55312500D01*
X127895000Y-55312500D02*
X126688333Y-55312500D01*
X126688333Y-54042500D01*
X127895000Y-54042500D01*
X127895000Y-55312500D01*
G36*
X127895000Y-55312500D02*
G01*
X126688333Y-55312500D01*
X126688333Y-54042500D01*
X127895000Y-54042500D01*
X127895000Y-55312500D01*
G37*
%TO.C,CN2*%
X197500000Y-68230000D02*
X197500000Y-68930000D01*
X197500000Y-68930000D02*
X199100000Y-68930000D01*
X197500000Y-75430000D02*
X197500000Y-76130000D01*
X197500000Y-76130000D02*
X205100000Y-76130000D01*
X199100000Y-68930000D02*
X199100000Y-75430000D01*
X199100000Y-75430000D02*
X197500000Y-75430000D01*
X199725000Y-74180000D02*
X200225000Y-74680000D01*
X200225000Y-73680000D02*
X199725000Y-74180000D01*
X200225000Y-74680000D02*
X200225000Y-73680000D01*
X205100000Y-68230000D02*
X197500000Y-68230000D01*
X205100000Y-76130000D02*
X205100000Y-68230000D01*
%TO.C,PROG1*%
X172190000Y-66380000D02*
X172190000Y-73380000D01*
X172190000Y-66380000D02*
X175090000Y-66380000D01*
X172190000Y-67380000D02*
X172897107Y-67880000D01*
X172190000Y-73380000D02*
X175090000Y-73380000D01*
X172897107Y-67880000D02*
X172190000Y-68380000D01*
X175090000Y-66380000D02*
X175090000Y-73380000D01*
X174740000Y-67730000D02*
X174140000Y-67730000D01*
X174140000Y-68030000D01*
X174740000Y-68030000D01*
X174740000Y-67730000D01*
X174740000Y-68730000D02*
X174140000Y-68730000D01*
X174140000Y-69030000D01*
X174740000Y-69030000D01*
X174740000Y-68730000D01*
X174740000Y-69730000D02*
X174140000Y-69730000D01*
X174140000Y-70030000D01*
X174740000Y-70030000D01*
X174740000Y-69730000D01*
X174740000Y-70730000D02*
X174140000Y-70730000D01*
X174140000Y-71030000D01*
X174740000Y-71030000D01*
X174740000Y-70730000D01*
X174740000Y-71730000D02*
X174140000Y-71730000D01*
X174140000Y-72030000D01*
X174740000Y-72030000D01*
X174740000Y-71730000D01*
%TO.C,SELECT1*%
X195000000Y-53750000D02*
X198000000Y-53750000D01*
X195000000Y-59750000D02*
X195000000Y-53750000D01*
X198000000Y-53750000D02*
X201000000Y-53750000D01*
X201000000Y-53750000D02*
X201000000Y-59750000D01*
X201000000Y-59750000D02*
X195000000Y-59750000D01*
X200015564Y-56750000D02*
G75*
G02*
X195984436Y-56750000I-2015564J0D01*
G01*
X195984436Y-56750000D02*
G75*
G02*
X200015564Y-56750000I2015564J0D01*
G01*
%TO.C,D6*%
X200760000Y-65990000D02*
X200760000Y-66890000D01*
X200760000Y-66890000D02*
X202760000Y-66890000D01*
X201060000Y-65690000D02*
X200760000Y-65990000D01*
X202760000Y-65690000D02*
X201060000Y-65690000D01*
X202760000Y-66890000D02*
X202760000Y-65690000D01*
D14*
%TO.C,BT1*%
X108770000Y-86590000D02*
X108770000Y-78210000D01*
X113520000Y-70100000D02*
X113520000Y-73870000D01*
X113520000Y-90930000D02*
X113520000Y-94700000D01*
X113520000Y-94700000D02*
X120420000Y-94700000D01*
X120420000Y-70100000D02*
X113520000Y-70100000D01*
X120420000Y-73870000D02*
X120420000Y-70100000D01*
X120420000Y-94700000D02*
X120420000Y-90930000D01*
X125170000Y-78210000D02*
X125170000Y-86590000D01*
X108770000Y-78210000D02*
G75*
G02*
X113520000Y-73869999I8197510J-4202560D01*
G01*
X113520000Y-90930000D02*
G75*
G02*
X108770000Y-86590000I3447506J8542558D01*
G01*
X120420000Y-73870000D02*
G75*
G02*
X125170000Y-78210000I-3447506J-8542558D01*
G01*
X125170000Y-86590000D02*
G75*
G02*
X120420000Y-90930000I-8197506J4202558D01*
G01*
%TO.C,U3*%
X178695000Y-90405000D02*
X188025000Y-90405000D01*
X178695000Y-95435000D02*
X178695000Y-90405000D01*
X188025000Y-90405000D02*
X188025000Y-95435000D01*
X188025000Y-95435000D02*
X178695000Y-95435000D01*
D13*
%TO.C,C6*%
X169200000Y-91490000D02*
X174500000Y-91490000D01*
X169200000Y-95790000D02*
X169200000Y-91490000D01*
X170200000Y-96790000D02*
X169200000Y-95790000D01*
X170200000Y-96790000D02*
X173500000Y-96790000D01*
X170400000Y-95923956D02*
X170900000Y-95923956D01*
X170650000Y-96173956D02*
X170650000Y-95673956D01*
X173500000Y-96790000D02*
X174500000Y-95790000D01*
X174500000Y-95790000D02*
X174500000Y-91490000D01*
X174350000Y-94140000D02*
G75*
G02*
X169350000Y-94140000I-2500000J0D01*
G01*
X169350000Y-94140000D02*
G75*
G02*
X174350000Y-94140000I2500000J0D01*
G01*
%TO.C,D8*%
X198120000Y-86690000D02*
X198120000Y-88690000D01*
X198120000Y-88690000D02*
X199320000Y-88690000D01*
X199020000Y-86690000D02*
X198120000Y-86690000D01*
X199320000Y-86990000D02*
X199020000Y-86690000D01*
X199320000Y-88690000D02*
X199320000Y-86990000D01*
%TO.C,D5*%
X114290000Y-52670000D02*
X114290000Y-53570000D01*
X114290000Y-53570000D02*
X116290000Y-53570000D01*
X114590000Y-52370000D02*
X114290000Y-52670000D01*
X116290000Y-52370000D02*
X114590000Y-52370000D01*
X116290000Y-53570000D02*
X116290000Y-52370000D01*
%TO.C,D2*%
X114290000Y-55440000D02*
X114290000Y-56340000D01*
X114290000Y-56340000D02*
X116290000Y-56340000D01*
X114590000Y-55140000D02*
X114290000Y-55440000D01*
X116290000Y-55140000D02*
X114590000Y-55140000D01*
X116290000Y-56340000D02*
X116290000Y-55140000D01*
%TO.C,BACK1*%
X170000000Y-53750000D02*
X173000000Y-53750000D01*
X170000000Y-59750000D02*
X170000000Y-53750000D01*
X173000000Y-53750000D02*
X176000000Y-53750000D01*
X176000000Y-53750000D02*
X176000000Y-59750000D01*
X176000000Y-59750000D02*
X170000000Y-59750000D01*
X175015564Y-56750000D02*
G75*
G02*
X170984436Y-56750000I-2015564J0D01*
G01*
X170984436Y-56750000D02*
G75*
G02*
X175015564Y-56750000I2015564J0D01*
G01*
%TO.C,UP1*%
X183000000Y-41000000D02*
X186000000Y-41000000D01*
X183000000Y-47000000D02*
X183000000Y-41000000D01*
X186000000Y-41000000D02*
X189000000Y-41000000D01*
X189000000Y-41000000D02*
X189000000Y-47000000D01*
X189000000Y-47000000D02*
X183000000Y-47000000D01*
X188015564Y-44000000D02*
G75*
G02*
X183984436Y-44000000I-2015564J0D01*
G01*
X183984436Y-44000000D02*
G75*
G02*
X188015564Y-44000000I2015564J0D01*
G01*
%TO.C,CN1*%
X193620000Y-90760000D02*
X194820000Y-90760000D01*
X193620000Y-102260000D02*
X193620000Y-90760000D01*
X194820000Y-90760000D02*
X194820000Y-95260000D01*
X194820000Y-95260000D02*
X197320000Y-95260000D01*
X195445000Y-95260000D02*
X196070000Y-94260000D01*
X196070000Y-94260000D02*
X196695000Y-95260000D01*
X197320000Y-102260000D02*
X193620000Y-102260000D01*
X197320000Y-102260000D02*
X201020000Y-102260000D01*
X199820000Y-90760000D02*
X199820000Y-95260000D01*
X199820000Y-95260000D02*
X197320000Y-95260000D01*
X201020000Y-90760000D02*
X199820000Y-90760000D01*
X201020000Y-102260000D02*
X201020000Y-90760000D01*
%TO.C,D7*%
X200820000Y-63120000D02*
X200820000Y-64020000D01*
X200820000Y-64020000D02*
X202820000Y-64020000D01*
X201120000Y-62820000D02*
X200820000Y-63120000D01*
X202820000Y-62820000D02*
X201120000Y-62820000D01*
X202820000Y-64020000D02*
X202820000Y-62820000D01*
%TO.C,D1*%
X172190000Y-42120000D02*
X172190000Y-43320000D01*
X172190000Y-43320000D02*
X173890000Y-43320000D01*
X173890000Y-43320000D02*
X174190000Y-43020000D01*
X174190000Y-42120000D02*
X172190000Y-42120000D01*
X174190000Y-43020000D02*
X174190000Y-42120000D01*
%TO.C,RJ_CAN1*%
X113145000Y-36710000D02*
X113145000Y-51460000D01*
X113145000Y-36710000D02*
X114145000Y-35710000D01*
X113145000Y-51460000D02*
X129655000Y-51460000D01*
X114145000Y-35710000D02*
X129655000Y-35710000D01*
X129655000Y-35710000D02*
X129655000Y-51460000D01*
%TO.C,D9*%
X201030000Y-86690000D02*
X201030000Y-88690000D01*
X201030000Y-88690000D02*
X202230000Y-88690000D01*
X201930000Y-86690000D02*
X201030000Y-86690000D01*
X202230000Y-86990000D02*
X201930000Y-86690000D01*
X202230000Y-88690000D02*
X202230000Y-86990000D01*
%TO.C,DOWN1*%
X183000000Y-66000000D02*
X186000000Y-66000000D01*
X183000000Y-72000000D02*
X183000000Y-66000000D01*
X186000000Y-66000000D02*
X189000000Y-66000000D01*
X189000000Y-66000000D02*
X189000000Y-72000000D01*
X189000000Y-72000000D02*
X183000000Y-72000000D01*
X188015564Y-69000000D02*
G75*
G02*
X183984436Y-69000000I-2015564J0D01*
G01*
X183984436Y-69000000D02*
G75*
G02*
X188015564Y-69000000I2015564J0D01*
G01*
%TD*%
M02*
