%TF.GenerationSoftware,KiCad,Pcbnew,9.0.6*%
%TF.CreationDate,2026-01-11T17:06:29+01:00*%
%TF.ProjectId,nowe_ust,6e6f7765-5f75-4737-942e-6b696361645f,rev?*%
%TF.SameCoordinates,Original*%
%TF.FileFunction,Other,User*%
%FSLAX46Y46*%
G04 Gerber Fmt 4.6, Leading zero omitted, Abs format (unit mm)*
G04 Created by KiCad (PCBNEW 9.0.6) date 2026-01-11 17:06:29*
%MOMM*%
%LPD*%
G01*
G04 APERTURE LIST*
%ADD10C,0.200000*%
%ADD11C,0.050000*%
G04 APERTURE END LIST*
D10*
X104250000Y-35750000D02*
X203750000Y-35750000D01*
X203750000Y-100750000D01*
X104250000Y-100750000D01*
X104250000Y-35750000D01*
D11*
%TO.C,REF\u002A\u002A*%
X110816645Y-96383439D02*
G75*
G02*
X105616645Y-96383439I-2600000J0D01*
G01*
X105616645Y-96383439D02*
G75*
G02*
X110816645Y-96383439I2600000J0D01*
G01*
X200816645Y-42383439D02*
G75*
G02*
X195616645Y-42383439I-2600000J0D01*
G01*
X195616645Y-42383439D02*
G75*
G02*
X200816645Y-42383439I2600000J0D01*
G01*
%TO.C,SW1*%
X130955000Y-57037500D02*
X121225000Y-57037500D01*
X121225000Y-52317500D01*
X130955000Y-52317500D01*
X130955000Y-57037500D01*
%TO.C,CN2*%
X197000000Y-67730000D02*
X197000000Y-76630000D01*
X197000000Y-76630000D02*
X205600000Y-76630000D01*
X205600000Y-67730000D02*
X197000000Y-67730000D01*
X205600000Y-76630000D02*
X205600000Y-67730000D01*
%TO.C,REF\u002A\u002A*%
X200816645Y-82383439D02*
G75*
G02*
X195616645Y-82383439I-2600000J0D01*
G01*
X195616645Y-82383439D02*
G75*
G02*
X200816645Y-82383439I2600000J0D01*
G01*
%TO.C,PROG1*%
X170590000Y-67080000D02*
X171690000Y-67080000D01*
X170590000Y-72680000D02*
X170590000Y-67080000D01*
X171690000Y-65880000D02*
X172990000Y-65880000D01*
X171690000Y-67080000D02*
X171690000Y-65880000D01*
X171690000Y-72680000D02*
X170590000Y-72680000D01*
X171690000Y-73880000D02*
X171690000Y-72680000D01*
X172990000Y-65480000D02*
X175790000Y-65480000D01*
X172990000Y-65880000D02*
X172990000Y-65480000D01*
X172990000Y-73880000D02*
X171690000Y-73880000D01*
X172990000Y-74280000D02*
X172990000Y-73880000D01*
X175590000Y-67690000D02*
X175590000Y-72070000D01*
X175590000Y-72070000D02*
X175790000Y-72070000D01*
X175790000Y-65480000D02*
X175790000Y-67690000D01*
X175790000Y-67690000D02*
X175590000Y-67690000D01*
X175790000Y-72070000D02*
X175790000Y-74280000D01*
X175790000Y-74280000D02*
X172990000Y-74280000D01*
%TO.C,SELECT1*%
X193250000Y-53000000D02*
X193500000Y-53000000D01*
X193250000Y-53250000D02*
X193250000Y-53000000D01*
X193250000Y-60250000D02*
X193250000Y-53250000D01*
X193250000Y-60250000D02*
X193250000Y-60500000D01*
X193250000Y-60500000D02*
X193500000Y-60500000D01*
X193500000Y-53000000D02*
X202500000Y-53000000D01*
X202500000Y-53000000D02*
X202750000Y-53000000D01*
X202500000Y-60500000D02*
X193500000Y-60500000D01*
X202500000Y-60500000D02*
X202750000Y-60500000D01*
X202750000Y-53000000D02*
X202750000Y-53250000D01*
X202750000Y-53250000D02*
X202750000Y-60250000D01*
X202750000Y-60500000D02*
X202750000Y-60250000D01*
%TO.C,D6*%
X200080000Y-65340000D02*
X203440000Y-65340000D01*
X200080000Y-67240000D02*
X200080000Y-65340000D01*
X203440000Y-65340000D02*
X203440000Y-67240000D01*
X203440000Y-67240000D02*
X200080000Y-67240000D01*
%TO.C,BT1*%
X108520000Y-67400000D02*
X108520000Y-86900000D01*
X113236227Y-91141814D02*
X113236227Y-97400000D01*
X113236227Y-97400000D02*
X120708773Y-97400000D01*
X120708771Y-91142716D02*
X120708773Y-97400000D01*
X125420000Y-67400000D02*
X108520000Y-67400000D01*
X125420000Y-86900000D02*
X125420000Y-67400000D01*
X113230497Y-91156013D02*
G75*
G02*
X108520001Y-86900000I3453233J8556753D01*
G01*
X125420000Y-86900000D02*
G75*
G02*
X120715982Y-91160526I-8163740J4286430D01*
G01*
%TO.C,U3*%
X177801400Y-90155000D02*
X188918600Y-90155000D01*
X177801400Y-95685000D02*
X177801400Y-90155000D01*
X188918600Y-90155000D02*
X188918600Y-95685000D01*
X188918600Y-95685000D02*
X177801400Y-95685000D01*
%TO.C,C6*%
X168950000Y-91240000D02*
X170800000Y-91240000D01*
X168950000Y-95890000D02*
X168950000Y-91240000D01*
X170100000Y-97040000D02*
X168950000Y-95890000D01*
X170100000Y-97040000D02*
X170800000Y-97040000D01*
X170800000Y-90190000D02*
X172900000Y-90190000D01*
X170800000Y-91240000D02*
X170800000Y-90190000D01*
X170800000Y-97040000D02*
X170800000Y-98090000D01*
X170800000Y-98090000D02*
X172900000Y-98090000D01*
X172900000Y-90190000D02*
X172900000Y-91240000D01*
X172900000Y-91240000D02*
X174750000Y-91240000D01*
X172900000Y-97040000D02*
X173600000Y-97040000D01*
X172900000Y-98090000D02*
X172900000Y-97040000D01*
X173600000Y-97040000D02*
X174750000Y-95890000D01*
X174750000Y-95890000D02*
X174750000Y-91240000D01*
%TO.C,D8*%
X197770000Y-86010000D02*
X199670000Y-86010000D01*
X197770000Y-89370000D02*
X197770000Y-86010000D01*
X199670000Y-86010000D02*
X199670000Y-89370000D01*
X199670000Y-89370000D02*
X197770000Y-89370000D01*
%TO.C,D5*%
X113610000Y-52020000D02*
X116970000Y-52020000D01*
X113610000Y-53920000D02*
X113610000Y-52020000D01*
X116970000Y-52020000D02*
X116970000Y-53920000D01*
X116970000Y-53920000D02*
X113610000Y-53920000D01*
%TO.C,D2*%
X113610000Y-54790000D02*
X116970000Y-54790000D01*
X113610000Y-56690000D02*
X113610000Y-54790000D01*
X116970000Y-54790000D02*
X116970000Y-56690000D01*
X116970000Y-56690000D02*
X113610000Y-56690000D01*
%TO.C,REF\u002A\u002A*%
X110816645Y-42383439D02*
G75*
G02*
X105616645Y-42383439I-2600000J0D01*
G01*
X105616645Y-42383439D02*
G75*
G02*
X110816645Y-42383439I2600000J0D01*
G01*
%TO.C,BACK1*%
X168250000Y-53000000D02*
X168500000Y-53000000D01*
X168250000Y-53250000D02*
X168250000Y-53000000D01*
X168250000Y-60250000D02*
X168250000Y-53250000D01*
X168250000Y-60250000D02*
X168250000Y-60500000D01*
X168250000Y-60500000D02*
X168500000Y-60500000D01*
X168500000Y-53000000D02*
X177500000Y-53000000D01*
X177500000Y-53000000D02*
X177750000Y-53000000D01*
X177500000Y-60500000D02*
X168500000Y-60500000D01*
X177500000Y-60500000D02*
X177750000Y-60500000D01*
X177750000Y-53000000D02*
X177750000Y-53250000D01*
X177750000Y-53250000D02*
X177750000Y-60250000D01*
X177750000Y-60500000D02*
X177750000Y-60250000D01*
%TO.C,UP1*%
X181250000Y-40250000D02*
X181500000Y-40250000D01*
X181250000Y-40500000D02*
X181250000Y-40250000D01*
X181250000Y-47500000D02*
X181250000Y-40500000D01*
X181250000Y-47500000D02*
X181250000Y-47750000D01*
X181250000Y-47750000D02*
X181500000Y-47750000D01*
X181500000Y-40250000D02*
X190500000Y-40250000D01*
X190500000Y-40250000D02*
X190750000Y-40250000D01*
X190500000Y-47750000D02*
X181500000Y-47750000D01*
X190500000Y-47750000D02*
X190750000Y-47750000D01*
X190750000Y-40250000D02*
X190750000Y-40500000D01*
X190750000Y-40500000D02*
X190750000Y-47500000D01*
X190750000Y-47750000D02*
X190750000Y-47500000D01*
%TO.C,CN1*%
X193120000Y-90260000D02*
X193120000Y-102760000D01*
X193120000Y-102760000D02*
X201520000Y-102760000D01*
X201520000Y-90260000D02*
X193120000Y-90260000D01*
X201520000Y-102760000D02*
X201520000Y-90260000D01*
%TO.C,D7*%
X200140000Y-62470000D02*
X203500000Y-62470000D01*
X200140000Y-64370000D02*
X200140000Y-62470000D01*
X203500000Y-62470000D02*
X203500000Y-64370000D01*
X203500000Y-64370000D02*
X200140000Y-64370000D01*
%TO.C,D1*%
X171510000Y-41770000D02*
X174870000Y-41770000D01*
X171510000Y-43670000D02*
X171510000Y-41770000D01*
X174870000Y-41770000D02*
X174870000Y-43670000D01*
X174870000Y-43670000D02*
X171510000Y-43670000D01*
%TO.C,TFT1*%
X132640000Y-40820000D02*
X133640000Y-39820000D01*
X132640000Y-95020000D02*
X132640000Y-40820000D01*
X133640000Y-39820000D02*
X165840000Y-39820000D01*
X133640000Y-96020000D02*
X132640000Y-95020000D01*
X133640000Y-96020000D02*
X165840000Y-96020000D01*
X165840000Y-96020000D02*
X166840000Y-95020000D01*
X166840000Y-40820000D02*
X165840000Y-39820000D01*
X166840000Y-95020000D02*
X166840000Y-40820000D01*
%TO.C,RJ_CAN1*%
X111620000Y-35210000D02*
X111620000Y-51960000D01*
X111620000Y-35210000D02*
X131180000Y-35210000D01*
X111620000Y-51960000D02*
X131180000Y-51960000D01*
X131180000Y-35210000D02*
X131180000Y-51960000D01*
%TO.C,D9*%
X200680000Y-86010000D02*
X202580000Y-86010000D01*
X200680000Y-89370000D02*
X200680000Y-86010000D01*
X202580000Y-86010000D02*
X202580000Y-89370000D01*
X202580000Y-89370000D02*
X200680000Y-89370000D01*
%TO.C,DOWN1*%
X181250000Y-65250000D02*
X181500000Y-65250000D01*
X181250000Y-65500000D02*
X181250000Y-65250000D01*
X181250000Y-72500000D02*
X181250000Y-65500000D01*
X181250000Y-72500000D02*
X181250000Y-72750000D01*
X181250000Y-72750000D02*
X181500000Y-72750000D01*
X181500000Y-65250000D02*
X190500000Y-65250000D01*
X190500000Y-65250000D02*
X190750000Y-65250000D01*
X190500000Y-72750000D02*
X181500000Y-72750000D01*
X190500000Y-72750000D02*
X190750000Y-72750000D01*
X190750000Y-65250000D02*
X190750000Y-65500000D01*
X190750000Y-65500000D02*
X190750000Y-72500000D01*
X190750000Y-72750000D02*
X190750000Y-72500000D01*
%TD*%
M02*
