%TF.GenerationSoftware,KiCad,Pcbnew,9.0.6*%
%TF.CreationDate,2026-01-11T17:06:29+01:00*%
%TF.ProjectId,nowe_ust,6e6f7765-5f75-4737-942e-6b696361645f,rev?*%
%TF.SameCoordinates,Original*%
%TF.FileFunction,Other,User*%
%FSLAX46Y46*%
G04 Gerber Fmt 4.6, Leading zero omitted, Abs format (unit mm)*
G04 Created by KiCad (PCBNEW 9.0.6) date 2026-01-11 17:06:29*
%MOMM*%
%LPD*%
G01*
G04 APERTURE LIST*
%ADD10C,0.050000*%
G04 APERTURE END LIST*
D10*
%TO.C,C13*%
X150370000Y-43700000D02*
X150370000Y-45660000D01*
X150370000Y-45660000D02*
X154130000Y-45660000D01*
X154130000Y-43700000D02*
X150370000Y-43700000D01*
X154130000Y-45660000D02*
X154130000Y-43700000D01*
%TO.C,R13*%
X125470000Y-77072000D02*
X125470000Y-78972000D01*
X125470000Y-78972000D02*
X128830000Y-78972000D01*
X128830000Y-77072000D02*
X125470000Y-77072000D01*
X128830000Y-78972000D02*
X128830000Y-77072000D01*
%TO.C,R24*%
X198100000Y-65360000D02*
X198100000Y-67260000D01*
X198100000Y-67260000D02*
X201460000Y-67260000D01*
X201460000Y-65360000D02*
X198100000Y-65360000D01*
X201460000Y-67260000D02*
X201460000Y-65360000D01*
%TO.C,R25*%
X198100000Y-62490000D02*
X198100000Y-64390000D01*
X198100000Y-64390000D02*
X201460000Y-64390000D01*
X201460000Y-62490000D02*
X198100000Y-62490000D01*
X201460000Y-64390000D02*
X201460000Y-62490000D01*
%TO.C,R10*%
X167610000Y-78020000D02*
X167610000Y-79920000D01*
X167610000Y-79920000D02*
X170970000Y-79920000D01*
X170970000Y-78020000D02*
X167610000Y-78020000D01*
X170970000Y-79920000D02*
X170970000Y-78020000D01*
%TO.C,U1*%
X142900000Y-77970000D02*
X142900000Y-93870000D01*
X142900000Y-93870000D02*
X158800000Y-93870000D01*
X158800000Y-77970000D02*
X142900000Y-77970000D01*
X158800000Y-93870000D02*
X158800000Y-77970000D01*
%TO.C,R2*%
X146700000Y-68720000D02*
X146700000Y-72080000D01*
X146700000Y-72080000D02*
X148600000Y-72080000D01*
X148600000Y-68720000D02*
X146700000Y-68720000D01*
X148600000Y-72080000D02*
X148600000Y-68720000D01*
%TO.C,R8*%
X125470000Y-81404000D02*
X125470000Y-83304000D01*
X125470000Y-83304000D02*
X128830000Y-83304000D01*
X128830000Y-81404000D02*
X125470000Y-81404000D01*
X128830000Y-83304000D02*
X128830000Y-81404000D01*
%TO.C,R22*%
X123090000Y-48590000D02*
X123090000Y-50490000D01*
X123090000Y-50490000D02*
X126450000Y-50490000D01*
X126450000Y-48590000D02*
X123090000Y-48590000D01*
X126450000Y-50490000D02*
X126450000Y-48590000D01*
%TO.C,R12*%
X138520000Y-75590000D02*
X138520000Y-78950000D01*
X138520000Y-78950000D02*
X140420000Y-78950000D01*
X140420000Y-75590000D02*
X138520000Y-75590000D01*
X140420000Y-78950000D02*
X140420000Y-75590000D01*
%TO.C,Q1*%
X171590000Y-77405000D02*
X179190000Y-77405000D01*
X171590000Y-88505000D02*
X171590000Y-77405000D01*
X179190000Y-77405000D02*
X179190000Y-88505000D01*
X179190000Y-88505000D02*
X171590000Y-88505000D01*
%TO.C,D4*%
X183790000Y-90650000D02*
X183790000Y-97950000D01*
X183790000Y-97950000D02*
X188290000Y-97950000D01*
X188290000Y-90650000D02*
X183790000Y-90650000D01*
X188290000Y-97950000D02*
X188290000Y-90650000D01*
%TO.C,R9*%
X164230000Y-74000000D02*
X164230000Y-75900000D01*
X164230000Y-75900000D02*
X167590000Y-75900000D01*
X167590000Y-74000000D02*
X164230000Y-74000000D01*
X167590000Y-75900000D02*
X167590000Y-74000000D01*
%TO.C,C4*%
X137310000Y-90980000D02*
X137310000Y-92940000D01*
X137310000Y-92940000D02*
X141070000Y-92940000D01*
X141070000Y-90980000D02*
X137310000Y-90980000D01*
X141070000Y-92940000D02*
X141070000Y-90980000D01*
%TO.C,C10*%
X122937500Y-63730000D02*
X122937500Y-65690000D01*
X122937500Y-65690000D02*
X126697500Y-65690000D01*
X126697500Y-63730000D02*
X122937500Y-63730000D01*
X126697500Y-65690000D02*
X126697500Y-63730000D01*
%TO.C,R5*%
X163080000Y-84096667D02*
X163080000Y-85996667D01*
X163080000Y-85996667D02*
X166440000Y-85996667D01*
X166440000Y-84096667D02*
X163080000Y-84096667D01*
X166440000Y-85996667D02*
X166440000Y-84096667D01*
%TO.C,R7*%
X173470000Y-41710000D02*
X173470000Y-43610000D01*
X173470000Y-43610000D02*
X176830000Y-43610000D01*
X176830000Y-41710000D02*
X173470000Y-41710000D01*
X176830000Y-43610000D02*
X176830000Y-41710000D01*
%TO.C,R21*%
X184180000Y-88100000D02*
X184180000Y-90000000D01*
X184180000Y-90000000D02*
X187540000Y-90000000D01*
X187540000Y-88100000D02*
X184180000Y-88100000D01*
X187540000Y-90000000D02*
X187540000Y-88100000D01*
%TO.C,C12*%
X163060000Y-88170000D02*
X163060000Y-90130000D01*
X163060000Y-90130000D02*
X166460000Y-90130000D01*
X166460000Y-88170000D02*
X163060000Y-88170000D01*
X166460000Y-90130000D02*
X166460000Y-88170000D01*
%TO.C,C8*%
X167320000Y-81460000D02*
X167320000Y-83420000D01*
X167320000Y-83420000D02*
X171080000Y-83420000D01*
X171080000Y-81460000D02*
X167320000Y-81460000D01*
X171080000Y-83420000D02*
X171080000Y-81460000D01*
%TO.C,R14*%
X123130000Y-51360000D02*
X123130000Y-53260000D01*
X123130000Y-53260000D02*
X126490000Y-53260000D01*
X126490000Y-51360000D02*
X123130000Y-51360000D01*
X126490000Y-53260000D02*
X126490000Y-51360000D01*
%TO.C,R19*%
X185360000Y-77680000D02*
X185360000Y-79580000D01*
X185360000Y-79580000D02*
X188720000Y-79580000D01*
X188720000Y-77680000D02*
X185360000Y-77680000D01*
X188720000Y-79580000D02*
X188720000Y-77680000D01*
%TO.C,R31*%
X147170000Y-66130000D02*
X147170000Y-68030000D01*
X147170000Y-68030000D02*
X150530000Y-68030000D01*
X150530000Y-66130000D02*
X147170000Y-66130000D01*
X150530000Y-68030000D02*
X150530000Y-66130000D01*
%TO.C,R15*%
X144500000Y-37400000D02*
X144500000Y-39300000D01*
X144500000Y-39300000D02*
X147860000Y-39300000D01*
X147860000Y-37400000D02*
X144500000Y-37400000D01*
X147860000Y-39300000D02*
X147860000Y-37400000D01*
%TO.C,R26*%
X132520000Y-52310000D02*
X132520000Y-54210000D01*
X132520000Y-54210000D02*
X135880000Y-54210000D01*
X135880000Y-52310000D02*
X132520000Y-52310000D01*
X135880000Y-54210000D02*
X135880000Y-52310000D01*
%TO.C,R11*%
X151950000Y-68750000D02*
X151950000Y-72110000D01*
X151950000Y-72110000D02*
X153850000Y-72110000D01*
X153850000Y-68750000D02*
X151950000Y-68750000D01*
X153850000Y-72110000D02*
X153850000Y-68750000D01*
%TO.C,R20*%
X179910000Y-81480000D02*
X179910000Y-84840000D01*
X179910000Y-84840000D02*
X181810000Y-84840000D01*
X181810000Y-81480000D02*
X179910000Y-81480000D01*
X181810000Y-84840000D02*
X181810000Y-81480000D01*
%TO.C,R28*%
X197780000Y-86030000D02*
X197780000Y-89390000D01*
X197780000Y-89390000D02*
X199680000Y-89390000D01*
X199680000Y-86030000D02*
X197780000Y-86030000D01*
X199680000Y-89390000D02*
X199680000Y-86030000D01*
%TO.C,R23*%
X150200000Y-36750000D02*
X150200000Y-38650000D01*
X150200000Y-38650000D02*
X153560000Y-38650000D01*
X153560000Y-36750000D02*
X150200000Y-36750000D01*
X153560000Y-38650000D02*
X153560000Y-36750000D01*
%TO.C,C2*%
X137930000Y-86170000D02*
X137930000Y-89930000D01*
X137930000Y-89930000D02*
X139890000Y-89930000D01*
X139890000Y-86170000D02*
X137930000Y-86170000D01*
X139890000Y-89930000D02*
X139890000Y-86170000D01*
%TO.C,TF1*%
X98320000Y-49580000D02*
X98320000Y-66780000D01*
X98320000Y-66780000D02*
X120220000Y-66780000D01*
X120220000Y-49580000D02*
X98320000Y-49580000D01*
X120220000Y-66780000D02*
X120220000Y-49580000D01*
%TO.C,R30*%
X125470000Y-74906000D02*
X125470000Y-76806000D01*
X125470000Y-76806000D02*
X128830000Y-76806000D01*
X128830000Y-74906000D02*
X125470000Y-74906000D01*
X128830000Y-76806000D02*
X128830000Y-74906000D01*
%TO.C,C11*%
X122937500Y-61260000D02*
X122937500Y-63220000D01*
X122937500Y-63220000D02*
X126697500Y-63220000D01*
X126697500Y-61260000D02*
X122937500Y-61260000D01*
X126697500Y-63220000D02*
X126697500Y-61260000D01*
%TO.C,U4*%
X176190000Y-92170000D02*
X176190000Y-96370000D01*
X176760000Y-96370000D02*
X176190000Y-96370000D01*
X176760000Y-98530000D02*
X176760000Y-96370000D01*
X177910000Y-90010000D02*
X177910000Y-92170000D01*
X177910000Y-92170000D02*
X176190000Y-92170000D01*
X181670000Y-90010000D02*
X177910000Y-90010000D01*
X181670000Y-92170000D02*
X181670000Y-90010000D01*
X182820000Y-96370000D02*
X182820000Y-98530000D01*
X182820000Y-98530000D02*
X176760000Y-98530000D01*
X183390000Y-92170000D02*
X181670000Y-92170000D01*
X183390000Y-96370000D02*
X182820000Y-96370000D01*
X183390000Y-96370000D02*
X183390000Y-92170000D01*
%TO.C,D3*%
X188770000Y-90647500D02*
X188770000Y-97647500D01*
X188770000Y-97647500D02*
X192270000Y-97647500D01*
X192270000Y-90647500D02*
X188770000Y-90647500D01*
X192270000Y-97647500D02*
X192270000Y-90647500D01*
%TO.C,R29*%
X200810000Y-86067500D02*
X200810000Y-89427500D01*
X200810000Y-89427500D02*
X202710000Y-89427500D01*
X202710000Y-86067500D02*
X200810000Y-86067500D01*
X202710000Y-89427500D02*
X202710000Y-86067500D01*
%TO.C,R1*%
X125470000Y-79238000D02*
X125470000Y-81138000D01*
X125470000Y-81138000D02*
X128830000Y-81138000D01*
X128830000Y-79238000D02*
X125470000Y-79238000D01*
X128830000Y-81138000D02*
X128830000Y-79238000D01*
%TO.C,C9*%
X183050000Y-80520000D02*
X183050000Y-82480000D01*
X183050000Y-82480000D02*
X186810000Y-82480000D01*
X186810000Y-80520000D02*
X183050000Y-80520000D01*
X186810000Y-82480000D02*
X186810000Y-80520000D01*
%TO.C,R3*%
X163080000Y-86133333D02*
X163080000Y-88033333D01*
X163080000Y-88033333D02*
X166440000Y-88033333D01*
X166440000Y-86133333D02*
X163080000Y-86133333D01*
X166440000Y-88033333D02*
X166440000Y-86133333D01*
%TO.C,R17*%
X187770000Y-81480000D02*
X187770000Y-84840000D01*
X187770000Y-84840000D02*
X189670000Y-84840000D01*
X189670000Y-81480000D02*
X187770000Y-81480000D01*
X189670000Y-84840000D02*
X189670000Y-81480000D01*
%TO.C,R18*%
X155340000Y-36750000D02*
X155340000Y-38650000D01*
X155340000Y-38650000D02*
X158700000Y-38650000D01*
X158700000Y-36750000D02*
X155340000Y-36750000D01*
X158700000Y-38650000D02*
X158700000Y-36750000D01*
%TO.C,C7*%
X159860000Y-73950000D02*
X159860000Y-75910000D01*
X159860000Y-75910000D02*
X163620000Y-75910000D01*
X163620000Y-73950000D02*
X159860000Y-73950000D01*
X163620000Y-75910000D02*
X163620000Y-73950000D01*
%TO.C,C3*%
X137310000Y-93210000D02*
X137310000Y-95170000D01*
X137310000Y-95170000D02*
X141070000Y-95170000D01*
X141070000Y-93210000D02*
X137310000Y-93210000D01*
X141070000Y-95170000D02*
X141070000Y-93210000D01*
%TO.C,R6*%
X125470000Y-83570000D02*
X125470000Y-85470000D01*
X125470000Y-85470000D02*
X128830000Y-85470000D01*
X128830000Y-83570000D02*
X125470000Y-83570000D01*
X128830000Y-85470000D02*
X128830000Y-83570000D01*
%TO.C,CAN1*%
X136577500Y-50400000D02*
X136577500Y-57810000D01*
X136577500Y-50400000D02*
X141982500Y-50400000D01*
X136577500Y-57810000D02*
X141982500Y-57810000D01*
X141982500Y-50400000D02*
X141982500Y-57810000D01*
%TO.C,R4*%
X163080000Y-82060000D02*
X163080000Y-83960000D01*
X163080000Y-83960000D02*
X166440000Y-83960000D01*
X166440000Y-82060000D02*
X163080000Y-82060000D01*
X166440000Y-83960000D02*
X166440000Y-82060000D01*
%TO.C,C14*%
X150370000Y-45880000D02*
X150370000Y-47840000D01*
X150370000Y-47840000D02*
X154130000Y-47840000D01*
X154130000Y-45880000D02*
X150370000Y-45880000D01*
X154130000Y-47840000D02*
X154130000Y-45880000D01*
%TO.C,C1*%
X135440000Y-86170000D02*
X135440000Y-89930000D01*
X135440000Y-89930000D02*
X137400000Y-89930000D01*
X137400000Y-86170000D02*
X135440000Y-86170000D01*
X137400000Y-89930000D02*
X137400000Y-86170000D01*
%TO.C,C5*%
X132950000Y-86170000D02*
X132950000Y-89930000D01*
X132950000Y-89930000D02*
X134910000Y-89930000D01*
X134910000Y-86170000D02*
X132950000Y-86170000D01*
X134910000Y-89930000D02*
X134910000Y-86170000D01*
%TO.C,U2*%
X182120000Y-84570000D02*
X182120000Y-86370000D01*
X182120000Y-86370000D02*
X182320000Y-86370000D01*
X182320000Y-86370000D02*
X182320000Y-87400000D01*
X182320000Y-87400000D02*
X185320000Y-87400000D01*
X183270000Y-83540000D02*
X183270000Y-84570000D01*
X183270000Y-84570000D02*
X182120000Y-84570000D01*
X184370000Y-83540000D02*
X183270000Y-83540000D01*
X184370000Y-84570000D02*
X184370000Y-83540000D01*
X185320000Y-86370000D02*
X185520000Y-86370000D01*
X185320000Y-87400000D02*
X185320000Y-86370000D01*
X185520000Y-84570000D02*
X184370000Y-84570000D01*
X185520000Y-86370000D02*
X185520000Y-84570000D01*
%TO.C,R27*%
X132520000Y-55560000D02*
X132520000Y-57460000D01*
X132520000Y-57460000D02*
X135880000Y-57460000D01*
X135880000Y-55560000D02*
X132520000Y-55560000D01*
X135880000Y-57460000D02*
X135880000Y-55560000D01*
%TO.C,R16*%
X181260000Y-77680000D02*
X181260000Y-79580000D01*
X181260000Y-79580000D02*
X184620000Y-79580000D01*
X184620000Y-77680000D02*
X181260000Y-77680000D01*
X184620000Y-79580000D02*
X184620000Y-77680000D01*
%TD*%
M02*
