<?xml version="1.0" standalone="no"?>
 <!DOCTYPE svg PUBLIC "-//W3C//DTD SVG 1.1//EN" 
 "http://www.w3.org/Graphics/SVG/1.1/DTD/svg11.dtd"> 
<svg
  xmlns:svg="http://www.w3.org/2000/svg"
  xmlns="http://www.w3.org/2000/svg"
  xmlns:xlink="http://www.w3.org/1999/xlink"
  version="1.1"
  width="297.0022mm" height="210.0072mm" viewBox="0.0000 0.0000 297.0022 210.0072">
<title>SVG Image created as nowe_ust-F_Paste.svg date 2026/03/02 20:29:39 </title>
  <desc>Image generated by PCBNEW </desc>
<g style="fill:#000000; fill-opacity:1.0000;stroke:#000000; stroke-opacity:1.0000;
stroke-linecap:round; stroke-linejoin:round;"
 transform="translate(0 0) scale(1 1)">
<path style="fill:#000000; fill-opacity:1.0000; stroke:none;fill-rule:evenodd;"
d="M 172.4900,67.5800
172.5474,67.5914
172.5961,67.6239
172.6286,67.6726
172.6400,67.7300
172.6400,68.0300
172.6286,68.0874
172.5961,68.1361
172.5474,68.1686
172.4900,68.1800
171.2400,68.1800
171.1826,68.1686
171.1339,68.1361
171.1014,68.0874
171.0900,68.0300
171.0900,67.7300
171.1014,67.6726
171.1339,67.6239
171.1826,67.5914
171.2400,67.5800
Z" /> 
<path style="fill:#000000; fill-opacity:1.0000; stroke:none;fill-rule:evenodd;"
d="M 172.4900,68.5800
172.5474,68.5914
172.5961,68.6239
172.6286,68.6726
172.6400,68.7300
172.6400,69.0300
172.6286,69.0874
172.5961,69.1361
172.5474,69.1686
172.4900,69.1800
171.2400,69.1800
171.1826,69.1686
171.1339,69.1361
171.1014,69.0874
171.0900,69.0300
171.0900,68.7300
171.1014,68.6726
171.1339,68.6239
171.1826,68.5914
171.2400,68.5800
Z" /> 
<path style="fill:#000000; fill-opacity:1.0000; stroke:none;fill-rule:evenodd;"
d="M 172.4900,69.5800
172.5474,69.5914
172.5961,69.6239
172.6286,69.6726
172.6400,69.7300
172.6400,70.0300
172.6286,70.0874
172.5961,70.1361
172.5474,70.1686
172.4900,70.1800
171.2400,70.1800
171.1826,70.1686
171.1339,70.1361
171.1014,70.0874
171.0900,70.0300
171.0900,69.7300
171.1014,69.6726
171.1339,69.6239
171.1826,69.5914
171.2400,69.5800
Z" /> 
<path style="fill:#000000; fill-opacity:1.0000; stroke:none;fill-rule:evenodd;"
d="M 172.4900,70.5800
172.5474,70.5914
172.5961,70.6239
172.6286,70.6726
172.6400,70.7300
172.6400,71.0300
172.6286,71.0874
172.5961,71.1361
172.5474,71.1686
172.4900,71.1800
171.2400,71.1800
171.1826,71.1686
171.1339,71.1361
171.1014,71.0874
171.0900,71.0300
171.0900,70.7300
171.1014,70.6726
171.1339,70.6239
171.1826,70.5914
171.2400,70.5800
Z" /> 
<path style="fill:#000000; fill-opacity:1.0000; stroke:none;fill-rule:evenodd;"
d="M 172.4900,71.5800
172.5474,71.5914
172.5961,71.6239
172.6286,71.6726
172.6400,71.7300
172.6400,72.0300
172.6286,72.0874
172.5961,72.1361
172.5474,72.1686
172.4900,72.1800
171.2400,72.1800
171.1826,72.1686
171.1339,72.1361
171.1014,72.0874
171.0900,72.0300
171.0900,71.7300
171.1014,71.6726
171.1339,71.6239
171.1826,71.5914
171.2400,71.5800
Z" /> 
<path style="fill:#000000; fill-opacity:1.0000; stroke:none;fill-rule:evenodd;"
d="M 175.0400,65.9800
175.1357,65.9990
175.2168,66.0532
175.2710,66.1343
175.2900,66.2300
175.2900,66.9300
175.2710,67.0257
175.2168,67.1068
175.1357,67.1610
175.0400,67.1800
173.7400,67.1800
173.6443,67.1610
173.5632,67.1068
173.5090,67.0257
173.4900,66.9300
173.4900,66.2300
173.5090,66.1343
173.5632,66.0532
173.6443,65.9990
173.7400,65.9800
Z" /> 
<path style="fill:#000000; fill-opacity:1.0000; stroke:none;fill-rule:evenodd;"
d="M 175.0400,72.5800
175.1357,72.5990
175.2168,72.6532
175.2710,72.7343
175.2900,72.8300
175.2900,73.5300
175.2710,73.6257
175.2168,73.7068
175.1357,73.7610
175.0400,73.7800
173.7400,73.7800
173.6443,73.7610
173.5632,73.7068
173.5090,73.6257
173.4900,73.5300
173.4900,72.8300
173.5090,72.7343
173.5632,72.6532
173.6443,72.5990
173.7400,72.5800
Z" /> 
<path style="fill:#000000; fill-opacity:1.0000; stroke:none;fill-rule:evenodd;"
d="M 200.3350,65.8337
200.3536,65.7405
200.4064,65.6614
200.4855,65.6086
200.5787,65.5900
201.0662,65.5900
201.1595,65.6086
201.2386,65.6614
201.2914,65.7405
201.3100,65.8337
201.3100,66.7463
201.2914,66.8395
201.2386,66.9186
201.1595,66.9714
201.0662,66.9900
200.5787,66.9900
200.4855,66.9714
200.4064,66.9186
200.3536,66.8395
200.3350,66.7463
Z" /> 
<path style="fill:#000000; fill-opacity:1.0000; stroke:none;fill-rule:evenodd;"
d="M 202.2100,65.8337
202.2286,65.7405
202.2814,65.6614
202.3605,65.6086
202.4537,65.5900
202.9412,65.5900
203.0345,65.6086
203.1136,65.6614
203.1664,65.7405
203.1850,65.8337
203.1850,66.7463
203.1664,66.8395
203.1136,66.9186
203.0345,66.9714
202.9412,66.9900
202.4537,66.9900
202.3605,66.9714
202.2814,66.9186
202.2286,66.8395
202.2100,66.7463
Z" /> 
<path style="fill:#000000; fill-opacity:1.0000; stroke:none;fill-rule:evenodd;"
d="M 114.7200,67.6500
119.2200,67.6500
119.2200,71.1500
114.7200,71.1500
Z" /> 
<path style="fill:#000000; fill-opacity:1.0000; stroke:none;fill-rule:evenodd;"
d="M 114.7200,93.6500
119.2200,93.6500
119.2200,97.1500
114.7200,97.1500
Z" /> 
<path style="fill:#000000; fill-opacity:1.0000; stroke:none;fill-rule:evenodd;"
d="M 178.0514,94.8250
178.0514,91.0150
182.2932,91.0150
182.2932,94.8250
Z" /> 
<path style="fill:#000000; fill-opacity:1.0000; stroke:none;fill-rule:evenodd;"
d="M 184.4268,94.8250
184.4268,91.0150
188.6686,91.0150
188.6686,94.8250
Z" /> 
<path style="fill:#000000; fill-opacity:1.0000; stroke:none;fill-rule:evenodd;"
d="M 171.3000,97.8400
171.2043,97.8210
171.1232,97.7668
171.0690,97.6857
171.0500,97.5900
171.0500,95.0900
171.0690,94.9943
171.1232,94.9132
171.2043,94.8590
171.3000,94.8400
172.4000,94.8400
172.4957,94.8590
172.5768,94.9132
172.6310,94.9943
172.6500,95.0900
172.6500,97.5900
172.6310,97.6857
172.5768,97.7668
172.4957,97.8210
172.4000,97.8400
Z" /> 
<path style="fill:#000000; fill-opacity:1.0000; stroke:none;fill-rule:evenodd;"
d="M 171.3000,93.4400
171.2043,93.4210
171.1232,93.3668
171.0690,93.2857
171.0500,93.1900
171.0500,90.6900
171.0690,90.5943
171.1232,90.5132
171.2043,90.4590
171.3000,90.4400
172.4000,90.4400
172.4957,90.4590
172.5768,90.5132
172.6310,90.5943
172.6500,90.6900
172.6500,93.1900
172.6310,93.2857
172.5768,93.3668
172.4957,93.4210
172.4000,93.4400
Z" /> 
<path style="fill:#000000; fill-opacity:1.0000; stroke:none;fill-rule:evenodd;"
d="M 199.1762,86.2650
199.2695,86.2836
199.3486,86.3364
199.4014,86.4155
199.4200,86.5087
199.4200,86.9962
199.4014,87.0895
199.3486,87.1686
199.2695,87.2214
199.1762,87.2400
198.2637,87.2400
198.1705,87.2214
198.0914,87.1686
198.0386,87.0895
198.0200,86.9962
198.0200,86.5087
198.0386,86.4155
198.0914,86.3364
198.1705,86.2836
198.2637,86.2650
Z" /> 
<path style="fill:#000000; fill-opacity:1.0000; stroke:none;fill-rule:evenodd;"
d="M 199.1762,88.1400
199.2695,88.1586
199.3486,88.2114
199.4014,88.2905
199.4200,88.3837
199.4200,88.8712
199.4014,88.9645
199.3486,89.0436
199.2695,89.0964
199.1762,89.1150
198.2637,89.1150
198.1705,89.0964
198.0914,89.0436
198.0386,88.9645
198.0200,88.8712
198.0200,88.3837
198.0386,88.2905
198.0914,88.2114
198.1705,88.1586
198.2637,88.1400
Z" /> 
<path style="fill:#000000; fill-opacity:1.0000; stroke:none;fill-rule:evenodd;"
d="M 113.8650,52.5137
113.8836,52.4205
113.9364,52.3414
114.0155,52.2886
114.1088,52.2700
114.5962,52.2700
114.6895,52.2886
114.7686,52.3414
114.8214,52.4205
114.8400,52.5137
114.8400,53.4262
114.8214,53.5195
114.7686,53.5986
114.6895,53.6514
114.5962,53.6700
114.1088,53.6700
114.0155,53.6514
113.9364,53.5986
113.8836,53.5195
113.8650,53.4262
Z" /> 
<path style="fill:#000000; fill-opacity:1.0000; stroke:none;fill-rule:evenodd;"
d="M 115.7400,52.5137
115.7586,52.4205
115.8114,52.3414
115.8905,52.2886
115.9838,52.2700
116.4712,52.2700
116.5645,52.2886
116.6436,52.3414
116.6964,52.4205
116.7150,52.5137
116.7150,53.4262
116.6964,53.5195
116.6436,53.5986
116.5645,53.6514
116.4712,53.6700
115.9838,53.6700
115.8905,53.6514
115.8114,53.5986
115.7586,53.5195
115.7400,53.4262
Z" /> 
<path style="fill:#000000; fill-opacity:1.0000; stroke:none;fill-rule:evenodd;"
d="M 113.8650,55.2837
113.8836,55.1905
113.9364,55.1114
114.0155,55.0586
114.1088,55.0400
114.5962,55.0400
114.6895,55.0586
114.7686,55.1114
114.8214,55.1905
114.8400,55.2837
114.8400,56.1962
114.8214,56.2895
114.7686,56.3686
114.6895,56.4214
114.5962,56.4400
114.1088,56.4400
114.0155,56.4214
113.9364,56.3686
113.8836,56.2895
113.8650,56.1962
Z" /> 
<path style="fill:#000000; fill-opacity:1.0000; stroke:none;fill-rule:evenodd;"
d="M 115.7400,55.2837
115.7586,55.1905
115.8114,55.1114
115.8905,55.0586
115.9838,55.0400
116.4712,55.0400
116.5645,55.0586
116.6436,55.1114
116.6964,55.1905
116.7150,55.2837
116.7150,56.1962
116.6964,56.2895
116.6436,56.3686
116.5645,56.4214
116.4712,56.4400
115.9838,56.4400
115.8905,56.4214
115.8114,56.3686
115.7586,56.2895
115.7400,56.1962
Z" /> 
<path style="fill:#000000; fill-opacity:1.0000; stroke:none;fill-rule:evenodd;"
d="M 200.3950,62.9637
200.4136,62.8705
200.4664,62.7914
200.5455,62.7386
200.6387,62.7200
201.1262,62.7200
201.2195,62.7386
201.2986,62.7914
201.3514,62.8705
201.3700,62.9637
201.3700,63.8762
201.3514,63.9695
201.2986,64.0486
201.2195,64.1014
201.1262,64.1200
200.6387,64.1200
200.5455,64.1014
200.4664,64.0486
200.4136,63.9695
200.3950,63.8762
Z" /> 
<path style="fill:#000000; fill-opacity:1.0000; stroke:none;fill-rule:evenodd;"
d="M 202.2700,62.9637
202.2886,62.8705
202.3414,62.7914
202.4205,62.7386
202.5137,62.7200
203.0012,62.7200
203.0945,62.7386
203.1736,62.7914
203.2264,62.8705
203.2450,62.9637
203.2450,63.8762
203.2264,63.9695
203.1736,64.0486
203.0945,64.1014
203.0012,64.1200
202.5137,64.1200
202.4205,64.1014
202.3414,64.0486
202.2886,63.9695
202.2700,63.8762
Z" /> 
<path style="fill:#000000; fill-opacity:1.0000; stroke:none;fill-rule:evenodd;"
d="M 174.6150,43.1762
174.5964,43.2695
174.5436,43.3486
174.4645,43.4014
174.3713,43.4200
173.8837,43.4200
173.7905,43.4014
173.7114,43.3486
173.6586,43.2695
173.6400,43.1762
173.6400,42.2637
173.6586,42.1705
173.7114,42.0914
173.7905,42.0386
173.8837,42.0200
174.3713,42.0200
174.4645,42.0386
174.5436,42.0914
174.5964,42.1705
174.6150,42.2637
Z" /> 
<path style="fill:#000000; fill-opacity:1.0000; stroke:none;fill-rule:evenodd;"
d="M 172.7400,43.1762
172.7214,43.2695
172.6686,43.3486
172.5895,43.4014
172.4963,43.4200
172.0087,43.4200
171.9155,43.4014
171.8364,43.3486
171.7836,43.2695
171.7650,43.1762
171.7650,42.2637
171.7836,42.1705
171.8364,42.0914
171.9155,42.0386
172.0087,42.0200
172.4963,42.0200
172.5895,42.0386
172.6686,42.0914
172.7214,42.1705
172.7400,42.2637
Z" /> 
<path style="fill:#000000; fill-opacity:1.0000; stroke:none;fill-rule:evenodd;"
d="M 202.0862,86.2650
202.1795,86.2836
202.2586,86.3364
202.3114,86.4155
202.3300,86.5087
202.3300,86.9962
202.3114,87.0895
202.2586,87.1686
202.1795,87.2214
202.0862,87.2400
201.1737,87.2400
201.0805,87.2214
201.0014,87.1686
200.9486,87.0895
200.9300,86.9962
200.9300,86.5087
200.9486,86.4155
201.0014,86.3364
201.0805,86.2836
201.1737,86.2650
Z" /> 
<path style="fill:#000000; fill-opacity:1.0000; stroke:none;fill-rule:evenodd;"
d="M 202.0862,88.1400
202.1795,88.1586
202.2586,88.2114
202.3114,88.2905
202.3300,88.3837
202.3300,88.8712
202.3114,88.9645
202.2586,89.0436
202.1795,89.0964
202.0862,89.1150
201.1737,89.1150
201.0805,89.0964
201.0014,89.0436
200.9486,88.9645
200.9300,88.8712
200.9300,88.3837
200.9486,88.2905
201.0014,88.2114
201.0805,88.1586
201.1737,88.1400
Z" /> 
</g> 
</svg>
