%TF.GenerationSoftware,KiCad,Pcbnew,9.0.6*%
%TF.CreationDate,2026-01-11T17:06:28+01:00*%
%TF.ProjectId,nowe_ust,6e6f7765-5f75-4737-942e-6b696361645f,rev?*%
%TF.SameCoordinates,Original*%
%TF.FileFunction,Copper,L1,Top*%
%TF.FilePolarity,Positive*%
%FSLAX46Y46*%
G04 Gerber Fmt 4.6, Leading zero omitted, Abs format (unit mm)*
G04 Created by KiCad (PCBNEW 9.0.6) date 2026-01-11 17:06:28*
%MOMM*%
%LPD*%
G01*
G04 APERTURE LIST*
G04 Aperture macros list*
%AMRoundRect*
0 Rectangle with rounded corners*
0 $1 Rounding radius*
0 $2 $3 $4 $5 $6 $7 $8 $9 X,Y pos of 4 corners*
0 Add a 4 corners polygon primitive as box body*
4,1,4,$2,$3,$4,$5,$6,$7,$8,$9,$2,$3,0*
0 Add four circle primitives for the rounded corners*
1,1,$1+$1,$2,$3*
1,1,$1+$1,$4,$5*
1,1,$1+$1,$6,$7*
1,1,$1+$1,$8,$9*
0 Add four rect primitives between the rounded corners*
20,1,$1+$1,$2,$3,$4,$5,0*
20,1,$1+$1,$4,$5,$6,$7,0*
20,1,$1+$1,$6,$7,$8,$9,0*
20,1,$1+$1,$8,$9,$2,$3,0*%
G04 Aperture macros list end*
%TA.AperFunction,ComponentPad*%
%ADD10C,4.700000*%
%TD*%
%TA.AperFunction,ComponentPad*%
%ADD11RoundRect,0.250000X0.550000X0.550000X-0.550000X0.550000X-0.550000X-0.550000X0.550000X-0.550000X0*%
%TD*%
%TA.AperFunction,ComponentPad*%
%ADD12C,1.600000*%
%TD*%
%TA.AperFunction,ComponentPad*%
%ADD13RoundRect,0.250000X0.625000X-0.350000X0.625000X0.350000X-0.625000X0.350000X-0.625000X-0.350000X0*%
%TD*%
%TA.AperFunction,ComponentPad*%
%ADD14O,1.750000X1.200000*%
%TD*%
%TA.AperFunction,SMDPad,CuDef*%
%ADD15RoundRect,0.150000X-0.625000X0.150000X-0.625000X-0.150000X0.625000X-0.150000X0.625000X0.150000X0*%
%TD*%
%TA.AperFunction,SMDPad,CuDef*%
%ADD16RoundRect,0.250000X-0.650000X0.350000X-0.650000X-0.350000X0.650000X-0.350000X0.650000X0.350000X0*%
%TD*%
%TA.AperFunction,ComponentPad*%
%ADD17C,2.000000*%
%TD*%
%TA.AperFunction,SMDPad,CuDef*%
%ADD18RoundRect,0.243750X-0.243750X-0.456250X0.243750X-0.456250X0.243750X0.456250X-0.243750X0.456250X0*%
%TD*%
%TA.AperFunction,SMDPad,CuDef*%
%ADD19R,4.500000X3.500000*%
%TD*%
%TA.AperFunction,SMDPad,CuDef*%
%ADD20R,4.241800X3.810000*%
%TD*%
%TA.AperFunction,SMDPad,CuDef*%
%ADD21RoundRect,0.250000X0.550000X-1.250000X0.550000X1.250000X-0.550000X1.250000X-0.550000X-1.250000X0*%
%TD*%
%TA.AperFunction,SMDPad,CuDef*%
%ADD22RoundRect,0.243750X-0.456250X0.243750X-0.456250X-0.243750X0.456250X-0.243750X0.456250X0.243750X0*%
%TD*%
%TA.AperFunction,ComponentPad*%
%ADD23RoundRect,0.250000X-0.600000X-0.750000X0.600000X-0.750000X0.600000X0.750000X-0.600000X0.750000X0*%
%TD*%
%TA.AperFunction,ComponentPad*%
%ADD24O,1.700000X2.000000*%
%TD*%
%TA.AperFunction,SMDPad,CuDef*%
%ADD25RoundRect,0.243750X0.243750X0.456250X-0.243750X0.456250X-0.243750X-0.456250X0.243750X-0.456250X0*%
%TD*%
%TA.AperFunction,ComponentPad*%
%ADD26C,4.000000*%
%TD*%
%TA.AperFunction,ComponentPad*%
%ADD27R,1.700000X1.700000*%
%TD*%
%TA.AperFunction,ComponentPad*%
%ADD28C,1.700000*%
%TD*%
%TA.AperFunction,ComponentPad*%
%ADD29R,1.500000X1.500000*%
%TD*%
%TA.AperFunction,ComponentPad*%
%ADD30C,1.500000*%
%TD*%
%TA.AperFunction,ComponentPad*%
%ADD31C,2.300000*%
%TD*%
%TA.AperFunction,ViaPad*%
%ADD32C,0.800000*%
%TD*%
%TA.AperFunction,ViaPad*%
%ADD33C,1.000000*%
%TD*%
%TA.AperFunction,ViaPad*%
%ADD34C,0.500000*%
%TD*%
%TA.AperFunction,ViaPad*%
%ADD35C,0.600000*%
%TD*%
%TA.AperFunction,Conductor*%
%ADD36C,0.500000*%
%TD*%
%TA.AperFunction,Conductor*%
%ADD37C,0.250000*%
%TD*%
%TA.AperFunction,Conductor*%
%ADD38C,1.000000*%
%TD*%
%TA.AperFunction,Conductor*%
%ADD39C,1.100000*%
%TD*%
%TA.AperFunction,Conductor*%
%ADD40C,0.350000*%
%TD*%
%TA.AperFunction,Conductor*%
%ADD41C,1.250000*%
%TD*%
G04 APERTURE END LIST*
D10*
%TO.P,REF\u002A\u002A,MH1*%
%TO.N,GND*%
X108216645Y-96383439D03*
%TD*%
%TO.P,REF\u002A\u002A,MH1*%
%TO.N,GND*%
X198216645Y-42383439D03*
%TD*%
D11*
%TO.P,SW1,1*%
%TO.N,Net-(R27-Pad2)*%
X129895000Y-54677500D03*
D12*
%TO.P,SW1,2*%
%TO.N,Net-(CAN1-CANH)*%
X122275000Y-54677500D03*
%TD*%
D13*
%TO.P,CN2,1,GND*%
%TO.N,GND*%
X198850000Y-74180000D03*
D14*
%TO.P,CN2,2,5ZL*%
%TO.N,5zl*%
X198850000Y-72180000D03*
%TO.P,CN2,3,2ZL*%
%TO.N,2zl*%
X198850000Y-70180000D03*
%TD*%
D10*
%TO.P,REF\u002A\u002A,MH1*%
%TO.N,GND*%
X198216645Y-82383439D03*
%TD*%
D15*
%TO.P,PROG1,1,Pin_1*%
%TO.N,io0*%
X171865000Y-67880000D03*
%TO.P,PROG1,2,Pin_2*%
%TO.N,Net-(PROG1-Pin_2)*%
X171865000Y-68880000D03*
%TO.P,PROG1,3,Pin_3*%
%TO.N,txd0*%
X171865000Y-69880000D03*
%TO.P,PROG1,4,Pin_4*%
%TO.N,rxd0*%
X171865000Y-70880000D03*
%TO.P,PROG1,5,Pin_5*%
%TO.N,GND*%
X171865000Y-71880000D03*
D16*
%TO.P,PROG1,MP*%
%TO.N,N/C*%
X174390000Y-66580000D03*
X174390000Y-73180000D03*
%TD*%
D17*
%TO.P,SELECT1,1,1*%
%TO.N,GND*%
X194750000Y-54500000D03*
X201250000Y-54500000D03*
%TO.P,SELECT1,2,3*%
%TO.N,io33*%
X194750000Y-59000000D03*
X201250000Y-59000000D03*
%TD*%
D18*
%TO.P,D6,1,K*%
%TO.N,Net-(D6-K)*%
X200822500Y-66290000D03*
%TO.P,D6,2,A*%
%TO.N,+3V3*%
X202697500Y-66290000D03*
%TD*%
D19*
%TO.P,BT1,+*%
%TO.N,Net-(U5-VBAT)*%
X116970000Y-69400000D03*
%TO.P,BT1,-*%
%TO.N,GND*%
X116970000Y-95400000D03*
%TD*%
D20*
%TO.P,U3,1*%
%TO.N,+5V*%
X180172300Y-92920000D03*
%TO.P,U3,2*%
%TO.N,Net-(CN1-5V)*%
X186547700Y-92920000D03*
%TD*%
D21*
%TO.P,C6,1*%
%TO.N,+3V3*%
X171850000Y-96340000D03*
%TO.P,C6,2*%
%TO.N,GND*%
X171850000Y-91940000D03*
%TD*%
D22*
%TO.P,D8,1,K*%
%TO.N,GND*%
X198720000Y-86752500D03*
%TO.P,D8,2,A*%
%TO.N,Net-(D8-A)*%
X198720000Y-88627500D03*
%TD*%
D18*
%TO.P,D5,1,K*%
%TO.N,Net-(CAN1-R)*%
X114352500Y-52970000D03*
%TO.P,D5,2,A*%
%TO.N,Net-(D5-A)*%
X116227500Y-52970000D03*
%TD*%
%TO.P,D2,1,K*%
%TO.N,io14*%
X114352500Y-55740000D03*
%TO.P,D2,2,A*%
%TO.N,Net-(D2-A)*%
X116227500Y-55740000D03*
%TD*%
D10*
%TO.P,REF\u002A\u002A,1*%
%TO.N,GND*%
X108216645Y-42383439D03*
%TD*%
D17*
%TO.P,BACK1,1,2*%
%TO.N,GND*%
X169750000Y-54500000D03*
X176250000Y-54500000D03*
%TO.P,BACK1,2,3*%
%TO.N,io32*%
X169750000Y-59000000D03*
X176250000Y-59000000D03*
%TD*%
%TO.P,UP1,1,1*%
%TO.N,GND*%
X182750000Y-41750000D03*
X189250000Y-41750000D03*
%TO.P,UP1,2,3*%
%TO.N,io25*%
X182750000Y-46250000D03*
X189250000Y-46250000D03*
%TD*%
D23*
%TO.P,CN1,1,GND*%
%TO.N,GND*%
X196070000Y-94660000D03*
D24*
%TO.P,CN1,2,5V*%
%TO.N,Net-(CN1-5V)*%
X198570000Y-94660000D03*
%TD*%
D18*
%TO.P,D7,1,K*%
%TO.N,Net-(D7-K)*%
X200882500Y-63420000D03*
%TO.P,D7,2,A*%
%TO.N,+3V3*%
X202757500Y-63420000D03*
%TD*%
D25*
%TO.P,D1,1,K*%
%TO.N,Net-(D1-K)*%
X174127500Y-42720000D03*
%TO.P,D1,2,A*%
%TO.N,io15*%
X172252500Y-42720000D03*
%TD*%
D26*
%TO.P,TFT1,*%
%TO.N,GND*%
X134740000Y-42420000D03*
X134740000Y-93420000D03*
X164740000Y-42420000D03*
X164740000Y-93420000D03*
D27*
%TO.P,TFT1,1,GND*%
X140850000Y-41420000D03*
D28*
%TO.P,TFT1,2,VCC*%
%TO.N,+3V3*%
X143390000Y-41420000D03*
%TO.P,TFT1,3,SCK*%
%TO.N,Net-(TFT1-SCK)*%
X145930000Y-41420000D03*
%TO.P,TFT1,4,SDA*%
%TO.N,Net-(TFT1-SDA)*%
X148470000Y-41420000D03*
%TO.P,TFT1,5,RES*%
%TO.N,Net-(TFT1-RES)*%
X151010000Y-41420000D03*
%TO.P,TFT1,6,DC*%
%TO.N,io26*%
X153550000Y-41420000D03*
%TO.P,TFT1,7,CS*%
%TO.N,io13*%
X156090000Y-41420000D03*
%TO.P,TFT1,8,BL*%
%TO.N,io27*%
X158630000Y-41420000D03*
%TD*%
D29*
%TO.P,RJ_CAN1,1*%
%TO.N,Net-(CAN1-CANH)*%
X117840000Y-43710000D03*
D30*
%TO.P,RJ_CAN1,2*%
%TO.N,Net-(CAN1-CANL)*%
X118856000Y-45490000D03*
%TO.P,RJ_CAN1,3*%
%TO.N,unconnected-(RJ_CAN1-Pad3)*%
X119872000Y-43710000D03*
%TO.P,RJ_CAN1,4*%
%TO.N,GND*%
X120888000Y-45490000D03*
%TO.P,RJ_CAN1,5*%
X121904000Y-43710000D03*
%TO.P,RJ_CAN1,6*%
%TO.N,unconnected-(RJ_CAN1-Pad6)*%
X122920000Y-45490000D03*
%TO.P,RJ_CAN1,7*%
%TO.N,unconnected-(RJ_CAN1-Pad7)*%
X123936000Y-43710000D03*
%TO.P,RJ_CAN1,8*%
%TO.N,unconnected-(RJ_CAN1-Pad8)*%
X124952000Y-45490000D03*
D31*
%TO.P,RJ_CAN1,SH,SH*%
%TO.N,GND*%
X113270000Y-44600000D03*
X129530000Y-44600000D03*
%TD*%
D22*
%TO.P,D9,1,K*%
%TO.N,GND*%
X201630000Y-86752500D03*
%TO.P,D9,2,A*%
%TO.N,Net-(D9-A)*%
X201630000Y-88627500D03*
%TD*%
D17*
%TO.P,DOWN1,1,2*%
%TO.N,GND*%
X182750000Y-66750000D03*
X189250000Y-66750000D03*
%TO.P,DOWN1,2,3*%
%TO.N,io5*%
X182750000Y-71250000D03*
X189250000Y-71250000D03*
%TD*%
D32*
%TO.N,GND*%
X150850000Y-84270000D03*
X153290000Y-88480000D03*
D33*
X145990000Y-53250000D03*
D32*
X153290000Y-83450000D03*
X152500000Y-84270000D03*
X150850000Y-85920000D03*
X152500000Y-87570000D03*
D33*
X163220000Y-46010000D03*
D32*
X151690000Y-88480000D03*
D34*
X142760000Y-78530000D03*
D32*
X153290000Y-86730000D03*
X150020000Y-86730000D03*
X149200000Y-87570000D03*
X151690000Y-83450000D03*
X148420000Y-85040000D03*
X148420000Y-86730000D03*
X153290000Y-85040000D03*
D33*
X145990000Y-70350000D03*
D32*
X149200000Y-84270000D03*
X151690000Y-86730000D03*
D33*
X131709975Y-50385000D03*
D32*
X151690000Y-85040000D03*
X150850000Y-87570000D03*
X150020000Y-85040000D03*
X148420000Y-83450000D03*
D33*
X140160000Y-46940000D03*
D32*
X149200000Y-85920000D03*
X152500000Y-85920000D03*
X150020000Y-88480000D03*
D33*
X155400000Y-47490000D03*
D32*
X150020000Y-83450000D03*
D33*
X163500000Y-76640000D03*
X157370000Y-76350000D03*
D35*
%TO.N,Net-(CAN1-CANL)*%
X135160000Y-56530000D03*
X135140000Y-58680000D03*
D33*
%TO.N,+5V*%
X182090000Y-96990000D03*
D35*
%TO.N,sdcmd*%
X163850000Y-83020000D03*
X155950000Y-68170000D03*
%TO.N,Net-(D7-K)*%
X200692500Y-63440000D03*
%TO.N,Net-(PROG1-Pin_2)*%
X160982500Y-88344654D03*
D33*
%TO.N,+3V3*%
X177530001Y-97610001D03*
X196510000Y-37700000D03*
D32*
X147480002Y-97610000D03*
D35*
X202808355Y-86034936D03*
X144340000Y-71060000D03*
X158000000Y-37660000D03*
X152820000Y-37710000D03*
X171970000Y-96330000D03*
%TO.N,Net-(D9-A)*%
X201710000Y-88680000D03*
%TO.N,Net-(D6-K)*%
X200692500Y-66310000D03*
%TO.N,io14*%
X168430000Y-41680000D03*
X114260000Y-55800000D03*
X147570000Y-76430000D03*
%TO.N,io15*%
X148450000Y-76452004D03*
%TO.N,io5*%
X130628261Y-76915000D03*
X143190000Y-76165111D03*
%TO.N,io0*%
X146110000Y-89310000D03*
%TO.N,rxd0*%
X160987466Y-87443423D03*
%TO.N,txd0*%
X160605000Y-86684328D03*
%TO.N,io22*%
X128110000Y-75850000D03*
X130470000Y-70670000D03*
%TO.N,io21*%
X152570000Y-76452004D03*
X149740000Y-69850000D03*
%TO.N,io18*%
X152930000Y-71360000D03*
X150240000Y-76452004D03*
%TO.N,io12*%
X145475111Y-76240824D03*
X147120000Y-71430000D03*
%TO.N,io26*%
X149325000Y-76452004D03*
X149540000Y-72980000D03*
%TO.N,sdclk*%
X163008091Y-84021231D03*
X122800000Y-74310000D03*
%TO.N,Net-(CAN1-R)*%
X141160000Y-51260000D03*
X157660000Y-63760000D03*
X155940000Y-75960000D03*
%TO.N,Net-(U5-VBAT)*%
X130470000Y-72220000D03*
%TO.N,Net-(D1-K)*%
X174170000Y-42680000D03*
%TO.N,Net-(D2-A)*%
X116220000Y-55760000D03*
%TO.N,Net-(D5-A)*%
X116250000Y-53010000D03*
%TO.N,Net-(D8-A)*%
X198730000Y-88622500D03*
%TO.N,unconnected-(U1-IO6-Pad10)*%
X136102511Y-77867489D03*
X124590000Y-76050000D03*
%TD*%
D36*
%TO.N,GND*%
X163070000Y-46250000D02*
X161830000Y-47490000D01*
X162208091Y-83689860D02*
X162220000Y-83677951D01*
X161830000Y-47490000D02*
X155400000Y-47490000D01*
X164740000Y-93420000D02*
X162208091Y-90888091D01*
D37*
X163220000Y-46010000D02*
X163070000Y-45860000D01*
X163070000Y-45860000D02*
X163070000Y-46250000D01*
D38*
X145990000Y-70350000D02*
X145990000Y-53250000D01*
D36*
X162220000Y-83677951D02*
X162220000Y-77920000D01*
X162220000Y-77920000D02*
X163500000Y-76640000D01*
X162208091Y-90888091D02*
X162208091Y-83689860D01*
D37*
%TO.N,Net-(CAN1-CANL)*%
X135140000Y-58680000D02*
X135140000Y-56550000D01*
X135140000Y-56550000D02*
X135160000Y-56530000D01*
%TO.N,+5V*%
X180172299Y-92919999D02*
X180172300Y-92920000D01*
D39*
X182090000Y-94837700D02*
X180172299Y-92919999D01*
X182090000Y-96990000D02*
X182090000Y-94837700D01*
D37*
%TO.N,sdcmd*%
X173114000Y-73756000D02*
X163850000Y-83020000D01*
X173114000Y-67554000D02*
X173114000Y-73756000D01*
X155950000Y-68170000D02*
X165500000Y-68170000D01*
X166940000Y-66730000D02*
X172290000Y-66730000D01*
X165500000Y-68170000D02*
X166940000Y-66730000D01*
X172290000Y-66730000D02*
X173114000Y-67554000D01*
%TO.N,Net-(PROG1-Pin_2)*%
X171865000Y-68880000D02*
X166735788Y-68880000D01*
X166735788Y-68880000D02*
X159930000Y-75685788D01*
X159930000Y-87640000D02*
X160634654Y-88344654D01*
X159930000Y-75685788D02*
X159930000Y-87640000D01*
X160634654Y-88344654D02*
X160982500Y-88344654D01*
%TO.N,+3V3*%
X200610000Y-37700000D02*
X202860000Y-39950000D01*
X202860000Y-39950000D02*
X202860000Y-85983291D01*
D38*
X145100000Y-37700000D02*
X143380000Y-39420000D01*
X147480000Y-97610000D02*
X177530000Y-97610000D01*
D37*
X143380000Y-41410000D02*
X143390000Y-41420000D01*
X196510000Y-37700000D02*
X200610000Y-37700000D01*
D38*
X144240000Y-42270000D02*
X144240000Y-94370000D01*
X145100000Y-37700000D02*
X196510000Y-37700000D01*
X143390000Y-41420000D02*
X144240000Y-42270000D01*
D37*
X177530000Y-97610000D02*
X177530001Y-97610001D01*
X202860000Y-85983291D02*
X202808355Y-86034936D01*
D38*
X144240000Y-94370000D02*
X147480000Y-97610000D01*
X143380000Y-39420000D02*
X143380000Y-41410000D01*
D37*
%TO.N,io32*%
X169750000Y-59000000D02*
X176250000Y-59000000D01*
%TO.N,io14*%
X147820000Y-63040000D02*
X147820000Y-76180000D01*
X168430000Y-42430000D02*
X147820000Y-63040000D01*
X168430000Y-41680000D02*
X168430000Y-42430000D01*
X147820000Y-76180000D02*
X147570000Y-76430000D01*
%TO.N,io15*%
X168388553Y-43178553D02*
X148460000Y-63107106D01*
X168847106Y-42720000D02*
X168388553Y-43178553D01*
X172252500Y-42720000D02*
X168847106Y-42720000D01*
X148460000Y-76500000D02*
X148450000Y-76510000D01*
X168817107Y-42750000D02*
X168388553Y-43178553D01*
X148460000Y-63107106D02*
X148460000Y-76500000D01*
%TO.N,io5*%
X140005000Y-76915000D02*
X140010000Y-76920000D01*
X130628261Y-76915000D02*
X140005000Y-76915000D01*
X142435111Y-76920000D02*
X143190000Y-76165111D01*
X140010000Y-76920000D02*
X142435111Y-76920000D01*
%TO.N,io0*%
X167020000Y-67880000D02*
X171865000Y-67880000D01*
X159325000Y-87395000D02*
X159325000Y-75575000D01*
X159325000Y-75575000D02*
X167020000Y-67880000D01*
X157410000Y-89310000D02*
X159325000Y-87395000D01*
X146110000Y-89310000D02*
X157410000Y-89310000D01*
%TO.N,rxd0*%
X161325000Y-75705000D02*
X161325000Y-87105889D01*
X171865000Y-70880000D02*
X166150000Y-70880000D01*
X161325000Y-87105889D02*
X160987466Y-87443423D01*
X166150000Y-70880000D02*
X161325000Y-75705000D01*
%TO.N,txd0*%
X166442894Y-69880000D02*
X160650000Y-75672894D01*
X160650000Y-86639328D02*
X160605000Y-86684328D01*
X160650000Y-75672894D02*
X160650000Y-86639328D01*
X171865000Y-69880000D02*
X166442894Y-69880000D01*
%TO.N,io22*%
X130500000Y-70670000D02*
X130510000Y-70670000D01*
X131225000Y-71385000D02*
X131225000Y-72735000D01*
X130510000Y-70670000D02*
X131225000Y-71385000D01*
X131225000Y-72735000D02*
X128110000Y-75850000D01*
%TO.N,io21*%
X150320000Y-70430000D02*
X153040000Y-70430000D01*
X153040000Y-70430000D02*
X153860000Y-71250000D01*
X149740000Y-69850000D02*
X150320000Y-70430000D01*
X152570000Y-76430000D02*
X152570000Y-76452004D01*
X153860000Y-75140000D02*
X152570000Y-76430000D01*
X153860000Y-71250000D02*
X153860000Y-75140000D01*
%TO.N,io18*%
X150042000Y-76320000D02*
X150042000Y-74248000D01*
X150042000Y-74248000D02*
X152930000Y-71360000D01*
%TO.N,io12*%
X145475111Y-73204889D02*
X145475111Y-76240824D01*
X147120000Y-71560000D02*
X145475111Y-73204889D01*
%TO.N,io33*%
X194750000Y-59000000D02*
X201250000Y-59000000D01*
%TO.N,io26*%
X149325000Y-73195000D02*
X149325000Y-76452004D01*
X149540000Y-72980000D02*
X149325000Y-73195000D01*
%TO.N,sdclk*%
X178780000Y-98060000D02*
X178780000Y-96100000D01*
X122800000Y-84840172D02*
X136939828Y-98980000D01*
X178780000Y-96100000D02*
X166701231Y-84021231D01*
X177860000Y-98980000D02*
X178780000Y-98060000D01*
X122800000Y-74310000D02*
X122800000Y-84840172D01*
X136939828Y-98980000D02*
X177860000Y-98980000D01*
X166701231Y-84021231D02*
X163008091Y-84021231D01*
%TO.N,Net-(CAN1-R)*%
X114350000Y-52972500D02*
X114352500Y-52970000D01*
X154430000Y-74450000D02*
X154430000Y-66990000D01*
X114350000Y-53040000D02*
X114350000Y-52972500D01*
X114352500Y-52970000D02*
X116062500Y-51260000D01*
X114352500Y-52970000D02*
X114410000Y-52970000D01*
X155940000Y-75960000D02*
X154430000Y-74450000D01*
X116062500Y-51260000D02*
X141160000Y-51260000D01*
X114410000Y-52970000D02*
X114420000Y-52960000D01*
X154430000Y-66990000D02*
X157660000Y-63760000D01*
D40*
%TO.N,Net-(U5-VBAT)*%
X127650000Y-69400000D02*
X116970000Y-69400000D01*
X130470000Y-72220000D02*
X127650000Y-69400000D01*
D41*
%TO.N,Net-(CN1-5V)*%
X187449316Y-92018384D02*
X186547700Y-92920000D01*
X197608384Y-92018384D02*
X187449316Y-92018384D01*
X198570000Y-92980000D02*
X197608384Y-92018384D01*
X198570000Y-94660000D02*
X198570000Y-92980000D01*
D37*
%TO.N,Net-(D1-K)*%
X174127500Y-42720000D02*
X174130000Y-42720000D01*
X174130000Y-42720000D02*
X174170000Y-42680000D01*
%TO.N,unconnected-(U1-IO6-Pad10)*%
X126150000Y-77610000D02*
X135845022Y-77610000D01*
X135845022Y-77610000D02*
X136102511Y-77867489D01*
X124590000Y-76050000D02*
X126150000Y-77610000D01*
%TD*%
%TA.AperFunction,Conductor*%
%TO.N,GND*%
G36*
X203692539Y-35770185D02*
G01*
X203738294Y-35822989D01*
X203749500Y-35874500D01*
X203749500Y-62725170D01*
X203729815Y-62792209D01*
X203677011Y-62837964D01*
X203607853Y-62847908D01*
X203544297Y-62818883D01*
X203510146Y-62770661D01*
X203480111Y-62694500D01*
X203447564Y-62651580D01*
X203389711Y-62575289D01*
X203389706Y-62575285D01*
X203389705Y-62575284D01*
X203334574Y-62533476D01*
X203293051Y-62477284D01*
X203285500Y-62434673D01*
X203285500Y-39893984D01*
X203285500Y-39893982D01*
X203256503Y-39785763D01*
X203200485Y-39688737D01*
X203121263Y-39609515D01*
X200871263Y-37359515D01*
X200774237Y-37303497D01*
X200666018Y-37274500D01*
X200666017Y-37274500D01*
X197254723Y-37274500D01*
X197187684Y-37254815D01*
X197151621Y-37219391D01*
X197131789Y-37189711D01*
X197131786Y-37189707D01*
X197020292Y-37078213D01*
X197020288Y-37078210D01*
X196889185Y-36990609D01*
X196889172Y-36990602D01*
X196743501Y-36930264D01*
X196743489Y-36930261D01*
X196588845Y-36899500D01*
X196588842Y-36899500D01*
X145178842Y-36899500D01*
X145021157Y-36899500D01*
X145021155Y-36899500D01*
X144866508Y-36930261D01*
X144866498Y-36930264D01*
X144720827Y-36990602D01*
X144720814Y-36990609D01*
X144589712Y-37078209D01*
X144533962Y-37133960D01*
X144478211Y-37189711D01*
X144478209Y-37189713D01*
X142852270Y-38815651D01*
X142758213Y-38909707D01*
X142758210Y-38909711D01*
X142670609Y-39040814D01*
X142670602Y-39040827D01*
X142610264Y-39186498D01*
X142610261Y-39186510D01*
X142579500Y-39341153D01*
X142579500Y-40552084D01*
X142559815Y-40619123D01*
X142543181Y-40639765D01*
X142512445Y-40670500D01*
X142512441Y-40670505D01*
X142406006Y-40817002D01*
X142323788Y-40978360D01*
X142323787Y-40978363D01*
X142267829Y-41150589D01*
X142246472Y-41285428D01*
X142216542Y-41348562D01*
X142157231Y-41385493D01*
X142087368Y-41384495D01*
X142029136Y-41345885D01*
X142001022Y-41281921D01*
X141999999Y-41266029D01*
X141999999Y-40525214D01*
X141999997Y-40525191D01*
X141997091Y-40500130D01*
X141997090Y-40500126D01*
X141951788Y-40397525D01*
X141951785Y-40397520D01*
X141872479Y-40318214D01*
X141872474Y-40318211D01*
X141769876Y-40272910D01*
X141744794Y-40270000D01*
X141250000Y-40270000D01*
X141250000Y-41112894D01*
X141157007Y-41019901D01*
X141042993Y-40954075D01*
X140915826Y-40920000D01*
X140784174Y-40920000D01*
X140657007Y-40954075D01*
X140542993Y-41019901D01*
X140449901Y-41112993D01*
X140384075Y-41227007D01*
X140350000Y-41354174D01*
X140350000Y-41485826D01*
X140384075Y-41612993D01*
X140449901Y-41727007D01*
X140542993Y-41820099D01*
X140657007Y-41885925D01*
X140784174Y-41920000D01*
X140915826Y-41920000D01*
X141042993Y-41885925D01*
X141157007Y-41820099D01*
X141250000Y-41727106D01*
X141250000Y-42569999D01*
X141744786Y-42569999D01*
X141744808Y-42569997D01*
X141769869Y-42567091D01*
X141769873Y-42567090D01*
X141872474Y-42521788D01*
X141872479Y-42521785D01*
X141951785Y-42442479D01*
X141951788Y-42442474D01*
X141997089Y-42339877D01*
X141997089Y-42339875D01*
X141999999Y-42314794D01*
X141999999Y-41573971D01*
X142019683Y-41506932D01*
X142072487Y-41461177D01*
X142141646Y-41451233D01*
X142205202Y-41480258D01*
X142242976Y-41539036D01*
X142246472Y-41554572D01*
X142267829Y-41689410D01*
X142323787Y-41861636D01*
X142323788Y-41861639D01*
X142375075Y-41962292D01*
X142394947Y-42001294D01*
X142406006Y-42022997D01*
X142512441Y-42169494D01*
X142512445Y-42169499D01*
X142640500Y-42297554D01*
X142640505Y-42297558D01*
X142698753Y-42339877D01*
X142787006Y-42403996D01*
X142862523Y-42442474D01*
X142948360Y-42486211D01*
X142948363Y-42486212D01*
X143034476Y-42514191D01*
X143120591Y-42542171D01*
X143203429Y-42555291D01*
X143299449Y-42570500D01*
X143299454Y-42570500D01*
X143315500Y-42570500D01*
X143382539Y-42590185D01*
X143428294Y-42642989D01*
X143439500Y-42694500D01*
X143439500Y-75448681D01*
X143419815Y-75515720D01*
X143367011Y-75561475D01*
X143297853Y-75571419D01*
X143283409Y-75568456D01*
X143269061Y-75564611D01*
X143269057Y-75564611D01*
X143110943Y-75564611D01*
X142958216Y-75605534D01*
X142958209Y-75605537D01*
X142821290Y-75684586D01*
X142821282Y-75684592D01*
X142709481Y-75796393D01*
X142709475Y-75796401D01*
X142630426Y-75933320D01*
X142630423Y-75933327D01*
X142589500Y-76086054D01*
X142589500Y-76112501D01*
X142569815Y-76179540D01*
X142553181Y-76200182D01*
X142295182Y-76458181D01*
X142233859Y-76491666D01*
X142207501Y-76494500D01*
X140096003Y-76494500D01*
X140063915Y-76490276D01*
X140061018Y-76489500D01*
X140061017Y-76489500D01*
X131103359Y-76489500D01*
X131036320Y-76469815D01*
X131015678Y-76453181D01*
X130996978Y-76434481D01*
X130996970Y-76434475D01*
X130860051Y-76355426D01*
X130860047Y-76355424D01*
X130860045Y-76355423D01*
X130707318Y-76314500D01*
X130549204Y-76314500D01*
X130396477Y-76355423D01*
X130396470Y-76355426D01*
X130259551Y-76434475D01*
X130259543Y-76434481D01*
X130147742Y-76546282D01*
X130147736Y-76546290D01*
X130068687Y-76683209D01*
X130068684Y-76683216D01*
X130027761Y-76835943D01*
X130027761Y-76994058D01*
X130036965Y-77028408D01*
X130035302Y-77098258D01*
X129996139Y-77156120D01*
X129931910Y-77183623D01*
X129917190Y-77184500D01*
X126377610Y-77184500D01*
X126310571Y-77164815D01*
X126289929Y-77148181D01*
X125226819Y-76085071D01*
X125193334Y-76023748D01*
X125190500Y-75997390D01*
X125190500Y-75970945D01*
X125190500Y-75970943D01*
X125149577Y-75818216D01*
X125122284Y-75770943D01*
X125070524Y-75681290D01*
X125070518Y-75681282D01*
X124958717Y-75569481D01*
X124958709Y-75569475D01*
X124821790Y-75490426D01*
X124821786Y-75490424D01*
X124821784Y-75490423D01*
X124669057Y-75449500D01*
X124510943Y-75449500D01*
X124358216Y-75490423D01*
X124358209Y-75490426D01*
X124221290Y-75569475D01*
X124221282Y-75569481D01*
X124109481Y-75681282D01*
X124109475Y-75681290D01*
X124030426Y-75818209D01*
X124030423Y-75818216D01*
X123989500Y-75970943D01*
X123989500Y-76129057D01*
X124013525Y-76218717D01*
X124030423Y-76281783D01*
X124030426Y-76281790D01*
X124109475Y-76418709D01*
X124109479Y-76418714D01*
X124109480Y-76418716D01*
X124221284Y-76530520D01*
X124221286Y-76530521D01*
X124221290Y-76530524D01*
X124273211Y-76560500D01*
X124358216Y-76609577D01*
X124510943Y-76650500D01*
X124537390Y-76650500D01*
X124604429Y-76670185D01*
X124625071Y-76686819D01*
X125888737Y-77950485D01*
X125985763Y-78006503D01*
X126093981Y-78035500D01*
X126093982Y-78035500D01*
X135434523Y-78035500D01*
X135501562Y-78055185D01*
X135541910Y-78097500D01*
X135621988Y-78236201D01*
X135621990Y-78236204D01*
X135621991Y-78236205D01*
X135733795Y-78348009D01*
X135733797Y-78348010D01*
X135733801Y-78348013D01*
X135870720Y-78427062D01*
X135870727Y-78427066D01*
X136023454Y-78467989D01*
X136023456Y-78467989D01*
X136181566Y-78467989D01*
X136181568Y-78467989D01*
X136334295Y-78427066D01*
X136471227Y-78348009D01*
X136583031Y-78236205D01*
X136662088Y-78099273D01*
X136703011Y-77946546D01*
X136703011Y-77788432D01*
X136662088Y-77635705D01*
X136599038Y-77526499D01*
X136582566Y-77458599D01*
X136605419Y-77392573D01*
X136660340Y-77349382D01*
X136706426Y-77340500D01*
X139918997Y-77340500D01*
X139951084Y-77344723D01*
X139953982Y-77345500D01*
X139953984Y-77345500D01*
X142491127Y-77345500D01*
X142491129Y-77345500D01*
X142599348Y-77316503D01*
X142696374Y-77260485D01*
X143154928Y-76801929D01*
X143176074Y-76790382D01*
X143194792Y-76775201D01*
X143209153Y-76772320D01*
X143216251Y-76768445D01*
X143228962Y-76766364D01*
X143235763Y-76765611D01*
X143269057Y-76765611D01*
X143292505Y-76759328D01*
X143301853Y-76758293D01*
X143327359Y-76762811D01*
X143353254Y-76763427D01*
X143361201Y-76768806D01*
X143370652Y-76770480D01*
X143389665Y-76788069D01*
X143411117Y-76802588D01*
X143414895Y-76811410D01*
X143421940Y-76817928D01*
X143428424Y-76843002D01*
X143438623Y-76866816D01*
X143439500Y-76881540D01*
X143439500Y-94448846D01*
X143470261Y-94603489D01*
X143470264Y-94603501D01*
X143530602Y-94749172D01*
X143530609Y-94749185D01*
X143618210Y-94880288D01*
X143618213Y-94880292D01*
X146969707Y-98231786D01*
X146969711Y-98231789D01*
X147100814Y-98319390D01*
X147104088Y-98321140D01*
X147105481Y-98322508D01*
X147105886Y-98322779D01*
X147105834Y-98322855D01*
X147153933Y-98370102D01*
X147169395Y-98438239D01*
X147145565Y-98503919D01*
X147090008Y-98546289D01*
X147045637Y-98554500D01*
X137167438Y-98554500D01*
X137100399Y-98534815D01*
X137079757Y-98518181D01*
X134492958Y-95931382D01*
X134459473Y-95870059D01*
X134464457Y-95800367D01*
X134506329Y-95744434D01*
X134571793Y-95720017D01*
X134588766Y-95719968D01*
X134589253Y-95720000D01*
X134890743Y-95720000D01*
X134890759Y-95719998D01*
X135189667Y-95680646D01*
X135480901Y-95602610D01*
X135759443Y-95487234D01*
X135759454Y-95487229D01*
X136020549Y-95336484D01*
X136060298Y-95305983D01*
X136060298Y-95305982D01*
X135368975Y-94614660D01*
X135447554Y-94574623D01*
X135619466Y-94449722D01*
X135769722Y-94299466D01*
X135894623Y-94127554D01*
X135934660Y-94048976D01*
X136625982Y-94740298D01*
X136625983Y-94740298D01*
X136656484Y-94700549D01*
X136807229Y-94439454D01*
X136807234Y-94439443D01*
X136922610Y-94160901D01*
X137000646Y-93869667D01*
X137039998Y-93570759D01*
X137040000Y-93570743D01*
X137040000Y-93269256D01*
X137039998Y-93269240D01*
X137000646Y-92970332D01*
X136922610Y-92679098D01*
X136807234Y-92400556D01*
X136807229Y-92400545D01*
X136656487Y-92139454D01*
X136656481Y-92139446D01*
X136625983Y-92099700D01*
X135934660Y-92791023D01*
X135894623Y-92712446D01*
X135769722Y-92540534D01*
X135619466Y-92390278D01*
X135447554Y-92265377D01*
X135368974Y-92225338D01*
X136060298Y-91534015D01*
X136060298Y-91534014D01*
X136020562Y-91503523D01*
X136020545Y-91503512D01*
X135759454Y-91352770D01*
X135759443Y-91352765D01*
X135480901Y-91237389D01*
X135189667Y-91159353D01*
X134890759Y-91120001D01*
X134890743Y-91120000D01*
X134589257Y-91120000D01*
X134589240Y-91120001D01*
X134290332Y-91159353D01*
X133999098Y-91237389D01*
X133720556Y-91352765D01*
X133720545Y-91352770D01*
X133459454Y-91503511D01*
X133459440Y-91503521D01*
X133419700Y-91534014D01*
X134111024Y-92225339D01*
X134032446Y-92265377D01*
X133860534Y-92390278D01*
X133710278Y-92540534D01*
X133585377Y-92712446D01*
X133545338Y-92791024D01*
X132854014Y-92099700D01*
X132823521Y-92139440D01*
X132823511Y-92139454D01*
X132672770Y-92400545D01*
X132672765Y-92400556D01*
X132557389Y-92679098D01*
X132479353Y-92970332D01*
X132440001Y-93269240D01*
X132440000Y-93269256D01*
X132440000Y-93570754D01*
X132440033Y-93571258D01*
X132440000Y-93571405D01*
X132440000Y-93574809D01*
X132439238Y-93574809D01*
X132424771Y-93639440D01*
X132375069Y-93688548D01*
X132306708Y-93702989D01*
X132241392Y-93678178D01*
X132228617Y-93667041D01*
X123261819Y-84700243D01*
X123228334Y-84638920D01*
X123225500Y-84612562D01*
X123225500Y-74785098D01*
X123245185Y-74718059D01*
X123261819Y-74697417D01*
X123280520Y-74678716D01*
X123359577Y-74541784D01*
X123400500Y-74389057D01*
X123400500Y-74230943D01*
X123359577Y-74078216D01*
X123285405Y-73949745D01*
X123280524Y-73941290D01*
X123280518Y-73941282D01*
X123168717Y-73829481D01*
X123168709Y-73829475D01*
X123031790Y-73750426D01*
X123031786Y-73750424D01*
X123031784Y-73750423D01*
X122879057Y-73709500D01*
X122720943Y-73709500D01*
X122568216Y-73750423D01*
X122568209Y-73750426D01*
X122431290Y-73829475D01*
X122431282Y-73829481D01*
X122319481Y-73941282D01*
X122319475Y-73941290D01*
X122240426Y-74078209D01*
X122240423Y-74078216D01*
X122199500Y-74230943D01*
X122199500Y-74389057D01*
X122208930Y-74424248D01*
X122240423Y-74541783D01*
X122240426Y-74541790D01*
X122319475Y-74678709D01*
X122319481Y-74678717D01*
X122338181Y-74697417D01*
X122371666Y-74758740D01*
X122374500Y-74785098D01*
X122374500Y-84784154D01*
X122374500Y-84896190D01*
X122403497Y-85004409D01*
X122459515Y-85101435D01*
X136599343Y-99241263D01*
X136678565Y-99320485D01*
X136775591Y-99376503D01*
X136883810Y-99405500D01*
X136883812Y-99405500D01*
X177916016Y-99405500D01*
X177916018Y-99405500D01*
X178024237Y-99376503D01*
X178121263Y-99320485D01*
X179120484Y-98321264D01*
X179176503Y-98224237D01*
X179205500Y-98116019D01*
X179205500Y-98003982D01*
X179205500Y-96043982D01*
X179176503Y-95935763D01*
X179120485Y-95838737D01*
X179041263Y-95759515D01*
X178618928Y-95337180D01*
X178585443Y-95275857D01*
X178590427Y-95206165D01*
X178632299Y-95150232D01*
X178697763Y-95125815D01*
X178706609Y-95125499D01*
X181115500Y-95125499D01*
X181182539Y-95145184D01*
X181228294Y-95197988D01*
X181239500Y-95249499D01*
X181239500Y-97073771D01*
X181272182Y-97238074D01*
X181272184Y-97238082D01*
X181336295Y-97392860D01*
X181429373Y-97532162D01*
X181547837Y-97650626D01*
X181640494Y-97712537D01*
X181687137Y-97743703D01*
X181841918Y-97807816D01*
X182006228Y-97840499D01*
X182006232Y-97840500D01*
X182006233Y-97840500D01*
X182173768Y-97840500D01*
X182173769Y-97840499D01*
X182338082Y-97807816D01*
X182492863Y-97743703D01*
X182632162Y-97650626D01*
X182750626Y-97532162D01*
X182843703Y-97392863D01*
X182907816Y-97238082D01*
X182940500Y-97073767D01*
X182940500Y-95453053D01*
X194920000Y-95453053D01*
X194930613Y-95541443D01*
X194986079Y-95682095D01*
X195077435Y-95802564D01*
X195197904Y-95893920D01*
X195338556Y-95949386D01*
X195426946Y-95960000D01*
X195670000Y-95960000D01*
X195670000Y-95060000D01*
X194920000Y-95060000D01*
X194920000Y-95453053D01*
X182940500Y-95453053D01*
X182940500Y-94753933D01*
X182907816Y-94589618D01*
X182901605Y-94574623D01*
X182887094Y-94539591D01*
X182887085Y-94539571D01*
X182887056Y-94539500D01*
X182843704Y-94434837D01*
X182750627Y-94295538D01*
X182750624Y-94295534D01*
X182630018Y-94174928D01*
X182596533Y-94113605D01*
X182593699Y-94087247D01*
X182593699Y-90970131D01*
X184126300Y-90970131D01*
X184126300Y-94869856D01*
X184126302Y-94869882D01*
X184129213Y-94894987D01*
X184129215Y-94894991D01*
X184174593Y-94997764D01*
X184174594Y-94997765D01*
X184254035Y-95077206D01*
X184356809Y-95122585D01*
X184381935Y-95125500D01*
X188713464Y-95125499D01*
X188713479Y-95125497D01*
X188713482Y-95125497D01*
X188738587Y-95122586D01*
X188738588Y-95122585D01*
X188738591Y-95122585D01*
X188841365Y-95077206D01*
X188920806Y-94997765D01*
X188966185Y-94894991D01*
X188969100Y-94869865D01*
X188969100Y-93866946D01*
X194920000Y-93866946D01*
X194920000Y-94260000D01*
X195670000Y-94260000D01*
X195670000Y-93360000D01*
X195426946Y-93360000D01*
X195338556Y-93370613D01*
X195197904Y-93426079D01*
X195077435Y-93517435D01*
X194986079Y-93637904D01*
X194930613Y-93778556D01*
X194920000Y-93866946D01*
X188969100Y-93866946D01*
X188969100Y-93067884D01*
X188988785Y-93000845D01*
X189041589Y-92955090D01*
X189093100Y-92943884D01*
X197173667Y-92943884D01*
X197240706Y-92963569D01*
X197261348Y-92980203D01*
X197608181Y-93327036D01*
X197641666Y-93388359D01*
X197644500Y-93414717D01*
X197644500Y-93786202D01*
X197624815Y-93853241D01*
X197620819Y-93859086D01*
X197586004Y-93907005D01*
X197586003Y-93907007D01*
X197503788Y-94068360D01*
X197503787Y-94068363D01*
X197461931Y-94197187D01*
X197422494Y-94254862D01*
X197358135Y-94282061D01*
X197289289Y-94270147D01*
X197237813Y-94222903D01*
X197220000Y-94158869D01*
X197220000Y-93866946D01*
X197209386Y-93778556D01*
X197153920Y-93637904D01*
X197062564Y-93517435D01*
X196942095Y-93426079D01*
X196801443Y-93370613D01*
X196713054Y-93360000D01*
X196470000Y-93360000D01*
X196470000Y-94352894D01*
X196377007Y-94259901D01*
X196262993Y-94194075D01*
X196135826Y-94160000D01*
X196004174Y-94160000D01*
X195877007Y-94194075D01*
X195762993Y-94259901D01*
X195669901Y-94352993D01*
X195604075Y-94467007D01*
X195570000Y-94594174D01*
X195570000Y-94725826D01*
X195604075Y-94852993D01*
X195669901Y-94967007D01*
X195762993Y-95060099D01*
X195877007Y-95125925D01*
X196004174Y-95160000D01*
X196135826Y-95160000D01*
X196262993Y-95125925D01*
X196377007Y-95060099D01*
X196470000Y-94967106D01*
X196470000Y-95960000D01*
X196713054Y-95960000D01*
X196801443Y-95949386D01*
X196942095Y-95893920D01*
X197062564Y-95802564D01*
X197153920Y-95682095D01*
X197209386Y-95541443D01*
X197220000Y-95453053D01*
X197220000Y-95161130D01*
X197239685Y-95094091D01*
X197292489Y-95048336D01*
X197361647Y-95038392D01*
X197425203Y-95067417D01*
X197461931Y-95122813D01*
X197503786Y-95251633D01*
X197503788Y-95251639D01*
X197586006Y-95412997D01*
X197692441Y-95559494D01*
X197692445Y-95559499D01*
X197820500Y-95687554D01*
X197820505Y-95687558D01*
X197865182Y-95720017D01*
X197967006Y-95793996D01*
X198072484Y-95847740D01*
X198128360Y-95876211D01*
X198128363Y-95876212D01*
X198214476Y-95904191D01*
X198300591Y-95932171D01*
X198383429Y-95945291D01*
X198479449Y-95960500D01*
X198479454Y-95960500D01*
X198660551Y-95960500D01*
X198747259Y-95946765D01*
X198839409Y-95932171D01*
X199011639Y-95876211D01*
X199172994Y-95793996D01*
X199319501Y-95687553D01*
X199447553Y-95559501D01*
X199553996Y-95412994D01*
X199636211Y-95251639D01*
X199692171Y-95079409D01*
X199711331Y-94958436D01*
X199720500Y-94900551D01*
X199720500Y-94419448D01*
X199696852Y-94270147D01*
X199692171Y-94240591D01*
X199655444Y-94127554D01*
X199636212Y-94068363D01*
X199636211Y-94068360D01*
X199569900Y-93938220D01*
X199553996Y-93907006D01*
X199519181Y-93859086D01*
X199495702Y-93793279D01*
X199495500Y-93786202D01*
X199495500Y-92888843D01*
X199459934Y-92710047D01*
X199459933Y-92710046D01*
X199459933Y-92710042D01*
X199447116Y-92679098D01*
X199390168Y-92541612D01*
X199390166Y-92541608D01*
X199288886Y-92390032D01*
X199288884Y-92390029D01*
X199238855Y-92340000D01*
X199159972Y-92261117D01*
X198968855Y-92070000D01*
X198198359Y-91299503D01*
X198198351Y-91299497D01*
X198046775Y-91198217D01*
X198046771Y-91198215D01*
X197878346Y-91128452D01*
X197878336Y-91128449D01*
X197699540Y-91092884D01*
X197699538Y-91092884D01*
X189093099Y-91092884D01*
X189026060Y-91073199D01*
X188980305Y-91020395D01*
X188970138Y-90973660D01*
X188969305Y-90973709D01*
X188969099Y-90970151D01*
X188969099Y-90970136D01*
X188969097Y-90970117D01*
X188966186Y-90945012D01*
X188966185Y-90945010D01*
X188966185Y-90945009D01*
X188920806Y-90842235D01*
X188841365Y-90762794D01*
X188841363Y-90762793D01*
X188738592Y-90717415D01*
X188713465Y-90714500D01*
X184381943Y-90714500D01*
X184381917Y-90714502D01*
X184356812Y-90717413D01*
X184356808Y-90717415D01*
X184254035Y-90762793D01*
X184174594Y-90842234D01*
X184129215Y-90945006D01*
X184129215Y-90945008D01*
X184126300Y-90970131D01*
X182593699Y-90970131D01*
X182593699Y-90970130D01*
X182590786Y-90945012D01*
X182590785Y-90945010D01*
X182590785Y-90945009D01*
X182545406Y-90842235D01*
X182465965Y-90762794D01*
X182465963Y-90762793D01*
X182363192Y-90717415D01*
X182338065Y-90714500D01*
X178006543Y-90714500D01*
X178006517Y-90714502D01*
X177981412Y-90717413D01*
X177981408Y-90717415D01*
X177878635Y-90762793D01*
X177799194Y-90842234D01*
X177753815Y-90945006D01*
X177753815Y-90945008D01*
X177750900Y-90970131D01*
X177750900Y-94169790D01*
X177731215Y-94236829D01*
X177678411Y-94282584D01*
X177609253Y-94292528D01*
X177545697Y-94263503D01*
X177539219Y-94257471D01*
X171622888Y-88341140D01*
X197719500Y-88341140D01*
X197719500Y-88913860D01*
X197728690Y-88990388D01*
X197730003Y-89001322D01*
X197784887Y-89140497D01*
X197784888Y-89140499D01*
X197875288Y-89259711D01*
X197994500Y-89350111D01*
X197994502Y-89350112D01*
X198064089Y-89377554D01*
X198133679Y-89404997D01*
X198221140Y-89415500D01*
X198221146Y-89415500D01*
X199218854Y-89415500D01*
X199218860Y-89415500D01*
X199306321Y-89404997D01*
X199445500Y-89350111D01*
X199564711Y-89259711D01*
X199655111Y-89140500D01*
X199709997Y-89001321D01*
X199720500Y-88913860D01*
X199720500Y-88341140D01*
X200629500Y-88341140D01*
X200629500Y-88913860D01*
X200638690Y-88990388D01*
X200640003Y-89001322D01*
X200694887Y-89140497D01*
X200694888Y-89140499D01*
X200785288Y-89259711D01*
X200904500Y-89350111D01*
X200904502Y-89350112D01*
X200974089Y-89377554D01*
X201043679Y-89404997D01*
X201131140Y-89415500D01*
X201131146Y-89415500D01*
X202128854Y-89415500D01*
X202128860Y-89415500D01*
X202216321Y-89404997D01*
X202355500Y-89350111D01*
X202474711Y-89259711D01*
X202565111Y-89140500D01*
X202619997Y-89001321D01*
X202630500Y-88913860D01*
X202630500Y-88341140D01*
X202619997Y-88253679D01*
X202565111Y-88114500D01*
X202563870Y-88112863D01*
X202474711Y-87995288D01*
X202355499Y-87904888D01*
X202355497Y-87904887D01*
X202216322Y-87850003D01*
X202203826Y-87848502D01*
X202128860Y-87839500D01*
X201131140Y-87839500D01*
X201065544Y-87847377D01*
X201043677Y-87850003D01*
X200904502Y-87904887D01*
X200904500Y-87904888D01*
X200785288Y-87995288D01*
X200694888Y-88114500D01*
X200694887Y-88114502D01*
X200640003Y-88253677D01*
X200637377Y-88275544D01*
X200629500Y-88341140D01*
X199720500Y-88341140D01*
X199709997Y-88253679D01*
X199655111Y-88114500D01*
X199653870Y-88112863D01*
X199564711Y-87995288D01*
X199445499Y-87904888D01*
X199445497Y-87904887D01*
X199306322Y-87850003D01*
X199293826Y-87848502D01*
X199218860Y-87839500D01*
X198221140Y-87839500D01*
X198155544Y-87847377D01*
X198133677Y-87850003D01*
X197994502Y-87904887D01*
X197994500Y-87904888D01*
X197875288Y-87995288D01*
X197784888Y-88114500D01*
X197784887Y-88114502D01*
X197730003Y-88253677D01*
X197727377Y-88275544D01*
X197719500Y-88341140D01*
X171622888Y-88341140D01*
X170434248Y-87152500D01*
X197740866Y-87152500D01*
X197785330Y-87265255D01*
X197875645Y-87384354D01*
X197994744Y-87474669D01*
X198133801Y-87529506D01*
X198221182Y-87540000D01*
X198320000Y-87540000D01*
X199120000Y-87540000D01*
X199218818Y-87540000D01*
X199306198Y-87529506D01*
X199306199Y-87529506D01*
X199445255Y-87474669D01*
X199564354Y-87384354D01*
X199654669Y-87265255D01*
X199699134Y-87152500D01*
X200650866Y-87152500D01*
X200695330Y-87265255D01*
X200785645Y-87384354D01*
X200904744Y-87474669D01*
X201043801Y-87529506D01*
X201131182Y-87540000D01*
X201230000Y-87540000D01*
X202030000Y-87540000D01*
X202128818Y-87540000D01*
X202216198Y-87529506D01*
X202216199Y-87529506D01*
X202355255Y-87474669D01*
X202474354Y-87384354D01*
X202564669Y-87265255D01*
X202609134Y-87152500D01*
X202030000Y-87152500D01*
X202030000Y-87540000D01*
X201230000Y-87540000D01*
X201230000Y-87152500D01*
X200650866Y-87152500D01*
X199699134Y-87152500D01*
X199120000Y-87152500D01*
X199120000Y-87540000D01*
X198320000Y-87540000D01*
X198320000Y-87152500D01*
X197740866Y-87152500D01*
X170434248Y-87152500D01*
X169634248Y-86352500D01*
X197740866Y-86352500D01*
X198320000Y-86352500D01*
X199120000Y-86352500D01*
X199699134Y-86352500D01*
X200650866Y-86352500D01*
X201230000Y-86352500D01*
X201230000Y-85965000D01*
X201131182Y-85965000D01*
X201043801Y-85975493D01*
X201043800Y-85975493D01*
X200904744Y-86030330D01*
X200785645Y-86120645D01*
X200695330Y-86239744D01*
X200650866Y-86352500D01*
X199699134Y-86352500D01*
X199654669Y-86239744D01*
X199564354Y-86120645D01*
X199445255Y-86030330D01*
X199306198Y-85975493D01*
X199218818Y-85965000D01*
X199120000Y-85965000D01*
X199120000Y-86352500D01*
X198320000Y-86352500D01*
X198320000Y-85965000D01*
X198221182Y-85965000D01*
X198133801Y-85975493D01*
X198133800Y-85975493D01*
X197994744Y-86030330D01*
X197875645Y-86120645D01*
X197785330Y-86239744D01*
X197740866Y-86352500D01*
X169634248Y-86352500D01*
X166962496Y-83680748D01*
X166962494Y-83680746D01*
X166865468Y-83624728D01*
X166757249Y-83595731D01*
X166757248Y-83595731D01*
X164422867Y-83595731D01*
X164355828Y-83576046D01*
X164310073Y-83523242D01*
X164300129Y-83454084D01*
X164326658Y-83395992D01*
X164325574Y-83395161D01*
X164330514Y-83388721D01*
X164330520Y-83388716D01*
X164409577Y-83251784D01*
X164450500Y-83099057D01*
X164450500Y-83072610D01*
X164470185Y-83005571D01*
X164486819Y-82984929D01*
X165088567Y-82383181D01*
X172891747Y-74580000D01*
X197675833Y-74580000D01*
X197685613Y-74661442D01*
X197685613Y-74661443D01*
X197741079Y-74802095D01*
X197832435Y-74922564D01*
X197952904Y-75013920D01*
X198093556Y-75069386D01*
X198181946Y-75080000D01*
X198450000Y-75080000D01*
X199250000Y-75080000D01*
X199518054Y-75080000D01*
X199606443Y-75069386D01*
X199747095Y-75013920D01*
X199867564Y-74922564D01*
X199958920Y-74802095D01*
X200014386Y-74661443D01*
X200014386Y-74661442D01*
X200024167Y-74580000D01*
X199250000Y-74580000D01*
X199250000Y-75080000D01*
X198450000Y-75080000D01*
X198450000Y-74580000D01*
X197675833Y-74580000D01*
X172891747Y-74580000D01*
X173341117Y-74130630D01*
X198475000Y-74130630D01*
X198475000Y-74229370D01*
X198500556Y-74324745D01*
X198549925Y-74410255D01*
X198619745Y-74480075D01*
X198705255Y-74529444D01*
X198800630Y-74555000D01*
X198899370Y-74555000D01*
X198994745Y-74529444D01*
X199080255Y-74480075D01*
X199150075Y-74410255D01*
X199199444Y-74324745D01*
X199225000Y-74229370D01*
X199225000Y-74130630D01*
X199199444Y-74035255D01*
X199150075Y-73949745D01*
X199080255Y-73879925D01*
X198994745Y-73830556D01*
X198899370Y-73805000D01*
X198800630Y-73805000D01*
X198705255Y-73830556D01*
X198619745Y-73879925D01*
X198549925Y-73949745D01*
X198500556Y-74035255D01*
X198475000Y-74130630D01*
X173341117Y-74130630D01*
X173402783Y-74068964D01*
X173464104Y-74035481D01*
X173533796Y-74040465D01*
X173535952Y-74041293D01*
X173608436Y-74069877D01*
X173696898Y-74080500D01*
X173696903Y-74080500D01*
X175083097Y-74080500D01*
X175083102Y-74080500D01*
X175171564Y-74069877D01*
X175312342Y-74014361D01*
X175432922Y-73922922D01*
X175524361Y-73802342D01*
X175579877Y-73661564D01*
X175590500Y-73573102D01*
X175590500Y-72786898D01*
X175579877Y-72698436D01*
X175524361Y-72557658D01*
X175524360Y-72557657D01*
X175524360Y-72557656D01*
X175432922Y-72437077D01*
X175312343Y-72345639D01*
X175194219Y-72299057D01*
X175171564Y-72290123D01*
X175171563Y-72290122D01*
X175171561Y-72290122D01*
X175125926Y-72284642D01*
X175083102Y-72279500D01*
X173696898Y-72279500D01*
X173678279Y-72281735D01*
X173609371Y-72270181D01*
X173557649Y-72223206D01*
X173539500Y-72158619D01*
X173539500Y-71147648D01*
X181449500Y-71147648D01*
X181449500Y-71352351D01*
X181481522Y-71554534D01*
X181544781Y-71749223D01*
X181591300Y-71840520D01*
X181631581Y-71919576D01*
X181637715Y-71931613D01*
X181758028Y-72097213D01*
X181902786Y-72241971D01*
X182006481Y-72317308D01*
X182068390Y-72362287D01*
X182182488Y-72420423D01*
X182250776Y-72455218D01*
X182250778Y-72455218D01*
X182250781Y-72455220D01*
X182355137Y-72489127D01*
X182445465Y-72518477D01*
X182546557Y-72534488D01*
X182647648Y-72550500D01*
X182647649Y-72550500D01*
X182852351Y-72550500D01*
X182852352Y-72550500D01*
X183054534Y-72518477D01*
X183249219Y-72455220D01*
X183431610Y-72362287D01*
X183542481Y-72281735D01*
X183597213Y-72241971D01*
X183597215Y-72241968D01*
X183597219Y-72241966D01*
X183741966Y-72097219D01*
X183741968Y-72097215D01*
X183741971Y-72097213D01*
X183820172Y-71989577D01*
X183862287Y-71931610D01*
X183955220Y-71749219D01*
X184018477Y-71554534D01*
X184050500Y-71352352D01*
X184050500Y-71147648D01*
X187949500Y-71147648D01*
X187949500Y-71352351D01*
X187981522Y-71554534D01*
X188044781Y-71749223D01*
X188091300Y-71840520D01*
X188131581Y-71919576D01*
X188137715Y-71931613D01*
X188258028Y-72097213D01*
X188402786Y-72241971D01*
X188506481Y-72317308D01*
X188568390Y-72362287D01*
X188682488Y-72420423D01*
X188750776Y-72455218D01*
X188750778Y-72455218D01*
X188750781Y-72455220D01*
X188855137Y-72489127D01*
X188945465Y-72518477D01*
X189046557Y-72534488D01*
X189147648Y-72550500D01*
X189147649Y-72550500D01*
X189352351Y-72550500D01*
X189352352Y-72550500D01*
X189554534Y-72518477D01*
X189749219Y-72455220D01*
X189931610Y-72362287D01*
X190042481Y-72281735D01*
X190097213Y-72241971D01*
X190097215Y-72241968D01*
X190097219Y-72241966D01*
X190241966Y-72097219D01*
X190241968Y-72097215D01*
X190241971Y-72097213D01*
X190320172Y-71989577D01*
X190362287Y-71931610D01*
X190455220Y-71749219D01*
X190518477Y-71554534D01*
X190550500Y-71352352D01*
X190550500Y-71147648D01*
X190534384Y-71045895D01*
X190518477Y-70945465D01*
X190480797Y-70829500D01*
X190455220Y-70750781D01*
X190455218Y-70750778D01*
X190455218Y-70750776D01*
X190393043Y-70628752D01*
X190362287Y-70568390D01*
X190303023Y-70486819D01*
X190241971Y-70402786D01*
X190097213Y-70258028D01*
X189931613Y-70137715D01*
X189931612Y-70137714D01*
X189931610Y-70137713D01*
X189874653Y-70108691D01*
X189840529Y-70091304D01*
X197674500Y-70091304D01*
X197674500Y-70268695D01*
X197709103Y-70442658D01*
X197709106Y-70442667D01*
X197776983Y-70606540D01*
X197776990Y-70606553D01*
X197875535Y-70754034D01*
X197875538Y-70754038D01*
X198000961Y-70879461D01*
X198000965Y-70879464D01*
X198148446Y-70978009D01*
X198148459Y-70978016D01*
X198271363Y-71028923D01*
X198312334Y-71045894D01*
X198332594Y-71049924D01*
X198375118Y-71058383D01*
X198437028Y-71090768D01*
X198471603Y-71151484D01*
X198467863Y-71221253D01*
X198426996Y-71277925D01*
X198375118Y-71301617D01*
X198312340Y-71314104D01*
X198312332Y-71314106D01*
X198148459Y-71381983D01*
X198148446Y-71381990D01*
X198000965Y-71480535D01*
X198000961Y-71480538D01*
X197875538Y-71605961D01*
X197875535Y-71605965D01*
X197776990Y-71753446D01*
X197776983Y-71753459D01*
X197709106Y-71917332D01*
X197709103Y-71917341D01*
X197674500Y-72091304D01*
X197674500Y-72268695D01*
X197709103Y-72442658D01*
X197709106Y-72442667D01*
X197776983Y-72606540D01*
X197776990Y-72606553D01*
X197875535Y-72754034D01*
X197875538Y-72754038D01*
X198000961Y-72879461D01*
X198000965Y-72879464D01*
X198148446Y-72978009D01*
X198148458Y-72978016D01*
X198301579Y-73041439D01*
X198355983Y-73085279D01*
X198378048Y-73151573D01*
X198360769Y-73219273D01*
X198309632Y-73266883D01*
X198254127Y-73280000D01*
X198181946Y-73280000D01*
X198093556Y-73290613D01*
X197952904Y-73346079D01*
X197832435Y-73437435D01*
X197741079Y-73557904D01*
X197685613Y-73698556D01*
X197685613Y-73698557D01*
X197675832Y-73780000D01*
X200024167Y-73780000D01*
X200014386Y-73698557D01*
X200014386Y-73698556D01*
X199958920Y-73557904D01*
X199867564Y-73437435D01*
X199747095Y-73346079D01*
X199606443Y-73290613D01*
X199518054Y-73280000D01*
X199445873Y-73280000D01*
X199378834Y-73260315D01*
X199333079Y-73207511D01*
X199323135Y-73138353D01*
X199352160Y-73074797D01*
X199398421Y-73041439D01*
X199551541Y-72978016D01*
X199551544Y-72978014D01*
X199551547Y-72978013D01*
X199699035Y-72879464D01*
X199824464Y-72754035D01*
X199923013Y-72606547D01*
X199990894Y-72442666D01*
X199995319Y-72420423D01*
X200023350Y-72279500D01*
X200025500Y-72268691D01*
X200025500Y-72091309D01*
X200025500Y-72091306D01*
X200025499Y-72091304D01*
X199990896Y-71917341D01*
X199990893Y-71917332D01*
X199923016Y-71753459D01*
X199923009Y-71753446D01*
X199824464Y-71605965D01*
X199824461Y-71605961D01*
X199699038Y-71480538D01*
X199699034Y-71480535D01*
X199551553Y-71381990D01*
X199551540Y-71381983D01*
X199387667Y-71314106D01*
X199387658Y-71314103D01*
X199324882Y-71301617D01*
X199262971Y-71269232D01*
X199228397Y-71208517D01*
X199232136Y-71138747D01*
X199273003Y-71082075D01*
X199324882Y-71058383D01*
X199387658Y-71045896D01*
X199387661Y-71045894D01*
X199387666Y-71045894D01*
X199551547Y-70978013D01*
X199699035Y-70879464D01*
X199824464Y-70754035D01*
X199923013Y-70606547D01*
X199990894Y-70442666D01*
X199991780Y-70438216D01*
X200025499Y-70268695D01*
X200025500Y-70268693D01*
X200025500Y-70091306D01*
X200025499Y-70091304D01*
X199990896Y-69917341D01*
X199990893Y-69917332D01*
X199988609Y-69911819D01*
X199941212Y-69797390D01*
X199923016Y-69753459D01*
X199923009Y-69753446D01*
X199824464Y-69605965D01*
X199824461Y-69605961D01*
X199699038Y-69480538D01*
X199699034Y-69480535D01*
X199551553Y-69381990D01*
X199551540Y-69381983D01*
X199387667Y-69314106D01*
X199387658Y-69314103D01*
X199213694Y-69279500D01*
X199213691Y-69279500D01*
X198486309Y-69279500D01*
X198486306Y-69279500D01*
X198312341Y-69314103D01*
X198312332Y-69314106D01*
X198148459Y-69381983D01*
X198148446Y-69381990D01*
X198000965Y-69480535D01*
X198000961Y-69480538D01*
X197875538Y-69605961D01*
X197875535Y-69605965D01*
X197776990Y-69753446D01*
X197776983Y-69753459D01*
X197709106Y-69917332D01*
X197709103Y-69917341D01*
X197674500Y-70091304D01*
X189840529Y-70091304D01*
X189749223Y-70044781D01*
X189554534Y-69981522D01*
X189379995Y-69953878D01*
X189352352Y-69949500D01*
X189147648Y-69949500D01*
X189123329Y-69953351D01*
X188945465Y-69981522D01*
X188750776Y-70044781D01*
X188568386Y-70137715D01*
X188402786Y-70258028D01*
X188258028Y-70402786D01*
X188137715Y-70568386D01*
X188044781Y-70750776D01*
X187981522Y-70945465D01*
X187949500Y-71147648D01*
X184050500Y-71147648D01*
X184034384Y-71045895D01*
X184018477Y-70945465D01*
X183980797Y-70829500D01*
X183955220Y-70750781D01*
X183955218Y-70750778D01*
X183955218Y-70750776D01*
X183893043Y-70628752D01*
X183862287Y-70568390D01*
X183803023Y-70486819D01*
X183741971Y-70402786D01*
X183597213Y-70258028D01*
X183431613Y-70137715D01*
X183431612Y-70137714D01*
X183431610Y-70137713D01*
X183374653Y-70108691D01*
X183249223Y-70044781D01*
X183054534Y-69981522D01*
X182879995Y-69953878D01*
X182852352Y-69949500D01*
X182647648Y-69949500D01*
X182623329Y-69953351D01*
X182445465Y-69981522D01*
X182250776Y-70044781D01*
X182068386Y-70137715D01*
X181902786Y-70258028D01*
X181758028Y-70402786D01*
X181637715Y-70568386D01*
X181544781Y-70750776D01*
X181481522Y-70945465D01*
X181449500Y-71147648D01*
X173539500Y-71147648D01*
X173539500Y-67907485D01*
X182158198Y-67907485D01*
X182250968Y-67954755D01*
X182445582Y-68017990D01*
X182647683Y-68050000D01*
X182852317Y-68050000D01*
X183054417Y-68017990D01*
X183249031Y-67954755D01*
X183341801Y-67907485D01*
X188658198Y-67907485D01*
X188750968Y-67954755D01*
X188945582Y-68017990D01*
X189147683Y-68050000D01*
X189352317Y-68050000D01*
X189554417Y-68017990D01*
X189749031Y-67954755D01*
X189841801Y-67907485D01*
X189250001Y-67315685D01*
X189250000Y-67315685D01*
X188658198Y-67907485D01*
X183341801Y-67907485D01*
X182750001Y-67315685D01*
X182750000Y-67315685D01*
X182158198Y-67907485D01*
X173539500Y-67907485D01*
X173539500Y-67601380D01*
X173559185Y-67534341D01*
X173611989Y-67488586D01*
X173678281Y-67478264D01*
X173696898Y-67480500D01*
X173696905Y-67480500D01*
X175083097Y-67480500D01*
X175083102Y-67480500D01*
X175171564Y-67469877D01*
X175312342Y-67414361D01*
X175432922Y-67322922D01*
X175524361Y-67202342D01*
X175579877Y-67061564D01*
X175590500Y-66973102D01*
X175590500Y-66647682D01*
X181450000Y-66647682D01*
X181450000Y-66852317D01*
X181482009Y-67054417D01*
X181545243Y-67249027D01*
X181545246Y-67249034D01*
X181592512Y-67341801D01*
X182184314Y-66750000D01*
X182184314Y-66749999D01*
X182111906Y-66677591D01*
X182200000Y-66677591D01*
X182200000Y-66822409D01*
X182237482Y-66962292D01*
X182309890Y-67087708D01*
X182412292Y-67190110D01*
X182537708Y-67262518D01*
X182677591Y-67300000D01*
X182822409Y-67300000D01*
X182962292Y-67262518D01*
X183087708Y-67190110D01*
X183190110Y-67087708D01*
X183262518Y-66962292D01*
X183300000Y-66822409D01*
X183300000Y-66749999D01*
X183315685Y-66749999D01*
X183315685Y-66750000D01*
X183907485Y-67341800D01*
X183954755Y-67249031D01*
X184017990Y-67054417D01*
X184050000Y-66852317D01*
X184050000Y-66647682D01*
X187950000Y-66647682D01*
X187950000Y-66852317D01*
X187982009Y-67054417D01*
X188045243Y-67249027D01*
X188045246Y-67249034D01*
X188092512Y-67341801D01*
X188684314Y-66750000D01*
X188684314Y-66749999D01*
X188611906Y-66677591D01*
X188700000Y-66677591D01*
X188700000Y-66822409D01*
X188737482Y-66962292D01*
X188809890Y-67087708D01*
X188912292Y-67190110D01*
X189037708Y-67262518D01*
X189177591Y-67300000D01*
X189322409Y-67300000D01*
X189462292Y-67262518D01*
X189587708Y-67190110D01*
X189690110Y-67087708D01*
X189762518Y-66962292D01*
X189800000Y-66822409D01*
X189800000Y-66749999D01*
X189815685Y-66749999D01*
X189815685Y-66750000D01*
X190407485Y-67341800D01*
X190454755Y-67249031D01*
X190517990Y-67054417D01*
X190550000Y-66852317D01*
X190550000Y-66647682D01*
X190517990Y-66445582D01*
X190454755Y-66250968D01*
X190407485Y-66158198D01*
X189815685Y-66749999D01*
X189800000Y-66749999D01*
X189800000Y-66677591D01*
X189762518Y-66537708D01*
X189690110Y-66412292D01*
X189587708Y-66309890D01*
X189462292Y-66237482D01*
X189322409Y-66200000D01*
X189177591Y-66200000D01*
X189037708Y-66237482D01*
X188912292Y-66309890D01*
X188809890Y-66412292D01*
X188737482Y-66537708D01*
X188700000Y-66677591D01*
X188611906Y-66677591D01*
X188092512Y-66158197D01*
X188045242Y-66250973D01*
X188045242Y-66250974D01*
X187982010Y-66445578D01*
X187982010Y-66445581D01*
X187950000Y-66647682D01*
X184050000Y-66647682D01*
X184017990Y-66445582D01*
X183954755Y-66250968D01*
X183907485Y-66158198D01*
X183315685Y-66749999D01*
X183300000Y-66749999D01*
X183300000Y-66677591D01*
X183262518Y-66537708D01*
X183190110Y-66412292D01*
X183087708Y-66309890D01*
X182962292Y-66237482D01*
X182822409Y-66200000D01*
X182677591Y-66200000D01*
X182537708Y-66237482D01*
X182412292Y-66309890D01*
X182309890Y-66412292D01*
X182237482Y-66537708D01*
X182200000Y-66677591D01*
X182111906Y-66677591D01*
X181592512Y-66158197D01*
X181545242Y-66250973D01*
X181545242Y-66250974D01*
X181482010Y-66445578D01*
X181482010Y-66445581D01*
X181450000Y-66647682D01*
X175590500Y-66647682D01*
X175590500Y-66186898D01*
X175579877Y-66098436D01*
X175524361Y-65957658D01*
X175524360Y-65957657D01*
X175524360Y-65957656D01*
X175432922Y-65837077D01*
X175312343Y-65745639D01*
X175171561Y-65690122D01*
X175125926Y-65684642D01*
X175083102Y-65679500D01*
X173696898Y-65679500D01*
X173657853Y-65684188D01*
X173608438Y-65690122D01*
X173467656Y-65745639D01*
X173347077Y-65837077D01*
X173255639Y-65957656D01*
X173200122Y-66098438D01*
X173194188Y-66147853D01*
X173189500Y-66186898D01*
X173189500Y-66186903D01*
X173189500Y-66728390D01*
X173169815Y-66795429D01*
X173117011Y-66841184D01*
X173047853Y-66851128D01*
X172984297Y-66822103D01*
X172977819Y-66816071D01*
X172551265Y-66389517D01*
X172551263Y-66389515D01*
X172454237Y-66333497D01*
X172346018Y-66304500D01*
X166996019Y-66304500D01*
X166883982Y-66304500D01*
X166775763Y-66333497D01*
X166775760Y-66333498D01*
X166678740Y-66389513D01*
X166678734Y-66389517D01*
X165360071Y-67708181D01*
X165298748Y-67741666D01*
X165272390Y-67744500D01*
X156425098Y-67744500D01*
X156358059Y-67724815D01*
X156337417Y-67708181D01*
X156318717Y-67689481D01*
X156318709Y-67689475D01*
X156181790Y-67610426D01*
X156181786Y-67610424D01*
X156181784Y-67610423D01*
X156029057Y-67569500D01*
X155870943Y-67569500D01*
X155718216Y-67610423D01*
X155718209Y-67610426D01*
X155581290Y-67689475D01*
X155581282Y-67689481D01*
X155469481Y-67801282D01*
X155469475Y-67801290D01*
X155390426Y-67938209D01*
X155390423Y-67938216D01*
X155349500Y-68090943D01*
X155349500Y-68249056D01*
X155390423Y-68401783D01*
X155390426Y-68401790D01*
X155469475Y-68538709D01*
X155469479Y-68538714D01*
X155469480Y-68538716D01*
X155581284Y-68650520D01*
X155581286Y-68650521D01*
X155581290Y-68650524D01*
X155611541Y-68667989D01*
X155718216Y-68729577D01*
X155870943Y-68770500D01*
X155870945Y-68770500D01*
X156029055Y-68770500D01*
X156029057Y-68770500D01*
X156181784Y-68729577D01*
X156318716Y-68650520D01*
X156337417Y-68631819D01*
X156398740Y-68598334D01*
X156425098Y-68595500D01*
X165403390Y-68595500D01*
X165470429Y-68615185D01*
X165516184Y-68667989D01*
X165526128Y-68737147D01*
X165497103Y-68800703D01*
X165491073Y-68807178D01*
X162232809Y-72065442D01*
X159046296Y-75251955D01*
X159046295Y-75251955D01*
X159046296Y-75251956D01*
X158984514Y-75313738D01*
X158984513Y-75313740D01*
X158928498Y-75410760D01*
X158928497Y-75410763D01*
X158899500Y-75518982D01*
X158899500Y-87167390D01*
X158879815Y-87234429D01*
X158863181Y-87255071D01*
X157270071Y-88848181D01*
X157208748Y-88881666D01*
X157182390Y-88884500D01*
X146585098Y-88884500D01*
X146518059Y-88864815D01*
X146497417Y-88848181D01*
X146478717Y-88829481D01*
X146478709Y-88829475D01*
X146341790Y-88750426D01*
X146341786Y-88750424D01*
X146341784Y-88750423D01*
X146189057Y-88709500D01*
X146030943Y-88709500D01*
X145878216Y-88750423D01*
X145878209Y-88750426D01*
X145741290Y-88829475D01*
X145741282Y-88829481D01*
X145629481Y-88941282D01*
X145629475Y-88941290D01*
X145550426Y-89078209D01*
X145550423Y-89078216D01*
X145509500Y-89230943D01*
X145509500Y-89389057D01*
X145516586Y-89415500D01*
X145550423Y-89541783D01*
X145550426Y-89541790D01*
X145629475Y-89678709D01*
X145629479Y-89678714D01*
X145629480Y-89678716D01*
X145741284Y-89790520D01*
X145741286Y-89790521D01*
X145741290Y-89790524D01*
X145878209Y-89869573D01*
X145878216Y-89869577D01*
X146030943Y-89910500D01*
X146030945Y-89910500D01*
X146189055Y-89910500D01*
X146189057Y-89910500D01*
X146341784Y-89869577D01*
X146478716Y-89790520D01*
X146497417Y-89771819D01*
X146558740Y-89738334D01*
X146585098Y-89735500D01*
X157466016Y-89735500D01*
X157466018Y-89735500D01*
X157574237Y-89706503D01*
X157671263Y-89650485D01*
X159417320Y-87904426D01*
X159478641Y-87870943D01*
X159548332Y-87875927D01*
X159592680Y-87904428D01*
X160294167Y-88605914D01*
X160294169Y-88605917D01*
X160373391Y-88685139D01*
X160422289Y-88713370D01*
X160431448Y-88718658D01*
X160470411Y-88741154D01*
X160470415Y-88741156D01*
X160470417Y-88741157D01*
X160519396Y-88754280D01*
X160574984Y-88786374D01*
X160613784Y-88825174D01*
X160613786Y-88825175D01*
X160613790Y-88825178D01*
X160750709Y-88904227D01*
X160750716Y-88904231D01*
X160903443Y-88945154D01*
X160903445Y-88945154D01*
X161061555Y-88945154D01*
X161061557Y-88945154D01*
X161214284Y-88904231D01*
X161351216Y-88825174D01*
X161463020Y-88713370D01*
X161542077Y-88576438D01*
X161583000Y-88423711D01*
X161583000Y-88265597D01*
X161542077Y-88112870D01*
X161463020Y-87975938D01*
X161463012Y-87975930D01*
X161460261Y-87972344D01*
X161435064Y-87907175D01*
X161449100Y-87838730D01*
X161463647Y-87819057D01*
X161463037Y-87818589D01*
X161467982Y-87812142D01*
X161467986Y-87812139D01*
X161547043Y-87675207D01*
X161587966Y-87522480D01*
X161587966Y-87496033D01*
X161607651Y-87428994D01*
X161624285Y-87408352D01*
X161665485Y-87367152D01*
X161721503Y-87270126D01*
X161750500Y-87161908D01*
X161750500Y-87049871D01*
X161750500Y-75932610D01*
X161770185Y-75865571D01*
X161786819Y-75844929D01*
X165451748Y-72180000D01*
X170815733Y-72180000D01*
X170837653Y-72242644D01*
X170918207Y-72351792D01*
X171027354Y-72432346D01*
X171155397Y-72477149D01*
X171185792Y-72479999D01*
X171564999Y-72479999D01*
X171565000Y-72479998D01*
X171565000Y-72180000D01*
X170815733Y-72180000D01*
X165451748Y-72180000D01*
X166289929Y-71341819D01*
X166351252Y-71308334D01*
X166377610Y-71305500D01*
X170748379Y-71305500D01*
X170815418Y-71325185D01*
X170861173Y-71377989D01*
X170871117Y-71447147D01*
X170848149Y-71503133D01*
X170837654Y-71517352D01*
X170837654Y-71517353D01*
X170815733Y-71579999D01*
X170815733Y-71580000D01*
X171741000Y-71580000D01*
X171808039Y-71599685D01*
X171853794Y-71652489D01*
X171865000Y-71704000D01*
X171865000Y-71880000D01*
X172041000Y-71880000D01*
X172108039Y-71899685D01*
X172153794Y-71952489D01*
X172165000Y-72004000D01*
X172165000Y-72479999D01*
X172544199Y-72479999D01*
X172552920Y-72479181D01*
X172621505Y-72492519D01*
X172671991Y-72540819D01*
X172688500Y-72602639D01*
X172688500Y-73528390D01*
X172668815Y-73595429D01*
X172652181Y-73616071D01*
X163885071Y-82383181D01*
X163823748Y-82416666D01*
X163797390Y-82419500D01*
X163770943Y-82419500D01*
X163618216Y-82460423D01*
X163618209Y-82460426D01*
X163481290Y-82539475D01*
X163481282Y-82539481D01*
X163369481Y-82651282D01*
X163369475Y-82651290D01*
X163290426Y-82788209D01*
X163290423Y-82788216D01*
X163249500Y-82940943D01*
X163249500Y-83099056D01*
X163290423Y-83251783D01*
X163290425Y-83251788D01*
X163293337Y-83256832D01*
X163309808Y-83324732D01*
X163286955Y-83390759D01*
X163232033Y-83433948D01*
X163162480Y-83440589D01*
X163153857Y-83438605D01*
X163087149Y-83420731D01*
X163087148Y-83420731D01*
X162929034Y-83420731D01*
X162776307Y-83461654D01*
X162776300Y-83461657D01*
X162639381Y-83540706D01*
X162639373Y-83540712D01*
X162527572Y-83652513D01*
X162527566Y-83652521D01*
X162448517Y-83789440D01*
X162448514Y-83789447D01*
X162407591Y-83942174D01*
X162407591Y-84100287D01*
X162448514Y-84253014D01*
X162448517Y-84253021D01*
X162527566Y-84389940D01*
X162527570Y-84389945D01*
X162527571Y-84389947D01*
X162639375Y-84501751D01*
X162639377Y-84501752D01*
X162639381Y-84501755D01*
X162776300Y-84580804D01*
X162776307Y-84580808D01*
X162929034Y-84621731D01*
X162929036Y-84621731D01*
X163087146Y-84621731D01*
X163087148Y-84621731D01*
X163239875Y-84580808D01*
X163376807Y-84501751D01*
X163395508Y-84483050D01*
X163456831Y-84449565D01*
X163483189Y-84446731D01*
X166473621Y-84446731D01*
X166540660Y-84466416D01*
X166561302Y-84483050D01*
X172213681Y-90135429D01*
X172247166Y-90196752D01*
X172250000Y-90223110D01*
X172250000Y-91540000D01*
X172950000Y-91540000D01*
X172950000Y-91171110D01*
X172969685Y-91104071D01*
X173022489Y-91058316D01*
X173091647Y-91048372D01*
X173155203Y-91077397D01*
X173161681Y-91083429D01*
X178318181Y-96239929D01*
X178351666Y-96301252D01*
X178354500Y-96327610D01*
X178354500Y-97003059D01*
X178334815Y-97070098D01*
X178282011Y-97115853D01*
X178212853Y-97125797D01*
X178149297Y-97096772D01*
X178142819Y-97090740D01*
X178040293Y-96988214D01*
X178040289Y-96988211D01*
X177922491Y-96909501D01*
X177909182Y-96900608D01*
X177909181Y-96900607D01*
X177909179Y-96900606D01*
X177909176Y-96900604D01*
X177909171Y-96900602D01*
X177763501Y-96840264D01*
X177763489Y-96840261D01*
X177608845Y-96809500D01*
X177608842Y-96809500D01*
X173074500Y-96809500D01*
X173007461Y-96789815D01*
X172961706Y-96737011D01*
X172950500Y-96685500D01*
X172950500Y-95046903D01*
X172950500Y-95046898D01*
X172939877Y-94958436D01*
X172884361Y-94817658D01*
X172884360Y-94817657D01*
X172884360Y-94817656D01*
X172792922Y-94697077D01*
X172672343Y-94605639D01*
X172531561Y-94550122D01*
X172485926Y-94544642D01*
X172443102Y-94539500D01*
X171256898Y-94539500D01*
X171217853Y-94544188D01*
X171168438Y-94550122D01*
X171027656Y-94605639D01*
X170907077Y-94697077D01*
X170815639Y-94817656D01*
X170760122Y-94958438D01*
X170755400Y-94997764D01*
X170749500Y-95046898D01*
X170749500Y-95046903D01*
X170749500Y-96685500D01*
X170729815Y-96752539D01*
X170677011Y-96798294D01*
X170625500Y-96809500D01*
X147862940Y-96809500D01*
X147795901Y-96789815D01*
X147775259Y-96773181D01*
X145076819Y-94074741D01*
X145043334Y-94013418D01*
X145040500Y-93987060D01*
X145040500Y-93269256D01*
X162440000Y-93269256D01*
X162440000Y-93570743D01*
X162440001Y-93570759D01*
X162479353Y-93869667D01*
X162557389Y-94160901D01*
X162672765Y-94439443D01*
X162672770Y-94439454D01*
X162823512Y-94700545D01*
X162823523Y-94700562D01*
X162854014Y-94740298D01*
X162854015Y-94740298D01*
X163545338Y-94048974D01*
X163585377Y-94127554D01*
X163710278Y-94299466D01*
X163860534Y-94449722D01*
X164032446Y-94574623D01*
X164111023Y-94614660D01*
X163419700Y-95305983D01*
X163459446Y-95336481D01*
X163459454Y-95336487D01*
X163720545Y-95487229D01*
X163720556Y-95487234D01*
X163999098Y-95602610D01*
X164290332Y-95680646D01*
X164589240Y-95719998D01*
X164589257Y-95720000D01*
X164890743Y-95720000D01*
X164890759Y-95719998D01*
X165189667Y-95680646D01*
X165480901Y-95602610D01*
X165759443Y-95487234D01*
X165759454Y-95487229D01*
X166020549Y-95336484D01*
X166060298Y-95305983D01*
X166060298Y-95305982D01*
X165368976Y-94614660D01*
X165447554Y-94574623D01*
X165619466Y-94449722D01*
X165769722Y-94299466D01*
X165894623Y-94127554D01*
X165934660Y-94048976D01*
X166625982Y-94740298D01*
X166625983Y-94740298D01*
X166656484Y-94700549D01*
X166807229Y-94439454D01*
X166807234Y-94439443D01*
X166922610Y-94160901D01*
X167000646Y-93869667D01*
X167039998Y-93570759D01*
X167040000Y-93570743D01*
X167040000Y-93269256D01*
X167039998Y-93269240D01*
X167035234Y-93233053D01*
X170750000Y-93233053D01*
X170760613Y-93321443D01*
X170816079Y-93462095D01*
X170907435Y-93582564D01*
X171027904Y-93673920D01*
X171168556Y-93729386D01*
X171256946Y-93740000D01*
X171450000Y-93740000D01*
X172250000Y-93740000D01*
X172443054Y-93740000D01*
X172531443Y-93729386D01*
X172672095Y-93673920D01*
X172792564Y-93582564D01*
X172883920Y-93462095D01*
X172939386Y-93321443D01*
X172950000Y-93233053D01*
X172950000Y-92340000D01*
X172250000Y-92340000D01*
X172250000Y-93740000D01*
X171450000Y-93740000D01*
X171450000Y-92340000D01*
X170750000Y-92340000D01*
X170750000Y-93233053D01*
X167035234Y-93233053D01*
X167000646Y-92970332D01*
X166922610Y-92679098D01*
X166807234Y-92400556D01*
X166807229Y-92400545D01*
X166778415Y-92350638D01*
X166656487Y-92139454D01*
X166656481Y-92139446D01*
X166625983Y-92099700D01*
X165934660Y-92791023D01*
X165894623Y-92712446D01*
X165769722Y-92540534D01*
X165619466Y-92390278D01*
X165447554Y-92265377D01*
X165368974Y-92225338D01*
X166060298Y-91534015D01*
X166060298Y-91534014D01*
X166020562Y-91503523D01*
X166020545Y-91503512D01*
X165759454Y-91352770D01*
X165759443Y-91352765D01*
X165480901Y-91237389D01*
X165189667Y-91159353D01*
X164890759Y-91120001D01*
X164890743Y-91120000D01*
X164589257Y-91120000D01*
X164589240Y-91120001D01*
X164290332Y-91159353D01*
X163999098Y-91237389D01*
X163720556Y-91352765D01*
X163720545Y-91352770D01*
X163459454Y-91503511D01*
X163459440Y-91503521D01*
X163419700Y-91534014D01*
X164111024Y-92225339D01*
X164032446Y-92265377D01*
X163860534Y-92390278D01*
X163710278Y-92540534D01*
X163585377Y-92712446D01*
X163545339Y-92791024D01*
X162854014Y-92099700D01*
X162823521Y-92139440D01*
X162823511Y-92139454D01*
X162672770Y-92400545D01*
X162672765Y-92400556D01*
X162557389Y-92679098D01*
X162479353Y-92970332D01*
X162440001Y-93269240D01*
X162440000Y-93269256D01*
X145040500Y-93269256D01*
X145040500Y-90646946D01*
X170750000Y-90646946D01*
X170750000Y-91540000D01*
X171450000Y-91540000D01*
X171450000Y-90140000D01*
X171256946Y-90140000D01*
X171168556Y-90150613D01*
X171027904Y-90206079D01*
X170907435Y-90297435D01*
X170816079Y-90417904D01*
X170760613Y-90558556D01*
X170750000Y-90646946D01*
X145040500Y-90646946D01*
X145040500Y-76898073D01*
X145060185Y-76831034D01*
X145112989Y-76785279D01*
X145182147Y-76775335D01*
X145226499Y-76790685D01*
X145243327Y-76800401D01*
X145396054Y-76841324D01*
X145396056Y-76841324D01*
X145554166Y-76841324D01*
X145554168Y-76841324D01*
X145706895Y-76800401D01*
X145843827Y-76721344D01*
X145955631Y-76609540D01*
X146034688Y-76472608D01*
X146075611Y-76319881D01*
X146075611Y-76161767D01*
X146034688Y-76009040D01*
X146027962Y-75997390D01*
X145955635Y-75872114D01*
X145955629Y-75872106D01*
X145936930Y-75853407D01*
X145903445Y-75792084D01*
X145900611Y-75765726D01*
X145900611Y-73432497D01*
X145920296Y-73365458D01*
X145936925Y-73344821D01*
X147182819Y-72098926D01*
X147244142Y-72065442D01*
X147313834Y-72070426D01*
X147369767Y-72112298D01*
X147394184Y-72177762D01*
X147394500Y-72186608D01*
X147394500Y-75766336D01*
X147374815Y-75833375D01*
X147332499Y-75873723D01*
X147201290Y-75949475D01*
X147201282Y-75949481D01*
X147089481Y-76061282D01*
X147089475Y-76061290D01*
X147010426Y-76198209D01*
X147010423Y-76198216D01*
X146969500Y-76350943D01*
X146969500Y-76509057D01*
X147007400Y-76650500D01*
X147010423Y-76661783D01*
X147010426Y-76661790D01*
X147089475Y-76798709D01*
X147089479Y-76798714D01*
X147089480Y-76798716D01*
X147201284Y-76910520D01*
X147201286Y-76910521D01*
X147201290Y-76910524D01*
X147239396Y-76932524D01*
X147338216Y-76989577D01*
X147490943Y-77030500D01*
X147490945Y-77030500D01*
X147649055Y-77030500D01*
X147649057Y-77030500D01*
X147801784Y-76989577D01*
X147932752Y-76913963D01*
X148000649Y-76897491D01*
X148066676Y-76920343D01*
X148079033Y-76930796D01*
X148081281Y-76932521D01*
X148081284Y-76932524D01*
X148081287Y-76932525D01*
X148081290Y-76932528D01*
X148187863Y-76994057D01*
X148218216Y-77011581D01*
X148370943Y-77052504D01*
X148370945Y-77052504D01*
X148529055Y-77052504D01*
X148529057Y-77052504D01*
X148681784Y-77011581D01*
X148818716Y-76932524D01*
X148818716Y-76932523D01*
X148825500Y-76928607D01*
X148893400Y-76912134D01*
X148949500Y-76928607D01*
X148956283Y-76932523D01*
X148956284Y-76932524D01*
X149093216Y-77011581D01*
X149245943Y-77052504D01*
X149245945Y-77052504D01*
X149404055Y-77052504D01*
X149404057Y-77052504D01*
X149556784Y-77011581D01*
X149693716Y-76932524D01*
X149694819Y-76931421D01*
X149695976Y-76930788D01*
X149700161Y-76927578D01*
X149700661Y-76928230D01*
X149756142Y-76897936D01*
X149825834Y-76902920D01*
X149864628Y-76927852D01*
X149864839Y-76927578D01*
X149868125Y-76930100D01*
X149870181Y-76931421D01*
X149871284Y-76932524D01*
X149871286Y-76932525D01*
X149871290Y-76932528D01*
X149977863Y-76994057D01*
X150008216Y-77011581D01*
X150160943Y-77052504D01*
X150160945Y-77052504D01*
X150319055Y-77052504D01*
X150319057Y-77052504D01*
X150471784Y-77011581D01*
X150608716Y-76932524D01*
X150720520Y-76820720D01*
X150799577Y-76683788D01*
X150840500Y-76531061D01*
X150840500Y-76372947D01*
X150799577Y-76220220D01*
X150765831Y-76161769D01*
X150720524Y-76083294D01*
X150720518Y-76083286D01*
X150608717Y-75971485D01*
X150608712Y-75971481D01*
X150529500Y-75925748D01*
X150481284Y-75875181D01*
X150467500Y-75818361D01*
X150467500Y-74475610D01*
X150487185Y-74408571D01*
X150503819Y-74387929D01*
X152894929Y-71996819D01*
X152956252Y-71963334D01*
X152982610Y-71960500D01*
X153009055Y-71960500D01*
X153009057Y-71960500D01*
X153161784Y-71919577D01*
X153248500Y-71869512D01*
X153316401Y-71853039D01*
X153382427Y-71875892D01*
X153425618Y-71930813D01*
X153434500Y-71976899D01*
X153434500Y-74912390D01*
X153414815Y-74979429D01*
X153398181Y-75000071D01*
X152583067Y-75815185D01*
X152521744Y-75848670D01*
X152495386Y-75851504D01*
X152490943Y-75851504D01*
X152338216Y-75892427D01*
X152338209Y-75892430D01*
X152201290Y-75971479D01*
X152201282Y-75971485D01*
X152089481Y-76083286D01*
X152089475Y-76083294D01*
X152010426Y-76220213D01*
X152010423Y-76220220D01*
X151969500Y-76372947D01*
X151969500Y-76531061D01*
X152001504Y-76650499D01*
X152010423Y-76683787D01*
X152010426Y-76683794D01*
X152089475Y-76820713D01*
X152089479Y-76820718D01*
X152089480Y-76820720D01*
X152201284Y-76932524D01*
X152201286Y-76932525D01*
X152201290Y-76932528D01*
X152307863Y-76994057D01*
X152338216Y-77011581D01*
X152490943Y-77052504D01*
X152490945Y-77052504D01*
X152649055Y-77052504D01*
X152649057Y-77052504D01*
X152801784Y-77011581D01*
X152938716Y-76932524D01*
X153050520Y-76820720D01*
X153129577Y-76683788D01*
X153170500Y-76531061D01*
X153170500Y-76482610D01*
X153190185Y-76415571D01*
X153206819Y-76394929D01*
X153699140Y-75902608D01*
X154200484Y-75401264D01*
X154201503Y-75399500D01*
X154256503Y-75304237D01*
X154285500Y-75196018D01*
X154285500Y-75196016D01*
X154286274Y-75190138D01*
X154314541Y-75126241D01*
X154372865Y-75087770D01*
X154442730Y-75086939D01*
X154496894Y-75118642D01*
X155303181Y-75924929D01*
X155336666Y-75986252D01*
X155339500Y-76012610D01*
X155339500Y-76039057D01*
X155377143Y-76179540D01*
X155380423Y-76191783D01*
X155380426Y-76191790D01*
X155459475Y-76328709D01*
X155459479Y-76328714D01*
X155459480Y-76328716D01*
X155571284Y-76440520D01*
X155571286Y-76440521D01*
X155571290Y-76440524D01*
X155708209Y-76519573D01*
X155708216Y-76519577D01*
X155860943Y-76560500D01*
X155860945Y-76560500D01*
X156019055Y-76560500D01*
X156019057Y-76560500D01*
X156171784Y-76519577D01*
X156308716Y-76440520D01*
X156420520Y-76328716D01*
X156499577Y-76191784D01*
X156540500Y-76039057D01*
X156540500Y-75880943D01*
X156499577Y-75728216D01*
X156474391Y-75684592D01*
X156420524Y-75591290D01*
X156420518Y-75591282D01*
X156308717Y-75479481D01*
X156308709Y-75479475D01*
X156171790Y-75400426D01*
X156171786Y-75400424D01*
X156171784Y-75400423D01*
X156019057Y-75359500D01*
X156019056Y-75359500D01*
X155992610Y-75359500D01*
X155925571Y-75339815D01*
X155904929Y-75323181D01*
X154891819Y-74310071D01*
X154858334Y-74248748D01*
X154855500Y-74222390D01*
X154855500Y-67217610D01*
X154875185Y-67150571D01*
X154891819Y-67129929D01*
X156429236Y-65592512D01*
X182158197Y-65592512D01*
X182750000Y-66184314D01*
X182750001Y-66184314D01*
X183341801Y-65592512D01*
X188658197Y-65592512D01*
X189250000Y-66184314D01*
X189250001Y-66184314D01*
X189643174Y-65791140D01*
X200034500Y-65791140D01*
X200034500Y-66788860D01*
X200043690Y-66865388D01*
X200045003Y-66876322D01*
X200099887Y-67015497D01*
X200099888Y-67015499D01*
X200190288Y-67134711D01*
X200309500Y-67225111D01*
X200309502Y-67225112D01*
X200370830Y-67249297D01*
X200448679Y-67279997D01*
X200536140Y-67290500D01*
X200536146Y-67290500D01*
X201108854Y-67290500D01*
X201108860Y-67290500D01*
X201196321Y-67279997D01*
X201335500Y-67225111D01*
X201454711Y-67134711D01*
X201545111Y-67015500D01*
X201599997Y-66876321D01*
X201610500Y-66788860D01*
X201610500Y-65791140D01*
X201599997Y-65703679D01*
X201545111Y-65564500D01*
X201530507Y-65545242D01*
X201454711Y-65445288D01*
X201335499Y-65354888D01*
X201335497Y-65354887D01*
X201196322Y-65300003D01*
X201183826Y-65298502D01*
X201108860Y-65289500D01*
X200536140Y-65289500D01*
X200470544Y-65297377D01*
X200448677Y-65300003D01*
X200309502Y-65354887D01*
X200309500Y-65354888D01*
X200190288Y-65445288D01*
X200099888Y-65564500D01*
X200099887Y-65564502D01*
X200045003Y-65703677D01*
X200045003Y-65703679D01*
X200034500Y-65791140D01*
X189643174Y-65791140D01*
X189734561Y-65699753D01*
X189841801Y-65592512D01*
X189749034Y-65545246D01*
X189749027Y-65545243D01*
X189554417Y-65482009D01*
X189352317Y-65450000D01*
X189147683Y-65450000D01*
X188945581Y-65482010D01*
X188945578Y-65482010D01*
X188750974Y-65545242D01*
X188750973Y-65545242D01*
X188658197Y-65592512D01*
X183341801Y-65592512D01*
X183249034Y-65545246D01*
X183249027Y-65545243D01*
X183054417Y-65482009D01*
X182852317Y-65450000D01*
X182647683Y-65450000D01*
X182445581Y-65482010D01*
X182445578Y-65482010D01*
X182250974Y-65545242D01*
X182250973Y-65545242D01*
X182158197Y-65592512D01*
X156429236Y-65592512D01*
X157624929Y-64396819D01*
X157686252Y-64363334D01*
X157712610Y-64360500D01*
X157739055Y-64360500D01*
X157739057Y-64360500D01*
X157891784Y-64319577D01*
X158028716Y-64240520D01*
X158140520Y-64128716D01*
X158219577Y-63991784D01*
X158260500Y-63839057D01*
X158260500Y-63680943D01*
X158219577Y-63528216D01*
X158154105Y-63414814D01*
X158140522Y-63391287D01*
X158140518Y-63391282D01*
X158110179Y-63360943D01*
X200092000Y-63360943D01*
X200092000Y-63361615D01*
X200092000Y-63519055D01*
X200093061Y-63527113D01*
X200092197Y-63527226D01*
X200094500Y-63544710D01*
X200094500Y-63918860D01*
X200103163Y-63991002D01*
X200105003Y-64006322D01*
X200159887Y-64145497D01*
X200159888Y-64145499D01*
X200250288Y-64264711D01*
X200369500Y-64355111D01*
X200369502Y-64355112D01*
X200439089Y-64382554D01*
X200508679Y-64409997D01*
X200596140Y-64420500D01*
X200596146Y-64420500D01*
X201168854Y-64420500D01*
X201168860Y-64420500D01*
X201256321Y-64409997D01*
X201395500Y-64355111D01*
X201514711Y-64264711D01*
X201605111Y-64145500D01*
X201659997Y-64006321D01*
X201670500Y-63918860D01*
X201670500Y-62921140D01*
X201659997Y-62833679D01*
X201605111Y-62694500D01*
X201572564Y-62651580D01*
X201514711Y-62575288D01*
X201395499Y-62484888D01*
X201395497Y-62484887D01*
X201256322Y-62430003D01*
X201243826Y-62428502D01*
X201168860Y-62419500D01*
X200596140Y-62419500D01*
X200530544Y-62427377D01*
X200508677Y-62430003D01*
X200369502Y-62484887D01*
X200369500Y-62484888D01*
X200250288Y-62575288D01*
X200159888Y-62694500D01*
X200159887Y-62694502D01*
X200105003Y-62833677D01*
X200105003Y-62833679D01*
X200094500Y-62921140D01*
X200094500Y-62921146D01*
X200094500Y-63335287D01*
X200093248Y-63344793D01*
X200093258Y-63352795D01*
X200092204Y-63360178D01*
X200092000Y-63360943D01*
X158110179Y-63360943D01*
X158028717Y-63279481D01*
X158028709Y-63279475D01*
X157891790Y-63200426D01*
X157891786Y-63200424D01*
X157891784Y-63200423D01*
X157739057Y-63159500D01*
X157580943Y-63159500D01*
X157428216Y-63200423D01*
X157428209Y-63200426D01*
X157291290Y-63279475D01*
X157291282Y-63279481D01*
X157179481Y-63391282D01*
X157179475Y-63391290D01*
X157100426Y-63528209D01*
X157100423Y-63528216D01*
X157059500Y-63680943D01*
X157059500Y-63707390D01*
X157039815Y-63774429D01*
X157023181Y-63795071D01*
X154089517Y-66728734D01*
X154089513Y-66728740D01*
X154033498Y-66825760D01*
X154033497Y-66825763D01*
X154004500Y-66933982D01*
X154004500Y-70493390D01*
X153984815Y-70560429D01*
X153932011Y-70606184D01*
X153862853Y-70616128D01*
X153799297Y-70587103D01*
X153792819Y-70581071D01*
X153301265Y-70089517D01*
X153301263Y-70089515D01*
X153236579Y-70052169D01*
X153204239Y-70033498D01*
X153204238Y-70033497D01*
X153204237Y-70033497D01*
X153096018Y-70004500D01*
X153096017Y-70004500D01*
X150547610Y-70004500D01*
X150518169Y-69995855D01*
X150488183Y-69989332D01*
X150483167Y-69985577D01*
X150480571Y-69984815D01*
X150459929Y-69968181D01*
X150376819Y-69885071D01*
X150343334Y-69823748D01*
X150340500Y-69797390D01*
X150340500Y-69770945D01*
X150340500Y-69770943D01*
X150299577Y-69618216D01*
X150292502Y-69605961D01*
X150220524Y-69481290D01*
X150220518Y-69481282D01*
X150108717Y-69369481D01*
X150108709Y-69369475D01*
X149971790Y-69290426D01*
X149971786Y-69290424D01*
X149971784Y-69290423D01*
X149819057Y-69249500D01*
X149660943Y-69249500D01*
X149508216Y-69290423D01*
X149508209Y-69290426D01*
X149371290Y-69369475D01*
X149371282Y-69369481D01*
X149259481Y-69481282D01*
X149259475Y-69481290D01*
X149180426Y-69618209D01*
X149180423Y-69618216D01*
X149139500Y-69770943D01*
X149139500Y-69929057D01*
X149157399Y-69995855D01*
X149180423Y-70081783D01*
X149180426Y-70081790D01*
X149259475Y-70218709D01*
X149259479Y-70218714D01*
X149259480Y-70218716D01*
X149371284Y-70330520D01*
X149371286Y-70330521D01*
X149371290Y-70330524D01*
X149505225Y-70407850D01*
X149508216Y-70409577D01*
X149660943Y-70450500D01*
X149687390Y-70450500D01*
X149754429Y-70470185D01*
X149775071Y-70486819D01*
X150058737Y-70770485D01*
X150155763Y-70826503D01*
X150263982Y-70855500D01*
X150376019Y-70855500D01*
X152313101Y-70855500D01*
X152380140Y-70875185D01*
X152425895Y-70927989D01*
X152435839Y-70997147D01*
X152420488Y-71041500D01*
X152370424Y-71128213D01*
X152370423Y-71128216D01*
X152329500Y-71280943D01*
X152329500Y-71307390D01*
X152309815Y-71374429D01*
X152293181Y-71395071D01*
X150250739Y-73437512D01*
X150189416Y-73470997D01*
X150119724Y-73466013D01*
X150063791Y-73424141D01*
X150039374Y-73358677D01*
X150054226Y-73290404D01*
X150055647Y-73287872D01*
X150099577Y-73211784D01*
X150140500Y-73059057D01*
X150140500Y-72900943D01*
X150099577Y-72748216D01*
X150099011Y-72747235D01*
X150020524Y-72611290D01*
X150020518Y-72611282D01*
X149908717Y-72499481D01*
X149908709Y-72499475D01*
X149771790Y-72420426D01*
X149771786Y-72420424D01*
X149771784Y-72420423D01*
X149619057Y-72379500D01*
X149460943Y-72379500D01*
X149308216Y-72420423D01*
X149308209Y-72420426D01*
X149171290Y-72499475D01*
X149171282Y-72499481D01*
X149097181Y-72573583D01*
X149035858Y-72607068D01*
X148966166Y-72602084D01*
X148910233Y-72560212D01*
X148885816Y-72494748D01*
X148885500Y-72485902D01*
X148885500Y-63334716D01*
X148905185Y-63267677D01*
X148921819Y-63247035D01*
X153271206Y-58897648D01*
X168449500Y-58897648D01*
X168449500Y-59102351D01*
X168481522Y-59304534D01*
X168544781Y-59499223D01*
X168637715Y-59681613D01*
X168758028Y-59847213D01*
X168902786Y-59991971D01*
X169057749Y-60104556D01*
X169068390Y-60112287D01*
X169184607Y-60171503D01*
X169250776Y-60205218D01*
X169250778Y-60205218D01*
X169250781Y-60205220D01*
X169355137Y-60239127D01*
X169445465Y-60268477D01*
X169546557Y-60284488D01*
X169647648Y-60300500D01*
X169647649Y-60300500D01*
X169852351Y-60300500D01*
X169852352Y-60300500D01*
X170054534Y-60268477D01*
X170249219Y-60205220D01*
X170431610Y-60112287D01*
X170524590Y-60044732D01*
X170597213Y-59991971D01*
X170597215Y-59991968D01*
X170597219Y-59991966D01*
X170741966Y-59847219D01*
X170741968Y-59847215D01*
X170741971Y-59847213D01*
X170794732Y-59774590D01*
X170862287Y-59681610D01*
X170955220Y-59499219D01*
X170955219Y-59499219D01*
X170957432Y-59494878D01*
X170959128Y-59495742D01*
X170997891Y-59447643D01*
X171064185Y-59425579D01*
X171068610Y-59425500D01*
X174931390Y-59425500D01*
X174998429Y-59445185D01*
X175041818Y-59495259D01*
X175042568Y-59494878D01*
X175044109Y-59497902D01*
X175044184Y-59497989D01*
X175044365Y-59498406D01*
X175137715Y-59681613D01*
X175258028Y-59847213D01*
X175402786Y-59991971D01*
X175557749Y-60104556D01*
X175568390Y-60112287D01*
X175684607Y-60171503D01*
X175750776Y-60205218D01*
X175750778Y-60205218D01*
X175750781Y-60205220D01*
X175855137Y-60239127D01*
X175945465Y-60268477D01*
X176046557Y-60284488D01*
X176147648Y-60300500D01*
X176147649Y-60300500D01*
X176352351Y-60300500D01*
X176352352Y-60300500D01*
X176554534Y-60268477D01*
X176749219Y-60205220D01*
X176931610Y-60112287D01*
X177024590Y-60044732D01*
X177097213Y-59991971D01*
X177097215Y-59991968D01*
X177097219Y-59991966D01*
X177241966Y-59847219D01*
X177241968Y-59847215D01*
X177241971Y-59847213D01*
X177294732Y-59774590D01*
X177362287Y-59681610D01*
X177455220Y-59499219D01*
X177518477Y-59304534D01*
X177550500Y-59102352D01*
X177550500Y-58897648D01*
X177518477Y-58695466D01*
X177455220Y-58500781D01*
X177455218Y-58500778D01*
X177455218Y-58500776D01*
X177421503Y-58434607D01*
X177362287Y-58318390D01*
X177328540Y-58271941D01*
X177241971Y-58152786D01*
X177097213Y-58008028D01*
X176931613Y-57887715D01*
X176931612Y-57887714D01*
X176931610Y-57887713D01*
X176874653Y-57858691D01*
X176749223Y-57794781D01*
X176554534Y-57731522D01*
X176379995Y-57703878D01*
X176352352Y-57699500D01*
X176147648Y-57699500D01*
X176123329Y-57703351D01*
X175945465Y-57731522D01*
X175750776Y-57794781D01*
X175568386Y-57887715D01*
X175402786Y-58008028D01*
X175258028Y-58152786D01*
X175137715Y-58318386D01*
X175042568Y-58505122D01*
X175040871Y-58504257D01*
X175002109Y-58552357D01*
X174935815Y-58574421D01*
X174931390Y-58574500D01*
X171068610Y-58574500D01*
X171001571Y-58554815D01*
X170958181Y-58504740D01*
X170957432Y-58505122D01*
X170955890Y-58502097D01*
X170955816Y-58502011D01*
X170955634Y-58501593D01*
X170928433Y-58448209D01*
X170862287Y-58318390D01*
X170828540Y-58271941D01*
X170741971Y-58152786D01*
X170597213Y-58008028D01*
X170431613Y-57887715D01*
X170431612Y-57887714D01*
X170431610Y-57887713D01*
X170374653Y-57858691D01*
X170249223Y-57794781D01*
X170054534Y-57731522D01*
X169879995Y-57703878D01*
X169852352Y-57699500D01*
X169647648Y-57699500D01*
X169623329Y-57703351D01*
X169445465Y-57731522D01*
X169250776Y-57794781D01*
X169068386Y-57887715D01*
X168902786Y-58008028D01*
X168758028Y-58152786D01*
X168637715Y-58318386D01*
X168544781Y-58500776D01*
X168481522Y-58695465D01*
X168449500Y-58897648D01*
X153271206Y-58897648D01*
X156511369Y-55657485D01*
X169158198Y-55657485D01*
X169250968Y-55704755D01*
X169445582Y-55767990D01*
X169647683Y-55800000D01*
X169852317Y-55800000D01*
X170054417Y-55767990D01*
X170249031Y-55704755D01*
X170341801Y-55657485D01*
X175658198Y-55657485D01*
X175750968Y-55704755D01*
X175945582Y-55767990D01*
X176147683Y-55800000D01*
X176352317Y-55800000D01*
X176554417Y-55767990D01*
X176749031Y-55704755D01*
X176841801Y-55657485D01*
X194158198Y-55657485D01*
X194250968Y-55704755D01*
X194445582Y-55767990D01*
X194647683Y-55800000D01*
X194852317Y-55800000D01*
X195054417Y-55767990D01*
X195249031Y-55704755D01*
X195341801Y-55657485D01*
X200658198Y-55657485D01*
X200750968Y-55704755D01*
X200945582Y-55767990D01*
X201147683Y-55800000D01*
X201352317Y-55800000D01*
X201554417Y-55767990D01*
X201749031Y-55704755D01*
X201841801Y-55657485D01*
X201250001Y-55065685D01*
X201250000Y-55065685D01*
X200658198Y-55657485D01*
X195341801Y-55657485D01*
X194750001Y-55065685D01*
X194750000Y-55065685D01*
X194158198Y-55657485D01*
X176841801Y-55657485D01*
X176250001Y-55065685D01*
X176250000Y-55065685D01*
X175658198Y-55657485D01*
X170341801Y-55657485D01*
X169750001Y-55065685D01*
X169750000Y-55065685D01*
X169158198Y-55657485D01*
X156511369Y-55657485D01*
X157771172Y-54397682D01*
X168450000Y-54397682D01*
X168450000Y-54602317D01*
X168482009Y-54804417D01*
X168545243Y-54999027D01*
X168545246Y-54999034D01*
X168592512Y-55091801D01*
X169184314Y-54500000D01*
X169184314Y-54499999D01*
X169111906Y-54427591D01*
X169200000Y-54427591D01*
X169200000Y-54572409D01*
X169237482Y-54712292D01*
X169309890Y-54837708D01*
X169412292Y-54940110D01*
X169537708Y-55012518D01*
X169677591Y-55050000D01*
X169822409Y-55050000D01*
X169962292Y-55012518D01*
X170087708Y-54940110D01*
X170190110Y-54837708D01*
X170262518Y-54712292D01*
X170300000Y-54572409D01*
X170300000Y-54499999D01*
X170315685Y-54499999D01*
X170315685Y-54500000D01*
X170907485Y-55091800D01*
X170954755Y-54999031D01*
X171017990Y-54804417D01*
X171050000Y-54602317D01*
X171050000Y-54397682D01*
X174950000Y-54397682D01*
X174950000Y-54602317D01*
X174982009Y-54804417D01*
X175045243Y-54999027D01*
X175045246Y-54999034D01*
X175092512Y-55091801D01*
X175684314Y-54500000D01*
X175684314Y-54499999D01*
X175611906Y-54427591D01*
X175700000Y-54427591D01*
X175700000Y-54572409D01*
X175737482Y-54712292D01*
X175809890Y-54837708D01*
X175912292Y-54940110D01*
X176037708Y-55012518D01*
X176177591Y-55050000D01*
X176322409Y-55050000D01*
X176462292Y-55012518D01*
X176587708Y-54940110D01*
X176690110Y-54837708D01*
X176762518Y-54712292D01*
X176800000Y-54572409D01*
X176800000Y-54499999D01*
X176815685Y-54499999D01*
X176815685Y-54500000D01*
X177407485Y-55091800D01*
X177454755Y-54999031D01*
X177517990Y-54804417D01*
X177550000Y-54602317D01*
X177550000Y-54397682D01*
X193450000Y-54397682D01*
X193450000Y-54602317D01*
X193482009Y-54804417D01*
X193545243Y-54999027D01*
X193545246Y-54999034D01*
X193592512Y-55091801D01*
X194184314Y-54500000D01*
X194184314Y-54499999D01*
X194111906Y-54427591D01*
X194200000Y-54427591D01*
X194200000Y-54572409D01*
X194237482Y-54712292D01*
X194309890Y-54837708D01*
X194412292Y-54940110D01*
X194537708Y-55012518D01*
X194677591Y-55050000D01*
X194822409Y-55050000D01*
X194962292Y-55012518D01*
X195087708Y-54940110D01*
X195190110Y-54837708D01*
X195262518Y-54712292D01*
X195300000Y-54572409D01*
X195300000Y-54499999D01*
X195315685Y-54499999D01*
X195315685Y-54500000D01*
X195907485Y-55091800D01*
X195954755Y-54999031D01*
X196017990Y-54804417D01*
X196050000Y-54602317D01*
X196050000Y-54397682D01*
X199950000Y-54397682D01*
X199950000Y-54602317D01*
X199982009Y-54804417D01*
X200045243Y-54999027D01*
X200045246Y-54999034D01*
X200092512Y-55091801D01*
X200684314Y-54500000D01*
X200684314Y-54499999D01*
X200611906Y-54427591D01*
X200700000Y-54427591D01*
X200700000Y-54572409D01*
X200737482Y-54712292D01*
X200809890Y-54837708D01*
X200912292Y-54940110D01*
X201037708Y-55012518D01*
X201177591Y-55050000D01*
X201322409Y-55050000D01*
X201462292Y-55012518D01*
X201587708Y-54940110D01*
X201690110Y-54837708D01*
X201762518Y-54712292D01*
X201800000Y-54572409D01*
X201800000Y-54427591D01*
X201762518Y-54287708D01*
X201690110Y-54162292D01*
X201587708Y-54059890D01*
X201462292Y-53987482D01*
X201322409Y-53950000D01*
X201177591Y-53950000D01*
X201037708Y-53987482D01*
X200912292Y-54059890D01*
X200809890Y-54162292D01*
X200737482Y-54287708D01*
X200700000Y-54427591D01*
X200611906Y-54427591D01*
X200092512Y-53908197D01*
X200045242Y-54000973D01*
X200045242Y-54000974D01*
X199982010Y-54195578D01*
X199982010Y-54195581D01*
X199950000Y-54397682D01*
X196050000Y-54397682D01*
X196017990Y-54195582D01*
X195954755Y-54000968D01*
X195907485Y-53908198D01*
X195315685Y-54499999D01*
X195300000Y-54499999D01*
X195300000Y-54427591D01*
X195262518Y-54287708D01*
X195190110Y-54162292D01*
X195087708Y-54059890D01*
X194962292Y-53987482D01*
X194822409Y-53950000D01*
X194677591Y-53950000D01*
X194537708Y-53987482D01*
X194412292Y-54059890D01*
X194309890Y-54162292D01*
X194237482Y-54287708D01*
X194200000Y-54427591D01*
X194111906Y-54427591D01*
X193592512Y-53908197D01*
X193545242Y-54000973D01*
X193545242Y-54000974D01*
X193482010Y-54195578D01*
X193482010Y-54195581D01*
X193450000Y-54397682D01*
X177550000Y-54397682D01*
X177517990Y-54195582D01*
X177454755Y-54000968D01*
X177407485Y-53908198D01*
X176815685Y-54499999D01*
X176800000Y-54499999D01*
X176800000Y-54427591D01*
X176762518Y-54287708D01*
X176690110Y-54162292D01*
X176587708Y-54059890D01*
X176462292Y-53987482D01*
X176322409Y-53950000D01*
X176177591Y-53950000D01*
X176037708Y-53987482D01*
X175912292Y-54059890D01*
X175809890Y-54162292D01*
X175737482Y-54287708D01*
X175700000Y-54427591D01*
X175611906Y-54427591D01*
X175092512Y-53908197D01*
X175045242Y-54000973D01*
X175045242Y-54000974D01*
X174982010Y-54195578D01*
X174982010Y-54195581D01*
X174950000Y-54397682D01*
X171050000Y-54397682D01*
X171017990Y-54195582D01*
X170954755Y-54000968D01*
X170907485Y-53908198D01*
X170315685Y-54499999D01*
X170300000Y-54499999D01*
X170300000Y-54427591D01*
X170262518Y-54287708D01*
X170190110Y-54162292D01*
X170087708Y-54059890D01*
X169962292Y-53987482D01*
X169822409Y-53950000D01*
X169677591Y-53950000D01*
X169537708Y-53987482D01*
X169412292Y-54059890D01*
X169309890Y-54162292D01*
X169237482Y-54287708D01*
X169200000Y-54427591D01*
X169111906Y-54427591D01*
X168592512Y-53908197D01*
X168545242Y-54000973D01*
X168545242Y-54000974D01*
X168482010Y-54195578D01*
X168482010Y-54195581D01*
X168450000Y-54397682D01*
X157771172Y-54397682D01*
X158826342Y-53342512D01*
X169158197Y-53342512D01*
X169750000Y-53934314D01*
X169750001Y-53934314D01*
X170341801Y-53342512D01*
X175658197Y-53342512D01*
X176250000Y-53934314D01*
X176250001Y-53934314D01*
X176841801Y-53342512D01*
X194158197Y-53342512D01*
X194750000Y-53934314D01*
X194750001Y-53934314D01*
X195341801Y-53342512D01*
X200658197Y-53342512D01*
X201250000Y-53934314D01*
X201250001Y-53934314D01*
X201841801Y-53342512D01*
X201749034Y-53295246D01*
X201749027Y-53295243D01*
X201554417Y-53232009D01*
X201352317Y-53200000D01*
X201147683Y-53200000D01*
X200945581Y-53232010D01*
X200945578Y-53232010D01*
X200750974Y-53295242D01*
X200750973Y-53295242D01*
X200658197Y-53342512D01*
X195341801Y-53342512D01*
X195249034Y-53295246D01*
X195249027Y-53295243D01*
X195054417Y-53232009D01*
X194852317Y-53200000D01*
X194647683Y-53200000D01*
X194445581Y-53232010D01*
X194445578Y-53232010D01*
X194250974Y-53295242D01*
X194250973Y-53295242D01*
X194158197Y-53342512D01*
X176841801Y-53342512D01*
X176749034Y-53295246D01*
X176749027Y-53295243D01*
X176554417Y-53232009D01*
X176352317Y-53200000D01*
X176147683Y-53200000D01*
X175945581Y-53232010D01*
X175945578Y-53232010D01*
X175750974Y-53295242D01*
X175750973Y-53295242D01*
X175658197Y-53342512D01*
X170341801Y-53342512D01*
X170249034Y-53295246D01*
X170249027Y-53295243D01*
X170054417Y-53232009D01*
X169852317Y-53200000D01*
X169647683Y-53200000D01*
X169445581Y-53232010D01*
X169445578Y-53232010D01*
X169250974Y-53295242D01*
X169250973Y-53295242D01*
X169158197Y-53342512D01*
X158826342Y-53342512D01*
X166021206Y-46147648D01*
X181449500Y-46147648D01*
X181449500Y-46352351D01*
X181481522Y-46554534D01*
X181544781Y-46749223D01*
X181637715Y-46931613D01*
X181758028Y-47097213D01*
X181902786Y-47241971D01*
X182057749Y-47354556D01*
X182068390Y-47362287D01*
X182184607Y-47421503D01*
X182250776Y-47455218D01*
X182250778Y-47455218D01*
X182250781Y-47455220D01*
X182355137Y-47489127D01*
X182445465Y-47518477D01*
X182546557Y-47534488D01*
X182647648Y-47550500D01*
X182647649Y-47550500D01*
X182852351Y-47550500D01*
X182852352Y-47550500D01*
X183054534Y-47518477D01*
X183249219Y-47455220D01*
X183431610Y-47362287D01*
X183524590Y-47294732D01*
X183597213Y-47241971D01*
X183597215Y-47241968D01*
X183597219Y-47241966D01*
X183741966Y-47097219D01*
X183741968Y-47097215D01*
X183741971Y-47097213D01*
X183794732Y-47024590D01*
X183862287Y-46931610D01*
X183955220Y-46749219D01*
X184018477Y-46554534D01*
X184050500Y-46352352D01*
X184050500Y-46147648D01*
X187949500Y-46147648D01*
X187949500Y-46352351D01*
X187981522Y-46554534D01*
X188044781Y-46749223D01*
X188137715Y-46931613D01*
X188258028Y-47097213D01*
X188402786Y-47241971D01*
X188557749Y-47354556D01*
X188568390Y-47362287D01*
X188684607Y-47421503D01*
X188750776Y-47455218D01*
X188750778Y-47455218D01*
X188750781Y-47455220D01*
X188855137Y-47489127D01*
X188945465Y-47518477D01*
X189046557Y-47534488D01*
X189147648Y-47550500D01*
X189147649Y-47550500D01*
X189352351Y-47550500D01*
X189352352Y-47550500D01*
X189554534Y-47518477D01*
X189749219Y-47455220D01*
X189931610Y-47362287D01*
X190024590Y-47294732D01*
X190097213Y-47241971D01*
X190097215Y-47241968D01*
X190097219Y-47241966D01*
X190241966Y-47097219D01*
X190241968Y-47097215D01*
X190241971Y-47097213D01*
X190294732Y-47024590D01*
X190362287Y-46931610D01*
X190455220Y-46749219D01*
X190518477Y-46554534D01*
X190550500Y-46352352D01*
X190550500Y-46147648D01*
X190529379Y-46014295D01*
X190518477Y-45945465D01*
X190455218Y-45750776D01*
X190421503Y-45684607D01*
X190362287Y-45568390D01*
X190347898Y-45548585D01*
X190241971Y-45402786D01*
X190097213Y-45258028D01*
X189931613Y-45137715D01*
X189931612Y-45137714D01*
X189931610Y-45137713D01*
X189858395Y-45100408D01*
X189749223Y-45044781D01*
X189554534Y-44981522D01*
X189376899Y-44953388D01*
X189352352Y-44949500D01*
X189147648Y-44949500D01*
X189123329Y-44953351D01*
X188945465Y-44981522D01*
X188750776Y-45044781D01*
X188568386Y-45137715D01*
X188402786Y-45258028D01*
X188258028Y-45402786D01*
X188137715Y-45568386D01*
X188044781Y-45750776D01*
X187981522Y-45945465D01*
X187949500Y-46147648D01*
X184050500Y-46147648D01*
X184029379Y-46014295D01*
X184018477Y-45945465D01*
X183955218Y-45750776D01*
X183921503Y-45684607D01*
X183862287Y-45568390D01*
X183847898Y-45548585D01*
X183741971Y-45402786D01*
X183597213Y-45258028D01*
X183431613Y-45137715D01*
X183431612Y-45137714D01*
X183431610Y-45137713D01*
X183358395Y-45100408D01*
X183249223Y-45044781D01*
X183054534Y-44981522D01*
X182876899Y-44953388D01*
X182852352Y-44949500D01*
X182647648Y-44949500D01*
X182623329Y-44953351D01*
X182445465Y-44981522D01*
X182250776Y-45044781D01*
X182068386Y-45137715D01*
X181902786Y-45258028D01*
X181758028Y-45402786D01*
X181637715Y-45568386D01*
X181544781Y-45750776D01*
X181481522Y-45945465D01*
X181449500Y-46147648D01*
X166021206Y-46147648D01*
X166113759Y-46055095D01*
X167411270Y-44757584D01*
X168729038Y-43439816D01*
X168888354Y-43280500D01*
X168987038Y-43181817D01*
X169048362Y-43148333D01*
X169048366Y-43148333D01*
X169074718Y-43145500D01*
X171345690Y-43145500D01*
X171412729Y-43165185D01*
X171458484Y-43217989D01*
X171468805Y-43254716D01*
X171475001Y-43306317D01*
X171475002Y-43306320D01*
X171529887Y-43445497D01*
X171529888Y-43445499D01*
X171620288Y-43564711D01*
X171739500Y-43655111D01*
X171739502Y-43655112D01*
X171780029Y-43671094D01*
X171878679Y-43709997D01*
X171966140Y-43720500D01*
X171966146Y-43720500D01*
X172538854Y-43720500D01*
X172538860Y-43720500D01*
X172626321Y-43709997D01*
X172765500Y-43655111D01*
X172884711Y-43564711D01*
X172975111Y-43445500D01*
X173029997Y-43306321D01*
X173040500Y-43218860D01*
X173040500Y-42221140D01*
X173339500Y-42221140D01*
X173339500Y-43218860D01*
X173348683Y-43295326D01*
X173350003Y-43306322D01*
X173404887Y-43445497D01*
X173404888Y-43445499D01*
X173495288Y-43564711D01*
X173614500Y-43655111D01*
X173614502Y-43655112D01*
X173655029Y-43671094D01*
X173753679Y-43709997D01*
X173841140Y-43720500D01*
X173841146Y-43720500D01*
X174413854Y-43720500D01*
X174413860Y-43720500D01*
X174501321Y-43709997D01*
X174640500Y-43655111D01*
X174759711Y-43564711D01*
X174850111Y-43445500D01*
X174904997Y-43306321D01*
X174915500Y-43218860D01*
X174915500Y-42907485D01*
X182158198Y-42907485D01*
X182250968Y-42954755D01*
X182445582Y-43017990D01*
X182647683Y-43050000D01*
X182852317Y-43050000D01*
X183054417Y-43017990D01*
X183249031Y-42954755D01*
X183341801Y-42907485D01*
X188658198Y-42907485D01*
X188750968Y-42954755D01*
X188945582Y-43017990D01*
X189147683Y-43050000D01*
X189352317Y-43050000D01*
X189554417Y-43017990D01*
X189749031Y-42954755D01*
X189841801Y-42907485D01*
X189250001Y-42315685D01*
X189250000Y-42315685D01*
X188658198Y-42907485D01*
X183341801Y-42907485D01*
X182750001Y-42315685D01*
X182750000Y-42315685D01*
X182158198Y-42907485D01*
X174915500Y-42907485D01*
X174915500Y-42221140D01*
X174904997Y-42133679D01*
X174852790Y-42001294D01*
X174850112Y-41994502D01*
X174850111Y-41994500D01*
X174759711Y-41875288D01*
X174640499Y-41784888D01*
X174640497Y-41784887D01*
X174572748Y-41758170D01*
X174501322Y-41730003D01*
X174488826Y-41728502D01*
X174413860Y-41719500D01*
X173841140Y-41719500D01*
X173775544Y-41727377D01*
X173753677Y-41730003D01*
X173614502Y-41784887D01*
X173614500Y-41784888D01*
X173495288Y-41875288D01*
X173404888Y-41994500D01*
X173404887Y-41994502D01*
X173350003Y-42133677D01*
X173349401Y-42138693D01*
X173339500Y-42221140D01*
X173040500Y-42221140D01*
X173029997Y-42133679D01*
X172977790Y-42001294D01*
X172975112Y-41994502D01*
X172975111Y-41994500D01*
X172884711Y-41875288D01*
X172765499Y-41784888D01*
X172765497Y-41784887D01*
X172626322Y-41730003D01*
X172613826Y-41728502D01*
X172538860Y-41719500D01*
X171966140Y-41719500D01*
X171900544Y-41727377D01*
X171878677Y-41730003D01*
X171739502Y-41784887D01*
X171739500Y-41784888D01*
X171620288Y-41875288D01*
X171529888Y-41994500D01*
X171529887Y-41994502D01*
X171475002Y-42133679D01*
X171475001Y-42133682D01*
X171468805Y-42185284D01*
X171441268Y-42249499D01*
X171383386Y-42288631D01*
X171345690Y-42294500D01*
X168979500Y-42294500D01*
X168970814Y-42291949D01*
X168961853Y-42293238D01*
X168937812Y-42282259D01*
X168912461Y-42274815D01*
X168906533Y-42267974D01*
X168898297Y-42264213D01*
X168884007Y-42241978D01*
X168866706Y-42222011D01*
X168864418Y-42211496D01*
X168860523Y-42205435D01*
X168855500Y-42170500D01*
X168855500Y-42155098D01*
X168875185Y-42088059D01*
X168891819Y-42067417D01*
X168910520Y-42048716D01*
X168989577Y-41911784D01*
X169030500Y-41759057D01*
X169030500Y-41647682D01*
X181450000Y-41647682D01*
X181450000Y-41852317D01*
X181482009Y-42054417D01*
X181545243Y-42249027D01*
X181545246Y-42249034D01*
X181592512Y-42341801D01*
X182184314Y-41750000D01*
X182184314Y-41749999D01*
X182111906Y-41677591D01*
X182200000Y-41677591D01*
X182200000Y-41822409D01*
X182237482Y-41962292D01*
X182309890Y-42087708D01*
X182412292Y-42190110D01*
X182537708Y-42262518D01*
X182677591Y-42300000D01*
X182822409Y-42300000D01*
X182962292Y-42262518D01*
X183087708Y-42190110D01*
X183190110Y-42087708D01*
X183262518Y-41962292D01*
X183300000Y-41822409D01*
X183300000Y-41749999D01*
X183315685Y-41749999D01*
X183315685Y-41750000D01*
X183907485Y-42341800D01*
X183954755Y-42249031D01*
X184017990Y-42054417D01*
X184050000Y-41852317D01*
X184050000Y-41647682D01*
X187950000Y-41647682D01*
X187950000Y-41852317D01*
X187982009Y-42054417D01*
X188045243Y-42249027D01*
X188045246Y-42249034D01*
X188092512Y-42341801D01*
X188684314Y-41750000D01*
X188684314Y-41749999D01*
X188611906Y-41677591D01*
X188700000Y-41677591D01*
X188700000Y-41822409D01*
X188737482Y-41962292D01*
X188809890Y-42087708D01*
X188912292Y-42190110D01*
X189037708Y-42262518D01*
X189177591Y-42300000D01*
X189322409Y-42300000D01*
X189462292Y-42262518D01*
X189587708Y-42190110D01*
X189690110Y-42087708D01*
X189762518Y-41962292D01*
X189800000Y-41822409D01*
X189800000Y-41749999D01*
X189815685Y-41749999D01*
X189815685Y-41750000D01*
X190407485Y-42341800D01*
X190454755Y-42249031D01*
X190517990Y-42054417D01*
X190550000Y-41852317D01*
X190550000Y-41647682D01*
X190517990Y-41445582D01*
X190454755Y-41250968D01*
X190407485Y-41158198D01*
X189815685Y-41749999D01*
X189800000Y-41749999D01*
X189800000Y-41677591D01*
X189762518Y-41537708D01*
X189690110Y-41412292D01*
X189587708Y-41309890D01*
X189462292Y-41237482D01*
X189322409Y-41200000D01*
X189177591Y-41200000D01*
X189037708Y-41237482D01*
X188912292Y-41309890D01*
X188809890Y-41412292D01*
X188737482Y-41537708D01*
X188700000Y-41677591D01*
X188611906Y-41677591D01*
X188092512Y-41158197D01*
X188045242Y-41250973D01*
X188045242Y-41250974D01*
X187982010Y-41445578D01*
X187982010Y-41445581D01*
X187950000Y-41647682D01*
X184050000Y-41647682D01*
X184017990Y-41445582D01*
X183954755Y-41250968D01*
X183907485Y-41158198D01*
X183315685Y-41749999D01*
X183300000Y-41749999D01*
X183300000Y-41677591D01*
X183262518Y-41537708D01*
X183190110Y-41412292D01*
X183087708Y-41309890D01*
X182962292Y-41237482D01*
X182822409Y-41200000D01*
X182677591Y-41200000D01*
X182537708Y-41237482D01*
X182412292Y-41309890D01*
X182309890Y-41412292D01*
X182237482Y-41537708D01*
X182200000Y-41677591D01*
X182111906Y-41677591D01*
X181592512Y-41158197D01*
X181545242Y-41250973D01*
X181545242Y-41250974D01*
X181482010Y-41445578D01*
X181482010Y-41445581D01*
X181450000Y-41647682D01*
X169030500Y-41647682D01*
X169030500Y-41600943D01*
X168989577Y-41448216D01*
X168988054Y-41445578D01*
X168910524Y-41311290D01*
X168910518Y-41311282D01*
X168798717Y-41199481D01*
X168798709Y-41199475D01*
X168661790Y-41120426D01*
X168661786Y-41120424D01*
X168661784Y-41120423D01*
X168509057Y-41079500D01*
X168350943Y-41079500D01*
X168198216Y-41120423D01*
X168198209Y-41120426D01*
X168061290Y-41199475D01*
X168061282Y-41199481D01*
X167949481Y-41311282D01*
X167949475Y-41311290D01*
X167870426Y-41448209D01*
X167870423Y-41448216D01*
X167829500Y-41600943D01*
X167829500Y-41759057D01*
X167867743Y-41901780D01*
X167870423Y-41911783D01*
X167870426Y-41911790D01*
X167949475Y-42048709D01*
X167949481Y-42048717D01*
X167968181Y-42067417D01*
X167982884Y-42094344D01*
X167999477Y-42120163D01*
X168000368Y-42126363D01*
X168001666Y-42128740D01*
X168004500Y-42155098D01*
X168004500Y-42202389D01*
X167984815Y-42269428D01*
X167968181Y-42290070D01*
X167185882Y-43072369D01*
X167124559Y-43105854D01*
X167054867Y-43100870D01*
X166998934Y-43058998D01*
X166974517Y-42993534D01*
X166978426Y-42952594D01*
X167000646Y-42869666D01*
X167039998Y-42570759D01*
X167040000Y-42570743D01*
X167040000Y-42269256D01*
X167039998Y-42269240D01*
X167000646Y-41970332D01*
X166922610Y-41679098D01*
X166807234Y-41400556D01*
X166807229Y-41400545D01*
X166656487Y-41139454D01*
X166656481Y-41139446D01*
X166625983Y-41099700D01*
X165934660Y-41791023D01*
X165894623Y-41712446D01*
X165769722Y-41540534D01*
X165619466Y-41390278D01*
X165447554Y-41265377D01*
X165368974Y-41225338D01*
X166001802Y-40592512D01*
X182158197Y-40592512D01*
X182750000Y-41184314D01*
X182750001Y-41184314D01*
X183341801Y-40592512D01*
X188658197Y-40592512D01*
X189250000Y-41184314D01*
X189250001Y-41184314D01*
X189841801Y-40592512D01*
X189749034Y-40545246D01*
X189749027Y-40545243D01*
X189554417Y-40482009D01*
X189352317Y-40450000D01*
X189147683Y-40450000D01*
X188945581Y-40482010D01*
X188945578Y-40482010D01*
X188750974Y-40545242D01*
X188750973Y-40545242D01*
X188658197Y-40592512D01*
X183341801Y-40592512D01*
X183249034Y-40545246D01*
X183249027Y-40545243D01*
X183054417Y-40482009D01*
X182852317Y-40450000D01*
X182647683Y-40450000D01*
X182445581Y-40482010D01*
X182445578Y-40482010D01*
X182250974Y-40545242D01*
X182250973Y-40545242D01*
X182158197Y-40592512D01*
X166001802Y-40592512D01*
X166046477Y-40547837D01*
X166060298Y-40534015D01*
X166060298Y-40534014D01*
X166020562Y-40503523D01*
X166020545Y-40503512D01*
X165759454Y-40352770D01*
X165759443Y-40352765D01*
X165480901Y-40237389D01*
X165189667Y-40159353D01*
X164890759Y-40120001D01*
X164890743Y-40120000D01*
X164589257Y-40120000D01*
X164589240Y-40120001D01*
X164290332Y-40159353D01*
X163999098Y-40237389D01*
X163720556Y-40352765D01*
X163720545Y-40352770D01*
X163459454Y-40503511D01*
X163459440Y-40503521D01*
X163419700Y-40534014D01*
X164111024Y-41225339D01*
X164032446Y-41265377D01*
X163860534Y-41390278D01*
X163710278Y-41540534D01*
X163585377Y-41712446D01*
X163545339Y-41791024D01*
X162854014Y-41099700D01*
X162823521Y-41139440D01*
X162823511Y-41139454D01*
X162672770Y-41400545D01*
X162672765Y-41400556D01*
X162557389Y-41679098D01*
X162479353Y-41970332D01*
X162440001Y-42269240D01*
X162440000Y-42269256D01*
X162440000Y-42570743D01*
X162440001Y-42570759D01*
X162479353Y-42869667D01*
X162557389Y-43160901D01*
X162672765Y-43439443D01*
X162672770Y-43439454D01*
X162823512Y-43700545D01*
X162823523Y-43700562D01*
X162854014Y-43740298D01*
X162854015Y-43740298D01*
X163545338Y-43048974D01*
X163585377Y-43127554D01*
X163710278Y-43299466D01*
X163860534Y-43449722D01*
X164032446Y-43574623D01*
X164111023Y-43614660D01*
X163419700Y-44305983D01*
X163459446Y-44336481D01*
X163459454Y-44336487D01*
X163720545Y-44487229D01*
X163720556Y-44487234D01*
X163999098Y-44602610D01*
X164290332Y-44680646D01*
X164589240Y-44719998D01*
X164589257Y-44720000D01*
X164890743Y-44720000D01*
X164890759Y-44719998D01*
X165189666Y-44680646D01*
X165272593Y-44658426D01*
X165342443Y-44660089D01*
X165400305Y-44699251D01*
X165427810Y-44763479D01*
X165416224Y-44832382D01*
X165392368Y-44865882D01*
X147558737Y-62699515D01*
X147479517Y-62778734D01*
X147479513Y-62778740D01*
X147423498Y-62875760D01*
X147423497Y-62875763D01*
X147394500Y-62983982D01*
X147394500Y-70720269D01*
X147374815Y-70787308D01*
X147322011Y-70833063D01*
X147252853Y-70843007D01*
X147238410Y-70840044D01*
X147199057Y-70829500D01*
X147040943Y-70829500D01*
X146888216Y-70870423D01*
X146888209Y-70870426D01*
X146751290Y-70949475D01*
X146751282Y-70949481D01*
X146639481Y-71061282D01*
X146639475Y-71061290D01*
X146560426Y-71198209D01*
X146560423Y-71198216D01*
X146519500Y-71350943D01*
X146519500Y-71507389D01*
X146499815Y-71574428D01*
X146483181Y-71595070D01*
X145252181Y-72826070D01*
X145190858Y-72859555D01*
X145121166Y-72854571D01*
X145065233Y-72812699D01*
X145040816Y-72747235D01*
X145040500Y-72738389D01*
X145040500Y-42439201D01*
X145060185Y-42372162D01*
X145112989Y-42326407D01*
X145182147Y-42316463D01*
X145237384Y-42338882D01*
X145327006Y-42403996D01*
X145396099Y-42439201D01*
X145488360Y-42486211D01*
X145488363Y-42486212D01*
X145574476Y-42514191D01*
X145660591Y-42542171D01*
X145743429Y-42555291D01*
X145839449Y-42570500D01*
X145839454Y-42570500D01*
X146020551Y-42570500D01*
X146107259Y-42556765D01*
X146199409Y-42542171D01*
X146371639Y-42486211D01*
X146532994Y-42403996D01*
X146679501Y-42297553D01*
X146807553Y-42169501D01*
X146913996Y-42022994D01*
X146996211Y-41861639D01*
X147052171Y-41689409D01*
X147073527Y-41554572D01*
X147077527Y-41529321D01*
X147107456Y-41466186D01*
X147166768Y-41429255D01*
X147236630Y-41430253D01*
X147294863Y-41468863D01*
X147322473Y-41529321D01*
X147347829Y-41689410D01*
X147403787Y-41861636D01*
X147403788Y-41861639D01*
X147455075Y-41962292D01*
X147474947Y-42001294D01*
X147486006Y-42022997D01*
X147592441Y-42169494D01*
X147592445Y-42169499D01*
X147720500Y-42297554D01*
X147720505Y-42297558D01*
X147778753Y-42339877D01*
X147867006Y-42403996D01*
X147942523Y-42442474D01*
X148028360Y-42486211D01*
X148028363Y-42486212D01*
X148114476Y-42514191D01*
X148200591Y-42542171D01*
X148283429Y-42555291D01*
X148379449Y-42570500D01*
X148379454Y-42570500D01*
X148560551Y-42570500D01*
X148647259Y-42556765D01*
X148739409Y-42542171D01*
X148911639Y-42486211D01*
X149072994Y-42403996D01*
X149219501Y-42297553D01*
X149347553Y-42169501D01*
X149453996Y-42022994D01*
X149536211Y-41861639D01*
X149592171Y-41689409D01*
X149613527Y-41554572D01*
X149617527Y-41529321D01*
X149647456Y-41466186D01*
X149706768Y-41429255D01*
X149776630Y-41430253D01*
X149834863Y-41468863D01*
X149862473Y-41529321D01*
X149887829Y-41689410D01*
X149943787Y-41861636D01*
X149943788Y-41861639D01*
X149995075Y-41962292D01*
X150014947Y-42001294D01*
X150026006Y-42022997D01*
X150132441Y-42169494D01*
X150132445Y-42169499D01*
X150260500Y-42297554D01*
X150260505Y-42297558D01*
X150318753Y-42339877D01*
X150407006Y-42403996D01*
X150482523Y-42442474D01*
X150568360Y-42486211D01*
X150568363Y-42486212D01*
X150654476Y-42514191D01*
X150740591Y-42542171D01*
X150823429Y-42555291D01*
X150919449Y-42570500D01*
X150919454Y-42570500D01*
X151100551Y-42570500D01*
X151187259Y-42556765D01*
X151279409Y-42542171D01*
X151451639Y-42486211D01*
X151612994Y-42403996D01*
X151759501Y-42297553D01*
X151887553Y-42169501D01*
X151993996Y-42022994D01*
X152076211Y-41861639D01*
X152132171Y-41689409D01*
X152153527Y-41554572D01*
X152157527Y-41529321D01*
X152187456Y-41466186D01*
X152246768Y-41429255D01*
X152316630Y-41430253D01*
X152374863Y-41468863D01*
X152402473Y-41529321D01*
X152427829Y-41689410D01*
X152483787Y-41861636D01*
X152483788Y-41861639D01*
X152535075Y-41962292D01*
X152554947Y-42001294D01*
X152566006Y-42022997D01*
X152672441Y-42169494D01*
X152672445Y-42169499D01*
X152800500Y-42297554D01*
X152800505Y-42297558D01*
X152858753Y-42339877D01*
X152947006Y-42403996D01*
X153022523Y-42442474D01*
X153108360Y-42486211D01*
X153108363Y-42486212D01*
X153194476Y-42514191D01*
X153280591Y-42542171D01*
X153363429Y-42555291D01*
X153459449Y-42570500D01*
X153459454Y-42570500D01*
X153640551Y-42570500D01*
X153727259Y-42556765D01*
X153819409Y-42542171D01*
X153991639Y-42486211D01*
X154152994Y-42403996D01*
X154299501Y-42297553D01*
X154427553Y-42169501D01*
X154533996Y-42022994D01*
X154616211Y-41861639D01*
X154672171Y-41689409D01*
X154693527Y-41554572D01*
X154697527Y-41529321D01*
X154727456Y-41466186D01*
X154786768Y-41429255D01*
X154856630Y-41430253D01*
X154914863Y-41468863D01*
X154942473Y-41529321D01*
X154967829Y-41689410D01*
X155023787Y-41861636D01*
X155023788Y-41861639D01*
X155075075Y-41962292D01*
X155094947Y-42001294D01*
X155106006Y-42022997D01*
X155212441Y-42169494D01*
X155212445Y-42169499D01*
X155340500Y-42297554D01*
X155340505Y-42297558D01*
X155398753Y-42339877D01*
X155487006Y-42403996D01*
X155562523Y-42442474D01*
X155648360Y-42486211D01*
X155648363Y-42486212D01*
X155734476Y-42514191D01*
X155820591Y-42542171D01*
X155903429Y-42555291D01*
X155999449Y-42570500D01*
X155999454Y-42570500D01*
X156180551Y-42570500D01*
X156267259Y-42556765D01*
X156359409Y-42542171D01*
X156531639Y-42486211D01*
X156692994Y-42403996D01*
X156839501Y-42297553D01*
X156967553Y-42169501D01*
X157073996Y-42022994D01*
X157156211Y-41861639D01*
X157212171Y-41689409D01*
X157233527Y-41554572D01*
X157237527Y-41529321D01*
X157267456Y-41466186D01*
X157326768Y-41429255D01*
X157396630Y-41430253D01*
X157454863Y-41468863D01*
X157482473Y-41529321D01*
X157507829Y-41689410D01*
X157563787Y-41861636D01*
X157563788Y-41861639D01*
X157615075Y-41962292D01*
X157634947Y-42001294D01*
X157646006Y-42022997D01*
X157752441Y-42169494D01*
X157752445Y-42169499D01*
X157880500Y-42297554D01*
X157880505Y-42297558D01*
X157938753Y-42339877D01*
X158027006Y-42403996D01*
X158102523Y-42442474D01*
X158188360Y-42486211D01*
X158188363Y-42486212D01*
X158274476Y-42514191D01*
X158360591Y-42542171D01*
X158443429Y-42555291D01*
X158539449Y-42570500D01*
X158539454Y-42570500D01*
X158720551Y-42570500D01*
X158807259Y-42556765D01*
X158899409Y-42542171D01*
X159071639Y-42486211D01*
X159232994Y-42403996D01*
X159379501Y-42297553D01*
X159507553Y-42169501D01*
X159613996Y-42022994D01*
X159696211Y-41861639D01*
X159752171Y-41689409D01*
X159773527Y-41554572D01*
X159780500Y-41510551D01*
X159780500Y-41329448D01*
X159764019Y-41225397D01*
X159752171Y-41150591D01*
X159724191Y-41064476D01*
X159696212Y-40978363D01*
X159696211Y-40978360D01*
X159666474Y-40920000D01*
X159613996Y-40817006D01*
X159600396Y-40798287D01*
X159507558Y-40670505D01*
X159507554Y-40670500D01*
X159379499Y-40542445D01*
X159379494Y-40542441D01*
X159232997Y-40436006D01*
X159232996Y-40436005D01*
X159232994Y-40436004D01*
X159181300Y-40409664D01*
X159071639Y-40353788D01*
X159071636Y-40353787D01*
X158899410Y-40297829D01*
X158720551Y-40269500D01*
X158720546Y-40269500D01*
X158539454Y-40269500D01*
X158539449Y-40269500D01*
X158360589Y-40297829D01*
X158188363Y-40353787D01*
X158188360Y-40353788D01*
X158027002Y-40436006D01*
X157880505Y-40542441D01*
X157880500Y-40542445D01*
X157752445Y-40670500D01*
X157752441Y-40670505D01*
X157646006Y-40817002D01*
X157563788Y-40978360D01*
X157563787Y-40978363D01*
X157507829Y-41150589D01*
X157482473Y-41310678D01*
X157452544Y-41373813D01*
X157393232Y-41410744D01*
X157323369Y-41409746D01*
X157265137Y-41371136D01*
X157237527Y-41310678D01*
X157223740Y-41223639D01*
X157212171Y-41150591D01*
X157184191Y-41064476D01*
X157156212Y-40978363D01*
X157156211Y-40978360D01*
X157126474Y-40920000D01*
X157073996Y-40817006D01*
X157060396Y-40798287D01*
X156967558Y-40670505D01*
X156967554Y-40670500D01*
X156839499Y-40542445D01*
X156839494Y-40542441D01*
X156692997Y-40436006D01*
X156692996Y-40436005D01*
X156692994Y-40436004D01*
X156641300Y-40409664D01*
X156531639Y-40353788D01*
X156531636Y-40353787D01*
X156359410Y-40297829D01*
X156180551Y-40269500D01*
X156180546Y-40269500D01*
X155999454Y-40269500D01*
X155999449Y-40269500D01*
X155820589Y-40297829D01*
X155648363Y-40353787D01*
X155648360Y-40353788D01*
X155487002Y-40436006D01*
X155340505Y-40542441D01*
X155340500Y-40542445D01*
X155212445Y-40670500D01*
X155212441Y-40670505D01*
X155106006Y-40817002D01*
X155023788Y-40978360D01*
X155023787Y-40978363D01*
X154967829Y-41150589D01*
X154942473Y-41310678D01*
X154912544Y-41373813D01*
X154853232Y-41410744D01*
X154783369Y-41409746D01*
X154725137Y-41371136D01*
X154697527Y-41310678D01*
X154683740Y-41223639D01*
X154672171Y-41150591D01*
X154644191Y-41064476D01*
X154616212Y-40978363D01*
X154616211Y-40978360D01*
X154586474Y-40920000D01*
X154533996Y-40817006D01*
X154520396Y-40798287D01*
X154427558Y-40670505D01*
X154427554Y-40670500D01*
X154299499Y-40542445D01*
X154299494Y-40542441D01*
X154152997Y-40436006D01*
X154152996Y-40436005D01*
X154152994Y-40436004D01*
X154101300Y-40409664D01*
X153991639Y-40353788D01*
X153991636Y-40353787D01*
X153819410Y-40297829D01*
X153640551Y-40269500D01*
X153640546Y-40269500D01*
X153459454Y-40269500D01*
X153459449Y-40269500D01*
X153280589Y-40297829D01*
X153108363Y-40353787D01*
X153108360Y-40353788D01*
X152947002Y-40436006D01*
X152800505Y-40542441D01*
X152800500Y-40542445D01*
X152672445Y-40670500D01*
X152672441Y-40670505D01*
X152566006Y-40817002D01*
X152483788Y-40978360D01*
X152483787Y-40978363D01*
X152427829Y-41150589D01*
X152402473Y-41310678D01*
X152372544Y-41373813D01*
X152313232Y-41410744D01*
X152243369Y-41409746D01*
X152185137Y-41371136D01*
X152157527Y-41310678D01*
X152143740Y-41223639D01*
X152132171Y-41150591D01*
X152104191Y-41064476D01*
X152076212Y-40978363D01*
X152076211Y-40978360D01*
X152046474Y-40920000D01*
X151993996Y-40817006D01*
X151980396Y-40798287D01*
X151887558Y-40670505D01*
X151887554Y-40670500D01*
X151759499Y-40542445D01*
X151759494Y-40542441D01*
X151612997Y-40436006D01*
X151612996Y-40436005D01*
X151612994Y-40436004D01*
X151561300Y-40409664D01*
X151451639Y-40353788D01*
X151451636Y-40353787D01*
X151279410Y-40297829D01*
X151100551Y-40269500D01*
X151100546Y-40269500D01*
X150919454Y-40269500D01*
X150919449Y-40269500D01*
X150740589Y-40297829D01*
X150568363Y-40353787D01*
X150568360Y-40353788D01*
X150407002Y-40436006D01*
X150260505Y-40542441D01*
X150260500Y-40542445D01*
X150132445Y-40670500D01*
X150132441Y-40670505D01*
X150026006Y-40817002D01*
X149943788Y-40978360D01*
X149943787Y-40978363D01*
X149887829Y-41150589D01*
X149862473Y-41310678D01*
X149832544Y-41373813D01*
X149773232Y-41410744D01*
X149703369Y-41409746D01*
X149645137Y-41371136D01*
X149617527Y-41310678D01*
X149603740Y-41223639D01*
X149592171Y-41150591D01*
X149564191Y-41064476D01*
X149536212Y-40978363D01*
X149536211Y-40978360D01*
X149506474Y-40920000D01*
X149453996Y-40817006D01*
X149440396Y-40798287D01*
X149347558Y-40670505D01*
X149347554Y-40670500D01*
X149219499Y-40542445D01*
X149219494Y-40542441D01*
X149072997Y-40436006D01*
X149072996Y-40436005D01*
X149072994Y-40436004D01*
X149021300Y-40409664D01*
X148911639Y-40353788D01*
X148911636Y-40353787D01*
X148739410Y-40297829D01*
X148560551Y-40269500D01*
X148560546Y-40269500D01*
X148379454Y-40269500D01*
X148379449Y-40269500D01*
X148200589Y-40297829D01*
X148028363Y-40353787D01*
X148028360Y-40353788D01*
X147867002Y-40436006D01*
X147720505Y-40542441D01*
X147720500Y-40542445D01*
X147592445Y-40670500D01*
X147592441Y-40670505D01*
X147486006Y-40817002D01*
X147403788Y-40978360D01*
X147403787Y-40978363D01*
X147347829Y-41150589D01*
X147322473Y-41310678D01*
X147292544Y-41373813D01*
X147233232Y-41410744D01*
X147163369Y-41409746D01*
X147105137Y-41371136D01*
X147077527Y-41310678D01*
X147063740Y-41223639D01*
X147052171Y-41150591D01*
X147024191Y-41064476D01*
X146996212Y-40978363D01*
X146996211Y-40978360D01*
X146966474Y-40920000D01*
X146913996Y-40817006D01*
X146900396Y-40798287D01*
X146807558Y-40670505D01*
X146807554Y-40670500D01*
X146679499Y-40542445D01*
X146679494Y-40542441D01*
X146532997Y-40436006D01*
X146532996Y-40436005D01*
X146532994Y-40436004D01*
X146481300Y-40409664D01*
X146371639Y-40353788D01*
X146371636Y-40353787D01*
X146199410Y-40297829D01*
X146020551Y-40269500D01*
X146020546Y-40269500D01*
X145839454Y-40269500D01*
X145839449Y-40269500D01*
X145660589Y-40297829D01*
X145488363Y-40353787D01*
X145488360Y-40353788D01*
X145327002Y-40436006D01*
X145180505Y-40542441D01*
X145180500Y-40542445D01*
X145052445Y-40670500D01*
X145052441Y-40670505D01*
X144946006Y-40817002D01*
X144863788Y-40978360D01*
X144863787Y-40978363D01*
X144807829Y-41150589D01*
X144782473Y-41310678D01*
X144752544Y-41373813D01*
X144693232Y-41410744D01*
X144623369Y-41409746D01*
X144565137Y-41371136D01*
X144537527Y-41310678D01*
X144523740Y-41223639D01*
X144512171Y-41150591D01*
X144484191Y-41064476D01*
X144456212Y-40978363D01*
X144456211Y-40978360D01*
X144426474Y-40920000D01*
X144373996Y-40817006D01*
X144360396Y-40798287D01*
X144267558Y-40670505D01*
X144267554Y-40670500D01*
X144216819Y-40619765D01*
X144183334Y-40558442D01*
X144180500Y-40532084D01*
X144180500Y-39802939D01*
X144200185Y-39735900D01*
X144216819Y-39715258D01*
X145395258Y-38536819D01*
X145456581Y-38503334D01*
X145482939Y-38500500D01*
X196588844Y-38500500D01*
X196588845Y-38500499D01*
X196743497Y-38469737D01*
X196889179Y-38409394D01*
X197020289Y-38321789D01*
X197131789Y-38210289D01*
X197142871Y-38193702D01*
X197151621Y-38180609D01*
X197205233Y-38135804D01*
X197254723Y-38125500D01*
X200382390Y-38125500D01*
X200449429Y-38145185D01*
X200470071Y-38161819D01*
X202398181Y-40089929D01*
X202431666Y-40151252D01*
X202434500Y-40177610D01*
X202434500Y-53829822D01*
X202414815Y-53896861D01*
X202398181Y-53917503D01*
X201815685Y-54499999D01*
X201815685Y-54500000D01*
X202398181Y-55082496D01*
X202431666Y-55143819D01*
X202434500Y-55170177D01*
X202434500Y-58045953D01*
X202414815Y-58112992D01*
X202362011Y-58158747D01*
X202292853Y-58168691D01*
X202229297Y-58139666D01*
X202222819Y-58133634D01*
X202097213Y-58008028D01*
X201931613Y-57887715D01*
X201931612Y-57887714D01*
X201931610Y-57887713D01*
X201874653Y-57858691D01*
X201749223Y-57794781D01*
X201554534Y-57731522D01*
X201379995Y-57703878D01*
X201352352Y-57699500D01*
X201147648Y-57699500D01*
X201123329Y-57703351D01*
X200945465Y-57731522D01*
X200750776Y-57794781D01*
X200568386Y-57887715D01*
X200402786Y-58008028D01*
X200258028Y-58152786D01*
X200137715Y-58318386D01*
X200042568Y-58505122D01*
X200040871Y-58504257D01*
X200002109Y-58552357D01*
X199935815Y-58574421D01*
X199931390Y-58574500D01*
X196068610Y-58574500D01*
X196001571Y-58554815D01*
X195958181Y-58504740D01*
X195957432Y-58505122D01*
X195955890Y-58502097D01*
X195955816Y-58502011D01*
X195955634Y-58501593D01*
X195928433Y-58448209D01*
X195862287Y-58318390D01*
X195828540Y-58271941D01*
X195741971Y-58152786D01*
X195597213Y-58008028D01*
X195431613Y-57887715D01*
X195431612Y-57887714D01*
X195431610Y-57887713D01*
X195374653Y-57858691D01*
X195249223Y-57794781D01*
X195054534Y-57731522D01*
X194879995Y-57703878D01*
X194852352Y-57699500D01*
X194647648Y-57699500D01*
X194623329Y-57703351D01*
X194445465Y-57731522D01*
X194250776Y-57794781D01*
X194068386Y-57887715D01*
X193902786Y-58008028D01*
X193758028Y-58152786D01*
X193637715Y-58318386D01*
X193544781Y-58500776D01*
X193481522Y-58695465D01*
X193449500Y-58897648D01*
X193449500Y-59102351D01*
X193481522Y-59304534D01*
X193544781Y-59499223D01*
X193637715Y-59681613D01*
X193758028Y-59847213D01*
X193902786Y-59991971D01*
X194057749Y-60104556D01*
X194068390Y-60112287D01*
X194184607Y-60171503D01*
X194250776Y-60205218D01*
X194250778Y-60205218D01*
X194250781Y-60205220D01*
X194355137Y-60239127D01*
X194445465Y-60268477D01*
X194546557Y-60284488D01*
X194647648Y-60300500D01*
X194647649Y-60300500D01*
X194852351Y-60300500D01*
X194852352Y-60300500D01*
X195054534Y-60268477D01*
X195249219Y-60205220D01*
X195431610Y-60112287D01*
X195524590Y-60044732D01*
X195597213Y-59991971D01*
X195597215Y-59991968D01*
X195597219Y-59991966D01*
X195741966Y-59847219D01*
X195741968Y-59847215D01*
X195741971Y-59847213D01*
X195794732Y-59774590D01*
X195862287Y-59681610D01*
X195955220Y-59499219D01*
X195955219Y-59499219D01*
X195957432Y-59494878D01*
X195959128Y-59495742D01*
X195997891Y-59447643D01*
X196064185Y-59425579D01*
X196068610Y-59425500D01*
X199931390Y-59425500D01*
X199998429Y-59445185D01*
X200041818Y-59495259D01*
X200042568Y-59494878D01*
X200044109Y-59497902D01*
X200044184Y-59497989D01*
X200044365Y-59498406D01*
X200137715Y-59681613D01*
X200258028Y-59847213D01*
X200402786Y-59991971D01*
X200557749Y-60104556D01*
X200568390Y-60112287D01*
X200684607Y-60171503D01*
X200750776Y-60205218D01*
X200750778Y-60205218D01*
X200750781Y-60205220D01*
X200855137Y-60239127D01*
X200945465Y-60268477D01*
X201046557Y-60284488D01*
X201147648Y-60300500D01*
X201147649Y-60300500D01*
X201352351Y-60300500D01*
X201352352Y-60300500D01*
X201554534Y-60268477D01*
X201749219Y-60205220D01*
X201931610Y-60112287D01*
X202024590Y-60044732D01*
X202097213Y-59991971D01*
X202097215Y-59991968D01*
X202097219Y-59991966D01*
X202222819Y-59866366D01*
X202284142Y-59832881D01*
X202353834Y-59837865D01*
X202409767Y-59879737D01*
X202434184Y-59945201D01*
X202434500Y-59954047D01*
X202434500Y-62325567D01*
X202414815Y-62392606D01*
X202362011Y-62438361D01*
X202355991Y-62440921D01*
X202244500Y-62484888D01*
X202125288Y-62575288D01*
X202034888Y-62694500D01*
X202034887Y-62694502D01*
X201980003Y-62833677D01*
X201980003Y-62833679D01*
X201969500Y-62921140D01*
X201969500Y-63918860D01*
X201978163Y-63991002D01*
X201980003Y-64006322D01*
X202034887Y-64145497D01*
X202034888Y-64145499D01*
X202125288Y-64264711D01*
X202244500Y-64355111D01*
X202244502Y-64355112D01*
X202355990Y-64399078D01*
X202411134Y-64441983D01*
X202434327Y-64507891D01*
X202434500Y-64514432D01*
X202434500Y-65176694D01*
X202414815Y-65243733D01*
X202362011Y-65289488D01*
X202325288Y-65299809D01*
X202323680Y-65300002D01*
X202323679Y-65300002D01*
X202184502Y-65354887D01*
X202184500Y-65354888D01*
X202065288Y-65445288D01*
X201974888Y-65564500D01*
X201974887Y-65564502D01*
X201920003Y-65703677D01*
X201920003Y-65703679D01*
X201909500Y-65791140D01*
X201909500Y-66788860D01*
X201918690Y-66865388D01*
X201920003Y-66876322D01*
X201974887Y-67015497D01*
X201974888Y-67015499D01*
X202065288Y-67134711D01*
X202184500Y-67225111D01*
X202184502Y-67225112D01*
X202191798Y-67227989D01*
X202323679Y-67279997D01*
X202325278Y-67280189D01*
X202326487Y-67280707D01*
X202331391Y-67281947D01*
X202331194Y-67282725D01*
X202389492Y-67307721D01*
X202428629Y-67365601D01*
X202434500Y-67403305D01*
X202434500Y-85508193D01*
X202414815Y-85575232D01*
X202398181Y-85595874D01*
X202327836Y-85666218D01*
X202327830Y-85666226D01*
X202248781Y-85803145D01*
X202248778Y-85803152D01*
X202230036Y-85873094D01*
X202193673Y-85932754D01*
X202130826Y-85963283D01*
X202110263Y-85965000D01*
X202030000Y-85965000D01*
X202030000Y-86352500D01*
X202227435Y-86352500D01*
X202294474Y-86372185D01*
X202325810Y-86401013D01*
X202327834Y-86403651D01*
X202327835Y-86403652D01*
X202439639Y-86515456D01*
X202439641Y-86515457D01*
X202439645Y-86515460D01*
X202576564Y-86594509D01*
X202576571Y-86594513D01*
X202729298Y-86635436D01*
X202729300Y-86635436D01*
X202887410Y-86635436D01*
X202887412Y-86635436D01*
X203040139Y-86594513D01*
X203177071Y-86515456D01*
X203288875Y-86403652D01*
X203367932Y-86266720D01*
X203408855Y-86113993D01*
X203408855Y-85955879D01*
X203367932Y-85803152D01*
X203302112Y-85689147D01*
X203285500Y-85627148D01*
X203285500Y-67229826D01*
X203305185Y-67162787D01*
X203324703Y-67141692D01*
X203323716Y-67140705D01*
X203329702Y-67134717D01*
X203329711Y-67134711D01*
X203420111Y-67015500D01*
X203474997Y-66876321D01*
X203485500Y-66788860D01*
X203485500Y-65791140D01*
X203474997Y-65703679D01*
X203420111Y-65564500D01*
X203329711Y-65445289D01*
X203329709Y-65445288D01*
X203329709Y-65445287D01*
X203323714Y-65439292D01*
X203325839Y-65437166D01*
X203293038Y-65392746D01*
X203285500Y-65350173D01*
X203285500Y-64405325D01*
X203305185Y-64338286D01*
X203334573Y-64306522D01*
X203389711Y-64264711D01*
X203480111Y-64145500D01*
X203510146Y-64069339D01*
X203553052Y-64014195D01*
X203618959Y-63991002D01*
X203686944Y-64007123D01*
X203735420Y-64057440D01*
X203749500Y-64114829D01*
X203749500Y-100625500D01*
X203729815Y-100692539D01*
X203677011Y-100738294D01*
X203625500Y-100749500D01*
X104374500Y-100749500D01*
X104307461Y-100729815D01*
X104261706Y-100677011D01*
X104250500Y-100625500D01*
X104250500Y-97194785D01*
X114420001Y-97194785D01*
X114420002Y-97194808D01*
X114422908Y-97219869D01*
X114422909Y-97219873D01*
X114468211Y-97322474D01*
X114468214Y-97322479D01*
X114547520Y-97401785D01*
X114547525Y-97401788D01*
X114650123Y-97447089D01*
X114675206Y-97449999D01*
X116569999Y-97449999D01*
X117370000Y-97449999D01*
X119264786Y-97449999D01*
X119264808Y-97449997D01*
X119289869Y-97447091D01*
X119289873Y-97447090D01*
X119392474Y-97401788D01*
X119392479Y-97401785D01*
X119471785Y-97322479D01*
X119471788Y-97322474D01*
X119517089Y-97219877D01*
X119517089Y-97219875D01*
X119519999Y-97194794D01*
X119520000Y-97194791D01*
X119520000Y-95800000D01*
X117370000Y-95800000D01*
X117370000Y-97449999D01*
X116569999Y-97449999D01*
X116570000Y-97449998D01*
X116570000Y-95800000D01*
X114420001Y-95800000D01*
X114420001Y-97194785D01*
X104250500Y-97194785D01*
X104250500Y-93605205D01*
X114420000Y-93605205D01*
X114420000Y-95000000D01*
X116570000Y-95000000D01*
X117370000Y-95000000D01*
X119519999Y-95000000D01*
X119519999Y-93605214D01*
X119519997Y-93605191D01*
X119517091Y-93580130D01*
X119517090Y-93580126D01*
X119471788Y-93477525D01*
X119471785Y-93477520D01*
X119392479Y-93398214D01*
X119392474Y-93398211D01*
X119289876Y-93352910D01*
X119264794Y-93350000D01*
X117370000Y-93350000D01*
X117370000Y-95000000D01*
X116570000Y-95000000D01*
X116570000Y-93350000D01*
X114675214Y-93350000D01*
X114675191Y-93350002D01*
X114650130Y-93352908D01*
X114650126Y-93352909D01*
X114547525Y-93398211D01*
X114547520Y-93398214D01*
X114468214Y-93477520D01*
X114468211Y-93477525D01*
X114422910Y-93580122D01*
X114422910Y-93580124D01*
X114420000Y-93605205D01*
X104250500Y-93605205D01*
X104250500Y-67605131D01*
X114419500Y-67605131D01*
X114419500Y-71194856D01*
X114419502Y-71194882D01*
X114422413Y-71219987D01*
X114422415Y-71219991D01*
X114467793Y-71322764D01*
X114467794Y-71322765D01*
X114547235Y-71402206D01*
X114650009Y-71447585D01*
X114675135Y-71450500D01*
X119264864Y-71450499D01*
X119264879Y-71450497D01*
X119264882Y-71450497D01*
X119289987Y-71447586D01*
X119289988Y-71447585D01*
X119289991Y-71447585D01*
X119392765Y-71402206D01*
X119472206Y-71322765D01*
X119517585Y-71219991D01*
X119520500Y-71194865D01*
X119520500Y-69999500D01*
X119540185Y-69932461D01*
X119592989Y-69886706D01*
X119644500Y-69875500D01*
X127401679Y-69875500D01*
X127468718Y-69895185D01*
X127489360Y-69911819D01*
X129843407Y-72265866D01*
X129875501Y-72321453D01*
X129910423Y-72451785D01*
X129910426Y-72451790D01*
X129989475Y-72588709D01*
X129989479Y-72588714D01*
X129989480Y-72588716D01*
X130101284Y-72700520D01*
X130101286Y-72700521D01*
X130101290Y-72700524D01*
X130238209Y-72779573D01*
X130238216Y-72779577D01*
X130299274Y-72795937D01*
X130358932Y-72832300D01*
X130389462Y-72895147D01*
X130381168Y-72964523D01*
X130354860Y-73003392D01*
X128145071Y-75213181D01*
X128083748Y-75246666D01*
X128057390Y-75249500D01*
X128030943Y-75249500D01*
X127878216Y-75290423D01*
X127878209Y-75290426D01*
X127741290Y-75369475D01*
X127741282Y-75369481D01*
X127629481Y-75481282D01*
X127629475Y-75481290D01*
X127550426Y-75618209D01*
X127550423Y-75618216D01*
X127509500Y-75770943D01*
X127509500Y-75929057D01*
X127538975Y-76039057D01*
X127550423Y-76081783D01*
X127550426Y-76081790D01*
X127629475Y-76218709D01*
X127629479Y-76218714D01*
X127629480Y-76218716D01*
X127741284Y-76330520D01*
X127741286Y-76330521D01*
X127741290Y-76330524D01*
X127878209Y-76409573D01*
X127878216Y-76409577D01*
X128030943Y-76450500D01*
X128030945Y-76450500D01*
X128189055Y-76450500D01*
X128189057Y-76450500D01*
X128341784Y-76409577D01*
X128478716Y-76330520D01*
X128590520Y-76218716D01*
X128669577Y-76081784D01*
X128710500Y-75929057D01*
X128710500Y-75902608D01*
X128730185Y-75835569D01*
X128746814Y-75814932D01*
X131476053Y-73085692D01*
X131476058Y-73085689D01*
X131486261Y-73075485D01*
X131486263Y-73075485D01*
X131565485Y-72996263D01*
X131621503Y-72899237D01*
X131640178Y-72829540D01*
X131650500Y-72791019D01*
X131650500Y-72678982D01*
X131650500Y-71328982D01*
X131621503Y-71220763D01*
X131565485Y-71123737D01*
X131486263Y-71044515D01*
X131105996Y-70664248D01*
X131072511Y-70602925D01*
X131070738Y-70592752D01*
X131070500Y-70590944D01*
X131069471Y-70587103D01*
X131029577Y-70438216D01*
X131029573Y-70438209D01*
X130950524Y-70301290D01*
X130950518Y-70301282D01*
X130838717Y-70189481D01*
X130838709Y-70189475D01*
X130701790Y-70110426D01*
X130701786Y-70110424D01*
X130701784Y-70110423D01*
X130549057Y-70069500D01*
X130390943Y-70069500D01*
X130238216Y-70110423D01*
X130238209Y-70110426D01*
X130101290Y-70189475D01*
X130101282Y-70189481D01*
X129989481Y-70301282D01*
X129989475Y-70301290D01*
X129910426Y-70438209D01*
X129910423Y-70438216D01*
X129869500Y-70590943D01*
X129869500Y-70647679D01*
X129849815Y-70714718D01*
X129797011Y-70760473D01*
X129727853Y-70770417D01*
X129664297Y-70741392D01*
X129657819Y-70735360D01*
X127941965Y-69019506D01*
X127941964Y-69019505D01*
X127833536Y-68956905D01*
X127833537Y-68956905D01*
X127793224Y-68946103D01*
X127712601Y-68924500D01*
X127712599Y-68924500D01*
X119644499Y-68924500D01*
X119577460Y-68904815D01*
X119531705Y-68852011D01*
X119520499Y-68800500D01*
X119520499Y-67605143D01*
X119520499Y-67605136D01*
X119520497Y-67605117D01*
X119517586Y-67580012D01*
X119517585Y-67580010D01*
X119517585Y-67580009D01*
X119472206Y-67477235D01*
X119392765Y-67397794D01*
X119308762Y-67360703D01*
X119289992Y-67352415D01*
X119264865Y-67349500D01*
X114675143Y-67349500D01*
X114675117Y-67349502D01*
X114650012Y-67352413D01*
X114650008Y-67352415D01*
X114547235Y-67397793D01*
X114467794Y-67477234D01*
X114422415Y-67580006D01*
X114422415Y-67580008D01*
X114419500Y-67605131D01*
X104250500Y-67605131D01*
X104250500Y-63203920D01*
X107419499Y-63203920D01*
X107448340Y-63348907D01*
X107448343Y-63348917D01*
X107504912Y-63485488D01*
X107504919Y-63485501D01*
X107587048Y-63608415D01*
X107587051Y-63608419D01*
X107691580Y-63712948D01*
X107691584Y-63712951D01*
X107814498Y-63795080D01*
X107814511Y-63795087D01*
X107920663Y-63839056D01*
X107951087Y-63851658D01*
X107951091Y-63851658D01*
X107951092Y-63851659D01*
X108096079Y-63880500D01*
X108096082Y-63880500D01*
X108243920Y-63880500D01*
X108341462Y-63861096D01*
X108388913Y-63851658D01*
X108525495Y-63795084D01*
X108648416Y-63712951D01*
X108752951Y-63608416D01*
X108835084Y-63485495D01*
X108891658Y-63348913D01*
X108905469Y-63279481D01*
X108920500Y-63203920D01*
X108920500Y-63056079D01*
X108891659Y-62911092D01*
X108891658Y-62911091D01*
X108891658Y-62911087D01*
X108891656Y-62911082D01*
X108835087Y-62774511D01*
X108835080Y-62774498D01*
X108752951Y-62651584D01*
X108752948Y-62651580D01*
X108648419Y-62547051D01*
X108648415Y-62547048D01*
X108525501Y-62464919D01*
X108525488Y-62464912D01*
X108388917Y-62408343D01*
X108388907Y-62408340D01*
X108243920Y-62379500D01*
X108243918Y-62379500D01*
X108096082Y-62379500D01*
X108096080Y-62379500D01*
X107951092Y-62408340D01*
X107951082Y-62408343D01*
X107814511Y-62464912D01*
X107814498Y-62464919D01*
X107691584Y-62547048D01*
X107691580Y-62547051D01*
X107587051Y-62651580D01*
X107587048Y-62651584D01*
X107504919Y-62774498D01*
X107504912Y-62774511D01*
X107448343Y-62911082D01*
X107448340Y-62911092D01*
X107419500Y-63056079D01*
X107419500Y-63056082D01*
X107419500Y-63203918D01*
X107419500Y-63203920D01*
X107419499Y-63203920D01*
X104250500Y-63203920D01*
X104250500Y-58600943D01*
X134539500Y-58600943D01*
X134539500Y-58759057D01*
X134576636Y-58897648D01*
X134580423Y-58911783D01*
X134580426Y-58911790D01*
X134659475Y-59048709D01*
X134659479Y-59048714D01*
X134659480Y-59048716D01*
X134771284Y-59160520D01*
X134771286Y-59160521D01*
X134771290Y-59160524D01*
X134908209Y-59239573D01*
X134908216Y-59239577D01*
X135060943Y-59280500D01*
X135060945Y-59280500D01*
X135219055Y-59280500D01*
X135219057Y-59280500D01*
X135371784Y-59239577D01*
X135508716Y-59160520D01*
X135620520Y-59048716D01*
X135699577Y-58911784D01*
X135740500Y-58759057D01*
X135740500Y-58600943D01*
X135699577Y-58448216D01*
X135624623Y-58318390D01*
X135620524Y-58311290D01*
X135620518Y-58311282D01*
X135601819Y-58292583D01*
X135568334Y-58231260D01*
X135565500Y-58204902D01*
X135565500Y-57025098D01*
X135585185Y-56958059D01*
X135601819Y-56937417D01*
X135605500Y-56933736D01*
X135640520Y-56898716D01*
X135719577Y-56761784D01*
X135760500Y-56609057D01*
X135760500Y-56450943D01*
X135719577Y-56298216D01*
X135685304Y-56238853D01*
X135640524Y-56161290D01*
X135640518Y-56161282D01*
X135528717Y-56049481D01*
X135528709Y-56049475D01*
X135391790Y-55970426D01*
X135391786Y-55970424D01*
X135391784Y-55970423D01*
X135239057Y-55929500D01*
X135080943Y-55929500D01*
X134928216Y-55970423D01*
X134928209Y-55970426D01*
X134791290Y-56049475D01*
X134791282Y-56049481D01*
X134679481Y-56161282D01*
X134679475Y-56161290D01*
X134600426Y-56298209D01*
X134600423Y-56298216D01*
X134559500Y-56450943D01*
X134559500Y-56609057D01*
X134591906Y-56729996D01*
X134600423Y-56761783D01*
X134600426Y-56761790D01*
X134679475Y-56898709D01*
X134684426Y-56905161D01*
X134683004Y-56906251D01*
X134711666Y-56958740D01*
X134714500Y-56985098D01*
X134714500Y-58204902D01*
X134694815Y-58271941D01*
X134678181Y-58292583D01*
X134659481Y-58311282D01*
X134659475Y-58311290D01*
X134580426Y-58448209D01*
X134580423Y-58448216D01*
X134539500Y-58600943D01*
X104250500Y-58600943D01*
X104250500Y-55203920D01*
X107419499Y-55203920D01*
X107448340Y-55348907D01*
X107448343Y-55348917D01*
X107504912Y-55485488D01*
X107504919Y-55485501D01*
X107587048Y-55608415D01*
X107587051Y-55608419D01*
X107691580Y-55712948D01*
X107691584Y-55712951D01*
X107814498Y-55795080D01*
X107814511Y-55795087D01*
X107951082Y-55851656D01*
X107951087Y-55851658D01*
X107951091Y-55851658D01*
X107951092Y-55851659D01*
X108096079Y-55880500D01*
X108096082Y-55880500D01*
X108243920Y-55880500D01*
X108341462Y-55861096D01*
X108388913Y-55851658D01*
X108525495Y-55795084D01*
X108648416Y-55712951D01*
X108752951Y-55608416D01*
X108835084Y-55485495D01*
X108891658Y-55348913D01*
X108913096Y-55241140D01*
X113564500Y-55241140D01*
X113564500Y-56238860D01*
X113571627Y-56298209D01*
X113575003Y-56326322D01*
X113629887Y-56465497D01*
X113629888Y-56465499D01*
X113720288Y-56584711D01*
X113839500Y-56675111D01*
X113839502Y-56675112D01*
X113909089Y-56702554D01*
X113978679Y-56729997D01*
X114066140Y-56740500D01*
X114066146Y-56740500D01*
X114638854Y-56740500D01*
X114638860Y-56740500D01*
X114726321Y-56729997D01*
X114865500Y-56675111D01*
X114984711Y-56584711D01*
X115075111Y-56465500D01*
X115129997Y-56326321D01*
X115140500Y-56238860D01*
X115140500Y-55241140D01*
X115439500Y-55241140D01*
X115439500Y-56238860D01*
X115446627Y-56298209D01*
X115450003Y-56326322D01*
X115504887Y-56465497D01*
X115504888Y-56465499D01*
X115595288Y-56584711D01*
X115714500Y-56675111D01*
X115714502Y-56675112D01*
X115784089Y-56702554D01*
X115853679Y-56729997D01*
X115941140Y-56740500D01*
X115941146Y-56740500D01*
X116513854Y-56740500D01*
X116513860Y-56740500D01*
X116601321Y-56729997D01*
X116740500Y-56675111D01*
X116859711Y-56584711D01*
X116950111Y-56465500D01*
X117004997Y-56326321D01*
X117015500Y-56238860D01*
X117015500Y-55241140D01*
X117004997Y-55153679D01*
X116950111Y-55014500D01*
X116893700Y-54940110D01*
X116859711Y-54895288D01*
X116740499Y-54804888D01*
X116740497Y-54804887D01*
X116601322Y-54750003D01*
X116588826Y-54748502D01*
X116513860Y-54739500D01*
X115941140Y-54739500D01*
X115875544Y-54747377D01*
X115853677Y-54750003D01*
X115714502Y-54804887D01*
X115714500Y-54804888D01*
X115595288Y-54895288D01*
X115504888Y-55014500D01*
X115504887Y-55014502D01*
X115450003Y-55153677D01*
X115450003Y-55153679D01*
X115439500Y-55241140D01*
X115140500Y-55241140D01*
X115129997Y-55153679D01*
X115075111Y-55014500D01*
X115018700Y-54940110D01*
X114984711Y-54895288D01*
X114865499Y-54804888D01*
X114865497Y-54804887D01*
X114726322Y-54750003D01*
X114713826Y-54748502D01*
X114638860Y-54739500D01*
X114066140Y-54739500D01*
X114000544Y-54747377D01*
X113978677Y-54750003D01*
X113839502Y-54804887D01*
X113839500Y-54804888D01*
X113720288Y-54895288D01*
X113629888Y-55014500D01*
X113629887Y-55014502D01*
X113575003Y-55153677D01*
X113575003Y-55153679D01*
X113564500Y-55241140D01*
X108913096Y-55241140D01*
X108920500Y-55203918D01*
X108920500Y-55056082D01*
X108920500Y-55056079D01*
X108891659Y-54911092D01*
X108891658Y-54911091D01*
X108891658Y-54911087D01*
X108885114Y-54895288D01*
X108835087Y-54774511D01*
X108835080Y-54774498D01*
X108755172Y-54654908D01*
X108755171Y-54654906D01*
X108755170Y-54654905D01*
X108752950Y-54651582D01*
X108692257Y-54590889D01*
X121174500Y-54590889D01*
X121174500Y-54764110D01*
X121197779Y-54911092D01*
X121201598Y-54935201D01*
X121255127Y-55099945D01*
X121333768Y-55254288D01*
X121435586Y-55394428D01*
X121558072Y-55516914D01*
X121698212Y-55618732D01*
X121852555Y-55697373D01*
X122017299Y-55750902D01*
X122188389Y-55778000D01*
X122188390Y-55778000D01*
X122361610Y-55778000D01*
X122361611Y-55778000D01*
X122532701Y-55750902D01*
X122697445Y-55697373D01*
X122851788Y-55618732D01*
X122991928Y-55516914D01*
X123114414Y-55394428D01*
X123216232Y-55254288D01*
X123294873Y-55099945D01*
X123348402Y-54935201D01*
X123375500Y-54764111D01*
X123375500Y-54590889D01*
X123348402Y-54419799D01*
X123294873Y-54255055D01*
X123294870Y-54255049D01*
X123234716Y-54136988D01*
X123234715Y-54136987D01*
X123216231Y-54100711D01*
X123204379Y-54084398D01*
X128794500Y-54084398D01*
X128794500Y-55270602D01*
X128800126Y-55317454D01*
X128805122Y-55359061D01*
X128860639Y-55499843D01*
X128952077Y-55620422D01*
X129072656Y-55711860D01*
X129072657Y-55711860D01*
X129072658Y-55711861D01*
X129213436Y-55767377D01*
X129301898Y-55778000D01*
X129301903Y-55778000D01*
X130488097Y-55778000D01*
X130488102Y-55778000D01*
X130576564Y-55767377D01*
X130717342Y-55711861D01*
X130837922Y-55620422D01*
X130929361Y-55499842D01*
X130984877Y-55359064D01*
X130995500Y-55270602D01*
X130995500Y-54084398D01*
X130984877Y-53995936D01*
X130929361Y-53855158D01*
X130929360Y-53855157D01*
X130929360Y-53855156D01*
X130837922Y-53734577D01*
X130717343Y-53643139D01*
X130576561Y-53587622D01*
X130530926Y-53582142D01*
X130488102Y-53577000D01*
X129301898Y-53577000D01*
X129262853Y-53581688D01*
X129213438Y-53587622D01*
X129072656Y-53643139D01*
X128952077Y-53734577D01*
X128860639Y-53855156D01*
X128805122Y-53995938D01*
X128799188Y-54045353D01*
X128794500Y-54084398D01*
X123204379Y-54084398D01*
X123114414Y-53960572D01*
X122991928Y-53838086D01*
X122851788Y-53736268D01*
X122697445Y-53657627D01*
X122532701Y-53604098D01*
X122532699Y-53604097D01*
X122532698Y-53604097D01*
X122401271Y-53583281D01*
X122361611Y-53577000D01*
X122188389Y-53577000D01*
X122148728Y-53583281D01*
X122017302Y-53604097D01*
X121852552Y-53657628D01*
X121698211Y-53736268D01*
X121618256Y-53794359D01*
X121558072Y-53838086D01*
X121558070Y-53838088D01*
X121558069Y-53838088D01*
X121435588Y-53960569D01*
X121435588Y-53960570D01*
X121435586Y-53960572D01*
X121406233Y-54000973D01*
X121333768Y-54100711D01*
X121255128Y-54255052D01*
X121201597Y-54419802D01*
X121174500Y-54590889D01*
X108692257Y-54590889D01*
X108648419Y-54547051D01*
X108648415Y-54547048D01*
X108525501Y-54464919D01*
X108525488Y-54464912D01*
X108388917Y-54408343D01*
X108388907Y-54408340D01*
X108243920Y-54379500D01*
X108243918Y-54379500D01*
X108096082Y-54379500D01*
X108096080Y-54379500D01*
X107951092Y-54408340D01*
X107951082Y-54408343D01*
X107814511Y-54464912D01*
X107814498Y-54464919D01*
X107691584Y-54547048D01*
X107691580Y-54547051D01*
X107587051Y-54651580D01*
X107587048Y-54651584D01*
X107504919Y-54774498D01*
X107504912Y-54774511D01*
X107448343Y-54911082D01*
X107448340Y-54911092D01*
X107419500Y-55056079D01*
X107419500Y-55056082D01*
X107419500Y-55203918D01*
X107419500Y-55203920D01*
X107419499Y-55203920D01*
X104250500Y-55203920D01*
X104250500Y-52471140D01*
X113564500Y-52471140D01*
X113564500Y-53468860D01*
X113573690Y-53545388D01*
X113575003Y-53556322D01*
X113629887Y-53695497D01*
X113629888Y-53695499D01*
X113720288Y-53814711D01*
X113839500Y-53905111D01*
X113839502Y-53905112D01*
X113870923Y-53917503D01*
X113978679Y-53959997D01*
X114066140Y-53970500D01*
X114066146Y-53970500D01*
X114638854Y-53970500D01*
X114638860Y-53970500D01*
X114726321Y-53959997D01*
X114865500Y-53905111D01*
X114984711Y-53814711D01*
X115075111Y-53695500D01*
X115129997Y-53556321D01*
X115140500Y-53468860D01*
X115140500Y-52835110D01*
X115149144Y-52805669D01*
X115155668Y-52775683D01*
X115159422Y-52770667D01*
X115160185Y-52768071D01*
X115176819Y-52747429D01*
X115227819Y-52696429D01*
X115289142Y-52662944D01*
X115358834Y-52667928D01*
X115414767Y-52709800D01*
X115439184Y-52775264D01*
X115439500Y-52784110D01*
X115439500Y-53468860D01*
X115448690Y-53545388D01*
X115450003Y-53556322D01*
X115504887Y-53695497D01*
X115504888Y-53695499D01*
X115595288Y-53814711D01*
X115714500Y-53905111D01*
X115714502Y-53905112D01*
X115745923Y-53917503D01*
X115853679Y-53959997D01*
X115941140Y-53970500D01*
X115941146Y-53970500D01*
X116513854Y-53970500D01*
X116513860Y-53970500D01*
X116601321Y-53959997D01*
X116740500Y-53905111D01*
X116859711Y-53814711D01*
X116950111Y-53695500D01*
X117004997Y-53556321D01*
X117015500Y-53468860D01*
X117015500Y-52471140D01*
X117004997Y-52383679D01*
X116950111Y-52244500D01*
X116859711Y-52125288D01*
X116740499Y-52034888D01*
X116740497Y-52034887D01*
X116601322Y-51980003D01*
X116588826Y-51978502D01*
X116513860Y-51969500D01*
X116513854Y-51969500D01*
X116254110Y-51969500D01*
X116232864Y-51963261D01*
X116210776Y-51961682D01*
X116199992Y-51953609D01*
X116187071Y-51949815D01*
X116172571Y-51933081D01*
X116154843Y-51919810D01*
X116150135Y-51907189D01*
X116141316Y-51897011D01*
X116138164Y-51875093D01*
X116130426Y-51854346D01*
X116133288Y-51841185D01*
X116131372Y-51827853D01*
X116140571Y-51807709D01*
X116145278Y-51786073D01*
X116158546Y-51768347D01*
X116160397Y-51764297D01*
X116166429Y-51757819D01*
X116202429Y-51721819D01*
X116263752Y-51688334D01*
X116290110Y-51685500D01*
X140684902Y-51685500D01*
X140751941Y-51705185D01*
X140772583Y-51721819D01*
X140791284Y-51740520D01*
X140791286Y-51740521D01*
X140791290Y-51740524D01*
X140907660Y-51807709D01*
X140928216Y-51819577D01*
X141080943Y-51860500D01*
X141080945Y-51860500D01*
X141239055Y-51860500D01*
X141239057Y-51860500D01*
X141391784Y-51819577D01*
X141528716Y-51740520D01*
X141640520Y-51628716D01*
X141719577Y-51491784D01*
X141760500Y-51339057D01*
X141760500Y-51180943D01*
X141719577Y-51028216D01*
X141719573Y-51028209D01*
X141640524Y-50891290D01*
X141640518Y-50891282D01*
X141528717Y-50779481D01*
X141528709Y-50779475D01*
X141391790Y-50700426D01*
X141391786Y-50700424D01*
X141391784Y-50700423D01*
X141239057Y-50659500D01*
X141080943Y-50659500D01*
X140928216Y-50700423D01*
X140928209Y-50700426D01*
X140791290Y-50779475D01*
X140791282Y-50779481D01*
X140772583Y-50798181D01*
X140711260Y-50831666D01*
X140684902Y-50834500D01*
X116118518Y-50834500D01*
X116006481Y-50834500D01*
X115898263Y-50863497D01*
X115898261Y-50863498D01*
X115898260Y-50863498D01*
X115801240Y-50919513D01*
X115801234Y-50919517D01*
X114781822Y-51938928D01*
X114720499Y-51972413D01*
X114679359Y-51974363D01*
X114660082Y-51972048D01*
X114638860Y-51969500D01*
X114066140Y-51969500D01*
X114000544Y-51977377D01*
X113978677Y-51980003D01*
X113839502Y-52034887D01*
X113839500Y-52034888D01*
X113720288Y-52125288D01*
X113629888Y-52244500D01*
X113629887Y-52244502D01*
X113575003Y-52383677D01*
X113575003Y-52383679D01*
X113564500Y-52471140D01*
X104250500Y-52471140D01*
X104250500Y-44485883D01*
X111820000Y-44485883D01*
X111820000Y-44714116D01*
X111855704Y-44939544D01*
X111926230Y-45156604D01*
X112000988Y-45303324D01*
X112508558Y-44795754D01*
X112515167Y-44828976D01*
X112574342Y-44971837D01*
X112660251Y-45100408D01*
X112769592Y-45209749D01*
X112898163Y-45295658D01*
X113041024Y-45354833D01*
X113074243Y-45361440D01*
X112566673Y-45869009D01*
X112713395Y-45943768D01*
X112930455Y-46014295D01*
X113155884Y-46050000D01*
X113384116Y-46050000D01*
X113609544Y-46014295D01*
X113826606Y-45943767D01*
X113973325Y-45869009D01*
X113465756Y-45361440D01*
X113498976Y-45354833D01*
X113641837Y-45295658D01*
X113770408Y-45209749D01*
X113879749Y-45100408D01*
X113965658Y-44971837D01*
X114024833Y-44828976D01*
X114031440Y-44795756D01*
X114539009Y-45303325D01*
X114613767Y-45156606D01*
X114684295Y-44939544D01*
X114720000Y-44714116D01*
X114720000Y-44485883D01*
X114684295Y-44260455D01*
X114613768Y-44043395D01*
X114539009Y-43896673D01*
X114031440Y-44404242D01*
X114024833Y-44371024D01*
X113965658Y-44228163D01*
X113879749Y-44099592D01*
X113770408Y-43990251D01*
X113641837Y-43904342D01*
X113498976Y-43845167D01*
X113465754Y-43838558D01*
X113973324Y-43330989D01*
X113826604Y-43256230D01*
X113609544Y-43185704D01*
X113384116Y-43150000D01*
X113155884Y-43150000D01*
X112930455Y-43185704D01*
X112713395Y-43256230D01*
X112713392Y-43256231D01*
X112566674Y-43330989D01*
X113074244Y-43838559D01*
X113041024Y-43845167D01*
X112898163Y-43904342D01*
X112769592Y-43990251D01*
X112660251Y-44099592D01*
X112574342Y-44228163D01*
X112515167Y-44371024D01*
X112508559Y-44404244D01*
X112000989Y-43896674D01*
X111926231Y-44043392D01*
X111926230Y-44043395D01*
X111855704Y-44260455D01*
X111820000Y-44485883D01*
X104250500Y-44485883D01*
X104250500Y-41047065D01*
X113174500Y-41047065D01*
X113174500Y-41292934D01*
X113195342Y-41451233D01*
X113206591Y-41536677D01*
X113266177Y-41759055D01*
X113270222Y-41774152D01*
X113270225Y-41774162D01*
X113351482Y-41970332D01*
X113364306Y-42001292D01*
X113487233Y-42214208D01*
X113487235Y-42214211D01*
X113487236Y-42214212D01*
X113636897Y-42409254D01*
X113636903Y-42409261D01*
X113810738Y-42583096D01*
X113810745Y-42583102D01*
X113888791Y-42642989D01*
X114005792Y-42732767D01*
X114218708Y-42855694D01*
X114370591Y-42918606D01*
X114417943Y-42938220D01*
X114445847Y-42949778D01*
X114683323Y-43013409D01*
X114927073Y-43045500D01*
X114927080Y-43045500D01*
X115172920Y-43045500D01*
X115172927Y-43045500D01*
X115416677Y-43013409D01*
X115654153Y-42949778D01*
X115737798Y-42915131D01*
X116789500Y-42915131D01*
X116789500Y-44504856D01*
X116789502Y-44504882D01*
X116792413Y-44529987D01*
X116792415Y-44529991D01*
X116837793Y-44632764D01*
X116837794Y-44632765D01*
X116917235Y-44712206D01*
X117020009Y-44757585D01*
X117045135Y-44760500D01*
X117848023Y-44760499D01*
X117915062Y-44780183D01*
X117960817Y-44832987D01*
X117970761Y-44902146D01*
X117951126Y-44953388D01*
X117925059Y-44992400D01*
X117845870Y-45183579D01*
X117845868Y-45183587D01*
X117805500Y-45386530D01*
X117805500Y-45593469D01*
X117845868Y-45796412D01*
X117845870Y-45796420D01*
X117914078Y-45961089D01*
X117925059Y-45987598D01*
X117966754Y-46050000D01*
X118040024Y-46159657D01*
X118186342Y-46305975D01*
X118186345Y-46305977D01*
X118358402Y-46420941D01*
X118549580Y-46500130D01*
X118750016Y-46539999D01*
X118752530Y-46540499D01*
X118752534Y-46540500D01*
X118752535Y-46540500D01*
X118959466Y-46540500D01*
X118959467Y-46540499D01*
X119162420Y-46500130D01*
X119260943Y-46459320D01*
X120484363Y-46459320D01*
X120581725Y-46499649D01*
X120581733Y-46499651D01*
X120784579Y-46539999D01*
X120784583Y-46540000D01*
X120991417Y-46540000D01*
X120991420Y-46539999D01*
X121194266Y-46499651D01*
X121194270Y-46499650D01*
X121291635Y-46459320D01*
X120888001Y-46055686D01*
X120888000Y-46055686D01*
X120484363Y-46459320D01*
X119260943Y-46459320D01*
X119353598Y-46420941D01*
X119525655Y-46305977D01*
X119671977Y-46159655D01*
X119786941Y-45987598D01*
X119793984Y-45970596D01*
X119837820Y-45916195D01*
X119904113Y-45894127D01*
X119917138Y-45895175D01*
X120465730Y-45346583D01*
X120443000Y-45431415D01*
X120443000Y-45548585D01*
X120473326Y-45661764D01*
X120531911Y-45763236D01*
X120614764Y-45846089D01*
X120716236Y-45904674D01*
X120829415Y-45935000D01*
X120946585Y-45935000D01*
X121059764Y-45904674D01*
X121161236Y-45846089D01*
X121244089Y-45763236D01*
X121302674Y-45661764D01*
X121333000Y-45548585D01*
X121333000Y-45431415D01*
X121310270Y-45346585D01*
X121861772Y-45898087D01*
X121912854Y-45902658D01*
X121968032Y-45945520D01*
X121982016Y-45970596D01*
X121989056Y-45987594D01*
X122104024Y-46159657D01*
X122250342Y-46305975D01*
X122250345Y-46305977D01*
X122422402Y-46420941D01*
X122613580Y-46500130D01*
X122814016Y-46539999D01*
X122816530Y-46540499D01*
X122816534Y-46540500D01*
X122816535Y-46540500D01*
X123023466Y-46540500D01*
X123023467Y-46540499D01*
X123226420Y-46500130D01*
X123417598Y-46420941D01*
X123589655Y-46305977D01*
X123735977Y-46159655D01*
X123832898Y-46014600D01*
X123886509Y-45969796D01*
X123955834Y-45961089D01*
X124018862Y-45991243D01*
X124039100Y-46014598D01*
X124066159Y-46055095D01*
X124136024Y-46159657D01*
X124282342Y-46305975D01*
X124282345Y-46305977D01*
X124454402Y-46420941D01*
X124645580Y-46500130D01*
X124846016Y-46539999D01*
X124848530Y-46540499D01*
X124848534Y-46540500D01*
X124848535Y-46540500D01*
X125055466Y-46540500D01*
X125055467Y-46540499D01*
X125258420Y-46500130D01*
X125449598Y-46420941D01*
X125621655Y-46305977D01*
X125767977Y-46159655D01*
X125882941Y-45987598D01*
X125962130Y-45796420D01*
X126002500Y-45593465D01*
X126002500Y-45386535D01*
X125962130Y-45183580D01*
X125882941Y-44992402D01*
X125767977Y-44820345D01*
X125767975Y-44820342D01*
X125621657Y-44674024D01*
X125514777Y-44602610D01*
X125449598Y-44559059D01*
X125449599Y-44559059D01*
X125449597Y-44559058D01*
X125272937Y-44485883D01*
X128080000Y-44485883D01*
X128080000Y-44714116D01*
X128115704Y-44939544D01*
X128186230Y-45156604D01*
X128260988Y-45303324D01*
X128768558Y-44795754D01*
X128775167Y-44828976D01*
X128834342Y-44971837D01*
X128920251Y-45100408D01*
X129029592Y-45209749D01*
X129158163Y-45295658D01*
X129301024Y-45354833D01*
X129334243Y-45361440D01*
X128826673Y-45869009D01*
X128973395Y-45943768D01*
X129190455Y-46014295D01*
X129415884Y-46050000D01*
X129644116Y-46050000D01*
X129869544Y-46014295D01*
X130086606Y-45943767D01*
X130233325Y-45869009D01*
X129725756Y-45361440D01*
X129758976Y-45354833D01*
X129901837Y-45295658D01*
X130030408Y-45209749D01*
X130139749Y-45100408D01*
X130225658Y-44971837D01*
X130284833Y-44828976D01*
X130291440Y-44795756D01*
X130799009Y-45303325D01*
X130873767Y-45156606D01*
X130944295Y-44939544D01*
X130980000Y-44714116D01*
X130980000Y-44485883D01*
X130946984Y-44277433D01*
X130946983Y-44277428D01*
X130944294Y-44260450D01*
X130873768Y-44043395D01*
X130799009Y-43896673D01*
X130291440Y-44404242D01*
X130284833Y-44371024D01*
X130225658Y-44228163D01*
X130139749Y-44099592D01*
X130030408Y-43990251D01*
X129901837Y-43904342D01*
X129758976Y-43845167D01*
X129725754Y-43838558D01*
X130233324Y-43330989D01*
X130086604Y-43256230D01*
X129869544Y-43185704D01*
X129644116Y-43150000D01*
X129415884Y-43150000D01*
X129190455Y-43185704D01*
X128973395Y-43256230D01*
X128973392Y-43256231D01*
X128826674Y-43330989D01*
X129334244Y-43838559D01*
X129301024Y-43845167D01*
X129158163Y-43904342D01*
X129029592Y-43990251D01*
X128920251Y-44099592D01*
X128834342Y-44228163D01*
X128775167Y-44371024D01*
X128768559Y-44404244D01*
X128260989Y-43896674D01*
X128186231Y-44043392D01*
X128186230Y-44043395D01*
X128115704Y-44260455D01*
X128080000Y-44485883D01*
X125272937Y-44485883D01*
X125258420Y-44479870D01*
X125258412Y-44479868D01*
X125055469Y-44439500D01*
X125055465Y-44439500D01*
X124943977Y-44439500D01*
X124876938Y-44419815D01*
X124831183Y-44367011D01*
X124821239Y-44297853D01*
X124840874Y-44246610D01*
X124866941Y-44207598D01*
X124946130Y-44016420D01*
X124986500Y-43813465D01*
X124986500Y-43606535D01*
X124946130Y-43403580D01*
X124866941Y-43212402D01*
X124751977Y-43040345D01*
X124751975Y-43040342D01*
X124605657Y-42894024D01*
X124445834Y-42787235D01*
X124433598Y-42779059D01*
X124242420Y-42699870D01*
X124242412Y-42699868D01*
X124039469Y-42659500D01*
X124039465Y-42659500D01*
X123832535Y-42659500D01*
X123832530Y-42659500D01*
X123629587Y-42699868D01*
X123629579Y-42699870D01*
X123438403Y-42779058D01*
X123266342Y-42894024D01*
X123120024Y-43040342D01*
X123005058Y-43212403D01*
X122998015Y-43229406D01*
X122954172Y-43283808D01*
X122887877Y-43305871D01*
X122874860Y-43304823D01*
X122326270Y-43853413D01*
X122349000Y-43768585D01*
X122349000Y-43651415D01*
X122318674Y-43538236D01*
X122260089Y-43436764D01*
X122177236Y-43353911D01*
X122075764Y-43295326D01*
X121962585Y-43265000D01*
X121845415Y-43265000D01*
X121732236Y-43295326D01*
X121630764Y-43353911D01*
X121547911Y-43436764D01*
X121489326Y-43538236D01*
X121459000Y-43651415D01*
X121459000Y-43768585D01*
X121481730Y-43853416D01*
X120930224Y-43301910D01*
X120879143Y-43297340D01*
X120823966Y-43254476D01*
X120809983Y-43229402D01*
X120802942Y-43212405D01*
X120802941Y-43212403D01*
X120802941Y-43212402D01*
X120687977Y-43040345D01*
X120687975Y-43040342D01*
X120541658Y-42894025D01*
X120541654Y-42894022D01*
X120527544Y-42884594D01*
X120381834Y-42787235D01*
X120369598Y-42779059D01*
X120276939Y-42740678D01*
X121500364Y-42740678D01*
X121904000Y-43144314D01*
X121904001Y-43144314D01*
X122307635Y-42740678D01*
X122210277Y-42700351D01*
X122210265Y-42700348D01*
X122007420Y-42660000D01*
X121800579Y-42660000D01*
X121597734Y-42700348D01*
X121597727Y-42700350D01*
X121500364Y-42740678D01*
X120276939Y-42740678D01*
X120178420Y-42699870D01*
X120178412Y-42699868D01*
X119975469Y-42659500D01*
X119975465Y-42659500D01*
X119768535Y-42659500D01*
X119768530Y-42659500D01*
X119565587Y-42699868D01*
X119565579Y-42699870D01*
X119374403Y-42779058D01*
X119202344Y-42894023D01*
X119101904Y-42994463D01*
X119040581Y-43027947D01*
X118970889Y-43022963D01*
X118914956Y-42981091D01*
X118891650Y-42918606D01*
X118890912Y-42918692D01*
X118890564Y-42915693D01*
X118890539Y-42915626D01*
X118890516Y-42915285D01*
X118887586Y-42890012D01*
X118887585Y-42890010D01*
X118887585Y-42890009D01*
X118842206Y-42787235D01*
X118762765Y-42707794D01*
X118745906Y-42700350D01*
X118659992Y-42662415D01*
X118634865Y-42659500D01*
X117045143Y-42659500D01*
X117045117Y-42659502D01*
X117020012Y-42662413D01*
X117020008Y-42662415D01*
X116917235Y-42707793D01*
X116837794Y-42787234D01*
X116792415Y-42890006D01*
X116792415Y-42890008D01*
X116789500Y-42915131D01*
X115737798Y-42915131D01*
X115881292Y-42855694D01*
X116094208Y-42732767D01*
X116289256Y-42583101D01*
X116463101Y-42409256D01*
X116612767Y-42214208D01*
X116735694Y-42001292D01*
X116829778Y-41774153D01*
X116893409Y-41536677D01*
X116925500Y-41292927D01*
X116925500Y-41047073D01*
X116925499Y-41047065D01*
X125874500Y-41047065D01*
X125874500Y-41292934D01*
X125895342Y-41451233D01*
X125906591Y-41536677D01*
X125966177Y-41759055D01*
X125970222Y-41774152D01*
X125970225Y-41774162D01*
X126051482Y-41970332D01*
X126064306Y-42001292D01*
X126187233Y-42214208D01*
X126187235Y-42214211D01*
X126187236Y-42214212D01*
X126336897Y-42409254D01*
X126336903Y-42409261D01*
X126510738Y-42583096D01*
X126510745Y-42583102D01*
X126588791Y-42642989D01*
X126705792Y-42732767D01*
X126918708Y-42855694D01*
X127070591Y-42918606D01*
X127117943Y-42938220D01*
X127145847Y-42949778D01*
X127383323Y-43013409D01*
X127627073Y-43045500D01*
X127627080Y-43045500D01*
X127872920Y-43045500D01*
X127872927Y-43045500D01*
X128116677Y-43013409D01*
X128354153Y-42949778D01*
X128581292Y-42855694D01*
X128794208Y-42732767D01*
X128989256Y-42583101D01*
X129163101Y-42409256D01*
X129270527Y-42269256D01*
X132440000Y-42269256D01*
X132440000Y-42570743D01*
X132440001Y-42570759D01*
X132479353Y-42869667D01*
X132557389Y-43160901D01*
X132672765Y-43439443D01*
X132672770Y-43439454D01*
X132823512Y-43700545D01*
X132823523Y-43700562D01*
X132854014Y-43740298D01*
X132854015Y-43740298D01*
X133545338Y-43048974D01*
X133585377Y-43127554D01*
X133710278Y-43299466D01*
X133860534Y-43449722D01*
X134032446Y-43574623D01*
X134111023Y-43614660D01*
X133419700Y-44305983D01*
X133459446Y-44336481D01*
X133459454Y-44336487D01*
X133720545Y-44487229D01*
X133720556Y-44487234D01*
X133999098Y-44602610D01*
X134290332Y-44680646D01*
X134589240Y-44719998D01*
X134589257Y-44720000D01*
X134890743Y-44720000D01*
X134890759Y-44719998D01*
X135189667Y-44680646D01*
X135480901Y-44602610D01*
X135759443Y-44487234D01*
X135759454Y-44487229D01*
X136020549Y-44336484D01*
X136060298Y-44305983D01*
X136060298Y-44305982D01*
X135368976Y-43614660D01*
X135447554Y-43574623D01*
X135619466Y-43449722D01*
X135769722Y-43299466D01*
X135894623Y-43127554D01*
X135934660Y-43048976D01*
X136625982Y-43740298D01*
X136625983Y-43740298D01*
X136656484Y-43700549D01*
X136807229Y-43439454D01*
X136807234Y-43439443D01*
X136922610Y-43160901D01*
X137000646Y-42869667D01*
X137039998Y-42570759D01*
X137040000Y-42570743D01*
X137040000Y-42314785D01*
X139700001Y-42314785D01*
X139700002Y-42314808D01*
X139702908Y-42339869D01*
X139702909Y-42339873D01*
X139748211Y-42442474D01*
X139748214Y-42442479D01*
X139827520Y-42521785D01*
X139827525Y-42521788D01*
X139930123Y-42567089D01*
X139955206Y-42569999D01*
X140449999Y-42569999D01*
X140450000Y-42569998D01*
X140450000Y-41820000D01*
X139700001Y-41820000D01*
X139700001Y-42314785D01*
X137040000Y-42314785D01*
X137040000Y-42269256D01*
X137039998Y-42269240D01*
X137000646Y-41970332D01*
X136955202Y-41800732D01*
X136922610Y-41679098D01*
X136807234Y-41400556D01*
X136807229Y-41400545D01*
X136656487Y-41139454D01*
X136656481Y-41139446D01*
X136625983Y-41099700D01*
X135934660Y-41791023D01*
X135894623Y-41712446D01*
X135769722Y-41540534D01*
X135619466Y-41390278D01*
X135447554Y-41265377D01*
X135368974Y-41225338D01*
X136060298Y-40534015D01*
X136060298Y-40534014D01*
X136048818Y-40525205D01*
X139700000Y-40525205D01*
X139700000Y-41020000D01*
X140450000Y-41020000D01*
X140450000Y-40270000D01*
X139955214Y-40270000D01*
X139955191Y-40270002D01*
X139930130Y-40272908D01*
X139930126Y-40272909D01*
X139827525Y-40318211D01*
X139827520Y-40318214D01*
X139748214Y-40397520D01*
X139748211Y-40397525D01*
X139702910Y-40500122D01*
X139702910Y-40500124D01*
X139700000Y-40525205D01*
X136048818Y-40525205D01*
X136020562Y-40503523D01*
X136020545Y-40503512D01*
X135759454Y-40352770D01*
X135759443Y-40352765D01*
X135480901Y-40237389D01*
X135189667Y-40159353D01*
X134890759Y-40120001D01*
X134890743Y-40120000D01*
X134589257Y-40120000D01*
X134589240Y-40120001D01*
X134290332Y-40159353D01*
X133999098Y-40237389D01*
X133720556Y-40352765D01*
X133720545Y-40352770D01*
X133459454Y-40503511D01*
X133459440Y-40503521D01*
X133419700Y-40534014D01*
X134111024Y-41225339D01*
X134032446Y-41265377D01*
X133860534Y-41390278D01*
X133710278Y-41540534D01*
X133585377Y-41712446D01*
X133545339Y-41791024D01*
X132854014Y-41099700D01*
X132823521Y-41139440D01*
X132823511Y-41139454D01*
X132672770Y-41400545D01*
X132672765Y-41400556D01*
X132557389Y-41679098D01*
X132479353Y-41970332D01*
X132440001Y-42269240D01*
X132440000Y-42269256D01*
X129270527Y-42269256D01*
X129312767Y-42214208D01*
X129435694Y-42001292D01*
X129529778Y-41774153D01*
X129593409Y-41536677D01*
X129625500Y-41292927D01*
X129625500Y-41047073D01*
X129593409Y-40803323D01*
X129529778Y-40565847D01*
X129435694Y-40338708D01*
X129312767Y-40125792D01*
X129163101Y-39930744D01*
X129163096Y-39930738D01*
X128989261Y-39756903D01*
X128989254Y-39756897D01*
X128794212Y-39607236D01*
X128794211Y-39607235D01*
X128794208Y-39607233D01*
X128581292Y-39484306D01*
X128581285Y-39484303D01*
X128354162Y-39390225D01*
X128354155Y-39390223D01*
X128354153Y-39390222D01*
X128116677Y-39326591D01*
X128075939Y-39321227D01*
X127872934Y-39294500D01*
X127872927Y-39294500D01*
X127627073Y-39294500D01*
X127627065Y-39294500D01*
X127395059Y-39325045D01*
X127383323Y-39326591D01*
X127328958Y-39341158D01*
X127145847Y-39390222D01*
X127145837Y-39390225D01*
X126918714Y-39484303D01*
X126918705Y-39484307D01*
X126705787Y-39607236D01*
X126510745Y-39756897D01*
X126510738Y-39756903D01*
X126336903Y-39930738D01*
X126336897Y-39930745D01*
X126187236Y-40125787D01*
X126064307Y-40338705D01*
X126064303Y-40338714D01*
X125970225Y-40565837D01*
X125970222Y-40565847D01*
X125957304Y-40614060D01*
X125906592Y-40803320D01*
X125906590Y-40803331D01*
X125874500Y-41047065D01*
X116925499Y-41047065D01*
X116893409Y-40803323D01*
X116829778Y-40565847D01*
X116735694Y-40338708D01*
X116612767Y-40125792D01*
X116463101Y-39930744D01*
X116463096Y-39930738D01*
X116289261Y-39756903D01*
X116289254Y-39756897D01*
X116094212Y-39607236D01*
X116094211Y-39607235D01*
X116094208Y-39607233D01*
X115881292Y-39484306D01*
X115881285Y-39484303D01*
X115654162Y-39390225D01*
X115654155Y-39390223D01*
X115654153Y-39390222D01*
X115416677Y-39326591D01*
X115375939Y-39321227D01*
X115172934Y-39294500D01*
X115172927Y-39294500D01*
X114927073Y-39294500D01*
X114927065Y-39294500D01*
X114695059Y-39325045D01*
X114683323Y-39326591D01*
X114628958Y-39341158D01*
X114445847Y-39390222D01*
X114445837Y-39390225D01*
X114218714Y-39484303D01*
X114218705Y-39484307D01*
X114005787Y-39607236D01*
X113810745Y-39756897D01*
X113810738Y-39756903D01*
X113636903Y-39930738D01*
X113636897Y-39930745D01*
X113487236Y-40125787D01*
X113364307Y-40338705D01*
X113364303Y-40338714D01*
X113270225Y-40565837D01*
X113270222Y-40565847D01*
X113257304Y-40614060D01*
X113206592Y-40803320D01*
X113206590Y-40803331D01*
X113174500Y-41047065D01*
X104250500Y-41047065D01*
X104250500Y-35874500D01*
X104270185Y-35807461D01*
X104322989Y-35761706D01*
X104374500Y-35750500D01*
X203625500Y-35750500D01*
X203692539Y-35770185D01*
G37*
%TD.AperFunction*%
%TD*%
M02*
