%TF.GenerationSoftware,KiCad,Pcbnew,9.0.6*%
%TF.CreationDate,2026-03-26T01:53:05+01:00*%
%TF.ProjectId,lamp-driver,6c616d70-2d64-4726-9976-65722e6b6963,rev?*%
%TF.SameCoordinates,Original*%
%TF.FileFunction,Legend,Bot*%
%TF.FilePolarity,Positive*%
%FSLAX46Y46*%
G04 Gerber Fmt 4.6, Leading zero omitted, Abs format (unit mm)*
G04 Created by KiCad (PCBNEW 9.0.6) date 2026-03-26 01:53:05*
%MOMM*%
%LPD*%
G01*
G04 APERTURE LIST*
%ADD10C,0.150000*%
%ADD11C,0.120000*%
G04 APERTURE END LIST*
D10*
X124156666Y-57524819D02*
X124489999Y-57048628D01*
X124728094Y-57524819D02*
X124728094Y-56524819D01*
X124728094Y-56524819D02*
X124347142Y-56524819D01*
X124347142Y-56524819D02*
X124251904Y-56572438D01*
X124251904Y-56572438D02*
X124204285Y-56620057D01*
X124204285Y-56620057D02*
X124156666Y-56715295D01*
X124156666Y-56715295D02*
X124156666Y-56858152D01*
X124156666Y-56858152D02*
X124204285Y-56953390D01*
X124204285Y-56953390D02*
X124251904Y-57001009D01*
X124251904Y-57001009D02*
X124347142Y-57048628D01*
X124347142Y-57048628D02*
X124728094Y-57048628D01*
X123299523Y-56858152D02*
X123299523Y-57524819D01*
X123537618Y-56477200D02*
X123775713Y-57191485D01*
X123775713Y-57191485D02*
X123156666Y-57191485D01*
X127524819Y-62553333D02*
X127048628Y-62220000D01*
X127524819Y-61981905D02*
X126524819Y-61981905D01*
X126524819Y-61981905D02*
X126524819Y-62362857D01*
X126524819Y-62362857D02*
X126572438Y-62458095D01*
X126572438Y-62458095D02*
X126620057Y-62505714D01*
X126620057Y-62505714D02*
X126715295Y-62553333D01*
X126715295Y-62553333D02*
X126858152Y-62553333D01*
X126858152Y-62553333D02*
X126953390Y-62505714D01*
X126953390Y-62505714D02*
X127001009Y-62458095D01*
X127001009Y-62458095D02*
X127048628Y-62362857D01*
X127048628Y-62362857D02*
X127048628Y-61981905D01*
X126620057Y-62934286D02*
X126572438Y-62981905D01*
X126572438Y-62981905D02*
X126524819Y-63077143D01*
X126524819Y-63077143D02*
X126524819Y-63315238D01*
X126524819Y-63315238D02*
X126572438Y-63410476D01*
X126572438Y-63410476D02*
X126620057Y-63458095D01*
X126620057Y-63458095D02*
X126715295Y-63505714D01*
X126715295Y-63505714D02*
X126810533Y-63505714D01*
X126810533Y-63505714D02*
X126953390Y-63458095D01*
X126953390Y-63458095D02*
X127524819Y-62886667D01*
X127524819Y-62886667D02*
X127524819Y-63505714D01*
X124429580Y-66013333D02*
X124477200Y-65965714D01*
X124477200Y-65965714D02*
X124524819Y-65822857D01*
X124524819Y-65822857D02*
X124524819Y-65727619D01*
X124524819Y-65727619D02*
X124477200Y-65584762D01*
X124477200Y-65584762D02*
X124381961Y-65489524D01*
X124381961Y-65489524D02*
X124286723Y-65441905D01*
X124286723Y-65441905D02*
X124096247Y-65394286D01*
X124096247Y-65394286D02*
X123953390Y-65394286D01*
X123953390Y-65394286D02*
X123762914Y-65441905D01*
X123762914Y-65441905D02*
X123667676Y-65489524D01*
X123667676Y-65489524D02*
X123572438Y-65584762D01*
X123572438Y-65584762D02*
X123524819Y-65727619D01*
X123524819Y-65727619D02*
X123524819Y-65822857D01*
X123524819Y-65822857D02*
X123572438Y-65965714D01*
X123572438Y-65965714D02*
X123620057Y-66013333D01*
X123524819Y-66870476D02*
X123524819Y-66680000D01*
X123524819Y-66680000D02*
X123572438Y-66584762D01*
X123572438Y-66584762D02*
X123620057Y-66537143D01*
X123620057Y-66537143D02*
X123762914Y-66441905D01*
X123762914Y-66441905D02*
X123953390Y-66394286D01*
X123953390Y-66394286D02*
X124334342Y-66394286D01*
X124334342Y-66394286D02*
X124429580Y-66441905D01*
X124429580Y-66441905D02*
X124477200Y-66489524D01*
X124477200Y-66489524D02*
X124524819Y-66584762D01*
X124524819Y-66584762D02*
X124524819Y-66775238D01*
X124524819Y-66775238D02*
X124477200Y-66870476D01*
X124477200Y-66870476D02*
X124429580Y-66918095D01*
X124429580Y-66918095D02*
X124334342Y-66965714D01*
X124334342Y-66965714D02*
X124096247Y-66965714D01*
X124096247Y-66965714D02*
X124001009Y-66918095D01*
X124001009Y-66918095D02*
X123953390Y-66870476D01*
X123953390Y-66870476D02*
X123905771Y-66775238D01*
X123905771Y-66775238D02*
X123905771Y-66584762D01*
X123905771Y-66584762D02*
X123953390Y-66489524D01*
X123953390Y-66489524D02*
X124001009Y-66441905D01*
X124001009Y-66441905D02*
X124096247Y-66394286D01*
X107035238Y-64620057D02*
X107130476Y-64572438D01*
X107130476Y-64572438D02*
X107225714Y-64477200D01*
X107225714Y-64477200D02*
X107368571Y-64334342D01*
X107368571Y-64334342D02*
X107463809Y-64286723D01*
X107463809Y-64286723D02*
X107559047Y-64286723D01*
X107511428Y-64524819D02*
X107606666Y-64477200D01*
X107606666Y-64477200D02*
X107701904Y-64381961D01*
X107701904Y-64381961D02*
X107749523Y-64191485D01*
X107749523Y-64191485D02*
X107749523Y-63858152D01*
X107749523Y-63858152D02*
X107701904Y-63667676D01*
X107701904Y-63667676D02*
X107606666Y-63572438D01*
X107606666Y-63572438D02*
X107511428Y-63524819D01*
X107511428Y-63524819D02*
X107320952Y-63524819D01*
X107320952Y-63524819D02*
X107225714Y-63572438D01*
X107225714Y-63572438D02*
X107130476Y-63667676D01*
X107130476Y-63667676D02*
X107082857Y-63858152D01*
X107082857Y-63858152D02*
X107082857Y-64191485D01*
X107082857Y-64191485D02*
X107130476Y-64381961D01*
X107130476Y-64381961D02*
X107225714Y-64477200D01*
X107225714Y-64477200D02*
X107320952Y-64524819D01*
X107320952Y-64524819D02*
X107511428Y-64524819D01*
X106130476Y-64524819D02*
X106701904Y-64524819D01*
X106416190Y-64524819D02*
X106416190Y-63524819D01*
X106416190Y-63524819D02*
X106511428Y-63667676D01*
X106511428Y-63667676D02*
X106606666Y-63762914D01*
X106606666Y-63762914D02*
X106701904Y-63810533D01*
X105044819Y-61673333D02*
X104568628Y-61340000D01*
X105044819Y-61101905D02*
X104044819Y-61101905D01*
X104044819Y-61101905D02*
X104044819Y-61482857D01*
X104044819Y-61482857D02*
X104092438Y-61578095D01*
X104092438Y-61578095D02*
X104140057Y-61625714D01*
X104140057Y-61625714D02*
X104235295Y-61673333D01*
X104235295Y-61673333D02*
X104378152Y-61673333D01*
X104378152Y-61673333D02*
X104473390Y-61625714D01*
X104473390Y-61625714D02*
X104521009Y-61578095D01*
X104521009Y-61578095D02*
X104568628Y-61482857D01*
X104568628Y-61482857D02*
X104568628Y-61101905D01*
X104044819Y-62578095D02*
X104044819Y-62101905D01*
X104044819Y-62101905D02*
X104521009Y-62054286D01*
X104521009Y-62054286D02*
X104473390Y-62101905D01*
X104473390Y-62101905D02*
X104425771Y-62197143D01*
X104425771Y-62197143D02*
X104425771Y-62435238D01*
X104425771Y-62435238D02*
X104473390Y-62530476D01*
X104473390Y-62530476D02*
X104521009Y-62578095D01*
X104521009Y-62578095D02*
X104616247Y-62625714D01*
X104616247Y-62625714D02*
X104854342Y-62625714D01*
X104854342Y-62625714D02*
X104949580Y-62578095D01*
X104949580Y-62578095D02*
X104997200Y-62530476D01*
X104997200Y-62530476D02*
X105044819Y-62435238D01*
X105044819Y-62435238D02*
X105044819Y-62197143D01*
X105044819Y-62197143D02*
X104997200Y-62101905D01*
X104997200Y-62101905D02*
X104949580Y-62054286D01*
X124156666Y-49714819D02*
X124489999Y-49238628D01*
X124728094Y-49714819D02*
X124728094Y-48714819D01*
X124728094Y-48714819D02*
X124347142Y-48714819D01*
X124347142Y-48714819D02*
X124251904Y-48762438D01*
X124251904Y-48762438D02*
X124204285Y-48810057D01*
X124204285Y-48810057D02*
X124156666Y-48905295D01*
X124156666Y-48905295D02*
X124156666Y-49048152D01*
X124156666Y-49048152D02*
X124204285Y-49143390D01*
X124204285Y-49143390D02*
X124251904Y-49191009D01*
X124251904Y-49191009D02*
X124347142Y-49238628D01*
X124347142Y-49238628D02*
X124728094Y-49238628D01*
X123299523Y-48714819D02*
X123489999Y-48714819D01*
X123489999Y-48714819D02*
X123585237Y-48762438D01*
X123585237Y-48762438D02*
X123632856Y-48810057D01*
X123632856Y-48810057D02*
X123728094Y-48952914D01*
X123728094Y-48952914D02*
X123775713Y-49143390D01*
X123775713Y-49143390D02*
X123775713Y-49524342D01*
X123775713Y-49524342D02*
X123728094Y-49619580D01*
X123728094Y-49619580D02*
X123680475Y-49667200D01*
X123680475Y-49667200D02*
X123585237Y-49714819D01*
X123585237Y-49714819D02*
X123394761Y-49714819D01*
X123394761Y-49714819D02*
X123299523Y-49667200D01*
X123299523Y-49667200D02*
X123251904Y-49619580D01*
X123251904Y-49619580D02*
X123204285Y-49524342D01*
X123204285Y-49524342D02*
X123204285Y-49286247D01*
X123204285Y-49286247D02*
X123251904Y-49191009D01*
X123251904Y-49191009D02*
X123299523Y-49143390D01*
X123299523Y-49143390D02*
X123394761Y-49095771D01*
X123394761Y-49095771D02*
X123585237Y-49095771D01*
X123585237Y-49095771D02*
X123680475Y-49143390D01*
X123680475Y-49143390D02*
X123728094Y-49191009D01*
X123728094Y-49191009D02*
X123775713Y-49286247D01*
X136446666Y-57524819D02*
X136779999Y-57048628D01*
X137018094Y-57524819D02*
X137018094Y-56524819D01*
X137018094Y-56524819D02*
X136637142Y-56524819D01*
X136637142Y-56524819D02*
X136541904Y-56572438D01*
X136541904Y-56572438D02*
X136494285Y-56620057D01*
X136494285Y-56620057D02*
X136446666Y-56715295D01*
X136446666Y-56715295D02*
X136446666Y-56858152D01*
X136446666Y-56858152D02*
X136494285Y-56953390D01*
X136494285Y-56953390D02*
X136541904Y-57001009D01*
X136541904Y-57001009D02*
X136637142Y-57048628D01*
X136637142Y-57048628D02*
X137018094Y-57048628D01*
X135875237Y-56953390D02*
X135970475Y-56905771D01*
X135970475Y-56905771D02*
X136018094Y-56858152D01*
X136018094Y-56858152D02*
X136065713Y-56762914D01*
X136065713Y-56762914D02*
X136065713Y-56715295D01*
X136065713Y-56715295D02*
X136018094Y-56620057D01*
X136018094Y-56620057D02*
X135970475Y-56572438D01*
X135970475Y-56572438D02*
X135875237Y-56524819D01*
X135875237Y-56524819D02*
X135684761Y-56524819D01*
X135684761Y-56524819D02*
X135589523Y-56572438D01*
X135589523Y-56572438D02*
X135541904Y-56620057D01*
X135541904Y-56620057D02*
X135494285Y-56715295D01*
X135494285Y-56715295D02*
X135494285Y-56762914D01*
X135494285Y-56762914D02*
X135541904Y-56858152D01*
X135541904Y-56858152D02*
X135589523Y-56905771D01*
X135589523Y-56905771D02*
X135684761Y-56953390D01*
X135684761Y-56953390D02*
X135875237Y-56953390D01*
X135875237Y-56953390D02*
X135970475Y-57001009D01*
X135970475Y-57001009D02*
X136018094Y-57048628D01*
X136018094Y-57048628D02*
X136065713Y-57143866D01*
X136065713Y-57143866D02*
X136065713Y-57334342D01*
X136065713Y-57334342D02*
X136018094Y-57429580D01*
X136018094Y-57429580D02*
X135970475Y-57477200D01*
X135970475Y-57477200D02*
X135875237Y-57524819D01*
X135875237Y-57524819D02*
X135684761Y-57524819D01*
X135684761Y-57524819D02*
X135589523Y-57477200D01*
X135589523Y-57477200D02*
X135541904Y-57429580D01*
X135541904Y-57429580D02*
X135494285Y-57334342D01*
X135494285Y-57334342D02*
X135494285Y-57143866D01*
X135494285Y-57143866D02*
X135541904Y-57048628D01*
X135541904Y-57048628D02*
X135589523Y-57001009D01*
X135589523Y-57001009D02*
X135684761Y-56953390D01*
X140599580Y-44313333D02*
X140647200Y-44265714D01*
X140647200Y-44265714D02*
X140694819Y-44122857D01*
X140694819Y-44122857D02*
X140694819Y-44027619D01*
X140694819Y-44027619D02*
X140647200Y-43884762D01*
X140647200Y-43884762D02*
X140551961Y-43789524D01*
X140551961Y-43789524D02*
X140456723Y-43741905D01*
X140456723Y-43741905D02*
X140266247Y-43694286D01*
X140266247Y-43694286D02*
X140123390Y-43694286D01*
X140123390Y-43694286D02*
X139932914Y-43741905D01*
X139932914Y-43741905D02*
X139837676Y-43789524D01*
X139837676Y-43789524D02*
X139742438Y-43884762D01*
X139742438Y-43884762D02*
X139694819Y-44027619D01*
X139694819Y-44027619D02*
X139694819Y-44122857D01*
X139694819Y-44122857D02*
X139742438Y-44265714D01*
X139742438Y-44265714D02*
X139790057Y-44313333D01*
X140694819Y-45265714D02*
X140694819Y-44694286D01*
X140694819Y-44980000D02*
X139694819Y-44980000D01*
X139694819Y-44980000D02*
X139837676Y-44884762D01*
X139837676Y-44884762D02*
X139932914Y-44789524D01*
X139932914Y-44789524D02*
X139980533Y-44694286D01*
X114772319Y-68908095D02*
X115581842Y-68908095D01*
X115581842Y-68908095D02*
X115677080Y-68955714D01*
X115677080Y-68955714D02*
X115724700Y-69003333D01*
X115724700Y-69003333D02*
X115772319Y-69098571D01*
X115772319Y-69098571D02*
X115772319Y-69289047D01*
X115772319Y-69289047D02*
X115724700Y-69384285D01*
X115724700Y-69384285D02*
X115677080Y-69431904D01*
X115677080Y-69431904D02*
X115581842Y-69479523D01*
X115581842Y-69479523D02*
X114772319Y-69479523D01*
X115772319Y-70479523D02*
X115772319Y-69908095D01*
X115772319Y-70193809D02*
X114772319Y-70193809D01*
X114772319Y-70193809D02*
X114915176Y-70098571D01*
X114915176Y-70098571D02*
X115010414Y-70003333D01*
X115010414Y-70003333D02*
X115058033Y-69908095D01*
X136446666Y-49714819D02*
X136779999Y-49238628D01*
X137018094Y-49714819D02*
X137018094Y-48714819D01*
X137018094Y-48714819D02*
X136637142Y-48714819D01*
X136637142Y-48714819D02*
X136541904Y-48762438D01*
X136541904Y-48762438D02*
X136494285Y-48810057D01*
X136494285Y-48810057D02*
X136446666Y-48905295D01*
X136446666Y-48905295D02*
X136446666Y-49048152D01*
X136446666Y-49048152D02*
X136494285Y-49143390D01*
X136494285Y-49143390D02*
X136541904Y-49191009D01*
X136541904Y-49191009D02*
X136637142Y-49238628D01*
X136637142Y-49238628D02*
X137018094Y-49238628D01*
X136113332Y-48714819D02*
X135446666Y-48714819D01*
X135446666Y-48714819D02*
X135875237Y-49714819D01*
X113109166Y-64944819D02*
X113442499Y-64468628D01*
X113680594Y-64944819D02*
X113680594Y-63944819D01*
X113680594Y-63944819D02*
X113299642Y-63944819D01*
X113299642Y-63944819D02*
X113204404Y-63992438D01*
X113204404Y-63992438D02*
X113156785Y-64040057D01*
X113156785Y-64040057D02*
X113109166Y-64135295D01*
X113109166Y-64135295D02*
X113109166Y-64278152D01*
X113109166Y-64278152D02*
X113156785Y-64373390D01*
X113156785Y-64373390D02*
X113204404Y-64421009D01*
X113204404Y-64421009D02*
X113299642Y-64468628D01*
X113299642Y-64468628D02*
X113680594Y-64468628D01*
X112775832Y-63944819D02*
X112156785Y-63944819D01*
X112156785Y-63944819D02*
X112490118Y-64325771D01*
X112490118Y-64325771D02*
X112347261Y-64325771D01*
X112347261Y-64325771D02*
X112252023Y-64373390D01*
X112252023Y-64373390D02*
X112204404Y-64421009D01*
X112204404Y-64421009D02*
X112156785Y-64516247D01*
X112156785Y-64516247D02*
X112156785Y-64754342D01*
X112156785Y-64754342D02*
X112204404Y-64849580D01*
X112204404Y-64849580D02*
X112252023Y-64897200D01*
X112252023Y-64897200D02*
X112347261Y-64944819D01*
X112347261Y-64944819D02*
X112632975Y-64944819D01*
X112632975Y-64944819D02*
X112728213Y-64897200D01*
X112728213Y-64897200D02*
X112775832Y-64849580D01*
X149819580Y-47203333D02*
X149867200Y-47155714D01*
X149867200Y-47155714D02*
X149914819Y-47012857D01*
X149914819Y-47012857D02*
X149914819Y-46917619D01*
X149914819Y-46917619D02*
X149867200Y-46774762D01*
X149867200Y-46774762D02*
X149771961Y-46679524D01*
X149771961Y-46679524D02*
X149676723Y-46631905D01*
X149676723Y-46631905D02*
X149486247Y-46584286D01*
X149486247Y-46584286D02*
X149343390Y-46584286D01*
X149343390Y-46584286D02*
X149152914Y-46631905D01*
X149152914Y-46631905D02*
X149057676Y-46679524D01*
X149057676Y-46679524D02*
X148962438Y-46774762D01*
X148962438Y-46774762D02*
X148914819Y-46917619D01*
X148914819Y-46917619D02*
X148914819Y-47012857D01*
X148914819Y-47012857D02*
X148962438Y-47155714D01*
X148962438Y-47155714D02*
X149010057Y-47203333D01*
X149248152Y-48060476D02*
X149914819Y-48060476D01*
X148867200Y-47822381D02*
X149581485Y-47584286D01*
X149581485Y-47584286D02*
X149581485Y-48203333D01*
X144734166Y-53044819D02*
X145067499Y-52568628D01*
X145305594Y-53044819D02*
X145305594Y-52044819D01*
X145305594Y-52044819D02*
X144924642Y-52044819D01*
X144924642Y-52044819D02*
X144829404Y-52092438D01*
X144829404Y-52092438D02*
X144781785Y-52140057D01*
X144781785Y-52140057D02*
X144734166Y-52235295D01*
X144734166Y-52235295D02*
X144734166Y-52378152D01*
X144734166Y-52378152D02*
X144781785Y-52473390D01*
X144781785Y-52473390D02*
X144829404Y-52521009D01*
X144829404Y-52521009D02*
X144924642Y-52568628D01*
X144924642Y-52568628D02*
X145305594Y-52568628D01*
X143781785Y-53044819D02*
X144353213Y-53044819D01*
X144067499Y-53044819D02*
X144067499Y-52044819D01*
X144067499Y-52044819D02*
X144162737Y-52187676D01*
X144162737Y-52187676D02*
X144257975Y-52282914D01*
X144257975Y-52282914D02*
X144353213Y-52330533D01*
X136446666Y-65184819D02*
X136779999Y-64708628D01*
X137018094Y-65184819D02*
X137018094Y-64184819D01*
X137018094Y-64184819D02*
X136637142Y-64184819D01*
X136637142Y-64184819D02*
X136541904Y-64232438D01*
X136541904Y-64232438D02*
X136494285Y-64280057D01*
X136494285Y-64280057D02*
X136446666Y-64375295D01*
X136446666Y-64375295D02*
X136446666Y-64518152D01*
X136446666Y-64518152D02*
X136494285Y-64613390D01*
X136494285Y-64613390D02*
X136541904Y-64661009D01*
X136541904Y-64661009D02*
X136637142Y-64708628D01*
X136637142Y-64708628D02*
X137018094Y-64708628D01*
X135970475Y-65184819D02*
X135779999Y-65184819D01*
X135779999Y-65184819D02*
X135684761Y-65137200D01*
X135684761Y-65137200D02*
X135637142Y-65089580D01*
X135637142Y-65089580D02*
X135541904Y-64946723D01*
X135541904Y-64946723D02*
X135494285Y-64756247D01*
X135494285Y-64756247D02*
X135494285Y-64375295D01*
X135494285Y-64375295D02*
X135541904Y-64280057D01*
X135541904Y-64280057D02*
X135589523Y-64232438D01*
X135589523Y-64232438D02*
X135684761Y-64184819D01*
X135684761Y-64184819D02*
X135875237Y-64184819D01*
X135875237Y-64184819D02*
X135970475Y-64232438D01*
X135970475Y-64232438D02*
X136018094Y-64280057D01*
X136018094Y-64280057D02*
X136065713Y-64375295D01*
X136065713Y-64375295D02*
X136065713Y-64613390D01*
X136065713Y-64613390D02*
X136018094Y-64708628D01*
X136018094Y-64708628D02*
X135970475Y-64756247D01*
X135970475Y-64756247D02*
X135875237Y-64803866D01*
X135875237Y-64803866D02*
X135684761Y-64803866D01*
X135684761Y-64803866D02*
X135589523Y-64756247D01*
X135589523Y-64756247D02*
X135541904Y-64708628D01*
X135541904Y-64708628D02*
X135494285Y-64613390D01*
X144489580Y-47203333D02*
X144537200Y-47155714D01*
X144537200Y-47155714D02*
X144584819Y-47012857D01*
X144584819Y-47012857D02*
X144584819Y-46917619D01*
X144584819Y-46917619D02*
X144537200Y-46774762D01*
X144537200Y-46774762D02*
X144441961Y-46679524D01*
X144441961Y-46679524D02*
X144346723Y-46631905D01*
X144346723Y-46631905D02*
X144156247Y-46584286D01*
X144156247Y-46584286D02*
X144013390Y-46584286D01*
X144013390Y-46584286D02*
X143822914Y-46631905D01*
X143822914Y-46631905D02*
X143727676Y-46679524D01*
X143727676Y-46679524D02*
X143632438Y-46774762D01*
X143632438Y-46774762D02*
X143584819Y-46917619D01*
X143584819Y-46917619D02*
X143584819Y-47012857D01*
X143584819Y-47012857D02*
X143632438Y-47155714D01*
X143632438Y-47155714D02*
X143680057Y-47203333D01*
X143584819Y-47536667D02*
X143584819Y-48155714D01*
X143584819Y-48155714D02*
X143965771Y-47822381D01*
X143965771Y-47822381D02*
X143965771Y-47965238D01*
X143965771Y-47965238D02*
X144013390Y-48060476D01*
X144013390Y-48060476D02*
X144061009Y-48108095D01*
X144061009Y-48108095D02*
X144156247Y-48155714D01*
X144156247Y-48155714D02*
X144394342Y-48155714D01*
X144394342Y-48155714D02*
X144489580Y-48108095D01*
X144489580Y-48108095D02*
X144537200Y-48060476D01*
X144537200Y-48060476D02*
X144584819Y-47965238D01*
X144584819Y-47965238D02*
X144584819Y-47679524D01*
X144584819Y-47679524D02*
X144537200Y-47584286D01*
X144537200Y-47584286D02*
X144489580Y-47536667D01*
X130059580Y-66103333D02*
X130107200Y-66055714D01*
X130107200Y-66055714D02*
X130154819Y-65912857D01*
X130154819Y-65912857D02*
X130154819Y-65817619D01*
X130154819Y-65817619D02*
X130107200Y-65674762D01*
X130107200Y-65674762D02*
X130011961Y-65579524D01*
X130011961Y-65579524D02*
X129916723Y-65531905D01*
X129916723Y-65531905D02*
X129726247Y-65484286D01*
X129726247Y-65484286D02*
X129583390Y-65484286D01*
X129583390Y-65484286D02*
X129392914Y-65531905D01*
X129392914Y-65531905D02*
X129297676Y-65579524D01*
X129297676Y-65579524D02*
X129202438Y-65674762D01*
X129202438Y-65674762D02*
X129154819Y-65817619D01*
X129154819Y-65817619D02*
X129154819Y-65912857D01*
X129154819Y-65912857D02*
X129202438Y-66055714D01*
X129202438Y-66055714D02*
X129250057Y-66103333D01*
X129154819Y-67008095D02*
X129154819Y-66531905D01*
X129154819Y-66531905D02*
X129631009Y-66484286D01*
X129631009Y-66484286D02*
X129583390Y-66531905D01*
X129583390Y-66531905D02*
X129535771Y-66627143D01*
X129535771Y-66627143D02*
X129535771Y-66865238D01*
X129535771Y-66865238D02*
X129583390Y-66960476D01*
X129583390Y-66960476D02*
X129631009Y-67008095D01*
X129631009Y-67008095D02*
X129726247Y-67055714D01*
X129726247Y-67055714D02*
X129964342Y-67055714D01*
X129964342Y-67055714D02*
X130059580Y-67008095D01*
X130059580Y-67008095D02*
X130107200Y-66960476D01*
X130107200Y-66960476D02*
X130154819Y-66865238D01*
X130154819Y-66865238D02*
X130154819Y-66627143D01*
X130154819Y-66627143D02*
X130107200Y-66531905D01*
X130107200Y-66531905D02*
X130059580Y-66484286D01*
D11*
%TO.C,R4*%
X123762936Y-54685000D02*
X124217064Y-54685000D01*
X123762936Y-56155000D02*
X124217064Y-56155000D01*
%TO.C,R2*%
X124685000Y-62947064D02*
X124685000Y-62492936D01*
X126155000Y-62947064D02*
X126155000Y-62492936D01*
%TO.C,C6*%
X125015000Y-65918748D02*
X125015000Y-66441252D01*
X126485000Y-65918748D02*
X126485000Y-66441252D01*
%TO.C,Q1*%
X106180000Y-60110000D02*
X106180000Y-60160000D01*
X106180000Y-61280000D02*
X106180000Y-62060000D01*
X106180000Y-63180000D02*
X106180000Y-63230000D01*
X106180000Y-63230000D02*
X107700000Y-63230000D01*
X107700000Y-60110000D02*
X106180000Y-60110000D01*
X107700000Y-61110000D02*
X107700000Y-60110000D01*
X107700000Y-63230000D02*
X107700000Y-62230000D01*
X105640000Y-62050000D02*
X105400000Y-61720000D01*
X105880000Y-61720000D01*
X105640000Y-62050000D01*
G36*
X105640000Y-62050000D02*
G01*
X105400000Y-61720000D01*
X105880000Y-61720000D01*
X105640000Y-62050000D01*
G37*
%TO.C,R5*%
X102205000Y-62067064D02*
X102205000Y-61612936D01*
X103675000Y-62067064D02*
X103675000Y-61612936D01*
%TO.C,R6*%
X123762936Y-46875000D02*
X124217064Y-46875000D01*
X123762936Y-48345000D02*
X124217064Y-48345000D01*
%TO.C,R8*%
X136052936Y-54685000D02*
X136507064Y-54685000D01*
X136052936Y-56155000D02*
X136507064Y-56155000D01*
%TO.C,C1*%
X139645000Y-47631252D02*
X139645000Y-47108748D01*
X141115000Y-47631252D02*
X141115000Y-47108748D01*
%TO.C,U1*%
X116367500Y-66360000D02*
X116637500Y-66360000D01*
X116367500Y-72780000D02*
X116367500Y-66360000D01*
X123267500Y-66360000D02*
X122997500Y-66360000D01*
X123267500Y-72780000D02*
X123267500Y-66360000D01*
X116677500Y-64630000D02*
X116207500Y-64970000D01*
X116207500Y-64290000D01*
X116677500Y-64630000D01*
G36*
X116677500Y-64630000D02*
G01*
X116207500Y-64970000D01*
X116207500Y-64290000D01*
X116677500Y-64630000D01*
G37*
%TO.C,R7*%
X136052936Y-46875000D02*
X136507064Y-46875000D01*
X136052936Y-48345000D02*
X136507064Y-48345000D01*
%TO.C,R3*%
X112715436Y-62105000D02*
X113169564Y-62105000D01*
X112715436Y-63575000D02*
X113169564Y-63575000D01*
%TO.C,C4*%
X147045000Y-47631252D02*
X147045000Y-47108748D01*
X148515000Y-47631252D02*
X148515000Y-47108748D01*
%TO.C,R1*%
X144340436Y-50205000D02*
X144794564Y-50205000D01*
X144340436Y-51675000D02*
X144794564Y-51675000D01*
%TO.C,R9*%
X136052936Y-62345000D02*
X136507064Y-62345000D01*
X136052936Y-63815000D02*
X136507064Y-63815000D01*
%TO.C,C3*%
X141715000Y-47631252D02*
X141715000Y-47108748D01*
X143185000Y-47631252D02*
X143185000Y-47108748D01*
%TO.C,C5*%
X127245000Y-65918748D02*
X127245000Y-66441252D01*
X128715000Y-65918748D02*
X128715000Y-66441252D01*
%TD*%
M02*
