%TF.GenerationSoftware,KiCad,Pcbnew,9.0.6*%
%TF.CreationDate,2026-03-26T01:53:05+01:00*%
%TF.ProjectId,lamp-driver,6c616d70-2d64-4726-9976-65722e6b6963,rev?*%
%TF.SameCoordinates,Original*%
%TF.FileFunction,Soldermask,Bot*%
%TF.FilePolarity,Negative*%
%FSLAX46Y46*%
G04 Gerber Fmt 4.6, Leading zero omitted, Abs format (unit mm)*
G04 Created by KiCad (PCBNEW 9.0.6) date 2026-03-26 01:53:05*
%MOMM*%
%LPD*%
G01*
G04 APERTURE LIST*
G04 Aperture macros list*
%AMRoundRect*
0 Rectangle with rounded corners*
0 $1 Rounding radius*
0 $2 $3 $4 $5 $6 $7 $8 $9 X,Y pos of 4 corners*
0 Add a 4 corners polygon primitive as box body*
4,1,4,$2,$3,$4,$5,$6,$7,$8,$9,$2,$3,0*
0 Add four circle primitives for the rounded corners*
1,1,$1+$1,$2,$3*
1,1,$1+$1,$4,$5*
1,1,$1+$1,$6,$7*
1,1,$1+$1,$8,$9*
0 Add four rect primitives between the rounded corners*
20,1,$1+$1,$2,$3,$4,$5,0*
20,1,$1+$1,$4,$5,$6,$7,0*
20,1,$1+$1,$6,$7,$8,$9,0*
20,1,$1+$1,$8,$9,$2,$3,0*%
G04 Aperture macros list end*
%ADD10RoundRect,0.249999X-0.850001X-0.850001X0.850001X-0.850001X0.850001X0.850001X-0.850001X0.850001X0*%
%ADD11C,2.200000*%
%ADD12C,3.250000*%
%ADD13R,1.500000X1.500000*%
%ADD14C,1.500000*%
%ADD15C,2.300000*%
%ADD16RoundRect,0.250000X-0.620000X-0.845000X0.620000X-0.845000X0.620000X0.845000X-0.620000X0.845000X0*%
%ADD17O,1.740000X2.190000*%
%ADD18RoundRect,0.250000X0.620000X0.845000X-0.620000X0.845000X-0.620000X-0.845000X0.620000X-0.845000X0*%
%ADD19C,1.300000*%
%ADD20RoundRect,0.249999X0.850001X-0.850001X0.850001X0.850001X-0.850001X0.850001X-0.850001X-0.850001X0*%
%ADD21RoundRect,0.250000X-0.262500X-0.450000X0.262500X-0.450000X0.262500X0.450000X-0.262500X0.450000X0*%
%ADD22RoundRect,0.250000X0.450000X-0.262500X0.450000X0.262500X-0.450000X0.262500X-0.450000X-0.262500X0*%
%ADD23RoundRect,0.250000X-0.475000X0.250000X-0.475000X-0.250000X0.475000X-0.250000X0.475000X0.250000X0*%
%ADD24RoundRect,0.150000X-0.587500X-0.150000X0.587500X-0.150000X0.587500X0.150000X-0.587500X0.150000X0*%
%ADD25RoundRect,0.250000X0.475000X-0.250000X0.475000X0.250000X-0.475000X0.250000X-0.475000X-0.250000X0*%
%ADD26RoundRect,0.250000X-0.350000X0.850000X-0.350000X-0.850000X0.350000X-0.850000X0.350000X0.850000X0*%
%ADD27RoundRect,0.249997X-2.650003X2.950003X-2.650003X-2.950003X2.650003X-2.950003X2.650003X2.950003X0*%
G04 APERTURE END LIST*
D10*
%TO.C,J1*%
X117840000Y-59680000D03*
D11*
X120380000Y-59680000D03*
X122920000Y-59680000D03*
X125460000Y-59680000D03*
%TD*%
D10*
%TO.C,J6*%
X129600000Y-59680000D03*
D11*
X132140000Y-59680000D03*
X134680000Y-59680000D03*
X137220000Y-59680000D03*
%TD*%
D10*
%TO.C,J4*%
X129600000Y-44370000D03*
D11*
X132140000Y-44370000D03*
X134680000Y-44370000D03*
X137220000Y-44370000D03*
%TD*%
D10*
%TO.C,J3*%
X117840000Y-44370000D03*
D11*
X120380000Y-44370000D03*
X122920000Y-44370000D03*
X125460000Y-44370000D03*
%TD*%
D12*
%TO.C,RJ_LED1*%
X150930000Y-56830000D03*
X150930000Y-69530000D03*
D13*
X148390000Y-59620000D03*
D14*
X146610000Y-60636000D03*
X148390000Y-61652000D03*
X146610000Y-62668000D03*
X148390000Y-63684000D03*
X146610000Y-64700000D03*
X148390000Y-65716000D03*
X146610000Y-66732000D03*
D15*
X147500000Y-55050000D03*
X147500000Y-71310000D03*
%TD*%
D16*
%TO.C,OUT48V_1*%
X134430000Y-70140000D03*
D17*
X136970000Y-70140000D03*
%TD*%
D18*
%TO.C,J12V1*%
X145750000Y-43590000D03*
D17*
X143210000Y-43590000D03*
%TD*%
D19*
%TO.C,PS1*%
X96963435Y-43230000D03*
X96963435Y-45770000D03*
X96963435Y-68370000D03*
X96963435Y-70910000D03*
X112203435Y-70910000D03*
X112203435Y-68370000D03*
X112203435Y-48310000D03*
X112203435Y-45770000D03*
X112203435Y-43230000D03*
%TD*%
D10*
%TO.C,J5*%
X129600000Y-52025000D03*
D11*
X132140000Y-52025000D03*
X134680000Y-52025000D03*
X137220000Y-52025000D03*
%TD*%
D16*
%TO.C,IN48V_1*%
X127010000Y-70140000D03*
D17*
X129550000Y-70140000D03*
%TD*%
D20*
%TO.C,matrix_out1*%
X152390000Y-50820000D03*
D11*
X152390000Y-48280000D03*
X152390000Y-45740000D03*
X152390000Y-43200000D03*
%TD*%
D10*
%TO.C,J2*%
X117840000Y-52025000D03*
D11*
X120380000Y-52025000D03*
X122920000Y-52025000D03*
X125460000Y-52025000D03*
%TD*%
D21*
%TO.C,R4*%
X123077500Y-55420000D03*
X124902500Y-55420000D03*
%TD*%
D22*
%TO.C,R2*%
X125420000Y-63632500D03*
X125420000Y-61807500D03*
%TD*%
D23*
%TO.C,C6*%
X125750000Y-65230000D03*
X125750000Y-67130000D03*
%TD*%
D24*
%TO.C,Q1*%
X106002500Y-62620000D03*
X106002500Y-60720000D03*
X107877500Y-61670000D03*
%TD*%
D22*
%TO.C,R5*%
X102940000Y-62752500D03*
X102940000Y-60927500D03*
%TD*%
D21*
%TO.C,R6*%
X123077500Y-47610000D03*
X124902500Y-47610000D03*
%TD*%
%TO.C,R8*%
X135367500Y-55420000D03*
X137192500Y-55420000D03*
%TD*%
D25*
%TO.C,C1*%
X140380000Y-48320000D03*
X140380000Y-46420000D03*
%TD*%
D26*
%TO.C,U1*%
X117537500Y-64630000D03*
D27*
X119817500Y-70930000D03*
D26*
X122097500Y-64630000D03*
%TD*%
D21*
%TO.C,R7*%
X135367500Y-47610000D03*
X137192500Y-47610000D03*
%TD*%
%TO.C,R3*%
X112030000Y-62840000D03*
X113855000Y-62840000D03*
%TD*%
D25*
%TO.C,C4*%
X147780000Y-48320000D03*
X147780000Y-46420000D03*
%TD*%
D21*
%TO.C,R1*%
X143655000Y-50940000D03*
X145480000Y-50940000D03*
%TD*%
%TO.C,R9*%
X135367500Y-63080000D03*
X137192500Y-63080000D03*
%TD*%
D25*
%TO.C,C3*%
X142450000Y-48320000D03*
X142450000Y-46420000D03*
%TD*%
D23*
%TO.C,C5*%
X127980000Y-65230000D03*
X127980000Y-67130000D03*
%TD*%
M02*
