M48
; DRILL file {KiCad 9.0.6} date 2026-03-26T01:55:35+0100
; FORMAT={-:-/ absolute / metric / decimal}
; #@! TF.CreationDate,2026-03-26T01:55:35+01:00
; #@! TF.GenerationSoftware,Kicad,Pcbnew,9.0.6
; #@! TF.FileFunction,Plated,1,2,PTH
FMAT,2
METRIC
; #@! TA.AperFunction,Plated,PTH,ViaDrill
T1C0.300
; #@! TA.AperFunction,Plated,PTH,ViaDrill
T2C0.400
; #@! TA.AperFunction,Plated,PTH,ComponentDrill
T3C0.800
; #@! TA.AperFunction,Plated,PTH,ComponentDrill
T4C0.890
; #@! TA.AperFunction,Plated,PTH,ComponentDrill
T5C1.100
; #@! TA.AperFunction,Plated,PTH,ComponentDrill
T6C1.190
; #@! TA.AperFunction,Plated,PTH,ComponentDrill
T7C1.570
%
G90
G05
T1
X105.897Y-62.585
X112.03Y-62.84
X116.43Y-63.54
X117.537Y-64.63
X119.64Y-62.5
X122.24Y-64.335
X128.36Y-61.89
X132.48Y-61.86
X140.46Y-48.28
X142.46Y-48.28
X143.625Y-50.94
X147.78Y-48.28
T2
X131.04Y-65.56
T3
X96.963Y-43.23
X96.963Y-45.77
X96.963Y-68.37
X96.963Y-70.91
X112.203Y-43.23
X112.203Y-45.77
X112.203Y-48.31
X112.203Y-68.37
X112.203Y-70.91
T4
X146.61Y-60.636
X146.61Y-62.668
X146.61Y-64.7
X146.61Y-66.732
X148.39Y-59.62
X148.39Y-61.652
X148.39Y-63.684
X148.39Y-65.716
T5
X117.84Y-44.37
X117.84Y-52.025
X117.84Y-59.68
X120.38Y-44.37
X120.38Y-52.025
X120.38Y-59.68
X122.92Y-44.37
X122.92Y-52.025
X122.92Y-59.68
X125.46Y-44.37
X125.46Y-52.025
X125.46Y-59.68
X129.6Y-44.37
X129.6Y-52.025
X129.6Y-59.68
X132.14Y-44.37
X132.14Y-52.025
X132.14Y-59.68
X134.68Y-44.37
X134.68Y-52.025
X134.68Y-59.68
X137.22Y-44.37
X137.22Y-52.025
X137.22Y-59.68
X152.39Y-43.2
X152.39Y-45.74
X152.39Y-48.28
X152.39Y-50.82
T6
X127.01Y-70.14
X129.55Y-70.14
X134.43Y-70.14
X136.97Y-70.14
X143.21Y-43.59
X145.75Y-43.59
T7
X147.5Y-55.05
X147.5Y-71.31
M30
