%TF.GenerationSoftware,KiCad,Pcbnew,9.0.6*%
%TF.CreationDate,2026-04-12T20:53:46+02:00*%
%TF.ProjectId,rayman_LCD_STM,7261796d-616e-45f4-9c43-445f53544d2e,rev?*%
%TF.SameCoordinates,Original*%
%TF.FileFunction,Soldermask,Bot*%
%TF.FilePolarity,Negative*%
%FSLAX46Y46*%
G04 Gerber Fmt 4.6, Leading zero omitted, Abs format (unit mm)*
G04 Created by KiCad (PCBNEW 9.0.6) date 2026-04-12 20:53:46*
%MOMM*%
%LPD*%
G01*
G04 APERTURE LIST*
G04 Aperture macros list*
%AMRoundRect*
0 Rectangle with rounded corners*
0 $1 Rounding radius*
0 $2 $3 $4 $5 $6 $7 $8 $9 X,Y pos of 4 corners*
0 Add a 4 corners polygon primitive as box body*
4,1,4,$2,$3,$4,$5,$6,$7,$8,$9,$2,$3,0*
0 Add four circle primitives for the rounded corners*
1,1,$1+$1,$2,$3*
1,1,$1+$1,$4,$5*
1,1,$1+$1,$6,$7*
1,1,$1+$1,$8,$9*
0 Add four rect primitives between the rounded corners*
20,1,$1+$1,$2,$3,$4,$5,0*
20,1,$1+$1,$4,$5,$6,$7,0*
20,1,$1+$1,$6,$7,$8,$9,0*
20,1,$1+$1,$8,$9,$2,$3,0*%
G04 Aperture macros list end*
%ADD10C,4.000000*%
%ADD11RoundRect,0.250000X-0.620000X-0.845000X0.620000X-0.845000X0.620000X0.845000X-0.620000X0.845000X0*%
%ADD12O,1.740000X2.190000*%
%ADD13C,3.250000*%
%ADD14R,1.500000X1.500000*%
%ADD15C,1.500000*%
%ADD16C,2.300000*%
%ADD17RoundRect,0.250000X-0.550000X-0.550000X0.550000X-0.550000X0.550000X0.550000X-0.550000X0.550000X0*%
%ADD18C,1.600000*%
%ADD19C,1.000000*%
%ADD20RoundRect,0.250000X-0.350000X-0.650000X0.350000X-0.650000X0.350000X0.650000X-0.350000X0.650000X0*%
%ADD21O,1.200000X1.800000*%
%ADD22RoundRect,0.225000X0.225000X0.250000X-0.225000X0.250000X-0.225000X-0.250000X0.225000X-0.250000X0*%
%ADD23RoundRect,0.250000X-0.262500X-0.450000X0.262500X-0.450000X0.262500X0.450000X-0.262500X0.450000X0*%
%ADD24RoundRect,0.250000X0.262500X0.450000X-0.262500X0.450000X-0.262500X-0.450000X0.262500X-0.450000X0*%
%ADD25RoundRect,0.102000X0.200000X-0.375000X0.200000X0.375000X-0.200000X0.375000X-0.200000X-0.375000X0*%
%ADD26RoundRect,0.225000X-0.225000X-0.250000X0.225000X-0.250000X0.225000X0.250000X-0.225000X0.250000X0*%
%ADD27RoundRect,0.225000X0.250000X-0.225000X0.250000X0.225000X-0.250000X0.225000X-0.250000X-0.225000X0*%
%ADD28RoundRect,0.250000X-0.475000X0.250000X-0.475000X-0.250000X0.475000X-0.250000X0.475000X0.250000X0*%
%ADD29R,1.510000X0.458000*%
%ADD30RoundRect,0.102000X0.450000X-0.400000X0.450000X0.400000X-0.450000X0.400000X-0.450000X-0.400000X0*%
G04 APERTURE END LIST*
D10*
%TO.C,*%
X167870000Y-58410000D03*
%TD*%
D11*
%TO.C,J5*%
X163490000Y-101330000D03*
D12*
X166030000Y-101330000D03*
X168570000Y-101330000D03*
X171110000Y-101330000D03*
%TD*%
D10*
%TO.C,*%
X107870000Y-58410000D03*
%TD*%
D13*
%TO.C,RJ_CAN1*%
X107660000Y-100910000D03*
X107660000Y-88210000D03*
D14*
X110200000Y-98120000D03*
D15*
X111980000Y-97104000D03*
X110200000Y-96088000D03*
X111980000Y-95072000D03*
X110200000Y-94056000D03*
X111980000Y-93040000D03*
X110200000Y-92024000D03*
X111980000Y-91008000D03*
D16*
X111090000Y-102690000D03*
X111090000Y-86430000D03*
%TD*%
D10*
%TO.C,REF\u002A\u002A*%
X167870000Y-128410000D03*
%TD*%
D17*
%TO.C,SW_CAN_T1*%
X105095000Y-81762500D03*
D18*
X112715000Y-81762500D03*
%TD*%
D19*
%TO.C,J3*%
X108080000Y-65620000D03*
X108080000Y-73620000D03*
%TD*%
D20*
%TO.C,J1*%
X157440000Y-127770000D03*
D21*
X159440000Y-127770000D03*
%TD*%
D10*
%TO.C,*%
X107870000Y-128410000D03*
%TD*%
%TO.C,*%
X167870000Y-58410000D03*
%TD*%
%TO.C,*%
X107870000Y-128410000D03*
%TD*%
%TO.C,*%
X167870000Y-128410000D03*
%TD*%
D11*
%TO.C,J2*%
X163490000Y-93480000D03*
D12*
X166030000Y-93480000D03*
X168570000Y-93480000D03*
X171110000Y-93480000D03*
%TD*%
D10*
%TO.C,*%
X107870000Y-58410000D03*
%TD*%
D22*
%TO.C,C41*%
X110085000Y-111680000D03*
X108535000Y-111680000D03*
%TD*%
D23*
%TO.C,R8*%
X106227500Y-106460000D03*
X108052500Y-106460000D03*
%TD*%
%TO.C,R6*%
X153127500Y-129510000D03*
X154952500Y-129510000D03*
%TD*%
D24*
%TO.C,R4*%
X130562500Y-62381667D03*
X128737500Y-62381667D03*
%TD*%
D23*
%TO.C,R9*%
X106227500Y-109460000D03*
X108052500Y-109460000D03*
%TD*%
D25*
%TO.C,FL1*%
X117050000Y-85585500D03*
X116250000Y-85585500D03*
X116250000Y-83735500D03*
X117050000Y-83735500D03*
%TD*%
D26*
%TO.C,C38*%
X140405000Y-79210000D03*
X141955000Y-79210000D03*
%TD*%
D22*
%TO.C,C42*%
X110085000Y-113285000D03*
X108535000Y-113285000D03*
%TD*%
D24*
%TO.C,R12*%
X130562500Y-71388333D03*
X128737500Y-71388333D03*
%TD*%
D27*
%TO.C,C36*%
X131210000Y-92315000D03*
X131210000Y-90765000D03*
%TD*%
D28*
%TO.C,FB2*%
X110225000Y-107630000D03*
X110225000Y-109530000D03*
%TD*%
D22*
%TO.C,C30*%
X130715000Y-85870000D03*
X129165000Y-85870000D03*
%TD*%
%TO.C,C44*%
X130730000Y-83990000D03*
X129180000Y-83990000D03*
%TD*%
D26*
%TO.C,C43*%
X108535000Y-114890000D03*
X110085000Y-114890000D03*
%TD*%
D24*
%TO.C,R13*%
X130562500Y-73640000D03*
X128737500Y-73640000D03*
%TD*%
%TO.C,R5*%
X130562500Y-64633333D03*
X128737500Y-64633333D03*
%TD*%
D22*
%TO.C,C17*%
X122555000Y-61850000D03*
X121005000Y-61850000D03*
%TD*%
D26*
%TO.C,C35*%
X147155000Y-93900000D03*
X148705000Y-93900000D03*
%TD*%
D29*
%TO.C,U1*%
X144650000Y-83590000D03*
X144650000Y-84390000D03*
X144650000Y-85190000D03*
X144650000Y-85990000D03*
X144650000Y-86790000D03*
X144650000Y-87590000D03*
X144650000Y-88390000D03*
X144650000Y-89190000D03*
X144650000Y-89990000D03*
X144650000Y-90790000D03*
X144650000Y-91590000D03*
X144650000Y-92390000D03*
X144650000Y-93190000D03*
X144650000Y-93990000D03*
X144650000Y-94790000D03*
X144650000Y-95590000D03*
X144650000Y-96390000D03*
X144650000Y-97190000D03*
X144650000Y-97990000D03*
X144650000Y-98790000D03*
X144650000Y-99590000D03*
X144650000Y-100390000D03*
X144650000Y-101190000D03*
X144650000Y-101990000D03*
X144650000Y-102790000D03*
X144650000Y-103590000D03*
X144650000Y-104390000D03*
X133150000Y-104390000D03*
X133150000Y-103590000D03*
X133150000Y-102790000D03*
X133150000Y-101990000D03*
X133150000Y-101190000D03*
X133150000Y-100390000D03*
X133150000Y-99590000D03*
X133150000Y-98790000D03*
X133150000Y-97990000D03*
X133150000Y-97190000D03*
X133150000Y-96390000D03*
X133150000Y-95590000D03*
X133150000Y-94790000D03*
X133150000Y-93990000D03*
X133150000Y-93190000D03*
X133150000Y-92390000D03*
X133150000Y-91590000D03*
X133150000Y-90790000D03*
X133150000Y-89990000D03*
X133150000Y-89190000D03*
X133150000Y-88390000D03*
X133150000Y-87590000D03*
X133150000Y-86790000D03*
X133150000Y-85990000D03*
X133150000Y-85190000D03*
X133150000Y-84390000D03*
X133150000Y-83590000D03*
%TD*%
D26*
%TO.C,C39*%
X121005000Y-59975000D03*
X122555000Y-59975000D03*
%TD*%
D22*
%TO.C,C34*%
X130705000Y-87610000D03*
X129155000Y-87610000D03*
%TD*%
D24*
%TO.C,R14*%
X130562500Y-60130000D03*
X128737500Y-60130000D03*
%TD*%
D27*
%TO.C,C33*%
X148180000Y-104315000D03*
X148180000Y-102765000D03*
%TD*%
D30*
%TO.C,D8*%
X114880000Y-100610000D03*
X114880000Y-98710000D03*
X116980000Y-99660000D03*
%TD*%
D26*
%TO.C,C32*%
X147155000Y-91165000D03*
X148705000Y-91165000D03*
%TD*%
D23*
%TO.C,R2*%
X128737500Y-69136667D03*
X130562500Y-69136667D03*
%TD*%
%TO.C,R3*%
X128737500Y-66885000D03*
X130562500Y-66885000D03*
%TD*%
D22*
%TO.C,C40*%
X122555000Y-63725000D03*
X121005000Y-63725000D03*
%TD*%
D26*
%TO.C,C31*%
X147155000Y-88430000D03*
X148705000Y-88430000D03*
%TD*%
D27*
%TO.C,C37*%
X146590000Y-104315000D03*
X146590000Y-102765000D03*
%TD*%
M02*
