%TF.GenerationSoftware,KiCad,Pcbnew,9.0.6*%
%TF.CreationDate,2026-04-12T20:53:46+02:00*%
%TF.ProjectId,rayman_LCD_STM,7261796d-616e-45f4-9c43-445f53544d2e,rev?*%
%TF.SameCoordinates,Original*%
%TF.FileFunction,OtherDrawing,Comment*%
%FSLAX46Y46*%
G04 Gerber Fmt 4.6, Leading zero omitted, Abs format (unit mm)*
G04 Created by KiCad (PCBNEW 9.0.6) date 2026-04-12 20:53:46*
%MOMM*%
%LPD*%
G01*
G04 APERTURE LIST*
%ADD10C,0.100000*%
G04 APERTURE END LIST*
D10*
X115677142Y-122054895D02*
X115677142Y-121254895D01*
X115677142Y-121254895D02*
X115981904Y-121254895D01*
X115981904Y-121254895D02*
X116058094Y-121292990D01*
X116058094Y-121292990D02*
X116096189Y-121331085D01*
X116096189Y-121331085D02*
X116134285Y-121407276D01*
X116134285Y-121407276D02*
X116134285Y-121521561D01*
X116134285Y-121521561D02*
X116096189Y-121597752D01*
X116096189Y-121597752D02*
X116058094Y-121635847D01*
X116058094Y-121635847D02*
X115981904Y-121673942D01*
X115981904Y-121673942D02*
X115677142Y-121673942D01*
X116934285Y-121978704D02*
X116896189Y-122016800D01*
X116896189Y-122016800D02*
X116781904Y-122054895D01*
X116781904Y-122054895D02*
X116705713Y-122054895D01*
X116705713Y-122054895D02*
X116591427Y-122016800D01*
X116591427Y-122016800D02*
X116515237Y-121940609D01*
X116515237Y-121940609D02*
X116477142Y-121864419D01*
X116477142Y-121864419D02*
X116439046Y-121712038D01*
X116439046Y-121712038D02*
X116439046Y-121597752D01*
X116439046Y-121597752D02*
X116477142Y-121445371D01*
X116477142Y-121445371D02*
X116515237Y-121369180D01*
X116515237Y-121369180D02*
X116591427Y-121292990D01*
X116591427Y-121292990D02*
X116705713Y-121254895D01*
X116705713Y-121254895D02*
X116781904Y-121254895D01*
X116781904Y-121254895D02*
X116896189Y-121292990D01*
X116896189Y-121292990D02*
X116934285Y-121331085D01*
X117543808Y-121635847D02*
X117658094Y-121673942D01*
X117658094Y-121673942D02*
X117696189Y-121712038D01*
X117696189Y-121712038D02*
X117734285Y-121788228D01*
X117734285Y-121788228D02*
X117734285Y-121902514D01*
X117734285Y-121902514D02*
X117696189Y-121978704D01*
X117696189Y-121978704D02*
X117658094Y-122016800D01*
X117658094Y-122016800D02*
X117581904Y-122054895D01*
X117581904Y-122054895D02*
X117277142Y-122054895D01*
X117277142Y-122054895D02*
X117277142Y-121254895D01*
X117277142Y-121254895D02*
X117543808Y-121254895D01*
X117543808Y-121254895D02*
X117619999Y-121292990D01*
X117619999Y-121292990D02*
X117658094Y-121331085D01*
X117658094Y-121331085D02*
X117696189Y-121407276D01*
X117696189Y-121407276D02*
X117696189Y-121483466D01*
X117696189Y-121483466D02*
X117658094Y-121559657D01*
X117658094Y-121559657D02*
X117619999Y-121597752D01*
X117619999Y-121597752D02*
X117543808Y-121635847D01*
X117543808Y-121635847D02*
X117277142Y-121635847D01*
X118686666Y-121635847D02*
X118953332Y-121635847D01*
X119067618Y-122054895D02*
X118686666Y-122054895D01*
X118686666Y-122054895D02*
X118686666Y-121254895D01*
X118686666Y-121254895D02*
X119067618Y-121254895D01*
X119753333Y-122054895D02*
X119753333Y-121254895D01*
X119753333Y-122016800D02*
X119677142Y-122054895D01*
X119677142Y-122054895D02*
X119524761Y-122054895D01*
X119524761Y-122054895D02*
X119448571Y-122016800D01*
X119448571Y-122016800D02*
X119410476Y-121978704D01*
X119410476Y-121978704D02*
X119372380Y-121902514D01*
X119372380Y-121902514D02*
X119372380Y-121673942D01*
X119372380Y-121673942D02*
X119410476Y-121597752D01*
X119410476Y-121597752D02*
X119448571Y-121559657D01*
X119448571Y-121559657D02*
X119524761Y-121521561D01*
X119524761Y-121521561D02*
X119677142Y-121521561D01*
X119677142Y-121521561D02*
X119753333Y-121559657D01*
X120477143Y-121521561D02*
X120477143Y-122169180D01*
X120477143Y-122169180D02*
X120439048Y-122245371D01*
X120439048Y-122245371D02*
X120400952Y-122283466D01*
X120400952Y-122283466D02*
X120324762Y-122321561D01*
X120324762Y-122321561D02*
X120210476Y-122321561D01*
X120210476Y-122321561D02*
X120134286Y-122283466D01*
X120477143Y-122016800D02*
X120400952Y-122054895D01*
X120400952Y-122054895D02*
X120248571Y-122054895D01*
X120248571Y-122054895D02*
X120172381Y-122016800D01*
X120172381Y-122016800D02*
X120134286Y-121978704D01*
X120134286Y-121978704D02*
X120096190Y-121902514D01*
X120096190Y-121902514D02*
X120096190Y-121673942D01*
X120096190Y-121673942D02*
X120134286Y-121597752D01*
X120134286Y-121597752D02*
X120172381Y-121559657D01*
X120172381Y-121559657D02*
X120248571Y-121521561D01*
X120248571Y-121521561D02*
X120400952Y-121521561D01*
X120400952Y-121521561D02*
X120477143Y-121559657D01*
X121162858Y-122016800D02*
X121086667Y-122054895D01*
X121086667Y-122054895D02*
X120934286Y-122054895D01*
X120934286Y-122054895D02*
X120858096Y-122016800D01*
X120858096Y-122016800D02*
X120820000Y-121940609D01*
X120820000Y-121940609D02*
X120820000Y-121635847D01*
X120820000Y-121635847D02*
X120858096Y-121559657D01*
X120858096Y-121559657D02*
X120934286Y-121521561D01*
X120934286Y-121521561D02*
X121086667Y-121521561D01*
X121086667Y-121521561D02*
X121162858Y-121559657D01*
X121162858Y-121559657D02*
X121200953Y-121635847D01*
X121200953Y-121635847D02*
X121200953Y-121712038D01*
X121200953Y-121712038D02*
X120820000Y-121788228D01*
%TO.C,J4*%
X131025000Y-121190000D02*
X105815000Y-121190000D01*
%TD*%
M02*
