%TF.GenerationSoftware,KiCad,Pcbnew,9.0.6*%
%TF.CreationDate,2026-04-12T20:53:46+02:00*%
%TF.ProjectId,rayman_LCD_STM,7261796d-616e-45f4-9c43-445f53544d2e,rev?*%
%TF.SameCoordinates,Original*%
%TF.FileFunction,Soldermask,Top*%
%TF.FilePolarity,Negative*%
%FSLAX46Y46*%
G04 Gerber Fmt 4.6, Leading zero omitted, Abs format (unit mm)*
G04 Created by KiCad (PCBNEW 9.0.6) date 2026-04-12 20:53:46*
%MOMM*%
%LPD*%
G01*
G04 APERTURE LIST*
G04 Aperture macros list*
%AMRoundRect*
0 Rectangle with rounded corners*
0 $1 Rounding radius*
0 $2 $3 $4 $5 $6 $7 $8 $9 X,Y pos of 4 corners*
0 Add a 4 corners polygon primitive as box body*
4,1,4,$2,$3,$4,$5,$6,$7,$8,$9,$2,$3,0*
0 Add four circle primitives for the rounded corners*
1,1,$1+$1,$2,$3*
1,1,$1+$1,$4,$5*
1,1,$1+$1,$6,$7*
1,1,$1+$1,$8,$9*
0 Add four rect primitives between the rounded corners*
20,1,$1+$1,$2,$3,$4,$5,0*
20,1,$1+$1,$4,$5,$6,$7,0*
20,1,$1+$1,$6,$7,$8,$9,0*
20,1,$1+$1,$8,$9,$2,$3,0*%
G04 Aperture macros list end*
%ADD10RoundRect,0.225000X0.250000X-0.225000X0.250000X0.225000X-0.250000X0.225000X-0.250000X-0.225000X0*%
%ADD11RoundRect,0.250000X0.650000X-1.000000X0.650000X1.000000X-0.650000X1.000000X-0.650000X-1.000000X0*%
%ADD12C,4.000000*%
%ADD13RoundRect,0.225000X-0.250000X0.225000X-0.250000X-0.225000X0.250000X-0.225000X0.250000X0.225000X0*%
%ADD14RoundRect,0.225000X-0.225000X-0.250000X0.225000X-0.250000X0.225000X0.250000X-0.225000X0.250000X0*%
%ADD15RoundRect,0.250000X-0.620000X-0.845000X0.620000X-0.845000X0.620000X0.845000X-0.620000X0.845000X0*%
%ADD16O,1.740000X2.190000*%
%ADD17RoundRect,0.250000X0.262500X0.450000X-0.262500X0.450000X-0.262500X-0.450000X0.262500X-0.450000X0*%
%ADD18RoundRect,0.250000X0.475000X-0.250000X0.475000X0.250000X-0.475000X0.250000X-0.475000X-0.250000X0*%
%ADD19RoundRect,0.136750X0.950250X0.410250X-0.950250X0.410250X-0.950250X-0.410250X0.950250X-0.410250X0*%
%ADD20RoundRect,0.271750X0.815250X1.425250X-0.815250X1.425250X-0.815250X-1.425250X0.815250X-1.425250X0*%
%ADD21RoundRect,0.225000X0.225000X0.250000X-0.225000X0.250000X-0.225000X-0.250000X0.225000X-0.250000X0*%
%ADD22RoundRect,0.362500X0.362500X0.937500X-0.362500X0.937500X-0.362500X-0.937500X0.362500X-0.937500X0*%
%ADD23RoundRect,0.243750X-0.243750X-0.456250X0.243750X-0.456250X0.243750X0.456250X-0.243750X0.456250X0*%
%ADD24RoundRect,0.250000X0.450000X-0.262500X0.450000X0.262500X-0.450000X0.262500X-0.450000X-0.262500X0*%
%ADD25R,0.300000X1.100000*%
%ADD26R,2.300000X3.100000*%
%ADD27C,3.250000*%
%ADD28R,1.500000X1.500000*%
%ADD29C,1.500000*%
%ADD30C,2.300000*%
%ADD31RoundRect,0.053000X0.419000X0.159000X-0.419000X0.159000X-0.419000X-0.159000X0.419000X-0.159000X0*%
%ADD32RoundRect,0.250000X0.900000X-1.000000X0.900000X1.000000X-0.900000X1.000000X-0.900000X-1.000000X0*%
%ADD33RoundRect,0.250000X-0.785000X-1.045000X0.785000X-1.045000X0.785000X1.045000X-0.785000X1.045000X0*%
%ADD34RoundRect,0.250000X-0.262500X-0.450000X0.262500X-0.450000X0.262500X0.450000X-0.262500X0.450000X0*%
%ADD35RoundRect,0.250000X-0.550000X-0.550000X0.550000X-0.550000X0.550000X0.550000X-0.550000X0.550000X0*%
%ADD36C,1.600000*%
%ADD37RoundRect,0.075000X-0.675000X-0.075000X0.675000X-0.075000X0.675000X0.075000X-0.675000X0.075000X0*%
%ADD38RoundRect,0.075000X-0.075000X-0.675000X0.075000X-0.675000X0.075000X0.675000X-0.075000X0.675000X0*%
%ADD39C,1.000000*%
%ADD40RoundRect,0.102000X-0.800000X0.350000X-0.800000X-0.350000X0.800000X-0.350000X0.800000X0.350000X0*%
%ADD41RoundRect,0.102000X-0.900000X0.600000X-0.900000X-0.600000X0.900000X-0.600000X0.900000X0.600000X0*%
%ADD42RoundRect,0.102000X-0.750000X0.800000X-0.750000X-0.800000X0.750000X-0.800000X0.750000X0.800000X0*%
%ADD43RoundRect,0.102000X-1.100000X0.600000X-1.100000X-0.600000X1.100000X-0.600000X1.100000X0.600000X0*%
%ADD44RoundRect,0.100500X-0.986500X-0.301500X0.986500X-0.301500X0.986500X0.301500X-0.986500X0.301500X0*%
%ADD45R,1.300000X0.300000*%
%ADD46R,2.200000X1.800000*%
%ADD47RoundRect,0.250000X-0.350000X-0.650000X0.350000X-0.650000X0.350000X0.650000X-0.350000X0.650000X0*%
%ADD48O,1.200000X1.800000*%
%ADD49RoundRect,0.102000X-1.905000X2.120900X-1.905000X-2.120900X1.905000X-2.120900X1.905000X2.120900X0*%
G04 APERTURE END LIST*
D10*
%TO.C,C2*%
X144147500Y-111125000D03*
X144147500Y-109575000D03*
%TD*%
D11*
%TO.C,D1*%
X149420000Y-122000000D03*
X149420000Y-118000000D03*
%TD*%
D12*
%TO.C,*%
X167870000Y-58410000D03*
%TD*%
D10*
%TO.C,C6*%
X153250000Y-114255000D03*
X153250000Y-112705000D03*
%TD*%
D13*
%TO.C,C22*%
X146640000Y-109575000D03*
X146640000Y-111125000D03*
%TD*%
D14*
%TO.C,C23*%
X154795000Y-103740000D03*
X156345000Y-103740000D03*
%TD*%
D15*
%TO.C,J5*%
X163490000Y-101330000D03*
D16*
X166030000Y-101330000D03*
X168570000Y-101330000D03*
X171110000Y-101330000D03*
%TD*%
D17*
%TO.C,R10*%
X164942500Y-80120000D03*
X163117500Y-80120000D03*
%TD*%
D14*
%TO.C,C16*%
X121405000Y-97160000D03*
X122955000Y-97160000D03*
%TD*%
%TO.C,C24*%
X154795000Y-99230000D03*
X156345000Y-99230000D03*
%TD*%
D18*
%TO.C,FB1*%
X119510000Y-104030000D03*
X119510000Y-102130000D03*
%TD*%
D19*
%TO.C,U4*%
X159975000Y-122070000D03*
X159975000Y-119770000D03*
X159975000Y-117470000D03*
D20*
X153925000Y-119770000D03*
%TD*%
D21*
%TO.C,C4*%
X122955000Y-92540000D03*
X121405000Y-92540000D03*
%TD*%
D22*
%TO.C,SW2*%
X169945000Y-74690000D03*
X164770000Y-74690000D03*
%TD*%
D23*
%TO.C,D4*%
X151222500Y-126730000D03*
X153097500Y-126730000D03*
%TD*%
D10*
%TO.C,C14*%
X139162500Y-111125000D03*
X139162500Y-109575000D03*
%TD*%
D21*
%TO.C,C18*%
X122955000Y-101780000D03*
X121405000Y-101780000D03*
%TD*%
D24*
%TO.C,R1*%
X133430000Y-77832500D03*
X133430000Y-76007500D03*
%TD*%
D25*
%TO.C,J4*%
X108670000Y-117090000D03*
X109170000Y-117090000D03*
X109670000Y-117090000D03*
X110170000Y-117090000D03*
X110670000Y-117090000D03*
X111170000Y-117090000D03*
X111670000Y-117090000D03*
X112170000Y-117090000D03*
X112670000Y-117090000D03*
X113170000Y-117090000D03*
X113670000Y-117090000D03*
X114170000Y-117090000D03*
X114670000Y-117090000D03*
X115170000Y-117090000D03*
X115670000Y-117090000D03*
X116170000Y-117090000D03*
X116670000Y-117090000D03*
X117170000Y-117090000D03*
X117670000Y-117090000D03*
X118170000Y-117090000D03*
X118670000Y-117090000D03*
X119170000Y-117090000D03*
X119670000Y-117090000D03*
X120170000Y-117090000D03*
X120670000Y-117090000D03*
X121170000Y-117090000D03*
X121670000Y-117090000D03*
X122170000Y-117090000D03*
X122670000Y-117090000D03*
X123170000Y-117090000D03*
X123670000Y-117090000D03*
X124170000Y-117090000D03*
X124670000Y-117090000D03*
X125170000Y-117090000D03*
X125670000Y-117090000D03*
X126170000Y-117090000D03*
X126670000Y-117090000D03*
X127170000Y-117090000D03*
X127670000Y-117090000D03*
X128170000Y-117090000D03*
D26*
X107000000Y-118790000D03*
X129840000Y-118790000D03*
%TD*%
D13*
%TO.C,C21*%
X141655000Y-109575000D03*
X141655000Y-111125000D03*
%TD*%
D12*
%TO.C,*%
X107870000Y-58410000D03*
%TD*%
D23*
%TO.C,D3*%
X151222500Y-129490000D03*
X153097500Y-129490000D03*
%TD*%
D10*
%TO.C,C9*%
X159090000Y-114255000D03*
X159090000Y-112705000D03*
%TD*%
%TO.C,C29*%
X130130000Y-77625000D03*
X130130000Y-76075000D03*
%TD*%
D27*
%TO.C,RJ_CAN1*%
X107660000Y-100910000D03*
X107660000Y-88210000D03*
D28*
X110200000Y-98120000D03*
D29*
X111980000Y-97104000D03*
X110200000Y-96088000D03*
X111980000Y-95072000D03*
X110200000Y-94056000D03*
X111980000Y-93040000D03*
X110200000Y-92024000D03*
X111980000Y-91008000D03*
D30*
X111090000Y-102690000D03*
X111090000Y-86430000D03*
%TD*%
D12*
%TO.C,REF\u002A\u002A*%
X167870000Y-128410000D03*
%TD*%
D31*
%TO.C,U2*%
X127060000Y-69480000D03*
X127060000Y-68980000D03*
X127060000Y-68480000D03*
X127060000Y-67980000D03*
X127060000Y-67480000D03*
X127060000Y-66980000D03*
X127060000Y-66480000D03*
X125720000Y-66480000D03*
X125720000Y-66980000D03*
X125720000Y-67480000D03*
X125720000Y-67980000D03*
X125720000Y-68480000D03*
X125720000Y-68980000D03*
X125720000Y-69480000D03*
%TD*%
D13*
%TO.C,C11*%
X130120000Y-109575000D03*
X130120000Y-111125000D03*
%TD*%
D32*
%TO.C,D2*%
X145150000Y-122140000D03*
X145150000Y-117840000D03*
%TD*%
D23*
%TO.C,D5*%
X106222500Y-106460000D03*
X108097500Y-106460000D03*
%TD*%
D33*
%TO.C,C10*%
X163510000Y-110080000D03*
X169750000Y-110080000D03*
%TD*%
D17*
%TO.C,R7*%
X163922500Y-123950000D03*
X162097500Y-123950000D03*
%TD*%
D21*
%TO.C,C1*%
X156355000Y-87450000D03*
X154805000Y-87450000D03*
%TD*%
D34*
%TO.C,R15*%
X136267500Y-117240000D03*
X138092500Y-117240000D03*
%TD*%
D35*
%TO.C,SW_CAN_T1*%
X105095000Y-81762500D03*
D36*
X112715000Y-81762500D03*
%TD*%
D21*
%TO.C,C20*%
X122955000Y-94850000D03*
X121405000Y-94850000D03*
%TD*%
D37*
%TO.C,U5*%
X126225000Y-83240000D03*
X126225000Y-83740000D03*
X126225000Y-84240000D03*
X126225000Y-84740000D03*
X126225000Y-85240000D03*
X126225000Y-85740000D03*
X126225000Y-86240000D03*
X126225000Y-86740000D03*
X126225000Y-87240000D03*
X126225000Y-87740000D03*
X126225000Y-88240000D03*
X126225000Y-88740000D03*
X126225000Y-89240000D03*
X126225000Y-89740000D03*
X126225000Y-90240000D03*
X126225000Y-90740000D03*
X126225000Y-91240000D03*
X126225000Y-91740000D03*
X126225000Y-92240000D03*
X126225000Y-92740000D03*
X126225000Y-93240000D03*
X126225000Y-93740000D03*
X126225000Y-94240000D03*
X126225000Y-94740000D03*
X126225000Y-95240000D03*
X126225000Y-95740000D03*
X126225000Y-96240000D03*
X126225000Y-96740000D03*
X126225000Y-97240000D03*
X126225000Y-97740000D03*
X126225000Y-98240000D03*
X126225000Y-98740000D03*
X126225000Y-99240000D03*
X126225000Y-99740000D03*
X126225000Y-100240000D03*
X126225000Y-100740000D03*
X126225000Y-101240000D03*
X126225000Y-101740000D03*
X126225000Y-102240000D03*
X126225000Y-102740000D03*
X126225000Y-103240000D03*
X126225000Y-103740000D03*
X126225000Y-104240000D03*
X126225000Y-104740000D03*
D38*
X128150000Y-106665000D03*
X128650000Y-106665000D03*
X129150000Y-106665000D03*
X129650000Y-106665000D03*
X130150000Y-106665000D03*
X130650000Y-106665000D03*
X131150000Y-106665000D03*
X131650000Y-106665000D03*
X132150000Y-106665000D03*
X132650000Y-106665000D03*
X133150000Y-106665000D03*
X133650000Y-106665000D03*
X134150000Y-106665000D03*
X134650000Y-106665000D03*
X135150000Y-106665000D03*
X135650000Y-106665000D03*
X136150000Y-106665000D03*
X136650000Y-106665000D03*
X137150000Y-106665000D03*
X137650000Y-106665000D03*
X138150000Y-106665000D03*
X138650000Y-106665000D03*
X139150000Y-106665000D03*
X139650000Y-106665000D03*
X140150000Y-106665000D03*
X140650000Y-106665000D03*
X141150000Y-106665000D03*
X141650000Y-106665000D03*
X142150000Y-106665000D03*
X142650000Y-106665000D03*
X143150000Y-106665000D03*
X143650000Y-106665000D03*
X144150000Y-106665000D03*
X144650000Y-106665000D03*
X145150000Y-106665000D03*
X145650000Y-106665000D03*
X146150000Y-106665000D03*
X146650000Y-106665000D03*
X147150000Y-106665000D03*
X147650000Y-106665000D03*
X148150000Y-106665000D03*
X148650000Y-106665000D03*
X149150000Y-106665000D03*
X149650000Y-106665000D03*
D37*
X151575000Y-104740000D03*
X151575000Y-104240000D03*
X151575000Y-103740000D03*
X151575000Y-103240000D03*
X151575000Y-102740000D03*
X151575000Y-102240000D03*
X151575000Y-101740000D03*
X151575000Y-101240000D03*
X151575000Y-100740000D03*
X151575000Y-100240000D03*
X151575000Y-99740000D03*
X151575000Y-99240000D03*
X151575000Y-98740000D03*
X151575000Y-98240000D03*
X151575000Y-97740000D03*
X151575000Y-97240000D03*
X151575000Y-96740000D03*
X151575000Y-96240000D03*
X151575000Y-95740000D03*
X151575000Y-95240000D03*
X151575000Y-94740000D03*
X151575000Y-94240000D03*
X151575000Y-93740000D03*
X151575000Y-93240000D03*
X151575000Y-92740000D03*
X151575000Y-92240000D03*
X151575000Y-91740000D03*
X151575000Y-91240000D03*
X151575000Y-90740000D03*
X151575000Y-90240000D03*
X151575000Y-89740000D03*
X151575000Y-89240000D03*
X151575000Y-88740000D03*
X151575000Y-88240000D03*
X151575000Y-87740000D03*
X151575000Y-87240000D03*
X151575000Y-86740000D03*
X151575000Y-86240000D03*
X151575000Y-85740000D03*
X151575000Y-85240000D03*
X151575000Y-84740000D03*
X151575000Y-84240000D03*
X151575000Y-83740000D03*
X151575000Y-83240000D03*
D38*
X149650000Y-81315000D03*
X149150000Y-81315000D03*
X148650000Y-81315000D03*
X148150000Y-81315000D03*
X147650000Y-81315000D03*
X147150000Y-81315000D03*
X146650000Y-81315000D03*
X146150000Y-81315000D03*
X145650000Y-81315000D03*
X145150000Y-81315000D03*
X144650000Y-81315000D03*
X144150000Y-81315000D03*
X143650000Y-81315000D03*
X143150000Y-81315000D03*
X142650000Y-81315000D03*
X142150000Y-81315000D03*
X141650000Y-81315000D03*
X141150000Y-81315000D03*
X140650000Y-81315000D03*
X140150000Y-81315000D03*
X139650000Y-81315000D03*
X139150000Y-81315000D03*
X138650000Y-81315000D03*
X138150000Y-81315000D03*
X137650000Y-81315000D03*
X137150000Y-81315000D03*
X136650000Y-81315000D03*
X136150000Y-81315000D03*
X135650000Y-81315000D03*
X135150000Y-81315000D03*
X134650000Y-81315000D03*
X134150000Y-81315000D03*
X133650000Y-81315000D03*
X133150000Y-81315000D03*
X132650000Y-81315000D03*
X132150000Y-81315000D03*
X131650000Y-81315000D03*
X131150000Y-81315000D03*
X130650000Y-81315000D03*
X130150000Y-81315000D03*
X129650000Y-81315000D03*
X129150000Y-81315000D03*
X128650000Y-81315000D03*
X128150000Y-81315000D03*
%TD*%
D39*
%TO.C,J3*%
X108080000Y-65620000D03*
X108080000Y-73620000D03*
D40*
X119080000Y-72820000D03*
X119080000Y-71720000D03*
X119080000Y-70620000D03*
X119080000Y-69520000D03*
X119080000Y-68420000D03*
X119080000Y-67320000D03*
X119080000Y-66220000D03*
X119080000Y-65120000D03*
X119080000Y-64020000D03*
D41*
X117780000Y-62820000D03*
D42*
X118030000Y-77420000D03*
D43*
X108480000Y-62820000D03*
X108480000Y-78320000D03*
%TD*%
D14*
%TO.C,C25*%
X154795000Y-85700000D03*
X156345000Y-85700000D03*
%TD*%
D24*
%TO.C,R29*%
X114930000Y-81892500D03*
X114930000Y-80067500D03*
%TD*%
D10*
%TO.C,C26*%
X148150000Y-77625000D03*
X148150000Y-76075000D03*
%TD*%
D44*
%TO.C,CAN1*%
X160210000Y-82425000D03*
X160210000Y-83695000D03*
X160210000Y-84965000D03*
X160210000Y-86235000D03*
X165150000Y-86235000D03*
X165150000Y-84965000D03*
X165150000Y-83695000D03*
X165150000Y-82425000D03*
%TD*%
D23*
%TO.C,D6*%
X106222500Y-109460000D03*
X108097500Y-109460000D03*
%TD*%
D10*
%TO.C,C7*%
X155196667Y-114255000D03*
X155196667Y-112705000D03*
%TD*%
%TO.C,C27*%
X141210000Y-77625000D03*
X141210000Y-76075000D03*
%TD*%
D45*
%TO.C,PROG1*%
X164530000Y-68090000D03*
X164530000Y-67590000D03*
X164530000Y-67090000D03*
X164530000Y-66590000D03*
X164530000Y-66090000D03*
X164530000Y-65590000D03*
X164530000Y-65090000D03*
X164530000Y-64590000D03*
D46*
X167780000Y-69990000D03*
X167780000Y-62690000D03*
%TD*%
D47*
%TO.C,J1*%
X157440000Y-127770000D03*
D48*
X159440000Y-127770000D03*
%TD*%
D12*
%TO.C,*%
X107870000Y-128410000D03*
%TD*%
D21*
%TO.C,C15*%
X156345000Y-94720000D03*
X154795000Y-94720000D03*
%TD*%
D10*
%TO.C,C8*%
X157143333Y-114255000D03*
X157143333Y-112705000D03*
%TD*%
D12*
%TO.C,*%
X167870000Y-58410000D03*
%TD*%
%TO.C,*%
X107870000Y-128410000D03*
%TD*%
%TO.C,*%
X167870000Y-128410000D03*
%TD*%
D13*
%TO.C,C12*%
X136670000Y-109575000D03*
X136670000Y-111125000D03*
%TD*%
D15*
%TO.C,J2*%
X163490000Y-93480000D03*
D16*
X166030000Y-93480000D03*
X168570000Y-93480000D03*
X171110000Y-93480000D03*
%TD*%
D12*
%TO.C,*%
X107870000Y-58410000D03*
%TD*%
D13*
%TO.C,C13*%
X135820000Y-76075000D03*
X135820000Y-77625000D03*
%TD*%
D14*
%TO.C,C19*%
X121405000Y-104090000D03*
X122955000Y-104090000D03*
%TD*%
D21*
%TO.C,C3*%
X122955000Y-90230000D03*
X121405000Y-90230000D03*
%TD*%
D49*
%TO.C,U3*%
X168030000Y-115942300D03*
X168030000Y-122317700D03*
%TD*%
D10*
%TO.C,C28*%
X138515000Y-77625000D03*
X138515000Y-76075000D03*
%TD*%
D21*
%TO.C,C5*%
X122955000Y-99470000D03*
X121405000Y-99470000D03*
%TD*%
M02*
