%TF.GenerationSoftware,KiCad,Pcbnew,9.0.6*%
%TF.CreationDate,2026-04-12T20:53:47+02:00*%
%TF.ProjectId,rayman_LCD_STM,7261796d-616e-45f4-9c43-445f53544d2e,rev?*%
%TF.SameCoordinates,Original*%
%TF.FileFunction,AssemblyDrawing,Bot*%
%FSLAX46Y46*%
G04 Gerber Fmt 4.6, Leading zero omitted, Abs format (unit mm)*
G04 Created by KiCad (PCBNEW 9.0.6) date 2026-04-12 20:53:47*
%MOMM*%
%LPD*%
G01*
G04 APERTURE LIST*
%ADD10C,0.100000*%
%ADD11C,0.120431*%
%ADD12C,0.150000*%
%ADD13C,0.060000*%
%ADD14C,0.080058*%
%ADD15C,0.127000*%
%ADD16C,0.152400*%
G04 APERTURE END LIST*
D10*
X110167143Y-113474895D02*
X110624286Y-113474895D01*
X110395714Y-113474895D02*
X110395714Y-112674895D01*
X110395714Y-112674895D02*
X110471905Y-112789180D01*
X110471905Y-112789180D02*
X110548095Y-112865371D01*
X110548095Y-112865371D02*
X110624286Y-112903466D01*
X109671904Y-112674895D02*
X109595714Y-112674895D01*
X109595714Y-112674895D02*
X109519523Y-112712990D01*
X109519523Y-112712990D02*
X109481428Y-112751085D01*
X109481428Y-112751085D02*
X109443333Y-112827276D01*
X109443333Y-112827276D02*
X109405238Y-112979657D01*
X109405238Y-112979657D02*
X109405238Y-113170133D01*
X109405238Y-113170133D02*
X109443333Y-113322514D01*
X109443333Y-113322514D02*
X109481428Y-113398704D01*
X109481428Y-113398704D02*
X109519523Y-113436800D01*
X109519523Y-113436800D02*
X109595714Y-113474895D01*
X109595714Y-113474895D02*
X109671904Y-113474895D01*
X109671904Y-113474895D02*
X109748095Y-113436800D01*
X109748095Y-113436800D02*
X109786190Y-113398704D01*
X109786190Y-113398704D02*
X109824285Y-113322514D01*
X109824285Y-113322514D02*
X109862381Y-113170133D01*
X109862381Y-113170133D02*
X109862381Y-112979657D01*
X109862381Y-112979657D02*
X109824285Y-112827276D01*
X109824285Y-112827276D02*
X109786190Y-112751085D01*
X109786190Y-112751085D02*
X109748095Y-112712990D01*
X109748095Y-112712990D02*
X109671904Y-112674895D01*
X108719523Y-112941561D02*
X108719523Y-113474895D01*
X109062380Y-112941561D02*
X109062380Y-113360609D01*
X109062380Y-113360609D02*
X109024285Y-113436800D01*
X109024285Y-113436800D02*
X108948095Y-113474895D01*
X108948095Y-113474895D02*
X108833809Y-113474895D01*
X108833809Y-113474895D02*
X108757618Y-113436800D01*
X108757618Y-113436800D02*
X108719523Y-113398704D01*
X108071904Y-113055847D02*
X108338570Y-113055847D01*
X108338570Y-113474895D02*
X108338570Y-112674895D01*
X108338570Y-112674895D02*
X107957618Y-112674895D01*
X109824285Y-111968704D02*
X109862381Y-112006800D01*
X109862381Y-112006800D02*
X109976666Y-112044895D01*
X109976666Y-112044895D02*
X110052857Y-112044895D01*
X110052857Y-112044895D02*
X110167143Y-112006800D01*
X110167143Y-112006800D02*
X110243333Y-111930609D01*
X110243333Y-111930609D02*
X110281428Y-111854419D01*
X110281428Y-111854419D02*
X110319524Y-111702038D01*
X110319524Y-111702038D02*
X110319524Y-111587752D01*
X110319524Y-111587752D02*
X110281428Y-111435371D01*
X110281428Y-111435371D02*
X110243333Y-111359180D01*
X110243333Y-111359180D02*
X110167143Y-111282990D01*
X110167143Y-111282990D02*
X110052857Y-111244895D01*
X110052857Y-111244895D02*
X109976666Y-111244895D01*
X109976666Y-111244895D02*
X109862381Y-111282990D01*
X109862381Y-111282990D02*
X109824285Y-111321085D01*
X109138571Y-111511561D02*
X109138571Y-112044895D01*
X109329047Y-111206800D02*
X109519524Y-111778228D01*
X109519524Y-111778228D02*
X109024285Y-111778228D01*
X108300476Y-112044895D02*
X108757619Y-112044895D01*
X108529047Y-112044895D02*
X108529047Y-111244895D01*
X108529047Y-111244895D02*
X108605238Y-111359180D01*
X108605238Y-111359180D02*
X108681428Y-111435371D01*
X108681428Y-111435371D02*
X108757619Y-111473466D01*
X108073333Y-104451085D02*
X108035237Y-104412990D01*
X108035237Y-104412990D02*
X107959047Y-104374895D01*
X107959047Y-104374895D02*
X107768571Y-104374895D01*
X107768571Y-104374895D02*
X107692380Y-104412990D01*
X107692380Y-104412990D02*
X107654285Y-104451085D01*
X107654285Y-104451085D02*
X107616190Y-104527276D01*
X107616190Y-104527276D02*
X107616190Y-104603466D01*
X107616190Y-104603466D02*
X107654285Y-104717752D01*
X107654285Y-104717752D02*
X108111428Y-105174895D01*
X108111428Y-105174895D02*
X107616190Y-105174895D01*
X107273332Y-105174895D02*
X107273332Y-104374895D01*
X107197142Y-104870133D02*
X106968570Y-105174895D01*
X106968570Y-104641561D02*
X107273332Y-104946323D01*
X106663809Y-104451085D02*
X106625713Y-104412990D01*
X106625713Y-104412990D02*
X106549523Y-104374895D01*
X106549523Y-104374895D02*
X106359047Y-104374895D01*
X106359047Y-104374895D02*
X106282856Y-104412990D01*
X106282856Y-104412990D02*
X106244761Y-104451085D01*
X106244761Y-104451085D02*
X106206666Y-104527276D01*
X106206666Y-104527276D02*
X106206666Y-104603466D01*
X106206666Y-104603466D02*
X106244761Y-104717752D01*
X106244761Y-104717752D02*
X106701904Y-105174895D01*
X106701904Y-105174895D02*
X106206666Y-105174895D01*
X107273332Y-106824895D02*
X107539999Y-106443942D01*
X107730475Y-106824895D02*
X107730475Y-106024895D01*
X107730475Y-106024895D02*
X107425713Y-106024895D01*
X107425713Y-106024895D02*
X107349523Y-106062990D01*
X107349523Y-106062990D02*
X107311428Y-106101085D01*
X107311428Y-106101085D02*
X107273332Y-106177276D01*
X107273332Y-106177276D02*
X107273332Y-106291561D01*
X107273332Y-106291561D02*
X107311428Y-106367752D01*
X107311428Y-106367752D02*
X107349523Y-106405847D01*
X107349523Y-106405847D02*
X107425713Y-106443942D01*
X107425713Y-106443942D02*
X107730475Y-106443942D01*
X106816190Y-106367752D02*
X106892380Y-106329657D01*
X106892380Y-106329657D02*
X106930475Y-106291561D01*
X106930475Y-106291561D02*
X106968571Y-106215371D01*
X106968571Y-106215371D02*
X106968571Y-106177276D01*
X106968571Y-106177276D02*
X106930475Y-106101085D01*
X106930475Y-106101085D02*
X106892380Y-106062990D01*
X106892380Y-106062990D02*
X106816190Y-106024895D01*
X106816190Y-106024895D02*
X106663809Y-106024895D01*
X106663809Y-106024895D02*
X106587618Y-106062990D01*
X106587618Y-106062990D02*
X106549523Y-106101085D01*
X106549523Y-106101085D02*
X106511428Y-106177276D01*
X106511428Y-106177276D02*
X106511428Y-106215371D01*
X106511428Y-106215371D02*
X106549523Y-106291561D01*
X106549523Y-106291561D02*
X106587618Y-106329657D01*
X106587618Y-106329657D02*
X106663809Y-106367752D01*
X106663809Y-106367752D02*
X106816190Y-106367752D01*
X106816190Y-106367752D02*
X106892380Y-106405847D01*
X106892380Y-106405847D02*
X106930475Y-106443942D01*
X106930475Y-106443942D02*
X106968571Y-106520133D01*
X106968571Y-106520133D02*
X106968571Y-106672514D01*
X106968571Y-106672514D02*
X106930475Y-106748704D01*
X106930475Y-106748704D02*
X106892380Y-106786800D01*
X106892380Y-106786800D02*
X106816190Y-106824895D01*
X106816190Y-106824895D02*
X106663809Y-106824895D01*
X106663809Y-106824895D02*
X106587618Y-106786800D01*
X106587618Y-106786800D02*
X106549523Y-106748704D01*
X106549523Y-106748704D02*
X106511428Y-106672514D01*
X106511428Y-106672514D02*
X106511428Y-106520133D01*
X106511428Y-106520133D02*
X106549523Y-106443942D01*
X106549523Y-106443942D02*
X106587618Y-106405847D01*
X106587618Y-106405847D02*
X106663809Y-106367752D01*
X154516190Y-128224895D02*
X154973333Y-128224895D01*
X154744761Y-128224895D02*
X154744761Y-127424895D01*
X154744761Y-127424895D02*
X154820952Y-127539180D01*
X154820952Y-127539180D02*
X154897142Y-127615371D01*
X154897142Y-127615371D02*
X154973333Y-127653466D01*
X154020951Y-127424895D02*
X153944761Y-127424895D01*
X153944761Y-127424895D02*
X153868570Y-127462990D01*
X153868570Y-127462990D02*
X153830475Y-127501085D01*
X153830475Y-127501085D02*
X153792380Y-127577276D01*
X153792380Y-127577276D02*
X153754285Y-127729657D01*
X153754285Y-127729657D02*
X153754285Y-127920133D01*
X153754285Y-127920133D02*
X153792380Y-128072514D01*
X153792380Y-128072514D02*
X153830475Y-128148704D01*
X153830475Y-128148704D02*
X153868570Y-128186800D01*
X153868570Y-128186800D02*
X153944761Y-128224895D01*
X153944761Y-128224895D02*
X154020951Y-128224895D01*
X154020951Y-128224895D02*
X154097142Y-128186800D01*
X154097142Y-128186800D02*
X154135237Y-128148704D01*
X154135237Y-128148704D02*
X154173332Y-128072514D01*
X154173332Y-128072514D02*
X154211428Y-127920133D01*
X154211428Y-127920133D02*
X154211428Y-127729657D01*
X154211428Y-127729657D02*
X154173332Y-127577276D01*
X154173332Y-127577276D02*
X154135237Y-127501085D01*
X154135237Y-127501085D02*
X154097142Y-127462990D01*
X154097142Y-127462990D02*
X154020951Y-127424895D01*
X153411427Y-128224895D02*
X153411427Y-127424895D01*
X153335237Y-127920133D02*
X153106665Y-128224895D01*
X153106665Y-127691561D02*
X153411427Y-127996323D01*
X154173332Y-129874895D02*
X154439999Y-129493942D01*
X154630475Y-129874895D02*
X154630475Y-129074895D01*
X154630475Y-129074895D02*
X154325713Y-129074895D01*
X154325713Y-129074895D02*
X154249523Y-129112990D01*
X154249523Y-129112990D02*
X154211428Y-129151085D01*
X154211428Y-129151085D02*
X154173332Y-129227276D01*
X154173332Y-129227276D02*
X154173332Y-129341561D01*
X154173332Y-129341561D02*
X154211428Y-129417752D01*
X154211428Y-129417752D02*
X154249523Y-129455847D01*
X154249523Y-129455847D02*
X154325713Y-129493942D01*
X154325713Y-129493942D02*
X154630475Y-129493942D01*
X153487618Y-129074895D02*
X153639999Y-129074895D01*
X153639999Y-129074895D02*
X153716190Y-129112990D01*
X153716190Y-129112990D02*
X153754285Y-129151085D01*
X153754285Y-129151085D02*
X153830475Y-129265371D01*
X153830475Y-129265371D02*
X153868571Y-129417752D01*
X153868571Y-129417752D02*
X153868571Y-129722514D01*
X153868571Y-129722514D02*
X153830475Y-129798704D01*
X153830475Y-129798704D02*
X153792380Y-129836800D01*
X153792380Y-129836800D02*
X153716190Y-129874895D01*
X153716190Y-129874895D02*
X153563809Y-129874895D01*
X153563809Y-129874895D02*
X153487618Y-129836800D01*
X153487618Y-129836800D02*
X153449523Y-129798704D01*
X153449523Y-129798704D02*
X153411428Y-129722514D01*
X153411428Y-129722514D02*
X153411428Y-129532038D01*
X153411428Y-129532038D02*
X153449523Y-129455847D01*
X153449523Y-129455847D02*
X153487618Y-129417752D01*
X153487618Y-129417752D02*
X153563809Y-129379657D01*
X153563809Y-129379657D02*
X153716190Y-129379657D01*
X153716190Y-129379657D02*
X153792380Y-129417752D01*
X153792380Y-129417752D02*
X153830475Y-129455847D01*
X153830475Y-129455847D02*
X153868571Y-129532038D01*
X130278571Y-63863228D02*
X130278571Y-64396562D01*
X130469047Y-63558467D02*
X130659524Y-64129895D01*
X130659524Y-64129895D02*
X130164285Y-64129895D01*
X129935714Y-63596562D02*
X129402380Y-63596562D01*
X129402380Y-63596562D02*
X129745238Y-64396562D01*
X129097618Y-64396562D02*
X129097618Y-63596562D01*
X128640475Y-64396562D02*
X128983333Y-63939419D01*
X128640475Y-63596562D02*
X129097618Y-64053705D01*
X129783332Y-62746562D02*
X130049999Y-62365609D01*
X130240475Y-62746562D02*
X130240475Y-61946562D01*
X130240475Y-61946562D02*
X129935713Y-61946562D01*
X129935713Y-61946562D02*
X129859523Y-61984657D01*
X129859523Y-61984657D02*
X129821428Y-62022752D01*
X129821428Y-62022752D02*
X129783332Y-62098943D01*
X129783332Y-62098943D02*
X129783332Y-62213228D01*
X129783332Y-62213228D02*
X129821428Y-62289419D01*
X129821428Y-62289419D02*
X129859523Y-62327514D01*
X129859523Y-62327514D02*
X129935713Y-62365609D01*
X129935713Y-62365609D02*
X130240475Y-62365609D01*
X129097618Y-62213228D02*
X129097618Y-62746562D01*
X129288094Y-61908467D02*
X129478571Y-62479895D01*
X129478571Y-62479895D02*
X128983332Y-62479895D01*
X108073333Y-107451085D02*
X108035237Y-107412990D01*
X108035237Y-107412990D02*
X107959047Y-107374895D01*
X107959047Y-107374895D02*
X107768571Y-107374895D01*
X107768571Y-107374895D02*
X107692380Y-107412990D01*
X107692380Y-107412990D02*
X107654285Y-107451085D01*
X107654285Y-107451085D02*
X107616190Y-107527276D01*
X107616190Y-107527276D02*
X107616190Y-107603466D01*
X107616190Y-107603466D02*
X107654285Y-107717752D01*
X107654285Y-107717752D02*
X108111428Y-108174895D01*
X108111428Y-108174895D02*
X107616190Y-108174895D01*
X107273332Y-108174895D02*
X107273332Y-107374895D01*
X107197142Y-107870133D02*
X106968570Y-108174895D01*
X106968570Y-107641561D02*
X107273332Y-107946323D01*
X106663809Y-107451085D02*
X106625713Y-107412990D01*
X106625713Y-107412990D02*
X106549523Y-107374895D01*
X106549523Y-107374895D02*
X106359047Y-107374895D01*
X106359047Y-107374895D02*
X106282856Y-107412990D01*
X106282856Y-107412990D02*
X106244761Y-107451085D01*
X106244761Y-107451085D02*
X106206666Y-107527276D01*
X106206666Y-107527276D02*
X106206666Y-107603466D01*
X106206666Y-107603466D02*
X106244761Y-107717752D01*
X106244761Y-107717752D02*
X106701904Y-108174895D01*
X106701904Y-108174895D02*
X106206666Y-108174895D01*
X107273332Y-109824895D02*
X107539999Y-109443942D01*
X107730475Y-109824895D02*
X107730475Y-109024895D01*
X107730475Y-109024895D02*
X107425713Y-109024895D01*
X107425713Y-109024895D02*
X107349523Y-109062990D01*
X107349523Y-109062990D02*
X107311428Y-109101085D01*
X107311428Y-109101085D02*
X107273332Y-109177276D01*
X107273332Y-109177276D02*
X107273332Y-109291561D01*
X107273332Y-109291561D02*
X107311428Y-109367752D01*
X107311428Y-109367752D02*
X107349523Y-109405847D01*
X107349523Y-109405847D02*
X107425713Y-109443942D01*
X107425713Y-109443942D02*
X107730475Y-109443942D01*
X106892380Y-109824895D02*
X106739999Y-109824895D01*
X106739999Y-109824895D02*
X106663809Y-109786800D01*
X106663809Y-109786800D02*
X106625713Y-109748704D01*
X106625713Y-109748704D02*
X106549523Y-109634419D01*
X106549523Y-109634419D02*
X106511428Y-109482038D01*
X106511428Y-109482038D02*
X106511428Y-109177276D01*
X106511428Y-109177276D02*
X106549523Y-109101085D01*
X106549523Y-109101085D02*
X106587618Y-109062990D01*
X106587618Y-109062990D02*
X106663809Y-109024895D01*
X106663809Y-109024895D02*
X106816190Y-109024895D01*
X106816190Y-109024895D02*
X106892380Y-109062990D01*
X106892380Y-109062990D02*
X106930475Y-109101085D01*
X106930475Y-109101085D02*
X106968571Y-109177276D01*
X106968571Y-109177276D02*
X106968571Y-109367752D01*
X106968571Y-109367752D02*
X106930475Y-109443942D01*
X106930475Y-109443942D02*
X106892380Y-109482038D01*
X106892380Y-109482038D02*
X106816190Y-109520133D01*
X106816190Y-109520133D02*
X106663809Y-109520133D01*
X106663809Y-109520133D02*
X106587618Y-109482038D01*
X106587618Y-109482038D02*
X106549523Y-109443942D01*
X106549523Y-109443942D02*
X106511428Y-109367752D01*
D11*
X115588680Y-74875943D02*
X115588680Y-75105336D01*
X115726316Y-74830065D02*
X115244592Y-74990640D01*
X115244592Y-74990640D02*
X115726316Y-75151214D01*
X115680437Y-75587060D02*
X115703377Y-75564120D01*
X115703377Y-75564120D02*
X115726316Y-75495303D01*
X115726316Y-75495303D02*
X115726316Y-75449424D01*
X115726316Y-75449424D02*
X115703377Y-75380606D01*
X115703377Y-75380606D02*
X115657498Y-75334728D01*
X115657498Y-75334728D02*
X115611620Y-75311789D01*
X115611620Y-75311789D02*
X115519863Y-75288849D01*
X115519863Y-75288849D02*
X115451045Y-75288849D01*
X115451045Y-75288849D02*
X115359288Y-75311789D01*
X115359288Y-75311789D02*
X115313409Y-75334728D01*
X115313409Y-75334728D02*
X115267531Y-75380606D01*
X115267531Y-75380606D02*
X115244592Y-75449424D01*
X115244592Y-75449424D02*
X115244592Y-75495303D01*
X115244592Y-75495303D02*
X115267531Y-75564120D01*
X115267531Y-75564120D02*
X115290470Y-75587060D01*
X115726316Y-75793513D02*
X115244592Y-75793513D01*
X115244592Y-75793513D02*
X115588680Y-75954087D01*
X115588680Y-75954087D02*
X115244592Y-76114662D01*
X115244592Y-76114662D02*
X115726316Y-76114662D01*
X115290470Y-76321115D02*
X115267531Y-76344055D01*
X115267531Y-76344055D02*
X115244592Y-76389933D01*
X115244592Y-76389933D02*
X115244592Y-76504629D01*
X115244592Y-76504629D02*
X115267531Y-76550508D01*
X115267531Y-76550508D02*
X115290470Y-76573447D01*
X115290470Y-76573447D02*
X115336349Y-76596386D01*
X115336349Y-76596386D02*
X115382227Y-76596386D01*
X115382227Y-76596386D02*
X115451045Y-76573447D01*
X115451045Y-76573447D02*
X115726316Y-76298176D01*
X115726316Y-76298176D02*
X115726316Y-76596386D01*
X115244592Y-76894597D02*
X115244592Y-76940475D01*
X115244592Y-76940475D02*
X115267531Y-76986354D01*
X115267531Y-76986354D02*
X115290470Y-77009293D01*
X115290470Y-77009293D02*
X115336349Y-77032232D01*
X115336349Y-77032232D02*
X115428106Y-77055171D01*
X115428106Y-77055171D02*
X115542802Y-77055171D01*
X115542802Y-77055171D02*
X115634559Y-77032232D01*
X115634559Y-77032232D02*
X115680437Y-77009293D01*
X115680437Y-77009293D02*
X115703377Y-76986354D01*
X115703377Y-76986354D02*
X115726316Y-76940475D01*
X115726316Y-76940475D02*
X115726316Y-76894597D01*
X115726316Y-76894597D02*
X115703377Y-76848718D01*
X115703377Y-76848718D02*
X115680437Y-76825779D01*
X115680437Y-76825779D02*
X115634559Y-76802840D01*
X115634559Y-76802840D02*
X115542802Y-76779900D01*
X115542802Y-76779900D02*
X115428106Y-76779900D01*
X115428106Y-76779900D02*
X115336349Y-76802840D01*
X115336349Y-76802840D02*
X115290470Y-76825779D01*
X115290470Y-76825779D02*
X115267531Y-76848718D01*
X115267531Y-76848718D02*
X115244592Y-76894597D01*
X115726316Y-77513956D02*
X115726316Y-77238685D01*
X115726316Y-77376321D02*
X115244592Y-77376321D01*
X115244592Y-77376321D02*
X115313409Y-77330442D01*
X115313409Y-77330442D02*
X115359288Y-77284564D01*
X115359288Y-77284564D02*
X115382227Y-77238685D01*
X115290470Y-77697470D02*
X115267531Y-77720410D01*
X115267531Y-77720410D02*
X115244592Y-77766288D01*
X115244592Y-77766288D02*
X115244592Y-77880984D01*
X115244592Y-77880984D02*
X115267531Y-77926863D01*
X115267531Y-77926863D02*
X115290470Y-77949802D01*
X115290470Y-77949802D02*
X115336349Y-77972741D01*
X115336349Y-77972741D02*
X115382227Y-77972741D01*
X115382227Y-77972741D02*
X115451045Y-77949802D01*
X115451045Y-77949802D02*
X115726316Y-77674531D01*
X115726316Y-77674531D02*
X115726316Y-77972741D01*
X115542802Y-78179195D02*
X115542802Y-78546223D01*
X115726316Y-78798554D02*
X115726316Y-78890311D01*
X115726316Y-78890311D02*
X115703377Y-78936189D01*
X115703377Y-78936189D02*
X115680437Y-78959129D01*
X115680437Y-78959129D02*
X115611620Y-79005007D01*
X115611620Y-79005007D02*
X115519863Y-79027946D01*
X115519863Y-79027946D02*
X115336349Y-79027946D01*
X115336349Y-79027946D02*
X115290470Y-79005007D01*
X115290470Y-79005007D02*
X115267531Y-78982068D01*
X115267531Y-78982068D02*
X115244592Y-78936189D01*
X115244592Y-78936189D02*
X115244592Y-78844432D01*
X115244592Y-78844432D02*
X115267531Y-78798554D01*
X115267531Y-78798554D02*
X115290470Y-78775615D01*
X115290470Y-78775615D02*
X115336349Y-78752675D01*
X115336349Y-78752675D02*
X115451045Y-78752675D01*
X115451045Y-78752675D02*
X115496923Y-78775615D01*
X115496923Y-78775615D02*
X115519863Y-78798554D01*
X115519863Y-78798554D02*
X115542802Y-78844432D01*
X115542802Y-78844432D02*
X115542802Y-78936189D01*
X115542802Y-78936189D02*
X115519863Y-78982068D01*
X115519863Y-78982068D02*
X115496923Y-79005007D01*
X115496923Y-79005007D02*
X115451045Y-79027946D01*
X115244592Y-79326157D02*
X115244592Y-79372035D01*
X115244592Y-79372035D02*
X115267531Y-79417914D01*
X115267531Y-79417914D02*
X115290470Y-79440853D01*
X115290470Y-79440853D02*
X115336349Y-79463792D01*
X115336349Y-79463792D02*
X115428106Y-79486731D01*
X115428106Y-79486731D02*
X115542802Y-79486731D01*
X115542802Y-79486731D02*
X115634559Y-79463792D01*
X115634559Y-79463792D02*
X115680437Y-79440853D01*
X115680437Y-79440853D02*
X115703377Y-79417914D01*
X115703377Y-79417914D02*
X115726316Y-79372035D01*
X115726316Y-79372035D02*
X115726316Y-79326157D01*
X115726316Y-79326157D02*
X115703377Y-79280278D01*
X115703377Y-79280278D02*
X115680437Y-79257339D01*
X115680437Y-79257339D02*
X115634559Y-79234400D01*
X115634559Y-79234400D02*
X115542802Y-79211460D01*
X115542802Y-79211460D02*
X115428106Y-79211460D01*
X115428106Y-79211460D02*
X115336349Y-79234400D01*
X115336349Y-79234400D02*
X115290470Y-79257339D01*
X115290470Y-79257339D02*
X115267531Y-79280278D01*
X115267531Y-79280278D02*
X115244592Y-79326157D01*
X115244592Y-79784942D02*
X115244592Y-79830820D01*
X115244592Y-79830820D02*
X115267531Y-79876699D01*
X115267531Y-79876699D02*
X115290470Y-79899638D01*
X115290470Y-79899638D02*
X115336349Y-79922577D01*
X115336349Y-79922577D02*
X115428106Y-79945516D01*
X115428106Y-79945516D02*
X115542802Y-79945516D01*
X115542802Y-79945516D02*
X115634559Y-79922577D01*
X115634559Y-79922577D02*
X115680437Y-79899638D01*
X115680437Y-79899638D02*
X115703377Y-79876699D01*
X115703377Y-79876699D02*
X115726316Y-79830820D01*
X115726316Y-79830820D02*
X115726316Y-79784942D01*
X115726316Y-79784942D02*
X115703377Y-79739063D01*
X115703377Y-79739063D02*
X115680437Y-79716124D01*
X115680437Y-79716124D02*
X115634559Y-79693185D01*
X115634559Y-79693185D02*
X115542802Y-79670245D01*
X115542802Y-79670245D02*
X115428106Y-79670245D01*
X115428106Y-79670245D02*
X115336349Y-79693185D01*
X115336349Y-79693185D02*
X115290470Y-79716124D01*
X115290470Y-79716124D02*
X115267531Y-79739063D01*
X115267531Y-79739063D02*
X115244592Y-79784942D01*
X115542802Y-80151970D02*
X115542802Y-80518998D01*
X115290470Y-80725450D02*
X115267531Y-80748390D01*
X115267531Y-80748390D02*
X115244592Y-80794268D01*
X115244592Y-80794268D02*
X115244592Y-80908964D01*
X115244592Y-80908964D02*
X115267531Y-80954843D01*
X115267531Y-80954843D02*
X115290470Y-80977782D01*
X115290470Y-80977782D02*
X115336349Y-81000721D01*
X115336349Y-81000721D02*
X115382227Y-81000721D01*
X115382227Y-81000721D02*
X115451045Y-80977782D01*
X115451045Y-80977782D02*
X115726316Y-80702511D01*
X115726316Y-80702511D02*
X115726316Y-81000721D01*
X115726316Y-81207175D02*
X115244592Y-81207175D01*
X115244592Y-81207175D02*
X115244592Y-81390689D01*
X115244592Y-81390689D02*
X115267531Y-81436567D01*
X115267531Y-81436567D02*
X115290470Y-81459506D01*
X115290470Y-81459506D02*
X115336349Y-81482446D01*
X115336349Y-81482446D02*
X115405166Y-81482446D01*
X115405166Y-81482446D02*
X115451045Y-81459506D01*
X115451045Y-81459506D02*
X115473984Y-81436567D01*
X115473984Y-81436567D02*
X115496923Y-81390689D01*
X115496923Y-81390689D02*
X115496923Y-81207175D01*
X115542802Y-81688899D02*
X115542802Y-82055927D01*
X115244592Y-82216501D02*
X115244592Y-82491772D01*
X115726316Y-82354136D02*
X115244592Y-82354136D01*
X115244592Y-82744104D02*
X115244592Y-82789982D01*
X115244592Y-82789982D02*
X115267531Y-82835861D01*
X115267531Y-82835861D02*
X115290470Y-82858800D01*
X115290470Y-82858800D02*
X115336349Y-82881739D01*
X115336349Y-82881739D02*
X115428106Y-82904678D01*
X115428106Y-82904678D02*
X115542802Y-82904678D01*
X115542802Y-82904678D02*
X115634559Y-82881739D01*
X115634559Y-82881739D02*
X115680437Y-82858800D01*
X115680437Y-82858800D02*
X115703377Y-82835861D01*
X115703377Y-82835861D02*
X115726316Y-82789982D01*
X115726316Y-82789982D02*
X115726316Y-82744104D01*
X115726316Y-82744104D02*
X115703377Y-82698225D01*
X115703377Y-82698225D02*
X115680437Y-82675286D01*
X115680437Y-82675286D02*
X115634559Y-82652347D01*
X115634559Y-82652347D02*
X115542802Y-82629407D01*
X115542802Y-82629407D02*
X115428106Y-82629407D01*
X115428106Y-82629407D02*
X115336349Y-82652347D01*
X115336349Y-82652347D02*
X115290470Y-82675286D01*
X115290470Y-82675286D02*
X115267531Y-82698225D01*
X115267531Y-82698225D02*
X115244592Y-82744104D01*
X115244592Y-83202889D02*
X115244592Y-83248767D01*
X115244592Y-83248767D02*
X115267531Y-83294646D01*
X115267531Y-83294646D02*
X115290470Y-83317585D01*
X115290470Y-83317585D02*
X115336349Y-83340524D01*
X115336349Y-83340524D02*
X115428106Y-83363463D01*
X115428106Y-83363463D02*
X115542802Y-83363463D01*
X115542802Y-83363463D02*
X115634559Y-83340524D01*
X115634559Y-83340524D02*
X115680437Y-83317585D01*
X115680437Y-83317585D02*
X115703377Y-83294646D01*
X115703377Y-83294646D02*
X115726316Y-83248767D01*
X115726316Y-83248767D02*
X115726316Y-83202889D01*
X115726316Y-83202889D02*
X115703377Y-83157010D01*
X115703377Y-83157010D02*
X115680437Y-83134071D01*
X115680437Y-83134071D02*
X115634559Y-83111132D01*
X115634559Y-83111132D02*
X115542802Y-83088192D01*
X115542802Y-83088192D02*
X115428106Y-83088192D01*
X115428106Y-83088192D02*
X115336349Y-83111132D01*
X115336349Y-83111132D02*
X115290470Y-83134071D01*
X115290470Y-83134071D02*
X115267531Y-83157010D01*
X115267531Y-83157010D02*
X115244592Y-83202889D01*
X115726316Y-83822248D02*
X115726316Y-83546977D01*
X115726316Y-83684613D02*
X115244592Y-83684613D01*
X115244592Y-83684613D02*
X115313409Y-83638734D01*
X115313409Y-83638734D02*
X115359288Y-83592856D01*
X115359288Y-83592856D02*
X115382227Y-83546977D01*
D10*
X141656190Y-78144895D02*
X142113333Y-78144895D01*
X141884761Y-78144895D02*
X141884761Y-77344895D01*
X141884761Y-77344895D02*
X141960952Y-77459180D01*
X141960952Y-77459180D02*
X142037142Y-77535371D01*
X142037142Y-77535371D02*
X142113333Y-77573466D01*
X140970475Y-77611561D02*
X140970475Y-78144895D01*
X141313332Y-77611561D02*
X141313332Y-78030609D01*
X141313332Y-78030609D02*
X141275237Y-78106800D01*
X141275237Y-78106800D02*
X141199047Y-78144895D01*
X141199047Y-78144895D02*
X141084761Y-78144895D01*
X141084761Y-78144895D02*
X141008570Y-78106800D01*
X141008570Y-78106800D02*
X140970475Y-78068704D01*
X140322856Y-77725847D02*
X140589522Y-77725847D01*
X140589522Y-78144895D02*
X140589522Y-77344895D01*
X140589522Y-77344895D02*
X140208570Y-77344895D01*
X141694285Y-79498704D02*
X141732381Y-79536800D01*
X141732381Y-79536800D02*
X141846666Y-79574895D01*
X141846666Y-79574895D02*
X141922857Y-79574895D01*
X141922857Y-79574895D02*
X142037143Y-79536800D01*
X142037143Y-79536800D02*
X142113333Y-79460609D01*
X142113333Y-79460609D02*
X142151428Y-79384419D01*
X142151428Y-79384419D02*
X142189524Y-79232038D01*
X142189524Y-79232038D02*
X142189524Y-79117752D01*
X142189524Y-79117752D02*
X142151428Y-78965371D01*
X142151428Y-78965371D02*
X142113333Y-78889180D01*
X142113333Y-78889180D02*
X142037143Y-78812990D01*
X142037143Y-78812990D02*
X141922857Y-78774895D01*
X141922857Y-78774895D02*
X141846666Y-78774895D01*
X141846666Y-78774895D02*
X141732381Y-78812990D01*
X141732381Y-78812990D02*
X141694285Y-78851085D01*
X141427619Y-78774895D02*
X140932381Y-78774895D01*
X140932381Y-78774895D02*
X141199047Y-79079657D01*
X141199047Y-79079657D02*
X141084762Y-79079657D01*
X141084762Y-79079657D02*
X141008571Y-79117752D01*
X141008571Y-79117752D02*
X140970476Y-79155847D01*
X140970476Y-79155847D02*
X140932381Y-79232038D01*
X140932381Y-79232038D02*
X140932381Y-79422514D01*
X140932381Y-79422514D02*
X140970476Y-79498704D01*
X140970476Y-79498704D02*
X141008571Y-79536800D01*
X141008571Y-79536800D02*
X141084762Y-79574895D01*
X141084762Y-79574895D02*
X141313333Y-79574895D01*
X141313333Y-79574895D02*
X141389524Y-79536800D01*
X141389524Y-79536800D02*
X141427619Y-79498704D01*
X140475238Y-79117752D02*
X140551428Y-79079657D01*
X140551428Y-79079657D02*
X140589523Y-79041561D01*
X140589523Y-79041561D02*
X140627619Y-78965371D01*
X140627619Y-78965371D02*
X140627619Y-78927276D01*
X140627619Y-78927276D02*
X140589523Y-78851085D01*
X140589523Y-78851085D02*
X140551428Y-78812990D01*
X140551428Y-78812990D02*
X140475238Y-78774895D01*
X140475238Y-78774895D02*
X140322857Y-78774895D01*
X140322857Y-78774895D02*
X140246666Y-78812990D01*
X140246666Y-78812990D02*
X140208571Y-78851085D01*
X140208571Y-78851085D02*
X140170476Y-78927276D01*
X140170476Y-78927276D02*
X140170476Y-78965371D01*
X140170476Y-78965371D02*
X140208571Y-79041561D01*
X140208571Y-79041561D02*
X140246666Y-79079657D01*
X140246666Y-79079657D02*
X140322857Y-79117752D01*
X140322857Y-79117752D02*
X140475238Y-79117752D01*
X140475238Y-79117752D02*
X140551428Y-79155847D01*
X140551428Y-79155847D02*
X140589523Y-79193942D01*
X140589523Y-79193942D02*
X140627619Y-79270133D01*
X140627619Y-79270133D02*
X140627619Y-79422514D01*
X140627619Y-79422514D02*
X140589523Y-79498704D01*
X140589523Y-79498704D02*
X140551428Y-79536800D01*
X140551428Y-79536800D02*
X140475238Y-79574895D01*
X140475238Y-79574895D02*
X140322857Y-79574895D01*
X140322857Y-79574895D02*
X140246666Y-79536800D01*
X140246666Y-79536800D02*
X140208571Y-79498704D01*
X140208571Y-79498704D02*
X140170476Y-79422514D01*
X140170476Y-79422514D02*
X140170476Y-79270133D01*
X140170476Y-79270133D02*
X140208571Y-79193942D01*
X140208571Y-79193942D02*
X140246666Y-79155847D01*
X140246666Y-79155847D02*
X140322857Y-79117752D01*
X109786190Y-115079895D02*
X110243333Y-115079895D01*
X110014761Y-115079895D02*
X110014761Y-114279895D01*
X110014761Y-114279895D02*
X110090952Y-114394180D01*
X110090952Y-114394180D02*
X110167142Y-114470371D01*
X110167142Y-114470371D02*
X110243333Y-114508466D01*
X109100475Y-114546561D02*
X109100475Y-115079895D01*
X109443332Y-114546561D02*
X109443332Y-114965609D01*
X109443332Y-114965609D02*
X109405237Y-115041800D01*
X109405237Y-115041800D02*
X109329047Y-115079895D01*
X109329047Y-115079895D02*
X109214761Y-115079895D01*
X109214761Y-115079895D02*
X109138570Y-115041800D01*
X109138570Y-115041800D02*
X109100475Y-115003704D01*
X108452856Y-114660847D02*
X108719522Y-114660847D01*
X108719522Y-115079895D02*
X108719522Y-114279895D01*
X108719522Y-114279895D02*
X108338570Y-114279895D01*
X109824285Y-113573704D02*
X109862381Y-113611800D01*
X109862381Y-113611800D02*
X109976666Y-113649895D01*
X109976666Y-113649895D02*
X110052857Y-113649895D01*
X110052857Y-113649895D02*
X110167143Y-113611800D01*
X110167143Y-113611800D02*
X110243333Y-113535609D01*
X110243333Y-113535609D02*
X110281428Y-113459419D01*
X110281428Y-113459419D02*
X110319524Y-113307038D01*
X110319524Y-113307038D02*
X110319524Y-113192752D01*
X110319524Y-113192752D02*
X110281428Y-113040371D01*
X110281428Y-113040371D02*
X110243333Y-112964180D01*
X110243333Y-112964180D02*
X110167143Y-112887990D01*
X110167143Y-112887990D02*
X110052857Y-112849895D01*
X110052857Y-112849895D02*
X109976666Y-112849895D01*
X109976666Y-112849895D02*
X109862381Y-112887990D01*
X109862381Y-112887990D02*
X109824285Y-112926085D01*
X109138571Y-113116561D02*
X109138571Y-113649895D01*
X109329047Y-112811800D02*
X109519524Y-113383228D01*
X109519524Y-113383228D02*
X109024285Y-113383228D01*
X108757619Y-112926085D02*
X108719523Y-112887990D01*
X108719523Y-112887990D02*
X108643333Y-112849895D01*
X108643333Y-112849895D02*
X108452857Y-112849895D01*
X108452857Y-112849895D02*
X108376666Y-112887990D01*
X108376666Y-112887990D02*
X108338571Y-112926085D01*
X108338571Y-112926085D02*
X108300476Y-113002276D01*
X108300476Y-113002276D02*
X108300476Y-113078466D01*
X108300476Y-113078466D02*
X108338571Y-113192752D01*
X108338571Y-113192752D02*
X108795714Y-113649895D01*
X108795714Y-113649895D02*
X108300476Y-113649895D01*
X130278571Y-72869894D02*
X130278571Y-73403228D01*
X130469047Y-72565133D02*
X130659524Y-73136561D01*
X130659524Y-73136561D02*
X130164285Y-73136561D01*
X129935714Y-72603228D02*
X129402380Y-72603228D01*
X129402380Y-72603228D02*
X129745238Y-73403228D01*
X129097618Y-73403228D02*
X129097618Y-72603228D01*
X128640475Y-73403228D02*
X128983333Y-72946085D01*
X128640475Y-72603228D02*
X129097618Y-73060371D01*
X130164285Y-71753228D02*
X130430952Y-71372275D01*
X130621428Y-71753228D02*
X130621428Y-70953228D01*
X130621428Y-70953228D02*
X130316666Y-70953228D01*
X130316666Y-70953228D02*
X130240476Y-70991323D01*
X130240476Y-70991323D02*
X130202381Y-71029418D01*
X130202381Y-71029418D02*
X130164285Y-71105609D01*
X130164285Y-71105609D02*
X130164285Y-71219894D01*
X130164285Y-71219894D02*
X130202381Y-71296085D01*
X130202381Y-71296085D02*
X130240476Y-71334180D01*
X130240476Y-71334180D02*
X130316666Y-71372275D01*
X130316666Y-71372275D02*
X130621428Y-71372275D01*
X129402381Y-71753228D02*
X129859524Y-71753228D01*
X129630952Y-71753228D02*
X129630952Y-70953228D01*
X129630952Y-70953228D02*
X129707143Y-71067513D01*
X129707143Y-71067513D02*
X129783333Y-71143704D01*
X129783333Y-71143704D02*
X129859524Y-71181799D01*
X129097619Y-71029418D02*
X129059523Y-70991323D01*
X129059523Y-70991323D02*
X128983333Y-70953228D01*
X128983333Y-70953228D02*
X128792857Y-70953228D01*
X128792857Y-70953228D02*
X128716666Y-70991323D01*
X128716666Y-70991323D02*
X128678571Y-71029418D01*
X128678571Y-71029418D02*
X128640476Y-71105609D01*
X128640476Y-71105609D02*
X128640476Y-71181799D01*
X128640476Y-71181799D02*
X128678571Y-71296085D01*
X128678571Y-71296085D02*
X129135714Y-71753228D01*
X129135714Y-71753228D02*
X128640476Y-71753228D01*
X130144895Y-90301904D02*
X130144895Y-89844761D01*
X130144895Y-90073333D02*
X129344895Y-90073333D01*
X129344895Y-90073333D02*
X129459180Y-89997142D01*
X129459180Y-89997142D02*
X129535371Y-89920952D01*
X129535371Y-89920952D02*
X129573466Y-89844761D01*
X129344895Y-90797143D02*
X129344895Y-90873333D01*
X129344895Y-90873333D02*
X129382990Y-90949524D01*
X129382990Y-90949524D02*
X129421085Y-90987619D01*
X129421085Y-90987619D02*
X129497276Y-91025714D01*
X129497276Y-91025714D02*
X129649657Y-91063809D01*
X129649657Y-91063809D02*
X129840133Y-91063809D01*
X129840133Y-91063809D02*
X129992514Y-91025714D01*
X129992514Y-91025714D02*
X130068704Y-90987619D01*
X130068704Y-90987619D02*
X130106800Y-90949524D01*
X130106800Y-90949524D02*
X130144895Y-90873333D01*
X130144895Y-90873333D02*
X130144895Y-90797143D01*
X130144895Y-90797143D02*
X130106800Y-90720952D01*
X130106800Y-90720952D02*
X130068704Y-90682857D01*
X130068704Y-90682857D02*
X129992514Y-90644762D01*
X129992514Y-90644762D02*
X129840133Y-90606666D01*
X129840133Y-90606666D02*
X129649657Y-90606666D01*
X129649657Y-90606666D02*
X129497276Y-90644762D01*
X129497276Y-90644762D02*
X129421085Y-90682857D01*
X129421085Y-90682857D02*
X129382990Y-90720952D01*
X129382990Y-90720952D02*
X129344895Y-90797143D01*
X129344895Y-91559048D02*
X129344895Y-91635238D01*
X129344895Y-91635238D02*
X129382990Y-91711429D01*
X129382990Y-91711429D02*
X129421085Y-91749524D01*
X129421085Y-91749524D02*
X129497276Y-91787619D01*
X129497276Y-91787619D02*
X129649657Y-91825714D01*
X129649657Y-91825714D02*
X129840133Y-91825714D01*
X129840133Y-91825714D02*
X129992514Y-91787619D01*
X129992514Y-91787619D02*
X130068704Y-91749524D01*
X130068704Y-91749524D02*
X130106800Y-91711429D01*
X130106800Y-91711429D02*
X130144895Y-91635238D01*
X130144895Y-91635238D02*
X130144895Y-91559048D01*
X130144895Y-91559048D02*
X130106800Y-91482857D01*
X130106800Y-91482857D02*
X130068704Y-91444762D01*
X130068704Y-91444762D02*
X129992514Y-91406667D01*
X129992514Y-91406667D02*
X129840133Y-91368571D01*
X129840133Y-91368571D02*
X129649657Y-91368571D01*
X129649657Y-91368571D02*
X129497276Y-91406667D01*
X129497276Y-91406667D02*
X129421085Y-91444762D01*
X129421085Y-91444762D02*
X129382990Y-91482857D01*
X129382990Y-91482857D02*
X129344895Y-91559048D01*
X129611561Y-92168572D02*
X130144895Y-92168572D01*
X129687752Y-92168572D02*
X129649657Y-92206667D01*
X129649657Y-92206667D02*
X129611561Y-92282857D01*
X129611561Y-92282857D02*
X129611561Y-92397143D01*
X129611561Y-92397143D02*
X129649657Y-92473334D01*
X129649657Y-92473334D02*
X129725847Y-92511429D01*
X129725847Y-92511429D02*
X130144895Y-92511429D01*
X129725847Y-93159048D02*
X129725847Y-92892382D01*
X130144895Y-92892382D02*
X129344895Y-92892382D01*
X129344895Y-92892382D02*
X129344895Y-93273334D01*
X131498704Y-91025714D02*
X131536800Y-90987618D01*
X131536800Y-90987618D02*
X131574895Y-90873333D01*
X131574895Y-90873333D02*
X131574895Y-90797142D01*
X131574895Y-90797142D02*
X131536800Y-90682856D01*
X131536800Y-90682856D02*
X131460609Y-90606666D01*
X131460609Y-90606666D02*
X131384419Y-90568571D01*
X131384419Y-90568571D02*
X131232038Y-90530475D01*
X131232038Y-90530475D02*
X131117752Y-90530475D01*
X131117752Y-90530475D02*
X130965371Y-90568571D01*
X130965371Y-90568571D02*
X130889180Y-90606666D01*
X130889180Y-90606666D02*
X130812990Y-90682856D01*
X130812990Y-90682856D02*
X130774895Y-90797142D01*
X130774895Y-90797142D02*
X130774895Y-90873333D01*
X130774895Y-90873333D02*
X130812990Y-90987618D01*
X130812990Y-90987618D02*
X130851085Y-91025714D01*
X130774895Y-91292380D02*
X130774895Y-91787618D01*
X130774895Y-91787618D02*
X131079657Y-91520952D01*
X131079657Y-91520952D02*
X131079657Y-91635237D01*
X131079657Y-91635237D02*
X131117752Y-91711428D01*
X131117752Y-91711428D02*
X131155847Y-91749523D01*
X131155847Y-91749523D02*
X131232038Y-91787618D01*
X131232038Y-91787618D02*
X131422514Y-91787618D01*
X131422514Y-91787618D02*
X131498704Y-91749523D01*
X131498704Y-91749523D02*
X131536800Y-91711428D01*
X131536800Y-91711428D02*
X131574895Y-91635237D01*
X131574895Y-91635237D02*
X131574895Y-91406666D01*
X131574895Y-91406666D02*
X131536800Y-91330475D01*
X131536800Y-91330475D02*
X131498704Y-91292380D01*
X130774895Y-92473333D02*
X130774895Y-92320952D01*
X130774895Y-92320952D02*
X130812990Y-92244761D01*
X130812990Y-92244761D02*
X130851085Y-92206666D01*
X130851085Y-92206666D02*
X130965371Y-92130476D01*
X130965371Y-92130476D02*
X131117752Y-92092380D01*
X131117752Y-92092380D02*
X131422514Y-92092380D01*
X131422514Y-92092380D02*
X131498704Y-92130476D01*
X131498704Y-92130476D02*
X131536800Y-92168571D01*
X131536800Y-92168571D02*
X131574895Y-92244761D01*
X131574895Y-92244761D02*
X131574895Y-92397142D01*
X131574895Y-92397142D02*
X131536800Y-92473333D01*
X131536800Y-92473333D02*
X131498704Y-92511428D01*
X131498704Y-92511428D02*
X131422514Y-92549523D01*
X131422514Y-92549523D02*
X131232038Y-92549523D01*
X131232038Y-92549523D02*
X131155847Y-92511428D01*
X131155847Y-92511428D02*
X131117752Y-92473333D01*
X131117752Y-92473333D02*
X131079657Y-92397142D01*
X131079657Y-92397142D02*
X131079657Y-92244761D01*
X131079657Y-92244761D02*
X131117752Y-92168571D01*
X131117752Y-92168571D02*
X131155847Y-92130476D01*
X131155847Y-92130476D02*
X131232038Y-92092380D01*
X111135847Y-103688870D02*
X111135847Y-103422204D01*
X111554895Y-103422204D02*
X110754895Y-103422204D01*
X110754895Y-103422204D02*
X110754895Y-103803156D01*
X111516800Y-104412680D02*
X111554895Y-104336489D01*
X111554895Y-104336489D02*
X111554895Y-104184108D01*
X111554895Y-104184108D02*
X111516800Y-104107918D01*
X111516800Y-104107918D02*
X111440609Y-104069822D01*
X111440609Y-104069822D02*
X111135847Y-104069822D01*
X111135847Y-104069822D02*
X111059657Y-104107918D01*
X111059657Y-104107918D02*
X111021561Y-104184108D01*
X111021561Y-104184108D02*
X111021561Y-104336489D01*
X111021561Y-104336489D02*
X111059657Y-104412680D01*
X111059657Y-104412680D02*
X111135847Y-104450775D01*
X111135847Y-104450775D02*
X111212038Y-104450775D01*
X111212038Y-104450775D02*
X111288228Y-104069822D01*
X111554895Y-104793632D02*
X111021561Y-104793632D01*
X111173942Y-104793632D02*
X111097752Y-104831727D01*
X111097752Y-104831727D02*
X111059657Y-104869822D01*
X111059657Y-104869822D02*
X111021561Y-104946013D01*
X111021561Y-104946013D02*
X111021561Y-105022203D01*
X111554895Y-105288870D02*
X111021561Y-105288870D01*
X111173942Y-105288870D02*
X111097752Y-105326965D01*
X111097752Y-105326965D02*
X111059657Y-105365060D01*
X111059657Y-105365060D02*
X111021561Y-105441251D01*
X111021561Y-105441251D02*
X111021561Y-105517441D01*
X111554895Y-105784108D02*
X111021561Y-105784108D01*
X110754895Y-105784108D02*
X110792990Y-105746012D01*
X110792990Y-105746012D02*
X110831085Y-105784108D01*
X110831085Y-105784108D02*
X110792990Y-105822203D01*
X110792990Y-105822203D02*
X110754895Y-105784108D01*
X110754895Y-105784108D02*
X110831085Y-105784108D01*
X111021561Y-106050774D02*
X111021561Y-106355536D01*
X110754895Y-106165060D02*
X111440609Y-106165060D01*
X111440609Y-106165060D02*
X111516800Y-106203155D01*
X111516800Y-106203155D02*
X111554895Y-106279345D01*
X111554895Y-106279345D02*
X111554895Y-106355536D01*
X111516800Y-106926965D02*
X111554895Y-106850774D01*
X111554895Y-106850774D02*
X111554895Y-106698393D01*
X111554895Y-106698393D02*
X111516800Y-106622203D01*
X111516800Y-106622203D02*
X111440609Y-106584107D01*
X111440609Y-106584107D02*
X111135847Y-106584107D01*
X111135847Y-106584107D02*
X111059657Y-106622203D01*
X111059657Y-106622203D02*
X111021561Y-106698393D01*
X111021561Y-106698393D02*
X111021561Y-106850774D01*
X111021561Y-106850774D02*
X111059657Y-106926965D01*
X111059657Y-106926965D02*
X111135847Y-106965060D01*
X111135847Y-106965060D02*
X111212038Y-106965060D01*
X111212038Y-106965060D02*
X111288228Y-106584107D01*
X111135847Y-107574583D02*
X111173942Y-107688869D01*
X111173942Y-107688869D02*
X111212038Y-107726964D01*
X111212038Y-107726964D02*
X111288228Y-107765060D01*
X111288228Y-107765060D02*
X111402514Y-107765060D01*
X111402514Y-107765060D02*
X111478704Y-107726964D01*
X111478704Y-107726964D02*
X111516800Y-107688869D01*
X111516800Y-107688869D02*
X111554895Y-107612679D01*
X111554895Y-107612679D02*
X111554895Y-107307917D01*
X111554895Y-107307917D02*
X110754895Y-107307917D01*
X110754895Y-107307917D02*
X110754895Y-107574583D01*
X110754895Y-107574583D02*
X110792990Y-107650774D01*
X110792990Y-107650774D02*
X110831085Y-107688869D01*
X110831085Y-107688869D02*
X110907276Y-107726964D01*
X110907276Y-107726964D02*
X110983466Y-107726964D01*
X110983466Y-107726964D02*
X111059657Y-107688869D01*
X111059657Y-107688869D02*
X111097752Y-107650774D01*
X111097752Y-107650774D02*
X111135847Y-107574583D01*
X111135847Y-107574583D02*
X111135847Y-107307917D01*
X111516800Y-108412679D02*
X111554895Y-108336488D01*
X111554895Y-108336488D02*
X111554895Y-108184107D01*
X111554895Y-108184107D02*
X111516800Y-108107917D01*
X111516800Y-108107917D02*
X111440609Y-108069821D01*
X111440609Y-108069821D02*
X111135847Y-108069821D01*
X111135847Y-108069821D02*
X111059657Y-108107917D01*
X111059657Y-108107917D02*
X111021561Y-108184107D01*
X111021561Y-108184107D02*
X111021561Y-108336488D01*
X111021561Y-108336488D02*
X111059657Y-108412679D01*
X111059657Y-108412679D02*
X111135847Y-108450774D01*
X111135847Y-108450774D02*
X111212038Y-108450774D01*
X111212038Y-108450774D02*
X111288228Y-108069821D01*
X111554895Y-109136488D02*
X111135847Y-109136488D01*
X111135847Y-109136488D02*
X111059657Y-109098393D01*
X111059657Y-109098393D02*
X111021561Y-109022202D01*
X111021561Y-109022202D02*
X111021561Y-108869821D01*
X111021561Y-108869821D02*
X111059657Y-108793631D01*
X111516800Y-109136488D02*
X111554895Y-109060297D01*
X111554895Y-109060297D02*
X111554895Y-108869821D01*
X111554895Y-108869821D02*
X111516800Y-108793631D01*
X111516800Y-108793631D02*
X111440609Y-108755535D01*
X111440609Y-108755535D02*
X111364419Y-108755535D01*
X111364419Y-108755535D02*
X111288228Y-108793631D01*
X111288228Y-108793631D02*
X111250133Y-108869821D01*
X111250133Y-108869821D02*
X111250133Y-109060297D01*
X111250133Y-109060297D02*
X111212038Y-109136488D01*
X111554895Y-109860298D02*
X110754895Y-109860298D01*
X111516800Y-109860298D02*
X111554895Y-109784107D01*
X111554895Y-109784107D02*
X111554895Y-109631726D01*
X111554895Y-109631726D02*
X111516800Y-109555536D01*
X111516800Y-109555536D02*
X111478704Y-109517441D01*
X111478704Y-109517441D02*
X111402514Y-109479345D01*
X111402514Y-109479345D02*
X111173942Y-109479345D01*
X111173942Y-109479345D02*
X111097752Y-109517441D01*
X111097752Y-109517441D02*
X111059657Y-109555536D01*
X111059657Y-109555536D02*
X111021561Y-109631726D01*
X111021561Y-109631726D02*
X111021561Y-109784107D01*
X111021561Y-109784107D02*
X111059657Y-109860298D01*
X111631085Y-110050775D02*
X111631085Y-110660298D01*
X111516800Y-110812679D02*
X111554895Y-110926965D01*
X111554895Y-110926965D02*
X111554895Y-111117441D01*
X111554895Y-111117441D02*
X111516800Y-111193632D01*
X111516800Y-111193632D02*
X111478704Y-111231727D01*
X111478704Y-111231727D02*
X111402514Y-111269822D01*
X111402514Y-111269822D02*
X111326323Y-111269822D01*
X111326323Y-111269822D02*
X111250133Y-111231727D01*
X111250133Y-111231727D02*
X111212038Y-111193632D01*
X111212038Y-111193632D02*
X111173942Y-111117441D01*
X111173942Y-111117441D02*
X111135847Y-110965060D01*
X111135847Y-110965060D02*
X111097752Y-110888870D01*
X111097752Y-110888870D02*
X111059657Y-110850775D01*
X111059657Y-110850775D02*
X110983466Y-110812679D01*
X110983466Y-110812679D02*
X110907276Y-110812679D01*
X110907276Y-110812679D02*
X110831085Y-110850775D01*
X110831085Y-110850775D02*
X110792990Y-110888870D01*
X110792990Y-110888870D02*
X110754895Y-110965060D01*
X110754895Y-110965060D02*
X110754895Y-111155537D01*
X110754895Y-111155537D02*
X110792990Y-111269822D01*
X111554895Y-111612680D02*
X111021561Y-111612680D01*
X111097752Y-111612680D02*
X111059657Y-111650775D01*
X111059657Y-111650775D02*
X111021561Y-111726965D01*
X111021561Y-111726965D02*
X111021561Y-111841251D01*
X111021561Y-111841251D02*
X111059657Y-111917442D01*
X111059657Y-111917442D02*
X111135847Y-111955537D01*
X111135847Y-111955537D02*
X111554895Y-111955537D01*
X111135847Y-111955537D02*
X111059657Y-111993632D01*
X111059657Y-111993632D02*
X111021561Y-112069823D01*
X111021561Y-112069823D02*
X111021561Y-112184108D01*
X111021561Y-112184108D02*
X111059657Y-112260299D01*
X111059657Y-112260299D02*
X111135847Y-112298394D01*
X111135847Y-112298394D02*
X111554895Y-112298394D01*
X111554895Y-113022204D02*
X111135847Y-113022204D01*
X111135847Y-113022204D02*
X111059657Y-112984109D01*
X111059657Y-112984109D02*
X111021561Y-112907918D01*
X111021561Y-112907918D02*
X111021561Y-112755537D01*
X111021561Y-112755537D02*
X111059657Y-112679347D01*
X111516800Y-113022204D02*
X111554895Y-112946013D01*
X111554895Y-112946013D02*
X111554895Y-112755537D01*
X111554895Y-112755537D02*
X111516800Y-112679347D01*
X111516800Y-112679347D02*
X111440609Y-112641251D01*
X111440609Y-112641251D02*
X111364419Y-112641251D01*
X111364419Y-112641251D02*
X111288228Y-112679347D01*
X111288228Y-112679347D02*
X111250133Y-112755537D01*
X111250133Y-112755537D02*
X111250133Y-112946013D01*
X111250133Y-112946013D02*
X111212038Y-113022204D01*
X111554895Y-113517442D02*
X111516800Y-113441252D01*
X111516800Y-113441252D02*
X111440609Y-113403157D01*
X111440609Y-113403157D02*
X110754895Y-113403157D01*
X111554895Y-113936490D02*
X111516800Y-113860300D01*
X111516800Y-113860300D02*
X111440609Y-113822205D01*
X111440609Y-113822205D02*
X110754895Y-113822205D01*
X108935847Y-108074585D02*
X108935847Y-107807919D01*
X109354895Y-107807919D02*
X108554895Y-107807919D01*
X108554895Y-107807919D02*
X108554895Y-108188871D01*
X108935847Y-108760299D02*
X108973942Y-108874585D01*
X108973942Y-108874585D02*
X109012038Y-108912680D01*
X109012038Y-108912680D02*
X109088228Y-108950776D01*
X109088228Y-108950776D02*
X109202514Y-108950776D01*
X109202514Y-108950776D02*
X109278704Y-108912680D01*
X109278704Y-108912680D02*
X109316800Y-108874585D01*
X109316800Y-108874585D02*
X109354895Y-108798395D01*
X109354895Y-108798395D02*
X109354895Y-108493633D01*
X109354895Y-108493633D02*
X108554895Y-108493633D01*
X108554895Y-108493633D02*
X108554895Y-108760299D01*
X108554895Y-108760299D02*
X108592990Y-108836490D01*
X108592990Y-108836490D02*
X108631085Y-108874585D01*
X108631085Y-108874585D02*
X108707276Y-108912680D01*
X108707276Y-108912680D02*
X108783466Y-108912680D01*
X108783466Y-108912680D02*
X108859657Y-108874585D01*
X108859657Y-108874585D02*
X108897752Y-108836490D01*
X108897752Y-108836490D02*
X108935847Y-108760299D01*
X108935847Y-108760299D02*
X108935847Y-108493633D01*
X108631085Y-109255537D02*
X108592990Y-109293633D01*
X108592990Y-109293633D02*
X108554895Y-109369823D01*
X108554895Y-109369823D02*
X108554895Y-109560299D01*
X108554895Y-109560299D02*
X108592990Y-109636490D01*
X108592990Y-109636490D02*
X108631085Y-109674585D01*
X108631085Y-109674585D02*
X108707276Y-109712680D01*
X108707276Y-109712680D02*
X108783466Y-109712680D01*
X108783466Y-109712680D02*
X108897752Y-109674585D01*
X108897752Y-109674585D02*
X109354895Y-109217442D01*
X109354895Y-109217442D02*
X109354895Y-109712680D01*
X112635847Y-107974585D02*
X112635847Y-107707919D01*
X113054895Y-107707919D02*
X112254895Y-107707919D01*
X112254895Y-107707919D02*
X112254895Y-108088871D01*
X112635847Y-108660299D02*
X112673942Y-108774585D01*
X112673942Y-108774585D02*
X112712038Y-108812680D01*
X112712038Y-108812680D02*
X112788228Y-108850776D01*
X112788228Y-108850776D02*
X112902514Y-108850776D01*
X112902514Y-108850776D02*
X112978704Y-108812680D01*
X112978704Y-108812680D02*
X113016800Y-108774585D01*
X113016800Y-108774585D02*
X113054895Y-108698395D01*
X113054895Y-108698395D02*
X113054895Y-108393633D01*
X113054895Y-108393633D02*
X112254895Y-108393633D01*
X112254895Y-108393633D02*
X112254895Y-108660299D01*
X112254895Y-108660299D02*
X112292990Y-108736490D01*
X112292990Y-108736490D02*
X112331085Y-108774585D01*
X112331085Y-108774585D02*
X112407276Y-108812680D01*
X112407276Y-108812680D02*
X112483466Y-108812680D01*
X112483466Y-108812680D02*
X112559657Y-108774585D01*
X112559657Y-108774585D02*
X112597752Y-108736490D01*
X112597752Y-108736490D02*
X112635847Y-108660299D01*
X112635847Y-108660299D02*
X112635847Y-108393633D01*
X112331085Y-109155537D02*
X112292990Y-109193633D01*
X112292990Y-109193633D02*
X112254895Y-109269823D01*
X112254895Y-109269823D02*
X112254895Y-109460299D01*
X112254895Y-109460299D02*
X112292990Y-109536490D01*
X112292990Y-109536490D02*
X112331085Y-109574585D01*
X112331085Y-109574585D02*
X112407276Y-109612680D01*
X112407276Y-109612680D02*
X112483466Y-109612680D01*
X112483466Y-109612680D02*
X112597752Y-109574585D01*
X112597752Y-109574585D02*
X113054895Y-109117442D01*
X113054895Y-109117442D02*
X113054895Y-109612680D01*
X130416190Y-87664895D02*
X130873333Y-87664895D01*
X130644761Y-87664895D02*
X130644761Y-86864895D01*
X130644761Y-86864895D02*
X130720952Y-86979180D01*
X130720952Y-86979180D02*
X130797142Y-87055371D01*
X130797142Y-87055371D02*
X130873333Y-87093466D01*
X129730475Y-87131561D02*
X129730475Y-87664895D01*
X130073332Y-87131561D02*
X130073332Y-87550609D01*
X130073332Y-87550609D02*
X130035237Y-87626800D01*
X130035237Y-87626800D02*
X129959047Y-87664895D01*
X129959047Y-87664895D02*
X129844761Y-87664895D01*
X129844761Y-87664895D02*
X129768570Y-87626800D01*
X129768570Y-87626800D02*
X129730475Y-87588704D01*
X129082856Y-87245847D02*
X129349522Y-87245847D01*
X129349522Y-87664895D02*
X129349522Y-86864895D01*
X129349522Y-86864895D02*
X128968570Y-86864895D01*
X130454285Y-86158704D02*
X130492381Y-86196800D01*
X130492381Y-86196800D02*
X130606666Y-86234895D01*
X130606666Y-86234895D02*
X130682857Y-86234895D01*
X130682857Y-86234895D02*
X130797143Y-86196800D01*
X130797143Y-86196800D02*
X130873333Y-86120609D01*
X130873333Y-86120609D02*
X130911428Y-86044419D01*
X130911428Y-86044419D02*
X130949524Y-85892038D01*
X130949524Y-85892038D02*
X130949524Y-85777752D01*
X130949524Y-85777752D02*
X130911428Y-85625371D01*
X130911428Y-85625371D02*
X130873333Y-85549180D01*
X130873333Y-85549180D02*
X130797143Y-85472990D01*
X130797143Y-85472990D02*
X130682857Y-85434895D01*
X130682857Y-85434895D02*
X130606666Y-85434895D01*
X130606666Y-85434895D02*
X130492381Y-85472990D01*
X130492381Y-85472990D02*
X130454285Y-85511085D01*
X130187619Y-85434895D02*
X129692381Y-85434895D01*
X129692381Y-85434895D02*
X129959047Y-85739657D01*
X129959047Y-85739657D02*
X129844762Y-85739657D01*
X129844762Y-85739657D02*
X129768571Y-85777752D01*
X129768571Y-85777752D02*
X129730476Y-85815847D01*
X129730476Y-85815847D02*
X129692381Y-85892038D01*
X129692381Y-85892038D02*
X129692381Y-86082514D01*
X129692381Y-86082514D02*
X129730476Y-86158704D01*
X129730476Y-86158704D02*
X129768571Y-86196800D01*
X129768571Y-86196800D02*
X129844762Y-86234895D01*
X129844762Y-86234895D02*
X130073333Y-86234895D01*
X130073333Y-86234895D02*
X130149524Y-86196800D01*
X130149524Y-86196800D02*
X130187619Y-86158704D01*
X129197142Y-85434895D02*
X129120952Y-85434895D01*
X129120952Y-85434895D02*
X129044761Y-85472990D01*
X129044761Y-85472990D02*
X129006666Y-85511085D01*
X129006666Y-85511085D02*
X128968571Y-85587276D01*
X128968571Y-85587276D02*
X128930476Y-85739657D01*
X128930476Y-85739657D02*
X128930476Y-85930133D01*
X128930476Y-85930133D02*
X128968571Y-86082514D01*
X128968571Y-86082514D02*
X129006666Y-86158704D01*
X129006666Y-86158704D02*
X129044761Y-86196800D01*
X129044761Y-86196800D02*
X129120952Y-86234895D01*
X129120952Y-86234895D02*
X129197142Y-86234895D01*
X129197142Y-86234895D02*
X129273333Y-86196800D01*
X129273333Y-86196800D02*
X129311428Y-86158704D01*
X129311428Y-86158704D02*
X129349523Y-86082514D01*
X129349523Y-86082514D02*
X129387619Y-85930133D01*
X129387619Y-85930133D02*
X129387619Y-85739657D01*
X129387619Y-85739657D02*
X129349523Y-85587276D01*
X129349523Y-85587276D02*
X129311428Y-85511085D01*
X129311428Y-85511085D02*
X129273333Y-85472990D01*
X129273333Y-85472990D02*
X129197142Y-85434895D01*
D12*
X131502619Y-85874819D02*
X132074047Y-85874819D01*
X131788333Y-85874819D02*
X131788333Y-84874819D01*
X131788333Y-84874819D02*
X131883571Y-85017676D01*
X131883571Y-85017676D02*
X131978809Y-85112914D01*
X131978809Y-85112914D02*
X132074047Y-85160533D01*
X130883571Y-84874819D02*
X130788333Y-84874819D01*
X130788333Y-84874819D02*
X130693095Y-84922438D01*
X130693095Y-84922438D02*
X130645476Y-84970057D01*
X130645476Y-84970057D02*
X130597857Y-85065295D01*
X130597857Y-85065295D02*
X130550238Y-85255771D01*
X130550238Y-85255771D02*
X130550238Y-85493866D01*
X130550238Y-85493866D02*
X130597857Y-85684342D01*
X130597857Y-85684342D02*
X130645476Y-85779580D01*
X130645476Y-85779580D02*
X130693095Y-85827200D01*
X130693095Y-85827200D02*
X130788333Y-85874819D01*
X130788333Y-85874819D02*
X130883571Y-85874819D01*
X130883571Y-85874819D02*
X130978809Y-85827200D01*
X130978809Y-85827200D02*
X131026428Y-85779580D01*
X131026428Y-85779580D02*
X131074047Y-85684342D01*
X131074047Y-85684342D02*
X131121666Y-85493866D01*
X131121666Y-85493866D02*
X131121666Y-85255771D01*
X131121666Y-85255771D02*
X131074047Y-85065295D01*
X131074047Y-85065295D02*
X131026428Y-84970057D01*
X131026428Y-84970057D02*
X130978809Y-84922438D01*
X130978809Y-84922438D02*
X130883571Y-84874819D01*
X129931190Y-84874819D02*
X129835952Y-84874819D01*
X129835952Y-84874819D02*
X129740714Y-84922438D01*
X129740714Y-84922438D02*
X129693095Y-84970057D01*
X129693095Y-84970057D02*
X129645476Y-85065295D01*
X129645476Y-85065295D02*
X129597857Y-85255771D01*
X129597857Y-85255771D02*
X129597857Y-85493866D01*
X129597857Y-85493866D02*
X129645476Y-85684342D01*
X129645476Y-85684342D02*
X129693095Y-85779580D01*
X129693095Y-85779580D02*
X129740714Y-85827200D01*
X129740714Y-85827200D02*
X129835952Y-85874819D01*
X129835952Y-85874819D02*
X129931190Y-85874819D01*
X129931190Y-85874819D02*
X130026428Y-85827200D01*
X130026428Y-85827200D02*
X130074047Y-85779580D01*
X130074047Y-85779580D02*
X130121666Y-85684342D01*
X130121666Y-85684342D02*
X130169285Y-85493866D01*
X130169285Y-85493866D02*
X130169285Y-85255771D01*
X130169285Y-85255771D02*
X130121666Y-85065295D01*
X130121666Y-85065295D02*
X130074047Y-84970057D01*
X130074047Y-84970057D02*
X130026428Y-84922438D01*
X130026428Y-84922438D02*
X129931190Y-84874819D01*
X129169285Y-85208152D02*
X129169285Y-85874819D01*
X129169285Y-85303390D02*
X129121666Y-85255771D01*
X129121666Y-85255771D02*
X129026428Y-85208152D01*
X129026428Y-85208152D02*
X128883571Y-85208152D01*
X128883571Y-85208152D02*
X128788333Y-85255771D01*
X128788333Y-85255771D02*
X128740714Y-85351009D01*
X128740714Y-85351009D02*
X128740714Y-85874819D01*
X127931190Y-85351009D02*
X128264523Y-85351009D01*
X128264523Y-85874819D02*
X128264523Y-84874819D01*
X128264523Y-84874819D02*
X127788333Y-84874819D01*
D13*
X130212142Y-84133832D02*
X130231190Y-84152880D01*
X130231190Y-84152880D02*
X130288332Y-84171927D01*
X130288332Y-84171927D02*
X130326428Y-84171927D01*
X130326428Y-84171927D02*
X130383571Y-84152880D01*
X130383571Y-84152880D02*
X130421666Y-84114784D01*
X130421666Y-84114784D02*
X130440713Y-84076689D01*
X130440713Y-84076689D02*
X130459761Y-84000499D01*
X130459761Y-84000499D02*
X130459761Y-83943356D01*
X130459761Y-83943356D02*
X130440713Y-83867165D01*
X130440713Y-83867165D02*
X130421666Y-83829070D01*
X130421666Y-83829070D02*
X130383571Y-83790975D01*
X130383571Y-83790975D02*
X130326428Y-83771927D01*
X130326428Y-83771927D02*
X130288332Y-83771927D01*
X130288332Y-83771927D02*
X130231190Y-83790975D01*
X130231190Y-83790975D02*
X130212142Y-83810022D01*
X129869285Y-83905260D02*
X129869285Y-84171927D01*
X129964523Y-83752880D02*
X130059761Y-84038594D01*
X130059761Y-84038594D02*
X129812142Y-84038594D01*
X129488333Y-83905260D02*
X129488333Y-84171927D01*
X129583571Y-83752880D02*
X129678809Y-84038594D01*
X129678809Y-84038594D02*
X129431190Y-84038594D01*
D10*
X110548095Y-113824895D02*
X111005238Y-113824895D01*
X110776666Y-113824895D02*
X110776666Y-113024895D01*
X110776666Y-113024895D02*
X110852857Y-113139180D01*
X110852857Y-113139180D02*
X110929047Y-113215371D01*
X110929047Y-113215371D02*
X111005238Y-113253466D01*
X110052856Y-113024895D02*
X109976666Y-113024895D01*
X109976666Y-113024895D02*
X109900475Y-113062990D01*
X109900475Y-113062990D02*
X109862380Y-113101085D01*
X109862380Y-113101085D02*
X109824285Y-113177276D01*
X109824285Y-113177276D02*
X109786190Y-113329657D01*
X109786190Y-113329657D02*
X109786190Y-113520133D01*
X109786190Y-113520133D02*
X109824285Y-113672514D01*
X109824285Y-113672514D02*
X109862380Y-113748704D01*
X109862380Y-113748704D02*
X109900475Y-113786800D01*
X109900475Y-113786800D02*
X109976666Y-113824895D01*
X109976666Y-113824895D02*
X110052856Y-113824895D01*
X110052856Y-113824895D02*
X110129047Y-113786800D01*
X110129047Y-113786800D02*
X110167142Y-113748704D01*
X110167142Y-113748704D02*
X110205237Y-113672514D01*
X110205237Y-113672514D02*
X110243333Y-113520133D01*
X110243333Y-113520133D02*
X110243333Y-113329657D01*
X110243333Y-113329657D02*
X110205237Y-113177276D01*
X110205237Y-113177276D02*
X110167142Y-113101085D01*
X110167142Y-113101085D02*
X110129047Y-113062990D01*
X110129047Y-113062990D02*
X110052856Y-113024895D01*
X109290951Y-113024895D02*
X109214761Y-113024895D01*
X109214761Y-113024895D02*
X109138570Y-113062990D01*
X109138570Y-113062990D02*
X109100475Y-113101085D01*
X109100475Y-113101085D02*
X109062380Y-113177276D01*
X109062380Y-113177276D02*
X109024285Y-113329657D01*
X109024285Y-113329657D02*
X109024285Y-113520133D01*
X109024285Y-113520133D02*
X109062380Y-113672514D01*
X109062380Y-113672514D02*
X109100475Y-113748704D01*
X109100475Y-113748704D02*
X109138570Y-113786800D01*
X109138570Y-113786800D02*
X109214761Y-113824895D01*
X109214761Y-113824895D02*
X109290951Y-113824895D01*
X109290951Y-113824895D02*
X109367142Y-113786800D01*
X109367142Y-113786800D02*
X109405237Y-113748704D01*
X109405237Y-113748704D02*
X109443332Y-113672514D01*
X109443332Y-113672514D02*
X109481428Y-113520133D01*
X109481428Y-113520133D02*
X109481428Y-113329657D01*
X109481428Y-113329657D02*
X109443332Y-113177276D01*
X109443332Y-113177276D02*
X109405237Y-113101085D01*
X109405237Y-113101085D02*
X109367142Y-113062990D01*
X109367142Y-113062990D02*
X109290951Y-113024895D01*
X108681427Y-113291561D02*
X108681427Y-113824895D01*
X108681427Y-113367752D02*
X108643332Y-113329657D01*
X108643332Y-113329657D02*
X108567142Y-113291561D01*
X108567142Y-113291561D02*
X108452856Y-113291561D01*
X108452856Y-113291561D02*
X108376665Y-113329657D01*
X108376665Y-113329657D02*
X108338570Y-113405847D01*
X108338570Y-113405847D02*
X108338570Y-113824895D01*
X107690951Y-113405847D02*
X107957617Y-113405847D01*
X107957617Y-113824895D02*
X107957617Y-113024895D01*
X107957617Y-113024895D02*
X107576665Y-113024895D01*
X109824285Y-115178704D02*
X109862381Y-115216800D01*
X109862381Y-115216800D02*
X109976666Y-115254895D01*
X109976666Y-115254895D02*
X110052857Y-115254895D01*
X110052857Y-115254895D02*
X110167143Y-115216800D01*
X110167143Y-115216800D02*
X110243333Y-115140609D01*
X110243333Y-115140609D02*
X110281428Y-115064419D01*
X110281428Y-115064419D02*
X110319524Y-114912038D01*
X110319524Y-114912038D02*
X110319524Y-114797752D01*
X110319524Y-114797752D02*
X110281428Y-114645371D01*
X110281428Y-114645371D02*
X110243333Y-114569180D01*
X110243333Y-114569180D02*
X110167143Y-114492990D01*
X110167143Y-114492990D02*
X110052857Y-114454895D01*
X110052857Y-114454895D02*
X109976666Y-114454895D01*
X109976666Y-114454895D02*
X109862381Y-114492990D01*
X109862381Y-114492990D02*
X109824285Y-114531085D01*
X109138571Y-114721561D02*
X109138571Y-115254895D01*
X109329047Y-114416800D02*
X109519524Y-114988228D01*
X109519524Y-114988228D02*
X109024285Y-114988228D01*
X108795714Y-114454895D02*
X108300476Y-114454895D01*
X108300476Y-114454895D02*
X108567142Y-114759657D01*
X108567142Y-114759657D02*
X108452857Y-114759657D01*
X108452857Y-114759657D02*
X108376666Y-114797752D01*
X108376666Y-114797752D02*
X108338571Y-114835847D01*
X108338571Y-114835847D02*
X108300476Y-114912038D01*
X108300476Y-114912038D02*
X108300476Y-115102514D01*
X108300476Y-115102514D02*
X108338571Y-115178704D01*
X108338571Y-115178704D02*
X108376666Y-115216800D01*
X108376666Y-115216800D02*
X108452857Y-115254895D01*
X108452857Y-115254895D02*
X108681428Y-115254895D01*
X108681428Y-115254895D02*
X108757619Y-115216800D01*
X108757619Y-115216800D02*
X108795714Y-115178704D01*
X130278571Y-75121561D02*
X130278571Y-75654895D01*
X130469047Y-74816800D02*
X130659524Y-75388228D01*
X130659524Y-75388228D02*
X130164285Y-75388228D01*
X129935714Y-74854895D02*
X129402380Y-74854895D01*
X129402380Y-74854895D02*
X129745238Y-75654895D01*
X129097618Y-75654895D02*
X129097618Y-74854895D01*
X128640475Y-75654895D02*
X128983333Y-75197752D01*
X128640475Y-74854895D02*
X129097618Y-75312038D01*
X130164285Y-74004895D02*
X130430952Y-73623942D01*
X130621428Y-74004895D02*
X130621428Y-73204895D01*
X130621428Y-73204895D02*
X130316666Y-73204895D01*
X130316666Y-73204895D02*
X130240476Y-73242990D01*
X130240476Y-73242990D02*
X130202381Y-73281085D01*
X130202381Y-73281085D02*
X130164285Y-73357276D01*
X130164285Y-73357276D02*
X130164285Y-73471561D01*
X130164285Y-73471561D02*
X130202381Y-73547752D01*
X130202381Y-73547752D02*
X130240476Y-73585847D01*
X130240476Y-73585847D02*
X130316666Y-73623942D01*
X130316666Y-73623942D02*
X130621428Y-73623942D01*
X129402381Y-74004895D02*
X129859524Y-74004895D01*
X129630952Y-74004895D02*
X129630952Y-73204895D01*
X129630952Y-73204895D02*
X129707143Y-73319180D01*
X129707143Y-73319180D02*
X129783333Y-73395371D01*
X129783333Y-73395371D02*
X129859524Y-73433466D01*
X129135714Y-73204895D02*
X128640476Y-73204895D01*
X128640476Y-73204895D02*
X128907142Y-73509657D01*
X128907142Y-73509657D02*
X128792857Y-73509657D01*
X128792857Y-73509657D02*
X128716666Y-73547752D01*
X128716666Y-73547752D02*
X128678571Y-73585847D01*
X128678571Y-73585847D02*
X128640476Y-73662038D01*
X128640476Y-73662038D02*
X128640476Y-73852514D01*
X128640476Y-73852514D02*
X128678571Y-73928704D01*
X128678571Y-73928704D02*
X128716666Y-73966800D01*
X128716666Y-73966800D02*
X128792857Y-74004895D01*
X128792857Y-74004895D02*
X129021428Y-74004895D01*
X129021428Y-74004895D02*
X129097619Y-73966800D01*
X129097619Y-73966800D02*
X129135714Y-73928704D01*
X130278571Y-66114894D02*
X130278571Y-66648228D01*
X130469047Y-65810133D02*
X130659524Y-66381561D01*
X130659524Y-66381561D02*
X130164285Y-66381561D01*
X129935714Y-65848228D02*
X129402380Y-65848228D01*
X129402380Y-65848228D02*
X129745238Y-66648228D01*
X129097618Y-66648228D02*
X129097618Y-65848228D01*
X128640475Y-66648228D02*
X128983333Y-66191085D01*
X128640475Y-65848228D02*
X129097618Y-66305371D01*
X129783332Y-64998228D02*
X130049999Y-64617275D01*
X130240475Y-64998228D02*
X130240475Y-64198228D01*
X130240475Y-64198228D02*
X129935713Y-64198228D01*
X129935713Y-64198228D02*
X129859523Y-64236323D01*
X129859523Y-64236323D02*
X129821428Y-64274418D01*
X129821428Y-64274418D02*
X129783332Y-64350609D01*
X129783332Y-64350609D02*
X129783332Y-64464894D01*
X129783332Y-64464894D02*
X129821428Y-64541085D01*
X129821428Y-64541085D02*
X129859523Y-64579180D01*
X129859523Y-64579180D02*
X129935713Y-64617275D01*
X129935713Y-64617275D02*
X130240475Y-64617275D01*
X129059523Y-64198228D02*
X129440475Y-64198228D01*
X129440475Y-64198228D02*
X129478571Y-64579180D01*
X129478571Y-64579180D02*
X129440475Y-64541085D01*
X129440475Y-64541085D02*
X129364285Y-64502990D01*
X129364285Y-64502990D02*
X129173809Y-64502990D01*
X129173809Y-64502990D02*
X129097618Y-64541085D01*
X129097618Y-64541085D02*
X129059523Y-64579180D01*
X129059523Y-64579180D02*
X129021428Y-64655371D01*
X129021428Y-64655371D02*
X129021428Y-64845847D01*
X129021428Y-64845847D02*
X129059523Y-64922037D01*
X129059523Y-64922037D02*
X129097618Y-64960133D01*
X129097618Y-64960133D02*
X129173809Y-64998228D01*
X129173809Y-64998228D02*
X129364285Y-64998228D01*
X129364285Y-64998228D02*
X129440475Y-64960133D01*
X129440475Y-64960133D02*
X129478571Y-64922037D01*
X122256190Y-63644895D02*
X122713333Y-63644895D01*
X122484761Y-63644895D02*
X122484761Y-62844895D01*
X122484761Y-62844895D02*
X122560952Y-62959180D01*
X122560952Y-62959180D02*
X122637142Y-63035371D01*
X122637142Y-63035371D02*
X122713333Y-63073466D01*
X121570475Y-63111561D02*
X121570475Y-63644895D01*
X121913332Y-63111561D02*
X121913332Y-63530609D01*
X121913332Y-63530609D02*
X121875237Y-63606800D01*
X121875237Y-63606800D02*
X121799047Y-63644895D01*
X121799047Y-63644895D02*
X121684761Y-63644895D01*
X121684761Y-63644895D02*
X121608570Y-63606800D01*
X121608570Y-63606800D02*
X121570475Y-63568704D01*
X120922856Y-63225847D02*
X121189522Y-63225847D01*
X121189522Y-63644895D02*
X121189522Y-62844895D01*
X121189522Y-62844895D02*
X120808570Y-62844895D01*
X122294285Y-62138704D02*
X122332381Y-62176800D01*
X122332381Y-62176800D02*
X122446666Y-62214895D01*
X122446666Y-62214895D02*
X122522857Y-62214895D01*
X122522857Y-62214895D02*
X122637143Y-62176800D01*
X122637143Y-62176800D02*
X122713333Y-62100609D01*
X122713333Y-62100609D02*
X122751428Y-62024419D01*
X122751428Y-62024419D02*
X122789524Y-61872038D01*
X122789524Y-61872038D02*
X122789524Y-61757752D01*
X122789524Y-61757752D02*
X122751428Y-61605371D01*
X122751428Y-61605371D02*
X122713333Y-61529180D01*
X122713333Y-61529180D02*
X122637143Y-61452990D01*
X122637143Y-61452990D02*
X122522857Y-61414895D01*
X122522857Y-61414895D02*
X122446666Y-61414895D01*
X122446666Y-61414895D02*
X122332381Y-61452990D01*
X122332381Y-61452990D02*
X122294285Y-61491085D01*
X121532381Y-62214895D02*
X121989524Y-62214895D01*
X121760952Y-62214895D02*
X121760952Y-61414895D01*
X121760952Y-61414895D02*
X121837143Y-61529180D01*
X121837143Y-61529180D02*
X121913333Y-61605371D01*
X121913333Y-61605371D02*
X121989524Y-61643466D01*
X121265714Y-61414895D02*
X120732380Y-61414895D01*
X120732380Y-61414895D02*
X121075238Y-62214895D01*
X149168095Y-92834895D02*
X149625238Y-92834895D01*
X149396666Y-92834895D02*
X149396666Y-92034895D01*
X149396666Y-92034895D02*
X149472857Y-92149180D01*
X149472857Y-92149180D02*
X149549047Y-92225371D01*
X149549047Y-92225371D02*
X149625238Y-92263466D01*
X148672856Y-92034895D02*
X148596666Y-92034895D01*
X148596666Y-92034895D02*
X148520475Y-92072990D01*
X148520475Y-92072990D02*
X148482380Y-92111085D01*
X148482380Y-92111085D02*
X148444285Y-92187276D01*
X148444285Y-92187276D02*
X148406190Y-92339657D01*
X148406190Y-92339657D02*
X148406190Y-92530133D01*
X148406190Y-92530133D02*
X148444285Y-92682514D01*
X148444285Y-92682514D02*
X148482380Y-92758704D01*
X148482380Y-92758704D02*
X148520475Y-92796800D01*
X148520475Y-92796800D02*
X148596666Y-92834895D01*
X148596666Y-92834895D02*
X148672856Y-92834895D01*
X148672856Y-92834895D02*
X148749047Y-92796800D01*
X148749047Y-92796800D02*
X148787142Y-92758704D01*
X148787142Y-92758704D02*
X148825237Y-92682514D01*
X148825237Y-92682514D02*
X148863333Y-92530133D01*
X148863333Y-92530133D02*
X148863333Y-92339657D01*
X148863333Y-92339657D02*
X148825237Y-92187276D01*
X148825237Y-92187276D02*
X148787142Y-92111085D01*
X148787142Y-92111085D02*
X148749047Y-92072990D01*
X148749047Y-92072990D02*
X148672856Y-92034895D01*
X147910951Y-92034895D02*
X147834761Y-92034895D01*
X147834761Y-92034895D02*
X147758570Y-92072990D01*
X147758570Y-92072990D02*
X147720475Y-92111085D01*
X147720475Y-92111085D02*
X147682380Y-92187276D01*
X147682380Y-92187276D02*
X147644285Y-92339657D01*
X147644285Y-92339657D02*
X147644285Y-92530133D01*
X147644285Y-92530133D02*
X147682380Y-92682514D01*
X147682380Y-92682514D02*
X147720475Y-92758704D01*
X147720475Y-92758704D02*
X147758570Y-92796800D01*
X147758570Y-92796800D02*
X147834761Y-92834895D01*
X147834761Y-92834895D02*
X147910951Y-92834895D01*
X147910951Y-92834895D02*
X147987142Y-92796800D01*
X147987142Y-92796800D02*
X148025237Y-92758704D01*
X148025237Y-92758704D02*
X148063332Y-92682514D01*
X148063332Y-92682514D02*
X148101428Y-92530133D01*
X148101428Y-92530133D02*
X148101428Y-92339657D01*
X148101428Y-92339657D02*
X148063332Y-92187276D01*
X148063332Y-92187276D02*
X148025237Y-92111085D01*
X148025237Y-92111085D02*
X147987142Y-92072990D01*
X147987142Y-92072990D02*
X147910951Y-92034895D01*
X147301427Y-92301561D02*
X147301427Y-92834895D01*
X147301427Y-92377752D02*
X147263332Y-92339657D01*
X147263332Y-92339657D02*
X147187142Y-92301561D01*
X147187142Y-92301561D02*
X147072856Y-92301561D01*
X147072856Y-92301561D02*
X146996665Y-92339657D01*
X146996665Y-92339657D02*
X146958570Y-92415847D01*
X146958570Y-92415847D02*
X146958570Y-92834895D01*
X146310951Y-92415847D02*
X146577617Y-92415847D01*
X146577617Y-92834895D02*
X146577617Y-92034895D01*
X146577617Y-92034895D02*
X146196665Y-92034895D01*
X148444285Y-94188704D02*
X148482381Y-94226800D01*
X148482381Y-94226800D02*
X148596666Y-94264895D01*
X148596666Y-94264895D02*
X148672857Y-94264895D01*
X148672857Y-94264895D02*
X148787143Y-94226800D01*
X148787143Y-94226800D02*
X148863333Y-94150609D01*
X148863333Y-94150609D02*
X148901428Y-94074419D01*
X148901428Y-94074419D02*
X148939524Y-93922038D01*
X148939524Y-93922038D02*
X148939524Y-93807752D01*
X148939524Y-93807752D02*
X148901428Y-93655371D01*
X148901428Y-93655371D02*
X148863333Y-93579180D01*
X148863333Y-93579180D02*
X148787143Y-93502990D01*
X148787143Y-93502990D02*
X148672857Y-93464895D01*
X148672857Y-93464895D02*
X148596666Y-93464895D01*
X148596666Y-93464895D02*
X148482381Y-93502990D01*
X148482381Y-93502990D02*
X148444285Y-93541085D01*
X148177619Y-93464895D02*
X147682381Y-93464895D01*
X147682381Y-93464895D02*
X147949047Y-93769657D01*
X147949047Y-93769657D02*
X147834762Y-93769657D01*
X147834762Y-93769657D02*
X147758571Y-93807752D01*
X147758571Y-93807752D02*
X147720476Y-93845847D01*
X147720476Y-93845847D02*
X147682381Y-93922038D01*
X147682381Y-93922038D02*
X147682381Y-94112514D01*
X147682381Y-94112514D02*
X147720476Y-94188704D01*
X147720476Y-94188704D02*
X147758571Y-94226800D01*
X147758571Y-94226800D02*
X147834762Y-94264895D01*
X147834762Y-94264895D02*
X148063333Y-94264895D01*
X148063333Y-94264895D02*
X148139524Y-94226800D01*
X148139524Y-94226800D02*
X148177619Y-94188704D01*
X146958571Y-93464895D02*
X147339523Y-93464895D01*
X147339523Y-93464895D02*
X147377619Y-93845847D01*
X147377619Y-93845847D02*
X147339523Y-93807752D01*
X147339523Y-93807752D02*
X147263333Y-93769657D01*
X147263333Y-93769657D02*
X147072857Y-93769657D01*
X147072857Y-93769657D02*
X146996666Y-93807752D01*
X146996666Y-93807752D02*
X146958571Y-93845847D01*
X146958571Y-93845847D02*
X146920476Y-93922038D01*
X146920476Y-93922038D02*
X146920476Y-94112514D01*
X146920476Y-94112514D02*
X146958571Y-94188704D01*
X146958571Y-94188704D02*
X146996666Y-94226800D01*
X146996666Y-94226800D02*
X147072857Y-94264895D01*
X147072857Y-94264895D02*
X147263333Y-94264895D01*
X147263333Y-94264895D02*
X147339523Y-94226800D01*
X147339523Y-94226800D02*
X147377619Y-94188704D01*
X143757143Y-106854895D02*
X143757143Y-106054895D01*
X143414287Y-106816800D02*
X143300001Y-106854895D01*
X143300001Y-106854895D02*
X143109525Y-106854895D01*
X143109525Y-106854895D02*
X143033334Y-106816800D01*
X143033334Y-106816800D02*
X142995239Y-106778704D01*
X142995239Y-106778704D02*
X142957144Y-106702514D01*
X142957144Y-106702514D02*
X142957144Y-106626323D01*
X142957144Y-106626323D02*
X142995239Y-106550133D01*
X142995239Y-106550133D02*
X143033334Y-106512038D01*
X143033334Y-106512038D02*
X143109525Y-106473942D01*
X143109525Y-106473942D02*
X143261906Y-106435847D01*
X143261906Y-106435847D02*
X143338096Y-106397752D01*
X143338096Y-106397752D02*
X143376191Y-106359657D01*
X143376191Y-106359657D02*
X143414287Y-106283466D01*
X143414287Y-106283466D02*
X143414287Y-106207276D01*
X143414287Y-106207276D02*
X143376191Y-106131085D01*
X143376191Y-106131085D02*
X143338096Y-106092990D01*
X143338096Y-106092990D02*
X143261906Y-106054895D01*
X143261906Y-106054895D02*
X143071429Y-106054895D01*
X143071429Y-106054895D02*
X142957144Y-106092990D01*
X142271429Y-106321561D02*
X142271429Y-106854895D01*
X142461905Y-106016800D02*
X142652382Y-106588228D01*
X142652382Y-106588228D02*
X142157143Y-106588228D01*
X141890477Y-106131085D02*
X141852381Y-106092990D01*
X141852381Y-106092990D02*
X141776191Y-106054895D01*
X141776191Y-106054895D02*
X141585715Y-106054895D01*
X141585715Y-106054895D02*
X141509524Y-106092990D01*
X141509524Y-106092990D02*
X141471429Y-106131085D01*
X141471429Y-106131085D02*
X141433334Y-106207276D01*
X141433334Y-106207276D02*
X141433334Y-106283466D01*
X141433334Y-106283466D02*
X141471429Y-106397752D01*
X141471429Y-106397752D02*
X141928572Y-106854895D01*
X141928572Y-106854895D02*
X141433334Y-106854895D01*
X141128572Y-106816800D02*
X141014286Y-106854895D01*
X141014286Y-106854895D02*
X140823810Y-106854895D01*
X140823810Y-106854895D02*
X140747619Y-106816800D01*
X140747619Y-106816800D02*
X140709524Y-106778704D01*
X140709524Y-106778704D02*
X140671429Y-106702514D01*
X140671429Y-106702514D02*
X140671429Y-106626323D01*
X140671429Y-106626323D02*
X140709524Y-106550133D01*
X140709524Y-106550133D02*
X140747619Y-106512038D01*
X140747619Y-106512038D02*
X140823810Y-106473942D01*
X140823810Y-106473942D02*
X140976191Y-106435847D01*
X140976191Y-106435847D02*
X141052381Y-106397752D01*
X141052381Y-106397752D02*
X141090476Y-106359657D01*
X141090476Y-106359657D02*
X141128572Y-106283466D01*
X141128572Y-106283466D02*
X141128572Y-106207276D01*
X141128572Y-106207276D02*
X141090476Y-106131085D01*
X141090476Y-106131085D02*
X141052381Y-106092990D01*
X141052381Y-106092990D02*
X140976191Y-106054895D01*
X140976191Y-106054895D02*
X140785714Y-106054895D01*
X140785714Y-106054895D02*
X140671429Y-106092990D01*
X139909524Y-106854895D02*
X140366667Y-106854895D01*
X140138095Y-106854895D02*
X140138095Y-106054895D01*
X140138095Y-106054895D02*
X140214286Y-106169180D01*
X140214286Y-106169180D02*
X140290476Y-106245371D01*
X140290476Y-106245371D02*
X140366667Y-106283466D01*
X139223809Y-106054895D02*
X139376190Y-106054895D01*
X139376190Y-106054895D02*
X139452381Y-106092990D01*
X139452381Y-106092990D02*
X139490476Y-106131085D01*
X139490476Y-106131085D02*
X139566666Y-106245371D01*
X139566666Y-106245371D02*
X139604762Y-106397752D01*
X139604762Y-106397752D02*
X139604762Y-106702514D01*
X139604762Y-106702514D02*
X139566666Y-106778704D01*
X139566666Y-106778704D02*
X139528571Y-106816800D01*
X139528571Y-106816800D02*
X139452381Y-106854895D01*
X139452381Y-106854895D02*
X139300000Y-106854895D01*
X139300000Y-106854895D02*
X139223809Y-106816800D01*
X139223809Y-106816800D02*
X139185714Y-106778704D01*
X139185714Y-106778704D02*
X139147619Y-106702514D01*
X139147619Y-106702514D02*
X139147619Y-106512038D01*
X139147619Y-106512038D02*
X139185714Y-106435847D01*
X139185714Y-106435847D02*
X139223809Y-106397752D01*
X139223809Y-106397752D02*
X139300000Y-106359657D01*
X139300000Y-106359657D02*
X139452381Y-106359657D01*
X139452381Y-106359657D02*
X139528571Y-106397752D01*
X139528571Y-106397752D02*
X139566666Y-106435847D01*
X139566666Y-106435847D02*
X139604762Y-106512038D01*
X138461904Y-106321561D02*
X138461904Y-106854895D01*
X138652380Y-106016800D02*
X138842857Y-106588228D01*
X138842857Y-106588228D02*
X138347618Y-106588228D01*
X137890475Y-106054895D02*
X137814285Y-106054895D01*
X137814285Y-106054895D02*
X137738094Y-106092990D01*
X137738094Y-106092990D02*
X137699999Y-106131085D01*
X137699999Y-106131085D02*
X137661904Y-106207276D01*
X137661904Y-106207276D02*
X137623809Y-106359657D01*
X137623809Y-106359657D02*
X137623809Y-106550133D01*
X137623809Y-106550133D02*
X137661904Y-106702514D01*
X137661904Y-106702514D02*
X137699999Y-106778704D01*
X137699999Y-106778704D02*
X137738094Y-106816800D01*
X137738094Y-106816800D02*
X137814285Y-106854895D01*
X137814285Y-106854895D02*
X137890475Y-106854895D01*
X137890475Y-106854895D02*
X137966666Y-106816800D01*
X137966666Y-106816800D02*
X138004761Y-106778704D01*
X138004761Y-106778704D02*
X138042856Y-106702514D01*
X138042856Y-106702514D02*
X138080952Y-106550133D01*
X138080952Y-106550133D02*
X138080952Y-106359657D01*
X138080952Y-106359657D02*
X138042856Y-106207276D01*
X138042856Y-106207276D02*
X138004761Y-106131085D01*
X138004761Y-106131085D02*
X137966666Y-106092990D01*
X137966666Y-106092990D02*
X137890475Y-106054895D01*
X137128570Y-106054895D02*
X137052380Y-106054895D01*
X137052380Y-106054895D02*
X136976189Y-106092990D01*
X136976189Y-106092990D02*
X136938094Y-106131085D01*
X136938094Y-106131085D02*
X136899999Y-106207276D01*
X136899999Y-106207276D02*
X136861904Y-106359657D01*
X136861904Y-106359657D02*
X136861904Y-106550133D01*
X136861904Y-106550133D02*
X136899999Y-106702514D01*
X136899999Y-106702514D02*
X136938094Y-106778704D01*
X136938094Y-106778704D02*
X136976189Y-106816800D01*
X136976189Y-106816800D02*
X137052380Y-106854895D01*
X137052380Y-106854895D02*
X137128570Y-106854895D01*
X137128570Y-106854895D02*
X137204761Y-106816800D01*
X137204761Y-106816800D02*
X137242856Y-106778704D01*
X137242856Y-106778704D02*
X137280951Y-106702514D01*
X137280951Y-106702514D02*
X137319047Y-106550133D01*
X137319047Y-106550133D02*
X137319047Y-106359657D01*
X137319047Y-106359657D02*
X137280951Y-106207276D01*
X137280951Y-106207276D02*
X137242856Y-106131085D01*
X137242856Y-106131085D02*
X137204761Y-106092990D01*
X137204761Y-106092990D02*
X137128570Y-106054895D01*
X136290475Y-106054895D02*
X136290475Y-106626323D01*
X136290475Y-106626323D02*
X136328570Y-106740609D01*
X136328570Y-106740609D02*
X136404761Y-106816800D01*
X136404761Y-106816800D02*
X136519046Y-106854895D01*
X136519046Y-106854895D02*
X136595237Y-106854895D01*
X135909522Y-106550133D02*
X135299999Y-106550133D01*
X134995237Y-106854895D02*
X134576189Y-106321561D01*
X134995237Y-106321561D02*
X134576189Y-106854895D01*
X134385713Y-106054895D02*
X133928570Y-106054895D01*
X134157142Y-106854895D02*
X134157142Y-106054895D01*
X139509523Y-93554895D02*
X139509523Y-94202514D01*
X139509523Y-94202514D02*
X139471428Y-94278704D01*
X139471428Y-94278704D02*
X139433333Y-94316800D01*
X139433333Y-94316800D02*
X139357142Y-94354895D01*
X139357142Y-94354895D02*
X139204761Y-94354895D01*
X139204761Y-94354895D02*
X139128571Y-94316800D01*
X139128571Y-94316800D02*
X139090476Y-94278704D01*
X139090476Y-94278704D02*
X139052380Y-94202514D01*
X139052380Y-94202514D02*
X139052380Y-93554895D01*
X138252381Y-94354895D02*
X138709524Y-94354895D01*
X138480952Y-94354895D02*
X138480952Y-93554895D01*
X138480952Y-93554895D02*
X138557143Y-93669180D01*
X138557143Y-93669180D02*
X138633333Y-93745371D01*
X138633333Y-93745371D02*
X138709524Y-93783466D01*
X123018095Y-58909895D02*
X123475238Y-58909895D01*
X123246666Y-58909895D02*
X123246666Y-58109895D01*
X123246666Y-58109895D02*
X123322857Y-58224180D01*
X123322857Y-58224180D02*
X123399047Y-58300371D01*
X123399047Y-58300371D02*
X123475238Y-58338466D01*
X122522856Y-58109895D02*
X122446666Y-58109895D01*
X122446666Y-58109895D02*
X122370475Y-58147990D01*
X122370475Y-58147990D02*
X122332380Y-58186085D01*
X122332380Y-58186085D02*
X122294285Y-58262276D01*
X122294285Y-58262276D02*
X122256190Y-58414657D01*
X122256190Y-58414657D02*
X122256190Y-58605133D01*
X122256190Y-58605133D02*
X122294285Y-58757514D01*
X122294285Y-58757514D02*
X122332380Y-58833704D01*
X122332380Y-58833704D02*
X122370475Y-58871800D01*
X122370475Y-58871800D02*
X122446666Y-58909895D01*
X122446666Y-58909895D02*
X122522856Y-58909895D01*
X122522856Y-58909895D02*
X122599047Y-58871800D01*
X122599047Y-58871800D02*
X122637142Y-58833704D01*
X122637142Y-58833704D02*
X122675237Y-58757514D01*
X122675237Y-58757514D02*
X122713333Y-58605133D01*
X122713333Y-58605133D02*
X122713333Y-58414657D01*
X122713333Y-58414657D02*
X122675237Y-58262276D01*
X122675237Y-58262276D02*
X122637142Y-58186085D01*
X122637142Y-58186085D02*
X122599047Y-58147990D01*
X122599047Y-58147990D02*
X122522856Y-58109895D01*
X121760951Y-58109895D02*
X121684761Y-58109895D01*
X121684761Y-58109895D02*
X121608570Y-58147990D01*
X121608570Y-58147990D02*
X121570475Y-58186085D01*
X121570475Y-58186085D02*
X121532380Y-58262276D01*
X121532380Y-58262276D02*
X121494285Y-58414657D01*
X121494285Y-58414657D02*
X121494285Y-58605133D01*
X121494285Y-58605133D02*
X121532380Y-58757514D01*
X121532380Y-58757514D02*
X121570475Y-58833704D01*
X121570475Y-58833704D02*
X121608570Y-58871800D01*
X121608570Y-58871800D02*
X121684761Y-58909895D01*
X121684761Y-58909895D02*
X121760951Y-58909895D01*
X121760951Y-58909895D02*
X121837142Y-58871800D01*
X121837142Y-58871800D02*
X121875237Y-58833704D01*
X121875237Y-58833704D02*
X121913332Y-58757514D01*
X121913332Y-58757514D02*
X121951428Y-58605133D01*
X121951428Y-58605133D02*
X121951428Y-58414657D01*
X121951428Y-58414657D02*
X121913332Y-58262276D01*
X121913332Y-58262276D02*
X121875237Y-58186085D01*
X121875237Y-58186085D02*
X121837142Y-58147990D01*
X121837142Y-58147990D02*
X121760951Y-58109895D01*
X121151427Y-58376561D02*
X121151427Y-58909895D01*
X121151427Y-58452752D02*
X121113332Y-58414657D01*
X121113332Y-58414657D02*
X121037142Y-58376561D01*
X121037142Y-58376561D02*
X120922856Y-58376561D01*
X120922856Y-58376561D02*
X120846665Y-58414657D01*
X120846665Y-58414657D02*
X120808570Y-58490847D01*
X120808570Y-58490847D02*
X120808570Y-58909895D01*
X120160951Y-58490847D02*
X120427617Y-58490847D01*
X120427617Y-58909895D02*
X120427617Y-58109895D01*
X120427617Y-58109895D02*
X120046665Y-58109895D01*
X122294285Y-60263704D02*
X122332381Y-60301800D01*
X122332381Y-60301800D02*
X122446666Y-60339895D01*
X122446666Y-60339895D02*
X122522857Y-60339895D01*
X122522857Y-60339895D02*
X122637143Y-60301800D01*
X122637143Y-60301800D02*
X122713333Y-60225609D01*
X122713333Y-60225609D02*
X122751428Y-60149419D01*
X122751428Y-60149419D02*
X122789524Y-59997038D01*
X122789524Y-59997038D02*
X122789524Y-59882752D01*
X122789524Y-59882752D02*
X122751428Y-59730371D01*
X122751428Y-59730371D02*
X122713333Y-59654180D01*
X122713333Y-59654180D02*
X122637143Y-59577990D01*
X122637143Y-59577990D02*
X122522857Y-59539895D01*
X122522857Y-59539895D02*
X122446666Y-59539895D01*
X122446666Y-59539895D02*
X122332381Y-59577990D01*
X122332381Y-59577990D02*
X122294285Y-59616085D01*
X122027619Y-59539895D02*
X121532381Y-59539895D01*
X121532381Y-59539895D02*
X121799047Y-59844657D01*
X121799047Y-59844657D02*
X121684762Y-59844657D01*
X121684762Y-59844657D02*
X121608571Y-59882752D01*
X121608571Y-59882752D02*
X121570476Y-59920847D01*
X121570476Y-59920847D02*
X121532381Y-59997038D01*
X121532381Y-59997038D02*
X121532381Y-60187514D01*
X121532381Y-60187514D02*
X121570476Y-60263704D01*
X121570476Y-60263704D02*
X121608571Y-60301800D01*
X121608571Y-60301800D02*
X121684762Y-60339895D01*
X121684762Y-60339895D02*
X121913333Y-60339895D01*
X121913333Y-60339895D02*
X121989524Y-60301800D01*
X121989524Y-60301800D02*
X122027619Y-60263704D01*
X121151428Y-60339895D02*
X120999047Y-60339895D01*
X120999047Y-60339895D02*
X120922857Y-60301800D01*
X120922857Y-60301800D02*
X120884761Y-60263704D01*
X120884761Y-60263704D02*
X120808571Y-60149419D01*
X120808571Y-60149419D02*
X120770476Y-59997038D01*
X120770476Y-59997038D02*
X120770476Y-59692276D01*
X120770476Y-59692276D02*
X120808571Y-59616085D01*
X120808571Y-59616085D02*
X120846666Y-59577990D01*
X120846666Y-59577990D02*
X120922857Y-59539895D01*
X120922857Y-59539895D02*
X121075238Y-59539895D01*
X121075238Y-59539895D02*
X121151428Y-59577990D01*
X121151428Y-59577990D02*
X121189523Y-59616085D01*
X121189523Y-59616085D02*
X121227619Y-59692276D01*
X121227619Y-59692276D02*
X121227619Y-59882752D01*
X121227619Y-59882752D02*
X121189523Y-59958942D01*
X121189523Y-59958942D02*
X121151428Y-59997038D01*
X121151428Y-59997038D02*
X121075238Y-60035133D01*
X121075238Y-60035133D02*
X120922857Y-60035133D01*
X120922857Y-60035133D02*
X120846666Y-59997038D01*
X120846666Y-59997038D02*
X120808571Y-59958942D01*
X120808571Y-59958942D02*
X120770476Y-59882752D01*
X131168095Y-89404895D02*
X131625238Y-89404895D01*
X131396666Y-89404895D02*
X131396666Y-88604895D01*
X131396666Y-88604895D02*
X131472857Y-88719180D01*
X131472857Y-88719180D02*
X131549047Y-88795371D01*
X131549047Y-88795371D02*
X131625238Y-88833466D01*
X130672856Y-88604895D02*
X130596666Y-88604895D01*
X130596666Y-88604895D02*
X130520475Y-88642990D01*
X130520475Y-88642990D02*
X130482380Y-88681085D01*
X130482380Y-88681085D02*
X130444285Y-88757276D01*
X130444285Y-88757276D02*
X130406190Y-88909657D01*
X130406190Y-88909657D02*
X130406190Y-89100133D01*
X130406190Y-89100133D02*
X130444285Y-89252514D01*
X130444285Y-89252514D02*
X130482380Y-89328704D01*
X130482380Y-89328704D02*
X130520475Y-89366800D01*
X130520475Y-89366800D02*
X130596666Y-89404895D01*
X130596666Y-89404895D02*
X130672856Y-89404895D01*
X130672856Y-89404895D02*
X130749047Y-89366800D01*
X130749047Y-89366800D02*
X130787142Y-89328704D01*
X130787142Y-89328704D02*
X130825237Y-89252514D01*
X130825237Y-89252514D02*
X130863333Y-89100133D01*
X130863333Y-89100133D02*
X130863333Y-88909657D01*
X130863333Y-88909657D02*
X130825237Y-88757276D01*
X130825237Y-88757276D02*
X130787142Y-88681085D01*
X130787142Y-88681085D02*
X130749047Y-88642990D01*
X130749047Y-88642990D02*
X130672856Y-88604895D01*
X129910951Y-88604895D02*
X129834761Y-88604895D01*
X129834761Y-88604895D02*
X129758570Y-88642990D01*
X129758570Y-88642990D02*
X129720475Y-88681085D01*
X129720475Y-88681085D02*
X129682380Y-88757276D01*
X129682380Y-88757276D02*
X129644285Y-88909657D01*
X129644285Y-88909657D02*
X129644285Y-89100133D01*
X129644285Y-89100133D02*
X129682380Y-89252514D01*
X129682380Y-89252514D02*
X129720475Y-89328704D01*
X129720475Y-89328704D02*
X129758570Y-89366800D01*
X129758570Y-89366800D02*
X129834761Y-89404895D01*
X129834761Y-89404895D02*
X129910951Y-89404895D01*
X129910951Y-89404895D02*
X129987142Y-89366800D01*
X129987142Y-89366800D02*
X130025237Y-89328704D01*
X130025237Y-89328704D02*
X130063332Y-89252514D01*
X130063332Y-89252514D02*
X130101428Y-89100133D01*
X130101428Y-89100133D02*
X130101428Y-88909657D01*
X130101428Y-88909657D02*
X130063332Y-88757276D01*
X130063332Y-88757276D02*
X130025237Y-88681085D01*
X130025237Y-88681085D02*
X129987142Y-88642990D01*
X129987142Y-88642990D02*
X129910951Y-88604895D01*
X129301427Y-88871561D02*
X129301427Y-89404895D01*
X129301427Y-88947752D02*
X129263332Y-88909657D01*
X129263332Y-88909657D02*
X129187142Y-88871561D01*
X129187142Y-88871561D02*
X129072856Y-88871561D01*
X129072856Y-88871561D02*
X128996665Y-88909657D01*
X128996665Y-88909657D02*
X128958570Y-88985847D01*
X128958570Y-88985847D02*
X128958570Y-89404895D01*
X128310951Y-88985847D02*
X128577617Y-88985847D01*
X128577617Y-89404895D02*
X128577617Y-88604895D01*
X128577617Y-88604895D02*
X128196665Y-88604895D01*
X130444285Y-87898704D02*
X130482381Y-87936800D01*
X130482381Y-87936800D02*
X130596666Y-87974895D01*
X130596666Y-87974895D02*
X130672857Y-87974895D01*
X130672857Y-87974895D02*
X130787143Y-87936800D01*
X130787143Y-87936800D02*
X130863333Y-87860609D01*
X130863333Y-87860609D02*
X130901428Y-87784419D01*
X130901428Y-87784419D02*
X130939524Y-87632038D01*
X130939524Y-87632038D02*
X130939524Y-87517752D01*
X130939524Y-87517752D02*
X130901428Y-87365371D01*
X130901428Y-87365371D02*
X130863333Y-87289180D01*
X130863333Y-87289180D02*
X130787143Y-87212990D01*
X130787143Y-87212990D02*
X130672857Y-87174895D01*
X130672857Y-87174895D02*
X130596666Y-87174895D01*
X130596666Y-87174895D02*
X130482381Y-87212990D01*
X130482381Y-87212990D02*
X130444285Y-87251085D01*
X130177619Y-87174895D02*
X129682381Y-87174895D01*
X129682381Y-87174895D02*
X129949047Y-87479657D01*
X129949047Y-87479657D02*
X129834762Y-87479657D01*
X129834762Y-87479657D02*
X129758571Y-87517752D01*
X129758571Y-87517752D02*
X129720476Y-87555847D01*
X129720476Y-87555847D02*
X129682381Y-87632038D01*
X129682381Y-87632038D02*
X129682381Y-87822514D01*
X129682381Y-87822514D02*
X129720476Y-87898704D01*
X129720476Y-87898704D02*
X129758571Y-87936800D01*
X129758571Y-87936800D02*
X129834762Y-87974895D01*
X129834762Y-87974895D02*
X130063333Y-87974895D01*
X130063333Y-87974895D02*
X130139524Y-87936800D01*
X130139524Y-87936800D02*
X130177619Y-87898704D01*
X128996666Y-87441561D02*
X128996666Y-87974895D01*
X129187142Y-87136800D02*
X129377619Y-87708228D01*
X129377619Y-87708228D02*
X128882380Y-87708228D01*
X130138571Y-59941561D02*
X130138571Y-60474895D01*
X130329047Y-59636800D02*
X130519524Y-60208228D01*
X130519524Y-60208228D02*
X130024285Y-60208228D01*
X129795714Y-59674895D02*
X129262380Y-59674895D01*
X129262380Y-59674895D02*
X129605238Y-60474895D01*
X128957618Y-60474895D02*
X128957618Y-59674895D01*
X128500475Y-60474895D02*
X128843333Y-60017752D01*
X128500475Y-59674895D02*
X128957618Y-60132038D01*
X130164285Y-60494895D02*
X130430952Y-60113942D01*
X130621428Y-60494895D02*
X130621428Y-59694895D01*
X130621428Y-59694895D02*
X130316666Y-59694895D01*
X130316666Y-59694895D02*
X130240476Y-59732990D01*
X130240476Y-59732990D02*
X130202381Y-59771085D01*
X130202381Y-59771085D02*
X130164285Y-59847276D01*
X130164285Y-59847276D02*
X130164285Y-59961561D01*
X130164285Y-59961561D02*
X130202381Y-60037752D01*
X130202381Y-60037752D02*
X130240476Y-60075847D01*
X130240476Y-60075847D02*
X130316666Y-60113942D01*
X130316666Y-60113942D02*
X130621428Y-60113942D01*
X129402381Y-60494895D02*
X129859524Y-60494895D01*
X129630952Y-60494895D02*
X129630952Y-59694895D01*
X129630952Y-59694895D02*
X129707143Y-59809180D01*
X129707143Y-59809180D02*
X129783333Y-59885371D01*
X129783333Y-59885371D02*
X129859524Y-59923466D01*
X128716666Y-59961561D02*
X128716666Y-60494895D01*
X128907142Y-59656800D02*
X129097619Y-60228228D01*
X129097619Y-60228228D02*
X128602380Y-60228228D01*
X147114895Y-103063809D02*
X147114895Y-102606666D01*
X147114895Y-102835238D02*
X146314895Y-102835238D01*
X146314895Y-102835238D02*
X146429180Y-102759047D01*
X146429180Y-102759047D02*
X146505371Y-102682857D01*
X146505371Y-102682857D02*
X146543466Y-102606666D01*
X146581561Y-103749524D02*
X147114895Y-103749524D01*
X146581561Y-103406667D02*
X147000609Y-103406667D01*
X147000609Y-103406667D02*
X147076800Y-103444762D01*
X147076800Y-103444762D02*
X147114895Y-103520952D01*
X147114895Y-103520952D02*
X147114895Y-103635238D01*
X147114895Y-103635238D02*
X147076800Y-103711429D01*
X147076800Y-103711429D02*
X147038704Y-103749524D01*
X146695847Y-104397143D02*
X146695847Y-104130477D01*
X147114895Y-104130477D02*
X146314895Y-104130477D01*
X146314895Y-104130477D02*
X146314895Y-104511429D01*
X148468704Y-103025714D02*
X148506800Y-102987618D01*
X148506800Y-102987618D02*
X148544895Y-102873333D01*
X148544895Y-102873333D02*
X148544895Y-102797142D01*
X148544895Y-102797142D02*
X148506800Y-102682856D01*
X148506800Y-102682856D02*
X148430609Y-102606666D01*
X148430609Y-102606666D02*
X148354419Y-102568571D01*
X148354419Y-102568571D02*
X148202038Y-102530475D01*
X148202038Y-102530475D02*
X148087752Y-102530475D01*
X148087752Y-102530475D02*
X147935371Y-102568571D01*
X147935371Y-102568571D02*
X147859180Y-102606666D01*
X147859180Y-102606666D02*
X147782990Y-102682856D01*
X147782990Y-102682856D02*
X147744895Y-102797142D01*
X147744895Y-102797142D02*
X147744895Y-102873333D01*
X147744895Y-102873333D02*
X147782990Y-102987618D01*
X147782990Y-102987618D02*
X147821085Y-103025714D01*
X147744895Y-103292380D02*
X147744895Y-103787618D01*
X147744895Y-103787618D02*
X148049657Y-103520952D01*
X148049657Y-103520952D02*
X148049657Y-103635237D01*
X148049657Y-103635237D02*
X148087752Y-103711428D01*
X148087752Y-103711428D02*
X148125847Y-103749523D01*
X148125847Y-103749523D02*
X148202038Y-103787618D01*
X148202038Y-103787618D02*
X148392514Y-103787618D01*
X148392514Y-103787618D02*
X148468704Y-103749523D01*
X148468704Y-103749523D02*
X148506800Y-103711428D01*
X148506800Y-103711428D02*
X148544895Y-103635237D01*
X148544895Y-103635237D02*
X148544895Y-103406666D01*
X148544895Y-103406666D02*
X148506800Y-103330475D01*
X148506800Y-103330475D02*
X148468704Y-103292380D01*
X147744895Y-104054285D02*
X147744895Y-104549523D01*
X147744895Y-104549523D02*
X148049657Y-104282857D01*
X148049657Y-104282857D02*
X148049657Y-104397142D01*
X148049657Y-104397142D02*
X148087752Y-104473333D01*
X148087752Y-104473333D02*
X148125847Y-104511428D01*
X148125847Y-104511428D02*
X148202038Y-104549523D01*
X148202038Y-104549523D02*
X148392514Y-104549523D01*
X148392514Y-104549523D02*
X148468704Y-104511428D01*
X148468704Y-104511428D02*
X148506800Y-104473333D01*
X148506800Y-104473333D02*
X148544895Y-104397142D01*
X148544895Y-104397142D02*
X148544895Y-104168571D01*
X148544895Y-104168571D02*
X148506800Y-104092380D01*
X148506800Y-104092380D02*
X148468704Y-104054285D01*
D14*
X116113981Y-98431072D02*
X115793751Y-98431072D01*
X115793751Y-98431072D02*
X115793751Y-98553064D01*
X115793751Y-98553064D02*
X115809000Y-98583562D01*
X115809000Y-98583562D02*
X115824249Y-98598811D01*
X115824249Y-98598811D02*
X115854747Y-98614060D01*
X115854747Y-98614060D02*
X115900494Y-98614060D01*
X115900494Y-98614060D02*
X115930992Y-98598811D01*
X115930992Y-98598811D02*
X115946241Y-98583562D01*
X115946241Y-98583562D02*
X115961490Y-98553064D01*
X115961490Y-98553064D02*
X115961490Y-98431072D01*
X115946241Y-98751302D02*
X115946241Y-98858045D01*
X116113981Y-98903792D02*
X116113981Y-98751302D01*
X116113981Y-98751302D02*
X115793751Y-98751302D01*
X115793751Y-98751302D02*
X115793751Y-98903792D01*
X116098732Y-99025785D02*
X116113981Y-99071532D01*
X116113981Y-99071532D02*
X116113981Y-99147777D01*
X116113981Y-99147777D02*
X116098732Y-99178275D01*
X116098732Y-99178275D02*
X116083482Y-99193524D01*
X116083482Y-99193524D02*
X116052984Y-99208773D01*
X116052984Y-99208773D02*
X116022486Y-99208773D01*
X116022486Y-99208773D02*
X115991988Y-99193524D01*
X115991988Y-99193524D02*
X115976739Y-99178275D01*
X115976739Y-99178275D02*
X115961490Y-99147777D01*
X115961490Y-99147777D02*
X115946241Y-99086781D01*
X115946241Y-99086781D02*
X115930992Y-99056283D01*
X115930992Y-99056283D02*
X115915743Y-99041034D01*
X115915743Y-99041034D02*
X115885245Y-99025785D01*
X115885245Y-99025785D02*
X115854747Y-99025785D01*
X115854747Y-99025785D02*
X115824249Y-99041034D01*
X115824249Y-99041034D02*
X115809000Y-99056283D01*
X115809000Y-99056283D02*
X115793751Y-99086781D01*
X115793751Y-99086781D02*
X115793751Y-99163026D01*
X115793751Y-99163026D02*
X115809000Y-99208773D01*
X116113981Y-99346015D02*
X115793751Y-99346015D01*
X115793751Y-99346015D02*
X115793751Y-99422260D01*
X115793751Y-99422260D02*
X115809000Y-99468007D01*
X115809000Y-99468007D02*
X115839498Y-99498505D01*
X115839498Y-99498505D02*
X115869996Y-99513754D01*
X115869996Y-99513754D02*
X115930992Y-99529003D01*
X115930992Y-99529003D02*
X115976739Y-99529003D01*
X115976739Y-99529003D02*
X116037735Y-99513754D01*
X116037735Y-99513754D02*
X116068233Y-99498505D01*
X116068233Y-99498505D02*
X116098732Y-99468007D01*
X116098732Y-99468007D02*
X116113981Y-99422260D01*
X116113981Y-99422260D02*
X116113981Y-99346015D01*
X116113981Y-99833984D02*
X116113981Y-99650996D01*
X116113981Y-99742490D02*
X115793751Y-99742490D01*
X115793751Y-99742490D02*
X115839498Y-99711992D01*
X115839498Y-99711992D02*
X115869996Y-99681494D01*
X115869996Y-99681494D02*
X115885245Y-99650996D01*
X116083482Y-100154214D02*
X116098732Y-100138965D01*
X116098732Y-100138965D02*
X116113981Y-100093218D01*
X116113981Y-100093218D02*
X116113981Y-100062720D01*
X116113981Y-100062720D02*
X116098732Y-100016973D01*
X116098732Y-100016973D02*
X116068233Y-99986475D01*
X116068233Y-99986475D02*
X116037735Y-99971226D01*
X116037735Y-99971226D02*
X115976739Y-99955977D01*
X115976739Y-99955977D02*
X115930992Y-99955977D01*
X115930992Y-99955977D02*
X115869996Y-99971226D01*
X115869996Y-99971226D02*
X115839498Y-99986475D01*
X115839498Y-99986475D02*
X115809000Y-100016973D01*
X115809000Y-100016973D02*
X115793751Y-100062720D01*
X115793751Y-100062720D02*
X115793751Y-100093218D01*
X115793751Y-100093218D02*
X115809000Y-100138965D01*
X115809000Y-100138965D02*
X115824249Y-100154214D01*
X116022486Y-100276207D02*
X116022486Y-100428697D01*
X116113981Y-100245709D02*
X115793751Y-100352452D01*
X115793751Y-100352452D02*
X116113981Y-100459195D01*
X116113981Y-100565939D02*
X115793751Y-100565939D01*
X115793751Y-100565939D02*
X116113981Y-100748927D01*
X116113981Y-100748927D02*
X115793751Y-100748927D01*
D10*
X149168095Y-90099895D02*
X149625238Y-90099895D01*
X149396666Y-90099895D02*
X149396666Y-89299895D01*
X149396666Y-89299895D02*
X149472857Y-89414180D01*
X149472857Y-89414180D02*
X149549047Y-89490371D01*
X149549047Y-89490371D02*
X149625238Y-89528466D01*
X148672856Y-89299895D02*
X148596666Y-89299895D01*
X148596666Y-89299895D02*
X148520475Y-89337990D01*
X148520475Y-89337990D02*
X148482380Y-89376085D01*
X148482380Y-89376085D02*
X148444285Y-89452276D01*
X148444285Y-89452276D02*
X148406190Y-89604657D01*
X148406190Y-89604657D02*
X148406190Y-89795133D01*
X148406190Y-89795133D02*
X148444285Y-89947514D01*
X148444285Y-89947514D02*
X148482380Y-90023704D01*
X148482380Y-90023704D02*
X148520475Y-90061800D01*
X148520475Y-90061800D02*
X148596666Y-90099895D01*
X148596666Y-90099895D02*
X148672856Y-90099895D01*
X148672856Y-90099895D02*
X148749047Y-90061800D01*
X148749047Y-90061800D02*
X148787142Y-90023704D01*
X148787142Y-90023704D02*
X148825237Y-89947514D01*
X148825237Y-89947514D02*
X148863333Y-89795133D01*
X148863333Y-89795133D02*
X148863333Y-89604657D01*
X148863333Y-89604657D02*
X148825237Y-89452276D01*
X148825237Y-89452276D02*
X148787142Y-89376085D01*
X148787142Y-89376085D02*
X148749047Y-89337990D01*
X148749047Y-89337990D02*
X148672856Y-89299895D01*
X147910951Y-89299895D02*
X147834761Y-89299895D01*
X147834761Y-89299895D02*
X147758570Y-89337990D01*
X147758570Y-89337990D02*
X147720475Y-89376085D01*
X147720475Y-89376085D02*
X147682380Y-89452276D01*
X147682380Y-89452276D02*
X147644285Y-89604657D01*
X147644285Y-89604657D02*
X147644285Y-89795133D01*
X147644285Y-89795133D02*
X147682380Y-89947514D01*
X147682380Y-89947514D02*
X147720475Y-90023704D01*
X147720475Y-90023704D02*
X147758570Y-90061800D01*
X147758570Y-90061800D02*
X147834761Y-90099895D01*
X147834761Y-90099895D02*
X147910951Y-90099895D01*
X147910951Y-90099895D02*
X147987142Y-90061800D01*
X147987142Y-90061800D02*
X148025237Y-90023704D01*
X148025237Y-90023704D02*
X148063332Y-89947514D01*
X148063332Y-89947514D02*
X148101428Y-89795133D01*
X148101428Y-89795133D02*
X148101428Y-89604657D01*
X148101428Y-89604657D02*
X148063332Y-89452276D01*
X148063332Y-89452276D02*
X148025237Y-89376085D01*
X148025237Y-89376085D02*
X147987142Y-89337990D01*
X147987142Y-89337990D02*
X147910951Y-89299895D01*
X147301427Y-89566561D02*
X147301427Y-90099895D01*
X147301427Y-89642752D02*
X147263332Y-89604657D01*
X147263332Y-89604657D02*
X147187142Y-89566561D01*
X147187142Y-89566561D02*
X147072856Y-89566561D01*
X147072856Y-89566561D02*
X146996665Y-89604657D01*
X146996665Y-89604657D02*
X146958570Y-89680847D01*
X146958570Y-89680847D02*
X146958570Y-90099895D01*
X146310951Y-89680847D02*
X146577617Y-89680847D01*
X146577617Y-90099895D02*
X146577617Y-89299895D01*
X146577617Y-89299895D02*
X146196665Y-89299895D01*
X148444285Y-91453704D02*
X148482381Y-91491800D01*
X148482381Y-91491800D02*
X148596666Y-91529895D01*
X148596666Y-91529895D02*
X148672857Y-91529895D01*
X148672857Y-91529895D02*
X148787143Y-91491800D01*
X148787143Y-91491800D02*
X148863333Y-91415609D01*
X148863333Y-91415609D02*
X148901428Y-91339419D01*
X148901428Y-91339419D02*
X148939524Y-91187038D01*
X148939524Y-91187038D02*
X148939524Y-91072752D01*
X148939524Y-91072752D02*
X148901428Y-90920371D01*
X148901428Y-90920371D02*
X148863333Y-90844180D01*
X148863333Y-90844180D02*
X148787143Y-90767990D01*
X148787143Y-90767990D02*
X148672857Y-90729895D01*
X148672857Y-90729895D02*
X148596666Y-90729895D01*
X148596666Y-90729895D02*
X148482381Y-90767990D01*
X148482381Y-90767990D02*
X148444285Y-90806085D01*
X148177619Y-90729895D02*
X147682381Y-90729895D01*
X147682381Y-90729895D02*
X147949047Y-91034657D01*
X147949047Y-91034657D02*
X147834762Y-91034657D01*
X147834762Y-91034657D02*
X147758571Y-91072752D01*
X147758571Y-91072752D02*
X147720476Y-91110847D01*
X147720476Y-91110847D02*
X147682381Y-91187038D01*
X147682381Y-91187038D02*
X147682381Y-91377514D01*
X147682381Y-91377514D02*
X147720476Y-91453704D01*
X147720476Y-91453704D02*
X147758571Y-91491800D01*
X147758571Y-91491800D02*
X147834762Y-91529895D01*
X147834762Y-91529895D02*
X148063333Y-91529895D01*
X148063333Y-91529895D02*
X148139524Y-91491800D01*
X148139524Y-91491800D02*
X148177619Y-91453704D01*
X147377619Y-90806085D02*
X147339523Y-90767990D01*
X147339523Y-90767990D02*
X147263333Y-90729895D01*
X147263333Y-90729895D02*
X147072857Y-90729895D01*
X147072857Y-90729895D02*
X146996666Y-90767990D01*
X146996666Y-90767990D02*
X146958571Y-90806085D01*
X146958571Y-90806085D02*
X146920476Y-90882276D01*
X146920476Y-90882276D02*
X146920476Y-90958466D01*
X146920476Y-90958466D02*
X146958571Y-91072752D01*
X146958571Y-91072752D02*
X147415714Y-91529895D01*
X147415714Y-91529895D02*
X146920476Y-91529895D01*
X130088094Y-67051562D02*
X130011904Y-67051562D01*
X130011904Y-67051562D02*
X129935713Y-67089657D01*
X129935713Y-67089657D02*
X129897618Y-67127752D01*
X129897618Y-67127752D02*
X129859523Y-67203943D01*
X129859523Y-67203943D02*
X129821428Y-67356324D01*
X129821428Y-67356324D02*
X129821428Y-67546800D01*
X129821428Y-67546800D02*
X129859523Y-67699181D01*
X129859523Y-67699181D02*
X129897618Y-67775371D01*
X129897618Y-67775371D02*
X129935713Y-67813467D01*
X129935713Y-67813467D02*
X130011904Y-67851562D01*
X130011904Y-67851562D02*
X130088094Y-67851562D01*
X130088094Y-67851562D02*
X130164285Y-67813467D01*
X130164285Y-67813467D02*
X130202380Y-67775371D01*
X130202380Y-67775371D02*
X130240475Y-67699181D01*
X130240475Y-67699181D02*
X130278571Y-67546800D01*
X130278571Y-67546800D02*
X130278571Y-67356324D01*
X130278571Y-67356324D02*
X130240475Y-67203943D01*
X130240475Y-67203943D02*
X130202380Y-67127752D01*
X130202380Y-67127752D02*
X130164285Y-67089657D01*
X130164285Y-67089657D02*
X130088094Y-67051562D01*
X129021427Y-67851562D02*
X129288094Y-67470609D01*
X129478570Y-67851562D02*
X129478570Y-67051562D01*
X129478570Y-67051562D02*
X129173808Y-67051562D01*
X129173808Y-67051562D02*
X129097618Y-67089657D01*
X129097618Y-67089657D02*
X129059523Y-67127752D01*
X129059523Y-67127752D02*
X129021427Y-67203943D01*
X129021427Y-67203943D02*
X129021427Y-67318228D01*
X129021427Y-67318228D02*
X129059523Y-67394419D01*
X129059523Y-67394419D02*
X129097618Y-67432514D01*
X129097618Y-67432514D02*
X129173808Y-67470609D01*
X129173808Y-67470609D02*
X129478570Y-67470609D01*
X129783332Y-69501562D02*
X130049999Y-69120609D01*
X130240475Y-69501562D02*
X130240475Y-68701562D01*
X130240475Y-68701562D02*
X129935713Y-68701562D01*
X129935713Y-68701562D02*
X129859523Y-68739657D01*
X129859523Y-68739657D02*
X129821428Y-68777752D01*
X129821428Y-68777752D02*
X129783332Y-68853943D01*
X129783332Y-68853943D02*
X129783332Y-68968228D01*
X129783332Y-68968228D02*
X129821428Y-69044419D01*
X129821428Y-69044419D02*
X129859523Y-69082514D01*
X129859523Y-69082514D02*
X129935713Y-69120609D01*
X129935713Y-69120609D02*
X130240475Y-69120609D01*
X129478571Y-68777752D02*
X129440475Y-68739657D01*
X129440475Y-68739657D02*
X129364285Y-68701562D01*
X129364285Y-68701562D02*
X129173809Y-68701562D01*
X129173809Y-68701562D02*
X129097618Y-68739657D01*
X129097618Y-68739657D02*
X129059523Y-68777752D01*
X129059523Y-68777752D02*
X129021428Y-68853943D01*
X129021428Y-68853943D02*
X129021428Y-68930133D01*
X129021428Y-68930133D02*
X129059523Y-69044419D01*
X129059523Y-69044419D02*
X129516666Y-69501562D01*
X129516666Y-69501562D02*
X129021428Y-69501562D01*
X130088094Y-64799895D02*
X130011904Y-64799895D01*
X130011904Y-64799895D02*
X129935713Y-64837990D01*
X129935713Y-64837990D02*
X129897618Y-64876085D01*
X129897618Y-64876085D02*
X129859523Y-64952276D01*
X129859523Y-64952276D02*
X129821428Y-65104657D01*
X129821428Y-65104657D02*
X129821428Y-65295133D01*
X129821428Y-65295133D02*
X129859523Y-65447514D01*
X129859523Y-65447514D02*
X129897618Y-65523704D01*
X129897618Y-65523704D02*
X129935713Y-65561800D01*
X129935713Y-65561800D02*
X130011904Y-65599895D01*
X130011904Y-65599895D02*
X130088094Y-65599895D01*
X130088094Y-65599895D02*
X130164285Y-65561800D01*
X130164285Y-65561800D02*
X130202380Y-65523704D01*
X130202380Y-65523704D02*
X130240475Y-65447514D01*
X130240475Y-65447514D02*
X130278571Y-65295133D01*
X130278571Y-65295133D02*
X130278571Y-65104657D01*
X130278571Y-65104657D02*
X130240475Y-64952276D01*
X130240475Y-64952276D02*
X130202380Y-64876085D01*
X130202380Y-64876085D02*
X130164285Y-64837990D01*
X130164285Y-64837990D02*
X130088094Y-64799895D01*
X129021427Y-65599895D02*
X129288094Y-65218942D01*
X129478570Y-65599895D02*
X129478570Y-64799895D01*
X129478570Y-64799895D02*
X129173808Y-64799895D01*
X129173808Y-64799895D02*
X129097618Y-64837990D01*
X129097618Y-64837990D02*
X129059523Y-64876085D01*
X129059523Y-64876085D02*
X129021427Y-64952276D01*
X129021427Y-64952276D02*
X129021427Y-65066561D01*
X129021427Y-65066561D02*
X129059523Y-65142752D01*
X129059523Y-65142752D02*
X129097618Y-65180847D01*
X129097618Y-65180847D02*
X129173808Y-65218942D01*
X129173808Y-65218942D02*
X129478570Y-65218942D01*
X129783332Y-67249895D02*
X130049999Y-66868942D01*
X130240475Y-67249895D02*
X130240475Y-66449895D01*
X130240475Y-66449895D02*
X129935713Y-66449895D01*
X129935713Y-66449895D02*
X129859523Y-66487990D01*
X129859523Y-66487990D02*
X129821428Y-66526085D01*
X129821428Y-66526085D02*
X129783332Y-66602276D01*
X129783332Y-66602276D02*
X129783332Y-66716561D01*
X129783332Y-66716561D02*
X129821428Y-66792752D01*
X129821428Y-66792752D02*
X129859523Y-66830847D01*
X129859523Y-66830847D02*
X129935713Y-66868942D01*
X129935713Y-66868942D02*
X130240475Y-66868942D01*
X129516666Y-66449895D02*
X129021428Y-66449895D01*
X129021428Y-66449895D02*
X129288094Y-66754657D01*
X129288094Y-66754657D02*
X129173809Y-66754657D01*
X129173809Y-66754657D02*
X129097618Y-66792752D01*
X129097618Y-66792752D02*
X129059523Y-66830847D01*
X129059523Y-66830847D02*
X129021428Y-66907038D01*
X129021428Y-66907038D02*
X129021428Y-67097514D01*
X129021428Y-67097514D02*
X129059523Y-67173704D01*
X129059523Y-67173704D02*
X129097618Y-67211800D01*
X129097618Y-67211800D02*
X129173809Y-67249895D01*
X129173809Y-67249895D02*
X129402380Y-67249895D01*
X129402380Y-67249895D02*
X129478571Y-67211800D01*
X129478571Y-67211800D02*
X129516666Y-67173704D01*
X122637143Y-65519895D02*
X123094286Y-65519895D01*
X122865714Y-65519895D02*
X122865714Y-64719895D01*
X122865714Y-64719895D02*
X122941905Y-64834180D01*
X122941905Y-64834180D02*
X123018095Y-64910371D01*
X123018095Y-64910371D02*
X123094286Y-64948466D01*
X122141904Y-64719895D02*
X122065714Y-64719895D01*
X122065714Y-64719895D02*
X121989523Y-64757990D01*
X121989523Y-64757990D02*
X121951428Y-64796085D01*
X121951428Y-64796085D02*
X121913333Y-64872276D01*
X121913333Y-64872276D02*
X121875238Y-65024657D01*
X121875238Y-65024657D02*
X121875238Y-65215133D01*
X121875238Y-65215133D02*
X121913333Y-65367514D01*
X121913333Y-65367514D02*
X121951428Y-65443704D01*
X121951428Y-65443704D02*
X121989523Y-65481800D01*
X121989523Y-65481800D02*
X122065714Y-65519895D01*
X122065714Y-65519895D02*
X122141904Y-65519895D01*
X122141904Y-65519895D02*
X122218095Y-65481800D01*
X122218095Y-65481800D02*
X122256190Y-65443704D01*
X122256190Y-65443704D02*
X122294285Y-65367514D01*
X122294285Y-65367514D02*
X122332381Y-65215133D01*
X122332381Y-65215133D02*
X122332381Y-65024657D01*
X122332381Y-65024657D02*
X122294285Y-64872276D01*
X122294285Y-64872276D02*
X122256190Y-64796085D01*
X122256190Y-64796085D02*
X122218095Y-64757990D01*
X122218095Y-64757990D02*
X122141904Y-64719895D01*
X121189523Y-64986561D02*
X121189523Y-65519895D01*
X121532380Y-64986561D02*
X121532380Y-65405609D01*
X121532380Y-65405609D02*
X121494285Y-65481800D01*
X121494285Y-65481800D02*
X121418095Y-65519895D01*
X121418095Y-65519895D02*
X121303809Y-65519895D01*
X121303809Y-65519895D02*
X121227618Y-65481800D01*
X121227618Y-65481800D02*
X121189523Y-65443704D01*
X120541904Y-65100847D02*
X120808570Y-65100847D01*
X120808570Y-65519895D02*
X120808570Y-64719895D01*
X120808570Y-64719895D02*
X120427618Y-64719895D01*
X122294285Y-64013704D02*
X122332381Y-64051800D01*
X122332381Y-64051800D02*
X122446666Y-64089895D01*
X122446666Y-64089895D02*
X122522857Y-64089895D01*
X122522857Y-64089895D02*
X122637143Y-64051800D01*
X122637143Y-64051800D02*
X122713333Y-63975609D01*
X122713333Y-63975609D02*
X122751428Y-63899419D01*
X122751428Y-63899419D02*
X122789524Y-63747038D01*
X122789524Y-63747038D02*
X122789524Y-63632752D01*
X122789524Y-63632752D02*
X122751428Y-63480371D01*
X122751428Y-63480371D02*
X122713333Y-63404180D01*
X122713333Y-63404180D02*
X122637143Y-63327990D01*
X122637143Y-63327990D02*
X122522857Y-63289895D01*
X122522857Y-63289895D02*
X122446666Y-63289895D01*
X122446666Y-63289895D02*
X122332381Y-63327990D01*
X122332381Y-63327990D02*
X122294285Y-63366085D01*
X121608571Y-63556561D02*
X121608571Y-64089895D01*
X121799047Y-63251800D02*
X121989524Y-63823228D01*
X121989524Y-63823228D02*
X121494285Y-63823228D01*
X121037142Y-63289895D02*
X120960952Y-63289895D01*
X120960952Y-63289895D02*
X120884761Y-63327990D01*
X120884761Y-63327990D02*
X120846666Y-63366085D01*
X120846666Y-63366085D02*
X120808571Y-63442276D01*
X120808571Y-63442276D02*
X120770476Y-63594657D01*
X120770476Y-63594657D02*
X120770476Y-63785133D01*
X120770476Y-63785133D02*
X120808571Y-63937514D01*
X120808571Y-63937514D02*
X120846666Y-64013704D01*
X120846666Y-64013704D02*
X120884761Y-64051800D01*
X120884761Y-64051800D02*
X120960952Y-64089895D01*
X120960952Y-64089895D02*
X121037142Y-64089895D01*
X121037142Y-64089895D02*
X121113333Y-64051800D01*
X121113333Y-64051800D02*
X121151428Y-64013704D01*
X121151428Y-64013704D02*
X121189523Y-63937514D01*
X121189523Y-63937514D02*
X121227619Y-63785133D01*
X121227619Y-63785133D02*
X121227619Y-63594657D01*
X121227619Y-63594657D02*
X121189523Y-63442276D01*
X121189523Y-63442276D02*
X121151428Y-63366085D01*
X121151428Y-63366085D02*
X121113333Y-63327990D01*
X121113333Y-63327990D02*
X121037142Y-63289895D01*
X149168095Y-87364895D02*
X149625238Y-87364895D01*
X149396666Y-87364895D02*
X149396666Y-86564895D01*
X149396666Y-86564895D02*
X149472857Y-86679180D01*
X149472857Y-86679180D02*
X149549047Y-86755371D01*
X149549047Y-86755371D02*
X149625238Y-86793466D01*
X148672856Y-86564895D02*
X148596666Y-86564895D01*
X148596666Y-86564895D02*
X148520475Y-86602990D01*
X148520475Y-86602990D02*
X148482380Y-86641085D01*
X148482380Y-86641085D02*
X148444285Y-86717276D01*
X148444285Y-86717276D02*
X148406190Y-86869657D01*
X148406190Y-86869657D02*
X148406190Y-87060133D01*
X148406190Y-87060133D02*
X148444285Y-87212514D01*
X148444285Y-87212514D02*
X148482380Y-87288704D01*
X148482380Y-87288704D02*
X148520475Y-87326800D01*
X148520475Y-87326800D02*
X148596666Y-87364895D01*
X148596666Y-87364895D02*
X148672856Y-87364895D01*
X148672856Y-87364895D02*
X148749047Y-87326800D01*
X148749047Y-87326800D02*
X148787142Y-87288704D01*
X148787142Y-87288704D02*
X148825237Y-87212514D01*
X148825237Y-87212514D02*
X148863333Y-87060133D01*
X148863333Y-87060133D02*
X148863333Y-86869657D01*
X148863333Y-86869657D02*
X148825237Y-86717276D01*
X148825237Y-86717276D02*
X148787142Y-86641085D01*
X148787142Y-86641085D02*
X148749047Y-86602990D01*
X148749047Y-86602990D02*
X148672856Y-86564895D01*
X147910951Y-86564895D02*
X147834761Y-86564895D01*
X147834761Y-86564895D02*
X147758570Y-86602990D01*
X147758570Y-86602990D02*
X147720475Y-86641085D01*
X147720475Y-86641085D02*
X147682380Y-86717276D01*
X147682380Y-86717276D02*
X147644285Y-86869657D01*
X147644285Y-86869657D02*
X147644285Y-87060133D01*
X147644285Y-87060133D02*
X147682380Y-87212514D01*
X147682380Y-87212514D02*
X147720475Y-87288704D01*
X147720475Y-87288704D02*
X147758570Y-87326800D01*
X147758570Y-87326800D02*
X147834761Y-87364895D01*
X147834761Y-87364895D02*
X147910951Y-87364895D01*
X147910951Y-87364895D02*
X147987142Y-87326800D01*
X147987142Y-87326800D02*
X148025237Y-87288704D01*
X148025237Y-87288704D02*
X148063332Y-87212514D01*
X148063332Y-87212514D02*
X148101428Y-87060133D01*
X148101428Y-87060133D02*
X148101428Y-86869657D01*
X148101428Y-86869657D02*
X148063332Y-86717276D01*
X148063332Y-86717276D02*
X148025237Y-86641085D01*
X148025237Y-86641085D02*
X147987142Y-86602990D01*
X147987142Y-86602990D02*
X147910951Y-86564895D01*
X147301427Y-86831561D02*
X147301427Y-87364895D01*
X147301427Y-86907752D02*
X147263332Y-86869657D01*
X147263332Y-86869657D02*
X147187142Y-86831561D01*
X147187142Y-86831561D02*
X147072856Y-86831561D01*
X147072856Y-86831561D02*
X146996665Y-86869657D01*
X146996665Y-86869657D02*
X146958570Y-86945847D01*
X146958570Y-86945847D02*
X146958570Y-87364895D01*
X146310951Y-86945847D02*
X146577617Y-86945847D01*
X146577617Y-87364895D02*
X146577617Y-86564895D01*
X146577617Y-86564895D02*
X146196665Y-86564895D01*
X148444285Y-88718704D02*
X148482381Y-88756800D01*
X148482381Y-88756800D02*
X148596666Y-88794895D01*
X148596666Y-88794895D02*
X148672857Y-88794895D01*
X148672857Y-88794895D02*
X148787143Y-88756800D01*
X148787143Y-88756800D02*
X148863333Y-88680609D01*
X148863333Y-88680609D02*
X148901428Y-88604419D01*
X148901428Y-88604419D02*
X148939524Y-88452038D01*
X148939524Y-88452038D02*
X148939524Y-88337752D01*
X148939524Y-88337752D02*
X148901428Y-88185371D01*
X148901428Y-88185371D02*
X148863333Y-88109180D01*
X148863333Y-88109180D02*
X148787143Y-88032990D01*
X148787143Y-88032990D02*
X148672857Y-87994895D01*
X148672857Y-87994895D02*
X148596666Y-87994895D01*
X148596666Y-87994895D02*
X148482381Y-88032990D01*
X148482381Y-88032990D02*
X148444285Y-88071085D01*
X148177619Y-87994895D02*
X147682381Y-87994895D01*
X147682381Y-87994895D02*
X147949047Y-88299657D01*
X147949047Y-88299657D02*
X147834762Y-88299657D01*
X147834762Y-88299657D02*
X147758571Y-88337752D01*
X147758571Y-88337752D02*
X147720476Y-88375847D01*
X147720476Y-88375847D02*
X147682381Y-88452038D01*
X147682381Y-88452038D02*
X147682381Y-88642514D01*
X147682381Y-88642514D02*
X147720476Y-88718704D01*
X147720476Y-88718704D02*
X147758571Y-88756800D01*
X147758571Y-88756800D02*
X147834762Y-88794895D01*
X147834762Y-88794895D02*
X148063333Y-88794895D01*
X148063333Y-88794895D02*
X148139524Y-88756800D01*
X148139524Y-88756800D02*
X148177619Y-88718704D01*
X146920476Y-88794895D02*
X147377619Y-88794895D01*
X147149047Y-88794895D02*
X147149047Y-87994895D01*
X147149047Y-87994895D02*
X147225238Y-88109180D01*
X147225238Y-88109180D02*
X147301428Y-88185371D01*
X147301428Y-88185371D02*
X147377619Y-88223466D01*
X145524895Y-102301904D02*
X145524895Y-101844761D01*
X145524895Y-102073333D02*
X144724895Y-102073333D01*
X144724895Y-102073333D02*
X144839180Y-101997142D01*
X144839180Y-101997142D02*
X144915371Y-101920952D01*
X144915371Y-101920952D02*
X144953466Y-101844761D01*
X144724895Y-102797143D02*
X144724895Y-102873333D01*
X144724895Y-102873333D02*
X144762990Y-102949524D01*
X144762990Y-102949524D02*
X144801085Y-102987619D01*
X144801085Y-102987619D02*
X144877276Y-103025714D01*
X144877276Y-103025714D02*
X145029657Y-103063809D01*
X145029657Y-103063809D02*
X145220133Y-103063809D01*
X145220133Y-103063809D02*
X145372514Y-103025714D01*
X145372514Y-103025714D02*
X145448704Y-102987619D01*
X145448704Y-102987619D02*
X145486800Y-102949524D01*
X145486800Y-102949524D02*
X145524895Y-102873333D01*
X145524895Y-102873333D02*
X145524895Y-102797143D01*
X145524895Y-102797143D02*
X145486800Y-102720952D01*
X145486800Y-102720952D02*
X145448704Y-102682857D01*
X145448704Y-102682857D02*
X145372514Y-102644762D01*
X145372514Y-102644762D02*
X145220133Y-102606666D01*
X145220133Y-102606666D02*
X145029657Y-102606666D01*
X145029657Y-102606666D02*
X144877276Y-102644762D01*
X144877276Y-102644762D02*
X144801085Y-102682857D01*
X144801085Y-102682857D02*
X144762990Y-102720952D01*
X144762990Y-102720952D02*
X144724895Y-102797143D01*
X144724895Y-103559048D02*
X144724895Y-103635238D01*
X144724895Y-103635238D02*
X144762990Y-103711429D01*
X144762990Y-103711429D02*
X144801085Y-103749524D01*
X144801085Y-103749524D02*
X144877276Y-103787619D01*
X144877276Y-103787619D02*
X145029657Y-103825714D01*
X145029657Y-103825714D02*
X145220133Y-103825714D01*
X145220133Y-103825714D02*
X145372514Y-103787619D01*
X145372514Y-103787619D02*
X145448704Y-103749524D01*
X145448704Y-103749524D02*
X145486800Y-103711429D01*
X145486800Y-103711429D02*
X145524895Y-103635238D01*
X145524895Y-103635238D02*
X145524895Y-103559048D01*
X145524895Y-103559048D02*
X145486800Y-103482857D01*
X145486800Y-103482857D02*
X145448704Y-103444762D01*
X145448704Y-103444762D02*
X145372514Y-103406667D01*
X145372514Y-103406667D02*
X145220133Y-103368571D01*
X145220133Y-103368571D02*
X145029657Y-103368571D01*
X145029657Y-103368571D02*
X144877276Y-103406667D01*
X144877276Y-103406667D02*
X144801085Y-103444762D01*
X144801085Y-103444762D02*
X144762990Y-103482857D01*
X144762990Y-103482857D02*
X144724895Y-103559048D01*
X144991561Y-104168572D02*
X145524895Y-104168572D01*
X145067752Y-104168572D02*
X145029657Y-104206667D01*
X145029657Y-104206667D02*
X144991561Y-104282857D01*
X144991561Y-104282857D02*
X144991561Y-104397143D01*
X144991561Y-104397143D02*
X145029657Y-104473334D01*
X145029657Y-104473334D02*
X145105847Y-104511429D01*
X145105847Y-104511429D02*
X145524895Y-104511429D01*
X145105847Y-105159048D02*
X145105847Y-104892382D01*
X145524895Y-104892382D02*
X144724895Y-104892382D01*
X144724895Y-104892382D02*
X144724895Y-105273334D01*
X146878704Y-103025714D02*
X146916800Y-102987618D01*
X146916800Y-102987618D02*
X146954895Y-102873333D01*
X146954895Y-102873333D02*
X146954895Y-102797142D01*
X146954895Y-102797142D02*
X146916800Y-102682856D01*
X146916800Y-102682856D02*
X146840609Y-102606666D01*
X146840609Y-102606666D02*
X146764419Y-102568571D01*
X146764419Y-102568571D02*
X146612038Y-102530475D01*
X146612038Y-102530475D02*
X146497752Y-102530475D01*
X146497752Y-102530475D02*
X146345371Y-102568571D01*
X146345371Y-102568571D02*
X146269180Y-102606666D01*
X146269180Y-102606666D02*
X146192990Y-102682856D01*
X146192990Y-102682856D02*
X146154895Y-102797142D01*
X146154895Y-102797142D02*
X146154895Y-102873333D01*
X146154895Y-102873333D02*
X146192990Y-102987618D01*
X146192990Y-102987618D02*
X146231085Y-103025714D01*
X146154895Y-103292380D02*
X146154895Y-103787618D01*
X146154895Y-103787618D02*
X146459657Y-103520952D01*
X146459657Y-103520952D02*
X146459657Y-103635237D01*
X146459657Y-103635237D02*
X146497752Y-103711428D01*
X146497752Y-103711428D02*
X146535847Y-103749523D01*
X146535847Y-103749523D02*
X146612038Y-103787618D01*
X146612038Y-103787618D02*
X146802514Y-103787618D01*
X146802514Y-103787618D02*
X146878704Y-103749523D01*
X146878704Y-103749523D02*
X146916800Y-103711428D01*
X146916800Y-103711428D02*
X146954895Y-103635237D01*
X146954895Y-103635237D02*
X146954895Y-103406666D01*
X146954895Y-103406666D02*
X146916800Y-103330475D01*
X146916800Y-103330475D02*
X146878704Y-103292380D01*
X146154895Y-104054285D02*
X146154895Y-104587619D01*
X146154895Y-104587619D02*
X146954895Y-104244761D01*
%TO.C,C41*%
X108510000Y-111280000D02*
X108510000Y-112080000D01*
X108510000Y-112080000D02*
X110110000Y-112080000D01*
X110110000Y-111280000D02*
X108510000Y-111280000D01*
X110110000Y-112080000D02*
X110110000Y-111280000D01*
%TO.C,R8*%
X106140000Y-105835000D02*
X106140000Y-107085000D01*
X106140000Y-107085000D02*
X108140000Y-107085000D01*
X108140000Y-105835000D02*
X106140000Y-105835000D01*
X108140000Y-107085000D02*
X108140000Y-105835000D01*
%TO.C,R6*%
X153040000Y-128885000D02*
X153040000Y-130135000D01*
X153040000Y-130135000D02*
X155040000Y-130135000D01*
X155040000Y-128885000D02*
X153040000Y-128885000D01*
X155040000Y-130135000D02*
X155040000Y-128885000D01*
%TO.C,R4*%
X128650000Y-61756667D02*
X128650000Y-63006667D01*
X128650000Y-63006667D02*
X130650000Y-63006667D01*
X130650000Y-61756667D02*
X128650000Y-61756667D01*
X130650000Y-63006667D02*
X130650000Y-61756667D01*
%TO.C,R9*%
X106140000Y-108835000D02*
X106140000Y-110085000D01*
X106140000Y-110085000D02*
X108140000Y-110085000D01*
X108140000Y-108835000D02*
X106140000Y-108835000D01*
X108140000Y-110085000D02*
X108140000Y-108835000D01*
D15*
%TO.C,FL1*%
X116050000Y-83660500D02*
X116050000Y-85660500D01*
X116050000Y-85660500D02*
X117250000Y-85660500D01*
X117250000Y-83660500D02*
X116050000Y-83660500D01*
X117250000Y-85660500D02*
X117250000Y-83660500D01*
D10*
X117100000Y-85460500D02*
G75*
G02*
X117000000Y-85460500I-50000J0D01*
G01*
X117000000Y-85460500D02*
G75*
G02*
X117100000Y-85460500I50000J0D01*
G01*
%TO.C,C38*%
X140380000Y-78810000D02*
X140380000Y-79610000D01*
X140380000Y-79610000D02*
X141980000Y-79610000D01*
X141980000Y-78810000D02*
X140380000Y-78810000D01*
X141980000Y-79610000D02*
X141980000Y-78810000D01*
%TO.C,C42*%
X108510000Y-112885000D02*
X108510000Y-113685000D01*
X108510000Y-113685000D02*
X110110000Y-113685000D01*
X110110000Y-112885000D02*
X108510000Y-112885000D01*
X110110000Y-113685000D02*
X110110000Y-112885000D01*
%TO.C,R12*%
X128650000Y-70763333D02*
X128650000Y-72013333D01*
X128650000Y-72013333D02*
X130650000Y-72013333D01*
X130650000Y-70763333D02*
X128650000Y-70763333D01*
X130650000Y-72013333D02*
X130650000Y-70763333D01*
%TO.C,C36*%
X130810000Y-90740000D02*
X130810000Y-92340000D01*
X130810000Y-92340000D02*
X131610000Y-92340000D01*
X131610000Y-90740000D02*
X130810000Y-90740000D01*
X131610000Y-92340000D02*
X131610000Y-90740000D01*
%TO.C,FB2*%
X109600000Y-107580000D02*
X109600000Y-109580000D01*
X109600000Y-109580000D02*
X110850000Y-109580000D01*
X110850000Y-107580000D02*
X109600000Y-107580000D01*
X110850000Y-109580000D02*
X110850000Y-107580000D01*
%TO.C,C30*%
X129140000Y-85470000D02*
X129140000Y-86270000D01*
X129140000Y-86270000D02*
X130740000Y-86270000D01*
X130740000Y-85470000D02*
X129140000Y-85470000D01*
X130740000Y-86270000D02*
X130740000Y-85470000D01*
%TO.C,C44*%
X129155000Y-83590000D02*
X129155000Y-84390000D01*
X129155000Y-84390000D02*
X130755000Y-84390000D01*
X130755000Y-83590000D02*
X129155000Y-83590000D01*
X130755000Y-84390000D02*
X130755000Y-83590000D01*
%TO.C,C43*%
X108510000Y-114490000D02*
X108510000Y-115290000D01*
X108510000Y-115290000D02*
X110110000Y-115290000D01*
X110110000Y-114490000D02*
X108510000Y-114490000D01*
X110110000Y-115290000D02*
X110110000Y-114490000D01*
%TO.C,R13*%
X128650000Y-73015000D02*
X128650000Y-74265000D01*
X128650000Y-74265000D02*
X130650000Y-74265000D01*
X130650000Y-73015000D02*
X128650000Y-73015000D01*
X130650000Y-74265000D02*
X130650000Y-73015000D01*
%TO.C,R5*%
X128650000Y-64008333D02*
X128650000Y-65258333D01*
X128650000Y-65258333D02*
X130650000Y-65258333D01*
X130650000Y-64008333D02*
X128650000Y-64008333D01*
X130650000Y-65258333D02*
X130650000Y-64008333D01*
%TO.C,C17*%
X120980000Y-61450000D02*
X120980000Y-62250000D01*
X120980000Y-62250000D02*
X122580000Y-62250000D01*
X122580000Y-61450000D02*
X120980000Y-61450000D01*
X122580000Y-62250000D02*
X122580000Y-61450000D01*
%TO.C,C35*%
X147130000Y-93500000D02*
X147130000Y-94300000D01*
X147130000Y-94300000D02*
X148730000Y-94300000D01*
X148730000Y-93500000D02*
X147130000Y-93500000D01*
X148730000Y-94300000D02*
X148730000Y-93500000D01*
%TO.C,U1*%
X133820000Y-82880000D02*
X133820000Y-105100000D01*
X133820000Y-105100000D02*
X143980000Y-105100000D01*
X142980000Y-82880000D02*
X133820000Y-82880000D01*
X142980000Y-82880000D02*
X143980000Y-83880000D01*
X143980000Y-105100000D02*
X143980000Y-83880000D01*
%TO.C,C39*%
X120980000Y-59575000D02*
X120980000Y-60375000D01*
X120980000Y-60375000D02*
X122580000Y-60375000D01*
X122580000Y-59575000D02*
X120980000Y-59575000D01*
X122580000Y-60375000D02*
X122580000Y-59575000D01*
%TO.C,C34*%
X129130000Y-87210000D02*
X129130000Y-88010000D01*
X129130000Y-88010000D02*
X130730000Y-88010000D01*
X130730000Y-87210000D02*
X129130000Y-87210000D01*
X130730000Y-88010000D02*
X130730000Y-87210000D01*
%TO.C,R14*%
X128650000Y-59505000D02*
X128650000Y-60755000D01*
X128650000Y-60755000D02*
X130650000Y-60755000D01*
X130650000Y-59505000D02*
X128650000Y-59505000D01*
X130650000Y-60755000D02*
X130650000Y-59505000D01*
%TO.C,C33*%
X147780000Y-102740000D02*
X147780000Y-104340000D01*
X147780000Y-104340000D02*
X148580000Y-104340000D01*
X148580000Y-102740000D02*
X147780000Y-102740000D01*
X148580000Y-104340000D02*
X148580000Y-102740000D01*
D16*
%TO.C,D8*%
X115219600Y-98237600D02*
X115219600Y-101082400D01*
X115219600Y-101082400D02*
X116540400Y-101082400D01*
X116540400Y-98237600D02*
X115219600Y-98237600D01*
X116540400Y-101082400D02*
X116540400Y-98237600D01*
D10*
%TO.C,C32*%
X147130000Y-90765000D02*
X147130000Y-91565000D01*
X147130000Y-91565000D02*
X148730000Y-91565000D01*
X148730000Y-90765000D02*
X147130000Y-90765000D01*
X148730000Y-91565000D02*
X148730000Y-90765000D01*
%TO.C,R2*%
X128650000Y-68511667D02*
X128650000Y-69761667D01*
X128650000Y-69761667D02*
X130650000Y-69761667D01*
X130650000Y-68511667D02*
X128650000Y-68511667D01*
X130650000Y-69761667D02*
X130650000Y-68511667D01*
%TO.C,R3*%
X128650000Y-66260000D02*
X128650000Y-67510000D01*
X128650000Y-67510000D02*
X130650000Y-67510000D01*
X130650000Y-66260000D02*
X128650000Y-66260000D01*
X130650000Y-67510000D02*
X130650000Y-66260000D01*
%TO.C,C40*%
X120980000Y-63325000D02*
X120980000Y-64125000D01*
X120980000Y-64125000D02*
X122580000Y-64125000D01*
X122580000Y-63325000D02*
X120980000Y-63325000D01*
X122580000Y-64125000D02*
X122580000Y-63325000D01*
%TO.C,C31*%
X147130000Y-88030000D02*
X147130000Y-88830000D01*
X147130000Y-88830000D02*
X148730000Y-88830000D01*
X148730000Y-88030000D02*
X147130000Y-88030000D01*
X148730000Y-88830000D02*
X148730000Y-88030000D01*
%TO.C,C37*%
X146190000Y-102740000D02*
X146190000Y-104340000D01*
X146190000Y-104340000D02*
X146990000Y-104340000D01*
X146990000Y-102740000D02*
X146190000Y-102740000D01*
X146990000Y-104340000D02*
X146990000Y-102740000D01*
%TD*%
M02*
