%TF.GenerationSoftware,KiCad,Pcbnew,9.0.6*%
%TF.CreationDate,2026-04-12T20:53:46+02:00*%
%TF.ProjectId,rayman_LCD_STM,7261796d-616e-45f4-9c43-445f53544d2e,rev?*%
%TF.SameCoordinates,Original*%
%TF.FileFunction,Legend,Bot*%
%TF.FilePolarity,Positive*%
%FSLAX46Y46*%
G04 Gerber Fmt 4.6, Leading zero omitted, Abs format (unit mm)*
G04 Created by KiCad (PCBNEW 9.0.6) date 2026-04-12 20:53:46*
%MOMM*%
%LPD*%
G01*
G04 APERTURE LIST*
%ADD10C,0.100000*%
%ADD11C,0.120136*%
%ADD12C,0.150000*%
%ADD13C,0.080068*%
%ADD14C,0.120000*%
%ADD15C,0.203200*%
G04 APERTURE END LIST*
D10*
X161364687Y-56132419D02*
X161698020Y-55656228D01*
X161936115Y-56132419D02*
X161936115Y-55132419D01*
X161936115Y-55132419D02*
X161555163Y-55132419D01*
X161555163Y-55132419D02*
X161459925Y-55180038D01*
X161459925Y-55180038D02*
X161412306Y-55227657D01*
X161412306Y-55227657D02*
X161364687Y-55322895D01*
X161364687Y-55322895D02*
X161364687Y-55465752D01*
X161364687Y-55465752D02*
X161412306Y-55560990D01*
X161412306Y-55560990D02*
X161459925Y-55608609D01*
X161459925Y-55608609D02*
X161555163Y-55656228D01*
X161555163Y-55656228D02*
X161936115Y-55656228D01*
X160936115Y-55608609D02*
X160602782Y-55608609D01*
X160459925Y-56132419D02*
X160936115Y-56132419D01*
X160936115Y-56132419D02*
X160936115Y-55132419D01*
X160936115Y-55132419D02*
X160459925Y-55132419D01*
X160174210Y-55132419D02*
X159840877Y-56132419D01*
X159840877Y-56132419D02*
X159507544Y-55132419D01*
X159174210Y-56037180D02*
X159126591Y-56084800D01*
X159126591Y-56084800D02*
X159174210Y-56132419D01*
X159174210Y-56132419D02*
X159221829Y-56084800D01*
X159221829Y-56084800D02*
X159174210Y-56037180D01*
X159174210Y-56037180D02*
X159174210Y-56132419D01*
X157983734Y-55227657D02*
X157936115Y-55180038D01*
X157936115Y-55180038D02*
X157840877Y-55132419D01*
X157840877Y-55132419D02*
X157602782Y-55132419D01*
X157602782Y-55132419D02*
X157507544Y-55180038D01*
X157507544Y-55180038D02*
X157459925Y-55227657D01*
X157459925Y-55227657D02*
X157412306Y-55322895D01*
X157412306Y-55322895D02*
X157412306Y-55418133D01*
X157412306Y-55418133D02*
X157459925Y-55560990D01*
X157459925Y-55560990D02*
X158031353Y-56132419D01*
X158031353Y-56132419D02*
X157412306Y-56132419D01*
X156983734Y-56037180D02*
X156936115Y-56084800D01*
X156936115Y-56084800D02*
X156983734Y-56132419D01*
X156983734Y-56132419D02*
X157031353Y-56084800D01*
X157031353Y-56084800D02*
X156983734Y-56037180D01*
X156983734Y-56037180D02*
X156983734Y-56132419D01*
X156317068Y-55132419D02*
X156221830Y-55132419D01*
X156221830Y-55132419D02*
X156126592Y-55180038D01*
X156126592Y-55180038D02*
X156078973Y-55227657D01*
X156078973Y-55227657D02*
X156031354Y-55322895D01*
X156031354Y-55322895D02*
X155983735Y-55513371D01*
X155983735Y-55513371D02*
X155983735Y-55751466D01*
X155983735Y-55751466D02*
X156031354Y-55941942D01*
X156031354Y-55941942D02*
X156078973Y-56037180D01*
X156078973Y-56037180D02*
X156126592Y-56084800D01*
X156126592Y-56084800D02*
X156221830Y-56132419D01*
X156221830Y-56132419D02*
X156317068Y-56132419D01*
X156317068Y-56132419D02*
X156412306Y-56084800D01*
X156412306Y-56084800D02*
X156459925Y-56037180D01*
X156459925Y-56037180D02*
X156507544Y-55941942D01*
X156507544Y-55941942D02*
X156555163Y-55751466D01*
X156555163Y-55751466D02*
X156555163Y-55513371D01*
X156555163Y-55513371D02*
X156507544Y-55322895D01*
X156507544Y-55322895D02*
X156459925Y-55227657D01*
X156459925Y-55227657D02*
X156412306Y-55180038D01*
X156412306Y-55180038D02*
X156317068Y-55132419D01*
X154602782Y-55132419D02*
X154507544Y-55132419D01*
X154507544Y-55132419D02*
X154412306Y-55180038D01*
X154412306Y-55180038D02*
X154364687Y-55227657D01*
X154364687Y-55227657D02*
X154317068Y-55322895D01*
X154317068Y-55322895D02*
X154269449Y-55513371D01*
X154269449Y-55513371D02*
X154269449Y-55751466D01*
X154269449Y-55751466D02*
X154317068Y-55941942D01*
X154317068Y-55941942D02*
X154364687Y-56037180D01*
X154364687Y-56037180D02*
X154412306Y-56084800D01*
X154412306Y-56084800D02*
X154507544Y-56132419D01*
X154507544Y-56132419D02*
X154602782Y-56132419D01*
X154602782Y-56132419D02*
X154698020Y-56084800D01*
X154698020Y-56084800D02*
X154745639Y-56037180D01*
X154745639Y-56037180D02*
X154793258Y-55941942D01*
X154793258Y-55941942D02*
X154840877Y-55751466D01*
X154840877Y-55751466D02*
X154840877Y-55513371D01*
X154840877Y-55513371D02*
X154793258Y-55322895D01*
X154793258Y-55322895D02*
X154745639Y-55227657D01*
X154745639Y-55227657D02*
X154698020Y-55180038D01*
X154698020Y-55180038D02*
X154602782Y-55132419D01*
X153317068Y-56132419D02*
X153888496Y-56132419D01*
X153602782Y-56132419D02*
X153602782Y-55132419D01*
X153602782Y-55132419D02*
X153698020Y-55275276D01*
X153698020Y-55275276D02*
X153793258Y-55370514D01*
X153793258Y-55370514D02*
X153888496Y-55418133D01*
X152888496Y-55751466D02*
X152126592Y-55751466D01*
X151459925Y-55132419D02*
X151364687Y-55132419D01*
X151364687Y-55132419D02*
X151269449Y-55180038D01*
X151269449Y-55180038D02*
X151221830Y-55227657D01*
X151221830Y-55227657D02*
X151174211Y-55322895D01*
X151174211Y-55322895D02*
X151126592Y-55513371D01*
X151126592Y-55513371D02*
X151126592Y-55751466D01*
X151126592Y-55751466D02*
X151174211Y-55941942D01*
X151174211Y-55941942D02*
X151221830Y-56037180D01*
X151221830Y-56037180D02*
X151269449Y-56084800D01*
X151269449Y-56084800D02*
X151364687Y-56132419D01*
X151364687Y-56132419D02*
X151459925Y-56132419D01*
X151459925Y-56132419D02*
X151555163Y-56084800D01*
X151555163Y-56084800D02*
X151602782Y-56037180D01*
X151602782Y-56037180D02*
X151650401Y-55941942D01*
X151650401Y-55941942D02*
X151698020Y-55751466D01*
X151698020Y-55751466D02*
X151698020Y-55513371D01*
X151698020Y-55513371D02*
X151650401Y-55322895D01*
X151650401Y-55322895D02*
X151602782Y-55227657D01*
X151602782Y-55227657D02*
X151555163Y-55180038D01*
X151555163Y-55180038D02*
X151459925Y-55132419D01*
X150269449Y-55465752D02*
X150269449Y-56132419D01*
X150507544Y-55084800D02*
X150745639Y-55799085D01*
X150745639Y-55799085D02*
X150126592Y-55799085D01*
X149745639Y-55751466D02*
X148983735Y-55751466D01*
X148555163Y-55227657D02*
X148507544Y-55180038D01*
X148507544Y-55180038D02*
X148412306Y-55132419D01*
X148412306Y-55132419D02*
X148174211Y-55132419D01*
X148174211Y-55132419D02*
X148078973Y-55180038D01*
X148078973Y-55180038D02*
X148031354Y-55227657D01*
X148031354Y-55227657D02*
X147983735Y-55322895D01*
X147983735Y-55322895D02*
X147983735Y-55418133D01*
X147983735Y-55418133D02*
X148031354Y-55560990D01*
X148031354Y-55560990D02*
X148602782Y-56132419D01*
X148602782Y-56132419D02*
X147983735Y-56132419D01*
X147364687Y-55132419D02*
X147269449Y-55132419D01*
X147269449Y-55132419D02*
X147174211Y-55180038D01*
X147174211Y-55180038D02*
X147126592Y-55227657D01*
X147126592Y-55227657D02*
X147078973Y-55322895D01*
X147078973Y-55322895D02*
X147031354Y-55513371D01*
X147031354Y-55513371D02*
X147031354Y-55751466D01*
X147031354Y-55751466D02*
X147078973Y-55941942D01*
X147078973Y-55941942D02*
X147126592Y-56037180D01*
X147126592Y-56037180D02*
X147174211Y-56084800D01*
X147174211Y-56084800D02*
X147269449Y-56132419D01*
X147269449Y-56132419D02*
X147364687Y-56132419D01*
X147364687Y-56132419D02*
X147459925Y-56084800D01*
X147459925Y-56084800D02*
X147507544Y-56037180D01*
X147507544Y-56037180D02*
X147555163Y-55941942D01*
X147555163Y-55941942D02*
X147602782Y-55751466D01*
X147602782Y-55751466D02*
X147602782Y-55513371D01*
X147602782Y-55513371D02*
X147555163Y-55322895D01*
X147555163Y-55322895D02*
X147507544Y-55227657D01*
X147507544Y-55227657D02*
X147459925Y-55180038D01*
X147459925Y-55180038D02*
X147364687Y-55132419D01*
X146650401Y-55227657D02*
X146602782Y-55180038D01*
X146602782Y-55180038D02*
X146507544Y-55132419D01*
X146507544Y-55132419D02*
X146269449Y-55132419D01*
X146269449Y-55132419D02*
X146174211Y-55180038D01*
X146174211Y-55180038D02*
X146126592Y-55227657D01*
X146126592Y-55227657D02*
X146078973Y-55322895D01*
X146078973Y-55322895D02*
X146078973Y-55418133D01*
X146078973Y-55418133D02*
X146126592Y-55560990D01*
X146126592Y-55560990D02*
X146698020Y-56132419D01*
X146698020Y-56132419D02*
X146078973Y-56132419D01*
X145221830Y-55132419D02*
X145412306Y-55132419D01*
X145412306Y-55132419D02*
X145507544Y-55180038D01*
X145507544Y-55180038D02*
X145555163Y-55227657D01*
X145555163Y-55227657D02*
X145650401Y-55370514D01*
X145650401Y-55370514D02*
X145698020Y-55560990D01*
X145698020Y-55560990D02*
X145698020Y-55941942D01*
X145698020Y-55941942D02*
X145650401Y-56037180D01*
X145650401Y-56037180D02*
X145602782Y-56084800D01*
X145602782Y-56084800D02*
X145507544Y-56132419D01*
X145507544Y-56132419D02*
X145317068Y-56132419D01*
X145317068Y-56132419D02*
X145221830Y-56084800D01*
X145221830Y-56084800D02*
X145174211Y-56037180D01*
X145174211Y-56037180D02*
X145126592Y-55941942D01*
X145126592Y-55941942D02*
X145126592Y-55703847D01*
X145126592Y-55703847D02*
X145174211Y-55608609D01*
X145174211Y-55608609D02*
X145221830Y-55560990D01*
X145221830Y-55560990D02*
X145317068Y-55513371D01*
X145317068Y-55513371D02*
X145507544Y-55513371D01*
X145507544Y-55513371D02*
X145602782Y-55560990D01*
X145602782Y-55560990D02*
X145650401Y-55608609D01*
X145650401Y-55608609D02*
X145698020Y-55703847D01*
X112754285Y-111978704D02*
X112792381Y-112016800D01*
X112792381Y-112016800D02*
X112906666Y-112054895D01*
X112906666Y-112054895D02*
X112982857Y-112054895D01*
X112982857Y-112054895D02*
X113097143Y-112016800D01*
X113097143Y-112016800D02*
X113173333Y-111940609D01*
X113173333Y-111940609D02*
X113211428Y-111864419D01*
X113211428Y-111864419D02*
X113249524Y-111712038D01*
X113249524Y-111712038D02*
X113249524Y-111597752D01*
X113249524Y-111597752D02*
X113211428Y-111445371D01*
X113211428Y-111445371D02*
X113173333Y-111369180D01*
X113173333Y-111369180D02*
X113097143Y-111292990D01*
X113097143Y-111292990D02*
X112982857Y-111254895D01*
X112982857Y-111254895D02*
X112906666Y-111254895D01*
X112906666Y-111254895D02*
X112792381Y-111292990D01*
X112792381Y-111292990D02*
X112754285Y-111331085D01*
X112068571Y-111521561D02*
X112068571Y-112054895D01*
X112259047Y-111216800D02*
X112449524Y-111788228D01*
X112449524Y-111788228D02*
X111954285Y-111788228D01*
X111230476Y-112054895D02*
X111687619Y-112054895D01*
X111459047Y-112054895D02*
X111459047Y-111254895D01*
X111459047Y-111254895D02*
X111535238Y-111369180D01*
X111535238Y-111369180D02*
X111611428Y-111445371D01*
X111611428Y-111445371D02*
X111687619Y-111483466D01*
X107273332Y-108474895D02*
X107539999Y-108093942D01*
X107730475Y-108474895D02*
X107730475Y-107674895D01*
X107730475Y-107674895D02*
X107425713Y-107674895D01*
X107425713Y-107674895D02*
X107349523Y-107712990D01*
X107349523Y-107712990D02*
X107311428Y-107751085D01*
X107311428Y-107751085D02*
X107273332Y-107827276D01*
X107273332Y-107827276D02*
X107273332Y-107941561D01*
X107273332Y-107941561D02*
X107311428Y-108017752D01*
X107311428Y-108017752D02*
X107349523Y-108055847D01*
X107349523Y-108055847D02*
X107425713Y-108093942D01*
X107425713Y-108093942D02*
X107730475Y-108093942D01*
X106816190Y-108017752D02*
X106892380Y-107979657D01*
X106892380Y-107979657D02*
X106930475Y-107941561D01*
X106930475Y-107941561D02*
X106968571Y-107865371D01*
X106968571Y-107865371D02*
X106968571Y-107827276D01*
X106968571Y-107827276D02*
X106930475Y-107751085D01*
X106930475Y-107751085D02*
X106892380Y-107712990D01*
X106892380Y-107712990D02*
X106816190Y-107674895D01*
X106816190Y-107674895D02*
X106663809Y-107674895D01*
X106663809Y-107674895D02*
X106587618Y-107712990D01*
X106587618Y-107712990D02*
X106549523Y-107751085D01*
X106549523Y-107751085D02*
X106511428Y-107827276D01*
X106511428Y-107827276D02*
X106511428Y-107865371D01*
X106511428Y-107865371D02*
X106549523Y-107941561D01*
X106549523Y-107941561D02*
X106587618Y-107979657D01*
X106587618Y-107979657D02*
X106663809Y-108017752D01*
X106663809Y-108017752D02*
X106816190Y-108017752D01*
X106816190Y-108017752D02*
X106892380Y-108055847D01*
X106892380Y-108055847D02*
X106930475Y-108093942D01*
X106930475Y-108093942D02*
X106968571Y-108170133D01*
X106968571Y-108170133D02*
X106968571Y-108322514D01*
X106968571Y-108322514D02*
X106930475Y-108398704D01*
X106930475Y-108398704D02*
X106892380Y-108436800D01*
X106892380Y-108436800D02*
X106816190Y-108474895D01*
X106816190Y-108474895D02*
X106663809Y-108474895D01*
X106663809Y-108474895D02*
X106587618Y-108436800D01*
X106587618Y-108436800D02*
X106549523Y-108398704D01*
X106549523Y-108398704D02*
X106511428Y-108322514D01*
X106511428Y-108322514D02*
X106511428Y-108170133D01*
X106511428Y-108170133D02*
X106549523Y-108093942D01*
X106549523Y-108093942D02*
X106587618Y-108055847D01*
X106587618Y-108055847D02*
X106663809Y-108017752D01*
X154173332Y-131524895D02*
X154439999Y-131143942D01*
X154630475Y-131524895D02*
X154630475Y-130724895D01*
X154630475Y-130724895D02*
X154325713Y-130724895D01*
X154325713Y-130724895D02*
X154249523Y-130762990D01*
X154249523Y-130762990D02*
X154211428Y-130801085D01*
X154211428Y-130801085D02*
X154173332Y-130877276D01*
X154173332Y-130877276D02*
X154173332Y-130991561D01*
X154173332Y-130991561D02*
X154211428Y-131067752D01*
X154211428Y-131067752D02*
X154249523Y-131105847D01*
X154249523Y-131105847D02*
X154325713Y-131143942D01*
X154325713Y-131143942D02*
X154630475Y-131143942D01*
X153487618Y-130724895D02*
X153639999Y-130724895D01*
X153639999Y-130724895D02*
X153716190Y-130762990D01*
X153716190Y-130762990D02*
X153754285Y-130801085D01*
X153754285Y-130801085D02*
X153830475Y-130915371D01*
X153830475Y-130915371D02*
X153868571Y-131067752D01*
X153868571Y-131067752D02*
X153868571Y-131372514D01*
X153868571Y-131372514D02*
X153830475Y-131448704D01*
X153830475Y-131448704D02*
X153792380Y-131486800D01*
X153792380Y-131486800D02*
X153716190Y-131524895D01*
X153716190Y-131524895D02*
X153563809Y-131524895D01*
X153563809Y-131524895D02*
X153487618Y-131486800D01*
X153487618Y-131486800D02*
X153449523Y-131448704D01*
X153449523Y-131448704D02*
X153411428Y-131372514D01*
X153411428Y-131372514D02*
X153411428Y-131182038D01*
X153411428Y-131182038D02*
X153449523Y-131105847D01*
X153449523Y-131105847D02*
X153487618Y-131067752D01*
X153487618Y-131067752D02*
X153563809Y-131029657D01*
X153563809Y-131029657D02*
X153716190Y-131029657D01*
X153716190Y-131029657D02*
X153792380Y-131067752D01*
X153792380Y-131067752D02*
X153830475Y-131105847D01*
X153830475Y-131105847D02*
X153868571Y-131182038D01*
X132382379Y-62746562D02*
X132649046Y-62365609D01*
X132839522Y-62746562D02*
X132839522Y-61946562D01*
X132839522Y-61946562D02*
X132534760Y-61946562D01*
X132534760Y-61946562D02*
X132458570Y-61984657D01*
X132458570Y-61984657D02*
X132420475Y-62022752D01*
X132420475Y-62022752D02*
X132382379Y-62098943D01*
X132382379Y-62098943D02*
X132382379Y-62213228D01*
X132382379Y-62213228D02*
X132420475Y-62289419D01*
X132420475Y-62289419D02*
X132458570Y-62327514D01*
X132458570Y-62327514D02*
X132534760Y-62365609D01*
X132534760Y-62365609D02*
X132839522Y-62365609D01*
X131696665Y-62213228D02*
X131696665Y-62746562D01*
X131887141Y-61908467D02*
X132077618Y-62479895D01*
X132077618Y-62479895D02*
X131582379Y-62479895D01*
X107273332Y-111474895D02*
X107539999Y-111093942D01*
X107730475Y-111474895D02*
X107730475Y-110674895D01*
X107730475Y-110674895D02*
X107425713Y-110674895D01*
X107425713Y-110674895D02*
X107349523Y-110712990D01*
X107349523Y-110712990D02*
X107311428Y-110751085D01*
X107311428Y-110751085D02*
X107273332Y-110827276D01*
X107273332Y-110827276D02*
X107273332Y-110941561D01*
X107273332Y-110941561D02*
X107311428Y-111017752D01*
X107311428Y-111017752D02*
X107349523Y-111055847D01*
X107349523Y-111055847D02*
X107425713Y-111093942D01*
X107425713Y-111093942D02*
X107730475Y-111093942D01*
X106892380Y-111474895D02*
X106739999Y-111474895D01*
X106739999Y-111474895D02*
X106663809Y-111436800D01*
X106663809Y-111436800D02*
X106625713Y-111398704D01*
X106625713Y-111398704D02*
X106549523Y-111284419D01*
X106549523Y-111284419D02*
X106511428Y-111132038D01*
X106511428Y-111132038D02*
X106511428Y-110827276D01*
X106511428Y-110827276D02*
X106549523Y-110751085D01*
X106549523Y-110751085D02*
X106587618Y-110712990D01*
X106587618Y-110712990D02*
X106663809Y-110674895D01*
X106663809Y-110674895D02*
X106816190Y-110674895D01*
X106816190Y-110674895D02*
X106892380Y-110712990D01*
X106892380Y-110712990D02*
X106930475Y-110751085D01*
X106930475Y-110751085D02*
X106968571Y-110827276D01*
X106968571Y-110827276D02*
X106968571Y-111017752D01*
X106968571Y-111017752D02*
X106930475Y-111093942D01*
X106930475Y-111093942D02*
X106892380Y-111132038D01*
X106892380Y-111132038D02*
X106816190Y-111170133D01*
X106816190Y-111170133D02*
X106663809Y-111170133D01*
X106663809Y-111170133D02*
X106587618Y-111132038D01*
X106587618Y-111132038D02*
X106549523Y-111093942D01*
X106549523Y-111093942D02*
X106511428Y-111017752D01*
D11*
X117737418Y-84422949D02*
X117737418Y-84262768D01*
X117989131Y-84262768D02*
X117508588Y-84262768D01*
X117508588Y-84262768D02*
X117508588Y-84491598D01*
X117989131Y-84903492D02*
X117989131Y-84674662D01*
X117989131Y-84674662D02*
X117508588Y-84674662D01*
X117989131Y-85315386D02*
X117989131Y-85040790D01*
X117989131Y-85178088D02*
X117508588Y-85178088D01*
X117508588Y-85178088D02*
X117577237Y-85132322D01*
X117577237Y-85132322D02*
X117623003Y-85086556D01*
X117623003Y-85086556D02*
X117645886Y-85040790D01*
D10*
X144274285Y-79478704D02*
X144312381Y-79516800D01*
X144312381Y-79516800D02*
X144426666Y-79554895D01*
X144426666Y-79554895D02*
X144502857Y-79554895D01*
X144502857Y-79554895D02*
X144617143Y-79516800D01*
X144617143Y-79516800D02*
X144693333Y-79440609D01*
X144693333Y-79440609D02*
X144731428Y-79364419D01*
X144731428Y-79364419D02*
X144769524Y-79212038D01*
X144769524Y-79212038D02*
X144769524Y-79097752D01*
X144769524Y-79097752D02*
X144731428Y-78945371D01*
X144731428Y-78945371D02*
X144693333Y-78869180D01*
X144693333Y-78869180D02*
X144617143Y-78792990D01*
X144617143Y-78792990D02*
X144502857Y-78754895D01*
X144502857Y-78754895D02*
X144426666Y-78754895D01*
X144426666Y-78754895D02*
X144312381Y-78792990D01*
X144312381Y-78792990D02*
X144274285Y-78831085D01*
X144007619Y-78754895D02*
X143512381Y-78754895D01*
X143512381Y-78754895D02*
X143779047Y-79059657D01*
X143779047Y-79059657D02*
X143664762Y-79059657D01*
X143664762Y-79059657D02*
X143588571Y-79097752D01*
X143588571Y-79097752D02*
X143550476Y-79135847D01*
X143550476Y-79135847D02*
X143512381Y-79212038D01*
X143512381Y-79212038D02*
X143512381Y-79402514D01*
X143512381Y-79402514D02*
X143550476Y-79478704D01*
X143550476Y-79478704D02*
X143588571Y-79516800D01*
X143588571Y-79516800D02*
X143664762Y-79554895D01*
X143664762Y-79554895D02*
X143893333Y-79554895D01*
X143893333Y-79554895D02*
X143969524Y-79516800D01*
X143969524Y-79516800D02*
X144007619Y-79478704D01*
X143055238Y-79097752D02*
X143131428Y-79059657D01*
X143131428Y-79059657D02*
X143169523Y-79021561D01*
X143169523Y-79021561D02*
X143207619Y-78945371D01*
X143207619Y-78945371D02*
X143207619Y-78907276D01*
X143207619Y-78907276D02*
X143169523Y-78831085D01*
X143169523Y-78831085D02*
X143131428Y-78792990D01*
X143131428Y-78792990D02*
X143055238Y-78754895D01*
X143055238Y-78754895D02*
X142902857Y-78754895D01*
X142902857Y-78754895D02*
X142826666Y-78792990D01*
X142826666Y-78792990D02*
X142788571Y-78831085D01*
X142788571Y-78831085D02*
X142750476Y-78907276D01*
X142750476Y-78907276D02*
X142750476Y-78945371D01*
X142750476Y-78945371D02*
X142788571Y-79021561D01*
X142788571Y-79021561D02*
X142826666Y-79059657D01*
X142826666Y-79059657D02*
X142902857Y-79097752D01*
X142902857Y-79097752D02*
X143055238Y-79097752D01*
X143055238Y-79097752D02*
X143131428Y-79135847D01*
X143131428Y-79135847D02*
X143169523Y-79173942D01*
X143169523Y-79173942D02*
X143207619Y-79250133D01*
X143207619Y-79250133D02*
X143207619Y-79402514D01*
X143207619Y-79402514D02*
X143169523Y-79478704D01*
X143169523Y-79478704D02*
X143131428Y-79516800D01*
X143131428Y-79516800D02*
X143055238Y-79554895D01*
X143055238Y-79554895D02*
X142902857Y-79554895D01*
X142902857Y-79554895D02*
X142826666Y-79516800D01*
X142826666Y-79516800D02*
X142788571Y-79478704D01*
X142788571Y-79478704D02*
X142750476Y-79402514D01*
X142750476Y-79402514D02*
X142750476Y-79250133D01*
X142750476Y-79250133D02*
X142788571Y-79173942D01*
X142788571Y-79173942D02*
X142826666Y-79135847D01*
X142826666Y-79135847D02*
X142902857Y-79097752D01*
X112854285Y-113588704D02*
X112892381Y-113626800D01*
X112892381Y-113626800D02*
X113006666Y-113664895D01*
X113006666Y-113664895D02*
X113082857Y-113664895D01*
X113082857Y-113664895D02*
X113197143Y-113626800D01*
X113197143Y-113626800D02*
X113273333Y-113550609D01*
X113273333Y-113550609D02*
X113311428Y-113474419D01*
X113311428Y-113474419D02*
X113349524Y-113322038D01*
X113349524Y-113322038D02*
X113349524Y-113207752D01*
X113349524Y-113207752D02*
X113311428Y-113055371D01*
X113311428Y-113055371D02*
X113273333Y-112979180D01*
X113273333Y-112979180D02*
X113197143Y-112902990D01*
X113197143Y-112902990D02*
X113082857Y-112864895D01*
X113082857Y-112864895D02*
X113006666Y-112864895D01*
X113006666Y-112864895D02*
X112892381Y-112902990D01*
X112892381Y-112902990D02*
X112854285Y-112941085D01*
X112168571Y-113131561D02*
X112168571Y-113664895D01*
X112359047Y-112826800D02*
X112549524Y-113398228D01*
X112549524Y-113398228D02*
X112054285Y-113398228D01*
X111787619Y-112941085D02*
X111749523Y-112902990D01*
X111749523Y-112902990D02*
X111673333Y-112864895D01*
X111673333Y-112864895D02*
X111482857Y-112864895D01*
X111482857Y-112864895D02*
X111406666Y-112902990D01*
X111406666Y-112902990D02*
X111368571Y-112941085D01*
X111368571Y-112941085D02*
X111330476Y-113017276D01*
X111330476Y-113017276D02*
X111330476Y-113093466D01*
X111330476Y-113093466D02*
X111368571Y-113207752D01*
X111368571Y-113207752D02*
X111825714Y-113664895D01*
X111825714Y-113664895D02*
X111330476Y-113664895D01*
X133144285Y-71753228D02*
X133410952Y-71372275D01*
X133601428Y-71753228D02*
X133601428Y-70953228D01*
X133601428Y-70953228D02*
X133296666Y-70953228D01*
X133296666Y-70953228D02*
X133220476Y-70991323D01*
X133220476Y-70991323D02*
X133182381Y-71029418D01*
X133182381Y-71029418D02*
X133144285Y-71105609D01*
X133144285Y-71105609D02*
X133144285Y-71219894D01*
X133144285Y-71219894D02*
X133182381Y-71296085D01*
X133182381Y-71296085D02*
X133220476Y-71334180D01*
X133220476Y-71334180D02*
X133296666Y-71372275D01*
X133296666Y-71372275D02*
X133601428Y-71372275D01*
X132382381Y-71753228D02*
X132839524Y-71753228D01*
X132610952Y-71753228D02*
X132610952Y-70953228D01*
X132610952Y-70953228D02*
X132687143Y-71067513D01*
X132687143Y-71067513D02*
X132763333Y-71143704D01*
X132763333Y-71143704D02*
X132839524Y-71181799D01*
X132077619Y-71029418D02*
X132039523Y-70991323D01*
X132039523Y-70991323D02*
X131963333Y-70953228D01*
X131963333Y-70953228D02*
X131772857Y-70953228D01*
X131772857Y-70953228D02*
X131696666Y-70991323D01*
X131696666Y-70991323D02*
X131658571Y-71029418D01*
X131658571Y-71029418D02*
X131620476Y-71105609D01*
X131620476Y-71105609D02*
X131620476Y-71181799D01*
X131620476Y-71181799D02*
X131658571Y-71296085D01*
X131658571Y-71296085D02*
X132115714Y-71753228D01*
X132115714Y-71753228D02*
X131620476Y-71753228D01*
X111945847Y-107893333D02*
X111945847Y-107626667D01*
X112364895Y-107626667D02*
X111564895Y-107626667D01*
X111564895Y-107626667D02*
X111564895Y-108007619D01*
X111945847Y-108579047D02*
X111983942Y-108693333D01*
X111983942Y-108693333D02*
X112022038Y-108731428D01*
X112022038Y-108731428D02*
X112098228Y-108769524D01*
X112098228Y-108769524D02*
X112212514Y-108769524D01*
X112212514Y-108769524D02*
X112288704Y-108731428D01*
X112288704Y-108731428D02*
X112326800Y-108693333D01*
X112326800Y-108693333D02*
X112364895Y-108617143D01*
X112364895Y-108617143D02*
X112364895Y-108312381D01*
X112364895Y-108312381D02*
X111564895Y-108312381D01*
X111564895Y-108312381D02*
X111564895Y-108579047D01*
X111564895Y-108579047D02*
X111602990Y-108655238D01*
X111602990Y-108655238D02*
X111641085Y-108693333D01*
X111641085Y-108693333D02*
X111717276Y-108731428D01*
X111717276Y-108731428D02*
X111793466Y-108731428D01*
X111793466Y-108731428D02*
X111869657Y-108693333D01*
X111869657Y-108693333D02*
X111907752Y-108655238D01*
X111907752Y-108655238D02*
X111945847Y-108579047D01*
X111945847Y-108579047D02*
X111945847Y-108312381D01*
X111641085Y-109074285D02*
X111602990Y-109112381D01*
X111602990Y-109112381D02*
X111564895Y-109188571D01*
X111564895Y-109188571D02*
X111564895Y-109379047D01*
X111564895Y-109379047D02*
X111602990Y-109455238D01*
X111602990Y-109455238D02*
X111641085Y-109493333D01*
X111641085Y-109493333D02*
X111717276Y-109531428D01*
X111717276Y-109531428D02*
X111793466Y-109531428D01*
X111793466Y-109531428D02*
X111907752Y-109493333D01*
X111907752Y-109493333D02*
X112364895Y-109036190D01*
X112364895Y-109036190D02*
X112364895Y-109531428D01*
X127894285Y-86148704D02*
X127932381Y-86186800D01*
X127932381Y-86186800D02*
X128046666Y-86224895D01*
X128046666Y-86224895D02*
X128122857Y-86224895D01*
X128122857Y-86224895D02*
X128237143Y-86186800D01*
X128237143Y-86186800D02*
X128313333Y-86110609D01*
X128313333Y-86110609D02*
X128351428Y-86034419D01*
X128351428Y-86034419D02*
X128389524Y-85882038D01*
X128389524Y-85882038D02*
X128389524Y-85767752D01*
X128389524Y-85767752D02*
X128351428Y-85615371D01*
X128351428Y-85615371D02*
X128313333Y-85539180D01*
X128313333Y-85539180D02*
X128237143Y-85462990D01*
X128237143Y-85462990D02*
X128122857Y-85424895D01*
X128122857Y-85424895D02*
X128046666Y-85424895D01*
X128046666Y-85424895D02*
X127932381Y-85462990D01*
X127932381Y-85462990D02*
X127894285Y-85501085D01*
X127627619Y-85424895D02*
X127132381Y-85424895D01*
X127132381Y-85424895D02*
X127399047Y-85729657D01*
X127399047Y-85729657D02*
X127284762Y-85729657D01*
X127284762Y-85729657D02*
X127208571Y-85767752D01*
X127208571Y-85767752D02*
X127170476Y-85805847D01*
X127170476Y-85805847D02*
X127132381Y-85882038D01*
X127132381Y-85882038D02*
X127132381Y-86072514D01*
X127132381Y-86072514D02*
X127170476Y-86148704D01*
X127170476Y-86148704D02*
X127208571Y-86186800D01*
X127208571Y-86186800D02*
X127284762Y-86224895D01*
X127284762Y-86224895D02*
X127513333Y-86224895D01*
X127513333Y-86224895D02*
X127589524Y-86186800D01*
X127589524Y-86186800D02*
X127627619Y-86148704D01*
X126637142Y-85424895D02*
X126560952Y-85424895D01*
X126560952Y-85424895D02*
X126484761Y-85462990D01*
X126484761Y-85462990D02*
X126446666Y-85501085D01*
X126446666Y-85501085D02*
X126408571Y-85577276D01*
X126408571Y-85577276D02*
X126370476Y-85729657D01*
X126370476Y-85729657D02*
X126370476Y-85920133D01*
X126370476Y-85920133D02*
X126408571Y-86072514D01*
X126408571Y-86072514D02*
X126446666Y-86148704D01*
X126446666Y-86148704D02*
X126484761Y-86186800D01*
X126484761Y-86186800D02*
X126560952Y-86224895D01*
X126560952Y-86224895D02*
X126637142Y-86224895D01*
X126637142Y-86224895D02*
X126713333Y-86186800D01*
X126713333Y-86186800D02*
X126751428Y-86148704D01*
X126751428Y-86148704D02*
X126789523Y-86072514D01*
X126789523Y-86072514D02*
X126827619Y-85920133D01*
X126827619Y-85920133D02*
X126827619Y-85729657D01*
X126827619Y-85729657D02*
X126789523Y-85577276D01*
X126789523Y-85577276D02*
X126751428Y-85501085D01*
X126751428Y-85501085D02*
X126713333Y-85462990D01*
X126713333Y-85462990D02*
X126637142Y-85424895D01*
D12*
X130597857Y-82919580D02*
X130645476Y-82967200D01*
X130645476Y-82967200D02*
X130788333Y-83014819D01*
X130788333Y-83014819D02*
X130883571Y-83014819D01*
X130883571Y-83014819D02*
X131026428Y-82967200D01*
X131026428Y-82967200D02*
X131121666Y-82871961D01*
X131121666Y-82871961D02*
X131169285Y-82776723D01*
X131169285Y-82776723D02*
X131216904Y-82586247D01*
X131216904Y-82586247D02*
X131216904Y-82443390D01*
X131216904Y-82443390D02*
X131169285Y-82252914D01*
X131169285Y-82252914D02*
X131121666Y-82157676D01*
X131121666Y-82157676D02*
X131026428Y-82062438D01*
X131026428Y-82062438D02*
X130883571Y-82014819D01*
X130883571Y-82014819D02*
X130788333Y-82014819D01*
X130788333Y-82014819D02*
X130645476Y-82062438D01*
X130645476Y-82062438D02*
X130597857Y-82110057D01*
X129740714Y-82348152D02*
X129740714Y-83014819D01*
X129978809Y-81967200D02*
X130216904Y-82681485D01*
X130216904Y-82681485D02*
X129597857Y-82681485D01*
X128788333Y-82348152D02*
X128788333Y-83014819D01*
X129026428Y-81967200D02*
X129264523Y-82681485D01*
X129264523Y-82681485D02*
X128645476Y-82681485D01*
D10*
X112854285Y-115178704D02*
X112892381Y-115216800D01*
X112892381Y-115216800D02*
X113006666Y-115254895D01*
X113006666Y-115254895D02*
X113082857Y-115254895D01*
X113082857Y-115254895D02*
X113197143Y-115216800D01*
X113197143Y-115216800D02*
X113273333Y-115140609D01*
X113273333Y-115140609D02*
X113311428Y-115064419D01*
X113311428Y-115064419D02*
X113349524Y-114912038D01*
X113349524Y-114912038D02*
X113349524Y-114797752D01*
X113349524Y-114797752D02*
X113311428Y-114645371D01*
X113311428Y-114645371D02*
X113273333Y-114569180D01*
X113273333Y-114569180D02*
X113197143Y-114492990D01*
X113197143Y-114492990D02*
X113082857Y-114454895D01*
X113082857Y-114454895D02*
X113006666Y-114454895D01*
X113006666Y-114454895D02*
X112892381Y-114492990D01*
X112892381Y-114492990D02*
X112854285Y-114531085D01*
X112168571Y-114721561D02*
X112168571Y-115254895D01*
X112359047Y-114416800D02*
X112549524Y-114988228D01*
X112549524Y-114988228D02*
X112054285Y-114988228D01*
X111825714Y-114454895D02*
X111330476Y-114454895D01*
X111330476Y-114454895D02*
X111597142Y-114759657D01*
X111597142Y-114759657D02*
X111482857Y-114759657D01*
X111482857Y-114759657D02*
X111406666Y-114797752D01*
X111406666Y-114797752D02*
X111368571Y-114835847D01*
X111368571Y-114835847D02*
X111330476Y-114912038D01*
X111330476Y-114912038D02*
X111330476Y-115102514D01*
X111330476Y-115102514D02*
X111368571Y-115178704D01*
X111368571Y-115178704D02*
X111406666Y-115216800D01*
X111406666Y-115216800D02*
X111482857Y-115254895D01*
X111482857Y-115254895D02*
X111711428Y-115254895D01*
X111711428Y-115254895D02*
X111787619Y-115216800D01*
X111787619Y-115216800D02*
X111825714Y-115178704D01*
X133144285Y-74004895D02*
X133410952Y-73623942D01*
X133601428Y-74004895D02*
X133601428Y-73204895D01*
X133601428Y-73204895D02*
X133296666Y-73204895D01*
X133296666Y-73204895D02*
X133220476Y-73242990D01*
X133220476Y-73242990D02*
X133182381Y-73281085D01*
X133182381Y-73281085D02*
X133144285Y-73357276D01*
X133144285Y-73357276D02*
X133144285Y-73471561D01*
X133144285Y-73471561D02*
X133182381Y-73547752D01*
X133182381Y-73547752D02*
X133220476Y-73585847D01*
X133220476Y-73585847D02*
X133296666Y-73623942D01*
X133296666Y-73623942D02*
X133601428Y-73623942D01*
X132382381Y-74004895D02*
X132839524Y-74004895D01*
X132610952Y-74004895D02*
X132610952Y-73204895D01*
X132610952Y-73204895D02*
X132687143Y-73319180D01*
X132687143Y-73319180D02*
X132763333Y-73395371D01*
X132763333Y-73395371D02*
X132839524Y-73433466D01*
X132115714Y-73204895D02*
X131620476Y-73204895D01*
X131620476Y-73204895D02*
X131887142Y-73509657D01*
X131887142Y-73509657D02*
X131772857Y-73509657D01*
X131772857Y-73509657D02*
X131696666Y-73547752D01*
X131696666Y-73547752D02*
X131658571Y-73585847D01*
X131658571Y-73585847D02*
X131620476Y-73662038D01*
X131620476Y-73662038D02*
X131620476Y-73852514D01*
X131620476Y-73852514D02*
X131658571Y-73928704D01*
X131658571Y-73928704D02*
X131696666Y-73966800D01*
X131696666Y-73966800D02*
X131772857Y-74004895D01*
X131772857Y-74004895D02*
X132001428Y-74004895D01*
X132001428Y-74004895D02*
X132077619Y-73966800D01*
X132077619Y-73966800D02*
X132115714Y-73928704D01*
X132382379Y-64998228D02*
X132649046Y-64617275D01*
X132839522Y-64998228D02*
X132839522Y-64198228D01*
X132839522Y-64198228D02*
X132534760Y-64198228D01*
X132534760Y-64198228D02*
X132458570Y-64236323D01*
X132458570Y-64236323D02*
X132420475Y-64274418D01*
X132420475Y-64274418D02*
X132382379Y-64350609D01*
X132382379Y-64350609D02*
X132382379Y-64464894D01*
X132382379Y-64464894D02*
X132420475Y-64541085D01*
X132420475Y-64541085D02*
X132458570Y-64579180D01*
X132458570Y-64579180D02*
X132534760Y-64617275D01*
X132534760Y-64617275D02*
X132839522Y-64617275D01*
X131658570Y-64198228D02*
X132039522Y-64198228D01*
X132039522Y-64198228D02*
X132077618Y-64579180D01*
X132077618Y-64579180D02*
X132039522Y-64541085D01*
X132039522Y-64541085D02*
X131963332Y-64502990D01*
X131963332Y-64502990D02*
X131772856Y-64502990D01*
X131772856Y-64502990D02*
X131696665Y-64541085D01*
X131696665Y-64541085D02*
X131658570Y-64579180D01*
X131658570Y-64579180D02*
X131620475Y-64655371D01*
X131620475Y-64655371D02*
X131620475Y-64845847D01*
X131620475Y-64845847D02*
X131658570Y-64922037D01*
X131658570Y-64922037D02*
X131696665Y-64960133D01*
X131696665Y-64960133D02*
X131772856Y-64998228D01*
X131772856Y-64998228D02*
X131963332Y-64998228D01*
X131963332Y-64998228D02*
X132039522Y-64960133D01*
X132039522Y-64960133D02*
X132077618Y-64922037D01*
X125304285Y-62133704D02*
X125342381Y-62171800D01*
X125342381Y-62171800D02*
X125456666Y-62209895D01*
X125456666Y-62209895D02*
X125532857Y-62209895D01*
X125532857Y-62209895D02*
X125647143Y-62171800D01*
X125647143Y-62171800D02*
X125723333Y-62095609D01*
X125723333Y-62095609D02*
X125761428Y-62019419D01*
X125761428Y-62019419D02*
X125799524Y-61867038D01*
X125799524Y-61867038D02*
X125799524Y-61752752D01*
X125799524Y-61752752D02*
X125761428Y-61600371D01*
X125761428Y-61600371D02*
X125723333Y-61524180D01*
X125723333Y-61524180D02*
X125647143Y-61447990D01*
X125647143Y-61447990D02*
X125532857Y-61409895D01*
X125532857Y-61409895D02*
X125456666Y-61409895D01*
X125456666Y-61409895D02*
X125342381Y-61447990D01*
X125342381Y-61447990D02*
X125304285Y-61486085D01*
X124542381Y-62209895D02*
X124999524Y-62209895D01*
X124770952Y-62209895D02*
X124770952Y-61409895D01*
X124770952Y-61409895D02*
X124847143Y-61524180D01*
X124847143Y-61524180D02*
X124923333Y-61600371D01*
X124923333Y-61600371D02*
X124999524Y-61638466D01*
X124275714Y-61409895D02*
X123742380Y-61409895D01*
X123742380Y-61409895D02*
X124085238Y-62209895D01*
X139509523Y-81054895D02*
X139509523Y-81702514D01*
X139509523Y-81702514D02*
X139471428Y-81778704D01*
X139471428Y-81778704D02*
X139433333Y-81816800D01*
X139433333Y-81816800D02*
X139357142Y-81854895D01*
X139357142Y-81854895D02*
X139204761Y-81854895D01*
X139204761Y-81854895D02*
X139128571Y-81816800D01*
X139128571Y-81816800D02*
X139090476Y-81778704D01*
X139090476Y-81778704D02*
X139052380Y-81702514D01*
X139052380Y-81702514D02*
X139052380Y-81054895D01*
X138252381Y-81854895D02*
X138709524Y-81854895D01*
X138480952Y-81854895D02*
X138480952Y-81054895D01*
X138480952Y-81054895D02*
X138557143Y-81169180D01*
X138557143Y-81169180D02*
X138633333Y-81245371D01*
X138633333Y-81245371D02*
X138709524Y-81283466D01*
X125304285Y-60318704D02*
X125342381Y-60356800D01*
X125342381Y-60356800D02*
X125456666Y-60394895D01*
X125456666Y-60394895D02*
X125532857Y-60394895D01*
X125532857Y-60394895D02*
X125647143Y-60356800D01*
X125647143Y-60356800D02*
X125723333Y-60280609D01*
X125723333Y-60280609D02*
X125761428Y-60204419D01*
X125761428Y-60204419D02*
X125799524Y-60052038D01*
X125799524Y-60052038D02*
X125799524Y-59937752D01*
X125799524Y-59937752D02*
X125761428Y-59785371D01*
X125761428Y-59785371D02*
X125723333Y-59709180D01*
X125723333Y-59709180D02*
X125647143Y-59632990D01*
X125647143Y-59632990D02*
X125532857Y-59594895D01*
X125532857Y-59594895D02*
X125456666Y-59594895D01*
X125456666Y-59594895D02*
X125342381Y-59632990D01*
X125342381Y-59632990D02*
X125304285Y-59671085D01*
X125037619Y-59594895D02*
X124542381Y-59594895D01*
X124542381Y-59594895D02*
X124809047Y-59899657D01*
X124809047Y-59899657D02*
X124694762Y-59899657D01*
X124694762Y-59899657D02*
X124618571Y-59937752D01*
X124618571Y-59937752D02*
X124580476Y-59975847D01*
X124580476Y-59975847D02*
X124542381Y-60052038D01*
X124542381Y-60052038D02*
X124542381Y-60242514D01*
X124542381Y-60242514D02*
X124580476Y-60318704D01*
X124580476Y-60318704D02*
X124618571Y-60356800D01*
X124618571Y-60356800D02*
X124694762Y-60394895D01*
X124694762Y-60394895D02*
X124923333Y-60394895D01*
X124923333Y-60394895D02*
X124999524Y-60356800D01*
X124999524Y-60356800D02*
X125037619Y-60318704D01*
X124161428Y-60394895D02*
X124009047Y-60394895D01*
X124009047Y-60394895D02*
X123932857Y-60356800D01*
X123932857Y-60356800D02*
X123894761Y-60318704D01*
X123894761Y-60318704D02*
X123818571Y-60204419D01*
X123818571Y-60204419D02*
X123780476Y-60052038D01*
X123780476Y-60052038D02*
X123780476Y-59747276D01*
X123780476Y-59747276D02*
X123818571Y-59671085D01*
X123818571Y-59671085D02*
X123856666Y-59632990D01*
X123856666Y-59632990D02*
X123932857Y-59594895D01*
X123932857Y-59594895D02*
X124085238Y-59594895D01*
X124085238Y-59594895D02*
X124161428Y-59632990D01*
X124161428Y-59632990D02*
X124199523Y-59671085D01*
X124199523Y-59671085D02*
X124237619Y-59747276D01*
X124237619Y-59747276D02*
X124237619Y-59937752D01*
X124237619Y-59937752D02*
X124199523Y-60013942D01*
X124199523Y-60013942D02*
X124161428Y-60052038D01*
X124161428Y-60052038D02*
X124085238Y-60090133D01*
X124085238Y-60090133D02*
X123932857Y-60090133D01*
X123932857Y-60090133D02*
X123856666Y-60052038D01*
X123856666Y-60052038D02*
X123818571Y-60013942D01*
X123818571Y-60013942D02*
X123780476Y-59937752D01*
X133144285Y-60494895D02*
X133410952Y-60113942D01*
X133601428Y-60494895D02*
X133601428Y-59694895D01*
X133601428Y-59694895D02*
X133296666Y-59694895D01*
X133296666Y-59694895D02*
X133220476Y-59732990D01*
X133220476Y-59732990D02*
X133182381Y-59771085D01*
X133182381Y-59771085D02*
X133144285Y-59847276D01*
X133144285Y-59847276D02*
X133144285Y-59961561D01*
X133144285Y-59961561D02*
X133182381Y-60037752D01*
X133182381Y-60037752D02*
X133220476Y-60075847D01*
X133220476Y-60075847D02*
X133296666Y-60113942D01*
X133296666Y-60113942D02*
X133601428Y-60113942D01*
X132382381Y-60494895D02*
X132839524Y-60494895D01*
X132610952Y-60494895D02*
X132610952Y-59694895D01*
X132610952Y-59694895D02*
X132687143Y-59809180D01*
X132687143Y-59809180D02*
X132763333Y-59885371D01*
X132763333Y-59885371D02*
X132839524Y-59923466D01*
X131696666Y-59961561D02*
X131696666Y-60494895D01*
X131887142Y-59656800D02*
X132077619Y-60228228D01*
X132077619Y-60228228D02*
X131582380Y-60228228D01*
X148448704Y-105965714D02*
X148486800Y-105927618D01*
X148486800Y-105927618D02*
X148524895Y-105813333D01*
X148524895Y-105813333D02*
X148524895Y-105737142D01*
X148524895Y-105737142D02*
X148486800Y-105622856D01*
X148486800Y-105622856D02*
X148410609Y-105546666D01*
X148410609Y-105546666D02*
X148334419Y-105508571D01*
X148334419Y-105508571D02*
X148182038Y-105470475D01*
X148182038Y-105470475D02*
X148067752Y-105470475D01*
X148067752Y-105470475D02*
X147915371Y-105508571D01*
X147915371Y-105508571D02*
X147839180Y-105546666D01*
X147839180Y-105546666D02*
X147762990Y-105622856D01*
X147762990Y-105622856D02*
X147724895Y-105737142D01*
X147724895Y-105737142D02*
X147724895Y-105813333D01*
X147724895Y-105813333D02*
X147762990Y-105927618D01*
X147762990Y-105927618D02*
X147801085Y-105965714D01*
X147724895Y-106232380D02*
X147724895Y-106727618D01*
X147724895Y-106727618D02*
X148029657Y-106460952D01*
X148029657Y-106460952D02*
X148029657Y-106575237D01*
X148029657Y-106575237D02*
X148067752Y-106651428D01*
X148067752Y-106651428D02*
X148105847Y-106689523D01*
X148105847Y-106689523D02*
X148182038Y-106727618D01*
X148182038Y-106727618D02*
X148372514Y-106727618D01*
X148372514Y-106727618D02*
X148448704Y-106689523D01*
X148448704Y-106689523D02*
X148486800Y-106651428D01*
X148486800Y-106651428D02*
X148524895Y-106575237D01*
X148524895Y-106575237D02*
X148524895Y-106346666D01*
X148524895Y-106346666D02*
X148486800Y-106270475D01*
X148486800Y-106270475D02*
X148448704Y-106232380D01*
X147724895Y-106994285D02*
X147724895Y-107489523D01*
X147724895Y-107489523D02*
X148029657Y-107222857D01*
X148029657Y-107222857D02*
X148029657Y-107337142D01*
X148029657Y-107337142D02*
X148067752Y-107413333D01*
X148067752Y-107413333D02*
X148105847Y-107451428D01*
X148105847Y-107451428D02*
X148182038Y-107489523D01*
X148182038Y-107489523D02*
X148372514Y-107489523D01*
X148372514Y-107489523D02*
X148448704Y-107451428D01*
X148448704Y-107451428D02*
X148486800Y-107413333D01*
X148486800Y-107413333D02*
X148524895Y-107337142D01*
X148524895Y-107337142D02*
X148524895Y-107108571D01*
X148524895Y-107108571D02*
X148486800Y-107032380D01*
X148486800Y-107032380D02*
X148448704Y-106994285D01*
D13*
X118006883Y-99232946D02*
X117686611Y-99232946D01*
X117686611Y-99232946D02*
X117686611Y-99309201D01*
X117686611Y-99309201D02*
X117701862Y-99354954D01*
X117701862Y-99354954D02*
X117732364Y-99385456D01*
X117732364Y-99385456D02*
X117762866Y-99400707D01*
X117762866Y-99400707D02*
X117823870Y-99415958D01*
X117823870Y-99415958D02*
X117869623Y-99415958D01*
X117869623Y-99415958D02*
X117930627Y-99400707D01*
X117930627Y-99400707D02*
X117961129Y-99385456D01*
X117961129Y-99385456D02*
X117991632Y-99354954D01*
X117991632Y-99354954D02*
X118006883Y-99309201D01*
X118006883Y-99309201D02*
X118006883Y-99232946D01*
X117823870Y-99598971D02*
X117808619Y-99568469D01*
X117808619Y-99568469D02*
X117793368Y-99553218D01*
X117793368Y-99553218D02*
X117762866Y-99537967D01*
X117762866Y-99537967D02*
X117747615Y-99537967D01*
X117747615Y-99537967D02*
X117717113Y-99553218D01*
X117717113Y-99553218D02*
X117701862Y-99568469D01*
X117701862Y-99568469D02*
X117686611Y-99598971D01*
X117686611Y-99598971D02*
X117686611Y-99659975D01*
X117686611Y-99659975D02*
X117701862Y-99690477D01*
X117701862Y-99690477D02*
X117717113Y-99705728D01*
X117717113Y-99705728D02*
X117747615Y-99720979D01*
X117747615Y-99720979D02*
X117762866Y-99720979D01*
X117762866Y-99720979D02*
X117793368Y-99705728D01*
X117793368Y-99705728D02*
X117808619Y-99690477D01*
X117808619Y-99690477D02*
X117823870Y-99659975D01*
X117823870Y-99659975D02*
X117823870Y-99598971D01*
X117823870Y-99598971D02*
X117839121Y-99568469D01*
X117839121Y-99568469D02*
X117854372Y-99553218D01*
X117854372Y-99553218D02*
X117884874Y-99537967D01*
X117884874Y-99537967D02*
X117945878Y-99537967D01*
X117945878Y-99537967D02*
X117976380Y-99553218D01*
X117976380Y-99553218D02*
X117991632Y-99568469D01*
X117991632Y-99568469D02*
X118006883Y-99598971D01*
X118006883Y-99598971D02*
X118006883Y-99659975D01*
X118006883Y-99659975D02*
X117991632Y-99690477D01*
X117991632Y-99690477D02*
X117976380Y-99705728D01*
X117976380Y-99705728D02*
X117945878Y-99720979D01*
X117945878Y-99720979D02*
X117884874Y-99720979D01*
X117884874Y-99720979D02*
X117854372Y-99705728D01*
X117854372Y-99705728D02*
X117839121Y-99690477D01*
X117839121Y-99690477D02*
X117823870Y-99659975D01*
D10*
X132382379Y-69501562D02*
X132649046Y-69120609D01*
X132839522Y-69501562D02*
X132839522Y-68701562D01*
X132839522Y-68701562D02*
X132534760Y-68701562D01*
X132534760Y-68701562D02*
X132458570Y-68739657D01*
X132458570Y-68739657D02*
X132420475Y-68777752D01*
X132420475Y-68777752D02*
X132382379Y-68853943D01*
X132382379Y-68853943D02*
X132382379Y-68968228D01*
X132382379Y-68968228D02*
X132420475Y-69044419D01*
X132420475Y-69044419D02*
X132458570Y-69082514D01*
X132458570Y-69082514D02*
X132534760Y-69120609D01*
X132534760Y-69120609D02*
X132839522Y-69120609D01*
X132077618Y-68777752D02*
X132039522Y-68739657D01*
X132039522Y-68739657D02*
X131963332Y-68701562D01*
X131963332Y-68701562D02*
X131772856Y-68701562D01*
X131772856Y-68701562D02*
X131696665Y-68739657D01*
X131696665Y-68739657D02*
X131658570Y-68777752D01*
X131658570Y-68777752D02*
X131620475Y-68853943D01*
X131620475Y-68853943D02*
X131620475Y-68930133D01*
X131620475Y-68930133D02*
X131658570Y-69044419D01*
X131658570Y-69044419D02*
X132115713Y-69501562D01*
X132115713Y-69501562D02*
X131620475Y-69501562D01*
X132382379Y-67249895D02*
X132649046Y-66868942D01*
X132839522Y-67249895D02*
X132839522Y-66449895D01*
X132839522Y-66449895D02*
X132534760Y-66449895D01*
X132534760Y-66449895D02*
X132458570Y-66487990D01*
X132458570Y-66487990D02*
X132420475Y-66526085D01*
X132420475Y-66526085D02*
X132382379Y-66602276D01*
X132382379Y-66602276D02*
X132382379Y-66716561D01*
X132382379Y-66716561D02*
X132420475Y-66792752D01*
X132420475Y-66792752D02*
X132458570Y-66830847D01*
X132458570Y-66830847D02*
X132534760Y-66868942D01*
X132534760Y-66868942D02*
X132839522Y-66868942D01*
X132115713Y-66449895D02*
X131620475Y-66449895D01*
X131620475Y-66449895D02*
X131887141Y-66754657D01*
X131887141Y-66754657D02*
X131772856Y-66754657D01*
X131772856Y-66754657D02*
X131696665Y-66792752D01*
X131696665Y-66792752D02*
X131658570Y-66830847D01*
X131658570Y-66830847D02*
X131620475Y-66907038D01*
X131620475Y-66907038D02*
X131620475Y-67097514D01*
X131620475Y-67097514D02*
X131658570Y-67173704D01*
X131658570Y-67173704D02*
X131696665Y-67211800D01*
X131696665Y-67211800D02*
X131772856Y-67249895D01*
X131772856Y-67249895D02*
X132001427Y-67249895D01*
X132001427Y-67249895D02*
X132077618Y-67211800D01*
X132077618Y-67211800D02*
X132115713Y-67173704D01*
X125304285Y-63948704D02*
X125342381Y-63986800D01*
X125342381Y-63986800D02*
X125456666Y-64024895D01*
X125456666Y-64024895D02*
X125532857Y-64024895D01*
X125532857Y-64024895D02*
X125647143Y-63986800D01*
X125647143Y-63986800D02*
X125723333Y-63910609D01*
X125723333Y-63910609D02*
X125761428Y-63834419D01*
X125761428Y-63834419D02*
X125799524Y-63682038D01*
X125799524Y-63682038D02*
X125799524Y-63567752D01*
X125799524Y-63567752D02*
X125761428Y-63415371D01*
X125761428Y-63415371D02*
X125723333Y-63339180D01*
X125723333Y-63339180D02*
X125647143Y-63262990D01*
X125647143Y-63262990D02*
X125532857Y-63224895D01*
X125532857Y-63224895D02*
X125456666Y-63224895D01*
X125456666Y-63224895D02*
X125342381Y-63262990D01*
X125342381Y-63262990D02*
X125304285Y-63301085D01*
X124618571Y-63491561D02*
X124618571Y-64024895D01*
X124809047Y-63186800D02*
X124999524Y-63758228D01*
X124999524Y-63758228D02*
X124504285Y-63758228D01*
X124047142Y-63224895D02*
X123970952Y-63224895D01*
X123970952Y-63224895D02*
X123894761Y-63262990D01*
X123894761Y-63262990D02*
X123856666Y-63301085D01*
X123856666Y-63301085D02*
X123818571Y-63377276D01*
X123818571Y-63377276D02*
X123780476Y-63529657D01*
X123780476Y-63529657D02*
X123780476Y-63720133D01*
X123780476Y-63720133D02*
X123818571Y-63872514D01*
X123818571Y-63872514D02*
X123856666Y-63948704D01*
X123856666Y-63948704D02*
X123894761Y-63986800D01*
X123894761Y-63986800D02*
X123970952Y-64024895D01*
X123970952Y-64024895D02*
X124047142Y-64024895D01*
X124047142Y-64024895D02*
X124123333Y-63986800D01*
X124123333Y-63986800D02*
X124161428Y-63948704D01*
X124161428Y-63948704D02*
X124199523Y-63872514D01*
X124199523Y-63872514D02*
X124237619Y-63720133D01*
X124237619Y-63720133D02*
X124237619Y-63529657D01*
X124237619Y-63529657D02*
X124199523Y-63377276D01*
X124199523Y-63377276D02*
X124161428Y-63301085D01*
X124161428Y-63301085D02*
X124123333Y-63262990D01*
X124123333Y-63262990D02*
X124047142Y-63224895D01*
X146968704Y-105965714D02*
X147006800Y-105927618D01*
X147006800Y-105927618D02*
X147044895Y-105813333D01*
X147044895Y-105813333D02*
X147044895Y-105737142D01*
X147044895Y-105737142D02*
X147006800Y-105622856D01*
X147006800Y-105622856D02*
X146930609Y-105546666D01*
X146930609Y-105546666D02*
X146854419Y-105508571D01*
X146854419Y-105508571D02*
X146702038Y-105470475D01*
X146702038Y-105470475D02*
X146587752Y-105470475D01*
X146587752Y-105470475D02*
X146435371Y-105508571D01*
X146435371Y-105508571D02*
X146359180Y-105546666D01*
X146359180Y-105546666D02*
X146282990Y-105622856D01*
X146282990Y-105622856D02*
X146244895Y-105737142D01*
X146244895Y-105737142D02*
X146244895Y-105813333D01*
X146244895Y-105813333D02*
X146282990Y-105927618D01*
X146282990Y-105927618D02*
X146321085Y-105965714D01*
X146244895Y-106232380D02*
X146244895Y-106727618D01*
X146244895Y-106727618D02*
X146549657Y-106460952D01*
X146549657Y-106460952D02*
X146549657Y-106575237D01*
X146549657Y-106575237D02*
X146587752Y-106651428D01*
X146587752Y-106651428D02*
X146625847Y-106689523D01*
X146625847Y-106689523D02*
X146702038Y-106727618D01*
X146702038Y-106727618D02*
X146892514Y-106727618D01*
X146892514Y-106727618D02*
X146968704Y-106689523D01*
X146968704Y-106689523D02*
X147006800Y-106651428D01*
X147006800Y-106651428D02*
X147044895Y-106575237D01*
X147044895Y-106575237D02*
X147044895Y-106346666D01*
X147044895Y-106346666D02*
X147006800Y-106270475D01*
X147006800Y-106270475D02*
X146968704Y-106232380D01*
X146244895Y-106994285D02*
X146244895Y-107527619D01*
X146244895Y-107527619D02*
X147044895Y-107184761D01*
D14*
%TO.C,C41*%
X109450580Y-111170000D02*
X109169420Y-111170000D01*
X109450580Y-112190000D02*
X109169420Y-112190000D01*
%TO.C,R8*%
X106912936Y-105725000D02*
X107367064Y-105725000D01*
X106912936Y-107195000D02*
X107367064Y-107195000D01*
%TO.C,R6*%
X153812936Y-128775000D02*
X154267064Y-128775000D01*
X153812936Y-130245000D02*
X154267064Y-130245000D01*
%TO.C,R4*%
X129877064Y-61646667D02*
X129422936Y-61646667D01*
X129877064Y-63116667D02*
X129422936Y-63116667D01*
%TO.C,R9*%
X106912936Y-108725000D02*
X107367064Y-108725000D01*
X106912936Y-110195000D02*
X107367064Y-110195000D01*
%TO.C,FL1*%
D10*
X117100000Y-86360500D02*
G75*
G02*
X117000000Y-86360500I-50000J0D01*
G01*
X117000000Y-86360500D02*
G75*
G02*
X117100000Y-86360500I50000J0D01*
G01*
D14*
%TO.C,C38*%
X141039420Y-78700000D02*
X141320580Y-78700000D01*
X141039420Y-79720000D02*
X141320580Y-79720000D01*
%TO.C,C42*%
X109450580Y-112775000D02*
X109169420Y-112775000D01*
X109450580Y-113795000D02*
X109169420Y-113795000D01*
%TO.C,R12*%
X129877064Y-70653333D02*
X129422936Y-70653333D01*
X129877064Y-72123333D02*
X129422936Y-72123333D01*
%TO.C,C36*%
X130700000Y-91680580D02*
X130700000Y-91399420D01*
X131720000Y-91680580D02*
X131720000Y-91399420D01*
%TO.C,FB2*%
X109490000Y-108318748D02*
X109490000Y-108841252D01*
X110960000Y-108318748D02*
X110960000Y-108841252D01*
%TO.C,C30*%
X130080580Y-85360000D02*
X129799420Y-85360000D01*
X130080580Y-86380000D02*
X129799420Y-86380000D01*
%TO.C,C44*%
X130095580Y-83480000D02*
X129814420Y-83480000D01*
X130095580Y-84500000D02*
X129814420Y-84500000D01*
%TO.C,C43*%
X109169420Y-114380000D02*
X109450580Y-114380000D01*
X109169420Y-115400000D02*
X109450580Y-115400000D01*
%TO.C,R13*%
X129877064Y-72905000D02*
X129422936Y-72905000D01*
X129877064Y-74375000D02*
X129422936Y-74375000D01*
%TO.C,R5*%
X129877064Y-63898333D02*
X129422936Y-63898333D01*
X129877064Y-65368333D02*
X129422936Y-65368333D01*
%TO.C,C17*%
X121920580Y-61340000D02*
X121639420Y-61340000D01*
X121920580Y-62360000D02*
X121639420Y-62360000D01*
%TO.C,C35*%
X147789420Y-93390000D02*
X148070580Y-93390000D01*
X147789420Y-94410000D02*
X148070580Y-94410000D01*
%TO.C,U1*%
X133600000Y-82690000D02*
X133600000Y-83090000D01*
X133600000Y-104890000D02*
X133600000Y-105290000D01*
X144200000Y-82690000D02*
X133600000Y-82690000D01*
X144200000Y-83090000D02*
X144200000Y-82690000D01*
X144200000Y-104890000D02*
X144200000Y-105290000D01*
X144200000Y-105290000D02*
X133600000Y-105290000D01*
X144600000Y-83090000D02*
X144360000Y-82760000D01*
X144840000Y-82760000D01*
X144600000Y-83090000D01*
G36*
X144600000Y-83090000D02*
G01*
X144360000Y-82760000D01*
X144840000Y-82760000D01*
X144600000Y-83090000D01*
G37*
%TO.C,C39*%
X121639420Y-59465000D02*
X121920580Y-59465000D01*
X121639420Y-60485000D02*
X121920580Y-60485000D01*
%TO.C,C34*%
X130070580Y-87100000D02*
X129789420Y-87100000D01*
X130070580Y-88120000D02*
X129789420Y-88120000D01*
%TO.C,R14*%
X129877064Y-59395000D02*
X129422936Y-59395000D01*
X129877064Y-60865000D02*
X129422936Y-60865000D01*
%TO.C,C33*%
X147670000Y-103680580D02*
X147670000Y-103399420D01*
X148690000Y-103680580D02*
X148690000Y-103399420D01*
D15*
%TO.C,D8*%
X116580000Y-98260000D02*
X115780000Y-98260000D01*
X116580000Y-98860000D02*
X116580000Y-98260000D01*
X116580000Y-100460000D02*
X116580000Y-101060000D01*
X116580000Y-101060000D02*
X115780000Y-101060000D01*
D14*
%TO.C,C32*%
X147789420Y-90655000D02*
X148070580Y-90655000D01*
X147789420Y-91675000D02*
X148070580Y-91675000D01*
%TO.C,R2*%
X129422936Y-68401667D02*
X129877064Y-68401667D01*
X129422936Y-69871667D02*
X129877064Y-69871667D01*
%TO.C,R3*%
X129422936Y-66150000D02*
X129877064Y-66150000D01*
X129422936Y-67620000D02*
X129877064Y-67620000D01*
%TO.C,C40*%
X121920580Y-63215000D02*
X121639420Y-63215000D01*
X121920580Y-64235000D02*
X121639420Y-64235000D01*
%TO.C,C31*%
X147789420Y-87920000D02*
X148070580Y-87920000D01*
X147789420Y-88940000D02*
X148070580Y-88940000D01*
%TO.C,C37*%
X146080000Y-103680580D02*
X146080000Y-103399420D01*
X147100000Y-103680580D02*
X147100000Y-103399420D01*
%TD*%
M02*
