M48
; DRILL file {KiCad 9.0.6} date 2026-04-12T20:53:40+0200
; FORMAT={-:-/ absolute / metric / decimal}
; #@! TF.CreationDate,2026-04-12T20:53:40+02:00
; #@! TF.GenerationSoftware,Kicad,Pcbnew,9.0.6
; #@! TF.FileFunction,Plated,1,4,PTH
FMAT,2
METRIC
; #@! TA.AperFunction,Plated,PTH,ViaDrill
T1C0.300
; #@! TA.AperFunction,Plated,PTH,ComponentDrill
T2C0.800
; #@! TA.AperFunction,Plated,PTH,ComponentDrill
T3C0.890
; #@! TA.AperFunction,Plated,PTH,ComponentDrill
T4C1.190
; #@! TA.AperFunction,Plated,PTH,ComponentDrill
T5C1.570
; #@! TA.AperFunction,Plated,PTH,ComponentDrill
T6C2.700
%
G90
G05
T1
X103.79Y-108.17
X104.47Y-104.96
X104.7Y-111.99
X107.58Y-115.75
X108.097Y-106.46
X108.097Y-109.46
X110.085Y-114.89
X110.22Y-107.62
X114.91Y-80.078
X114.93Y-81.892
X119.662Y-119.844
X120.27Y-120.597
X120.93Y-121.2
X120.967Y-107.59
X121.02Y-69.4
X121.054Y-96.094
X121.488Y-95.28
X121.61Y-119.75
X121.8Y-107.59
X121.916Y-111.953
X122.439Y-113.647
X122.61Y-63.67
X122.827Y-114.647
X122.887Y-65.087
X122.887Y-66.627
X122.887Y-68.168
X122.887Y-69.707
X122.887Y-71.248
X122.887Y-72.787
X123.19Y-87.76
X123.2Y-83.99
X123.3Y-119.04
X123.4Y-122.45
X123.739Y-84.692
X123.79Y-88.5
X124.29Y-85.34
X124.4Y-98.66
X124.406Y-97.7
X124.41Y-89.306
X124.47Y-67.3
X124.934Y-114.266
X125.296Y-111.327
X125.479Y-113.027
X125.84Y-119.04
X126.31Y-79.78
X126.327Y-113.012
X126.7Y-122.25
X126.81Y-120.12
X127.7Y-65.81
X128.159Y-111.786
X128.45Y-109.696
X128.737Y-62.382
X128.737Y-64.633
X128.898Y-71.443
X129.11Y-94.25
X129.124Y-110.161
X129.155Y-87.61
X129.165Y-85.87
X129.365Y-112.462
X130.04Y-92.35
X130.04Y-93.405
X130.04Y-94.46
X130.13Y-77.625
X130.15Y-111.08
X130.446Y-113.905
X130.482Y-73.64
X130.562Y-62.382
X130.705Y-87.61
X130.73Y-83.99
X131.2Y-90.73
X131.21Y-92.315
X131.22Y-97.2
X131.254Y-98.11
X131.302Y-114.341
X131.85Y-79.04
X131.901Y-100.884
X132.57Y-121.165
X132.71Y-119.97
X132.762Y-79.053
X132.887Y-113.679
X133.02Y-70.11
X133.42Y-76.075
X133.43Y-77.833
X134.61Y-70.98
X134.673Y-117.346
X134.76Y-78.4
X134.9Y-88.32
X134.94Y-73.33
X135.39Y-94.43
X135.54Y-71.55
X135.57Y-91.75
X135.71Y-73.96
X135.82Y-77.625
X136.03Y-104.281
X136.267Y-117.24
X136.592Y-103.643
X136.74Y-98.39
X136.74Y-99.67
X137.243Y-103.097
X137.62Y-113.46
X137.833Y-102.484
X137.87Y-99.67
X138.12Y-117.25
X138.66Y-79.04
X139.0Y-97.013
X139.0Y-99.67
X139.0Y-100.51
X139.0Y-101.36
X139.01Y-92.89
X139.163Y-108.343
X140.01Y-71.79
X140.29Y-93.89
X140.4Y-83.26
X140.405Y-79.21
X141.1Y-93.893
X141.165Y-71.81
X141.53Y-104.48
X141.98Y-79.2
X142.012Y-93.89
X142.41Y-108.56
X142.51Y-85.2
X142.862Y-93.89
X142.95Y-101.075
X143.0Y-86.64
X143.21Y-105.308
X143.722Y-113.89
X143.79Y-78.35
X144.18Y-105.308
X144.49Y-79.05
X145.15Y-105.308
X145.15Y-117.84
X146.59Y-96.21
X147.155Y-88.43
X147.155Y-91.165
X147.155Y-93.9
X147.168Y-85.84
X147.168Y-86.79
X147.36Y-78.87
X147.58Y-95.42
X147.58Y-98.35
X148.15Y-77.625
X148.18Y-102.765
X148.18Y-104.315
X148.21Y-107.925
X148.34Y-96.484
X148.34Y-97.34
X148.795Y-91.06
X148.815Y-88.43
X149.77Y-99.35
X149.77Y-100.205
X149.77Y-101.06
X152.629Y-77.232
X153.127Y-129.51
X153.78Y-87.45
X153.925Y-119.77
X154.78Y-94.71
X154.795Y-85.7
X154.95Y-129.5
X156.31Y-85.66
X156.42Y-105.65
X156.5Y-65.09
X156.5Y-66.095
X156.5Y-67.1
X157.679Y-85.101
X157.879Y-93.731
X158.48Y-93.13
X160.091Y-73.141
X160.67Y-89.37
X160.99Y-73.1
X161.1Y-88.24
X161.87Y-84.98
X161.978Y-83.647
X163.15Y-80.16
X164.77Y-74.69
X167.0Y-65.55
X169.75Y-110.08
X169.945Y-74.69
T2
X105.095Y-81.763
X112.715Y-81.763
X157.44Y-127.77
X159.44Y-127.77
T3
X110.2Y-92.024
X110.2Y-94.056
X110.2Y-96.088
X110.2Y-98.12
X111.98Y-91.008
X111.98Y-93.04
X111.98Y-95.072
X111.98Y-97.104
T4
X163.49Y-93.48
X163.49Y-101.33
X166.03Y-93.48
X166.03Y-101.33
X168.57Y-93.48
X168.57Y-101.33
X171.11Y-93.48
X171.11Y-101.33
T5
X111.09Y-86.43
X111.09Y-102.69
T6
X107.87Y-58.41
X107.87Y-58.41
X107.87Y-128.41
X107.87Y-128.41
X167.87Y-58.41
X167.87Y-58.41
X167.87Y-128.41
X167.87Y-128.41
M30
