<?xml version="1.0" encoding="UTF-8" standalone="no"?>
<svg
   width="279.09461966547383mm"
   height="118.70354352285243mm"
   viewBox="0 0 279.09461966547383 118.70354352285243"
   version="1.1"
   id="svg4"
   xmlns="http://www.w3.org/2000/svg"
   xmlns:svg="http://www.w3.org/2000/svg">
  <defs
     id="defs4" />
  <path
     id="Shape2DView003_nwe0003"
     style="vector-effect:non-scaling-stroke;fill:none;fill-opacity:1;fill-rule:evenodd;stroke:#000000;stroke-width:0.264583;stroke-linecap:square;stroke-miterlimit:4;stroke-dasharray:none;stroke-opacity:1;-inkscape-stroke:hairline"
     d="m 183.11835,87.737348 v -58 m -86,58 h 86 m -86,-58 v 58 m 86,-58 h -86 m 125,45 v -32 m -17,32 h 17 m -17,-32 v 32 m 17,-32 h -17 M 59.256215,115.96732 c -1.236648,4.2e-4 -2.509261,-0.14564 -3.764948,-0.4515 -1.255578,-0.3049 -2.493029,-0.7699 -3.656198,-1.38135 -1.163617,-0.61057 -2.251803,-1.36699 -3.221197,-2.23063 -0.970221,-0.86319 -1.821201,-1.83242 -2.53322,-2.85628 m 173.758098,6.91976 H 59.256215 m 173.758095,-6.91976 c -0.71202,1.02386 -1.563,1.9931 -2.53322,2.85628 -0.96939,0.86364 -2.05758,1.62006 -3.2212,2.23063 -1.16316,0.61145 -2.40062,1.07645 -3.65619,1.38135 -1.25569,0.30586 -2.5283,0.45192 -3.76495,0.4515 m 54.33552,-66.064023 -41.15996,59.144263 m 38.31387,-76.150121 c 1.15392,0.834145 2.24878,1.948099 3.11409,3.304859 0.86742,1.35218 1.49421,2.944768 1.76918,4.604276 0.28035,1.658585 0.20674,3.371366 -0.17229,4.937444 -0.37554,1.569696 -1.04681,2.986726 -1.86489,4.159279 M 232.33926,4.641826 271.32818,32.897439 M 226.47627,2.736222 c 1.02615,-8.41e-4 2.07767,0.161836 3.0788,0.488077 1.00162,0.324697 1.95021,0.812102 2.78419,1.417527 M 52.618695,2.736222 H 226.47627 M 46.755707,4.641826 c 0.833978,-0.605425 1.782567,-1.09283 2.784186,-1.417527 1.001129,-0.326241 2.052651,-0.488918 3.078802,-0.488077 M 7.76678,32.897439 46.755707,4.641826 M 4.9207,49.903297 C 4.10261,48.730744 3.43135,47.313714 3.0558,45.744018 2.67678,44.17794 2.60317,42.465159 2.88351,40.806574 3.15848,39.147066 3.78527,37.554478 4.6527,36.202298 5.51801,34.845538 6.61286,33.731584 7.76678,32.897439 M 46.080652,109.04756 4.9207,49.903297 m 53.69765,24.834051 h 17 m -17,-32 v 32 m 17,-32 h -17 m 17,32 v -32" />
</svg>
