%TF.GenerationSoftware,KiCad,Pcbnew,9.0.6*%
%TF.CreationDate,2026-01-27T22:48:50+01:00*%
%TF.ProjectId,rayman_main,7261796d-616e-45f6-9d61-696e2e6b6963,rev?*%
%TF.SameCoordinates,Original*%
%TF.FileFunction,Other,Comment*%
%FSLAX46Y46*%
G04 Gerber Fmt 4.6, Leading zero omitted, Abs format (unit mm)*
G04 Created by KiCad (PCBNEW 9.0.6) date 2026-01-27 22:48:50*
%MOMM*%
%LPD*%
G01*
G04 APERTURE LIST*
%ADD10C,0.150000*%
G04 APERTURE END LIST*
D10*
X116707142Y-22647438D02*
X116707142Y-20647438D01*
X117849999Y-22647438D02*
X116992856Y-21504580D01*
X117849999Y-20647438D02*
X116707142Y-21790295D01*
X118707142Y-21599819D02*
X119373809Y-21599819D01*
X119659523Y-22647438D02*
X118707142Y-22647438D01*
X118707142Y-22647438D02*
X118707142Y-20647438D01*
X118707142Y-20647438D02*
X119659523Y-20647438D01*
X120516666Y-21599819D02*
X121183333Y-21599819D01*
X121469047Y-22647438D02*
X120516666Y-22647438D01*
X120516666Y-22647438D02*
X120516666Y-20647438D01*
X120516666Y-20647438D02*
X121469047Y-20647438D01*
X122326190Y-22647438D02*
X122326190Y-20647438D01*
X122326190Y-20647438D02*
X123088095Y-20647438D01*
X123088095Y-20647438D02*
X123278571Y-20742676D01*
X123278571Y-20742676D02*
X123373809Y-20837914D01*
X123373809Y-20837914D02*
X123469047Y-21028390D01*
X123469047Y-21028390D02*
X123469047Y-21314104D01*
X123469047Y-21314104D02*
X123373809Y-21504580D01*
X123373809Y-21504580D02*
X123278571Y-21599819D01*
X123278571Y-21599819D02*
X123088095Y-21695057D01*
X123088095Y-21695057D02*
X122326190Y-21695057D01*
X124326190Y-21885533D02*
X125850000Y-21885533D01*
X127183332Y-20647438D02*
X127564285Y-20647438D01*
X127564285Y-20647438D02*
X127754761Y-20742676D01*
X127754761Y-20742676D02*
X127945237Y-20933152D01*
X127945237Y-20933152D02*
X128040475Y-21314104D01*
X128040475Y-21314104D02*
X128040475Y-21980771D01*
X128040475Y-21980771D02*
X127945237Y-22361723D01*
X127945237Y-22361723D02*
X127754761Y-22552200D01*
X127754761Y-22552200D02*
X127564285Y-22647438D01*
X127564285Y-22647438D02*
X127183332Y-22647438D01*
X127183332Y-22647438D02*
X126992856Y-22552200D01*
X126992856Y-22552200D02*
X126802380Y-22361723D01*
X126802380Y-22361723D02*
X126707142Y-21980771D01*
X126707142Y-21980771D02*
X126707142Y-21314104D01*
X126707142Y-21314104D02*
X126802380Y-20933152D01*
X126802380Y-20933152D02*
X126992856Y-20742676D01*
X126992856Y-20742676D02*
X127183332Y-20647438D01*
X128897618Y-20647438D02*
X128897618Y-22266485D01*
X128897618Y-22266485D02*
X128992856Y-22456961D01*
X128992856Y-22456961D02*
X129088094Y-22552200D01*
X129088094Y-22552200D02*
X129278570Y-22647438D01*
X129278570Y-22647438D02*
X129659523Y-22647438D01*
X129659523Y-22647438D02*
X129849999Y-22552200D01*
X129849999Y-22552200D02*
X129945237Y-22456961D01*
X129945237Y-22456961D02*
X130040475Y-22266485D01*
X130040475Y-22266485D02*
X130040475Y-20647438D01*
X130707142Y-20647438D02*
X131849999Y-20647438D01*
X131278570Y-22647438D02*
X131278570Y-20647438D01*
X133850000Y-20647438D02*
X135183333Y-20647438D01*
X135183333Y-20647438D02*
X133850000Y-22647438D01*
X133850000Y-22647438D02*
X135183333Y-22647438D01*
X136326190Y-20647438D02*
X136707143Y-20647438D01*
X136707143Y-20647438D02*
X136897619Y-20742676D01*
X136897619Y-20742676D02*
X137088095Y-20933152D01*
X137088095Y-20933152D02*
X137183333Y-21314104D01*
X137183333Y-21314104D02*
X137183333Y-21980771D01*
X137183333Y-21980771D02*
X137088095Y-22361723D01*
X137088095Y-22361723D02*
X136897619Y-22552200D01*
X136897619Y-22552200D02*
X136707143Y-22647438D01*
X136707143Y-22647438D02*
X136326190Y-22647438D01*
X136326190Y-22647438D02*
X136135714Y-22552200D01*
X136135714Y-22552200D02*
X135945238Y-22361723D01*
X135945238Y-22361723D02*
X135850000Y-21980771D01*
X135850000Y-21980771D02*
X135850000Y-21314104D01*
X135850000Y-21314104D02*
X135945238Y-20933152D01*
X135945238Y-20933152D02*
X136135714Y-20742676D01*
X136135714Y-20742676D02*
X136326190Y-20647438D01*
X138040476Y-22647438D02*
X138040476Y-20647438D01*
X138040476Y-20647438D02*
X139183333Y-22647438D01*
X139183333Y-22647438D02*
X139183333Y-20647438D01*
X140135714Y-21599819D02*
X140802381Y-21599819D01*
X141088095Y-22647438D02*
X140135714Y-22647438D01*
X140135714Y-22647438D02*
X140135714Y-20647438D01*
X140135714Y-20647438D02*
X141088095Y-20647438D01*
X126138095Y-31379104D02*
X126614285Y-31379104D01*
X126042857Y-31664819D02*
X126376190Y-30664819D01*
X126376190Y-30664819D02*
X126709523Y-31664819D01*
X127042857Y-30998152D02*
X127042857Y-31664819D01*
X127042857Y-31093390D02*
X127090476Y-31045771D01*
X127090476Y-31045771D02*
X127185714Y-30998152D01*
X127185714Y-30998152D02*
X127328571Y-30998152D01*
X127328571Y-30998152D02*
X127423809Y-31045771D01*
X127423809Y-31045771D02*
X127471428Y-31141009D01*
X127471428Y-31141009D02*
X127471428Y-31664819D01*
X127804762Y-30998152D02*
X128185714Y-30998152D01*
X127947619Y-30664819D02*
X127947619Y-31521961D01*
X127947619Y-31521961D02*
X127995238Y-31617200D01*
X127995238Y-31617200D02*
X128090476Y-31664819D01*
X128090476Y-31664819D02*
X128185714Y-31664819D01*
X128900000Y-31617200D02*
X128804762Y-31664819D01*
X128804762Y-31664819D02*
X128614286Y-31664819D01*
X128614286Y-31664819D02*
X128519048Y-31617200D01*
X128519048Y-31617200D02*
X128471429Y-31521961D01*
X128471429Y-31521961D02*
X128471429Y-31141009D01*
X128471429Y-31141009D02*
X128519048Y-31045771D01*
X128519048Y-31045771D02*
X128614286Y-30998152D01*
X128614286Y-30998152D02*
X128804762Y-30998152D01*
X128804762Y-30998152D02*
X128900000Y-31045771D01*
X128900000Y-31045771D02*
X128947619Y-31141009D01*
X128947619Y-31141009D02*
X128947619Y-31236247D01*
X128947619Y-31236247D02*
X128471429Y-31331485D01*
X129376191Y-30998152D02*
X129376191Y-31664819D01*
X129376191Y-31093390D02*
X129423810Y-31045771D01*
X129423810Y-31045771D02*
X129519048Y-30998152D01*
X129519048Y-30998152D02*
X129661905Y-30998152D01*
X129661905Y-30998152D02*
X129757143Y-31045771D01*
X129757143Y-31045771D02*
X129804762Y-31141009D01*
X129804762Y-31141009D02*
X129804762Y-31664819D01*
X130280953Y-30998152D02*
X130280953Y-31664819D01*
X130280953Y-31093390D02*
X130328572Y-31045771D01*
X130328572Y-31045771D02*
X130423810Y-30998152D01*
X130423810Y-30998152D02*
X130566667Y-30998152D01*
X130566667Y-30998152D02*
X130661905Y-31045771D01*
X130661905Y-31045771D02*
X130709524Y-31141009D01*
X130709524Y-31141009D02*
X130709524Y-31664819D01*
X131614286Y-31664819D02*
X131614286Y-31141009D01*
X131614286Y-31141009D02*
X131566667Y-31045771D01*
X131566667Y-31045771D02*
X131471429Y-30998152D01*
X131471429Y-30998152D02*
X131280953Y-30998152D01*
X131280953Y-30998152D02*
X131185715Y-31045771D01*
X131614286Y-31617200D02*
X131519048Y-31664819D01*
X131519048Y-31664819D02*
X131280953Y-31664819D01*
X131280953Y-31664819D02*
X131185715Y-31617200D01*
X131185715Y-31617200D02*
X131138096Y-31521961D01*
X131138096Y-31521961D02*
X131138096Y-31426723D01*
X131138096Y-31426723D02*
X131185715Y-31331485D01*
X131185715Y-31331485D02*
X131280953Y-31283866D01*
X131280953Y-31283866D02*
X131519048Y-31283866D01*
X131519048Y-31283866D02*
X131614286Y-31236247D01*
%TO.C,REF\u002A\u002A*%
X153790000Y-114890000D02*
G75*
G02*
X149090000Y-114890000I-2350000J0D01*
G01*
X149090000Y-114890000D02*
G75*
G02*
X153790000Y-114890000I2350000J0D01*
G01*
X77790000Y-31890000D02*
G75*
G02*
X73090000Y-31890000I-2350000J0D01*
G01*
X73090000Y-31890000D02*
G75*
G02*
X77790000Y-31890000I2350000J0D01*
G01*
X154930000Y-31670000D02*
G75*
G02*
X150230000Y-31670000I-2350000J0D01*
G01*
X150230000Y-31670000D02*
G75*
G02*
X154930000Y-31670000I2350000J0D01*
G01*
X77790000Y-114890000D02*
G75*
G02*
X73090000Y-114890000I-2350000J0D01*
G01*
X73090000Y-114890000D02*
G75*
G02*
X77790000Y-114890000I2350000J0D01*
G01*
%TD*%
M02*
