<?xml version="1.0" standalone="no"?>
 <!DOCTYPE svg PUBLIC "-//W3C//DTD SVG 1.1//EN" 
 "http://www.w3.org/Graphics/SVG/1.1/DTD/svg11.dtd"> 
<svg
  xmlns:svg="http://www.w3.org/2000/svg"
  xmlns="http://www.w3.org/2000/svg"
  xmlns:xlink="http://www.w3.org/1999/xlink"
  version="1.1"
  width="297.0022mm" height="210.0072mm" viewBox="0.0000 0.0000 297.0022 210.0072">
<title>SVG Image created as rayman_main-B_Mask.svg date 2026/02/15 18:43:45 </title>
  <desc>Image generated by PCBNEW </desc>
<g style="fill:#000000; fill-opacity:1.0000;stroke:#000000; stroke-opacity:1.0000;
stroke-linecap:round; stroke-linejoin:round;"
 transform="translate(0 0) scale(1 1)">
<path style="fill:#000000; fill-opacity:1.0000; stroke:none;fill-rule:evenodd;"
d="M 87.2400,120.7750
87.2590,120.6793
87.3132,120.5982
87.3943,120.5440
87.4900,120.5250
88.6900,120.5250
88.7857,120.5440
88.8668,120.5982
88.9210,120.6793
88.9400,120.7750
88.9400,122.2750
88.9210,122.3707
88.8668,122.4518
88.7857,122.5060
88.6900,122.5250
87.4900,122.5250
87.3943,122.5060
87.3132,122.4518
87.2590,122.3707
87.2400,122.2750
Z" /> 
</g>
<g style="fill:none; 
stroke:#000000; stroke-width:1.7000; stroke-opacity:1; 
stroke-linecap:round; stroke-linejoin:round;">
<path d="M85.5900 121.3750
L85.5900 121.6750
" />
</g>
<g style="fill:#000000; fill-opacity:1.0000; stroke:none;">
<circle cx="144.2300" cy="63.0000" r="1.0000" /> 
</g>
<g style="fill:#000000; fill-opacity:1.0000; stroke:none;">
<circle cx="144.2300" cy="70.5000" r="1.0000" /> 
<path style="fill:#000000; fill-opacity:1.0000; stroke:none;fill-rule:evenodd;"
d="M 116.2250,101.9925
116.2440,101.8968
116.2982,101.8157
116.3793,101.7615
116.4750,101.7425
117.5750,101.7425
117.6707,101.7615
117.7518,101.8157
117.8060,101.8968
117.8250,101.9925
117.8250,103.0925
117.8060,103.1882
117.7518,103.2693
117.6707,103.3235
117.5750,103.3425
116.4750,103.3425
116.3793,103.3235
116.2982,103.2693
116.2440,103.1882
116.2250,103.0925
Z" /> 
</g>
<g style="fill:#000000; fill-opacity:1.0000; stroke:none;">
<circle cx="124.6450" cy="102.5425" r="0.8000" /> 
<path style="fill:#000000; fill-opacity:1.0000; stroke:none;fill-rule:evenodd;"
d="M 91.0640,35.1240
91.1030,35.1318
91.1361,35.1539
91.1582,35.1870
91.1660,35.2260
91.1660,36.5340
91.1582,36.5730
91.1361,36.6061
91.1030,36.6282
91.0640,36.6360
89.7560,36.6360
89.7170,36.6282
89.6839,36.6061
89.6618,36.5730
89.6540,36.5340
89.6540,35.2260
89.6618,35.1870
89.6839,35.1539
89.7170,35.1318
89.7560,35.1240
Z" /> 
</g>
<g style="fill:#000000; fill-opacity:1.0000; stroke:none;">
<circle cx="87.8700" cy="35.8800" r="0.7560" /> 
</g>
<g style="fill:#000000; fill-opacity:1.0000; stroke:none;">
<circle cx="85.3300" cy="35.8800" r="0.7560" /> 
</g>
<g style="fill:#000000; fill-opacity:1.0000; stroke:none;">
<circle cx="82.7900" cy="35.8800" r="0.7560" /> 
</g>
<g style="fill:#000000; fill-opacity:1.0000; stroke:none;">
<circle cx="80.2500" cy="35.8800" r="0.7560" /> 
</g>
<g style="fill:#000000; fill-opacity:1.0000; stroke:none;">
<circle cx="77.7100" cy="35.8800" r="0.7560" /> 
</g>
<g style="fill:#000000; fill-opacity:1.0000; stroke:none;">
<circle cx="75.1700" cy="35.8800" r="0.7560" /> 
</g>
<g style="fill:#000000; fill-opacity:1.0000; stroke:none;">
<circle cx="72.6300" cy="35.8800" r="0.7560" /> 
</g>
<g style="fill:#000000; fill-opacity:1.0000; stroke:none;">
<circle cx="72.6300" cy="53.9140" r="0.7560" /> 
</g>
<g style="fill:#000000; fill-opacity:1.0000; stroke:none;">
<circle cx="75.1700" cy="53.9140" r="0.7560" /> 
</g>
<g style="fill:#000000; fill-opacity:1.0000; stroke:none;">
<circle cx="77.7100" cy="53.9140" r="0.7560" /> 
</g>
<g style="fill:#000000; fill-opacity:1.0000; stroke:none;">
<circle cx="80.2500" cy="53.9140" r="0.7560" /> 
</g>
<g style="fill:#000000; fill-opacity:1.0000; stroke:none;">
<circle cx="82.7900" cy="53.9140" r="0.7560" /> 
</g>
<g style="fill:#000000; fill-opacity:1.0000; stroke:none;">
<circle cx="85.3300" cy="53.9140" r="0.7560" /> 
</g>
<g style="fill:#000000; fill-opacity:1.0000; stroke:none;">
<circle cx="87.8700" cy="53.9140" r="0.7560" /> 
</g>
<g style="fill:#000000; fill-opacity:1.0000; stroke:none;">
<circle cx="90.4100" cy="53.9140" r="0.7560" /> 
<path style="fill:#000000; fill-opacity:1.0000; stroke:none;fill-rule:evenodd;"
d="M 96.6525,89.6470
96.6135,89.6392
96.5804,89.6171
96.5583,89.5840
96.5505,89.5450
96.5505,88.4050
96.5583,88.3660
96.5804,88.3329
96.6135,88.3108
96.6525,88.3030
97.7925,88.3030
97.8315,88.3108
97.8646,88.3329
97.8867,88.3660
97.8945,88.4050
97.8945,89.5450
97.8867,89.5840
97.8646,89.6171
97.8315,89.6392
97.7925,89.6470
Z" /> 
</g>
<g style="fill:#000000; fill-opacity:1.0000; stroke:none;">
<circle cx="99.7625" cy="88.9750" r="0.6720" /> 
</g>
<g style="fill:#000000; fill-opacity:1.0000; stroke:none;">
<circle cx="102.3025" cy="88.9750" r="0.6720" /> 
</g>
<g style="fill:#000000; fill-opacity:1.0000; stroke:none;">
<circle cx="104.8425" cy="88.9750" r="0.6720" /> 
</g>
<g style="fill:#000000; fill-opacity:1.0000; stroke:none;">
<circle cx="107.3825" cy="88.9750" r="0.6720" /> 
</g>
<g style="fill:#000000; fill-opacity:1.0000; stroke:none;">
<circle cx="109.9225" cy="88.9750" r="0.6720" /> 
</g>
<g style="fill:#000000; fill-opacity:1.0000; stroke:none;">
<circle cx="112.4625" cy="88.9750" r="0.6720" /> 
</g>
<g style="fill:#000000; fill-opacity:1.0000; stroke:none;">
<circle cx="112.4625" cy="81.0350" r="0.6720" /> 
</g>
<g style="fill:#000000; fill-opacity:1.0000; stroke:none;">
<circle cx="109.9225" cy="81.0350" r="0.6720" /> 
</g>
<g style="fill:#000000; fill-opacity:1.0000; stroke:none;">
<circle cx="107.3825" cy="81.0350" r="0.6720" /> 
</g>
<g style="fill:#000000; fill-opacity:1.0000; stroke:none;">
<circle cx="104.8425" cy="81.0350" r="0.6720" /> 
</g>
<g style="fill:#000000; fill-opacity:1.0000; stroke:none;">
<circle cx="102.3025" cy="81.0350" r="0.6720" /> 
</g>
<g style="fill:#000000; fill-opacity:1.0000; stroke:none;">
<circle cx="99.7625" cy="81.0350" r="0.6720" /> 
</g>
<g style="fill:#000000; fill-opacity:1.0000; stroke:none;">
<circle cx="97.2225" cy="81.0350" r="0.6720" /> 
</g>
<g style="fill:#000000; fill-opacity:1.0000; stroke:none;">
<circle cx="111.0460" cy="123.7700" r="1.6250" /> 
</g>
<g style="fill:#000000; fill-opacity:1.0000; stroke:none;">
<circle cx="98.3460" cy="123.7700" r="1.6250" /> 
<path style="fill:#000000; fill-opacity:1.0000; stroke:none;fill-rule:evenodd;"
d="M 109.0060,120.4800
109.0060,121.9800
107.5060,121.9800
107.5060,120.4800
Z" /> 
</g>
<g style="fill:#000000; fill-opacity:1.0000; stroke:none;">
<circle cx="107.2400" cy="119.4500" r="0.7500" /> 
</g>
<g style="fill:#000000; fill-opacity:1.0000; stroke:none;">
<circle cx="106.2240" cy="121.2300" r="0.7500" /> 
</g>
<g style="fill:#000000; fill-opacity:1.0000; stroke:none;">
<circle cx="105.2080" cy="119.4500" r="0.7500" /> 
</g>
<g style="fill:#000000; fill-opacity:1.0000; stroke:none;">
<circle cx="104.1920" cy="121.2300" r="0.7500" /> 
</g>
<g style="fill:#000000; fill-opacity:1.0000; stroke:none;">
<circle cx="103.1760" cy="119.4500" r="0.7500" /> 
</g>
<g style="fill:#000000; fill-opacity:1.0000; stroke:none;">
<circle cx="102.1600" cy="121.2300" r="0.7500" /> 
</g>
<g style="fill:#000000; fill-opacity:1.0000; stroke:none;">
<circle cx="101.1440" cy="119.4500" r="0.7500" /> 
</g>
<g style="fill:#000000; fill-opacity:1.0000; stroke:none;">
<circle cx="112.8260" cy="120.3400" r="1.1500" /> 
</g>
<g style="fill:#000000; fill-opacity:1.0000; stroke:none;">
<circle cx="96.5660" cy="120.3400" r="1.1500" /> 
</g>
<g style="fill:#000000; fill-opacity:1.0000; stroke:none;">
<circle cx="132.1800" cy="78.2300" r="0.9000" /> 
</g>
<g style="fill:#000000; fill-opacity:1.0000; stroke:none;">
<circle cx="130.8800" cy="85.7300" r="0.9000" /> 
</g>
<g style="fill:#000000; fill-opacity:1.0000; stroke:none;">
<circle cx="151.4400" cy="114.8900" r="2.3500" /> 
</g>
<g style="fill:#000000; fill-opacity:1.0000; stroke:none;">
<circle cx="71.3900" cy="82.4100" r="0.7500" /> 
</g>
<g style="fill:#000000; fill-opacity:1.0000; stroke:none;">
<circle cx="78.3900" cy="82.4100" r="0.7500" /> 
</g>
<g style="fill:#000000; fill-opacity:1.0000; stroke:none;">
<circle cx="131.0760" cy="123.7700" r="1.6250" /> 
</g>
<g style="fill:#000000; fill-opacity:1.0000; stroke:none;">
<circle cx="118.3760" cy="123.7700" r="1.6250" /> 
<path style="fill:#000000; fill-opacity:1.0000; stroke:none;fill-rule:evenodd;"
d="M 129.0360,120.4800
129.0360,121.9800
127.5360,121.9800
127.5360,120.4800
Z" /> 
</g>
<g style="fill:#000000; fill-opacity:1.0000; stroke:none;">
<circle cx="127.2700" cy="119.4500" r="0.7500" /> 
</g>
<g style="fill:#000000; fill-opacity:1.0000; stroke:none;">
<circle cx="126.2540" cy="121.2300" r="0.7500" /> 
</g>
<g style="fill:#000000; fill-opacity:1.0000; stroke:none;">
<circle cx="125.2380" cy="119.4500" r="0.7500" /> 
</g>
<g style="fill:#000000; fill-opacity:1.0000; stroke:none;">
<circle cx="124.2220" cy="121.2300" r="0.7500" /> 
</g>
<g style="fill:#000000; fill-opacity:1.0000; stroke:none;">
<circle cx="123.2060" cy="119.4500" r="0.7500" /> 
</g>
<g style="fill:#000000; fill-opacity:1.0000; stroke:none;">
<circle cx="122.1900" cy="121.2300" r="0.7500" /> 
</g>
<g style="fill:#000000; fill-opacity:1.0000; stroke:none;">
<circle cx="121.1740" cy="119.4500" r="0.7500" /> 
</g>
<g style="fill:#000000; fill-opacity:1.0000; stroke:none;">
<circle cx="132.8560" cy="120.3400" r="1.1500" /> 
</g>
<g style="fill:#000000; fill-opacity:1.0000; stroke:none;">
<circle cx="116.5960" cy="120.3400" r="1.1500" /> 
<path style="fill:#000000; fill-opacity:1.0000; stroke:none;fill-rule:evenodd;"
d="M 151.7200,70.3700
151.6243,70.3510
151.5432,70.2968
151.4890,70.2157
151.4700,70.1200
151.4700,68.0200
151.4890,67.9243
151.5432,67.8432
151.6243,67.7890
151.7200,67.7700
153.8200,67.7700
153.9157,67.7890
153.9968,67.8432
154.0510,67.9243
154.0700,68.0200
154.0700,70.1200
154.0510,70.2157
153.9968,70.2968
153.9157,70.3510
153.8200,70.3700
Z" /> 
</g>
<g style="fill:#000000; fill-opacity:1.0000; stroke:none;">
<circle cx="152.7700" cy="64.0700" r="1.3000" /> 
<path style="fill:#000000; fill-opacity:1.0000; stroke:none;fill-rule:evenodd;"
d="M 148.5775,120.5350
148.5965,120.4393
148.6507,120.3582
148.7318,120.3040
148.8275,120.2850
150.0275,120.2850
150.1232,120.3040
150.2043,120.3582
150.2585,120.4393
150.2775,120.5350
150.2775,122.0350
150.2585,122.1307
150.2043,122.2118
150.1232,122.2660
150.0275,122.2850
148.8275,122.2850
148.7318,122.2660
148.6507,122.2118
148.5965,122.1307
148.5775,122.0350
Z" /> 
</g>
<g style="fill:none; 
stroke:#000000; stroke-width:1.7000; stroke-opacity:1; 
stroke-linecap:round; stroke-linejoin:round;">
<path d="M151.9275 121.1350
L151.9275 121.4350
" />
</g>
<g style="fill:#000000; fill-opacity:1.0000; stroke:none;">
<circle cx="75.4400" cy="31.8900" r="2.3500" /> 
<path style="fill:#000000; fill-opacity:1.0000; stroke:none;fill-rule:evenodd;"
d="M 76.0900,120.7500
76.1090,120.6543
76.1632,120.5732
76.2443,120.5190
76.3400,120.5000
77.5400,120.5000
77.6357,120.5190
77.7168,120.5732
77.7710,120.6543
77.7900,120.7500
77.7900,122.2500
77.7710,122.3457
77.7168,122.4268
77.6357,122.4810
77.5400,122.5000
76.3400,122.5000
76.2443,122.4810
76.1632,122.4268
76.1090,122.3457
76.0900,122.2500
Z" /> 
</g>
<g style="fill:none; 
stroke:#000000; stroke-width:1.7000; stroke-opacity:1; 
stroke-linecap:round; stroke-linejoin:round;">
<path d="M79.4400 121.3500
L79.4400 121.6500
" />
<path style="fill:#000000; fill-opacity:1.0000; stroke:none;fill-rule:evenodd;"
d="M 146.7900,38.5150
146.8090,38.4193
146.8632,38.3382
146.9443,38.2840
147.0400,38.2650
148.2400,38.2650
148.3357,38.2840
148.4168,38.3382
148.4710,38.4193
148.4900,38.5150
148.4900,39.9650
148.4710,40.0607
148.4168,40.1418
148.3357,40.1960
148.2400,40.2150
147.0400,40.2150
146.9443,40.1960
146.8632,40.1418
146.8090,40.0607
146.7900,39.9650
Z" /> 
</g>
<g style="fill:none; 
stroke:#000000; stroke-width:1.7000; stroke-opacity:1; 
stroke-linecap:round; stroke-linejoin:round;">
<path d="M150.1400 39.1150
L150.1400 39.3650
" />
<path d="M152.6400 39.1150
L152.6400 39.3650
" />
</g>
<g style="fill:#000000; fill-opacity:1.0000; stroke:none;">
<circle cx="141.8000" cy="87.9000" r="1.3500" /> 
</g>
<g style="fill:#000000; fill-opacity:1.0000; stroke:none;">
<circle cx="141.8000" cy="76.6500" r="1.5000" /> 
</g>
<g style="fill:#000000; fill-opacity:1.0000; stroke:none;">
<circle cx="141.8000" cy="99.1500" r="1.5000" /> 
<path style="fill:#000000; fill-opacity:1.0000; stroke:none;fill-rule:evenodd;"
d="M 76.1800,93.8900
76.2757,93.9090
76.3568,93.9632
76.4110,94.0443
76.4300,94.1400
76.4300,95.3400
76.4110,95.4357
76.3568,95.5168
76.2757,95.5710
76.1800,95.5900
74.6800,95.5900
74.5843,95.5710
74.5032,95.5168
74.4490,95.4357
74.4300,95.3400
74.4300,94.1400
74.4490,94.0443
74.5032,93.9632
74.5843,93.9090
74.6800,93.8900
Z" /> 
</g>
<g style="fill:none; 
stroke:#000000; stroke-width:1.7000; stroke-opacity:1; 
stroke-linecap:round; stroke-linejoin:round;">
<path d="M75.5800 97.2400
L75.2800 97.2400
" />
</g>
<g style="fill:#000000; fill-opacity:1.0000; stroke:none;">
<circle cx="152.5800" cy="31.6700" r="2.3500" /> 
</g>
<g style="fill:#000000; fill-opacity:1.0000; stroke:none;">
<circle cx="75.4400" cy="114.8900" r="2.3500" /> 
<path style="fill:#000000; fill-opacity:1.0000; stroke:none;fill-rule:evenodd;"
d="M 91.0740,56.7640
91.1130,56.7718
91.1461,56.7939
91.1682,56.8270
91.1760,56.8660
91.1760,58.1740
91.1682,58.2130
91.1461,58.2461
91.1130,58.2682
91.0740,58.2760
89.7660,58.2760
89.7270,58.2682
89.6939,58.2461
89.6718,58.2130
89.6640,58.1740
89.6640,56.8660
89.6718,56.8270
89.6939,56.7939
89.7270,56.7718
89.7660,56.7640
Z" /> 
</g>
<g style="fill:#000000; fill-opacity:1.0000; stroke:none;">
<circle cx="87.8800" cy="57.5200" r="0.7560" /> 
</g>
<g style="fill:#000000; fill-opacity:1.0000; stroke:none;">
<circle cx="85.3400" cy="57.5200" r="0.7560" /> 
</g>
<g style="fill:#000000; fill-opacity:1.0000; stroke:none;">
<circle cx="82.8000" cy="57.5200" r="0.7560" /> 
</g>
<g style="fill:#000000; fill-opacity:1.0000; stroke:none;">
<circle cx="80.2600" cy="57.5200" r="0.7560" /> 
</g>
<g style="fill:#000000; fill-opacity:1.0000; stroke:none;">
<circle cx="77.7200" cy="57.5200" r="0.7560" /> 
</g>
<g style="fill:#000000; fill-opacity:1.0000; stroke:none;">
<circle cx="75.1800" cy="57.5200" r="0.7560" /> 
</g>
<g style="fill:#000000; fill-opacity:1.0000; stroke:none;">
<circle cx="72.6400" cy="57.5200" r="0.7560" /> 
</g>
<g style="fill:#000000; fill-opacity:1.0000; stroke:none;">
<circle cx="72.6400" cy="75.5540" r="0.7560" /> 
</g>
<g style="fill:#000000; fill-opacity:1.0000; stroke:none;">
<circle cx="75.1800" cy="75.5540" r="0.7560" /> 
</g>
<g style="fill:#000000; fill-opacity:1.0000; stroke:none;">
<circle cx="77.7200" cy="75.5540" r="0.7560" /> 
</g>
<g style="fill:#000000; fill-opacity:1.0000; stroke:none;">
<circle cx="80.2600" cy="75.5540" r="0.7560" /> 
</g>
<g style="fill:#000000; fill-opacity:1.0000; stroke:none;">
<circle cx="82.8000" cy="75.5540" r="0.7560" /> 
</g>
<g style="fill:#000000; fill-opacity:1.0000; stroke:none;">
<circle cx="85.3400" cy="75.5540" r="0.7560" /> 
</g>
<g style="fill:#000000; fill-opacity:1.0000; stroke:none;">
<circle cx="87.8800" cy="75.5540" r="0.7560" /> 
</g>
<g style="fill:#000000; fill-opacity:1.0000; stroke:none;">
<circle cx="90.4200" cy="75.5540" r="0.7560" /> 
<path style="fill:#000000; fill-opacity:1.0000; stroke:none;fill-rule:evenodd;"
d="M 146.7900,47.8750
146.8090,47.7793
146.8632,47.6982
146.9443,47.6440
147.0400,47.6250
148.2400,47.6250
148.3357,47.6440
148.4168,47.6982
148.4710,47.7793
148.4900,47.8750
148.4900,49.3250
148.4710,49.4207
148.4168,49.5018
148.3357,49.5560
148.2400,49.5750
147.0400,49.5750
146.9443,49.5560
146.8632,49.5018
146.8090,49.4207
146.7900,49.3250
Z" /> 
</g>
<g style="fill:none; 
stroke:#000000; stroke-width:1.7000; stroke-opacity:1; 
stroke-linecap:round; stroke-linejoin:round;">
<path d="M150.1400 48.4750
L150.1400 48.7250
" />
<path d="M152.6400 48.4750
L152.6400 48.7250
" />
<path style="fill:#000000; fill-opacity:1.0000; stroke:none;fill-rule:evenodd;"
d="M 153.6275,86.1825
151.2275,86.1825
151.2275,83.7825
153.6275,83.7825
Z" /> 
</g>
<g style="fill:#000000; fill-opacity:1.0000; stroke:none;">
<circle cx="152.4275" cy="90.0225" r="1.2000" /> 
</g>
<g style="fill:#000000; fill-opacity:1.0000; stroke:none;">
<circle cx="152.4275" cy="106.4025" r="1.0000" /> 
</g>
<g style="fill:#000000; fill-opacity:1.0000; stroke:none;">
<circle cx="152.4275" cy="110.1825" r="1.0000" /> 
<path style="fill:#000000; fill-opacity:1.0000; stroke:none;fill-rule:evenodd;"
d="M 118.0100,81.8750
118.0674,81.8864
118.1161,81.9189
118.1486,81.9676
118.1600,82.0250
118.1600,83.2000
118.1486,83.2574
118.1161,83.3061
118.0674,83.3386
118.0100,83.3500
117.7100,83.3500
117.6526,83.3386
117.6039,83.3061
117.5714,83.2574
117.5600,83.2000
117.5600,82.0250
117.5714,81.9676
117.6039,81.9189
117.6526,81.8864
117.7100,81.8750
Z" /> 
<path style="fill:#000000; fill-opacity:1.0000; stroke:none;fill-rule:evenodd;"
d="M 119.9100,81.8750
119.9674,81.8864
120.0161,81.9189
120.0486,81.9676
120.0600,82.0250
120.0600,83.2000
120.0486,83.2574
120.0161,83.3061
119.9674,83.3386
119.9100,83.3500
119.6100,83.3500
119.5526,83.3386
119.5039,83.3061
119.4714,83.2574
119.4600,83.2000
119.4600,82.0250
119.4714,81.9676
119.5039,81.9189
119.5526,81.8864
119.6100,81.8750
Z" /> 
<path style="fill:#000000; fill-opacity:1.0000; stroke:none;fill-rule:evenodd;"
d="M 118.9600,83.7500
119.0174,83.7614
119.0661,83.7939
119.0986,83.8426
119.1100,83.9000
119.1100,85.0750
119.0986,85.1324
119.0661,85.1811
119.0174,85.2136
118.9600,85.2250
118.6600,85.2250
118.6026,85.2136
118.5539,85.1811
118.5214,85.1324
118.5100,85.0750
118.5100,83.9000
118.5214,83.8426
118.5539,83.7939
118.6026,83.7614
118.6600,83.7500
Z" /> 
<path style="fill:#000000; fill-opacity:1.0000; stroke:none;fill-rule:evenodd;"
d="M 107.0800,96.8000
107.1757,96.8190
107.2568,96.8732
107.3110,96.9543
107.3300,97.0500
107.3300,97.5750
107.3110,97.6707
107.2568,97.7518
107.1757,97.8060
107.0800,97.8250
106.1800,97.8250
106.0843,97.8060
106.0032,97.7518
105.9490,97.6707
105.9300,97.5750
105.9300,97.0500
105.9490,96.9543
106.0032,96.8732
106.0843,96.8190
106.1800,96.8000
Z" /> 
<path style="fill:#000000; fill-opacity:1.0000; stroke:none;fill-rule:evenodd;"
d="M 107.0800,98.6250
107.1757,98.6440
107.2568,98.6982
107.3110,98.7793
107.3300,98.8750
107.3300,99.4000
107.3110,99.4957
107.2568,99.5768
107.1757,99.6310
107.0800,99.6500
106.1800,99.6500
106.0843,99.6310
106.0032,99.5768
105.9490,99.4957
105.9300,99.4000
105.9300,98.8750
105.9490,98.7793
106.0032,98.6982
106.0843,98.6440
106.1800,98.6250
Z" /> 
<path style="fill:#000000; fill-opacity:1.0000; stroke:none;fill-rule:evenodd;"
d="M 141.4800,36.1950
141.5757,36.2140
141.6568,36.2682
141.7110,36.3493
141.7300,36.4450
141.7300,36.9700
141.7110,37.0657
141.6568,37.1468
141.5757,37.2010
141.4800,37.2200
140.5800,37.2200
140.4843,37.2010
140.4032,37.1468
140.3490,37.0657
140.3300,36.9700
140.3300,36.4450
140.3490,36.3493
140.4032,36.2682
140.4843,36.2140
140.5800,36.1950
Z" /> 
<path style="fill:#000000; fill-opacity:1.0000; stroke:none;fill-rule:evenodd;"
d="M 141.4800,38.0200
141.5757,38.0390
141.6568,38.0932
141.7110,38.1743
141.7300,38.2700
141.7300,38.7950
141.7110,38.8907
141.6568,38.9718
141.5757,39.0260
141.4800,39.0450
140.5800,39.0450
140.4843,39.0260
140.4032,38.9718
140.3490,38.8907
140.3300,38.7950
140.3300,38.2700
140.3490,38.1743
140.4032,38.0932
140.4843,38.0390
140.5800,38.0200
Z" /> 
<path style="fill:#000000; fill-opacity:1.0000; stroke:none;fill-rule:evenodd;"
d="M 145.6750,121.9300
145.6560,122.0257
145.6018,122.1068
145.5207,122.1610
145.4250,122.1800
144.9000,122.1800
144.8043,122.1610
144.7232,122.1068
144.6690,122.0257
144.6500,121.9300
144.6500,121.0300
144.6690,120.9343
144.7232,120.8532
144.8043,120.7990
144.9000,120.7800
145.4250,120.7800
145.5207,120.7990
145.6018,120.8532
145.6560,120.9343
145.6750,121.0300
Z" /> 
<path style="fill:#000000; fill-opacity:1.0000; stroke:none;fill-rule:evenodd;"
d="M 143.8500,121.9300
143.8310,122.0257
143.7768,122.1068
143.6957,122.1610
143.6000,122.1800
143.0750,122.1800
142.9793,122.1610
142.8982,122.1068
142.8440,122.0257
142.8250,121.9300
142.8250,121.0300
142.8440,120.9343
142.8982,120.8532
142.9793,120.7990
143.0750,120.7800
143.6000,120.7800
143.6957,120.7990
143.7768,120.8532
143.8310,120.9343
143.8500,121.0300
Z" /> 
<path style="fill:#000000; fill-opacity:1.0000; stroke:none;fill-rule:evenodd;"
d="M 73.5550,118.4600
73.5360,118.5557
73.4818,118.6368
73.4007,118.6910
73.3050,118.7100
72.7800,118.7100
72.6843,118.6910
72.6032,118.6368
72.5490,118.5557
72.5300,118.4600
72.5300,117.5600
72.5490,117.4643
72.6032,117.3832
72.6843,117.3290
72.7800,117.3100
73.3050,117.3100
73.4007,117.3290
73.4818,117.3832
73.5360,117.4643
73.5550,117.5600
Z" /> 
<path style="fill:#000000; fill-opacity:1.0000; stroke:none;fill-rule:evenodd;"
d="M 71.7300,118.4600
71.7110,118.5557
71.6568,118.6368
71.5757,118.6910
71.4800,118.7100
70.9550,118.7100
70.8593,118.6910
70.7782,118.6368
70.7240,118.5557
70.7050,118.4600
70.7050,117.5600
70.7240,117.4643
70.7782,117.3832
70.8593,117.3290
70.9550,117.3100
71.4800,117.3100
71.5757,117.3290
71.6568,117.3832
71.7110,117.4643
71.7300,117.5600
Z" /> 
<path style="fill:#000000; fill-opacity:1.0000; stroke:none;fill-rule:evenodd;"
d="M 113.5250,104.9700
113.5060,105.0657
113.4518,105.1468
113.3707,105.2010
113.2750,105.2200
112.7500,105.2200
112.6543,105.2010
112.5732,105.1468
112.5190,105.0657
112.5000,104.9700
112.5000,104.0700
112.5190,103.9743
112.5732,103.8932
112.6543,103.8390
112.7500,103.8200
113.2750,103.8200
113.3707,103.8390
113.4518,103.8932
113.5060,103.9743
113.5250,104.0700
Z" /> 
<path style="fill:#000000; fill-opacity:1.0000; stroke:none;fill-rule:evenodd;"
d="M 111.7000,104.9700
111.6810,105.0657
111.6268,105.1468
111.5457,105.2010
111.4500,105.2200
110.9250,105.2200
110.8293,105.2010
110.7482,105.1468
110.6940,105.0657
110.6750,104.9700
110.6750,104.0700
110.6940,103.9743
110.7482,103.8932
110.8293,103.8390
110.9250,103.8200
111.4500,103.8200
111.5457,103.8390
111.6268,103.8932
111.6810,103.9743
111.7000,104.0700
Z" /> 
<path style="fill:#000000; fill-opacity:1.0000; stroke:none;fill-rule:evenodd;"
d="M 101.0828,96.8000
101.1784,96.8190
101.2596,96.8732
101.3137,96.9543
101.3328,97.0500
101.3328,97.5750
101.3137,97.6707
101.2596,97.7518
101.1784,97.8060
101.0828,97.8250
100.1828,97.8250
100.0871,97.8060
100.0060,97.7518
99.9518,97.6707
99.9328,97.5750
99.9328,97.0500
99.9518,96.9543
100.0060,96.8732
100.0871,96.8190
100.1828,96.8000
Z" /> 
<path style="fill:#000000; fill-opacity:1.0000; stroke:none;fill-rule:evenodd;"
d="M 101.0828,98.6250
101.1784,98.6440
101.2596,98.6982
101.3137,98.7793
101.3328,98.8750
101.3328,99.4000
101.3137,99.4957
101.2596,99.5768
101.1784,99.6310
101.0828,99.6500
100.1828,99.6500
100.0871,99.6310
100.0060,99.5768
99.9518,99.4957
99.9328,99.4000
99.9328,98.8750
99.9518,98.7793
100.0060,98.6982
100.0871,98.6440
100.1828,98.6250
Z" /> 
<path style="fill:#000000; fill-opacity:1.0000; stroke:none;fill-rule:evenodd;"
d="M 110.8700,49.5050
110.7743,49.4860
110.6932,49.4318
110.6390,49.3507
110.6200,49.2550
110.6200,48.7300
110.6390,48.6343
110.6932,48.5532
110.7743,48.4990
110.8700,48.4800
111.7700,48.4800
111.8657,48.4990
111.9468,48.5532
112.0010,48.6343
112.0200,48.7300
112.0200,49.2550
112.0010,49.3507
111.9468,49.4318
111.8657,49.4860
111.7700,49.5050
Z" /> 
<path style="fill:#000000; fill-opacity:1.0000; stroke:none;fill-rule:evenodd;"
d="M 110.8700,47.6800
110.7743,47.6610
110.6932,47.6068
110.6390,47.5257
110.6200,47.4300
110.6200,46.9050
110.6390,46.8093
110.6932,46.7282
110.7743,46.6740
110.8700,46.6550
111.7700,46.6550
111.8657,46.6740
111.9468,46.7282
112.0010,46.8093
112.0200,46.9050
112.0200,47.4300
112.0010,47.5257
111.9468,47.6068
111.8657,47.6610
111.7700,47.6800
Z" /> 
<path style="fill:#000000; fill-opacity:1.0000; stroke:none;fill-rule:evenodd;"
d="M 89.6150,117.2500
89.6340,117.1543
89.6882,117.0732
89.7693,117.0190
89.8650,117.0000
90.3900,117.0000
90.4857,117.0190
90.5668,117.0732
90.6210,117.1543
90.6400,117.2500
90.6400,118.1500
90.6210,118.2457
90.5668,118.3268
90.4857,118.3810
90.3900,118.4000
89.8650,118.4000
89.7693,118.3810
89.6882,118.3268
89.6340,118.2457
89.6150,118.1500
Z" /> 
<path style="fill:#000000; fill-opacity:1.0000; stroke:none;fill-rule:evenodd;"
d="M 91.4400,117.2500
91.4590,117.1543
91.5132,117.0732
91.5943,117.0190
91.6900,117.0000
92.2150,117.0000
92.3107,117.0190
92.3918,117.0732
92.4460,117.1543
92.4650,117.2500
92.4650,118.1500
92.4460,118.2457
92.3918,118.3268
92.3107,118.3810
92.2150,118.4000
91.6900,118.4000
91.5943,118.3810
91.5132,118.3268
91.4590,118.2457
91.4400,118.1500
Z" /> 
<path style="fill:#000000; fill-opacity:1.0000; stroke:none;fill-rule:evenodd;"
d="M 115.8100,81.7550
115.9057,81.7740
115.9868,81.8282
116.0410,81.9093
116.0600,82.0050
116.0600,82.5300
116.0410,82.6257
115.9868,82.7068
115.9057,82.7610
115.8100,82.7800
114.9100,82.7800
114.8143,82.7610
114.7332,82.7068
114.6790,82.6257
114.6600,82.5300
114.6600,82.0050
114.6790,81.9093
114.7332,81.8282
114.8143,81.7740
114.9100,81.7550
Z" /> 
<path style="fill:#000000; fill-opacity:1.0000; stroke:none;fill-rule:evenodd;"
d="M 115.8100,83.5800
115.9057,83.5990
115.9868,83.6532
116.0410,83.7343
116.0600,83.8300
116.0600,84.3550
116.0410,84.4507
115.9868,84.5318
115.9057,84.5860
115.8100,84.6050
114.9100,84.6050
114.8143,84.5860
114.7332,84.5318
114.6790,84.4507
114.6600,84.3550
114.6600,83.8300
114.6790,83.7343
114.7332,83.6532
114.8143,83.5990
114.9100,83.5800
Z" /> 
<path style="fill:#000000; fill-opacity:1.0000; stroke:none;fill-rule:evenodd;"
d="M 98.0842,96.8000
98.1798,96.8190
98.2609,96.8732
98.3151,96.9543
98.3342,97.0500
98.3342,97.5750
98.3151,97.6707
98.2609,97.7518
98.1798,97.8060
98.0842,97.8250
97.1842,97.8250
97.0885,97.8060
97.0074,97.7518
96.9532,97.6707
96.9342,97.5750
96.9342,97.0500
96.9532,96.9543
97.0074,96.8732
97.0885,96.8190
97.1842,96.8000
Z" /> 
<path style="fill:#000000; fill-opacity:1.0000; stroke:none;fill-rule:evenodd;"
d="M 98.0842,98.6250
98.1798,98.6440
98.2609,98.6982
98.3151,98.7793
98.3342,98.8750
98.3342,99.4000
98.3151,99.4957
98.2609,99.5768
98.1798,99.6310
98.0842,99.6500
97.1842,99.6500
97.0885,99.6310
97.0074,99.5768
96.9532,99.4957
96.9342,99.4000
96.9342,98.8750
96.9532,98.7793
97.0074,98.6982
97.0885,98.6440
97.1842,98.6250
Z" /> 
<path style="fill:#000000; fill-opacity:1.0000; stroke:none;fill-rule:evenodd;"
d="M 114.5000,52.5550
114.5957,52.5740
114.6768,52.6282
114.7310,52.7093
114.7500,52.8050
114.7500,53.3300
114.7310,53.4257
114.6768,53.5068
114.5957,53.5610
114.5000,53.5800
113.6000,53.5800
113.5043,53.5610
113.4232,53.5068
113.3690,53.4257
113.3500,53.3300
113.3500,52.8050
113.3690,52.7093
113.4232,52.6282
113.5043,52.5740
113.6000,52.5550
Z" /> 
<path style="fill:#000000; fill-opacity:1.0000; stroke:none;fill-rule:evenodd;"
d="M 114.5000,54.3800
114.5957,54.3990
114.6768,54.4532
114.7310,54.5343
114.7500,54.6300
114.7500,55.1550
114.7310,55.2507
114.6768,55.3318
114.5957,55.3860
114.5000,55.4050
113.6000,55.4050
113.5043,55.3860
113.4232,55.3318
113.3690,55.2507
113.3500,55.1550
113.3500,54.6300
113.3690,54.5343
113.4232,54.4532
113.5043,54.3990
113.6000,54.3800
Z" /> 
<path style="fill:#000000; fill-opacity:1.0000; stroke:none;fill-rule:evenodd;"
d="M 109.5600,46.6550
109.6557,46.6740
109.7368,46.7282
109.7910,46.8093
109.8100,46.9050
109.8100,47.4300
109.7910,47.5257
109.7368,47.6068
109.6557,47.6610
109.5600,47.6800
108.6600,47.6800
108.5643,47.6610
108.4832,47.6068
108.4290,47.5257
108.4100,47.4300
108.4100,46.9050
108.4290,46.8093
108.4832,46.7282
108.5643,46.6740
108.6600,46.6550
Z" /> 
<path style="fill:#000000; fill-opacity:1.0000; stroke:none;fill-rule:evenodd;"
d="M 109.5600,48.4800
109.6557,48.4990
109.7368,48.5532
109.7910,48.6343
109.8100,48.7300
109.8100,49.2550
109.7910,49.3507
109.7368,49.4318
109.6557,49.4860
109.5600,49.5050
108.6600,49.5050
108.5643,49.4860
108.4832,49.4318
108.4290,49.3507
108.4100,49.2550
108.4100,48.7300
108.4290,48.6343
108.4832,48.5532
108.5643,48.4990
108.6600,48.4800
Z" /> 
<path style="fill:#000000; fill-opacity:1.0000; stroke:none;fill-rule:evenodd;"
d="M 136.0500,111.0350
136.0310,111.1307
135.9768,111.2118
135.8957,111.2660
135.8000,111.2850
135.3000,111.2850
135.2043,111.2660
135.1232,111.2118
135.0690,111.1307
135.0500,111.0350
135.0500,110.0850
135.0690,109.9893
135.1232,109.9082
135.2043,109.8540
135.3000,109.8350
135.8000,109.8350
135.8957,109.8540
135.9768,109.9082
136.0310,109.9893
136.0500,110.0850
Z" /> 
<path style="fill:#000000; fill-opacity:1.0000; stroke:none;fill-rule:evenodd;"
d="M 134.1500,111.0350
134.1310,111.1307
134.0768,111.2118
133.9957,111.2660
133.9000,111.2850
133.4000,111.2850
133.3043,111.2660
133.2232,111.2118
133.1690,111.1307
133.1500,111.0350
133.1500,110.0850
133.1690,109.9893
133.2232,109.9082
133.3043,109.8540
133.4000,109.8350
133.9000,109.8350
133.9957,109.8540
134.0768,109.9082
134.1310,109.9893
134.1500,110.0850
Z" /> 
<path style="fill:#000000; fill-opacity:1.0000; stroke:none;fill-rule:evenodd;"
d="M 92.1425,103.0700
92.1615,102.9743
92.2157,102.8932
92.2968,102.8390
92.3925,102.8200
92.9175,102.8200
93.0132,102.8390
93.0943,102.8932
93.1485,102.9743
93.1675,103.0700
93.1675,103.9700
93.1485,104.0657
93.0943,104.1468
93.0132,104.2010
92.9175,104.2200
92.3925,104.2200
92.2968,104.2010
92.2157,104.1468
92.1615,104.0657
92.1425,103.9700
Z" /> 
<path style="fill:#000000; fill-opacity:1.0000; stroke:none;fill-rule:evenodd;"
d="M 93.9675,103.0700
93.9865,102.9743
94.0407,102.8932
94.1218,102.8390
94.2175,102.8200
94.7425,102.8200
94.8382,102.8390
94.9193,102.8932
94.9735,102.9743
94.9925,103.0700
94.9925,103.9700
94.9735,104.0657
94.9193,104.1468
94.8382,104.2010
94.7425,104.2200
94.2175,104.2200
94.1218,104.2010
94.0407,104.1468
93.9865,104.0657
93.9675,103.9700
Z" /> 
<path style="fill:#000000; fill-opacity:1.0000; stroke:none;fill-rule:evenodd;"
d="M 144.0500,111.9450
144.0690,111.8493
144.1232,111.7682
144.2043,111.7140
144.3000,111.6950
144.8000,111.6950
144.8957,111.7140
144.9768,111.7682
145.0310,111.8493
145.0500,111.9450
145.0500,112.8950
145.0310,112.9907
144.9768,113.0718
144.8957,113.1260
144.8000,113.1450
144.3000,113.1450
144.2043,113.1260
144.1232,113.0718
144.0690,112.9907
144.0500,112.8950
Z" /> 
<path style="fill:#000000; fill-opacity:1.0000; stroke:none;fill-rule:evenodd;"
d="M 145.9500,111.9450
145.9690,111.8493
146.0232,111.7682
146.1043,111.7140
146.2000,111.6950
146.7000,111.6950
146.7957,111.7140
146.8768,111.7682
146.9310,111.8493
146.9500,111.9450
146.9500,112.8950
146.9310,112.9907
146.8768,113.0718
146.7957,113.1260
146.7000,113.1450
146.2000,113.1450
146.1043,113.1260
146.0232,113.0718
145.9690,112.9907
145.9500,112.8950
Z" /> 
<path style="fill:#000000; fill-opacity:1.0000; stroke:none;fill-rule:evenodd;"
d="M 121.6900,76.9050
121.7857,76.9240
121.8668,76.9782
121.9210,77.0593
121.9400,77.1550
121.9400,77.6800
121.9210,77.7757
121.8668,77.8568
121.7857,77.9110
121.6900,77.9300
120.7900,77.9300
120.6943,77.9110
120.6132,77.8568
120.5590,77.7757
120.5400,77.6800
120.5400,77.1550
120.5590,77.0593
120.6132,76.9782
120.6943,76.9240
120.7900,76.9050
Z" /> 
<path style="fill:#000000; fill-opacity:1.0000; stroke:none;fill-rule:evenodd;"
d="M 121.6900,78.7300
121.7857,78.7490
121.8668,78.8032
121.9210,78.8843
121.9400,78.9800
121.9400,79.5050
121.9210,79.6007
121.8668,79.6818
121.7857,79.7360
121.6900,79.7550
120.7900,79.7550
120.6943,79.7360
120.6132,79.6818
120.5590,79.6007
120.5400,79.5050
120.5400,78.9800
120.5590,78.8843
120.6132,78.8032
120.6943,78.7490
120.7900,78.7300
Z" /> 
<path style="fill:#000000; fill-opacity:1.0000; stroke:none;fill-rule:evenodd;"
d="M 113.5250,107.8000
113.5060,107.8957
113.4518,107.9768
113.3707,108.0310
113.2750,108.0500
112.7500,108.0500
112.6543,108.0310
112.5732,107.9768
112.5190,107.8957
112.5000,107.8000
112.5000,106.9000
112.5190,106.8043
112.5732,106.7232
112.6543,106.6690
112.7500,106.6500
113.2750,106.6500
113.3707,106.6690
113.4518,106.7232
113.5060,106.8043
113.5250,106.9000
Z" /> 
<path style="fill:#000000; fill-opacity:1.0000; stroke:none;fill-rule:evenodd;"
d="M 111.7000,107.8000
111.6810,107.8957
111.6268,107.9768
111.5457,108.0310
111.4500,108.0500
110.9250,108.0500
110.8293,108.0310
110.7482,107.9768
110.6940,107.8957
110.6750,107.8000
110.6750,106.9000
110.6940,106.8043
110.7482,106.7232
110.8293,106.6690
110.9250,106.6500
111.4500,106.6500
111.5457,106.6690
111.6268,106.7232
111.6810,106.8043
111.7000,106.9000
Z" /> 
<path style="fill:#000000; fill-opacity:1.0000; stroke:none;fill-rule:evenodd;"
d="M 138.1402,113.6355
138.1926,113.6459
138.2369,113.6756
138.2666,113.7199
138.2770,113.7722
138.2770,115.6727
138.2666,115.7251
138.2369,115.7694
138.1926,115.7991
138.1402,115.8095
137.3197,115.8095
137.2674,115.7991
137.2231,115.7694
137.1934,115.7251
137.1830,115.6727
137.1830,113.7722
137.1934,113.7199
137.2231,113.6756
137.2674,113.6459
137.3197,113.6355
Z" /> 
<path style="fill:#000000; fill-opacity:1.0000; stroke:none;fill-rule:evenodd;"
d="M 140.4402,113.6355
140.4926,113.6459
140.5369,113.6756
140.5666,113.7199
140.5770,113.7722
140.5770,115.6727
140.5666,115.7251
140.5369,115.7694
140.4926,115.7991
140.4402,115.8095
139.6197,115.8095
139.5674,115.7991
139.5231,115.7694
139.4934,115.7251
139.4830,115.6727
139.4830,113.7722
139.4934,113.7199
139.5231,113.6756
139.5674,113.6459
139.6197,113.6355
Z" /> 
<path style="fill:#000000; fill-opacity:1.0000; stroke:none;fill-rule:evenodd;"
d="M 142.7403,113.6355
142.7926,113.6459
142.8369,113.6756
142.8666,113.7199
142.8770,113.7722
142.8770,115.6727
142.8666,115.7251
142.8369,115.7694
142.7926,115.7991
142.7403,115.8095
141.9197,115.8095
141.8674,115.7991
141.8231,115.7694
141.7934,115.7251
141.7830,115.6727
141.7830,113.7722
141.7934,113.7199
141.8231,113.6756
141.8674,113.6459
141.9197,113.6355
Z" /> 
<path style="fill:#000000; fill-opacity:1.0000; stroke:none;fill-rule:evenodd;"
d="M 141.4553,119.6855
141.5592,119.7062
141.6474,119.7651
141.7063,119.8533
141.7270,119.9572
141.7270,121.5877
141.7063,121.6917
141.6474,121.7799
141.5592,121.8388
141.4553,121.8595
138.6047,121.8595
138.5008,121.8388
138.4126,121.7799
138.3537,121.6917
138.3330,121.5877
138.3330,119.9572
138.3537,119.8533
138.4126,119.7651
138.5008,119.7062
138.6047,119.6855
Z" /> 
<path style="fill:#000000; fill-opacity:1.0000; stroke:none;fill-rule:evenodd;"
d="M 138.3500,34.9400
138.3500,35.8400
136.8500,35.8400
136.8500,34.9400
Z" /> 
<path style="fill:#000000; fill-opacity:1.0000; stroke:none;fill-rule:evenodd;"
d="M 138.3500,36.2100
138.3500,37.1100
136.8500,37.1100
136.8500,36.2100
Z" /> 
<path style="fill:#000000; fill-opacity:1.0000; stroke:none;fill-rule:evenodd;"
d="M 138.3500,37.4800
138.3500,38.3800
136.8500,38.3800
136.8500,37.4800
Z" /> 
<path style="fill:#000000; fill-opacity:1.0000; stroke:none;fill-rule:evenodd;"
d="M 138.3500,38.7500
138.3500,39.6500
136.8500,39.6500
136.8500,38.7500
Z" /> 
<path style="fill:#000000; fill-opacity:1.0000; stroke:none;fill-rule:evenodd;"
d="M 138.3500,40.0200
138.3500,40.9200
136.8500,40.9200
136.8500,40.0200
Z" /> 
<path style="fill:#000000; fill-opacity:1.0000; stroke:none;fill-rule:evenodd;"
d="M 138.3500,41.2900
138.3500,42.1900
136.8500,42.1900
136.8500,41.2900
Z" /> 
<path style="fill:#000000; fill-opacity:1.0000; stroke:none;fill-rule:evenodd;"
d="M 138.3500,42.5600
138.3500,43.4600
136.8500,43.4600
136.8500,42.5600
Z" /> 
<path style="fill:#000000; fill-opacity:1.0000; stroke:none;fill-rule:evenodd;"
d="M 138.3500,43.8300
138.3500,44.7300
136.8500,44.7300
136.8500,43.8300
Z" /> 
<path style="fill:#000000; fill-opacity:1.0000; stroke:none;fill-rule:evenodd;"
d="M 138.3500,45.1000
138.3500,46.0000
136.8500,46.0000
136.8500,45.1000
Z" /> 
<path style="fill:#000000; fill-opacity:1.0000; stroke:none;fill-rule:evenodd;"
d="M 138.3500,46.3700
138.3500,47.2700
136.8500,47.2700
136.8500,46.3700
Z" /> 
<path style="fill:#000000; fill-opacity:1.0000; stroke:none;fill-rule:evenodd;"
d="M 138.3500,47.6400
138.3500,48.5400
136.8500,48.5400
136.8500,47.6400
Z" /> 
<path style="fill:#000000; fill-opacity:1.0000; stroke:none;fill-rule:evenodd;"
d="M 138.3500,48.9100
138.3500,49.8100
136.8500,49.8100
136.8500,48.9100
Z" /> 
<path style="fill:#000000; fill-opacity:1.0000; stroke:none;fill-rule:evenodd;"
d="M 138.3500,50.1800
138.3500,51.0800
136.8500,51.0800
136.8500,50.1800
Z" /> 
<path style="fill:#000000; fill-opacity:1.0000; stroke:none;fill-rule:evenodd;"
d="M 136.8500,52.3500
136.8500,51.4500
138.3500,51.4500
138.3500,52.3500
Z" /> 
<path style="fill:#000000; fill-opacity:1.0000; stroke:none;fill-rule:evenodd;"
d="M 135.3850,52.4000
136.2850,52.4000
136.2850,53.9000
135.3850,53.9000
Z" /> 
<path style="fill:#000000; fill-opacity:1.0000; stroke:none;fill-rule:evenodd;"
d="M 134.1150,52.4000
135.0150,52.4000
135.0150,53.9000
134.1150,53.9000
Z" /> 
<path style="fill:#000000; fill-opacity:1.0000; stroke:none;fill-rule:evenodd;"
d="M 132.8450,52.4000
133.7450,52.4000
133.7450,53.9000
132.8450,53.9000
Z" /> 
<path style="fill:#000000; fill-opacity:1.0000; stroke:none;fill-rule:evenodd;"
d="M 131.5750,52.4000
132.4750,52.4000
132.4750,53.9000
131.5750,53.9000
Z" /> 
<path style="fill:#000000; fill-opacity:1.0000; stroke:none;fill-rule:evenodd;"
d="M 130.3050,52.4000
131.2050,52.4000
131.2050,53.9000
130.3050,53.9000
Z" /> 
<path style="fill:#000000; fill-opacity:1.0000; stroke:none;fill-rule:evenodd;"
d="M 129.0350,52.4000
129.9350,52.4000
129.9350,53.9000
129.0350,53.9000
Z" /> 
<path style="fill:#000000; fill-opacity:1.0000; stroke:none;fill-rule:evenodd;"
d="M 127.7650,52.4000
128.6650,52.4000
128.6650,53.9000
127.7650,53.9000
Z" /> 
<path style="fill:#000000; fill-opacity:1.0000; stroke:none;fill-rule:evenodd;"
d="M 126.4950,52.4000
127.3950,52.4000
127.3950,53.9000
126.4950,53.9000
Z" /> 
<path style="fill:#000000; fill-opacity:1.0000; stroke:none;fill-rule:evenodd;"
d="M 125.2250,52.4000
126.1250,52.4000
126.1250,53.9000
125.2250,53.9000
Z" /> 
<path style="fill:#000000; fill-opacity:1.0000; stroke:none;fill-rule:evenodd;"
d="M 123.9550,52.4000
124.8550,52.4000
124.8550,53.9000
123.9550,53.9000
Z" /> 
<path style="fill:#000000; fill-opacity:1.0000; stroke:none;fill-rule:evenodd;"
d="M 122.6850,52.4000
123.5850,52.4000
123.5850,53.9000
122.6850,53.9000
Z" /> 
<path style="fill:#000000; fill-opacity:1.0000; stroke:none;fill-rule:evenodd;"
d="M 121.4150,52.4000
122.3150,52.4000
122.3150,53.9000
121.4150,53.9000
Z" /> 
<path style="fill:#000000; fill-opacity:1.0000; stroke:none;fill-rule:evenodd;"
d="M 120.8500,51.4500
120.8500,52.3500
119.3500,52.3500
119.3500,51.4500
Z" /> 
<path style="fill:#000000; fill-opacity:1.0000; stroke:none;fill-rule:evenodd;"
d="M 120.8500,50.1800
120.8500,51.0800
119.3500,51.0800
119.3500,50.1800
Z" /> 
<path style="fill:#000000; fill-opacity:1.0000; stroke:none;fill-rule:evenodd;"
d="M 120.8500,48.9100
120.8500,49.8100
119.3500,49.8100
119.3500,48.9100
Z" /> 
<path style="fill:#000000; fill-opacity:1.0000; stroke:none;fill-rule:evenodd;"
d="M 120.8500,47.6400
120.8500,48.5400
119.3500,48.5400
119.3500,47.6400
Z" /> 
<path style="fill:#000000; fill-opacity:1.0000; stroke:none;fill-rule:evenodd;"
d="M 120.8500,46.3700
120.8500,47.2700
119.3500,47.2700
119.3500,46.3700
Z" /> 
<path style="fill:#000000; fill-opacity:1.0000; stroke:none;fill-rule:evenodd;"
d="M 120.8500,45.1000
120.8500,46.0000
119.3500,46.0000
119.3500,45.1000
Z" /> 
<path style="fill:#000000; fill-opacity:1.0000; stroke:none;fill-rule:evenodd;"
d="M 120.8500,43.8300
120.8500,44.7300
119.3500,44.7300
119.3500,43.8300
Z" /> 
<path style="fill:#000000; fill-opacity:1.0000; stroke:none;fill-rule:evenodd;"
d="M 120.8500,42.5600
120.8500,43.4600
119.3500,43.4600
119.3500,42.5600
Z" /> 
<path style="fill:#000000; fill-opacity:1.0000; stroke:none;fill-rule:evenodd;"
d="M 120.8500,41.2900
120.8500,42.1900
119.3500,42.1900
119.3500,41.2900
Z" /> 
<path style="fill:#000000; fill-opacity:1.0000; stroke:none;fill-rule:evenodd;"
d="M 120.8500,40.0200
120.8500,40.9200
119.3500,40.9200
119.3500,40.0200
Z" /> 
<path style="fill:#000000; fill-opacity:1.0000; stroke:none;fill-rule:evenodd;"
d="M 120.8500,38.7500
120.8500,39.6500
119.3500,39.6500
119.3500,38.7500
Z" /> 
<path style="fill:#000000; fill-opacity:1.0000; stroke:none;fill-rule:evenodd;"
d="M 120.8500,37.4800
120.8500,38.3800
119.3500,38.3800
119.3500,37.4800
Z" /> 
<path style="fill:#000000; fill-opacity:1.0000; stroke:none;fill-rule:evenodd;"
d="M 120.8500,36.2100
120.8500,37.1100
119.3500,37.1100
119.3500,36.2100
Z" /> 
<path style="fill:#000000; fill-opacity:1.0000; stroke:none;fill-rule:evenodd;"
d="M 120.8500,34.9400
120.8500,35.8400
119.3500,35.8400
119.3500,34.9400
Z" /> 
</g>
<g style="fill:#000000; fill-opacity:1.0000; stroke:none;">
<circle cx="131.7500" cy="43.8100" r="0.3000" /> 
</g>
<g style="fill:#000000; fill-opacity:1.0000; stroke:none;">
<circle cx="131.7500" cy="42.4100" r="0.3000" /> 
</g>
<g style="fill:#000000; fill-opacity:1.0000; stroke:none;">
<circle cx="131.0500" cy="44.5100" r="0.3000" /> 
</g>
<g style="fill:#000000; fill-opacity:1.0000; stroke:none;">
<circle cx="131.0500" cy="43.1100" r="0.3000" /> 
</g>
<g style="fill:#000000; fill-opacity:1.0000; stroke:none;">
<circle cx="131.0500" cy="41.7100" r="0.3000" /> 
</g>
<g style="fill:#000000; fill-opacity:1.0000; stroke:none;">
<circle cx="130.3500" cy="43.8100" r="0.3000" /> 
<path style="fill:#000000; fill-opacity:1.0000; stroke:none;fill-rule:evenodd;"
d="M 128.4000,41.1600
132.3000,41.1600
132.3000,45.0600
128.4000,45.0600
Z" /> 
</g>
<g style="fill:#000000; fill-opacity:1.0000; stroke:none;">
<circle cx="130.3500" cy="42.4100" r="0.3000" /> 
</g>
<g style="fill:#000000; fill-opacity:1.0000; stroke:none;">
<circle cx="129.6500" cy="44.5100" r="0.3000" /> 
</g>
<g style="fill:#000000; fill-opacity:1.0000; stroke:none;">
<circle cx="129.6500" cy="43.1100" r="0.3000" /> 
</g>
<g style="fill:#000000; fill-opacity:1.0000; stroke:none;">
<circle cx="129.6500" cy="41.7100" r="0.3000" /> 
</g>
<g style="fill:#000000; fill-opacity:1.0000; stroke:none;">
<circle cx="128.9500" cy="43.8100" r="0.3000" /> 
</g>
<g style="fill:#000000; fill-opacity:1.0000; stroke:none;">
<circle cx="128.9500" cy="42.4100" r="0.3000" /> 
<path style="fill:#000000; fill-opacity:1.0000; stroke:none;fill-rule:evenodd;"
d="M 136.0500,113.3650
136.0310,113.4607
135.9768,113.5418
135.8957,113.5960
135.8000,113.6150
135.3000,113.6150
135.2043,113.5960
135.1232,113.5418
135.0690,113.4607
135.0500,113.3650
135.0500,112.4150
135.0690,112.3193
135.1232,112.2382
135.2043,112.1840
135.3000,112.1650
135.8000,112.1650
135.8957,112.1840
135.9768,112.2382
136.0310,112.3193
136.0500,112.4150
Z" /> 
<path style="fill:#000000; fill-opacity:1.0000; stroke:none;fill-rule:evenodd;"
d="M 134.1500,113.3650
134.1310,113.4607
134.0768,113.5418
133.9957,113.5960
133.9000,113.6150
133.4000,113.6150
133.3043,113.5960
133.2232,113.5418
133.1690,113.4607
133.1500,113.3650
133.1500,112.4150
133.1690,112.3193
133.2232,112.2382
133.3043,112.1840
133.4000,112.1650
133.9000,112.1650
133.9957,112.1840
134.0768,112.2382
134.1310,112.3193
134.1500,112.4150
Z" /> 
<path style="fill:#000000; fill-opacity:1.0000; stroke:none;fill-rule:evenodd;"
d="M 137.8550,124.3200
137.8360,124.4157
137.7818,124.4968
137.7007,124.5510
137.6050,124.5700
137.0800,124.5700
136.9843,124.5510
136.9032,124.4968
136.8490,124.4157
136.8300,124.3200
136.8300,123.4200
136.8490,123.3243
136.9032,123.2432
136.9843,123.1890
137.0800,123.1700
137.6050,123.1700
137.7007,123.1890
137.7818,123.2432
137.8360,123.3243
137.8550,123.4200
Z" /> 
<path style="fill:#000000; fill-opacity:1.0000; stroke:none;fill-rule:evenodd;"
d="M 136.0300,124.3200
136.0110,124.4157
135.9568,124.4968
135.8757,124.5510
135.7800,124.5700
135.2550,124.5700
135.1593,124.5510
135.0782,124.4968
135.0240,124.4157
135.0050,124.3200
135.0050,123.4200
135.0240,123.3243
135.0782,123.2432
135.1593,123.1890
135.2550,123.1700
135.7800,123.1700
135.8757,123.1890
135.9568,123.2432
136.0110,123.3243
136.0300,123.4200
Z" /> 
<path style="fill:#000000; fill-opacity:1.0000; stroke:none;fill-rule:evenodd;"
d="M 104.0814,96.8000
104.1771,96.8190
104.2582,96.8732
104.3124,96.9543
104.3314,97.0500
104.3314,97.5750
104.3124,97.6707
104.2582,97.7518
104.1771,97.8060
104.0814,97.8250
103.1814,97.8250
103.0857,97.8060
103.0046,97.7518
102.9504,97.6707
102.9314,97.5750
102.9314,97.0500
102.9504,96.9543
103.0046,96.8732
103.0857,96.8190
103.1814,96.8000
Z" /> 
<path style="fill:#000000; fill-opacity:1.0000; stroke:none;fill-rule:evenodd;"
d="M 104.0814,98.6250
104.1771,98.6440
104.2582,98.6982
104.3124,98.7793
104.3314,98.8750
104.3314,99.4000
104.3124,99.4957
104.2582,99.5768
104.1771,99.6310
104.0814,99.6500
103.1814,99.6500
103.0857,99.6310
103.0046,99.5768
102.9504,99.4957
102.9314,99.4000
102.9314,98.8750
102.9504,98.7793
103.0046,98.6982
103.0857,98.6440
103.1814,98.6250
Z" /> 
<path style="fill:#000000; fill-opacity:1.0000; stroke:none;fill-rule:evenodd;"
d="M 107.4100,46.6550
107.5057,46.6740
107.5868,46.7282
107.6410,46.8093
107.6600,46.9050
107.6600,47.4300
107.6410,47.5257
107.5868,47.6068
107.5057,47.6610
107.4100,47.6800
106.5100,47.6800
106.4143,47.6610
106.3332,47.6068
106.2790,47.5257
106.2600,47.4300
106.2600,46.9050
106.2790,46.8093
106.3332,46.7282
106.4143,46.6740
106.5100,46.6550
Z" /> 
<path style="fill:#000000; fill-opacity:1.0000; stroke:none;fill-rule:evenodd;"
d="M 107.4100,48.4800
107.5057,48.4990
107.5868,48.5532
107.6410,48.6343
107.6600,48.7300
107.6600,49.2550
107.6410,49.3507
107.5868,49.4318
107.5057,49.4860
107.4100,49.5050
106.5100,49.5050
106.4143,49.4860
106.3332,49.4318
106.2790,49.3507
106.2600,49.2550
106.2600,48.7300
106.2790,48.6343
106.3332,48.5532
106.4143,48.4990
106.5100,48.4800
Z" /> 
<path style="fill:#000000; fill-opacity:1.0000; stroke:none;fill-rule:evenodd;"
d="M 116.8700,52.6050
116.9657,52.6240
117.0468,52.6782
117.1010,52.7593
117.1200,52.8550
117.1200,53.3800
117.1010,53.4757
117.0468,53.5568
116.9657,53.6110
116.8700,53.6300
115.9700,53.6300
115.8743,53.6110
115.7932,53.5568
115.7390,53.4757
115.7200,53.3800
115.7200,52.8550
115.7390,52.7593
115.7932,52.6782
115.8743,52.6240
115.9700,52.6050
Z" /> 
<path style="fill:#000000; fill-opacity:1.0000; stroke:none;fill-rule:evenodd;"
d="M 116.8700,54.4300
116.9657,54.4490
117.0468,54.5032
117.1010,54.5843
117.1200,54.6800
117.1200,55.2050
117.1010,55.3007
117.0468,55.3818
116.9657,55.4360
116.8700,55.4550
115.9700,55.4550
115.8743,55.4360
115.7932,55.3818
115.7390,55.3007
115.7200,55.2050
115.7200,54.6800
115.7390,54.5843
115.7932,54.5032
115.8743,54.4490
115.9700,54.4300
Z" /> 
<path style="fill:#000000; fill-opacity:1.0000; stroke:none;fill-rule:evenodd;"
d="M 150.5650,36.8400
150.5460,36.9357
150.4918,37.0168
150.4107,37.0710
150.3150,37.0900
149.7900,37.0900
149.6943,37.0710
149.6132,37.0168
149.5590,36.9357
149.5400,36.8400
149.5400,35.9400
149.5590,35.8443
149.6132,35.7632
149.6943,35.7090
149.7900,35.6900
150.3150,35.6900
150.4107,35.7090
150.4918,35.7632
150.5460,35.8443
150.5650,35.9400
Z" /> 
<path style="fill:#000000; fill-opacity:1.0000; stroke:none;fill-rule:evenodd;"
d="M 148.7400,36.8400
148.7210,36.9357
148.6668,37.0168
148.5857,37.0710
148.4900,37.0900
147.9650,37.0900
147.8693,37.0710
147.7882,37.0168
147.7340,36.9357
147.7150,36.8400
147.7150,35.9400
147.7340,35.8443
147.7882,35.7632
147.8693,35.7090
147.9650,35.6900
148.4900,35.6900
148.5857,35.7090
148.6668,35.7632
148.7210,35.8443
148.7400,35.9400
Z" /> 
</g>
<g style="fill:#000000; fill-opacity:1.0000; stroke:none;">
<circle cx="101.0800" cy="31.5300" r="0.5000" /> 
</g>
<g style="fill:#000000; fill-opacity:1.0000; stroke:none;">
<circle cx="109.0800" cy="31.5300" r="0.5000" /> 
<path style="fill:#000000; fill-opacity:1.0000; stroke:none;fill-rule:evenodd;"
d="M 107.8280,41.7300
107.8358,41.6910
107.8579,41.6579
107.8910,41.6358
107.9300,41.6280
108.6300,41.6280
108.6690,41.6358
108.7021,41.6579
108.7242,41.6910
108.7320,41.7300
108.7320,43.3300
108.7242,43.3690
108.7021,43.4021
108.6690,43.4242
108.6300,43.4320
107.9300,43.4320
107.8910,43.4242
107.8579,43.4021
107.8358,43.3690
107.8280,43.3300
Z" /> 
<path style="fill:#000000; fill-opacity:1.0000; stroke:none;fill-rule:evenodd;"
d="M 106.7280,41.7300
106.7358,41.6910
106.7579,41.6579
106.7910,41.6358
106.8300,41.6280
107.5300,41.6280
107.5690,41.6358
107.6021,41.6579
107.6242,41.6910
107.6320,41.7300
107.6320,43.3300
107.6242,43.3690
107.6021,43.4021
107.5690,43.4242
107.5300,43.4320
106.8300,43.4320
106.7910,43.4242
106.7579,43.4021
106.7358,43.3690
106.7280,43.3300
Z" /> 
<path style="fill:#000000; fill-opacity:1.0000; stroke:none;fill-rule:evenodd;"
d="M 105.6280,41.7300
105.6358,41.6910
105.6579,41.6579
105.6910,41.6358
105.7300,41.6280
106.4300,41.6280
106.4690,41.6358
106.5021,41.6579
106.5242,41.6910
106.5320,41.7300
106.5320,43.3300
106.5242,43.3690
106.5021,43.4021
106.4690,43.4242
106.4300,43.4320
105.7300,43.4320
105.6910,43.4242
105.6579,43.4021
105.6358,43.3690
105.6280,43.3300
Z" /> 
<path style="fill:#000000; fill-opacity:1.0000; stroke:none;fill-rule:evenodd;"
d="M 104.5280,41.7300
104.5358,41.6910
104.5579,41.6579
104.5910,41.6358
104.6300,41.6280
105.3300,41.6280
105.3690,41.6358
105.4021,41.6579
105.4242,41.6910
105.4320,41.7300
105.4320,43.3300
105.4242,43.3690
105.4021,43.4021
105.3690,43.4242
105.3300,43.4320
104.6300,43.4320
104.5910,43.4242
104.5579,43.4021
104.5358,43.3690
104.5280,43.3300
Z" /> 
<path style="fill:#000000; fill-opacity:1.0000; stroke:none;fill-rule:evenodd;"
d="M 103.4280,41.7300
103.4358,41.6910
103.4579,41.6579
103.4910,41.6358
103.5300,41.6280
104.2300,41.6280
104.2690,41.6358
104.3021,41.6579
104.3242,41.6910
104.3320,41.7300
104.3320,43.3300
104.3242,43.3690
104.3021,43.4021
104.2690,43.4242
104.2300,43.4320
103.5300,43.4320
103.4910,43.4242
103.4579,43.4021
103.4358,43.3690
103.4280,43.3300
Z" /> 
<path style="fill:#000000; fill-opacity:1.0000; stroke:none;fill-rule:evenodd;"
d="M 102.3280,41.7300
102.3358,41.6910
102.3579,41.6579
102.3910,41.6358
102.4300,41.6280
103.1300,41.6280
103.1690,41.6358
103.2021,41.6579
103.2242,41.6910
103.2320,41.7300
103.2320,43.3300
103.2242,43.3690
103.2021,43.4021
103.1690,43.4242
103.1300,43.4320
102.4300,43.4320
102.3910,43.4242
102.3579,43.4021
102.3358,43.3690
102.3280,43.3300
Z" /> 
<path style="fill:#000000; fill-opacity:1.0000; stroke:none;fill-rule:evenodd;"
d="M 101.2280,41.7300
101.2358,41.6910
101.2579,41.6579
101.2910,41.6358
101.3300,41.6280
102.0300,41.6280
102.0690,41.6358
102.1021,41.6579
102.1242,41.6910
102.1320,41.7300
102.1320,43.3300
102.1242,43.3690
102.1021,43.4021
102.0690,43.4242
102.0300,43.4320
101.3300,43.4320
101.2910,43.4242
101.2579,43.4021
101.2358,43.3690
101.2280,43.3300
Z" /> 
<path style="fill:#000000; fill-opacity:1.0000; stroke:none;fill-rule:evenodd;"
d="M 100.1280,41.7300
100.1358,41.6910
100.1579,41.6579
100.1910,41.6358
100.2300,41.6280
100.9300,41.6280
100.9690,41.6358
101.0021,41.6579
101.0242,41.6910
101.0320,41.7300
101.0320,43.3300
101.0242,43.3690
101.0021,43.4021
100.9690,43.4242
100.9300,43.4320
100.2300,43.4320
100.1910,43.4242
100.1579,43.4021
100.1358,43.3690
100.1280,43.3300
Z" /> 
<path style="fill:#000000; fill-opacity:1.0000; stroke:none;fill-rule:evenodd;"
d="M 99.0280,41.7300
99.0358,41.6910
99.0579,41.6579
99.0910,41.6358
99.1300,41.6280
99.8300,41.6280
99.8690,41.6358
99.9021,41.6579
99.9242,41.6910
99.9320,41.7300
99.9320,43.3300
99.9242,43.3690
99.9021,43.4021
99.8690,43.4242
99.8300,43.4320
99.1300,43.4320
99.0910,43.4242
99.0579,43.4021
99.0358,43.3690
99.0280,43.3300
Z" /> 
<path style="fill:#000000; fill-opacity:1.0000; stroke:none;fill-rule:evenodd;"
d="M 97.5780,40.3300
97.5858,40.2910
97.6079,40.2579
97.6410,40.2358
97.6800,40.2280
98.8800,40.2280
98.9190,40.2358
98.9521,40.2579
98.9742,40.2910
98.9820,40.3300
98.9820,42.1300
98.9742,42.1690
98.9521,42.2021
98.9190,42.2242
98.8800,42.2320
97.6800,42.2320
97.6410,42.2242
97.6079,42.2021
97.5858,42.1690
97.5780,42.1300
Z" /> 
<path style="fill:#000000; fill-opacity:1.0000; stroke:none;fill-rule:evenodd;"
d="M 111.9780,40.7300
111.9858,40.6910
112.0079,40.6579
112.0410,40.6358
112.0800,40.6280
113.6800,40.6280
113.7190,40.6358
113.7521,40.6579
113.7742,40.6910
113.7820,40.7300
113.7820,42.2300
113.7742,42.2690
113.7521,42.3021
113.7190,42.3242
113.6800,42.3320
112.0800,42.3320
112.0410,42.3242
112.0079,42.3021
111.9858,42.2690
111.9780,42.2300
Z" /> 
<path style="fill:#000000; fill-opacity:1.0000; stroke:none;fill-rule:evenodd;"
d="M 97.5780,30.8300
97.5858,30.7910
97.6079,30.7579
97.6410,30.7358
97.6800,30.7280
98.8800,30.7280
98.9190,30.7358
98.9521,30.7579
98.9742,30.7910
98.9820,30.8300
98.9820,33.0300
98.9742,33.0690
98.9521,33.1021
98.9190,33.1242
98.8800,33.1320
97.6800,33.1320
97.6410,33.1242
97.6079,33.1021
97.5858,33.0690
97.5780,33.0300
Z" /> 
<path style="fill:#000000; fill-opacity:1.0000; stroke:none;fill-rule:evenodd;"
d="M 113.0780,30.8300
113.0858,30.7910
113.1079,30.7579
113.1410,30.7358
113.1800,30.7280
114.3800,30.7280
114.4190,30.7358
114.4521,30.7579
114.4742,30.7910
114.4820,30.8300
114.4820,33.0300
114.4742,33.0690
114.4521,33.1021
114.4190,33.1242
114.3800,33.1320
113.1800,33.1320
113.1410,33.1242
113.1079,33.1021
113.0858,33.0690
113.0780,33.0300
Z" /> 
<path style="fill:#000000; fill-opacity:1.0000; stroke:none;fill-rule:evenodd;"
d="M 144.0500,109.5350
144.0690,109.4393
144.1232,109.3582
144.2043,109.3040
144.3000,109.2850
144.8000,109.2850
144.8957,109.3040
144.9768,109.3582
145.0310,109.4393
145.0500,109.5350
145.0500,110.4850
145.0310,110.5807
144.9768,110.6618
144.8957,110.7160
144.8000,110.7350
144.3000,110.7350
144.2043,110.7160
144.1232,110.6618
144.0690,110.5807
144.0500,110.4850
Z" /> 
<path style="fill:#000000; fill-opacity:1.0000; stroke:none;fill-rule:evenodd;"
d="M 145.9500,109.5350
145.9690,109.4393
146.0232,109.3582
146.1043,109.3040
146.2000,109.2850
146.7000,109.2850
146.7957,109.3040
146.8768,109.3582
146.9310,109.4393
146.9500,109.5350
146.9500,110.4850
146.9310,110.5807
146.8768,110.6618
146.7957,110.7160
146.7000,110.7350
146.2000,110.7350
146.1043,110.7160
146.0232,110.6618
145.9690,110.5807
145.9500,110.4850
Z" /> 
<path style="fill:#000000; fill-opacity:1.0000; stroke:none;fill-rule:evenodd;"
d="M 142.4550,123.4200
142.4740,123.3243
142.5282,123.2432
142.6093,123.1890
142.7050,123.1700
143.2300,123.1700
143.3257,123.1890
143.4068,123.2432
143.4610,123.3243
143.4800,123.4200
143.4800,124.3200
143.4610,124.4157
143.4068,124.4968
143.3257,124.5510
143.2300,124.5700
142.7050,124.5700
142.6093,124.5510
142.5282,124.4968
142.4740,124.4157
142.4550,124.3200
Z" /> 
<path style="fill:#000000; fill-opacity:1.0000; stroke:none;fill-rule:evenodd;"
d="M 144.2800,123.4200
144.2990,123.3243
144.3532,123.2432
144.4343,123.1890
144.5300,123.1700
145.0550,123.1700
145.1507,123.1890
145.2318,123.2432
145.2860,123.3243
145.3050,123.4200
145.3050,124.3200
145.2860,124.4157
145.2318,124.4968
145.1507,124.5510
145.0550,124.5700
144.5300,124.5700
144.4343,124.5510
144.3532,124.4968
144.2990,124.4157
144.2800,124.3200
Z" /> 
<path style="fill:#000000; fill-opacity:1.0000; stroke:none;fill-rule:evenodd;"
d="M 104.1950,49.4800
104.0993,49.4610
104.0182,49.4068
103.9640,49.3257
103.9450,49.2300
103.9450,48.7300
103.9640,48.6343
104.0182,48.5532
104.0993,48.4990
104.1950,48.4800
105.1450,48.4800
105.2407,48.4990
105.3218,48.5532
105.3760,48.6343
105.3950,48.7300
105.3950,49.2300
105.3760,49.3257
105.3218,49.4068
105.2407,49.4610
105.1450,49.4800
Z" /> 
<path style="fill:#000000; fill-opacity:1.0000; stroke:none;fill-rule:evenodd;"
d="M 104.1950,47.5800
104.0993,47.5610
104.0182,47.5068
103.9640,47.4257
103.9450,47.3300
103.9450,46.8300
103.9640,46.7343
104.0182,46.6532
104.0993,46.5990
104.1950,46.5800
105.1450,46.5800
105.2407,46.5990
105.3218,46.6532
105.3760,46.7343
105.3950,46.8300
105.3950,47.3300
105.3760,47.4257
105.3218,47.5068
105.2407,47.5610
105.1450,47.5800
Z" /> 
<path style="fill:#000000; fill-opacity:1.0000; stroke:none;fill-rule:evenodd;"
d="M 92.1425,100.1200
92.1615,100.0243
92.2157,99.9432
92.2968,99.8890
92.3925,99.8700
92.9175,99.8700
93.0132,99.8890
93.0943,99.9432
93.1485,100.0243
93.1675,100.1200
93.1675,101.0200
93.1485,101.1157
93.0943,101.1968
93.0132,101.2510
92.9175,101.2700
92.3925,101.2700
92.2968,101.2510
92.2157,101.1968
92.1615,101.1157
92.1425,101.0200
Z" /> 
<path style="fill:#000000; fill-opacity:1.0000; stroke:none;fill-rule:evenodd;"
d="M 93.9675,100.1200
93.9865,100.0243
94.0407,99.9432
94.1218,99.8890
94.2175,99.8700
94.7425,99.8700
94.8382,99.8890
94.9193,99.9432
94.9735,100.0243
94.9925,100.1200
94.9925,101.0200
94.9735,101.1157
94.9193,101.1968
94.8382,101.2510
94.7425,101.2700
94.2175,101.2700
94.1218,101.2510
94.0407,101.1968
93.9865,101.1157
93.9675,101.0200
Z" /> 
<path style="fill:#000000; fill-opacity:1.0000; stroke:none;fill-rule:evenodd;"
d="M 150.5850,44.7600
150.5660,44.8557
150.5118,44.9368
150.4307,44.9910
150.3350,45.0100
149.8100,45.0100
149.7143,44.9910
149.6332,44.9368
149.5790,44.8557
149.5600,44.7600
149.5600,43.8600
149.5790,43.7643
149.6332,43.6832
149.7143,43.6290
149.8100,43.6100
150.3350,43.6100
150.4307,43.6290
150.5118,43.6832
150.5660,43.7643
150.5850,43.8600
Z" /> 
<path style="fill:#000000; fill-opacity:1.0000; stroke:none;fill-rule:evenodd;"
d="M 148.7600,44.7600
148.7410,44.8557
148.6868,44.9368
148.6057,44.9910
148.5100,45.0100
147.9850,45.0100
147.8893,44.9910
147.8082,44.9368
147.7540,44.8557
147.7350,44.7600
147.7350,43.8600
147.7540,43.7643
147.8082,43.6832
147.8893,43.6290
147.9850,43.6100
148.5100,43.6100
148.6057,43.6290
148.6868,43.6832
148.7410,43.7643
148.7600,43.8600
Z" /> 
<path style="fill:#000000; fill-opacity:1.0000; stroke:none;fill-rule:evenodd;"
d="M 101.9250,49.4800
101.8293,49.4610
101.7482,49.4068
101.6940,49.3257
101.6750,49.2300
101.6750,48.7300
101.6940,48.6343
101.7482,48.5532
101.8293,48.4990
101.9250,48.4800
102.8750,48.4800
102.9707,48.4990
103.0518,48.5532
103.1060,48.6343
103.1250,48.7300
103.1250,49.2300
103.1060,49.3257
103.0518,49.4068
102.9707,49.4610
102.8750,49.4800
Z" /> 
<path style="fill:#000000; fill-opacity:1.0000; stroke:none;fill-rule:evenodd;"
d="M 101.9250,47.5800
101.8293,47.5610
101.7482,47.5068
101.6940,47.4257
101.6750,47.3300
101.6750,46.8300
101.6940,46.7343
101.7482,46.6532
101.8293,46.5990
101.9250,46.5800
102.8750,46.5800
102.9707,46.5990
103.0518,46.6532
103.1060,46.7343
103.1250,46.8300
103.1250,47.3300
103.1060,47.4257
103.0518,47.5068
102.9707,47.5610
102.8750,47.5800
Z" /> 
<path style="fill:#000000; fill-opacity:1.0000; stroke:none;fill-rule:evenodd;"
d="M 113.4950,45.5700
113.4760,45.6657
113.4218,45.7468
113.3407,45.8010
113.2450,45.8200
112.7200,45.8200
112.6243,45.8010
112.5432,45.7468
112.4890,45.6657
112.4700,45.5700
112.4700,44.6700
112.4890,44.5743
112.5432,44.4932
112.6243,44.4390
112.7200,44.4200
113.2450,44.4200
113.3407,44.4390
113.4218,44.4932
113.4760,44.5743
113.4950,44.6700
Z" /> 
<path style="fill:#000000; fill-opacity:1.0000; stroke:none;fill-rule:evenodd;"
d="M 111.6700,45.5700
111.6510,45.6657
111.5968,45.7468
111.5157,45.8010
111.4200,45.8200
110.8950,45.8200
110.7993,45.8010
110.7182,45.7468
110.6640,45.6657
110.6450,45.5700
110.6450,44.6700
110.6640,44.5743
110.7182,44.4932
110.7993,44.4390
110.8950,44.4200
111.4200,44.4200
111.5157,44.4390
111.5968,44.4932
111.6510,44.5743
111.6700,44.6700
Z" /> 
<path style="fill:#000000; fill-opacity:1.0000; stroke:none;fill-rule:evenodd;"
d="M 138.7300,123.4200
138.7490,123.3243
138.8032,123.2432
138.8843,123.1890
138.9800,123.1700
139.5050,123.1700
139.6007,123.1890
139.6818,123.2432
139.7360,123.3243
139.7550,123.4200
139.7550,124.3200
139.7360,124.4157
139.6818,124.4968
139.6007,124.5510
139.5050,124.5700
138.9800,124.5700
138.8843,124.5510
138.8032,124.4968
138.7490,124.4157
138.7300,124.3200
Z" /> 
<path style="fill:#000000; fill-opacity:1.0000; stroke:none;fill-rule:evenodd;"
d="M 140.5550,123.4200
140.5740,123.3243
140.6282,123.2432
140.7093,123.1890
140.8050,123.1700
141.3300,123.1700
141.4257,123.1890
141.5068,123.2432
141.5610,123.3243
141.5800,123.4200
141.5800,124.3200
141.5610,124.4157
141.5068,124.4968
141.4257,124.5510
141.3300,124.5700
140.8050,124.5700
140.7093,124.5510
140.6282,124.4968
140.5740,124.4157
140.5550,124.3200
Z" /> 
</g> 
</svg>
