%TF.GenerationSoftware,KiCad,Pcbnew,9.0.6*%
%TF.CreationDate,2026-01-27T22:48:50+01:00*%
%TF.ProjectId,rayman_main,7261796d-616e-45f6-9d61-696e2e6b6963,rev?*%
%TF.SameCoordinates,Original*%
%TF.FileFunction,Soldermask,Top*%
%TF.FilePolarity,Negative*%
%FSLAX46Y46*%
G04 Gerber Fmt 4.6, Leading zero omitted, Abs format (unit mm)*
G04 Created by KiCad (PCBNEW 9.0.6) date 2026-01-27 22:48:50*
%MOMM*%
%LPD*%
G01*
G04 APERTURE LIST*
G04 Aperture macros list*
%AMRoundRect*
0 Rectangle with rounded corners*
0 $1 Rounding radius*
0 $2 $3 $4 $5 $6 $7 $8 $9 X,Y pos of 4 corners*
0 Add a 4 corners polygon primitive as box body*
4,1,4,$2,$3,$4,$5,$6,$7,$8,$9,$2,$3,0*
0 Add four circle primitives for the rounded corners*
1,1,$1+$1,$2,$3*
1,1,$1+$1,$4,$5*
1,1,$1+$1,$6,$7*
1,1,$1+$1,$8,$9*
0 Add four rect primitives between the rounded corners*
20,1,$1+$1,$2,$3,$4,$5,0*
20,1,$1+$1,$4,$5,$6,$7,0*
20,1,$1+$1,$6,$7,$8,$9,0*
20,1,$1+$1,$8,$9,$2,$3,0*%
G04 Aperture macros list end*
%ADD10RoundRect,0.250000X-0.250000X-0.475000X0.250000X-0.475000X0.250000X0.475000X-0.250000X0.475000X0*%
%ADD11RoundRect,0.250000X-0.600000X-0.750000X0.600000X-0.750000X0.600000X0.750000X-0.600000X0.750000X0*%
%ADD12O,1.700000X2.000000*%
%ADD13RoundRect,0.150000X-0.150000X0.825000X-0.150000X-0.825000X0.150000X-0.825000X0.150000X0.825000X0*%
%ADD14C,2.000000*%
%ADD15RoundRect,0.250000X-0.550000X-0.550000X0.550000X-0.550000X0.550000X0.550000X-0.550000X0.550000X0*%
%ADD16C,1.600000*%
%ADD17RoundRect,0.250000X-0.262500X-0.450000X0.262500X-0.450000X0.262500X0.450000X-0.262500X0.450000X0*%
%ADD18RoundRect,0.102000X-2.120900X-1.905000X2.120900X-1.905000X2.120900X1.905000X-2.120900X1.905000X0*%
%ADD19RoundRect,0.102000X2.120900X1.905000X-2.120900X1.905000X-2.120900X-1.905000X2.120900X-1.905000X0*%
%ADD20RoundRect,0.243750X0.456250X-0.243750X0.456250X0.243750X-0.456250X0.243750X-0.456250X-0.243750X0*%
%ADD21RoundRect,0.250000X0.262500X0.450000X-0.262500X0.450000X-0.262500X-0.450000X0.262500X-0.450000X0*%
%ADD22RoundRect,0.102000X-0.654000X0.654000X-0.654000X-0.654000X0.654000X-0.654000X0.654000X0.654000X0*%
%ADD23C,1.512000*%
%ADD24RoundRect,0.243750X0.243750X0.456250X-0.243750X0.456250X-0.243750X-0.456250X0.243750X-0.456250X0*%
%ADD25RoundRect,0.102000X0.570000X-0.570000X0.570000X0.570000X-0.570000X0.570000X-0.570000X-0.570000X0*%
%ADD26C,1.344000*%
%ADD27RoundRect,0.250000X-1.000000X-0.900000X1.000000X-0.900000X1.000000X0.900000X-1.000000X0.900000X0*%
%ADD28C,3.250000*%
%ADD29R,1.500000X1.500000*%
%ADD30C,1.500000*%
%ADD31C,2.300000*%
%ADD32RoundRect,0.250000X0.475000X-0.250000X0.475000X0.250000X-0.475000X0.250000X-0.475000X-0.250000X0*%
%ADD33RoundRect,0.150000X0.625000X-0.150000X0.625000X0.150000X-0.625000X0.150000X-0.625000X-0.150000X0*%
%ADD34RoundRect,0.250000X0.650000X-0.350000X0.650000X0.350000X-0.650000X0.350000X-0.650000X-0.350000X0*%
%ADD35C,1.800000*%
%ADD36RoundRect,0.250000X0.250000X0.475000X-0.250000X0.475000X-0.250000X-0.475000X0.250000X-0.475000X0*%
%ADD37C,4.700000*%
%ADD38R,1.200000X2.500000*%
%ADD39RoundRect,0.250000X-0.550000X1.500000X-0.550000X-1.500000X0.550000X-1.500000X0.550000X1.500000X0*%
%ADD40RoundRect,0.243750X-0.243750X-0.456250X0.243750X-0.456250X0.243750X0.456250X-0.243750X0.456250X0*%
%ADD41RoundRect,0.250000X-1.425000X0.362500X-1.425000X-0.362500X1.425000X-0.362500X1.425000X0.362500X0*%
%ADD42RoundRect,0.250000X1.050000X-1.050000X1.050000X1.050000X-1.050000X1.050000X-1.050000X-1.050000X0*%
%ADD43C,2.600000*%
%ADD44RoundRect,0.243750X-0.456250X0.243750X-0.456250X-0.243750X0.456250X-0.243750X0.456250X0.243750X0*%
%ADD45RoundRect,0.100000X0.100000X-0.850000X0.100000X0.850000X-0.100000X0.850000X-0.100000X-0.850000X0*%
%ADD46RoundRect,0.250000X0.450000X-0.262500X0.450000X0.262500X-0.450000X0.262500X-0.450000X-0.262500X0*%
%ADD47RoundRect,0.250000X-0.450000X0.262500X-0.450000X-0.262500X0.450000X-0.262500X0.450000X0.262500X0*%
%ADD48RoundRect,0.250000X-0.600000X-0.725000X0.600000X-0.725000X0.600000X0.725000X-0.600000X0.725000X0*%
%ADD49O,1.700000X1.950000*%
%ADD50RoundRect,0.250000X-1.000000X-0.650000X1.000000X-0.650000X1.000000X0.650000X-1.000000X0.650000X0*%
%ADD51RoundRect,0.147500X0.001851X-0.226956X0.224490X-0.033419X-0.001851X0.226956X-0.224490X0.033419X0*%
%ADD52RoundRect,0.250000X-0.475000X0.250000X-0.475000X-0.250000X0.475000X-0.250000X0.475000X0.250000X0*%
%ADD53C,2.700000*%
%ADD54C,3.000000*%
%ADD55RoundRect,0.250000X-1.045000X0.785000X-1.045000X-0.785000X1.045000X-0.785000X1.045000X0.785000X0*%
%ADD56RoundRect,0.250000X-0.750000X0.600000X-0.750000X-0.600000X0.750000X-0.600000X0.750000X0.600000X0*%
%ADD57O,2.000000X1.700000*%
%ADD58R,2.400000X2.400000*%
%ADD59C,2.400000*%
%ADD60RoundRect,0.147500X0.029496X-0.225039X0.226889X-0.005811X-0.029496X0.225039X-0.226889X0.005811X0*%
%ADD61C,1.000000*%
G04 APERTURE END LIST*
D10*
%TO.C,C12*%
X98290000Y-77570000D03*
X100190000Y-77570000D03*
%TD*%
D11*
%TO.C,M2*%
X88090000Y-121525000D03*
D12*
X85590000Y-121525000D03*
%TD*%
D13*
%TO.C,CAN1*%
X120647500Y-90635000D03*
X119377500Y-90635000D03*
X118107500Y-90635000D03*
X116837500Y-90635000D03*
X116837500Y-95585000D03*
X118107500Y-95585000D03*
X119377500Y-95585000D03*
X120647500Y-95585000D03*
%TD*%
D14*
%TO.C,C22*%
X144230000Y-63000000D03*
X144230000Y-70500000D03*
%TD*%
D15*
%TO.C,SW_CAN_T1*%
X117025000Y-102542500D03*
D16*
X124645000Y-102542500D03*
%TD*%
D17*
%TO.C,R6*%
X118937500Y-82380000D03*
X120762500Y-82380000D03*
%TD*%
D18*
%TO.C,1\u002C0A_FUSE1*%
X129532300Y-108740000D03*
X135907700Y-108740000D03*
%TD*%
D19*
%TO.C,T1A_FUSE2*%
X88967700Y-95150000D03*
X82592300Y-95150000D03*
%TD*%
D20*
%TO.C,D10*%
X114520000Y-110917500D03*
X114520000Y-109042500D03*
%TD*%
D17*
%TO.C,R7*%
X118937500Y-85200000D03*
X120762500Y-85200000D03*
%TD*%
D21*
%TO.C,R15*%
X87510000Y-82910000D03*
X85685000Y-82910000D03*
%TD*%
D22*
%TO.C,DF_MUSIC1*%
X90410000Y-35880000D03*
D23*
X87870000Y-35880000D03*
X85330000Y-35880000D03*
X82790000Y-35880000D03*
X80250000Y-35880000D03*
X77710000Y-35880000D03*
X75170000Y-35880000D03*
X72630000Y-35880000D03*
X72630000Y-53914000D03*
X75170000Y-53914000D03*
X77710000Y-53914000D03*
X80250000Y-53914000D03*
X82790000Y-53914000D03*
X85330000Y-53914000D03*
X87870000Y-53914000D03*
X90410000Y-53914000D03*
%TD*%
D24*
%TO.C,D11*%
X73097500Y-123490000D03*
X71222500Y-123490000D03*
%TD*%
D25*
%TO.C,U2*%
X97222500Y-88975000D03*
D26*
X99762500Y-88975000D03*
X102302500Y-88975000D03*
X104842500Y-88975000D03*
X107382500Y-88975000D03*
X109922500Y-88975000D03*
X112462500Y-88975000D03*
X112462500Y-81035000D03*
X109922500Y-81035000D03*
X107382500Y-81035000D03*
X104842500Y-81035000D03*
X102302500Y-81035000D03*
X99762500Y-81035000D03*
X97222500Y-81035000D03*
%TD*%
D27*
%TO.C,D2*%
X130592500Y-102722322D03*
X134892500Y-102722322D03*
%TD*%
D28*
%TO.C,RJ_LED1*%
X111046000Y-123770000D03*
X98346000Y-123770000D03*
D29*
X108256000Y-121230000D03*
D30*
X107240000Y-119450000D03*
X106224000Y-121230000D03*
X105208000Y-119450000D03*
X104192000Y-121230000D03*
X103176000Y-119450000D03*
X102160000Y-121230000D03*
X101144000Y-119450000D03*
D31*
X112826000Y-120340000D03*
X96566000Y-120340000D03*
%TD*%
D20*
%TO.C,D9*%
X111670000Y-110917500D03*
X111670000Y-109042500D03*
%TD*%
D32*
%TO.C,C6*%
X83457500Y-85020000D03*
X83457500Y-83120000D03*
%TD*%
D33*
%TO.C,PROG1*%
X106805000Y-53720000D03*
X106805000Y-52720000D03*
X106805000Y-51720000D03*
X106805000Y-50720000D03*
X106805000Y-49720000D03*
D34*
X104280000Y-55020000D03*
X104280000Y-48420000D03*
%TD*%
D35*
%TO.C,RV1*%
X132180000Y-78230000D03*
X130880000Y-85730000D03*
%TD*%
D20*
%TO.C,D15*%
X142830000Y-40657500D03*
X142830000Y-38782500D03*
%TD*%
D17*
%TO.C,R16*%
X88717500Y-105870000D03*
X90542500Y-105870000D03*
%TD*%
D36*
%TO.C,C15*%
X135780000Y-39090000D03*
X133880000Y-39090000D03*
%TD*%
D37*
%TO.C,REF\u002A\u002A*%
X151440000Y-114890000D03*
%TD*%
D30*
%TO.C,AUDIO1*%
X71390000Y-82410000D03*
X78390000Y-82410000D03*
D38*
X75990000Y-79160000D03*
X72990000Y-79160000D03*
X81090000Y-85660000D03*
X79990000Y-79160000D03*
%TD*%
D10*
%TO.C,C1*%
X133840000Y-41630000D03*
X135740000Y-41630000D03*
%TD*%
D39*
%TO.C,C3*%
X96910000Y-60380000D03*
X96910000Y-65780000D03*
%TD*%
D40*
%TO.C,D12*%
X71222500Y-120450000D03*
X73097500Y-120450000D03*
%TD*%
D10*
%TO.C,C2*%
X93900000Y-56480000D03*
X95800000Y-56480000D03*
%TD*%
D41*
%TO.C,R2*%
X136980000Y-66237500D03*
X136980000Y-72162500D03*
%TD*%
D28*
%TO.C,RJ_CAN1*%
X131076000Y-123770000D03*
X118376000Y-123770000D03*
D29*
X128286000Y-121230000D03*
D30*
X127270000Y-119450000D03*
X126254000Y-121230000D03*
X125238000Y-119450000D03*
X124222000Y-121230000D03*
X123206000Y-119450000D03*
X122190000Y-121230000D03*
X121174000Y-119450000D03*
D31*
X132856000Y-120340000D03*
X116596000Y-120340000D03*
%TD*%
D10*
%TO.C,C4*%
X95160000Y-38140000D03*
X97060000Y-38140000D03*
%TD*%
D17*
%TO.C,R14*%
X85685000Y-85250000D03*
X87510000Y-85250000D03*
%TD*%
D42*
%TO.C,FAN_L1*%
X152770000Y-69070000D03*
D43*
X152770000Y-64070000D03*
%TD*%
D11*
%TO.C,5VDC1*%
X149427500Y-121285000D03*
D12*
X151927500Y-121285000D03*
%TD*%
D10*
%TO.C,C9*%
X86280000Y-99130000D03*
X88180000Y-99130000D03*
%TD*%
D37*
%TO.C,REF\u002A\u002A*%
X75440000Y-31890000D03*
%TD*%
D36*
%TO.C,C10*%
X82060000Y-114290000D03*
X80160000Y-114290000D03*
%TD*%
D44*
%TO.C,D7*%
X135970000Y-119132500D03*
X135970000Y-121007500D03*
%TD*%
D45*
%TO.C,TB1*%
X79460000Y-110360000D03*
X80110000Y-110360000D03*
X80760000Y-110360000D03*
X81410000Y-110360000D03*
X82060000Y-110360000D03*
X82710000Y-110360000D03*
X83360000Y-110360000D03*
X84010000Y-110360000D03*
X84660000Y-110360000D03*
X85310000Y-110360000D03*
X85960000Y-110360000D03*
X86610000Y-110360000D03*
X86610000Y-103360000D03*
X85960000Y-103360000D03*
X85310000Y-103360000D03*
X84660000Y-103360000D03*
X84010000Y-103360000D03*
X83360000Y-103360000D03*
X82710000Y-103360000D03*
X82060000Y-103360000D03*
X81410000Y-103360000D03*
X80760000Y-103360000D03*
X80110000Y-103360000D03*
X79460000Y-103360000D03*
%TD*%
D46*
%TO.C,R22*%
X112170000Y-61332500D03*
X112170000Y-59507500D03*
%TD*%
D47*
%TO.C,R20*%
X91690000Y-86777500D03*
X91690000Y-88602500D03*
%TD*%
D21*
%TO.C,R24*%
X120762500Y-107740000D03*
X118937500Y-107740000D03*
%TD*%
D47*
%TO.C,R1*%
X125670000Y-96467500D03*
X125670000Y-98292500D03*
%TD*%
D24*
%TO.C,D14*%
X93757500Y-120520000D03*
X91882500Y-120520000D03*
%TD*%
D21*
%TO.C,R5*%
X120762500Y-79560000D03*
X118937500Y-79560000D03*
%TD*%
D17*
%TO.C,R9*%
X98417500Y-56480000D03*
X100242500Y-56480000D03*
%TD*%
D40*
%TO.C,D13*%
X91882500Y-123560000D03*
X93757500Y-123560000D03*
%TD*%
D47*
%TO.C,R10*%
X85787500Y-78867500D03*
X85787500Y-80692500D03*
%TD*%
D11*
%TO.C,M1*%
X76940000Y-121500000D03*
D12*
X79440000Y-121500000D03*
%TD*%
D48*
%TO.C,GOAL1*%
X147640000Y-39240000D03*
D49*
X150140000Y-39240000D03*
X152640000Y-39240000D03*
%TD*%
D36*
%TO.C,C8*%
X90550000Y-108120000D03*
X88650000Y-108120000D03*
%TD*%
D50*
%TO.C,D1*%
X144530000Y-109330000D03*
X148530000Y-109330000D03*
%TD*%
D36*
%TO.C,C14*%
X131720000Y-35500000D03*
X129820000Y-35500000D03*
%TD*%
D51*
%TO.C,D6*%
X97173966Y-106068189D03*
X97906034Y-105431811D03*
%TD*%
D32*
%TO.C,C20*%
X93400000Y-54600000D03*
X93400000Y-52700000D03*
%TD*%
D52*
%TO.C,C21*%
X93400000Y-39970000D03*
X93400000Y-41870000D03*
%TD*%
D20*
%TO.C,D3*%
X138150000Y-120967500D03*
X138150000Y-119092500D03*
%TD*%
D53*
%TO.C,F1*%
X141800000Y-87900000D03*
D54*
X141800000Y-76650000D03*
X141800000Y-99150000D03*
%TD*%
D55*
%TO.C,C7*%
X74910000Y-103830000D03*
X74910000Y-110070000D03*
%TD*%
D46*
%TO.C,R12*%
X85787500Y-89712500D03*
X85787500Y-87887500D03*
%TD*%
D10*
%TO.C,C11*%
X84300000Y-114490000D03*
X86200000Y-114490000D03*
%TD*%
D56*
%TO.C,12VDC1*%
X75430000Y-94740000D03*
D57*
X75430000Y-97240000D03*
%TD*%
D47*
%TO.C,R11*%
X88557500Y-78867500D03*
X88557500Y-80692500D03*
%TD*%
D20*
%TO.C,D16*%
X142830000Y-50017500D03*
X142830000Y-48142500D03*
%TD*%
D37*
%TO.C,REF\u002A\u002A*%
X152580000Y-31670000D03*
%TD*%
%TO.C,REF\u002A\u002A*%
X75440000Y-114890000D03*
%TD*%
D36*
%TO.C,C13*%
X131720000Y-38660000D03*
X129820000Y-38660000D03*
%TD*%
D39*
%TO.C,C5*%
X98170000Y-42780000D03*
X98170000Y-48180000D03*
%TD*%
D20*
%TO.C,D8*%
X140330000Y-120967500D03*
X140330000Y-119092500D03*
%TD*%
D22*
%TO.C,DF_SFX1*%
X90420000Y-57520000D03*
D23*
X87880000Y-57520000D03*
X85340000Y-57520000D03*
X82800000Y-57520000D03*
X80260000Y-57520000D03*
X77720000Y-57520000D03*
X75180000Y-57520000D03*
X72640000Y-57520000D03*
X72640000Y-75554000D03*
X75180000Y-75554000D03*
X77720000Y-75554000D03*
X80260000Y-75554000D03*
X82800000Y-75554000D03*
X85340000Y-75554000D03*
X87880000Y-75554000D03*
X90420000Y-75554000D03*
%TD*%
D48*
%TO.C,GOAL2*%
X147640000Y-48600000D03*
D49*
X150140000Y-48600000D03*
X152640000Y-48600000D03*
%TD*%
D58*
%TO.C,U4*%
X152427500Y-84982500D03*
D59*
X152427500Y-90022500D03*
D14*
X152427500Y-106402500D03*
X152427500Y-110182500D03*
%TD*%
D44*
%TO.C,D4*%
X142510000Y-119132500D03*
X142510000Y-121007500D03*
%TD*%
D60*
%TO.C,D5*%
X98415472Y-104110425D03*
X99064528Y-103389575D03*
%TD*%
D17*
%TO.C,R8*%
X99677500Y-38140000D03*
X101502500Y-38140000D03*
%TD*%
D46*
%TO.C,R13*%
X88557500Y-89712500D03*
X88557500Y-87887500D03*
%TD*%
D61*
%TO.C,TF1*%
X101080000Y-31530000D03*
X109080000Y-31530000D03*
%TD*%
M02*
