%TF.GenerationSoftware,KiCad,Pcbnew,9.0.6*%
%TF.CreationDate,2026-01-27T22:48:50+01:00*%
%TF.ProjectId,rayman_main,7261796d-616e-45f6-9d61-696e2e6b6963,rev?*%
%TF.SameCoordinates,Original*%
%TF.FileFunction,Other,User*%
%FSLAX46Y46*%
G04 Gerber Fmt 4.6, Leading zero omitted, Abs format (unit mm)*
G04 Created by KiCad (PCBNEW 9.0.6) date 2026-01-27 22:48:50*
%MOMM*%
%LPD*%
G01*
G04 APERTURE LIST*
%ADD10C,0.050000*%
G04 APERTURE END LIST*
D10*
%TO.C,U1*%
X119100000Y-26150000D02*
X119100000Y-54100000D01*
X119100000Y-26150000D02*
X138600000Y-26050000D01*
X138600000Y-54100000D02*
X119100000Y-54100000D01*
X138600000Y-54100000D02*
X138600000Y-26050000D01*
%TO.C,Q1*%
X117110000Y-82650000D02*
X117110000Y-84450000D01*
X117110000Y-84450000D02*
X118260000Y-84450000D01*
X117310000Y-81620000D02*
X117310000Y-82650000D01*
X117310000Y-82650000D02*
X117110000Y-82650000D01*
X118260000Y-84450000D02*
X118260000Y-85480000D01*
X118260000Y-85480000D02*
X119360000Y-85480000D01*
X119360000Y-84450000D02*
X120510000Y-84450000D01*
X119360000Y-85480000D02*
X119360000Y-84450000D01*
X120310000Y-81620000D02*
X117310000Y-81620000D01*
X120310000Y-82650000D02*
X120310000Y-81620000D01*
X120510000Y-82650000D02*
X120310000Y-82650000D01*
X120510000Y-84450000D02*
X120510000Y-82650000D01*
%TO.C,R19*%
X105680000Y-96545000D02*
X105680000Y-99905000D01*
X105680000Y-99905000D02*
X107580000Y-99905000D01*
X107580000Y-96545000D02*
X105680000Y-96545000D01*
X107580000Y-99905000D02*
X107580000Y-96545000D01*
%TO.C,R23*%
X140080000Y-35940000D02*
X140080000Y-39300000D01*
X140080000Y-39300000D02*
X141980000Y-39300000D01*
X141980000Y-35940000D02*
X140080000Y-35940000D01*
X141980000Y-39300000D02*
X141980000Y-35940000D01*
%TO.C,R30*%
X142570000Y-120530000D02*
X142570000Y-122430000D01*
X142570000Y-122430000D02*
X145930000Y-122430000D01*
X145930000Y-120530000D02*
X142570000Y-120530000D01*
X145930000Y-122430000D02*
X145930000Y-120530000D01*
%TO.C,R33*%
X70450000Y-117060000D02*
X70450000Y-118960000D01*
X70450000Y-118960000D02*
X73810000Y-118960000D01*
X73810000Y-117060000D02*
X70450000Y-117060000D01*
X73810000Y-118960000D02*
X73810000Y-117060000D01*
%TO.C,R32*%
X110420000Y-103570000D02*
X110420000Y-105470000D01*
X110420000Y-105470000D02*
X113780000Y-105470000D01*
X113780000Y-103570000D02*
X110420000Y-103570000D01*
X113780000Y-105470000D02*
X113780000Y-103570000D01*
%TO.C,R18*%
X99682778Y-96545000D02*
X99682778Y-99905000D01*
X99682778Y-99905000D02*
X101582778Y-99905000D01*
X101582778Y-96545000D02*
X99682778Y-96545000D01*
X101582778Y-99905000D02*
X101582778Y-96545000D01*
%TO.C,R39*%
X110369999Y-46400000D02*
X110369999Y-49760000D01*
X110369999Y-49760000D02*
X112269999Y-49760000D01*
X112269999Y-46400000D02*
X110369999Y-46400000D01*
X112269999Y-49760000D02*
X112269999Y-46400000D01*
%TO.C,R34*%
X89360000Y-116750000D02*
X89360000Y-118650000D01*
X89360000Y-118650000D02*
X92720000Y-118650000D01*
X92720000Y-116750000D02*
X89360000Y-116750000D01*
X92720000Y-118650000D02*
X92720000Y-116750000D01*
%TO.C,R4*%
X114410000Y-81500000D02*
X114410000Y-84860000D01*
X114410000Y-84860000D02*
X116310000Y-84860000D01*
X116310000Y-81500000D02*
X114410000Y-81500000D01*
X116310000Y-84860000D02*
X116310000Y-81500000D01*
%TO.C,R17*%
X96684167Y-96545000D02*
X96684167Y-99905000D01*
X96684167Y-99905000D02*
X98584167Y-99905000D01*
X98584167Y-96545000D02*
X96684167Y-96545000D01*
X98584167Y-99905000D02*
X98584167Y-96545000D01*
%TO.C,R40*%
X115000000Y-52300000D02*
X113100000Y-52300000D01*
X113100000Y-52300000D02*
X113100000Y-55660000D01*
X115000000Y-55660000D02*
X115000000Y-52300000D01*
X113100000Y-55660000D02*
X115000000Y-55660000D01*
%TO.C,R38*%
X110059999Y-49760000D02*
X110059999Y-46400000D01*
X110059999Y-46400000D02*
X108159999Y-46400000D01*
X108159999Y-49760000D02*
X110059999Y-49760000D01*
X108159999Y-46400000D02*
X108159999Y-49760000D01*
%TO.C,C18*%
X132900000Y-109580000D02*
X132900000Y-111540000D01*
X132900000Y-111540000D02*
X136300000Y-111540000D01*
X136300000Y-109580000D02*
X132900000Y-109580000D01*
X136300000Y-111540000D02*
X136300000Y-109580000D01*
%TO.C,R28*%
X91887500Y-102570000D02*
X91887500Y-104470000D01*
X91887500Y-104470000D02*
X95247500Y-104470000D01*
X95247500Y-102570000D02*
X91887500Y-102570000D01*
X95247500Y-104470000D02*
X95247500Y-102570000D01*
%TO.C,C17*%
X143800000Y-111440000D02*
X143800000Y-113400000D01*
X143800000Y-113400000D02*
X147200000Y-113400000D01*
X147200000Y-111440000D02*
X143800000Y-111440000D01*
X147200000Y-113400000D02*
X147200000Y-111440000D01*
%TO.C,R3*%
X120290000Y-76650000D02*
X120290000Y-80010000D01*
X120290000Y-80010000D02*
X122190000Y-80010000D01*
X122190000Y-76650000D02*
X120290000Y-76650000D01*
X122190000Y-80010000D02*
X122190000Y-76650000D01*
%TO.C,R31*%
X110420000Y-106400000D02*
X110420000Y-108300000D01*
X110420000Y-108300000D02*
X113780000Y-108300000D01*
X113780000Y-106400000D02*
X110420000Y-106400000D01*
X113780000Y-108300000D02*
X113780000Y-106400000D01*
%TO.C,U3*%
X136430000Y-115647500D02*
X136430000Y-119847500D01*
X136430000Y-115647500D02*
X137000000Y-115647500D01*
X136430000Y-119847500D02*
X138150000Y-119847500D01*
X137000000Y-113487500D02*
X143060000Y-113487500D01*
X137000000Y-115647500D02*
X137000000Y-113487500D01*
X138150000Y-119847500D02*
X138150000Y-122007500D01*
X138150000Y-122007500D02*
X141910000Y-122007500D01*
X141910000Y-119847500D02*
X143630000Y-119847500D01*
X141910000Y-122007500D02*
X141910000Y-119847500D01*
X143060000Y-113487500D02*
X143060000Y-115647500D01*
X143060000Y-115647500D02*
X143630000Y-115647500D01*
X143630000Y-119847500D02*
X143630000Y-115647500D01*
%TO.C,C19*%
X132900000Y-111910000D02*
X132900000Y-113870000D01*
X132900000Y-113870000D02*
X136300000Y-113870000D01*
X136300000Y-111910000D02*
X132900000Y-111910000D01*
X136300000Y-113870000D02*
X136300000Y-111910000D01*
%TO.C,R29*%
X134750000Y-122920000D02*
X134750000Y-124820000D01*
X134750000Y-124820000D02*
X138110000Y-124820000D01*
X138110000Y-122920000D02*
X134750000Y-122920000D01*
X138110000Y-124820000D02*
X138110000Y-122920000D01*
%TO.C,R21*%
X102681389Y-96545000D02*
X102681389Y-99905000D01*
X102681389Y-99905000D02*
X104581389Y-99905000D01*
X104581389Y-96545000D02*
X102681389Y-96545000D01*
X104581389Y-99905000D02*
X104581389Y-96545000D01*
%TO.C,R37*%
X106010000Y-46400000D02*
X106010000Y-49760000D01*
X106010000Y-49760000D02*
X107910000Y-49760000D01*
X107910000Y-46400000D02*
X106010000Y-46400000D01*
X107910000Y-49760000D02*
X107910000Y-46400000D01*
%TO.C,R42*%
X117370000Y-52350000D02*
X115470000Y-52350000D01*
X115470000Y-52350000D02*
X115470000Y-55710000D01*
X117370000Y-55710000D02*
X117370000Y-52350000D01*
X115470000Y-55710000D02*
X117370000Y-55710000D01*
%TO.C,R35*%
X147460000Y-35440000D02*
X147460000Y-37340000D01*
X147460000Y-37340000D02*
X150820000Y-37340000D01*
X150820000Y-35440000D02*
X147460000Y-35440000D01*
X150820000Y-37340000D02*
X150820000Y-35440000D01*
%TO.C,TF1*%
X97430000Y-21680000D02*
X97430000Y-43580000D01*
X97430000Y-43580000D02*
X114630000Y-43580000D01*
X114630000Y-21680000D02*
X97430000Y-21680000D01*
X114630000Y-43580000D02*
X114630000Y-21680000D01*
%TO.C,C16*%
X143800000Y-109030000D02*
X143800000Y-110990000D01*
X143800000Y-110990000D02*
X147200000Y-110990000D01*
X147200000Y-109030000D02*
X143800000Y-109030000D01*
X147200000Y-110990000D02*
X147200000Y-109030000D01*
%TO.C,R25*%
X142200000Y-122920000D02*
X142200000Y-124820000D01*
X142200000Y-124820000D02*
X145560000Y-124820000D01*
X145560000Y-122920000D02*
X142200000Y-122920000D01*
X145560000Y-124820000D02*
X145560000Y-122920000D01*
%TO.C,C24*%
X105650000Y-49730000D02*
X105650000Y-46330000D01*
X105650000Y-46330000D02*
X103690000Y-46330000D01*
X103690000Y-49730000D02*
X105650000Y-49730000D01*
X103690000Y-46330000D02*
X103690000Y-49730000D01*
%TO.C,R27*%
X91887500Y-99620000D02*
X91887500Y-101520000D01*
X91887500Y-101520000D02*
X95247500Y-101520000D01*
X95247500Y-99620000D02*
X91887500Y-99620000D01*
X95247500Y-101520000D02*
X95247500Y-99620000D01*
%TO.C,R36*%
X147480000Y-43360000D02*
X147480000Y-45260000D01*
X147480000Y-45260000D02*
X150840000Y-45260000D01*
X150840000Y-43360000D02*
X147480000Y-43360000D01*
X150840000Y-45260000D02*
X150840000Y-43360000D01*
%TO.C,C23*%
X103380000Y-49730000D02*
X103380000Y-46330000D01*
X103380000Y-46330000D02*
X101420000Y-46330000D01*
X101420000Y-49730000D02*
X103380000Y-49730000D01*
X101420000Y-46330000D02*
X101420000Y-49730000D01*
%TO.C,R41*%
X110390000Y-44170000D02*
X110390000Y-46070000D01*
X110390000Y-46070000D02*
X113750000Y-46070000D01*
X113750000Y-44170000D02*
X110390000Y-44170000D01*
X113750000Y-46070000D02*
X113750000Y-44170000D01*
%TO.C,R26*%
X138475000Y-122920000D02*
X138475000Y-124820000D01*
X138475000Y-124820000D02*
X141835000Y-124820000D01*
X141835000Y-122920000D02*
X138475000Y-122920000D01*
X141835000Y-124820000D02*
X141835000Y-122920000D01*
%TD*%
M02*
