%TF.GenerationSoftware,KiCad,Pcbnew,9.0.6*%
%TF.CreationDate,2026-01-27T22:48:49+01:00*%
%TF.ProjectId,rayman_main,7261796d-616e-45f6-9d61-696e2e6b6963,rev?*%
%TF.SameCoordinates,Original*%
%TF.FileFunction,Legend,Bot*%
%TF.FilePolarity,Positive*%
%FSLAX46Y46*%
G04 Gerber Fmt 4.6, Leading zero omitted, Abs format (unit mm)*
G04 Created by KiCad (PCBNEW 9.0.6) date 2026-01-27 22:48:49*
%MOMM*%
%LPD*%
G01*
G04 APERTURE LIST*
%ADD10C,0.300000*%
%ADD11C,0.150000*%
%ADD12C,0.120000*%
%ADD13C,0.127000*%
%ADD14C,0.200000*%
G04 APERTURE END LIST*
D10*
X91258570Y-30335912D02*
X91758570Y-29621626D01*
X92115713Y-30335912D02*
X92115713Y-28835912D01*
X92115713Y-28835912D02*
X91544284Y-28835912D01*
X91544284Y-28835912D02*
X91401427Y-28907341D01*
X91401427Y-28907341D02*
X91329998Y-28978769D01*
X91329998Y-28978769D02*
X91258570Y-29121626D01*
X91258570Y-29121626D02*
X91258570Y-29335912D01*
X91258570Y-29335912D02*
X91329998Y-29478769D01*
X91329998Y-29478769D02*
X91401427Y-29550198D01*
X91401427Y-29550198D02*
X91544284Y-29621626D01*
X91544284Y-29621626D02*
X92115713Y-29621626D01*
X90044284Y-30264484D02*
X90187141Y-30335912D01*
X90187141Y-30335912D02*
X90472856Y-30335912D01*
X90472856Y-30335912D02*
X90615713Y-30264484D01*
X90615713Y-30264484D02*
X90687141Y-30121626D01*
X90687141Y-30121626D02*
X90687141Y-29550198D01*
X90687141Y-29550198D02*
X90615713Y-29407341D01*
X90615713Y-29407341D02*
X90472856Y-29335912D01*
X90472856Y-29335912D02*
X90187141Y-29335912D01*
X90187141Y-29335912D02*
X90044284Y-29407341D01*
X90044284Y-29407341D02*
X89972856Y-29550198D01*
X89972856Y-29550198D02*
X89972856Y-29693055D01*
X89972856Y-29693055D02*
X90687141Y-29835912D01*
X89472856Y-29335912D02*
X89115713Y-30335912D01*
X89115713Y-30335912D02*
X88758570Y-29335912D01*
X86258570Y-30335912D02*
X87115713Y-30335912D01*
X86687142Y-30335912D02*
X86687142Y-28835912D01*
X86687142Y-28835912D02*
X86829999Y-29050198D01*
X86829999Y-29050198D02*
X86972856Y-29193055D01*
X86972856Y-29193055D02*
X87115713Y-29264484D01*
X85615714Y-30193055D02*
X85544285Y-30264484D01*
X85544285Y-30264484D02*
X85615714Y-30335912D01*
X85615714Y-30335912D02*
X85687142Y-30264484D01*
X85687142Y-30264484D02*
X85615714Y-30193055D01*
X85615714Y-30193055D02*
X85615714Y-30335912D01*
X84258571Y-29335912D02*
X84258571Y-30335912D01*
X84615713Y-28764484D02*
X84972856Y-29835912D01*
X84972856Y-29835912D02*
X84044285Y-29835912D01*
X95437141Y-31393685D02*
X95365713Y-31322257D01*
X95365713Y-31322257D02*
X95222856Y-31250828D01*
X95222856Y-31250828D02*
X94865713Y-31250828D01*
X94865713Y-31250828D02*
X94722856Y-31322257D01*
X94722856Y-31322257D02*
X94651427Y-31393685D01*
X94651427Y-31393685D02*
X94579998Y-31536542D01*
X94579998Y-31536542D02*
X94579998Y-31679400D01*
X94579998Y-31679400D02*
X94651427Y-31893685D01*
X94651427Y-31893685D02*
X95508570Y-32750828D01*
X95508570Y-32750828D02*
X94579998Y-32750828D01*
X94079999Y-31250828D02*
X93079999Y-31250828D01*
X93079999Y-31250828D02*
X93722856Y-32750828D01*
X92508571Y-32179400D02*
X91365714Y-32179400D01*
X90222856Y-31250828D02*
X90222856Y-32322257D01*
X90222856Y-32322257D02*
X90294285Y-32536542D01*
X90294285Y-32536542D02*
X90437142Y-32679400D01*
X90437142Y-32679400D02*
X90651428Y-32750828D01*
X90651428Y-32750828D02*
X90794285Y-32750828D01*
X89579999Y-32322257D02*
X88865714Y-32322257D01*
X89722856Y-32750828D02*
X89222856Y-31250828D01*
X89222856Y-31250828D02*
X88722856Y-32750828D01*
X88222857Y-32750828D02*
X88222857Y-31250828D01*
X88222857Y-31250828D02*
X87365714Y-32750828D01*
X87365714Y-32750828D02*
X87365714Y-31250828D01*
X86651428Y-32179400D02*
X85508571Y-32179400D01*
X84865713Y-31393685D02*
X84794285Y-31322257D01*
X84794285Y-31322257D02*
X84651428Y-31250828D01*
X84651428Y-31250828D02*
X84294285Y-31250828D01*
X84294285Y-31250828D02*
X84151428Y-31322257D01*
X84151428Y-31322257D02*
X84079999Y-31393685D01*
X84079999Y-31393685D02*
X84008570Y-31536542D01*
X84008570Y-31536542D02*
X84008570Y-31679400D01*
X84008570Y-31679400D02*
X84079999Y-31893685D01*
X84079999Y-31893685D02*
X84937142Y-32750828D01*
X84937142Y-32750828D02*
X84008570Y-32750828D01*
X83079999Y-31250828D02*
X82937142Y-31250828D01*
X82937142Y-31250828D02*
X82794285Y-31322257D01*
X82794285Y-31322257D02*
X82722857Y-31393685D01*
X82722857Y-31393685D02*
X82651428Y-31536542D01*
X82651428Y-31536542D02*
X82579999Y-31822257D01*
X82579999Y-31822257D02*
X82579999Y-32179400D01*
X82579999Y-32179400D02*
X82651428Y-32465114D01*
X82651428Y-32465114D02*
X82722857Y-32607971D01*
X82722857Y-32607971D02*
X82794285Y-32679400D01*
X82794285Y-32679400D02*
X82937142Y-32750828D01*
X82937142Y-32750828D02*
X83079999Y-32750828D01*
X83079999Y-32750828D02*
X83222857Y-32679400D01*
X83222857Y-32679400D02*
X83294285Y-32607971D01*
X83294285Y-32607971D02*
X83365714Y-32465114D01*
X83365714Y-32465114D02*
X83437142Y-32179400D01*
X83437142Y-32179400D02*
X83437142Y-31822257D01*
X83437142Y-31822257D02*
X83365714Y-31536542D01*
X83365714Y-31536542D02*
X83294285Y-31393685D01*
X83294285Y-31393685D02*
X83222857Y-31322257D01*
X83222857Y-31322257D02*
X83079999Y-31250828D01*
X82008571Y-31393685D02*
X81937143Y-31322257D01*
X81937143Y-31322257D02*
X81794286Y-31250828D01*
X81794286Y-31250828D02*
X81437143Y-31250828D01*
X81437143Y-31250828D02*
X81294286Y-31322257D01*
X81294286Y-31322257D02*
X81222857Y-31393685D01*
X81222857Y-31393685D02*
X81151428Y-31536542D01*
X81151428Y-31536542D02*
X81151428Y-31679400D01*
X81151428Y-31679400D02*
X81222857Y-31893685D01*
X81222857Y-31893685D02*
X82080000Y-32750828D01*
X82080000Y-32750828D02*
X81151428Y-32750828D01*
X79865715Y-31250828D02*
X80151429Y-31250828D01*
X80151429Y-31250828D02*
X80294286Y-31322257D01*
X80294286Y-31322257D02*
X80365715Y-31393685D01*
X80365715Y-31393685D02*
X80508572Y-31607971D01*
X80508572Y-31607971D02*
X80580000Y-31893685D01*
X80580000Y-31893685D02*
X80580000Y-32465114D01*
X80580000Y-32465114D02*
X80508572Y-32607971D01*
X80508572Y-32607971D02*
X80437143Y-32679400D01*
X80437143Y-32679400D02*
X80294286Y-32750828D01*
X80294286Y-32750828D02*
X80008572Y-32750828D01*
X80008572Y-32750828D02*
X79865715Y-32679400D01*
X79865715Y-32679400D02*
X79794286Y-32607971D01*
X79794286Y-32607971D02*
X79722857Y-32465114D01*
X79722857Y-32465114D02*
X79722857Y-32107971D01*
X79722857Y-32107971D02*
X79794286Y-31965114D01*
X79794286Y-31965114D02*
X79865715Y-31893685D01*
X79865715Y-31893685D02*
X80008572Y-31822257D01*
X80008572Y-31822257D02*
X80294286Y-31822257D01*
X80294286Y-31822257D02*
X80437143Y-31893685D01*
X80437143Y-31893685D02*
X80508572Y-31965114D01*
X80508572Y-31965114D02*
X80580000Y-32107971D01*
D11*
X139895180Y-52811904D02*
X139085657Y-52811904D01*
X139085657Y-52811904D02*
X138990419Y-52764285D01*
X138990419Y-52764285D02*
X138942800Y-52716666D01*
X138942800Y-52716666D02*
X138895180Y-52621428D01*
X138895180Y-52621428D02*
X138895180Y-52430952D01*
X138895180Y-52430952D02*
X138942800Y-52335714D01*
X138942800Y-52335714D02*
X138990419Y-52288095D01*
X138990419Y-52288095D02*
X139085657Y-52240476D01*
X139085657Y-52240476D02*
X139895180Y-52240476D01*
X138895180Y-51240476D02*
X138895180Y-51811904D01*
X138895180Y-51526190D02*
X139895180Y-51526190D01*
X139895180Y-51526190D02*
X139752323Y-51621428D01*
X139752323Y-51621428D02*
X139657085Y-51716666D01*
X139657085Y-51716666D02*
X139609466Y-51811904D01*
X118020057Y-85314761D02*
X117972438Y-85219523D01*
X117972438Y-85219523D02*
X117877200Y-85124285D01*
X117877200Y-85124285D02*
X117734342Y-84981428D01*
X117734342Y-84981428D02*
X117686723Y-84886190D01*
X117686723Y-84886190D02*
X117686723Y-84790952D01*
X117924819Y-84838571D02*
X117877200Y-84743333D01*
X117877200Y-84743333D02*
X117781961Y-84648095D01*
X117781961Y-84648095D02*
X117591485Y-84600476D01*
X117591485Y-84600476D02*
X117258152Y-84600476D01*
X117258152Y-84600476D02*
X117067676Y-84648095D01*
X117067676Y-84648095D02*
X116972438Y-84743333D01*
X116972438Y-84743333D02*
X116924819Y-84838571D01*
X116924819Y-84838571D02*
X116924819Y-85029047D01*
X116924819Y-85029047D02*
X116972438Y-85124285D01*
X116972438Y-85124285D02*
X117067676Y-85219523D01*
X117067676Y-85219523D02*
X117258152Y-85267142D01*
X117258152Y-85267142D02*
X117591485Y-85267142D01*
X117591485Y-85267142D02*
X117781961Y-85219523D01*
X117781961Y-85219523D02*
X117877200Y-85124285D01*
X117877200Y-85124285D02*
X117924819Y-85029047D01*
X117924819Y-85029047D02*
X117924819Y-84838571D01*
X117924819Y-86219523D02*
X117924819Y-85648095D01*
X117924819Y-85933809D02*
X116924819Y-85933809D01*
X116924819Y-85933809D02*
X117067676Y-85838571D01*
X117067676Y-85838571D02*
X117162914Y-85743333D01*
X117162914Y-85743333D02*
X117210533Y-85648095D01*
X107084819Y-94112142D02*
X106608628Y-93778809D01*
X107084819Y-93540714D02*
X106084819Y-93540714D01*
X106084819Y-93540714D02*
X106084819Y-93921666D01*
X106084819Y-93921666D02*
X106132438Y-94016904D01*
X106132438Y-94016904D02*
X106180057Y-94064523D01*
X106180057Y-94064523D02*
X106275295Y-94112142D01*
X106275295Y-94112142D02*
X106418152Y-94112142D01*
X106418152Y-94112142D02*
X106513390Y-94064523D01*
X106513390Y-94064523D02*
X106561009Y-94016904D01*
X106561009Y-94016904D02*
X106608628Y-93921666D01*
X106608628Y-93921666D02*
X106608628Y-93540714D01*
X107084819Y-95064523D02*
X107084819Y-94493095D01*
X107084819Y-94778809D02*
X106084819Y-94778809D01*
X106084819Y-94778809D02*
X106227676Y-94683571D01*
X106227676Y-94683571D02*
X106322914Y-94588333D01*
X106322914Y-94588333D02*
X106370533Y-94493095D01*
X107084819Y-95540714D02*
X107084819Y-95731190D01*
X107084819Y-95731190D02*
X107037200Y-95826428D01*
X107037200Y-95826428D02*
X106989580Y-95874047D01*
X106989580Y-95874047D02*
X106846723Y-95969285D01*
X106846723Y-95969285D02*
X106656247Y-96016904D01*
X106656247Y-96016904D02*
X106275295Y-96016904D01*
X106275295Y-96016904D02*
X106180057Y-95969285D01*
X106180057Y-95969285D02*
X106132438Y-95921666D01*
X106132438Y-95921666D02*
X106084819Y-95826428D01*
X106084819Y-95826428D02*
X106084819Y-95635952D01*
X106084819Y-95635952D02*
X106132438Y-95540714D01*
X106132438Y-95540714D02*
X106180057Y-95493095D01*
X106180057Y-95493095D02*
X106275295Y-95445476D01*
X106275295Y-95445476D02*
X106513390Y-95445476D01*
X106513390Y-95445476D02*
X106608628Y-95493095D01*
X106608628Y-95493095D02*
X106656247Y-95540714D01*
X106656247Y-95540714D02*
X106703866Y-95635952D01*
X106703866Y-95635952D02*
X106703866Y-95826428D01*
X106703866Y-95826428D02*
X106656247Y-95921666D01*
X106656247Y-95921666D02*
X106608628Y-95969285D01*
X106608628Y-95969285D02*
X106513390Y-96016904D01*
X141554819Y-33847142D02*
X141078628Y-33513809D01*
X141554819Y-33275714D02*
X140554819Y-33275714D01*
X140554819Y-33275714D02*
X140554819Y-33656666D01*
X140554819Y-33656666D02*
X140602438Y-33751904D01*
X140602438Y-33751904D02*
X140650057Y-33799523D01*
X140650057Y-33799523D02*
X140745295Y-33847142D01*
X140745295Y-33847142D02*
X140888152Y-33847142D01*
X140888152Y-33847142D02*
X140983390Y-33799523D01*
X140983390Y-33799523D02*
X141031009Y-33751904D01*
X141031009Y-33751904D02*
X141078628Y-33656666D01*
X141078628Y-33656666D02*
X141078628Y-33275714D01*
X140650057Y-34228095D02*
X140602438Y-34275714D01*
X140602438Y-34275714D02*
X140554819Y-34370952D01*
X140554819Y-34370952D02*
X140554819Y-34609047D01*
X140554819Y-34609047D02*
X140602438Y-34704285D01*
X140602438Y-34704285D02*
X140650057Y-34751904D01*
X140650057Y-34751904D02*
X140745295Y-34799523D01*
X140745295Y-34799523D02*
X140840533Y-34799523D01*
X140840533Y-34799523D02*
X140983390Y-34751904D01*
X140983390Y-34751904D02*
X141554819Y-34180476D01*
X141554819Y-34180476D02*
X141554819Y-34799523D01*
X140554819Y-35132857D02*
X140554819Y-35751904D01*
X140554819Y-35751904D02*
X140935771Y-35418571D01*
X140935771Y-35418571D02*
X140935771Y-35561428D01*
X140935771Y-35561428D02*
X140983390Y-35656666D01*
X140983390Y-35656666D02*
X141031009Y-35704285D01*
X141031009Y-35704285D02*
X141126247Y-35751904D01*
X141126247Y-35751904D02*
X141364342Y-35751904D01*
X141364342Y-35751904D02*
X141459580Y-35704285D01*
X141459580Y-35704285D02*
X141507200Y-35656666D01*
X141507200Y-35656666D02*
X141554819Y-35561428D01*
X141554819Y-35561428D02*
X141554819Y-35275714D01*
X141554819Y-35275714D02*
X141507200Y-35180476D01*
X141507200Y-35180476D02*
X141459580Y-35132857D01*
X146212857Y-120194819D02*
X146546190Y-119718628D01*
X146784285Y-120194819D02*
X146784285Y-119194819D01*
X146784285Y-119194819D02*
X146403333Y-119194819D01*
X146403333Y-119194819D02*
X146308095Y-119242438D01*
X146308095Y-119242438D02*
X146260476Y-119290057D01*
X146260476Y-119290057D02*
X146212857Y-119385295D01*
X146212857Y-119385295D02*
X146212857Y-119528152D01*
X146212857Y-119528152D02*
X146260476Y-119623390D01*
X146260476Y-119623390D02*
X146308095Y-119671009D01*
X146308095Y-119671009D02*
X146403333Y-119718628D01*
X146403333Y-119718628D02*
X146784285Y-119718628D01*
X145879523Y-119194819D02*
X145260476Y-119194819D01*
X145260476Y-119194819D02*
X145593809Y-119575771D01*
X145593809Y-119575771D02*
X145450952Y-119575771D01*
X145450952Y-119575771D02*
X145355714Y-119623390D01*
X145355714Y-119623390D02*
X145308095Y-119671009D01*
X145308095Y-119671009D02*
X145260476Y-119766247D01*
X145260476Y-119766247D02*
X145260476Y-120004342D01*
X145260476Y-120004342D02*
X145308095Y-120099580D01*
X145308095Y-120099580D02*
X145355714Y-120147200D01*
X145355714Y-120147200D02*
X145450952Y-120194819D01*
X145450952Y-120194819D02*
X145736666Y-120194819D01*
X145736666Y-120194819D02*
X145831904Y-120147200D01*
X145831904Y-120147200D02*
X145879523Y-120099580D01*
X144641428Y-119194819D02*
X144546190Y-119194819D01*
X144546190Y-119194819D02*
X144450952Y-119242438D01*
X144450952Y-119242438D02*
X144403333Y-119290057D01*
X144403333Y-119290057D02*
X144355714Y-119385295D01*
X144355714Y-119385295D02*
X144308095Y-119575771D01*
X144308095Y-119575771D02*
X144308095Y-119813866D01*
X144308095Y-119813866D02*
X144355714Y-120004342D01*
X144355714Y-120004342D02*
X144403333Y-120099580D01*
X144403333Y-120099580D02*
X144450952Y-120147200D01*
X144450952Y-120147200D02*
X144546190Y-120194819D01*
X144546190Y-120194819D02*
X144641428Y-120194819D01*
X144641428Y-120194819D02*
X144736666Y-120147200D01*
X144736666Y-120147200D02*
X144784285Y-120099580D01*
X144784285Y-120099580D02*
X144831904Y-120004342D01*
X144831904Y-120004342D02*
X144879523Y-119813866D01*
X144879523Y-119813866D02*
X144879523Y-119575771D01*
X144879523Y-119575771D02*
X144831904Y-119385295D01*
X144831904Y-119385295D02*
X144784285Y-119290057D01*
X144784285Y-119290057D02*
X144736666Y-119242438D01*
X144736666Y-119242438D02*
X144641428Y-119194819D01*
X72242857Y-116774819D02*
X72576190Y-116298628D01*
X72814285Y-116774819D02*
X72814285Y-115774819D01*
X72814285Y-115774819D02*
X72433333Y-115774819D01*
X72433333Y-115774819D02*
X72338095Y-115822438D01*
X72338095Y-115822438D02*
X72290476Y-115870057D01*
X72290476Y-115870057D02*
X72242857Y-115965295D01*
X72242857Y-115965295D02*
X72242857Y-116108152D01*
X72242857Y-116108152D02*
X72290476Y-116203390D01*
X72290476Y-116203390D02*
X72338095Y-116251009D01*
X72338095Y-116251009D02*
X72433333Y-116298628D01*
X72433333Y-116298628D02*
X72814285Y-116298628D01*
X71909523Y-115774819D02*
X71290476Y-115774819D01*
X71290476Y-115774819D02*
X71623809Y-116155771D01*
X71623809Y-116155771D02*
X71480952Y-116155771D01*
X71480952Y-116155771D02*
X71385714Y-116203390D01*
X71385714Y-116203390D02*
X71338095Y-116251009D01*
X71338095Y-116251009D02*
X71290476Y-116346247D01*
X71290476Y-116346247D02*
X71290476Y-116584342D01*
X71290476Y-116584342D02*
X71338095Y-116679580D01*
X71338095Y-116679580D02*
X71385714Y-116727200D01*
X71385714Y-116727200D02*
X71480952Y-116774819D01*
X71480952Y-116774819D02*
X71766666Y-116774819D01*
X71766666Y-116774819D02*
X71861904Y-116727200D01*
X71861904Y-116727200D02*
X71909523Y-116679580D01*
X70957142Y-115774819D02*
X70338095Y-115774819D01*
X70338095Y-115774819D02*
X70671428Y-116155771D01*
X70671428Y-116155771D02*
X70528571Y-116155771D01*
X70528571Y-116155771D02*
X70433333Y-116203390D01*
X70433333Y-116203390D02*
X70385714Y-116251009D01*
X70385714Y-116251009D02*
X70338095Y-116346247D01*
X70338095Y-116346247D02*
X70338095Y-116584342D01*
X70338095Y-116584342D02*
X70385714Y-116679580D01*
X70385714Y-116679580D02*
X70433333Y-116727200D01*
X70433333Y-116727200D02*
X70528571Y-116774819D01*
X70528571Y-116774819D02*
X70814285Y-116774819D01*
X70814285Y-116774819D02*
X70909523Y-116727200D01*
X70909523Y-116727200D02*
X70957142Y-116679580D01*
X109452857Y-104924819D02*
X109786190Y-104448628D01*
X110024285Y-104924819D02*
X110024285Y-103924819D01*
X110024285Y-103924819D02*
X109643333Y-103924819D01*
X109643333Y-103924819D02*
X109548095Y-103972438D01*
X109548095Y-103972438D02*
X109500476Y-104020057D01*
X109500476Y-104020057D02*
X109452857Y-104115295D01*
X109452857Y-104115295D02*
X109452857Y-104258152D01*
X109452857Y-104258152D02*
X109500476Y-104353390D01*
X109500476Y-104353390D02*
X109548095Y-104401009D01*
X109548095Y-104401009D02*
X109643333Y-104448628D01*
X109643333Y-104448628D02*
X110024285Y-104448628D01*
X109119523Y-103924819D02*
X108500476Y-103924819D01*
X108500476Y-103924819D02*
X108833809Y-104305771D01*
X108833809Y-104305771D02*
X108690952Y-104305771D01*
X108690952Y-104305771D02*
X108595714Y-104353390D01*
X108595714Y-104353390D02*
X108548095Y-104401009D01*
X108548095Y-104401009D02*
X108500476Y-104496247D01*
X108500476Y-104496247D02*
X108500476Y-104734342D01*
X108500476Y-104734342D02*
X108548095Y-104829580D01*
X108548095Y-104829580D02*
X108595714Y-104877200D01*
X108595714Y-104877200D02*
X108690952Y-104924819D01*
X108690952Y-104924819D02*
X108976666Y-104924819D01*
X108976666Y-104924819D02*
X109071904Y-104877200D01*
X109071904Y-104877200D02*
X109119523Y-104829580D01*
X108119523Y-104020057D02*
X108071904Y-103972438D01*
X108071904Y-103972438D02*
X107976666Y-103924819D01*
X107976666Y-103924819D02*
X107738571Y-103924819D01*
X107738571Y-103924819D02*
X107643333Y-103972438D01*
X107643333Y-103972438D02*
X107595714Y-104020057D01*
X107595714Y-104020057D02*
X107548095Y-104115295D01*
X107548095Y-104115295D02*
X107548095Y-104210533D01*
X107548095Y-104210533D02*
X107595714Y-104353390D01*
X107595714Y-104353390D02*
X108167142Y-104924819D01*
X108167142Y-104924819D02*
X107548095Y-104924819D01*
X101087597Y-94112142D02*
X100611406Y-93778809D01*
X101087597Y-93540714D02*
X100087597Y-93540714D01*
X100087597Y-93540714D02*
X100087597Y-93921666D01*
X100087597Y-93921666D02*
X100135216Y-94016904D01*
X100135216Y-94016904D02*
X100182835Y-94064523D01*
X100182835Y-94064523D02*
X100278073Y-94112142D01*
X100278073Y-94112142D02*
X100420930Y-94112142D01*
X100420930Y-94112142D02*
X100516168Y-94064523D01*
X100516168Y-94064523D02*
X100563787Y-94016904D01*
X100563787Y-94016904D02*
X100611406Y-93921666D01*
X100611406Y-93921666D02*
X100611406Y-93540714D01*
X101087597Y-95064523D02*
X101087597Y-94493095D01*
X101087597Y-94778809D02*
X100087597Y-94778809D01*
X100087597Y-94778809D02*
X100230454Y-94683571D01*
X100230454Y-94683571D02*
X100325692Y-94588333D01*
X100325692Y-94588333D02*
X100373311Y-94493095D01*
X100516168Y-95635952D02*
X100468549Y-95540714D01*
X100468549Y-95540714D02*
X100420930Y-95493095D01*
X100420930Y-95493095D02*
X100325692Y-95445476D01*
X100325692Y-95445476D02*
X100278073Y-95445476D01*
X100278073Y-95445476D02*
X100182835Y-95493095D01*
X100182835Y-95493095D02*
X100135216Y-95540714D01*
X100135216Y-95540714D02*
X100087597Y-95635952D01*
X100087597Y-95635952D02*
X100087597Y-95826428D01*
X100087597Y-95826428D02*
X100135216Y-95921666D01*
X100135216Y-95921666D02*
X100182835Y-95969285D01*
X100182835Y-95969285D02*
X100278073Y-96016904D01*
X100278073Y-96016904D02*
X100325692Y-96016904D01*
X100325692Y-96016904D02*
X100420930Y-95969285D01*
X100420930Y-95969285D02*
X100468549Y-95921666D01*
X100468549Y-95921666D02*
X100516168Y-95826428D01*
X100516168Y-95826428D02*
X100516168Y-95635952D01*
X100516168Y-95635952D02*
X100563787Y-95540714D01*
X100563787Y-95540714D02*
X100611406Y-95493095D01*
X100611406Y-95493095D02*
X100706644Y-95445476D01*
X100706644Y-95445476D02*
X100897120Y-95445476D01*
X100897120Y-95445476D02*
X100992358Y-95493095D01*
X100992358Y-95493095D02*
X101039978Y-95540714D01*
X101039978Y-95540714D02*
X101087597Y-95635952D01*
X101087597Y-95635952D02*
X101087597Y-95826428D01*
X101087597Y-95826428D02*
X101039978Y-95921666D01*
X101039978Y-95921666D02*
X100992358Y-95969285D01*
X100992358Y-95969285D02*
X100897120Y-96016904D01*
X100897120Y-96016904D02*
X100706644Y-96016904D01*
X100706644Y-96016904D02*
X100611406Y-95969285D01*
X100611406Y-95969285D02*
X100563787Y-95921666D01*
X100563787Y-95921666D02*
X100516168Y-95826428D01*
X111784819Y-50427142D02*
X111308628Y-50093809D01*
X111784819Y-49855714D02*
X110784819Y-49855714D01*
X110784819Y-49855714D02*
X110784819Y-50236666D01*
X110784819Y-50236666D02*
X110832438Y-50331904D01*
X110832438Y-50331904D02*
X110880057Y-50379523D01*
X110880057Y-50379523D02*
X110975295Y-50427142D01*
X110975295Y-50427142D02*
X111118152Y-50427142D01*
X111118152Y-50427142D02*
X111213390Y-50379523D01*
X111213390Y-50379523D02*
X111261009Y-50331904D01*
X111261009Y-50331904D02*
X111308628Y-50236666D01*
X111308628Y-50236666D02*
X111308628Y-49855714D01*
X110784819Y-50760476D02*
X110784819Y-51379523D01*
X110784819Y-51379523D02*
X111165771Y-51046190D01*
X111165771Y-51046190D02*
X111165771Y-51189047D01*
X111165771Y-51189047D02*
X111213390Y-51284285D01*
X111213390Y-51284285D02*
X111261009Y-51331904D01*
X111261009Y-51331904D02*
X111356247Y-51379523D01*
X111356247Y-51379523D02*
X111594342Y-51379523D01*
X111594342Y-51379523D02*
X111689580Y-51331904D01*
X111689580Y-51331904D02*
X111737200Y-51284285D01*
X111737200Y-51284285D02*
X111784819Y-51189047D01*
X111784819Y-51189047D02*
X111784819Y-50903333D01*
X111784819Y-50903333D02*
X111737200Y-50808095D01*
X111737200Y-50808095D02*
X111689580Y-50760476D01*
X111784819Y-51855714D02*
X111784819Y-52046190D01*
X111784819Y-52046190D02*
X111737200Y-52141428D01*
X111737200Y-52141428D02*
X111689580Y-52189047D01*
X111689580Y-52189047D02*
X111546723Y-52284285D01*
X111546723Y-52284285D02*
X111356247Y-52331904D01*
X111356247Y-52331904D02*
X110975295Y-52331904D01*
X110975295Y-52331904D02*
X110880057Y-52284285D01*
X110880057Y-52284285D02*
X110832438Y-52236666D01*
X110832438Y-52236666D02*
X110784819Y-52141428D01*
X110784819Y-52141428D02*
X110784819Y-51950952D01*
X110784819Y-51950952D02*
X110832438Y-51855714D01*
X110832438Y-51855714D02*
X110880057Y-51808095D01*
X110880057Y-51808095D02*
X110975295Y-51760476D01*
X110975295Y-51760476D02*
X111213390Y-51760476D01*
X111213390Y-51760476D02*
X111308628Y-51808095D01*
X111308628Y-51808095D02*
X111356247Y-51855714D01*
X111356247Y-51855714D02*
X111403866Y-51950952D01*
X111403866Y-51950952D02*
X111403866Y-52141428D01*
X111403866Y-52141428D02*
X111356247Y-52236666D01*
X111356247Y-52236666D02*
X111308628Y-52284285D01*
X111308628Y-52284285D02*
X111213390Y-52331904D01*
X91682857Y-119804819D02*
X92016190Y-119328628D01*
X92254285Y-119804819D02*
X92254285Y-118804819D01*
X92254285Y-118804819D02*
X91873333Y-118804819D01*
X91873333Y-118804819D02*
X91778095Y-118852438D01*
X91778095Y-118852438D02*
X91730476Y-118900057D01*
X91730476Y-118900057D02*
X91682857Y-118995295D01*
X91682857Y-118995295D02*
X91682857Y-119138152D01*
X91682857Y-119138152D02*
X91730476Y-119233390D01*
X91730476Y-119233390D02*
X91778095Y-119281009D01*
X91778095Y-119281009D02*
X91873333Y-119328628D01*
X91873333Y-119328628D02*
X92254285Y-119328628D01*
X91349523Y-118804819D02*
X90730476Y-118804819D01*
X90730476Y-118804819D02*
X91063809Y-119185771D01*
X91063809Y-119185771D02*
X90920952Y-119185771D01*
X90920952Y-119185771D02*
X90825714Y-119233390D01*
X90825714Y-119233390D02*
X90778095Y-119281009D01*
X90778095Y-119281009D02*
X90730476Y-119376247D01*
X90730476Y-119376247D02*
X90730476Y-119614342D01*
X90730476Y-119614342D02*
X90778095Y-119709580D01*
X90778095Y-119709580D02*
X90825714Y-119757200D01*
X90825714Y-119757200D02*
X90920952Y-119804819D01*
X90920952Y-119804819D02*
X91206666Y-119804819D01*
X91206666Y-119804819D02*
X91301904Y-119757200D01*
X91301904Y-119757200D02*
X91349523Y-119709580D01*
X89873333Y-119138152D02*
X89873333Y-119804819D01*
X90111428Y-118757200D02*
X90349523Y-119471485D01*
X90349523Y-119471485D02*
X89730476Y-119471485D01*
X114164819Y-83013333D02*
X113688628Y-82680000D01*
X114164819Y-82441905D02*
X113164819Y-82441905D01*
X113164819Y-82441905D02*
X113164819Y-82822857D01*
X113164819Y-82822857D02*
X113212438Y-82918095D01*
X113212438Y-82918095D02*
X113260057Y-82965714D01*
X113260057Y-82965714D02*
X113355295Y-83013333D01*
X113355295Y-83013333D02*
X113498152Y-83013333D01*
X113498152Y-83013333D02*
X113593390Y-82965714D01*
X113593390Y-82965714D02*
X113641009Y-82918095D01*
X113641009Y-82918095D02*
X113688628Y-82822857D01*
X113688628Y-82822857D02*
X113688628Y-82441905D01*
X113498152Y-83870476D02*
X114164819Y-83870476D01*
X113117200Y-83632381D02*
X113831485Y-83394286D01*
X113831485Y-83394286D02*
X113831485Y-84013333D01*
X98088986Y-94112142D02*
X97612795Y-93778809D01*
X98088986Y-93540714D02*
X97088986Y-93540714D01*
X97088986Y-93540714D02*
X97088986Y-93921666D01*
X97088986Y-93921666D02*
X97136605Y-94016904D01*
X97136605Y-94016904D02*
X97184224Y-94064523D01*
X97184224Y-94064523D02*
X97279462Y-94112142D01*
X97279462Y-94112142D02*
X97422319Y-94112142D01*
X97422319Y-94112142D02*
X97517557Y-94064523D01*
X97517557Y-94064523D02*
X97565176Y-94016904D01*
X97565176Y-94016904D02*
X97612795Y-93921666D01*
X97612795Y-93921666D02*
X97612795Y-93540714D01*
X98088986Y-95064523D02*
X98088986Y-94493095D01*
X98088986Y-94778809D02*
X97088986Y-94778809D01*
X97088986Y-94778809D02*
X97231843Y-94683571D01*
X97231843Y-94683571D02*
X97327081Y-94588333D01*
X97327081Y-94588333D02*
X97374700Y-94493095D01*
X97088986Y-95397857D02*
X97088986Y-96064523D01*
X97088986Y-96064523D02*
X98088986Y-95635952D01*
X114474819Y-50427142D02*
X113998628Y-50093809D01*
X114474819Y-49855714D02*
X113474819Y-49855714D01*
X113474819Y-49855714D02*
X113474819Y-50236666D01*
X113474819Y-50236666D02*
X113522438Y-50331904D01*
X113522438Y-50331904D02*
X113570057Y-50379523D01*
X113570057Y-50379523D02*
X113665295Y-50427142D01*
X113665295Y-50427142D02*
X113808152Y-50427142D01*
X113808152Y-50427142D02*
X113903390Y-50379523D01*
X113903390Y-50379523D02*
X113951009Y-50331904D01*
X113951009Y-50331904D02*
X113998628Y-50236666D01*
X113998628Y-50236666D02*
X113998628Y-49855714D01*
X113808152Y-51284285D02*
X114474819Y-51284285D01*
X113427200Y-51046190D02*
X114141485Y-50808095D01*
X114141485Y-50808095D02*
X114141485Y-51427142D01*
X113474819Y-51998571D02*
X113474819Y-52093809D01*
X113474819Y-52093809D02*
X113522438Y-52189047D01*
X113522438Y-52189047D02*
X113570057Y-52236666D01*
X113570057Y-52236666D02*
X113665295Y-52284285D01*
X113665295Y-52284285D02*
X113855771Y-52331904D01*
X113855771Y-52331904D02*
X114093866Y-52331904D01*
X114093866Y-52331904D02*
X114284342Y-52284285D01*
X114284342Y-52284285D02*
X114379580Y-52236666D01*
X114379580Y-52236666D02*
X114427200Y-52189047D01*
X114427200Y-52189047D02*
X114474819Y-52093809D01*
X114474819Y-52093809D02*
X114474819Y-51998571D01*
X114474819Y-51998571D02*
X114427200Y-51903333D01*
X114427200Y-51903333D02*
X114379580Y-51855714D01*
X114379580Y-51855714D02*
X114284342Y-51808095D01*
X114284342Y-51808095D02*
X114093866Y-51760476D01*
X114093866Y-51760476D02*
X113855771Y-51760476D01*
X113855771Y-51760476D02*
X113665295Y-51808095D01*
X113665295Y-51808095D02*
X113570057Y-51855714D01*
X113570057Y-51855714D02*
X113522438Y-51903333D01*
X113522438Y-51903333D02*
X113474819Y-51998571D01*
X109544819Y-50427142D02*
X109068628Y-50093809D01*
X109544819Y-49855714D02*
X108544819Y-49855714D01*
X108544819Y-49855714D02*
X108544819Y-50236666D01*
X108544819Y-50236666D02*
X108592438Y-50331904D01*
X108592438Y-50331904D02*
X108640057Y-50379523D01*
X108640057Y-50379523D02*
X108735295Y-50427142D01*
X108735295Y-50427142D02*
X108878152Y-50427142D01*
X108878152Y-50427142D02*
X108973390Y-50379523D01*
X108973390Y-50379523D02*
X109021009Y-50331904D01*
X109021009Y-50331904D02*
X109068628Y-50236666D01*
X109068628Y-50236666D02*
X109068628Y-49855714D01*
X108544819Y-50760476D02*
X108544819Y-51379523D01*
X108544819Y-51379523D02*
X108925771Y-51046190D01*
X108925771Y-51046190D02*
X108925771Y-51189047D01*
X108925771Y-51189047D02*
X108973390Y-51284285D01*
X108973390Y-51284285D02*
X109021009Y-51331904D01*
X109021009Y-51331904D02*
X109116247Y-51379523D01*
X109116247Y-51379523D02*
X109354342Y-51379523D01*
X109354342Y-51379523D02*
X109449580Y-51331904D01*
X109449580Y-51331904D02*
X109497200Y-51284285D01*
X109497200Y-51284285D02*
X109544819Y-51189047D01*
X109544819Y-51189047D02*
X109544819Y-50903333D01*
X109544819Y-50903333D02*
X109497200Y-50808095D01*
X109497200Y-50808095D02*
X109449580Y-50760476D01*
X108973390Y-51950952D02*
X108925771Y-51855714D01*
X108925771Y-51855714D02*
X108878152Y-51808095D01*
X108878152Y-51808095D02*
X108782914Y-51760476D01*
X108782914Y-51760476D02*
X108735295Y-51760476D01*
X108735295Y-51760476D02*
X108640057Y-51808095D01*
X108640057Y-51808095D02*
X108592438Y-51855714D01*
X108592438Y-51855714D02*
X108544819Y-51950952D01*
X108544819Y-51950952D02*
X108544819Y-52141428D01*
X108544819Y-52141428D02*
X108592438Y-52236666D01*
X108592438Y-52236666D02*
X108640057Y-52284285D01*
X108640057Y-52284285D02*
X108735295Y-52331904D01*
X108735295Y-52331904D02*
X108782914Y-52331904D01*
X108782914Y-52331904D02*
X108878152Y-52284285D01*
X108878152Y-52284285D02*
X108925771Y-52236666D01*
X108925771Y-52236666D02*
X108973390Y-52141428D01*
X108973390Y-52141428D02*
X108973390Y-51950952D01*
X108973390Y-51950952D02*
X109021009Y-51855714D01*
X109021009Y-51855714D02*
X109068628Y-51808095D01*
X109068628Y-51808095D02*
X109163866Y-51760476D01*
X109163866Y-51760476D02*
X109354342Y-51760476D01*
X109354342Y-51760476D02*
X109449580Y-51808095D01*
X109449580Y-51808095D02*
X109497200Y-51855714D01*
X109497200Y-51855714D02*
X109544819Y-51950952D01*
X109544819Y-51950952D02*
X109544819Y-52141428D01*
X109544819Y-52141428D02*
X109497200Y-52236666D01*
X109497200Y-52236666D02*
X109449580Y-52284285D01*
X109449580Y-52284285D02*
X109354342Y-52331904D01*
X109354342Y-52331904D02*
X109163866Y-52331904D01*
X109163866Y-52331904D02*
X109068628Y-52284285D01*
X109068628Y-52284285D02*
X109021009Y-52236666D01*
X109021009Y-52236666D02*
X108973390Y-52141428D01*
X131942857Y-110959580D02*
X131990476Y-111007200D01*
X131990476Y-111007200D02*
X132133333Y-111054819D01*
X132133333Y-111054819D02*
X132228571Y-111054819D01*
X132228571Y-111054819D02*
X132371428Y-111007200D01*
X132371428Y-111007200D02*
X132466666Y-110911961D01*
X132466666Y-110911961D02*
X132514285Y-110816723D01*
X132514285Y-110816723D02*
X132561904Y-110626247D01*
X132561904Y-110626247D02*
X132561904Y-110483390D01*
X132561904Y-110483390D02*
X132514285Y-110292914D01*
X132514285Y-110292914D02*
X132466666Y-110197676D01*
X132466666Y-110197676D02*
X132371428Y-110102438D01*
X132371428Y-110102438D02*
X132228571Y-110054819D01*
X132228571Y-110054819D02*
X132133333Y-110054819D01*
X132133333Y-110054819D02*
X131990476Y-110102438D01*
X131990476Y-110102438D02*
X131942857Y-110150057D01*
X130990476Y-111054819D02*
X131561904Y-111054819D01*
X131276190Y-111054819D02*
X131276190Y-110054819D01*
X131276190Y-110054819D02*
X131371428Y-110197676D01*
X131371428Y-110197676D02*
X131466666Y-110292914D01*
X131466666Y-110292914D02*
X131561904Y-110340533D01*
X130419047Y-110483390D02*
X130514285Y-110435771D01*
X130514285Y-110435771D02*
X130561904Y-110388152D01*
X130561904Y-110388152D02*
X130609523Y-110292914D01*
X130609523Y-110292914D02*
X130609523Y-110245295D01*
X130609523Y-110245295D02*
X130561904Y-110150057D01*
X130561904Y-110150057D02*
X130514285Y-110102438D01*
X130514285Y-110102438D02*
X130419047Y-110054819D01*
X130419047Y-110054819D02*
X130228571Y-110054819D01*
X130228571Y-110054819D02*
X130133333Y-110102438D01*
X130133333Y-110102438D02*
X130085714Y-110150057D01*
X130085714Y-110150057D02*
X130038095Y-110245295D01*
X130038095Y-110245295D02*
X130038095Y-110292914D01*
X130038095Y-110292914D02*
X130085714Y-110388152D01*
X130085714Y-110388152D02*
X130133333Y-110435771D01*
X130133333Y-110435771D02*
X130228571Y-110483390D01*
X130228571Y-110483390D02*
X130419047Y-110483390D01*
X130419047Y-110483390D02*
X130514285Y-110531009D01*
X130514285Y-110531009D02*
X130561904Y-110578628D01*
X130561904Y-110578628D02*
X130609523Y-110673866D01*
X130609523Y-110673866D02*
X130609523Y-110864342D01*
X130609523Y-110864342D02*
X130561904Y-110959580D01*
X130561904Y-110959580D02*
X130514285Y-111007200D01*
X130514285Y-111007200D02*
X130419047Y-111054819D01*
X130419047Y-111054819D02*
X130228571Y-111054819D01*
X130228571Y-111054819D02*
X130133333Y-111007200D01*
X130133333Y-111007200D02*
X130085714Y-110959580D01*
X130085714Y-110959580D02*
X130038095Y-110864342D01*
X130038095Y-110864342D02*
X130038095Y-110673866D01*
X130038095Y-110673866D02*
X130085714Y-110578628D01*
X130085714Y-110578628D02*
X130133333Y-110531009D01*
X130133333Y-110531009D02*
X130228571Y-110483390D01*
X91072857Y-103964819D02*
X91406190Y-103488628D01*
X91644285Y-103964819D02*
X91644285Y-102964819D01*
X91644285Y-102964819D02*
X91263333Y-102964819D01*
X91263333Y-102964819D02*
X91168095Y-103012438D01*
X91168095Y-103012438D02*
X91120476Y-103060057D01*
X91120476Y-103060057D02*
X91072857Y-103155295D01*
X91072857Y-103155295D02*
X91072857Y-103298152D01*
X91072857Y-103298152D02*
X91120476Y-103393390D01*
X91120476Y-103393390D02*
X91168095Y-103441009D01*
X91168095Y-103441009D02*
X91263333Y-103488628D01*
X91263333Y-103488628D02*
X91644285Y-103488628D01*
X90691904Y-103060057D02*
X90644285Y-103012438D01*
X90644285Y-103012438D02*
X90549047Y-102964819D01*
X90549047Y-102964819D02*
X90310952Y-102964819D01*
X90310952Y-102964819D02*
X90215714Y-103012438D01*
X90215714Y-103012438D02*
X90168095Y-103060057D01*
X90168095Y-103060057D02*
X90120476Y-103155295D01*
X90120476Y-103155295D02*
X90120476Y-103250533D01*
X90120476Y-103250533D02*
X90168095Y-103393390D01*
X90168095Y-103393390D02*
X90739523Y-103964819D01*
X90739523Y-103964819D02*
X90120476Y-103964819D01*
X89549047Y-103393390D02*
X89644285Y-103345771D01*
X89644285Y-103345771D02*
X89691904Y-103298152D01*
X89691904Y-103298152D02*
X89739523Y-103202914D01*
X89739523Y-103202914D02*
X89739523Y-103155295D01*
X89739523Y-103155295D02*
X89691904Y-103060057D01*
X89691904Y-103060057D02*
X89644285Y-103012438D01*
X89644285Y-103012438D02*
X89549047Y-102964819D01*
X89549047Y-102964819D02*
X89358571Y-102964819D01*
X89358571Y-102964819D02*
X89263333Y-103012438D01*
X89263333Y-103012438D02*
X89215714Y-103060057D01*
X89215714Y-103060057D02*
X89168095Y-103155295D01*
X89168095Y-103155295D02*
X89168095Y-103202914D01*
X89168095Y-103202914D02*
X89215714Y-103298152D01*
X89215714Y-103298152D02*
X89263333Y-103345771D01*
X89263333Y-103345771D02*
X89358571Y-103393390D01*
X89358571Y-103393390D02*
X89549047Y-103393390D01*
X89549047Y-103393390D02*
X89644285Y-103441009D01*
X89644285Y-103441009D02*
X89691904Y-103488628D01*
X89691904Y-103488628D02*
X89739523Y-103583866D01*
X89739523Y-103583866D02*
X89739523Y-103774342D01*
X89739523Y-103774342D02*
X89691904Y-103869580D01*
X89691904Y-103869580D02*
X89644285Y-103917200D01*
X89644285Y-103917200D02*
X89549047Y-103964819D01*
X89549047Y-103964819D02*
X89358571Y-103964819D01*
X89358571Y-103964819D02*
X89263333Y-103917200D01*
X89263333Y-103917200D02*
X89215714Y-103869580D01*
X89215714Y-103869580D02*
X89168095Y-103774342D01*
X89168095Y-103774342D02*
X89168095Y-103583866D01*
X89168095Y-103583866D02*
X89215714Y-103488628D01*
X89215714Y-103488628D02*
X89263333Y-103441009D01*
X89263333Y-103441009D02*
X89358571Y-103393390D01*
X149562857Y-112799580D02*
X149610476Y-112847200D01*
X149610476Y-112847200D02*
X149753333Y-112894819D01*
X149753333Y-112894819D02*
X149848571Y-112894819D01*
X149848571Y-112894819D02*
X149991428Y-112847200D01*
X149991428Y-112847200D02*
X150086666Y-112751961D01*
X150086666Y-112751961D02*
X150134285Y-112656723D01*
X150134285Y-112656723D02*
X150181904Y-112466247D01*
X150181904Y-112466247D02*
X150181904Y-112323390D01*
X150181904Y-112323390D02*
X150134285Y-112132914D01*
X150134285Y-112132914D02*
X150086666Y-112037676D01*
X150086666Y-112037676D02*
X149991428Y-111942438D01*
X149991428Y-111942438D02*
X149848571Y-111894819D01*
X149848571Y-111894819D02*
X149753333Y-111894819D01*
X149753333Y-111894819D02*
X149610476Y-111942438D01*
X149610476Y-111942438D02*
X149562857Y-111990057D01*
X148610476Y-112894819D02*
X149181904Y-112894819D01*
X148896190Y-112894819D02*
X148896190Y-111894819D01*
X148896190Y-111894819D02*
X148991428Y-112037676D01*
X148991428Y-112037676D02*
X149086666Y-112132914D01*
X149086666Y-112132914D02*
X149181904Y-112180533D01*
X148277142Y-111894819D02*
X147610476Y-111894819D01*
X147610476Y-111894819D02*
X148039047Y-112894819D01*
X120044819Y-78163333D02*
X119568628Y-77830000D01*
X120044819Y-77591905D02*
X119044819Y-77591905D01*
X119044819Y-77591905D02*
X119044819Y-77972857D01*
X119044819Y-77972857D02*
X119092438Y-78068095D01*
X119092438Y-78068095D02*
X119140057Y-78115714D01*
X119140057Y-78115714D02*
X119235295Y-78163333D01*
X119235295Y-78163333D02*
X119378152Y-78163333D01*
X119378152Y-78163333D02*
X119473390Y-78115714D01*
X119473390Y-78115714D02*
X119521009Y-78068095D01*
X119521009Y-78068095D02*
X119568628Y-77972857D01*
X119568628Y-77972857D02*
X119568628Y-77591905D01*
X119044819Y-78496667D02*
X119044819Y-79115714D01*
X119044819Y-79115714D02*
X119425771Y-78782381D01*
X119425771Y-78782381D02*
X119425771Y-78925238D01*
X119425771Y-78925238D02*
X119473390Y-79020476D01*
X119473390Y-79020476D02*
X119521009Y-79068095D01*
X119521009Y-79068095D02*
X119616247Y-79115714D01*
X119616247Y-79115714D02*
X119854342Y-79115714D01*
X119854342Y-79115714D02*
X119949580Y-79068095D01*
X119949580Y-79068095D02*
X119997200Y-79020476D01*
X119997200Y-79020476D02*
X120044819Y-78925238D01*
X120044819Y-78925238D02*
X120044819Y-78639524D01*
X120044819Y-78639524D02*
X119997200Y-78544286D01*
X119997200Y-78544286D02*
X119949580Y-78496667D01*
X109362857Y-107794819D02*
X109696190Y-107318628D01*
X109934285Y-107794819D02*
X109934285Y-106794819D01*
X109934285Y-106794819D02*
X109553333Y-106794819D01*
X109553333Y-106794819D02*
X109458095Y-106842438D01*
X109458095Y-106842438D02*
X109410476Y-106890057D01*
X109410476Y-106890057D02*
X109362857Y-106985295D01*
X109362857Y-106985295D02*
X109362857Y-107128152D01*
X109362857Y-107128152D02*
X109410476Y-107223390D01*
X109410476Y-107223390D02*
X109458095Y-107271009D01*
X109458095Y-107271009D02*
X109553333Y-107318628D01*
X109553333Y-107318628D02*
X109934285Y-107318628D01*
X109029523Y-106794819D02*
X108410476Y-106794819D01*
X108410476Y-106794819D02*
X108743809Y-107175771D01*
X108743809Y-107175771D02*
X108600952Y-107175771D01*
X108600952Y-107175771D02*
X108505714Y-107223390D01*
X108505714Y-107223390D02*
X108458095Y-107271009D01*
X108458095Y-107271009D02*
X108410476Y-107366247D01*
X108410476Y-107366247D02*
X108410476Y-107604342D01*
X108410476Y-107604342D02*
X108458095Y-107699580D01*
X108458095Y-107699580D02*
X108505714Y-107747200D01*
X108505714Y-107747200D02*
X108600952Y-107794819D01*
X108600952Y-107794819D02*
X108886666Y-107794819D01*
X108886666Y-107794819D02*
X108981904Y-107747200D01*
X108981904Y-107747200D02*
X109029523Y-107699580D01*
X107458095Y-107794819D02*
X108029523Y-107794819D01*
X107743809Y-107794819D02*
X107743809Y-106794819D01*
X107743809Y-106794819D02*
X107839047Y-106937676D01*
X107839047Y-106937676D02*
X107934285Y-107032914D01*
X107934285Y-107032914D02*
X108029523Y-107080533D01*
X135234819Y-118275595D02*
X136044342Y-118275595D01*
X136044342Y-118275595D02*
X136139580Y-118323214D01*
X136139580Y-118323214D02*
X136187200Y-118370833D01*
X136187200Y-118370833D02*
X136234819Y-118466071D01*
X136234819Y-118466071D02*
X136234819Y-118656547D01*
X136234819Y-118656547D02*
X136187200Y-118751785D01*
X136187200Y-118751785D02*
X136139580Y-118799404D01*
X136139580Y-118799404D02*
X136044342Y-118847023D01*
X136044342Y-118847023D02*
X135234819Y-118847023D01*
X135234819Y-119227976D02*
X135234819Y-119847023D01*
X135234819Y-119847023D02*
X135615771Y-119513690D01*
X135615771Y-119513690D02*
X135615771Y-119656547D01*
X135615771Y-119656547D02*
X135663390Y-119751785D01*
X135663390Y-119751785D02*
X135711009Y-119799404D01*
X135711009Y-119799404D02*
X135806247Y-119847023D01*
X135806247Y-119847023D02*
X136044342Y-119847023D01*
X136044342Y-119847023D02*
X136139580Y-119799404D01*
X136139580Y-119799404D02*
X136187200Y-119751785D01*
X136187200Y-119751785D02*
X136234819Y-119656547D01*
X136234819Y-119656547D02*
X136234819Y-119370833D01*
X136234819Y-119370833D02*
X136187200Y-119275595D01*
X136187200Y-119275595D02*
X136139580Y-119227976D01*
X131942857Y-113269580D02*
X131990476Y-113317200D01*
X131990476Y-113317200D02*
X132133333Y-113364819D01*
X132133333Y-113364819D02*
X132228571Y-113364819D01*
X132228571Y-113364819D02*
X132371428Y-113317200D01*
X132371428Y-113317200D02*
X132466666Y-113221961D01*
X132466666Y-113221961D02*
X132514285Y-113126723D01*
X132514285Y-113126723D02*
X132561904Y-112936247D01*
X132561904Y-112936247D02*
X132561904Y-112793390D01*
X132561904Y-112793390D02*
X132514285Y-112602914D01*
X132514285Y-112602914D02*
X132466666Y-112507676D01*
X132466666Y-112507676D02*
X132371428Y-112412438D01*
X132371428Y-112412438D02*
X132228571Y-112364819D01*
X132228571Y-112364819D02*
X132133333Y-112364819D01*
X132133333Y-112364819D02*
X131990476Y-112412438D01*
X131990476Y-112412438D02*
X131942857Y-112460057D01*
X130990476Y-113364819D02*
X131561904Y-113364819D01*
X131276190Y-113364819D02*
X131276190Y-112364819D01*
X131276190Y-112364819D02*
X131371428Y-112507676D01*
X131371428Y-112507676D02*
X131466666Y-112602914D01*
X131466666Y-112602914D02*
X131561904Y-112650533D01*
X130514285Y-113364819D02*
X130323809Y-113364819D01*
X130323809Y-113364819D02*
X130228571Y-113317200D01*
X130228571Y-113317200D02*
X130180952Y-113269580D01*
X130180952Y-113269580D02*
X130085714Y-113126723D01*
X130085714Y-113126723D02*
X130038095Y-112936247D01*
X130038095Y-112936247D02*
X130038095Y-112555295D01*
X130038095Y-112555295D02*
X130085714Y-112460057D01*
X130085714Y-112460057D02*
X130133333Y-112412438D01*
X130133333Y-112412438D02*
X130228571Y-112364819D01*
X130228571Y-112364819D02*
X130419047Y-112364819D01*
X130419047Y-112364819D02*
X130514285Y-112412438D01*
X130514285Y-112412438D02*
X130561904Y-112460057D01*
X130561904Y-112460057D02*
X130609523Y-112555295D01*
X130609523Y-112555295D02*
X130609523Y-112793390D01*
X130609523Y-112793390D02*
X130561904Y-112888628D01*
X130561904Y-112888628D02*
X130514285Y-112936247D01*
X130514285Y-112936247D02*
X130419047Y-112983866D01*
X130419047Y-112983866D02*
X130228571Y-112983866D01*
X130228571Y-112983866D02*
X130133333Y-112936247D01*
X130133333Y-112936247D02*
X130085714Y-112888628D01*
X130085714Y-112888628D02*
X130038095Y-112793390D01*
X137022857Y-126024819D02*
X137356190Y-125548628D01*
X137594285Y-126024819D02*
X137594285Y-125024819D01*
X137594285Y-125024819D02*
X137213333Y-125024819D01*
X137213333Y-125024819D02*
X137118095Y-125072438D01*
X137118095Y-125072438D02*
X137070476Y-125120057D01*
X137070476Y-125120057D02*
X137022857Y-125215295D01*
X137022857Y-125215295D02*
X137022857Y-125358152D01*
X137022857Y-125358152D02*
X137070476Y-125453390D01*
X137070476Y-125453390D02*
X137118095Y-125501009D01*
X137118095Y-125501009D02*
X137213333Y-125548628D01*
X137213333Y-125548628D02*
X137594285Y-125548628D01*
X136641904Y-125120057D02*
X136594285Y-125072438D01*
X136594285Y-125072438D02*
X136499047Y-125024819D01*
X136499047Y-125024819D02*
X136260952Y-125024819D01*
X136260952Y-125024819D02*
X136165714Y-125072438D01*
X136165714Y-125072438D02*
X136118095Y-125120057D01*
X136118095Y-125120057D02*
X136070476Y-125215295D01*
X136070476Y-125215295D02*
X136070476Y-125310533D01*
X136070476Y-125310533D02*
X136118095Y-125453390D01*
X136118095Y-125453390D02*
X136689523Y-126024819D01*
X136689523Y-126024819D02*
X136070476Y-126024819D01*
X135594285Y-126024819D02*
X135403809Y-126024819D01*
X135403809Y-126024819D02*
X135308571Y-125977200D01*
X135308571Y-125977200D02*
X135260952Y-125929580D01*
X135260952Y-125929580D02*
X135165714Y-125786723D01*
X135165714Y-125786723D02*
X135118095Y-125596247D01*
X135118095Y-125596247D02*
X135118095Y-125215295D01*
X135118095Y-125215295D02*
X135165714Y-125120057D01*
X135165714Y-125120057D02*
X135213333Y-125072438D01*
X135213333Y-125072438D02*
X135308571Y-125024819D01*
X135308571Y-125024819D02*
X135499047Y-125024819D01*
X135499047Y-125024819D02*
X135594285Y-125072438D01*
X135594285Y-125072438D02*
X135641904Y-125120057D01*
X135641904Y-125120057D02*
X135689523Y-125215295D01*
X135689523Y-125215295D02*
X135689523Y-125453390D01*
X135689523Y-125453390D02*
X135641904Y-125548628D01*
X135641904Y-125548628D02*
X135594285Y-125596247D01*
X135594285Y-125596247D02*
X135499047Y-125643866D01*
X135499047Y-125643866D02*
X135308571Y-125643866D01*
X135308571Y-125643866D02*
X135213333Y-125596247D01*
X135213333Y-125596247D02*
X135165714Y-125548628D01*
X135165714Y-125548628D02*
X135118095Y-125453390D01*
X104096208Y-94112142D02*
X103620017Y-93778809D01*
X104096208Y-93540714D02*
X103096208Y-93540714D01*
X103096208Y-93540714D02*
X103096208Y-93921666D01*
X103096208Y-93921666D02*
X103143827Y-94016904D01*
X103143827Y-94016904D02*
X103191446Y-94064523D01*
X103191446Y-94064523D02*
X103286684Y-94112142D01*
X103286684Y-94112142D02*
X103429541Y-94112142D01*
X103429541Y-94112142D02*
X103524779Y-94064523D01*
X103524779Y-94064523D02*
X103572398Y-94016904D01*
X103572398Y-94016904D02*
X103620017Y-93921666D01*
X103620017Y-93921666D02*
X103620017Y-93540714D01*
X103191446Y-94493095D02*
X103143827Y-94540714D01*
X103143827Y-94540714D02*
X103096208Y-94635952D01*
X103096208Y-94635952D02*
X103096208Y-94874047D01*
X103096208Y-94874047D02*
X103143827Y-94969285D01*
X103143827Y-94969285D02*
X103191446Y-95016904D01*
X103191446Y-95016904D02*
X103286684Y-95064523D01*
X103286684Y-95064523D02*
X103381922Y-95064523D01*
X103381922Y-95064523D02*
X103524779Y-95016904D01*
X103524779Y-95016904D02*
X104096208Y-94445476D01*
X104096208Y-94445476D02*
X104096208Y-95064523D01*
X104096208Y-96016904D02*
X104096208Y-95445476D01*
X104096208Y-95731190D02*
X103096208Y-95731190D01*
X103096208Y-95731190D02*
X103239065Y-95635952D01*
X103239065Y-95635952D02*
X103334303Y-95540714D01*
X103334303Y-95540714D02*
X103381922Y-95445476D01*
X107304819Y-50427142D02*
X106828628Y-50093809D01*
X107304819Y-49855714D02*
X106304819Y-49855714D01*
X106304819Y-49855714D02*
X106304819Y-50236666D01*
X106304819Y-50236666D02*
X106352438Y-50331904D01*
X106352438Y-50331904D02*
X106400057Y-50379523D01*
X106400057Y-50379523D02*
X106495295Y-50427142D01*
X106495295Y-50427142D02*
X106638152Y-50427142D01*
X106638152Y-50427142D02*
X106733390Y-50379523D01*
X106733390Y-50379523D02*
X106781009Y-50331904D01*
X106781009Y-50331904D02*
X106828628Y-50236666D01*
X106828628Y-50236666D02*
X106828628Y-49855714D01*
X106304819Y-50760476D02*
X106304819Y-51379523D01*
X106304819Y-51379523D02*
X106685771Y-51046190D01*
X106685771Y-51046190D02*
X106685771Y-51189047D01*
X106685771Y-51189047D02*
X106733390Y-51284285D01*
X106733390Y-51284285D02*
X106781009Y-51331904D01*
X106781009Y-51331904D02*
X106876247Y-51379523D01*
X106876247Y-51379523D02*
X107114342Y-51379523D01*
X107114342Y-51379523D02*
X107209580Y-51331904D01*
X107209580Y-51331904D02*
X107257200Y-51284285D01*
X107257200Y-51284285D02*
X107304819Y-51189047D01*
X107304819Y-51189047D02*
X107304819Y-50903333D01*
X107304819Y-50903333D02*
X107257200Y-50808095D01*
X107257200Y-50808095D02*
X107209580Y-50760476D01*
X106304819Y-51712857D02*
X106304819Y-52379523D01*
X106304819Y-52379523D02*
X107304819Y-51950952D01*
X116814819Y-50427142D02*
X116338628Y-50093809D01*
X116814819Y-49855714D02*
X115814819Y-49855714D01*
X115814819Y-49855714D02*
X115814819Y-50236666D01*
X115814819Y-50236666D02*
X115862438Y-50331904D01*
X115862438Y-50331904D02*
X115910057Y-50379523D01*
X115910057Y-50379523D02*
X116005295Y-50427142D01*
X116005295Y-50427142D02*
X116148152Y-50427142D01*
X116148152Y-50427142D02*
X116243390Y-50379523D01*
X116243390Y-50379523D02*
X116291009Y-50331904D01*
X116291009Y-50331904D02*
X116338628Y-50236666D01*
X116338628Y-50236666D02*
X116338628Y-49855714D01*
X116148152Y-51284285D02*
X116814819Y-51284285D01*
X115767200Y-51046190D02*
X116481485Y-50808095D01*
X116481485Y-50808095D02*
X116481485Y-51427142D01*
X115910057Y-51760476D02*
X115862438Y-51808095D01*
X115862438Y-51808095D02*
X115814819Y-51903333D01*
X115814819Y-51903333D02*
X115814819Y-52141428D01*
X115814819Y-52141428D02*
X115862438Y-52236666D01*
X115862438Y-52236666D02*
X115910057Y-52284285D01*
X115910057Y-52284285D02*
X116005295Y-52331904D01*
X116005295Y-52331904D02*
X116100533Y-52331904D01*
X116100533Y-52331904D02*
X116243390Y-52284285D01*
X116243390Y-52284285D02*
X116814819Y-51712857D01*
X116814819Y-51712857D02*
X116814819Y-52331904D01*
X149852857Y-35204819D02*
X150186190Y-34728628D01*
X150424285Y-35204819D02*
X150424285Y-34204819D01*
X150424285Y-34204819D02*
X150043333Y-34204819D01*
X150043333Y-34204819D02*
X149948095Y-34252438D01*
X149948095Y-34252438D02*
X149900476Y-34300057D01*
X149900476Y-34300057D02*
X149852857Y-34395295D01*
X149852857Y-34395295D02*
X149852857Y-34538152D01*
X149852857Y-34538152D02*
X149900476Y-34633390D01*
X149900476Y-34633390D02*
X149948095Y-34681009D01*
X149948095Y-34681009D02*
X150043333Y-34728628D01*
X150043333Y-34728628D02*
X150424285Y-34728628D01*
X149519523Y-34204819D02*
X148900476Y-34204819D01*
X148900476Y-34204819D02*
X149233809Y-34585771D01*
X149233809Y-34585771D02*
X149090952Y-34585771D01*
X149090952Y-34585771D02*
X148995714Y-34633390D01*
X148995714Y-34633390D02*
X148948095Y-34681009D01*
X148948095Y-34681009D02*
X148900476Y-34776247D01*
X148900476Y-34776247D02*
X148900476Y-35014342D01*
X148900476Y-35014342D02*
X148948095Y-35109580D01*
X148948095Y-35109580D02*
X148995714Y-35157200D01*
X148995714Y-35157200D02*
X149090952Y-35204819D01*
X149090952Y-35204819D02*
X149376666Y-35204819D01*
X149376666Y-35204819D02*
X149471904Y-35157200D01*
X149471904Y-35157200D02*
X149519523Y-35109580D01*
X147995714Y-34204819D02*
X148471904Y-34204819D01*
X148471904Y-34204819D02*
X148519523Y-34681009D01*
X148519523Y-34681009D02*
X148471904Y-34633390D01*
X148471904Y-34633390D02*
X148376666Y-34585771D01*
X148376666Y-34585771D02*
X148138571Y-34585771D01*
X148138571Y-34585771D02*
X148043333Y-34633390D01*
X148043333Y-34633390D02*
X147995714Y-34681009D01*
X147995714Y-34681009D02*
X147948095Y-34776247D01*
X147948095Y-34776247D02*
X147948095Y-35014342D01*
X147948095Y-35014342D02*
X147995714Y-35109580D01*
X147995714Y-35109580D02*
X148043333Y-35157200D01*
X148043333Y-35157200D02*
X148138571Y-35204819D01*
X148138571Y-35204819D02*
X148376666Y-35204819D01*
X148376666Y-35204819D02*
X148471904Y-35157200D01*
X148471904Y-35157200D02*
X148519523Y-35109580D01*
X107030475Y-34144819D02*
X106459047Y-34144819D01*
X106744761Y-35144819D02*
X106744761Y-34144819D01*
X105792380Y-34621009D02*
X106125713Y-34621009D01*
X106125713Y-35144819D02*
X106125713Y-34144819D01*
X106125713Y-34144819D02*
X105649523Y-34144819D01*
X104744761Y-35144819D02*
X105316189Y-35144819D01*
X105030475Y-35144819D02*
X105030475Y-34144819D01*
X105030475Y-34144819D02*
X105125713Y-34287676D01*
X105125713Y-34287676D02*
X105220951Y-34382914D01*
X105220951Y-34382914D02*
X105316189Y-34430533D01*
X149562857Y-110379580D02*
X149610476Y-110427200D01*
X149610476Y-110427200D02*
X149753333Y-110474819D01*
X149753333Y-110474819D02*
X149848571Y-110474819D01*
X149848571Y-110474819D02*
X149991428Y-110427200D01*
X149991428Y-110427200D02*
X150086666Y-110331961D01*
X150086666Y-110331961D02*
X150134285Y-110236723D01*
X150134285Y-110236723D02*
X150181904Y-110046247D01*
X150181904Y-110046247D02*
X150181904Y-109903390D01*
X150181904Y-109903390D02*
X150134285Y-109712914D01*
X150134285Y-109712914D02*
X150086666Y-109617676D01*
X150086666Y-109617676D02*
X149991428Y-109522438D01*
X149991428Y-109522438D02*
X149848571Y-109474819D01*
X149848571Y-109474819D02*
X149753333Y-109474819D01*
X149753333Y-109474819D02*
X149610476Y-109522438D01*
X149610476Y-109522438D02*
X149562857Y-109570057D01*
X148610476Y-110474819D02*
X149181904Y-110474819D01*
X148896190Y-110474819D02*
X148896190Y-109474819D01*
X148896190Y-109474819D02*
X148991428Y-109617676D01*
X148991428Y-109617676D02*
X149086666Y-109712914D01*
X149086666Y-109712914D02*
X149181904Y-109760533D01*
X147753333Y-109474819D02*
X147943809Y-109474819D01*
X147943809Y-109474819D02*
X148039047Y-109522438D01*
X148039047Y-109522438D02*
X148086666Y-109570057D01*
X148086666Y-109570057D02*
X148181904Y-109712914D01*
X148181904Y-109712914D02*
X148229523Y-109903390D01*
X148229523Y-109903390D02*
X148229523Y-110284342D01*
X148229523Y-110284342D02*
X148181904Y-110379580D01*
X148181904Y-110379580D02*
X148134285Y-110427200D01*
X148134285Y-110427200D02*
X148039047Y-110474819D01*
X148039047Y-110474819D02*
X147848571Y-110474819D01*
X147848571Y-110474819D02*
X147753333Y-110427200D01*
X147753333Y-110427200D02*
X147705714Y-110379580D01*
X147705714Y-110379580D02*
X147658095Y-110284342D01*
X147658095Y-110284342D02*
X147658095Y-110046247D01*
X147658095Y-110046247D02*
X147705714Y-109951009D01*
X147705714Y-109951009D02*
X147753333Y-109903390D01*
X147753333Y-109903390D02*
X147848571Y-109855771D01*
X147848571Y-109855771D02*
X148039047Y-109855771D01*
X148039047Y-109855771D02*
X148134285Y-109903390D01*
X148134285Y-109903390D02*
X148181904Y-109951009D01*
X148181904Y-109951009D02*
X148229523Y-110046247D01*
X144552857Y-126024819D02*
X144886190Y-125548628D01*
X145124285Y-126024819D02*
X145124285Y-125024819D01*
X145124285Y-125024819D02*
X144743333Y-125024819D01*
X144743333Y-125024819D02*
X144648095Y-125072438D01*
X144648095Y-125072438D02*
X144600476Y-125120057D01*
X144600476Y-125120057D02*
X144552857Y-125215295D01*
X144552857Y-125215295D02*
X144552857Y-125358152D01*
X144552857Y-125358152D02*
X144600476Y-125453390D01*
X144600476Y-125453390D02*
X144648095Y-125501009D01*
X144648095Y-125501009D02*
X144743333Y-125548628D01*
X144743333Y-125548628D02*
X145124285Y-125548628D01*
X144171904Y-125120057D02*
X144124285Y-125072438D01*
X144124285Y-125072438D02*
X144029047Y-125024819D01*
X144029047Y-125024819D02*
X143790952Y-125024819D01*
X143790952Y-125024819D02*
X143695714Y-125072438D01*
X143695714Y-125072438D02*
X143648095Y-125120057D01*
X143648095Y-125120057D02*
X143600476Y-125215295D01*
X143600476Y-125215295D02*
X143600476Y-125310533D01*
X143600476Y-125310533D02*
X143648095Y-125453390D01*
X143648095Y-125453390D02*
X144219523Y-126024819D01*
X144219523Y-126024819D02*
X143600476Y-126024819D01*
X142695714Y-125024819D02*
X143171904Y-125024819D01*
X143171904Y-125024819D02*
X143219523Y-125501009D01*
X143219523Y-125501009D02*
X143171904Y-125453390D01*
X143171904Y-125453390D02*
X143076666Y-125405771D01*
X143076666Y-125405771D02*
X142838571Y-125405771D01*
X142838571Y-125405771D02*
X142743333Y-125453390D01*
X142743333Y-125453390D02*
X142695714Y-125501009D01*
X142695714Y-125501009D02*
X142648095Y-125596247D01*
X142648095Y-125596247D02*
X142648095Y-125834342D01*
X142648095Y-125834342D02*
X142695714Y-125929580D01*
X142695714Y-125929580D02*
X142743333Y-125977200D01*
X142743333Y-125977200D02*
X142838571Y-126024819D01*
X142838571Y-126024819D02*
X143076666Y-126024819D01*
X143076666Y-126024819D02*
X143171904Y-125977200D01*
X143171904Y-125977200D02*
X143219523Y-125929580D01*
X104969580Y-50427142D02*
X105017200Y-50379523D01*
X105017200Y-50379523D02*
X105064819Y-50236666D01*
X105064819Y-50236666D02*
X105064819Y-50141428D01*
X105064819Y-50141428D02*
X105017200Y-49998571D01*
X105017200Y-49998571D02*
X104921961Y-49903333D01*
X104921961Y-49903333D02*
X104826723Y-49855714D01*
X104826723Y-49855714D02*
X104636247Y-49808095D01*
X104636247Y-49808095D02*
X104493390Y-49808095D01*
X104493390Y-49808095D02*
X104302914Y-49855714D01*
X104302914Y-49855714D02*
X104207676Y-49903333D01*
X104207676Y-49903333D02*
X104112438Y-49998571D01*
X104112438Y-49998571D02*
X104064819Y-50141428D01*
X104064819Y-50141428D02*
X104064819Y-50236666D01*
X104064819Y-50236666D02*
X104112438Y-50379523D01*
X104112438Y-50379523D02*
X104160057Y-50427142D01*
X104160057Y-50808095D02*
X104112438Y-50855714D01*
X104112438Y-50855714D02*
X104064819Y-50950952D01*
X104064819Y-50950952D02*
X104064819Y-51189047D01*
X104064819Y-51189047D02*
X104112438Y-51284285D01*
X104112438Y-51284285D02*
X104160057Y-51331904D01*
X104160057Y-51331904D02*
X104255295Y-51379523D01*
X104255295Y-51379523D02*
X104350533Y-51379523D01*
X104350533Y-51379523D02*
X104493390Y-51331904D01*
X104493390Y-51331904D02*
X105064819Y-50760476D01*
X105064819Y-50760476D02*
X105064819Y-51379523D01*
X104398152Y-52236666D02*
X105064819Y-52236666D01*
X104017200Y-51998571D02*
X104731485Y-51760476D01*
X104731485Y-51760476D02*
X104731485Y-52379523D01*
X91072857Y-101024819D02*
X91406190Y-100548628D01*
X91644285Y-101024819D02*
X91644285Y-100024819D01*
X91644285Y-100024819D02*
X91263333Y-100024819D01*
X91263333Y-100024819D02*
X91168095Y-100072438D01*
X91168095Y-100072438D02*
X91120476Y-100120057D01*
X91120476Y-100120057D02*
X91072857Y-100215295D01*
X91072857Y-100215295D02*
X91072857Y-100358152D01*
X91072857Y-100358152D02*
X91120476Y-100453390D01*
X91120476Y-100453390D02*
X91168095Y-100501009D01*
X91168095Y-100501009D02*
X91263333Y-100548628D01*
X91263333Y-100548628D02*
X91644285Y-100548628D01*
X90691904Y-100120057D02*
X90644285Y-100072438D01*
X90644285Y-100072438D02*
X90549047Y-100024819D01*
X90549047Y-100024819D02*
X90310952Y-100024819D01*
X90310952Y-100024819D02*
X90215714Y-100072438D01*
X90215714Y-100072438D02*
X90168095Y-100120057D01*
X90168095Y-100120057D02*
X90120476Y-100215295D01*
X90120476Y-100215295D02*
X90120476Y-100310533D01*
X90120476Y-100310533D02*
X90168095Y-100453390D01*
X90168095Y-100453390D02*
X90739523Y-101024819D01*
X90739523Y-101024819D02*
X90120476Y-101024819D01*
X89787142Y-100024819D02*
X89120476Y-100024819D01*
X89120476Y-100024819D02*
X89549047Y-101024819D01*
X149802857Y-43114819D02*
X150136190Y-42638628D01*
X150374285Y-43114819D02*
X150374285Y-42114819D01*
X150374285Y-42114819D02*
X149993333Y-42114819D01*
X149993333Y-42114819D02*
X149898095Y-42162438D01*
X149898095Y-42162438D02*
X149850476Y-42210057D01*
X149850476Y-42210057D02*
X149802857Y-42305295D01*
X149802857Y-42305295D02*
X149802857Y-42448152D01*
X149802857Y-42448152D02*
X149850476Y-42543390D01*
X149850476Y-42543390D02*
X149898095Y-42591009D01*
X149898095Y-42591009D02*
X149993333Y-42638628D01*
X149993333Y-42638628D02*
X150374285Y-42638628D01*
X149469523Y-42114819D02*
X148850476Y-42114819D01*
X148850476Y-42114819D02*
X149183809Y-42495771D01*
X149183809Y-42495771D02*
X149040952Y-42495771D01*
X149040952Y-42495771D02*
X148945714Y-42543390D01*
X148945714Y-42543390D02*
X148898095Y-42591009D01*
X148898095Y-42591009D02*
X148850476Y-42686247D01*
X148850476Y-42686247D02*
X148850476Y-42924342D01*
X148850476Y-42924342D02*
X148898095Y-43019580D01*
X148898095Y-43019580D02*
X148945714Y-43067200D01*
X148945714Y-43067200D02*
X149040952Y-43114819D01*
X149040952Y-43114819D02*
X149326666Y-43114819D01*
X149326666Y-43114819D02*
X149421904Y-43067200D01*
X149421904Y-43067200D02*
X149469523Y-43019580D01*
X147993333Y-42114819D02*
X148183809Y-42114819D01*
X148183809Y-42114819D02*
X148279047Y-42162438D01*
X148279047Y-42162438D02*
X148326666Y-42210057D01*
X148326666Y-42210057D02*
X148421904Y-42352914D01*
X148421904Y-42352914D02*
X148469523Y-42543390D01*
X148469523Y-42543390D02*
X148469523Y-42924342D01*
X148469523Y-42924342D02*
X148421904Y-43019580D01*
X148421904Y-43019580D02*
X148374285Y-43067200D01*
X148374285Y-43067200D02*
X148279047Y-43114819D01*
X148279047Y-43114819D02*
X148088571Y-43114819D01*
X148088571Y-43114819D02*
X147993333Y-43067200D01*
X147993333Y-43067200D02*
X147945714Y-43019580D01*
X147945714Y-43019580D02*
X147898095Y-42924342D01*
X147898095Y-42924342D02*
X147898095Y-42686247D01*
X147898095Y-42686247D02*
X147945714Y-42591009D01*
X147945714Y-42591009D02*
X147993333Y-42543390D01*
X147993333Y-42543390D02*
X148088571Y-42495771D01*
X148088571Y-42495771D02*
X148279047Y-42495771D01*
X148279047Y-42495771D02*
X148374285Y-42543390D01*
X148374285Y-42543390D02*
X148421904Y-42591009D01*
X148421904Y-42591009D02*
X148469523Y-42686247D01*
X102729580Y-50427142D02*
X102777200Y-50379523D01*
X102777200Y-50379523D02*
X102824819Y-50236666D01*
X102824819Y-50236666D02*
X102824819Y-50141428D01*
X102824819Y-50141428D02*
X102777200Y-49998571D01*
X102777200Y-49998571D02*
X102681961Y-49903333D01*
X102681961Y-49903333D02*
X102586723Y-49855714D01*
X102586723Y-49855714D02*
X102396247Y-49808095D01*
X102396247Y-49808095D02*
X102253390Y-49808095D01*
X102253390Y-49808095D02*
X102062914Y-49855714D01*
X102062914Y-49855714D02*
X101967676Y-49903333D01*
X101967676Y-49903333D02*
X101872438Y-49998571D01*
X101872438Y-49998571D02*
X101824819Y-50141428D01*
X101824819Y-50141428D02*
X101824819Y-50236666D01*
X101824819Y-50236666D02*
X101872438Y-50379523D01*
X101872438Y-50379523D02*
X101920057Y-50427142D01*
X101920057Y-50808095D02*
X101872438Y-50855714D01*
X101872438Y-50855714D02*
X101824819Y-50950952D01*
X101824819Y-50950952D02*
X101824819Y-51189047D01*
X101824819Y-51189047D02*
X101872438Y-51284285D01*
X101872438Y-51284285D02*
X101920057Y-51331904D01*
X101920057Y-51331904D02*
X102015295Y-51379523D01*
X102015295Y-51379523D02*
X102110533Y-51379523D01*
X102110533Y-51379523D02*
X102253390Y-51331904D01*
X102253390Y-51331904D02*
X102824819Y-50760476D01*
X102824819Y-50760476D02*
X102824819Y-51379523D01*
X101824819Y-51712857D02*
X101824819Y-52331904D01*
X101824819Y-52331904D02*
X102205771Y-51998571D01*
X102205771Y-51998571D02*
X102205771Y-52141428D01*
X102205771Y-52141428D02*
X102253390Y-52236666D01*
X102253390Y-52236666D02*
X102301009Y-52284285D01*
X102301009Y-52284285D02*
X102396247Y-52331904D01*
X102396247Y-52331904D02*
X102634342Y-52331904D01*
X102634342Y-52331904D02*
X102729580Y-52284285D01*
X102729580Y-52284285D02*
X102777200Y-52236666D01*
X102777200Y-52236666D02*
X102824819Y-52141428D01*
X102824819Y-52141428D02*
X102824819Y-51855714D01*
X102824819Y-51855714D02*
X102777200Y-51760476D01*
X102777200Y-51760476D02*
X102729580Y-51712857D01*
X112712857Y-43924819D02*
X113046190Y-43448628D01*
X113284285Y-43924819D02*
X113284285Y-42924819D01*
X113284285Y-42924819D02*
X112903333Y-42924819D01*
X112903333Y-42924819D02*
X112808095Y-42972438D01*
X112808095Y-42972438D02*
X112760476Y-43020057D01*
X112760476Y-43020057D02*
X112712857Y-43115295D01*
X112712857Y-43115295D02*
X112712857Y-43258152D01*
X112712857Y-43258152D02*
X112760476Y-43353390D01*
X112760476Y-43353390D02*
X112808095Y-43401009D01*
X112808095Y-43401009D02*
X112903333Y-43448628D01*
X112903333Y-43448628D02*
X113284285Y-43448628D01*
X111855714Y-43258152D02*
X111855714Y-43924819D01*
X112093809Y-42877200D02*
X112331904Y-43591485D01*
X112331904Y-43591485D02*
X111712857Y-43591485D01*
X110808095Y-43924819D02*
X111379523Y-43924819D01*
X111093809Y-43924819D02*
X111093809Y-42924819D01*
X111093809Y-42924819D02*
X111189047Y-43067676D01*
X111189047Y-43067676D02*
X111284285Y-43162914D01*
X111284285Y-43162914D02*
X111379523Y-43210533D01*
X140817857Y-126024819D02*
X141151190Y-125548628D01*
X141389285Y-126024819D02*
X141389285Y-125024819D01*
X141389285Y-125024819D02*
X141008333Y-125024819D01*
X141008333Y-125024819D02*
X140913095Y-125072438D01*
X140913095Y-125072438D02*
X140865476Y-125120057D01*
X140865476Y-125120057D02*
X140817857Y-125215295D01*
X140817857Y-125215295D02*
X140817857Y-125358152D01*
X140817857Y-125358152D02*
X140865476Y-125453390D01*
X140865476Y-125453390D02*
X140913095Y-125501009D01*
X140913095Y-125501009D02*
X141008333Y-125548628D01*
X141008333Y-125548628D02*
X141389285Y-125548628D01*
X140436904Y-125120057D02*
X140389285Y-125072438D01*
X140389285Y-125072438D02*
X140294047Y-125024819D01*
X140294047Y-125024819D02*
X140055952Y-125024819D01*
X140055952Y-125024819D02*
X139960714Y-125072438D01*
X139960714Y-125072438D02*
X139913095Y-125120057D01*
X139913095Y-125120057D02*
X139865476Y-125215295D01*
X139865476Y-125215295D02*
X139865476Y-125310533D01*
X139865476Y-125310533D02*
X139913095Y-125453390D01*
X139913095Y-125453390D02*
X140484523Y-126024819D01*
X140484523Y-126024819D02*
X139865476Y-126024819D01*
X139008333Y-125024819D02*
X139198809Y-125024819D01*
X139198809Y-125024819D02*
X139294047Y-125072438D01*
X139294047Y-125072438D02*
X139341666Y-125120057D01*
X139341666Y-125120057D02*
X139436904Y-125262914D01*
X139436904Y-125262914D02*
X139484523Y-125453390D01*
X139484523Y-125453390D02*
X139484523Y-125834342D01*
X139484523Y-125834342D02*
X139436904Y-125929580D01*
X139436904Y-125929580D02*
X139389285Y-125977200D01*
X139389285Y-125977200D02*
X139294047Y-126024819D01*
X139294047Y-126024819D02*
X139103571Y-126024819D01*
X139103571Y-126024819D02*
X139008333Y-125977200D01*
X139008333Y-125977200D02*
X138960714Y-125929580D01*
X138960714Y-125929580D02*
X138913095Y-125834342D01*
X138913095Y-125834342D02*
X138913095Y-125596247D01*
X138913095Y-125596247D02*
X138960714Y-125501009D01*
X138960714Y-125501009D02*
X139008333Y-125453390D01*
X139008333Y-125453390D02*
X139103571Y-125405771D01*
X139103571Y-125405771D02*
X139294047Y-125405771D01*
X139294047Y-125405771D02*
X139389285Y-125453390D01*
X139389285Y-125453390D02*
X139436904Y-125501009D01*
X139436904Y-125501009D02*
X139484523Y-125596247D01*
D12*
%TO.C,U1*%
X119650000Y-27750000D02*
X119650000Y-33950000D01*
X119650000Y-53600000D02*
X119650000Y-52600000D01*
X119650000Y-53600000D02*
X121150000Y-53600000D01*
X138050000Y-27750000D02*
X119650000Y-27750000D01*
X138050000Y-27750000D02*
X138050000Y-33950000D01*
X138050000Y-52600000D02*
X138050000Y-53600000D01*
X138050000Y-53600000D02*
X136550000Y-53600000D01*
X138550000Y-34625000D02*
X138050000Y-34625000D01*
X138050000Y-34125000D01*
X138550000Y-34625000D01*
G36*
X138550000Y-34625000D02*
G01*
X138050000Y-34625000D01*
X138050000Y-34125000D01*
X138550000Y-34625000D01*
G37*
%TO.C,Q1*%
X117250000Y-82790000D02*
X117250000Y-84310000D01*
X117250000Y-84310000D02*
X118250000Y-84310000D01*
X117300000Y-82790000D02*
X117250000Y-82790000D01*
X119200000Y-82790000D02*
X118420000Y-82790000D01*
X119370000Y-84310000D02*
X120370000Y-84310000D01*
X120370000Y-82790000D02*
X120320000Y-82790000D01*
X120370000Y-84310000D02*
X120370000Y-82790000D01*
X118760000Y-82490000D02*
X118430000Y-82250000D01*
X118760000Y-82010000D01*
X118760000Y-82490000D01*
G36*
X118760000Y-82490000D02*
G01*
X118430000Y-82250000D01*
X118760000Y-82010000D01*
X118760000Y-82490000D01*
G37*
%TO.C,R19*%
X105895000Y-97997936D02*
X105895000Y-98452064D01*
X107365000Y-97997936D02*
X107365000Y-98452064D01*
%TO.C,R23*%
X140295000Y-37392936D02*
X140295000Y-37847064D01*
X141765000Y-37392936D02*
X141765000Y-37847064D01*
%TO.C,R30*%
X144477064Y-120745000D02*
X144022936Y-120745000D01*
X144477064Y-122215000D02*
X144022936Y-122215000D01*
%TO.C,R33*%
X72357064Y-117275000D02*
X71902936Y-117275000D01*
X72357064Y-118745000D02*
X71902936Y-118745000D01*
%TO.C,R32*%
X112327064Y-103785000D02*
X111872936Y-103785000D01*
X112327064Y-105255000D02*
X111872936Y-105255000D01*
%TO.C,R18*%
X99897778Y-97997936D02*
X99897778Y-98452064D01*
X101367778Y-97997936D02*
X101367778Y-98452064D01*
%TO.C,R39*%
X110584999Y-48307064D02*
X110584999Y-47852936D01*
X112054999Y-48307064D02*
X112054999Y-47852936D01*
%TO.C,R34*%
X90812936Y-116965000D02*
X91267064Y-116965000D01*
X90812936Y-118435000D02*
X91267064Y-118435000D01*
%TO.C,R4*%
X114625000Y-82952936D02*
X114625000Y-83407064D01*
X116095000Y-82952936D02*
X116095000Y-83407064D01*
%TO.C,R17*%
X96899167Y-97997936D02*
X96899167Y-98452064D01*
X98369167Y-97997936D02*
X98369167Y-98452064D01*
%TO.C,R40*%
X114785000Y-53752936D02*
X114785000Y-54207064D01*
X113315000Y-53752936D02*
X113315000Y-54207064D01*
%TO.C,R38*%
X109844999Y-47852936D02*
X109844999Y-48307064D01*
X108374999Y-47852936D02*
X108374999Y-48307064D01*
%TO.C,C18*%
X134861252Y-109825000D02*
X134338748Y-109825000D01*
X134861252Y-111295000D02*
X134338748Y-111295000D01*
%TO.C,R28*%
X93340436Y-102785000D02*
X93794564Y-102785000D01*
X93340436Y-104255000D02*
X93794564Y-104255000D01*
%TO.C,C17*%
X145238748Y-111685000D02*
X145761252Y-111685000D01*
X145238748Y-113155000D02*
X145761252Y-113155000D01*
%TO.C,R3*%
X120505000Y-78102936D02*
X120505000Y-78557064D01*
X121975000Y-78102936D02*
X121975000Y-78557064D01*
%TO.C,R31*%
X112327064Y-106615000D02*
X111872936Y-106615000D01*
X112327064Y-108085000D02*
X111872936Y-108085000D01*
D13*
%TO.C,U3*%
X136680000Y-115897500D02*
X136930000Y-115897500D01*
X136680000Y-119597500D02*
X136680000Y-115897500D01*
X138080000Y-119597500D02*
X136680000Y-119597500D01*
X141980000Y-119597500D02*
X143380000Y-119597500D01*
X143380000Y-115897500D02*
X143130000Y-115897500D01*
X143380000Y-119597500D02*
X143380000Y-115897500D01*
D14*
X137830000Y-113147500D02*
G75*
G02*
X137630000Y-113147500I-100000J0D01*
G01*
X137630000Y-113147500D02*
G75*
G02*
X137830000Y-113147500I100000J0D01*
G01*
D12*
%TO.C,C19*%
X134861252Y-112155000D02*
X134338748Y-112155000D01*
X134861252Y-113625000D02*
X134338748Y-113625000D01*
%TO.C,R29*%
X136657064Y-123135000D02*
X136202936Y-123135000D01*
X136657064Y-124605000D02*
X136202936Y-124605000D01*
%TO.C,R21*%
X102896389Y-97997936D02*
X102896389Y-98452064D01*
X104366389Y-97997936D02*
X104366389Y-98452064D01*
%TO.C,R37*%
X106225000Y-47852936D02*
X106225000Y-48307064D01*
X107695000Y-47852936D02*
X107695000Y-48307064D01*
%TO.C,R42*%
X117155000Y-53802936D02*
X117155000Y-54257064D01*
X115685000Y-53802936D02*
X115685000Y-54257064D01*
%TO.C,R35*%
X149367064Y-35655000D02*
X148912936Y-35655000D01*
X149367064Y-37125000D02*
X148912936Y-37125000D01*
D13*
%TO.C,TF1*%
X98655000Y-27530000D02*
X113405000Y-27530000D01*
X98655000Y-30510000D02*
X98655000Y-27530000D01*
X98655000Y-40010000D02*
X98655000Y-33350000D01*
X111760000Y-42030000D02*
X108950000Y-42030000D01*
X113405000Y-30510000D02*
X113405000Y-27530000D01*
X113405000Y-40410000D02*
X113405000Y-33350000D01*
D14*
X108380000Y-43880000D02*
G75*
G02*
X108180000Y-43880000I-100000J0D01*
G01*
X108180000Y-43880000D02*
G75*
G02*
X108380000Y-43880000I100000J0D01*
G01*
D12*
%TO.C,C16*%
X145238748Y-109275000D02*
X145761252Y-109275000D01*
X145238748Y-110745000D02*
X145761252Y-110745000D01*
%TO.C,R25*%
X143652936Y-123135000D02*
X144107064Y-123135000D01*
X143652936Y-124605000D02*
X144107064Y-124605000D01*
%TO.C,C24*%
X105405000Y-48291252D02*
X105405000Y-47768748D01*
X103935000Y-48291252D02*
X103935000Y-47768748D01*
%TO.C,R27*%
X93340436Y-99835000D02*
X93794564Y-99835000D01*
X93340436Y-101305000D02*
X93794564Y-101305000D01*
%TO.C,R36*%
X149387064Y-43575000D02*
X148932936Y-43575000D01*
X149387064Y-45045000D02*
X148932936Y-45045000D01*
%TO.C,C23*%
X103135000Y-48291252D02*
X103135000Y-47768748D01*
X101665000Y-48291252D02*
X101665000Y-47768748D01*
%TO.C,R41*%
X112297064Y-44385000D02*
X111842936Y-44385000D01*
X112297064Y-45855000D02*
X111842936Y-45855000D01*
%TO.C,R26*%
X139927936Y-123135000D02*
X140382064Y-123135000D01*
X139927936Y-124605000D02*
X140382064Y-124605000D01*
%TD*%
M02*
