%TF.GenerationSoftware,KiCad,Pcbnew,9.0.6*%
%TF.CreationDate,2026-01-27T22:48:49+01:00*%
%TF.ProjectId,rayman_main,7261796d-616e-45f6-9d61-696e2e6b6963,rev?*%
%TF.SameCoordinates,Original*%
%TF.FileFunction,Paste,Bot*%
%TF.FilePolarity,Positive*%
%FSLAX46Y46*%
G04 Gerber Fmt 4.6, Leading zero omitted, Abs format (unit mm)*
G04 Created by KiCad (PCBNEW 9.0.6) date 2026-01-27 22:48:49*
%MOMM*%
%LPD*%
G01*
G04 APERTURE LIST*
G04 Aperture macros list*
%AMRoundRect*
0 Rectangle with rounded corners*
0 $1 Rounding radius*
0 $2 $3 $4 $5 $6 $7 $8 $9 X,Y pos of 4 corners*
0 Add a 4 corners polygon primitive as box body*
4,1,4,$2,$3,$4,$5,$6,$7,$8,$9,$2,$3,0*
0 Add four circle primitives for the rounded corners*
1,1,$1+$1,$2,$3*
1,1,$1+$1,$4,$5*
1,1,$1+$1,$6,$7*
1,1,$1+$1,$8,$9*
0 Add four rect primitives between the rounded corners*
20,1,$1+$1,$2,$3,$4,$5,0*
20,1,$1+$1,$4,$5,$6,$7,0*
20,1,$1+$1,$6,$7,$8,$9,0*
20,1,$1+$1,$8,$9,$2,$3,0*%
G04 Aperture macros list end*
%ADD10R,0.900000X0.900000*%
%ADD11R,1.500000X0.900000*%
%ADD12R,0.900000X1.500000*%
%ADD13RoundRect,0.150000X-0.150000X0.587500X-0.150000X-0.587500X0.150000X-0.587500X0.150000X0.587500X0*%
%ADD14RoundRect,0.250000X-0.450000X0.262500X-0.450000X-0.262500X0.450000X-0.262500X0.450000X0.262500X0*%
%ADD15RoundRect,0.250000X0.262500X0.450000X-0.262500X0.450000X-0.262500X-0.450000X0.262500X-0.450000X0*%
%ADD16RoundRect,0.250000X0.450000X-0.262500X0.450000X0.262500X-0.450000X0.262500X-0.450000X-0.262500X0*%
%ADD17RoundRect,0.250000X-0.262500X-0.450000X0.262500X-0.450000X0.262500X0.450000X-0.262500X0.450000X0*%
%ADD18RoundRect,0.250000X0.250000X0.475000X-0.250000X0.475000X-0.250000X-0.475000X0.250000X-0.475000X0*%
%ADD19RoundRect,0.250000X-0.250000X-0.475000X0.250000X-0.475000X0.250000X0.475000X-0.250000X0.475000X0*%
%ADD20RoundRect,0.111250X-0.333750X0.873750X-0.333750X-0.873750X0.333750X-0.873750X0.333750X0.873750X0*%
%ADD21RoundRect,0.246250X-1.348750X0.738750X-1.348750X-0.738750X1.348750X-0.738750X1.348750X0.738750X0*%
%ADD22R,0.700000X1.600000*%
%ADD23R,1.200000X1.800000*%
%ADD24R,1.600000X1.500000*%
%ADD25R,1.200000X2.200000*%
%ADD26RoundRect,0.250000X0.475000X-0.250000X0.475000X0.250000X-0.475000X0.250000X-0.475000X-0.250000X0*%
G04 APERTURE END LIST*
D10*
%TO.C,U1*%
X131750000Y-44510000D03*
X131750000Y-43110000D03*
X131750000Y-41710000D03*
X130350000Y-44510000D03*
X130350000Y-43110000D03*
X130350000Y-41710000D03*
X128950000Y-44510000D03*
X128950000Y-43110000D03*
X128950000Y-41710000D03*
D11*
X137600000Y-35390000D03*
X137600000Y-36660000D03*
X137600000Y-37930000D03*
X137600000Y-39200000D03*
X137600000Y-40470000D03*
X137600000Y-41740000D03*
X137600000Y-43010000D03*
X137600000Y-44280000D03*
X137600000Y-45550000D03*
X137600000Y-46820000D03*
X137600000Y-48090000D03*
X137600000Y-49360000D03*
X137600000Y-50630000D03*
X137600000Y-51900000D03*
D12*
X135835000Y-53150000D03*
X134565000Y-53150000D03*
X133295000Y-53150000D03*
X132025000Y-53150000D03*
X130755000Y-53150000D03*
X129485000Y-53150000D03*
X128215000Y-53150000D03*
X126945000Y-53150000D03*
X125675000Y-53150000D03*
X124405000Y-53150000D03*
X123135000Y-53150000D03*
X121865000Y-53150000D03*
D11*
X120100000Y-51900000D03*
X120100000Y-50630000D03*
X120100000Y-49360000D03*
X120100000Y-48090000D03*
X120100000Y-46820000D03*
X120100000Y-45550000D03*
X120100000Y-44280000D03*
X120100000Y-43010000D03*
X120100000Y-41740000D03*
X120100000Y-40470000D03*
X120100000Y-39200000D03*
X120100000Y-37930000D03*
X120100000Y-36660000D03*
X120100000Y-35390000D03*
%TD*%
D13*
%TO.C,Q1*%
X117860000Y-82612500D03*
X119760000Y-82612500D03*
X118810000Y-84487500D03*
%TD*%
D14*
%TO.C,R19*%
X106630000Y-97312500D03*
X106630000Y-99137500D03*
%TD*%
%TO.C,R23*%
X141030000Y-36707500D03*
X141030000Y-38532500D03*
%TD*%
D15*
%TO.C,R30*%
X145162500Y-121480000D03*
X143337500Y-121480000D03*
%TD*%
%TO.C,R33*%
X73042500Y-118010000D03*
X71217500Y-118010000D03*
%TD*%
%TO.C,R32*%
X113012500Y-104520000D03*
X111187500Y-104520000D03*
%TD*%
D14*
%TO.C,R18*%
X100632778Y-97312500D03*
X100632778Y-99137500D03*
%TD*%
D16*
%TO.C,R39*%
X111319999Y-48992500D03*
X111319999Y-47167500D03*
%TD*%
D17*
%TO.C,R34*%
X90127500Y-117700000D03*
X91952500Y-117700000D03*
%TD*%
D14*
%TO.C,R4*%
X115360000Y-82267500D03*
X115360000Y-84092500D03*
%TD*%
%TO.C,R17*%
X97634167Y-97312500D03*
X97634167Y-99137500D03*
%TD*%
%TO.C,R40*%
X114050000Y-53067500D03*
X114050000Y-54892500D03*
%TD*%
%TO.C,R38*%
X109109999Y-47167500D03*
X109109999Y-48992500D03*
%TD*%
D18*
%TO.C,C18*%
X135550000Y-110560000D03*
X133650000Y-110560000D03*
%TD*%
D17*
%TO.C,R28*%
X92655000Y-103520000D03*
X94480000Y-103520000D03*
%TD*%
D19*
%TO.C,C17*%
X144550000Y-112420000D03*
X146450000Y-112420000D03*
%TD*%
D14*
%TO.C,R3*%
X121240000Y-77417500D03*
X121240000Y-79242500D03*
%TD*%
D15*
%TO.C,R31*%
X113012500Y-107350000D03*
X111187500Y-107350000D03*
%TD*%
D20*
%TO.C,U3*%
X137730000Y-114722500D03*
X140030000Y-114722500D03*
X142330000Y-114722500D03*
D21*
X140030000Y-120772500D03*
%TD*%
D18*
%TO.C,C19*%
X135550000Y-112890000D03*
X133650000Y-112890000D03*
%TD*%
D15*
%TO.C,R29*%
X137342500Y-123870000D03*
X135517500Y-123870000D03*
%TD*%
D14*
%TO.C,R21*%
X103631389Y-97312500D03*
X103631389Y-99137500D03*
%TD*%
%TO.C,R37*%
X106960000Y-47167500D03*
X106960000Y-48992500D03*
%TD*%
%TO.C,R42*%
X116420000Y-53117500D03*
X116420000Y-54942500D03*
%TD*%
D15*
%TO.C,R35*%
X150052500Y-36390000D03*
X148227500Y-36390000D03*
%TD*%
D22*
%TO.C,TF1*%
X108280000Y-42530000D03*
X107180000Y-42530000D03*
X106080000Y-42530000D03*
X104980000Y-42530000D03*
X103880000Y-42530000D03*
X102780000Y-42530000D03*
X101680000Y-42530000D03*
X100580000Y-42530000D03*
X99480000Y-42530000D03*
D23*
X98280000Y-41230000D03*
D24*
X112880000Y-41480000D03*
D25*
X98280000Y-31930000D03*
X113780000Y-31930000D03*
%TD*%
D19*
%TO.C,C16*%
X144550000Y-110010000D03*
X146450000Y-110010000D03*
%TD*%
D17*
%TO.C,R25*%
X142967500Y-123870000D03*
X144792500Y-123870000D03*
%TD*%
D26*
%TO.C,C24*%
X104670000Y-48980000D03*
X104670000Y-47080000D03*
%TD*%
D17*
%TO.C,R27*%
X92655000Y-100570000D03*
X94480000Y-100570000D03*
%TD*%
D15*
%TO.C,R36*%
X150072500Y-44310000D03*
X148247500Y-44310000D03*
%TD*%
D26*
%TO.C,C23*%
X102400000Y-48980000D03*
X102400000Y-47080000D03*
%TD*%
D15*
%TO.C,R41*%
X112982500Y-45120000D03*
X111157500Y-45120000D03*
%TD*%
D17*
%TO.C,R26*%
X139242500Y-123870000D03*
X141067500Y-123870000D03*
%TD*%
M02*
