<?xml version="1.0" standalone="no"?>
 <!DOCTYPE svg PUBLIC "-//W3C//DTD SVG 1.1//EN" 
 "http://www.w3.org/Graphics/SVG/1.1/DTD/svg11.dtd"> 
<svg
  xmlns:svg="http://www.w3.org/2000/svg"
  xmlns="http://www.w3.org/2000/svg"
  xmlns:xlink="http://www.w3.org/1999/xlink"
  version="1.1"
  width="297.0022mm" height="210.0072mm" viewBox="0.0000 0.0000 297.0022 210.0072">
<title>SVG Image created as rayman_main-F_Paste.svg date 2026/02/15 18:43:45 </title>
  <desc>Image generated by PCBNEW </desc>
<g style="fill:#000000; fill-opacity:1.0000;stroke:#000000; stroke-opacity:1.0000;
stroke-linecap:round; stroke-linejoin:round;"
 transform="translate(0 0) scale(1 1)">
<path style="fill:#000000; fill-opacity:1.0000; stroke:none;fill-rule:evenodd;"
d="M 97.7900,77.0950
97.8090,76.9993
97.8632,76.9182
97.9443,76.8640
98.0400,76.8450
98.5400,76.8450
98.6357,76.8640
98.7168,76.9182
98.7710,76.9993
98.7900,77.0950
98.7900,78.0450
98.7710,78.1407
98.7168,78.2218
98.6357,78.2760
98.5400,78.2950
98.0400,78.2950
97.9443,78.2760
97.8632,78.2218
97.8090,78.1407
97.7900,78.0450
Z" /> 
<path style="fill:#000000; fill-opacity:1.0000; stroke:none;fill-rule:evenodd;"
d="M 99.6900,77.0950
99.7090,76.9993
99.7632,76.9182
99.8443,76.8640
99.9400,76.8450
100.4400,76.8450
100.5357,76.8640
100.6168,76.9182
100.6710,76.9993
100.6900,77.0950
100.6900,78.0450
100.6710,78.1407
100.6168,78.2218
100.5357,78.2760
100.4400,78.2950
99.9400,78.2950
99.8443,78.2760
99.7632,78.2218
99.7090,78.1407
99.6900,78.0450
Z" /> 
<path style="fill:#000000; fill-opacity:1.0000; stroke:none;fill-rule:evenodd;"
d="M 120.7975,89.6600
120.8549,89.6714
120.9036,89.7039
120.9361,89.7526
120.9475,89.8100
120.9475,91.4600
120.9361,91.5174
120.9036,91.5661
120.8549,91.5986
120.7975,91.6100
120.4975,91.6100
120.4401,91.5986
120.3914,91.5661
120.3589,91.5174
120.3475,91.4600
120.3475,89.8100
120.3589,89.7526
120.3914,89.7039
120.4401,89.6714
120.4975,89.6600
Z" /> 
<path style="fill:#000000; fill-opacity:1.0000; stroke:none;fill-rule:evenodd;"
d="M 119.5275,89.6600
119.5849,89.6714
119.6336,89.7039
119.6661,89.7526
119.6775,89.8100
119.6775,91.4600
119.6661,91.5174
119.6336,91.5661
119.5849,91.5986
119.5275,91.6100
119.2275,91.6100
119.1701,91.5986
119.1214,91.5661
119.0889,91.5174
119.0775,91.4600
119.0775,89.8100
119.0889,89.7526
119.1214,89.7039
119.1701,89.6714
119.2275,89.6600
Z" /> 
<path style="fill:#000000; fill-opacity:1.0000; stroke:none;fill-rule:evenodd;"
d="M 118.2575,89.6600
118.3149,89.6714
118.3636,89.7039
118.3961,89.7526
118.4075,89.8100
118.4075,91.4600
118.3961,91.5174
118.3636,91.5661
118.3149,91.5986
118.2575,91.6100
117.9575,91.6100
117.9001,91.5986
117.8514,91.5661
117.8189,91.5174
117.8075,91.4600
117.8075,89.8100
117.8189,89.7526
117.8514,89.7039
117.9001,89.6714
117.9575,89.6600
Z" /> 
<path style="fill:#000000; fill-opacity:1.0000; stroke:none;fill-rule:evenodd;"
d="M 116.9875,89.6600
117.0449,89.6714
117.0936,89.7039
117.1261,89.7526
117.1375,89.8100
117.1375,91.4600
117.1261,91.5174
117.0936,91.5661
117.0449,91.5986
116.9875,91.6100
116.6875,91.6100
116.6301,91.5986
116.5814,91.5661
116.5489,91.5174
116.5375,91.4600
116.5375,89.8100
116.5489,89.7526
116.5814,89.7039
116.6301,89.6714
116.6875,89.6600
Z" /> 
<path style="fill:#000000; fill-opacity:1.0000; stroke:none;fill-rule:evenodd;"
d="M 116.9875,94.6100
117.0449,94.6214
117.0936,94.6539
117.1261,94.7026
117.1375,94.7600
117.1375,96.4100
117.1261,96.4674
117.0936,96.5161
117.0449,96.5486
116.9875,96.5600
116.6875,96.5600
116.6301,96.5486
116.5814,96.5161
116.5489,96.4674
116.5375,96.4100
116.5375,94.7600
116.5489,94.7026
116.5814,94.6539
116.6301,94.6214
116.6875,94.6100
Z" /> 
<path style="fill:#000000; fill-opacity:1.0000; stroke:none;fill-rule:evenodd;"
d="M 118.2575,94.6100
118.3149,94.6214
118.3636,94.6539
118.3961,94.7026
118.4075,94.7600
118.4075,96.4100
118.3961,96.4674
118.3636,96.5161
118.3149,96.5486
118.2575,96.5600
117.9575,96.5600
117.9001,96.5486
117.8514,96.5161
117.8189,96.4674
117.8075,96.4100
117.8075,94.7600
117.8189,94.7026
117.8514,94.6539
117.9001,94.6214
117.9575,94.6100
Z" /> 
<path style="fill:#000000; fill-opacity:1.0000; stroke:none;fill-rule:evenodd;"
d="M 119.5275,94.6100
119.5849,94.6214
119.6336,94.6539
119.6661,94.7026
119.6775,94.7600
119.6775,96.4100
119.6661,96.4674
119.6336,96.5161
119.5849,96.5486
119.5275,96.5600
119.2275,96.5600
119.1701,96.5486
119.1214,96.5161
119.0889,96.4674
119.0775,96.4100
119.0775,94.7600
119.0889,94.7026
119.1214,94.6539
119.1701,94.6214
119.2275,94.6100
Z" /> 
<path style="fill:#000000; fill-opacity:1.0000; stroke:none;fill-rule:evenodd;"
d="M 120.7975,94.6100
120.8549,94.6214
120.9036,94.6539
120.9361,94.7026
120.9475,94.7600
120.9475,96.4100
120.9361,96.4674
120.9036,96.5161
120.8549,96.5486
120.7975,96.5600
120.4975,96.5600
120.4401,96.5486
120.3914,96.5161
120.3589,96.4674
120.3475,96.4100
120.3475,94.7600
120.3589,94.7026
120.3914,94.6539
120.4401,94.6214
120.4975,94.6100
Z" /> 
<path style="fill:#000000; fill-opacity:1.0000; stroke:none;fill-rule:evenodd;"
d="M 118.4250,81.9300
118.4440,81.8343
118.4982,81.7532
118.5793,81.6990
118.6750,81.6800
119.2000,81.6800
119.2957,81.6990
119.3768,81.7532
119.4310,81.8343
119.4500,81.9300
119.4500,82.8300
119.4310,82.9257
119.3768,83.0068
119.2957,83.0610
119.2000,83.0800
118.6750,83.0800
118.5793,83.0610
118.4982,83.0068
118.4440,82.9257
118.4250,82.8300
Z" /> 
<path style="fill:#000000; fill-opacity:1.0000; stroke:none;fill-rule:evenodd;"
d="M 120.2500,81.9300
120.2690,81.8343
120.3232,81.7532
120.4043,81.6990
120.5000,81.6800
121.0250,81.6800
121.1207,81.6990
121.2018,81.7532
121.2560,81.8343
121.2750,81.9300
121.2750,82.8300
121.2560,82.9257
121.2018,83.0068
121.1207,83.0610
121.0250,83.0800
120.5000,83.0800
120.4043,83.0610
120.3232,83.0068
120.2690,82.9257
120.2500,82.8300
Z" /> 
<path style="fill:#000000; fill-opacity:1.0000; stroke:none;fill-rule:evenodd;"
d="M 127.4114,110.6450
127.4114,106.8350
131.6532,106.8350
131.6532,110.6450
Z" /> 
<path style="fill:#000000; fill-opacity:1.0000; stroke:none;fill-rule:evenodd;"
d="M 133.7868,110.6450
133.7868,106.8350
138.0286,106.8350
138.0286,110.6450
Z" /> 
<path style="fill:#000000; fill-opacity:1.0000; stroke:none;fill-rule:evenodd;"
d="M 91.0886,93.2450
91.0886,97.0550
86.8468,97.0550
86.8468,93.2450
Z" /> 
<path style="fill:#000000; fill-opacity:1.0000; stroke:none;fill-rule:evenodd;"
d="M 84.7132,93.2450
84.7132,97.0550
80.4714,97.0550
80.4714,93.2450
Z" /> 
<path style="fill:#000000; fill-opacity:1.0000; stroke:none;fill-rule:evenodd;"
d="M 114.0637,111.4050
113.9705,111.3864
113.8914,111.3336
113.8386,111.2545
113.8200,111.1612
113.8200,110.6737
113.8386,110.5805
113.8914,110.5014
113.9705,110.4486
114.0637,110.4300
114.9762,110.4300
115.0695,110.4486
115.1486,110.5014
115.2014,110.5805
115.2200,110.6737
115.2200,111.1612
115.2014,111.2545
115.1486,111.3336
115.0695,111.3864
114.9762,111.4050
Z" /> 
<path style="fill:#000000; fill-opacity:1.0000; stroke:none;fill-rule:evenodd;"
d="M 114.0637,109.5300
113.9705,109.5114
113.8914,109.4586
113.8386,109.3795
113.8200,109.2862
113.8200,108.7987
113.8386,108.7055
113.8914,108.6264
113.9705,108.5736
114.0637,108.5550
114.9762,108.5550
115.0695,108.5736
115.1486,108.6264
115.2014,108.7055
115.2200,108.7987
115.2200,109.2862
115.2014,109.3795
115.1486,109.4586
115.0695,109.5114
114.9762,109.5300
Z" /> 
<path style="fill:#000000; fill-opacity:1.0000; stroke:none;fill-rule:evenodd;"
d="M 118.4250,84.7500
118.4440,84.6543
118.4982,84.5732
118.5793,84.5190
118.6750,84.5000
119.2000,84.5000
119.2957,84.5190
119.3768,84.5732
119.4310,84.6543
119.4500,84.7500
119.4500,85.6500
119.4310,85.7457
119.3768,85.8268
119.2957,85.8810
119.2000,85.9000
118.6750,85.9000
118.5793,85.8810
118.4982,85.8268
118.4440,85.7457
118.4250,85.6500
Z" /> 
<path style="fill:#000000; fill-opacity:1.0000; stroke:none;fill-rule:evenodd;"
d="M 120.2500,84.7500
120.2690,84.6543
120.3232,84.5732
120.4043,84.5190
120.5000,84.5000
121.0250,84.5000
121.1207,84.5190
121.2018,84.5732
121.2560,84.6543
121.2750,84.7500
121.2750,85.6500
121.2560,85.7457
121.2018,85.8268
121.1207,85.8810
121.0250,85.9000
120.5000,85.9000
120.4043,85.8810
120.3232,85.8268
120.2690,85.7457
120.2500,85.6500
Z" /> 
<path style="fill:#000000; fill-opacity:1.0000; stroke:none;fill-rule:evenodd;"
d="M 88.0225,83.3600
88.0035,83.4557
87.9493,83.5368
87.8682,83.5910
87.7725,83.6100
87.2475,83.6100
87.1518,83.5910
87.0707,83.5368
87.0165,83.4557
86.9975,83.3600
86.9975,82.4600
87.0165,82.3643
87.0707,82.2832
87.1518,82.2290
87.2475,82.2100
87.7725,82.2100
87.8682,82.2290
87.9493,82.2832
88.0035,82.3643
88.0225,82.4600
Z" /> 
<path style="fill:#000000; fill-opacity:1.0000; stroke:none;fill-rule:evenodd;"
d="M 86.1975,83.3600
86.1785,83.4557
86.1243,83.5368
86.0432,83.5910
85.9475,83.6100
85.4225,83.6100
85.3268,83.5910
85.2457,83.5368
85.1915,83.4557
85.1725,83.3600
85.1725,82.4600
85.1915,82.3643
85.2457,82.2832
85.3268,82.2290
85.4225,82.2100
85.9475,82.2100
86.0432,82.2290
86.1243,82.2832
86.1785,82.3643
86.1975,82.4600
Z" /> 
<path style="fill:#000000; fill-opacity:1.0000; stroke:none;fill-rule:evenodd;"
d="M 73.5850,123.9462
73.5664,124.0395
73.5136,124.1186
73.4345,124.1714
73.3413,124.1900
72.8537,124.1900
72.7605,124.1714
72.6814,124.1186
72.6286,124.0395
72.6100,123.9462
72.6100,123.0337
72.6286,122.9405
72.6814,122.8614
72.7605,122.8086
72.8537,122.7900
73.3413,122.7900
73.4345,122.8086
73.5136,122.8614
73.5664,122.9405
73.5850,123.0337
Z" /> 
<path style="fill:#000000; fill-opacity:1.0000; stroke:none;fill-rule:evenodd;"
d="M 71.7100,123.9462
71.6914,124.0395
71.6386,124.1186
71.5595,124.1714
71.4663,124.1900
70.9787,124.1900
70.8855,124.1714
70.8064,124.1186
70.7536,124.0395
70.7350,123.9462
70.7350,123.0337
70.7536,122.9405
70.8064,122.8614
70.8855,122.8086
70.9787,122.7900
71.4663,122.7900
71.5595,122.8086
71.6386,122.8614
71.6914,122.9405
71.7100,123.0337
Z" /> 
<path style="fill:#000000; fill-opacity:1.0000; stroke:none;fill-rule:evenodd;"
d="M 129.3425,101.8223
129.3615,101.7267
129.4157,101.6455
129.4968,101.5914
129.5925,101.5723
131.5925,101.5723
131.6882,101.5914
131.7693,101.6455
131.8235,101.7267
131.8425,101.8223
131.8425,103.6223
131.8235,103.7180
131.7693,103.7991
131.6882,103.8533
131.5925,103.8723
129.5925,103.8723
129.4968,103.8533
129.4157,103.7991
129.3615,103.7180
129.3425,103.6223
Z" /> 
<path style="fill:#000000; fill-opacity:1.0000; stroke:none;fill-rule:evenodd;"
d="M 133.6425,101.8223
133.6615,101.7267
133.7157,101.6455
133.7968,101.5914
133.8925,101.5723
135.8925,101.5723
135.9882,101.5914
136.0693,101.6455
136.1235,101.7267
136.1425,101.8223
136.1425,103.6223
136.1235,103.7180
136.0693,103.7991
135.9882,103.8533
135.8925,103.8723
133.8925,103.8723
133.7968,103.8533
133.7157,103.7991
133.6615,103.7180
133.6425,103.6223
Z" /> 
<path style="fill:#000000; fill-opacity:1.0000; stroke:none;fill-rule:evenodd;"
d="M 111.2137,111.4050
111.1205,111.3864
111.0414,111.3336
110.9886,111.2545
110.9700,111.1612
110.9700,110.6737
110.9886,110.5805
111.0414,110.5014
111.1205,110.4486
111.2137,110.4300
112.1262,110.4300
112.2195,110.4486
112.2986,110.5014
112.3514,110.5805
112.3700,110.6737
112.3700,111.1612
112.3514,111.2545
112.2986,111.3336
112.2195,111.3864
112.1262,111.4050
Z" /> 
<path style="fill:#000000; fill-opacity:1.0000; stroke:none;fill-rule:evenodd;"
d="M 111.2137,109.5300
111.1205,109.5114
111.0414,109.4586
110.9886,109.3795
110.9700,109.2862
110.9700,108.7987
110.9886,108.7055
111.0414,108.6264
111.1205,108.5736
111.2137,108.5550
112.1262,108.5550
112.2195,108.5736
112.2986,108.6264
112.3514,108.7055
112.3700,108.7987
112.3700,109.2862
112.3514,109.3795
112.2986,109.4586
112.2195,109.5114
112.1262,109.5300
Z" /> 
<path style="fill:#000000; fill-opacity:1.0000; stroke:none;fill-rule:evenodd;"
d="M 82.9825,85.5200
82.8868,85.5010
82.8057,85.4468
82.7515,85.3657
82.7325,85.2700
82.7325,84.7700
82.7515,84.6743
82.8057,84.5932
82.8868,84.5390
82.9825,84.5200
83.9325,84.5200
84.0282,84.5390
84.1093,84.5932
84.1635,84.6743
84.1825,84.7700
84.1825,85.2700
84.1635,85.3657
84.1093,85.4468
84.0282,85.5010
83.9325,85.5200
Z" /> 
<path style="fill:#000000; fill-opacity:1.0000; stroke:none;fill-rule:evenodd;"
d="M 82.9825,83.6200
82.8868,83.6010
82.8057,83.5468
82.7515,83.4657
82.7325,83.3700
82.7325,82.8700
82.7515,82.7743
82.8057,82.6932
82.8868,82.6390
82.9825,82.6200
83.9325,82.6200
84.0282,82.6390
84.1093,82.6932
84.1635,82.7743
84.1825,82.8700
84.1825,83.3700
84.1635,83.4657
84.1093,83.5468
84.0282,83.6010
83.9325,83.6200
Z" /> 
<path style="fill:#000000; fill-opacity:1.0000; stroke:none;fill-rule:evenodd;"
d="M 106.1800,54.0200
106.1226,54.0086
106.0739,53.9761
106.0414,53.9274
106.0300,53.8700
106.0300,53.5700
106.0414,53.5126
106.0739,53.4639
106.1226,53.4314
106.1800,53.4200
107.4300,53.4200
107.4874,53.4314
107.5361,53.4639
107.5686,53.5126
107.5800,53.5700
107.5800,53.8700
107.5686,53.9274
107.5361,53.9761
107.4874,54.0086
107.4300,54.0200
Z" /> 
<path style="fill:#000000; fill-opacity:1.0000; stroke:none;fill-rule:evenodd;"
d="M 106.1800,53.0200
106.1226,53.0086
106.0739,52.9761
106.0414,52.9274
106.0300,52.8700
106.0300,52.5700
106.0414,52.5126
106.0739,52.4639
106.1226,52.4314
106.1800,52.4200
107.4300,52.4200
107.4874,52.4314
107.5361,52.4639
107.5686,52.5126
107.5800,52.5700
107.5800,52.8700
107.5686,52.9274
107.5361,52.9761
107.4874,53.0086
107.4300,53.0200
Z" /> 
<path style="fill:#000000; fill-opacity:1.0000; stroke:none;fill-rule:evenodd;"
d="M 106.1800,52.0200
106.1226,52.0086
106.0739,51.9761
106.0414,51.9274
106.0300,51.8700
106.0300,51.5700
106.0414,51.5126
106.0739,51.4639
106.1226,51.4314
106.1800,51.4200
107.4300,51.4200
107.4874,51.4314
107.5361,51.4639
107.5686,51.5126
107.5800,51.5700
107.5800,51.8700
107.5686,51.9274
107.5361,51.9761
107.4874,52.0086
107.4300,52.0200
Z" /> 
<path style="fill:#000000; fill-opacity:1.0000; stroke:none;fill-rule:evenodd;"
d="M 106.1800,51.0200
106.1226,51.0086
106.0739,50.9761
106.0414,50.9274
106.0300,50.8700
106.0300,50.5700
106.0414,50.5126
106.0739,50.4639
106.1226,50.4314
106.1800,50.4200
107.4300,50.4200
107.4874,50.4314
107.5361,50.4639
107.5686,50.5126
107.5800,50.5700
107.5800,50.8700
107.5686,50.9274
107.5361,50.9761
107.4874,51.0086
107.4300,51.0200
Z" /> 
<path style="fill:#000000; fill-opacity:1.0000; stroke:none;fill-rule:evenodd;"
d="M 106.1800,50.0200
106.1226,50.0086
106.0739,49.9761
106.0414,49.9274
106.0300,49.8700
106.0300,49.5700
106.0414,49.5126
106.0739,49.4639
106.1226,49.4314
106.1800,49.4200
107.4300,49.4200
107.4874,49.4314
107.5361,49.4639
107.5686,49.5126
107.5800,49.5700
107.5800,49.8700
107.5686,49.9274
107.5361,49.9761
107.4874,50.0086
107.4300,50.0200
Z" /> 
<path style="fill:#000000; fill-opacity:1.0000; stroke:none;fill-rule:evenodd;"
d="M 103.6300,55.6200
103.5343,55.6010
103.4532,55.5468
103.3990,55.4657
103.3800,55.3700
103.3800,54.6700
103.3990,54.5743
103.4532,54.4932
103.5343,54.4390
103.6300,54.4200
104.9300,54.4200
105.0257,54.4390
105.1068,54.4932
105.1610,54.5743
105.1800,54.6700
105.1800,55.3700
105.1610,55.4657
105.1068,55.5468
105.0257,55.6010
104.9300,55.6200
Z" /> 
<path style="fill:#000000; fill-opacity:1.0000; stroke:none;fill-rule:evenodd;"
d="M 103.6300,49.0200
103.5343,49.0010
103.4532,48.9468
103.3990,48.8657
103.3800,48.7700
103.3800,48.0700
103.3990,47.9743
103.4532,47.8932
103.5343,47.8390
103.6300,47.8200
104.9300,47.8200
105.0257,47.8390
105.1068,47.8932
105.1610,47.9743
105.1800,48.0700
105.1800,48.7700
105.1610,48.8657
105.1068,48.9468
105.0257,49.0010
104.9300,49.0200
Z" /> 
<path style="fill:#000000; fill-opacity:1.0000; stroke:none;fill-rule:evenodd;"
d="M 142.3738,41.1450
142.2805,41.1264
142.2014,41.0736
142.1486,40.9945
142.1300,40.9012
142.1300,40.4138
142.1486,40.3205
142.2014,40.2414
142.2805,40.1886
142.3738,40.1700
143.2862,40.1700
143.3795,40.1886
143.4586,40.2414
143.5114,40.3205
143.5300,40.4138
143.5300,40.9012
143.5114,40.9945
143.4586,41.0736
143.3795,41.1264
143.2862,41.1450
Z" /> 
<path style="fill:#000000; fill-opacity:1.0000; stroke:none;fill-rule:evenodd;"
d="M 142.3738,39.2700
142.2805,39.2514
142.2014,39.1986
142.1486,39.1195
142.1300,39.0262
142.1300,38.5388
142.1486,38.4455
142.2014,38.3664
142.2805,38.3136
142.3738,38.2950
143.2862,38.2950
143.3795,38.3136
143.4586,38.3664
143.5114,38.4455
143.5300,38.5388
143.5300,39.0262
143.5114,39.1195
143.4586,39.1986
143.3795,39.2514
143.2862,39.2700
Z" /> 
<path style="fill:#000000; fill-opacity:1.0000; stroke:none;fill-rule:evenodd;"
d="M 88.2050,105.4200
88.2240,105.3243
88.2782,105.2432
88.3593,105.1890
88.4550,105.1700
88.9800,105.1700
89.0757,105.1890
89.1568,105.2432
89.2110,105.3243
89.2300,105.4200
89.2300,106.3200
89.2110,106.4157
89.1568,106.4968
89.0757,106.5510
88.9800,106.5700
88.4550,106.5700
88.3593,106.5510
88.2782,106.4968
88.2240,106.4157
88.2050,106.3200
Z" /> 
<path style="fill:#000000; fill-opacity:1.0000; stroke:none;fill-rule:evenodd;"
d="M 90.0300,105.4200
90.0490,105.3243
90.1032,105.2432
90.1843,105.1890
90.2800,105.1700
90.8050,105.1700
90.9007,105.1890
90.9818,105.2432
91.0360,105.3243
91.0550,105.4200
91.0550,106.3200
91.0360,106.4157
90.9818,106.4968
90.9007,106.5510
90.8050,106.5700
90.2800,106.5700
90.1843,106.5510
90.1032,106.4968
90.0490,106.4157
90.0300,106.3200
Z" /> 
<path style="fill:#000000; fill-opacity:1.0000; stroke:none;fill-rule:evenodd;"
d="M 136.2800,39.5650
136.2610,39.6607
136.2068,39.7418
136.1257,39.7960
136.0300,39.8150
135.5300,39.8150
135.4343,39.7960
135.3532,39.7418
135.2990,39.6607
135.2800,39.5650
135.2800,38.6150
135.2990,38.5193
135.3532,38.4382
135.4343,38.3840
135.5300,38.3650
136.0300,38.3650
136.1257,38.3840
136.2068,38.4382
136.2610,38.5193
136.2800,38.6150
Z" /> 
<path style="fill:#000000; fill-opacity:1.0000; stroke:none;fill-rule:evenodd;"
d="M 134.3800,39.5650
134.3610,39.6607
134.3068,39.7418
134.2257,39.7960
134.1300,39.8150
133.6300,39.8150
133.5343,39.7960
133.4532,39.7418
133.3990,39.6607
133.3800,39.5650
133.3800,38.6150
133.3990,38.5193
133.4532,38.4382
133.5343,38.3840
133.6300,38.3650
134.1300,38.3650
134.2257,38.3840
134.3068,38.4382
134.3610,38.5193
134.3800,38.6150
Z" /> 
<path style="fill:#000000; fill-opacity:1.0000; stroke:none;fill-rule:evenodd;"
d="M 75.3900,80.4100
75.3900,77.9100
76.5900,77.9100
76.5900,80.4100
Z" /> 
<path style="fill:#000000; fill-opacity:1.0000; stroke:none;fill-rule:evenodd;"
d="M 72.3900,80.4100
72.3900,77.9100
73.5900,77.9100
73.5900,80.4100
Z" /> 
<path style="fill:#000000; fill-opacity:1.0000; stroke:none;fill-rule:evenodd;"
d="M 80.4900,86.9100
80.4900,84.4100
81.6900,84.4100
81.6900,86.9100
Z" /> 
<path style="fill:#000000; fill-opacity:1.0000; stroke:none;fill-rule:evenodd;"
d="M 79.3900,80.4100
79.3900,77.9100
80.5900,77.9100
80.5900,80.4100
Z" /> 
<path style="fill:#000000; fill-opacity:1.0000; stroke:none;fill-rule:evenodd;"
d="M 133.3400,41.1550
133.3590,41.0593
133.4132,40.9782
133.4943,40.9240
133.5900,40.9050
134.0900,40.9050
134.1857,40.9240
134.2668,40.9782
134.3210,41.0593
134.3400,41.1550
134.3400,42.1050
134.3210,42.2007
134.2668,42.2818
134.1857,42.3360
134.0900,42.3550
133.5900,42.3550
133.4943,42.3360
133.4132,42.2818
133.3590,42.2007
133.3400,42.1050
Z" /> 
<path style="fill:#000000; fill-opacity:1.0000; stroke:none;fill-rule:evenodd;"
d="M 135.2400,41.1550
135.2590,41.0593
135.3132,40.9782
135.3943,40.9240
135.4900,40.9050
135.9900,40.9050
136.0857,40.9240
136.1668,40.9782
136.2210,41.0593
136.2400,41.1550
136.2400,42.1050
136.2210,42.2007
136.1668,42.2818
136.0857,42.3360
135.9900,42.3550
135.4900,42.3550
135.3943,42.3360
135.3132,42.2818
135.2590,42.2007
135.2400,42.1050
Z" /> 
<path style="fill:#000000; fill-opacity:1.0000; stroke:none;fill-rule:evenodd;"
d="M 97.4600,58.6300
97.5557,58.6490
97.6368,58.7032
97.6910,58.7843
97.7100,58.8800
97.7100,61.8800
97.6910,61.9757
97.6368,62.0568
97.5557,62.1110
97.4600,62.1300
96.3600,62.1300
96.2643,62.1110
96.1832,62.0568
96.1290,61.9757
96.1100,61.8800
96.1100,58.8800
96.1290,58.7843
96.1832,58.7032
96.2643,58.6490
96.3600,58.6300
Z" /> 
<path style="fill:#000000; fill-opacity:1.0000; stroke:none;fill-rule:evenodd;"
d="M 97.4600,64.0300
97.5557,64.0490
97.6368,64.1032
97.6910,64.1843
97.7100,64.2800
97.7100,67.2800
97.6910,67.3757
97.6368,67.4568
97.5557,67.5110
97.4600,67.5300
96.3600,67.5300
96.2643,67.5110
96.1832,67.4568
96.1290,67.3757
96.1100,67.2800
96.1100,64.2800
96.1290,64.1843
96.1832,64.1032
96.2643,64.0490
96.3600,64.0300
Z" /> 
<path style="fill:#000000; fill-opacity:1.0000; stroke:none;fill-rule:evenodd;"
d="M 70.7350,119.9937
70.7536,119.9005
70.8064,119.8214
70.8855,119.7686
70.9787,119.7500
71.4663,119.7500
71.5595,119.7686
71.6386,119.8214
71.6914,119.9005
71.7100,119.9937
71.7100,120.9062
71.6914,120.9995
71.6386,121.0786
71.5595,121.1314
71.4663,121.1500
70.9787,121.1500
70.8855,121.1314
70.8064,121.0786
70.7536,120.9995
70.7350,120.9062
Z" /> 
<path style="fill:#000000; fill-opacity:1.0000; stroke:none;fill-rule:evenodd;"
d="M 72.6100,119.9937
72.6286,119.9005
72.6814,119.8214
72.7605,119.7686
72.8537,119.7500
73.3413,119.7500
73.4345,119.7686
73.5136,119.8214
73.5664,119.9005
73.5850,119.9937
73.5850,120.9062
73.5664,120.9995
73.5136,121.0786
73.4345,121.1314
73.3413,121.1500
72.8537,121.1500
72.7605,121.1314
72.6814,121.0786
72.6286,120.9995
72.6100,120.9062
Z" /> 
<path style="fill:#000000; fill-opacity:1.0000; stroke:none;fill-rule:evenodd;"
d="M 93.4000,56.0050
93.4190,55.9093
93.4732,55.8282
93.5543,55.7740
93.6500,55.7550
94.1500,55.7550
94.2457,55.7740
94.3268,55.8282
94.3810,55.9093
94.4000,56.0050
94.4000,56.9550
94.3810,57.0507
94.3268,57.1318
94.2457,57.1860
94.1500,57.2050
93.6500,57.2050
93.5543,57.1860
93.4732,57.1318
93.4190,57.0507
93.4000,56.9550
Z" /> 
<path style="fill:#000000; fill-opacity:1.0000; stroke:none;fill-rule:evenodd;"
d="M 95.3000,56.0050
95.3190,55.9093
95.3732,55.8282
95.4543,55.7740
95.5500,55.7550
96.0500,55.7550
96.1457,55.7740
96.2268,55.8282
96.2810,55.9093
96.3000,56.0050
96.3000,56.9550
96.2810,57.0507
96.2268,57.1318
96.1457,57.1860
96.0500,57.2050
95.5500,57.2050
95.4543,57.1860
95.3732,57.1318
95.3190,57.0507
95.3000,56.9550
Z" /> 
<path style="fill:#000000; fill-opacity:1.0000; stroke:none;fill-rule:evenodd;"
d="M 138.4050,65.6250
138.5007,65.6440
138.5818,65.6982
138.6360,65.7793
138.6550,65.8750
138.6550,66.6000
138.6360,66.6957
138.5818,66.7768
138.5007,66.8310
138.4050,66.8500
135.5550,66.8500
135.4593,66.8310
135.3782,66.7768
135.3240,66.6957
135.3050,66.6000
135.3050,65.8750
135.3240,65.7793
135.3782,65.6982
135.4593,65.6440
135.5550,65.6250
Z" /> 
<path style="fill:#000000; fill-opacity:1.0000; stroke:none;fill-rule:evenodd;"
d="M 138.4050,71.5500
138.5007,71.5690
138.5818,71.6232
138.6360,71.7043
138.6550,71.8000
138.6550,72.5250
138.6360,72.6207
138.5818,72.7018
138.5007,72.7560
138.4050,72.7750
135.5550,72.7750
135.4593,72.7560
135.3782,72.7018
135.3240,72.6207
135.3050,72.5250
135.3050,71.8000
135.3240,71.7043
135.3782,71.6232
135.4593,71.5690
135.5550,71.5500
Z" /> 
<path style="fill:#000000; fill-opacity:1.0000; stroke:none;fill-rule:evenodd;"
d="M 94.6600,37.6650
94.6790,37.5693
94.7332,37.4882
94.8143,37.4340
94.9100,37.4150
95.4100,37.4150
95.5057,37.4340
95.5868,37.4882
95.6410,37.5693
95.6600,37.6650
95.6600,38.6150
95.6410,38.7107
95.5868,38.7918
95.5057,38.8460
95.4100,38.8650
94.9100,38.8650
94.8143,38.8460
94.7332,38.7918
94.6790,38.7107
94.6600,38.6150
Z" /> 
<path style="fill:#000000; fill-opacity:1.0000; stroke:none;fill-rule:evenodd;"
d="M 96.5600,37.6650
96.5790,37.5693
96.6332,37.4882
96.7143,37.4340
96.8100,37.4150
97.3100,37.4150
97.4057,37.4340
97.4868,37.4882
97.5410,37.5693
97.5600,37.6650
97.5600,38.6150
97.5410,38.7107
97.4868,38.7918
97.4057,38.8460
97.3100,38.8650
96.8100,38.8650
96.7143,38.8460
96.6332,38.7918
96.5790,38.7107
96.5600,38.6150
Z" /> 
<path style="fill:#000000; fill-opacity:1.0000; stroke:none;fill-rule:evenodd;"
d="M 85.1725,84.8000
85.1915,84.7043
85.2457,84.6232
85.3268,84.5690
85.4225,84.5500
85.9475,84.5500
86.0432,84.5690
86.1243,84.6232
86.1785,84.7043
86.1975,84.8000
86.1975,85.7000
86.1785,85.7957
86.1243,85.8768
86.0432,85.9310
85.9475,85.9500
85.4225,85.9500
85.3268,85.9310
85.2457,85.8768
85.1915,85.7957
85.1725,85.7000
Z" /> 
<path style="fill:#000000; fill-opacity:1.0000; stroke:none;fill-rule:evenodd;"
d="M 86.9975,84.8000
87.0165,84.7043
87.0707,84.6232
87.1518,84.5690
87.2475,84.5500
87.7725,84.5500
87.8682,84.5690
87.9493,84.6232
88.0035,84.7043
88.0225,84.8000
88.0225,85.7000
88.0035,85.7957
87.9493,85.8768
87.8682,85.9310
87.7725,85.9500
87.2475,85.9500
87.1518,85.9310
87.0707,85.8768
87.0165,85.7957
86.9975,85.7000
Z" /> 
<path style="fill:#000000; fill-opacity:1.0000; stroke:none;fill-rule:evenodd;"
d="M 85.7800,98.6550
85.7990,98.5593
85.8532,98.4782
85.9343,98.4240
86.0300,98.4050
86.5300,98.4050
86.6257,98.4240
86.7068,98.4782
86.7610,98.5593
86.7800,98.6550
86.7800,99.6050
86.7610,99.7007
86.7068,99.7818
86.6257,99.8360
86.5300,99.8550
86.0300,99.8550
85.9343,99.8360
85.8532,99.7818
85.7990,99.7007
85.7800,99.6050
Z" /> 
<path style="fill:#000000; fill-opacity:1.0000; stroke:none;fill-rule:evenodd;"
d="M 87.6800,98.6550
87.6990,98.5593
87.7532,98.4782
87.8343,98.4240
87.9300,98.4050
88.4300,98.4050
88.5257,98.4240
88.6068,98.4782
88.6610,98.5593
88.6800,98.6550
88.6800,99.6050
88.6610,99.7007
88.6068,99.7818
88.5257,99.8360
88.4300,99.8550
87.9300,99.8550
87.8343,99.8360
87.7532,99.7818
87.6990,99.7007
87.6800,99.6050
Z" /> 
<path style="fill:#000000; fill-opacity:1.0000; stroke:none;fill-rule:evenodd;"
d="M 82.5600,114.7650
82.5410,114.8607
82.4868,114.9418
82.4057,114.9960
82.3100,115.0150
81.8100,115.0150
81.7143,114.9960
81.6332,114.9418
81.5790,114.8607
81.5600,114.7650
81.5600,113.8150
81.5790,113.7193
81.6332,113.6382
81.7143,113.5840
81.8100,113.5650
82.3100,113.5650
82.4057,113.5840
82.4868,113.6382
82.5410,113.7193
82.5600,113.8150
Z" /> 
<path style="fill:#000000; fill-opacity:1.0000; stroke:none;fill-rule:evenodd;"
d="M 80.6600,114.7650
80.6410,114.8607
80.5868,114.9418
80.5057,114.9960
80.4100,115.0150
79.9100,115.0150
79.8143,114.9960
79.7332,114.9418
79.6790,114.8607
79.6600,114.7650
79.6600,113.8150
79.6790,113.7193
79.7332,113.6382
79.8143,113.5840
79.9100,113.5650
80.4100,113.5650
80.5057,113.5840
80.5868,113.6382
80.6410,113.7193
80.6600,113.8150
Z" /> 
<path style="fill:#000000; fill-opacity:1.0000; stroke:none;fill-rule:evenodd;"
d="M 136.4262,118.6450
136.5195,118.6636
136.5986,118.7164
136.6514,118.7955
136.6700,118.8888
136.6700,119.3762
136.6514,119.4695
136.5986,119.5486
136.5195,119.6014
136.4262,119.6200
135.5137,119.6200
135.4205,119.6014
135.3414,119.5486
135.2886,119.4695
135.2700,119.3762
135.2700,118.8888
135.2886,118.7955
135.3414,118.7164
135.4205,118.6636
135.5137,118.6450
Z" /> 
<path style="fill:#000000; fill-opacity:1.0000; stroke:none;fill-rule:evenodd;"
d="M 136.4262,120.5200
136.5195,120.5386
136.5986,120.5914
136.6514,120.6705
136.6700,120.7637
136.6700,121.2512
136.6514,121.3445
136.5986,121.4236
136.5195,121.4764
136.4262,121.4950
135.5137,121.4950
135.4205,121.4764
135.3414,121.4236
135.2886,121.3445
135.2700,121.2512
135.2700,120.7637
135.2886,120.6705
135.3414,120.5914
135.4205,120.5386
135.5137,120.5200
Z" /> 
<path style="fill:#000000; fill-opacity:1.0000; stroke:none;fill-rule:evenodd;"
d="M 79.3600,111.3100
79.3217,111.3024
79.2893,111.2807
79.2676,111.2483
79.2600,111.2100
79.2600,109.5100
79.2676,109.4717
79.2893,109.4393
79.3217,109.4176
79.3600,109.4100
79.5600,109.4100
79.5983,109.4176
79.6307,109.4393
79.6524,109.4717
79.6600,109.5100
79.6600,111.2100
79.6524,111.2483
79.6307,111.2807
79.5983,111.3024
79.5600,111.3100
Z" /> 
<path style="fill:#000000; fill-opacity:1.0000; stroke:none;fill-rule:evenodd;"
d="M 80.0100,111.3100
79.9717,111.3024
79.9393,111.2807
79.9176,111.2483
79.9100,111.2100
79.9100,109.5100
79.9176,109.4717
79.9393,109.4393
79.9717,109.4176
80.0100,109.4100
80.2100,109.4100
80.2483,109.4176
80.2807,109.4393
80.3024,109.4717
80.3100,109.5100
80.3100,111.2100
80.3024,111.2483
80.2807,111.2807
80.2483,111.3024
80.2100,111.3100
Z" /> 
<path style="fill:#000000; fill-opacity:1.0000; stroke:none;fill-rule:evenodd;"
d="M 80.6600,111.3100
80.6217,111.3024
80.5893,111.2807
80.5676,111.2483
80.5600,111.2100
80.5600,109.5100
80.5676,109.4717
80.5893,109.4393
80.6217,109.4176
80.6600,109.4100
80.8600,109.4100
80.8983,109.4176
80.9307,109.4393
80.9524,109.4717
80.9600,109.5100
80.9600,111.2100
80.9524,111.2483
80.9307,111.2807
80.8983,111.3024
80.8600,111.3100
Z" /> 
<path style="fill:#000000; fill-opacity:1.0000; stroke:none;fill-rule:evenodd;"
d="M 81.3100,111.3100
81.2717,111.3024
81.2393,111.2807
81.2176,111.2483
81.2100,111.2100
81.2100,109.5100
81.2176,109.4717
81.2393,109.4393
81.2717,109.4176
81.3100,109.4100
81.5100,109.4100
81.5483,109.4176
81.5807,109.4393
81.6024,109.4717
81.6100,109.5100
81.6100,111.2100
81.6024,111.2483
81.5807,111.2807
81.5483,111.3024
81.5100,111.3100
Z" /> 
<path style="fill:#000000; fill-opacity:1.0000; stroke:none;fill-rule:evenodd;"
d="M 81.9600,111.3100
81.9217,111.3024
81.8893,111.2807
81.8676,111.2483
81.8600,111.2100
81.8600,109.5100
81.8676,109.4717
81.8893,109.4393
81.9217,109.4176
81.9600,109.4100
82.1600,109.4100
82.1983,109.4176
82.2307,109.4393
82.2524,109.4717
82.2600,109.5100
82.2600,111.2100
82.2524,111.2483
82.2307,111.2807
82.1983,111.3024
82.1600,111.3100
Z" /> 
<path style="fill:#000000; fill-opacity:1.0000; stroke:none;fill-rule:evenodd;"
d="M 82.6100,111.3100
82.5717,111.3024
82.5393,111.2807
82.5176,111.2483
82.5100,111.2100
82.5100,109.5100
82.5176,109.4717
82.5393,109.4393
82.5717,109.4176
82.6100,109.4100
82.8100,109.4100
82.8483,109.4176
82.8807,109.4393
82.9024,109.4717
82.9100,109.5100
82.9100,111.2100
82.9024,111.2483
82.8807,111.2807
82.8483,111.3024
82.8100,111.3100
Z" /> 
<path style="fill:#000000; fill-opacity:1.0000; stroke:none;fill-rule:evenodd;"
d="M 83.2600,111.3100
83.2217,111.3024
83.1893,111.2807
83.1676,111.2483
83.1600,111.2100
83.1600,109.5100
83.1676,109.4717
83.1893,109.4393
83.2217,109.4176
83.2600,109.4100
83.4600,109.4100
83.4983,109.4176
83.5307,109.4393
83.5524,109.4717
83.5600,109.5100
83.5600,111.2100
83.5524,111.2483
83.5307,111.2807
83.4983,111.3024
83.4600,111.3100
Z" /> 
<path style="fill:#000000; fill-opacity:1.0000; stroke:none;fill-rule:evenodd;"
d="M 83.9100,111.3100
83.8717,111.3024
83.8393,111.2807
83.8176,111.2483
83.8100,111.2100
83.8100,109.5100
83.8176,109.4717
83.8393,109.4393
83.8717,109.4176
83.9100,109.4100
84.1100,109.4100
84.1483,109.4176
84.1807,109.4393
84.2024,109.4717
84.2100,109.5100
84.2100,111.2100
84.2024,111.2483
84.1807,111.2807
84.1483,111.3024
84.1100,111.3100
Z" /> 
<path style="fill:#000000; fill-opacity:1.0000; stroke:none;fill-rule:evenodd;"
d="M 84.5600,111.3100
84.5217,111.3024
84.4893,111.2807
84.4676,111.2483
84.4600,111.2100
84.4600,109.5100
84.4676,109.4717
84.4893,109.4393
84.5217,109.4176
84.5600,109.4100
84.7600,109.4100
84.7983,109.4176
84.8307,109.4393
84.8524,109.4717
84.8600,109.5100
84.8600,111.2100
84.8524,111.2483
84.8307,111.2807
84.7983,111.3024
84.7600,111.3100
Z" /> 
<path style="fill:#000000; fill-opacity:1.0000; stroke:none;fill-rule:evenodd;"
d="M 85.2100,111.3100
85.1717,111.3024
85.1393,111.2807
85.1176,111.2483
85.1100,111.2100
85.1100,109.5100
85.1176,109.4717
85.1393,109.4393
85.1717,109.4176
85.2100,109.4100
85.4100,109.4100
85.4483,109.4176
85.4807,109.4393
85.5024,109.4717
85.5100,109.5100
85.5100,111.2100
85.5024,111.2483
85.4807,111.2807
85.4483,111.3024
85.4100,111.3100
Z" /> 
<path style="fill:#000000; fill-opacity:1.0000; stroke:none;fill-rule:evenodd;"
d="M 85.8600,111.3100
85.8217,111.3024
85.7893,111.2807
85.7676,111.2483
85.7600,111.2100
85.7600,109.5100
85.7676,109.4717
85.7893,109.4393
85.8217,109.4176
85.8600,109.4100
86.0600,109.4100
86.0983,109.4176
86.1307,109.4393
86.1524,109.4717
86.1600,109.5100
86.1600,111.2100
86.1524,111.2483
86.1307,111.2807
86.0983,111.3024
86.0600,111.3100
Z" /> 
<path style="fill:#000000; fill-opacity:1.0000; stroke:none;fill-rule:evenodd;"
d="M 86.5100,111.3100
86.4717,111.3024
86.4393,111.2807
86.4176,111.2483
86.4100,111.2100
86.4100,109.5100
86.4176,109.4717
86.4393,109.4393
86.4717,109.4176
86.5100,109.4100
86.7100,109.4100
86.7483,109.4176
86.7807,109.4393
86.8024,109.4717
86.8100,109.5100
86.8100,111.2100
86.8024,111.2483
86.7807,111.2807
86.7483,111.3024
86.7100,111.3100
Z" /> 
<path style="fill:#000000; fill-opacity:1.0000; stroke:none;fill-rule:evenodd;"
d="M 86.5100,104.3100
86.4717,104.3024
86.4393,104.2807
86.4176,104.2483
86.4100,104.2100
86.4100,102.5100
86.4176,102.4717
86.4393,102.4393
86.4717,102.4176
86.5100,102.4100
86.7100,102.4100
86.7483,102.4176
86.7807,102.4393
86.8024,102.4717
86.8100,102.5100
86.8100,104.2100
86.8024,104.2483
86.7807,104.2807
86.7483,104.3024
86.7100,104.3100
Z" /> 
<path style="fill:#000000; fill-opacity:1.0000; stroke:none;fill-rule:evenodd;"
d="M 85.8600,104.3100
85.8217,104.3024
85.7893,104.2807
85.7676,104.2483
85.7600,104.2100
85.7600,102.5100
85.7676,102.4717
85.7893,102.4393
85.8217,102.4176
85.8600,102.4100
86.0600,102.4100
86.0983,102.4176
86.1307,102.4393
86.1524,102.4717
86.1600,102.5100
86.1600,104.2100
86.1524,104.2483
86.1307,104.2807
86.0983,104.3024
86.0600,104.3100
Z" /> 
<path style="fill:#000000; fill-opacity:1.0000; stroke:none;fill-rule:evenodd;"
d="M 85.2100,104.3100
85.1717,104.3024
85.1393,104.2807
85.1176,104.2483
85.1100,104.2100
85.1100,102.5100
85.1176,102.4717
85.1393,102.4393
85.1717,102.4176
85.2100,102.4100
85.4100,102.4100
85.4483,102.4176
85.4807,102.4393
85.5024,102.4717
85.5100,102.5100
85.5100,104.2100
85.5024,104.2483
85.4807,104.2807
85.4483,104.3024
85.4100,104.3100
Z" /> 
<path style="fill:#000000; fill-opacity:1.0000; stroke:none;fill-rule:evenodd;"
d="M 84.5600,104.3100
84.5217,104.3024
84.4893,104.2807
84.4676,104.2483
84.4600,104.2100
84.4600,102.5100
84.4676,102.4717
84.4893,102.4393
84.5217,102.4176
84.5600,102.4100
84.7600,102.4100
84.7983,102.4176
84.8307,102.4393
84.8524,102.4717
84.8600,102.5100
84.8600,104.2100
84.8524,104.2483
84.8307,104.2807
84.7983,104.3024
84.7600,104.3100
Z" /> 
<path style="fill:#000000; fill-opacity:1.0000; stroke:none;fill-rule:evenodd;"
d="M 83.9100,104.3100
83.8717,104.3024
83.8393,104.2807
83.8176,104.2483
83.8100,104.2100
83.8100,102.5100
83.8176,102.4717
83.8393,102.4393
83.8717,102.4176
83.9100,102.4100
84.1100,102.4100
84.1483,102.4176
84.1807,102.4393
84.2024,102.4717
84.2100,102.5100
84.2100,104.2100
84.2024,104.2483
84.1807,104.2807
84.1483,104.3024
84.1100,104.3100
Z" /> 
<path style="fill:#000000; fill-opacity:1.0000; stroke:none;fill-rule:evenodd;"
d="M 83.2600,104.3100
83.2217,104.3024
83.1893,104.2807
83.1676,104.2483
83.1600,104.2100
83.1600,102.5100
83.1676,102.4717
83.1893,102.4393
83.2217,102.4176
83.2600,102.4100
83.4600,102.4100
83.4983,102.4176
83.5307,102.4393
83.5524,102.4717
83.5600,102.5100
83.5600,104.2100
83.5524,104.2483
83.5307,104.2807
83.4983,104.3024
83.4600,104.3100
Z" /> 
<path style="fill:#000000; fill-opacity:1.0000; stroke:none;fill-rule:evenodd;"
d="M 82.6100,104.3100
82.5717,104.3024
82.5393,104.2807
82.5176,104.2483
82.5100,104.2100
82.5100,102.5100
82.5176,102.4717
82.5393,102.4393
82.5717,102.4176
82.6100,102.4100
82.8100,102.4100
82.8483,102.4176
82.8807,102.4393
82.9024,102.4717
82.9100,102.5100
82.9100,104.2100
82.9024,104.2483
82.8807,104.2807
82.8483,104.3024
82.8100,104.3100
Z" /> 
<path style="fill:#000000; fill-opacity:1.0000; stroke:none;fill-rule:evenodd;"
d="M 81.9600,104.3100
81.9217,104.3024
81.8893,104.2807
81.8676,104.2483
81.8600,104.2100
81.8600,102.5100
81.8676,102.4717
81.8893,102.4393
81.9217,102.4176
81.9600,102.4100
82.1600,102.4100
82.1983,102.4176
82.2307,102.4393
82.2524,102.4717
82.2600,102.5100
82.2600,104.2100
82.2524,104.2483
82.2307,104.2807
82.1983,104.3024
82.1600,104.3100
Z" /> 
<path style="fill:#000000; fill-opacity:1.0000; stroke:none;fill-rule:evenodd;"
d="M 81.3100,104.3100
81.2717,104.3024
81.2393,104.2807
81.2176,104.2483
81.2100,104.2100
81.2100,102.5100
81.2176,102.4717
81.2393,102.4393
81.2717,102.4176
81.3100,102.4100
81.5100,102.4100
81.5483,102.4176
81.5807,102.4393
81.6024,102.4717
81.6100,102.5100
81.6100,104.2100
81.6024,104.2483
81.5807,104.2807
81.5483,104.3024
81.5100,104.3100
Z" /> 
<path style="fill:#000000; fill-opacity:1.0000; stroke:none;fill-rule:evenodd;"
d="M 80.6600,104.3100
80.6217,104.3024
80.5893,104.2807
80.5676,104.2483
80.5600,104.2100
80.5600,102.5100
80.5676,102.4717
80.5893,102.4393
80.6217,102.4176
80.6600,102.4100
80.8600,102.4100
80.8983,102.4176
80.9307,102.4393
80.9524,102.4717
80.9600,102.5100
80.9600,104.2100
80.9524,104.2483
80.9307,104.2807
80.8983,104.3024
80.8600,104.3100
Z" /> 
<path style="fill:#000000; fill-opacity:1.0000; stroke:none;fill-rule:evenodd;"
d="M 80.0100,104.3100
79.9717,104.3024
79.9393,104.2807
79.9176,104.2483
79.9100,104.2100
79.9100,102.5100
79.9176,102.4717
79.9393,102.4393
79.9717,102.4176
80.0100,102.4100
80.2100,102.4100
80.2483,102.4176
80.2807,102.4393
80.3024,102.4717
80.3100,102.5100
80.3100,104.2100
80.3024,104.2483
80.2807,104.2807
80.2483,104.3024
80.2100,104.3100
Z" /> 
<path style="fill:#000000; fill-opacity:1.0000; stroke:none;fill-rule:evenodd;"
d="M 79.3600,104.3100
79.3217,104.3024
79.2893,104.2807
79.2676,104.2483
79.2600,104.2100
79.2600,102.5100
79.2676,102.4717
79.2893,102.4393
79.3217,102.4176
79.3600,102.4100
79.5600,102.4100
79.5983,102.4176
79.6307,102.4393
79.6524,102.4717
79.6600,102.5100
79.6600,104.2100
79.6524,104.2483
79.6307,104.2807
79.5983,104.3024
79.5600,104.3100
Z" /> 
<path style="fill:#000000; fill-opacity:1.0000; stroke:none;fill-rule:evenodd;"
d="M 111.7200,61.8450
111.6243,61.8260
111.5432,61.7718
111.4890,61.6907
111.4700,61.5950
111.4700,61.0700
111.4890,60.9743
111.5432,60.8932
111.6243,60.8390
111.7200,60.8200
112.6200,60.8200
112.7157,60.8390
112.7968,60.8932
112.8510,60.9743
112.8700,61.0700
112.8700,61.5950
112.8510,61.6907
112.7968,61.7718
112.7157,61.8260
112.6200,61.8450
Z" /> 
<path style="fill:#000000; fill-opacity:1.0000; stroke:none;fill-rule:evenodd;"
d="M 111.7200,60.0200
111.6243,60.0010
111.5432,59.9468
111.4890,59.8657
111.4700,59.7700
111.4700,59.2450
111.4890,59.1493
111.5432,59.0682
111.6243,59.0140
111.7200,58.9950
112.6200,58.9950
112.7157,59.0140
112.7968,59.0682
112.8510,59.1493
112.8700,59.2450
112.8700,59.7700
112.8510,59.8657
112.7968,59.9468
112.7157,60.0010
112.6200,60.0200
Z" /> 
<path style="fill:#000000; fill-opacity:1.0000; stroke:none;fill-rule:evenodd;"
d="M 92.1400,86.2650
92.2357,86.2840
92.3168,86.3382
92.3710,86.4193
92.3900,86.5150
92.3900,87.0400
92.3710,87.1357
92.3168,87.2168
92.2357,87.2710
92.1400,87.2900
91.2400,87.2900
91.1443,87.2710
91.0632,87.2168
91.0090,87.1357
90.9900,87.0400
90.9900,86.5150
91.0090,86.4193
91.0632,86.3382
91.1443,86.2840
91.2400,86.2650
Z" /> 
<path style="fill:#000000; fill-opacity:1.0000; stroke:none;fill-rule:evenodd;"
d="M 92.1400,88.0900
92.2357,88.1090
92.3168,88.1632
92.3710,88.2443
92.3900,88.3400
92.3900,88.8650
92.3710,88.9607
92.3168,89.0418
92.2357,89.0960
92.1400,89.1150
91.2400,89.1150
91.1443,89.0960
91.0632,89.0418
91.0090,88.9607
90.9900,88.8650
90.9900,88.3400
91.0090,88.2443
91.0632,88.1632
91.1443,88.1090
91.2400,88.0900
Z" /> 
<path style="fill:#000000; fill-opacity:1.0000; stroke:none;fill-rule:evenodd;"
d="M 121.2750,108.1900
121.2560,108.2857
121.2018,108.3668
121.1207,108.4210
121.0250,108.4400
120.5000,108.4400
120.4043,108.4210
120.3232,108.3668
120.2690,108.2857
120.2500,108.1900
120.2500,107.2900
120.2690,107.1943
120.3232,107.1132
120.4043,107.0590
120.5000,107.0400
121.0250,107.0400
121.1207,107.0590
121.2018,107.1132
121.2560,107.1943
121.2750,107.2900
Z" /> 
<path style="fill:#000000; fill-opacity:1.0000; stroke:none;fill-rule:evenodd;"
d="M 119.4500,108.1900
119.4310,108.2857
119.3768,108.3668
119.2957,108.4210
119.2000,108.4400
118.6750,108.4400
118.5793,108.4210
118.4982,108.3668
118.4440,108.2857
118.4250,108.1900
118.4250,107.2900
118.4440,107.1943
118.4982,107.1132
118.5793,107.0590
118.6750,107.0400
119.2000,107.0400
119.2957,107.0590
119.3768,107.1132
119.4310,107.1943
119.4500,107.2900
Z" /> 
<path style="fill:#000000; fill-opacity:1.0000; stroke:none;fill-rule:evenodd;"
d="M 126.1200,95.9550
126.2157,95.9740
126.2968,96.0282
126.3510,96.1093
126.3700,96.2050
126.3700,96.7300
126.3510,96.8257
126.2968,96.9068
126.2157,96.9610
126.1200,96.9800
125.2200,96.9800
125.1243,96.9610
125.0432,96.9068
124.9890,96.8257
124.9700,96.7300
124.9700,96.2050
124.9890,96.1093
125.0432,96.0282
125.1243,95.9740
125.2200,95.9550
Z" /> 
<path style="fill:#000000; fill-opacity:1.0000; stroke:none;fill-rule:evenodd;"
d="M 126.1200,97.7800
126.2157,97.7990
126.2968,97.8532
126.3510,97.9343
126.3700,98.0300
126.3700,98.5550
126.3510,98.6507
126.2968,98.7318
126.2157,98.7860
126.1200,98.8050
125.2200,98.8050
125.1243,98.7860
125.0432,98.7318
124.9890,98.6507
124.9700,98.5550
124.9700,98.0300
124.9890,97.9343
125.0432,97.8532
125.1243,97.7990
125.2200,97.7800
Z" /> 
<path style="fill:#000000; fill-opacity:1.0000; stroke:none;fill-rule:evenodd;"
d="M 94.2450,120.9762
94.2264,121.0695
94.1736,121.1486
94.0945,121.2014
94.0012,121.2200
93.5138,121.2200
93.4205,121.2014
93.3414,121.1486
93.2886,121.0695
93.2700,120.9762
93.2700,120.0637
93.2886,119.9705
93.3414,119.8914
93.4205,119.8386
93.5138,119.8200
94.0012,119.8200
94.0945,119.8386
94.1736,119.8914
94.2264,119.9705
94.2450,120.0637
Z" /> 
<path style="fill:#000000; fill-opacity:1.0000; stroke:none;fill-rule:evenodd;"
d="M 92.3700,120.9762
92.3514,121.0695
92.2986,121.1486
92.2195,121.2014
92.1262,121.2200
91.6388,121.2200
91.5455,121.2014
91.4664,121.1486
91.4136,121.0695
91.3950,120.9762
91.3950,120.0637
91.4136,119.9705
91.4664,119.8914
91.5455,119.8386
91.6388,119.8200
92.1262,119.8200
92.2195,119.8386
92.2986,119.8914
92.3514,119.9705
92.3700,120.0637
Z" /> 
<path style="fill:#000000; fill-opacity:1.0000; stroke:none;fill-rule:evenodd;"
d="M 121.2750,80.0100
121.2560,80.1057
121.2018,80.1868
121.1207,80.2410
121.0250,80.2600
120.5000,80.2600
120.4043,80.2410
120.3232,80.1868
120.2690,80.1057
120.2500,80.0100
120.2500,79.1100
120.2690,79.0143
120.3232,78.9332
120.4043,78.8790
120.5000,78.8600
121.0250,78.8600
121.1207,78.8790
121.2018,78.9332
121.2560,79.0143
121.2750,79.1100
Z" /> 
<path style="fill:#000000; fill-opacity:1.0000; stroke:none;fill-rule:evenodd;"
d="M 119.4500,80.0100
119.4310,80.1057
119.3768,80.1868
119.2957,80.2410
119.2000,80.2600
118.6750,80.2600
118.5793,80.2410
118.4982,80.1868
118.4440,80.1057
118.4250,80.0100
118.4250,79.1100
118.4440,79.0143
118.4982,78.9332
118.5793,78.8790
118.6750,78.8600
119.2000,78.8600
119.2957,78.8790
119.3768,78.9332
119.4310,79.0143
119.4500,79.1100
Z" /> 
<path style="fill:#000000; fill-opacity:1.0000; stroke:none;fill-rule:evenodd;"
d="M 97.9050,56.0300
97.9240,55.9343
97.9782,55.8532
98.0593,55.7990
98.1550,55.7800
98.6800,55.7800
98.7757,55.7990
98.8568,55.8532
98.9110,55.9343
98.9300,56.0300
98.9300,56.9300
98.9110,57.0257
98.8568,57.1068
98.7757,57.1610
98.6800,57.1800
98.1550,57.1800
98.0593,57.1610
97.9782,57.1068
97.9240,57.0257
97.9050,56.9300
Z" /> 
<path style="fill:#000000; fill-opacity:1.0000; stroke:none;fill-rule:evenodd;"
d="M 99.7300,56.0300
99.7490,55.9343
99.8032,55.8532
99.8843,55.7990
99.9800,55.7800
100.5050,55.7800
100.6007,55.7990
100.6818,55.8532
100.7360,55.9343
100.7550,56.0300
100.7550,56.9300
100.7360,57.0257
100.6818,57.1068
100.6007,57.1610
100.5050,57.1800
99.9800,57.1800
99.8843,57.1610
99.8032,57.1068
99.7490,57.0257
99.7300,56.9300
Z" /> 
<path style="fill:#000000; fill-opacity:1.0000; stroke:none;fill-rule:evenodd;"
d="M 91.3950,123.1037
91.4136,123.0105
91.4664,122.9314
91.5455,122.8786
91.6388,122.8600
92.1262,122.8600
92.2195,122.8786
92.2986,122.9314
92.3514,123.0105
92.3700,123.1037
92.3700,124.0162
92.3514,124.1095
92.2986,124.1886
92.2195,124.2414
92.1262,124.2600
91.6388,124.2600
91.5455,124.2414
91.4664,124.1886
91.4136,124.1095
91.3950,124.0162
Z" /> 
<path style="fill:#000000; fill-opacity:1.0000; stroke:none;fill-rule:evenodd;"
d="M 93.2700,123.1037
93.2886,123.0105
93.3414,122.9314
93.4205,122.8786
93.5138,122.8600
94.0012,122.8600
94.0945,122.8786
94.1736,122.9314
94.2264,123.0105
94.2450,123.1037
94.2450,124.0162
94.2264,124.1095
94.1736,124.1886
94.0945,124.2414
94.0012,124.2600
93.5138,124.2600
93.4205,124.2414
93.3414,124.1886
93.2886,124.1095
93.2700,124.0162
Z" /> 
<path style="fill:#000000; fill-opacity:1.0000; stroke:none;fill-rule:evenodd;"
d="M 86.2375,78.3550
86.3332,78.3740
86.4143,78.4282
86.4685,78.5093
86.4875,78.6050
86.4875,79.1300
86.4685,79.2257
86.4143,79.3068
86.3332,79.3610
86.2375,79.3800
85.3375,79.3800
85.2418,79.3610
85.1607,79.3068
85.1065,79.2257
85.0875,79.1300
85.0875,78.6050
85.1065,78.5093
85.1607,78.4282
85.2418,78.3740
85.3375,78.3550
Z" /> 
<path style="fill:#000000; fill-opacity:1.0000; stroke:none;fill-rule:evenodd;"
d="M 86.2375,80.1800
86.3332,80.1990
86.4143,80.2532
86.4685,80.3343
86.4875,80.4300
86.4875,80.9550
86.4685,81.0507
86.4143,81.1318
86.3332,81.1860
86.2375,81.2050
85.3375,81.2050
85.2418,81.1860
85.1607,81.1318
85.1065,81.0507
85.0875,80.9550
85.0875,80.4300
85.1065,80.3343
85.1607,80.2532
85.2418,80.1990
85.3375,80.1800
Z" /> 
<path style="fill:#000000; fill-opacity:1.0000; stroke:none;fill-rule:evenodd;"
d="M 91.0500,108.5950
91.0310,108.6907
90.9768,108.7718
90.8957,108.8260
90.8000,108.8450
90.3000,108.8450
90.2043,108.8260
90.1232,108.7718
90.0690,108.6907
90.0500,108.5950
90.0500,107.6450
90.0690,107.5493
90.1232,107.4682
90.2043,107.4140
90.3000,107.3950
90.8000,107.3950
90.8957,107.4140
90.9768,107.4682
91.0310,107.5493
91.0500,107.6450
Z" /> 
<path style="fill:#000000; fill-opacity:1.0000; stroke:none;fill-rule:evenodd;"
d="M 89.1500,108.5950
89.1310,108.6907
89.0768,108.7718
88.9957,108.8260
88.9000,108.8450
88.4000,108.8450
88.3043,108.8260
88.2232,108.7718
88.1690,108.6907
88.1500,108.5950
88.1500,107.6450
88.1690,107.5493
88.2232,107.4682
88.3043,107.4140
88.4000,107.3950
88.9000,107.3950
88.9957,107.4140
89.0768,107.4682
89.1310,107.5493
89.1500,107.6450
Z" /> 
<path style="fill:#000000; fill-opacity:1.0000; stroke:none;fill-rule:evenodd;"
d="M 143.2800,108.6800
143.2990,108.5843
143.3532,108.5032
143.4343,108.4490
143.5300,108.4300
145.5300,108.4300
145.6257,108.4490
145.7068,108.5032
145.7610,108.5843
145.7800,108.6800
145.7800,109.9800
145.7610,110.0757
145.7068,110.1568
145.6257,110.2110
145.5300,110.2300
143.5300,110.2300
143.4343,110.2110
143.3532,110.1568
143.2990,110.0757
143.2800,109.9800
Z" /> 
<path style="fill:#000000; fill-opacity:1.0000; stroke:none;fill-rule:evenodd;"
d="M 147.2800,108.6800
147.2990,108.5843
147.3532,108.5032
147.4343,108.4490
147.5300,108.4300
149.5300,108.4300
149.6257,108.4490
149.7068,108.5032
149.7610,108.5843
149.7800,108.6800
149.7800,109.9800
149.7610,110.0757
149.7068,110.1568
149.6257,110.2110
149.5300,110.2300
147.5300,110.2300
147.4343,110.2110
147.3532,110.1568
147.2990,110.0757
147.2800,109.9800
Z" /> 
<path style="fill:#000000; fill-opacity:1.0000; stroke:none;fill-rule:evenodd;"
d="M 132.2200,35.9750
132.2010,36.0707
132.1468,36.1518
132.0657,36.2060
131.9700,36.2250
131.4700,36.2250
131.3743,36.2060
131.2932,36.1518
131.2390,36.0707
131.2200,35.9750
131.2200,35.0250
131.2390,34.9293
131.2932,34.8482
131.3743,34.7940
131.4700,34.7750
131.9700,34.7750
132.0657,34.7940
132.1468,34.8482
132.2010,34.9293
132.2200,35.0250
Z" /> 
<path style="fill:#000000; fill-opacity:1.0000; stroke:none;fill-rule:evenodd;"
d="M 130.3200,35.9750
130.3010,36.0707
130.2468,36.1518
130.1657,36.2060
130.0700,36.2250
129.5700,36.2250
129.4743,36.2060
129.3932,36.1518
129.3390,36.0707
129.3200,35.9750
129.3200,35.0250
129.3390,34.9293
129.3932,34.8482
129.4743,34.7940
129.5700,34.7750
130.0700,34.7750
130.1657,34.7940
130.2468,34.8482
130.3010,34.9293
130.3200,35.0250
Z" /> 
<path style="fill:#000000; fill-opacity:1.0000; stroke:none;fill-rule:evenodd;"
d="M 96.8382,106.1315
96.8096,106.0816
96.8023,106.0245
96.8175,105.9690
96.8527,105.9235
97.0753,105.7299
97.1253,105.7014
97.1824,105.6941
97.2379,105.7092
97.2834,105.7445
97.5098,106.0048
97.5383,106.0548
97.5456,106.1119
97.5305,106.1674
97.4952,106.2129
97.2726,106.4065
97.2226,106.4350
97.1655,106.4423
97.1100,106.4271
97.0645,106.3919
Z" /> 
<path style="fill:#000000; fill-opacity:1.0000; stroke:none;fill-rule:evenodd;"
d="M 97.5702,105.4952
97.5417,105.4452
97.5344,105.3881
97.5495,105.3326
97.5848,105.2871
97.8074,105.0935
97.8574,105.0650
97.9145,105.0577
97.9700,105.0729
98.0155,105.1081
98.2418,105.3685
98.2704,105.4184
98.2777,105.4755
98.2625,105.5310
98.2273,105.5765
98.0047,105.7701
97.9547,105.7986
97.8976,105.8059
97.8421,105.7908
97.7966,105.7555
Z" /> 
<path style="fill:#000000; fill-opacity:1.0000; stroke:none;fill-rule:evenodd;"
d="M 92.9250,55.1000
92.8293,55.0810
92.7482,55.0268
92.6940,54.9457
92.6750,54.8500
92.6750,54.3500
92.6940,54.2543
92.7482,54.1732
92.8293,54.1190
92.9250,54.1000
93.8750,54.1000
93.9707,54.1190
94.0518,54.1732
94.1060,54.2543
94.1250,54.3500
94.1250,54.8500
94.1060,54.9457
94.0518,55.0268
93.9707,55.0810
93.8750,55.1000
Z" /> 
<path style="fill:#000000; fill-opacity:1.0000; stroke:none;fill-rule:evenodd;"
d="M 92.9250,53.2000
92.8293,53.1810
92.7482,53.1268
92.6940,53.0457
92.6750,52.9500
92.6750,52.4500
92.6940,52.3543
92.7482,52.2732
92.8293,52.2190
92.9250,52.2000
93.8750,52.2000
93.9707,52.2190
94.0518,52.2732
94.1060,52.3543
94.1250,52.4500
94.1250,52.9500
94.1060,53.0457
94.0518,53.1268
93.9707,53.1810
93.8750,53.2000
Z" /> 
<path style="fill:#000000; fill-opacity:1.0000; stroke:none;fill-rule:evenodd;"
d="M 93.8750,39.4700
93.9707,39.4890
94.0518,39.5432
94.1060,39.6243
94.1250,39.7200
94.1250,40.2200
94.1060,40.3157
94.0518,40.3968
93.9707,40.4510
93.8750,40.4700
92.9250,40.4700
92.8293,40.4510
92.7482,40.3968
92.6940,40.3157
92.6750,40.2200
92.6750,39.7200
92.6940,39.6243
92.7482,39.5432
92.8293,39.4890
92.9250,39.4700
Z" /> 
<path style="fill:#000000; fill-opacity:1.0000; stroke:none;fill-rule:evenodd;"
d="M 93.8750,41.3700
93.9707,41.3890
94.0518,41.4432
94.1060,41.5243
94.1250,41.6200
94.1250,42.1200
94.1060,42.2157
94.0518,42.2968
93.9707,42.3510
93.8750,42.3700
92.9250,42.3700
92.8293,42.3510
92.7482,42.2968
92.6940,42.2157
92.6750,42.1200
92.6750,41.6200
92.6940,41.5243
92.7482,41.4432
92.8293,41.3890
92.9250,41.3700
Z" /> 
<path style="fill:#000000; fill-opacity:1.0000; stroke:none;fill-rule:evenodd;"
d="M 137.6937,121.4550
137.6005,121.4364
137.5214,121.3836
137.4686,121.3045
137.4500,121.2112
137.4500,120.7237
137.4686,120.6305
137.5214,120.5514
137.6005,120.4986
137.6937,120.4800
138.6062,120.4800
138.6995,120.4986
138.7786,120.5514
138.8314,120.6305
138.8500,120.7237
138.8500,121.2112
138.8314,121.3045
138.7786,121.3836
138.6995,121.4364
138.6062,121.4550
Z" /> 
<path style="fill:#000000; fill-opacity:1.0000; stroke:none;fill-rule:evenodd;"
d="M 137.6937,119.5800
137.6005,119.5614
137.5214,119.5086
137.4686,119.4295
137.4500,119.3362
137.4500,118.8487
137.4686,118.7555
137.5214,118.6764
137.6005,118.6236
137.6937,118.6050
138.6062,118.6050
138.6995,118.6236
138.7786,118.6764
138.8314,118.7555
138.8500,118.8487
138.8500,119.3362
138.8314,119.4295
138.7786,119.5086
138.6995,119.5614
138.6062,119.5800
Z" /> 
<path style="fill:#000000; fill-opacity:1.0000; stroke:none;fill-rule:evenodd;"
d="M 75.9550,102.7950
76.0507,102.8140
76.1318,102.8682
76.1860,102.9493
76.2050,103.0450
76.2050,104.6150
76.1860,104.7107
76.1318,104.7918
76.0507,104.8460
75.9550,104.8650
73.8650,104.8650
73.7693,104.8460
73.6882,104.7918
73.6340,104.7107
73.6150,104.6150
73.6150,103.0450
73.6340,102.9493
73.6882,102.8682
73.7693,102.8140
73.8650,102.7950
Z" /> 
<path style="fill:#000000; fill-opacity:1.0000; stroke:none;fill-rule:evenodd;"
d="M 75.9550,109.0350
76.0507,109.0540
76.1318,109.1082
76.1860,109.1893
76.2050,109.2850
76.2050,110.8550
76.1860,110.9507
76.1318,111.0318
76.0507,111.0860
75.9550,111.1050
73.8650,111.1050
73.7693,111.0860
73.6882,111.0318
73.6340,110.9507
73.6150,110.8550
73.6150,109.2850
73.6340,109.1893
73.6882,109.1082
73.7693,109.0540
73.8650,109.0350
Z" /> 
<path style="fill:#000000; fill-opacity:1.0000; stroke:none;fill-rule:evenodd;"
d="M 85.3375,90.2250
85.2418,90.2060
85.1607,90.1518
85.1065,90.0707
85.0875,89.9750
85.0875,89.4500
85.1065,89.3543
85.1607,89.2732
85.2418,89.2190
85.3375,89.2000
86.2375,89.2000
86.3332,89.2190
86.4143,89.2732
86.4685,89.3543
86.4875,89.4500
86.4875,89.9750
86.4685,90.0707
86.4143,90.1518
86.3332,90.2060
86.2375,90.2250
Z" /> 
<path style="fill:#000000; fill-opacity:1.0000; stroke:none;fill-rule:evenodd;"
d="M 85.3375,88.4000
85.2418,88.3810
85.1607,88.3268
85.1065,88.2457
85.0875,88.1500
85.0875,87.6250
85.1065,87.5293
85.1607,87.4482
85.2418,87.3940
85.3375,87.3750
86.2375,87.3750
86.3332,87.3940
86.4143,87.4482
86.4685,87.5293
86.4875,87.6250
86.4875,88.1500
86.4685,88.2457
86.4143,88.3268
86.3332,88.3810
86.2375,88.4000
Z" /> 
<path style="fill:#000000; fill-opacity:1.0000; stroke:none;fill-rule:evenodd;"
d="M 83.8000,114.0150
83.8190,113.9193
83.8732,113.8382
83.9543,113.7840
84.0500,113.7650
84.5500,113.7650
84.6457,113.7840
84.7268,113.8382
84.7810,113.9193
84.8000,114.0150
84.8000,114.9650
84.7810,115.0607
84.7268,115.1418
84.6457,115.1960
84.5500,115.2150
84.0500,115.2150
83.9543,115.1960
83.8732,115.1418
83.8190,115.0607
83.8000,114.9650
Z" /> 
<path style="fill:#000000; fill-opacity:1.0000; stroke:none;fill-rule:evenodd;"
d="M 85.7000,114.0150
85.7190,113.9193
85.7732,113.8382
85.8543,113.7840
85.9500,113.7650
86.4500,113.7650
86.5457,113.7840
86.6268,113.8382
86.6810,113.9193
86.7000,114.0150
86.7000,114.9650
86.6810,115.0607
86.6268,115.1418
86.5457,115.1960
86.4500,115.2150
85.9500,115.2150
85.8543,115.1960
85.7732,115.1418
85.7190,115.0607
85.7000,114.9650
Z" /> 
<path style="fill:#000000; fill-opacity:1.0000; stroke:none;fill-rule:evenodd;"
d="M 89.0075,78.3550
89.1032,78.3740
89.1843,78.4282
89.2385,78.5093
89.2575,78.6050
89.2575,79.1300
89.2385,79.2257
89.1843,79.3068
89.1032,79.3610
89.0075,79.3800
88.1075,79.3800
88.0118,79.3610
87.9307,79.3068
87.8765,79.2257
87.8575,79.1300
87.8575,78.6050
87.8765,78.5093
87.9307,78.4282
88.0118,78.3740
88.1075,78.3550
Z" /> 
<path style="fill:#000000; fill-opacity:1.0000; stroke:none;fill-rule:evenodd;"
d="M 89.0075,80.1800
89.1032,80.1990
89.1843,80.2532
89.2385,80.3343
89.2575,80.4300
89.2575,80.9550
89.2385,81.0507
89.1843,81.1318
89.1032,81.1860
89.0075,81.2050
88.1075,81.2050
88.0118,81.1860
87.9307,81.1318
87.8765,81.0507
87.8575,80.9550
87.8575,80.4300
87.8765,80.3343
87.9307,80.2532
88.0118,80.1990
88.1075,80.1800
Z" /> 
<path style="fill:#000000; fill-opacity:1.0000; stroke:none;fill-rule:evenodd;"
d="M 142.3738,50.5050
142.2805,50.4864
142.2014,50.4336
142.1486,50.3545
142.1300,50.2612
142.1300,49.7737
142.1486,49.6805
142.2014,49.6014
142.2805,49.5486
142.3738,49.5300
143.2862,49.5300
143.3795,49.5486
143.4586,49.6014
143.5114,49.6805
143.5300,49.7737
143.5300,50.2612
143.5114,50.3545
143.4586,50.4336
143.3795,50.4864
143.2862,50.5050
Z" /> 
<path style="fill:#000000; fill-opacity:1.0000; stroke:none;fill-rule:evenodd;"
d="M 142.3738,48.6300
142.2805,48.6114
142.2014,48.5586
142.1486,48.4795
142.1300,48.3862
142.1300,47.8987
142.1486,47.8055
142.2014,47.7264
142.2805,47.6736
142.3738,47.6550
143.2862,47.6550
143.3795,47.6736
143.4586,47.7264
143.5114,47.8055
143.5300,47.8987
143.5300,48.3862
143.5114,48.4795
143.4586,48.5586
143.3795,48.6114
143.2862,48.6300
Z" /> 
<path style="fill:#000000; fill-opacity:1.0000; stroke:none;fill-rule:evenodd;"
d="M 132.2200,39.1350
132.2010,39.2307
132.1468,39.3118
132.0657,39.3660
131.9700,39.3850
131.4700,39.3850
131.3743,39.3660
131.2932,39.3118
131.2390,39.2307
131.2200,39.1350
131.2200,38.1850
131.2390,38.0893
131.2932,38.0082
131.3743,37.9540
131.4700,37.9350
131.9700,37.9350
132.0657,37.9540
132.1468,38.0082
132.2010,38.0893
132.2200,38.1850
Z" /> 
<path style="fill:#000000; fill-opacity:1.0000; stroke:none;fill-rule:evenodd;"
d="M 130.3200,39.1350
130.3010,39.2307
130.2468,39.3118
130.1657,39.3660
130.0700,39.3850
129.5700,39.3850
129.4743,39.3660
129.3932,39.3118
129.3390,39.2307
129.3200,39.1350
129.3200,38.1850
129.3390,38.0893
129.3932,38.0082
129.4743,37.9540
129.5700,37.9350
130.0700,37.9350
130.1657,37.9540
130.2468,38.0082
130.3010,38.0893
130.3200,38.1850
Z" /> 
<path style="fill:#000000; fill-opacity:1.0000; stroke:none;fill-rule:evenodd;"
d="M 98.7200,41.0300
98.8157,41.0490
98.8968,41.1032
98.9510,41.1843
98.9700,41.2800
98.9700,44.2800
98.9510,44.3757
98.8968,44.4568
98.8157,44.5110
98.7200,44.5300
97.6200,44.5300
97.5243,44.5110
97.4432,44.4568
97.3890,44.3757
97.3700,44.2800
97.3700,41.2800
97.3890,41.1843
97.4432,41.1032
97.5243,41.0490
97.6200,41.0300
Z" /> 
<path style="fill:#000000; fill-opacity:1.0000; stroke:none;fill-rule:evenodd;"
d="M 98.7200,46.4300
98.8157,46.4490
98.8968,46.5032
98.9510,46.5843
98.9700,46.6800
98.9700,49.6800
98.9510,49.7757
98.8968,49.8568
98.8157,49.9110
98.7200,49.9300
97.6200,49.9300
97.5243,49.9110
97.4432,49.8568
97.3890,49.7757
97.3700,49.6800
97.3700,46.6800
97.3890,46.5843
97.4432,46.5032
97.5243,46.4490
97.6200,46.4300
Z" /> 
<path style="fill:#000000; fill-opacity:1.0000; stroke:none;fill-rule:evenodd;"
d="M 139.8738,121.4550
139.7805,121.4364
139.7014,121.3836
139.6486,121.3045
139.6300,121.2112
139.6300,120.7237
139.6486,120.6305
139.7014,120.5514
139.7805,120.4986
139.8738,120.4800
140.7862,120.4800
140.8795,120.4986
140.9586,120.5514
141.0114,120.6305
141.0300,120.7237
141.0300,121.2112
141.0114,121.3045
140.9586,121.3836
140.8795,121.4364
140.7862,121.4550
Z" /> 
<path style="fill:#000000; fill-opacity:1.0000; stroke:none;fill-rule:evenodd;"
d="M 139.8738,119.5800
139.7805,119.5614
139.7014,119.5086
139.6486,119.4295
139.6300,119.3362
139.6300,118.8487
139.6486,118.7555
139.7014,118.6764
139.7805,118.6236
139.8738,118.6050
140.7862,118.6050
140.8795,118.6236
140.9586,118.6764
141.0114,118.7555
141.0300,118.8487
141.0300,119.3362
141.0114,119.4295
140.9586,119.5086
140.8795,119.5614
140.7862,119.5800
Z" /> 
<path style="fill:#000000; fill-opacity:1.0000; stroke:none;fill-rule:evenodd;"
d="M 142.9663,118.6450
143.0595,118.6636
143.1386,118.7164
143.1914,118.7955
143.2100,118.8888
143.2100,119.3762
143.1914,119.4695
143.1386,119.5486
143.0595,119.6014
142.9663,119.6200
142.0537,119.6200
141.9605,119.6014
141.8814,119.5486
141.8286,119.4695
141.8100,119.3762
141.8100,118.8888
141.8286,118.7955
141.8814,118.7164
141.9605,118.6636
142.0537,118.6450
Z" /> 
<path style="fill:#000000; fill-opacity:1.0000; stroke:none;fill-rule:evenodd;"
d="M 142.9663,120.5200
143.0595,120.5386
143.1386,120.5914
143.1914,120.6705
143.2100,120.7637
143.2100,121.2512
143.1914,121.3445
143.1386,121.4236
143.0595,121.4764
142.9663,121.4950
142.0537,121.4950
141.9605,121.4764
141.8814,121.4236
141.8286,121.3445
141.8100,121.2512
141.8100,120.7637
141.8286,120.6705
141.8814,120.5914
141.9605,120.5386
142.0537,120.5200
Z" /> 
<path style="fill:#000000; fill-opacity:1.0000; stroke:none;fill-rule:evenodd;"
d="M 98.0899,104.2142
98.0555,104.1681
98.0413,104.1123
98.0495,104.0554
98.0790,104.0059
98.2764,103.7867
98.3225,103.7523
98.3783,103.7381
98.4352,103.7463
98.4847,103.7758
98.7411,104.0066
98.7755,104.0527
98.7897,104.1085
98.7814,104.1655
98.7520,104.2149
98.5546,104.4342
98.5085,104.4686
98.4527,104.4828
98.3957,104.4745
98.3463,104.4451
Z" /> 
<path style="fill:#000000; fill-opacity:1.0000; stroke:none;fill-rule:evenodd;"
d="M 98.7389,103.4934
98.7045,103.4473
98.6903,103.3915
98.6986,103.3345
98.7280,103.2851
98.9254,103.0658
98.9715,103.0314
99.0273,103.0172
99.0843,103.0255
99.1337,103.0549
99.3901,103.2858
99.4245,103.3319
99.4387,103.3877
99.4305,103.4446
99.4010,103.4941
99.2036,103.7133
99.1575,103.7477
99.1017,103.7619
99.0448,103.7537
98.9953,103.7242
Z" /> 
<path style="fill:#000000; fill-opacity:1.0000; stroke:none;fill-rule:evenodd;"
d="M 99.1650,37.6900
99.1840,37.5943
99.2382,37.5132
99.3193,37.4590
99.4150,37.4400
99.9400,37.4400
100.0357,37.4590
100.1168,37.5132
100.1710,37.5943
100.1900,37.6900
100.1900,38.5900
100.1710,38.6857
100.1168,38.7668
100.0357,38.8210
99.9400,38.8400
99.4150,38.8400
99.3193,38.8210
99.2382,38.7668
99.1840,38.6857
99.1650,38.5900
Z" /> 
<path style="fill:#000000; fill-opacity:1.0000; stroke:none;fill-rule:evenodd;"
d="M 100.9900,37.6900
101.0090,37.5943
101.0632,37.5132
101.1443,37.4590
101.2400,37.4400
101.7650,37.4400
101.8607,37.4590
101.9418,37.5132
101.9960,37.5943
102.0150,37.6900
102.0150,38.5900
101.9960,38.6857
101.9418,38.7668
101.8607,38.8210
101.7650,38.8400
101.2400,38.8400
101.1443,38.8210
101.0632,38.7668
101.0090,38.6857
100.9900,38.5900
Z" /> 
<path style="fill:#000000; fill-opacity:1.0000; stroke:none;fill-rule:evenodd;"
d="M 88.1075,90.2250
88.0118,90.2060
87.9307,90.1518
87.8765,90.0707
87.8575,89.9750
87.8575,89.4500
87.8765,89.3543
87.9307,89.2732
88.0118,89.2190
88.1075,89.2000
89.0075,89.2000
89.1032,89.2190
89.1843,89.2732
89.2385,89.3543
89.2575,89.4500
89.2575,89.9750
89.2385,90.0707
89.1843,90.1518
89.1032,90.2060
89.0075,90.2250
Z" /> 
<path style="fill:#000000; fill-opacity:1.0000; stroke:none;fill-rule:evenodd;"
d="M 88.1075,88.4000
88.0118,88.3810
87.9307,88.3268
87.8765,88.2457
87.8575,88.1500
87.8575,87.6250
87.8765,87.5293
87.9307,87.4482
88.0118,87.3940
88.1075,87.3750
89.0075,87.3750
89.1032,87.3940
89.1843,87.4482
89.2385,87.5293
89.2575,87.6250
89.2575,88.1500
89.2385,88.2457
89.1843,88.3268
89.1032,88.3810
89.0075,88.4000
Z" /> 
</g> 
</svg>
