%TF.GenerationSoftware,KiCad,Pcbnew,9.0.6*%
%TF.CreationDate,2025-12-14T16:40:19+01:00*%
%TF.ProjectId,rayman_LCD,7261796d-616e-45f4-9c43-442e6b696361,rev?*%
%TF.SameCoordinates,Original*%
%TF.FileFunction,Copper,L2,Bot*%
%TF.FilePolarity,Positive*%
%FSLAX46Y46*%
G04 Gerber Fmt 4.6, Leading zero omitted, Abs format (unit mm)*
G04 Created by KiCad (PCBNEW 9.0.6) date 2025-12-14 16:40:19*
%MOMM*%
%LPD*%
G01*
G04 APERTURE LIST*
G04 Aperture macros list*
%AMRoundRect*
0 Rectangle with rounded corners*
0 $1 Rounding radius*
0 $2 $3 $4 $5 $6 $7 $8 $9 X,Y pos of 4 corners*
0 Add a 4 corners polygon primitive as box body*
4,1,4,$2,$3,$4,$5,$6,$7,$8,$9,$2,$3,0*
0 Add four circle primitives for the rounded corners*
1,1,$1+$1,$2,$3*
1,1,$1+$1,$4,$5*
1,1,$1+$1,$6,$7*
1,1,$1+$1,$8,$9*
0 Add four rect primitives between the rounded corners*
20,1,$1+$1,$2,$3,$4,$5,0*
20,1,$1+$1,$4,$5,$6,$7,0*
20,1,$1+$1,$6,$7,$8,$9,0*
20,1,$1+$1,$8,$9,$2,$3,0*%
%AMOutline5P*
0 Free polygon, 5 corners , with rotation*
0 The origin of the aperture is its center*
0 number of corners: always 5*
0 $1 to $10 corner X, Y*
0 $11 Rotation angle, in degrees counterclockwise*
0 create outline with 5 corners*
4,1,5,$1,$2,$3,$4,$5,$6,$7,$8,$9,$10,$1,$2,$11*%
%AMOutline6P*
0 Free polygon, 6 corners , with rotation*
0 The origin of the aperture is its center*
0 number of corners: always 6*
0 $1 to $12 corner X, Y*
0 $13 Rotation angle, in degrees counterclockwise*
0 create outline with 6 corners*
4,1,6,$1,$2,$3,$4,$5,$6,$7,$8,$9,$10,$11,$12,$1,$2,$13*%
%AMOutline7P*
0 Free polygon, 7 corners , with rotation*
0 The origin of the aperture is its center*
0 number of corners: always 7*
0 $1 to $14 corner X, Y*
0 $15 Rotation angle, in degrees counterclockwise*
0 create outline with 7 corners*
4,1,7,$1,$2,$3,$4,$5,$6,$7,$8,$9,$10,$11,$12,$13,$14,$1,$2,$15*%
%AMOutline8P*
0 Free polygon, 8 corners , with rotation*
0 The origin of the aperture is its center*
0 number of corners: always 8*
0 $1 to $16 corner X, Y*
0 $17 Rotation angle, in degrees counterclockwise*
0 create outline with 8 corners*
4,1,8,$1,$2,$3,$4,$5,$6,$7,$8,$9,$10,$11,$12,$13,$14,$15,$16,$1,$2,$17*%
G04 Aperture macros list end*
%TA.AperFunction,ComponentPad*%
%ADD10C,4.000000*%
%TD*%
%TA.AperFunction,ComponentPad*%
%ADD11RoundRect,0.250000X-0.845000X0.620000X-0.845000X-0.620000X0.845000X-0.620000X0.845000X0.620000X0*%
%TD*%
%TA.AperFunction,ComponentPad*%
%ADD12O,2.190000X1.740000*%
%TD*%
%TA.AperFunction,ComponentPad*%
%ADD13RoundRect,0.250000X0.845000X-0.620000X0.845000X0.620000X-0.845000X0.620000X-0.845000X-0.620000X0*%
%TD*%
%TA.AperFunction,ComponentPad*%
%ADD14RoundRect,0.250000X-0.350000X-0.650000X0.350000X-0.650000X0.350000X0.650000X-0.350000X0.650000X0*%
%TD*%
%TA.AperFunction,ComponentPad*%
%ADD15O,1.200000X1.800000*%
%TD*%
%TA.AperFunction,ComponentPad*%
%ADD16R,1.500000X1.500000*%
%TD*%
%TA.AperFunction,ComponentPad*%
%ADD17C,1.500000*%
%TD*%
%TA.AperFunction,ComponentPad*%
%ADD18C,2.300000*%
%TD*%
%TA.AperFunction,ComponentPad*%
%ADD19RoundRect,0.250000X-0.550000X-0.550000X0.550000X-0.550000X0.550000X0.550000X-0.550000X0.550000X0*%
%TD*%
%TA.AperFunction,ComponentPad*%
%ADD20C,1.600000*%
%TD*%
%TA.AperFunction,SMDPad,CuDef*%
%ADD21RoundRect,0.250000X-0.450000X0.262500X-0.450000X-0.262500X0.450000X-0.262500X0.450000X0.262500X0*%
%TD*%
%TA.AperFunction,SMDPad,CuDef*%
%ADD22RoundRect,0.250000X0.475000X-0.337500X0.475000X0.337500X-0.475000X0.337500X-0.475000X-0.337500X0*%
%TD*%
%TA.AperFunction,SMDPad,CuDef*%
%ADD23RoundRect,0.111250X0.873750X0.333750X-0.873750X0.333750X-0.873750X-0.333750X0.873750X-0.333750X0*%
%TD*%
%TA.AperFunction,SMDPad,CuDef*%
%ADD24RoundRect,0.246250X0.738750X1.348750X-0.738750X1.348750X-0.738750X-1.348750X0.738750X-1.348750X0*%
%TD*%
%TA.AperFunction,SMDPad,CuDef*%
%ADD25RoundRect,0.250000X0.262500X0.450000X-0.262500X0.450000X-0.262500X-0.450000X0.262500X-0.450000X0*%
%TD*%
%TA.AperFunction,SMDPad,CuDef*%
%ADD26RoundRect,0.250000X0.450000X-0.262500X0.450000X0.262500X-0.450000X0.262500X-0.450000X-0.262500X0*%
%TD*%
%TA.AperFunction,SMDPad,CuDef*%
%ADD27R,2.400000X1.400000*%
%TD*%
%TA.AperFunction,SMDPad,CuDef*%
%ADD28R,5.750000X5.900000*%
%TD*%
%TA.AperFunction,SMDPad,CuDef*%
%ADD29R,0.800000X0.400000*%
%TD*%
%TA.AperFunction,SMDPad,CuDef*%
%ADD30R,0.400000X0.800000*%
%TD*%
%TA.AperFunction,HeatsinkPad*%
%ADD31R,1.200000X1.200000*%
%TD*%
%TA.AperFunction,HeatsinkPad*%
%ADD32Outline5P,-0.600000X0.600000X0.600000X0.600000X0.600000X-0.600000X-0.204000X-0.600000X-0.600000X-0.204000X0.000000*%
%TD*%
%TA.AperFunction,SMDPad,CuDef*%
%ADD33R,0.800000X0.800000*%
%TD*%
%TA.AperFunction,SMDPad,CuDef*%
%ADD34RoundRect,0.250000X-0.475000X0.250000X-0.475000X-0.250000X0.475000X-0.250000X0.475000X0.250000X0*%
%TD*%
%TA.AperFunction,SMDPad,CuDef*%
%ADD35RoundRect,0.075000X0.910000X0.225000X-0.910000X0.225000X-0.910000X-0.225000X0.910000X-0.225000X0*%
%TD*%
%TA.AperFunction,SMDPad,CuDef*%
%ADD36RoundRect,0.250000X-0.262500X-0.450000X0.262500X-0.450000X0.262500X0.450000X-0.262500X0.450000X0*%
%TD*%
%TA.AperFunction,ViaPad*%
%ADD37C,1.000000*%
%TD*%
%TA.AperFunction,ViaPad*%
%ADD38C,0.600000*%
%TD*%
%TA.AperFunction,ViaPad*%
%ADD39C,0.800000*%
%TD*%
%TA.AperFunction,Conductor*%
%ADD40C,0.200000*%
%TD*%
%TA.AperFunction,Conductor*%
%ADD41C,0.400000*%
%TD*%
G04 APERTURE END LIST*
D10*
%TO.P,REF\u002A\u002A,*%
%TO.N,GND*%
X150620000Y-84080000D03*
%TD*%
%TO.P,,*%
%TO.N,GND*%
X90620000Y-14080000D03*
%TD*%
%TO.P,,*%
%TO.N,GND*%
X90620000Y-84080000D03*
%TD*%
D11*
%TO.P,J2,1,VCC*%
%TO.N,+3V3*%
X92250000Y-23980000D03*
D12*
%TO.P,J2,2,GND*%
%TO.N,GND*%
X92250000Y-26520000D03*
%TO.P,J2,3,SCK*%
%TO.N,Net-(J2-SCK)*%
X92250000Y-29060000D03*
%TO.P,J2,4,SDK*%
%TO.N,Net-(J2-SDK)*%
X92250000Y-31600000D03*
%TD*%
D13*
%TO.P,J5,1,VCC*%
%TO.N,+3V3*%
X149520000Y-34050000D03*
D12*
%TO.P,J5,2,GND*%
%TO.N,GND*%
X149520000Y-31510000D03*
%TO.P,J5,3,SCK*%
%TO.N,Net-(J5-SCK)*%
X149520000Y-28970000D03*
%TO.P,J5,4,SDK*%
%TO.N,Net-(J5-SDK)*%
X149520000Y-26430000D03*
%TD*%
D13*
%TO.P,J4,1,scs*%
%TO.N,Net-(J4-scs)*%
X149520000Y-69050000D03*
D12*
%TO.P,J4,2,sdi*%
%TO.N,Net-(J4-sdi)*%
X149520000Y-66510000D03*
%TO.P,J4,3,sdo*%
%TO.N,Net-(J4-sdo)*%
X149520000Y-63970000D03*
%TO.P,J4,4,clk*%
%TO.N,Net-(J4-clk)*%
X149520000Y-61430000D03*
%TD*%
D14*
%TO.P,J1,1,Pin_1*%
%TO.N,GND*%
X98980000Y-82210000D03*
D15*
%TO.P,J1,2,Pin_2*%
%TO.N,/Power/+5VDC*%
X100980000Y-82210000D03*
%TD*%
D16*
%TO.P,RJ_CAN1,1*%
%TO.N,Net-(CAN1-CANH)*%
X95612500Y-56446000D03*
D17*
%TO.P,RJ_CAN1,2*%
%TO.N,Net-(CAN1-CANL)*%
X97392500Y-55430000D03*
%TO.P,RJ_CAN1,3*%
%TO.N,unconnected-(RJ_CAN1-Pad3)*%
X95612500Y-54414000D03*
%TO.P,RJ_CAN1,4*%
%TO.N,GND*%
X97392500Y-53398000D03*
%TO.P,RJ_CAN1,5*%
X95612500Y-52382000D03*
%TO.P,RJ_CAN1,6*%
%TO.N,unconnected-(RJ_CAN1-Pad6)*%
X97392500Y-51366000D03*
%TO.P,RJ_CAN1,7*%
%TO.N,unconnected-(RJ_CAN1-Pad7)*%
X95612500Y-50350000D03*
%TO.P,RJ_CAN1,8*%
%TO.N,unconnected-(RJ_CAN1-Pad8)*%
X97392500Y-49334000D03*
D18*
%TO.P,RJ_CAN1,SH,SH*%
%TO.N,GND*%
X96502500Y-61016000D03*
X96502500Y-44756000D03*
%TD*%
D19*
%TO.P,SW1,1*%
%TO.N,Net-(R11-Pad2)*%
X94685000Y-39642500D03*
D20*
%TO.P,SW1,2*%
%TO.N,Net-(CAN1-CANH)*%
X102305000Y-39642500D03*
%TD*%
D13*
%TO.P,J3,1,vdd*%
%TO.N,+3V3*%
X149520000Y-56630000D03*
D12*
%TO.P,J3,2,gnd*%
%TO.N,GND*%
X149520000Y-54090000D03*
%TO.P,J3,3,cs*%
%TO.N,Net-(J3-cs)*%
X149520000Y-51550000D03*
%TO.P,J3,4,rst*%
%TO.N,Net-(J3-rst)*%
X149520000Y-49010000D03*
%TO.P,J3,5,d/c*%
%TO.N,Net-(J3-d{slash}c)*%
X149520000Y-46470000D03*
%TO.P,J3,6,sdi*%
%TO.N,Net-(J3-sdi)*%
X149520000Y-43930000D03*
%TO.P,J3,7,sck*%
%TO.N,Net-(J3-sck)*%
X149520000Y-41390000D03*
%TO.P,J3,8,bl*%
%TO.N,Net-(J3-bl)*%
X149520000Y-38850000D03*
%TD*%
D21*
%TO.P,R7,1*%
%TO.N,+5V*%
X117960000Y-77067500D03*
%TO.P,R7,2*%
%TO.N,Net-(D4-A)*%
X117960000Y-78892500D03*
%TD*%
D22*
%TO.P,C6,1*%
%TO.N,+3V3*%
X114230000Y-60240000D03*
%TO.P,C6,2*%
%TO.N,GND*%
X114230000Y-58165000D03*
%TD*%
D23*
%TO.P,U4,1,VIN*%
%TO.N,+5V*%
X108340000Y-63810000D03*
%TO.P,U4,2,GND*%
%TO.N,GND*%
X108340000Y-66110000D03*
%TO.P,U4,3,VOUT*%
%TO.N,+3V3*%
X108340000Y-68410000D03*
D24*
%TO.P,U4,4,GND*%
%TO.N,GND*%
X102290000Y-66110000D03*
%TD*%
D25*
%TO.P,R16,1*%
%TO.N,Net-(J3-sck)*%
X133580000Y-34600000D03*
%TO.P,R16,2*%
%TO.N,Net-(U1-IO12)*%
X131755000Y-34600000D03*
%TD*%
%TO.P,R8,1*%
%TO.N,+3V3*%
X93012500Y-38500000D03*
%TO.P,R8,2*%
%TO.N,Net-(D5-A)*%
X91187500Y-38500000D03*
%TD*%
D22*
%TO.P,C7,1*%
%TO.N,+3V3*%
X117240000Y-60240000D03*
%TO.P,C7,2*%
%TO.N,GND*%
X117240000Y-58165000D03*
%TD*%
D26*
%TO.P,R6,1*%
%TO.N,Net-(D3-A)*%
X114840000Y-78892500D03*
%TO.P,R6,2*%
%TO.N,+3V3*%
X114840000Y-77067500D03*
%TD*%
D27*
%TO.P,Q1,1,K*%
%TO.N,GND*%
X146522500Y-72955000D03*
D28*
%TO.P,Q1,2,A*%
%TO.N,+5V*%
X139997500Y-75240000D03*
D27*
%TO.P,Q1,3,G*%
%TO.N,Net-(Q1-G)*%
X146522500Y-77525000D03*
%TD*%
D29*
%TO.P,U1,1,GND*%
%TO.N,GND*%
X113840000Y-51300000D03*
%TO.P,U1,2,GND*%
X113840000Y-50450000D03*
%TO.P,U1,3,3V3*%
%TO.N,+3V3*%
X113840000Y-49600000D03*
%TO.P,U1,4,IO0*%
%TO.N,io0*%
X113840000Y-48750000D03*
%TO.P,U1,5,IO1*%
%TO.N,unconnected-(U1-IO1-Pad5)*%
X113840000Y-47900000D03*
%TO.P,U1,6,IO2*%
%TO.N,unconnected-(U1-IO2-Pad6)*%
X113840000Y-47050000D03*
%TO.P,U1,7,IO3*%
%TO.N,unconnected-(U1-IO3-Pad7)*%
X113840000Y-46200000D03*
%TO.P,U1,8,IO4*%
%TO.N,Net-(J3-bl)*%
X113840000Y-45350000D03*
%TO.P,U1,9,IO5*%
%TO.N,unconnected-(U1-IO5-Pad9)*%
X113840000Y-44500000D03*
%TO.P,U1,10,IO6*%
%TO.N,unconnected-(U1-IO6-Pad10)*%
X113840000Y-43650000D03*
%TO.P,U1,11,IO7*%
%TO.N,Net-(U1-IO7)*%
X113840000Y-42800000D03*
%TO.P,U1,12,IO8*%
%TO.N,Net-(U1-IO8)*%
X113840000Y-41950000D03*
%TO.P,U1,13,IO9*%
%TO.N,unconnected-(U1-IO9-Pad13)*%
X113840000Y-41100000D03*
%TO.P,U1,14,IO10*%
%TO.N,Net-(J3-cs)*%
X113840000Y-40250000D03*
%TO.P,U1,15,IO11*%
%TO.N,Net-(J3-sdi)*%
X113840000Y-39400000D03*
D30*
%TO.P,U1,16,IO12*%
%TO.N,Net-(U1-IO12)*%
X114890000Y-38350000D03*
%TO.P,U1,17,IO13*%
%TO.N,unconnected-(U1-IO13-Pad17)*%
X115740000Y-38350000D03*
%TO.P,U1,18,IO14*%
%TO.N,Net-(U1-IO14)*%
X116590000Y-38350000D03*
%TO.P,U1,19,IO15*%
%TO.N,Net-(U1-IO15)*%
X117440000Y-38350000D03*
%TO.P,U1,20,IO16*%
%TO.N,Net-(J5-SDK)*%
X118290000Y-38350000D03*
%TO.P,U1,21,IO17*%
%TO.N,/CAN/TX*%
X119140000Y-38350000D03*
%TO.P,U1,22,IO18*%
%TO.N,/CAN/RX*%
X119990000Y-38350000D03*
%TO.P,U1,23,USB_D-*%
%TO.N,unconnected-(U1-USB_D--Pad23)*%
X120840000Y-38350000D03*
%TO.P,U1,24,USB_D+*%
%TO.N,unconnected-(U1-USB_D+-Pad24)*%
X121690000Y-38350000D03*
%TO.P,U1,25,IO21*%
%TO.N,Net-(J3-rst)*%
X122540000Y-38350000D03*
%TO.P,U1,26,IO26*%
%TO.N,unconnected-(U1-IO26-Pad26)*%
X123390000Y-38350000D03*
%TO.P,U1,27,IO47*%
%TO.N,unconnected-(U1-IO47-Pad27)*%
X124240000Y-38350000D03*
%TO.P,U1,28,IO33*%
%TO.N,unconnected-(U1-IO33-Pad28)*%
X125090000Y-38350000D03*
%TO.P,U1,29,IO34*%
%TO.N,Net-(J4-scs)*%
X125940000Y-38350000D03*
%TO.P,U1,30,IO48*%
%TO.N,unconnected-(U1-IO48-Pad30)*%
X126790000Y-38350000D03*
D29*
%TO.P,U1,31,IO35*%
%TO.N,Net-(J4-sdi)*%
X127840000Y-39400000D03*
%TO.P,U1,32,IO36*%
%TO.N,Net-(J4-clk)*%
X127840000Y-40250000D03*
%TO.P,U1,33,IO37*%
%TO.N,Net-(J4-sdo)*%
X127840000Y-41100000D03*
%TO.P,U1,34,IO38*%
%TO.N,unconnected-(U1-IO38-Pad34)*%
X127840000Y-41950000D03*
%TO.P,U1,35,IO39*%
%TO.N,unconnected-(U1-IO39-Pad35)*%
X127840000Y-42800000D03*
%TO.P,U1,36,IO40*%
%TO.N,unconnected-(U1-IO40-Pad36)*%
X127840000Y-43650000D03*
%TO.P,U1,37,IO41*%
%TO.N,unconnected-(U1-IO41-Pad37)*%
X127840000Y-44500000D03*
%TO.P,U1,38,IO42*%
%TO.N,unconnected-(U1-IO42-Pad38)*%
X127840000Y-45350000D03*
%TO.P,U1,39,TXD0*%
%TO.N,txd0*%
X127840000Y-46200000D03*
%TO.P,U1,40,RXD0*%
%TO.N,rxd0*%
X127840000Y-47050000D03*
%TO.P,U1,41,IO45*%
%TO.N,unconnected-(U1-IO45-Pad41)*%
X127840000Y-47900000D03*
%TO.P,U1,42,GND*%
%TO.N,GND*%
X127840000Y-48750000D03*
%TO.P,U1,43,GND*%
X127840000Y-49600000D03*
%TO.P,U1,44,IO46*%
%TO.N,unconnected-(U1-IO46-Pad44)*%
X127840000Y-50450000D03*
%TO.P,U1,45,EN*%
%TO.N,en*%
X127840000Y-51300000D03*
D30*
%TO.P,U1,46,GND*%
%TO.N,GND*%
X126790000Y-52350000D03*
%TO.P,U1,47,GND*%
X125940000Y-52350000D03*
%TO.P,U1,48,GND*%
X125090000Y-52350000D03*
%TO.P,U1,49,GND*%
X124240000Y-52350000D03*
%TO.P,U1,50,GND*%
X123390000Y-52350000D03*
%TO.P,U1,51,GND*%
X122540000Y-52350000D03*
%TO.P,U1,52,GND*%
X121690000Y-52350000D03*
%TO.P,U1,53,GND*%
X120840000Y-52350000D03*
%TO.P,U1,54,GND*%
X119990000Y-52350000D03*
%TO.P,U1,55,GND*%
X119140000Y-52350000D03*
%TO.P,U1,56,GND*%
X118290000Y-52350000D03*
%TO.P,U1,57,GND*%
X117440000Y-52350000D03*
%TO.P,U1,58,GND*%
X116590000Y-52350000D03*
%TO.P,U1,59,GND*%
X115740000Y-52350000D03*
%TO.P,U1,60,GND*%
X114890000Y-52350000D03*
D31*
%TO.P,U1,61,GND*%
X119190000Y-43700000D03*
X119190000Y-45350000D03*
D32*
X119190000Y-47000000D03*
D31*
X120840000Y-43700000D03*
X120840000Y-45350000D03*
X120840000Y-47000000D03*
X122490000Y-43700000D03*
X122490000Y-45350000D03*
X122490000Y-47000000D03*
D33*
%TO.P,U1,62,GND*%
X113840000Y-52350000D03*
%TO.P,U1,63,GND*%
X113840000Y-38350000D03*
%TO.P,U1,64,GND*%
X127840000Y-38350000D03*
%TO.P,U1,65,GND*%
X127840000Y-52350000D03*
%TD*%
D25*
%TO.P,R13,1*%
%TO.N,Net-(J2-SDK)*%
X102512500Y-34160000D03*
%TO.P,R13,2*%
%TO.N,Net-(U1-IO8)*%
X100687500Y-34160000D03*
%TD*%
D34*
%TO.P,C15,1*%
%TO.N,en*%
X131760000Y-51480000D03*
%TO.P,C15,2*%
%TO.N,GND*%
X131760000Y-53380000D03*
%TD*%
D26*
%TO.P,R15,1*%
%TO.N,io0*%
X110320000Y-83990000D03*
%TO.P,R15,2*%
%TO.N,+3V3*%
X110320000Y-82165000D03*
%TD*%
D22*
%TO.P,C8,1*%
%TO.N,+3V3*%
X120250000Y-60240000D03*
%TO.P,C8,2*%
%TO.N,GND*%
X120250000Y-58165000D03*
%TD*%
D25*
%TO.P,R12,1*%
%TO.N,Net-(J2-SCK)*%
X102512500Y-31210000D03*
%TO.P,R12,2*%
%TO.N,Net-(U1-IO7)*%
X100687500Y-31210000D03*
%TD*%
D22*
%TO.P,C10,1*%
%TO.N,+3V3*%
X126270000Y-60240000D03*
%TO.P,C10,2*%
%TO.N,GND*%
X126270000Y-58165000D03*
%TD*%
D35*
%TO.P,CAN1,1,D*%
%TO.N,/CAN/TX*%
X111715000Y-26525000D03*
%TO.P,CAN1,2,GND*%
%TO.N,GND*%
X111715000Y-27795000D03*
%TO.P,CAN1,3,VCC*%
%TO.N,+3V3*%
X111715000Y-29065000D03*
%TO.P,CAN1,4,R*%
%TO.N,/CAN/RX*%
X111715000Y-30335000D03*
%TO.P,CAN1,5,Vref*%
%TO.N,unconnected-(CAN1-Vref-Pad5)*%
X106775000Y-30335000D03*
%TO.P,CAN1,6,CANL*%
%TO.N,Net-(CAN1-CANL)*%
X106775000Y-29065000D03*
%TO.P,CAN1,7,CANH*%
%TO.N,Net-(CAN1-CANH)*%
X106775000Y-27795000D03*
%TO.P,CAN1,8,RS*%
%TO.N,Net-(CAN1-RS)*%
X106775000Y-26525000D03*
%TD*%
D25*
%TO.P,R9,1*%
%TO.N,+3V3*%
X93012500Y-41450000D03*
%TO.P,R9,2*%
%TO.N,Net-(D6-A)*%
X91187500Y-41450000D03*
%TD*%
D22*
%TO.P,C9,1*%
%TO.N,+3V3*%
X123260000Y-60240000D03*
%TO.P,C9,2*%
%TO.N,GND*%
X123260000Y-58165000D03*
%TD*%
D36*
%TO.P,R10,1*%
%TO.N,Net-(CAN1-RS)*%
X106567500Y-21610000D03*
%TO.P,R10,2*%
%TO.N,GND*%
X108392500Y-21610000D03*
%TD*%
D25*
%TO.P,R18,1*%
%TO.N,Net-(J3-d{slash}c)*%
X102575000Y-58980000D03*
%TO.P,R18,2*%
%TO.N,Net-(U1-IO14)*%
X100750000Y-58980000D03*
%TD*%
D26*
%TO.P,R14,1*%
%TO.N,+3V3*%
X107370000Y-83990000D03*
%TO.P,R14,2*%
%TO.N,en*%
X107370000Y-82165000D03*
%TD*%
D10*
%TO.P,,*%
%TO.N,GND*%
X150620000Y-14080000D03*
%TD*%
D37*
%TO.N,GND*%
X120082500Y-46180000D03*
X121667500Y-46180000D03*
X121667500Y-44500000D03*
X120082500Y-44500000D03*
D38*
%TO.N,io0*%
X111800000Y-61790000D03*
%TO.N,Net-(J4-clk)*%
X131380000Y-40160000D03*
%TO.N,Net-(J4-sdo)*%
X132240000Y-40850000D03*
%TO.N,Net-(CAN1-CANL)*%
X94607500Y-18570000D03*
%TO.N,/CAN/RX*%
X111670000Y-30320000D03*
X119990000Y-33620000D03*
%TO.N,en*%
X107370000Y-82165000D03*
X133000000Y-47500000D03*
%TO.N,GND*%
X120875000Y-45350000D03*
X119290000Y-45350000D03*
X105700000Y-68320000D03*
X120875000Y-43660000D03*
X122460000Y-46990000D03*
X119290000Y-46990000D03*
X122460000Y-43660000D03*
X122460000Y-45350000D03*
D39*
X121000000Y-69870000D03*
D38*
X119290000Y-43660000D03*
X120875000Y-46990000D03*
%TO.N,Net-(CAN1-CANH)*%
X99205000Y-18895000D03*
%TO.N,io0*%
X130880002Y-81294999D03*
X109200000Y-48810000D03*
X110320000Y-83990000D03*
%TO.N,+3V3*%
X109200000Y-50280000D03*
X116532500Y-29150000D03*
X110688632Y-61668582D03*
%TO.N,+5V*%
X129830000Y-67780000D03*
X108340000Y-63810000D03*
X117960000Y-77067500D03*
%TO.N,Net-(D3-A)*%
X114860000Y-82180000D03*
X114840000Y-78892500D03*
%TO.N,txd0*%
X131810000Y-47500000D03*
%TO.N,Net-(D4-A)*%
X117900000Y-82137500D03*
%TO.N,Net-(D6-A)*%
X91167500Y-41420000D03*
%TO.N,Net-(Q1-G)*%
X122080000Y-68570000D03*
%TO.N,rxd0*%
X131810000Y-48870564D03*
%TO.N,Net-(J4-scs)*%
X125220000Y-35560000D03*
%TO.N,Net-(J5-SDK)*%
X118106000Y-33620000D03*
%TO.N,Net-(J3-cs)*%
X109140000Y-40290000D03*
%TO.N,Net-(J3-sdi)*%
X109125380Y-39385380D03*
%TO.N,Net-(J4-sdi)*%
X130520000Y-39470000D03*
%TO.N,Net-(U1-IO7)*%
X109150000Y-42760000D03*
X100690000Y-31110000D03*
%TO.N,Net-(U1-IO8)*%
X109130000Y-41930000D03*
X100690000Y-34040000D03*
%TO.N,Net-(U1-IO12)*%
X115280000Y-33620000D03*
X131614999Y-34459999D03*
%TO.N,Net-(U1-IO15)*%
X117164000Y-33620000D03*
%TO.N,Net-(U1-IO14)*%
X116222000Y-33620000D03*
X106220000Y-37640000D03*
%TO.N,Net-(D5-A)*%
X91167500Y-38380000D03*
%TO.N,/CAN/TX*%
X119048000Y-33620000D03*
X108959412Y-28549412D03*
X89292500Y-38380000D03*
%TO.N,GND*%
X113299620Y-34749620D03*
%TD*%
D40*
%TO.N,Net-(J2-SDK)*%
X101699000Y-27358557D02*
X101699000Y-31895160D01*
X96350442Y-22010000D02*
X101699000Y-27358557D01*
X90737100Y-22010000D02*
X96350442Y-22010000D01*
X89940000Y-22807100D02*
X90737100Y-22010000D01*
X90893900Y-27803900D02*
X89940000Y-26850000D01*
X89940000Y-26850000D02*
X89940000Y-22807100D01*
X93353900Y-27803900D02*
X90893900Y-27803900D01*
X94010000Y-28460000D02*
X93353900Y-27803900D01*
X94010000Y-30210000D02*
X94010000Y-28460000D01*
X101699000Y-31895160D02*
X102512500Y-32708660D01*
X92620000Y-31600000D02*
X94010000Y-30210000D01*
X92250000Y-31600000D02*
X92620000Y-31600000D01*
X102512500Y-32708660D02*
X102512500Y-34160000D01*
%TO.N,Net-(J2-SCK)*%
X96516128Y-21610000D02*
X102512500Y-27606371D01*
X90570000Y-21610000D02*
X96516128Y-21610000D01*
X89540000Y-28060000D02*
X89540000Y-22640000D01*
X89540000Y-22640000D02*
X90570000Y-21610000D01*
X102512500Y-27606371D02*
X102512500Y-31210000D01*
X90540000Y-29060000D02*
X89540000Y-28060000D01*
X92250000Y-29060000D02*
X90540000Y-29060000D01*
%TO.N,/CAN/TX*%
X111415000Y-26825000D02*
X111715000Y-26525000D01*
X110683824Y-26825000D02*
X111415000Y-26825000D01*
X90402900Y-21210000D02*
X96681814Y-21210000D01*
X88806202Y-37893702D02*
X88806202Y-22806698D01*
X96681814Y-21210000D02*
X105205814Y-29734000D01*
X88806202Y-22806698D02*
X90402900Y-21210000D01*
X89292500Y-38380000D02*
X88806202Y-37893702D01*
X105205814Y-29734000D02*
X107774824Y-29734000D01*
X107774824Y-29734000D02*
X110683824Y-26825000D01*
D41*
%TO.N,+3V3*%
X112117214Y-60240000D02*
X110688632Y-61668582D01*
X126270000Y-60240000D02*
X112117214Y-60240000D01*
X108340000Y-68410000D02*
X110688632Y-66061368D01*
X110688632Y-66061368D02*
X110688632Y-61668582D01*
D40*
%TO.N,Net-(U1-IO14)*%
X100310000Y-43550000D02*
X106220000Y-37640000D01*
X100310000Y-58540000D02*
X100310000Y-43550000D01*
X100750000Y-58980000D02*
X100310000Y-58540000D01*
D41*
%TO.N,+3V3*%
X107060000Y-69690000D02*
X108340000Y-68410000D01*
X102108629Y-69690000D02*
X107060000Y-69690000D01*
X99690000Y-67271371D02*
X102108629Y-69690000D01*
X99674000Y-33391998D02*
X99674000Y-34928002D01*
X99690000Y-33375998D02*
X99674000Y-33391998D01*
X99690000Y-31994002D02*
X99690000Y-33375998D01*
X99674000Y-34928002D02*
X99690000Y-34944002D01*
X99674000Y-31978002D02*
X99690000Y-31994002D01*
X99674000Y-31404000D02*
X99674000Y-31978002D01*
X98690000Y-30420000D02*
X99674000Y-31404000D01*
X99690000Y-34944002D02*
X99690000Y-67271371D01*
D40*
%TO.N,Net-(J3-bl)*%
X108020000Y-42960000D02*
X110410000Y-45350000D01*
X108020000Y-38360000D02*
X108020000Y-42960000D01*
X141590000Y-32100000D02*
X114280000Y-32100000D01*
X114280000Y-32100000D02*
X108020000Y-38360000D01*
X148380000Y-38890000D02*
X141590000Y-32100000D01*
X110410000Y-45350000D02*
X113840000Y-45350000D01*
X149520000Y-38890000D02*
X148380000Y-38890000D01*
%TO.N,en*%
X133000000Y-50240000D02*
X133000000Y-47440000D01*
X131760000Y-51480000D02*
X133000000Y-50240000D01*
D41*
%TO.N,+3V3*%
X143670000Y-29150000D02*
X116532500Y-29150000D01*
X153560000Y-53725000D02*
X153560000Y-36625000D01*
X150985000Y-34050000D02*
X148570000Y-34050000D01*
X150615000Y-56670000D02*
X153560000Y-53725000D01*
X153560000Y-36625000D02*
X150985000Y-34050000D01*
X144900000Y-60240000D02*
X148470000Y-56670000D01*
X148470000Y-56670000D02*
X150615000Y-56670000D01*
X126270000Y-60240000D02*
X144900000Y-60240000D01*
X148570000Y-34050000D02*
X143670000Y-29150000D01*
D40*
%TO.N,Net-(CAN1-CANH)*%
X99205000Y-22565000D02*
X99205000Y-18895000D01*
X104435000Y-27795000D02*
X99205000Y-22565000D01*
X106775000Y-27795000D02*
X104435000Y-27795000D01*
%TO.N,Net-(J4-scs)*%
X125940000Y-36280000D02*
X125220000Y-35560000D01*
X125940000Y-38350000D02*
X125940000Y-36280000D01*
%TO.N,Net-(CAN1-CANL)*%
X105102500Y-29065000D02*
X94607500Y-18570000D01*
X106775000Y-29065000D02*
X105102500Y-29065000D01*
%TO.N,/CAN/RX*%
X119990000Y-33620000D02*
X119990000Y-38350000D01*
%TO.N,en*%
X127840000Y-51300000D02*
X132131708Y-51300000D01*
%TO.N,Net-(CAN1-CANH)*%
X105844000Y-27755824D02*
X106062176Y-27974000D01*
%TO.N,io0*%
X109260000Y-48750000D02*
X113840000Y-48750000D01*
X109200000Y-48810000D02*
X109260000Y-48750000D01*
D41*
%TO.N,+3V3*%
X109880000Y-49600000D02*
X109200000Y-50280000D01*
X108495000Y-83990000D02*
X110320000Y-82165000D01*
X93012500Y-38500000D02*
X93012500Y-41450000D01*
X94000000Y-23980000D02*
X98690000Y-28670000D01*
X111800000Y-29150000D02*
X111715000Y-29065000D01*
X107370000Y-83990000D02*
X108495000Y-83990000D01*
X110340000Y-78800000D02*
X110340000Y-77830000D01*
X110340000Y-77830000D02*
X110340000Y-70410000D01*
X116532500Y-29150000D02*
X111800000Y-29150000D01*
X114840000Y-77067500D02*
X112072500Y-77067500D01*
X112072500Y-77067500D02*
X110340000Y-78800000D01*
X110340000Y-70410000D02*
X108340000Y-68410000D01*
X93012500Y-36097500D02*
X93012500Y-38500000D01*
X113840000Y-49600000D02*
X109880000Y-49600000D01*
X98690000Y-30420000D02*
X93012500Y-36097500D01*
X110340000Y-82180000D02*
X110340000Y-77830000D01*
X92250000Y-23980000D02*
X94000000Y-23980000D01*
X98690000Y-28670000D02*
X98690000Y-30420000D01*
D40*
%TO.N,Net-(CAN1-RS)*%
X106775000Y-26525000D02*
X106775000Y-21817500D01*
X106650000Y-26235000D02*
X106775000Y-26235000D01*
X106650000Y-26400000D02*
X106775000Y-26525000D01*
X106775000Y-21817500D02*
X106567500Y-21610000D01*
D41*
%TO.N,+5V*%
X137290000Y-75240000D02*
X129830000Y-67780000D01*
X117960000Y-76990000D02*
X117960000Y-77067500D01*
X117960000Y-76990000D02*
X117940000Y-76970000D01*
X139997500Y-75240000D02*
X137290000Y-75240000D01*
D40*
%TO.N,Net-(D3-A)*%
X114840000Y-78892500D02*
X114840000Y-82160000D01*
X114840000Y-82160000D02*
X114860000Y-82180000D01*
%TO.N,txd0*%
X130510000Y-46200000D02*
X127840000Y-46200000D01*
X131810000Y-47500000D02*
X130510000Y-46200000D01*
%TO.N,Net-(D4-A)*%
X117960000Y-78892500D02*
X117960000Y-82077500D01*
X117960000Y-82077500D02*
X117900000Y-82137500D01*
%TO.N,Net-(D6-A)*%
X91035000Y-41287500D02*
X91167500Y-41420000D01*
%TO.N,Net-(Q1-G)*%
X132230000Y-81720000D02*
X142327500Y-81720000D01*
X142327500Y-81720000D02*
X146522500Y-77525000D01*
X122080000Y-68570000D02*
X122080000Y-71570000D01*
X122080000Y-71570000D02*
X132230000Y-81720000D01*
%TO.N,rxd0*%
X130050761Y-47050000D02*
X131871325Y-48870564D01*
X127840000Y-47050000D02*
X130050761Y-47050000D01*
%TO.N,Net-(J3-d{slash}c)*%
X102575000Y-58280000D02*
X102575000Y-58980000D01*
X149520000Y-46510000D02*
X148900000Y-45890000D01*
X145855685Y-45890000D02*
X135565685Y-56180000D01*
X104675000Y-56180000D02*
X102575000Y-58280000D01*
X135565685Y-56180000D02*
X104675000Y-56180000D01*
X148900000Y-45890000D02*
X145855685Y-45890000D01*
%TO.N,Net-(J4-clk)*%
X131240000Y-40240000D02*
X131230000Y-40250000D01*
X131230000Y-40250000D02*
X127840000Y-40250000D01*
%TO.N,Net-(J5-SDK)*%
X118290000Y-33640000D02*
X118270000Y-33620000D01*
X118110000Y-33624000D02*
X118110000Y-34540000D01*
X118106000Y-33620000D02*
X118110000Y-33624000D01*
X118110000Y-34540000D02*
X118260000Y-34690000D01*
X118260000Y-34690000D02*
X118260000Y-38320000D01*
X118330000Y-38310000D02*
X118290000Y-38350000D01*
X118260000Y-38320000D02*
X118290000Y-38350000D01*
%TO.N,Net-(J3-cs)*%
X109140000Y-40290000D02*
X109180000Y-40250000D01*
X109180000Y-40250000D02*
X113840000Y-40250000D01*
%TO.N,Net-(J3-sck)*%
X142730000Y-34600000D02*
X149520000Y-41390000D01*
X133580000Y-34600000D02*
X142730000Y-34600000D01*
X149520000Y-41430000D02*
X149520000Y-41660000D01*
%TO.N,Net-(J3-sdi)*%
X113840000Y-39400000D02*
X109140000Y-39400000D01*
X109140000Y-39400000D02*
X109125380Y-39385380D01*
%TO.N,Net-(J4-sdi)*%
X130450000Y-39400000D02*
X130520000Y-39470000D01*
X127840000Y-39400000D02*
X130450000Y-39400000D01*
%TO.N,Net-(J3-rst)*%
X148771000Y-40061000D02*
X150391000Y-40061000D01*
X122540000Y-38350000D02*
X122540000Y-36660000D01*
X150391000Y-40061000D02*
X151280000Y-40950000D01*
X122540000Y-36660000D02*
X126430000Y-32770000D01*
X141480000Y-32770000D02*
X148771000Y-40061000D01*
X151280000Y-40950000D02*
X151280000Y-47290000D01*
X151280000Y-47290000D02*
X149520000Y-49050000D01*
X126430000Y-32770000D02*
X141480000Y-32770000D01*
%TO.N,Net-(U1-IO7)*%
X109190000Y-42800000D02*
X113840000Y-42800000D01*
X100687500Y-31210000D02*
X100640000Y-31210000D01*
X100640000Y-31210000D02*
X100540000Y-31110000D01*
X109150000Y-42760000D02*
X109190000Y-42800000D01*
%TO.N,Net-(U1-IO8)*%
X100687500Y-34160000D02*
X100687500Y-34042500D01*
X109460000Y-41930000D02*
X109480000Y-41950000D01*
X109130000Y-41930000D02*
X109460000Y-41930000D01*
X109480000Y-41950000D02*
X113840000Y-41950000D01*
X100687500Y-34042500D02*
X100690000Y-34040000D01*
%TO.N,Net-(U1-IO12)*%
X115280000Y-34520000D02*
X114890000Y-34910000D01*
X115280000Y-33620000D02*
X115280000Y-34520000D01*
X114890000Y-34910000D02*
X114890000Y-38350000D01*
%TO.N,Net-(U1-IO15)*%
X117430000Y-34760000D02*
X117430000Y-38340000D01*
X117170000Y-33626000D02*
X117170000Y-34500000D01*
X117164000Y-33620000D02*
X117170000Y-33626000D01*
X117170000Y-34500000D02*
X117430000Y-34760000D01*
X117430000Y-38340000D02*
X117440000Y-38350000D01*
%TO.N,Net-(U1-IO14)*%
X116240000Y-33638000D02*
X116240000Y-34530000D01*
X116600000Y-34890000D02*
X116600000Y-38340000D01*
X116222000Y-33620000D02*
X116240000Y-33638000D01*
X116240000Y-34530000D02*
X116600000Y-34890000D01*
X116600000Y-38340000D02*
X116590000Y-38350000D01*
%TO.N,Net-(D5-A)*%
X91187500Y-38400000D02*
X91167500Y-38380000D01*
X91187500Y-38500000D02*
X91187500Y-38400000D01*
%TO.N,/CAN/TX*%
X119140000Y-38350000D02*
X119140000Y-33741697D01*
X119140000Y-33741697D02*
X119140568Y-33741129D01*
X119140000Y-33741697D02*
X119140568Y-33741129D01*
%TO.N,io0*%
X111800000Y-62000000D02*
X111800000Y-61790000D01*
X130880002Y-81080002D02*
X111800000Y-62000000D01*
X130880002Y-81294999D02*
X130880002Y-81080002D01*
%TO.N,Net-(J4-sdo)*%
X132010000Y-41080000D02*
X132240000Y-40850000D01*
X127860000Y-41080000D02*
X132010000Y-41080000D01*
X127840000Y-41100000D02*
X127860000Y-41080000D01*
%TD*%
%TA.AperFunction,Conductor*%
%TO.N,GND*%
G36*
X148067539Y-46310185D02*
G01*
X148113294Y-46362989D01*
X148124500Y-46414500D01*
X148124500Y-46562119D01*
X148153322Y-46744094D01*
X148210253Y-46919313D01*
X148261292Y-47019481D01*
X148293899Y-47083475D01*
X148402193Y-47232529D01*
X148532471Y-47362807D01*
X148681525Y-47471101D01*
X148845684Y-47554745D01*
X148845686Y-47554746D01*
X148924064Y-47580212D01*
X149020907Y-47611678D01*
X149052441Y-47616672D01*
X149057835Y-47617527D01*
X149120970Y-47647456D01*
X149157901Y-47706768D01*
X149156903Y-47776630D01*
X149118293Y-47834863D01*
X149057835Y-47862473D01*
X149020905Y-47868322D01*
X148845686Y-47925253D01*
X148681524Y-48008899D01*
X148603611Y-48065507D01*
X148532471Y-48117193D01*
X148532469Y-48117195D01*
X148532468Y-48117195D01*
X148402195Y-48247468D01*
X148402195Y-48247469D01*
X148402193Y-48247471D01*
X148360354Y-48305057D01*
X148293899Y-48396524D01*
X148210253Y-48560686D01*
X148153322Y-48735905D01*
X148124500Y-48917880D01*
X148124500Y-49102119D01*
X148153322Y-49284094D01*
X148210253Y-49459313D01*
X148248320Y-49534023D01*
X148293899Y-49623475D01*
X148402193Y-49772529D01*
X148532471Y-49902807D01*
X148681525Y-50011101D01*
X148811319Y-50077235D01*
X148845686Y-50094746D01*
X148872118Y-50103334D01*
X149020907Y-50151678D01*
X149052441Y-50156672D01*
X149057835Y-50157527D01*
X149120970Y-50187456D01*
X149157901Y-50246768D01*
X149156903Y-50316630D01*
X149118293Y-50374863D01*
X149057835Y-50402473D01*
X149020905Y-50408322D01*
X148845686Y-50465253D01*
X148681524Y-50548899D01*
X148596484Y-50610684D01*
X148532471Y-50657193D01*
X148532469Y-50657195D01*
X148532468Y-50657195D01*
X148402195Y-50787468D01*
X148402195Y-50787469D01*
X148402193Y-50787471D01*
X148364339Y-50839573D01*
X148293899Y-50936524D01*
X148210253Y-51100686D01*
X148153322Y-51275905D01*
X148124500Y-51457880D01*
X148124500Y-51642119D01*
X148153322Y-51824094D01*
X148210253Y-51999313D01*
X148234466Y-52046832D01*
X148293899Y-52163475D01*
X148402193Y-52312529D01*
X148532471Y-52442807D01*
X148681525Y-52551101D01*
X148759071Y-52590613D01*
X148845686Y-52634746D01*
X148985935Y-52680315D01*
X149020907Y-52691678D01*
X149059431Y-52697779D01*
X149122563Y-52727707D01*
X149159495Y-52787018D01*
X149158499Y-52856881D01*
X149119890Y-52915114D01*
X149059432Y-52942725D01*
X149021021Y-52948809D01*
X148845871Y-53005719D01*
X148681785Y-53089326D01*
X148532794Y-53197576D01*
X148532793Y-53197576D01*
X148402576Y-53327793D01*
X148402576Y-53327794D01*
X148294326Y-53476785D01*
X148210717Y-53640875D01*
X148210716Y-53640878D01*
X148178510Y-53739999D01*
X148178511Y-53740000D01*
X149035027Y-53740000D01*
X148965548Y-53860339D01*
X148925000Y-54011667D01*
X148925000Y-54168333D01*
X148965548Y-54319661D01*
X149035027Y-54440000D01*
X148178511Y-54440000D01*
X148210716Y-54539121D01*
X148210717Y-54539124D01*
X148294326Y-54703214D01*
X148402576Y-54852205D01*
X148402576Y-54852206D01*
X148532793Y-54982423D01*
X148681785Y-55090673D01*
X148845871Y-55174280D01*
X148979100Y-55217569D01*
X149036775Y-55257007D01*
X149063973Y-55321366D01*
X149052058Y-55390212D01*
X149004814Y-55441688D01*
X148940781Y-55459500D01*
X148631898Y-55459500D01*
X148592853Y-55464188D01*
X148543438Y-55470122D01*
X148402656Y-55525639D01*
X148282077Y-55617077D01*
X148190639Y-55737656D01*
X148135122Y-55878438D01*
X148129220Y-55927596D01*
X148124500Y-55966898D01*
X148124500Y-55966903D01*
X148124500Y-56256324D01*
X148104815Y-56323363D01*
X148088181Y-56344005D01*
X144729005Y-59703181D01*
X144667682Y-59736666D01*
X144641324Y-59739500D01*
X127356874Y-59739500D01*
X127289835Y-59719815D01*
X127244080Y-59667011D01*
X127241519Y-59660989D01*
X127229361Y-59630158D01*
X127187404Y-59574829D01*
X127137922Y-59509577D01*
X127017343Y-59418139D01*
X126876561Y-59362622D01*
X126830926Y-59357142D01*
X126788102Y-59352000D01*
X125751898Y-59352000D01*
X125712853Y-59356688D01*
X125663438Y-59362622D01*
X125522656Y-59418139D01*
X125402077Y-59509577D01*
X125310639Y-59630157D01*
X125298481Y-59660989D01*
X125255576Y-59716133D01*
X125189668Y-59739327D01*
X125183126Y-59739500D01*
X124346874Y-59739500D01*
X124279835Y-59719815D01*
X124234080Y-59667011D01*
X124231519Y-59660989D01*
X124219361Y-59630158D01*
X124177404Y-59574829D01*
X124127922Y-59509577D01*
X124007343Y-59418139D01*
X123866561Y-59362622D01*
X123820926Y-59357142D01*
X123778102Y-59352000D01*
X122741898Y-59352000D01*
X122702853Y-59356688D01*
X122653438Y-59362622D01*
X122512656Y-59418139D01*
X122392077Y-59509577D01*
X122300639Y-59630157D01*
X122288481Y-59660989D01*
X122245576Y-59716133D01*
X122179668Y-59739327D01*
X122173126Y-59739500D01*
X121336874Y-59739500D01*
X121269835Y-59719815D01*
X121224080Y-59667011D01*
X121221519Y-59660989D01*
X121209361Y-59630158D01*
X121167404Y-59574829D01*
X121117922Y-59509577D01*
X120997343Y-59418139D01*
X120856561Y-59362622D01*
X120810926Y-59357142D01*
X120768102Y-59352000D01*
X119731898Y-59352000D01*
X119692853Y-59356688D01*
X119643438Y-59362622D01*
X119502656Y-59418139D01*
X119382077Y-59509577D01*
X119290639Y-59630157D01*
X119278481Y-59660989D01*
X119235576Y-59716133D01*
X119169668Y-59739327D01*
X119163126Y-59739500D01*
X118326874Y-59739500D01*
X118259835Y-59719815D01*
X118214080Y-59667011D01*
X118211519Y-59660989D01*
X118199361Y-59630158D01*
X118157404Y-59574829D01*
X118107922Y-59509577D01*
X117987343Y-59418139D01*
X117846561Y-59362622D01*
X117800926Y-59357142D01*
X117758102Y-59352000D01*
X116721898Y-59352000D01*
X116682853Y-59356688D01*
X116633438Y-59362622D01*
X116492656Y-59418139D01*
X116372077Y-59509577D01*
X116280639Y-59630157D01*
X116268481Y-59660989D01*
X116225576Y-59716133D01*
X116159668Y-59739327D01*
X116153126Y-59739500D01*
X115316874Y-59739500D01*
X115249835Y-59719815D01*
X115204080Y-59667011D01*
X115201519Y-59660989D01*
X115189361Y-59630158D01*
X115147404Y-59574829D01*
X115097922Y-59509577D01*
X114977343Y-59418139D01*
X114836561Y-59362622D01*
X114790926Y-59357142D01*
X114748102Y-59352000D01*
X113711898Y-59352000D01*
X113672853Y-59356688D01*
X113623438Y-59362622D01*
X113482656Y-59418139D01*
X113362077Y-59509577D01*
X113270639Y-59630157D01*
X113258481Y-59660989D01*
X113215576Y-59716133D01*
X113149668Y-59739327D01*
X113143126Y-59739500D01*
X112051322Y-59739500D01*
X111924026Y-59773608D01*
X111809900Y-59839500D01*
X111809897Y-59839502D01*
X110594469Y-61054929D01*
X110538884Y-61087022D01*
X110456850Y-61109004D01*
X110456841Y-61109008D01*
X110319922Y-61188057D01*
X110319914Y-61188063D01*
X110208113Y-61299864D01*
X110208107Y-61299872D01*
X110129058Y-61436791D01*
X110129055Y-61436798D01*
X110088132Y-61589525D01*
X110088132Y-61747639D01*
X110120667Y-61869059D01*
X110129055Y-61900365D01*
X110129056Y-61900368D01*
X110171519Y-61973916D01*
X110188132Y-62035916D01*
X110188132Y-65802692D01*
X110168447Y-65869731D01*
X110151813Y-65890373D01*
X109618505Y-66423681D01*
X109557182Y-66457166D01*
X109530824Y-66460000D01*
X108690000Y-66460000D01*
X108690000Y-66855000D01*
X108887824Y-66855000D01*
X108954863Y-66874685D01*
X109000618Y-66927489D01*
X109010562Y-66996647D01*
X108981537Y-67060203D01*
X108975505Y-67066681D01*
X108414005Y-67628181D01*
X108352682Y-67661666D01*
X108326324Y-67664500D01*
X107433842Y-67664500D01*
X107337429Y-67679769D01*
X107337428Y-67679769D01*
X107272701Y-67712750D01*
X107221212Y-67738985D01*
X107221211Y-67738986D01*
X107221206Y-67738989D01*
X107128989Y-67831206D01*
X107128986Y-67831211D01*
X107128985Y-67831212D01*
X107114798Y-67859056D01*
X107069769Y-67947428D01*
X107069769Y-67947429D01*
X107054500Y-68043841D01*
X107054500Y-68776158D01*
X107054499Y-68776158D01*
X107069769Y-68872570D01*
X107070773Y-68875658D01*
X107070886Y-68879620D01*
X107071297Y-68882214D01*
X107070961Y-68882267D01*
X107071208Y-68890871D01*
X107076527Y-68905132D01*
X107072186Y-68925086D01*
X107072770Y-68945499D01*
X107064681Y-68959585D01*
X107061676Y-68973405D01*
X107040524Y-69001660D01*
X106889003Y-69153182D01*
X106827683Y-69186666D01*
X106801324Y-69189500D01*
X102367305Y-69189500D01*
X102300266Y-69169815D01*
X102279624Y-69153181D01*
X101333534Y-68207091D01*
X101300049Y-68145768D01*
X101305033Y-68076076D01*
X101346905Y-68020143D01*
X101412369Y-67995726D01*
X101436001Y-67996295D01*
X101508483Y-68004999D01*
X101939999Y-68004999D01*
X102640000Y-68004999D01*
X103071510Y-68004999D01*
X103159296Y-67994458D01*
X103298992Y-67939369D01*
X103418639Y-67848639D01*
X103509369Y-67728992D01*
X103564458Y-67589297D01*
X103564458Y-67589296D01*
X103575000Y-67501517D01*
X103575000Y-66476114D01*
X107054999Y-66476114D01*
X107070251Y-66572412D01*
X107129396Y-66688491D01*
X107129399Y-66688495D01*
X107221504Y-66780600D01*
X107221508Y-66780603D01*
X107337587Y-66839748D01*
X107433885Y-66855000D01*
X107990000Y-66855000D01*
X107990000Y-66460000D01*
X107055000Y-66460000D01*
X107055000Y-66476114D01*
X107054999Y-66476114D01*
X103575000Y-66476114D01*
X103575000Y-66460000D01*
X102640000Y-66460000D01*
X102640000Y-68004999D01*
X101939999Y-68004999D01*
X101940000Y-68004998D01*
X101940000Y-66460000D01*
X101005001Y-66460000D01*
X101005001Y-67501510D01*
X101013705Y-67574002D01*
X101002153Y-67642910D01*
X100955180Y-67694633D01*
X100887700Y-67712750D01*
X100821137Y-67691509D01*
X100802908Y-67676465D01*
X100226819Y-67100376D01*
X100193334Y-67039053D01*
X100190500Y-67012695D01*
X100190500Y-64718482D01*
X101005000Y-64718482D01*
X101005000Y-65760000D01*
X101940000Y-65760000D01*
X102640000Y-65760000D01*
X103574999Y-65760000D01*
X103574999Y-65743885D01*
X107055000Y-65743885D01*
X107055000Y-65760000D01*
X107990000Y-65760000D01*
X108690000Y-65760000D01*
X109625000Y-65760000D01*
X109625000Y-65743885D01*
X109609748Y-65647587D01*
X109550603Y-65531508D01*
X109550600Y-65531504D01*
X109458495Y-65439399D01*
X109458491Y-65439396D01*
X109342412Y-65380251D01*
X109246114Y-65365000D01*
X108690000Y-65365000D01*
X108690000Y-65760000D01*
X107990000Y-65760000D01*
X107990000Y-65365000D01*
X107433886Y-65365000D01*
X107337587Y-65380251D01*
X107221508Y-65439396D01*
X107221504Y-65439399D01*
X107129399Y-65531504D01*
X107129396Y-65531508D01*
X107070251Y-65647587D01*
X107055000Y-65743885D01*
X103574999Y-65743885D01*
X103574999Y-64718490D01*
X103564458Y-64630703D01*
X103509369Y-64491007D01*
X103418639Y-64371360D01*
X103298992Y-64280630D01*
X103159296Y-64225541D01*
X103071517Y-64215000D01*
X102640000Y-64215000D01*
X102640000Y-65760000D01*
X101940000Y-65760000D01*
X101940000Y-64215000D01*
X101508490Y-64215000D01*
X101420703Y-64225541D01*
X101281007Y-64280630D01*
X101161360Y-64371360D01*
X101070630Y-64491007D01*
X101015541Y-64630702D01*
X101015541Y-64630703D01*
X101005000Y-64718482D01*
X100190500Y-64718482D01*
X100190500Y-64176158D01*
X107054499Y-64176158D01*
X107069769Y-64272570D01*
X107069769Y-64272571D01*
X107088741Y-64309805D01*
X107128985Y-64388788D01*
X107128987Y-64388790D01*
X107128989Y-64388793D01*
X107221206Y-64481010D01*
X107221208Y-64481011D01*
X107221212Y-64481015D01*
X107337426Y-64540229D01*
X107337427Y-64540229D01*
X107337429Y-64540230D01*
X107433841Y-64555500D01*
X107433842Y-64555500D01*
X109246158Y-64555500D01*
X109342570Y-64540230D01*
X109342571Y-64540230D01*
X109342572Y-64540229D01*
X109342574Y-64540229D01*
X109458788Y-64481015D01*
X109551015Y-64388788D01*
X109610229Y-64272574D01*
X109610229Y-64272572D01*
X109610230Y-64272571D01*
X109610230Y-64272570D01*
X109625500Y-64176158D01*
X109625500Y-63443841D01*
X109610230Y-63347429D01*
X109610230Y-63347428D01*
X109610229Y-63347426D01*
X109551015Y-63231212D01*
X109551011Y-63231208D01*
X109551010Y-63231206D01*
X109458793Y-63138989D01*
X109458790Y-63138987D01*
X109458788Y-63138985D01*
X109342574Y-63079771D01*
X109342573Y-63079770D01*
X109342570Y-63079769D01*
X109246158Y-63064500D01*
X107433842Y-63064500D01*
X107337429Y-63079769D01*
X107337428Y-63079769D01*
X107259950Y-63119247D01*
X107221212Y-63138985D01*
X107221211Y-63138986D01*
X107221206Y-63138989D01*
X107128989Y-63231206D01*
X107128986Y-63231211D01*
X107069769Y-63347428D01*
X107069769Y-63347429D01*
X107054500Y-63443841D01*
X107054500Y-64176158D01*
X107054499Y-64176158D01*
X100190500Y-64176158D01*
X100190500Y-60086830D01*
X100210185Y-60019791D01*
X100262989Y-59974036D01*
X100332147Y-59964092D01*
X100348130Y-59968330D01*
X100348232Y-59967930D01*
X100355932Y-59969876D01*
X100355934Y-59969876D01*
X100355936Y-59969877D01*
X100444398Y-59980500D01*
X100444403Y-59980500D01*
X101055597Y-59980500D01*
X101055602Y-59980500D01*
X101144064Y-59969877D01*
X101284842Y-59914361D01*
X101405422Y-59822922D01*
X101496861Y-59702342D01*
X101547146Y-59574826D01*
X101590051Y-59519685D01*
X101655959Y-59496492D01*
X101723943Y-59512612D01*
X101772420Y-59562929D01*
X101777848Y-59574814D01*
X101788837Y-59602679D01*
X101828139Y-59702343D01*
X101919577Y-59822922D01*
X102040156Y-59914360D01*
X102040157Y-59914360D01*
X102040158Y-59914361D01*
X102180936Y-59969877D01*
X102269398Y-59980500D01*
X102269403Y-59980500D01*
X102880597Y-59980500D01*
X102880602Y-59980500D01*
X102969064Y-59969877D01*
X103109842Y-59914361D01*
X103230422Y-59822922D01*
X103321861Y-59702342D01*
X103377377Y-59561564D01*
X103388000Y-59473102D01*
X103388000Y-58545553D01*
X113205000Y-58545553D01*
X113215613Y-58633943D01*
X113271079Y-58774595D01*
X113362435Y-58895064D01*
X113482904Y-58986420D01*
X113623556Y-59041886D01*
X113711946Y-59052500D01*
X113880000Y-59052500D01*
X114580000Y-59052500D01*
X114748054Y-59052500D01*
X114836443Y-59041886D01*
X114977095Y-58986420D01*
X115097564Y-58895064D01*
X115188920Y-58774595D01*
X115244386Y-58633943D01*
X115255000Y-58545553D01*
X116215000Y-58545553D01*
X116225613Y-58633943D01*
X116281079Y-58774595D01*
X116372435Y-58895064D01*
X116492904Y-58986420D01*
X116633556Y-59041886D01*
X116721946Y-59052500D01*
X116890000Y-59052500D01*
X117590000Y-59052500D01*
X117758054Y-59052500D01*
X117846443Y-59041886D01*
X117987095Y-58986420D01*
X118107564Y-58895064D01*
X118198920Y-58774595D01*
X118254386Y-58633943D01*
X118265000Y-58545553D01*
X119225000Y-58545553D01*
X119235613Y-58633943D01*
X119291079Y-58774595D01*
X119382435Y-58895064D01*
X119502904Y-58986420D01*
X119643556Y-59041886D01*
X119731946Y-59052500D01*
X119900000Y-59052500D01*
X120600000Y-59052500D01*
X120768054Y-59052500D01*
X120856443Y-59041886D01*
X120997095Y-58986420D01*
X121117564Y-58895064D01*
X121208920Y-58774595D01*
X121264386Y-58633943D01*
X121275000Y-58545553D01*
X122235000Y-58545553D01*
X122245613Y-58633943D01*
X122301079Y-58774595D01*
X122392435Y-58895064D01*
X122512904Y-58986420D01*
X122653556Y-59041886D01*
X122741946Y-59052500D01*
X122910000Y-59052500D01*
X123610000Y-59052500D01*
X123778054Y-59052500D01*
X123866443Y-59041886D01*
X124007095Y-58986420D01*
X124127564Y-58895064D01*
X124218920Y-58774595D01*
X124274386Y-58633943D01*
X124285000Y-58545553D01*
X125245000Y-58545553D01*
X125255613Y-58633943D01*
X125311079Y-58774595D01*
X125402435Y-58895064D01*
X125522904Y-58986420D01*
X125663556Y-59041886D01*
X125751946Y-59052500D01*
X125920000Y-59052500D01*
X126620000Y-59052500D01*
X126788054Y-59052500D01*
X126876443Y-59041886D01*
X127017095Y-58986420D01*
X127137564Y-58895064D01*
X127228920Y-58774595D01*
X127284386Y-58633943D01*
X127295000Y-58545553D01*
X127295000Y-58515000D01*
X126620000Y-58515000D01*
X126620000Y-59052500D01*
X125920000Y-59052500D01*
X125920000Y-58515000D01*
X125245000Y-58515000D01*
X125245000Y-58545553D01*
X124285000Y-58545553D01*
X124285000Y-58515000D01*
X123610000Y-58515000D01*
X123610000Y-59052500D01*
X122910000Y-59052500D01*
X122910000Y-58515000D01*
X122235000Y-58515000D01*
X122235000Y-58545553D01*
X121275000Y-58545553D01*
X121275000Y-58515000D01*
X120600000Y-58515000D01*
X120600000Y-59052500D01*
X119900000Y-59052500D01*
X119900000Y-58515000D01*
X119225000Y-58515000D01*
X119225000Y-58545553D01*
X118265000Y-58545553D01*
X118265000Y-58515000D01*
X117590000Y-58515000D01*
X117590000Y-59052500D01*
X116890000Y-59052500D01*
X116890000Y-58515000D01*
X116215000Y-58515000D01*
X116215000Y-58545553D01*
X115255000Y-58545553D01*
X115255000Y-58515000D01*
X114580000Y-58515000D01*
X114580000Y-59052500D01*
X113880000Y-59052500D01*
X113880000Y-58515000D01*
X113205000Y-58515000D01*
X113205000Y-58545553D01*
X103388000Y-58545553D01*
X103388000Y-58486898D01*
X103377377Y-58398436D01*
X103321861Y-58257658D01*
X103321859Y-58257655D01*
X103318994Y-58253876D01*
X103294173Y-58188563D01*
X103308603Y-58120200D01*
X103330115Y-58091276D01*
X103636945Y-57784446D01*
X113205000Y-57784446D01*
X113205000Y-57815000D01*
X113880000Y-57815000D01*
X114580000Y-57815000D01*
X115255000Y-57815000D01*
X115255000Y-57784446D01*
X116215000Y-57784446D01*
X116215000Y-57815000D01*
X116890000Y-57815000D01*
X117590000Y-57815000D01*
X118265000Y-57815000D01*
X118265000Y-57784446D01*
X119225000Y-57784446D01*
X119225000Y-57815000D01*
X119900000Y-57815000D01*
X120600000Y-57815000D01*
X121275000Y-57815000D01*
X121275000Y-57784446D01*
X122235000Y-57784446D01*
X122235000Y-57815000D01*
X122910000Y-57815000D01*
X123610000Y-57815000D01*
X124285000Y-57815000D01*
X124285000Y-57784446D01*
X125245000Y-57784446D01*
X125245000Y-57815000D01*
X125920000Y-57815000D01*
X126620000Y-57815000D01*
X127295000Y-57815000D01*
X127295000Y-57784446D01*
X127284386Y-57696056D01*
X127228920Y-57555404D01*
X127137564Y-57434935D01*
X127017095Y-57343579D01*
X126876443Y-57288113D01*
X126788054Y-57277500D01*
X126620000Y-57277500D01*
X126620000Y-57815000D01*
X125920000Y-57815000D01*
X125920000Y-57277500D01*
X125751946Y-57277500D01*
X125663556Y-57288113D01*
X125522904Y-57343579D01*
X125402435Y-57434935D01*
X125311079Y-57555404D01*
X125255613Y-57696056D01*
X125245000Y-57784446D01*
X124285000Y-57784446D01*
X124274386Y-57696056D01*
X124218920Y-57555404D01*
X124127564Y-57434935D01*
X124007095Y-57343579D01*
X123866443Y-57288113D01*
X123778054Y-57277500D01*
X123610000Y-57277500D01*
X123610000Y-57815000D01*
X122910000Y-57815000D01*
X122910000Y-57277500D01*
X122741946Y-57277500D01*
X122653556Y-57288113D01*
X122512904Y-57343579D01*
X122392435Y-57434935D01*
X122301079Y-57555404D01*
X122245613Y-57696056D01*
X122235000Y-57784446D01*
X121275000Y-57784446D01*
X121264386Y-57696056D01*
X121208920Y-57555404D01*
X121117564Y-57434935D01*
X120997095Y-57343579D01*
X120856443Y-57288113D01*
X120768054Y-57277500D01*
X120600000Y-57277500D01*
X120600000Y-57815000D01*
X119900000Y-57815000D01*
X119900000Y-57277500D01*
X119731946Y-57277500D01*
X119643556Y-57288113D01*
X119502904Y-57343579D01*
X119382435Y-57434935D01*
X119291079Y-57555404D01*
X119235613Y-57696056D01*
X119225000Y-57784446D01*
X118265000Y-57784446D01*
X118254386Y-57696056D01*
X118198920Y-57555404D01*
X118107564Y-57434935D01*
X117987095Y-57343579D01*
X117846443Y-57288113D01*
X117758054Y-57277500D01*
X117590000Y-57277500D01*
X117590000Y-57815000D01*
X116890000Y-57815000D01*
X116890000Y-57277500D01*
X116721946Y-57277500D01*
X116633556Y-57288113D01*
X116492904Y-57343579D01*
X116372435Y-57434935D01*
X116281079Y-57555404D01*
X116225613Y-57696056D01*
X116215000Y-57784446D01*
X115255000Y-57784446D01*
X115244386Y-57696056D01*
X115188920Y-57555404D01*
X115097564Y-57434935D01*
X114977095Y-57343579D01*
X114836443Y-57288113D01*
X114748054Y-57277500D01*
X114580000Y-57277500D01*
X114580000Y-57815000D01*
X113880000Y-57815000D01*
X113880000Y-57277500D01*
X113711946Y-57277500D01*
X113623556Y-57288113D01*
X113482904Y-57343579D01*
X113362435Y-57434935D01*
X113271079Y-57555404D01*
X113215613Y-57696056D01*
X113205000Y-57784446D01*
X103636945Y-57784446D01*
X104804574Y-56616819D01*
X104865897Y-56583334D01*
X104892255Y-56580500D01*
X135618410Y-56580500D01*
X135618412Y-56580500D01*
X135720273Y-56553207D01*
X135811598Y-56500480D01*
X145985258Y-46326818D01*
X146046581Y-46293334D01*
X146072939Y-46290500D01*
X148000500Y-46290500D01*
X148067539Y-46310185D01*
G37*
%TD.AperFunction*%
%TA.AperFunction,Conductor*%
G36*
X110349334Y-27828397D02*
G01*
X110405267Y-27870269D01*
X110429684Y-27935733D01*
X110430000Y-27944579D01*
X110430000Y-28055582D01*
X110440620Y-28128482D01*
X110495587Y-28240918D01*
X110591348Y-28336679D01*
X110590247Y-28337779D01*
X110626303Y-28383741D01*
X110632861Y-28453302D01*
X110600769Y-28515366D01*
X110584478Y-28529483D01*
X110495172Y-28618789D01*
X110440135Y-28731371D01*
X110440134Y-28731373D01*
X110440134Y-28731375D01*
X110429500Y-28804364D01*
X110429500Y-29325636D01*
X110440134Y-29398625D01*
X110440134Y-29398626D01*
X110440135Y-29398628D01*
X110495172Y-29511210D01*
X110591054Y-29607092D01*
X110589919Y-29608226D01*
X110625869Y-29654057D01*
X110632424Y-29723619D01*
X110600330Y-29785681D01*
X110584972Y-29798989D01*
X110495172Y-29888789D01*
X110440135Y-30001371D01*
X110440134Y-30001373D01*
X110440134Y-30001375D01*
X110429500Y-30074364D01*
X110429500Y-30595636D01*
X110440134Y-30668625D01*
X110440134Y-30668626D01*
X110440135Y-30668628D01*
X110495172Y-30781210D01*
X110583789Y-30869827D01*
X110676194Y-30915000D01*
X110696375Y-30924866D01*
X110769364Y-30935500D01*
X110769370Y-30935500D01*
X112660630Y-30935500D01*
X112660636Y-30935500D01*
X112733625Y-30924866D01*
X112791268Y-30896686D01*
X112846210Y-30869827D01*
X112934827Y-30781210D01*
X112971011Y-30707193D01*
X112989866Y-30668625D01*
X113000500Y-30595636D01*
X113000500Y-30074364D01*
X112989866Y-30001375D01*
X112979374Y-29979913D01*
X112934827Y-29888789D01*
X112908219Y-29862181D01*
X112874734Y-29800858D01*
X112879718Y-29731166D01*
X112921590Y-29675233D01*
X112987054Y-29650816D01*
X112995900Y-29650500D01*
X116165166Y-29650500D01*
X116227165Y-29667112D01*
X116300716Y-29709577D01*
X116453443Y-29750500D01*
X116453445Y-29750500D01*
X116611555Y-29750500D01*
X116611557Y-29750500D01*
X116764284Y-29709577D01*
X116837834Y-29667112D01*
X116899834Y-29650500D01*
X143411324Y-29650500D01*
X143478363Y-29670185D01*
X143499005Y-29686819D01*
X148088181Y-34275995D01*
X148121666Y-34337318D01*
X148124500Y-34363676D01*
X148124500Y-34713102D01*
X148127918Y-34741561D01*
X148135122Y-34801561D01*
X148135122Y-34801563D01*
X148135123Y-34801564D01*
X148152722Y-34846192D01*
X148190639Y-34942343D01*
X148282077Y-35062922D01*
X148402656Y-35154360D01*
X148402657Y-35154360D01*
X148402658Y-35154361D01*
X148543436Y-35209877D01*
X148631898Y-35220500D01*
X148631903Y-35220500D01*
X150408097Y-35220500D01*
X150408102Y-35220500D01*
X150496564Y-35209877D01*
X150637342Y-35154361D01*
X150757922Y-35062922D01*
X150849361Y-34942342D01*
X150870555Y-34888595D01*
X150913461Y-34833453D01*
X150979368Y-34810259D01*
X151047353Y-34826379D01*
X151073591Y-34846405D01*
X153023181Y-36795995D01*
X153056666Y-36857318D01*
X153059500Y-36883676D01*
X153059500Y-53466323D01*
X153039815Y-53533362D01*
X153023181Y-53554004D01*
X150945677Y-55631508D01*
X150884354Y-55664993D01*
X150814662Y-55660009D01*
X150764381Y-55622613D01*
X150763920Y-55623075D01*
X150760776Y-55619931D01*
X150759192Y-55618753D01*
X150757920Y-55617076D01*
X150637343Y-55525639D01*
X150496561Y-55470122D01*
X150450926Y-55464642D01*
X150408102Y-55459500D01*
X150099219Y-55459500D01*
X150032180Y-55439815D01*
X149986425Y-55387011D01*
X149976481Y-55317853D01*
X150005506Y-55254297D01*
X150060900Y-55217569D01*
X150194128Y-55174280D01*
X150358214Y-55090673D01*
X150507205Y-54982423D01*
X150507206Y-54982423D01*
X150637423Y-54852206D01*
X150637423Y-54852205D01*
X150745673Y-54703214D01*
X150829282Y-54539124D01*
X150829283Y-54539121D01*
X150861489Y-54440000D01*
X150004973Y-54440000D01*
X150074452Y-54319661D01*
X150115000Y-54168333D01*
X150115000Y-54011667D01*
X150074452Y-53860339D01*
X150004973Y-53740000D01*
X150861489Y-53740000D01*
X150861489Y-53739999D01*
X150829283Y-53640878D01*
X150829282Y-53640875D01*
X150745673Y-53476785D01*
X150637423Y-53327794D01*
X150637423Y-53327793D01*
X150507206Y-53197576D01*
X150358214Y-53089326D01*
X150194128Y-53005719D01*
X150018978Y-52948809D01*
X149980567Y-52942725D01*
X149917433Y-52912794D01*
X149880503Y-52853482D01*
X149881502Y-52783620D01*
X149920112Y-52725388D01*
X149980566Y-52697780D01*
X150019093Y-52691678D01*
X150194316Y-52634745D01*
X150358475Y-52551101D01*
X150507529Y-52442807D01*
X150637807Y-52312529D01*
X150746101Y-52163475D01*
X150829745Y-51999316D01*
X150886678Y-51824093D01*
X150915500Y-51642120D01*
X150915500Y-51457880D01*
X150886678Y-51275907D01*
X150829745Y-51100684D01*
X150746101Y-50936525D01*
X150637807Y-50787471D01*
X150507529Y-50657193D01*
X150358475Y-50548899D01*
X150194313Y-50465253D01*
X150019094Y-50408322D01*
X149982164Y-50402473D01*
X149919030Y-50372544D01*
X149882098Y-50313233D01*
X149883096Y-50243370D01*
X149921705Y-50185137D01*
X149982164Y-50157527D01*
X150019093Y-50151678D01*
X150194316Y-50094745D01*
X150358475Y-50011101D01*
X150507529Y-49902807D01*
X150637807Y-49772529D01*
X150746101Y-49623475D01*
X150829745Y-49459316D01*
X150886678Y-49284093D01*
X150915500Y-49102120D01*
X150915500Y-48917880D01*
X150886678Y-48735907D01*
X150829745Y-48560684D01*
X150824301Y-48550000D01*
X150784898Y-48472667D01*
X150772001Y-48403997D01*
X150798277Y-48339257D01*
X150807692Y-48328699D01*
X151600480Y-47535913D01*
X151653207Y-47444588D01*
X151680500Y-47342727D01*
X151680500Y-47237273D01*
X151680500Y-40897273D01*
X151669209Y-40855135D01*
X151653207Y-40795412D01*
X151600480Y-40704087D01*
X151131989Y-40235596D01*
X150658458Y-39762064D01*
X150624973Y-39700741D01*
X150629957Y-39631049D01*
X150645817Y-39601503D01*
X150746101Y-39463475D01*
X150829745Y-39299316D01*
X150886678Y-39124093D01*
X150915500Y-38942120D01*
X150915500Y-38757880D01*
X150886678Y-38575907D01*
X150852009Y-38469207D01*
X150829746Y-38400686D01*
X150793890Y-38330315D01*
X150746101Y-38236525D01*
X150637807Y-38087471D01*
X150507529Y-37957193D01*
X150358475Y-37848899D01*
X150194313Y-37765253D01*
X150019094Y-37708322D01*
X149928106Y-37693911D01*
X149837120Y-37679500D01*
X149202880Y-37679500D01*
X149142222Y-37689107D01*
X149020905Y-37708322D01*
X148845686Y-37765253D01*
X148681524Y-37848899D01*
X148604046Y-37905191D01*
X148532471Y-37957193D01*
X148532469Y-37957195D01*
X148532468Y-37957195D01*
X148402195Y-38087468D01*
X148402190Y-38087474D01*
X148378821Y-38119638D01*
X148323490Y-38162302D01*
X148253877Y-38168280D01*
X148192082Y-38135672D01*
X148190824Y-38134431D01*
X141835915Y-31779522D01*
X141835913Y-31779520D01*
X141766876Y-31739661D01*
X141744589Y-31726793D01*
X141693657Y-31713146D01*
X141642727Y-31699500D01*
X114332727Y-31699500D01*
X114227273Y-31699500D01*
X114125410Y-31726793D01*
X114034087Y-31779520D01*
X114034084Y-31779522D01*
X107699522Y-38114084D01*
X107699520Y-38114087D01*
X107646793Y-38205410D01*
X107641276Y-38226000D01*
X107636075Y-38245412D01*
X107636075Y-38245413D01*
X107636074Y-38245412D01*
X107619500Y-38307271D01*
X107619500Y-43012726D01*
X107646793Y-43114589D01*
X107673156Y-43160250D01*
X107699520Y-43205913D01*
X110089519Y-45595912D01*
X110089520Y-45595913D01*
X110164087Y-45670480D01*
X110255413Y-45723207D01*
X110357273Y-45750500D01*
X113031375Y-45750500D01*
X113098414Y-45770185D01*
X113144169Y-45822989D01*
X113154113Y-45892147D01*
X113144809Y-45924588D01*
X113142415Y-45930009D01*
X113139500Y-45955131D01*
X113139500Y-46444856D01*
X113139502Y-46444882D01*
X113142413Y-46469986D01*
X113142414Y-46469990D01*
X113142415Y-46469991D01*
X113187794Y-46572765D01*
X113187795Y-46572766D01*
X113188743Y-46574913D01*
X113197814Y-46644191D01*
X113188743Y-46675085D01*
X113142415Y-46780009D01*
X113139500Y-46805131D01*
X113139500Y-47294856D01*
X113139502Y-47294882D01*
X113142413Y-47319986D01*
X113142414Y-47319990D01*
X113142415Y-47319991D01*
X113187794Y-47422765D01*
X113187795Y-47422766D01*
X113188743Y-47424913D01*
X113197814Y-47494191D01*
X113188743Y-47525085D01*
X113142415Y-47630009D01*
X113139500Y-47655131D01*
X113139500Y-48144856D01*
X113139502Y-48144882D01*
X113142413Y-48169987D01*
X113142414Y-48169989D01*
X113144810Y-48175415D01*
X113153881Y-48244693D01*
X113124057Y-48307878D01*
X113064807Y-48344908D01*
X113031375Y-48349500D01*
X109636618Y-48349500D01*
X109574619Y-48332888D01*
X109431784Y-48250423D01*
X109420767Y-48247471D01*
X109279057Y-48209500D01*
X109120943Y-48209500D01*
X108968216Y-48250423D01*
X108968209Y-48250426D01*
X108831290Y-48329475D01*
X108831282Y-48329481D01*
X108719481Y-48441282D01*
X108719475Y-48441290D01*
X108640426Y-48578209D01*
X108640423Y-48578216D01*
X108599500Y-48730943D01*
X108599500Y-48889057D01*
X108627832Y-48994791D01*
X108640423Y-49041783D01*
X108640426Y-49041790D01*
X108719475Y-49178709D01*
X108719479Y-49178714D01*
X108719480Y-49178716D01*
X108831284Y-49290520D01*
X108831286Y-49290521D01*
X108831290Y-49290524D01*
X108936181Y-49351082D01*
X108968216Y-49369577D01*
X109103357Y-49405787D01*
X109108538Y-49408945D01*
X109114595Y-49409379D01*
X109138024Y-49426918D01*
X109163015Y-49442151D01*
X109165668Y-49447612D01*
X109170528Y-49451251D01*
X109180754Y-49478668D01*
X109193544Y-49504997D01*
X109192823Y-49511026D01*
X109194945Y-49516715D01*
X109188724Y-49545309D01*
X109185250Y-49574373D01*
X109181053Y-49580573D01*
X109180093Y-49584988D01*
X109158942Y-49613242D01*
X109105837Y-49666347D01*
X109050252Y-49698440D01*
X108968218Y-49720422D01*
X108968209Y-49720426D01*
X108831290Y-49799475D01*
X108831282Y-49799481D01*
X108719481Y-49911282D01*
X108719475Y-49911290D01*
X108640426Y-50048209D01*
X108640423Y-50048216D01*
X108599500Y-50200943D01*
X108599500Y-50359057D01*
X108640423Y-50511782D01*
X108640423Y-50511783D01*
X108640426Y-50511790D01*
X108719475Y-50648709D01*
X108719479Y-50648714D01*
X108719480Y-50648716D01*
X108831284Y-50760520D01*
X108831286Y-50760521D01*
X108831290Y-50760524D01*
X108968209Y-50839573D01*
X108968216Y-50839577D01*
X109120943Y-50880500D01*
X109120945Y-50880500D01*
X109279055Y-50880500D01*
X109279057Y-50880500D01*
X109431784Y-50839577D01*
X109568716Y-50760520D01*
X109680520Y-50648716D01*
X109759577Y-50511784D01*
X109781558Y-50429748D01*
X109813649Y-50374163D01*
X110050994Y-50136819D01*
X110112317Y-50103334D01*
X110138675Y-50100500D01*
X113016000Y-50100500D01*
X113083039Y-50120185D01*
X113128794Y-50172989D01*
X113140000Y-50224500D01*
X113140000Y-50250000D01*
X114539999Y-50250000D01*
X114539999Y-50205214D01*
X114539997Y-50205191D01*
X114537091Y-50180130D01*
X114537090Y-50180127D01*
X114490983Y-50075702D01*
X114481912Y-50006424D01*
X114490984Y-49975530D01*
X114492203Y-49972767D01*
X114492206Y-49972765D01*
X114537585Y-49869991D01*
X114540500Y-49844865D01*
X114540499Y-49355205D01*
X127140000Y-49355205D01*
X127140000Y-49400000D01*
X127640000Y-49400000D01*
X128040000Y-49400000D01*
X128539999Y-49400000D01*
X128539999Y-49355214D01*
X128539997Y-49355191D01*
X128537091Y-49330130D01*
X128537090Y-49330127D01*
X128490711Y-49225085D01*
X128481640Y-49155807D01*
X128490711Y-49124914D01*
X128537089Y-49019875D01*
X128539999Y-48994794D01*
X128540000Y-48994791D01*
X128540000Y-48950000D01*
X128040000Y-48950000D01*
X128040000Y-49400000D01*
X127640000Y-49400000D01*
X127640000Y-48950000D01*
X127140001Y-48950000D01*
X127140001Y-48994785D01*
X127140002Y-48994808D01*
X127142908Y-49019869D01*
X127142909Y-49019873D01*
X127189288Y-49124914D01*
X127198358Y-49194193D01*
X127189288Y-49225084D01*
X127142910Y-49330122D01*
X127142910Y-49330124D01*
X127140000Y-49355205D01*
X114540499Y-49355205D01*
X114540499Y-49355136D01*
X114537585Y-49330009D01*
X114492206Y-49227235D01*
X114491082Y-49226111D01*
X114487242Y-49214770D01*
X114486030Y-49185177D01*
X114482185Y-49155808D01*
X114484505Y-49147905D01*
X114484385Y-49144959D01*
X114486359Y-49141591D01*
X114491257Y-49124913D01*
X114492204Y-49122766D01*
X114492206Y-49122765D01*
X114537585Y-49019991D01*
X114540500Y-48994865D01*
X114540499Y-48505136D01*
X114540497Y-48505117D01*
X114537586Y-48480012D01*
X114537585Y-48480008D01*
X114491257Y-48375086D01*
X114482185Y-48305808D01*
X114491257Y-48274913D01*
X114492204Y-48272766D01*
X114492206Y-48272765D01*
X114537585Y-48169991D01*
X114540500Y-48144865D01*
X114540499Y-47655136D01*
X114540497Y-47655117D01*
X114537586Y-47630012D01*
X114537585Y-47630008D01*
X114491257Y-47525086D01*
X114482185Y-47455808D01*
X114491257Y-47424913D01*
X114492204Y-47422766D01*
X114492206Y-47422765D01*
X114537585Y-47319991D01*
X114540500Y-47294865D01*
X114540499Y-46805136D01*
X114540497Y-46805117D01*
X114537586Y-46780012D01*
X114537585Y-46780008D01*
X114491257Y-46675086D01*
X114482185Y-46605808D01*
X114491257Y-46574913D01*
X114492204Y-46572766D01*
X114492206Y-46572765D01*
X114537585Y-46469991D01*
X114540500Y-46444865D01*
X114540499Y-45955136D01*
X114540497Y-45955117D01*
X114537586Y-45930012D01*
X114537585Y-45930008D01*
X114491257Y-45825086D01*
X114482185Y-45755808D01*
X114491257Y-45724913D01*
X114492204Y-45722766D01*
X114492206Y-45722765D01*
X114537585Y-45619991D01*
X114540500Y-45594865D01*
X114540499Y-45105136D01*
X114540497Y-45105117D01*
X114537586Y-45080012D01*
X114537585Y-45080008D01*
X114491257Y-44975086D01*
X114482185Y-44905808D01*
X114491257Y-44874913D01*
X114492204Y-44872766D01*
X114492206Y-44872765D01*
X114537585Y-44769991D01*
X114540500Y-44744865D01*
X114540499Y-44255136D01*
X114540497Y-44255117D01*
X114537586Y-44230012D01*
X114537585Y-44230008D01*
X114491257Y-44125086D01*
X114482185Y-44055808D01*
X114491257Y-44024913D01*
X114492204Y-44022766D01*
X114492206Y-44022765D01*
X114537585Y-43919991D01*
X114540500Y-43894865D01*
X114540499Y-43405136D01*
X114540497Y-43405117D01*
X114537586Y-43380012D01*
X114537585Y-43380008D01*
X114491257Y-43275086D01*
X114482185Y-43205808D01*
X114491257Y-43174913D01*
X114492204Y-43172766D01*
X114492206Y-43172765D01*
X114537585Y-43069991D01*
X114540500Y-43044865D01*
X114540499Y-42555136D01*
X114537779Y-42531678D01*
X114537586Y-42530012D01*
X114537585Y-42530008D01*
X114491257Y-42425086D01*
X114482185Y-42355808D01*
X114491257Y-42324913D01*
X114492204Y-42322766D01*
X114492206Y-42322765D01*
X114537585Y-42219991D01*
X114540500Y-42194865D01*
X114540499Y-41705136D01*
X114540497Y-41705117D01*
X114537586Y-41680012D01*
X114537585Y-41680008D01*
X114498982Y-41592581D01*
X114492206Y-41577235D01*
X114492205Y-41577234D01*
X114491257Y-41575086D01*
X114482185Y-41505808D01*
X114491257Y-41474913D01*
X114492204Y-41472766D01*
X114492206Y-41472765D01*
X114537585Y-41369991D01*
X114540500Y-41344865D01*
X114540499Y-40855136D01*
X114540497Y-40855117D01*
X114537586Y-40830012D01*
X114537585Y-40830008D01*
X114491257Y-40725086D01*
X114482185Y-40655808D01*
X114491257Y-40624913D01*
X114492204Y-40622766D01*
X114492206Y-40622765D01*
X114537585Y-40519991D01*
X114540500Y-40494865D01*
X114540499Y-40005136D01*
X114540497Y-40005117D01*
X114537586Y-39980012D01*
X114537585Y-39980008D01*
X114491257Y-39875086D01*
X114482185Y-39805808D01*
X114491257Y-39774913D01*
X114492204Y-39772766D01*
X114492206Y-39772765D01*
X114537585Y-39669991D01*
X114540500Y-39644865D01*
X114540499Y-39174498D01*
X114560183Y-39107460D01*
X114612987Y-39061705D01*
X114664494Y-39050499D01*
X115134864Y-39050499D01*
X115134879Y-39050497D01*
X115134882Y-39050497D01*
X115159987Y-39047586D01*
X115159987Y-39047585D01*
X115159991Y-39047585D01*
X115262765Y-39002206D01*
X115262766Y-39002204D01*
X115264912Y-39001257D01*
X115334190Y-38992185D01*
X115365085Y-39001257D01*
X115436098Y-39032612D01*
X115470009Y-39047585D01*
X115495135Y-39050500D01*
X115984864Y-39050499D01*
X115984879Y-39050497D01*
X115984882Y-39050497D01*
X116009987Y-39047586D01*
X116009987Y-39047585D01*
X116009991Y-39047585D01*
X116112765Y-39002206D01*
X116112766Y-39002204D01*
X116114912Y-39001257D01*
X116184190Y-38992185D01*
X116215085Y-39001257D01*
X116286098Y-39032612D01*
X116320009Y-39047585D01*
X116345135Y-39050500D01*
X116834864Y-39050499D01*
X116834879Y-39050497D01*
X116834882Y-39050497D01*
X116859987Y-39047586D01*
X116859987Y-39047585D01*
X116859991Y-39047585D01*
X116962765Y-39002206D01*
X116962766Y-39002204D01*
X116964912Y-39001257D01*
X117034190Y-38992185D01*
X117065085Y-39001257D01*
X117136098Y-39032612D01*
X117170009Y-39047585D01*
X117195135Y-39050500D01*
X117684864Y-39050499D01*
X117684879Y-39050497D01*
X117684882Y-39050497D01*
X117709987Y-39047586D01*
X117709987Y-39047585D01*
X117709991Y-39047585D01*
X117812765Y-39002206D01*
X117812766Y-39002204D01*
X117814912Y-39001257D01*
X117884190Y-38992185D01*
X117915085Y-39001257D01*
X117986098Y-39032612D01*
X118020009Y-39047585D01*
X118045135Y-39050500D01*
X118534864Y-39050499D01*
X118534879Y-39050497D01*
X118534882Y-39050497D01*
X118559987Y-39047586D01*
X118559987Y-39047585D01*
X118559991Y-39047585D01*
X118662765Y-39002206D01*
X118662766Y-39002204D01*
X118664912Y-39001257D01*
X118734190Y-38992185D01*
X118765085Y-39001257D01*
X118836098Y-39032612D01*
X118870009Y-39047585D01*
X118895135Y-39050500D01*
X119384864Y-39050499D01*
X119384879Y-39050497D01*
X119384882Y-39050497D01*
X119409987Y-39047586D01*
X119409987Y-39047585D01*
X119409991Y-39047585D01*
X119512765Y-39002206D01*
X119512766Y-39002204D01*
X119514912Y-39001257D01*
X119584190Y-38992185D01*
X119615085Y-39001257D01*
X119686098Y-39032612D01*
X119720009Y-39047585D01*
X119745135Y-39050500D01*
X120234864Y-39050499D01*
X120234879Y-39050497D01*
X120234882Y-39050497D01*
X120259987Y-39047586D01*
X120259987Y-39047585D01*
X120259991Y-39047585D01*
X120362765Y-39002206D01*
X120362766Y-39002204D01*
X120364912Y-39001257D01*
X120434190Y-38992185D01*
X120465085Y-39001257D01*
X120536098Y-39032612D01*
X120570009Y-39047585D01*
X120595135Y-39050500D01*
X121084864Y-39050499D01*
X121084879Y-39050497D01*
X121084882Y-39050497D01*
X121109987Y-39047586D01*
X121109987Y-39047585D01*
X121109991Y-39047585D01*
X121212765Y-39002206D01*
X121212766Y-39002204D01*
X121214912Y-39001257D01*
X121284190Y-38992185D01*
X121315085Y-39001257D01*
X121386098Y-39032612D01*
X121420009Y-39047585D01*
X121445135Y-39050500D01*
X121934864Y-39050499D01*
X121934879Y-39050497D01*
X121934882Y-39050497D01*
X121959987Y-39047586D01*
X121959987Y-39047585D01*
X121959991Y-39047585D01*
X122062765Y-39002206D01*
X122062766Y-39002204D01*
X122064912Y-39001257D01*
X122134190Y-38992185D01*
X122165085Y-39001257D01*
X122236098Y-39032612D01*
X122270009Y-39047585D01*
X122295135Y-39050500D01*
X122784864Y-39050499D01*
X122784879Y-39050497D01*
X122784882Y-39050497D01*
X122809987Y-39047586D01*
X122809987Y-39047585D01*
X122809991Y-39047585D01*
X122912765Y-39002206D01*
X122912766Y-39002204D01*
X122914912Y-39001257D01*
X122984190Y-38992185D01*
X123015085Y-39001257D01*
X123086098Y-39032612D01*
X123120009Y-39047585D01*
X123145135Y-39050500D01*
X123634864Y-39050499D01*
X123634879Y-39050497D01*
X123634882Y-39050497D01*
X123659987Y-39047586D01*
X123659987Y-39047585D01*
X123659991Y-39047585D01*
X123762765Y-39002206D01*
X123762766Y-39002204D01*
X123764912Y-39001257D01*
X123834190Y-38992185D01*
X123865085Y-39001257D01*
X123936098Y-39032612D01*
X123970009Y-39047585D01*
X123995135Y-39050500D01*
X124484864Y-39050499D01*
X124484879Y-39050497D01*
X124484882Y-39050497D01*
X124509987Y-39047586D01*
X124509987Y-39047585D01*
X124509991Y-39047585D01*
X124612765Y-39002206D01*
X124612766Y-39002204D01*
X124614912Y-39001257D01*
X124684190Y-38992185D01*
X124715085Y-39001257D01*
X124786098Y-39032612D01*
X124820009Y-39047585D01*
X124845135Y-39050500D01*
X125334864Y-39050499D01*
X125334879Y-39050497D01*
X125334882Y-39050497D01*
X125359987Y-39047586D01*
X125359987Y-39047585D01*
X125359991Y-39047585D01*
X125462765Y-39002206D01*
X125462766Y-39002204D01*
X125464912Y-39001257D01*
X125534190Y-38992185D01*
X125565085Y-39001257D01*
X125636098Y-39032612D01*
X125670009Y-39047585D01*
X125695135Y-39050500D01*
X126184864Y-39050499D01*
X126184879Y-39050497D01*
X126184882Y-39050497D01*
X126209987Y-39047586D01*
X126209987Y-39047585D01*
X126209991Y-39047585D01*
X126312765Y-39002206D01*
X126312766Y-39002204D01*
X126314912Y-39001257D01*
X126384190Y-38992185D01*
X126415085Y-39001257D01*
X126486098Y-39032612D01*
X126520009Y-39047585D01*
X126545135Y-39050500D01*
X127015500Y-39050499D01*
X127082539Y-39070183D01*
X127128294Y-39122987D01*
X127139500Y-39174499D01*
X127139500Y-39644856D01*
X127139502Y-39644882D01*
X127142413Y-39669986D01*
X127142414Y-39669990D01*
X127142415Y-39669991D01*
X127187794Y-39772765D01*
X127187795Y-39772766D01*
X127188743Y-39774913D01*
X127197814Y-39844191D01*
X127188743Y-39875085D01*
X127142415Y-39980009D01*
X127139500Y-40005131D01*
X127139500Y-40494856D01*
X127139502Y-40494882D01*
X127142413Y-40519986D01*
X127142414Y-40519990D01*
X127142415Y-40519991D01*
X127187794Y-40622765D01*
X127187795Y-40622766D01*
X127188743Y-40624913D01*
X127197814Y-40694191D01*
X127188743Y-40725085D01*
X127142415Y-40830009D01*
X127139500Y-40855131D01*
X127139500Y-41344856D01*
X127139502Y-41344882D01*
X127142413Y-41369986D01*
X127142414Y-41369990D01*
X127142415Y-41369991D01*
X127187794Y-41472765D01*
X127187795Y-41472766D01*
X127188743Y-41474913D01*
X127197814Y-41544191D01*
X127188743Y-41575085D01*
X127142415Y-41680009D01*
X127139500Y-41705131D01*
X127139500Y-42194856D01*
X127139502Y-42194882D01*
X127142413Y-42219986D01*
X127142414Y-42219990D01*
X127142415Y-42219991D01*
X127187794Y-42322765D01*
X127187795Y-42322766D01*
X127188743Y-42324913D01*
X127197814Y-42394191D01*
X127188743Y-42425085D01*
X127142415Y-42530009D01*
X127139500Y-42555131D01*
X127139500Y-43044856D01*
X127139502Y-43044882D01*
X127142413Y-43069986D01*
X127142414Y-43069990D01*
X127142415Y-43069991D01*
X127187794Y-43172765D01*
X127187795Y-43172766D01*
X127188743Y-43174913D01*
X127197814Y-43244191D01*
X127188743Y-43275085D01*
X127142415Y-43380009D01*
X127139500Y-43405131D01*
X127139500Y-43894856D01*
X127139502Y-43894882D01*
X127142413Y-43919986D01*
X127142414Y-43919990D01*
X127142415Y-43919991D01*
X127187794Y-44022765D01*
X127187795Y-44022766D01*
X127188743Y-44024913D01*
X127197814Y-44094191D01*
X127188743Y-44125085D01*
X127142415Y-44230009D01*
X127139500Y-44255131D01*
X127139500Y-44744856D01*
X127139502Y-44744882D01*
X127142413Y-44769986D01*
X127142414Y-44769990D01*
X127142415Y-44769991D01*
X127187794Y-44872765D01*
X127187795Y-44872766D01*
X127188743Y-44874913D01*
X127197814Y-44944191D01*
X127188743Y-44975085D01*
X127142415Y-45080009D01*
X127139500Y-45105131D01*
X127139500Y-45594856D01*
X127139502Y-45594882D01*
X127142413Y-45619986D01*
X127142414Y-45619990D01*
X127142415Y-45619991D01*
X127187794Y-45722765D01*
X127187795Y-45722766D01*
X127188743Y-45724913D01*
X127197814Y-45794191D01*
X127188743Y-45825085D01*
X127142415Y-45930009D01*
X127139500Y-45955131D01*
X127139500Y-46444856D01*
X127139502Y-46444882D01*
X127142413Y-46469986D01*
X127142414Y-46469990D01*
X127142415Y-46469991D01*
X127187794Y-46572765D01*
X127187795Y-46572766D01*
X127188743Y-46574913D01*
X127197814Y-46644191D01*
X127188743Y-46675085D01*
X127142415Y-46780009D01*
X127139500Y-46805131D01*
X127139500Y-47294856D01*
X127139502Y-47294882D01*
X127142413Y-47319986D01*
X127142414Y-47319990D01*
X127142415Y-47319991D01*
X127187794Y-47422765D01*
X127187795Y-47422766D01*
X127188743Y-47424913D01*
X127197814Y-47494191D01*
X127188743Y-47525085D01*
X127142415Y-47630009D01*
X127139500Y-47655131D01*
X127139500Y-48144856D01*
X127139502Y-48144882D01*
X127142413Y-48169987D01*
X127142414Y-48169991D01*
X127189015Y-48275530D01*
X127198087Y-48344808D01*
X127189016Y-48375701D01*
X127142910Y-48480122D01*
X127142910Y-48480124D01*
X127140000Y-48505205D01*
X127140000Y-48550000D01*
X128539999Y-48550000D01*
X128539999Y-48505214D01*
X128539997Y-48505191D01*
X128537091Y-48480130D01*
X128537090Y-48480127D01*
X128490983Y-48375702D01*
X128481912Y-48306424D01*
X128490984Y-48275530D01*
X128492203Y-48272767D01*
X128492206Y-48272765D01*
X128537585Y-48169991D01*
X128540500Y-48144865D01*
X128540499Y-47655136D01*
X128540497Y-47655117D01*
X128537586Y-47630012D01*
X128537585Y-47630010D01*
X128537584Y-47630008D01*
X128535189Y-47624584D01*
X128526119Y-47555307D01*
X128555943Y-47492122D01*
X128615193Y-47455092D01*
X128648625Y-47450500D01*
X129833506Y-47450500D01*
X129900545Y-47470185D01*
X129921187Y-47486819D01*
X131173181Y-48738813D01*
X131206666Y-48800136D01*
X131209500Y-48826494D01*
X131209500Y-48949621D01*
X131228325Y-49019875D01*
X131250423Y-49102347D01*
X131250426Y-49102354D01*
X131329475Y-49239273D01*
X131329479Y-49239278D01*
X131329480Y-49239280D01*
X131441284Y-49351084D01*
X131441286Y-49351085D01*
X131441290Y-49351088D01*
X131578209Y-49430137D01*
X131578216Y-49430141D01*
X131730943Y-49471064D01*
X131730945Y-49471064D01*
X131889055Y-49471064D01*
X131889057Y-49471064D01*
X132041784Y-49430141D01*
X132178716Y-49351084D01*
X132290520Y-49239280D01*
X132368113Y-49104882D01*
X132418679Y-49056668D01*
X132487286Y-49043444D01*
X132552151Y-49069412D01*
X132592680Y-49126326D01*
X132599500Y-49166883D01*
X132599500Y-50022745D01*
X132579815Y-50089784D01*
X132563181Y-50110426D01*
X132030426Y-50643181D01*
X131969103Y-50676666D01*
X131942745Y-50679500D01*
X131241898Y-50679500D01*
X131202853Y-50684188D01*
X131153438Y-50690122D01*
X131012656Y-50745639D01*
X130892079Y-50837076D01*
X130881956Y-50850426D01*
X130825763Y-50891949D01*
X130783152Y-50899500D01*
X128648625Y-50899500D01*
X128581586Y-50879815D01*
X128535831Y-50827011D01*
X128525887Y-50757853D01*
X128535191Y-50725412D01*
X128537585Y-50719991D01*
X128540500Y-50694865D01*
X128540499Y-50205136D01*
X128538449Y-50187456D01*
X128537586Y-50180012D01*
X128537585Y-50180011D01*
X128537585Y-50180009D01*
X128492206Y-50077235D01*
X128492203Y-50077232D01*
X128490984Y-50074470D01*
X128481912Y-50005192D01*
X128490984Y-49974297D01*
X128537088Y-49869880D01*
X128537089Y-49869875D01*
X128539999Y-49844794D01*
X128540000Y-49844791D01*
X128540000Y-49800000D01*
X127140001Y-49800000D01*
X127140001Y-49844785D01*
X127140002Y-49844808D01*
X127142908Y-49869869D01*
X127142909Y-49869872D01*
X127189016Y-49974297D01*
X127198087Y-50043575D01*
X127189015Y-50074468D01*
X127142416Y-50180003D01*
X127142415Y-50180008D01*
X127139500Y-50205131D01*
X127139500Y-50694856D01*
X127139502Y-50694882D01*
X127142413Y-50719986D01*
X127142414Y-50719990D01*
X127142415Y-50719991D01*
X127187794Y-50822765D01*
X127187795Y-50822766D01*
X127188743Y-50824913D01*
X127197814Y-50894191D01*
X127188743Y-50925085D01*
X127142415Y-51030009D01*
X127139500Y-51055131D01*
X127139500Y-51055137D01*
X127139501Y-51526000D01*
X127119817Y-51593039D01*
X127067013Y-51638794D01*
X127015501Y-51650000D01*
X126990000Y-51650000D01*
X126990000Y-52150000D01*
X127010000Y-52150000D01*
X127010000Y-52124000D01*
X127029685Y-52056961D01*
X127082489Y-52011206D01*
X127134000Y-52000000D01*
X128539999Y-52000000D01*
X128539999Y-51905214D01*
X128539997Y-51905191D01*
X128537091Y-51880130D01*
X128537090Y-51880127D01*
X128534644Y-51874587D01*
X128525572Y-51805309D01*
X128555395Y-51742124D01*
X128614644Y-51705092D01*
X128648078Y-51700500D01*
X130615781Y-51700500D01*
X130682820Y-51720185D01*
X130728575Y-51772989D01*
X130738897Y-51809716D01*
X130745122Y-51861562D01*
X130800639Y-52002343D01*
X130892077Y-52122922D01*
X131012656Y-52214360D01*
X131012657Y-52214360D01*
X131012658Y-52214361D01*
X131153436Y-52269877D01*
X131241898Y-52280500D01*
X131241903Y-52280500D01*
X132278097Y-52280500D01*
X132278102Y-52280500D01*
X132366564Y-52269877D01*
X132507342Y-52214361D01*
X132627922Y-52122922D01*
X132719361Y-52002342D01*
X132774877Y-51861564D01*
X132785500Y-51773102D01*
X132785500Y-51186898D01*
X132774888Y-51098530D01*
X132786440Y-51029625D01*
X132810320Y-50996071D01*
X133320480Y-50485913D01*
X133373207Y-50394588D01*
X133400500Y-50292727D01*
X133400500Y-50187273D01*
X133400500Y-48000098D01*
X133420185Y-47933059D01*
X133436819Y-47912417D01*
X133452420Y-47896816D01*
X133480520Y-47868716D01*
X133559577Y-47731784D01*
X133600500Y-47579057D01*
X133600500Y-47420943D01*
X133559577Y-47268216D01*
X133541712Y-47237273D01*
X133480524Y-47131290D01*
X133480518Y-47131282D01*
X133368717Y-47019481D01*
X133368709Y-47019475D01*
X133231790Y-46940426D01*
X133231786Y-46940424D01*
X133231784Y-46940423D01*
X133079057Y-46899500D01*
X132920943Y-46899500D01*
X132768216Y-46940423D01*
X132768209Y-46940426D01*
X132631290Y-47019475D01*
X132631282Y-47019481D01*
X132519481Y-47131282D01*
X132519477Y-47131287D01*
X132512386Y-47143570D01*
X132461818Y-47191785D01*
X132393211Y-47205006D01*
X132328347Y-47179037D01*
X132297614Y-47143570D01*
X132290522Y-47131287D01*
X132290518Y-47131282D01*
X132178717Y-47019481D01*
X132178709Y-47019475D01*
X132041790Y-46940426D01*
X132041786Y-46940424D01*
X132041784Y-46940423D01*
X131889057Y-46899500D01*
X131889056Y-46899500D01*
X131827254Y-46899500D01*
X131760215Y-46879815D01*
X131739573Y-46863181D01*
X131254272Y-46377880D01*
X130755913Y-45879520D01*
X130710250Y-45853156D01*
X130664589Y-45826793D01*
X130613657Y-45813146D01*
X130562727Y-45799500D01*
X130562726Y-45799500D01*
X128648625Y-45799500D01*
X128581586Y-45779815D01*
X128535831Y-45727011D01*
X128525887Y-45657853D01*
X128535191Y-45625412D01*
X128537585Y-45619991D01*
X128540500Y-45594865D01*
X128540499Y-45105136D01*
X128540497Y-45105117D01*
X128537586Y-45080012D01*
X128537585Y-45080008D01*
X128491257Y-44975086D01*
X128482185Y-44905808D01*
X128491257Y-44874913D01*
X128492204Y-44872766D01*
X128492206Y-44872765D01*
X128537585Y-44769991D01*
X128540500Y-44744865D01*
X128540499Y-44255136D01*
X128540497Y-44255117D01*
X128537586Y-44230012D01*
X128537585Y-44230008D01*
X128491257Y-44125086D01*
X128482185Y-44055808D01*
X128491257Y-44024913D01*
X128492204Y-44022766D01*
X128492206Y-44022765D01*
X128537585Y-43919991D01*
X128540500Y-43894865D01*
X128540499Y-43405136D01*
X128540497Y-43405117D01*
X128537586Y-43380012D01*
X128537585Y-43380008D01*
X128491257Y-43275086D01*
X128482185Y-43205808D01*
X128491257Y-43174913D01*
X128492204Y-43172766D01*
X128492206Y-43172765D01*
X128537585Y-43069991D01*
X128540500Y-43044865D01*
X128540499Y-42555136D01*
X128537779Y-42531678D01*
X128537586Y-42530012D01*
X128537585Y-42530008D01*
X128491257Y-42425086D01*
X128482185Y-42355808D01*
X128491257Y-42324913D01*
X128492204Y-42322766D01*
X128492206Y-42322765D01*
X128537585Y-42219991D01*
X128540500Y-42194865D01*
X128540499Y-41705136D01*
X128540497Y-41705117D01*
X128537586Y-41680012D01*
X128537585Y-41680010D01*
X128537585Y-41680009D01*
X128526360Y-41654586D01*
X128517288Y-41585308D01*
X128547112Y-41522123D01*
X128606361Y-41485092D01*
X128639794Y-41480500D01*
X132062725Y-41480500D01*
X132062727Y-41480500D01*
X132114220Y-41466702D01*
X132158925Y-41454725D01*
X132191017Y-41450500D01*
X132319055Y-41450500D01*
X132319057Y-41450500D01*
X132471784Y-41409577D01*
X132608716Y-41330520D01*
X132720520Y-41218716D01*
X132799577Y-41081784D01*
X132840500Y-40929057D01*
X132840500Y-40770943D01*
X132799577Y-40618216D01*
X132780644Y-40585422D01*
X132720524Y-40481290D01*
X132720518Y-40481282D01*
X132608717Y-40369481D01*
X132608709Y-40369475D01*
X132471790Y-40290426D01*
X132471786Y-40290424D01*
X132471784Y-40290423D01*
X132319057Y-40249500D01*
X132160943Y-40249500D01*
X132136590Y-40256025D01*
X132066740Y-40254360D01*
X132008879Y-40215196D01*
X131981377Y-40150967D01*
X131980500Y-40136249D01*
X131980500Y-40080945D01*
X131980500Y-40080943D01*
X131939577Y-39928216D01*
X131923403Y-39900201D01*
X131860524Y-39791290D01*
X131860518Y-39791282D01*
X131748717Y-39679481D01*
X131748709Y-39679475D01*
X131611790Y-39600426D01*
X131611786Y-39600424D01*
X131611784Y-39600423D01*
X131459057Y-39559500D01*
X131300943Y-39559500D01*
X131276590Y-39566025D01*
X131206740Y-39564360D01*
X131148879Y-39525196D01*
X131121377Y-39460967D01*
X131120500Y-39446249D01*
X131120500Y-39390945D01*
X131120500Y-39390943D01*
X131079577Y-39238216D01*
X131069090Y-39220052D01*
X131000524Y-39101290D01*
X131000518Y-39101282D01*
X130888717Y-38989481D01*
X130888709Y-38989475D01*
X130751790Y-38910426D01*
X130751786Y-38910424D01*
X130751784Y-38910423D01*
X130599057Y-38869500D01*
X130440943Y-38869500D01*
X130288216Y-38910423D01*
X130288209Y-38910426D01*
X130162702Y-38982887D01*
X130100703Y-38999500D01*
X128648079Y-38999500D01*
X128581040Y-38979815D01*
X128535285Y-38927011D01*
X128525341Y-38857853D01*
X128534645Y-38825413D01*
X128537089Y-38819877D01*
X128537089Y-38819875D01*
X128539999Y-38794794D01*
X128540000Y-38794791D01*
X128540000Y-38700000D01*
X127964000Y-38700000D01*
X127896961Y-38680315D01*
X127851206Y-38627511D01*
X127840000Y-38576000D01*
X127840000Y-38350000D01*
X127614000Y-38350000D01*
X127546961Y-38330315D01*
X127501206Y-38277511D01*
X127490000Y-38226000D01*
X127490000Y-38000000D01*
X128190000Y-38000000D01*
X128539999Y-38000000D01*
X128539999Y-37905214D01*
X128539997Y-37905191D01*
X128537091Y-37880130D01*
X128537090Y-37880126D01*
X128491788Y-37777525D01*
X128491785Y-37777520D01*
X128412479Y-37698214D01*
X128412474Y-37698211D01*
X128309876Y-37652910D01*
X128284794Y-37650000D01*
X128190000Y-37650000D01*
X128190000Y-38000000D01*
X127490000Y-38000000D01*
X127490000Y-37649999D01*
X127395215Y-37650000D01*
X127395191Y-37650002D01*
X127370130Y-37652908D01*
X127370126Y-37652909D01*
X127265702Y-37699016D01*
X127196423Y-37708086D01*
X127165531Y-37699015D01*
X127059995Y-37652416D01*
X127059991Y-37652415D01*
X127034865Y-37649500D01*
X126545143Y-37649500D01*
X126545117Y-37649502D01*
X126520012Y-37652413D01*
X126520010Y-37652414D01*
X126514585Y-37654810D01*
X126445307Y-37663881D01*
X126382122Y-37634057D01*
X126345092Y-37574807D01*
X126340500Y-37541375D01*
X126340500Y-36227275D01*
X126340500Y-36227273D01*
X126323383Y-36163392D01*
X126313207Y-36125412D01*
X126309836Y-36119573D01*
X126264194Y-36040519D01*
X126264194Y-36040520D01*
X126260480Y-36034087D01*
X126185913Y-35959520D01*
X126185912Y-35959519D01*
X126181582Y-35955189D01*
X126181571Y-35955179D01*
X125856819Y-35630426D01*
X125823334Y-35569103D01*
X125820500Y-35542745D01*
X125820500Y-35480945D01*
X125820500Y-35480943D01*
X125779577Y-35328216D01*
X125702567Y-35194829D01*
X125700524Y-35191290D01*
X125700518Y-35191282D01*
X125588717Y-35079481D01*
X125588709Y-35079475D01*
X125451790Y-35000426D01*
X125451786Y-35000424D01*
X125451784Y-35000423D01*
X125299057Y-34959500D01*
X125140943Y-34959500D01*
X125131620Y-34961997D01*
X125061772Y-34960333D01*
X125003910Y-34921169D01*
X124976408Y-34856940D01*
X124987996Y-34788038D01*
X125011847Y-34754544D01*
X126559573Y-33206819D01*
X126620896Y-33173334D01*
X126647254Y-33170500D01*
X141262745Y-33170500D01*
X141329784Y-33190185D01*
X141350426Y-33206819D01*
X142131426Y-33987819D01*
X142164911Y-34049142D01*
X142159927Y-34118834D01*
X142118055Y-34174767D01*
X142052591Y-34199184D01*
X142043745Y-34199500D01*
X134514120Y-34199500D01*
X134447081Y-34179815D01*
X134401326Y-34127011D01*
X134391005Y-34090287D01*
X134382377Y-34018436D01*
X134326861Y-33877658D01*
X134326860Y-33877657D01*
X134326860Y-33877656D01*
X134235422Y-33757077D01*
X134114843Y-33665639D01*
X133974061Y-33610122D01*
X133928426Y-33604642D01*
X133885602Y-33599500D01*
X133274398Y-33599500D01*
X133235353Y-33604188D01*
X133185938Y-33610122D01*
X133045156Y-33665639D01*
X132924577Y-33757077D01*
X132833139Y-33877656D01*
X132803165Y-33953663D01*
X132782853Y-34005171D01*
X132739949Y-34060314D01*
X132674041Y-34083507D01*
X132606056Y-34067386D01*
X132557580Y-34017070D01*
X132552148Y-34005178D01*
X132501861Y-33877658D01*
X132501860Y-33877657D01*
X132501860Y-33877656D01*
X132410422Y-33757077D01*
X132289843Y-33665639D01*
X132149061Y-33610122D01*
X132103426Y-33604642D01*
X132060602Y-33599500D01*
X131449398Y-33599500D01*
X131410353Y-33604188D01*
X131360938Y-33610122D01*
X131220156Y-33665639D01*
X131099577Y-33757077D01*
X131008139Y-33877656D01*
X130952622Y-34018438D01*
X130947594Y-34060314D01*
X130942000Y-34106898D01*
X130942000Y-35093102D01*
X130944809Y-35116492D01*
X130952622Y-35181561D01*
X130952622Y-35181563D01*
X130952623Y-35181564D01*
X130957854Y-35194829D01*
X131008139Y-35322343D01*
X131099577Y-35442922D01*
X131220156Y-35534360D01*
X131220157Y-35534360D01*
X131220158Y-35534361D01*
X131360936Y-35589877D01*
X131449398Y-35600500D01*
X131449403Y-35600500D01*
X132060597Y-35600500D01*
X132060602Y-35600500D01*
X132149064Y-35589877D01*
X132289842Y-35534361D01*
X132410422Y-35442922D01*
X132501861Y-35322342D01*
X132552146Y-35194826D01*
X132595051Y-35139685D01*
X132660959Y-35116492D01*
X132728943Y-35132612D01*
X132777420Y-35182929D01*
X132782848Y-35194814D01*
X132818152Y-35284339D01*
X132833139Y-35322343D01*
X132924577Y-35442922D01*
X133045156Y-35534360D01*
X133045157Y-35534360D01*
X133045158Y-35534361D01*
X133185936Y-35589877D01*
X133274398Y-35600500D01*
X133274403Y-35600500D01*
X133885597Y-35600500D01*
X133885602Y-35600500D01*
X133974064Y-35589877D01*
X134114842Y-35534361D01*
X134235422Y-35442922D01*
X134326861Y-35322342D01*
X134382377Y-35181564D01*
X134391005Y-35109714D01*
X134418541Y-35045502D01*
X134476423Y-35006369D01*
X134514120Y-35000500D01*
X142512745Y-35000500D01*
X142579784Y-35020185D01*
X142600426Y-35036819D01*
X148245799Y-40682192D01*
X148279284Y-40743515D01*
X148274300Y-40813207D01*
X148268603Y-40826167D01*
X148210254Y-40940683D01*
X148153322Y-41115905D01*
X148137038Y-41218716D01*
X148124500Y-41297880D01*
X148124500Y-41482120D01*
X148137806Y-41566127D01*
X148153322Y-41664094D01*
X148210253Y-41839313D01*
X148210255Y-41839316D01*
X148293899Y-42003475D01*
X148402193Y-42152529D01*
X148532471Y-42282807D01*
X148681525Y-42391101D01*
X148798101Y-42450500D01*
X148845686Y-42474746D01*
X148933295Y-42503211D01*
X149020907Y-42531678D01*
X149052441Y-42536672D01*
X149057835Y-42537527D01*
X149120970Y-42567456D01*
X149157901Y-42626768D01*
X149156903Y-42696630D01*
X149118293Y-42754863D01*
X149057835Y-42782473D01*
X149020905Y-42788322D01*
X148845686Y-42845253D01*
X148681524Y-42928899D01*
X148596484Y-42990684D01*
X148532471Y-43037193D01*
X148532469Y-43037195D01*
X148532468Y-43037195D01*
X148402195Y-43167468D01*
X148402195Y-43167469D01*
X148402193Y-43167471D01*
X148389066Y-43185539D01*
X148293899Y-43316524D01*
X148210253Y-43480686D01*
X148153322Y-43655905D01*
X148153322Y-43655907D01*
X148124500Y-43837880D01*
X148124500Y-44022120D01*
X148135915Y-44094191D01*
X148153322Y-44204094D01*
X148210253Y-44379313D01*
X148229178Y-44416455D01*
X148293899Y-44543475D01*
X148402193Y-44692529D01*
X148532471Y-44822807D01*
X148681525Y-44931101D01*
X148787260Y-44984976D01*
X148845686Y-45014746D01*
X148933295Y-45043211D01*
X149020907Y-45071678D01*
X149052441Y-45076672D01*
X149057835Y-45077527D01*
X149120970Y-45107456D01*
X149157901Y-45166768D01*
X149156903Y-45236630D01*
X149118293Y-45294863D01*
X149057835Y-45322473D01*
X149020905Y-45328322D01*
X148845686Y-45385253D01*
X148681526Y-45468898D01*
X148677723Y-45471229D01*
X148612935Y-45489500D01*
X145916024Y-45489500D01*
X145916008Y-45489499D01*
X145908412Y-45489499D01*
X145802958Y-45489499D01*
X145740754Y-45506167D01*
X145701097Y-45516793D01*
X145609769Y-45569522D01*
X135436111Y-55743181D01*
X135374788Y-55776666D01*
X135348430Y-55779500D01*
X104622273Y-55779500D01*
X104520413Y-55806793D01*
X104520410Y-55806794D01*
X104469101Y-55836418D01*
X104449094Y-55847969D01*
X104429088Y-55859519D01*
X104429085Y-55859521D01*
X102344847Y-57943759D01*
X102283524Y-57977244D01*
X102271950Y-57979194D01*
X102269402Y-57979500D01*
X102269398Y-57979500D01*
X102240789Y-57982935D01*
X102180937Y-57990122D01*
X102040156Y-58045639D01*
X101919577Y-58137077D01*
X101828139Y-58257656D01*
X101798165Y-58333663D01*
X101777853Y-58385171D01*
X101734949Y-58440314D01*
X101669041Y-58463507D01*
X101601056Y-58447386D01*
X101552580Y-58397070D01*
X101547148Y-58385178D01*
X101496861Y-58257658D01*
X101496860Y-58257657D01*
X101496860Y-58257656D01*
X101405422Y-58137077D01*
X101284843Y-58045639D01*
X101160856Y-57996745D01*
X101144064Y-57990123D01*
X101144063Y-57990122D01*
X101144061Y-57990122D01*
X101098426Y-57984642D01*
X101055602Y-57979500D01*
X101055597Y-57979500D01*
X100834500Y-57979500D01*
X100767461Y-57959815D01*
X100721706Y-57907011D01*
X100710500Y-57855500D01*
X100710500Y-53730000D01*
X130741838Y-53730000D01*
X130745613Y-53761442D01*
X130801079Y-53902095D01*
X130892435Y-54022564D01*
X131012904Y-54113920D01*
X131153556Y-54169386D01*
X131241946Y-54180000D01*
X131410000Y-54180000D01*
X132110000Y-54180000D01*
X132278054Y-54180000D01*
X132366443Y-54169386D01*
X132507095Y-54113920D01*
X132627564Y-54022564D01*
X132718920Y-53902095D01*
X132774386Y-53761442D01*
X132778162Y-53730000D01*
X132110000Y-53730000D01*
X132110000Y-54180000D01*
X131410000Y-54180000D01*
X131410000Y-53730000D01*
X130741838Y-53730000D01*
X100710500Y-53730000D01*
X100710500Y-52794785D01*
X113140001Y-52794785D01*
X113140002Y-52794808D01*
X113142908Y-52819869D01*
X113142909Y-52819873D01*
X113188211Y-52922474D01*
X113188214Y-52922479D01*
X113267520Y-53001785D01*
X113267525Y-53001788D01*
X113370123Y-53047089D01*
X113395206Y-53049999D01*
X113490000Y-53049998D01*
X113490000Y-52700000D01*
X114190000Y-52700000D01*
X114190000Y-53049999D01*
X114284786Y-53049999D01*
X114284808Y-53049997D01*
X114309869Y-53047091D01*
X114309872Y-53047090D01*
X114414914Y-53000711D01*
X114484192Y-52991640D01*
X114515084Y-53000711D01*
X114620123Y-53047089D01*
X114645205Y-53049999D01*
X114689999Y-53049999D01*
X115090000Y-53049999D01*
X115134786Y-53049999D01*
X115134808Y-53049997D01*
X115159869Y-53047091D01*
X115159872Y-53047090D01*
X115264914Y-53000711D01*
X115334192Y-52991640D01*
X115365084Y-53000711D01*
X115470123Y-53047089D01*
X115495205Y-53049999D01*
X115539999Y-53049999D01*
X115940000Y-53049999D01*
X115984786Y-53049999D01*
X115984808Y-53049997D01*
X116009869Y-53047091D01*
X116009872Y-53047090D01*
X116114914Y-53000711D01*
X116184192Y-52991640D01*
X116215084Y-53000711D01*
X116320123Y-53047089D01*
X116345205Y-53049999D01*
X116389999Y-53049999D01*
X116790000Y-53049999D01*
X116834786Y-53049999D01*
X116834808Y-53049997D01*
X116859869Y-53047091D01*
X116859872Y-53047090D01*
X116964914Y-53000711D01*
X117034192Y-52991640D01*
X117065084Y-53000711D01*
X117170123Y-53047089D01*
X117195205Y-53049999D01*
X117239999Y-53049999D01*
X117640000Y-53049999D01*
X117684786Y-53049999D01*
X117684808Y-53049997D01*
X117709869Y-53047091D01*
X117709872Y-53047090D01*
X117814914Y-53000711D01*
X117884192Y-52991640D01*
X117915084Y-53000711D01*
X118020123Y-53047089D01*
X118045205Y-53049999D01*
X118089999Y-53049999D01*
X118490000Y-53049999D01*
X118534786Y-53049999D01*
X118534808Y-53049997D01*
X118559869Y-53047091D01*
X118559872Y-53047090D01*
X118664914Y-53000711D01*
X118734192Y-52991640D01*
X118765084Y-53000711D01*
X118870123Y-53047089D01*
X118895205Y-53049999D01*
X118939999Y-53049999D01*
X119340000Y-53049999D01*
X119384786Y-53049999D01*
X119384808Y-53049997D01*
X119409869Y-53047091D01*
X119409872Y-53047090D01*
X119514914Y-53000711D01*
X119584192Y-52991640D01*
X119615084Y-53000711D01*
X119720123Y-53047089D01*
X119745205Y-53049999D01*
X119789999Y-53049999D01*
X120190000Y-53049999D01*
X120234786Y-53049999D01*
X120234808Y-53049997D01*
X120259869Y-53047091D01*
X120259872Y-53047090D01*
X120364914Y-53000711D01*
X120434192Y-52991640D01*
X120465084Y-53000711D01*
X120570123Y-53047089D01*
X120595205Y-53049999D01*
X120639999Y-53049999D01*
X121040000Y-53049999D01*
X121084786Y-53049999D01*
X121084808Y-53049997D01*
X121109869Y-53047091D01*
X121109872Y-53047090D01*
X121214914Y-53000711D01*
X121284192Y-52991640D01*
X121315084Y-53000711D01*
X121420123Y-53047089D01*
X121445205Y-53049999D01*
X121489999Y-53049999D01*
X121890000Y-53049999D01*
X121934786Y-53049999D01*
X121934808Y-53049997D01*
X121959869Y-53047091D01*
X121959872Y-53047090D01*
X122064914Y-53000711D01*
X122134192Y-52991640D01*
X122165084Y-53000711D01*
X122270123Y-53047089D01*
X122295205Y-53049999D01*
X122339999Y-53049999D01*
X122740000Y-53049999D01*
X122784786Y-53049999D01*
X122784808Y-53049997D01*
X122809869Y-53047091D01*
X122809872Y-53047090D01*
X122914914Y-53000711D01*
X122984192Y-52991640D01*
X123015084Y-53000711D01*
X123120123Y-53047089D01*
X123145205Y-53049999D01*
X123189999Y-53049999D01*
X123590000Y-53049999D01*
X123634786Y-53049999D01*
X123634808Y-53049997D01*
X123659869Y-53047091D01*
X123659872Y-53047090D01*
X123764914Y-53000711D01*
X123834192Y-52991640D01*
X123865084Y-53000711D01*
X123970123Y-53047089D01*
X123995205Y-53049999D01*
X124039999Y-53049999D01*
X124440000Y-53049999D01*
X124484786Y-53049999D01*
X124484808Y-53049997D01*
X124509869Y-53047091D01*
X124509872Y-53047090D01*
X124614914Y-53000711D01*
X124684192Y-52991640D01*
X124715084Y-53000711D01*
X124820123Y-53047089D01*
X124845205Y-53049999D01*
X124889999Y-53049999D01*
X125290000Y-53049999D01*
X125334786Y-53049999D01*
X125334808Y-53049997D01*
X125359869Y-53047091D01*
X125359872Y-53047090D01*
X125464914Y-53000711D01*
X125534192Y-52991640D01*
X125565084Y-53000711D01*
X125670123Y-53047089D01*
X125695205Y-53049999D01*
X125739999Y-53049999D01*
X126140000Y-53049999D01*
X126184786Y-53049999D01*
X126184808Y-53049997D01*
X126209869Y-53047091D01*
X126209872Y-53047090D01*
X126314914Y-53000711D01*
X126384192Y-52991640D01*
X126415084Y-53000711D01*
X126520123Y-53047089D01*
X126545205Y-53049999D01*
X126589999Y-53049999D01*
X126990000Y-53049999D01*
X127034786Y-53049999D01*
X127034808Y-53049997D01*
X127059869Y-53047091D01*
X127059872Y-53047090D01*
X127164914Y-53000711D01*
X127234192Y-52991640D01*
X127265084Y-53000711D01*
X127370123Y-53047089D01*
X127395206Y-53049999D01*
X128190000Y-53049999D01*
X128284786Y-53049999D01*
X128284808Y-53049997D01*
X128309869Y-53047091D01*
X128309873Y-53047090D01*
X128348579Y-53030000D01*
X130741838Y-53030000D01*
X131410000Y-53030000D01*
X132110000Y-53030000D01*
X132778161Y-53030000D01*
X132774386Y-52998557D01*
X132718920Y-52857904D01*
X132627564Y-52737435D01*
X132507095Y-52646079D01*
X132366443Y-52590613D01*
X132278054Y-52580000D01*
X132110000Y-52580000D01*
X132110000Y-53030000D01*
X131410000Y-53030000D01*
X131410000Y-52580000D01*
X131241946Y-52580000D01*
X131153556Y-52590613D01*
X131012904Y-52646079D01*
X130892435Y-52737435D01*
X130801079Y-52857904D01*
X130745613Y-52998557D01*
X130741838Y-53030000D01*
X128348579Y-53030000D01*
X128412474Y-53001788D01*
X128412479Y-53001785D01*
X128431369Y-52982896D01*
X128491785Y-52922479D01*
X128491788Y-52922474D01*
X128537089Y-52819877D01*
X128537089Y-52819875D01*
X128539999Y-52794794D01*
X128540000Y-52794791D01*
X128540000Y-52700000D01*
X128190000Y-52700000D01*
X128190000Y-53049999D01*
X127395206Y-53049999D01*
X127490000Y-53049998D01*
X127490000Y-52700000D01*
X127134000Y-52700000D01*
X127066961Y-52680315D01*
X127021206Y-52627511D01*
X127010000Y-52576000D01*
X127010000Y-52550000D01*
X126990000Y-52550000D01*
X126990000Y-53049999D01*
X126589999Y-53049999D01*
X126590000Y-53049998D01*
X126590000Y-52550000D01*
X126140000Y-52550000D01*
X126140000Y-53049999D01*
X125739999Y-53049999D01*
X125740000Y-53049998D01*
X125740000Y-52550000D01*
X125290000Y-52550000D01*
X125290000Y-53049999D01*
X124889999Y-53049999D01*
X124890000Y-53049998D01*
X124890000Y-52550000D01*
X124440000Y-52550000D01*
X124440000Y-53049999D01*
X124039999Y-53049999D01*
X124040000Y-53049998D01*
X124040000Y-52550000D01*
X123590000Y-52550000D01*
X123590000Y-53049999D01*
X123189999Y-53049999D01*
X123190000Y-53049998D01*
X123190000Y-52550000D01*
X122740000Y-52550000D01*
X122740000Y-53049999D01*
X122339999Y-53049999D01*
X122340000Y-53049998D01*
X122340000Y-52550000D01*
X121890000Y-52550000D01*
X121890000Y-53049999D01*
X121489999Y-53049999D01*
X121490000Y-53049998D01*
X121490000Y-52550000D01*
X121040000Y-52550000D01*
X121040000Y-53049999D01*
X120639999Y-53049999D01*
X120640000Y-53049998D01*
X120640000Y-52550000D01*
X120190000Y-52550000D01*
X120190000Y-53049999D01*
X119789999Y-53049999D01*
X119790000Y-53049998D01*
X119790000Y-52550000D01*
X119340000Y-52550000D01*
X119340000Y-53049999D01*
X118939999Y-53049999D01*
X118940000Y-53049998D01*
X118940000Y-52550000D01*
X118490000Y-52550000D01*
X118490000Y-53049999D01*
X118089999Y-53049999D01*
X118090000Y-53049998D01*
X118090000Y-52550000D01*
X117640000Y-52550000D01*
X117640000Y-53049999D01*
X117239999Y-53049999D01*
X117240000Y-53049998D01*
X117240000Y-52550000D01*
X116790000Y-52550000D01*
X116790000Y-53049999D01*
X116389999Y-53049999D01*
X116390000Y-53049998D01*
X116390000Y-52550000D01*
X115940000Y-52550000D01*
X115940000Y-53049999D01*
X115539999Y-53049999D01*
X115540000Y-53049998D01*
X115540000Y-52550000D01*
X115090000Y-52550000D01*
X115090000Y-53049999D01*
X114689999Y-53049999D01*
X114690000Y-53049998D01*
X114690000Y-52550000D01*
X114670000Y-52550000D01*
X114670000Y-52576000D01*
X114650315Y-52643039D01*
X114597511Y-52688794D01*
X114546000Y-52700000D01*
X114190000Y-52700000D01*
X113490000Y-52700000D01*
X113140001Y-52700000D01*
X113140001Y-52794785D01*
X100710500Y-52794785D01*
X100710500Y-51922063D01*
X113140000Y-51922063D01*
X113140000Y-52000000D01*
X113490000Y-52000000D01*
X113490000Y-51644000D01*
X113509685Y-51576961D01*
X113515647Y-51568484D01*
X113552873Y-51520000D01*
X114040000Y-51520000D01*
X114066000Y-51520000D01*
X114133039Y-51539685D01*
X114178794Y-51592489D01*
X114190000Y-51644000D01*
X114190000Y-52000000D01*
X114546000Y-52000000D01*
X114613039Y-52019685D01*
X114658794Y-52072489D01*
X114670000Y-52124000D01*
X114670000Y-52150000D01*
X114690000Y-52150000D01*
X115090000Y-52150000D01*
X115540000Y-52150000D01*
X115940000Y-52150000D01*
X116390000Y-52150000D01*
X116790000Y-52150000D01*
X117240000Y-52150000D01*
X117640000Y-52150000D01*
X118090000Y-52150000D01*
X118490000Y-52150000D01*
X118940000Y-52150000D01*
X119340000Y-52150000D01*
X119790000Y-52150000D01*
X120190000Y-52150000D01*
X120640000Y-52150000D01*
X121040000Y-52150000D01*
X121490000Y-52150000D01*
X121890000Y-52150000D01*
X122340000Y-52150000D01*
X122740000Y-52150000D01*
X123190000Y-52150000D01*
X123590000Y-52150000D01*
X124040000Y-52150000D01*
X124440000Y-52150000D01*
X124890000Y-52150000D01*
X125290000Y-52150000D01*
X125740000Y-52150000D01*
X126140000Y-52150000D01*
X126590000Y-52150000D01*
X126590000Y-51650000D01*
X126545203Y-51650000D01*
X126520130Y-51652908D01*
X126520124Y-51652910D01*
X126415084Y-51699288D01*
X126345806Y-51708358D01*
X126314915Y-51699288D01*
X126209876Y-51652910D01*
X126184794Y-51650000D01*
X126140000Y-51650000D01*
X126140000Y-52150000D01*
X125740000Y-52150000D01*
X125740000Y-51650000D01*
X125695203Y-51650000D01*
X125670130Y-51652908D01*
X125670124Y-51652910D01*
X125565084Y-51699288D01*
X125495806Y-51708358D01*
X125464915Y-51699288D01*
X125359876Y-51652910D01*
X125334794Y-51650000D01*
X125290000Y-51650000D01*
X125290000Y-52150000D01*
X124890000Y-52150000D01*
X124890000Y-51650000D01*
X124845203Y-51650000D01*
X124820130Y-51652908D01*
X124820124Y-51652910D01*
X124715084Y-51699288D01*
X124645806Y-51708358D01*
X124614915Y-51699288D01*
X124509876Y-51652910D01*
X124484794Y-51650000D01*
X124440000Y-51650000D01*
X124440000Y-52150000D01*
X124040000Y-52150000D01*
X124040000Y-51650000D01*
X123995203Y-51650000D01*
X123970130Y-51652908D01*
X123970124Y-51652910D01*
X123865084Y-51699288D01*
X123795806Y-51708358D01*
X123764915Y-51699288D01*
X123659876Y-51652910D01*
X123634794Y-51650000D01*
X123590000Y-51650000D01*
X123590000Y-52150000D01*
X123190000Y-52150000D01*
X123190000Y-51650000D01*
X123145203Y-51650000D01*
X123120130Y-51652908D01*
X123120124Y-51652910D01*
X123015084Y-51699288D01*
X122945806Y-51708358D01*
X122914915Y-51699288D01*
X122809876Y-51652910D01*
X122784794Y-51650000D01*
X122740000Y-51650000D01*
X122740000Y-52150000D01*
X122340000Y-52150000D01*
X122340000Y-51650000D01*
X122295203Y-51650000D01*
X122270130Y-51652908D01*
X122270124Y-51652910D01*
X122165084Y-51699288D01*
X122095806Y-51708358D01*
X122064915Y-51699288D01*
X121959876Y-51652910D01*
X121934794Y-51650000D01*
X121890000Y-51650000D01*
X121890000Y-52150000D01*
X121490000Y-52150000D01*
X121490000Y-51650000D01*
X121445203Y-51650000D01*
X121420130Y-51652908D01*
X121420124Y-51652910D01*
X121315084Y-51699288D01*
X121245806Y-51708358D01*
X121214915Y-51699288D01*
X121109876Y-51652910D01*
X121084794Y-51650000D01*
X121040000Y-51650000D01*
X121040000Y-52150000D01*
X120640000Y-52150000D01*
X120640000Y-51650000D01*
X120595203Y-51650000D01*
X120570130Y-51652908D01*
X120570124Y-51652910D01*
X120465084Y-51699288D01*
X120395806Y-51708358D01*
X120364915Y-51699288D01*
X120259876Y-51652910D01*
X120234794Y-51650000D01*
X120190000Y-51650000D01*
X120190000Y-52150000D01*
X119790000Y-52150000D01*
X119790000Y-51650000D01*
X119745203Y-51650000D01*
X119720130Y-51652908D01*
X119720124Y-51652910D01*
X119615084Y-51699288D01*
X119545806Y-51708358D01*
X119514915Y-51699288D01*
X119409876Y-51652910D01*
X119384794Y-51650000D01*
X119340000Y-51650000D01*
X119340000Y-52150000D01*
X118940000Y-52150000D01*
X118940000Y-51650000D01*
X118895203Y-51650000D01*
X118870130Y-51652908D01*
X118870124Y-51652910D01*
X118765084Y-51699288D01*
X118695806Y-51708358D01*
X118664915Y-51699288D01*
X118559876Y-51652910D01*
X118534794Y-51650000D01*
X118490000Y-51650000D01*
X118490000Y-52150000D01*
X118090000Y-52150000D01*
X118090000Y-51650000D01*
X118045203Y-51650000D01*
X118020130Y-51652908D01*
X118020124Y-51652910D01*
X117915084Y-51699288D01*
X117845806Y-51708358D01*
X117814915Y-51699288D01*
X117709876Y-51652910D01*
X117684794Y-51650000D01*
X117640000Y-51650000D01*
X117640000Y-52150000D01*
X117240000Y-52150000D01*
X117240000Y-51650000D01*
X117195203Y-51650000D01*
X117170130Y-51652908D01*
X117170124Y-51652910D01*
X117065084Y-51699288D01*
X116995806Y-51708358D01*
X116964915Y-51699288D01*
X116859876Y-51652910D01*
X116834794Y-51650000D01*
X116790000Y-51650000D01*
X116790000Y-52150000D01*
X116390000Y-52150000D01*
X116390000Y-51650000D01*
X116345203Y-51650000D01*
X116320130Y-51652908D01*
X116320124Y-51652910D01*
X116215084Y-51699288D01*
X116145806Y-51708358D01*
X116114915Y-51699288D01*
X116009876Y-51652910D01*
X115984794Y-51650000D01*
X115940000Y-51650000D01*
X115940000Y-52150000D01*
X115540000Y-52150000D01*
X115540000Y-51650000D01*
X115495203Y-51650000D01*
X115470130Y-51652908D01*
X115470124Y-51652910D01*
X115365084Y-51699288D01*
X115295806Y-51708358D01*
X115264915Y-51699288D01*
X115159876Y-51652910D01*
X115134794Y-51650000D01*
X115090000Y-51650000D01*
X115090000Y-52150000D01*
X114690000Y-52150000D01*
X114690000Y-51650000D01*
X114689999Y-51649999D01*
X114664002Y-51650000D01*
X114596962Y-51630316D01*
X114551206Y-51577513D01*
X114540000Y-51526000D01*
X114540000Y-51500000D01*
X114040000Y-51500000D01*
X114040000Y-51520000D01*
X113552873Y-51520000D01*
X113568229Y-51500000D01*
X113140001Y-51500000D01*
X113140001Y-51544785D01*
X113140002Y-51544808D01*
X113142908Y-51569869D01*
X113142909Y-51569873D01*
X113189288Y-51674914D01*
X113192939Y-51702804D01*
X113199748Y-51730097D01*
X113197848Y-51740305D01*
X113198358Y-51744193D01*
X113194995Y-51755646D01*
X113193293Y-51764796D01*
X113140000Y-51922063D01*
X100710500Y-51922063D01*
X100710500Y-51072063D01*
X113140000Y-51072063D01*
X113140000Y-51100000D01*
X113640000Y-51100000D01*
X114040000Y-51100000D01*
X114539999Y-51100000D01*
X114539999Y-51055214D01*
X114539997Y-51055191D01*
X114537091Y-51030130D01*
X114537090Y-51030127D01*
X114490711Y-50925085D01*
X114481640Y-50855807D01*
X114490711Y-50824914D01*
X114537089Y-50719875D01*
X114539999Y-50694794D01*
X114540000Y-50694791D01*
X114540000Y-50650000D01*
X114040000Y-50650000D01*
X114040000Y-51100000D01*
X113640000Y-51100000D01*
X113640000Y-50650000D01*
X113140001Y-50650000D01*
X113140001Y-50694785D01*
X113140002Y-50694808D01*
X113142908Y-50719869D01*
X113142909Y-50719873D01*
X113189288Y-50824914D01*
X113192939Y-50852804D01*
X113199748Y-50880097D01*
X113197848Y-50890305D01*
X113198358Y-50894193D01*
X113194995Y-50905646D01*
X113193293Y-50914796D01*
X113140000Y-51072063D01*
X100710500Y-51072063D01*
X100710500Y-43767255D01*
X100730185Y-43700216D01*
X100746819Y-43679574D01*
X106149574Y-38276819D01*
X106210897Y-38243334D01*
X106237255Y-38240500D01*
X106299055Y-38240500D01*
X106299057Y-38240500D01*
X106451784Y-38199577D01*
X106588716Y-38120520D01*
X106700520Y-38008716D01*
X106779577Y-37871784D01*
X106820500Y-37719057D01*
X106820500Y-37560943D01*
X106779577Y-37408216D01*
X106779573Y-37408209D01*
X106700524Y-37271290D01*
X106700518Y-37271282D01*
X106588717Y-37159481D01*
X106588709Y-37159475D01*
X106451790Y-37080426D01*
X106451786Y-37080424D01*
X106451784Y-37080423D01*
X106299057Y-37039500D01*
X106140943Y-37039500D01*
X105988216Y-37080423D01*
X105988209Y-37080426D01*
X105851290Y-37159475D01*
X105851282Y-37159481D01*
X105739481Y-37271282D01*
X105739475Y-37271290D01*
X105660426Y-37408209D01*
X105660423Y-37408216D01*
X105619500Y-37560943D01*
X105619500Y-37622744D01*
X105599815Y-37689783D01*
X105583181Y-37710425D01*
X103617181Y-39676425D01*
X103555858Y-39709910D01*
X103486166Y-39704926D01*
X103430233Y-39663054D01*
X103405816Y-39597590D01*
X103405500Y-39588744D01*
X103405500Y-39555889D01*
X103390466Y-39460967D01*
X103378402Y-39384799D01*
X103324873Y-39220055D01*
X103246232Y-39065712D01*
X103144414Y-38925572D01*
X103021928Y-38803086D01*
X102881788Y-38701268D01*
X102754311Y-38636316D01*
X102727447Y-38622628D01*
X102727446Y-38622627D01*
X102727445Y-38622627D01*
X102562701Y-38569098D01*
X102562699Y-38569097D01*
X102562698Y-38569097D01*
X102431271Y-38548281D01*
X102391611Y-38542000D01*
X102218389Y-38542000D01*
X102178728Y-38548281D01*
X102047302Y-38569097D01*
X101882552Y-38622628D01*
X101728211Y-38701268D01*
X101648256Y-38759359D01*
X101588072Y-38803086D01*
X101588070Y-38803088D01*
X101588069Y-38803088D01*
X101465588Y-38925569D01*
X101465588Y-38925570D01*
X101465586Y-38925572D01*
X101434273Y-38968671D01*
X101363768Y-39065711D01*
X101285128Y-39220052D01*
X101231597Y-39384802D01*
X101204500Y-39555889D01*
X101204500Y-39729110D01*
X101227960Y-39877235D01*
X101231598Y-39900201D01*
X101285127Y-40064945D01*
X101363768Y-40219288D01*
X101465586Y-40359428D01*
X101588072Y-40481914D01*
X101728212Y-40583732D01*
X101882555Y-40662373D01*
X102047299Y-40715902D01*
X102218389Y-40743000D01*
X102218390Y-40743000D01*
X102251244Y-40743000D01*
X102318283Y-40762685D01*
X102364038Y-40815489D01*
X102373982Y-40884647D01*
X102344957Y-40948203D01*
X102338925Y-40954681D01*
X100402181Y-42891425D01*
X100340858Y-42924910D01*
X100271166Y-42919926D01*
X100215233Y-42878054D01*
X100190816Y-42812590D01*
X100190500Y-42803744D01*
X100190500Y-35277297D01*
X100210185Y-35210258D01*
X100262989Y-35164503D01*
X100329284Y-35154182D01*
X100381896Y-35160500D01*
X100381898Y-35160500D01*
X100993097Y-35160500D01*
X100993102Y-35160500D01*
X101081564Y-35149877D01*
X101222342Y-35094361D01*
X101342922Y-35002922D01*
X101434361Y-34882342D01*
X101484646Y-34754826D01*
X101527551Y-34699685D01*
X101593459Y-34676492D01*
X101661443Y-34692612D01*
X101709920Y-34742929D01*
X101715348Y-34754814D01*
X101737213Y-34810259D01*
X101765639Y-34882343D01*
X101857077Y-35002922D01*
X101977656Y-35094360D01*
X101977657Y-35094360D01*
X101977658Y-35094361D01*
X102118436Y-35149877D01*
X102206898Y-35160500D01*
X102206903Y-35160500D01*
X102818097Y-35160500D01*
X102818102Y-35160500D01*
X102906564Y-35149877D01*
X103047342Y-35094361D01*
X103167922Y-35002922D01*
X103259361Y-34882342D01*
X103314877Y-34741564D01*
X103325500Y-34653102D01*
X103325500Y-33666898D01*
X103314877Y-33578436D01*
X103259361Y-33437658D01*
X103259360Y-33437657D01*
X103259360Y-33437656D01*
X103167922Y-33317077D01*
X103047343Y-33225639D01*
X103021134Y-33215303D01*
X102991508Y-33203621D01*
X102936366Y-33160716D01*
X102913173Y-33094808D01*
X102913000Y-33088267D01*
X102913000Y-32771389D01*
X102913001Y-32771376D01*
X102913001Y-32655934D01*
X102898308Y-32601100D01*
X102885707Y-32554073D01*
X102832980Y-32462747D01*
X102832977Y-32462744D01*
X102786562Y-32416328D01*
X102753078Y-32355005D01*
X102758063Y-32285313D01*
X102799935Y-32229380D01*
X102859458Y-32205533D01*
X102906564Y-32199877D01*
X103047342Y-32144361D01*
X103167922Y-32052922D01*
X103259361Y-31932342D01*
X103314877Y-31791564D01*
X103325500Y-31703102D01*
X103325500Y-30716898D01*
X103314877Y-30628436D01*
X103259361Y-30487658D01*
X103259360Y-30487657D01*
X103259360Y-30487656D01*
X103167922Y-30367077D01*
X103047343Y-30275639D01*
X103021134Y-30265303D01*
X102991508Y-30253621D01*
X102936366Y-30210716D01*
X102913173Y-30144808D01*
X102913000Y-30138267D01*
X102913000Y-28306941D01*
X102932685Y-28239902D01*
X102985489Y-28194147D01*
X103054647Y-28184203D01*
X103118203Y-28213228D01*
X103124681Y-28219260D01*
X104885333Y-29979912D01*
X104885334Y-29979913D01*
X104959901Y-30054480D01*
X105051227Y-30107207D01*
X105153087Y-30134500D01*
X105365500Y-30134500D01*
X105432539Y-30154185D01*
X105478294Y-30206989D01*
X105489500Y-30258500D01*
X105489500Y-30595636D01*
X105500134Y-30668625D01*
X105500134Y-30668626D01*
X105500135Y-30668628D01*
X105555172Y-30781210D01*
X105643789Y-30869827D01*
X105736194Y-30915000D01*
X105756375Y-30924866D01*
X105829364Y-30935500D01*
X105829370Y-30935500D01*
X107720630Y-30935500D01*
X107720636Y-30935500D01*
X107793625Y-30924866D01*
X107851268Y-30896686D01*
X107906210Y-30869827D01*
X107994827Y-30781210D01*
X108031011Y-30707193D01*
X108049866Y-30668625D01*
X108060500Y-30595636D01*
X108060500Y-30074364D01*
X108060500Y-30069877D01*
X108061743Y-30069877D01*
X108075351Y-30007017D01*
X108096558Y-29978657D01*
X108888986Y-29186231D01*
X108950309Y-29152746D01*
X108976667Y-29149912D01*
X109038467Y-29149912D01*
X109038469Y-29149912D01*
X109191196Y-29108989D01*
X109328128Y-29029932D01*
X109439932Y-28918128D01*
X109518989Y-28781196D01*
X109559912Y-28628469D01*
X109559912Y-28566667D01*
X109579597Y-28499628D01*
X109596231Y-28478986D01*
X110218319Y-27856898D01*
X110279642Y-27823413D01*
X110349334Y-27828397D01*
G37*
%TD.AperFunction*%
%TA.AperFunction,Conductor*%
G36*
X125900784Y-32520185D02*
G01*
X125946539Y-32572989D01*
X125956483Y-32642147D01*
X125927458Y-32705703D01*
X125921426Y-32712181D01*
X122219522Y-36414084D01*
X122219518Y-36414090D01*
X122166792Y-36505412D01*
X122166793Y-36505413D01*
X122139500Y-36607273D01*
X122139500Y-37541374D01*
X122119815Y-37608413D01*
X122067011Y-37654168D01*
X121997853Y-37664112D01*
X121965419Y-37654811D01*
X121959992Y-37652415D01*
X121934865Y-37649500D01*
X121445143Y-37649500D01*
X121445117Y-37649502D01*
X121420013Y-37652413D01*
X121315086Y-37698743D01*
X121245807Y-37707814D01*
X121214914Y-37698743D01*
X121210498Y-37696793D01*
X121109991Y-37652415D01*
X121084865Y-37649500D01*
X120595143Y-37649500D01*
X120595117Y-37649502D01*
X120570012Y-37652413D01*
X120570010Y-37652414D01*
X120564585Y-37654810D01*
X120495307Y-37663881D01*
X120432122Y-37634057D01*
X120395092Y-37574807D01*
X120390500Y-37541375D01*
X120390500Y-34120098D01*
X120410185Y-34053059D01*
X120426819Y-34032417D01*
X120442166Y-34017070D01*
X120470520Y-33988716D01*
X120549577Y-33851784D01*
X120590500Y-33699057D01*
X120590500Y-33540943D01*
X120549577Y-33388216D01*
X120508506Y-33317078D01*
X120470524Y-33251290D01*
X120470518Y-33251282D01*
X120358717Y-33139481D01*
X120358709Y-33139475D01*
X120221790Y-33060426D01*
X120221786Y-33060424D01*
X120221784Y-33060423D01*
X120069057Y-33019500D01*
X119910943Y-33019500D01*
X119758216Y-33060423D01*
X119758209Y-33060426D01*
X119621290Y-33139475D01*
X119621282Y-33139481D01*
X119606681Y-33154083D01*
X119545358Y-33187568D01*
X119475666Y-33182584D01*
X119431319Y-33154083D01*
X119416717Y-33139481D01*
X119416709Y-33139475D01*
X119279790Y-33060426D01*
X119279786Y-33060424D01*
X119279784Y-33060423D01*
X119127057Y-33019500D01*
X118968943Y-33019500D01*
X118816216Y-33060423D01*
X118816209Y-33060426D01*
X118679290Y-33139475D01*
X118679282Y-33139481D01*
X118664681Y-33154083D01*
X118603358Y-33187568D01*
X118533666Y-33182584D01*
X118489319Y-33154083D01*
X118474717Y-33139481D01*
X118474709Y-33139475D01*
X118337790Y-33060426D01*
X118337786Y-33060424D01*
X118337784Y-33060423D01*
X118185057Y-33019500D01*
X118026943Y-33019500D01*
X117874216Y-33060423D01*
X117874209Y-33060426D01*
X117737290Y-33139475D01*
X117737282Y-33139481D01*
X117722681Y-33154083D01*
X117661358Y-33187568D01*
X117591666Y-33182584D01*
X117547319Y-33154083D01*
X117532717Y-33139481D01*
X117532709Y-33139475D01*
X117395790Y-33060426D01*
X117395786Y-33060424D01*
X117395784Y-33060423D01*
X117243057Y-33019500D01*
X117084943Y-33019500D01*
X116932216Y-33060423D01*
X116932209Y-33060426D01*
X116795290Y-33139475D01*
X116795282Y-33139481D01*
X116780681Y-33154083D01*
X116719358Y-33187568D01*
X116649666Y-33182584D01*
X116605319Y-33154083D01*
X116590717Y-33139481D01*
X116590709Y-33139475D01*
X116453790Y-33060426D01*
X116453786Y-33060424D01*
X116453784Y-33060423D01*
X116301057Y-33019500D01*
X116142943Y-33019500D01*
X115990216Y-33060423D01*
X115990209Y-33060426D01*
X115853290Y-33139475D01*
X115853282Y-33139481D01*
X115838681Y-33154083D01*
X115777358Y-33187568D01*
X115707666Y-33182584D01*
X115663319Y-33154083D01*
X115648717Y-33139481D01*
X115648709Y-33139475D01*
X115511790Y-33060426D01*
X115511786Y-33060424D01*
X115511784Y-33060423D01*
X115359057Y-33019500D01*
X115200943Y-33019500D01*
X115048216Y-33060423D01*
X115048209Y-33060426D01*
X114911290Y-33139475D01*
X114911282Y-33139481D01*
X114799481Y-33251282D01*
X114799475Y-33251290D01*
X114720426Y-33388209D01*
X114720423Y-33388216D01*
X114679500Y-33540943D01*
X114679500Y-33699057D01*
X114695047Y-33757077D01*
X114720423Y-33851783D01*
X114720426Y-33851790D01*
X114799475Y-33988709D01*
X114799481Y-33988717D01*
X114843181Y-34032417D01*
X114857884Y-34059344D01*
X114874477Y-34085163D01*
X114875368Y-34091363D01*
X114876666Y-34093740D01*
X114879500Y-34120098D01*
X114879500Y-34302745D01*
X114859815Y-34369784D01*
X114843181Y-34390426D01*
X114569522Y-34664084D01*
X114569520Y-34664087D01*
X114517130Y-34754829D01*
X114516793Y-34755412D01*
X114504427Y-34801564D01*
X114499356Y-34820489D01*
X114489500Y-34857270D01*
X114489500Y-37541920D01*
X114469815Y-37608959D01*
X114417011Y-37654714D01*
X114347853Y-37664658D01*
X114315420Y-37655357D01*
X114309881Y-37652911D01*
X114309875Y-37652910D01*
X114284794Y-37650000D01*
X114190000Y-37650000D01*
X114190000Y-38226000D01*
X114170315Y-38293039D01*
X114117511Y-38338794D01*
X114066000Y-38350000D01*
X113840000Y-38350000D01*
X113840000Y-38576000D01*
X113820315Y-38643039D01*
X113767511Y-38688794D01*
X113716000Y-38700000D01*
X113140001Y-38700000D01*
X113140001Y-38794785D01*
X113140002Y-38794808D01*
X113142908Y-38819869D01*
X113142909Y-38819872D01*
X113145356Y-38825413D01*
X113154428Y-38894691D01*
X113124605Y-38957876D01*
X113065356Y-38994908D01*
X113031922Y-38999500D01*
X109640098Y-38999500D01*
X109573059Y-38979815D01*
X109552417Y-38963181D01*
X109494097Y-38904861D01*
X109494089Y-38904855D01*
X109357170Y-38825806D01*
X109357166Y-38825804D01*
X109357164Y-38825803D01*
X109204437Y-38784880D01*
X109046323Y-38784880D01*
X108893596Y-38825803D01*
X108893589Y-38825806D01*
X108756670Y-38904855D01*
X108756662Y-38904861D01*
X108644858Y-39016665D01*
X108642872Y-39019254D01*
X108640641Y-39020882D01*
X108639113Y-39022411D01*
X108638874Y-39022172D01*
X108586442Y-39060454D01*
X108516696Y-39064606D01*
X108455777Y-39030390D01*
X108423027Y-38968671D01*
X108420500Y-38943763D01*
X108420500Y-38577255D01*
X108440185Y-38510216D01*
X108456819Y-38489574D01*
X109041188Y-37905205D01*
X113140000Y-37905205D01*
X113140000Y-38000000D01*
X113490000Y-38000000D01*
X113490000Y-37649999D01*
X113395215Y-37650000D01*
X113395191Y-37650002D01*
X113370130Y-37652908D01*
X113370126Y-37652909D01*
X113267525Y-37698211D01*
X113267520Y-37698214D01*
X113188214Y-37777520D01*
X113188211Y-37777525D01*
X113142910Y-37880122D01*
X113142910Y-37880124D01*
X113140000Y-37905205D01*
X109041188Y-37905205D01*
X114409574Y-32536819D01*
X114470897Y-32503334D01*
X114497255Y-32500500D01*
X125833745Y-32500500D01*
X125900784Y-32520185D01*
G37*
%TD.AperFunction*%
%TA.AperFunction,Conductor*%
G36*
X96200226Y-22430185D02*
G01*
X96220868Y-22446819D01*
X101262181Y-27488130D01*
X101295666Y-27549453D01*
X101298500Y-27575811D01*
X101298500Y-30123478D01*
X101278815Y-30190517D01*
X101226011Y-30236272D01*
X101156853Y-30246216D01*
X101129012Y-30238833D01*
X101081565Y-30220123D01*
X101066820Y-30218352D01*
X100993102Y-30209500D01*
X100381898Y-30209500D01*
X100342853Y-30214188D01*
X100293438Y-30220122D01*
X100152656Y-30275639D01*
X100032077Y-30367077D01*
X99940639Y-30487656D01*
X99885120Y-30628443D01*
X99883173Y-30636148D01*
X99880754Y-30635536D01*
X99858079Y-30688372D01*
X99800186Y-30727489D01*
X99730335Y-30729096D01*
X99674842Y-30697028D01*
X99226819Y-30249005D01*
X99193334Y-30187682D01*
X99190500Y-30161324D01*
X99190500Y-28604110D01*
X99190500Y-28604108D01*
X99156392Y-28476814D01*
X99149282Y-28464500D01*
X99142817Y-28453302D01*
X99090500Y-28362686D01*
X98997314Y-28269500D01*
X94307314Y-23579500D01*
X94250250Y-23546554D01*
X94193187Y-23513608D01*
X94129539Y-23496554D01*
X94065892Y-23479500D01*
X94065891Y-23479500D01*
X93769500Y-23479500D01*
X93702461Y-23459815D01*
X93656706Y-23407011D01*
X93645500Y-23355500D01*
X93645500Y-23316903D01*
X93645500Y-23316898D01*
X93634877Y-23228436D01*
X93579361Y-23087658D01*
X93579360Y-23087657D01*
X93579360Y-23087656D01*
X93487922Y-22967077D01*
X93367343Y-22875639D01*
X93226561Y-22820122D01*
X93180926Y-22814642D01*
X93138102Y-22809500D01*
X91361898Y-22809500D01*
X91322853Y-22814188D01*
X91273438Y-22820122D01*
X91132656Y-22875639D01*
X91012077Y-22967077D01*
X90920639Y-23087656D01*
X90865122Y-23228438D01*
X90859188Y-23277853D01*
X90854500Y-23316898D01*
X90854500Y-24643102D01*
X90860126Y-24689954D01*
X90865122Y-24731561D01*
X90920639Y-24872343D01*
X91012077Y-24992922D01*
X91132656Y-25084360D01*
X91132657Y-25084360D01*
X91132658Y-25084361D01*
X91273436Y-25139877D01*
X91361898Y-25150500D01*
X91361903Y-25150500D01*
X91670781Y-25150500D01*
X91737820Y-25170185D01*
X91783575Y-25222989D01*
X91793519Y-25292147D01*
X91764494Y-25355703D01*
X91709100Y-25392431D01*
X91575871Y-25435719D01*
X91411785Y-25519326D01*
X91262794Y-25627576D01*
X91262793Y-25627576D01*
X91132576Y-25757793D01*
X91132576Y-25757794D01*
X91024326Y-25906785D01*
X90940717Y-26070875D01*
X90940716Y-26070878D01*
X90908510Y-26169999D01*
X90908511Y-26170000D01*
X91765027Y-26170000D01*
X91695548Y-26290339D01*
X91655000Y-26441667D01*
X91655000Y-26598333D01*
X91695548Y-26749661D01*
X91765027Y-26870000D01*
X90908510Y-26870000D01*
X90932819Y-26944816D01*
X90934814Y-27014657D01*
X90898733Y-27074489D01*
X90836032Y-27105317D01*
X90766618Y-27097352D01*
X90727207Y-27070814D01*
X90376819Y-26720426D01*
X90343334Y-26659103D01*
X90340500Y-26632745D01*
X90340500Y-23024354D01*
X90360185Y-22957315D01*
X90376819Y-22936673D01*
X90866673Y-22446819D01*
X90927996Y-22413334D01*
X90954354Y-22410500D01*
X96133187Y-22410500D01*
X96200226Y-22430185D01*
G37*
%TD.AperFunction*%
%TA.AperFunction,Conductor*%
G36*
X154962539Y-9110185D02*
G01*
X155008294Y-9162989D01*
X155019500Y-9214500D01*
X155019500Y-87965500D01*
X154999815Y-88032539D01*
X154947011Y-88078294D01*
X154895500Y-88089500D01*
X86144500Y-88089500D01*
X86077461Y-88069815D01*
X86031706Y-88017011D01*
X86020500Y-87965500D01*
X86020500Y-83929256D01*
X88320000Y-83929256D01*
X88320000Y-84230743D01*
X88320001Y-84230759D01*
X88359353Y-84529667D01*
X88437389Y-84820901D01*
X88552765Y-85099443D01*
X88552770Y-85099454D01*
X88703510Y-85360543D01*
X88703516Y-85360550D01*
X88764715Y-85440308D01*
X89449206Y-84755817D01*
X89465377Y-84787554D01*
X89590278Y-84959466D01*
X89740534Y-85109722D01*
X89912446Y-85234623D01*
X89944180Y-85250792D01*
X89259690Y-85935283D01*
X89259690Y-85935284D01*
X89339447Y-85996483D01*
X89600545Y-86147229D01*
X89600556Y-86147234D01*
X89879098Y-86262610D01*
X90170332Y-86340646D01*
X90469240Y-86379998D01*
X90469257Y-86380000D01*
X90770743Y-86380000D01*
X90770759Y-86379998D01*
X91069667Y-86340646D01*
X91360901Y-86262610D01*
X91639443Y-86147234D01*
X91639454Y-86147229D01*
X91900545Y-85996487D01*
X91900553Y-85996481D01*
X91980308Y-85935283D01*
X91295818Y-85250792D01*
X91327554Y-85234623D01*
X91499466Y-85109722D01*
X91649722Y-84959466D01*
X91774623Y-84787554D01*
X91790793Y-84755818D01*
X92475283Y-85440308D01*
X92536481Y-85360553D01*
X92536487Y-85360545D01*
X92687229Y-85099454D01*
X92687234Y-85099443D01*
X92802610Y-84820901D01*
X92880646Y-84529667D01*
X92919998Y-84230759D01*
X92920000Y-84230743D01*
X92920000Y-83929256D01*
X92919998Y-83929240D01*
X92880646Y-83630332D01*
X92802610Y-83339098D01*
X92687234Y-83060556D01*
X92687229Y-83060545D01*
X92596300Y-82903053D01*
X98080000Y-82903053D01*
X98090613Y-82991443D01*
X98146079Y-83132095D01*
X98237435Y-83252564D01*
X98357904Y-83343920D01*
X98498556Y-83399386D01*
X98586946Y-83410000D01*
X98630000Y-83410000D01*
X98630000Y-82560000D01*
X98080000Y-82560000D01*
X98080000Y-82903053D01*
X92596300Y-82903053D01*
X92536483Y-82799447D01*
X92475284Y-82719690D01*
X92475283Y-82719690D01*
X91790792Y-83404180D01*
X91774623Y-83372446D01*
X91649722Y-83200534D01*
X91499466Y-83050278D01*
X91327554Y-82925377D01*
X91295818Y-82909206D01*
X91784067Y-82420957D01*
X91980308Y-82224715D01*
X91980308Y-82224714D01*
X91900550Y-82163516D01*
X91900543Y-82163510D01*
X91889855Y-82157339D01*
X98580000Y-82157339D01*
X98580000Y-82262661D01*
X98607259Y-82364394D01*
X98659920Y-82455606D01*
X98734394Y-82530080D01*
X98825606Y-82582741D01*
X98927339Y-82610000D01*
X99032661Y-82610000D01*
X99134394Y-82582741D01*
X99225606Y-82530080D01*
X99300080Y-82455606D01*
X99330000Y-82403782D01*
X99330000Y-83410000D01*
X99373054Y-83410000D01*
X99461443Y-83399386D01*
X99602095Y-83343920D01*
X99722564Y-83252564D01*
X99813920Y-83132095D01*
X99869386Y-82991443D01*
X99880000Y-82903053D01*
X99880000Y-82830873D01*
X99899685Y-82763834D01*
X99952489Y-82718079D01*
X100021647Y-82708135D01*
X100085203Y-82737160D01*
X100118561Y-82783421D01*
X100181983Y-82936541D01*
X100181990Y-82936553D01*
X100280535Y-83084034D01*
X100280538Y-83084038D01*
X100405961Y-83209461D01*
X100405965Y-83209464D01*
X100553446Y-83308009D01*
X100553459Y-83308016D01*
X100640141Y-83343920D01*
X100717334Y-83375894D01*
X100717336Y-83375894D01*
X100717341Y-83375896D01*
X100891304Y-83410499D01*
X100891307Y-83410500D01*
X100891309Y-83410500D01*
X101068693Y-83410500D01*
X101068694Y-83410499D01*
X101155920Y-83393149D01*
X101242658Y-83375896D01*
X101242661Y-83375894D01*
X101242666Y-83375894D01*
X101406547Y-83308013D01*
X101554035Y-83209464D01*
X101679464Y-83084035D01*
X101778013Y-82936547D01*
X101845894Y-82772666D01*
X101860380Y-82699843D01*
X101876655Y-82618020D01*
X101880500Y-82598691D01*
X101880500Y-81821309D01*
X101880500Y-81821306D01*
X101880499Y-81821304D01*
X101845896Y-81647341D01*
X101845893Y-81647332D01*
X101843141Y-81640689D01*
X101795961Y-81526783D01*
X101778016Y-81483459D01*
X101778009Y-81483446D01*
X101679464Y-81335965D01*
X101679461Y-81335961D01*
X101554038Y-81210538D01*
X101554034Y-81210535D01*
X101406553Y-81111990D01*
X101406540Y-81111983D01*
X101242667Y-81044106D01*
X101242658Y-81044103D01*
X101068694Y-81009500D01*
X101068691Y-81009500D01*
X100891309Y-81009500D01*
X100891306Y-81009500D01*
X100717341Y-81044103D01*
X100717332Y-81044106D01*
X100553459Y-81111983D01*
X100553446Y-81111990D01*
X100405965Y-81210535D01*
X100405961Y-81210538D01*
X100280538Y-81335961D01*
X100280535Y-81335965D01*
X100181990Y-81483446D01*
X100181983Y-81483459D01*
X100118561Y-81636578D01*
X100074721Y-81690982D01*
X100008427Y-81713047D01*
X99940727Y-81695768D01*
X99893116Y-81644631D01*
X99880000Y-81589126D01*
X99880000Y-81516946D01*
X99869386Y-81428556D01*
X99813920Y-81287904D01*
X99722564Y-81167435D01*
X99602095Y-81076079D01*
X99461443Y-81020613D01*
X99373054Y-81010000D01*
X99330000Y-81010000D01*
X99330000Y-82016217D01*
X99300080Y-81964394D01*
X99225606Y-81889920D01*
X99134394Y-81837259D01*
X99032661Y-81810000D01*
X98927339Y-81810000D01*
X98825606Y-81837259D01*
X98734394Y-81889920D01*
X98659920Y-81964394D01*
X98607259Y-82055606D01*
X98580000Y-82157339D01*
X91889855Y-82157339D01*
X91639454Y-82012770D01*
X91639443Y-82012765D01*
X91360901Y-81897389D01*
X91069667Y-81819353D01*
X90770759Y-81780001D01*
X90770743Y-81780000D01*
X90469257Y-81780000D01*
X90469240Y-81780001D01*
X90170332Y-81819353D01*
X89879098Y-81897389D01*
X89600556Y-82012765D01*
X89600545Y-82012770D01*
X89339454Y-82163511D01*
X89339440Y-82163521D01*
X89259690Y-82224714D01*
X89259690Y-82224715D01*
X89944181Y-82909206D01*
X89912446Y-82925377D01*
X89740534Y-83050278D01*
X89590278Y-83200534D01*
X89465377Y-83372446D01*
X89449207Y-83404181D01*
X88764715Y-82719689D01*
X88764714Y-82719690D01*
X88703521Y-82799440D01*
X88703511Y-82799454D01*
X88552770Y-83060545D01*
X88552765Y-83060556D01*
X88437389Y-83339098D01*
X88359353Y-83630332D01*
X88320001Y-83929240D01*
X88320000Y-83929256D01*
X86020500Y-83929256D01*
X86020500Y-81516946D01*
X98080000Y-81516946D01*
X98080000Y-81860000D01*
X98630000Y-81860000D01*
X98630000Y-81010000D01*
X98586946Y-81010000D01*
X98498556Y-81020613D01*
X98357904Y-81076079D01*
X98237435Y-81167435D01*
X98146079Y-81287904D01*
X98090613Y-81428556D01*
X98080000Y-81516946D01*
X86020500Y-81516946D01*
X86020500Y-59113065D01*
X91197000Y-59113065D01*
X91197000Y-59358934D01*
X91223678Y-59561561D01*
X91229091Y-59602677D01*
X91277078Y-59781767D01*
X91292722Y-59840152D01*
X91292725Y-59840162D01*
X91367130Y-60019791D01*
X91386806Y-60067292D01*
X91509733Y-60280208D01*
X91509735Y-60280211D01*
X91509736Y-60280212D01*
X91659397Y-60475254D01*
X91659403Y-60475261D01*
X91833238Y-60649096D01*
X91833245Y-60649102D01*
X91907907Y-60706392D01*
X92028292Y-60798767D01*
X92241208Y-60921694D01*
X92468347Y-61015778D01*
X92705823Y-61079409D01*
X92949573Y-61111500D01*
X92949580Y-61111500D01*
X93195420Y-61111500D01*
X93195427Y-61111500D01*
X93439177Y-61079409D01*
X93676653Y-61015778D01*
X93903792Y-60921694D01*
X93938106Y-60901883D01*
X95052500Y-60901883D01*
X95052500Y-61130116D01*
X95088204Y-61355544D01*
X95158730Y-61572604D01*
X95158731Y-61572607D01*
X95257356Y-61766167D01*
X95756711Y-61266812D01*
X95806842Y-61387837D01*
X95892751Y-61516408D01*
X96002092Y-61625749D01*
X96130663Y-61711658D01*
X96251686Y-61761787D01*
X95752331Y-62261142D01*
X95945895Y-62359769D01*
X96162955Y-62430295D01*
X96388384Y-62466000D01*
X96616616Y-62466000D01*
X96842044Y-62430295D01*
X97059104Y-62359769D01*
X97252668Y-62261142D01*
X96753314Y-61761787D01*
X96874337Y-61711658D01*
X97002908Y-61625749D01*
X97112249Y-61516408D01*
X97198158Y-61387837D01*
X97248287Y-61266813D01*
X97747642Y-61766167D01*
X97846269Y-61572604D01*
X97916795Y-61355544D01*
X97952500Y-61130116D01*
X97952500Y-60901883D01*
X97916795Y-60676455D01*
X97846269Y-60459395D01*
X97747642Y-60265831D01*
X97248287Y-60765186D01*
X97198158Y-60644163D01*
X97112249Y-60515592D01*
X97002908Y-60406251D01*
X96874337Y-60320342D01*
X96753312Y-60270212D01*
X97252667Y-59770856D01*
X97059107Y-59672231D01*
X97059104Y-59672230D01*
X96842044Y-59601704D01*
X96616616Y-59566000D01*
X96388384Y-59566000D01*
X96162955Y-59601704D01*
X95945895Y-59672230D01*
X95945892Y-59672231D01*
X95752331Y-59770856D01*
X96251687Y-60270212D01*
X96130663Y-60320342D01*
X96002092Y-60406251D01*
X95892751Y-60515592D01*
X95806842Y-60644163D01*
X95756712Y-60765187D01*
X95257356Y-60265831D01*
X95158731Y-60459392D01*
X95158730Y-60459395D01*
X95088204Y-60676455D01*
X95052500Y-60901883D01*
X93938106Y-60901883D01*
X94116708Y-60798767D01*
X94311756Y-60649101D01*
X94485601Y-60475256D01*
X94635267Y-60280208D01*
X94758194Y-60067292D01*
X94852278Y-59840153D01*
X94915909Y-59602677D01*
X94948000Y-59358927D01*
X94948000Y-59113073D01*
X94915909Y-58869323D01*
X94852278Y-58631847D01*
X94758194Y-58404708D01*
X94635267Y-58191792D01*
X94485601Y-57996744D01*
X94485596Y-57996738D01*
X94311761Y-57822903D01*
X94311754Y-57822897D01*
X94116712Y-57673236D01*
X94116711Y-57673235D01*
X94116708Y-57673233D01*
X93903792Y-57550306D01*
X93903785Y-57550303D01*
X93676662Y-57456225D01*
X93676655Y-57456223D01*
X93676653Y-57456222D01*
X93439177Y-57392591D01*
X93398439Y-57387227D01*
X93195434Y-57360500D01*
X93195427Y-57360500D01*
X92949573Y-57360500D01*
X92949565Y-57360500D01*
X92717559Y-57391045D01*
X92705823Y-57392591D01*
X92547792Y-57434935D01*
X92468347Y-57456222D01*
X92468337Y-57456225D01*
X92241214Y-57550303D01*
X92241205Y-57550307D01*
X92028287Y-57673236D01*
X91833245Y-57822897D01*
X91833238Y-57822903D01*
X91659403Y-57996738D01*
X91659397Y-57996745D01*
X91509736Y-58191787D01*
X91386807Y-58404705D01*
X91386803Y-58404714D01*
X91292725Y-58631837D01*
X91292722Y-58631847D01*
X91229092Y-58869320D01*
X91229090Y-58869331D01*
X91197000Y-59113065D01*
X86020500Y-59113065D01*
X86020500Y-52278579D01*
X94562500Y-52278579D01*
X94562500Y-52485420D01*
X94602848Y-52688265D01*
X94602851Y-52688277D01*
X94663888Y-52835635D01*
X95117526Y-52382000D01*
X95117526Y-52381999D01*
X94663889Y-51928362D01*
X94602851Y-52075722D01*
X94602848Y-52075734D01*
X94562500Y-52278579D01*
X86020500Y-52278579D01*
X86020500Y-50246530D01*
X94562000Y-50246530D01*
X94562000Y-50453469D01*
X94602368Y-50656412D01*
X94602370Y-50656420D01*
X94678236Y-50839577D01*
X94681559Y-50847598D01*
X94703086Y-50879815D01*
X94796524Y-51019657D01*
X94942842Y-51165975D01*
X94942845Y-51165977D01*
X95107368Y-51275907D01*
X95111580Y-51278721D01*
X95156386Y-51332334D01*
X95165093Y-51401658D01*
X95164308Y-51406015D01*
X95158862Y-51433389D01*
X95662473Y-51937000D01*
X95553915Y-51937000D01*
X95440736Y-51967326D01*
X95339264Y-52025911D01*
X95256411Y-52108764D01*
X95197826Y-52210236D01*
X95167500Y-52323415D01*
X95167500Y-52440585D01*
X95197826Y-52553764D01*
X95256411Y-52655236D01*
X95339264Y-52738089D01*
X95440736Y-52796674D01*
X95553915Y-52827000D01*
X95662472Y-52827000D01*
X95158862Y-53330609D01*
X95164308Y-53357984D01*
X95158080Y-53427576D01*
X95115216Y-53482753D01*
X95111581Y-53485277D01*
X94942845Y-53598022D01*
X94942841Y-53598025D01*
X94796524Y-53744342D01*
X94681558Y-53916403D01*
X94602370Y-54107579D01*
X94602368Y-54107587D01*
X94562000Y-54310530D01*
X94562000Y-54517469D01*
X94600835Y-54712703D01*
X94602370Y-54720420D01*
X94681559Y-54911598D01*
X94728882Y-54982423D01*
X94796524Y-55083657D01*
X94896962Y-55184095D01*
X94930447Y-55245418D01*
X94925463Y-55315110D01*
X94883591Y-55371043D01*
X94821106Y-55394348D01*
X94821192Y-55395088D01*
X94818191Y-55395435D01*
X94818127Y-55395460D01*
X94817802Y-55395481D01*
X94792512Y-55398413D01*
X94792508Y-55398415D01*
X94689735Y-55443793D01*
X94610294Y-55523234D01*
X94564915Y-55626006D01*
X94564915Y-55626008D01*
X94562000Y-55651131D01*
X94562000Y-57240856D01*
X94562002Y-57240882D01*
X94564913Y-57265987D01*
X94564915Y-57265991D01*
X94610293Y-57368764D01*
X94610294Y-57368765D01*
X94689735Y-57448206D01*
X94792509Y-57493585D01*
X94817635Y-57496500D01*
X96407364Y-57496499D01*
X96407379Y-57496497D01*
X96407382Y-57496497D01*
X96432487Y-57493586D01*
X96432488Y-57493585D01*
X96432491Y-57493585D01*
X96535265Y-57448206D01*
X96614706Y-57368765D01*
X96660085Y-57265991D01*
X96663000Y-57240865D01*
X96662999Y-56437975D01*
X96682683Y-56370937D01*
X96735487Y-56325182D01*
X96804646Y-56315238D01*
X96855889Y-56334873D01*
X96894902Y-56360941D01*
X97086080Y-56440130D01*
X97289030Y-56480499D01*
X97289034Y-56480500D01*
X97289035Y-56480500D01*
X97495966Y-56480500D01*
X97495967Y-56480499D01*
X97698920Y-56440130D01*
X97890098Y-56360941D01*
X98062155Y-56245977D01*
X98208477Y-56099655D01*
X98323441Y-55927598D01*
X98402630Y-55736420D01*
X98443000Y-55533465D01*
X98443000Y-55326535D01*
X98402630Y-55123580D01*
X98323441Y-54932402D01*
X98208477Y-54760345D01*
X98208475Y-54760342D01*
X98062155Y-54614022D01*
X97893417Y-54501276D01*
X97848612Y-54447664D01*
X97839905Y-54378339D01*
X97840691Y-54373982D01*
X97846136Y-54346609D01*
X97342527Y-53843000D01*
X97451085Y-53843000D01*
X97564264Y-53812674D01*
X97665736Y-53754089D01*
X97748589Y-53671236D01*
X97807174Y-53569764D01*
X97837500Y-53456585D01*
X97837500Y-53397999D01*
X97887474Y-53397999D01*
X97887474Y-53398001D01*
X98341109Y-53851636D01*
X98402149Y-53704274D01*
X98402151Y-53704266D01*
X98442499Y-53501420D01*
X98442500Y-53501417D01*
X98442500Y-53294583D01*
X98442499Y-53294579D01*
X98402151Y-53091733D01*
X98402149Y-53091725D01*
X98341109Y-52944362D01*
X97887474Y-53397999D01*
X97837500Y-53397999D01*
X97837500Y-53339415D01*
X97807174Y-53226236D01*
X97748589Y-53124764D01*
X97665736Y-53041911D01*
X97564264Y-52983326D01*
X97451085Y-52953000D01*
X97342526Y-52953000D01*
X97846136Y-52449389D01*
X97840691Y-52422016D01*
X97846918Y-52352424D01*
X97889781Y-52297247D01*
X97893354Y-52294764D01*
X98062155Y-52181977D01*
X98208477Y-52035655D01*
X98323441Y-51863598D01*
X98402630Y-51672420D01*
X98443000Y-51469465D01*
X98443000Y-51262535D01*
X98402630Y-51059580D01*
X98323441Y-50868402D01*
X98208477Y-50696345D01*
X98208475Y-50696342D01*
X98062157Y-50550024D01*
X98004923Y-50511782D01*
X97917100Y-50453101D01*
X97872296Y-50399491D01*
X97863589Y-50330166D01*
X97893743Y-50267138D01*
X97917098Y-50246899D01*
X98062155Y-50149977D01*
X98208477Y-50003655D01*
X98323441Y-49831598D01*
X98402630Y-49640420D01*
X98443000Y-49437465D01*
X98443000Y-49230535D01*
X98402630Y-49027580D01*
X98323441Y-48836402D01*
X98208477Y-48664345D01*
X98208475Y-48664342D01*
X98062157Y-48518024D01*
X97902729Y-48411499D01*
X97890098Y-48403059D01*
X97874321Y-48396524D01*
X97698920Y-48323870D01*
X97698912Y-48323868D01*
X97495969Y-48283500D01*
X97495965Y-48283500D01*
X97289035Y-48283500D01*
X97289030Y-48283500D01*
X97086087Y-48323868D01*
X97086079Y-48323870D01*
X96894903Y-48403058D01*
X96722842Y-48518024D01*
X96576524Y-48664342D01*
X96461558Y-48836403D01*
X96382370Y-49027579D01*
X96382368Y-49027587D01*
X96342000Y-49230530D01*
X96342000Y-49342023D01*
X96322315Y-49409062D01*
X96269511Y-49454817D01*
X96200353Y-49464761D01*
X96149110Y-49445126D01*
X96144658Y-49442151D01*
X96110098Y-49419059D01*
X96085963Y-49409062D01*
X95918920Y-49339870D01*
X95918912Y-49339868D01*
X95715969Y-49299500D01*
X95715965Y-49299500D01*
X95509035Y-49299500D01*
X95509030Y-49299500D01*
X95306087Y-49339868D01*
X95306079Y-49339870D01*
X95114903Y-49419058D01*
X94942842Y-49534024D01*
X94796524Y-49680342D01*
X94681558Y-49852403D01*
X94602372Y-50043575D01*
X94602368Y-50043587D01*
X94562000Y-50246530D01*
X86020500Y-50246530D01*
X86020500Y-46413065D01*
X91197000Y-46413065D01*
X91197000Y-46658934D01*
X91216249Y-46805135D01*
X91229091Y-46902677D01*
X91290347Y-47131290D01*
X91292722Y-47140152D01*
X91292725Y-47140162D01*
X91356807Y-47294868D01*
X91386806Y-47367292D01*
X91509733Y-47580208D01*
X91509735Y-47580211D01*
X91509736Y-47580212D01*
X91659397Y-47775254D01*
X91659403Y-47775261D01*
X91833238Y-47949096D01*
X91833245Y-47949102D01*
X91899704Y-48000098D01*
X92028292Y-48098767D01*
X92241208Y-48221694D01*
X92369690Y-48274913D01*
X92456787Y-48310990D01*
X92468347Y-48315778D01*
X92705823Y-48379409D01*
X92949573Y-48411500D01*
X92949580Y-48411500D01*
X93195420Y-48411500D01*
X93195427Y-48411500D01*
X93439177Y-48379409D01*
X93676653Y-48315778D01*
X93903792Y-48221694D01*
X94116708Y-48098767D01*
X94311756Y-47949101D01*
X94485601Y-47775256D01*
X94635267Y-47580208D01*
X94758194Y-47367292D01*
X94852278Y-47140153D01*
X94915909Y-46902677D01*
X94948000Y-46658927D01*
X94948000Y-46413073D01*
X94915909Y-46169323D01*
X94852278Y-45931847D01*
X94758194Y-45704708D01*
X94635267Y-45491792D01*
X94485601Y-45296744D01*
X94485596Y-45296738D01*
X94311761Y-45122903D01*
X94311754Y-45122897D01*
X94116712Y-44973236D01*
X94116711Y-44973235D01*
X94116708Y-44973233D01*
X93903792Y-44850306D01*
X93890241Y-44844693D01*
X93676662Y-44756225D01*
X93676653Y-44756222D01*
X93634279Y-44744868D01*
X93439177Y-44692591D01*
X93398439Y-44687227D01*
X93195434Y-44660500D01*
X93195427Y-44660500D01*
X92949573Y-44660500D01*
X92949565Y-44660500D01*
X92717559Y-44691045D01*
X92705823Y-44692591D01*
X92510766Y-44744856D01*
X92468347Y-44756222D01*
X92468337Y-44756225D01*
X92241214Y-44850303D01*
X92241205Y-44850307D01*
X92028287Y-44973236D01*
X91833245Y-45122897D01*
X91833238Y-45122903D01*
X91659403Y-45296738D01*
X91659397Y-45296745D01*
X91509736Y-45491787D01*
X91386807Y-45704705D01*
X91386803Y-45704714D01*
X91292725Y-45931837D01*
X91292722Y-45931847D01*
X91229092Y-46169320D01*
X91229090Y-46169331D01*
X91197000Y-46413065D01*
X86020500Y-46413065D01*
X86020500Y-44641883D01*
X95052500Y-44641883D01*
X95052500Y-44870116D01*
X95088204Y-45095544D01*
X95158730Y-45312604D01*
X95158731Y-45312607D01*
X95257356Y-45506167D01*
X95756711Y-45006812D01*
X95806842Y-45127837D01*
X95892751Y-45256408D01*
X96002092Y-45365749D01*
X96130663Y-45451658D01*
X96251686Y-45501787D01*
X95752331Y-46001142D01*
X95945895Y-46099769D01*
X96162955Y-46170295D01*
X96388384Y-46206000D01*
X96616616Y-46206000D01*
X96842044Y-46170295D01*
X97059104Y-46099769D01*
X97252668Y-46001142D01*
X96753314Y-45501787D01*
X96874337Y-45451658D01*
X97002908Y-45365749D01*
X97112249Y-45256408D01*
X97198158Y-45127837D01*
X97248287Y-45006813D01*
X97747642Y-45506167D01*
X97846269Y-45312604D01*
X97916795Y-45095544D01*
X97952500Y-44870116D01*
X97952500Y-44641883D01*
X97916795Y-44416455D01*
X97846269Y-44199395D01*
X97747642Y-44005831D01*
X97248287Y-44505186D01*
X97198158Y-44384163D01*
X97112249Y-44255592D01*
X97002908Y-44146251D01*
X96874337Y-44060342D01*
X96753312Y-44010212D01*
X97252667Y-43510856D01*
X97059107Y-43412231D01*
X97059104Y-43412230D01*
X96842044Y-43341704D01*
X96616616Y-43306000D01*
X96388384Y-43306000D01*
X96162955Y-43341704D01*
X95945895Y-43412230D01*
X95945892Y-43412231D01*
X95752331Y-43510856D01*
X96251687Y-44010212D01*
X96130663Y-44060342D01*
X96002092Y-44146251D01*
X95892751Y-44255592D01*
X95806842Y-44384163D01*
X95756712Y-44505187D01*
X95257356Y-44005831D01*
X95158731Y-44199392D01*
X95158730Y-44199395D01*
X95088204Y-44416455D01*
X95052500Y-44641883D01*
X86020500Y-44641883D01*
X86020500Y-22753971D01*
X88405702Y-22753971D01*
X88405702Y-37840975D01*
X88405702Y-37946429D01*
X88411317Y-37967386D01*
X88432995Y-38048291D01*
X88455615Y-38087468D01*
X88485722Y-38139615D01*
X88485724Y-38139617D01*
X88655681Y-38309574D01*
X88689166Y-38370897D01*
X88692000Y-38397255D01*
X88692000Y-38459057D01*
X88731947Y-38608139D01*
X88732923Y-38611783D01*
X88732926Y-38611790D01*
X88811975Y-38748709D01*
X88811979Y-38748714D01*
X88811980Y-38748716D01*
X88923784Y-38860520D01*
X88923786Y-38860521D01*
X88923790Y-38860524D01*
X89031596Y-38922765D01*
X89060716Y-38939577D01*
X89213443Y-38980500D01*
X89213445Y-38980500D01*
X89371555Y-38980500D01*
X89371557Y-38980500D01*
X89524284Y-38939577D01*
X89661216Y-38860520D01*
X89773020Y-38748716D01*
X89852077Y-38611784D01*
X89893000Y-38459057D01*
X89893000Y-38300943D01*
X89852077Y-38148216D01*
X89817005Y-38087469D01*
X89773024Y-38011290D01*
X89773018Y-38011282D01*
X89661217Y-37899481D01*
X89661209Y-37899475D01*
X89524290Y-37820426D01*
X89524286Y-37820424D01*
X89524284Y-37820423D01*
X89371557Y-37779500D01*
X89371556Y-37779500D01*
X89330702Y-37779500D01*
X89263663Y-37759815D01*
X89217908Y-37707011D01*
X89206702Y-37655500D01*
X89206702Y-28592456D01*
X89226387Y-28525417D01*
X89279191Y-28479662D01*
X89348349Y-28469718D01*
X89411905Y-28498743D01*
X89418371Y-28504764D01*
X90219518Y-29305910D01*
X90219520Y-29305913D01*
X90294087Y-29380480D01*
X90351314Y-29413520D01*
X90385413Y-29433207D01*
X90487273Y-29460501D01*
X90487275Y-29460501D01*
X90600323Y-29460501D01*
X90600339Y-29460500D01*
X90839394Y-29460500D01*
X90906433Y-29480185D01*
X90949878Y-29528204D01*
X91023897Y-29673473D01*
X91025176Y-29675233D01*
X91132193Y-29822529D01*
X91262471Y-29952807D01*
X91411525Y-30061101D01*
X91510783Y-30111676D01*
X91575686Y-30144746D01*
X91614241Y-30157273D01*
X91750907Y-30201678D01*
X91782441Y-30206672D01*
X91787835Y-30207527D01*
X91850970Y-30237456D01*
X91887901Y-30296768D01*
X91886903Y-30366630D01*
X91848293Y-30424863D01*
X91787835Y-30452473D01*
X91750905Y-30458322D01*
X91575686Y-30515253D01*
X91411524Y-30598899D01*
X91370868Y-30628438D01*
X91262471Y-30707193D01*
X91262469Y-30707195D01*
X91262468Y-30707195D01*
X91132195Y-30837468D01*
X91132195Y-30837469D01*
X91132193Y-30837471D01*
X91108686Y-30869826D01*
X91023899Y-30986524D01*
X90940253Y-31150686D01*
X90883322Y-31325905D01*
X90883322Y-31325907D01*
X90854500Y-31507880D01*
X90854500Y-31692120D01*
X90859992Y-31726793D01*
X90883322Y-31874094D01*
X90940253Y-32049313D01*
X90996287Y-32159284D01*
X91023899Y-32213475D01*
X91132193Y-32362529D01*
X91262471Y-32492807D01*
X91411525Y-32601101D01*
X91575684Y-32684745D01*
X91575686Y-32684746D01*
X91660124Y-32712181D01*
X91750907Y-32741678D01*
X91932880Y-32770500D01*
X91932881Y-32770500D01*
X92567119Y-32770500D01*
X92567120Y-32770500D01*
X92749093Y-32741678D01*
X92924316Y-32684745D01*
X93088475Y-32601101D01*
X93237529Y-32492807D01*
X93367807Y-32362529D01*
X93476101Y-32213475D01*
X93559745Y-32049316D01*
X93616678Y-31874093D01*
X93645500Y-31692120D01*
X93645500Y-31507880D01*
X93616678Y-31325907D01*
X93608804Y-31301674D01*
X93601855Y-31280285D01*
X93599860Y-31210444D01*
X93632103Y-31154288D01*
X94330480Y-30455913D01*
X94383207Y-30364588D01*
X94410500Y-30262727D01*
X94410500Y-30157273D01*
X94410500Y-28522729D01*
X94410501Y-28522716D01*
X94410501Y-28407276D01*
X94410501Y-28407274D01*
X94383207Y-28305413D01*
X94364377Y-28272799D01*
X94330480Y-28214087D01*
X94255913Y-28139520D01*
X94255910Y-28139518D01*
X93599813Y-27483420D01*
X93554150Y-27457056D01*
X93508489Y-27430693D01*
X93496325Y-27427434D01*
X93474380Y-27421554D01*
X93414722Y-27385191D01*
X93384192Y-27322344D01*
X93392486Y-27252968D01*
X93406158Y-27228894D01*
X93475671Y-27133218D01*
X93559282Y-26969124D01*
X93559283Y-26969121D01*
X93591489Y-26870000D01*
X92734973Y-26870000D01*
X92804452Y-26749661D01*
X92845000Y-26598333D01*
X92845000Y-26441667D01*
X92804452Y-26290339D01*
X92734973Y-26170000D01*
X93591489Y-26170000D01*
X93591489Y-26169999D01*
X93559283Y-26070878D01*
X93559282Y-26070875D01*
X93475673Y-25906785D01*
X93367423Y-25757794D01*
X93367423Y-25757793D01*
X93237206Y-25627576D01*
X93088214Y-25519326D01*
X92924128Y-25435719D01*
X92790900Y-25392431D01*
X92733225Y-25352993D01*
X92706027Y-25288634D01*
X92717942Y-25219788D01*
X92765186Y-25168312D01*
X92829219Y-25150500D01*
X93138097Y-25150500D01*
X93138102Y-25150500D01*
X93226564Y-25139877D01*
X93367342Y-25084361D01*
X93487922Y-24992922D01*
X93579361Y-24872342D01*
X93634877Y-24731564D01*
X93645500Y-24643102D01*
X93645500Y-24632676D01*
X93665185Y-24565637D01*
X93717989Y-24519882D01*
X93787147Y-24509938D01*
X93850703Y-24538963D01*
X93857181Y-24544995D01*
X98153181Y-28840995D01*
X98186666Y-28902318D01*
X98189500Y-28928676D01*
X98189500Y-30161324D01*
X98169815Y-30228363D01*
X98153181Y-30249005D01*
X92612002Y-35790183D01*
X92612000Y-35790186D01*
X92546108Y-35904312D01*
X92512000Y-36031608D01*
X92512000Y-37478007D01*
X92492315Y-37545046D01*
X92462925Y-37576811D01*
X92357077Y-37657077D01*
X92265639Y-37777656D01*
X92248773Y-37820426D01*
X92215353Y-37905171D01*
X92172449Y-37960314D01*
X92106541Y-37983507D01*
X92038556Y-37967386D01*
X91990080Y-37917070D01*
X91984648Y-37905178D01*
X91934361Y-37777658D01*
X91934360Y-37777657D01*
X91934360Y-37777656D01*
X91842922Y-37657077D01*
X91722343Y-37565639D01*
X91581561Y-37510122D01*
X91535926Y-37504642D01*
X91493102Y-37499500D01*
X90881898Y-37499500D01*
X90842853Y-37504188D01*
X90793438Y-37510122D01*
X90652656Y-37565639D01*
X90532077Y-37657077D01*
X90440639Y-37777656D01*
X90385122Y-37918438D01*
X90380094Y-37960314D01*
X90374500Y-38006898D01*
X90374500Y-38993102D01*
X90377836Y-39020882D01*
X90385122Y-39081561D01*
X90440639Y-39222343D01*
X90532077Y-39342922D01*
X90652656Y-39434360D01*
X90652657Y-39434360D01*
X90652658Y-39434361D01*
X90793436Y-39489877D01*
X90881898Y-39500500D01*
X90881903Y-39500500D01*
X91493097Y-39500500D01*
X91493102Y-39500500D01*
X91581564Y-39489877D01*
X91722342Y-39434361D01*
X91842922Y-39342922D01*
X91934361Y-39222342D01*
X91984646Y-39094826D01*
X92027551Y-39039685D01*
X92093459Y-39016492D01*
X92161443Y-39032612D01*
X92209920Y-39082929D01*
X92215348Y-39094814D01*
X92246772Y-39174499D01*
X92265639Y-39222343D01*
X92357077Y-39342922D01*
X92412301Y-39384799D01*
X92462925Y-39423189D01*
X92504448Y-39479380D01*
X92512000Y-39521992D01*
X92512000Y-40428007D01*
X92492315Y-40495046D01*
X92462925Y-40526811D01*
X92357077Y-40607077D01*
X92265639Y-40727656D01*
X92246368Y-40776525D01*
X92215353Y-40855171D01*
X92172449Y-40910314D01*
X92106541Y-40933507D01*
X92038556Y-40917386D01*
X91990080Y-40867070D01*
X91984648Y-40855178D01*
X91934361Y-40727658D01*
X91934360Y-40727657D01*
X91934360Y-40727656D01*
X91842922Y-40607077D01*
X91722343Y-40515639D01*
X91581561Y-40460122D01*
X91535926Y-40454642D01*
X91493102Y-40449500D01*
X90881898Y-40449500D01*
X90842853Y-40454188D01*
X90793438Y-40460122D01*
X90652656Y-40515639D01*
X90532077Y-40607077D01*
X90440639Y-40727656D01*
X90385122Y-40868438D01*
X90382473Y-40890500D01*
X90374500Y-40956898D01*
X90374500Y-41943102D01*
X90377309Y-41966492D01*
X90385122Y-42031561D01*
X90440639Y-42172343D01*
X90532077Y-42292922D01*
X90652656Y-42384360D01*
X90652657Y-42384360D01*
X90652658Y-42384361D01*
X90793436Y-42439877D01*
X90881898Y-42450500D01*
X90881903Y-42450500D01*
X91493097Y-42450500D01*
X91493102Y-42450500D01*
X91581564Y-42439877D01*
X91722342Y-42384361D01*
X91842922Y-42292922D01*
X91934361Y-42172342D01*
X91984646Y-42044826D01*
X92027551Y-41989685D01*
X92093459Y-41966492D01*
X92161443Y-41982612D01*
X92209920Y-42032929D01*
X92215348Y-42044814D01*
X92248395Y-42128614D01*
X92265639Y-42172343D01*
X92357077Y-42292922D01*
X92477656Y-42384360D01*
X92477657Y-42384360D01*
X92477658Y-42384361D01*
X92618436Y-42439877D01*
X92706898Y-42450500D01*
X92706903Y-42450500D01*
X93318097Y-42450500D01*
X93318102Y-42450500D01*
X93406564Y-42439877D01*
X93547342Y-42384361D01*
X93667922Y-42292922D01*
X93759361Y-42172342D01*
X93814877Y-42031564D01*
X93825500Y-41943102D01*
X93825500Y-40956898D01*
X93814877Y-40868436D01*
X93813929Y-40860541D01*
X93815402Y-40860364D01*
X93817717Y-40799374D01*
X93857692Y-40742070D01*
X93922303Y-40715475D01*
X93980772Y-40723439D01*
X94003436Y-40732377D01*
X94091898Y-40743000D01*
X94091903Y-40743000D01*
X95278097Y-40743000D01*
X95278102Y-40743000D01*
X95366564Y-40732377D01*
X95507342Y-40676861D01*
X95627922Y-40585422D01*
X95719361Y-40464842D01*
X95774877Y-40324064D01*
X95785500Y-40235602D01*
X95785500Y-39049398D01*
X95774877Y-38960936D01*
X95719361Y-38820158D01*
X95719360Y-38820157D01*
X95719360Y-38820156D01*
X95627922Y-38699577D01*
X95507343Y-38608139D01*
X95390938Y-38562235D01*
X95366564Y-38552623D01*
X95366563Y-38552622D01*
X95366561Y-38552622D01*
X95320926Y-38547142D01*
X95278102Y-38542000D01*
X94091898Y-38542000D01*
X94028710Y-38549587D01*
X94003434Y-38552623D01*
X93994988Y-38555954D01*
X93925401Y-38562235D01*
X93863466Y-38529897D01*
X93828845Y-38469207D01*
X93825500Y-38440599D01*
X93825500Y-38006903D01*
X93825500Y-38006898D01*
X93814877Y-37918436D01*
X93759361Y-37777658D01*
X93759360Y-37777657D01*
X93759360Y-37777656D01*
X93667922Y-37657077D01*
X93562075Y-37576811D01*
X93520551Y-37520618D01*
X93513000Y-37478007D01*
X93513000Y-36356176D01*
X93532685Y-36289137D01*
X93549319Y-36268495D01*
X98602319Y-31215495D01*
X98663642Y-31182010D01*
X98733334Y-31186994D01*
X98777681Y-31215495D01*
X99137181Y-31574995D01*
X99170666Y-31636318D01*
X99173500Y-31662676D01*
X99173500Y-31912110D01*
X99173500Y-32043894D01*
X99179008Y-32064452D01*
X99185275Y-32087838D01*
X99189500Y-32119931D01*
X99189500Y-33250067D01*
X99185275Y-33282159D01*
X99173500Y-33326104D01*
X99173500Y-33326106D01*
X99173500Y-34862110D01*
X99173500Y-34993894D01*
X99175250Y-35000426D01*
X99185275Y-35037838D01*
X99189500Y-35069931D01*
X99189500Y-67337262D01*
X99223608Y-67464558D01*
X99244943Y-67501510D01*
X99289500Y-67578685D01*
X101801315Y-70090500D01*
X101915443Y-70156392D01*
X102042737Y-70190500D01*
X102042739Y-70190500D01*
X107125890Y-70190500D01*
X107125892Y-70190500D01*
X107253186Y-70156392D01*
X107367314Y-70090500D01*
X108252319Y-69205495D01*
X108313642Y-69172010D01*
X108383334Y-69176994D01*
X108427681Y-69205495D01*
X109803181Y-70580995D01*
X109836666Y-70642318D01*
X109839500Y-70668676D01*
X109839500Y-81240520D01*
X109819815Y-81307559D01*
X109767011Y-81353314D01*
X109745892Y-81360738D01*
X109738440Y-81362621D01*
X109597656Y-81418139D01*
X109477077Y-81509577D01*
X109385639Y-81630156D01*
X109330122Y-81770938D01*
X109325432Y-81810000D01*
X109319500Y-81859398D01*
X109319500Y-81859403D01*
X109319500Y-82406323D01*
X109299815Y-82473362D01*
X109283181Y-82494004D01*
X108412537Y-83364648D01*
X108351214Y-83398133D01*
X108281522Y-83393149D01*
X108226052Y-83351892D01*
X108212922Y-83334577D01*
X108092343Y-83243139D01*
X108054339Y-83228152D01*
X107964826Y-83192853D01*
X107909685Y-83149949D01*
X107886492Y-83084041D01*
X107902612Y-83016057D01*
X107952929Y-82967580D01*
X107964814Y-82962151D01*
X108092342Y-82911861D01*
X108212922Y-82820422D01*
X108304361Y-82699842D01*
X108359877Y-82559064D01*
X108370500Y-82470602D01*
X108370500Y-81859398D01*
X108359877Y-81770936D01*
X108304361Y-81630158D01*
X108304360Y-81630157D01*
X108304360Y-81630156D01*
X108212922Y-81509577D01*
X108092343Y-81418139D01*
X107951561Y-81362622D01*
X107905926Y-81357142D01*
X107863102Y-81352000D01*
X106876898Y-81352000D01*
X106837853Y-81356688D01*
X106788438Y-81362622D01*
X106647656Y-81418139D01*
X106527077Y-81509577D01*
X106435639Y-81630156D01*
X106380122Y-81770938D01*
X106375432Y-81810000D01*
X106369500Y-81859398D01*
X106369500Y-82470602D01*
X106373776Y-82506209D01*
X106380122Y-82559061D01*
X106435639Y-82699843D01*
X106527077Y-82820422D01*
X106647656Y-82911860D01*
X106647657Y-82911860D01*
X106647658Y-82911861D01*
X106775171Y-82962146D01*
X106830314Y-83005051D01*
X106853507Y-83070959D01*
X106837386Y-83138944D01*
X106787070Y-83187420D01*
X106775178Y-83192851D01*
X106723663Y-83213165D01*
X106647656Y-83243139D01*
X106527077Y-83334577D01*
X106435639Y-83455156D01*
X106380122Y-83595938D01*
X106374188Y-83645353D01*
X106369500Y-83684398D01*
X106369500Y-84295602D01*
X106375126Y-84342454D01*
X106380122Y-84384061D01*
X106435639Y-84524843D01*
X106527077Y-84645422D01*
X106647656Y-84736860D01*
X106647657Y-84736860D01*
X106647658Y-84736861D01*
X106788436Y-84792377D01*
X106876898Y-84803000D01*
X106876903Y-84803000D01*
X107863097Y-84803000D01*
X107863102Y-84803000D01*
X107951564Y-84792377D01*
X108092342Y-84736861D01*
X108212922Y-84645422D01*
X108293189Y-84539575D01*
X108349382Y-84498051D01*
X108391993Y-84490500D01*
X108560890Y-84490500D01*
X108560892Y-84490500D01*
X108688186Y-84456392D01*
X108802314Y-84390500D01*
X109107819Y-84084995D01*
X109169142Y-84051510D01*
X109238834Y-84056494D01*
X109294767Y-84098366D01*
X109319184Y-84163830D01*
X109319500Y-84172676D01*
X109319500Y-84295602D01*
X109325126Y-84342454D01*
X109330122Y-84384061D01*
X109385639Y-84524843D01*
X109477077Y-84645422D01*
X109597656Y-84736860D01*
X109597657Y-84736860D01*
X109597658Y-84736861D01*
X109738436Y-84792377D01*
X109826898Y-84803000D01*
X109826903Y-84803000D01*
X110813097Y-84803000D01*
X110813102Y-84803000D01*
X110901564Y-84792377D01*
X111042342Y-84736861D01*
X111162922Y-84645422D01*
X111254361Y-84524842D01*
X111309877Y-84384064D01*
X111320500Y-84295602D01*
X111320500Y-83929256D01*
X148320000Y-83929256D01*
X148320000Y-84230743D01*
X148320001Y-84230759D01*
X148359353Y-84529667D01*
X148437389Y-84820901D01*
X148552765Y-85099443D01*
X148552770Y-85099454D01*
X148703510Y-85360543D01*
X148703516Y-85360550D01*
X148764715Y-85440308D01*
X149449206Y-84755816D01*
X149465377Y-84787554D01*
X149590278Y-84959466D01*
X149740534Y-85109722D01*
X149912446Y-85234623D01*
X149944180Y-85250792D01*
X149259690Y-85935283D01*
X149259690Y-85935284D01*
X149339447Y-85996483D01*
X149600545Y-86147229D01*
X149600556Y-86147234D01*
X149879098Y-86262610D01*
X150170332Y-86340646D01*
X150469240Y-86379998D01*
X150469257Y-86380000D01*
X150770743Y-86380000D01*
X150770759Y-86379998D01*
X151069667Y-86340646D01*
X151360901Y-86262610D01*
X151639443Y-86147234D01*
X151639454Y-86147229D01*
X151900545Y-85996487D01*
X151900553Y-85996481D01*
X151980308Y-85935283D01*
X151295818Y-85250792D01*
X151327554Y-85234623D01*
X151499466Y-85109722D01*
X151649722Y-84959466D01*
X151774623Y-84787554D01*
X151790793Y-84755818D01*
X152475283Y-85440308D01*
X152536481Y-85360553D01*
X152536487Y-85360545D01*
X152687229Y-85099454D01*
X152687234Y-85099443D01*
X152802610Y-84820901D01*
X152880646Y-84529667D01*
X152919998Y-84230759D01*
X152920000Y-84230743D01*
X152920000Y-83929256D01*
X152919998Y-83929240D01*
X152880646Y-83630332D01*
X152802610Y-83339098D01*
X152687234Y-83060556D01*
X152687229Y-83060545D01*
X152536483Y-82799447D01*
X152475284Y-82719690D01*
X152475283Y-82719690D01*
X151790792Y-83404180D01*
X151774623Y-83372446D01*
X151649722Y-83200534D01*
X151499466Y-83050278D01*
X151327554Y-82925377D01*
X151295817Y-82909206D01*
X151980308Y-82224715D01*
X151980308Y-82224714D01*
X151900550Y-82163516D01*
X151900543Y-82163510D01*
X151639454Y-82012770D01*
X151639443Y-82012765D01*
X151360901Y-81897389D01*
X151069667Y-81819353D01*
X150770759Y-81780001D01*
X150770743Y-81780000D01*
X150469257Y-81780000D01*
X150469240Y-81780001D01*
X150170332Y-81819353D01*
X149879098Y-81897389D01*
X149600556Y-82012765D01*
X149600545Y-82012770D01*
X149339454Y-82163511D01*
X149339440Y-82163521D01*
X149259690Y-82224714D01*
X149259690Y-82224715D01*
X149944181Y-82909206D01*
X149912446Y-82925377D01*
X149740534Y-83050278D01*
X149590278Y-83200534D01*
X149465377Y-83372446D01*
X149449206Y-83404181D01*
X148764715Y-82719690D01*
X148764714Y-82719690D01*
X148703521Y-82799440D01*
X148703511Y-82799454D01*
X148552770Y-83060545D01*
X148552765Y-83060556D01*
X148437389Y-83339098D01*
X148359353Y-83630332D01*
X148320001Y-83929240D01*
X148320000Y-83929256D01*
X111320500Y-83929256D01*
X111320500Y-83684398D01*
X111309877Y-83595936D01*
X111254361Y-83455158D01*
X111254360Y-83455157D01*
X111254360Y-83455156D01*
X111162922Y-83334577D01*
X111042343Y-83243139D01*
X111004339Y-83228152D01*
X110914826Y-83192853D01*
X110859685Y-83149949D01*
X110836492Y-83084041D01*
X110852612Y-83016057D01*
X110902929Y-82967580D01*
X110914814Y-82962151D01*
X111042342Y-82911861D01*
X111162922Y-82820422D01*
X111254361Y-82699842D01*
X111309877Y-82559064D01*
X111320500Y-82470602D01*
X111320500Y-81859398D01*
X111309877Y-81770936D01*
X111254361Y-81630158D01*
X111254360Y-81630157D01*
X111254360Y-81630156D01*
X111162922Y-81509577D01*
X111042341Y-81418138D01*
X111042339Y-81418137D01*
X110919010Y-81369502D01*
X110863866Y-81326596D01*
X110840673Y-81260689D01*
X110840500Y-81254148D01*
X110840500Y-79058676D01*
X110860185Y-78991637D01*
X110876819Y-78970995D01*
X112243495Y-77604319D01*
X112304818Y-77570834D01*
X112331176Y-77568000D01*
X113818007Y-77568000D01*
X113885046Y-77587685D01*
X113916811Y-77617075D01*
X113997077Y-77722922D01*
X114117656Y-77814360D01*
X114117657Y-77814360D01*
X114117658Y-77814361D01*
X114245171Y-77864646D01*
X114300314Y-77907551D01*
X114323507Y-77973459D01*
X114307386Y-78041444D01*
X114257070Y-78089920D01*
X114245178Y-78095351D01*
X114193663Y-78115665D01*
X114117656Y-78145639D01*
X113997077Y-78237077D01*
X113905639Y-78357656D01*
X113850122Y-78498438D01*
X113847223Y-78522584D01*
X113839500Y-78586898D01*
X113839500Y-79198102D01*
X113845126Y-79244954D01*
X113850122Y-79286561D01*
X113905639Y-79427343D01*
X113997077Y-79547922D01*
X114117656Y-79639360D01*
X114117657Y-79639360D01*
X114117658Y-79639361D01*
X114258436Y-79694877D01*
X114330285Y-79703505D01*
X114394498Y-79731041D01*
X114433631Y-79788923D01*
X114439500Y-79826620D01*
X114439500Y-81699902D01*
X114419815Y-81766941D01*
X114403181Y-81787583D01*
X114379481Y-81811282D01*
X114379475Y-81811290D01*
X114300426Y-81948209D01*
X114300423Y-81948216D01*
X114259500Y-82100943D01*
X114259500Y-82259056D01*
X114300423Y-82411783D01*
X114300426Y-82411790D01*
X114379475Y-82548709D01*
X114379479Y-82548714D01*
X114379480Y-82548716D01*
X114491284Y-82660520D01*
X114491286Y-82660521D01*
X114491290Y-82660524D01*
X114628209Y-82739573D01*
X114628216Y-82739577D01*
X114780943Y-82780500D01*
X114780945Y-82780500D01*
X114939055Y-82780500D01*
X114939057Y-82780500D01*
X115091784Y-82739577D01*
X115228716Y-82660520D01*
X115340520Y-82548716D01*
X115419577Y-82411784D01*
X115460500Y-82259057D01*
X115460500Y-82100943D01*
X115419577Y-81948216D01*
X115395036Y-81905709D01*
X115340524Y-81811290D01*
X115340518Y-81811282D01*
X115276819Y-81747583D01*
X115243334Y-81686260D01*
X115240500Y-81659902D01*
X115240500Y-79826620D01*
X115260185Y-79759581D01*
X115312989Y-79713826D01*
X115349712Y-79703505D01*
X115421564Y-79694877D01*
X115562342Y-79639361D01*
X115682922Y-79547922D01*
X115774361Y-79427342D01*
X115829877Y-79286564D01*
X115840500Y-79198102D01*
X115840500Y-78586898D01*
X115829877Y-78498436D01*
X115774361Y-78357658D01*
X115774360Y-78357657D01*
X115774360Y-78357656D01*
X115682922Y-78237077D01*
X115562343Y-78145639D01*
X115524339Y-78130652D01*
X115434826Y-78095353D01*
X115379685Y-78052449D01*
X115356492Y-77986541D01*
X115372612Y-77918557D01*
X115422929Y-77870080D01*
X115434814Y-77864651D01*
X115562342Y-77814361D01*
X115682922Y-77722922D01*
X115774361Y-77602342D01*
X115829877Y-77461564D01*
X115840500Y-77373102D01*
X115840500Y-76761898D01*
X116959500Y-76761898D01*
X116959500Y-77373102D01*
X116963752Y-77408506D01*
X116970122Y-77461561D01*
X117025639Y-77602343D01*
X117117077Y-77722922D01*
X117237656Y-77814360D01*
X117237657Y-77814360D01*
X117237658Y-77814361D01*
X117365171Y-77864646D01*
X117420314Y-77907551D01*
X117443507Y-77973459D01*
X117427386Y-78041444D01*
X117377070Y-78089920D01*
X117365178Y-78095351D01*
X117313663Y-78115665D01*
X117237656Y-78145639D01*
X117117077Y-78237077D01*
X117025639Y-78357656D01*
X116970122Y-78498438D01*
X116967223Y-78522584D01*
X116959500Y-78586898D01*
X116959500Y-79198102D01*
X116965126Y-79244954D01*
X116970122Y-79286561D01*
X117025639Y-79427343D01*
X117117077Y-79547922D01*
X117237656Y-79639360D01*
X117237657Y-79639360D01*
X117237658Y-79639361D01*
X117378436Y-79694877D01*
X117450285Y-79703505D01*
X117514498Y-79731041D01*
X117553631Y-79788923D01*
X117559500Y-79826620D01*
X117559500Y-81577401D01*
X117539815Y-81644440D01*
X117523182Y-81665082D01*
X117419478Y-81768786D01*
X117419475Y-81768790D01*
X117340426Y-81905709D01*
X117340423Y-81905716D01*
X117299500Y-82058443D01*
X117299500Y-82216557D01*
X117310888Y-82259055D01*
X117340423Y-82369283D01*
X117340426Y-82369290D01*
X117419475Y-82506209D01*
X117419479Y-82506214D01*
X117419480Y-82506216D01*
X117531284Y-82618020D01*
X117531286Y-82618021D01*
X117531290Y-82618024D01*
X117668209Y-82697073D01*
X117668216Y-82697077D01*
X117820943Y-82738000D01*
X117820945Y-82738000D01*
X117979055Y-82738000D01*
X117979057Y-82738000D01*
X118131784Y-82697077D01*
X118268716Y-82618020D01*
X118380520Y-82506216D01*
X118459577Y-82369284D01*
X118500500Y-82216557D01*
X118500500Y-82058443D01*
X118459577Y-81905716D01*
X118381762Y-81770936D01*
X118377112Y-81762881D01*
X118360500Y-81700882D01*
X118360500Y-79826620D01*
X118380185Y-79759581D01*
X118432989Y-79713826D01*
X118469712Y-79703505D01*
X118541564Y-79694877D01*
X118682342Y-79639361D01*
X118802922Y-79547922D01*
X118894361Y-79427342D01*
X118949877Y-79286564D01*
X118960500Y-79198102D01*
X118960500Y-78586898D01*
X118949877Y-78498436D01*
X118894361Y-78357658D01*
X118894360Y-78357657D01*
X118894360Y-78357656D01*
X118802922Y-78237077D01*
X118682343Y-78145639D01*
X118644339Y-78130652D01*
X118554826Y-78095353D01*
X118499685Y-78052449D01*
X118476492Y-77986541D01*
X118492612Y-77918557D01*
X118542929Y-77870080D01*
X118554814Y-77864651D01*
X118682342Y-77814361D01*
X118802922Y-77722922D01*
X118894361Y-77602342D01*
X118949877Y-77461564D01*
X118960500Y-77373102D01*
X118960500Y-76761898D01*
X118949877Y-76673436D01*
X118894361Y-76532658D01*
X118894360Y-76532657D01*
X118894360Y-76532656D01*
X118802922Y-76412077D01*
X118682343Y-76320639D01*
X118541561Y-76265122D01*
X118495926Y-76259642D01*
X118453102Y-76254500D01*
X117466898Y-76254500D01*
X117427853Y-76259188D01*
X117378438Y-76265122D01*
X117237656Y-76320639D01*
X117117077Y-76412077D01*
X117025639Y-76532656D01*
X116970122Y-76673438D01*
X116964188Y-76722853D01*
X116959500Y-76761898D01*
X115840500Y-76761898D01*
X115829877Y-76673436D01*
X115774361Y-76532658D01*
X115774360Y-76532657D01*
X115774360Y-76532656D01*
X115682922Y-76412077D01*
X115562343Y-76320639D01*
X115421561Y-76265122D01*
X115375926Y-76259642D01*
X115333102Y-76254500D01*
X114346898Y-76254500D01*
X114307853Y-76259188D01*
X114258438Y-76265122D01*
X114117656Y-76320639D01*
X113997077Y-76412077D01*
X113916811Y-76517925D01*
X113860618Y-76559449D01*
X113818007Y-76567000D01*
X112006608Y-76567000D01*
X111879312Y-76601108D01*
X111765186Y-76667000D01*
X111765183Y-76667002D01*
X111052181Y-77380005D01*
X110990858Y-77413490D01*
X110921166Y-77408506D01*
X110865233Y-77366634D01*
X110840816Y-77301170D01*
X110840500Y-77292324D01*
X110840500Y-70344110D01*
X110840500Y-70344108D01*
X110806392Y-70216814D01*
X110740500Y-70102686D01*
X110647314Y-70009500D01*
X109639474Y-69001660D01*
X109605990Y-68940338D01*
X109608898Y-68882244D01*
X109608703Y-68882214D01*
X109608990Y-68880399D01*
X109609228Y-68875653D01*
X109610225Y-68872580D01*
X109610229Y-68872574D01*
X109625500Y-68776158D01*
X109625500Y-68043842D01*
X109624429Y-68037077D01*
X109610230Y-67947431D01*
X109610229Y-67947428D01*
X109610229Y-67947426D01*
X109610227Y-67947422D01*
X109609226Y-67944340D01*
X109609112Y-67940371D01*
X109608703Y-67937786D01*
X109609037Y-67937733D01*
X109607229Y-67874499D01*
X109639473Y-67818339D01*
X110985736Y-66472075D01*
X110985741Y-66472072D01*
X110995944Y-66461868D01*
X110995946Y-66461868D01*
X111089132Y-66368682D01*
X111155024Y-66254554D01*
X111189132Y-66127260D01*
X111189132Y-62327730D01*
X111208817Y-62260691D01*
X111261621Y-62214936D01*
X111330779Y-62204992D01*
X111394335Y-62234017D01*
X111400813Y-62240049D01*
X111431284Y-62270520D01*
X111431286Y-62270521D01*
X111431290Y-62270524D01*
X111568209Y-62349573D01*
X111568216Y-62349577D01*
X111568223Y-62349579D01*
X111570979Y-62350721D01*
X111611209Y-62377602D01*
X130264814Y-81031206D01*
X130298299Y-81092529D01*
X130296908Y-81150979D01*
X130279502Y-81215940D01*
X130279502Y-81215942D01*
X130279502Y-81374056D01*
X130308817Y-81483459D01*
X130320425Y-81526782D01*
X130320428Y-81526789D01*
X130399477Y-81663708D01*
X130399481Y-81663713D01*
X130399482Y-81663715D01*
X130511286Y-81775519D01*
X130511288Y-81775520D01*
X130511292Y-81775523D01*
X130590592Y-81821306D01*
X130648218Y-81854576D01*
X130800945Y-81895499D01*
X130800947Y-81895499D01*
X130959057Y-81895499D01*
X130959059Y-81895499D01*
X131111786Y-81854576D01*
X131248718Y-81775519D01*
X131360522Y-81663715D01*
X131370056Y-81647200D01*
X131420619Y-81598985D01*
X131489225Y-81585759D01*
X131554091Y-81611724D01*
X131565125Y-81621517D01*
X131909518Y-81965910D01*
X131909520Y-81965913D01*
X131984087Y-82040480D01*
X132060805Y-82084773D01*
X132075413Y-82093207D01*
X132177273Y-82120501D01*
X132177275Y-82120501D01*
X132290323Y-82120501D01*
X132290339Y-82120500D01*
X142380225Y-82120500D01*
X142380227Y-82120500D01*
X142482088Y-82093207D01*
X142573413Y-82040480D01*
X146052074Y-78561817D01*
X146113397Y-78528333D01*
X146139755Y-78525499D01*
X147767356Y-78525499D01*
X147767364Y-78525499D01*
X147767379Y-78525497D01*
X147767382Y-78525497D01*
X147792487Y-78522586D01*
X147792488Y-78522585D01*
X147792491Y-78522585D01*
X147895265Y-78477206D01*
X147974706Y-78397765D01*
X148020085Y-78294991D01*
X148023000Y-78269865D01*
X148022999Y-76780136D01*
X148020884Y-76761898D01*
X148020086Y-76755012D01*
X148020085Y-76755010D01*
X148020085Y-76755009D01*
X147974706Y-76652235D01*
X147895265Y-76572794D01*
X147882143Y-76567000D01*
X147792492Y-76527415D01*
X147767365Y-76524500D01*
X145277643Y-76524500D01*
X145277617Y-76524502D01*
X145252512Y-76527413D01*
X145252508Y-76527415D01*
X145149735Y-76572793D01*
X145070294Y-76652234D01*
X145024915Y-76755006D01*
X145024915Y-76755008D01*
X145022000Y-76780131D01*
X145022000Y-78269856D01*
X145022002Y-78269882D01*
X145024913Y-78294987D01*
X145024914Y-78294989D01*
X145039981Y-78329113D01*
X145049052Y-78398391D01*
X145019227Y-78461576D01*
X145014227Y-78466879D01*
X142197926Y-81283181D01*
X142136603Y-81316666D01*
X142110245Y-81319500D01*
X132447254Y-81319500D01*
X132380215Y-81299815D01*
X132359573Y-81283181D01*
X122516819Y-71440426D01*
X122483334Y-71379103D01*
X122480500Y-71352745D01*
X122480500Y-69070098D01*
X122500185Y-69003059D01*
X122516819Y-68982417D01*
X122525831Y-68973405D01*
X122560520Y-68938716D01*
X122639577Y-68801784D01*
X122680500Y-68649057D01*
X122680500Y-68490943D01*
X122639577Y-68338216D01*
X122639573Y-68338209D01*
X122560524Y-68201290D01*
X122560518Y-68201282D01*
X122448717Y-68089481D01*
X122448709Y-68089475D01*
X122311790Y-68010426D01*
X122311786Y-68010424D01*
X122311784Y-68010423D01*
X122159057Y-67969500D01*
X122000943Y-67969500D01*
X121848216Y-68010423D01*
X121848209Y-68010426D01*
X121711290Y-68089475D01*
X121711282Y-68089481D01*
X121599481Y-68201282D01*
X121599475Y-68201290D01*
X121520426Y-68338209D01*
X121520423Y-68338216D01*
X121479500Y-68490943D01*
X121479500Y-68649056D01*
X121520423Y-68801783D01*
X121520426Y-68801790D01*
X121599475Y-68938709D01*
X121599481Y-68938717D01*
X121643181Y-68982417D01*
X121676666Y-69043740D01*
X121679500Y-69070098D01*
X121679500Y-71013745D01*
X121659815Y-71080784D01*
X121607011Y-71126539D01*
X121537853Y-71136483D01*
X121474297Y-71107458D01*
X121467819Y-71101426D01*
X118067336Y-67700943D01*
X129229500Y-67700943D01*
X129229500Y-67859057D01*
X129270059Y-68010423D01*
X129270423Y-68011783D01*
X129270426Y-68011790D01*
X129349475Y-68148709D01*
X129349479Y-68148714D01*
X129349480Y-68148716D01*
X129461284Y-68260520D01*
X129461286Y-68260521D01*
X129461290Y-68260524D01*
X129595859Y-68338216D01*
X129598216Y-68339577D01*
X129680250Y-68361557D01*
X129735837Y-68393651D01*
X136785681Y-75443495D01*
X136819166Y-75504818D01*
X136822000Y-75531176D01*
X136822000Y-78234856D01*
X136822002Y-78234882D01*
X136824913Y-78259987D01*
X136824915Y-78259991D01*
X136870293Y-78362764D01*
X136870294Y-78362765D01*
X136949735Y-78442206D01*
X137052509Y-78487585D01*
X137077635Y-78490500D01*
X142917364Y-78490499D01*
X142917379Y-78490497D01*
X142917382Y-78490497D01*
X142942487Y-78487586D01*
X142942488Y-78487585D01*
X142942491Y-78487585D01*
X143045265Y-78442206D01*
X143124706Y-78362765D01*
X143170085Y-78259991D01*
X143173000Y-78234865D01*
X143172999Y-73699785D01*
X145022501Y-73699785D01*
X145022502Y-73699808D01*
X145025408Y-73724869D01*
X145025409Y-73724873D01*
X145070711Y-73827474D01*
X145070714Y-73827479D01*
X145150020Y-73906785D01*
X145150025Y-73906788D01*
X145252623Y-73952089D01*
X145277706Y-73954999D01*
X146172499Y-73954999D01*
X146872500Y-73954999D01*
X147767286Y-73954999D01*
X147767308Y-73954997D01*
X147792369Y-73952091D01*
X147792373Y-73952090D01*
X147894974Y-73906788D01*
X147894979Y-73906785D01*
X147974285Y-73827479D01*
X147974288Y-73827474D01*
X148019589Y-73724877D01*
X148019589Y-73724875D01*
X148022499Y-73699794D01*
X148022500Y-73699791D01*
X148022500Y-73305000D01*
X146872500Y-73305000D01*
X146872500Y-73954999D01*
X146172499Y-73954999D01*
X146172500Y-73954998D01*
X146172500Y-73305000D01*
X145022501Y-73305000D01*
X145022501Y-73699785D01*
X143172999Y-73699785D01*
X143172999Y-72245136D01*
X143170085Y-72220009D01*
X143165756Y-72210205D01*
X145022500Y-72210205D01*
X145022500Y-72605000D01*
X146172500Y-72605000D01*
X146872500Y-72605000D01*
X148022499Y-72605000D01*
X148022499Y-72210214D01*
X148022497Y-72210191D01*
X148019591Y-72185130D01*
X148019590Y-72185126D01*
X147974288Y-72082525D01*
X147974285Y-72082520D01*
X147894979Y-72003214D01*
X147894974Y-72003211D01*
X147792376Y-71957910D01*
X147767294Y-71955000D01*
X146872500Y-71955000D01*
X146872500Y-72605000D01*
X146172500Y-72605000D01*
X146172500Y-71955000D01*
X145277714Y-71955000D01*
X145277691Y-71955002D01*
X145252630Y-71957908D01*
X145252626Y-71957909D01*
X145150025Y-72003211D01*
X145150020Y-72003214D01*
X145070714Y-72082520D01*
X145070711Y-72082525D01*
X145025410Y-72185122D01*
X145025410Y-72185124D01*
X145022500Y-72210205D01*
X143165756Y-72210205D01*
X143154684Y-72185130D01*
X143124706Y-72117235D01*
X143045265Y-72037794D01*
X142942492Y-71992415D01*
X142917365Y-71989500D01*
X137077643Y-71989500D01*
X137077617Y-71989502D01*
X137052512Y-71992413D01*
X137052508Y-71992415D01*
X136949735Y-72037793D01*
X136870294Y-72117234D01*
X136824915Y-72220006D01*
X136824915Y-72220008D01*
X136822000Y-72245131D01*
X136822000Y-73764824D01*
X136802315Y-73831863D01*
X136749511Y-73877618D01*
X136680353Y-73887562D01*
X136616797Y-73858537D01*
X136610319Y-73852505D01*
X130443651Y-67685837D01*
X130411557Y-67630250D01*
X130389577Y-67548216D01*
X130362612Y-67501510D01*
X130310524Y-67411290D01*
X130310518Y-67411282D01*
X130198717Y-67299481D01*
X130198709Y-67299475D01*
X130061790Y-67220426D01*
X130061786Y-67220424D01*
X130061784Y-67220423D01*
X129909057Y-67179500D01*
X129750943Y-67179500D01*
X129598216Y-67220423D01*
X129598209Y-67220426D01*
X129461290Y-67299475D01*
X129461282Y-67299481D01*
X129349481Y-67411282D01*
X129349475Y-67411290D01*
X129270426Y-67548209D01*
X129270423Y-67548216D01*
X129229500Y-67700943D01*
X118067336Y-67700943D01*
X112416243Y-62049850D01*
X112382758Y-61988527D01*
X112384150Y-61930074D01*
X112392110Y-61900368D01*
X112400500Y-61869057D01*
X112400500Y-61710943D01*
X112359577Y-61558216D01*
X112338737Y-61522119D01*
X112280524Y-61421290D01*
X112280518Y-61421282D01*
X112197116Y-61337880D01*
X148124500Y-61337880D01*
X148124500Y-61522120D01*
X148135176Y-61589525D01*
X148153322Y-61704094D01*
X148210253Y-61879313D01*
X148265901Y-61988527D01*
X148293899Y-62043475D01*
X148402193Y-62192529D01*
X148532471Y-62322807D01*
X148681525Y-62431101D01*
X148845684Y-62514745D01*
X148845686Y-62514746D01*
X148933295Y-62543211D01*
X149020907Y-62571678D01*
X149052441Y-62576672D01*
X149057835Y-62577527D01*
X149120970Y-62607456D01*
X149157901Y-62666768D01*
X149156903Y-62736630D01*
X149118293Y-62794863D01*
X149057835Y-62822473D01*
X149020905Y-62828322D01*
X148845686Y-62885253D01*
X148681524Y-62968899D01*
X148596484Y-63030684D01*
X148532471Y-63077193D01*
X148532469Y-63077195D01*
X148532468Y-63077195D01*
X148402195Y-63207468D01*
X148402195Y-63207469D01*
X148402193Y-63207471D01*
X148355684Y-63271484D01*
X148293899Y-63356524D01*
X148210253Y-63520686D01*
X148153322Y-63695905D01*
X148124500Y-63877880D01*
X148124500Y-64062119D01*
X148153322Y-64244094D01*
X148210253Y-64419313D01*
X148271864Y-64540229D01*
X148293899Y-64583475D01*
X148402193Y-64732529D01*
X148532471Y-64862807D01*
X148681525Y-64971101D01*
X148845684Y-65054745D01*
X148845686Y-65054746D01*
X148933295Y-65083211D01*
X149020907Y-65111678D01*
X149052441Y-65116672D01*
X149057835Y-65117527D01*
X149120970Y-65147456D01*
X149157901Y-65206768D01*
X149156903Y-65276630D01*
X149118293Y-65334863D01*
X149057835Y-65362473D01*
X149020905Y-65368322D01*
X148845686Y-65425253D01*
X148681524Y-65508899D01*
X148650406Y-65531508D01*
X148532471Y-65617193D01*
X148532469Y-65617195D01*
X148532468Y-65617195D01*
X148402195Y-65747468D01*
X148402195Y-65747469D01*
X148402193Y-65747471D01*
X148362073Y-65802692D01*
X148293899Y-65896524D01*
X148210253Y-66060686D01*
X148153322Y-66235905D01*
X148124500Y-66417880D01*
X148124500Y-66602119D01*
X148153322Y-66784094D01*
X148210253Y-66959313D01*
X148210255Y-66959316D01*
X148293899Y-67123475D01*
X148402193Y-67272529D01*
X148532471Y-67402807D01*
X148681525Y-67511101D01*
X148754353Y-67548209D01*
X148845686Y-67594746D01*
X148977482Y-67637569D01*
X149035157Y-67677006D01*
X149062356Y-67741365D01*
X149050442Y-67810211D01*
X149003198Y-67861687D01*
X148939164Y-67879500D01*
X148631898Y-67879500D01*
X148592853Y-67884188D01*
X148543438Y-67890122D01*
X148402656Y-67945639D01*
X148282077Y-68037077D01*
X148190639Y-68157656D01*
X148135122Y-68298438D01*
X148129188Y-68347853D01*
X148124500Y-68386898D01*
X148124500Y-69713102D01*
X148130126Y-69759954D01*
X148135122Y-69801561D01*
X148190639Y-69942343D01*
X148282077Y-70062922D01*
X148402656Y-70154360D01*
X148402657Y-70154360D01*
X148402658Y-70154361D01*
X148543436Y-70209877D01*
X148631898Y-70220500D01*
X148631903Y-70220500D01*
X150408097Y-70220500D01*
X150408102Y-70220500D01*
X150496564Y-70209877D01*
X150637342Y-70154361D01*
X150757922Y-70062922D01*
X150849361Y-69942342D01*
X150904877Y-69801564D01*
X150915500Y-69713102D01*
X150915500Y-68386898D01*
X150904877Y-68298436D01*
X150849361Y-68157658D01*
X150849360Y-68157657D01*
X150849360Y-68157656D01*
X150757922Y-68037077D01*
X150637343Y-67945639D01*
X150496561Y-67890122D01*
X150450926Y-67884642D01*
X150408102Y-67879500D01*
X150100836Y-67879500D01*
X150033797Y-67859815D01*
X149988042Y-67807011D01*
X149978098Y-67737853D01*
X150007123Y-67674297D01*
X150062518Y-67637569D01*
X150194313Y-67594746D01*
X150194313Y-67594745D01*
X150194316Y-67594745D01*
X150358475Y-67511101D01*
X150507529Y-67402807D01*
X150637807Y-67272529D01*
X150746101Y-67123475D01*
X150829745Y-66959316D01*
X150886678Y-66784093D01*
X150915500Y-66602120D01*
X150915500Y-66417880D01*
X150886678Y-66235907D01*
X150829745Y-66060684D01*
X150746101Y-65896525D01*
X150637807Y-65747471D01*
X150507529Y-65617193D01*
X150358475Y-65508899D01*
X150194313Y-65425253D01*
X150019094Y-65368322D01*
X149982164Y-65362473D01*
X149919030Y-65332544D01*
X149882098Y-65273233D01*
X149883096Y-65203370D01*
X149921705Y-65145137D01*
X149982164Y-65117527D01*
X150019093Y-65111678D01*
X150194316Y-65054745D01*
X150358475Y-64971101D01*
X150507529Y-64862807D01*
X150637807Y-64732529D01*
X150746101Y-64583475D01*
X150829745Y-64419316D01*
X150886678Y-64244093D01*
X150915500Y-64062120D01*
X150915500Y-63877880D01*
X150886678Y-63695907D01*
X150829745Y-63520684D01*
X150746101Y-63356525D01*
X150637807Y-63207471D01*
X150507529Y-63077193D01*
X150358475Y-62968899D01*
X150194313Y-62885253D01*
X150019094Y-62828322D01*
X149982164Y-62822473D01*
X149919030Y-62792544D01*
X149882098Y-62733233D01*
X149883096Y-62663370D01*
X149921705Y-62605137D01*
X149982164Y-62577527D01*
X150019093Y-62571678D01*
X150194316Y-62514745D01*
X150358475Y-62431101D01*
X150507529Y-62322807D01*
X150637807Y-62192529D01*
X150746101Y-62043475D01*
X150829745Y-61879316D01*
X150886678Y-61704093D01*
X150915500Y-61522120D01*
X150915500Y-61337880D01*
X150886678Y-61155907D01*
X150856121Y-61061861D01*
X150829746Y-60980686D01*
X150763077Y-60849842D01*
X150746101Y-60816525D01*
X150637807Y-60667471D01*
X150507529Y-60537193D01*
X150358475Y-60428899D01*
X150314026Y-60406251D01*
X150194313Y-60345253D01*
X150019094Y-60288322D01*
X149928106Y-60273911D01*
X149837120Y-60259500D01*
X149202880Y-60259500D01*
X149162908Y-60265831D01*
X149020905Y-60288322D01*
X148845686Y-60345253D01*
X148681524Y-60428899D01*
X148617723Y-60475254D01*
X148532471Y-60537193D01*
X148532469Y-60537195D01*
X148532468Y-60537195D01*
X148402195Y-60667468D01*
X148402195Y-60667469D01*
X148402193Y-60667471D01*
X148395666Y-60676455D01*
X148293899Y-60816524D01*
X148210253Y-60980686D01*
X148153322Y-61155905D01*
X148153322Y-61155907D01*
X148124500Y-61337880D01*
X112197116Y-61337880D01*
X112168717Y-61309481D01*
X112168716Y-61309480D01*
X112046725Y-61239049D01*
X111998511Y-61188484D01*
X111985287Y-61119877D01*
X112011255Y-61055012D01*
X112021037Y-61043990D01*
X112288209Y-60776819D01*
X112349532Y-60743334D01*
X112375890Y-60740500D01*
X113143126Y-60740500D01*
X113210165Y-60760185D01*
X113255920Y-60812989D01*
X113258481Y-60819011D01*
X113270639Y-60849842D01*
X113362077Y-60970422D01*
X113482656Y-61061860D01*
X113482657Y-61061860D01*
X113482658Y-61061861D01*
X113623436Y-61117377D01*
X113711898Y-61128000D01*
X113711903Y-61128000D01*
X114748097Y-61128000D01*
X114748102Y-61128000D01*
X114836564Y-61117377D01*
X114977342Y-61061861D01*
X115097922Y-60970422D01*
X115189361Y-60849842D01*
X115201519Y-60819010D01*
X115244424Y-60763867D01*
X115310332Y-60740673D01*
X115316874Y-60740500D01*
X116153126Y-60740500D01*
X116220165Y-60760185D01*
X116265920Y-60812989D01*
X116268481Y-60819011D01*
X116280639Y-60849842D01*
X116372077Y-60970422D01*
X116492656Y-61061860D01*
X116492657Y-61061860D01*
X116492658Y-61061861D01*
X116633436Y-61117377D01*
X116721898Y-61128000D01*
X116721903Y-61128000D01*
X117758097Y-61128000D01*
X117758102Y-61128000D01*
X117846564Y-61117377D01*
X117987342Y-61061861D01*
X118107922Y-60970422D01*
X118199361Y-60849842D01*
X118211519Y-60819010D01*
X118254424Y-60763867D01*
X118320332Y-60740673D01*
X118326874Y-60740500D01*
X119163126Y-60740500D01*
X119230165Y-60760185D01*
X119275920Y-60812989D01*
X119278481Y-60819011D01*
X119290639Y-60849842D01*
X119382077Y-60970422D01*
X119502656Y-61061860D01*
X119502657Y-61061860D01*
X119502658Y-61061861D01*
X119643436Y-61117377D01*
X119731898Y-61128000D01*
X119731903Y-61128000D01*
X120768097Y-61128000D01*
X120768102Y-61128000D01*
X120856564Y-61117377D01*
X120997342Y-61061861D01*
X121117922Y-60970422D01*
X121209361Y-60849842D01*
X121221519Y-60819010D01*
X121264424Y-60763867D01*
X121330332Y-60740673D01*
X121336874Y-60740500D01*
X122173126Y-60740500D01*
X122240165Y-60760185D01*
X122285920Y-60812989D01*
X122288481Y-60819011D01*
X122300639Y-60849842D01*
X122392077Y-60970422D01*
X122512656Y-61061860D01*
X122512657Y-61061860D01*
X122512658Y-61061861D01*
X122653436Y-61117377D01*
X122741898Y-61128000D01*
X122741903Y-61128000D01*
X123778097Y-61128000D01*
X123778102Y-61128000D01*
X123866564Y-61117377D01*
X124007342Y-61061861D01*
X124127922Y-60970422D01*
X124219361Y-60849842D01*
X124231519Y-60819010D01*
X124274424Y-60763867D01*
X124340332Y-60740673D01*
X124346874Y-60740500D01*
X125183126Y-60740500D01*
X125250165Y-60760185D01*
X125295920Y-60812989D01*
X125298481Y-60819011D01*
X125310639Y-60849842D01*
X125402077Y-60970422D01*
X125522656Y-61061860D01*
X125522657Y-61061860D01*
X125522658Y-61061861D01*
X125663436Y-61117377D01*
X125751898Y-61128000D01*
X125751903Y-61128000D01*
X126788097Y-61128000D01*
X126788102Y-61128000D01*
X126876564Y-61117377D01*
X127017342Y-61061861D01*
X127137922Y-60970422D01*
X127229361Y-60849842D01*
X127241519Y-60819010D01*
X127284424Y-60763867D01*
X127350332Y-60740673D01*
X127356874Y-60740500D01*
X144965890Y-60740500D01*
X144965892Y-60740500D01*
X145093186Y-60706392D01*
X145207314Y-60640500D01*
X148161727Y-57686085D01*
X148223048Y-57652602D01*
X148292740Y-57657586D01*
X148324331Y-57674964D01*
X148402656Y-57734360D01*
X148402657Y-57734360D01*
X148402658Y-57734361D01*
X148543436Y-57789877D01*
X148631898Y-57800500D01*
X148631903Y-57800500D01*
X150408097Y-57800500D01*
X150408102Y-57800500D01*
X150496564Y-57789877D01*
X150637342Y-57734361D01*
X150757922Y-57642922D01*
X150849361Y-57522342D01*
X150904877Y-57381564D01*
X150915500Y-57293102D01*
X150915500Y-57128676D01*
X150935185Y-57061637D01*
X150951819Y-57040995D01*
X152375738Y-55617076D01*
X153960500Y-54032314D01*
X154026392Y-53918186D01*
X154060500Y-53790892D01*
X154060500Y-53659108D01*
X154060500Y-36559108D01*
X154026392Y-36431814D01*
X153960500Y-36317686D01*
X153867314Y-36224500D01*
X151292314Y-33649500D01*
X151224111Y-33610123D01*
X151178187Y-33583608D01*
X151109374Y-33565170D01*
X151050892Y-33549500D01*
X151050891Y-33549500D01*
X151039500Y-33549500D01*
X150972461Y-33529815D01*
X150926706Y-33477011D01*
X150915500Y-33425500D01*
X150915500Y-33386903D01*
X150915500Y-33386898D01*
X150904877Y-33298436D01*
X150849361Y-33157658D01*
X150849360Y-33157657D01*
X150849360Y-33157656D01*
X150757922Y-33037077D01*
X150637343Y-32945639D01*
X150520484Y-32899556D01*
X150496564Y-32890123D01*
X150496563Y-32890122D01*
X150496561Y-32890122D01*
X150450926Y-32884642D01*
X150408102Y-32879500D01*
X150099219Y-32879500D01*
X150032180Y-32859815D01*
X149986425Y-32807011D01*
X149976481Y-32737853D01*
X150005506Y-32674297D01*
X150060900Y-32637569D01*
X150194128Y-32594280D01*
X150358214Y-32510673D01*
X150507205Y-32402423D01*
X150507206Y-32402423D01*
X150637423Y-32272206D01*
X150637423Y-32272205D01*
X150745673Y-32123214D01*
X150829282Y-31959124D01*
X150829283Y-31959121D01*
X150861489Y-31860000D01*
X150004973Y-31860000D01*
X150074452Y-31739661D01*
X150115000Y-31588333D01*
X150115000Y-31431667D01*
X150074452Y-31280339D01*
X150004973Y-31160000D01*
X150861489Y-31160000D01*
X150861489Y-31159999D01*
X150829283Y-31060878D01*
X150829282Y-31060875D01*
X150745673Y-30896785D01*
X150637423Y-30747794D01*
X150637423Y-30747793D01*
X150507206Y-30617576D01*
X150358214Y-30509326D01*
X150194128Y-30425719D01*
X150018978Y-30368809D01*
X149980567Y-30362725D01*
X149917433Y-30332794D01*
X149880503Y-30273482D01*
X149881502Y-30203620D01*
X149920112Y-30145388D01*
X149980566Y-30117780D01*
X150019093Y-30111678D01*
X150194316Y-30054745D01*
X150358475Y-29971101D01*
X150507529Y-29862807D01*
X150637807Y-29732529D01*
X150746101Y-29583475D01*
X150829745Y-29419316D01*
X150886678Y-29244093D01*
X150915500Y-29062120D01*
X150915500Y-28877880D01*
X150886678Y-28695907D01*
X150854411Y-28596599D01*
X150829746Y-28520686D01*
X150808843Y-28479662D01*
X150746101Y-28356525D01*
X150637807Y-28207471D01*
X150507529Y-28077193D01*
X150358475Y-27968899D01*
X150293384Y-27935733D01*
X150194313Y-27885253D01*
X150019094Y-27828322D01*
X149982164Y-27822473D01*
X149919030Y-27792544D01*
X149882098Y-27733233D01*
X149883096Y-27663370D01*
X149921705Y-27605137D01*
X149982164Y-27577527D01*
X150019093Y-27571678D01*
X150194316Y-27514745D01*
X150358475Y-27431101D01*
X150507529Y-27322807D01*
X150637807Y-27192529D01*
X150746101Y-27043475D01*
X150829745Y-26879316D01*
X150886678Y-26704093D01*
X150915500Y-26522120D01*
X150915500Y-26337880D01*
X150886678Y-26155907D01*
X150850279Y-26043882D01*
X150829746Y-25980686D01*
X150801372Y-25925000D01*
X150746101Y-25816525D01*
X150637807Y-25667471D01*
X150507529Y-25537193D01*
X150358475Y-25428899D01*
X150194313Y-25345253D01*
X150019094Y-25288322D01*
X149928106Y-25273911D01*
X149837120Y-25259500D01*
X149202880Y-25259500D01*
X149142222Y-25269107D01*
X149020905Y-25288322D01*
X148845686Y-25345253D01*
X148681524Y-25428899D01*
X148596484Y-25490684D01*
X148532471Y-25537193D01*
X148532469Y-25537195D01*
X148532468Y-25537195D01*
X148402195Y-25667468D01*
X148402195Y-25667469D01*
X148402193Y-25667471D01*
X148355684Y-25731484D01*
X148293899Y-25816524D01*
X148210253Y-25980686D01*
X148153322Y-26155905D01*
X148124500Y-26337880D01*
X148124500Y-26522119D01*
X148153322Y-26704094D01*
X148210253Y-26879313D01*
X148210255Y-26879316D01*
X148293899Y-27043475D01*
X148402193Y-27192529D01*
X148532471Y-27322807D01*
X148681525Y-27431101D01*
X148845684Y-27514745D01*
X148845686Y-27514746D01*
X148906081Y-27534369D01*
X149020907Y-27571678D01*
X149052441Y-27576672D01*
X149057835Y-27577527D01*
X149120970Y-27607456D01*
X149157901Y-27666768D01*
X149156903Y-27736630D01*
X149118293Y-27794863D01*
X149057835Y-27822473D01*
X149020905Y-27828322D01*
X148845686Y-27885253D01*
X148681524Y-27968899D01*
X148607734Y-28022511D01*
X148532471Y-28077193D01*
X148532469Y-28077195D01*
X148532468Y-28077195D01*
X148402195Y-28207468D01*
X148402195Y-28207469D01*
X148402193Y-28207471D01*
X148368126Y-28254360D01*
X148293899Y-28356524D01*
X148210253Y-28520686D01*
X148153322Y-28695905D01*
X148124500Y-28877880D01*
X148124500Y-29062119D01*
X148153322Y-29244094D01*
X148210253Y-29419313D01*
X148256113Y-29509316D01*
X148293899Y-29583475D01*
X148402193Y-29732529D01*
X148532471Y-29862807D01*
X148681525Y-29971101D01*
X148782012Y-30022302D01*
X148845686Y-30054746D01*
X148924719Y-30080425D01*
X149020907Y-30111678D01*
X149059431Y-30117779D01*
X149122563Y-30147707D01*
X149159495Y-30207018D01*
X149158499Y-30276881D01*
X149119890Y-30335114D01*
X149059432Y-30362725D01*
X149021021Y-30368809D01*
X148845871Y-30425719D01*
X148681785Y-30509326D01*
X148532794Y-30617576D01*
X148532793Y-30617576D01*
X148402576Y-30747793D01*
X148402576Y-30747794D01*
X148294326Y-30896785D01*
X148210717Y-31060875D01*
X148210716Y-31060878D01*
X148178510Y-31159999D01*
X148178511Y-31160000D01*
X149035027Y-31160000D01*
X148965548Y-31280339D01*
X148925000Y-31431667D01*
X148925000Y-31588333D01*
X148965548Y-31739661D01*
X149035027Y-31860000D01*
X148178511Y-31860000D01*
X148210716Y-31959121D01*
X148210717Y-31959124D01*
X148294326Y-32123214D01*
X148402576Y-32272205D01*
X148402576Y-32272206D01*
X148532793Y-32402423D01*
X148681785Y-32510673D01*
X148845871Y-32594280D01*
X148979100Y-32637569D01*
X149036775Y-32677007D01*
X149063973Y-32741366D01*
X149052058Y-32810212D01*
X149004814Y-32861688D01*
X148940781Y-32879500D01*
X148631898Y-32879500D01*
X148592853Y-32884188D01*
X148543438Y-32890122D01*
X148402657Y-32945639D01*
X148358454Y-32979159D01*
X148293142Y-33003981D01*
X148224779Y-32989552D01*
X148195849Y-32968035D01*
X143977316Y-28749502D01*
X143977314Y-28749500D01*
X143897574Y-28703462D01*
X143863187Y-28683608D01*
X143791873Y-28664500D01*
X143735892Y-28649500D01*
X143735891Y-28649500D01*
X116899834Y-28649500D01*
X116837834Y-28632887D01*
X116830178Y-28628467D01*
X116787987Y-28604108D01*
X116764286Y-28590424D01*
X116764285Y-28590423D01*
X116764284Y-28590423D01*
X116611557Y-28549500D01*
X116453443Y-28549500D01*
X116300716Y-28590423D01*
X116300713Y-28590424D01*
X116243977Y-28623181D01*
X116234822Y-28628467D01*
X116227166Y-28632887D01*
X116165166Y-28649500D01*
X113016900Y-28649500D01*
X112988114Y-28641047D01*
X112958723Y-28635005D01*
X112952921Y-28630713D01*
X112949861Y-28629815D01*
X112930228Y-28614179D01*
X112929697Y-28613660D01*
X112846211Y-28530174D01*
X112842342Y-28528282D01*
X112832197Y-28518367D01*
X112819593Y-28495900D01*
X112803694Y-28475631D01*
X112802779Y-28465929D01*
X112798012Y-28457431D01*
X112799555Y-28431715D01*
X112797139Y-28406069D01*
X112801615Y-28397413D01*
X112802199Y-28387687D01*
X112817398Y-28366890D01*
X112829232Y-28344007D01*
X112842570Y-28332450D01*
X112843427Y-28331278D01*
X112844322Y-28330932D01*
X112844894Y-28330436D01*
X112934412Y-28240918D01*
X112989380Y-28128479D01*
X112994258Y-28095000D01*
X111839000Y-28095000D01*
X111771961Y-28075315D01*
X111726206Y-28022511D01*
X111715000Y-27971000D01*
X111715000Y-27619000D01*
X111734685Y-27551961D01*
X111787489Y-27506206D01*
X111839000Y-27495000D01*
X112994258Y-27495000D01*
X112994258Y-27494999D01*
X112989380Y-27461520D01*
X112934412Y-27349081D01*
X112838652Y-27253321D01*
X112839751Y-27252221D01*
X112803695Y-27206255D01*
X112797139Y-27136693D01*
X112829232Y-27074630D01*
X112845522Y-27060515D01*
X112934827Y-26971210D01*
X112976807Y-26885338D01*
X112989866Y-26858625D01*
X113000500Y-26785636D01*
X113000500Y-26264364D01*
X112989866Y-26191375D01*
X112987518Y-26186572D01*
X112934827Y-26078789D01*
X112846210Y-25990172D01*
X112733628Y-25935135D01*
X112733626Y-25935134D01*
X112733625Y-25935134D01*
X112660636Y-25924500D01*
X110769364Y-25924500D01*
X110696375Y-25935134D01*
X110696373Y-25935134D01*
X110696371Y-25935135D01*
X110583789Y-25990172D01*
X110495172Y-26078789D01*
X110440135Y-26191371D01*
X110440134Y-26191373D01*
X110440134Y-26191375D01*
X110429500Y-26264364D01*
X110429500Y-26264369D01*
X110429500Y-26461569D01*
X110409815Y-26528608D01*
X110393181Y-26549250D01*
X109029838Y-27912593D01*
X108968515Y-27946078D01*
X108942157Y-27948912D01*
X108880355Y-27948912D01*
X108727628Y-27989835D01*
X108727621Y-27989838D01*
X108590702Y-28068887D01*
X108590694Y-28068893D01*
X108478893Y-28180694D01*
X108478887Y-28180702D01*
X108399838Y-28317621D01*
X108399835Y-28317628D01*
X108358912Y-28470355D01*
X108358912Y-28532157D01*
X108350267Y-28561596D01*
X108343744Y-28591584D01*
X108339989Y-28596599D01*
X108339227Y-28599196D01*
X108322597Y-28619833D01*
X108258823Y-28683608D01*
X108225597Y-28716834D01*
X108164273Y-28750318D01*
X108094582Y-28745334D01*
X108038649Y-28703462D01*
X108026517Y-28683615D01*
X107994826Y-28618789D01*
X107994825Y-28618788D01*
X107994825Y-28618787D01*
X107898946Y-28522908D01*
X107900080Y-28521773D01*
X107864133Y-28475950D01*
X107857574Y-28406389D01*
X107889663Y-28344324D01*
X107905026Y-28331011D01*
X107994827Y-28241210D01*
X108024411Y-28180694D01*
X108049866Y-28128625D01*
X108060500Y-28055636D01*
X108060500Y-27534364D01*
X108049866Y-27461375D01*
X108035066Y-27431101D01*
X107994827Y-27348789D01*
X107898946Y-27252908D01*
X107900080Y-27251773D01*
X107864133Y-27205950D01*
X107857574Y-27136389D01*
X107889663Y-27074324D01*
X107905026Y-27061011D01*
X107994827Y-26971210D01*
X108036807Y-26885338D01*
X108049866Y-26858625D01*
X108060500Y-26785636D01*
X108060500Y-26264364D01*
X108049866Y-26191375D01*
X108047518Y-26186572D01*
X107994827Y-26078789D01*
X107906210Y-25990172D01*
X107793628Y-25935135D01*
X107793626Y-25935134D01*
X107793625Y-25935134D01*
X107720636Y-25924500D01*
X107720630Y-25924500D01*
X107299500Y-25924500D01*
X107232461Y-25904815D01*
X107186706Y-25852011D01*
X107175500Y-25800500D01*
X107175500Y-22550472D01*
X107195185Y-22483433D01*
X107217416Y-22459405D01*
X107216927Y-22458916D01*
X107222913Y-22452928D01*
X107222922Y-22452922D01*
X107314361Y-22332342D01*
X107364916Y-22204144D01*
X107407818Y-22149004D01*
X107473726Y-22125810D01*
X107541711Y-22141930D01*
X107590188Y-22192246D01*
X107595622Y-22204147D01*
X107646077Y-22332091D01*
X107646078Y-22332093D01*
X107737435Y-22452564D01*
X107857904Y-22543920D01*
X107998557Y-22599386D01*
X108042500Y-22604662D01*
X108742500Y-22604662D01*
X108786442Y-22599386D01*
X108927095Y-22543920D01*
X109047564Y-22452564D01*
X109138920Y-22332095D01*
X109194386Y-22191443D01*
X109205000Y-22103053D01*
X109205000Y-21960000D01*
X108742500Y-21960000D01*
X108742500Y-22604662D01*
X108042500Y-22604662D01*
X108042500Y-21260000D01*
X108742500Y-21260000D01*
X109205000Y-21260000D01*
X109205000Y-21116946D01*
X109194386Y-21028556D01*
X109138920Y-20887904D01*
X109047564Y-20767435D01*
X108927095Y-20676079D01*
X108786442Y-20620613D01*
X108742500Y-20615336D01*
X108742500Y-21260000D01*
X108042500Y-21260000D01*
X108042500Y-20615336D01*
X108042499Y-20615336D01*
X107998557Y-20620613D01*
X107857904Y-20676079D01*
X107737435Y-20767435D01*
X107646078Y-20887906D01*
X107595622Y-21015853D01*
X107552716Y-21070996D01*
X107486808Y-21094189D01*
X107418824Y-21078068D01*
X107370348Y-21027751D01*
X107364920Y-21015868D01*
X107315096Y-20889522D01*
X107314361Y-20887657D01*
X107222922Y-20767077D01*
X107102343Y-20675639D01*
X107006192Y-20637722D01*
X106961564Y-20620123D01*
X106961563Y-20620122D01*
X106961561Y-20620122D01*
X106915926Y-20614642D01*
X106873102Y-20609500D01*
X106261898Y-20609500D01*
X106222853Y-20614188D01*
X106173438Y-20620122D01*
X106032656Y-20675639D01*
X105912077Y-20767077D01*
X105820639Y-20887656D01*
X105765122Y-21028438D01*
X105760012Y-21070996D01*
X105754500Y-21116898D01*
X105754500Y-22103102D01*
X105757227Y-22125810D01*
X105765122Y-22191561D01*
X105820639Y-22332343D01*
X105912077Y-22452922D01*
X106032656Y-22544360D01*
X106032657Y-22544360D01*
X106032658Y-22544361D01*
X106173436Y-22599877D01*
X106261898Y-22610500D01*
X106261909Y-22610500D01*
X106265282Y-22610905D01*
X106329497Y-22638441D01*
X106368631Y-22696323D01*
X106374500Y-22734021D01*
X106374500Y-25800500D01*
X106354815Y-25867539D01*
X106302011Y-25913294D01*
X106250500Y-25924500D01*
X105829364Y-25924500D01*
X105756375Y-25935134D01*
X105756373Y-25935134D01*
X105756371Y-25935135D01*
X105643789Y-25990172D01*
X105555172Y-26078789D01*
X105500135Y-26191371D01*
X105500134Y-26191373D01*
X105500134Y-26191375D01*
X105489500Y-26264364D01*
X105489500Y-26785636D01*
X105500134Y-26858625D01*
X105500134Y-26858626D01*
X105500135Y-26858628D01*
X105555172Y-26971210D01*
X105651054Y-27067092D01*
X105649919Y-27068226D01*
X105685869Y-27114057D01*
X105692424Y-27183619D01*
X105660330Y-27245681D01*
X105657788Y-27248265D01*
X105647613Y-27258304D01*
X105643789Y-27260174D01*
X105555174Y-27348789D01*
X105554486Y-27350196D01*
X105545802Y-27358765D01*
X105524057Y-27370450D01*
X105504637Y-27385680D01*
X105490759Y-27388344D01*
X105484256Y-27391840D01*
X105475945Y-27391189D01*
X105458708Y-27394500D01*
X104652255Y-27394500D01*
X104585216Y-27374815D01*
X104564574Y-27358181D01*
X99641819Y-22435426D01*
X99608334Y-22374103D01*
X99605500Y-22347745D01*
X99605500Y-19395098D01*
X99625185Y-19328059D01*
X99641819Y-19307417D01*
X99685520Y-19263716D01*
X99764577Y-19126784D01*
X99805500Y-18974057D01*
X99805500Y-18815943D01*
X99764577Y-18663216D01*
X99716015Y-18579103D01*
X99685524Y-18526290D01*
X99685518Y-18526282D01*
X99573717Y-18414481D01*
X99573709Y-18414475D01*
X99436790Y-18335426D01*
X99436786Y-18335424D01*
X99436784Y-18335423D01*
X99284057Y-18294500D01*
X99125943Y-18294500D01*
X98973216Y-18335423D01*
X98973209Y-18335426D01*
X98836290Y-18414475D01*
X98836282Y-18414481D01*
X98724481Y-18526282D01*
X98724475Y-18526290D01*
X98645426Y-18663209D01*
X98645423Y-18663216D01*
X98604500Y-18815943D01*
X98604500Y-18974057D01*
X98624990Y-19050524D01*
X98645423Y-19126783D01*
X98645426Y-19126790D01*
X98724475Y-19263709D01*
X98724481Y-19263717D01*
X98768181Y-19307417D01*
X98801666Y-19368740D01*
X98804500Y-19395098D01*
X98804500Y-21901245D01*
X98784815Y-21968284D01*
X98732011Y-22014039D01*
X98662853Y-22023983D01*
X98599297Y-21994958D01*
X98592819Y-21988926D01*
X95244319Y-18640426D01*
X95210834Y-18579103D01*
X95208000Y-18552745D01*
X95208000Y-18490945D01*
X95208000Y-18490943D01*
X95167077Y-18338216D01*
X95165466Y-18335426D01*
X95088024Y-18201290D01*
X95088018Y-18201282D01*
X94976217Y-18089481D01*
X94976209Y-18089475D01*
X94839290Y-18010426D01*
X94839286Y-18010424D01*
X94839284Y-18010423D01*
X94686557Y-17969500D01*
X94528443Y-17969500D01*
X94375716Y-18010423D01*
X94375709Y-18010426D01*
X94238790Y-18089475D01*
X94238782Y-18089481D01*
X94126981Y-18201282D01*
X94126975Y-18201290D01*
X94047926Y-18338209D01*
X94047923Y-18338216D01*
X94007000Y-18490943D01*
X94007000Y-18649056D01*
X94047923Y-18801783D01*
X94047926Y-18801790D01*
X94126975Y-18938709D01*
X94126979Y-18938714D01*
X94126980Y-18938716D01*
X94238784Y-19050520D01*
X94238786Y-19050521D01*
X94238790Y-19050524D01*
X94370877Y-19126783D01*
X94375716Y-19129577D01*
X94528443Y-19170500D01*
X94590245Y-19170500D01*
X94657284Y-19190185D01*
X94677926Y-19206819D01*
X96068926Y-20597819D01*
X96102411Y-20659142D01*
X96097427Y-20728834D01*
X96055555Y-20784767D01*
X95990091Y-20809184D01*
X95981245Y-20809500D01*
X90350173Y-20809500D01*
X90248310Y-20836793D01*
X90156987Y-20889520D01*
X90156984Y-20889522D01*
X88485724Y-22560782D01*
X88485722Y-22560785D01*
X88432995Y-22652109D01*
X88432995Y-22652110D01*
X88432887Y-22652513D01*
X88405702Y-22753971D01*
X86020500Y-22753971D01*
X86020500Y-13929256D01*
X88320000Y-13929256D01*
X88320000Y-14230743D01*
X88320001Y-14230759D01*
X88359353Y-14529667D01*
X88437389Y-14820901D01*
X88552765Y-15099443D01*
X88552770Y-15099454D01*
X88703510Y-15360543D01*
X88703516Y-15360550D01*
X88764715Y-15440308D01*
X89449206Y-14755817D01*
X89465377Y-14787554D01*
X89590278Y-14959466D01*
X89740534Y-15109722D01*
X89912446Y-15234623D01*
X89944180Y-15250792D01*
X89259690Y-15935283D01*
X89259690Y-15935284D01*
X89339447Y-15996483D01*
X89600545Y-16147229D01*
X89600556Y-16147234D01*
X89879098Y-16262610D01*
X90170332Y-16340646D01*
X90469240Y-16379998D01*
X90469257Y-16380000D01*
X90770743Y-16380000D01*
X90770759Y-16379998D01*
X91069667Y-16340646D01*
X91360901Y-16262610D01*
X91639443Y-16147234D01*
X91639454Y-16147229D01*
X91900545Y-15996487D01*
X91900553Y-15996481D01*
X91980308Y-15935283D01*
X91295818Y-15250792D01*
X91327554Y-15234623D01*
X91499466Y-15109722D01*
X91649722Y-14959466D01*
X91774623Y-14787554D01*
X91790793Y-14755818D01*
X92475283Y-15440308D01*
X92536481Y-15360553D01*
X92536487Y-15360545D01*
X92687229Y-15099454D01*
X92687234Y-15099443D01*
X92802610Y-14820901D01*
X92880646Y-14529667D01*
X92919998Y-14230759D01*
X92920000Y-14230743D01*
X92920000Y-13929256D01*
X148320000Y-13929256D01*
X148320000Y-14230743D01*
X148320001Y-14230759D01*
X148359353Y-14529667D01*
X148437389Y-14820901D01*
X148552765Y-15099443D01*
X148552770Y-15099454D01*
X148703510Y-15360543D01*
X148703516Y-15360550D01*
X148764715Y-15440308D01*
X149449206Y-14755816D01*
X149465377Y-14787554D01*
X149590278Y-14959466D01*
X149740534Y-15109722D01*
X149912446Y-15234623D01*
X149944180Y-15250792D01*
X149259690Y-15935283D01*
X149259690Y-15935284D01*
X149339447Y-15996483D01*
X149600545Y-16147229D01*
X149600556Y-16147234D01*
X149879098Y-16262610D01*
X150170332Y-16340646D01*
X150469240Y-16379998D01*
X150469257Y-16380000D01*
X150770743Y-16380000D01*
X150770759Y-16379998D01*
X151069667Y-16340646D01*
X151360901Y-16262610D01*
X151639443Y-16147234D01*
X151639454Y-16147229D01*
X151900545Y-15996487D01*
X151900553Y-15996481D01*
X151980308Y-15935283D01*
X151295818Y-15250792D01*
X151327554Y-15234623D01*
X151499466Y-15109722D01*
X151649722Y-14959466D01*
X151774623Y-14787554D01*
X151790793Y-14755818D01*
X152475283Y-15440308D01*
X152536481Y-15360553D01*
X152536487Y-15360545D01*
X152687229Y-15099454D01*
X152687234Y-15099443D01*
X152802610Y-14820901D01*
X152880646Y-14529667D01*
X152919998Y-14230759D01*
X152920000Y-14230743D01*
X152920000Y-13929256D01*
X152919998Y-13929240D01*
X152880646Y-13630332D01*
X152802610Y-13339098D01*
X152687234Y-13060556D01*
X152687229Y-13060545D01*
X152536483Y-12799447D01*
X152475284Y-12719690D01*
X152475283Y-12719690D01*
X151790792Y-13404180D01*
X151774623Y-13372446D01*
X151649722Y-13200534D01*
X151499466Y-13050278D01*
X151327554Y-12925377D01*
X151295817Y-12909206D01*
X151980308Y-12224715D01*
X151980308Y-12224714D01*
X151900550Y-12163516D01*
X151900543Y-12163510D01*
X151639454Y-12012770D01*
X151639443Y-12012765D01*
X151360901Y-11897389D01*
X151069667Y-11819353D01*
X150770759Y-11780001D01*
X150770743Y-11780000D01*
X150469257Y-11780000D01*
X150469240Y-11780001D01*
X150170332Y-11819353D01*
X149879098Y-11897389D01*
X149600556Y-12012765D01*
X149600545Y-12012770D01*
X149339454Y-12163511D01*
X149339440Y-12163521D01*
X149259690Y-12224714D01*
X149259690Y-12224715D01*
X149944181Y-12909206D01*
X149912446Y-12925377D01*
X149740534Y-13050278D01*
X149590278Y-13200534D01*
X149465377Y-13372446D01*
X149449206Y-13404181D01*
X148764715Y-12719690D01*
X148764714Y-12719690D01*
X148703521Y-12799440D01*
X148703511Y-12799454D01*
X148552770Y-13060545D01*
X148552765Y-13060556D01*
X148437389Y-13339098D01*
X148359353Y-13630332D01*
X148320001Y-13929240D01*
X148320000Y-13929256D01*
X92920000Y-13929256D01*
X92919998Y-13929240D01*
X92880646Y-13630332D01*
X92802610Y-13339098D01*
X92687234Y-13060556D01*
X92687229Y-13060545D01*
X92536483Y-12799447D01*
X92475284Y-12719690D01*
X92475283Y-12719690D01*
X91790792Y-13404180D01*
X91774623Y-13372446D01*
X91649722Y-13200534D01*
X91499466Y-13050278D01*
X91327554Y-12925377D01*
X91295817Y-12909206D01*
X91980308Y-12224715D01*
X91980308Y-12224714D01*
X91900550Y-12163516D01*
X91900543Y-12163510D01*
X91639454Y-12012770D01*
X91639443Y-12012765D01*
X91360901Y-11897389D01*
X91069667Y-11819353D01*
X90770759Y-11780001D01*
X90770743Y-11780000D01*
X90469257Y-11780000D01*
X90469240Y-11780001D01*
X90170332Y-11819353D01*
X89879098Y-11897389D01*
X89600556Y-12012765D01*
X89600545Y-12012770D01*
X89339454Y-12163511D01*
X89339440Y-12163521D01*
X89259690Y-12224714D01*
X89259690Y-12224715D01*
X89944181Y-12909206D01*
X89912446Y-12925377D01*
X89740534Y-13050278D01*
X89590278Y-13200534D01*
X89465377Y-13372446D01*
X89449206Y-13404181D01*
X88764715Y-12719690D01*
X88764714Y-12719690D01*
X88703521Y-12799440D01*
X88703511Y-12799454D01*
X88552770Y-13060545D01*
X88552765Y-13060556D01*
X88437389Y-13339098D01*
X88359353Y-13630332D01*
X88320001Y-13929240D01*
X88320000Y-13929256D01*
X86020500Y-13929256D01*
X86020500Y-9214500D01*
X86040185Y-9147461D01*
X86092989Y-9101706D01*
X86144500Y-9090500D01*
X154895500Y-9090500D01*
X154962539Y-9110185D01*
G37*
%TD.AperFunction*%
%TD*%
M02*
