%TF.GenerationSoftware,KiCad,Pcbnew,9.0.6*%
%TF.CreationDate,2025-12-14T16:40:19+01:00*%
%TF.ProjectId,rayman_LCD,7261796d-616e-45f4-9c43-442e6b696361,rev?*%
%TF.SameCoordinates,Original*%
%TF.FileFunction,Legend,Top*%
%TF.FilePolarity,Positive*%
%FSLAX46Y46*%
G04 Gerber Fmt 4.6, Leading zero omitted, Abs format (unit mm)*
G04 Created by KiCad (PCBNEW 9.0.6) date 2025-12-14 16:40:19*
%MOMM*%
%LPD*%
G01*
G04 APERTURE LIST*
%ADD10C,0.150000*%
%ADD11C,0.120000*%
%ADD12C,0.100000*%
%ADD13C,0.127000*%
G04 APERTURE END LIST*
D10*
X100434819Y-79509523D02*
X100434819Y-79985713D01*
X100434819Y-79985713D02*
X100911009Y-80033332D01*
X100911009Y-80033332D02*
X100863390Y-79985713D01*
X100863390Y-79985713D02*
X100815771Y-79890475D01*
X100815771Y-79890475D02*
X100815771Y-79652380D01*
X100815771Y-79652380D02*
X100863390Y-79557142D01*
X100863390Y-79557142D02*
X100911009Y-79509523D01*
X100911009Y-79509523D02*
X101006247Y-79461904D01*
X101006247Y-79461904D02*
X101244342Y-79461904D01*
X101244342Y-79461904D02*
X101339580Y-79509523D01*
X101339580Y-79509523D02*
X101387200Y-79557142D01*
X101387200Y-79557142D02*
X101434819Y-79652380D01*
X101434819Y-79652380D02*
X101434819Y-79890475D01*
X101434819Y-79890475D02*
X101387200Y-79985713D01*
X101387200Y-79985713D02*
X101339580Y-80033332D01*
X100434819Y-79176189D02*
X101434819Y-78842856D01*
X101434819Y-78842856D02*
X100434819Y-78509523D01*
D11*
X127238049Y-78420476D02*
X127276144Y-78344286D01*
X127276144Y-78344286D02*
X127276144Y-78230000D01*
X127276144Y-78230000D02*
X127238049Y-78115714D01*
X127238049Y-78115714D02*
X127161859Y-78039524D01*
X127161859Y-78039524D02*
X127085668Y-78001429D01*
X127085668Y-78001429D02*
X126933287Y-77963333D01*
X126933287Y-77963333D02*
X126819001Y-77963333D01*
X126819001Y-77963333D02*
X126666620Y-78001429D01*
X126666620Y-78001429D02*
X126590430Y-78039524D01*
X126590430Y-78039524D02*
X126514240Y-78115714D01*
X126514240Y-78115714D02*
X126476144Y-78230000D01*
X126476144Y-78230000D02*
X126476144Y-78306191D01*
X126476144Y-78306191D02*
X126514240Y-78420476D01*
X126514240Y-78420476D02*
X126552335Y-78458572D01*
X126552335Y-78458572D02*
X126819001Y-78458572D01*
X126819001Y-78458572D02*
X126819001Y-78306191D01*
X126476144Y-78801429D02*
X127276144Y-78801429D01*
X127276144Y-78801429D02*
X126476144Y-79258572D01*
X126476144Y-79258572D02*
X127276144Y-79258572D01*
X126476144Y-79639524D02*
X127276144Y-79639524D01*
X127276144Y-79639524D02*
X127276144Y-79830000D01*
X127276144Y-79830000D02*
X127238049Y-79944286D01*
X127238049Y-79944286D02*
X127161859Y-80020476D01*
X127161859Y-80020476D02*
X127085668Y-80058571D01*
X127085668Y-80058571D02*
X126933287Y-80096667D01*
X126933287Y-80096667D02*
X126819001Y-80096667D01*
X126819001Y-80096667D02*
X126666620Y-80058571D01*
X126666620Y-80058571D02*
X126590430Y-80020476D01*
X126590430Y-80020476D02*
X126514240Y-79944286D01*
X126514240Y-79944286D02*
X126476144Y-79830000D01*
X126476144Y-79830000D02*
X126476144Y-79639524D01*
X127491144Y-79280000D02*
X127872097Y-79013333D01*
X127491144Y-78822857D02*
X128291144Y-78822857D01*
X128291144Y-78822857D02*
X128291144Y-79127619D01*
X128291144Y-79127619D02*
X128253049Y-79203809D01*
X128253049Y-79203809D02*
X128214954Y-79241904D01*
X128214954Y-79241904D02*
X128138763Y-79280000D01*
X128138763Y-79280000D02*
X128024478Y-79280000D01*
X128024478Y-79280000D02*
X127948287Y-79241904D01*
X127948287Y-79241904D02*
X127910192Y-79203809D01*
X127910192Y-79203809D02*
X127872097Y-79127619D01*
X127872097Y-79127619D02*
X127872097Y-78822857D01*
X128291144Y-79546666D02*
X127491144Y-80080000D01*
X128291144Y-80080000D02*
X127491144Y-79546666D01*
D10*
X97355237Y-36989580D02*
X97307618Y-37037200D01*
X97307618Y-37037200D02*
X97164761Y-37084819D01*
X97164761Y-37084819D02*
X97069523Y-37084819D01*
X97069523Y-37084819D02*
X96926666Y-37037200D01*
X96926666Y-37037200D02*
X96831428Y-36941961D01*
X96831428Y-36941961D02*
X96783809Y-36846723D01*
X96783809Y-36846723D02*
X96736190Y-36656247D01*
X96736190Y-36656247D02*
X96736190Y-36513390D01*
X96736190Y-36513390D02*
X96783809Y-36322914D01*
X96783809Y-36322914D02*
X96831428Y-36227676D01*
X96831428Y-36227676D02*
X96926666Y-36132438D01*
X96926666Y-36132438D02*
X97069523Y-36084819D01*
X97069523Y-36084819D02*
X97164761Y-36084819D01*
X97164761Y-36084819D02*
X97307618Y-36132438D01*
X97307618Y-36132438D02*
X97355237Y-36180057D01*
X97736190Y-36799104D02*
X98212380Y-36799104D01*
X97640952Y-37084819D02*
X97974285Y-36084819D01*
X97974285Y-36084819D02*
X98307618Y-37084819D01*
X98640952Y-37084819D02*
X98640952Y-36084819D01*
X98640952Y-36084819D02*
X99212380Y-37084819D01*
X99212380Y-37084819D02*
X99212380Y-36084819D01*
X99450476Y-37180057D02*
X100212380Y-37180057D01*
X100307619Y-36084819D02*
X100879047Y-36084819D01*
X100593333Y-37084819D02*
X100593333Y-36084819D01*
D11*
X129306144Y-78887142D02*
X129306144Y-79344285D01*
X128506144Y-79115713D02*
X129306144Y-79115713D01*
X129306144Y-79534761D02*
X128506144Y-80068095D01*
X129306144Y-80068095D02*
X128506144Y-79534761D01*
X129521144Y-78708571D02*
X129902097Y-78441904D01*
X129521144Y-78251428D02*
X130321144Y-78251428D01*
X130321144Y-78251428D02*
X130321144Y-78556190D01*
X130321144Y-78556190D02*
X130283049Y-78632380D01*
X130283049Y-78632380D02*
X130244954Y-78670475D01*
X130244954Y-78670475D02*
X130168763Y-78708571D01*
X130168763Y-78708571D02*
X130054478Y-78708571D01*
X130054478Y-78708571D02*
X129978287Y-78670475D01*
X129978287Y-78670475D02*
X129940192Y-78632380D01*
X129940192Y-78632380D02*
X129902097Y-78556190D01*
X129902097Y-78556190D02*
X129902097Y-78251428D01*
X129559240Y-79013332D02*
X129521144Y-79127618D01*
X129521144Y-79127618D02*
X129521144Y-79318094D01*
X129521144Y-79318094D02*
X129559240Y-79394285D01*
X129559240Y-79394285D02*
X129597335Y-79432380D01*
X129597335Y-79432380D02*
X129673525Y-79470475D01*
X129673525Y-79470475D02*
X129749716Y-79470475D01*
X129749716Y-79470475D02*
X129825906Y-79432380D01*
X129825906Y-79432380D02*
X129864001Y-79394285D01*
X129864001Y-79394285D02*
X129902097Y-79318094D01*
X129902097Y-79318094D02*
X129940192Y-79165713D01*
X129940192Y-79165713D02*
X129978287Y-79089523D01*
X129978287Y-79089523D02*
X130016382Y-79051428D01*
X130016382Y-79051428D02*
X130092573Y-79013332D01*
X130092573Y-79013332D02*
X130168763Y-79013332D01*
X130168763Y-79013332D02*
X130244954Y-79051428D01*
X130244954Y-79051428D02*
X130283049Y-79089523D01*
X130283049Y-79089523D02*
X130321144Y-79165713D01*
X130321144Y-79165713D02*
X130321144Y-79356190D01*
X130321144Y-79356190D02*
X130283049Y-79470475D01*
X130321144Y-79699047D02*
X130321144Y-80156190D01*
X129521144Y-79927618D02*
X130321144Y-79927618D01*
D10*
X87093333Y-41834819D02*
X86760000Y-41358628D01*
X86521905Y-41834819D02*
X86521905Y-40834819D01*
X86521905Y-40834819D02*
X86902857Y-40834819D01*
X86902857Y-40834819D02*
X86998095Y-40882438D01*
X86998095Y-40882438D02*
X87045714Y-40930057D01*
X87045714Y-40930057D02*
X87093333Y-41025295D01*
X87093333Y-41025295D02*
X87093333Y-41168152D01*
X87093333Y-41168152D02*
X87045714Y-41263390D01*
X87045714Y-41263390D02*
X86998095Y-41311009D01*
X86998095Y-41311009D02*
X86902857Y-41358628D01*
X86902857Y-41358628D02*
X86521905Y-41358628D01*
X87426667Y-40834819D02*
X88093333Y-41834819D01*
X88093333Y-40834819D02*
X87426667Y-41834819D01*
X117474819Y-79960476D02*
X117474819Y-80436666D01*
X117474819Y-80436666D02*
X117951009Y-80484285D01*
X117951009Y-80484285D02*
X117903390Y-80436666D01*
X117903390Y-80436666D02*
X117855771Y-80341428D01*
X117855771Y-80341428D02*
X117855771Y-80103333D01*
X117855771Y-80103333D02*
X117903390Y-80008095D01*
X117903390Y-80008095D02*
X117951009Y-79960476D01*
X117951009Y-79960476D02*
X118046247Y-79912857D01*
X118046247Y-79912857D02*
X118284342Y-79912857D01*
X118284342Y-79912857D02*
X118379580Y-79960476D01*
X118379580Y-79960476D02*
X118427200Y-80008095D01*
X118427200Y-80008095D02*
X118474819Y-80103333D01*
X118474819Y-80103333D02*
X118474819Y-80341428D01*
X118474819Y-80341428D02*
X118427200Y-80436666D01*
X118427200Y-80436666D02*
X118379580Y-80484285D01*
X117474819Y-79627142D02*
X118474819Y-79293809D01*
X118474819Y-79293809D02*
X117474819Y-78960476D01*
X98482438Y-79461904D02*
X98434819Y-79557142D01*
X98434819Y-79557142D02*
X98434819Y-79699999D01*
X98434819Y-79699999D02*
X98482438Y-79842856D01*
X98482438Y-79842856D02*
X98577676Y-79938094D01*
X98577676Y-79938094D02*
X98672914Y-79985713D01*
X98672914Y-79985713D02*
X98863390Y-80033332D01*
X98863390Y-80033332D02*
X99006247Y-80033332D01*
X99006247Y-80033332D02*
X99196723Y-79985713D01*
X99196723Y-79985713D02*
X99291961Y-79938094D01*
X99291961Y-79938094D02*
X99387200Y-79842856D01*
X99387200Y-79842856D02*
X99434819Y-79699999D01*
X99434819Y-79699999D02*
X99434819Y-79604761D01*
X99434819Y-79604761D02*
X99387200Y-79461904D01*
X99387200Y-79461904D02*
X99339580Y-79414285D01*
X99339580Y-79414285D02*
X99006247Y-79414285D01*
X99006247Y-79414285D02*
X99006247Y-79604761D01*
X99434819Y-78985713D02*
X98434819Y-78985713D01*
X98434819Y-78985713D02*
X99434819Y-78414285D01*
X99434819Y-78414285D02*
X98434819Y-78414285D01*
X99434819Y-77938094D02*
X98434819Y-77938094D01*
X98434819Y-77938094D02*
X98434819Y-77699999D01*
X98434819Y-77699999D02*
X98482438Y-77557142D01*
X98482438Y-77557142D02*
X98577676Y-77461904D01*
X98577676Y-77461904D02*
X98672914Y-77414285D01*
X98672914Y-77414285D02*
X98863390Y-77366666D01*
X98863390Y-77366666D02*
X99006247Y-77366666D01*
X99006247Y-77366666D02*
X99196723Y-77414285D01*
X99196723Y-77414285D02*
X99291961Y-77461904D01*
X99291961Y-77461904D02*
X99387200Y-77557142D01*
X99387200Y-77557142D02*
X99434819Y-77699999D01*
X99434819Y-77699999D02*
X99434819Y-77938094D01*
D12*
G36*
X115126124Y-12730788D02*
G01*
X115196422Y-12733124D01*
X115392715Y-12721263D01*
X115504809Y-12719852D01*
X115585077Y-12733492D01*
X115641476Y-12758144D01*
X115603931Y-13746004D01*
X115599100Y-14340349D01*
X116222217Y-14316276D01*
X116520628Y-14293820D01*
X116437004Y-14636848D01*
X116396186Y-14742739D01*
X116103068Y-14741647D01*
X115004369Y-14718192D01*
X115015112Y-14375629D01*
X115037219Y-14232271D01*
X115071413Y-13480858D01*
X115095648Y-13038518D01*
X115126124Y-12730788D01*
G37*
G36*
X117441302Y-12767669D02*
G01*
X117650373Y-12759365D01*
X117871902Y-12752526D01*
X117999586Y-12769875D01*
X118099468Y-12805640D01*
X118177279Y-12857712D01*
X118236923Y-12926427D01*
X118138493Y-13132690D01*
X118081708Y-13193319D01*
X118021995Y-13217849D01*
X117953967Y-13211947D01*
X117823268Y-13155052D01*
X117709495Y-13128629D01*
X117608835Y-13127558D01*
X117517750Y-13149176D01*
X117409212Y-13208081D01*
X117321104Y-13289548D01*
X117251158Y-13396350D01*
X117207804Y-13506463D01*
X117185237Y-13626307D01*
X117184236Y-13758318D01*
X117204363Y-13888218D01*
X117243591Y-14006395D01*
X117301839Y-14114790D01*
X117384390Y-14217448D01*
X117479062Y-14293511D01*
X117587481Y-14345844D01*
X117688312Y-14375499D01*
X117828182Y-14386755D01*
X117952624Y-14386755D01*
X118075600Y-14386755D01*
X118061923Y-14537208D01*
X118048648Y-14624180D01*
X118029072Y-14683754D01*
X117903097Y-14688746D01*
X117684567Y-14707934D01*
X117473475Y-14725820D01*
X117341406Y-14730649D01*
X117224203Y-14673774D01*
X117115746Y-14588211D01*
X117014731Y-14469675D01*
X116930198Y-14329217D01*
X116817750Y-14091343D01*
X116778097Y-13766063D01*
X116774030Y-13547659D01*
X116792782Y-13393902D01*
X116828691Y-13260234D01*
X116880455Y-13143782D01*
X116947687Y-13042198D01*
X117033588Y-12975256D01*
X117188612Y-12885703D01*
X117441302Y-12767669D01*
G37*
G36*
X119154597Y-12749663D02*
G01*
X119342610Y-12757777D01*
X119545837Y-12788540D01*
X119720712Y-12838045D01*
X119871062Y-12904556D01*
X120000112Y-12987243D01*
X120075403Y-13066278D01*
X120133624Y-13158884D01*
X120175342Y-13267212D01*
X120199780Y-13394274D01*
X120206249Y-13517156D01*
X120197515Y-13670896D01*
X120169738Y-13861389D01*
X120076490Y-14058564D01*
X119962257Y-14234477D01*
X119826577Y-14391151D01*
X119699629Y-14504865D01*
X119568077Y-14595398D01*
X119431184Y-14664578D01*
X119287900Y-14713552D01*
X119156987Y-14717850D01*
X118944738Y-14708056D01*
X118727420Y-14698175D01*
X118601577Y-14699874D01*
X118578958Y-14695175D01*
X118560544Y-14673862D01*
X118549553Y-14646507D01*
X118540028Y-14623304D01*
X118517126Y-14391680D01*
X118506770Y-14093293D01*
X118512673Y-13715820D01*
X118514128Y-13668222D01*
X118821913Y-13668222D01*
X118827374Y-13980161D01*
X118850338Y-14316657D01*
X119081248Y-14287746D01*
X119329347Y-14230800D01*
X119596867Y-14142878D01*
X119669880Y-14013233D01*
X119720847Y-13884039D01*
X119751350Y-13754166D01*
X119759757Y-13636983D01*
X119748793Y-13532931D01*
X119719975Y-13439456D01*
X119673437Y-13354462D01*
X119572514Y-13274886D01*
X119458735Y-13216689D01*
X119329752Y-13179289D01*
X119182425Y-13163681D01*
X119013004Y-13172379D01*
X118938503Y-13214171D01*
X118885942Y-13262155D01*
X118851302Y-13316606D01*
X118832631Y-13379131D01*
X118821913Y-13668222D01*
X118514128Y-13668222D01*
X118532366Y-13071785D01*
X118531846Y-12806992D01*
X118533788Y-12771349D01*
X118560544Y-12754236D01*
X118597425Y-12751305D01*
X118632962Y-12745443D01*
X119154597Y-12749663D01*
G37*
G36*
X121316214Y-12729811D02*
G01*
X121667558Y-12729811D01*
X121671327Y-13013545D01*
X121656567Y-13494169D01*
X121642651Y-13967396D01*
X121648385Y-14257184D01*
X121729149Y-14302891D01*
X121826419Y-14327735D01*
X121945017Y-14329724D01*
X122061197Y-14308773D01*
X122157494Y-14268848D01*
X122237620Y-14210656D01*
X122269232Y-14024584D01*
X122282506Y-13782447D01*
X122271814Y-13472310D01*
X122242856Y-12958194D01*
X122244459Y-12731155D01*
X122595803Y-12731155D01*
X122638605Y-12791832D01*
X122665534Y-12887226D01*
X122669686Y-12977596D01*
X122672495Y-13063814D01*
X122689746Y-13411354D01*
X122688191Y-13799820D01*
X122665556Y-14232979D01*
X122619372Y-14714773D01*
X122448508Y-14737573D01*
X122216127Y-14746280D01*
X122013283Y-14746280D01*
X121811661Y-14746280D01*
X121670000Y-14746280D01*
X121526996Y-14746280D01*
X121416995Y-14737918D01*
X121328494Y-14714830D01*
X121257352Y-14678991D01*
X121208522Y-14351739D01*
X121184978Y-14046583D01*
X121184867Y-13761623D01*
X121206659Y-13495052D01*
X121249170Y-13245164D01*
X121258271Y-13171708D01*
X121262847Y-12981992D01*
X121269985Y-12870077D01*
X121288765Y-12788323D01*
X121316214Y-12729811D01*
G37*
G36*
X123264906Y-13270931D02*
G01*
X123332590Y-13255386D01*
X123393378Y-13258597D01*
X123452127Y-13281138D01*
X123498768Y-13324298D01*
X123649100Y-13295600D01*
X123738310Y-13282674D01*
X123802240Y-13285952D01*
X123911995Y-13346286D01*
X123966249Y-13383283D01*
X124014971Y-13433104D01*
X124044605Y-13485140D01*
X124057840Y-13540820D01*
X124100654Y-13667835D01*
X124135340Y-13819176D01*
X124160422Y-13998409D01*
X124176787Y-14234103D01*
X124190464Y-14468454D01*
X124146580Y-14662421D01*
X124114016Y-14738465D01*
X123830939Y-14738465D01*
X123830939Y-14283196D01*
X123830961Y-14011321D01*
X123821413Y-13830614D01*
X123688522Y-13748712D01*
X123572804Y-13704703D01*
X123470070Y-13691151D01*
X123442296Y-13981708D01*
X123424401Y-14318223D01*
X123418046Y-14705614D01*
X123339086Y-14736624D01*
X123244142Y-14749230D01*
X123128661Y-14740573D01*
X122987324Y-14705614D01*
X122979278Y-14511208D01*
X122988766Y-14283884D01*
X123018831Y-14019169D01*
X123076228Y-13679183D01*
X123134969Y-13339319D01*
X123264906Y-13270931D01*
G37*
G36*
X124543517Y-12754114D02*
G01*
X124692505Y-12745809D01*
X124746244Y-12757281D01*
X124786226Y-12780518D01*
X124815604Y-12815663D01*
X124839878Y-12908041D01*
X124833311Y-12999089D01*
X124808614Y-13060770D01*
X124769995Y-13104385D01*
X124715708Y-13133178D01*
X124662146Y-13154381D01*
X124613073Y-13156214D01*
X124565377Y-13140017D01*
X124511246Y-13094342D01*
X124469634Y-13022292D01*
X124448962Y-12940748D01*
X124453269Y-12866343D01*
X124471785Y-12815639D01*
X124501498Y-12779124D01*
X124543517Y-12754114D01*
G37*
G36*
X124539976Y-13360324D02*
G01*
X124705939Y-13345303D01*
X124773874Y-13345466D01*
X124821308Y-13359556D01*
X124854194Y-13384993D01*
X124854194Y-13946751D01*
X124854194Y-14508510D01*
X124847147Y-14591842D01*
X124827892Y-14656763D01*
X124798140Y-14707202D01*
X124453514Y-14704393D01*
X124471343Y-14043349D01*
X124481538Y-13644793D01*
X124480869Y-13382184D01*
X124539976Y-13360324D01*
G37*
G36*
X125481776Y-13092878D02*
G01*
X125505819Y-13095494D01*
X125581305Y-13088726D01*
X125641242Y-13092816D01*
X125672896Y-13117547D01*
X125672896Y-13244187D01*
X125672896Y-13370705D01*
X125817854Y-13370705D01*
X125875075Y-13377504D01*
X125913547Y-13395341D01*
X125938632Y-13422850D01*
X125938632Y-13575380D01*
X125936295Y-13664129D01*
X125916528Y-13716797D01*
X125633817Y-13698967D01*
X125633817Y-13938814D01*
X125623071Y-14177561D01*
X125609792Y-14236709D01*
X125615426Y-14298751D01*
X125641999Y-14366605D01*
X125677160Y-14418813D01*
X125763632Y-14524264D01*
X125777310Y-14657010D01*
X125777613Y-14711324D01*
X125766435Y-14748910D01*
X125745925Y-14774735D01*
X125663558Y-14771445D01*
X125585092Y-14745302D01*
X125507910Y-14694012D01*
X125449515Y-14635739D01*
X125400099Y-14565986D01*
X125359532Y-14483231D01*
X125353496Y-14028756D01*
X125371867Y-13723636D01*
X125314103Y-13709958D01*
X125256340Y-13700188D01*
X125194631Y-13679273D01*
X125153147Y-13650851D01*
X125153147Y-13359836D01*
X125183776Y-13339442D01*
X125226024Y-13329091D01*
X125284428Y-13331015D01*
X125430607Y-13352997D01*
X125430607Y-13210603D01*
X125437266Y-13154898D01*
X125454756Y-13117386D01*
X125481776Y-13092878D01*
G37*
D10*
X86558095Y-37764819D02*
X87129523Y-37764819D01*
X86843809Y-38764819D02*
X86843809Y-37764819D01*
X87367619Y-37764819D02*
X88034285Y-38764819D01*
X88034285Y-37764819D02*
X87367619Y-38764819D01*
X87640476Y-74731009D02*
X87307143Y-74731009D01*
X87307143Y-75254819D02*
X87307143Y-74254819D01*
X87307143Y-74254819D02*
X87783333Y-74254819D01*
X88164286Y-74254819D02*
X88164286Y-75064342D01*
X88164286Y-75064342D02*
X88211905Y-75159580D01*
X88211905Y-75159580D02*
X88259524Y-75207200D01*
X88259524Y-75207200D02*
X88354762Y-75254819D01*
X88354762Y-75254819D02*
X88545238Y-75254819D01*
X88545238Y-75254819D02*
X88640476Y-75207200D01*
X88640476Y-75207200D02*
X88688095Y-75159580D01*
X88688095Y-75159580D02*
X88735714Y-75064342D01*
X88735714Y-75064342D02*
X88735714Y-74254819D01*
X89164286Y-75207200D02*
X89307143Y-75254819D01*
X89307143Y-75254819D02*
X89545238Y-75254819D01*
X89545238Y-75254819D02*
X89640476Y-75207200D01*
X89640476Y-75207200D02*
X89688095Y-75159580D01*
X89688095Y-75159580D02*
X89735714Y-75064342D01*
X89735714Y-75064342D02*
X89735714Y-74969104D01*
X89735714Y-74969104D02*
X89688095Y-74873866D01*
X89688095Y-74873866D02*
X89640476Y-74826247D01*
X89640476Y-74826247D02*
X89545238Y-74778628D01*
X89545238Y-74778628D02*
X89354762Y-74731009D01*
X89354762Y-74731009D02*
X89259524Y-74683390D01*
X89259524Y-74683390D02*
X89211905Y-74635771D01*
X89211905Y-74635771D02*
X89164286Y-74540533D01*
X89164286Y-74540533D02*
X89164286Y-74445295D01*
X89164286Y-74445295D02*
X89211905Y-74350057D01*
X89211905Y-74350057D02*
X89259524Y-74302438D01*
X89259524Y-74302438D02*
X89354762Y-74254819D01*
X89354762Y-74254819D02*
X89592857Y-74254819D01*
X89592857Y-74254819D02*
X89735714Y-74302438D01*
X90164286Y-74731009D02*
X90497619Y-74731009D01*
X90640476Y-75254819D02*
X90164286Y-75254819D01*
X90164286Y-75254819D02*
X90164286Y-74254819D01*
X90164286Y-74254819D02*
X90640476Y-74254819D01*
D11*
X130955192Y-77660952D02*
X130917097Y-77775238D01*
X130917097Y-77775238D02*
X130879001Y-77813333D01*
X130879001Y-77813333D02*
X130802811Y-77851429D01*
X130802811Y-77851429D02*
X130688525Y-77851429D01*
X130688525Y-77851429D02*
X130612335Y-77813333D01*
X130612335Y-77813333D02*
X130574240Y-77775238D01*
X130574240Y-77775238D02*
X130536144Y-77699048D01*
X130536144Y-77699048D02*
X130536144Y-77394286D01*
X130536144Y-77394286D02*
X131336144Y-77394286D01*
X131336144Y-77394286D02*
X131336144Y-77660952D01*
X131336144Y-77660952D02*
X131298049Y-77737143D01*
X131298049Y-77737143D02*
X131259954Y-77775238D01*
X131259954Y-77775238D02*
X131183763Y-77813333D01*
X131183763Y-77813333D02*
X131107573Y-77813333D01*
X131107573Y-77813333D02*
X131031382Y-77775238D01*
X131031382Y-77775238D02*
X130993287Y-77737143D01*
X130993287Y-77737143D02*
X130955192Y-77660952D01*
X130955192Y-77660952D02*
X130955192Y-77394286D01*
X131336144Y-78346667D02*
X131336144Y-78499048D01*
X131336144Y-78499048D02*
X131298049Y-78575238D01*
X131298049Y-78575238D02*
X131221859Y-78651429D01*
X131221859Y-78651429D02*
X131069478Y-78689524D01*
X131069478Y-78689524D02*
X130802811Y-78689524D01*
X130802811Y-78689524D02*
X130650430Y-78651429D01*
X130650430Y-78651429D02*
X130574240Y-78575238D01*
X130574240Y-78575238D02*
X130536144Y-78499048D01*
X130536144Y-78499048D02*
X130536144Y-78346667D01*
X130536144Y-78346667D02*
X130574240Y-78270476D01*
X130574240Y-78270476D02*
X130650430Y-78194286D01*
X130650430Y-78194286D02*
X130802811Y-78156190D01*
X130802811Y-78156190D02*
X131069478Y-78156190D01*
X131069478Y-78156190D02*
X131221859Y-78194286D01*
X131221859Y-78194286D02*
X131298049Y-78270476D01*
X131298049Y-78270476D02*
X131336144Y-78346667D01*
X131336144Y-79184762D02*
X131336144Y-79337143D01*
X131336144Y-79337143D02*
X131298049Y-79413333D01*
X131298049Y-79413333D02*
X131221859Y-79489524D01*
X131221859Y-79489524D02*
X131069478Y-79527619D01*
X131069478Y-79527619D02*
X130802811Y-79527619D01*
X130802811Y-79527619D02*
X130650430Y-79489524D01*
X130650430Y-79489524D02*
X130574240Y-79413333D01*
X130574240Y-79413333D02*
X130536144Y-79337143D01*
X130536144Y-79337143D02*
X130536144Y-79184762D01*
X130536144Y-79184762D02*
X130574240Y-79108571D01*
X130574240Y-79108571D02*
X130650430Y-79032381D01*
X130650430Y-79032381D02*
X130802811Y-78994285D01*
X130802811Y-78994285D02*
X131069478Y-78994285D01*
X131069478Y-78994285D02*
X131221859Y-79032381D01*
X131221859Y-79032381D02*
X131298049Y-79108571D01*
X131298049Y-79108571D02*
X131336144Y-79184762D01*
X131336144Y-79756190D02*
X131336144Y-80213333D01*
X130536144Y-79984761D02*
X131336144Y-79984761D01*
D10*
X114304819Y-80968094D02*
X114304819Y-80349047D01*
X114304819Y-80349047D02*
X114685771Y-80682380D01*
X114685771Y-80682380D02*
X114685771Y-80539523D01*
X114685771Y-80539523D02*
X114733390Y-80444285D01*
X114733390Y-80444285D02*
X114781009Y-80396666D01*
X114781009Y-80396666D02*
X114876247Y-80349047D01*
X114876247Y-80349047D02*
X115114342Y-80349047D01*
X115114342Y-80349047D02*
X115209580Y-80396666D01*
X115209580Y-80396666D02*
X115257200Y-80444285D01*
X115257200Y-80444285D02*
X115304819Y-80539523D01*
X115304819Y-80539523D02*
X115304819Y-80825237D01*
X115304819Y-80825237D02*
X115257200Y-80920475D01*
X115257200Y-80920475D02*
X115209580Y-80968094D01*
X114304819Y-80063332D02*
X115304819Y-79729999D01*
X115304819Y-79729999D02*
X114304819Y-79396666D01*
X114304819Y-79158570D02*
X114304819Y-78539523D01*
X114304819Y-78539523D02*
X114685771Y-78872856D01*
X114685771Y-78872856D02*
X114685771Y-78729999D01*
X114685771Y-78729999D02*
X114733390Y-78634761D01*
X114733390Y-78634761D02*
X114781009Y-78587142D01*
X114781009Y-78587142D02*
X114876247Y-78539523D01*
X114876247Y-78539523D02*
X115114342Y-78539523D01*
X115114342Y-78539523D02*
X115209580Y-78587142D01*
X115209580Y-78587142D02*
X115257200Y-78634761D01*
X115257200Y-78634761D02*
X115304819Y-78729999D01*
X115304819Y-78729999D02*
X115304819Y-79015713D01*
X115304819Y-79015713D02*
X115257200Y-79110951D01*
X115257200Y-79110951D02*
X115209580Y-79158570D01*
X125234642Y-33579819D02*
X124901309Y-33103628D01*
X124663214Y-33579819D02*
X124663214Y-32579819D01*
X124663214Y-32579819D02*
X125044166Y-32579819D01*
X125044166Y-32579819D02*
X125139404Y-32627438D01*
X125139404Y-32627438D02*
X125187023Y-32675057D01*
X125187023Y-32675057D02*
X125234642Y-32770295D01*
X125234642Y-32770295D02*
X125234642Y-32913152D01*
X125234642Y-32913152D02*
X125187023Y-33008390D01*
X125187023Y-33008390D02*
X125139404Y-33056009D01*
X125139404Y-33056009D02*
X125044166Y-33103628D01*
X125044166Y-33103628D02*
X124663214Y-33103628D01*
X126187023Y-33579819D02*
X125615595Y-33579819D01*
X125901309Y-33579819D02*
X125901309Y-32579819D01*
X125901309Y-32579819D02*
X125806071Y-32722676D01*
X125806071Y-32722676D02*
X125710833Y-32817914D01*
X125710833Y-32817914D02*
X125615595Y-32865533D01*
X126520357Y-32579819D02*
X127187023Y-32579819D01*
X127187023Y-32579819D02*
X126758452Y-33579819D01*
X91174405Y-63524819D02*
X91174405Y-62524819D01*
X91174405Y-62524819D02*
X91412500Y-62524819D01*
X91412500Y-62524819D02*
X91555357Y-62572438D01*
X91555357Y-62572438D02*
X91650595Y-62667676D01*
X91650595Y-62667676D02*
X91698214Y-62762914D01*
X91698214Y-62762914D02*
X91745833Y-62953390D01*
X91745833Y-62953390D02*
X91745833Y-63096247D01*
X91745833Y-63096247D02*
X91698214Y-63286723D01*
X91698214Y-63286723D02*
X91650595Y-63381961D01*
X91650595Y-63381961D02*
X91555357Y-63477200D01*
X91555357Y-63477200D02*
X91412500Y-63524819D01*
X91412500Y-63524819D02*
X91174405Y-63524819D01*
X92126786Y-62620057D02*
X92174405Y-62572438D01*
X92174405Y-62572438D02*
X92269643Y-62524819D01*
X92269643Y-62524819D02*
X92507738Y-62524819D01*
X92507738Y-62524819D02*
X92602976Y-62572438D01*
X92602976Y-62572438D02*
X92650595Y-62620057D01*
X92650595Y-62620057D02*
X92698214Y-62715295D01*
X92698214Y-62715295D02*
X92698214Y-62810533D01*
X92698214Y-62810533D02*
X92650595Y-62953390D01*
X92650595Y-62953390D02*
X92079167Y-63524819D01*
X92079167Y-63524819D02*
X92698214Y-63524819D01*
X95824819Y-28123333D02*
X96539104Y-28123333D01*
X96539104Y-28123333D02*
X96681961Y-28170952D01*
X96681961Y-28170952D02*
X96777200Y-28266190D01*
X96777200Y-28266190D02*
X96824819Y-28409047D01*
X96824819Y-28409047D02*
X96824819Y-28504285D01*
X95920057Y-27694761D02*
X95872438Y-27647142D01*
X95872438Y-27647142D02*
X95824819Y-27551904D01*
X95824819Y-27551904D02*
X95824819Y-27313809D01*
X95824819Y-27313809D02*
X95872438Y-27218571D01*
X95872438Y-27218571D02*
X95920057Y-27170952D01*
X95920057Y-27170952D02*
X96015295Y-27123333D01*
X96015295Y-27123333D02*
X96110533Y-27123333D01*
X96110533Y-27123333D02*
X96253390Y-27170952D01*
X96253390Y-27170952D02*
X96824819Y-27742380D01*
X96824819Y-27742380D02*
X96824819Y-27123333D01*
X106963333Y-78379580D02*
X106915714Y-78427200D01*
X106915714Y-78427200D02*
X106772857Y-78474819D01*
X106772857Y-78474819D02*
X106677619Y-78474819D01*
X106677619Y-78474819D02*
X106534762Y-78427200D01*
X106534762Y-78427200D02*
X106439524Y-78331961D01*
X106439524Y-78331961D02*
X106391905Y-78236723D01*
X106391905Y-78236723D02*
X106344286Y-78046247D01*
X106344286Y-78046247D02*
X106344286Y-77903390D01*
X106344286Y-77903390D02*
X106391905Y-77712914D01*
X106391905Y-77712914D02*
X106439524Y-77617676D01*
X106439524Y-77617676D02*
X106534762Y-77522438D01*
X106534762Y-77522438D02*
X106677619Y-77474819D01*
X106677619Y-77474819D02*
X106772857Y-77474819D01*
X106772857Y-77474819D02*
X106915714Y-77522438D01*
X106915714Y-77522438D02*
X106963333Y-77570057D01*
X107915714Y-78474819D02*
X107344286Y-78474819D01*
X107630000Y-78474819D02*
X107630000Y-77474819D01*
X107630000Y-77474819D02*
X107534762Y-77617676D01*
X107534762Y-77617676D02*
X107439524Y-77712914D01*
X107439524Y-77712914D02*
X107344286Y-77760533D01*
X103974819Y-73864404D02*
X104784342Y-73864404D01*
X104784342Y-73864404D02*
X104879580Y-73816785D01*
X104879580Y-73816785D02*
X104927200Y-73769166D01*
X104927200Y-73769166D02*
X104974819Y-73673928D01*
X104974819Y-73673928D02*
X104974819Y-73483452D01*
X104974819Y-73483452D02*
X104927200Y-73388214D01*
X104927200Y-73388214D02*
X104879580Y-73340595D01*
X104879580Y-73340595D02*
X104784342Y-73292976D01*
X104784342Y-73292976D02*
X103974819Y-73292976D01*
X104070057Y-72864404D02*
X104022438Y-72816785D01*
X104022438Y-72816785D02*
X103974819Y-72721547D01*
X103974819Y-72721547D02*
X103974819Y-72483452D01*
X103974819Y-72483452D02*
X104022438Y-72388214D01*
X104022438Y-72388214D02*
X104070057Y-72340595D01*
X104070057Y-72340595D02*
X104165295Y-72292976D01*
X104165295Y-72292976D02*
X104260533Y-72292976D01*
X104260533Y-72292976D02*
X104403390Y-72340595D01*
X104403390Y-72340595D02*
X104974819Y-72912023D01*
X104974819Y-72912023D02*
X104974819Y-72292976D01*
X128554819Y-70496666D02*
X128078628Y-70829999D01*
X128554819Y-71068094D02*
X127554819Y-71068094D01*
X127554819Y-71068094D02*
X127554819Y-70687142D01*
X127554819Y-70687142D02*
X127602438Y-70591904D01*
X127602438Y-70591904D02*
X127650057Y-70544285D01*
X127650057Y-70544285D02*
X127745295Y-70496666D01*
X127745295Y-70496666D02*
X127888152Y-70496666D01*
X127888152Y-70496666D02*
X127983390Y-70544285D01*
X127983390Y-70544285D02*
X128031009Y-70591904D01*
X128031009Y-70591904D02*
X128078628Y-70687142D01*
X128078628Y-70687142D02*
X128078628Y-71068094D01*
X127554819Y-69591904D02*
X127554819Y-70068094D01*
X127554819Y-70068094D02*
X128031009Y-70115713D01*
X128031009Y-70115713D02*
X127983390Y-70068094D01*
X127983390Y-70068094D02*
X127935771Y-69972856D01*
X127935771Y-69972856D02*
X127935771Y-69734761D01*
X127935771Y-69734761D02*
X127983390Y-69639523D01*
X127983390Y-69639523D02*
X128031009Y-69591904D01*
X128031009Y-69591904D02*
X128126247Y-69544285D01*
X128126247Y-69544285D02*
X128364342Y-69544285D01*
X128364342Y-69544285D02*
X128459580Y-69591904D01*
X128459580Y-69591904D02*
X128507200Y-69639523D01*
X128507200Y-69639523D02*
X128554819Y-69734761D01*
X128554819Y-69734761D02*
X128554819Y-69972856D01*
X128554819Y-69972856D02*
X128507200Y-70068094D01*
X128507200Y-70068094D02*
X128459580Y-70115713D01*
X144854819Y-30573333D02*
X145569104Y-30573333D01*
X145569104Y-30573333D02*
X145711961Y-30620952D01*
X145711961Y-30620952D02*
X145807200Y-30716190D01*
X145807200Y-30716190D02*
X145854819Y-30859047D01*
X145854819Y-30859047D02*
X145854819Y-30954285D01*
X144854819Y-29620952D02*
X144854819Y-30097142D01*
X144854819Y-30097142D02*
X145331009Y-30144761D01*
X145331009Y-30144761D02*
X145283390Y-30097142D01*
X145283390Y-30097142D02*
X145235771Y-30001904D01*
X145235771Y-30001904D02*
X145235771Y-29763809D01*
X145235771Y-29763809D02*
X145283390Y-29668571D01*
X145283390Y-29668571D02*
X145331009Y-29620952D01*
X145331009Y-29620952D02*
X145426247Y-29573333D01*
X145426247Y-29573333D02*
X145664342Y-29573333D01*
X145664342Y-29573333D02*
X145759580Y-29620952D01*
X145759580Y-29620952D02*
X145807200Y-29668571D01*
X145807200Y-29668571D02*
X145854819Y-29763809D01*
X145854819Y-29763809D02*
X145854819Y-30001904D01*
X145854819Y-30001904D02*
X145807200Y-30097142D01*
X145807200Y-30097142D02*
X145759580Y-30144761D01*
X88126769Y-72803884D02*
X88126769Y-73614817D01*
X88126769Y-73614817D02*
X88174471Y-73710221D01*
X88174471Y-73710221D02*
X88222173Y-73757923D01*
X88222173Y-73757923D02*
X88317577Y-73805624D01*
X88317577Y-73805624D02*
X88508384Y-73805624D01*
X88508384Y-73805624D02*
X88603788Y-73757923D01*
X88603788Y-73757923D02*
X88651490Y-73710221D01*
X88651490Y-73710221D02*
X88699192Y-73614817D01*
X88699192Y-73614817D02*
X88699192Y-72803884D01*
X89080807Y-72803884D02*
X89700932Y-72803884D01*
X89700932Y-72803884D02*
X89367019Y-73185500D01*
X89367019Y-73185500D02*
X89510124Y-73185500D01*
X89510124Y-73185500D02*
X89605528Y-73233202D01*
X89605528Y-73233202D02*
X89653230Y-73280903D01*
X89653230Y-73280903D02*
X89700932Y-73376307D01*
X89700932Y-73376307D02*
X89700932Y-73614817D01*
X89700932Y-73614817D02*
X89653230Y-73710221D01*
X89653230Y-73710221D02*
X89605528Y-73757923D01*
X89605528Y-73757923D02*
X89510124Y-73805624D01*
X89510124Y-73805624D02*
X89223913Y-73805624D01*
X89223913Y-73805624D02*
X89128509Y-73757923D01*
X89128509Y-73757923D02*
X89080807Y-73710221D01*
X125604819Y-70496666D02*
X125128628Y-70829999D01*
X125604819Y-71068094D02*
X124604819Y-71068094D01*
X124604819Y-71068094D02*
X124604819Y-70687142D01*
X124604819Y-70687142D02*
X124652438Y-70591904D01*
X124652438Y-70591904D02*
X124700057Y-70544285D01*
X124700057Y-70544285D02*
X124795295Y-70496666D01*
X124795295Y-70496666D02*
X124938152Y-70496666D01*
X124938152Y-70496666D02*
X125033390Y-70544285D01*
X125033390Y-70544285D02*
X125081009Y-70591904D01*
X125081009Y-70591904D02*
X125128628Y-70687142D01*
X125128628Y-70687142D02*
X125128628Y-71068094D01*
X124938152Y-69639523D02*
X125604819Y-69639523D01*
X124557200Y-69877618D02*
X125271485Y-70115713D01*
X125271485Y-70115713D02*
X125271485Y-69496666D01*
X144854819Y-65573333D02*
X145569104Y-65573333D01*
X145569104Y-65573333D02*
X145711961Y-65620952D01*
X145711961Y-65620952D02*
X145807200Y-65716190D01*
X145807200Y-65716190D02*
X145854819Y-65859047D01*
X145854819Y-65859047D02*
X145854819Y-65954285D01*
X145188152Y-64668571D02*
X145854819Y-64668571D01*
X144807200Y-64906666D02*
X145521485Y-65144761D01*
X145521485Y-65144761D02*
X145521485Y-64525714D01*
X119704819Y-70496666D02*
X119228628Y-70829999D01*
X119704819Y-71068094D02*
X118704819Y-71068094D01*
X118704819Y-71068094D02*
X118704819Y-70687142D01*
X118704819Y-70687142D02*
X118752438Y-70591904D01*
X118752438Y-70591904D02*
X118800057Y-70544285D01*
X118800057Y-70544285D02*
X118895295Y-70496666D01*
X118895295Y-70496666D02*
X119038152Y-70496666D01*
X119038152Y-70496666D02*
X119133390Y-70544285D01*
X119133390Y-70544285D02*
X119181009Y-70591904D01*
X119181009Y-70591904D02*
X119228628Y-70687142D01*
X119228628Y-70687142D02*
X119228628Y-71068094D01*
X118800057Y-70115713D02*
X118752438Y-70068094D01*
X118752438Y-70068094D02*
X118704819Y-69972856D01*
X118704819Y-69972856D02*
X118704819Y-69734761D01*
X118704819Y-69734761D02*
X118752438Y-69639523D01*
X118752438Y-69639523D02*
X118800057Y-69591904D01*
X118800057Y-69591904D02*
X118895295Y-69544285D01*
X118895295Y-69544285D02*
X118990533Y-69544285D01*
X118990533Y-69544285D02*
X119133390Y-69591904D01*
X119133390Y-69591904D02*
X119704819Y-70163332D01*
X119704819Y-70163332D02*
X119704819Y-69544285D01*
X122654819Y-70496666D02*
X122178628Y-70829999D01*
X122654819Y-71068094D02*
X121654819Y-71068094D01*
X121654819Y-71068094D02*
X121654819Y-70687142D01*
X121654819Y-70687142D02*
X121702438Y-70591904D01*
X121702438Y-70591904D02*
X121750057Y-70544285D01*
X121750057Y-70544285D02*
X121845295Y-70496666D01*
X121845295Y-70496666D02*
X121988152Y-70496666D01*
X121988152Y-70496666D02*
X122083390Y-70544285D01*
X122083390Y-70544285D02*
X122131009Y-70591904D01*
X122131009Y-70591904D02*
X122178628Y-70687142D01*
X122178628Y-70687142D02*
X122178628Y-71068094D01*
X121654819Y-70163332D02*
X121654819Y-69544285D01*
X121654819Y-69544285D02*
X122035771Y-69877618D01*
X122035771Y-69877618D02*
X122035771Y-69734761D01*
X122035771Y-69734761D02*
X122083390Y-69639523D01*
X122083390Y-69639523D02*
X122131009Y-69591904D01*
X122131009Y-69591904D02*
X122226247Y-69544285D01*
X122226247Y-69544285D02*
X122464342Y-69544285D01*
X122464342Y-69544285D02*
X122559580Y-69591904D01*
X122559580Y-69591904D02*
X122607200Y-69639523D01*
X122607200Y-69639523D02*
X122654819Y-69734761D01*
X122654819Y-69734761D02*
X122654819Y-70020475D01*
X122654819Y-70020475D02*
X122607200Y-70115713D01*
X122607200Y-70115713D02*
X122559580Y-70163332D01*
X116754819Y-70496666D02*
X116278628Y-70829999D01*
X116754819Y-71068094D02*
X115754819Y-71068094D01*
X115754819Y-71068094D02*
X115754819Y-70687142D01*
X115754819Y-70687142D02*
X115802438Y-70591904D01*
X115802438Y-70591904D02*
X115850057Y-70544285D01*
X115850057Y-70544285D02*
X115945295Y-70496666D01*
X115945295Y-70496666D02*
X116088152Y-70496666D01*
X116088152Y-70496666D02*
X116183390Y-70544285D01*
X116183390Y-70544285D02*
X116231009Y-70591904D01*
X116231009Y-70591904D02*
X116278628Y-70687142D01*
X116278628Y-70687142D02*
X116278628Y-71068094D01*
X116754819Y-69544285D02*
X116754819Y-70115713D01*
X116754819Y-69829999D02*
X115754819Y-69829999D01*
X115754819Y-69829999D02*
X115897676Y-69925237D01*
X115897676Y-69925237D02*
X115992914Y-70020475D01*
X115992914Y-70020475D02*
X116040533Y-70115713D01*
X126618095Y-86374819D02*
X126618095Y-85374819D01*
X126618095Y-85374819D02*
X126999047Y-85374819D01*
X126999047Y-85374819D02*
X127094285Y-85422438D01*
X127094285Y-85422438D02*
X127141904Y-85470057D01*
X127141904Y-85470057D02*
X127189523Y-85565295D01*
X127189523Y-85565295D02*
X127189523Y-85708152D01*
X127189523Y-85708152D02*
X127141904Y-85803390D01*
X127141904Y-85803390D02*
X127094285Y-85851009D01*
X127094285Y-85851009D02*
X126999047Y-85898628D01*
X126999047Y-85898628D02*
X126618095Y-85898628D01*
X128189523Y-86374819D02*
X127856190Y-85898628D01*
X127618095Y-86374819D02*
X127618095Y-85374819D01*
X127618095Y-85374819D02*
X127999047Y-85374819D01*
X127999047Y-85374819D02*
X128094285Y-85422438D01*
X128094285Y-85422438D02*
X128141904Y-85470057D01*
X128141904Y-85470057D02*
X128189523Y-85565295D01*
X128189523Y-85565295D02*
X128189523Y-85708152D01*
X128189523Y-85708152D02*
X128141904Y-85803390D01*
X128141904Y-85803390D02*
X128094285Y-85851009D01*
X128094285Y-85851009D02*
X127999047Y-85898628D01*
X127999047Y-85898628D02*
X127618095Y-85898628D01*
X128808571Y-85374819D02*
X128999047Y-85374819D01*
X128999047Y-85374819D02*
X129094285Y-85422438D01*
X129094285Y-85422438D02*
X129189523Y-85517676D01*
X129189523Y-85517676D02*
X129237142Y-85708152D01*
X129237142Y-85708152D02*
X129237142Y-86041485D01*
X129237142Y-86041485D02*
X129189523Y-86231961D01*
X129189523Y-86231961D02*
X129094285Y-86327200D01*
X129094285Y-86327200D02*
X128999047Y-86374819D01*
X128999047Y-86374819D02*
X128808571Y-86374819D01*
X128808571Y-86374819D02*
X128713333Y-86327200D01*
X128713333Y-86327200D02*
X128618095Y-86231961D01*
X128618095Y-86231961D02*
X128570476Y-86041485D01*
X128570476Y-86041485D02*
X128570476Y-85708152D01*
X128570476Y-85708152D02*
X128618095Y-85517676D01*
X128618095Y-85517676D02*
X128713333Y-85422438D01*
X128713333Y-85422438D02*
X128808571Y-85374819D01*
X130189523Y-85422438D02*
X130094285Y-85374819D01*
X130094285Y-85374819D02*
X129951428Y-85374819D01*
X129951428Y-85374819D02*
X129808571Y-85422438D01*
X129808571Y-85422438D02*
X129713333Y-85517676D01*
X129713333Y-85517676D02*
X129665714Y-85612914D01*
X129665714Y-85612914D02*
X129618095Y-85803390D01*
X129618095Y-85803390D02*
X129618095Y-85946247D01*
X129618095Y-85946247D02*
X129665714Y-86136723D01*
X129665714Y-86136723D02*
X129713333Y-86231961D01*
X129713333Y-86231961D02*
X129808571Y-86327200D01*
X129808571Y-86327200D02*
X129951428Y-86374819D01*
X129951428Y-86374819D02*
X130046666Y-86374819D01*
X130046666Y-86374819D02*
X130189523Y-86327200D01*
X130189523Y-86327200D02*
X130237142Y-86279580D01*
X130237142Y-86279580D02*
X130237142Y-85946247D01*
X130237142Y-85946247D02*
X130046666Y-85946247D01*
X131189523Y-86374819D02*
X130618095Y-86374819D01*
X130903809Y-86374819D02*
X130903809Y-85374819D01*
X130903809Y-85374819D02*
X130808571Y-85517676D01*
X130808571Y-85517676D02*
X130713333Y-85612914D01*
X130713333Y-85612914D02*
X130618095Y-85660533D01*
X120613333Y-26459580D02*
X120565714Y-26507200D01*
X120565714Y-26507200D02*
X120422857Y-26554819D01*
X120422857Y-26554819D02*
X120327619Y-26554819D01*
X120327619Y-26554819D02*
X120184762Y-26507200D01*
X120184762Y-26507200D02*
X120089524Y-26411961D01*
X120089524Y-26411961D02*
X120041905Y-26316723D01*
X120041905Y-26316723D02*
X119994286Y-26126247D01*
X119994286Y-26126247D02*
X119994286Y-25983390D01*
X119994286Y-25983390D02*
X120041905Y-25792914D01*
X120041905Y-25792914D02*
X120089524Y-25697676D01*
X120089524Y-25697676D02*
X120184762Y-25602438D01*
X120184762Y-25602438D02*
X120327619Y-25554819D01*
X120327619Y-25554819D02*
X120422857Y-25554819D01*
X120422857Y-25554819D02*
X120565714Y-25602438D01*
X120565714Y-25602438D02*
X120613333Y-25650057D01*
X120994286Y-25650057D02*
X121041905Y-25602438D01*
X121041905Y-25602438D02*
X121137143Y-25554819D01*
X121137143Y-25554819D02*
X121375238Y-25554819D01*
X121375238Y-25554819D02*
X121470476Y-25602438D01*
X121470476Y-25602438D02*
X121518095Y-25650057D01*
X121518095Y-25650057D02*
X121565714Y-25745295D01*
X121565714Y-25745295D02*
X121565714Y-25840533D01*
X121565714Y-25840533D02*
X121518095Y-25983390D01*
X121518095Y-25983390D02*
X120946667Y-26554819D01*
X120946667Y-26554819D02*
X121565714Y-26554819D01*
X120593333Y-29549580D02*
X120545714Y-29597200D01*
X120545714Y-29597200D02*
X120402857Y-29644819D01*
X120402857Y-29644819D02*
X120307619Y-29644819D01*
X120307619Y-29644819D02*
X120164762Y-29597200D01*
X120164762Y-29597200D02*
X120069524Y-29501961D01*
X120069524Y-29501961D02*
X120021905Y-29406723D01*
X120021905Y-29406723D02*
X119974286Y-29216247D01*
X119974286Y-29216247D02*
X119974286Y-29073390D01*
X119974286Y-29073390D02*
X120021905Y-28882914D01*
X120021905Y-28882914D02*
X120069524Y-28787676D01*
X120069524Y-28787676D02*
X120164762Y-28692438D01*
X120164762Y-28692438D02*
X120307619Y-28644819D01*
X120307619Y-28644819D02*
X120402857Y-28644819D01*
X120402857Y-28644819D02*
X120545714Y-28692438D01*
X120545714Y-28692438D02*
X120593333Y-28740057D01*
X120926667Y-28644819D02*
X121545714Y-28644819D01*
X121545714Y-28644819D02*
X121212381Y-29025771D01*
X121212381Y-29025771D02*
X121355238Y-29025771D01*
X121355238Y-29025771D02*
X121450476Y-29073390D01*
X121450476Y-29073390D02*
X121498095Y-29121009D01*
X121498095Y-29121009D02*
X121545714Y-29216247D01*
X121545714Y-29216247D02*
X121545714Y-29454342D01*
X121545714Y-29454342D02*
X121498095Y-29549580D01*
X121498095Y-29549580D02*
X121450476Y-29597200D01*
X121450476Y-29597200D02*
X121355238Y-29644819D01*
X121355238Y-29644819D02*
X121069524Y-29644819D01*
X121069524Y-29644819D02*
X120974286Y-29597200D01*
X120974286Y-29597200D02*
X120926667Y-29549580D01*
X90114819Y-55270952D02*
X89638628Y-55604285D01*
X90114819Y-55842380D02*
X89114819Y-55842380D01*
X89114819Y-55842380D02*
X89114819Y-55461428D01*
X89114819Y-55461428D02*
X89162438Y-55366190D01*
X89162438Y-55366190D02*
X89210057Y-55318571D01*
X89210057Y-55318571D02*
X89305295Y-55270952D01*
X89305295Y-55270952D02*
X89448152Y-55270952D01*
X89448152Y-55270952D02*
X89543390Y-55318571D01*
X89543390Y-55318571D02*
X89591009Y-55366190D01*
X89591009Y-55366190D02*
X89638628Y-55461428D01*
X89638628Y-55461428D02*
X89638628Y-55842380D01*
X89114819Y-54556666D02*
X89829104Y-54556666D01*
X89829104Y-54556666D02*
X89971961Y-54604285D01*
X89971961Y-54604285D02*
X90067200Y-54699523D01*
X90067200Y-54699523D02*
X90114819Y-54842380D01*
X90114819Y-54842380D02*
X90114819Y-54937618D01*
X90210057Y-54318571D02*
X90210057Y-53556666D01*
X90019580Y-52747142D02*
X90067200Y-52794761D01*
X90067200Y-52794761D02*
X90114819Y-52937618D01*
X90114819Y-52937618D02*
X90114819Y-53032856D01*
X90114819Y-53032856D02*
X90067200Y-53175713D01*
X90067200Y-53175713D02*
X89971961Y-53270951D01*
X89971961Y-53270951D02*
X89876723Y-53318570D01*
X89876723Y-53318570D02*
X89686247Y-53366189D01*
X89686247Y-53366189D02*
X89543390Y-53366189D01*
X89543390Y-53366189D02*
X89352914Y-53318570D01*
X89352914Y-53318570D02*
X89257676Y-53270951D01*
X89257676Y-53270951D02*
X89162438Y-53175713D01*
X89162438Y-53175713D02*
X89114819Y-53032856D01*
X89114819Y-53032856D02*
X89114819Y-52937618D01*
X89114819Y-52937618D02*
X89162438Y-52794761D01*
X89162438Y-52794761D02*
X89210057Y-52747142D01*
X89829104Y-52366189D02*
X89829104Y-51889999D01*
X90114819Y-52461427D02*
X89114819Y-52128094D01*
X89114819Y-52128094D02*
X90114819Y-51794761D01*
X90114819Y-51461427D02*
X89114819Y-51461427D01*
X89114819Y-51461427D02*
X90114819Y-50889999D01*
X90114819Y-50889999D02*
X89114819Y-50889999D01*
X90114819Y-49889999D02*
X90114819Y-50461427D01*
X90114819Y-50175713D02*
X89114819Y-50175713D01*
X89114819Y-50175713D02*
X89257676Y-50270951D01*
X89257676Y-50270951D02*
X89352914Y-50366189D01*
X89352914Y-50366189D02*
X89400533Y-50461427D01*
X99464405Y-64024819D02*
X99464405Y-63024819D01*
X99464405Y-63024819D02*
X99702500Y-63024819D01*
X99702500Y-63024819D02*
X99845357Y-63072438D01*
X99845357Y-63072438D02*
X99940595Y-63167676D01*
X99940595Y-63167676D02*
X99988214Y-63262914D01*
X99988214Y-63262914D02*
X100035833Y-63453390D01*
X100035833Y-63453390D02*
X100035833Y-63596247D01*
X100035833Y-63596247D02*
X99988214Y-63786723D01*
X99988214Y-63786723D02*
X99940595Y-63881961D01*
X99940595Y-63881961D02*
X99845357Y-63977200D01*
X99845357Y-63977200D02*
X99702500Y-64024819D01*
X99702500Y-64024819D02*
X99464405Y-64024819D01*
X100988214Y-64024819D02*
X100416786Y-64024819D01*
X100702500Y-64024819D02*
X100702500Y-63024819D01*
X100702500Y-63024819D02*
X100607262Y-63167676D01*
X100607262Y-63167676D02*
X100512024Y-63262914D01*
X100512024Y-63262914D02*
X100416786Y-63310533D01*
X144854819Y-48073333D02*
X145569104Y-48073333D01*
X145569104Y-48073333D02*
X145711961Y-48120952D01*
X145711961Y-48120952D02*
X145807200Y-48216190D01*
X145807200Y-48216190D02*
X145854819Y-48359047D01*
X145854819Y-48359047D02*
X145854819Y-48454285D01*
X144854819Y-47692380D02*
X144854819Y-47073333D01*
X144854819Y-47073333D02*
X145235771Y-47406666D01*
X145235771Y-47406666D02*
X145235771Y-47263809D01*
X145235771Y-47263809D02*
X145283390Y-47168571D01*
X145283390Y-47168571D02*
X145331009Y-47120952D01*
X145331009Y-47120952D02*
X145426247Y-47073333D01*
X145426247Y-47073333D02*
X145664342Y-47073333D01*
X145664342Y-47073333D02*
X145759580Y-47120952D01*
X145759580Y-47120952D02*
X145807200Y-47168571D01*
X145807200Y-47168571D02*
X145854819Y-47263809D01*
X145854819Y-47263809D02*
X145854819Y-47549523D01*
X145854819Y-47549523D02*
X145807200Y-47644761D01*
X145807200Y-47644761D02*
X145759580Y-47692380D01*
X94877142Y-17374819D02*
X94543809Y-16898628D01*
X94305714Y-17374819D02*
X94305714Y-16374819D01*
X94305714Y-16374819D02*
X94686666Y-16374819D01*
X94686666Y-16374819D02*
X94781904Y-16422438D01*
X94781904Y-16422438D02*
X94829523Y-16470057D01*
X94829523Y-16470057D02*
X94877142Y-16565295D01*
X94877142Y-16565295D02*
X94877142Y-16708152D01*
X94877142Y-16708152D02*
X94829523Y-16803390D01*
X94829523Y-16803390D02*
X94781904Y-16851009D01*
X94781904Y-16851009D02*
X94686666Y-16898628D01*
X94686666Y-16898628D02*
X94305714Y-16898628D01*
X95829523Y-17374819D02*
X95258095Y-17374819D01*
X95543809Y-17374819D02*
X95543809Y-16374819D01*
X95543809Y-16374819D02*
X95448571Y-16517676D01*
X95448571Y-16517676D02*
X95353333Y-16612914D01*
X95353333Y-16612914D02*
X95258095Y-16660533D01*
X96781904Y-17374819D02*
X96210476Y-17374819D01*
X96496190Y-17374819D02*
X96496190Y-16374819D01*
X96496190Y-16374819D02*
X96400952Y-16517676D01*
X96400952Y-16517676D02*
X96305714Y-16612914D01*
X96305714Y-16612914D02*
X96210476Y-16660533D01*
D11*
%TO.C,R17*%
X122727064Y-32375000D02*
X122272936Y-32375000D01*
X122727064Y-33845000D02*
X122272936Y-33845000D01*
%TO.C,D2*%
X88252500Y-63920000D02*
X88252500Y-68220000D01*
X88252500Y-63920000D02*
X94062500Y-63920000D01*
X88252500Y-68220000D02*
X94062500Y-68220000D01*
%TO.C,J2*%
X89260000Y-22600000D02*
X89260000Y-32980000D01*
X89260000Y-23980000D02*
X90260000Y-23980000D01*
X89260000Y-24230000D02*
X90260000Y-24230000D01*
X89260000Y-31350000D02*
X90260000Y-31350000D01*
X89260000Y-32980000D02*
X95280000Y-32980000D01*
X90260000Y-23980000D02*
X90260000Y-31600000D01*
X90260000Y-23980000D02*
X90790000Y-24230000D01*
X90260000Y-31600000D02*
X89260000Y-31600000D01*
X90790000Y-24230000D02*
X90790000Y-31350000D01*
X90790000Y-31350000D02*
X90260000Y-31600000D01*
X94250000Y-22310000D02*
X90250000Y-22310000D01*
X94680000Y-23180000D02*
X94680000Y-24780000D01*
X94680000Y-24780000D02*
X95280000Y-24780000D01*
X94680000Y-25720000D02*
X94680000Y-27320000D01*
X94680000Y-27320000D02*
X95280000Y-27320000D01*
X94680000Y-28260000D02*
X94680000Y-29860000D01*
X94680000Y-29860000D02*
X95280000Y-29860000D01*
X94680000Y-30800000D02*
X94680000Y-32400000D01*
X94680000Y-32400000D02*
X95280000Y-32400000D01*
X95280000Y-22600000D02*
X89260000Y-22600000D01*
X95280000Y-23180000D02*
X94680000Y-23180000D01*
X95280000Y-25720000D02*
X94680000Y-25720000D01*
X95280000Y-28260000D02*
X94680000Y-28260000D01*
X95280000Y-30800000D02*
X94680000Y-30800000D01*
X95280000Y-32980000D02*
X95280000Y-22600000D01*
%TO.C,C1*%
X107391252Y-75605000D02*
X106868748Y-75605000D01*
X107391252Y-77075000D02*
X106868748Y-77075000D01*
%TO.C,U2*%
X105360000Y-72342500D02*
X106360000Y-72342500D01*
X105360000Y-73862500D02*
X105360000Y-72342500D01*
X105410000Y-73862500D02*
X105360000Y-73862500D01*
X107310000Y-73862500D02*
X106530000Y-73862500D01*
X107480000Y-72342500D02*
X108480000Y-72342500D01*
X108480000Y-72342500D02*
X108480000Y-73862500D01*
X108480000Y-73862500D02*
X108430000Y-73862500D01*
X106870000Y-74642500D02*
X106540000Y-74402500D01*
X106870000Y-74162500D01*
X106870000Y-74642500D01*
G36*
X106870000Y-74642500D02*
G01*
X106540000Y-74402500D01*
X106870000Y-74162500D01*
X106870000Y-74642500D01*
G37*
%TO.C,R5*%
X127245000Y-67884564D02*
X127245000Y-67430436D01*
X128715000Y-67884564D02*
X128715000Y-67430436D01*
%TO.C,D6*%
X88545000Y-40460000D02*
X88545000Y-42380000D01*
X88545000Y-42380000D02*
X91230000Y-42380000D01*
X91230000Y-40460000D02*
X88545000Y-40460000D01*
%TO.C,J5*%
X146490000Y-25050000D02*
X146490000Y-35430000D01*
X146490000Y-27230000D02*
X147090000Y-27230000D01*
X146490000Y-29770000D02*
X147090000Y-29770000D01*
X146490000Y-32310000D02*
X147090000Y-32310000D01*
X146490000Y-34850000D02*
X147090000Y-34850000D01*
X146490000Y-35430000D02*
X152510000Y-35430000D01*
X147090000Y-25630000D02*
X146490000Y-25630000D01*
X147090000Y-27230000D02*
X147090000Y-25630000D01*
X147090000Y-28170000D02*
X146490000Y-28170000D01*
X147090000Y-29770000D02*
X147090000Y-28170000D01*
X147090000Y-30710000D02*
X146490000Y-30710000D01*
X147090000Y-32310000D02*
X147090000Y-30710000D01*
X147090000Y-33250000D02*
X146490000Y-33250000D01*
X147090000Y-34850000D02*
X147090000Y-33250000D01*
X147520000Y-35720000D02*
X151520000Y-35720000D01*
X150980000Y-26680000D02*
X151510000Y-26430000D01*
X150980000Y-33800000D02*
X150980000Y-26680000D01*
X151510000Y-26430000D02*
X152510000Y-26430000D01*
X151510000Y-34050000D02*
X150980000Y-33800000D01*
X151510000Y-34050000D02*
X151510000Y-26430000D01*
X152510000Y-25050000D02*
X146490000Y-25050000D01*
X152510000Y-26680000D02*
X151510000Y-26680000D01*
X152510000Y-33800000D02*
X151510000Y-33800000D01*
X152510000Y-34050000D02*
X151510000Y-34050000D01*
X152510000Y-35430000D02*
X152510000Y-25050000D01*
D13*
%TO.C,U3*%
X92265000Y-71395000D02*
X92265000Y-71675000D01*
X92265000Y-71395000D02*
X101595000Y-71395000D01*
X92265000Y-76425000D02*
X92265000Y-76145000D01*
X101595000Y-71395000D02*
X101595000Y-71675000D01*
X101595000Y-76425000D02*
X92265000Y-76425000D01*
X101595000Y-76425000D02*
X101595000Y-76145000D01*
D11*
%TO.C,R4*%
X124295000Y-67884564D02*
X124295000Y-67430436D01*
X125765000Y-67884564D02*
X125765000Y-67430436D01*
%TO.C,J4*%
X146490000Y-60050000D02*
X146490000Y-70430000D01*
X146490000Y-62230000D02*
X147090000Y-62230000D01*
X146490000Y-64770000D02*
X147090000Y-64770000D01*
X146490000Y-67310000D02*
X147090000Y-67310000D01*
X146490000Y-69850000D02*
X147090000Y-69850000D01*
X146490000Y-70430000D02*
X152510000Y-70430000D01*
X147090000Y-60630000D02*
X146490000Y-60630000D01*
X147090000Y-62230000D02*
X147090000Y-60630000D01*
X147090000Y-63170000D02*
X146490000Y-63170000D01*
X147090000Y-64770000D02*
X147090000Y-63170000D01*
X147090000Y-65710000D02*
X146490000Y-65710000D01*
X147090000Y-67310000D02*
X147090000Y-65710000D01*
X147090000Y-68250000D02*
X146490000Y-68250000D01*
X147090000Y-69850000D02*
X147090000Y-68250000D01*
X147520000Y-70720000D02*
X151520000Y-70720000D01*
X150980000Y-61680000D02*
X151510000Y-61430000D01*
X150980000Y-68800000D02*
X150980000Y-61680000D01*
X151510000Y-61430000D02*
X152510000Y-61430000D01*
X151510000Y-69050000D02*
X150980000Y-68800000D01*
X151510000Y-69050000D02*
X151510000Y-61430000D01*
X152510000Y-60050000D02*
X146490000Y-60050000D01*
X152510000Y-61680000D02*
X151510000Y-61680000D01*
X152510000Y-68800000D02*
X151510000Y-68800000D01*
X152510000Y-69050000D02*
X151510000Y-69050000D01*
X152510000Y-70430000D02*
X152510000Y-60050000D01*
%TO.C,R2*%
X118395000Y-67884564D02*
X118395000Y-67430436D01*
X119865000Y-67884564D02*
X119865000Y-67430436D01*
%TO.C,J1*%
X96570000Y-80300000D02*
X96570000Y-82600000D01*
X96870000Y-80600000D02*
X96870000Y-84470000D01*
X96870000Y-83010000D02*
X97270000Y-83010000D01*
X96870000Y-84470000D02*
X103090000Y-84470000D01*
X97270000Y-81000000D02*
X97270000Y-82210000D01*
X97270000Y-82210000D02*
X97670000Y-82210000D01*
X97270000Y-82610000D02*
X97270000Y-84470000D01*
X97670000Y-82210000D02*
X97670000Y-82610000D01*
X97670000Y-82610000D02*
X97270000Y-82610000D01*
X98870000Y-80300000D02*
X96570000Y-80300000D01*
X99980000Y-81000000D02*
X97270000Y-81000000D01*
X99980000Y-81000000D02*
X102690000Y-81000000D01*
X102290000Y-82210000D02*
X102290000Y-82610000D01*
X102290000Y-82610000D02*
X102690000Y-82610000D01*
X102690000Y-81000000D02*
X102690000Y-82210000D01*
X102690000Y-82210000D02*
X102290000Y-82210000D01*
X102690000Y-82610000D02*
X102690000Y-84470000D01*
X103090000Y-80600000D02*
X96870000Y-80600000D01*
X103090000Y-83010000D02*
X102690000Y-83010000D01*
X103090000Y-84470000D02*
X103090000Y-80600000D01*
%TO.C,D5*%
X88545000Y-37420000D02*
X88545000Y-39340000D01*
X88545000Y-39340000D02*
X91230000Y-39340000D01*
X91230000Y-37420000D02*
X88545000Y-37420000D01*
%TO.C,R3*%
X121345000Y-67884564D02*
X121345000Y-67430436D01*
X122815000Y-67884564D02*
X122815000Y-67430436D01*
%TO.C,R1*%
X115445000Y-67884564D02*
X115445000Y-67430436D01*
X116915000Y-67884564D02*
X116915000Y-67430436D01*
%TO.C,PROG1*%
X125270000Y-81510000D02*
X126320000Y-81510000D01*
X125270000Y-82660000D02*
X125270000Y-81510000D01*
X131320000Y-84630000D02*
X126440000Y-84630000D01*
X131440000Y-81510000D02*
X131440000Y-80520000D01*
X132490000Y-81510000D02*
X131440000Y-81510000D01*
X132490000Y-82660000D02*
X132490000Y-81510000D01*
%TO.C,D3*%
X113900000Y-82075000D02*
X113900000Y-84760000D01*
X113900000Y-84760000D02*
X115820000Y-84760000D01*
X115820000Y-84760000D02*
X115820000Y-82075000D01*
%TO.C,C2*%
X117328748Y-25325000D02*
X117851252Y-25325000D01*
X117328748Y-26795000D02*
X117851252Y-26795000D01*
%TO.C,C3*%
X117308748Y-28415000D02*
X117831252Y-28415000D01*
X117308748Y-29885000D02*
X117831252Y-29885000D01*
%TO.C,RJ_CAN1*%
X87502500Y-44521000D02*
X95112500Y-44521000D01*
X87502500Y-61206000D02*
X87502500Y-44566000D01*
X87502500Y-61251000D02*
X95112500Y-61251000D01*
X94412500Y-61946000D02*
X94912500Y-61446000D01*
X94912500Y-61446000D02*
X95412500Y-61946000D01*
X95412500Y-61946000D02*
X94412500Y-61946000D01*
X103472500Y-44521000D02*
X97912500Y-44521000D01*
X103472500Y-61206000D02*
X103472500Y-44521000D01*
X103472500Y-61251000D02*
X97912500Y-61251000D01*
%TO.C,SW1*%
X94845000Y-37292500D02*
X94845000Y-38602500D01*
X94845000Y-37292500D02*
X96228000Y-37292500D01*
X95085000Y-37532500D02*
X95085000Y-38602500D01*
X95085000Y-37532500D02*
X101905000Y-37532500D01*
X95085000Y-40682500D02*
X95085000Y-41752500D01*
X95085000Y-41752500D02*
X101905000Y-41752500D01*
X97891667Y-39007500D02*
X97891667Y-40277500D01*
X101905000Y-37532500D02*
X101905000Y-38682500D01*
X101905000Y-40602500D02*
X101905000Y-41752500D01*
X96685000Y-39007500D02*
X97891667Y-39007500D01*
X97891667Y-40277500D01*
X96685000Y-40277500D01*
X96685000Y-39007500D01*
G36*
X96685000Y-39007500D02*
G01*
X97891667Y-39007500D01*
X97891667Y-40277500D01*
X96685000Y-40277500D01*
X96685000Y-39007500D01*
G37*
X96685000Y-39007500D02*
X100305000Y-39007500D01*
X100305000Y-40277500D01*
X96685000Y-40277500D01*
X96685000Y-39007500D01*
%TO.C,D1*%
X96692500Y-64420000D02*
X96692500Y-67720000D01*
X96692500Y-64420000D02*
X102202500Y-64420000D01*
X96692500Y-67720000D02*
X102202500Y-67720000D01*
%TO.C,D4*%
X116940000Y-82075000D02*
X116940000Y-84760000D01*
X116940000Y-84760000D02*
X118860000Y-84760000D01*
X118860000Y-84760000D02*
X118860000Y-82075000D01*
%TO.C,J3*%
X146490000Y-37470000D02*
X146490000Y-58010000D01*
X146490000Y-39650000D02*
X147090000Y-39650000D01*
X146490000Y-42190000D02*
X147090000Y-42190000D01*
X146490000Y-44730000D02*
X147090000Y-44730000D01*
X146490000Y-47270000D02*
X147090000Y-47270000D01*
X146490000Y-49810000D02*
X147090000Y-49810000D01*
X146490000Y-52350000D02*
X147090000Y-52350000D01*
X146490000Y-54890000D02*
X147090000Y-54890000D01*
X146490000Y-57430000D02*
X147090000Y-57430000D01*
X146490000Y-58010000D02*
X152510000Y-58010000D01*
X147090000Y-38050000D02*
X146490000Y-38050000D01*
X147090000Y-39650000D02*
X147090000Y-38050000D01*
X147090000Y-40590000D02*
X146490000Y-40590000D01*
X147090000Y-42190000D02*
X147090000Y-40590000D01*
X147090000Y-43130000D02*
X146490000Y-43130000D01*
X147090000Y-44730000D02*
X147090000Y-43130000D01*
X147090000Y-45670000D02*
X146490000Y-45670000D01*
X147090000Y-47270000D02*
X147090000Y-45670000D01*
X147090000Y-48210000D02*
X146490000Y-48210000D01*
X147090000Y-49810000D02*
X147090000Y-48210000D01*
X147090000Y-50750000D02*
X146490000Y-50750000D01*
X147090000Y-52350000D02*
X147090000Y-50750000D01*
X147090000Y-53290000D02*
X146490000Y-53290000D01*
X147090000Y-54890000D02*
X147090000Y-53290000D01*
X147090000Y-55830000D02*
X146490000Y-55830000D01*
X147090000Y-57430000D02*
X147090000Y-55830000D01*
X147520000Y-58300000D02*
X151520000Y-58300000D01*
X150980000Y-39100000D02*
X150980000Y-43930000D01*
X150980000Y-43930000D02*
X151510000Y-43930000D01*
X150980000Y-51550000D02*
X151510000Y-51550000D01*
X150980000Y-56380000D02*
X150980000Y-51550000D01*
X151510000Y-38850000D02*
X150980000Y-39100000D01*
X151510000Y-38850000D02*
X151510000Y-43930000D01*
X151510000Y-43930000D02*
X152510000Y-43930000D01*
X151510000Y-51550000D02*
X152510000Y-51550000D01*
X151510000Y-56630000D02*
X150980000Y-56380000D01*
X151510000Y-56630000D02*
X151510000Y-51550000D01*
X152510000Y-37470000D02*
X146490000Y-37470000D01*
X152510000Y-38850000D02*
X151510000Y-38850000D01*
X152510000Y-39100000D02*
X151510000Y-39100000D01*
X152510000Y-56380000D02*
X151510000Y-56380000D01*
X152510000Y-56630000D02*
X151510000Y-56630000D01*
X152510000Y-58010000D02*
X152510000Y-37470000D01*
%TO.C,R11*%
X95292936Y-19305000D02*
X95747064Y-19305000D01*
X95292936Y-17835000D02*
X95747064Y-17835000D01*
%TD*%
M02*
