M48
; DRILL file {KiCad 9.0.6} date 2025-12-14T16:40:26+0100
; FORMAT={-:-/ absolute / metric / decimal}
; #@! TF.CreationDate,2025-12-14T16:40:26+01:00
; #@! TF.GenerationSoftware,Kicad,Pcbnew,9.0.6
; #@! TF.FileFunction,Plated,1,2,PTH
FMAT,2
METRIC
; #@! TA.AperFunction,Plated,PTH,ViaDrill
T1C0.300
; #@! TA.AperFunction,Plated,PTH,ViaDrill
T2C0.400
; #@! TA.AperFunction,Plated,PTH,ComponentDrill
T3C0.800
; #@! TA.AperFunction,Plated,PTH,ComponentDrill
T4C0.890
; #@! TA.AperFunction,Plated,PTH,ComponentDrill
T5C1.190
; #@! TA.AperFunction,Plated,PTH,ComponentDrill
T6C1.570
; #@! TA.AperFunction,Plated,PTH,ComponentDrill
T7C2.700
%
G90
G05
T1
X89.292Y-38.38
X91.167Y-38.38
X91.167Y-41.42
X94.608Y-18.57
X99.205Y-18.895
X100.69Y-31.11
X100.69Y-34.04
X105.7Y-68.32
X106.22Y-37.64
X107.37Y-82.165
X108.34Y-63.81
X108.959Y-28.549
X109.125Y-39.385
X109.13Y-41.93
X109.14Y-40.29
X109.15Y-42.76
X109.2Y-48.81
X109.2Y-50.28
X110.32Y-83.99
X110.689Y-61.669
X111.67Y-30.32
X111.8Y-61.79
X113.3Y-34.75
X114.84Y-78.892
X114.86Y-82.18
X115.28Y-33.62
X116.222Y-33.62
X116.532Y-29.15
X117.164Y-33.62
X117.9Y-82.138
X117.96Y-77.067
X118.106Y-33.62
X119.048Y-33.62
X119.29Y-43.66
X119.29Y-45.35
X119.29Y-46.99
X119.99Y-33.62
X120.875Y-43.66
X120.875Y-45.35
X120.875Y-46.99
X122.08Y-68.57
X122.46Y-43.66
X122.46Y-45.35
X122.46Y-46.99
X125.22Y-35.56
X129.83Y-67.78
X130.52Y-39.47
X130.88Y-81.295
X131.38Y-40.16
X131.615Y-34.46
X131.81Y-47.5
X131.81Y-48.871
X132.24Y-40.85
X133.0Y-47.5
T2
X120.082Y-44.5
X120.082Y-46.18
X121.0Y-69.87
X121.667Y-44.5
X121.667Y-46.18
T3
X94.685Y-39.642
X98.98Y-82.21
X100.98Y-82.21
X102.305Y-39.642
T4
X95.612Y-50.35
X95.612Y-52.382
X95.612Y-54.414
X95.612Y-56.446
X97.392Y-49.334
X97.392Y-51.366
X97.392Y-53.398
X97.392Y-55.43
T5
X92.25Y-23.98
X92.25Y-26.52
X92.25Y-29.06
X92.25Y-31.6
X149.52Y-26.43
X149.52Y-28.97
X149.52Y-31.51
X149.52Y-34.05
X149.52Y-38.85
X149.52Y-41.39
X149.52Y-43.93
X149.52Y-46.47
X149.52Y-49.01
X149.52Y-51.55
X149.52Y-54.09
X149.52Y-56.63
X149.52Y-61.43
X149.52Y-63.97
X149.52Y-66.51
X149.52Y-69.05
T6
X96.502Y-44.756
X96.502Y-61.016
T7
X90.62Y-14.08
X90.62Y-84.08
X150.62Y-14.08
X150.62Y-84.08
M30
