%TF.GenerationSoftware,KiCad,Pcbnew,9.0.6*%
%TF.CreationDate,2025-12-14T16:40:19+01:00*%
%TF.ProjectId,rayman_LCD,7261796d-616e-45f4-9c43-442e6b696361,rev?*%
%TF.SameCoordinates,Original*%
%TF.FileFunction,Paste,Bot*%
%TF.FilePolarity,Positive*%
%FSLAX46Y46*%
G04 Gerber Fmt 4.6, Leading zero omitted, Abs format (unit mm)*
G04 Created by KiCad (PCBNEW 9.0.6) date 2025-12-14 16:40:19*
%MOMM*%
%LPD*%
G01*
G04 APERTURE LIST*
G04 Aperture macros list*
%AMRoundRect*
0 Rectangle with rounded corners*
0 $1 Rounding radius*
0 $2 $3 $4 $5 $6 $7 $8 $9 X,Y pos of 4 corners*
0 Add a 4 corners polygon primitive as box body*
4,1,4,$2,$3,$4,$5,$6,$7,$8,$9,$2,$3,0*
0 Add four circle primitives for the rounded corners*
1,1,$1+$1,$2,$3*
1,1,$1+$1,$4,$5*
1,1,$1+$1,$6,$7*
1,1,$1+$1,$8,$9*
0 Add four rect primitives between the rounded corners*
20,1,$1+$1,$2,$3,$4,$5,0*
20,1,$1+$1,$4,$5,$6,$7,0*
20,1,$1+$1,$6,$7,$8,$9,0*
20,1,$1+$1,$8,$9,$2,$3,0*%
%AMOutline5P*
0 Free polygon, 5 corners , with rotation*
0 The origin of the aperture is its center*
0 number of corners: always 5*
0 $1 to $10 corner X, Y*
0 $11 Rotation angle, in degrees counterclockwise*
0 create outline with 5 corners*
4,1,5,$1,$2,$3,$4,$5,$6,$7,$8,$9,$10,$1,$2,$11*%
%AMOutline6P*
0 Free polygon, 6 corners , with rotation*
0 The origin of the aperture is its center*
0 number of corners: always 6*
0 $1 to $12 corner X, Y*
0 $13 Rotation angle, in degrees counterclockwise*
0 create outline with 6 corners*
4,1,6,$1,$2,$3,$4,$5,$6,$7,$8,$9,$10,$11,$12,$1,$2,$13*%
%AMOutline7P*
0 Free polygon, 7 corners , with rotation*
0 The origin of the aperture is its center*
0 number of corners: always 7*
0 $1 to $14 corner X, Y*
0 $15 Rotation angle, in degrees counterclockwise*
0 create outline with 7 corners*
4,1,7,$1,$2,$3,$4,$5,$6,$7,$8,$9,$10,$11,$12,$13,$14,$1,$2,$15*%
%AMOutline8P*
0 Free polygon, 8 corners , with rotation*
0 The origin of the aperture is its center*
0 number of corners: always 8*
0 $1 to $16 corner X, Y*
0 $17 Rotation angle, in degrees counterclockwise*
0 create outline with 8 corners*
4,1,8,$1,$2,$3,$4,$5,$6,$7,$8,$9,$10,$11,$12,$13,$14,$15,$16,$1,$2,$17*%
G04 Aperture macros list end*
%ADD10C,0.010000*%
%ADD11RoundRect,0.250000X-0.450000X0.262500X-0.450000X-0.262500X0.450000X-0.262500X0.450000X0.262500X0*%
%ADD12RoundRect,0.250000X0.475000X-0.337500X0.475000X0.337500X-0.475000X0.337500X-0.475000X-0.337500X0*%
%ADD13RoundRect,0.111250X0.873750X0.333750X-0.873750X0.333750X-0.873750X-0.333750X0.873750X-0.333750X0*%
%ADD14RoundRect,0.246250X0.738750X1.348750X-0.738750X1.348750X-0.738750X-1.348750X0.738750X-1.348750X0*%
%ADD15RoundRect,0.250000X0.262500X0.450000X-0.262500X0.450000X-0.262500X-0.450000X0.262500X-0.450000X0*%
%ADD16RoundRect,0.250000X0.450000X-0.262500X0.450000X0.262500X-0.450000X0.262500X-0.450000X-0.262500X0*%
%ADD17R,2.400000X1.400000*%
%ADD18R,0.800000X0.400000*%
%ADD19R,0.400000X0.800000*%
%ADD20R,1.200000X1.200000*%
%ADD21Outline5P,-0.600000X0.600000X0.600000X0.600000X0.600000X-0.600000X-0.204000X-0.600000X-0.600000X-0.204000X0.000000*%
%ADD22R,0.800000X0.800000*%
%ADD23RoundRect,0.250000X-0.475000X0.250000X-0.475000X-0.250000X0.475000X-0.250000X0.475000X0.250000X0*%
%ADD24RoundRect,0.075000X0.910000X0.225000X-0.910000X0.225000X-0.910000X-0.225000X0.910000X-0.225000X0*%
%ADD25RoundRect,0.250000X-0.262500X-0.450000X0.262500X-0.450000X0.262500X0.450000X-0.262500X0.450000X0*%
G04 APERTURE END LIST*
D10*
%TO.C,Q1*%
X139462500Y-74705000D02*
X137582500Y-74705000D01*
X137582500Y-72825000D01*
X139462500Y-72825000D01*
X139462500Y-74705000D01*
G36*
X139462500Y-74705000D02*
G01*
X137582500Y-74705000D01*
X137582500Y-72825000D01*
X139462500Y-72825000D01*
X139462500Y-74705000D01*
G37*
X139462500Y-77655000D02*
X137582500Y-77655000D01*
X137582500Y-75775000D01*
X139462500Y-75775000D01*
X139462500Y-77655000D01*
G36*
X139462500Y-77655000D02*
G01*
X137582500Y-77655000D01*
X137582500Y-75775000D01*
X139462500Y-75775000D01*
X139462500Y-77655000D01*
G37*
X142412500Y-74705000D02*
X140532500Y-74705000D01*
X140532500Y-72825000D01*
X142412500Y-72825000D01*
X142412500Y-74705000D01*
G36*
X142412500Y-74705000D02*
G01*
X140532500Y-74705000D01*
X140532500Y-72825000D01*
X142412500Y-72825000D01*
X142412500Y-74705000D01*
G37*
X142412500Y-77655000D02*
X140532500Y-77655000D01*
X140532500Y-75775000D01*
X142412500Y-75775000D01*
X142412500Y-77655000D01*
G36*
X142412500Y-77655000D02*
G01*
X140532500Y-77655000D01*
X140532500Y-75775000D01*
X142412500Y-75775000D01*
X142412500Y-77655000D01*
G37*
%TD*%
D11*
%TO.C,R7*%
X117960000Y-77067500D03*
X117960000Y-78892500D03*
%TD*%
D12*
%TO.C,C6*%
X114230000Y-60240000D03*
X114230000Y-58165000D03*
%TD*%
D13*
%TO.C,U4*%
X108340000Y-63810000D03*
X108340000Y-66110000D03*
X108340000Y-68410000D03*
D14*
X102290000Y-66110000D03*
%TD*%
D15*
%TO.C,R16*%
X133580000Y-34600000D03*
X131755000Y-34600000D03*
%TD*%
%TO.C,R8*%
X93012500Y-38500000D03*
X91187500Y-38500000D03*
%TD*%
D12*
%TO.C,C7*%
X117240000Y-60240000D03*
X117240000Y-58165000D03*
%TD*%
D16*
%TO.C,R6*%
X114840000Y-78892500D03*
X114840000Y-77067500D03*
%TD*%
D17*
%TO.C,Q1*%
X146522500Y-72955000D03*
X146522500Y-77525000D03*
%TD*%
D18*
%TO.C,U1*%
X113840000Y-51300000D03*
X113840000Y-50450000D03*
X113840000Y-49600000D03*
X113840000Y-48750000D03*
X113840000Y-47900000D03*
X113840000Y-47050000D03*
X113840000Y-46200000D03*
X113840000Y-45350000D03*
X113840000Y-44500000D03*
X113840000Y-43650000D03*
X113840000Y-42800000D03*
X113840000Y-41950000D03*
X113840000Y-41100000D03*
X113840000Y-40250000D03*
X113840000Y-39400000D03*
D19*
X114890000Y-38350000D03*
X115740000Y-38350000D03*
X116590000Y-38350000D03*
X117440000Y-38350000D03*
X118290000Y-38350000D03*
X119140000Y-38350000D03*
X119990000Y-38350000D03*
X120840000Y-38350000D03*
X121690000Y-38350000D03*
X122540000Y-38350000D03*
X123390000Y-38350000D03*
X124240000Y-38350000D03*
X125090000Y-38350000D03*
X125940000Y-38350000D03*
X126790000Y-38350000D03*
D18*
X127840000Y-39400000D03*
X127840000Y-40250000D03*
X127840000Y-41100000D03*
X127840000Y-41950000D03*
X127840000Y-42800000D03*
X127840000Y-43650000D03*
X127840000Y-44500000D03*
X127840000Y-45350000D03*
X127840000Y-46200000D03*
X127840000Y-47050000D03*
X127840000Y-47900000D03*
X127840000Y-48750000D03*
X127840000Y-49600000D03*
X127840000Y-50450000D03*
X127840000Y-51300000D03*
D19*
X126790000Y-52350000D03*
X125940000Y-52350000D03*
X125090000Y-52350000D03*
X124240000Y-52350000D03*
X123390000Y-52350000D03*
X122540000Y-52350000D03*
X121690000Y-52350000D03*
X120840000Y-52350000D03*
X119990000Y-52350000D03*
X119140000Y-52350000D03*
X118290000Y-52350000D03*
X117440000Y-52350000D03*
X116590000Y-52350000D03*
X115740000Y-52350000D03*
X114890000Y-52350000D03*
D20*
X119190000Y-43700000D03*
X119190000Y-45350000D03*
D21*
X119190000Y-47000000D03*
D20*
X120840000Y-43700000D03*
X120840000Y-45350000D03*
X120840000Y-47000000D03*
X122490000Y-43700000D03*
X122490000Y-45350000D03*
X122490000Y-47000000D03*
D22*
X113840000Y-52350000D03*
X113840000Y-38350000D03*
X127840000Y-38350000D03*
X127840000Y-52350000D03*
%TD*%
D15*
%TO.C,R13*%
X102512500Y-34160000D03*
X100687500Y-34160000D03*
%TD*%
D23*
%TO.C,C15*%
X131760000Y-51480000D03*
X131760000Y-53380000D03*
%TD*%
D16*
%TO.C,R15*%
X110320000Y-83990000D03*
X110320000Y-82165000D03*
%TD*%
D12*
%TO.C,C8*%
X120250000Y-60240000D03*
X120250000Y-58165000D03*
%TD*%
D15*
%TO.C,R12*%
X102512500Y-31210000D03*
X100687500Y-31210000D03*
%TD*%
D12*
%TO.C,C10*%
X126270000Y-60240000D03*
X126270000Y-58165000D03*
%TD*%
D24*
%TO.C,CAN1*%
X111715000Y-26525000D03*
X111715000Y-27795000D03*
X111715000Y-29065000D03*
X111715000Y-30335000D03*
X106775000Y-30335000D03*
X106775000Y-29065000D03*
X106775000Y-27795000D03*
X106775000Y-26525000D03*
%TD*%
D15*
%TO.C,R9*%
X93012500Y-41450000D03*
X91187500Y-41450000D03*
%TD*%
D12*
%TO.C,C9*%
X123260000Y-60240000D03*
X123260000Y-58165000D03*
%TD*%
D25*
%TO.C,R10*%
X106567500Y-21610000D03*
X108392500Y-21610000D03*
%TD*%
D15*
%TO.C,R18*%
X102575000Y-58980000D03*
X100750000Y-58980000D03*
%TD*%
D16*
%TO.C,R14*%
X107370000Y-83990000D03*
X107370000Y-82165000D03*
%TD*%
M02*
