<?xml version="1.0" standalone="no"?>
 <!DOCTYPE svg PUBLIC "-//W3C//DTD SVG 1.1//EN" 
 "http://www.w3.org/Graphics/SVG/1.1/DTD/svg11.dtd"> 
<svg
  xmlns:svg="http://www.w3.org/2000/svg"
  xmlns="http://www.w3.org/2000/svg"
  xmlns:xlink="http://www.w3.org/1999/xlink"
  version="1.1"
  width="297.0022mm" height="210.0072mm" viewBox="0.0000 0.0000 297.0022 210.0072">
<title>SVG Image created as rayman_LCD-B_Paste.svg date 2026/01/05 19:10:42 </title>
  <desc>Image generated by PCBNEW </desc>
<g style="fill:#000000; fill-opacity:1.0000;stroke:#000000; stroke-opacity:1.0000;
stroke-linecap:round; stroke-linejoin:round;"
 transform="translate(0 0) scale(1 1)">
<path style="fill:#000000; fill-opacity:1.0000; 
stroke:#000000; stroke-width:0.0100; stroke-opacity:1; 
stroke-linecap:round; stroke-linejoin:round;fill-rule:evenodd;"
d="M 139.4625,74.7050
137.5825,74.7050
137.5825,72.8250
139.4625,72.8250
Z" /> 
<path style="fill:#000000; fill-opacity:1.0000; 
stroke:#000000; stroke-width:0.0100; stroke-opacity:1; 
stroke-linecap:round; stroke-linejoin:round;fill-rule:evenodd;"
d="M 139.4625,77.6550
137.5825,77.6550
137.5825,75.7750
139.4625,75.7750
Z" /> 
<path style="fill:#000000; fill-opacity:1.0000; 
stroke:#000000; stroke-width:0.0100; stroke-opacity:1; 
stroke-linecap:round; stroke-linejoin:round;fill-rule:evenodd;"
d="M 142.4125,74.7050
140.5325,74.7050
140.5325,72.8250
142.4125,72.8250
Z" /> 
<path style="fill:#000000; fill-opacity:1.0000; 
stroke:#000000; stroke-width:0.0100; stroke-opacity:1; 
stroke-linecap:round; stroke-linejoin:round;fill-rule:evenodd;"
d="M 142.4125,77.6550
140.5325,77.6550
140.5325,75.7750
142.4125,75.7750
Z" /> 
<path style="fill:#000000; fill-opacity:1.0000; stroke:none;fill-rule:evenodd;"
d="M 118.4100,76.5550
118.5057,76.5740
118.5868,76.6282
118.6410,76.7093
118.6600,76.8050
118.6600,77.3300
118.6410,77.4257
118.5868,77.5068
118.5057,77.5610
118.4100,77.5800
117.5100,77.5800
117.4143,77.5610
117.3332,77.5068
117.2790,77.4257
117.2600,77.3300
117.2600,76.8050
117.2790,76.7093
117.3332,76.6282
117.4143,76.5740
117.5100,76.5550
Z" /> 
<path style="fill:#000000; fill-opacity:1.0000; stroke:none;fill-rule:evenodd;"
d="M 118.4100,78.3800
118.5057,78.3990
118.5868,78.4532
118.6410,78.5343
118.6600,78.6300
118.6600,79.1550
118.6410,79.2507
118.5868,79.3318
118.5057,79.3860
118.4100,79.4050
117.5100,79.4050
117.4143,79.3860
117.3332,79.3318
117.2790,79.2507
117.2600,79.1550
117.2600,78.6300
117.2790,78.5343
117.3332,78.4532
117.4143,78.3990
117.5100,78.3800
Z" /> 
<path style="fill:#000000; fill-opacity:1.0000; stroke:none;fill-rule:evenodd;"
d="M 113.7550,60.8275
113.6593,60.8085
113.5782,60.7543
113.5240,60.6732
113.5050,60.5775
113.5050,59.9025
113.5240,59.8068
113.5782,59.7257
113.6593,59.6715
113.7550,59.6525
114.7050,59.6525
114.8007,59.6715
114.8818,59.7257
114.9360,59.8068
114.9550,59.9025
114.9550,60.5775
114.9360,60.6732
114.8818,60.7543
114.8007,60.8085
114.7050,60.8275
Z" /> 
<path style="fill:#000000; fill-opacity:1.0000; stroke:none;fill-rule:evenodd;"
d="M 113.7550,58.7525
113.6593,58.7335
113.5782,58.6793
113.5240,58.5982
113.5050,58.5025
113.5050,57.8275
113.5240,57.7318
113.5782,57.6507
113.6593,57.5965
113.7550,57.5775
114.7050,57.5775
114.8007,57.5965
114.8818,57.6507
114.9360,57.7318
114.9550,57.8275
114.9550,58.5025
114.9360,58.5982
114.8818,58.6793
114.8007,58.7335
114.7050,58.7525
Z" /> 
<path style="fill:#000000; fill-opacity:1.0000; stroke:none;fill-rule:evenodd;"
d="M 109.3250,64.1437
109.3165,64.1863
109.2924,64.2224
109.2563,64.2465
109.2137,64.2550
107.4662,64.2550
107.4237,64.2465
107.3876,64.2224
107.3635,64.1863
107.3550,64.1437
107.3550,63.4763
107.3635,63.4337
107.3876,63.3976
107.4237,63.3735
107.4662,63.3650
109.2137,63.3650
109.2563,63.3735
109.2924,63.3976
109.3165,63.4337
109.3250,63.4763
Z" /> 
<path style="fill:#000000; fill-opacity:1.0000; stroke:none;fill-rule:evenodd;"
d="M 109.3250,66.4437
109.3165,66.4863
109.2924,66.5224
109.2563,66.5465
109.2137,66.5550
107.4662,66.5550
107.4237,66.5465
107.3876,66.5224
107.3635,66.4863
107.3550,66.4437
107.3550,65.7762
107.3635,65.7337
107.3876,65.6976
107.4237,65.6735
107.4662,65.6650
109.2137,65.6650
109.2563,65.6735
109.2924,65.6976
109.3165,65.7337
109.3250,65.7762
Z" /> 
<path style="fill:#000000; fill-opacity:1.0000; stroke:none;fill-rule:evenodd;"
d="M 109.3250,68.7437
109.3165,68.7863
109.2924,68.8224
109.2563,68.8465
109.2137,68.8550
107.4662,68.8550
107.4237,68.8465
107.3876,68.8224
107.3635,68.7863
107.3550,68.7437
107.3550,68.0763
107.3635,68.0337
107.3876,67.9976
107.4237,67.9735
107.4662,67.9650
109.2137,67.9650
109.2563,67.9735
109.2924,67.9976
109.3165,68.0337
109.3250,68.0763
Z" /> 
<path style="fill:#000000; fill-opacity:1.0000; stroke:none;fill-rule:evenodd;"
d="M 103.2750,67.4587
103.2563,67.5530
103.2029,67.6329
103.1230,67.6863
103.0288,67.7050
101.5512,67.7050
101.4570,67.6863
101.3771,67.6329
101.3237,67.5530
101.3050,67.4587
101.3050,64.7613
101.3237,64.6670
101.3771,64.5871
101.4570,64.5337
101.5512,64.5150
103.0288,64.5150
103.1230,64.5337
103.2029,64.5871
103.2563,64.6670
103.2750,64.7613
Z" /> 
<path style="fill:#000000; fill-opacity:1.0000; stroke:none;fill-rule:evenodd;"
d="M 134.0925,35.0500
134.0735,35.1457
134.0193,35.2268
133.9382,35.2810
133.8425,35.3000
133.3175,35.3000
133.2218,35.2810
133.1407,35.2268
133.0865,35.1457
133.0675,35.0500
133.0675,34.1500
133.0865,34.0543
133.1407,33.9732
133.2218,33.9190
133.3175,33.9000
133.8425,33.9000
133.9382,33.9190
134.0193,33.9732
134.0735,34.0543
134.0925,34.1500
Z" /> 
<path style="fill:#000000; fill-opacity:1.0000; stroke:none;fill-rule:evenodd;"
d="M 132.2675,35.0500
132.2485,35.1457
132.1943,35.2268
132.1132,35.2810
132.0175,35.3000
131.4925,35.3000
131.3968,35.2810
131.3157,35.2268
131.2615,35.1457
131.2425,35.0500
131.2425,34.1500
131.2615,34.0543
131.3157,33.9732
131.3968,33.9190
131.4925,33.9000
132.0175,33.9000
132.1132,33.9190
132.1943,33.9732
132.2485,34.0543
132.2675,34.1500
Z" /> 
<path style="fill:#000000; fill-opacity:1.0000; stroke:none;fill-rule:evenodd;"
d="M 93.5250,38.9500
93.5060,39.0457
93.4518,39.1268
93.3707,39.1810
93.2750,39.2000
92.7500,39.2000
92.6543,39.1810
92.5732,39.1268
92.5190,39.0457
92.5000,38.9500
92.5000,38.0500
92.5190,37.9543
92.5732,37.8732
92.6543,37.8190
92.7500,37.8000
93.2750,37.8000
93.3707,37.8190
93.4518,37.8732
93.5060,37.9543
93.5250,38.0500
Z" /> 
<path style="fill:#000000; fill-opacity:1.0000; stroke:none;fill-rule:evenodd;"
d="M 91.7000,38.9500
91.6810,39.0457
91.6268,39.1268
91.5457,39.1810
91.4500,39.2000
90.9250,39.2000
90.8293,39.1810
90.7482,39.1268
90.6940,39.0457
90.6750,38.9500
90.6750,38.0500
90.6940,37.9543
90.7482,37.8732
90.8293,37.8190
90.9250,37.8000
91.4500,37.8000
91.5457,37.8190
91.6268,37.8732
91.6810,37.9543
91.7000,38.0500
Z" /> 
<path style="fill:#000000; fill-opacity:1.0000; stroke:none;fill-rule:evenodd;"
d="M 116.7650,60.8275
116.6693,60.8085
116.5882,60.7543
116.5340,60.6732
116.5150,60.5775
116.5150,59.9025
116.5340,59.8068
116.5882,59.7257
116.6693,59.6715
116.7650,59.6525
117.7150,59.6525
117.8107,59.6715
117.8918,59.7257
117.9460,59.8068
117.9650,59.9025
117.9650,60.5775
117.9460,60.6732
117.8918,60.7543
117.8107,60.8085
117.7150,60.8275
Z" /> 
<path style="fill:#000000; fill-opacity:1.0000; stroke:none;fill-rule:evenodd;"
d="M 116.7650,58.7525
116.6693,58.7335
116.5882,58.6793
116.5340,58.5982
116.5150,58.5025
116.5150,57.8275
116.5340,57.7318
116.5882,57.6507
116.6693,57.5965
116.7650,57.5775
117.7150,57.5775
117.8107,57.5965
117.8918,57.6507
117.9460,57.7318
117.9650,57.8275
117.9650,58.5025
117.9460,58.5982
117.8918,58.6793
117.8107,58.7335
117.7150,58.7525
Z" /> 
<path style="fill:#000000; fill-opacity:1.0000; stroke:none;fill-rule:evenodd;"
d="M 114.3900,79.4050
114.2943,79.3860
114.2132,79.3318
114.1590,79.2507
114.1400,79.1550
114.1400,78.6300
114.1590,78.5343
114.2132,78.4532
114.2943,78.3990
114.3900,78.3800
115.2900,78.3800
115.3857,78.3990
115.4668,78.4532
115.5210,78.5343
115.5400,78.6300
115.5400,79.1550
115.5210,79.2507
115.4668,79.3318
115.3857,79.3860
115.2900,79.4050
Z" /> 
<path style="fill:#000000; fill-opacity:1.0000; stroke:none;fill-rule:evenodd;"
d="M 114.3900,77.5800
114.2943,77.5610
114.2132,77.5068
114.1590,77.4257
114.1400,77.3300
114.1400,76.8050
114.1590,76.7093
114.2132,76.6282
114.2943,76.5740
114.3900,76.5550
115.2900,76.5550
115.3857,76.5740
115.4668,76.6282
115.5210,76.7093
115.5400,76.8050
115.5400,77.3300
115.5210,77.4257
115.4668,77.5068
115.3857,77.5610
115.2900,77.5800
Z" /> 
<path style="fill:#000000; fill-opacity:1.0000; stroke:none;fill-rule:evenodd;"
d="M 147.7225,72.2550
147.7225,73.6550
145.3225,73.6550
145.3225,72.2550
Z" /> 
<path style="fill:#000000; fill-opacity:1.0000; stroke:none;fill-rule:evenodd;"
d="M 147.7225,76.8250
147.7225,78.2250
145.3225,78.2250
145.3225,76.8250
Z" /> 
<path style="fill:#000000; fill-opacity:1.0000; stroke:none;fill-rule:evenodd;"
d="M 113.4400,51.5000
113.4400,51.1000
114.2400,51.1000
114.2400,51.5000
Z" /> 
<path style="fill:#000000; fill-opacity:1.0000; stroke:none;fill-rule:evenodd;"
d="M 113.4400,50.6500
113.4400,50.2500
114.2400,50.2500
114.2400,50.6500
Z" /> 
<path style="fill:#000000; fill-opacity:1.0000; stroke:none;fill-rule:evenodd;"
d="M 113.4400,49.8000
113.4400,49.4000
114.2400,49.4000
114.2400,49.8000
Z" /> 
<path style="fill:#000000; fill-opacity:1.0000; stroke:none;fill-rule:evenodd;"
d="M 113.4400,48.9500
113.4400,48.5500
114.2400,48.5500
114.2400,48.9500
Z" /> 
<path style="fill:#000000; fill-opacity:1.0000; stroke:none;fill-rule:evenodd;"
d="M 113.4400,48.1000
113.4400,47.7000
114.2400,47.7000
114.2400,48.1000
Z" /> 
<path style="fill:#000000; fill-opacity:1.0000; stroke:none;fill-rule:evenodd;"
d="M 113.4400,47.2500
113.4400,46.8500
114.2400,46.8500
114.2400,47.2500
Z" /> 
<path style="fill:#000000; fill-opacity:1.0000; stroke:none;fill-rule:evenodd;"
d="M 113.4400,46.4000
113.4400,46.0000
114.2400,46.0000
114.2400,46.4000
Z" /> 
<path style="fill:#000000; fill-opacity:1.0000; stroke:none;fill-rule:evenodd;"
d="M 113.4400,45.5500
113.4400,45.1500
114.2400,45.1500
114.2400,45.5500
Z" /> 
<path style="fill:#000000; fill-opacity:1.0000; stroke:none;fill-rule:evenodd;"
d="M 113.4400,44.7000
113.4400,44.3000
114.2400,44.3000
114.2400,44.7000
Z" /> 
<path style="fill:#000000; fill-opacity:1.0000; stroke:none;fill-rule:evenodd;"
d="M 113.4400,43.8500
113.4400,43.4500
114.2400,43.4500
114.2400,43.8500
Z" /> 
<path style="fill:#000000; fill-opacity:1.0000; stroke:none;fill-rule:evenodd;"
d="M 113.4400,43.0000
113.4400,42.6000
114.2400,42.6000
114.2400,43.0000
Z" /> 
<path style="fill:#000000; fill-opacity:1.0000; stroke:none;fill-rule:evenodd;"
d="M 113.4400,42.1500
113.4400,41.7500
114.2400,41.7500
114.2400,42.1500
Z" /> 
<path style="fill:#000000; fill-opacity:1.0000; stroke:none;fill-rule:evenodd;"
d="M 113.4400,41.3000
113.4400,40.9000
114.2400,40.9000
114.2400,41.3000
Z" /> 
<path style="fill:#000000; fill-opacity:1.0000; stroke:none;fill-rule:evenodd;"
d="M 113.4400,40.4500
113.4400,40.0500
114.2400,40.0500
114.2400,40.4500
Z" /> 
<path style="fill:#000000; fill-opacity:1.0000; stroke:none;fill-rule:evenodd;"
d="M 113.4400,39.6000
113.4400,39.2000
114.2400,39.2000
114.2400,39.6000
Z" /> 
<path style="fill:#000000; fill-opacity:1.0000; stroke:none;fill-rule:evenodd;"
d="M 114.6900,37.9500
115.0900,37.9500
115.0900,38.7500
114.6900,38.7500
Z" /> 
<path style="fill:#000000; fill-opacity:1.0000; stroke:none;fill-rule:evenodd;"
d="M 115.5400,37.9500
115.9400,37.9500
115.9400,38.7500
115.5400,38.7500
Z" /> 
<path style="fill:#000000; fill-opacity:1.0000; stroke:none;fill-rule:evenodd;"
d="M 116.3900,37.9500
116.7900,37.9500
116.7900,38.7500
116.3900,38.7500
Z" /> 
<path style="fill:#000000; fill-opacity:1.0000; stroke:none;fill-rule:evenodd;"
d="M 117.2400,37.9500
117.6400,37.9500
117.6400,38.7500
117.2400,38.7500
Z" /> 
<path style="fill:#000000; fill-opacity:1.0000; stroke:none;fill-rule:evenodd;"
d="M 118.0900,37.9500
118.4900,37.9500
118.4900,38.7500
118.0900,38.7500
Z" /> 
<path style="fill:#000000; fill-opacity:1.0000; stroke:none;fill-rule:evenodd;"
d="M 118.9400,37.9500
119.3400,37.9500
119.3400,38.7500
118.9400,38.7500
Z" /> 
<path style="fill:#000000; fill-opacity:1.0000; stroke:none;fill-rule:evenodd;"
d="M 119.7900,37.9500
120.1900,37.9500
120.1900,38.7500
119.7900,38.7500
Z" /> 
<path style="fill:#000000; fill-opacity:1.0000; stroke:none;fill-rule:evenodd;"
d="M 120.6400,37.9500
121.0400,37.9500
121.0400,38.7500
120.6400,38.7500
Z" /> 
<path style="fill:#000000; fill-opacity:1.0000; stroke:none;fill-rule:evenodd;"
d="M 121.4900,37.9500
121.8900,37.9500
121.8900,38.7500
121.4900,38.7500
Z" /> 
<path style="fill:#000000; fill-opacity:1.0000; stroke:none;fill-rule:evenodd;"
d="M 122.3400,37.9500
122.7400,37.9500
122.7400,38.7500
122.3400,38.7500
Z" /> 
<path style="fill:#000000; fill-opacity:1.0000; stroke:none;fill-rule:evenodd;"
d="M 123.1900,37.9500
123.5900,37.9500
123.5900,38.7500
123.1900,38.7500
Z" /> 
<path style="fill:#000000; fill-opacity:1.0000; stroke:none;fill-rule:evenodd;"
d="M 124.0400,37.9500
124.4400,37.9500
124.4400,38.7500
124.0400,38.7500
Z" /> 
<path style="fill:#000000; fill-opacity:1.0000; stroke:none;fill-rule:evenodd;"
d="M 124.8900,37.9500
125.2900,37.9500
125.2900,38.7500
124.8900,38.7500
Z" /> 
<path style="fill:#000000; fill-opacity:1.0000; stroke:none;fill-rule:evenodd;"
d="M 125.7400,37.9500
126.1400,37.9500
126.1400,38.7500
125.7400,38.7500
Z" /> 
<path style="fill:#000000; fill-opacity:1.0000; stroke:none;fill-rule:evenodd;"
d="M 126.5900,37.9500
126.9900,37.9500
126.9900,38.7500
126.5900,38.7500
Z" /> 
<path style="fill:#000000; fill-opacity:1.0000; stroke:none;fill-rule:evenodd;"
d="M 127.4400,39.6000
127.4400,39.2000
128.2400,39.2000
128.2400,39.6000
Z" /> 
<path style="fill:#000000; fill-opacity:1.0000; stroke:none;fill-rule:evenodd;"
d="M 127.4400,40.4500
127.4400,40.0500
128.2400,40.0500
128.2400,40.4500
Z" /> 
<path style="fill:#000000; fill-opacity:1.0000; stroke:none;fill-rule:evenodd;"
d="M 127.4400,41.3000
127.4400,40.9000
128.2400,40.9000
128.2400,41.3000
Z" /> 
<path style="fill:#000000; fill-opacity:1.0000; stroke:none;fill-rule:evenodd;"
d="M 127.4400,42.1500
127.4400,41.7500
128.2400,41.7500
128.2400,42.1500
Z" /> 
<path style="fill:#000000; fill-opacity:1.0000; stroke:none;fill-rule:evenodd;"
d="M 127.4400,43.0000
127.4400,42.6000
128.2400,42.6000
128.2400,43.0000
Z" /> 
<path style="fill:#000000; fill-opacity:1.0000; stroke:none;fill-rule:evenodd;"
d="M 127.4400,43.8500
127.4400,43.4500
128.2400,43.4500
128.2400,43.8500
Z" /> 
<path style="fill:#000000; fill-opacity:1.0000; stroke:none;fill-rule:evenodd;"
d="M 127.4400,44.7000
127.4400,44.3000
128.2400,44.3000
128.2400,44.7000
Z" /> 
<path style="fill:#000000; fill-opacity:1.0000; stroke:none;fill-rule:evenodd;"
d="M 127.4400,45.5500
127.4400,45.1500
128.2400,45.1500
128.2400,45.5500
Z" /> 
<path style="fill:#000000; fill-opacity:1.0000; stroke:none;fill-rule:evenodd;"
d="M 127.4400,46.4000
127.4400,46.0000
128.2400,46.0000
128.2400,46.4000
Z" /> 
<path style="fill:#000000; fill-opacity:1.0000; stroke:none;fill-rule:evenodd;"
d="M 127.4400,47.2500
127.4400,46.8500
128.2400,46.8500
128.2400,47.2500
Z" /> 
<path style="fill:#000000; fill-opacity:1.0000; stroke:none;fill-rule:evenodd;"
d="M 127.4400,48.1000
127.4400,47.7000
128.2400,47.7000
128.2400,48.1000
Z" /> 
<path style="fill:#000000; fill-opacity:1.0000; stroke:none;fill-rule:evenodd;"
d="M 127.4400,48.9500
127.4400,48.5500
128.2400,48.5500
128.2400,48.9500
Z" /> 
<path style="fill:#000000; fill-opacity:1.0000; stroke:none;fill-rule:evenodd;"
d="M 127.4400,49.8000
127.4400,49.4000
128.2400,49.4000
128.2400,49.8000
Z" /> 
<path style="fill:#000000; fill-opacity:1.0000; stroke:none;fill-rule:evenodd;"
d="M 127.4400,50.6500
127.4400,50.2500
128.2400,50.2500
128.2400,50.6500
Z" /> 
<path style="fill:#000000; fill-opacity:1.0000; stroke:none;fill-rule:evenodd;"
d="M 127.4400,51.5000
127.4400,51.1000
128.2400,51.1000
128.2400,51.5000
Z" /> 
<path style="fill:#000000; fill-opacity:1.0000; stroke:none;fill-rule:evenodd;"
d="M 126.5900,51.9500
126.9900,51.9500
126.9900,52.7500
126.5900,52.7500
Z" /> 
<path style="fill:#000000; fill-opacity:1.0000; stroke:none;fill-rule:evenodd;"
d="M 125.7400,51.9500
126.1400,51.9500
126.1400,52.7500
125.7400,52.7500
Z" /> 
<path style="fill:#000000; fill-opacity:1.0000; stroke:none;fill-rule:evenodd;"
d="M 124.8900,51.9500
125.2900,51.9500
125.2900,52.7500
124.8900,52.7500
Z" /> 
<path style="fill:#000000; fill-opacity:1.0000; stroke:none;fill-rule:evenodd;"
d="M 124.0400,51.9500
124.4400,51.9500
124.4400,52.7500
124.0400,52.7500
Z" /> 
<path style="fill:#000000; fill-opacity:1.0000; stroke:none;fill-rule:evenodd;"
d="M 123.1900,51.9500
123.5900,51.9500
123.5900,52.7500
123.1900,52.7500
Z" /> 
<path style="fill:#000000; fill-opacity:1.0000; stroke:none;fill-rule:evenodd;"
d="M 122.3400,51.9500
122.7400,51.9500
122.7400,52.7500
122.3400,52.7500
Z" /> 
<path style="fill:#000000; fill-opacity:1.0000; stroke:none;fill-rule:evenodd;"
d="M 121.4900,51.9500
121.8900,51.9500
121.8900,52.7500
121.4900,52.7500
Z" /> 
<path style="fill:#000000; fill-opacity:1.0000; stroke:none;fill-rule:evenodd;"
d="M 120.6400,51.9500
121.0400,51.9500
121.0400,52.7500
120.6400,52.7500
Z" /> 
<path style="fill:#000000; fill-opacity:1.0000; stroke:none;fill-rule:evenodd;"
d="M 119.7900,51.9500
120.1900,51.9500
120.1900,52.7500
119.7900,52.7500
Z" /> 
<path style="fill:#000000; fill-opacity:1.0000; stroke:none;fill-rule:evenodd;"
d="M 118.9400,51.9500
119.3400,51.9500
119.3400,52.7500
118.9400,52.7500
Z" /> 
<path style="fill:#000000; fill-opacity:1.0000; stroke:none;fill-rule:evenodd;"
d="M 118.0900,51.9500
118.4900,51.9500
118.4900,52.7500
118.0900,52.7500
Z" /> 
<path style="fill:#000000; fill-opacity:1.0000; stroke:none;fill-rule:evenodd;"
d="M 117.2400,51.9500
117.6400,51.9500
117.6400,52.7500
117.2400,52.7500
Z" /> 
<path style="fill:#000000; fill-opacity:1.0000; stroke:none;fill-rule:evenodd;"
d="M 116.3900,51.9500
116.7900,51.9500
116.7900,52.7500
116.3900,52.7500
Z" /> 
<path style="fill:#000000; fill-opacity:1.0000; stroke:none;fill-rule:evenodd;"
d="M 115.5400,51.9500
115.9400,51.9500
115.9400,52.7500
115.5400,52.7500
Z" /> 
<path style="fill:#000000; fill-opacity:1.0000; stroke:none;fill-rule:evenodd;"
d="M 114.6900,51.9500
115.0900,51.9500
115.0900,52.7500
114.6900,52.7500
Z" /> 
<path style="fill:#000000; fill-opacity:1.0000; stroke:none;fill-rule:evenodd;"
d="M 118.5900,44.3000
118.5900,43.1000
119.7900,43.1000
119.7900,44.3000
Z" /> 
<path style="fill:#000000; fill-opacity:1.0000; stroke:none;fill-rule:evenodd;"
d="M 118.5900,45.9500
118.5900,44.7500
119.7900,44.7500
119.7900,45.9500
Z" /> 
<path style="fill:#000000; fill-opacity:1.0000; stroke:none;fill-rule:evenodd;"
d="M 118.5900,46.4000
119.7900,46.4000
119.7900,47.6000
118.9860,47.6000
118.5900,47.2040
Z" /> 
<path style="fill:#000000; fill-opacity:1.0000; stroke:none;fill-rule:evenodd;"
d="M 120.2400,44.3000
120.2400,43.1000
121.4400,43.1000
121.4400,44.3000
Z" /> 
<path style="fill:#000000; fill-opacity:1.0000; stroke:none;fill-rule:evenodd;"
d="M 120.2400,45.9500
120.2400,44.7500
121.4400,44.7500
121.4400,45.9500
Z" /> 
<path style="fill:#000000; fill-opacity:1.0000; stroke:none;fill-rule:evenodd;"
d="M 120.2400,47.6000
120.2400,46.4000
121.4400,46.4000
121.4400,47.6000
Z" /> 
<path style="fill:#000000; fill-opacity:1.0000; stroke:none;fill-rule:evenodd;"
d="M 121.8900,44.3000
121.8900,43.1000
123.0900,43.1000
123.0900,44.3000
Z" /> 
<path style="fill:#000000; fill-opacity:1.0000; stroke:none;fill-rule:evenodd;"
d="M 121.8900,45.9500
121.8900,44.7500
123.0900,44.7500
123.0900,45.9500
Z" /> 
<path style="fill:#000000; fill-opacity:1.0000; stroke:none;fill-rule:evenodd;"
d="M 121.8900,47.6000
121.8900,46.4000
123.0900,46.4000
123.0900,47.6000
Z" /> 
<path style="fill:#000000; fill-opacity:1.0000; stroke:none;fill-rule:evenodd;"
d="M 113.4400,52.7500
113.4400,51.9500
114.2400,51.9500
114.2400,52.7500
Z" /> 
<path style="fill:#000000; fill-opacity:1.0000; stroke:none;fill-rule:evenodd;"
d="M 113.4400,38.7500
113.4400,37.9500
114.2400,37.9500
114.2400,38.7500
Z" /> 
<path style="fill:#000000; fill-opacity:1.0000; stroke:none;fill-rule:evenodd;"
d="M 127.4400,38.7500
127.4400,37.9500
128.2400,37.9500
128.2400,38.7500
Z" /> 
<path style="fill:#000000; fill-opacity:1.0000; stroke:none;fill-rule:evenodd;"
d="M 127.4400,52.7500
127.4400,51.9500
128.2400,51.9500
128.2400,52.7500
Z" /> 
<path style="fill:#000000; fill-opacity:1.0000; stroke:none;fill-rule:evenodd;"
d="M 103.0250,34.6100
103.0060,34.7057
102.9518,34.7868
102.8707,34.8410
102.7750,34.8600
102.2500,34.8600
102.1543,34.8410
102.0732,34.7868
102.0190,34.7057
102.0000,34.6100
102.0000,33.7100
102.0190,33.6143
102.0732,33.5332
102.1543,33.4790
102.2500,33.4600
102.7750,33.4600
102.8707,33.4790
102.9518,33.5332
103.0060,33.6143
103.0250,33.7100
Z" /> 
<path style="fill:#000000; fill-opacity:1.0000; stroke:none;fill-rule:evenodd;"
d="M 101.2000,34.6100
101.1810,34.7057
101.1268,34.7868
101.0457,34.8410
100.9500,34.8600
100.4250,34.8600
100.3293,34.8410
100.2482,34.7868
100.1940,34.7057
100.1750,34.6100
100.1750,33.7100
100.1940,33.6143
100.2482,33.5332
100.3293,33.4790
100.4250,33.4600
100.9500,33.4600
101.0457,33.4790
101.1268,33.5332
101.1810,33.6143
101.2000,33.7100
Z" /> 
<path style="fill:#000000; fill-opacity:1.0000; stroke:none;fill-rule:evenodd;"
d="M 132.2350,50.9800
132.3307,50.9990
132.4118,51.0532
132.4660,51.1343
132.4850,51.2300
132.4850,51.7300
132.4660,51.8257
132.4118,51.9068
132.3307,51.9610
132.2350,51.9800
131.2850,51.9800
131.1893,51.9610
131.1082,51.9068
131.0540,51.8257
131.0350,51.7300
131.0350,51.2300
131.0540,51.1343
131.1082,51.0532
131.1893,50.9990
131.2850,50.9800
Z" /> 
<path style="fill:#000000; fill-opacity:1.0000; stroke:none;fill-rule:evenodd;"
d="M 132.2350,52.8800
132.3307,52.8990
132.4118,52.9532
132.4660,53.0343
132.4850,53.1300
132.4850,53.6300
132.4660,53.7257
132.4118,53.8068
132.3307,53.8610
132.2350,53.8800
131.2850,53.8800
131.1893,53.8610
131.1082,53.8068
131.0540,53.7257
131.0350,53.6300
131.0350,53.1300
131.0540,53.0343
131.1082,52.9532
131.1893,52.8990
131.2850,52.8800
Z" /> 
<path style="fill:#000000; fill-opacity:1.0000; stroke:none;fill-rule:evenodd;"
d="M 109.8700,84.5025
109.7743,84.4835
109.6932,84.4293
109.6390,84.3482
109.6200,84.2525
109.6200,83.7275
109.6390,83.6318
109.6932,83.5507
109.7743,83.4965
109.8700,83.4775
110.7700,83.4775
110.8657,83.4965
110.9468,83.5507
111.0010,83.6318
111.0200,83.7275
111.0200,84.2525
111.0010,84.3482
110.9468,84.4293
110.8657,84.4835
110.7700,84.5025
Z" /> 
<path style="fill:#000000; fill-opacity:1.0000; stroke:none;fill-rule:evenodd;"
d="M 109.8700,82.6775
109.7743,82.6585
109.6932,82.6043
109.6390,82.5232
109.6200,82.4275
109.6200,81.9025
109.6390,81.8068
109.6932,81.7257
109.7743,81.6715
109.8700,81.6525
110.7700,81.6525
110.8657,81.6715
110.9468,81.7257
111.0010,81.8068
111.0200,81.9025
111.0200,82.4275
111.0010,82.5232
110.9468,82.6043
110.8657,82.6585
110.7700,82.6775
Z" /> 
<path style="fill:#000000; fill-opacity:1.0000; stroke:none;fill-rule:evenodd;"
d="M 119.7750,60.8275
119.6793,60.8085
119.5982,60.7543
119.5440,60.6732
119.5250,60.5775
119.5250,59.9025
119.5440,59.8068
119.5982,59.7257
119.6793,59.6715
119.7750,59.6525
120.7250,59.6525
120.8207,59.6715
120.9018,59.7257
120.9560,59.8068
120.9750,59.9025
120.9750,60.5775
120.9560,60.6732
120.9018,60.7543
120.8207,60.8085
120.7250,60.8275
Z" /> 
<path style="fill:#000000; fill-opacity:1.0000; stroke:none;fill-rule:evenodd;"
d="M 119.7750,58.7525
119.6793,58.7335
119.5982,58.6793
119.5440,58.5982
119.5250,58.5025
119.5250,57.8275
119.5440,57.7318
119.5982,57.6507
119.6793,57.5965
119.7750,57.5775
120.7250,57.5775
120.8207,57.5965
120.9018,57.6507
120.9560,57.7318
120.9750,57.8275
120.9750,58.5025
120.9560,58.5982
120.9018,58.6793
120.8207,58.7335
120.7250,58.7525
Z" /> 
<path style="fill:#000000; fill-opacity:1.0000; stroke:none;fill-rule:evenodd;"
d="M 103.0250,31.6600
103.0060,31.7557
102.9518,31.8368
102.8707,31.8910
102.7750,31.9100
102.2500,31.9100
102.1543,31.8910
102.0732,31.8368
102.0190,31.7557
102.0000,31.6600
102.0000,30.7600
102.0190,30.6643
102.0732,30.5832
102.1543,30.5290
102.2500,30.5100
102.7750,30.5100
102.8707,30.5290
102.9518,30.5832
103.0060,30.6643
103.0250,30.7600
Z" /> 
<path style="fill:#000000; fill-opacity:1.0000; stroke:none;fill-rule:evenodd;"
d="M 101.2000,31.6600
101.1810,31.7557
101.1268,31.8368
101.0457,31.8910
100.9500,31.9100
100.4250,31.9100
100.3293,31.8910
100.2482,31.8368
100.1940,31.7557
100.1750,31.6600
100.1750,30.7600
100.1940,30.6643
100.2482,30.5832
100.3293,30.5290
100.4250,30.5100
100.9500,30.5100
101.0457,30.5290
101.1268,30.5832
101.1810,30.6643
101.2000,30.7600
Z" /> 
<path style="fill:#000000; fill-opacity:1.0000; stroke:none;fill-rule:evenodd;"
d="M 125.7950,60.8275
125.6993,60.8085
125.6182,60.7543
125.5640,60.6732
125.5450,60.5775
125.5450,59.9025
125.5640,59.8068
125.6182,59.7257
125.6993,59.6715
125.7950,59.6525
126.7450,59.6525
126.8407,59.6715
126.9218,59.7257
126.9760,59.8068
126.9950,59.9025
126.9950,60.5775
126.9760,60.6732
126.9218,60.7543
126.8407,60.8085
126.7450,60.8275
Z" /> 
<path style="fill:#000000; fill-opacity:1.0000; stroke:none;fill-rule:evenodd;"
d="M 125.7950,58.7525
125.6993,58.7335
125.6182,58.6793
125.5640,58.5982
125.5450,58.5025
125.5450,57.8275
125.5640,57.7318
125.6182,57.6507
125.6993,57.5965
125.7950,57.5775
126.7450,57.5775
126.8407,57.5965
126.9218,57.6507
126.9760,57.7318
126.9950,57.8275
126.9950,58.5025
126.9760,58.5982
126.9218,58.6793
126.8407,58.7335
126.7450,58.7525
Z" /> 
<path style="fill:#000000; fill-opacity:1.0000; stroke:none;fill-rule:evenodd;"
d="M 112.7000,26.7500
112.6943,26.7787
112.6780,26.8030
112.6537,26.8193
112.6250,26.8250
110.8050,26.8250
110.7763,26.8193
110.7520,26.8030
110.7357,26.7787
110.7300,26.7500
110.7300,26.3000
110.7357,26.2713
110.7520,26.2470
110.7763,26.2307
110.8050,26.2250
112.6250,26.2250
112.6537,26.2307
112.6780,26.2470
112.6943,26.2713
112.7000,26.3000
Z" /> 
<path style="fill:#000000; fill-opacity:1.0000; stroke:none;fill-rule:evenodd;"
d="M 112.7000,28.0200
112.6943,28.0487
112.6780,28.0730
112.6537,28.0893
112.6250,28.0950
110.8050,28.0950
110.7763,28.0893
110.7520,28.0730
110.7357,28.0487
110.7300,28.0200
110.7300,27.5700
110.7357,27.5413
110.7520,27.5170
110.7763,27.5007
110.8050,27.4950
112.6250,27.4950
112.6537,27.5007
112.6780,27.5170
112.6943,27.5413
112.7000,27.5700
Z" /> 
<path style="fill:#000000; fill-opacity:1.0000; stroke:none;fill-rule:evenodd;"
d="M 112.7000,29.2900
112.6943,29.3187
112.6780,29.3430
112.6537,29.3593
112.6250,29.3650
110.8050,29.3650
110.7763,29.3593
110.7520,29.3430
110.7357,29.3187
110.7300,29.2900
110.7300,28.8400
110.7357,28.8113
110.7520,28.7870
110.7763,28.7707
110.8050,28.7650
112.6250,28.7650
112.6537,28.7707
112.6780,28.7870
112.6943,28.8113
112.7000,28.8400
Z" /> 
<path style="fill:#000000; fill-opacity:1.0000; stroke:none;fill-rule:evenodd;"
d="M 112.7000,30.5600
112.6943,30.5887
112.6780,30.6130
112.6537,30.6293
112.6250,30.6350
110.8050,30.6350
110.7763,30.6293
110.7520,30.6130
110.7357,30.5887
110.7300,30.5600
110.7300,30.1100
110.7357,30.0813
110.7520,30.0570
110.7763,30.0407
110.8050,30.0350
112.6250,30.0350
112.6537,30.0407
112.6780,30.0570
112.6943,30.0813
112.7000,30.1100
Z" /> 
<path style="fill:#000000; fill-opacity:1.0000; stroke:none;fill-rule:evenodd;"
d="M 107.7600,30.5600
107.7543,30.5887
107.7380,30.6130
107.7137,30.6293
107.6850,30.6350
105.8650,30.6350
105.8363,30.6293
105.8120,30.6130
105.7957,30.5887
105.7900,30.5600
105.7900,30.1100
105.7957,30.0813
105.8120,30.0570
105.8363,30.0407
105.8650,30.0350
107.6850,30.0350
107.7137,30.0407
107.7380,30.0570
107.7543,30.0813
107.7600,30.1100
Z" /> 
<path style="fill:#000000; fill-opacity:1.0000; stroke:none;fill-rule:evenodd;"
d="M 107.7600,29.2900
107.7543,29.3187
107.7380,29.3430
107.7137,29.3593
107.6850,29.3650
105.8650,29.3650
105.8363,29.3593
105.8120,29.3430
105.7957,29.3187
105.7900,29.2900
105.7900,28.8400
105.7957,28.8113
105.8120,28.7870
105.8363,28.7707
105.8650,28.7650
107.6850,28.7650
107.7137,28.7707
107.7380,28.7870
107.7543,28.8113
107.7600,28.8400
Z" /> 
<path style="fill:#000000; fill-opacity:1.0000; stroke:none;fill-rule:evenodd;"
d="M 107.7600,28.0200
107.7543,28.0487
107.7380,28.0730
107.7137,28.0893
107.6850,28.0950
105.8650,28.0950
105.8363,28.0893
105.8120,28.0730
105.7957,28.0487
105.7900,28.0200
105.7900,27.5700
105.7957,27.5413
105.8120,27.5170
105.8363,27.5007
105.8650,27.4950
107.6850,27.4950
107.7137,27.5007
107.7380,27.5170
107.7543,27.5413
107.7600,27.5700
Z" /> 
<path style="fill:#000000; fill-opacity:1.0000; stroke:none;fill-rule:evenodd;"
d="M 107.7600,26.7500
107.7543,26.7787
107.7380,26.8030
107.7137,26.8193
107.6850,26.8250
105.8650,26.8250
105.8363,26.8193
105.8120,26.8030
105.7957,26.7787
105.7900,26.7500
105.7900,26.3000
105.7957,26.2713
105.8120,26.2470
105.8363,26.2307
105.8650,26.2250
107.6850,26.2250
107.7137,26.2307
107.7380,26.2470
107.7543,26.2713
107.7600,26.3000
Z" /> 
<path style="fill:#000000; fill-opacity:1.0000; stroke:none;fill-rule:evenodd;"
d="M 93.5250,41.9000
93.5060,41.9957
93.4518,42.0768
93.3707,42.1310
93.2750,42.1500
92.7500,42.1500
92.6543,42.1310
92.5732,42.0768
92.5190,41.9957
92.5000,41.9000
92.5000,41.0000
92.5190,40.9043
92.5732,40.8232
92.6543,40.7690
92.7500,40.7500
93.2750,40.7500
93.3707,40.7690
93.4518,40.8232
93.5060,40.9043
93.5250,41.0000
Z" /> 
<path style="fill:#000000; fill-opacity:1.0000; stroke:none;fill-rule:evenodd;"
d="M 91.7000,41.9000
91.6810,41.9957
91.6268,42.0768
91.5457,42.1310
91.4500,42.1500
90.9250,42.1500
90.8293,42.1310
90.7482,42.0768
90.6940,41.9957
90.6750,41.9000
90.6750,41.0000
90.6940,40.9043
90.7482,40.8232
90.8293,40.7690
90.9250,40.7500
91.4500,40.7500
91.5457,40.7690
91.6268,40.8232
91.6810,40.9043
91.7000,41.0000
Z" /> 
<path style="fill:#000000; fill-opacity:1.0000; stroke:none;fill-rule:evenodd;"
d="M 122.7850,60.8275
122.6893,60.8085
122.6082,60.7543
122.5540,60.6732
122.5350,60.5775
122.5350,59.9025
122.5540,59.8068
122.6082,59.7257
122.6893,59.6715
122.7850,59.6525
123.7350,59.6525
123.8307,59.6715
123.9118,59.7257
123.9660,59.8068
123.9850,59.9025
123.9850,60.5775
123.9660,60.6732
123.9118,60.7543
123.8307,60.8085
123.7350,60.8275
Z" /> 
<path style="fill:#000000; fill-opacity:1.0000; stroke:none;fill-rule:evenodd;"
d="M 122.7850,58.7525
122.6893,58.7335
122.6082,58.6793
122.5540,58.5982
122.5350,58.5025
122.5350,57.8275
122.5540,57.7318
122.6082,57.6507
122.6893,57.5965
122.7850,57.5775
123.7350,57.5775
123.8307,57.5965
123.9118,57.6507
123.9660,57.7318
123.9850,57.8275
123.9850,58.5025
123.9660,58.5982
123.9118,58.6793
123.8307,58.7335
123.7350,58.7525
Z" /> 
<path style="fill:#000000; fill-opacity:1.0000; stroke:none;fill-rule:evenodd;"
d="M 106.0550,21.1600
106.0740,21.0643
106.1282,20.9832
106.2093,20.9290
106.3050,20.9100
106.8300,20.9100
106.9257,20.9290
107.0068,20.9832
107.0610,21.0643
107.0800,21.1600
107.0800,22.0600
107.0610,22.1557
107.0068,22.2368
106.9257,22.2910
106.8300,22.3100
106.3050,22.3100
106.2093,22.2910
106.1282,22.2368
106.0740,22.1557
106.0550,22.0600
Z" /> 
<path style="fill:#000000; fill-opacity:1.0000; stroke:none;fill-rule:evenodd;"
d="M 107.8800,21.1600
107.8990,21.0643
107.9532,20.9832
108.0343,20.9290
108.1300,20.9100
108.6550,20.9100
108.7507,20.9290
108.8318,20.9832
108.8860,21.0643
108.9050,21.1600
108.9050,22.0600
108.8860,22.1557
108.8318,22.2368
108.7507,22.2910
108.6550,22.3100
108.1300,22.3100
108.0343,22.2910
107.9532,22.2368
107.8990,22.1557
107.8800,22.0600
Z" /> 
<path style="fill:#000000; fill-opacity:1.0000; stroke:none;fill-rule:evenodd;"
d="M 103.0875,59.4300
103.0685,59.5257
103.0143,59.6068
102.9332,59.6610
102.8375,59.6800
102.3125,59.6800
102.2168,59.6610
102.1357,59.6068
102.0815,59.5257
102.0625,59.4300
102.0625,58.5300
102.0815,58.4343
102.1357,58.3532
102.2168,58.2990
102.3125,58.2800
102.8375,58.2800
102.9332,58.2990
103.0143,58.3532
103.0685,58.4343
103.0875,58.5300
Z" /> 
<path style="fill:#000000; fill-opacity:1.0000; stroke:none;fill-rule:evenodd;"
d="M 101.2625,59.4300
101.2435,59.5257
101.1893,59.6068
101.1082,59.6610
101.0125,59.6800
100.4875,59.6800
100.3918,59.6610
100.3107,59.6068
100.2565,59.5257
100.2375,59.4300
100.2375,58.5300
100.2565,58.4343
100.3107,58.3532
100.3918,58.2990
100.4875,58.2800
101.0125,58.2800
101.1082,58.2990
101.1893,58.3532
101.2435,58.4343
101.2625,58.5300
Z" /> 
<path style="fill:#000000; fill-opacity:1.0000; stroke:none;fill-rule:evenodd;"
d="M 106.9200,84.5025
106.8243,84.4835
106.7432,84.4293
106.6890,84.3482
106.6700,84.2525
106.6700,83.7275
106.6890,83.6318
106.7432,83.5507
106.8243,83.4965
106.9200,83.4775
107.8200,83.4775
107.9157,83.4965
107.9968,83.5507
108.0510,83.6318
108.0700,83.7275
108.0700,84.2525
108.0510,84.3482
107.9968,84.4293
107.9157,84.4835
107.8200,84.5025
Z" /> 
<path style="fill:#000000; fill-opacity:1.0000; stroke:none;fill-rule:evenodd;"
d="M 106.9200,82.6775
106.8243,82.6585
106.7432,82.6043
106.6890,82.5232
106.6700,82.4275
106.6700,81.9025
106.6890,81.8068
106.7432,81.7257
106.8243,81.6715
106.9200,81.6525
107.8200,81.6525
107.9157,81.6715
107.9968,81.7257
108.0510,81.8068
108.0700,81.9025
108.0700,82.4275
108.0510,82.5232
107.9968,82.6043
107.9157,82.6585
107.8200,82.6775
Z" /> 
</g> 
</svg>
