<?xml version="1.0" standalone="no"?>
 <!DOCTYPE svg PUBLIC "-//W3C//DTD SVG 1.1//EN" 
 "http://www.w3.org/Graphics/SVG/1.1/DTD/svg11.dtd"> 
<svg
  xmlns:svg="http://www.w3.org/2000/svg"
  xmlns="http://www.w3.org/2000/svg"
  xmlns:xlink="http://www.w3.org/1999/xlink"
  version="1.1"
  width="297.0022mm" height="210.0072mm" viewBox="0.0000 0.0000 297.0022 210.0072">
<title>SVG Image created as rayman_LCD-F_Paste.svg date 2026/01/05 19:10:42 </title>
  <desc>Image generated by PCBNEW </desc>
<g style="fill:#000000; fill-opacity:1.0000;stroke:#000000; stroke-opacity:1.0000;
stroke-linecap:round; stroke-linejoin:round;"
 transform="translate(0 0) scale(1 1)">
<path style="fill:#000000; fill-opacity:1.0000; stroke:none;fill-rule:evenodd;"
d="M 123.9250,33.5600
123.9060,33.6557
123.8518,33.7368
123.7707,33.7910
123.6750,33.8100
123.1500,33.8100
123.0543,33.7910
122.9732,33.7368
122.9190,33.6557
122.9000,33.5600
122.9000,32.6600
122.9190,32.5643
122.9732,32.4832
123.0543,32.4290
123.1500,32.4100
123.6750,32.4100
123.7707,32.4290
123.8518,32.4832
123.9060,32.5643
123.9250,32.6600
Z" /> 
<path style="fill:#000000; fill-opacity:1.0000; stroke:none;fill-rule:evenodd;"
d="M 122.1000,33.5600
122.0810,33.6557
122.0268,33.7368
121.9457,33.7910
121.8500,33.8100
121.3250,33.8100
121.2293,33.7910
121.1482,33.7368
121.0940,33.6557
121.0750,33.5600
121.0750,32.6600
121.0940,32.5643
121.1482,32.4832
121.2293,32.4290
121.3250,32.4100
121.8500,32.4100
121.9457,32.4290
122.0268,32.4832
122.0810,32.5643
122.1000,32.6600
Z" /> 
<path style="fill:#000000; fill-opacity:1.0000; stroke:none;fill-rule:evenodd;"
d="M 88.5125,65.1700
88.5315,65.0743
88.5857,64.9932
88.6668,64.9390
88.7625,64.9200
90.7625,64.9200
90.8582,64.9390
90.9393,64.9932
90.9935,65.0743
91.0125,65.1700
91.0125,66.9700
90.9935,67.0657
90.9393,67.1468
90.8582,67.2010
90.7625,67.2200
88.7625,67.2200
88.6668,67.2010
88.5857,67.1468
88.5315,67.0657
88.5125,66.9700
Z" /> 
<path style="fill:#000000; fill-opacity:1.0000; stroke:none;fill-rule:evenodd;"
d="M 92.8125,65.1700
92.8315,65.0743
92.8857,64.9932
92.9668,64.9390
93.0625,64.9200
95.0625,64.9200
95.1582,64.9390
95.2393,64.9932
95.2935,65.0743
95.3125,65.1700
95.3125,66.9700
95.2935,67.0657
95.2393,67.1468
95.1582,67.2010
95.0625,67.2200
93.0625,67.2200
92.9668,67.2010
92.8857,67.1468
92.8315,67.0657
92.8125,66.9700
Z" /> 
<path style="fill:#000000; fill-opacity:1.0000; stroke:none;fill-rule:evenodd;"
d="M 108.7550,76.8150
108.7360,76.9107
108.6818,76.9918
108.6007,77.0460
108.5050,77.0650
107.8300,77.0650
107.7343,77.0460
107.6532,76.9918
107.5990,76.9107
107.5800,76.8150
107.5800,75.8650
107.5990,75.7693
107.6532,75.6882
107.7343,75.6340
107.8300,75.6150
108.5050,75.6150
108.6007,75.6340
108.6818,75.6882
108.7360,75.7693
108.7550,75.8650
Z" /> 
<path style="fill:#000000; fill-opacity:1.0000; stroke:none;fill-rule:evenodd;"
d="M 106.6800,76.8150
106.6610,76.9107
106.6068,76.9918
106.5257,77.0460
106.4300,77.0650
105.7550,77.0650
105.6593,77.0460
105.5782,76.9918
105.5240,76.9107
105.5050,76.8150
105.5050,75.8650
105.5240,75.7693
105.5782,75.6882
105.6593,75.6340
105.7550,75.6150
106.4300,75.6150
106.5257,75.6340
106.6068,75.6882
106.6610,75.7693
106.6800,75.8650
Z" /> 
<path style="fill:#000000; fill-opacity:1.0000; stroke:none;fill-rule:evenodd;"
d="M 105.8200,74.7775
105.7626,74.7661
105.7139,74.7336
105.6814,74.6849
105.6700,74.6275
105.6700,73.4525
105.6814,73.3951
105.7139,73.3464
105.7626,73.3139
105.8200,73.3025
106.1200,73.3025
106.1774,73.3139
106.2261,73.3464
106.2586,73.3951
106.2700,73.4525
106.2700,74.6275
106.2586,74.6849
106.2261,74.7336
106.1774,74.7661
106.1200,74.7775
Z" /> 
<path style="fill:#000000; fill-opacity:1.0000; stroke:none;fill-rule:evenodd;"
d="M 107.7200,74.7775
107.6626,74.7661
107.6139,74.7336
107.5814,74.6849
107.5700,74.6275
107.5700,73.4525
107.5814,73.3951
107.6139,73.3464
107.6626,73.3139
107.7200,73.3025
108.0200,73.3025
108.0774,73.3139
108.1261,73.3464
108.1586,73.3951
108.1700,73.4525
108.1700,74.6275
108.1586,74.6849
108.1261,74.7336
108.0774,74.7661
108.0200,74.7775
Z" /> 
<path style="fill:#000000; fill-opacity:1.0000; stroke:none;fill-rule:evenodd;"
d="M 106.7700,72.9025
106.7126,72.8911
106.6639,72.8586
106.6314,72.8099
106.6200,72.7525
106.6200,71.5775
106.6314,71.5201
106.6639,71.4714
106.7126,71.4389
106.7700,71.4275
107.0700,71.4275
107.1274,71.4389
107.1761,71.4714
107.2086,71.5201
107.2200,71.5775
107.2200,72.7525
107.2086,72.8099
107.1761,72.8586
107.1274,72.8911
107.0700,72.9025
Z" /> 
<path style="fill:#000000; fill-opacity:1.0000; stroke:none;fill-rule:evenodd;"
d="M 127.5300,69.0825
127.4343,69.0635
127.3532,69.0093
127.2990,68.9282
127.2800,68.8325
127.2800,68.3075
127.2990,68.2118
127.3532,68.1307
127.4343,68.0765
127.5300,68.0575
128.4300,68.0575
128.5257,68.0765
128.6068,68.1307
128.6610,68.2118
128.6800,68.3075
128.6800,68.8325
128.6610,68.9282
128.6068,69.0093
128.5257,69.0635
128.4300,69.0825
Z" /> 
<path style="fill:#000000; fill-opacity:1.0000; stroke:none;fill-rule:evenodd;"
d="M 127.5300,67.2575
127.4343,67.2385
127.3532,67.1843
127.2990,67.1032
127.2800,67.0075
127.2800,66.4825
127.2990,66.3868
127.3532,66.3057
127.4343,66.2515
127.5300,66.2325
128.4300,66.2325
128.5257,66.2515
128.6068,66.3057
128.6610,66.3868
128.6800,66.4825
128.6800,67.0075
128.6610,67.1032
128.6068,67.1843
128.5257,67.2385
128.4300,67.2575
Z" /> 
<path style="fill:#000000; fill-opacity:1.0000; stroke:none;fill-rule:evenodd;"
d="M 88.8050,40.9637
88.8236,40.8705
88.8764,40.7914
88.9555,40.7386
89.0487,40.7200
89.5362,40.7200
89.6295,40.7386
89.7086,40.7914
89.7614,40.8705
89.7800,40.9637
89.7800,41.8762
89.7614,41.9695
89.7086,42.0486
89.6295,42.1014
89.5362,42.1200
89.0487,42.1200
88.9555,42.1014
88.8764,42.0486
88.8236,41.9695
88.8050,41.8762
Z" /> 
<path style="fill:#000000; fill-opacity:1.0000; stroke:none;fill-rule:evenodd;"
d="M 90.6800,40.9637
90.6986,40.8705
90.7514,40.7914
90.8305,40.7386
90.9237,40.7200
91.4112,40.7200
91.5045,40.7386
91.5836,40.7914
91.6364,40.8705
91.6550,40.9637
91.6550,41.8762
91.6364,41.9695
91.5836,42.0486
91.5045,42.1014
91.4112,42.1200
90.9237,42.1200
90.8305,42.1014
90.7514,42.0486
90.6986,41.9695
90.6800,41.8762
Z" /> 
<path style="fill:#000000; fill-opacity:1.0000; stroke:none;fill-rule:evenodd;"
d="M 102.2386,72.0050
102.2386,75.8150
97.9968,75.8150
97.9968,72.0050
Z" /> 
<path style="fill:#000000; fill-opacity:1.0000; stroke:none;fill-rule:evenodd;"
d="M 95.8632,72.0050
95.8632,75.8150
91.6214,75.8150
91.6214,72.0050
Z" /> 
<path style="fill:#000000; fill-opacity:1.0000; stroke:none;fill-rule:evenodd;"
d="M 124.5800,69.0825
124.4843,69.0635
124.4032,69.0093
124.3490,68.9282
124.3300,68.8325
124.3300,68.3075
124.3490,68.2118
124.4032,68.1307
124.4843,68.0765
124.5800,68.0575
125.4800,68.0575
125.5757,68.0765
125.6568,68.1307
125.7110,68.2118
125.7300,68.3075
125.7300,68.8325
125.7110,68.9282
125.6568,69.0093
125.5757,69.0635
125.4800,69.0825
Z" /> 
<path style="fill:#000000; fill-opacity:1.0000; stroke:none;fill-rule:evenodd;"
d="M 124.5800,67.2575
124.4843,67.2385
124.4032,67.1843
124.3490,67.1032
124.3300,67.0075
124.3300,66.4825
124.3490,66.3868
124.4032,66.3057
124.4843,66.2515
124.5800,66.2325
125.4800,66.2325
125.5757,66.2515
125.6568,66.3057
125.7110,66.3868
125.7300,66.4825
125.7300,67.0075
125.7110,67.1032
125.6568,67.1843
125.5757,67.2385
125.4800,67.2575
Z" /> 
<path style="fill:#000000; fill-opacity:1.0000; stroke:none;fill-rule:evenodd;"
d="M 118.6800,69.0825
118.5843,69.0635
118.5032,69.0093
118.4490,68.9282
118.4300,68.8325
118.4300,68.3075
118.4490,68.2118
118.5032,68.1307
118.5843,68.0765
118.6800,68.0575
119.5800,68.0575
119.6757,68.0765
119.7568,68.1307
119.8110,68.2118
119.8300,68.3075
119.8300,68.8325
119.8110,68.9282
119.7568,69.0093
119.6757,69.0635
119.5800,69.0825
Z" /> 
<path style="fill:#000000; fill-opacity:1.0000; stroke:none;fill-rule:evenodd;"
d="M 118.6800,67.2575
118.5843,67.2385
118.5032,67.1843
118.4490,67.1032
118.4300,67.0075
118.4300,66.4825
118.4490,66.3868
118.5032,66.3057
118.5843,66.2515
118.6800,66.2325
119.5800,66.2325
119.6757,66.2515
119.7568,66.3057
119.8110,66.3868
119.8300,66.4825
119.8300,67.0075
119.8110,67.1032
119.7568,67.1843
119.6757,67.2385
119.5800,67.2575
Z" /> 
<path style="fill:#000000; fill-opacity:1.0000; stroke:none;fill-rule:evenodd;"
d="M 88.8050,37.9237
88.8236,37.8305
88.8764,37.7514
88.9555,37.6986
89.0487,37.6800
89.5362,37.6800
89.6295,37.6986
89.7086,37.7514
89.7614,37.8305
89.7800,37.9237
89.7800,38.8362
89.7614,38.9295
89.7086,39.0086
89.6295,39.0614
89.5362,39.0800
89.0487,39.0800
88.9555,39.0614
88.8764,39.0086
88.8236,38.9295
88.8050,38.8362
Z" /> 
<path style="fill:#000000; fill-opacity:1.0000; stroke:none;fill-rule:evenodd;"
d="M 90.6800,37.9237
90.6986,37.8305
90.7514,37.7514
90.8305,37.6986
90.9237,37.6800
91.4112,37.6800
91.5045,37.6986
91.5836,37.7514
91.6364,37.8305
91.6550,37.9237
91.6550,38.8362
91.6364,38.9295
91.5836,39.0086
91.5045,39.0614
91.4112,39.0800
90.9237,39.0800
90.8305,39.0614
90.7514,39.0086
90.6986,38.9295
90.6800,38.8362
Z" /> 
<path style="fill:#000000; fill-opacity:1.0000; stroke:none;fill-rule:evenodd;"
d="M 121.6300,69.0825
121.5343,69.0635
121.4532,69.0093
121.3990,68.9282
121.3800,68.8325
121.3800,68.3075
121.3990,68.2118
121.4532,68.1307
121.5343,68.0765
121.6300,68.0575
122.5300,68.0575
122.6257,68.0765
122.7068,68.1307
122.7610,68.2118
122.7800,68.3075
122.7800,68.8325
122.7610,68.9282
122.7068,69.0093
122.6257,69.0635
122.5300,69.0825
Z" /> 
<path style="fill:#000000; fill-opacity:1.0000; stroke:none;fill-rule:evenodd;"
d="M 121.6300,67.2575
121.5343,67.2385
121.4532,67.1843
121.3990,67.1032
121.3800,67.0075
121.3800,66.4825
121.3990,66.3868
121.4532,66.3057
121.5343,66.2515
121.6300,66.2325
122.5300,66.2325
122.6257,66.2515
122.7068,66.3057
122.7610,66.3868
122.7800,66.4825
122.7800,67.0075
122.7610,67.1032
122.7068,67.1843
122.6257,67.2385
122.5300,67.2575
Z" /> 
<path style="fill:#000000; fill-opacity:1.0000; stroke:none;fill-rule:evenodd;"
d="M 115.7300,69.0825
115.6343,69.0635
115.5532,69.0093
115.4990,68.9282
115.4800,68.8325
115.4800,68.3075
115.4990,68.2118
115.5532,68.1307
115.6343,68.0765
115.7300,68.0575
116.6300,68.0575
116.7257,68.0765
116.8068,68.1307
116.8610,68.2118
116.8800,68.3075
116.8800,68.8325
116.8610,68.9282
116.8068,69.0093
116.7257,69.0635
116.6300,69.0825
Z" /> 
<path style="fill:#000000; fill-opacity:1.0000; stroke:none;fill-rule:evenodd;"
d="M 115.7300,67.2575
115.6343,67.2385
115.5532,67.1843
115.4990,67.1032
115.4800,67.0075
115.4800,66.4825
115.4990,66.3868
115.5532,66.3057
115.6343,66.2515
115.7300,66.2325
116.6300,66.2325
116.7257,66.2515
116.8068,66.3057
116.8610,66.3868
116.8800,66.4825
116.8800,67.0075
116.8610,67.1032
116.8068,67.1843
116.7257,67.2385
116.6300,67.2575
Z" /> 
<path style="fill:#000000; fill-opacity:1.0000; stroke:none;fill-rule:evenodd;"
d="M 131.1800,81.9200
131.1686,81.9774
131.1361,82.0261
131.0874,82.0586
131.0300,82.0700
130.7300,82.0700
130.6726,82.0586
130.6239,82.0261
130.5914,81.9774
130.5800,81.9200
130.5800,80.6700
130.5914,80.6126
130.6239,80.5639
130.6726,80.5314
130.7300,80.5200
131.0300,80.5200
131.0874,80.5314
131.1361,80.5639
131.1686,80.6126
131.1800,80.6700
Z" /> 
<path style="fill:#000000; fill-opacity:1.0000; stroke:none;fill-rule:evenodd;"
d="M 130.1800,81.9200
130.1686,81.9774
130.1361,82.0261
130.0874,82.0586
130.0300,82.0700
129.7300,82.0700
129.6726,82.0586
129.6239,82.0261
129.5914,81.9774
129.5800,81.9200
129.5800,80.6700
129.5914,80.6126
129.6239,80.5639
129.6726,80.5314
129.7300,80.5200
130.0300,80.5200
130.0874,80.5314
130.1361,80.5639
130.1686,80.6126
130.1800,80.6700
Z" /> 
<path style="fill:#000000; fill-opacity:1.0000; stroke:none;fill-rule:evenodd;"
d="M 129.1800,81.9200
129.1686,81.9774
129.1361,82.0261
129.0874,82.0586
129.0300,82.0700
128.7300,82.0700
128.6726,82.0586
128.6239,82.0261
128.5914,81.9774
128.5800,81.9200
128.5800,80.6700
128.5914,80.6126
128.6239,80.5639
128.6726,80.5314
128.7300,80.5200
129.0300,80.5200
129.0874,80.5314
129.1361,80.5639
129.1686,80.6126
129.1800,80.6700
Z" /> 
<path style="fill:#000000; fill-opacity:1.0000; stroke:none;fill-rule:evenodd;"
d="M 128.1800,81.9200
128.1686,81.9774
128.1361,82.0261
128.0874,82.0586
128.0300,82.0700
127.7300,82.0700
127.6726,82.0586
127.6239,82.0261
127.5914,81.9774
127.5800,81.9200
127.5800,80.6700
127.5914,80.6126
127.6239,80.5639
127.6726,80.5314
127.7300,80.5200
128.0300,80.5200
128.0874,80.5314
128.1361,80.5639
128.1686,80.6126
128.1800,80.6700
Z" /> 
<path style="fill:#000000; fill-opacity:1.0000; stroke:none;fill-rule:evenodd;"
d="M 127.1800,81.9200
127.1686,81.9774
127.1361,82.0261
127.0874,82.0586
127.0300,82.0700
126.7300,82.0700
126.6726,82.0586
126.6239,82.0261
126.5914,81.9774
126.5800,81.9200
126.5800,80.6700
126.5914,80.6126
126.6239,80.5639
126.6726,80.5314
126.7300,80.5200
127.0300,80.5200
127.0874,80.5314
127.1361,80.5639
127.1686,80.6126
127.1800,80.6700
Z" /> 
<path style="fill:#000000; fill-opacity:1.0000; stroke:none;fill-rule:evenodd;"
d="M 132.7800,84.4700
132.7610,84.5657
132.7068,84.6468
132.6257,84.7010
132.5300,84.7200
131.8300,84.7200
131.7343,84.7010
131.6532,84.6468
131.5990,84.5657
131.5800,84.4700
131.5800,83.1700
131.5990,83.0743
131.6532,82.9932
131.7343,82.9390
131.8300,82.9200
132.5300,82.9200
132.6257,82.9390
132.7068,82.9932
132.7610,83.0743
132.7800,83.1700
Z" /> 
<path style="fill:#000000; fill-opacity:1.0000; stroke:none;fill-rule:evenodd;"
d="M 126.1800,84.4700
126.1610,84.5657
126.1068,84.6468
126.0257,84.7010
125.9300,84.7200
125.2300,84.7200
125.1343,84.7010
125.0532,84.6468
124.9990,84.5657
124.9800,84.4700
124.9800,83.1700
124.9990,83.0743
125.0532,82.9932
125.1343,82.9390
125.2300,82.9200
125.9300,82.9200
126.0257,82.9390
126.1068,82.9932
126.1610,83.0743
126.1800,83.1700
Z" /> 
<path style="fill:#000000; fill-opacity:1.0000; stroke:none;fill-rule:evenodd;"
d="M 114.4037,84.5000
114.3105,84.4814
114.2314,84.4286
114.1786,84.3495
114.1600,84.2562
114.1600,83.7687
114.1786,83.6755
114.2314,83.5964
114.3105,83.5436
114.4037,83.5250
115.3162,83.5250
115.4095,83.5436
115.4886,83.5964
115.5414,83.6755
115.5600,83.7687
115.5600,84.2562
115.5414,84.3495
115.4886,84.4286
115.4095,84.4814
115.3162,84.5000
Z" /> 
<path style="fill:#000000; fill-opacity:1.0000; stroke:none;fill-rule:evenodd;"
d="M 114.4037,82.6250
114.3105,82.6064
114.2314,82.5536
114.1786,82.4745
114.1600,82.3812
114.1600,81.8937
114.1786,81.8005
114.2314,81.7214
114.3105,81.6686
114.4037,81.6500
115.3162,81.6500
115.4095,81.6686
115.4886,81.7214
115.5414,81.8005
115.5600,81.8937
115.5600,82.3812
115.5414,82.4745
115.4886,82.5536
115.4095,82.6064
115.3162,82.6250
Z" /> 
<path style="fill:#000000; fill-opacity:1.0000; stroke:none;fill-rule:evenodd;"
d="M 115.9650,25.5850
115.9840,25.4893
116.0382,25.4082
116.1193,25.3540
116.2150,25.3350
116.8900,25.3350
116.9857,25.3540
117.0668,25.4082
117.1210,25.4893
117.1400,25.5850
117.1400,26.5350
117.1210,26.6307
117.0668,26.7118
116.9857,26.7660
116.8900,26.7850
116.2150,26.7850
116.1193,26.7660
116.0382,26.7118
115.9840,26.6307
115.9650,26.5350
Z" /> 
<path style="fill:#000000; fill-opacity:1.0000; stroke:none;fill-rule:evenodd;"
d="M 118.0400,25.5850
118.0590,25.4893
118.1132,25.4082
118.1943,25.3540
118.2900,25.3350
118.9650,25.3350
119.0607,25.3540
119.1418,25.4082
119.1960,25.4893
119.2150,25.5850
119.2150,26.5350
119.1960,26.6307
119.1418,26.7118
119.0607,26.7660
118.9650,26.7850
118.2900,26.7850
118.1943,26.7660
118.1132,26.7118
118.0590,26.6307
118.0400,26.5350
Z" /> 
<path style="fill:#000000; fill-opacity:1.0000; stroke:none;fill-rule:evenodd;"
d="M 115.9450,28.6750
115.9640,28.5793
116.0182,28.4982
116.0993,28.4440
116.1950,28.4250
116.8700,28.4250
116.9657,28.4440
117.0468,28.4982
117.1010,28.5793
117.1200,28.6750
117.1200,29.6250
117.1010,29.7207
117.0468,29.8018
116.9657,29.8560
116.8700,29.8750
116.1950,29.8750
116.0993,29.8560
116.0182,29.8018
115.9640,29.7207
115.9450,29.6250
Z" /> 
<path style="fill:#000000; fill-opacity:1.0000; stroke:none;fill-rule:evenodd;"
d="M 118.0200,28.6750
118.0390,28.5793
118.0932,28.4982
118.1743,28.4440
118.2700,28.4250
118.9450,28.4250
119.0407,28.4440
119.1218,28.4982
119.1760,28.5793
119.1950,28.6750
119.1950,29.6250
119.1760,29.7207
119.1218,29.8018
119.0407,29.8560
118.9450,29.8750
118.2700,29.8750
118.1743,29.8560
118.0932,29.8018
118.0390,29.7207
118.0200,29.6250
Z" /> 
<path style="fill:#000000; fill-opacity:1.0000; stroke:none;fill-rule:evenodd;"
d="M 94.0950,18.1200
94.1140,18.0243
94.1682,17.9432
94.2493,17.8890
94.3450,17.8700
94.8700,17.8700
94.9657,17.8890
95.0468,17.9432
95.1010,18.0243
95.1200,18.1200
95.1200,19.0200
95.1010,19.1157
95.0468,19.1968
94.9657,19.2510
94.8700,19.2700
94.3450,19.2700
94.2493,19.2510
94.1682,19.1968
94.1140,19.1157
94.0950,19.0200
Z" /> 
<path style="fill:#000000; fill-opacity:1.0000; stroke:none;fill-rule:evenodd;"
d="M 95.9200,18.1200
95.9390,18.0243
95.9932,17.9432
96.0743,17.8890
96.1700,17.8700
96.6950,17.8700
96.7907,17.8890
96.8718,17.9432
96.9260,18.0243
96.9450,18.1200
96.9450,19.0200
96.9260,19.1157
96.8718,19.1968
96.7907,19.2510
96.6950,19.2700
96.1700,19.2700
96.0743,19.2510
95.9932,19.1968
95.9390,19.1157
95.9200,19.0200
Z" /> 
<path style="fill:#000000; fill-opacity:1.0000; stroke:none;fill-rule:evenodd;"
d="M 96.9525,65.4200
96.9715,65.3243
97.0257,65.2432
97.1068,65.1890
97.2025,65.1700
99.2025,65.1700
99.2982,65.1890
99.3793,65.2432
99.4335,65.3243
99.4525,65.4200
99.4525,66.7200
99.4335,66.8157
99.3793,66.8968
99.2982,66.9510
99.2025,66.9700
97.2025,66.9700
97.1068,66.9510
97.0257,66.8968
96.9715,66.8157
96.9525,66.7200
Z" /> 
<path style="fill:#000000; fill-opacity:1.0000; stroke:none;fill-rule:evenodd;"
d="M 100.9525,65.4200
100.9715,65.3243
101.0257,65.2432
101.1068,65.1890
101.2025,65.1700
103.2025,65.1700
103.2982,65.1890
103.3793,65.2432
103.4335,65.3243
103.4525,65.4200
103.4525,66.7200
103.4335,66.8157
103.3793,66.8968
103.2982,66.9510
103.2025,66.9700
101.2025,66.9700
101.1068,66.9510
101.0257,66.8968
100.9715,66.8157
100.9525,66.7200
Z" /> 
<path style="fill:#000000; fill-opacity:1.0000; stroke:none;fill-rule:evenodd;"
d="M 117.4437,84.2625
117.3505,84.2439
117.2714,84.1911
117.2186,84.1120
117.2000,84.0187
117.2000,83.5312
117.2186,83.4380
117.2714,83.3589
117.3505,83.3061
117.4437,83.2875
118.3562,83.2875
118.4495,83.3061
118.5286,83.3589
118.5814,83.4380
118.6000,83.5312
118.6000,84.0187
118.5814,84.1120
118.5286,84.1911
118.4495,84.2439
118.3562,84.2625
Z" /> 
<path style="fill:#000000; fill-opacity:1.0000; stroke:none;fill-rule:evenodd;"
d="M 117.4437,82.6250
117.3505,82.6064
117.2714,82.5536
117.2186,82.4745
117.2000,82.3812
117.2000,81.8937
117.2186,81.8005
117.2714,81.7214
117.3505,81.6686
117.4437,81.6500
118.3562,81.6500
118.4495,81.6686
118.5286,81.7214
118.5814,81.8005
118.6000,81.8937
118.6000,82.3812
118.5814,82.4745
118.5286,82.5536
118.4495,82.6064
118.3562,82.6250
Z" /> 
</g> 
</svg>
