%TF.GenerationSoftware,KiCad,Pcbnew,9.0.6*%
%TF.CreationDate,2025-12-14T16:40:19+01:00*%
%TF.ProjectId,rayman_LCD,7261796d-616e-45f4-9c43-442e6b696361,rev?*%
%TF.SameCoordinates,Original*%
%TF.FileFunction,Paste,Top*%
%TF.FilePolarity,Positive*%
%FSLAX46Y46*%
G04 Gerber Fmt 4.6, Leading zero omitted, Abs format (unit mm)*
G04 Created by KiCad (PCBNEW 9.0.6) date 2025-12-14 16:40:19*
%MOMM*%
%LPD*%
G01*
G04 APERTURE LIST*
G04 Aperture macros list*
%AMRoundRect*
0 Rectangle with rounded corners*
0 $1 Rounding radius*
0 $2 $3 $4 $5 $6 $7 $8 $9 X,Y pos of 4 corners*
0 Add a 4 corners polygon primitive as box body*
4,1,4,$2,$3,$4,$5,$6,$7,$8,$9,$2,$3,0*
0 Add four circle primitives for the rounded corners*
1,1,$1+$1,$2,$3*
1,1,$1+$1,$4,$5*
1,1,$1+$1,$6,$7*
1,1,$1+$1,$8,$9*
0 Add four rect primitives between the rounded corners*
20,1,$1+$1,$2,$3,$4,$5,0*
20,1,$1+$1,$4,$5,$6,$7,0*
20,1,$1+$1,$6,$7,$8,$9,0*
20,1,$1+$1,$8,$9,$2,$3,0*%
G04 Aperture macros list end*
%ADD10RoundRect,0.250000X0.262500X0.450000X-0.262500X0.450000X-0.262500X-0.450000X0.262500X-0.450000X0*%
%ADD11RoundRect,0.250000X-1.000000X-0.900000X1.000000X-0.900000X1.000000X0.900000X-1.000000X0.900000X0*%
%ADD12RoundRect,0.250000X0.337500X0.475000X-0.337500X0.475000X-0.337500X-0.475000X0.337500X-0.475000X0*%
%ADD13RoundRect,0.150000X0.150000X-0.587500X0.150000X0.587500X-0.150000X0.587500X-0.150000X-0.587500X0*%
%ADD14RoundRect,0.250000X0.450000X-0.262500X0.450000X0.262500X-0.450000X0.262500X-0.450000X-0.262500X0*%
%ADD15RoundRect,0.243750X-0.243750X-0.456250X0.243750X-0.456250X0.243750X0.456250X-0.243750X0.456250X0*%
%ADD16R,4.241800X3.810000*%
%ADD17RoundRect,0.150000X0.150000X0.625000X-0.150000X0.625000X-0.150000X-0.625000X0.150000X-0.625000X0*%
%ADD18RoundRect,0.250000X0.350000X0.650000X-0.350000X0.650000X-0.350000X-0.650000X0.350000X-0.650000X0*%
%ADD19RoundRect,0.243750X0.456250X-0.243750X0.456250X0.243750X-0.456250X0.243750X-0.456250X-0.243750X0*%
%ADD20RoundRect,0.250000X-0.337500X-0.475000X0.337500X-0.475000X0.337500X0.475000X-0.337500X0.475000X0*%
%ADD21RoundRect,0.250000X-1.000000X-0.650000X1.000000X-0.650000X1.000000X0.650000X-1.000000X0.650000X0*%
%ADD22RoundRect,0.250000X-0.262500X-0.450000X0.262500X-0.450000X0.262500X0.450000X-0.262500X0.450000X0*%
G04 APERTURE END LIST*
D10*
%TO.C,R17*%
X123412500Y-33110000D03*
X121587500Y-33110000D03*
%TD*%
D11*
%TO.C,D2*%
X89762500Y-66070000D03*
X94062500Y-66070000D03*
%TD*%
D12*
%TO.C,C1*%
X108167500Y-76340000D03*
X106092500Y-76340000D03*
%TD*%
D13*
%TO.C,U2*%
X105970000Y-74040000D03*
X107870000Y-74040000D03*
X106920000Y-72165000D03*
%TD*%
D14*
%TO.C,R5*%
X127980000Y-68570000D03*
X127980000Y-66745000D03*
%TD*%
D15*
%TO.C,D6*%
X89292500Y-41420000D03*
X91167500Y-41420000D03*
%TD*%
D16*
%TO.C,U3*%
X100117700Y-73910000D03*
X93742300Y-73910000D03*
%TD*%
D14*
%TO.C,R4*%
X125030000Y-68570000D03*
X125030000Y-66745000D03*
%TD*%
%TO.C,R2*%
X119130000Y-68570000D03*
X119130000Y-66745000D03*
%TD*%
D15*
%TO.C,D5*%
X89292500Y-38380000D03*
X91167500Y-38380000D03*
%TD*%
D14*
%TO.C,R3*%
X122080000Y-68570000D03*
X122080000Y-66745000D03*
%TD*%
%TO.C,R1*%
X116180000Y-68570000D03*
X116180000Y-66745000D03*
%TD*%
D17*
%TO.C,PROG1*%
X130880000Y-81295000D03*
X129880000Y-81295000D03*
X128880000Y-81295000D03*
X127880000Y-81295000D03*
X126880000Y-81295000D03*
D18*
X132180000Y-83820000D03*
X125580000Y-83820000D03*
%TD*%
D19*
%TO.C,D3*%
X114860000Y-84012500D03*
X114860000Y-82137500D03*
%TD*%
D20*
%TO.C,C2*%
X116552500Y-26060000D03*
X118627500Y-26060000D03*
%TD*%
%TO.C,C3*%
X116532500Y-29150000D03*
X118607500Y-29150000D03*
%TD*%
D21*
%TO.C,D1*%
X98202500Y-66070000D03*
X102202500Y-66070000D03*
%TD*%
D19*
%TO.C,D4*%
X117900000Y-83775000D03*
X117900000Y-82137500D03*
%TD*%
D22*
%TO.C,R11*%
X96432500Y-18570000D03*
X94607500Y-18570000D03*
%TD*%
M02*
