%TF.GenerationSoftware,KiCad,Pcbnew,9.0.6*%
%TF.CreationDate,2025-12-14T16:40:20+01:00*%
%TF.ProjectId,rayman_LCD,7261796d-616e-45f4-9c43-442e6b696361,rev?*%
%TF.SameCoordinates,Original*%
%TF.FileFunction,Soldermask,Bot*%
%TF.FilePolarity,Negative*%
%FSLAX46Y46*%
G04 Gerber Fmt 4.6, Leading zero omitted, Abs format (unit mm)*
G04 Created by KiCad (PCBNEW 9.0.6) date 2025-12-14 16:40:20*
%MOMM*%
%LPD*%
G01*
G04 APERTURE LIST*
G04 Aperture macros list*
%AMRoundRect*
0 Rectangle with rounded corners*
0 $1 Rounding radius*
0 $2 $3 $4 $5 $6 $7 $8 $9 X,Y pos of 4 corners*
0 Add a 4 corners polygon primitive as box body*
4,1,4,$2,$3,$4,$5,$6,$7,$8,$9,$2,$3,0*
0 Add four circle primitives for the rounded corners*
1,1,$1+$1,$2,$3*
1,1,$1+$1,$4,$5*
1,1,$1+$1,$6,$7*
1,1,$1+$1,$8,$9*
0 Add four rect primitives between the rounded corners*
20,1,$1+$1,$2,$3,$4,$5,0*
20,1,$1+$1,$4,$5,$6,$7,0*
20,1,$1+$1,$6,$7,$8,$9,0*
20,1,$1+$1,$8,$9,$2,$3,0*%
%AMOutline5P*
0 Free polygon, 5 corners , with rotation*
0 The origin of the aperture is its center*
0 number of corners: always 5*
0 $1 to $10 corner X, Y*
0 $11 Rotation angle, in degrees counterclockwise*
0 create outline with 5 corners*
4,1,5,$1,$2,$3,$4,$5,$6,$7,$8,$9,$10,$1,$2,$11*%
%AMOutline6P*
0 Free polygon, 6 corners , with rotation*
0 The origin of the aperture is its center*
0 number of corners: always 6*
0 $1 to $12 corner X, Y*
0 $13 Rotation angle, in degrees counterclockwise*
0 create outline with 6 corners*
4,1,6,$1,$2,$3,$4,$5,$6,$7,$8,$9,$10,$11,$12,$1,$2,$13*%
%AMOutline7P*
0 Free polygon, 7 corners , with rotation*
0 The origin of the aperture is its center*
0 number of corners: always 7*
0 $1 to $14 corner X, Y*
0 $15 Rotation angle, in degrees counterclockwise*
0 create outline with 7 corners*
4,1,7,$1,$2,$3,$4,$5,$6,$7,$8,$9,$10,$11,$12,$13,$14,$1,$2,$15*%
%AMOutline8P*
0 Free polygon, 8 corners , with rotation*
0 The origin of the aperture is its center*
0 number of corners: always 8*
0 $1 to $16 corner X, Y*
0 $17 Rotation angle, in degrees counterclockwise*
0 create outline with 8 corners*
4,1,8,$1,$2,$3,$4,$5,$6,$7,$8,$9,$10,$11,$12,$13,$14,$15,$16,$1,$2,$17*%
G04 Aperture macros list end*
%ADD10C,4.000000*%
%ADD11RoundRect,0.250000X-0.845000X0.620000X-0.845000X-0.620000X0.845000X-0.620000X0.845000X0.620000X0*%
%ADD12O,2.190000X1.740000*%
%ADD13RoundRect,0.250000X0.845000X-0.620000X0.845000X0.620000X-0.845000X0.620000X-0.845000X-0.620000X0*%
%ADD14RoundRect,0.250000X-0.350000X-0.650000X0.350000X-0.650000X0.350000X0.650000X-0.350000X0.650000X0*%
%ADD15O,1.200000X1.800000*%
%ADD16C,3.250000*%
%ADD17R,1.500000X1.500000*%
%ADD18C,1.500000*%
%ADD19C,2.300000*%
%ADD20RoundRect,0.250000X-0.550000X-0.550000X0.550000X-0.550000X0.550000X0.550000X-0.550000X0.550000X0*%
%ADD21C,1.600000*%
%ADD22RoundRect,0.250000X-0.450000X0.262500X-0.450000X-0.262500X0.450000X-0.262500X0.450000X0.262500X0*%
%ADD23RoundRect,0.250000X0.475000X-0.337500X0.475000X0.337500X-0.475000X0.337500X-0.475000X-0.337500X0*%
%ADD24RoundRect,0.136750X0.950250X0.410250X-0.950250X0.410250X-0.950250X-0.410250X0.950250X-0.410250X0*%
%ADD25RoundRect,0.271750X0.815250X1.425250X-0.815250X1.425250X-0.815250X-1.425250X0.815250X-1.425250X0*%
%ADD26RoundRect,0.250000X0.262500X0.450000X-0.262500X0.450000X-0.262500X-0.450000X0.262500X-0.450000X0*%
%ADD27RoundRect,0.250000X0.450000X-0.262500X0.450000X0.262500X-0.450000X0.262500X-0.450000X-0.262500X0*%
%ADD28RoundRect,0.102000X1.200000X0.700000X-1.200000X0.700000X-1.200000X-0.700000X1.200000X-0.700000X0*%
%ADD29RoundRect,0.102000X2.875000X2.950000X-2.875000X2.950000X-2.875000X-2.950000X2.875000X-2.950000X0*%
%ADD30R,0.800000X0.400000*%
%ADD31R,0.400000X0.800000*%
%ADD32R,1.200000X1.200000*%
%ADD33Outline5P,-0.600000X0.600000X0.600000X0.600000X0.600000X-0.600000X-0.204000X-0.600000X-0.600000X-0.204000X0.000000*%
%ADD34R,0.800000X0.800000*%
%ADD35RoundRect,0.250000X-0.475000X0.250000X-0.475000X-0.250000X0.475000X-0.250000X0.475000X0.250000X0*%
%ADD36RoundRect,0.100500X0.986500X0.301500X-0.986500X0.301500X-0.986500X-0.301500X0.986500X-0.301500X0*%
%ADD37RoundRect,0.250000X-0.262500X-0.450000X0.262500X-0.450000X0.262500X0.450000X-0.262500X0.450000X0*%
G04 APERTURE END LIST*
D10*
%TO.C,REF\u002A\u002A*%
X150620000Y-84080000D03*
%TD*%
%TO.C,*%
X90620000Y-14080000D03*
%TD*%
%TO.C,*%
X90620000Y-84080000D03*
%TD*%
D11*
%TO.C,J2*%
X92250000Y-23980000D03*
D12*
X92250000Y-26520000D03*
X92250000Y-29060000D03*
X92250000Y-31600000D03*
%TD*%
D13*
%TO.C,J5*%
X149520000Y-34050000D03*
D12*
X149520000Y-31510000D03*
X149520000Y-28970000D03*
X149520000Y-26430000D03*
%TD*%
D13*
%TO.C,J4*%
X149520000Y-69050000D03*
D12*
X149520000Y-66510000D03*
X149520000Y-63970000D03*
X149520000Y-61430000D03*
%TD*%
D14*
%TO.C,J1*%
X98980000Y-82210000D03*
D15*
X100980000Y-82210000D03*
%TD*%
D16*
%TO.C,RJ_CAN1*%
X93072500Y-59236000D03*
X93072500Y-46536000D03*
D17*
X95612500Y-56446000D03*
D18*
X97392500Y-55430000D03*
X95612500Y-54414000D03*
X97392500Y-53398000D03*
X95612500Y-52382000D03*
X97392500Y-51366000D03*
X95612500Y-50350000D03*
X97392500Y-49334000D03*
D19*
X96502500Y-61016000D03*
X96502500Y-44756000D03*
%TD*%
D20*
%TO.C,SW1*%
X94685000Y-39642500D03*
D21*
X102305000Y-39642500D03*
%TD*%
D13*
%TO.C,J3*%
X149520000Y-56630000D03*
D12*
X149520000Y-54090000D03*
X149520000Y-51550000D03*
X149520000Y-49010000D03*
X149520000Y-46470000D03*
X149520000Y-43930000D03*
X149520000Y-41390000D03*
X149520000Y-38850000D03*
%TD*%
D22*
%TO.C,R7*%
X117960000Y-77067500D03*
X117960000Y-78892500D03*
%TD*%
D23*
%TO.C,C6*%
X114230000Y-60240000D03*
X114230000Y-58165000D03*
%TD*%
D24*
%TO.C,U4*%
X108340000Y-63810000D03*
X108340000Y-66110000D03*
X108340000Y-68410000D03*
D25*
X102290000Y-66110000D03*
%TD*%
D26*
%TO.C,R16*%
X133580000Y-34600000D03*
X131755000Y-34600000D03*
%TD*%
%TO.C,R8*%
X93012500Y-38500000D03*
X91187500Y-38500000D03*
%TD*%
D23*
%TO.C,C7*%
X117240000Y-60240000D03*
X117240000Y-58165000D03*
%TD*%
D27*
%TO.C,R6*%
X114840000Y-78892500D03*
X114840000Y-77067500D03*
%TD*%
D28*
%TO.C,Q1*%
X146522500Y-72955000D03*
D29*
X139997500Y-75240000D03*
D28*
X146522500Y-77525000D03*
%TD*%
D30*
%TO.C,U1*%
X113840000Y-51300000D03*
X113840000Y-50450000D03*
X113840000Y-49600000D03*
X113840000Y-48750000D03*
X113840000Y-47900000D03*
X113840000Y-47050000D03*
X113840000Y-46200000D03*
X113840000Y-45350000D03*
X113840000Y-44500000D03*
X113840000Y-43650000D03*
X113840000Y-42800000D03*
X113840000Y-41950000D03*
X113840000Y-41100000D03*
X113840000Y-40250000D03*
X113840000Y-39400000D03*
D31*
X114890000Y-38350000D03*
X115740000Y-38350000D03*
X116590000Y-38350000D03*
X117440000Y-38350000D03*
X118290000Y-38350000D03*
X119140000Y-38350000D03*
X119990000Y-38350000D03*
X120840000Y-38350000D03*
X121690000Y-38350000D03*
X122540000Y-38350000D03*
X123390000Y-38350000D03*
X124240000Y-38350000D03*
X125090000Y-38350000D03*
X125940000Y-38350000D03*
X126790000Y-38350000D03*
D30*
X127840000Y-39400000D03*
X127840000Y-40250000D03*
X127840000Y-41100000D03*
X127840000Y-41950000D03*
X127840000Y-42800000D03*
X127840000Y-43650000D03*
X127840000Y-44500000D03*
X127840000Y-45350000D03*
X127840000Y-46200000D03*
X127840000Y-47050000D03*
X127840000Y-47900000D03*
X127840000Y-48750000D03*
X127840000Y-49600000D03*
X127840000Y-50450000D03*
X127840000Y-51300000D03*
D31*
X126790000Y-52350000D03*
X125940000Y-52350000D03*
X125090000Y-52350000D03*
X124240000Y-52350000D03*
X123390000Y-52350000D03*
X122540000Y-52350000D03*
X121690000Y-52350000D03*
X120840000Y-52350000D03*
X119990000Y-52350000D03*
X119140000Y-52350000D03*
X118290000Y-52350000D03*
X117440000Y-52350000D03*
X116590000Y-52350000D03*
X115740000Y-52350000D03*
X114890000Y-52350000D03*
D32*
X119190000Y-43700000D03*
X119190000Y-45350000D03*
D33*
X119190000Y-47000000D03*
D32*
X120840000Y-43700000D03*
X120840000Y-45350000D03*
X120840000Y-47000000D03*
X122490000Y-43700000D03*
X122490000Y-45350000D03*
X122490000Y-47000000D03*
D34*
X113840000Y-52350000D03*
X113840000Y-38350000D03*
X127840000Y-38350000D03*
X127840000Y-52350000D03*
%TD*%
D26*
%TO.C,R13*%
X102512500Y-34160000D03*
X100687500Y-34160000D03*
%TD*%
D35*
%TO.C,C15*%
X131760000Y-51480000D03*
X131760000Y-53380000D03*
%TD*%
D27*
%TO.C,R15*%
X110320000Y-83990000D03*
X110320000Y-82165000D03*
%TD*%
D23*
%TO.C,C8*%
X120250000Y-60240000D03*
X120250000Y-58165000D03*
%TD*%
D26*
%TO.C,R12*%
X102512500Y-31210000D03*
X100687500Y-31210000D03*
%TD*%
D23*
%TO.C,C10*%
X126270000Y-60240000D03*
X126270000Y-58165000D03*
%TD*%
D36*
%TO.C,CAN1*%
X111715000Y-26525000D03*
X111715000Y-27795000D03*
X111715000Y-29065000D03*
X111715000Y-30335000D03*
X106775000Y-30335000D03*
X106775000Y-29065000D03*
X106775000Y-27795000D03*
X106775000Y-26525000D03*
%TD*%
D26*
%TO.C,R9*%
X93012500Y-41450000D03*
X91187500Y-41450000D03*
%TD*%
D23*
%TO.C,C9*%
X123260000Y-60240000D03*
X123260000Y-58165000D03*
%TD*%
D37*
%TO.C,R10*%
X106567500Y-21610000D03*
X108392500Y-21610000D03*
%TD*%
D26*
%TO.C,R18*%
X102575000Y-58980000D03*
X100750000Y-58980000D03*
%TD*%
D27*
%TO.C,R14*%
X107370000Y-83990000D03*
X107370000Y-82165000D03*
%TD*%
D10*
%TO.C,*%
X150620000Y-14080000D03*
%TD*%
M02*
