%TF.GenerationSoftware,KiCad,Pcbnew,9.0.6*%
%TF.CreationDate,2026-05-13T14:56:55+02:00*%
%TF.ProjectId,rayman_main,7261796d-616e-45f6-9d61-696e2e6b6963,rev?*%
%TF.SameCoordinates,Original*%
%TF.FileFunction,AssemblyDrawing,Bot*%
%FSLAX46Y46*%
G04 Gerber Fmt 4.6, Leading zero omitted, Abs format (unit mm)*
G04 Created by KiCad (PCBNEW 9.0.6) date 2026-05-13 14:56:55*
%MOMM*%
%LPD*%
G01*
G04 APERTURE LIST*
%ADD10C,0.100000*%
%ADD11C,0.127000*%
%ADD12C,0.200000*%
%ADD13C,0.152400*%
G04 APERTURE END LIST*
D10*
X109720300Y-88496666D02*
X109753633Y-88596666D01*
X109753633Y-88596666D02*
X109753633Y-88763333D01*
X109753633Y-88763333D02*
X109720300Y-88829999D01*
X109720300Y-88829999D02*
X109686966Y-88863333D01*
X109686966Y-88863333D02*
X109620300Y-88896666D01*
X109620300Y-88896666D02*
X109553633Y-88896666D01*
X109553633Y-88896666D02*
X109486966Y-88863333D01*
X109486966Y-88863333D02*
X109453633Y-88829999D01*
X109453633Y-88829999D02*
X109420300Y-88763333D01*
X109420300Y-88763333D02*
X109386966Y-88629999D01*
X109386966Y-88629999D02*
X109353633Y-88563333D01*
X109353633Y-88563333D02*
X109320300Y-88529999D01*
X109320300Y-88529999D02*
X109253633Y-88496666D01*
X109253633Y-88496666D02*
X109186966Y-88496666D01*
X109186966Y-88496666D02*
X109120300Y-88529999D01*
X109120300Y-88529999D02*
X109086966Y-88563333D01*
X109086966Y-88563333D02*
X109053633Y-88629999D01*
X109053633Y-88629999D02*
X109053633Y-88796666D01*
X109053633Y-88796666D02*
X109086966Y-88896666D01*
X109753633Y-89196666D02*
X109053633Y-89196666D01*
X109053633Y-89196666D02*
X109753633Y-89596666D01*
X109753633Y-89596666D02*
X109053633Y-89596666D01*
X109053633Y-89863333D02*
X109053633Y-90329999D01*
X109053633Y-90329999D02*
X109753633Y-90029999D01*
X109286966Y-90896666D02*
X109753633Y-90896666D01*
X109020300Y-90730000D02*
X109520300Y-90563333D01*
X109520300Y-90563333D02*
X109520300Y-90996666D01*
X109553633Y-91230000D02*
X109553633Y-91563333D01*
X109753633Y-91163333D02*
X109053633Y-91396667D01*
X109053633Y-91396667D02*
X109753633Y-91630000D01*
X109753633Y-91863333D02*
X109053633Y-91863333D01*
X109386966Y-91863333D02*
X109386966Y-92263333D01*
X109753633Y-92263333D02*
X109053633Y-92263333D01*
X109686966Y-92996666D02*
X109720300Y-92963333D01*
X109720300Y-92963333D02*
X109753633Y-92863333D01*
X109753633Y-92863333D02*
X109753633Y-92796666D01*
X109753633Y-92796666D02*
X109720300Y-92696666D01*
X109720300Y-92696666D02*
X109653633Y-92630000D01*
X109653633Y-92630000D02*
X109586966Y-92596666D01*
X109586966Y-92596666D02*
X109453633Y-92563333D01*
X109453633Y-92563333D02*
X109353633Y-92563333D01*
X109353633Y-92563333D02*
X109220300Y-92596666D01*
X109220300Y-92596666D02*
X109153633Y-92630000D01*
X109153633Y-92630000D02*
X109086966Y-92696666D01*
X109086966Y-92696666D02*
X109053633Y-92796666D01*
X109053633Y-92796666D02*
X109053633Y-92863333D01*
X109053633Y-92863333D02*
X109086966Y-92963333D01*
X109086966Y-92963333D02*
X109120300Y-92996666D01*
X109053633Y-93196666D02*
X109053633Y-93596666D01*
X109753633Y-93396666D02*
X109053633Y-93396666D01*
X109753633Y-94196666D02*
X109753633Y-93796666D01*
X109753633Y-93996666D02*
X109053633Y-93996666D01*
X109053633Y-93996666D02*
X109153633Y-93929999D01*
X109153633Y-93929999D02*
X109220300Y-93863333D01*
X109220300Y-93863333D02*
X109253633Y-93796666D01*
X109120300Y-94463333D02*
X109086966Y-94496666D01*
X109086966Y-94496666D02*
X109053633Y-94563333D01*
X109053633Y-94563333D02*
X109053633Y-94730000D01*
X109053633Y-94730000D02*
X109086966Y-94796666D01*
X109086966Y-94796666D02*
X109120300Y-94830000D01*
X109120300Y-94830000D02*
X109186966Y-94863333D01*
X109186966Y-94863333D02*
X109253633Y-94863333D01*
X109253633Y-94863333D02*
X109353633Y-94830000D01*
X109353633Y-94830000D02*
X109753633Y-94430000D01*
X109753633Y-94430000D02*
X109753633Y-94863333D01*
X109053633Y-95496667D02*
X109053633Y-95163333D01*
X109053633Y-95163333D02*
X109386966Y-95130000D01*
X109386966Y-95130000D02*
X109353633Y-95163333D01*
X109353633Y-95163333D02*
X109320300Y-95230000D01*
X109320300Y-95230000D02*
X109320300Y-95396667D01*
X109320300Y-95396667D02*
X109353633Y-95463333D01*
X109353633Y-95463333D02*
X109386966Y-95496667D01*
X109386966Y-95496667D02*
X109453633Y-95530000D01*
X109453633Y-95530000D02*
X109620300Y-95530000D01*
X109620300Y-95530000D02*
X109686966Y-95496667D01*
X109686966Y-95496667D02*
X109720300Y-95463333D01*
X109720300Y-95463333D02*
X109753633Y-95396667D01*
X109753633Y-95396667D02*
X109753633Y-95230000D01*
X109753633Y-95230000D02*
X109720300Y-95163333D01*
X109720300Y-95163333D02*
X109686966Y-95130000D01*
X109753633Y-95830000D02*
X109053633Y-95830000D01*
X109053633Y-95830000D02*
X109753633Y-96230000D01*
X109753633Y-96230000D02*
X109053633Y-96230000D01*
X102118633Y-96883333D02*
X102085299Y-96916666D01*
X102085299Y-96916666D02*
X102051966Y-96983333D01*
X102051966Y-96983333D02*
X102051966Y-97150000D01*
X102051966Y-97150000D02*
X102085299Y-97216666D01*
X102085299Y-97216666D02*
X102118633Y-97250000D01*
X102118633Y-97250000D02*
X102185299Y-97283333D01*
X102185299Y-97283333D02*
X102251966Y-97283333D01*
X102251966Y-97283333D02*
X102351966Y-97250000D01*
X102351966Y-97250000D02*
X102751966Y-96850000D01*
X102751966Y-96850000D02*
X102751966Y-97283333D01*
X102118633Y-97550000D02*
X102085299Y-97583333D01*
X102085299Y-97583333D02*
X102051966Y-97650000D01*
X102051966Y-97650000D02*
X102051966Y-97816667D01*
X102051966Y-97816667D02*
X102085299Y-97883333D01*
X102085299Y-97883333D02*
X102118633Y-97916667D01*
X102118633Y-97916667D02*
X102185299Y-97950000D01*
X102185299Y-97950000D02*
X102251966Y-97950000D01*
X102251966Y-97950000D02*
X102351966Y-97916667D01*
X102351966Y-97916667D02*
X102751966Y-97516667D01*
X102751966Y-97516667D02*
X102751966Y-97950000D01*
X102051966Y-98383334D02*
X102051966Y-98450000D01*
X102051966Y-98450000D02*
X102085299Y-98516667D01*
X102085299Y-98516667D02*
X102118633Y-98550000D01*
X102118633Y-98550000D02*
X102185299Y-98583334D01*
X102185299Y-98583334D02*
X102318633Y-98616667D01*
X102318633Y-98616667D02*
X102485299Y-98616667D01*
X102485299Y-98616667D02*
X102618633Y-98583334D01*
X102618633Y-98583334D02*
X102685299Y-98550000D01*
X102685299Y-98550000D02*
X102718633Y-98516667D01*
X102718633Y-98516667D02*
X102751966Y-98450000D01*
X102751966Y-98450000D02*
X102751966Y-98383334D01*
X102751966Y-98383334D02*
X102718633Y-98316667D01*
X102718633Y-98316667D02*
X102685299Y-98283334D01*
X102685299Y-98283334D02*
X102618633Y-98250000D01*
X102618633Y-98250000D02*
X102485299Y-98216667D01*
X102485299Y-98216667D02*
X102318633Y-98216667D01*
X102318633Y-98216667D02*
X102185299Y-98250000D01*
X102185299Y-98250000D02*
X102118633Y-98283334D01*
X102118633Y-98283334D02*
X102085299Y-98316667D01*
X102085299Y-98316667D02*
X102051966Y-98383334D01*
X102751966Y-99316667D02*
X102418633Y-99083334D01*
X102751966Y-98916667D02*
X102051966Y-98916667D01*
X102051966Y-98916667D02*
X102051966Y-99183334D01*
X102051966Y-99183334D02*
X102085299Y-99250001D01*
X102085299Y-99250001D02*
X102118633Y-99283334D01*
X102118633Y-99283334D02*
X102185299Y-99316667D01*
X102185299Y-99316667D02*
X102285299Y-99316667D01*
X102285299Y-99316667D02*
X102351966Y-99283334D01*
X102351966Y-99283334D02*
X102385299Y-99250001D01*
X102385299Y-99250001D02*
X102418633Y-99183334D01*
X102418633Y-99183334D02*
X102418633Y-98916667D01*
X104401966Y-97649999D02*
X104068633Y-97416666D01*
X104401966Y-97249999D02*
X103701966Y-97249999D01*
X103701966Y-97249999D02*
X103701966Y-97516666D01*
X103701966Y-97516666D02*
X103735299Y-97583333D01*
X103735299Y-97583333D02*
X103768633Y-97616666D01*
X103768633Y-97616666D02*
X103835299Y-97649999D01*
X103835299Y-97649999D02*
X103935299Y-97649999D01*
X103935299Y-97649999D02*
X104001966Y-97616666D01*
X104001966Y-97616666D02*
X104035299Y-97583333D01*
X104035299Y-97583333D02*
X104068633Y-97516666D01*
X104068633Y-97516666D02*
X104068633Y-97249999D01*
X103701966Y-97883333D02*
X103701966Y-98316666D01*
X103701966Y-98316666D02*
X103968633Y-98083333D01*
X103968633Y-98083333D02*
X103968633Y-98183333D01*
X103968633Y-98183333D02*
X104001966Y-98249999D01*
X104001966Y-98249999D02*
X104035299Y-98283333D01*
X104035299Y-98283333D02*
X104101966Y-98316666D01*
X104101966Y-98316666D02*
X104268633Y-98316666D01*
X104268633Y-98316666D02*
X104335299Y-98283333D01*
X104335299Y-98283333D02*
X104368633Y-98249999D01*
X104368633Y-98249999D02*
X104401966Y-98183333D01*
X104401966Y-98183333D02*
X104401966Y-97983333D01*
X104401966Y-97983333D02*
X104368633Y-97916666D01*
X104368633Y-97916666D02*
X104335299Y-97883333D01*
X103701966Y-98550000D02*
X103701966Y-98983333D01*
X103701966Y-98983333D02*
X103968633Y-98750000D01*
X103968633Y-98750000D02*
X103968633Y-98850000D01*
X103968633Y-98850000D02*
X104001966Y-98916666D01*
X104001966Y-98916666D02*
X104035299Y-98950000D01*
X104035299Y-98950000D02*
X104101966Y-98983333D01*
X104101966Y-98983333D02*
X104268633Y-98983333D01*
X104268633Y-98983333D02*
X104335299Y-98950000D01*
X104335299Y-98950000D02*
X104368633Y-98916666D01*
X104368633Y-98916666D02*
X104401966Y-98850000D01*
X104401966Y-98850000D02*
X104401966Y-98650000D01*
X104401966Y-98650000D02*
X104368633Y-98583333D01*
X104368633Y-98583333D02*
X104335299Y-98550000D01*
X106083333Y-89338633D02*
X106483333Y-89338633D01*
X106283333Y-89338633D02*
X106283333Y-88638633D01*
X106283333Y-88638633D02*
X106350000Y-88738633D01*
X106350000Y-88738633D02*
X106416667Y-88805300D01*
X106416667Y-88805300D02*
X106483333Y-88838633D01*
X105650000Y-88638633D02*
X105583333Y-88638633D01*
X105583333Y-88638633D02*
X105516666Y-88671966D01*
X105516666Y-88671966D02*
X105483333Y-88705300D01*
X105483333Y-88705300D02*
X105450000Y-88771966D01*
X105450000Y-88771966D02*
X105416666Y-88905300D01*
X105416666Y-88905300D02*
X105416666Y-89071966D01*
X105416666Y-89071966D02*
X105450000Y-89205300D01*
X105450000Y-89205300D02*
X105483333Y-89271966D01*
X105483333Y-89271966D02*
X105516666Y-89305300D01*
X105516666Y-89305300D02*
X105583333Y-89338633D01*
X105583333Y-89338633D02*
X105650000Y-89338633D01*
X105650000Y-89338633D02*
X105716666Y-89305300D01*
X105716666Y-89305300D02*
X105750000Y-89271966D01*
X105750000Y-89271966D02*
X105783333Y-89205300D01*
X105783333Y-89205300D02*
X105816666Y-89071966D01*
X105816666Y-89071966D02*
X105816666Y-88905300D01*
X105816666Y-88905300D02*
X105783333Y-88771966D01*
X105783333Y-88771966D02*
X105750000Y-88705300D01*
X105750000Y-88705300D02*
X105716666Y-88671966D01*
X105716666Y-88671966D02*
X105650000Y-88638633D01*
X104983333Y-88638633D02*
X104916666Y-88638633D01*
X104916666Y-88638633D02*
X104849999Y-88671966D01*
X104849999Y-88671966D02*
X104816666Y-88705300D01*
X104816666Y-88705300D02*
X104783333Y-88771966D01*
X104783333Y-88771966D02*
X104749999Y-88905300D01*
X104749999Y-88905300D02*
X104749999Y-89071966D01*
X104749999Y-89071966D02*
X104783333Y-89205300D01*
X104783333Y-89205300D02*
X104816666Y-89271966D01*
X104816666Y-89271966D02*
X104849999Y-89305300D01*
X104849999Y-89305300D02*
X104916666Y-89338633D01*
X104916666Y-89338633D02*
X104983333Y-89338633D01*
X104983333Y-89338633D02*
X105049999Y-89305300D01*
X105049999Y-89305300D02*
X105083333Y-89271966D01*
X105083333Y-89271966D02*
X105116666Y-89205300D01*
X105116666Y-89205300D02*
X105149999Y-89071966D01*
X105149999Y-89071966D02*
X105149999Y-88905300D01*
X105149999Y-88905300D02*
X105116666Y-88771966D01*
X105116666Y-88771966D02*
X105083333Y-88705300D01*
X105083333Y-88705300D02*
X105049999Y-88671966D01*
X105049999Y-88671966D02*
X104983333Y-88638633D01*
X104449999Y-88871966D02*
X104449999Y-89338633D01*
X104449999Y-88938633D02*
X104416666Y-88905300D01*
X104416666Y-88905300D02*
X104349999Y-88871966D01*
X104349999Y-88871966D02*
X104249999Y-88871966D01*
X104249999Y-88871966D02*
X104183332Y-88905300D01*
X104183332Y-88905300D02*
X104149999Y-88971966D01*
X104149999Y-88971966D02*
X104149999Y-89338633D01*
X105750000Y-90951966D02*
X105783333Y-90985300D01*
X105783333Y-90985300D02*
X105883333Y-91018633D01*
X105883333Y-91018633D02*
X105950000Y-91018633D01*
X105950000Y-91018633D02*
X106050000Y-90985300D01*
X106050000Y-90985300D02*
X106116667Y-90918633D01*
X106116667Y-90918633D02*
X106150000Y-90851966D01*
X106150000Y-90851966D02*
X106183333Y-90718633D01*
X106183333Y-90718633D02*
X106183333Y-90618633D01*
X106183333Y-90618633D02*
X106150000Y-90485300D01*
X106150000Y-90485300D02*
X106116667Y-90418633D01*
X106116667Y-90418633D02*
X106050000Y-90351966D01*
X106050000Y-90351966D02*
X105950000Y-90318633D01*
X105950000Y-90318633D02*
X105883333Y-90318633D01*
X105883333Y-90318633D02*
X105783333Y-90351966D01*
X105783333Y-90351966D02*
X105750000Y-90385300D01*
X105083333Y-91018633D02*
X105483333Y-91018633D01*
X105283333Y-91018633D02*
X105283333Y-90318633D01*
X105283333Y-90318633D02*
X105350000Y-90418633D01*
X105350000Y-90418633D02*
X105416667Y-90485300D01*
X105416667Y-90485300D02*
X105483333Y-90518633D01*
X104483333Y-90551966D02*
X104483333Y-91018633D01*
X104650000Y-90285300D02*
X104816666Y-90785300D01*
X104816666Y-90785300D02*
X104383333Y-90785300D01*
X121161966Y-82250000D02*
X121195300Y-82350000D01*
X121195300Y-82350000D02*
X121228633Y-82383333D01*
X121228633Y-82383333D02*
X121295300Y-82416666D01*
X121295300Y-82416666D02*
X121395300Y-82416666D01*
X121395300Y-82416666D02*
X121461966Y-82383333D01*
X121461966Y-82383333D02*
X121495300Y-82350000D01*
X121495300Y-82350000D02*
X121528633Y-82283333D01*
X121528633Y-82283333D02*
X121528633Y-82016666D01*
X121528633Y-82016666D02*
X120828633Y-82016666D01*
X120828633Y-82016666D02*
X120828633Y-82250000D01*
X120828633Y-82250000D02*
X120861966Y-82316666D01*
X120861966Y-82316666D02*
X120895300Y-82350000D01*
X120895300Y-82350000D02*
X120961966Y-82383333D01*
X120961966Y-82383333D02*
X121028633Y-82383333D01*
X121028633Y-82383333D02*
X121095300Y-82350000D01*
X121095300Y-82350000D02*
X121128633Y-82316666D01*
X121128633Y-82316666D02*
X121161966Y-82250000D01*
X121161966Y-82250000D02*
X121161966Y-82016666D01*
X121461966Y-83116666D02*
X121495300Y-83083333D01*
X121495300Y-83083333D02*
X121528633Y-82983333D01*
X121528633Y-82983333D02*
X121528633Y-82916666D01*
X121528633Y-82916666D02*
X121495300Y-82816666D01*
X121495300Y-82816666D02*
X121428633Y-82750000D01*
X121428633Y-82750000D02*
X121361966Y-82716666D01*
X121361966Y-82716666D02*
X121228633Y-82683333D01*
X121228633Y-82683333D02*
X121128633Y-82683333D01*
X121128633Y-82683333D02*
X120995300Y-82716666D01*
X120995300Y-82716666D02*
X120928633Y-82750000D01*
X120928633Y-82750000D02*
X120861966Y-82816666D01*
X120861966Y-82816666D02*
X120828633Y-82916666D01*
X120828633Y-82916666D02*
X120828633Y-82983333D01*
X120828633Y-82983333D02*
X120861966Y-83083333D01*
X120861966Y-83083333D02*
X120895300Y-83116666D01*
X121128633Y-83516666D02*
X121095300Y-83450000D01*
X121095300Y-83450000D02*
X121061966Y-83416666D01*
X121061966Y-83416666D02*
X120995300Y-83383333D01*
X120995300Y-83383333D02*
X120961966Y-83383333D01*
X120961966Y-83383333D02*
X120895300Y-83416666D01*
X120895300Y-83416666D02*
X120861966Y-83450000D01*
X120861966Y-83450000D02*
X120828633Y-83516666D01*
X120828633Y-83516666D02*
X120828633Y-83650000D01*
X120828633Y-83650000D02*
X120861966Y-83716666D01*
X120861966Y-83716666D02*
X120895300Y-83750000D01*
X120895300Y-83750000D02*
X120961966Y-83783333D01*
X120961966Y-83783333D02*
X120995300Y-83783333D01*
X120995300Y-83783333D02*
X121061966Y-83750000D01*
X121061966Y-83750000D02*
X121095300Y-83716666D01*
X121095300Y-83716666D02*
X121128633Y-83650000D01*
X121128633Y-83650000D02*
X121128633Y-83516666D01*
X121128633Y-83516666D02*
X121161966Y-83450000D01*
X121161966Y-83450000D02*
X121195300Y-83416666D01*
X121195300Y-83416666D02*
X121261966Y-83383333D01*
X121261966Y-83383333D02*
X121395300Y-83383333D01*
X121395300Y-83383333D02*
X121461966Y-83416666D01*
X121461966Y-83416666D02*
X121495300Y-83450000D01*
X121495300Y-83450000D02*
X121528633Y-83516666D01*
X121528633Y-83516666D02*
X121528633Y-83650000D01*
X121528633Y-83650000D02*
X121495300Y-83716666D01*
X121495300Y-83716666D02*
X121461966Y-83750000D01*
X121461966Y-83750000D02*
X121395300Y-83783333D01*
X121395300Y-83783333D02*
X121261966Y-83783333D01*
X121261966Y-83783333D02*
X121195300Y-83750000D01*
X121195300Y-83750000D02*
X121161966Y-83716666D01*
X121161966Y-83716666D02*
X121128633Y-83650000D01*
X121528633Y-84450000D02*
X121528633Y-84050000D01*
X121528633Y-84250000D02*
X120828633Y-84250000D01*
X120828633Y-84250000D02*
X120928633Y-84183333D01*
X120928633Y-84183333D02*
X120995300Y-84116667D01*
X120995300Y-84116667D02*
X121028633Y-84050000D01*
X120828633Y-84683334D02*
X120828633Y-85150000D01*
X120828633Y-85150000D02*
X121528633Y-84850000D01*
X118876666Y-83935300D02*
X118943333Y-83901966D01*
X118943333Y-83901966D02*
X119010000Y-83835300D01*
X119010000Y-83835300D02*
X119110000Y-83735300D01*
X119110000Y-83735300D02*
X119176666Y-83701966D01*
X119176666Y-83701966D02*
X119243333Y-83701966D01*
X119210000Y-83868633D02*
X119276666Y-83835300D01*
X119276666Y-83835300D02*
X119343333Y-83768633D01*
X119343333Y-83768633D02*
X119376666Y-83635300D01*
X119376666Y-83635300D02*
X119376666Y-83401966D01*
X119376666Y-83401966D02*
X119343333Y-83268633D01*
X119343333Y-83268633D02*
X119276666Y-83201966D01*
X119276666Y-83201966D02*
X119210000Y-83168633D01*
X119210000Y-83168633D02*
X119076666Y-83168633D01*
X119076666Y-83168633D02*
X119010000Y-83201966D01*
X119010000Y-83201966D02*
X118943333Y-83268633D01*
X118943333Y-83268633D02*
X118910000Y-83401966D01*
X118910000Y-83401966D02*
X118910000Y-83635300D01*
X118910000Y-83635300D02*
X118943333Y-83768633D01*
X118943333Y-83768633D02*
X119010000Y-83835300D01*
X119010000Y-83835300D02*
X119076666Y-83868633D01*
X119076666Y-83868633D02*
X119210000Y-83868633D01*
X118243333Y-83868633D02*
X118643333Y-83868633D01*
X118443333Y-83868633D02*
X118443333Y-83168633D01*
X118443333Y-83168633D02*
X118510000Y-83268633D01*
X118510000Y-83268633D02*
X118576667Y-83335300D01*
X118576667Y-83335300D02*
X118643333Y-83368633D01*
X114426666Y-64705300D02*
X114393333Y-64671966D01*
X114393333Y-64671966D02*
X114326666Y-64638633D01*
X114326666Y-64638633D02*
X114160000Y-64638633D01*
X114160000Y-64638633D02*
X114093333Y-64671966D01*
X114093333Y-64671966D02*
X114060000Y-64705300D01*
X114060000Y-64705300D02*
X114026666Y-64771966D01*
X114026666Y-64771966D02*
X114026666Y-64838633D01*
X114026666Y-64838633D02*
X114060000Y-64938633D01*
X114060000Y-64938633D02*
X114460000Y-65338633D01*
X114460000Y-65338633D02*
X114026666Y-65338633D01*
X113759999Y-64705300D02*
X113726666Y-64671966D01*
X113726666Y-64671966D02*
X113659999Y-64638633D01*
X113659999Y-64638633D02*
X113493333Y-64638633D01*
X113493333Y-64638633D02*
X113426666Y-64671966D01*
X113426666Y-64671966D02*
X113393333Y-64705300D01*
X113393333Y-64705300D02*
X113359999Y-64771966D01*
X113359999Y-64771966D02*
X113359999Y-64838633D01*
X113359999Y-64838633D02*
X113393333Y-64938633D01*
X113393333Y-64938633D02*
X113793333Y-65338633D01*
X113793333Y-65338633D02*
X113359999Y-65338633D01*
X112926666Y-64638633D02*
X112859999Y-64638633D01*
X112859999Y-64638633D02*
X112793332Y-64671966D01*
X112793332Y-64671966D02*
X112759999Y-64705300D01*
X112759999Y-64705300D02*
X112726666Y-64771966D01*
X112726666Y-64771966D02*
X112693332Y-64905300D01*
X112693332Y-64905300D02*
X112693332Y-65071966D01*
X112693332Y-65071966D02*
X112726666Y-65205300D01*
X112726666Y-65205300D02*
X112759999Y-65271966D01*
X112759999Y-65271966D02*
X112793332Y-65305300D01*
X112793332Y-65305300D02*
X112859999Y-65338633D01*
X112859999Y-65338633D02*
X112926666Y-65338633D01*
X112926666Y-65338633D02*
X112993332Y-65305300D01*
X112993332Y-65305300D02*
X113026666Y-65271966D01*
X113026666Y-65271966D02*
X113059999Y-65205300D01*
X113059999Y-65205300D02*
X113093332Y-65071966D01*
X113093332Y-65071966D02*
X113093332Y-64905300D01*
X113093332Y-64905300D02*
X113059999Y-64771966D01*
X113059999Y-64771966D02*
X113026666Y-64705300D01*
X113026666Y-64705300D02*
X112993332Y-64671966D01*
X112993332Y-64671966D02*
X112926666Y-64638633D01*
X111993332Y-65338633D02*
X112226665Y-65005300D01*
X112393332Y-65338633D02*
X112393332Y-64638633D01*
X112393332Y-64638633D02*
X112126665Y-64638633D01*
X112126665Y-64638633D02*
X112059999Y-64671966D01*
X112059999Y-64671966D02*
X112026665Y-64705300D01*
X112026665Y-64705300D02*
X111993332Y-64771966D01*
X111993332Y-64771966D02*
X111993332Y-64871966D01*
X111993332Y-64871966D02*
X112026665Y-64938633D01*
X112026665Y-64938633D02*
X112059999Y-64971966D01*
X112059999Y-64971966D02*
X112126665Y-65005300D01*
X112126665Y-65005300D02*
X112393332Y-65005300D01*
X113660000Y-66988633D02*
X113893333Y-66655300D01*
X114060000Y-66988633D02*
X114060000Y-66288633D01*
X114060000Y-66288633D02*
X113793333Y-66288633D01*
X113793333Y-66288633D02*
X113726667Y-66321966D01*
X113726667Y-66321966D02*
X113693333Y-66355300D01*
X113693333Y-66355300D02*
X113660000Y-66421966D01*
X113660000Y-66421966D02*
X113660000Y-66521966D01*
X113660000Y-66521966D02*
X113693333Y-66588633D01*
X113693333Y-66588633D02*
X113726667Y-66621966D01*
X113726667Y-66621966D02*
X113793333Y-66655300D01*
X113793333Y-66655300D02*
X114060000Y-66655300D01*
X113426667Y-66288633D02*
X112993333Y-66288633D01*
X112993333Y-66288633D02*
X113226667Y-66555300D01*
X113226667Y-66555300D02*
X113126667Y-66555300D01*
X113126667Y-66555300D02*
X113060000Y-66588633D01*
X113060000Y-66588633D02*
X113026667Y-66621966D01*
X113026667Y-66621966D02*
X112993333Y-66688633D01*
X112993333Y-66688633D02*
X112993333Y-66855300D01*
X112993333Y-66855300D02*
X113026667Y-66921966D01*
X113026667Y-66921966D02*
X113060000Y-66955300D01*
X113060000Y-66955300D02*
X113126667Y-66988633D01*
X113126667Y-66988633D02*
X113326667Y-66988633D01*
X113326667Y-66988633D02*
X113393333Y-66955300D01*
X113393333Y-66955300D02*
X113426667Y-66921966D01*
X112393333Y-66521966D02*
X112393333Y-66988633D01*
X112560000Y-66255300D02*
X112726666Y-66755300D01*
X112726666Y-66755300D02*
X112293333Y-66755300D01*
X108131966Y-97216666D02*
X108598633Y-97216666D01*
X107865300Y-97050000D02*
X108365300Y-96883333D01*
X108365300Y-96883333D02*
X108365300Y-97316666D01*
X107898633Y-97516667D02*
X107898633Y-97983333D01*
X107898633Y-97983333D02*
X108598633Y-97683333D01*
X107898633Y-98383334D02*
X107898633Y-98450000D01*
X107898633Y-98450000D02*
X107931966Y-98516667D01*
X107931966Y-98516667D02*
X107965300Y-98550000D01*
X107965300Y-98550000D02*
X108031966Y-98583334D01*
X108031966Y-98583334D02*
X108165300Y-98616667D01*
X108165300Y-98616667D02*
X108331966Y-98616667D01*
X108331966Y-98616667D02*
X108465300Y-98583334D01*
X108465300Y-98583334D02*
X108531966Y-98550000D01*
X108531966Y-98550000D02*
X108565300Y-98516667D01*
X108565300Y-98516667D02*
X108598633Y-98450000D01*
X108598633Y-98450000D02*
X108598633Y-98383334D01*
X108598633Y-98383334D02*
X108565300Y-98316667D01*
X108565300Y-98316667D02*
X108531966Y-98283334D01*
X108531966Y-98283334D02*
X108465300Y-98250000D01*
X108465300Y-98250000D02*
X108331966Y-98216667D01*
X108331966Y-98216667D02*
X108165300Y-98216667D01*
X108165300Y-98216667D02*
X108031966Y-98250000D01*
X108031966Y-98250000D02*
X107965300Y-98283334D01*
X107965300Y-98283334D02*
X107931966Y-98316667D01*
X107931966Y-98316667D02*
X107898633Y-98383334D01*
X108598633Y-99316667D02*
X108265300Y-99083334D01*
X108598633Y-98916667D02*
X107898633Y-98916667D01*
X107898633Y-98916667D02*
X107898633Y-99183334D01*
X107898633Y-99183334D02*
X107931966Y-99250001D01*
X107931966Y-99250001D02*
X107965300Y-99283334D01*
X107965300Y-99283334D02*
X108031966Y-99316667D01*
X108031966Y-99316667D02*
X108131966Y-99316667D01*
X108131966Y-99316667D02*
X108198633Y-99283334D01*
X108198633Y-99283334D02*
X108231966Y-99250001D01*
X108231966Y-99250001D02*
X108265300Y-99183334D01*
X108265300Y-99183334D02*
X108265300Y-98916667D01*
X106948633Y-97649999D02*
X106615300Y-97416666D01*
X106948633Y-97249999D02*
X106248633Y-97249999D01*
X106248633Y-97249999D02*
X106248633Y-97516666D01*
X106248633Y-97516666D02*
X106281966Y-97583333D01*
X106281966Y-97583333D02*
X106315300Y-97616666D01*
X106315300Y-97616666D02*
X106381966Y-97649999D01*
X106381966Y-97649999D02*
X106481966Y-97649999D01*
X106481966Y-97649999D02*
X106548633Y-97616666D01*
X106548633Y-97616666D02*
X106581966Y-97583333D01*
X106581966Y-97583333D02*
X106615300Y-97516666D01*
X106615300Y-97516666D02*
X106615300Y-97249999D01*
X106248633Y-97883333D02*
X106248633Y-98316666D01*
X106248633Y-98316666D02*
X106515300Y-98083333D01*
X106515300Y-98083333D02*
X106515300Y-98183333D01*
X106515300Y-98183333D02*
X106548633Y-98249999D01*
X106548633Y-98249999D02*
X106581966Y-98283333D01*
X106581966Y-98283333D02*
X106648633Y-98316666D01*
X106648633Y-98316666D02*
X106815300Y-98316666D01*
X106815300Y-98316666D02*
X106881966Y-98283333D01*
X106881966Y-98283333D02*
X106915300Y-98249999D01*
X106915300Y-98249999D02*
X106948633Y-98183333D01*
X106948633Y-98183333D02*
X106948633Y-97983333D01*
X106948633Y-97983333D02*
X106915300Y-97916666D01*
X106915300Y-97916666D02*
X106881966Y-97883333D01*
X106315300Y-98583333D02*
X106281966Y-98616666D01*
X106281966Y-98616666D02*
X106248633Y-98683333D01*
X106248633Y-98683333D02*
X106248633Y-98850000D01*
X106248633Y-98850000D02*
X106281966Y-98916666D01*
X106281966Y-98916666D02*
X106315300Y-98950000D01*
X106315300Y-98950000D02*
X106381966Y-98983333D01*
X106381966Y-98983333D02*
X106448633Y-98983333D01*
X106448633Y-98983333D02*
X106548633Y-98950000D01*
X106548633Y-98950000D02*
X106948633Y-98550000D01*
X106948633Y-98550000D02*
X106948633Y-98983333D01*
X143088633Y-36013333D02*
X143088633Y-35613333D01*
X143088633Y-35813333D02*
X142388633Y-35813333D01*
X142388633Y-35813333D02*
X142488633Y-35746666D01*
X142488633Y-35746666D02*
X142555300Y-35680000D01*
X142555300Y-35680000D02*
X142588633Y-35613333D01*
X142388633Y-36446667D02*
X142388633Y-36513333D01*
X142388633Y-36513333D02*
X142421966Y-36580000D01*
X142421966Y-36580000D02*
X142455300Y-36613333D01*
X142455300Y-36613333D02*
X142521966Y-36646667D01*
X142521966Y-36646667D02*
X142655300Y-36680000D01*
X142655300Y-36680000D02*
X142821966Y-36680000D01*
X142821966Y-36680000D02*
X142955300Y-36646667D01*
X142955300Y-36646667D02*
X143021966Y-36613333D01*
X143021966Y-36613333D02*
X143055300Y-36580000D01*
X143055300Y-36580000D02*
X143088633Y-36513333D01*
X143088633Y-36513333D02*
X143088633Y-36446667D01*
X143088633Y-36446667D02*
X143055300Y-36380000D01*
X143055300Y-36380000D02*
X143021966Y-36346667D01*
X143021966Y-36346667D02*
X142955300Y-36313333D01*
X142955300Y-36313333D02*
X142821966Y-36280000D01*
X142821966Y-36280000D02*
X142655300Y-36280000D01*
X142655300Y-36280000D02*
X142521966Y-36313333D01*
X142521966Y-36313333D02*
X142455300Y-36346667D01*
X142455300Y-36346667D02*
X142421966Y-36380000D01*
X142421966Y-36380000D02*
X142388633Y-36446667D01*
X143088633Y-36980000D02*
X142388633Y-36980000D01*
X142821966Y-37046667D02*
X143088633Y-37246667D01*
X142621966Y-37246667D02*
X142888633Y-36980000D01*
X141438633Y-36313333D02*
X141105300Y-36080000D01*
X141438633Y-35913333D02*
X140738633Y-35913333D01*
X140738633Y-35913333D02*
X140738633Y-36180000D01*
X140738633Y-36180000D02*
X140771966Y-36246667D01*
X140771966Y-36246667D02*
X140805300Y-36280000D01*
X140805300Y-36280000D02*
X140871966Y-36313333D01*
X140871966Y-36313333D02*
X140971966Y-36313333D01*
X140971966Y-36313333D02*
X141038633Y-36280000D01*
X141038633Y-36280000D02*
X141071966Y-36246667D01*
X141071966Y-36246667D02*
X141105300Y-36180000D01*
X141105300Y-36180000D02*
X141105300Y-35913333D01*
X140738633Y-36546667D02*
X140738633Y-37013333D01*
X140738633Y-37013333D02*
X141438633Y-36713333D01*
X144733333Y-122748633D02*
X144866666Y-122748633D01*
X144866666Y-122748633D02*
X144933333Y-122781966D01*
X144933333Y-122781966D02*
X144966666Y-122815300D01*
X144966666Y-122815300D02*
X145033333Y-122915300D01*
X145033333Y-122915300D02*
X145066666Y-123048633D01*
X145066666Y-123048633D02*
X145066666Y-123315300D01*
X145066666Y-123315300D02*
X145033333Y-123381966D01*
X145033333Y-123381966D02*
X145000000Y-123415300D01*
X145000000Y-123415300D02*
X144933333Y-123448633D01*
X144933333Y-123448633D02*
X144800000Y-123448633D01*
X144800000Y-123448633D02*
X144733333Y-123415300D01*
X144733333Y-123415300D02*
X144700000Y-123381966D01*
X144700000Y-123381966D02*
X144666666Y-123315300D01*
X144666666Y-123315300D02*
X144666666Y-123148633D01*
X144666666Y-123148633D02*
X144700000Y-123081966D01*
X144700000Y-123081966D02*
X144733333Y-123048633D01*
X144733333Y-123048633D02*
X144800000Y-123015300D01*
X144800000Y-123015300D02*
X144933333Y-123015300D01*
X144933333Y-123015300D02*
X145000000Y-123048633D01*
X145000000Y-123048633D02*
X145033333Y-123081966D01*
X145033333Y-123081966D02*
X145066666Y-123148633D01*
X144366666Y-123448633D02*
X144366666Y-122748633D01*
X144299999Y-123181966D02*
X144099999Y-123448633D01*
X144099999Y-122981966D02*
X144366666Y-123248633D01*
X143699999Y-123048633D02*
X143766666Y-123015300D01*
X143766666Y-123015300D02*
X143799999Y-122981966D01*
X143799999Y-122981966D02*
X143833332Y-122915300D01*
X143833332Y-122915300D02*
X143833332Y-122881966D01*
X143833332Y-122881966D02*
X143799999Y-122815300D01*
X143799999Y-122815300D02*
X143766666Y-122781966D01*
X143766666Y-122781966D02*
X143699999Y-122748633D01*
X143699999Y-122748633D02*
X143566666Y-122748633D01*
X143566666Y-122748633D02*
X143499999Y-122781966D01*
X143499999Y-122781966D02*
X143466666Y-122815300D01*
X143466666Y-122815300D02*
X143433332Y-122881966D01*
X143433332Y-122881966D02*
X143433332Y-122915300D01*
X143433332Y-122915300D02*
X143466666Y-122981966D01*
X143466666Y-122981966D02*
X143499999Y-123015300D01*
X143499999Y-123015300D02*
X143566666Y-123048633D01*
X143566666Y-123048633D02*
X143699999Y-123048633D01*
X143699999Y-123048633D02*
X143766666Y-123081966D01*
X143766666Y-123081966D02*
X143799999Y-123115300D01*
X143799999Y-123115300D02*
X143833332Y-123181966D01*
X143833332Y-123181966D02*
X143833332Y-123315300D01*
X143833332Y-123315300D02*
X143799999Y-123381966D01*
X143799999Y-123381966D02*
X143766666Y-123415300D01*
X143766666Y-123415300D02*
X143699999Y-123448633D01*
X143699999Y-123448633D02*
X143566666Y-123448633D01*
X143566666Y-123448633D02*
X143499999Y-123415300D01*
X143499999Y-123415300D02*
X143466666Y-123381966D01*
X143466666Y-123381966D02*
X143433332Y-123315300D01*
X143433332Y-123315300D02*
X143433332Y-123181966D01*
X143433332Y-123181966D02*
X143466666Y-123115300D01*
X143466666Y-123115300D02*
X143499999Y-123081966D01*
X143499999Y-123081966D02*
X143566666Y-123048633D01*
X144700000Y-121798633D02*
X144933333Y-121465300D01*
X145100000Y-121798633D02*
X145100000Y-121098633D01*
X145100000Y-121098633D02*
X144833333Y-121098633D01*
X144833333Y-121098633D02*
X144766667Y-121131966D01*
X144766667Y-121131966D02*
X144733333Y-121165300D01*
X144733333Y-121165300D02*
X144700000Y-121231966D01*
X144700000Y-121231966D02*
X144700000Y-121331966D01*
X144700000Y-121331966D02*
X144733333Y-121398633D01*
X144733333Y-121398633D02*
X144766667Y-121431966D01*
X144766667Y-121431966D02*
X144833333Y-121465300D01*
X144833333Y-121465300D02*
X145100000Y-121465300D01*
X144466667Y-121098633D02*
X144033333Y-121098633D01*
X144033333Y-121098633D02*
X144266667Y-121365300D01*
X144266667Y-121365300D02*
X144166667Y-121365300D01*
X144166667Y-121365300D02*
X144100000Y-121398633D01*
X144100000Y-121398633D02*
X144066667Y-121431966D01*
X144066667Y-121431966D02*
X144033333Y-121498633D01*
X144033333Y-121498633D02*
X144033333Y-121665300D01*
X144033333Y-121665300D02*
X144066667Y-121731966D01*
X144066667Y-121731966D02*
X144100000Y-121765300D01*
X144100000Y-121765300D02*
X144166667Y-121798633D01*
X144166667Y-121798633D02*
X144366667Y-121798633D01*
X144366667Y-121798633D02*
X144433333Y-121765300D01*
X144433333Y-121765300D02*
X144466667Y-121731966D01*
X143700000Y-121798633D02*
X143566666Y-121798633D01*
X143566666Y-121798633D02*
X143500000Y-121765300D01*
X143500000Y-121765300D02*
X143466666Y-121731966D01*
X143466666Y-121731966D02*
X143400000Y-121631966D01*
X143400000Y-121631966D02*
X143366666Y-121498633D01*
X143366666Y-121498633D02*
X143366666Y-121231966D01*
X143366666Y-121231966D02*
X143400000Y-121165300D01*
X143400000Y-121165300D02*
X143433333Y-121131966D01*
X143433333Y-121131966D02*
X143500000Y-121098633D01*
X143500000Y-121098633D02*
X143633333Y-121098633D01*
X143633333Y-121098633D02*
X143700000Y-121131966D01*
X143700000Y-121131966D02*
X143733333Y-121165300D01*
X143733333Y-121165300D02*
X143766666Y-121231966D01*
X143766666Y-121231966D02*
X143766666Y-121398633D01*
X143766666Y-121398633D02*
X143733333Y-121465300D01*
X143733333Y-121465300D02*
X143700000Y-121498633D01*
X143700000Y-121498633D02*
X143633333Y-121531966D01*
X143633333Y-121531966D02*
X143500000Y-121531966D01*
X143500000Y-121531966D02*
X143433333Y-121498633D01*
X143433333Y-121498633D02*
X143400000Y-121465300D01*
X143400000Y-121465300D02*
X143366666Y-121398633D01*
X72613333Y-119278633D02*
X72746666Y-119278633D01*
X72746666Y-119278633D02*
X72813333Y-119311966D01*
X72813333Y-119311966D02*
X72846666Y-119345300D01*
X72846666Y-119345300D02*
X72913333Y-119445300D01*
X72913333Y-119445300D02*
X72946666Y-119578633D01*
X72946666Y-119578633D02*
X72946666Y-119845300D01*
X72946666Y-119845300D02*
X72913333Y-119911966D01*
X72913333Y-119911966D02*
X72880000Y-119945300D01*
X72880000Y-119945300D02*
X72813333Y-119978633D01*
X72813333Y-119978633D02*
X72680000Y-119978633D01*
X72680000Y-119978633D02*
X72613333Y-119945300D01*
X72613333Y-119945300D02*
X72580000Y-119911966D01*
X72580000Y-119911966D02*
X72546666Y-119845300D01*
X72546666Y-119845300D02*
X72546666Y-119678633D01*
X72546666Y-119678633D02*
X72580000Y-119611966D01*
X72580000Y-119611966D02*
X72613333Y-119578633D01*
X72613333Y-119578633D02*
X72680000Y-119545300D01*
X72680000Y-119545300D02*
X72813333Y-119545300D01*
X72813333Y-119545300D02*
X72880000Y-119578633D01*
X72880000Y-119578633D02*
X72913333Y-119611966D01*
X72913333Y-119611966D02*
X72946666Y-119678633D01*
X72246666Y-119978633D02*
X72246666Y-119278633D01*
X72179999Y-119711966D02*
X71979999Y-119978633D01*
X71979999Y-119511966D02*
X72246666Y-119778633D01*
X71713332Y-119345300D02*
X71679999Y-119311966D01*
X71679999Y-119311966D02*
X71613332Y-119278633D01*
X71613332Y-119278633D02*
X71446666Y-119278633D01*
X71446666Y-119278633D02*
X71379999Y-119311966D01*
X71379999Y-119311966D02*
X71346666Y-119345300D01*
X71346666Y-119345300D02*
X71313332Y-119411966D01*
X71313332Y-119411966D02*
X71313332Y-119478633D01*
X71313332Y-119478633D02*
X71346666Y-119578633D01*
X71346666Y-119578633D02*
X71746666Y-119978633D01*
X71746666Y-119978633D02*
X71313332Y-119978633D01*
X72580000Y-118328633D02*
X72813333Y-117995300D01*
X72980000Y-118328633D02*
X72980000Y-117628633D01*
X72980000Y-117628633D02*
X72713333Y-117628633D01*
X72713333Y-117628633D02*
X72646667Y-117661966D01*
X72646667Y-117661966D02*
X72613333Y-117695300D01*
X72613333Y-117695300D02*
X72580000Y-117761966D01*
X72580000Y-117761966D02*
X72580000Y-117861966D01*
X72580000Y-117861966D02*
X72613333Y-117928633D01*
X72613333Y-117928633D02*
X72646667Y-117961966D01*
X72646667Y-117961966D02*
X72713333Y-117995300D01*
X72713333Y-117995300D02*
X72980000Y-117995300D01*
X71980000Y-117861966D02*
X71980000Y-118328633D01*
X72146667Y-117595300D02*
X72313333Y-118095300D01*
X72313333Y-118095300D02*
X71880000Y-118095300D01*
X71646666Y-117695300D02*
X71613333Y-117661966D01*
X71613333Y-117661966D02*
X71546666Y-117628633D01*
X71546666Y-117628633D02*
X71380000Y-117628633D01*
X71380000Y-117628633D02*
X71313333Y-117661966D01*
X71313333Y-117661966D02*
X71280000Y-117695300D01*
X71280000Y-117695300D02*
X71246666Y-117761966D01*
X71246666Y-117761966D02*
X71246666Y-117828633D01*
X71246666Y-117828633D02*
X71280000Y-117928633D01*
X71280000Y-117928633D02*
X71680000Y-118328633D01*
X71680000Y-118328633D02*
X71246666Y-118328633D01*
X112650000Y-105788633D02*
X112783333Y-105788633D01*
X112783333Y-105788633D02*
X112850000Y-105821966D01*
X112850000Y-105821966D02*
X112883333Y-105855300D01*
X112883333Y-105855300D02*
X112950000Y-105955300D01*
X112950000Y-105955300D02*
X112983333Y-106088633D01*
X112983333Y-106088633D02*
X112983333Y-106355300D01*
X112983333Y-106355300D02*
X112950000Y-106421966D01*
X112950000Y-106421966D02*
X112916667Y-106455300D01*
X112916667Y-106455300D02*
X112850000Y-106488633D01*
X112850000Y-106488633D02*
X112716667Y-106488633D01*
X112716667Y-106488633D02*
X112650000Y-106455300D01*
X112650000Y-106455300D02*
X112616667Y-106421966D01*
X112616667Y-106421966D02*
X112583333Y-106355300D01*
X112583333Y-106355300D02*
X112583333Y-106188633D01*
X112583333Y-106188633D02*
X112616667Y-106121966D01*
X112616667Y-106121966D02*
X112650000Y-106088633D01*
X112650000Y-106088633D02*
X112716667Y-106055300D01*
X112716667Y-106055300D02*
X112850000Y-106055300D01*
X112850000Y-106055300D02*
X112916667Y-106088633D01*
X112916667Y-106088633D02*
X112950000Y-106121966D01*
X112950000Y-106121966D02*
X112983333Y-106188633D01*
X112183333Y-106088633D02*
X112250000Y-106055300D01*
X112250000Y-106055300D02*
X112283333Y-106021966D01*
X112283333Y-106021966D02*
X112316666Y-105955300D01*
X112316666Y-105955300D02*
X112316666Y-105921966D01*
X112316666Y-105921966D02*
X112283333Y-105855300D01*
X112283333Y-105855300D02*
X112250000Y-105821966D01*
X112250000Y-105821966D02*
X112183333Y-105788633D01*
X112183333Y-105788633D02*
X112050000Y-105788633D01*
X112050000Y-105788633D02*
X111983333Y-105821966D01*
X111983333Y-105821966D02*
X111950000Y-105855300D01*
X111950000Y-105855300D02*
X111916666Y-105921966D01*
X111916666Y-105921966D02*
X111916666Y-105955300D01*
X111916666Y-105955300D02*
X111950000Y-106021966D01*
X111950000Y-106021966D02*
X111983333Y-106055300D01*
X111983333Y-106055300D02*
X112050000Y-106088633D01*
X112050000Y-106088633D02*
X112183333Y-106088633D01*
X112183333Y-106088633D02*
X112250000Y-106121966D01*
X112250000Y-106121966D02*
X112283333Y-106155300D01*
X112283333Y-106155300D02*
X112316666Y-106221966D01*
X112316666Y-106221966D02*
X112316666Y-106355300D01*
X112316666Y-106355300D02*
X112283333Y-106421966D01*
X112283333Y-106421966D02*
X112250000Y-106455300D01*
X112250000Y-106455300D02*
X112183333Y-106488633D01*
X112183333Y-106488633D02*
X112050000Y-106488633D01*
X112050000Y-106488633D02*
X111983333Y-106455300D01*
X111983333Y-106455300D02*
X111950000Y-106421966D01*
X111950000Y-106421966D02*
X111916666Y-106355300D01*
X111916666Y-106355300D02*
X111916666Y-106221966D01*
X111916666Y-106221966D02*
X111950000Y-106155300D01*
X111950000Y-106155300D02*
X111983333Y-106121966D01*
X111983333Y-106121966D02*
X112050000Y-106088633D01*
X111216666Y-106488633D02*
X111449999Y-106155300D01*
X111616666Y-106488633D02*
X111616666Y-105788633D01*
X111616666Y-105788633D02*
X111349999Y-105788633D01*
X111349999Y-105788633D02*
X111283333Y-105821966D01*
X111283333Y-105821966D02*
X111249999Y-105855300D01*
X111249999Y-105855300D02*
X111216666Y-105921966D01*
X111216666Y-105921966D02*
X111216666Y-106021966D01*
X111216666Y-106021966D02*
X111249999Y-106088633D01*
X111249999Y-106088633D02*
X111283333Y-106121966D01*
X111283333Y-106121966D02*
X111349999Y-106155300D01*
X111349999Y-106155300D02*
X111616666Y-106155300D01*
X112550000Y-104838633D02*
X112783333Y-104505300D01*
X112950000Y-104838633D02*
X112950000Y-104138633D01*
X112950000Y-104138633D02*
X112683333Y-104138633D01*
X112683333Y-104138633D02*
X112616667Y-104171966D01*
X112616667Y-104171966D02*
X112583333Y-104205300D01*
X112583333Y-104205300D02*
X112550000Y-104271966D01*
X112550000Y-104271966D02*
X112550000Y-104371966D01*
X112550000Y-104371966D02*
X112583333Y-104438633D01*
X112583333Y-104438633D02*
X112616667Y-104471966D01*
X112616667Y-104471966D02*
X112683333Y-104505300D01*
X112683333Y-104505300D02*
X112950000Y-104505300D01*
X112283333Y-104205300D02*
X112250000Y-104171966D01*
X112250000Y-104171966D02*
X112183333Y-104138633D01*
X112183333Y-104138633D02*
X112016667Y-104138633D01*
X112016667Y-104138633D02*
X111950000Y-104171966D01*
X111950000Y-104171966D02*
X111916667Y-104205300D01*
X111916667Y-104205300D02*
X111883333Y-104271966D01*
X111883333Y-104271966D02*
X111883333Y-104338633D01*
X111883333Y-104338633D02*
X111916667Y-104438633D01*
X111916667Y-104438633D02*
X112316667Y-104838633D01*
X112316667Y-104838633D02*
X111883333Y-104838633D01*
X111216666Y-104838633D02*
X111616666Y-104838633D01*
X111416666Y-104838633D02*
X111416666Y-104138633D01*
X111416666Y-104138633D02*
X111483333Y-104238633D01*
X111483333Y-104238633D02*
X111550000Y-104305300D01*
X111550000Y-104305300D02*
X111616666Y-104338633D01*
X103038633Y-97216666D02*
X103505300Y-97216666D01*
X102771967Y-97050000D02*
X103271967Y-96883333D01*
X103271967Y-96883333D02*
X103271967Y-97316666D01*
X102805300Y-97516667D02*
X102805300Y-97983333D01*
X102805300Y-97983333D02*
X103505300Y-97683333D01*
X102805300Y-98383334D02*
X102805300Y-98450000D01*
X102805300Y-98450000D02*
X102838633Y-98516667D01*
X102838633Y-98516667D02*
X102871967Y-98550000D01*
X102871967Y-98550000D02*
X102938633Y-98583334D01*
X102938633Y-98583334D02*
X103071967Y-98616667D01*
X103071967Y-98616667D02*
X103238633Y-98616667D01*
X103238633Y-98616667D02*
X103371967Y-98583334D01*
X103371967Y-98583334D02*
X103438633Y-98550000D01*
X103438633Y-98550000D02*
X103471967Y-98516667D01*
X103471967Y-98516667D02*
X103505300Y-98450000D01*
X103505300Y-98450000D02*
X103505300Y-98383334D01*
X103505300Y-98383334D02*
X103471967Y-98316667D01*
X103471967Y-98316667D02*
X103438633Y-98283334D01*
X103438633Y-98283334D02*
X103371967Y-98250000D01*
X103371967Y-98250000D02*
X103238633Y-98216667D01*
X103238633Y-98216667D02*
X103071967Y-98216667D01*
X103071967Y-98216667D02*
X102938633Y-98250000D01*
X102938633Y-98250000D02*
X102871967Y-98283334D01*
X102871967Y-98283334D02*
X102838633Y-98316667D01*
X102838633Y-98316667D02*
X102805300Y-98383334D01*
X103505300Y-99316667D02*
X103171967Y-99083334D01*
X103505300Y-98916667D02*
X102805300Y-98916667D01*
X102805300Y-98916667D02*
X102805300Y-99183334D01*
X102805300Y-99183334D02*
X102838633Y-99250001D01*
X102838633Y-99250001D02*
X102871967Y-99283334D01*
X102871967Y-99283334D02*
X102938633Y-99316667D01*
X102938633Y-99316667D02*
X103038633Y-99316667D01*
X103038633Y-99316667D02*
X103105300Y-99283334D01*
X103105300Y-99283334D02*
X103138633Y-99250001D01*
X103138633Y-99250001D02*
X103171967Y-99183334D01*
X103171967Y-99183334D02*
X103171967Y-98916667D01*
X101855300Y-97649999D02*
X101521967Y-97416666D01*
X101855300Y-97249999D02*
X101155300Y-97249999D01*
X101155300Y-97249999D02*
X101155300Y-97516666D01*
X101155300Y-97516666D02*
X101188633Y-97583333D01*
X101188633Y-97583333D02*
X101221967Y-97616666D01*
X101221967Y-97616666D02*
X101288633Y-97649999D01*
X101288633Y-97649999D02*
X101388633Y-97649999D01*
X101388633Y-97649999D02*
X101455300Y-97616666D01*
X101455300Y-97616666D02*
X101488633Y-97583333D01*
X101488633Y-97583333D02*
X101521967Y-97516666D01*
X101521967Y-97516666D02*
X101521967Y-97249999D01*
X101155300Y-97883333D02*
X101155300Y-98316666D01*
X101155300Y-98316666D02*
X101421967Y-98083333D01*
X101421967Y-98083333D02*
X101421967Y-98183333D01*
X101421967Y-98183333D02*
X101455300Y-98249999D01*
X101455300Y-98249999D02*
X101488633Y-98283333D01*
X101488633Y-98283333D02*
X101555300Y-98316666D01*
X101555300Y-98316666D02*
X101721967Y-98316666D01*
X101721967Y-98316666D02*
X101788633Y-98283333D01*
X101788633Y-98283333D02*
X101821967Y-98249999D01*
X101821967Y-98249999D02*
X101855300Y-98183333D01*
X101855300Y-98183333D02*
X101855300Y-97983333D01*
X101855300Y-97983333D02*
X101821967Y-97916666D01*
X101821967Y-97916666D02*
X101788633Y-97883333D01*
X101855300Y-98983333D02*
X101855300Y-98583333D01*
X101855300Y-98783333D02*
X101155300Y-98783333D01*
X101155300Y-98783333D02*
X101255300Y-98716666D01*
X101255300Y-98716666D02*
X101321967Y-98650000D01*
X101321967Y-98650000D02*
X101355300Y-98583333D01*
X109701965Y-48216666D02*
X110168632Y-48216666D01*
X109435299Y-48050000D02*
X109935299Y-47883333D01*
X109935299Y-47883333D02*
X109935299Y-48316666D01*
X109468632Y-48516667D02*
X109468632Y-48983333D01*
X109468632Y-48983333D02*
X110168632Y-48683333D01*
X110168632Y-49250000D02*
X109468632Y-49250000D01*
X109901965Y-49316667D02*
X110168632Y-49516667D01*
X109701965Y-49516667D02*
X109968632Y-49250000D01*
X111818632Y-48249999D02*
X111485299Y-48016666D01*
X111818632Y-47849999D02*
X111118632Y-47849999D01*
X111118632Y-47849999D02*
X111118632Y-48116666D01*
X111118632Y-48116666D02*
X111151965Y-48183333D01*
X111151965Y-48183333D02*
X111185299Y-48216666D01*
X111185299Y-48216666D02*
X111251965Y-48249999D01*
X111251965Y-48249999D02*
X111351965Y-48249999D01*
X111351965Y-48249999D02*
X111418632Y-48216666D01*
X111418632Y-48216666D02*
X111451965Y-48183333D01*
X111451965Y-48183333D02*
X111485299Y-48116666D01*
X111485299Y-48116666D02*
X111485299Y-47849999D01*
X111185299Y-48516666D02*
X111151965Y-48549999D01*
X111151965Y-48549999D02*
X111118632Y-48616666D01*
X111118632Y-48616666D02*
X111118632Y-48783333D01*
X111118632Y-48783333D02*
X111151965Y-48849999D01*
X111151965Y-48849999D02*
X111185299Y-48883333D01*
X111185299Y-48883333D02*
X111251965Y-48916666D01*
X111251965Y-48916666D02*
X111318632Y-48916666D01*
X111318632Y-48916666D02*
X111418632Y-48883333D01*
X111418632Y-48883333D02*
X111818632Y-48483333D01*
X111818632Y-48483333D02*
X111818632Y-48916666D01*
X111118632Y-49150000D02*
X111118632Y-49616666D01*
X111118632Y-49616666D02*
X111818632Y-49316666D01*
X91523333Y-115668633D02*
X91656666Y-115668633D01*
X91656666Y-115668633D02*
X91723333Y-115701966D01*
X91723333Y-115701966D02*
X91756666Y-115735300D01*
X91756666Y-115735300D02*
X91823333Y-115835300D01*
X91823333Y-115835300D02*
X91856666Y-115968633D01*
X91856666Y-115968633D02*
X91856666Y-116235300D01*
X91856666Y-116235300D02*
X91823333Y-116301966D01*
X91823333Y-116301966D02*
X91790000Y-116335300D01*
X91790000Y-116335300D02*
X91723333Y-116368633D01*
X91723333Y-116368633D02*
X91590000Y-116368633D01*
X91590000Y-116368633D02*
X91523333Y-116335300D01*
X91523333Y-116335300D02*
X91490000Y-116301966D01*
X91490000Y-116301966D02*
X91456666Y-116235300D01*
X91456666Y-116235300D02*
X91456666Y-116068633D01*
X91456666Y-116068633D02*
X91490000Y-116001966D01*
X91490000Y-116001966D02*
X91523333Y-115968633D01*
X91523333Y-115968633D02*
X91590000Y-115935300D01*
X91590000Y-115935300D02*
X91723333Y-115935300D01*
X91723333Y-115935300D02*
X91790000Y-115968633D01*
X91790000Y-115968633D02*
X91823333Y-116001966D01*
X91823333Y-116001966D02*
X91856666Y-116068633D01*
X91156666Y-116368633D02*
X91156666Y-115668633D01*
X91089999Y-116101966D02*
X90889999Y-116368633D01*
X90889999Y-115901966D02*
X91156666Y-116168633D01*
X90623332Y-115735300D02*
X90589999Y-115701966D01*
X90589999Y-115701966D02*
X90523332Y-115668633D01*
X90523332Y-115668633D02*
X90356666Y-115668633D01*
X90356666Y-115668633D02*
X90289999Y-115701966D01*
X90289999Y-115701966D02*
X90256666Y-115735300D01*
X90256666Y-115735300D02*
X90223332Y-115801966D01*
X90223332Y-115801966D02*
X90223332Y-115868633D01*
X90223332Y-115868633D02*
X90256666Y-115968633D01*
X90256666Y-115968633D02*
X90656666Y-116368633D01*
X90656666Y-116368633D02*
X90223332Y-116368633D01*
X91490000Y-118018633D02*
X91723333Y-117685300D01*
X91890000Y-118018633D02*
X91890000Y-117318633D01*
X91890000Y-117318633D02*
X91623333Y-117318633D01*
X91623333Y-117318633D02*
X91556667Y-117351966D01*
X91556667Y-117351966D02*
X91523333Y-117385300D01*
X91523333Y-117385300D02*
X91490000Y-117451966D01*
X91490000Y-117451966D02*
X91490000Y-117551966D01*
X91490000Y-117551966D02*
X91523333Y-117618633D01*
X91523333Y-117618633D02*
X91556667Y-117651966D01*
X91556667Y-117651966D02*
X91623333Y-117685300D01*
X91623333Y-117685300D02*
X91890000Y-117685300D01*
X90890000Y-117551966D02*
X90890000Y-118018633D01*
X91056667Y-117285300D02*
X91223333Y-117785300D01*
X91223333Y-117785300D02*
X90790000Y-117785300D01*
X90590000Y-117318633D02*
X90156666Y-117318633D01*
X90156666Y-117318633D02*
X90390000Y-117585300D01*
X90390000Y-117585300D02*
X90290000Y-117585300D01*
X90290000Y-117585300D02*
X90223333Y-117618633D01*
X90223333Y-117618633D02*
X90190000Y-117651966D01*
X90190000Y-117651966D02*
X90156666Y-117718633D01*
X90156666Y-117718633D02*
X90156666Y-117885300D01*
X90156666Y-117885300D02*
X90190000Y-117951966D01*
X90190000Y-117951966D02*
X90223333Y-117985300D01*
X90223333Y-117985300D02*
X90290000Y-118018633D01*
X90290000Y-118018633D02*
X90490000Y-118018633D01*
X90490000Y-118018633D02*
X90556666Y-117985300D01*
X90556666Y-117985300D02*
X90590000Y-117951966D01*
X117328633Y-82429999D02*
X117328633Y-82029999D01*
X117328633Y-82229999D02*
X116628633Y-82229999D01*
X116628633Y-82229999D02*
X116728633Y-82163332D01*
X116728633Y-82163332D02*
X116795300Y-82096666D01*
X116795300Y-82096666D02*
X116828633Y-82029999D01*
X116628633Y-82863333D02*
X116628633Y-82929999D01*
X116628633Y-82929999D02*
X116661966Y-82996666D01*
X116661966Y-82996666D02*
X116695300Y-83029999D01*
X116695300Y-83029999D02*
X116761966Y-83063333D01*
X116761966Y-83063333D02*
X116895300Y-83096666D01*
X116895300Y-83096666D02*
X117061966Y-83096666D01*
X117061966Y-83096666D02*
X117195300Y-83063333D01*
X117195300Y-83063333D02*
X117261966Y-83029999D01*
X117261966Y-83029999D02*
X117295300Y-82996666D01*
X117295300Y-82996666D02*
X117328633Y-82929999D01*
X117328633Y-82929999D02*
X117328633Y-82863333D01*
X117328633Y-82863333D02*
X117295300Y-82796666D01*
X117295300Y-82796666D02*
X117261966Y-82763333D01*
X117261966Y-82763333D02*
X117195300Y-82729999D01*
X117195300Y-82729999D02*
X117061966Y-82696666D01*
X117061966Y-82696666D02*
X116895300Y-82696666D01*
X116895300Y-82696666D02*
X116761966Y-82729999D01*
X116761966Y-82729999D02*
X116695300Y-82763333D01*
X116695300Y-82763333D02*
X116661966Y-82796666D01*
X116661966Y-82796666D02*
X116628633Y-82863333D01*
X116628633Y-83530000D02*
X116628633Y-83596666D01*
X116628633Y-83596666D02*
X116661966Y-83663333D01*
X116661966Y-83663333D02*
X116695300Y-83696666D01*
X116695300Y-83696666D02*
X116761966Y-83730000D01*
X116761966Y-83730000D02*
X116895300Y-83763333D01*
X116895300Y-83763333D02*
X117061966Y-83763333D01*
X117061966Y-83763333D02*
X117195300Y-83730000D01*
X117195300Y-83730000D02*
X117261966Y-83696666D01*
X117261966Y-83696666D02*
X117295300Y-83663333D01*
X117295300Y-83663333D02*
X117328633Y-83596666D01*
X117328633Y-83596666D02*
X117328633Y-83530000D01*
X117328633Y-83530000D02*
X117295300Y-83463333D01*
X117295300Y-83463333D02*
X117261966Y-83430000D01*
X117261966Y-83430000D02*
X117195300Y-83396666D01*
X117195300Y-83396666D02*
X117061966Y-83363333D01*
X117061966Y-83363333D02*
X116895300Y-83363333D01*
X116895300Y-83363333D02*
X116761966Y-83396666D01*
X116761966Y-83396666D02*
X116695300Y-83430000D01*
X116695300Y-83430000D02*
X116661966Y-83463333D01*
X116661966Y-83463333D02*
X116628633Y-83530000D01*
X117328633Y-84063333D02*
X116628633Y-84063333D01*
X117061966Y-84130000D02*
X117328633Y-84330000D01*
X116861966Y-84330000D02*
X117128633Y-84063333D01*
X115678633Y-82729999D02*
X115345300Y-82496666D01*
X115678633Y-82329999D02*
X114978633Y-82329999D01*
X114978633Y-82329999D02*
X114978633Y-82596666D01*
X114978633Y-82596666D02*
X115011966Y-82663333D01*
X115011966Y-82663333D02*
X115045300Y-82696666D01*
X115045300Y-82696666D02*
X115111966Y-82729999D01*
X115111966Y-82729999D02*
X115211966Y-82729999D01*
X115211966Y-82729999D02*
X115278633Y-82696666D01*
X115278633Y-82696666D02*
X115311966Y-82663333D01*
X115311966Y-82663333D02*
X115345300Y-82596666D01*
X115345300Y-82596666D02*
X115345300Y-82329999D01*
X115045300Y-82996666D02*
X115011966Y-83029999D01*
X115011966Y-83029999D02*
X114978633Y-83096666D01*
X114978633Y-83096666D02*
X114978633Y-83263333D01*
X114978633Y-83263333D02*
X115011966Y-83329999D01*
X115011966Y-83329999D02*
X115045300Y-83363333D01*
X115045300Y-83363333D02*
X115111966Y-83396666D01*
X115111966Y-83396666D02*
X115178633Y-83396666D01*
X115178633Y-83396666D02*
X115278633Y-83363333D01*
X115278633Y-83363333D02*
X115678633Y-82963333D01*
X115678633Y-82963333D02*
X115678633Y-83396666D01*
X115278633Y-83796666D02*
X115245300Y-83730000D01*
X115245300Y-83730000D02*
X115211966Y-83696666D01*
X115211966Y-83696666D02*
X115145300Y-83663333D01*
X115145300Y-83663333D02*
X115111966Y-83663333D01*
X115111966Y-83663333D02*
X115045300Y-83696666D01*
X115045300Y-83696666D02*
X115011966Y-83730000D01*
X115011966Y-83730000D02*
X114978633Y-83796666D01*
X114978633Y-83796666D02*
X114978633Y-83930000D01*
X114978633Y-83930000D02*
X115011966Y-83996666D01*
X115011966Y-83996666D02*
X115045300Y-84030000D01*
X115045300Y-84030000D02*
X115111966Y-84063333D01*
X115111966Y-84063333D02*
X115145300Y-84063333D01*
X115145300Y-84063333D02*
X115211966Y-84030000D01*
X115211966Y-84030000D02*
X115245300Y-83996666D01*
X115245300Y-83996666D02*
X115278633Y-83930000D01*
X115278633Y-83930000D02*
X115278633Y-83796666D01*
X115278633Y-83796666D02*
X115311966Y-83730000D01*
X115311966Y-83730000D02*
X115345300Y-83696666D01*
X115345300Y-83696666D02*
X115411966Y-83663333D01*
X115411966Y-83663333D02*
X115545300Y-83663333D01*
X115545300Y-83663333D02*
X115611966Y-83696666D01*
X115611966Y-83696666D02*
X115645300Y-83730000D01*
X115645300Y-83730000D02*
X115678633Y-83796666D01*
X115678633Y-83796666D02*
X115678633Y-83930000D01*
X115678633Y-83930000D02*
X115645300Y-83996666D01*
X115645300Y-83996666D02*
X115611966Y-84030000D01*
X115611966Y-84030000D02*
X115545300Y-84063333D01*
X115545300Y-84063333D02*
X115411966Y-84063333D01*
X115411966Y-84063333D02*
X115345300Y-84030000D01*
X115345300Y-84030000D02*
X115311966Y-83996666D01*
X115311966Y-83996666D02*
X115278633Y-83930000D01*
X88116966Y-60783333D02*
X88150300Y-60750000D01*
X88150300Y-60750000D02*
X88183633Y-60650000D01*
X88183633Y-60650000D02*
X88183633Y-60583333D01*
X88183633Y-60583333D02*
X88150300Y-60483333D01*
X88150300Y-60483333D02*
X88083633Y-60416667D01*
X88083633Y-60416667D02*
X88016966Y-60383333D01*
X88016966Y-60383333D02*
X87883633Y-60350000D01*
X87883633Y-60350000D02*
X87783633Y-60350000D01*
X87783633Y-60350000D02*
X87650300Y-60383333D01*
X87650300Y-60383333D02*
X87583633Y-60416667D01*
X87583633Y-60416667D02*
X87516966Y-60483333D01*
X87516966Y-60483333D02*
X87483633Y-60583333D01*
X87483633Y-60583333D02*
X87483633Y-60650000D01*
X87483633Y-60650000D02*
X87516966Y-60750000D01*
X87516966Y-60750000D02*
X87550300Y-60783333D01*
X87483633Y-61416667D02*
X87483633Y-61083333D01*
X87483633Y-61083333D02*
X87816966Y-61050000D01*
X87816966Y-61050000D02*
X87783633Y-61083333D01*
X87783633Y-61083333D02*
X87750300Y-61150000D01*
X87750300Y-61150000D02*
X87750300Y-61316667D01*
X87750300Y-61316667D02*
X87783633Y-61383333D01*
X87783633Y-61383333D02*
X87816966Y-61416667D01*
X87816966Y-61416667D02*
X87883633Y-61450000D01*
X87883633Y-61450000D02*
X88050300Y-61450000D01*
X88050300Y-61450000D02*
X88116966Y-61416667D01*
X88116966Y-61416667D02*
X88150300Y-61383333D01*
X88150300Y-61383333D02*
X88183633Y-61316667D01*
X88183633Y-61316667D02*
X88183633Y-61150000D01*
X88183633Y-61150000D02*
X88150300Y-61083333D01*
X88150300Y-61083333D02*
X88116966Y-61050000D01*
X89898633Y-38616666D02*
X89898633Y-38216666D01*
X89898633Y-38416666D02*
X89198633Y-38416666D01*
X89198633Y-38416666D02*
X89298633Y-38349999D01*
X89298633Y-38349999D02*
X89365300Y-38283333D01*
X89365300Y-38283333D02*
X89398633Y-38216666D01*
X89198633Y-39050000D02*
X89198633Y-39116666D01*
X89198633Y-39116666D02*
X89231966Y-39183333D01*
X89231966Y-39183333D02*
X89265300Y-39216666D01*
X89265300Y-39216666D02*
X89331966Y-39250000D01*
X89331966Y-39250000D02*
X89465300Y-39283333D01*
X89465300Y-39283333D02*
X89631966Y-39283333D01*
X89631966Y-39283333D02*
X89765300Y-39250000D01*
X89765300Y-39250000D02*
X89831966Y-39216666D01*
X89831966Y-39216666D02*
X89865300Y-39183333D01*
X89865300Y-39183333D02*
X89898633Y-39116666D01*
X89898633Y-39116666D02*
X89898633Y-39050000D01*
X89898633Y-39050000D02*
X89865300Y-38983333D01*
X89865300Y-38983333D02*
X89831966Y-38950000D01*
X89831966Y-38950000D02*
X89765300Y-38916666D01*
X89765300Y-38916666D02*
X89631966Y-38883333D01*
X89631966Y-38883333D02*
X89465300Y-38883333D01*
X89465300Y-38883333D02*
X89331966Y-38916666D01*
X89331966Y-38916666D02*
X89265300Y-38950000D01*
X89265300Y-38950000D02*
X89231966Y-38983333D01*
X89231966Y-38983333D02*
X89198633Y-39050000D01*
X89198633Y-39716667D02*
X89198633Y-39783333D01*
X89198633Y-39783333D02*
X89231966Y-39850000D01*
X89231966Y-39850000D02*
X89265300Y-39883333D01*
X89265300Y-39883333D02*
X89331966Y-39916667D01*
X89331966Y-39916667D02*
X89465300Y-39950000D01*
X89465300Y-39950000D02*
X89631966Y-39950000D01*
X89631966Y-39950000D02*
X89765300Y-39916667D01*
X89765300Y-39916667D02*
X89831966Y-39883333D01*
X89831966Y-39883333D02*
X89865300Y-39850000D01*
X89865300Y-39850000D02*
X89898633Y-39783333D01*
X89898633Y-39783333D02*
X89898633Y-39716667D01*
X89898633Y-39716667D02*
X89865300Y-39650000D01*
X89865300Y-39650000D02*
X89831966Y-39616667D01*
X89831966Y-39616667D02*
X89765300Y-39583333D01*
X89765300Y-39583333D02*
X89631966Y-39550000D01*
X89631966Y-39550000D02*
X89465300Y-39550000D01*
X89465300Y-39550000D02*
X89331966Y-39583333D01*
X89331966Y-39583333D02*
X89265300Y-39616667D01*
X89265300Y-39616667D02*
X89231966Y-39650000D01*
X89231966Y-39650000D02*
X89198633Y-39716667D01*
X89431966Y-40250000D02*
X89898633Y-40250000D01*
X89498633Y-40250000D02*
X89465300Y-40283334D01*
X89465300Y-40283334D02*
X89431966Y-40350000D01*
X89431966Y-40350000D02*
X89431966Y-40450000D01*
X89431966Y-40450000D02*
X89465300Y-40516667D01*
X89465300Y-40516667D02*
X89531966Y-40550000D01*
X89531966Y-40550000D02*
X89898633Y-40550000D01*
X88151966Y-38949999D02*
X88185300Y-38916666D01*
X88185300Y-38916666D02*
X88218633Y-38816666D01*
X88218633Y-38816666D02*
X88218633Y-38749999D01*
X88218633Y-38749999D02*
X88185300Y-38649999D01*
X88185300Y-38649999D02*
X88118633Y-38583333D01*
X88118633Y-38583333D02*
X88051966Y-38549999D01*
X88051966Y-38549999D02*
X87918633Y-38516666D01*
X87918633Y-38516666D02*
X87818633Y-38516666D01*
X87818633Y-38516666D02*
X87685300Y-38549999D01*
X87685300Y-38549999D02*
X87618633Y-38583333D01*
X87618633Y-38583333D02*
X87551966Y-38649999D01*
X87551966Y-38649999D02*
X87518633Y-38749999D01*
X87518633Y-38749999D02*
X87518633Y-38816666D01*
X87518633Y-38816666D02*
X87551966Y-38916666D01*
X87551966Y-38916666D02*
X87585300Y-38949999D01*
X88218633Y-39616666D02*
X88218633Y-39216666D01*
X88218633Y-39416666D02*
X87518633Y-39416666D01*
X87518633Y-39416666D02*
X87618633Y-39349999D01*
X87618633Y-39349999D02*
X87685300Y-39283333D01*
X87685300Y-39283333D02*
X87718633Y-39216666D01*
X87518633Y-40050000D02*
X87518633Y-40116666D01*
X87518633Y-40116666D02*
X87551966Y-40183333D01*
X87551966Y-40183333D02*
X87585300Y-40216666D01*
X87585300Y-40216666D02*
X87651966Y-40250000D01*
X87651966Y-40250000D02*
X87785300Y-40283333D01*
X87785300Y-40283333D02*
X87951966Y-40283333D01*
X87951966Y-40283333D02*
X88085300Y-40250000D01*
X88085300Y-40250000D02*
X88151966Y-40216666D01*
X88151966Y-40216666D02*
X88185300Y-40183333D01*
X88185300Y-40183333D02*
X88218633Y-40116666D01*
X88218633Y-40116666D02*
X88218633Y-40050000D01*
X88218633Y-40050000D02*
X88185300Y-39983333D01*
X88185300Y-39983333D02*
X88151966Y-39950000D01*
X88151966Y-39950000D02*
X88085300Y-39916666D01*
X88085300Y-39916666D02*
X87951966Y-39883333D01*
X87951966Y-39883333D02*
X87785300Y-39883333D01*
X87785300Y-39883333D02*
X87651966Y-39916666D01*
X87651966Y-39916666D02*
X87585300Y-39950000D01*
X87585300Y-39950000D02*
X87551966Y-39983333D01*
X87551966Y-39983333D02*
X87518633Y-40050000D01*
X100258633Y-96850000D02*
X100258633Y-97283333D01*
X100258633Y-97283333D02*
X100525300Y-97050000D01*
X100525300Y-97050000D02*
X100525300Y-97150000D01*
X100525300Y-97150000D02*
X100558633Y-97216666D01*
X100558633Y-97216666D02*
X100591966Y-97250000D01*
X100591966Y-97250000D02*
X100658633Y-97283333D01*
X100658633Y-97283333D02*
X100825300Y-97283333D01*
X100825300Y-97283333D02*
X100891966Y-97250000D01*
X100891966Y-97250000D02*
X100925300Y-97216666D01*
X100925300Y-97216666D02*
X100958633Y-97150000D01*
X100958633Y-97150000D02*
X100958633Y-96950000D01*
X100958633Y-96950000D02*
X100925300Y-96883333D01*
X100925300Y-96883333D02*
X100891966Y-96850000D01*
X100258633Y-97516667D02*
X100258633Y-97950000D01*
X100258633Y-97950000D02*
X100525300Y-97716667D01*
X100525300Y-97716667D02*
X100525300Y-97816667D01*
X100525300Y-97816667D02*
X100558633Y-97883333D01*
X100558633Y-97883333D02*
X100591966Y-97916667D01*
X100591966Y-97916667D02*
X100658633Y-97950000D01*
X100658633Y-97950000D02*
X100825300Y-97950000D01*
X100825300Y-97950000D02*
X100891966Y-97916667D01*
X100891966Y-97916667D02*
X100925300Y-97883333D01*
X100925300Y-97883333D02*
X100958633Y-97816667D01*
X100958633Y-97816667D02*
X100958633Y-97616667D01*
X100958633Y-97616667D02*
X100925300Y-97550000D01*
X100925300Y-97550000D02*
X100891966Y-97516667D01*
X100258633Y-98383334D02*
X100258633Y-98450000D01*
X100258633Y-98450000D02*
X100291966Y-98516667D01*
X100291966Y-98516667D02*
X100325300Y-98550000D01*
X100325300Y-98550000D02*
X100391966Y-98583334D01*
X100391966Y-98583334D02*
X100525300Y-98616667D01*
X100525300Y-98616667D02*
X100691966Y-98616667D01*
X100691966Y-98616667D02*
X100825300Y-98583334D01*
X100825300Y-98583334D02*
X100891966Y-98550000D01*
X100891966Y-98550000D02*
X100925300Y-98516667D01*
X100925300Y-98516667D02*
X100958633Y-98450000D01*
X100958633Y-98450000D02*
X100958633Y-98383334D01*
X100958633Y-98383334D02*
X100925300Y-98316667D01*
X100925300Y-98316667D02*
X100891966Y-98283334D01*
X100891966Y-98283334D02*
X100825300Y-98250000D01*
X100825300Y-98250000D02*
X100691966Y-98216667D01*
X100691966Y-98216667D02*
X100525300Y-98216667D01*
X100525300Y-98216667D02*
X100391966Y-98250000D01*
X100391966Y-98250000D02*
X100325300Y-98283334D01*
X100325300Y-98283334D02*
X100291966Y-98316667D01*
X100291966Y-98316667D02*
X100258633Y-98383334D01*
X100958633Y-99316667D02*
X100625300Y-99083334D01*
X100958633Y-98916667D02*
X100258633Y-98916667D01*
X100258633Y-98916667D02*
X100258633Y-99183334D01*
X100258633Y-99183334D02*
X100291966Y-99250001D01*
X100291966Y-99250001D02*
X100325300Y-99283334D01*
X100325300Y-99283334D02*
X100391966Y-99316667D01*
X100391966Y-99316667D02*
X100491966Y-99316667D01*
X100491966Y-99316667D02*
X100558633Y-99283334D01*
X100558633Y-99283334D02*
X100591966Y-99250001D01*
X100591966Y-99250001D02*
X100625300Y-99183334D01*
X100625300Y-99183334D02*
X100625300Y-98916667D01*
X99308633Y-97649999D02*
X98975300Y-97416666D01*
X99308633Y-97249999D02*
X98608633Y-97249999D01*
X98608633Y-97249999D02*
X98608633Y-97516666D01*
X98608633Y-97516666D02*
X98641966Y-97583333D01*
X98641966Y-97583333D02*
X98675300Y-97616666D01*
X98675300Y-97616666D02*
X98741966Y-97649999D01*
X98741966Y-97649999D02*
X98841966Y-97649999D01*
X98841966Y-97649999D02*
X98908633Y-97616666D01*
X98908633Y-97616666D02*
X98941966Y-97583333D01*
X98941966Y-97583333D02*
X98975300Y-97516666D01*
X98975300Y-97516666D02*
X98975300Y-97249999D01*
X98608633Y-97883333D02*
X98608633Y-98316666D01*
X98608633Y-98316666D02*
X98875300Y-98083333D01*
X98875300Y-98083333D02*
X98875300Y-98183333D01*
X98875300Y-98183333D02*
X98908633Y-98249999D01*
X98908633Y-98249999D02*
X98941966Y-98283333D01*
X98941966Y-98283333D02*
X99008633Y-98316666D01*
X99008633Y-98316666D02*
X99175300Y-98316666D01*
X99175300Y-98316666D02*
X99241966Y-98283333D01*
X99241966Y-98283333D02*
X99275300Y-98249999D01*
X99275300Y-98249999D02*
X99308633Y-98183333D01*
X99308633Y-98183333D02*
X99308633Y-97983333D01*
X99308633Y-97983333D02*
X99275300Y-97916666D01*
X99275300Y-97916666D02*
X99241966Y-97883333D01*
X98608633Y-98750000D02*
X98608633Y-98816666D01*
X98608633Y-98816666D02*
X98641966Y-98883333D01*
X98641966Y-98883333D02*
X98675300Y-98916666D01*
X98675300Y-98916666D02*
X98741966Y-98950000D01*
X98741966Y-98950000D02*
X98875300Y-98983333D01*
X98875300Y-98983333D02*
X99041966Y-98983333D01*
X99041966Y-98983333D02*
X99175300Y-98950000D01*
X99175300Y-98950000D02*
X99241966Y-98916666D01*
X99241966Y-98916666D02*
X99275300Y-98883333D01*
X99275300Y-98883333D02*
X99308633Y-98816666D01*
X99308633Y-98816666D02*
X99308633Y-98750000D01*
X99308633Y-98750000D02*
X99275300Y-98683333D01*
X99275300Y-98683333D02*
X99241966Y-98650000D01*
X99241966Y-98650000D02*
X99175300Y-98616666D01*
X99175300Y-98616666D02*
X99041966Y-98583333D01*
X99041966Y-98583333D02*
X98875300Y-98583333D01*
X98875300Y-98583333D02*
X98741966Y-98616666D01*
X98741966Y-98616666D02*
X98675300Y-98650000D01*
X98675300Y-98650000D02*
X98641966Y-98683333D01*
X98641966Y-98683333D02*
X98608633Y-98750000D01*
X115318633Y-53063333D02*
X115318633Y-53496666D01*
X115318633Y-53496666D02*
X115585300Y-53263333D01*
X115585300Y-53263333D02*
X115585300Y-53363333D01*
X115585300Y-53363333D02*
X115618633Y-53429999D01*
X115618633Y-53429999D02*
X115651966Y-53463333D01*
X115651966Y-53463333D02*
X115718633Y-53496666D01*
X115718633Y-53496666D02*
X115885300Y-53496666D01*
X115885300Y-53496666D02*
X115951966Y-53463333D01*
X115951966Y-53463333D02*
X115985300Y-53429999D01*
X115985300Y-53429999D02*
X116018633Y-53363333D01*
X116018633Y-53363333D02*
X116018633Y-53163333D01*
X116018633Y-53163333D02*
X115985300Y-53096666D01*
X115985300Y-53096666D02*
X115951966Y-53063333D01*
X115318633Y-53730000D02*
X115318633Y-54163333D01*
X115318633Y-54163333D02*
X115585300Y-53930000D01*
X115585300Y-53930000D02*
X115585300Y-54030000D01*
X115585300Y-54030000D02*
X115618633Y-54096666D01*
X115618633Y-54096666D02*
X115651966Y-54130000D01*
X115651966Y-54130000D02*
X115718633Y-54163333D01*
X115718633Y-54163333D02*
X115885300Y-54163333D01*
X115885300Y-54163333D02*
X115951966Y-54130000D01*
X115951966Y-54130000D02*
X115985300Y-54096666D01*
X115985300Y-54096666D02*
X116018633Y-54030000D01*
X116018633Y-54030000D02*
X116018633Y-53830000D01*
X116018633Y-53830000D02*
X115985300Y-53763333D01*
X115985300Y-53763333D02*
X115951966Y-53730000D01*
X116018633Y-54863333D02*
X115685300Y-54630000D01*
X116018633Y-54463333D02*
X115318633Y-54463333D01*
X115318633Y-54463333D02*
X115318633Y-54730000D01*
X115318633Y-54730000D02*
X115351966Y-54796667D01*
X115351966Y-54796667D02*
X115385300Y-54830000D01*
X115385300Y-54830000D02*
X115451966Y-54863333D01*
X115451966Y-54863333D02*
X115551966Y-54863333D01*
X115551966Y-54863333D02*
X115618633Y-54830000D01*
X115618633Y-54830000D02*
X115651966Y-54796667D01*
X115651966Y-54796667D02*
X115685300Y-54730000D01*
X115685300Y-54730000D02*
X115685300Y-54463333D01*
X114368633Y-53529999D02*
X114035300Y-53296666D01*
X114368633Y-53129999D02*
X113668633Y-53129999D01*
X113668633Y-53129999D02*
X113668633Y-53396666D01*
X113668633Y-53396666D02*
X113701966Y-53463333D01*
X113701966Y-53463333D02*
X113735300Y-53496666D01*
X113735300Y-53496666D02*
X113801966Y-53529999D01*
X113801966Y-53529999D02*
X113901966Y-53529999D01*
X113901966Y-53529999D02*
X113968633Y-53496666D01*
X113968633Y-53496666D02*
X114001966Y-53463333D01*
X114001966Y-53463333D02*
X114035300Y-53396666D01*
X114035300Y-53396666D02*
X114035300Y-53129999D01*
X114368633Y-54196666D02*
X114368633Y-53796666D01*
X114368633Y-53996666D02*
X113668633Y-53996666D01*
X113668633Y-53996666D02*
X113768633Y-53929999D01*
X113768633Y-53929999D02*
X113835300Y-53863333D01*
X113835300Y-53863333D02*
X113868633Y-53796666D01*
X113668633Y-54830000D02*
X113668633Y-54496666D01*
X113668633Y-54496666D02*
X114001966Y-54463333D01*
X114001966Y-54463333D02*
X113968633Y-54496666D01*
X113968633Y-54496666D02*
X113935300Y-54563333D01*
X113935300Y-54563333D02*
X113935300Y-54730000D01*
X113935300Y-54730000D02*
X113968633Y-54796666D01*
X113968633Y-54796666D02*
X114001966Y-54830000D01*
X114001966Y-54830000D02*
X114068633Y-54863333D01*
X114068633Y-54863333D02*
X114235300Y-54863333D01*
X114235300Y-54863333D02*
X114301966Y-54830000D01*
X114301966Y-54830000D02*
X114335300Y-54796666D01*
X114335300Y-54796666D02*
X114368633Y-54730000D01*
X114368633Y-54730000D02*
X114368633Y-54563333D01*
X114368633Y-54563333D02*
X114335300Y-54496666D01*
X114335300Y-54496666D02*
X114301966Y-54463333D01*
X110791965Y-48216666D02*
X111258632Y-48216666D01*
X110525299Y-48050000D02*
X111025299Y-47883333D01*
X111025299Y-47883333D02*
X111025299Y-48316666D01*
X110558632Y-48516667D02*
X110558632Y-48983333D01*
X110558632Y-48983333D02*
X111258632Y-48683333D01*
X111258632Y-49250000D02*
X110558632Y-49250000D01*
X110991965Y-49316667D02*
X111258632Y-49516667D01*
X110791965Y-49516667D02*
X111058632Y-49250000D01*
X109608632Y-48249999D02*
X109275299Y-48016666D01*
X109608632Y-47849999D02*
X108908632Y-47849999D01*
X108908632Y-47849999D02*
X108908632Y-48116666D01*
X108908632Y-48116666D02*
X108941965Y-48183333D01*
X108941965Y-48183333D02*
X108975299Y-48216666D01*
X108975299Y-48216666D02*
X109041965Y-48249999D01*
X109041965Y-48249999D02*
X109141965Y-48249999D01*
X109141965Y-48249999D02*
X109208632Y-48216666D01*
X109208632Y-48216666D02*
X109241965Y-48183333D01*
X109241965Y-48183333D02*
X109275299Y-48116666D01*
X109275299Y-48116666D02*
X109275299Y-47849999D01*
X108975299Y-48516666D02*
X108941965Y-48549999D01*
X108941965Y-48549999D02*
X108908632Y-48616666D01*
X108908632Y-48616666D02*
X108908632Y-48783333D01*
X108908632Y-48783333D02*
X108941965Y-48849999D01*
X108941965Y-48849999D02*
X108975299Y-48883333D01*
X108975299Y-48883333D02*
X109041965Y-48916666D01*
X109041965Y-48916666D02*
X109108632Y-48916666D01*
X109108632Y-48916666D02*
X109208632Y-48883333D01*
X109208632Y-48883333D02*
X109608632Y-48483333D01*
X109608632Y-48483333D02*
X109608632Y-48916666D01*
X108908632Y-49550000D02*
X108908632Y-49216666D01*
X108908632Y-49216666D02*
X109241965Y-49183333D01*
X109241965Y-49183333D02*
X109208632Y-49216666D01*
X109208632Y-49216666D02*
X109175299Y-49283333D01*
X109175299Y-49283333D02*
X109175299Y-49450000D01*
X109175299Y-49450000D02*
X109208632Y-49516666D01*
X109208632Y-49516666D02*
X109241965Y-49550000D01*
X109241965Y-49550000D02*
X109308632Y-49583333D01*
X109308632Y-49583333D02*
X109475299Y-49583333D01*
X109475299Y-49583333D02*
X109541965Y-49550000D01*
X109541965Y-49550000D02*
X109575299Y-49516666D01*
X109575299Y-49516666D02*
X109608632Y-49450000D01*
X109608632Y-49450000D02*
X109608632Y-49283333D01*
X109608632Y-49283333D02*
X109575299Y-49216666D01*
X109575299Y-49216666D02*
X109541965Y-49183333D01*
X135383333Y-112558633D02*
X135783333Y-112558633D01*
X135583333Y-112558633D02*
X135583333Y-111858633D01*
X135583333Y-111858633D02*
X135650000Y-111958633D01*
X135650000Y-111958633D02*
X135716667Y-112025300D01*
X135716667Y-112025300D02*
X135783333Y-112058633D01*
X134950000Y-111858633D02*
X134883333Y-111858633D01*
X134883333Y-111858633D02*
X134816666Y-111891966D01*
X134816666Y-111891966D02*
X134783333Y-111925300D01*
X134783333Y-111925300D02*
X134750000Y-111991966D01*
X134750000Y-111991966D02*
X134716666Y-112125300D01*
X134716666Y-112125300D02*
X134716666Y-112291966D01*
X134716666Y-112291966D02*
X134750000Y-112425300D01*
X134750000Y-112425300D02*
X134783333Y-112491966D01*
X134783333Y-112491966D02*
X134816666Y-112525300D01*
X134816666Y-112525300D02*
X134883333Y-112558633D01*
X134883333Y-112558633D02*
X134950000Y-112558633D01*
X134950000Y-112558633D02*
X135016666Y-112525300D01*
X135016666Y-112525300D02*
X135050000Y-112491966D01*
X135050000Y-112491966D02*
X135083333Y-112425300D01*
X135083333Y-112425300D02*
X135116666Y-112291966D01*
X135116666Y-112291966D02*
X135116666Y-112125300D01*
X135116666Y-112125300D02*
X135083333Y-111991966D01*
X135083333Y-111991966D02*
X135050000Y-111925300D01*
X135050000Y-111925300D02*
X135016666Y-111891966D01*
X135016666Y-111891966D02*
X134950000Y-111858633D01*
X134283333Y-111858633D02*
X134216666Y-111858633D01*
X134216666Y-111858633D02*
X134149999Y-111891966D01*
X134149999Y-111891966D02*
X134116666Y-111925300D01*
X134116666Y-111925300D02*
X134083333Y-111991966D01*
X134083333Y-111991966D02*
X134049999Y-112125300D01*
X134049999Y-112125300D02*
X134049999Y-112291966D01*
X134049999Y-112291966D02*
X134083333Y-112425300D01*
X134083333Y-112425300D02*
X134116666Y-112491966D01*
X134116666Y-112491966D02*
X134149999Y-112525300D01*
X134149999Y-112525300D02*
X134216666Y-112558633D01*
X134216666Y-112558633D02*
X134283333Y-112558633D01*
X134283333Y-112558633D02*
X134349999Y-112525300D01*
X134349999Y-112525300D02*
X134383333Y-112491966D01*
X134383333Y-112491966D02*
X134416666Y-112425300D01*
X134416666Y-112425300D02*
X134449999Y-112291966D01*
X134449999Y-112291966D02*
X134449999Y-112125300D01*
X134449999Y-112125300D02*
X134416666Y-111991966D01*
X134416666Y-111991966D02*
X134383333Y-111925300D01*
X134383333Y-111925300D02*
X134349999Y-111891966D01*
X134349999Y-111891966D02*
X134283333Y-111858633D01*
X133749999Y-112091966D02*
X133749999Y-112558633D01*
X133749999Y-112158633D02*
X133716666Y-112125300D01*
X133716666Y-112125300D02*
X133649999Y-112091966D01*
X133649999Y-112091966D02*
X133549999Y-112091966D01*
X133549999Y-112091966D02*
X133483332Y-112125300D01*
X133483332Y-112125300D02*
X133449999Y-112191966D01*
X133449999Y-112191966D02*
X133449999Y-112558633D01*
X135050000Y-110811966D02*
X135083333Y-110845300D01*
X135083333Y-110845300D02*
X135183333Y-110878633D01*
X135183333Y-110878633D02*
X135250000Y-110878633D01*
X135250000Y-110878633D02*
X135350000Y-110845300D01*
X135350000Y-110845300D02*
X135416667Y-110778633D01*
X135416667Y-110778633D02*
X135450000Y-110711966D01*
X135450000Y-110711966D02*
X135483333Y-110578633D01*
X135483333Y-110578633D02*
X135483333Y-110478633D01*
X135483333Y-110478633D02*
X135450000Y-110345300D01*
X135450000Y-110345300D02*
X135416667Y-110278633D01*
X135416667Y-110278633D02*
X135350000Y-110211966D01*
X135350000Y-110211966D02*
X135250000Y-110178633D01*
X135250000Y-110178633D02*
X135183333Y-110178633D01*
X135183333Y-110178633D02*
X135083333Y-110211966D01*
X135083333Y-110211966D02*
X135050000Y-110245300D01*
X134783333Y-110245300D02*
X134750000Y-110211966D01*
X134750000Y-110211966D02*
X134683333Y-110178633D01*
X134683333Y-110178633D02*
X134516667Y-110178633D01*
X134516667Y-110178633D02*
X134450000Y-110211966D01*
X134450000Y-110211966D02*
X134416667Y-110245300D01*
X134416667Y-110245300D02*
X134383333Y-110311966D01*
X134383333Y-110311966D02*
X134383333Y-110378633D01*
X134383333Y-110378633D02*
X134416667Y-110478633D01*
X134416667Y-110478633D02*
X134816667Y-110878633D01*
X134816667Y-110878633D02*
X134383333Y-110878633D01*
X133716666Y-110878633D02*
X134116666Y-110878633D01*
X133916666Y-110878633D02*
X133916666Y-110178633D01*
X133916666Y-110178633D02*
X133983333Y-110278633D01*
X133983333Y-110278633D02*
X134050000Y-110345300D01*
X134050000Y-110345300D02*
X134116666Y-110378633D01*
X94417500Y-101578633D02*
X93984166Y-101578633D01*
X93984166Y-101578633D02*
X94217500Y-101845300D01*
X94217500Y-101845300D02*
X94117500Y-101845300D01*
X94117500Y-101845300D02*
X94050833Y-101878633D01*
X94050833Y-101878633D02*
X94017500Y-101911966D01*
X94017500Y-101911966D02*
X93984166Y-101978633D01*
X93984166Y-101978633D02*
X93984166Y-102145300D01*
X93984166Y-102145300D02*
X94017500Y-102211966D01*
X94017500Y-102211966D02*
X94050833Y-102245300D01*
X94050833Y-102245300D02*
X94117500Y-102278633D01*
X94117500Y-102278633D02*
X94317500Y-102278633D01*
X94317500Y-102278633D02*
X94384166Y-102245300D01*
X94384166Y-102245300D02*
X94417500Y-102211966D01*
X93550833Y-101578633D02*
X93484166Y-101578633D01*
X93484166Y-101578633D02*
X93417499Y-101611966D01*
X93417499Y-101611966D02*
X93384166Y-101645300D01*
X93384166Y-101645300D02*
X93350833Y-101711966D01*
X93350833Y-101711966D02*
X93317499Y-101845300D01*
X93317499Y-101845300D02*
X93317499Y-102011966D01*
X93317499Y-102011966D02*
X93350833Y-102145300D01*
X93350833Y-102145300D02*
X93384166Y-102211966D01*
X93384166Y-102211966D02*
X93417499Y-102245300D01*
X93417499Y-102245300D02*
X93484166Y-102278633D01*
X93484166Y-102278633D02*
X93550833Y-102278633D01*
X93550833Y-102278633D02*
X93617499Y-102245300D01*
X93617499Y-102245300D02*
X93650833Y-102211966D01*
X93650833Y-102211966D02*
X93684166Y-102145300D01*
X93684166Y-102145300D02*
X93717499Y-102011966D01*
X93717499Y-102011966D02*
X93717499Y-101845300D01*
X93717499Y-101845300D02*
X93684166Y-101711966D01*
X93684166Y-101711966D02*
X93650833Y-101645300D01*
X93650833Y-101645300D02*
X93617499Y-101611966D01*
X93617499Y-101611966D02*
X93550833Y-101578633D01*
X93017499Y-102278633D02*
X93017499Y-101578633D01*
X92950832Y-102011966D02*
X92750832Y-102278633D01*
X92750832Y-101811966D02*
X93017499Y-102078633D01*
X94017500Y-103928633D02*
X94250833Y-103595300D01*
X94417500Y-103928633D02*
X94417500Y-103228633D01*
X94417500Y-103228633D02*
X94150833Y-103228633D01*
X94150833Y-103228633D02*
X94084167Y-103261966D01*
X94084167Y-103261966D02*
X94050833Y-103295300D01*
X94050833Y-103295300D02*
X94017500Y-103361966D01*
X94017500Y-103361966D02*
X94017500Y-103461966D01*
X94017500Y-103461966D02*
X94050833Y-103528633D01*
X94050833Y-103528633D02*
X94084167Y-103561966D01*
X94084167Y-103561966D02*
X94150833Y-103595300D01*
X94150833Y-103595300D02*
X94417500Y-103595300D01*
X93784167Y-103228633D02*
X93350833Y-103228633D01*
X93350833Y-103228633D02*
X93584167Y-103495300D01*
X93584167Y-103495300D02*
X93484167Y-103495300D01*
X93484167Y-103495300D02*
X93417500Y-103528633D01*
X93417500Y-103528633D02*
X93384167Y-103561966D01*
X93384167Y-103561966D02*
X93350833Y-103628633D01*
X93350833Y-103628633D02*
X93350833Y-103795300D01*
X93350833Y-103795300D02*
X93384167Y-103861966D01*
X93384167Y-103861966D02*
X93417500Y-103895300D01*
X93417500Y-103895300D02*
X93484167Y-103928633D01*
X93484167Y-103928633D02*
X93684167Y-103928633D01*
X93684167Y-103928633D02*
X93750833Y-103895300D01*
X93750833Y-103895300D02*
X93784167Y-103861966D01*
X92750833Y-103228633D02*
X92884166Y-103228633D01*
X92884166Y-103228633D02*
X92950833Y-103261966D01*
X92950833Y-103261966D02*
X92984166Y-103295300D01*
X92984166Y-103295300D02*
X93050833Y-103395300D01*
X93050833Y-103395300D02*
X93084166Y-103528633D01*
X93084166Y-103528633D02*
X93084166Y-103795300D01*
X93084166Y-103795300D02*
X93050833Y-103861966D01*
X93050833Y-103861966D02*
X93017500Y-103895300D01*
X93017500Y-103895300D02*
X92950833Y-103928633D01*
X92950833Y-103928633D02*
X92817500Y-103928633D01*
X92817500Y-103928633D02*
X92750833Y-103895300D01*
X92750833Y-103895300D02*
X92717500Y-103861966D01*
X92717500Y-103861966D02*
X92684166Y-103795300D01*
X92684166Y-103795300D02*
X92684166Y-103628633D01*
X92684166Y-103628633D02*
X92717500Y-103561966D01*
X92717500Y-103561966D02*
X92750833Y-103528633D01*
X92750833Y-103528633D02*
X92817500Y-103495300D01*
X92817500Y-103495300D02*
X92950833Y-103495300D01*
X92950833Y-103495300D02*
X93017500Y-103528633D01*
X93017500Y-103528633D02*
X93050833Y-103561966D01*
X93050833Y-103561966D02*
X93084166Y-103628633D01*
X146349999Y-110425300D02*
X146316666Y-110391966D01*
X146316666Y-110391966D02*
X146249999Y-110358633D01*
X146249999Y-110358633D02*
X146083333Y-110358633D01*
X146083333Y-110358633D02*
X146016666Y-110391966D01*
X146016666Y-110391966D02*
X145983333Y-110425300D01*
X145983333Y-110425300D02*
X145949999Y-110491966D01*
X145949999Y-110491966D02*
X145949999Y-110558633D01*
X145949999Y-110558633D02*
X145983333Y-110658633D01*
X145983333Y-110658633D02*
X146383333Y-111058633D01*
X146383333Y-111058633D02*
X145949999Y-111058633D01*
X145683332Y-110425300D02*
X145649999Y-110391966D01*
X145649999Y-110391966D02*
X145583332Y-110358633D01*
X145583332Y-110358633D02*
X145416666Y-110358633D01*
X145416666Y-110358633D02*
X145349999Y-110391966D01*
X145349999Y-110391966D02*
X145316666Y-110425300D01*
X145316666Y-110425300D02*
X145283332Y-110491966D01*
X145283332Y-110491966D02*
X145283332Y-110558633D01*
X145283332Y-110558633D02*
X145316666Y-110658633D01*
X145316666Y-110658633D02*
X145716666Y-111058633D01*
X145716666Y-111058633D02*
X145283332Y-111058633D01*
X144683332Y-110591966D02*
X144683332Y-111058633D01*
X144983332Y-110591966D02*
X144983332Y-110958633D01*
X144983332Y-110958633D02*
X144949999Y-111025300D01*
X144949999Y-111025300D02*
X144883332Y-111058633D01*
X144883332Y-111058633D02*
X144783332Y-111058633D01*
X144783332Y-111058633D02*
X144716665Y-111025300D01*
X144716665Y-111025300D02*
X144683332Y-110991966D01*
X145950000Y-112671966D02*
X145983333Y-112705300D01*
X145983333Y-112705300D02*
X146083333Y-112738633D01*
X146083333Y-112738633D02*
X146150000Y-112738633D01*
X146150000Y-112738633D02*
X146250000Y-112705300D01*
X146250000Y-112705300D02*
X146316667Y-112638633D01*
X146316667Y-112638633D02*
X146350000Y-112571966D01*
X146350000Y-112571966D02*
X146383333Y-112438633D01*
X146383333Y-112438633D02*
X146383333Y-112338633D01*
X146383333Y-112338633D02*
X146350000Y-112205300D01*
X146350000Y-112205300D02*
X146316667Y-112138633D01*
X146316667Y-112138633D02*
X146250000Y-112071966D01*
X146250000Y-112071966D02*
X146150000Y-112038633D01*
X146150000Y-112038633D02*
X146083333Y-112038633D01*
X146083333Y-112038633D02*
X145983333Y-112071966D01*
X145983333Y-112071966D02*
X145950000Y-112105300D01*
X145683333Y-112105300D02*
X145650000Y-112071966D01*
X145650000Y-112071966D02*
X145583333Y-112038633D01*
X145583333Y-112038633D02*
X145416667Y-112038633D01*
X145416667Y-112038633D02*
X145350000Y-112071966D01*
X145350000Y-112071966D02*
X145316667Y-112105300D01*
X145316667Y-112105300D02*
X145283333Y-112171966D01*
X145283333Y-112171966D02*
X145283333Y-112238633D01*
X145283333Y-112238633D02*
X145316667Y-112338633D01*
X145316667Y-112338633D02*
X145716667Y-112738633D01*
X145716667Y-112738633D02*
X145283333Y-112738633D01*
X144850000Y-112038633D02*
X144783333Y-112038633D01*
X144783333Y-112038633D02*
X144716666Y-112071966D01*
X144716666Y-112071966D02*
X144683333Y-112105300D01*
X144683333Y-112105300D02*
X144650000Y-112171966D01*
X144650000Y-112171966D02*
X144616666Y-112305300D01*
X144616666Y-112305300D02*
X144616666Y-112471966D01*
X144616666Y-112471966D02*
X144650000Y-112605300D01*
X144650000Y-112605300D02*
X144683333Y-112671966D01*
X144683333Y-112671966D02*
X144716666Y-112705300D01*
X144716666Y-112705300D02*
X144783333Y-112738633D01*
X144783333Y-112738633D02*
X144850000Y-112738633D01*
X144850000Y-112738633D02*
X144916666Y-112705300D01*
X144916666Y-112705300D02*
X144950000Y-112671966D01*
X144950000Y-112671966D02*
X144983333Y-112605300D01*
X144983333Y-112605300D02*
X145016666Y-112471966D01*
X145016666Y-112471966D02*
X145016666Y-112305300D01*
X145016666Y-112305300D02*
X144983333Y-112171966D01*
X144983333Y-112171966D02*
X144950000Y-112105300D01*
X144950000Y-112105300D02*
X144916666Y-112071966D01*
X144916666Y-112071966D02*
X144850000Y-112038633D01*
X121835924Y-113423358D02*
X121135924Y-113423358D01*
X121135924Y-113423358D02*
X121135924Y-113690025D01*
X121135924Y-113690025D02*
X121169257Y-113756692D01*
X121169257Y-113756692D02*
X121202591Y-113790025D01*
X121202591Y-113790025D02*
X121269257Y-113823358D01*
X121269257Y-113823358D02*
X121369257Y-113823358D01*
X121369257Y-113823358D02*
X121435924Y-113790025D01*
X121435924Y-113790025D02*
X121469257Y-113756692D01*
X121469257Y-113756692D02*
X121502591Y-113690025D01*
X121502591Y-113690025D02*
X121502591Y-113423358D01*
X121469257Y-114123358D02*
X121469257Y-114356692D01*
X121835924Y-114456692D02*
X121835924Y-114123358D01*
X121835924Y-114123358D02*
X121135924Y-114123358D01*
X121135924Y-114123358D02*
X121135924Y-114456692D01*
X121802591Y-114723358D02*
X121835924Y-114823358D01*
X121835924Y-114823358D02*
X121835924Y-114990025D01*
X121835924Y-114990025D02*
X121802591Y-115056691D01*
X121802591Y-115056691D02*
X121769257Y-115090025D01*
X121769257Y-115090025D02*
X121702591Y-115123358D01*
X121702591Y-115123358D02*
X121635924Y-115123358D01*
X121635924Y-115123358D02*
X121569257Y-115090025D01*
X121569257Y-115090025D02*
X121535924Y-115056691D01*
X121535924Y-115056691D02*
X121502591Y-114990025D01*
X121502591Y-114990025D02*
X121469257Y-114856691D01*
X121469257Y-114856691D02*
X121435924Y-114790025D01*
X121435924Y-114790025D02*
X121402591Y-114756691D01*
X121402591Y-114756691D02*
X121335924Y-114723358D01*
X121335924Y-114723358D02*
X121269257Y-114723358D01*
X121269257Y-114723358D02*
X121202591Y-114756691D01*
X121202591Y-114756691D02*
X121169257Y-114790025D01*
X121169257Y-114790025D02*
X121135924Y-114856691D01*
X121135924Y-114856691D02*
X121135924Y-115023358D01*
X121135924Y-115023358D02*
X121169257Y-115123358D01*
X121835924Y-115423358D02*
X121135924Y-115423358D01*
X121135924Y-115423358D02*
X121135924Y-115590025D01*
X121135924Y-115590025D02*
X121169257Y-115690025D01*
X121169257Y-115690025D02*
X121235924Y-115756692D01*
X121235924Y-115756692D02*
X121302591Y-115790025D01*
X121302591Y-115790025D02*
X121435924Y-115823358D01*
X121435924Y-115823358D02*
X121535924Y-115823358D01*
X121535924Y-115823358D02*
X121669257Y-115790025D01*
X121669257Y-115790025D02*
X121735924Y-115756692D01*
X121735924Y-115756692D02*
X121802591Y-115690025D01*
X121802591Y-115690025D02*
X121835924Y-115590025D01*
X121835924Y-115590025D02*
X121835924Y-115423358D01*
X121835924Y-116490025D02*
X121835924Y-116090025D01*
X121835924Y-116290025D02*
X121135924Y-116290025D01*
X121135924Y-116290025D02*
X121235924Y-116223358D01*
X121235924Y-116223358D02*
X121302591Y-116156692D01*
X121302591Y-116156692D02*
X121335924Y-116090025D01*
X121769257Y-117190025D02*
X121802591Y-117156692D01*
X121802591Y-117156692D02*
X121835924Y-117056692D01*
X121835924Y-117056692D02*
X121835924Y-116990025D01*
X121835924Y-116990025D02*
X121802591Y-116890025D01*
X121802591Y-116890025D02*
X121735924Y-116823359D01*
X121735924Y-116823359D02*
X121669257Y-116790025D01*
X121669257Y-116790025D02*
X121535924Y-116756692D01*
X121535924Y-116756692D02*
X121435924Y-116756692D01*
X121435924Y-116756692D02*
X121302591Y-116790025D01*
X121302591Y-116790025D02*
X121235924Y-116823359D01*
X121235924Y-116823359D02*
X121169257Y-116890025D01*
X121169257Y-116890025D02*
X121135924Y-116990025D01*
X121135924Y-116990025D02*
X121135924Y-117056692D01*
X121135924Y-117056692D02*
X121169257Y-117156692D01*
X121169257Y-117156692D02*
X121202591Y-117190025D01*
X121635924Y-117456692D02*
X121635924Y-117790025D01*
X121835924Y-117390025D02*
X121135924Y-117623359D01*
X121135924Y-117623359D02*
X121835924Y-117856692D01*
X121835924Y-118090025D02*
X121135924Y-118090025D01*
X121135924Y-118090025D02*
X121835924Y-118490025D01*
X121835924Y-118490025D02*
X121135924Y-118490025D01*
X122741966Y-77846666D02*
X123208633Y-77846666D01*
X122475300Y-77680000D02*
X122975300Y-77513333D01*
X122975300Y-77513333D02*
X122975300Y-77946666D01*
X123208633Y-78213333D02*
X122508633Y-78213333D01*
X122941966Y-78280000D02*
X123208633Y-78480000D01*
X122741966Y-78480000D02*
X123008633Y-78213333D01*
X122508633Y-78713334D02*
X122508633Y-79180000D01*
X122508633Y-79180000D02*
X123208633Y-78880000D01*
X121558633Y-77879999D02*
X121225300Y-77646666D01*
X121558633Y-77479999D02*
X120858633Y-77479999D01*
X120858633Y-77479999D02*
X120858633Y-77746666D01*
X120858633Y-77746666D02*
X120891966Y-77813333D01*
X120891966Y-77813333D02*
X120925300Y-77846666D01*
X120925300Y-77846666D02*
X120991966Y-77879999D01*
X120991966Y-77879999D02*
X121091966Y-77879999D01*
X121091966Y-77879999D02*
X121158633Y-77846666D01*
X121158633Y-77846666D02*
X121191966Y-77813333D01*
X121191966Y-77813333D02*
X121225300Y-77746666D01*
X121225300Y-77746666D02*
X121225300Y-77479999D01*
X120925300Y-78146666D02*
X120891966Y-78179999D01*
X120891966Y-78179999D02*
X120858633Y-78246666D01*
X120858633Y-78246666D02*
X120858633Y-78413333D01*
X120858633Y-78413333D02*
X120891966Y-78479999D01*
X120891966Y-78479999D02*
X120925300Y-78513333D01*
X120925300Y-78513333D02*
X120991966Y-78546666D01*
X120991966Y-78546666D02*
X121058633Y-78546666D01*
X121058633Y-78546666D02*
X121158633Y-78513333D01*
X121158633Y-78513333D02*
X121558633Y-78113333D01*
X121558633Y-78113333D02*
X121558633Y-78546666D01*
X120858633Y-78780000D02*
X120858633Y-79213333D01*
X120858633Y-79213333D02*
X121125300Y-78980000D01*
X121125300Y-78980000D02*
X121125300Y-79080000D01*
X121125300Y-79080000D02*
X121158633Y-79146666D01*
X121158633Y-79146666D02*
X121191966Y-79180000D01*
X121191966Y-79180000D02*
X121258633Y-79213333D01*
X121258633Y-79213333D02*
X121425300Y-79213333D01*
X121425300Y-79213333D02*
X121491966Y-79180000D01*
X121491966Y-79180000D02*
X121525300Y-79146666D01*
X121525300Y-79146666D02*
X121558633Y-79080000D01*
X121558633Y-79080000D02*
X121558633Y-78880000D01*
X121558633Y-78880000D02*
X121525300Y-78813333D01*
X121525300Y-78813333D02*
X121491966Y-78780000D01*
X91335300Y-60016666D02*
X91301966Y-60049999D01*
X91301966Y-60049999D02*
X91268633Y-60116666D01*
X91268633Y-60116666D02*
X91268633Y-60283333D01*
X91268633Y-60283333D02*
X91301966Y-60349999D01*
X91301966Y-60349999D02*
X91335300Y-60383333D01*
X91335300Y-60383333D02*
X91401966Y-60416666D01*
X91401966Y-60416666D02*
X91468633Y-60416666D01*
X91468633Y-60416666D02*
X91568633Y-60383333D01*
X91568633Y-60383333D02*
X91968633Y-59983333D01*
X91968633Y-59983333D02*
X91968633Y-60416666D01*
X91968633Y-61116666D02*
X91635300Y-60883333D01*
X91968633Y-60716666D02*
X91268633Y-60716666D01*
X91268633Y-60716666D02*
X91268633Y-60983333D01*
X91268633Y-60983333D02*
X91301966Y-61050000D01*
X91301966Y-61050000D02*
X91335300Y-61083333D01*
X91335300Y-61083333D02*
X91401966Y-61116666D01*
X91401966Y-61116666D02*
X91501966Y-61116666D01*
X91501966Y-61116666D02*
X91568633Y-61083333D01*
X91568633Y-61083333D02*
X91601966Y-61050000D01*
X91601966Y-61050000D02*
X91635300Y-60983333D01*
X91635300Y-60983333D02*
X91635300Y-60716666D01*
X91335300Y-61383333D02*
X91301966Y-61416666D01*
X91301966Y-61416666D02*
X91268633Y-61483333D01*
X91268633Y-61483333D02*
X91268633Y-61650000D01*
X91268633Y-61650000D02*
X91301966Y-61716666D01*
X91301966Y-61716666D02*
X91335300Y-61750000D01*
X91335300Y-61750000D02*
X91401966Y-61783333D01*
X91401966Y-61783333D02*
X91468633Y-61783333D01*
X91468633Y-61783333D02*
X91568633Y-61750000D01*
X91568633Y-61750000D02*
X91968633Y-61350000D01*
X91968633Y-61350000D02*
X91968633Y-61783333D01*
X90318633Y-60783333D02*
X89985300Y-60550000D01*
X90318633Y-60383333D02*
X89618633Y-60383333D01*
X89618633Y-60383333D02*
X89618633Y-60650000D01*
X89618633Y-60650000D02*
X89651966Y-60716667D01*
X89651966Y-60716667D02*
X89685300Y-60750000D01*
X89685300Y-60750000D02*
X89751966Y-60783333D01*
X89751966Y-60783333D02*
X89851966Y-60783333D01*
X89851966Y-60783333D02*
X89918633Y-60750000D01*
X89918633Y-60750000D02*
X89951966Y-60716667D01*
X89951966Y-60716667D02*
X89985300Y-60650000D01*
X89985300Y-60650000D02*
X89985300Y-60383333D01*
X90318633Y-61116667D02*
X90318633Y-61250000D01*
X90318633Y-61250000D02*
X90285300Y-61316667D01*
X90285300Y-61316667D02*
X90251966Y-61350000D01*
X90251966Y-61350000D02*
X90151966Y-61416667D01*
X90151966Y-61416667D02*
X90018633Y-61450000D01*
X90018633Y-61450000D02*
X89751966Y-61450000D01*
X89751966Y-61450000D02*
X89685300Y-61416667D01*
X89685300Y-61416667D02*
X89651966Y-61383333D01*
X89651966Y-61383333D02*
X89618633Y-61316667D01*
X89618633Y-61316667D02*
X89618633Y-61183333D01*
X89618633Y-61183333D02*
X89651966Y-61116667D01*
X89651966Y-61116667D02*
X89685300Y-61083333D01*
X89685300Y-61083333D02*
X89751966Y-61050000D01*
X89751966Y-61050000D02*
X89918633Y-61050000D01*
X89918633Y-61050000D02*
X89985300Y-61083333D01*
X89985300Y-61083333D02*
X90018633Y-61116667D01*
X90018633Y-61116667D02*
X90051966Y-61183333D01*
X90051966Y-61183333D02*
X90051966Y-61316667D01*
X90051966Y-61316667D02*
X90018633Y-61383333D01*
X90018633Y-61383333D02*
X89985300Y-61416667D01*
X89985300Y-61416667D02*
X89918633Y-61450000D01*
X87065300Y-60050000D02*
X87031966Y-60083333D01*
X87031966Y-60083333D02*
X86998633Y-60150000D01*
X86998633Y-60150000D02*
X86998633Y-60316667D01*
X86998633Y-60316667D02*
X87031966Y-60383333D01*
X87031966Y-60383333D02*
X87065300Y-60416667D01*
X87065300Y-60416667D02*
X87131966Y-60450000D01*
X87131966Y-60450000D02*
X87198633Y-60450000D01*
X87198633Y-60450000D02*
X87298633Y-60416667D01*
X87298633Y-60416667D02*
X87698633Y-60016667D01*
X87698633Y-60016667D02*
X87698633Y-60450000D01*
X87065300Y-60716667D02*
X87031966Y-60750000D01*
X87031966Y-60750000D02*
X86998633Y-60816667D01*
X86998633Y-60816667D02*
X86998633Y-60983334D01*
X86998633Y-60983334D02*
X87031966Y-61050000D01*
X87031966Y-61050000D02*
X87065300Y-61083334D01*
X87065300Y-61083334D02*
X87131966Y-61116667D01*
X87131966Y-61116667D02*
X87198633Y-61116667D01*
X87198633Y-61116667D02*
X87298633Y-61083334D01*
X87298633Y-61083334D02*
X87698633Y-60683334D01*
X87698633Y-60683334D02*
X87698633Y-61116667D01*
X87231966Y-61716667D02*
X87698633Y-61716667D01*
X87231966Y-61416667D02*
X87598633Y-61416667D01*
X87598633Y-61416667D02*
X87665300Y-61450001D01*
X87665300Y-61450001D02*
X87698633Y-61516667D01*
X87698633Y-61516667D02*
X87698633Y-61616667D01*
X87698633Y-61616667D02*
X87665300Y-61683334D01*
X87665300Y-61683334D02*
X87631966Y-61716667D01*
X85951966Y-60783333D02*
X85985300Y-60750000D01*
X85985300Y-60750000D02*
X86018633Y-60650000D01*
X86018633Y-60650000D02*
X86018633Y-60583333D01*
X86018633Y-60583333D02*
X85985300Y-60483333D01*
X85985300Y-60483333D02*
X85918633Y-60416667D01*
X85918633Y-60416667D02*
X85851966Y-60383333D01*
X85851966Y-60383333D02*
X85718633Y-60350000D01*
X85718633Y-60350000D02*
X85618633Y-60350000D01*
X85618633Y-60350000D02*
X85485300Y-60383333D01*
X85485300Y-60383333D02*
X85418633Y-60416667D01*
X85418633Y-60416667D02*
X85351966Y-60483333D01*
X85351966Y-60483333D02*
X85318633Y-60583333D01*
X85318633Y-60583333D02*
X85318633Y-60650000D01*
X85318633Y-60650000D02*
X85351966Y-60750000D01*
X85351966Y-60750000D02*
X85385300Y-60783333D01*
X85551966Y-61383333D02*
X86018633Y-61383333D01*
X85285300Y-61216667D02*
X85785300Y-61050000D01*
X85785300Y-61050000D02*
X85785300Y-61483333D01*
X112650000Y-108618633D02*
X112783333Y-108618633D01*
X112783333Y-108618633D02*
X112850000Y-108651966D01*
X112850000Y-108651966D02*
X112883333Y-108685300D01*
X112883333Y-108685300D02*
X112950000Y-108785300D01*
X112950000Y-108785300D02*
X112983333Y-108918633D01*
X112983333Y-108918633D02*
X112983333Y-109185300D01*
X112983333Y-109185300D02*
X112950000Y-109251966D01*
X112950000Y-109251966D02*
X112916667Y-109285300D01*
X112916667Y-109285300D02*
X112850000Y-109318633D01*
X112850000Y-109318633D02*
X112716667Y-109318633D01*
X112716667Y-109318633D02*
X112650000Y-109285300D01*
X112650000Y-109285300D02*
X112616667Y-109251966D01*
X112616667Y-109251966D02*
X112583333Y-109185300D01*
X112583333Y-109185300D02*
X112583333Y-109018633D01*
X112583333Y-109018633D02*
X112616667Y-108951966D01*
X112616667Y-108951966D02*
X112650000Y-108918633D01*
X112650000Y-108918633D02*
X112716667Y-108885300D01*
X112716667Y-108885300D02*
X112850000Y-108885300D01*
X112850000Y-108885300D02*
X112916667Y-108918633D01*
X112916667Y-108918633D02*
X112950000Y-108951966D01*
X112950000Y-108951966D02*
X112983333Y-109018633D01*
X112183333Y-108918633D02*
X112250000Y-108885300D01*
X112250000Y-108885300D02*
X112283333Y-108851966D01*
X112283333Y-108851966D02*
X112316666Y-108785300D01*
X112316666Y-108785300D02*
X112316666Y-108751966D01*
X112316666Y-108751966D02*
X112283333Y-108685300D01*
X112283333Y-108685300D02*
X112250000Y-108651966D01*
X112250000Y-108651966D02*
X112183333Y-108618633D01*
X112183333Y-108618633D02*
X112050000Y-108618633D01*
X112050000Y-108618633D02*
X111983333Y-108651966D01*
X111983333Y-108651966D02*
X111950000Y-108685300D01*
X111950000Y-108685300D02*
X111916666Y-108751966D01*
X111916666Y-108751966D02*
X111916666Y-108785300D01*
X111916666Y-108785300D02*
X111950000Y-108851966D01*
X111950000Y-108851966D02*
X111983333Y-108885300D01*
X111983333Y-108885300D02*
X112050000Y-108918633D01*
X112050000Y-108918633D02*
X112183333Y-108918633D01*
X112183333Y-108918633D02*
X112250000Y-108951966D01*
X112250000Y-108951966D02*
X112283333Y-108985300D01*
X112283333Y-108985300D02*
X112316666Y-109051966D01*
X112316666Y-109051966D02*
X112316666Y-109185300D01*
X112316666Y-109185300D02*
X112283333Y-109251966D01*
X112283333Y-109251966D02*
X112250000Y-109285300D01*
X112250000Y-109285300D02*
X112183333Y-109318633D01*
X112183333Y-109318633D02*
X112050000Y-109318633D01*
X112050000Y-109318633D02*
X111983333Y-109285300D01*
X111983333Y-109285300D02*
X111950000Y-109251966D01*
X111950000Y-109251966D02*
X111916666Y-109185300D01*
X111916666Y-109185300D02*
X111916666Y-109051966D01*
X111916666Y-109051966D02*
X111950000Y-108985300D01*
X111950000Y-108985300D02*
X111983333Y-108951966D01*
X111983333Y-108951966D02*
X112050000Y-108918633D01*
X111216666Y-109318633D02*
X111449999Y-108985300D01*
X111616666Y-109318633D02*
X111616666Y-108618633D01*
X111616666Y-108618633D02*
X111349999Y-108618633D01*
X111349999Y-108618633D02*
X111283333Y-108651966D01*
X111283333Y-108651966D02*
X111249999Y-108685300D01*
X111249999Y-108685300D02*
X111216666Y-108751966D01*
X111216666Y-108751966D02*
X111216666Y-108851966D01*
X111216666Y-108851966D02*
X111249999Y-108918633D01*
X111249999Y-108918633D02*
X111283333Y-108951966D01*
X111283333Y-108951966D02*
X111349999Y-108985300D01*
X111349999Y-108985300D02*
X111616666Y-108985300D01*
X112550000Y-107668633D02*
X112783333Y-107335300D01*
X112950000Y-107668633D02*
X112950000Y-106968633D01*
X112950000Y-106968633D02*
X112683333Y-106968633D01*
X112683333Y-106968633D02*
X112616667Y-107001966D01*
X112616667Y-107001966D02*
X112583333Y-107035300D01*
X112583333Y-107035300D02*
X112550000Y-107101966D01*
X112550000Y-107101966D02*
X112550000Y-107201966D01*
X112550000Y-107201966D02*
X112583333Y-107268633D01*
X112583333Y-107268633D02*
X112616667Y-107301966D01*
X112616667Y-107301966D02*
X112683333Y-107335300D01*
X112683333Y-107335300D02*
X112950000Y-107335300D01*
X112283333Y-107035300D02*
X112250000Y-107001966D01*
X112250000Y-107001966D02*
X112183333Y-106968633D01*
X112183333Y-106968633D02*
X112016667Y-106968633D01*
X112016667Y-106968633D02*
X111950000Y-107001966D01*
X111950000Y-107001966D02*
X111916667Y-107035300D01*
X111916667Y-107035300D02*
X111883333Y-107101966D01*
X111883333Y-107101966D02*
X111883333Y-107168633D01*
X111883333Y-107168633D02*
X111916667Y-107268633D01*
X111916667Y-107268633D02*
X112316667Y-107668633D01*
X112316667Y-107668633D02*
X111883333Y-107668633D01*
X111450000Y-106968633D02*
X111383333Y-106968633D01*
X111383333Y-106968633D02*
X111316666Y-107001966D01*
X111316666Y-107001966D02*
X111283333Y-107035300D01*
X111283333Y-107035300D02*
X111250000Y-107101966D01*
X111250000Y-107101966D02*
X111216666Y-107235300D01*
X111216666Y-107235300D02*
X111216666Y-107401966D01*
X111216666Y-107401966D02*
X111250000Y-107535300D01*
X111250000Y-107535300D02*
X111283333Y-107601966D01*
X111283333Y-107601966D02*
X111316666Y-107635300D01*
X111316666Y-107635300D02*
X111383333Y-107668633D01*
X111383333Y-107668633D02*
X111450000Y-107668633D01*
X111450000Y-107668633D02*
X111516666Y-107635300D01*
X111516666Y-107635300D02*
X111550000Y-107601966D01*
X111550000Y-107601966D02*
X111583333Y-107535300D01*
X111583333Y-107535300D02*
X111616666Y-107401966D01*
X111616666Y-107401966D02*
X111616666Y-107235300D01*
X111616666Y-107235300D02*
X111583333Y-107101966D01*
X111583333Y-107101966D02*
X111550000Y-107035300D01*
X111550000Y-107035300D02*
X111516666Y-107001966D01*
X111516666Y-107001966D02*
X111450000Y-106968633D01*
X91580300Y-38550000D02*
X91546966Y-38583333D01*
X91546966Y-38583333D02*
X91513633Y-38650000D01*
X91513633Y-38650000D02*
X91513633Y-38816667D01*
X91513633Y-38816667D02*
X91546966Y-38883333D01*
X91546966Y-38883333D02*
X91580300Y-38916667D01*
X91580300Y-38916667D02*
X91646966Y-38950000D01*
X91646966Y-38950000D02*
X91713633Y-38950000D01*
X91713633Y-38950000D02*
X91813633Y-38916667D01*
X91813633Y-38916667D02*
X92213633Y-38516667D01*
X92213633Y-38516667D02*
X92213633Y-38950000D01*
X91580300Y-39216667D02*
X91546966Y-39250000D01*
X91546966Y-39250000D02*
X91513633Y-39316667D01*
X91513633Y-39316667D02*
X91513633Y-39483334D01*
X91513633Y-39483334D02*
X91546966Y-39550000D01*
X91546966Y-39550000D02*
X91580300Y-39583334D01*
X91580300Y-39583334D02*
X91646966Y-39616667D01*
X91646966Y-39616667D02*
X91713633Y-39616667D01*
X91713633Y-39616667D02*
X91813633Y-39583334D01*
X91813633Y-39583334D02*
X92213633Y-39183334D01*
X92213633Y-39183334D02*
X92213633Y-39616667D01*
X91746966Y-40216667D02*
X92213633Y-40216667D01*
X91746966Y-39916667D02*
X92113633Y-39916667D01*
X92113633Y-39916667D02*
X92180300Y-39950001D01*
X92180300Y-39950001D02*
X92213633Y-40016667D01*
X92213633Y-40016667D02*
X92213633Y-40116667D01*
X92213633Y-40116667D02*
X92180300Y-40183334D01*
X92180300Y-40183334D02*
X92146966Y-40216667D01*
X90466966Y-39283333D02*
X90500300Y-39250000D01*
X90500300Y-39250000D02*
X90533633Y-39150000D01*
X90533633Y-39150000D02*
X90533633Y-39083333D01*
X90533633Y-39083333D02*
X90500300Y-38983333D01*
X90500300Y-38983333D02*
X90433633Y-38916667D01*
X90433633Y-38916667D02*
X90366966Y-38883333D01*
X90366966Y-38883333D02*
X90233633Y-38850000D01*
X90233633Y-38850000D02*
X90133633Y-38850000D01*
X90133633Y-38850000D02*
X90000300Y-38883333D01*
X90000300Y-38883333D02*
X89933633Y-38916667D01*
X89933633Y-38916667D02*
X89866966Y-38983333D01*
X89866966Y-38983333D02*
X89833633Y-39083333D01*
X89833633Y-39083333D02*
X89833633Y-39150000D01*
X89833633Y-39150000D02*
X89866966Y-39250000D01*
X89866966Y-39250000D02*
X89900300Y-39283333D01*
X90533633Y-39616667D02*
X90533633Y-39750000D01*
X90533633Y-39750000D02*
X90500300Y-39816667D01*
X90500300Y-39816667D02*
X90466966Y-39850000D01*
X90466966Y-39850000D02*
X90366966Y-39916667D01*
X90366966Y-39916667D02*
X90233633Y-39950000D01*
X90233633Y-39950000D02*
X89966966Y-39950000D01*
X89966966Y-39950000D02*
X89900300Y-39916667D01*
X89900300Y-39916667D02*
X89866966Y-39883333D01*
X89866966Y-39883333D02*
X89833633Y-39816667D01*
X89833633Y-39816667D02*
X89833633Y-39683333D01*
X89833633Y-39683333D02*
X89866966Y-39616667D01*
X89866966Y-39616667D02*
X89900300Y-39583333D01*
X89900300Y-39583333D02*
X89966966Y-39550000D01*
X89966966Y-39550000D02*
X90133633Y-39550000D01*
X90133633Y-39550000D02*
X90200300Y-39583333D01*
X90200300Y-39583333D02*
X90233633Y-39616667D01*
X90233633Y-39616667D02*
X90266966Y-39683333D01*
X90266966Y-39683333D02*
X90266966Y-39816667D01*
X90266966Y-39816667D02*
X90233633Y-39883333D01*
X90233633Y-39883333D02*
X90200300Y-39916667D01*
X90200300Y-39916667D02*
X90133633Y-39950000D01*
X144913633Y-118992498D02*
X144213633Y-118992498D01*
X144213633Y-118992498D02*
X144713633Y-119225832D01*
X144713633Y-119225832D02*
X144213633Y-119459165D01*
X144213633Y-119459165D02*
X144913633Y-119459165D01*
X144846966Y-120192498D02*
X144880300Y-120159165D01*
X144880300Y-120159165D02*
X144913633Y-120059165D01*
X144913633Y-120059165D02*
X144913633Y-119992498D01*
X144913633Y-119992498D02*
X144880300Y-119892498D01*
X144880300Y-119892498D02*
X144813633Y-119825832D01*
X144813633Y-119825832D02*
X144746966Y-119792498D01*
X144746966Y-119792498D02*
X144613633Y-119759165D01*
X144613633Y-119759165D02*
X144513633Y-119759165D01*
X144513633Y-119759165D02*
X144380300Y-119792498D01*
X144380300Y-119792498D02*
X144313633Y-119825832D01*
X144313633Y-119825832D02*
X144246966Y-119892498D01*
X144246966Y-119892498D02*
X144213633Y-119992498D01*
X144213633Y-119992498D02*
X144213633Y-120059165D01*
X144213633Y-120059165D02*
X144246966Y-120159165D01*
X144246966Y-120159165D02*
X144280300Y-120192498D01*
X144913633Y-120492498D02*
X144213633Y-120492498D01*
X144213633Y-120492498D02*
X144213633Y-120759165D01*
X144213633Y-120759165D02*
X144246966Y-120825832D01*
X144246966Y-120825832D02*
X144280300Y-120859165D01*
X144280300Y-120859165D02*
X144346966Y-120892498D01*
X144346966Y-120892498D02*
X144446966Y-120892498D01*
X144446966Y-120892498D02*
X144513633Y-120859165D01*
X144513633Y-120859165D02*
X144546966Y-120825832D01*
X144546966Y-120825832D02*
X144580300Y-120759165D01*
X144580300Y-120759165D02*
X144580300Y-120492498D01*
X144913633Y-121559165D02*
X144913633Y-121159165D01*
X144913633Y-121359165D02*
X144213633Y-121359165D01*
X144213633Y-121359165D02*
X144313633Y-121292498D01*
X144313633Y-121292498D02*
X144380300Y-121225832D01*
X144380300Y-121225832D02*
X144413633Y-121159165D01*
X144513633Y-121959165D02*
X144480300Y-121892499D01*
X144480300Y-121892499D02*
X144446966Y-121859165D01*
X144446966Y-121859165D02*
X144380300Y-121825832D01*
X144380300Y-121825832D02*
X144346966Y-121825832D01*
X144346966Y-121825832D02*
X144280300Y-121859165D01*
X144280300Y-121859165D02*
X144246966Y-121892499D01*
X144246966Y-121892499D02*
X144213633Y-121959165D01*
X144213633Y-121959165D02*
X144213633Y-122092499D01*
X144213633Y-122092499D02*
X144246966Y-122159165D01*
X144246966Y-122159165D02*
X144280300Y-122192499D01*
X144280300Y-122192499D02*
X144346966Y-122225832D01*
X144346966Y-122225832D02*
X144380300Y-122225832D01*
X144380300Y-122225832D02*
X144446966Y-122192499D01*
X144446966Y-122192499D02*
X144480300Y-122159165D01*
X144480300Y-122159165D02*
X144513633Y-122092499D01*
X144513633Y-122092499D02*
X144513633Y-121959165D01*
X144513633Y-121959165D02*
X144546966Y-121892499D01*
X144546966Y-121892499D02*
X144580300Y-121859165D01*
X144580300Y-121859165D02*
X144646966Y-121825832D01*
X144646966Y-121825832D02*
X144780300Y-121825832D01*
X144780300Y-121825832D02*
X144846966Y-121859165D01*
X144846966Y-121859165D02*
X144880300Y-121892499D01*
X144880300Y-121892499D02*
X144913633Y-121959165D01*
X144913633Y-121959165D02*
X144913633Y-122092499D01*
X144913633Y-122092499D02*
X144880300Y-122159165D01*
X144880300Y-122159165D02*
X144846966Y-122192499D01*
X144846966Y-122192499D02*
X144780300Y-122225832D01*
X144780300Y-122225832D02*
X144646966Y-122225832D01*
X144646966Y-122225832D02*
X144580300Y-122192499D01*
X144580300Y-122192499D02*
X144546966Y-122159165D01*
X144546966Y-122159165D02*
X144513633Y-122092499D01*
X144280300Y-122492499D02*
X144246966Y-122525832D01*
X144246966Y-122525832D02*
X144213633Y-122592499D01*
X144213633Y-122592499D02*
X144213633Y-122759166D01*
X144213633Y-122759166D02*
X144246966Y-122825832D01*
X144246966Y-122825832D02*
X144280300Y-122859166D01*
X144280300Y-122859166D02*
X144346966Y-122892499D01*
X144346966Y-122892499D02*
X144413633Y-122892499D01*
X144413633Y-122892499D02*
X144513633Y-122859166D01*
X144513633Y-122859166D02*
X144913633Y-122459166D01*
X144913633Y-122459166D02*
X144913633Y-122892499D01*
X144213633Y-123492499D02*
X144213633Y-123359166D01*
X144213633Y-123359166D02*
X144246966Y-123292499D01*
X144246966Y-123292499D02*
X144280300Y-123259166D01*
X144280300Y-123259166D02*
X144380300Y-123192499D01*
X144380300Y-123192499D02*
X144513633Y-123159166D01*
X144513633Y-123159166D02*
X144780300Y-123159166D01*
X144780300Y-123159166D02*
X144846966Y-123192499D01*
X144846966Y-123192499D02*
X144880300Y-123225833D01*
X144880300Y-123225833D02*
X144913633Y-123292499D01*
X144913633Y-123292499D02*
X144913633Y-123425833D01*
X144913633Y-123425833D02*
X144880300Y-123492499D01*
X144880300Y-123492499D02*
X144846966Y-123525833D01*
X144846966Y-123525833D02*
X144780300Y-123559166D01*
X144780300Y-123559166D02*
X144613633Y-123559166D01*
X144613633Y-123559166D02*
X144546966Y-123525833D01*
X144546966Y-123525833D02*
X144513633Y-123492499D01*
X144513633Y-123492499D02*
X144480300Y-123425833D01*
X144480300Y-123425833D02*
X144480300Y-123292499D01*
X144480300Y-123292499D02*
X144513633Y-123225833D01*
X144513633Y-123225833D02*
X144546966Y-123192499D01*
X144546966Y-123192499D02*
X144613633Y-123159166D01*
X144880300Y-123825833D02*
X144913633Y-123925833D01*
X144913633Y-123925833D02*
X144913633Y-124092500D01*
X144913633Y-124092500D02*
X144880300Y-124159166D01*
X144880300Y-124159166D02*
X144846966Y-124192500D01*
X144846966Y-124192500D02*
X144780300Y-124225833D01*
X144780300Y-124225833D02*
X144713633Y-124225833D01*
X144713633Y-124225833D02*
X144646966Y-124192500D01*
X144646966Y-124192500D02*
X144613633Y-124159166D01*
X144613633Y-124159166D02*
X144580300Y-124092500D01*
X144580300Y-124092500D02*
X144546966Y-123959166D01*
X144546966Y-123959166D02*
X144513633Y-123892500D01*
X144513633Y-123892500D02*
X144480300Y-123859166D01*
X144480300Y-123859166D02*
X144413633Y-123825833D01*
X144413633Y-123825833D02*
X144346966Y-123825833D01*
X144346966Y-123825833D02*
X144280300Y-123859166D01*
X144280300Y-123859166D02*
X144246966Y-123892500D01*
X144246966Y-123892500D02*
X144213633Y-123959166D01*
X144213633Y-123959166D02*
X144213633Y-124125833D01*
X144213633Y-124125833D02*
X144246966Y-124225833D01*
X144646966Y-124525833D02*
X144646966Y-125059167D01*
X144213633Y-125325834D02*
X144213633Y-125759167D01*
X144213633Y-125759167D02*
X144480300Y-125525834D01*
X144480300Y-125525834D02*
X144480300Y-125625834D01*
X144480300Y-125625834D02*
X144513633Y-125692500D01*
X144513633Y-125692500D02*
X144546966Y-125725834D01*
X144546966Y-125725834D02*
X144613633Y-125759167D01*
X144613633Y-125759167D02*
X144780300Y-125759167D01*
X144780300Y-125759167D02*
X144846966Y-125725834D01*
X144846966Y-125725834D02*
X144880300Y-125692500D01*
X144880300Y-125692500D02*
X144913633Y-125625834D01*
X144913633Y-125625834D02*
X144913633Y-125425834D01*
X144913633Y-125425834D02*
X144880300Y-125359167D01*
X144880300Y-125359167D02*
X144846966Y-125325834D01*
X144213633Y-125992501D02*
X144213633Y-126425834D01*
X144213633Y-126425834D02*
X144480300Y-126192501D01*
X144480300Y-126192501D02*
X144480300Y-126292501D01*
X144480300Y-126292501D02*
X144513633Y-126359167D01*
X144513633Y-126359167D02*
X144546966Y-126392501D01*
X144546966Y-126392501D02*
X144613633Y-126425834D01*
X144613633Y-126425834D02*
X144780300Y-126425834D01*
X144780300Y-126425834D02*
X144846966Y-126392501D01*
X144846966Y-126392501D02*
X144880300Y-126359167D01*
X144880300Y-126359167D02*
X144913633Y-126292501D01*
X144913633Y-126292501D02*
X144913633Y-126092501D01*
X144913633Y-126092501D02*
X144880300Y-126025834D01*
X144880300Y-126025834D02*
X144846966Y-125992501D01*
X144213633Y-126859168D02*
X144213633Y-126925834D01*
X144213633Y-126925834D02*
X144246966Y-126992501D01*
X144246966Y-126992501D02*
X144280300Y-127025834D01*
X144280300Y-127025834D02*
X144346966Y-127059168D01*
X144346966Y-127059168D02*
X144480300Y-127092501D01*
X144480300Y-127092501D02*
X144646966Y-127092501D01*
X144646966Y-127092501D02*
X144780300Y-127059168D01*
X144780300Y-127059168D02*
X144846966Y-127025834D01*
X144846966Y-127025834D02*
X144880300Y-126992501D01*
X144880300Y-126992501D02*
X144913633Y-126925834D01*
X144913633Y-126925834D02*
X144913633Y-126859168D01*
X144913633Y-126859168D02*
X144880300Y-126792501D01*
X144880300Y-126792501D02*
X144846966Y-126759168D01*
X144846966Y-126759168D02*
X144780300Y-126725834D01*
X144780300Y-126725834D02*
X144646966Y-126692501D01*
X144646966Y-126692501D02*
X144480300Y-126692501D01*
X144480300Y-126692501D02*
X144346966Y-126725834D01*
X144346966Y-126725834D02*
X144280300Y-126759168D01*
X144280300Y-126759168D02*
X144246966Y-126792501D01*
X144246966Y-126792501D02*
X144213633Y-126859168D01*
X144280300Y-127359168D02*
X144246966Y-127392501D01*
X144246966Y-127392501D02*
X144213633Y-127459168D01*
X144213633Y-127459168D02*
X144213633Y-127625835D01*
X144213633Y-127625835D02*
X144246966Y-127692501D01*
X144246966Y-127692501D02*
X144280300Y-127725835D01*
X144280300Y-127725835D02*
X144346966Y-127759168D01*
X144346966Y-127759168D02*
X144413633Y-127759168D01*
X144413633Y-127759168D02*
X144513633Y-127725835D01*
X144513633Y-127725835D02*
X144913633Y-127325835D01*
X144913633Y-127325835D02*
X144913633Y-127759168D01*
X144546966Y-128059168D02*
X144546966Y-128292502D01*
X144913633Y-128392502D02*
X144913633Y-128059168D01*
X144913633Y-128059168D02*
X144213633Y-128059168D01*
X144213633Y-128059168D02*
X144213633Y-128392502D01*
X144180300Y-129192501D02*
X145080300Y-128592501D01*
X144913633Y-129425834D02*
X144213633Y-129425834D01*
X144213633Y-129425834D02*
X144213633Y-129592501D01*
X144213633Y-129592501D02*
X144246966Y-129692501D01*
X144246966Y-129692501D02*
X144313633Y-129759168D01*
X144313633Y-129759168D02*
X144380300Y-129792501D01*
X144380300Y-129792501D02*
X144513633Y-129825834D01*
X144513633Y-129825834D02*
X144613633Y-129825834D01*
X144613633Y-129825834D02*
X144746966Y-129792501D01*
X144746966Y-129792501D02*
X144813633Y-129759168D01*
X144813633Y-129759168D02*
X144880300Y-129692501D01*
X144880300Y-129692501D02*
X144913633Y-129592501D01*
X144913633Y-129592501D02*
X144913633Y-129425834D01*
X144546966Y-130359168D02*
X144580300Y-130459168D01*
X144580300Y-130459168D02*
X144613633Y-130492501D01*
X144613633Y-130492501D02*
X144680300Y-130525834D01*
X144680300Y-130525834D02*
X144780300Y-130525834D01*
X144780300Y-130525834D02*
X144846966Y-130492501D01*
X144846966Y-130492501D02*
X144880300Y-130459168D01*
X144880300Y-130459168D02*
X144913633Y-130392501D01*
X144913633Y-130392501D02*
X144913633Y-130125834D01*
X144913633Y-130125834D02*
X144213633Y-130125834D01*
X144213633Y-130125834D02*
X144213633Y-130359168D01*
X144213633Y-130359168D02*
X144246966Y-130425834D01*
X144246966Y-130425834D02*
X144280300Y-130459168D01*
X144280300Y-130459168D02*
X144346966Y-130492501D01*
X144346966Y-130492501D02*
X144413633Y-130492501D01*
X144413633Y-130492501D02*
X144480300Y-130459168D01*
X144480300Y-130459168D02*
X144513633Y-130425834D01*
X144513633Y-130425834D02*
X144546966Y-130359168D01*
X144546966Y-130359168D02*
X144546966Y-130125834D01*
X134533334Y-55201966D02*
X134300001Y-55201966D01*
X134200001Y-55568633D02*
X134533334Y-55568633D01*
X134533334Y-55568633D02*
X134533334Y-54868633D01*
X134533334Y-54868633D02*
X134200001Y-54868633D01*
X133933334Y-55535300D02*
X133833334Y-55568633D01*
X133833334Y-55568633D02*
X133666668Y-55568633D01*
X133666668Y-55568633D02*
X133600001Y-55535300D01*
X133600001Y-55535300D02*
X133566668Y-55501966D01*
X133566668Y-55501966D02*
X133533334Y-55435300D01*
X133533334Y-55435300D02*
X133533334Y-55368633D01*
X133533334Y-55368633D02*
X133566668Y-55301966D01*
X133566668Y-55301966D02*
X133600001Y-55268633D01*
X133600001Y-55268633D02*
X133666668Y-55235300D01*
X133666668Y-55235300D02*
X133800001Y-55201966D01*
X133800001Y-55201966D02*
X133866668Y-55168633D01*
X133866668Y-55168633D02*
X133900001Y-55135300D01*
X133900001Y-55135300D02*
X133933334Y-55068633D01*
X133933334Y-55068633D02*
X133933334Y-55001966D01*
X133933334Y-55001966D02*
X133900001Y-54935300D01*
X133900001Y-54935300D02*
X133866668Y-54901966D01*
X133866668Y-54901966D02*
X133800001Y-54868633D01*
X133800001Y-54868633D02*
X133633334Y-54868633D01*
X133633334Y-54868633D02*
X133533334Y-54901966D01*
X133233334Y-55568633D02*
X133233334Y-54868633D01*
X133233334Y-54868633D02*
X132966667Y-54868633D01*
X132966667Y-54868633D02*
X132900001Y-54901966D01*
X132900001Y-54901966D02*
X132866667Y-54935300D01*
X132866667Y-54935300D02*
X132833334Y-55001966D01*
X132833334Y-55001966D02*
X132833334Y-55101966D01*
X132833334Y-55101966D02*
X132866667Y-55168633D01*
X132866667Y-55168633D02*
X132900001Y-55201966D01*
X132900001Y-55201966D02*
X132966667Y-55235300D01*
X132966667Y-55235300D02*
X133233334Y-55235300D01*
X132600001Y-54868633D02*
X132166667Y-54868633D01*
X132166667Y-54868633D02*
X132400001Y-55135300D01*
X132400001Y-55135300D02*
X132300001Y-55135300D01*
X132300001Y-55135300D02*
X132233334Y-55168633D01*
X132233334Y-55168633D02*
X132200001Y-55201966D01*
X132200001Y-55201966D02*
X132166667Y-55268633D01*
X132166667Y-55268633D02*
X132166667Y-55435300D01*
X132166667Y-55435300D02*
X132200001Y-55501966D01*
X132200001Y-55501966D02*
X132233334Y-55535300D01*
X132233334Y-55535300D02*
X132300001Y-55568633D01*
X132300001Y-55568633D02*
X132500001Y-55568633D01*
X132500001Y-55568633D02*
X132566667Y-55535300D01*
X132566667Y-55535300D02*
X132600001Y-55501966D01*
X131900000Y-54935300D02*
X131866667Y-54901966D01*
X131866667Y-54901966D02*
X131800000Y-54868633D01*
X131800000Y-54868633D02*
X131633334Y-54868633D01*
X131633334Y-54868633D02*
X131566667Y-54901966D01*
X131566667Y-54901966D02*
X131533334Y-54935300D01*
X131533334Y-54935300D02*
X131500000Y-55001966D01*
X131500000Y-55001966D02*
X131500000Y-55068633D01*
X131500000Y-55068633D02*
X131533334Y-55168633D01*
X131533334Y-55168633D02*
X131933334Y-55568633D01*
X131933334Y-55568633D02*
X131500000Y-55568633D01*
X131200000Y-55301966D02*
X130666667Y-55301966D01*
X130366666Y-55535300D02*
X130266666Y-55568633D01*
X130266666Y-55568633D02*
X130100000Y-55568633D01*
X130100000Y-55568633D02*
X130033333Y-55535300D01*
X130033333Y-55535300D02*
X130000000Y-55501966D01*
X130000000Y-55501966D02*
X129966666Y-55435300D01*
X129966666Y-55435300D02*
X129966666Y-55368633D01*
X129966666Y-55368633D02*
X130000000Y-55301966D01*
X130000000Y-55301966D02*
X130033333Y-55268633D01*
X130033333Y-55268633D02*
X130100000Y-55235300D01*
X130100000Y-55235300D02*
X130233333Y-55201966D01*
X130233333Y-55201966D02*
X130300000Y-55168633D01*
X130300000Y-55168633D02*
X130333333Y-55135300D01*
X130333333Y-55135300D02*
X130366666Y-55068633D01*
X130366666Y-55068633D02*
X130366666Y-55001966D01*
X130366666Y-55001966D02*
X130333333Y-54935300D01*
X130333333Y-54935300D02*
X130300000Y-54901966D01*
X130300000Y-54901966D02*
X130233333Y-54868633D01*
X130233333Y-54868633D02*
X130066666Y-54868633D01*
X130066666Y-54868633D02*
X129966666Y-54901966D01*
X129733333Y-54868633D02*
X129299999Y-54868633D01*
X129299999Y-54868633D02*
X129533333Y-55135300D01*
X129533333Y-55135300D02*
X129433333Y-55135300D01*
X129433333Y-55135300D02*
X129366666Y-55168633D01*
X129366666Y-55168633D02*
X129333333Y-55201966D01*
X129333333Y-55201966D02*
X129299999Y-55268633D01*
X129299999Y-55268633D02*
X129299999Y-55435300D01*
X129299999Y-55435300D02*
X129333333Y-55501966D01*
X129333333Y-55501966D02*
X129366666Y-55535300D01*
X129366666Y-55535300D02*
X129433333Y-55568633D01*
X129433333Y-55568633D02*
X129633333Y-55568633D01*
X129633333Y-55568633D02*
X129699999Y-55535300D01*
X129699999Y-55535300D02*
X129733333Y-55501966D01*
X128999999Y-55301966D02*
X128466666Y-55301966D01*
X128199999Y-54868633D02*
X128033332Y-55568633D01*
X128033332Y-55568633D02*
X127899999Y-55068633D01*
X127899999Y-55068633D02*
X127766665Y-55568633D01*
X127766665Y-55568633D02*
X127599999Y-54868633D01*
X126933332Y-55568633D02*
X127166665Y-55235300D01*
X127333332Y-55568633D02*
X127333332Y-54868633D01*
X127333332Y-54868633D02*
X127066665Y-54868633D01*
X127066665Y-54868633D02*
X126999999Y-54901966D01*
X126999999Y-54901966D02*
X126966665Y-54935300D01*
X126966665Y-54935300D02*
X126933332Y-55001966D01*
X126933332Y-55001966D02*
X126933332Y-55101966D01*
X126933332Y-55101966D02*
X126966665Y-55168633D01*
X126966665Y-55168633D02*
X126999999Y-55201966D01*
X126999999Y-55201966D02*
X127066665Y-55235300D01*
X127066665Y-55235300D02*
X127333332Y-55235300D01*
X126499999Y-54868633D02*
X126366665Y-54868633D01*
X126366665Y-54868633D02*
X126299999Y-54901966D01*
X126299999Y-54901966D02*
X126233332Y-54968633D01*
X126233332Y-54968633D02*
X126199999Y-55101966D01*
X126199999Y-55101966D02*
X126199999Y-55335300D01*
X126199999Y-55335300D02*
X126233332Y-55468633D01*
X126233332Y-55468633D02*
X126299999Y-55535300D01*
X126299999Y-55535300D02*
X126366665Y-55568633D01*
X126366665Y-55568633D02*
X126499999Y-55568633D01*
X126499999Y-55568633D02*
X126566665Y-55535300D01*
X126566665Y-55535300D02*
X126633332Y-55468633D01*
X126633332Y-55468633D02*
X126666665Y-55335300D01*
X126666665Y-55335300D02*
X126666665Y-55101966D01*
X126666665Y-55101966D02*
X126633332Y-54968633D01*
X126633332Y-54968633D02*
X126566665Y-54901966D01*
X126566665Y-54901966D02*
X126499999Y-54868633D01*
X125766666Y-54868633D02*
X125633332Y-54868633D01*
X125633332Y-54868633D02*
X125566666Y-54901966D01*
X125566666Y-54901966D02*
X125499999Y-54968633D01*
X125499999Y-54968633D02*
X125466666Y-55101966D01*
X125466666Y-55101966D02*
X125466666Y-55335300D01*
X125466666Y-55335300D02*
X125499999Y-55468633D01*
X125499999Y-55468633D02*
X125566666Y-55535300D01*
X125566666Y-55535300D02*
X125633332Y-55568633D01*
X125633332Y-55568633D02*
X125766666Y-55568633D01*
X125766666Y-55568633D02*
X125833332Y-55535300D01*
X125833332Y-55535300D02*
X125899999Y-55468633D01*
X125899999Y-55468633D02*
X125933332Y-55335300D01*
X125933332Y-55335300D02*
X125933332Y-55101966D01*
X125933332Y-55101966D02*
X125899999Y-54968633D01*
X125899999Y-54968633D02*
X125833332Y-54901966D01*
X125833332Y-54901966D02*
X125766666Y-54868633D01*
X125166666Y-55568633D02*
X125166666Y-54868633D01*
X125166666Y-54868633D02*
X124933333Y-55368633D01*
X124933333Y-55368633D02*
X124699999Y-54868633D01*
X124699999Y-54868633D02*
X124699999Y-55568633D01*
X124366666Y-55301966D02*
X123833333Y-55301966D01*
X123133332Y-55568633D02*
X123533332Y-55568633D01*
X123333332Y-55568633D02*
X123333332Y-54868633D01*
X123333332Y-54868633D02*
X123399999Y-54968633D01*
X123399999Y-54968633D02*
X123466666Y-55035300D01*
X123466666Y-55035300D02*
X123533332Y-55068633D01*
X129383333Y-39668633D02*
X129383333Y-40235300D01*
X129383333Y-40235300D02*
X129350000Y-40301966D01*
X129350000Y-40301966D02*
X129316666Y-40335300D01*
X129316666Y-40335300D02*
X129250000Y-40368633D01*
X129250000Y-40368633D02*
X129116666Y-40368633D01*
X129116666Y-40368633D02*
X129050000Y-40335300D01*
X129050000Y-40335300D02*
X129016666Y-40301966D01*
X129016666Y-40301966D02*
X128983333Y-40235300D01*
X128983333Y-40235300D02*
X128983333Y-39668633D01*
X128283333Y-40368633D02*
X128683333Y-40368633D01*
X128483333Y-40368633D02*
X128483333Y-39668633D01*
X128483333Y-39668633D02*
X128550000Y-39768633D01*
X128550000Y-39768633D02*
X128616667Y-39835300D01*
X128616667Y-39835300D02*
X128683333Y-39868633D01*
X123948357Y-100178094D02*
X123948357Y-100511427D01*
X124148357Y-100111427D02*
X123448357Y-100344761D01*
X123448357Y-100344761D02*
X124148357Y-100578094D01*
X124081690Y-101211427D02*
X124115024Y-101178094D01*
X124115024Y-101178094D02*
X124148357Y-101078094D01*
X124148357Y-101078094D02*
X124148357Y-101011427D01*
X124148357Y-101011427D02*
X124115024Y-100911427D01*
X124115024Y-100911427D02*
X124048357Y-100844761D01*
X124048357Y-100844761D02*
X123981690Y-100811427D01*
X123981690Y-100811427D02*
X123848357Y-100778094D01*
X123848357Y-100778094D02*
X123748357Y-100778094D01*
X123748357Y-100778094D02*
X123615024Y-100811427D01*
X123615024Y-100811427D02*
X123548357Y-100844761D01*
X123548357Y-100844761D02*
X123481690Y-100911427D01*
X123481690Y-100911427D02*
X123448357Y-101011427D01*
X123448357Y-101011427D02*
X123448357Y-101078094D01*
X123448357Y-101078094D02*
X123481690Y-101178094D01*
X123481690Y-101178094D02*
X123515024Y-101211427D01*
X124148357Y-101511427D02*
X123448357Y-101511427D01*
X123448357Y-101511427D02*
X123948357Y-101744761D01*
X123948357Y-101744761D02*
X123448357Y-101978094D01*
X123448357Y-101978094D02*
X124148357Y-101978094D01*
X123515024Y-102278094D02*
X123481690Y-102311427D01*
X123481690Y-102311427D02*
X123448357Y-102378094D01*
X123448357Y-102378094D02*
X123448357Y-102544761D01*
X123448357Y-102544761D02*
X123481690Y-102611427D01*
X123481690Y-102611427D02*
X123515024Y-102644761D01*
X123515024Y-102644761D02*
X123581690Y-102678094D01*
X123581690Y-102678094D02*
X123648357Y-102678094D01*
X123648357Y-102678094D02*
X123748357Y-102644761D01*
X123748357Y-102644761D02*
X124148357Y-102244761D01*
X124148357Y-102244761D02*
X124148357Y-102678094D01*
X123448357Y-103111428D02*
X123448357Y-103178094D01*
X123448357Y-103178094D02*
X123481690Y-103244761D01*
X123481690Y-103244761D02*
X123515024Y-103278094D01*
X123515024Y-103278094D02*
X123581690Y-103311428D01*
X123581690Y-103311428D02*
X123715024Y-103344761D01*
X123715024Y-103344761D02*
X123881690Y-103344761D01*
X123881690Y-103344761D02*
X124015024Y-103311428D01*
X124015024Y-103311428D02*
X124081690Y-103278094D01*
X124081690Y-103278094D02*
X124115024Y-103244761D01*
X124115024Y-103244761D02*
X124148357Y-103178094D01*
X124148357Y-103178094D02*
X124148357Y-103111428D01*
X124148357Y-103111428D02*
X124115024Y-103044761D01*
X124115024Y-103044761D02*
X124081690Y-103011428D01*
X124081690Y-103011428D02*
X124015024Y-102978094D01*
X124015024Y-102978094D02*
X123881690Y-102944761D01*
X123881690Y-102944761D02*
X123715024Y-102944761D01*
X123715024Y-102944761D02*
X123581690Y-102978094D01*
X123581690Y-102978094D02*
X123515024Y-103011428D01*
X123515024Y-103011428D02*
X123481690Y-103044761D01*
X123481690Y-103044761D02*
X123448357Y-103111428D01*
X124148357Y-104011428D02*
X124148357Y-103611428D01*
X124148357Y-103811428D02*
X123448357Y-103811428D01*
X123448357Y-103811428D02*
X123548357Y-103744761D01*
X123548357Y-103744761D02*
X123615024Y-103678095D01*
X123615024Y-103678095D02*
X123648357Y-103611428D01*
X123515024Y-104278095D02*
X123481690Y-104311428D01*
X123481690Y-104311428D02*
X123448357Y-104378095D01*
X123448357Y-104378095D02*
X123448357Y-104544762D01*
X123448357Y-104544762D02*
X123481690Y-104611428D01*
X123481690Y-104611428D02*
X123515024Y-104644762D01*
X123515024Y-104644762D02*
X123581690Y-104678095D01*
X123581690Y-104678095D02*
X123648357Y-104678095D01*
X123648357Y-104678095D02*
X123748357Y-104644762D01*
X123748357Y-104644762D02*
X124148357Y-104244762D01*
X124148357Y-104244762D02*
X124148357Y-104678095D01*
X123881690Y-104978095D02*
X123881690Y-105511429D01*
X124148357Y-105878096D02*
X124148357Y-106011429D01*
X124148357Y-106011429D02*
X124115024Y-106078096D01*
X124115024Y-106078096D02*
X124081690Y-106111429D01*
X124081690Y-106111429D02*
X123981690Y-106178096D01*
X123981690Y-106178096D02*
X123848357Y-106211429D01*
X123848357Y-106211429D02*
X123581690Y-106211429D01*
X123581690Y-106211429D02*
X123515024Y-106178096D01*
X123515024Y-106178096D02*
X123481690Y-106144762D01*
X123481690Y-106144762D02*
X123448357Y-106078096D01*
X123448357Y-106078096D02*
X123448357Y-105944762D01*
X123448357Y-105944762D02*
X123481690Y-105878096D01*
X123481690Y-105878096D02*
X123515024Y-105844762D01*
X123515024Y-105844762D02*
X123581690Y-105811429D01*
X123581690Y-105811429D02*
X123748357Y-105811429D01*
X123748357Y-105811429D02*
X123815024Y-105844762D01*
X123815024Y-105844762D02*
X123848357Y-105878096D01*
X123848357Y-105878096D02*
X123881690Y-105944762D01*
X123881690Y-105944762D02*
X123881690Y-106078096D01*
X123881690Y-106078096D02*
X123848357Y-106144762D01*
X123848357Y-106144762D02*
X123815024Y-106178096D01*
X123815024Y-106178096D02*
X123748357Y-106211429D01*
X123448357Y-106644763D02*
X123448357Y-106711429D01*
X123448357Y-106711429D02*
X123481690Y-106778096D01*
X123481690Y-106778096D02*
X123515024Y-106811429D01*
X123515024Y-106811429D02*
X123581690Y-106844763D01*
X123581690Y-106844763D02*
X123715024Y-106878096D01*
X123715024Y-106878096D02*
X123881690Y-106878096D01*
X123881690Y-106878096D02*
X124015024Y-106844763D01*
X124015024Y-106844763D02*
X124081690Y-106811429D01*
X124081690Y-106811429D02*
X124115024Y-106778096D01*
X124115024Y-106778096D02*
X124148357Y-106711429D01*
X124148357Y-106711429D02*
X124148357Y-106644763D01*
X124148357Y-106644763D02*
X124115024Y-106578096D01*
X124115024Y-106578096D02*
X124081690Y-106544763D01*
X124081690Y-106544763D02*
X124015024Y-106511429D01*
X124015024Y-106511429D02*
X123881690Y-106478096D01*
X123881690Y-106478096D02*
X123715024Y-106478096D01*
X123715024Y-106478096D02*
X123581690Y-106511429D01*
X123581690Y-106511429D02*
X123515024Y-106544763D01*
X123515024Y-106544763D02*
X123481690Y-106578096D01*
X123481690Y-106578096D02*
X123448357Y-106644763D01*
X123448357Y-107311430D02*
X123448357Y-107378096D01*
X123448357Y-107378096D02*
X123481690Y-107444763D01*
X123481690Y-107444763D02*
X123515024Y-107478096D01*
X123515024Y-107478096D02*
X123581690Y-107511430D01*
X123581690Y-107511430D02*
X123715024Y-107544763D01*
X123715024Y-107544763D02*
X123881690Y-107544763D01*
X123881690Y-107544763D02*
X124015024Y-107511430D01*
X124015024Y-107511430D02*
X124081690Y-107478096D01*
X124081690Y-107478096D02*
X124115024Y-107444763D01*
X124115024Y-107444763D02*
X124148357Y-107378096D01*
X124148357Y-107378096D02*
X124148357Y-107311430D01*
X124148357Y-107311430D02*
X124115024Y-107244763D01*
X124115024Y-107244763D02*
X124081690Y-107211430D01*
X124081690Y-107211430D02*
X124015024Y-107178096D01*
X124015024Y-107178096D02*
X123881690Y-107144763D01*
X123881690Y-107144763D02*
X123715024Y-107144763D01*
X123715024Y-107144763D02*
X123581690Y-107178096D01*
X123581690Y-107178096D02*
X123515024Y-107211430D01*
X123515024Y-107211430D02*
X123481690Y-107244763D01*
X123481690Y-107244763D02*
X123448357Y-107311430D01*
X123881690Y-107844763D02*
X123881690Y-108378097D01*
X123515024Y-108678097D02*
X123481690Y-108711430D01*
X123481690Y-108711430D02*
X123448357Y-108778097D01*
X123448357Y-108778097D02*
X123448357Y-108944764D01*
X123448357Y-108944764D02*
X123481690Y-109011430D01*
X123481690Y-109011430D02*
X123515024Y-109044764D01*
X123515024Y-109044764D02*
X123581690Y-109078097D01*
X123581690Y-109078097D02*
X123648357Y-109078097D01*
X123648357Y-109078097D02*
X123748357Y-109044764D01*
X123748357Y-109044764D02*
X124148357Y-108644764D01*
X124148357Y-108644764D02*
X124148357Y-109078097D01*
X124148357Y-109378097D02*
X123448357Y-109378097D01*
X123448357Y-109378097D02*
X123448357Y-109644764D01*
X123448357Y-109644764D02*
X123481690Y-109711431D01*
X123481690Y-109711431D02*
X123515024Y-109744764D01*
X123515024Y-109744764D02*
X123581690Y-109778097D01*
X123581690Y-109778097D02*
X123681690Y-109778097D01*
X123681690Y-109778097D02*
X123748357Y-109744764D01*
X123748357Y-109744764D02*
X123781690Y-109711431D01*
X123781690Y-109711431D02*
X123815024Y-109644764D01*
X123815024Y-109644764D02*
X123815024Y-109378097D01*
X123881690Y-110078097D02*
X123881690Y-110611431D01*
X123448357Y-110844764D02*
X123448357Y-111244764D01*
X124148357Y-111044764D02*
X123448357Y-111044764D01*
X123448357Y-111611431D02*
X123448357Y-111678097D01*
X123448357Y-111678097D02*
X123481690Y-111744764D01*
X123481690Y-111744764D02*
X123515024Y-111778097D01*
X123515024Y-111778097D02*
X123581690Y-111811431D01*
X123581690Y-111811431D02*
X123715024Y-111844764D01*
X123715024Y-111844764D02*
X123881690Y-111844764D01*
X123881690Y-111844764D02*
X124015024Y-111811431D01*
X124015024Y-111811431D02*
X124081690Y-111778097D01*
X124081690Y-111778097D02*
X124115024Y-111744764D01*
X124115024Y-111744764D02*
X124148357Y-111678097D01*
X124148357Y-111678097D02*
X124148357Y-111611431D01*
X124148357Y-111611431D02*
X124115024Y-111544764D01*
X124115024Y-111544764D02*
X124081690Y-111511431D01*
X124081690Y-111511431D02*
X124015024Y-111478097D01*
X124015024Y-111478097D02*
X123881690Y-111444764D01*
X123881690Y-111444764D02*
X123715024Y-111444764D01*
X123715024Y-111444764D02*
X123581690Y-111478097D01*
X123581690Y-111478097D02*
X123515024Y-111511431D01*
X123515024Y-111511431D02*
X123481690Y-111544764D01*
X123481690Y-111544764D02*
X123448357Y-111611431D01*
X123448357Y-112278098D02*
X123448357Y-112344764D01*
X123448357Y-112344764D02*
X123481690Y-112411431D01*
X123481690Y-112411431D02*
X123515024Y-112444764D01*
X123515024Y-112444764D02*
X123581690Y-112478098D01*
X123581690Y-112478098D02*
X123715024Y-112511431D01*
X123715024Y-112511431D02*
X123881690Y-112511431D01*
X123881690Y-112511431D02*
X124015024Y-112478098D01*
X124015024Y-112478098D02*
X124081690Y-112444764D01*
X124081690Y-112444764D02*
X124115024Y-112411431D01*
X124115024Y-112411431D02*
X124148357Y-112344764D01*
X124148357Y-112344764D02*
X124148357Y-112278098D01*
X124148357Y-112278098D02*
X124115024Y-112211431D01*
X124115024Y-112211431D02*
X124081690Y-112178098D01*
X124081690Y-112178098D02*
X124015024Y-112144764D01*
X124015024Y-112144764D02*
X123881690Y-112111431D01*
X123881690Y-112111431D02*
X123715024Y-112111431D01*
X123715024Y-112111431D02*
X123581690Y-112144764D01*
X123581690Y-112144764D02*
X123515024Y-112178098D01*
X123515024Y-112178098D02*
X123481690Y-112211431D01*
X123481690Y-112211431D02*
X123448357Y-112278098D01*
X124148357Y-113178098D02*
X124148357Y-112778098D01*
X124148357Y-112978098D02*
X123448357Y-112978098D01*
X123448357Y-112978098D02*
X123548357Y-112911431D01*
X123548357Y-112911431D02*
X123615024Y-112844765D01*
X123615024Y-112844765D02*
X123648357Y-112778098D01*
X135049999Y-114888633D02*
X135449999Y-114888633D01*
X135249999Y-114888633D02*
X135249999Y-114188633D01*
X135249999Y-114188633D02*
X135316666Y-114288633D01*
X135316666Y-114288633D02*
X135383333Y-114355300D01*
X135383333Y-114355300D02*
X135449999Y-114388633D01*
X134616666Y-114188633D02*
X134549999Y-114188633D01*
X134549999Y-114188633D02*
X134483332Y-114221966D01*
X134483332Y-114221966D02*
X134449999Y-114255300D01*
X134449999Y-114255300D02*
X134416666Y-114321966D01*
X134416666Y-114321966D02*
X134383332Y-114455300D01*
X134383332Y-114455300D02*
X134383332Y-114621966D01*
X134383332Y-114621966D02*
X134416666Y-114755300D01*
X134416666Y-114755300D02*
X134449999Y-114821966D01*
X134449999Y-114821966D02*
X134483332Y-114855300D01*
X134483332Y-114855300D02*
X134549999Y-114888633D01*
X134549999Y-114888633D02*
X134616666Y-114888633D01*
X134616666Y-114888633D02*
X134683332Y-114855300D01*
X134683332Y-114855300D02*
X134716666Y-114821966D01*
X134716666Y-114821966D02*
X134749999Y-114755300D01*
X134749999Y-114755300D02*
X134783332Y-114621966D01*
X134783332Y-114621966D02*
X134783332Y-114455300D01*
X134783332Y-114455300D02*
X134749999Y-114321966D01*
X134749999Y-114321966D02*
X134716666Y-114255300D01*
X134716666Y-114255300D02*
X134683332Y-114221966D01*
X134683332Y-114221966D02*
X134616666Y-114188633D01*
X133783332Y-114421966D02*
X133783332Y-114888633D01*
X134083332Y-114421966D02*
X134083332Y-114788633D01*
X134083332Y-114788633D02*
X134049999Y-114855300D01*
X134049999Y-114855300D02*
X133983332Y-114888633D01*
X133983332Y-114888633D02*
X133883332Y-114888633D01*
X133883332Y-114888633D02*
X133816665Y-114855300D01*
X133816665Y-114855300D02*
X133783332Y-114821966D01*
X135050000Y-113141966D02*
X135083333Y-113175300D01*
X135083333Y-113175300D02*
X135183333Y-113208633D01*
X135183333Y-113208633D02*
X135250000Y-113208633D01*
X135250000Y-113208633D02*
X135350000Y-113175300D01*
X135350000Y-113175300D02*
X135416667Y-113108633D01*
X135416667Y-113108633D02*
X135450000Y-113041966D01*
X135450000Y-113041966D02*
X135483333Y-112908633D01*
X135483333Y-112908633D02*
X135483333Y-112808633D01*
X135483333Y-112808633D02*
X135450000Y-112675300D01*
X135450000Y-112675300D02*
X135416667Y-112608633D01*
X135416667Y-112608633D02*
X135350000Y-112541966D01*
X135350000Y-112541966D02*
X135250000Y-112508633D01*
X135250000Y-112508633D02*
X135183333Y-112508633D01*
X135183333Y-112508633D02*
X135083333Y-112541966D01*
X135083333Y-112541966D02*
X135050000Y-112575300D01*
X134783333Y-112575300D02*
X134750000Y-112541966D01*
X134750000Y-112541966D02*
X134683333Y-112508633D01*
X134683333Y-112508633D02*
X134516667Y-112508633D01*
X134516667Y-112508633D02*
X134450000Y-112541966D01*
X134450000Y-112541966D02*
X134416667Y-112575300D01*
X134416667Y-112575300D02*
X134383333Y-112641966D01*
X134383333Y-112641966D02*
X134383333Y-112708633D01*
X134383333Y-112708633D02*
X134416667Y-112808633D01*
X134416667Y-112808633D02*
X134816667Y-113208633D01*
X134816667Y-113208633D02*
X134383333Y-113208633D01*
X134116666Y-112575300D02*
X134083333Y-112541966D01*
X134083333Y-112541966D02*
X134016666Y-112508633D01*
X134016666Y-112508633D02*
X133850000Y-112508633D01*
X133850000Y-112508633D02*
X133783333Y-112541966D01*
X133783333Y-112541966D02*
X133750000Y-112575300D01*
X133750000Y-112575300D02*
X133716666Y-112641966D01*
X133716666Y-112641966D02*
X133716666Y-112708633D01*
X133716666Y-112708633D02*
X133750000Y-112808633D01*
X133750000Y-112808633D02*
X134150000Y-113208633D01*
X134150000Y-113208633D02*
X133716666Y-113208633D01*
X136846666Y-125838633D02*
X137246666Y-125838633D01*
X137046666Y-125838633D02*
X137046666Y-125138633D01*
X137046666Y-125138633D02*
X137113333Y-125238633D01*
X137113333Y-125238633D02*
X137180000Y-125305300D01*
X137180000Y-125305300D02*
X137246666Y-125338633D01*
X136413333Y-125138633D02*
X136346666Y-125138633D01*
X136346666Y-125138633D02*
X136279999Y-125171966D01*
X136279999Y-125171966D02*
X136246666Y-125205300D01*
X136246666Y-125205300D02*
X136213333Y-125271966D01*
X136213333Y-125271966D02*
X136179999Y-125405300D01*
X136179999Y-125405300D02*
X136179999Y-125571966D01*
X136179999Y-125571966D02*
X136213333Y-125705300D01*
X136213333Y-125705300D02*
X136246666Y-125771966D01*
X136246666Y-125771966D02*
X136279999Y-125805300D01*
X136279999Y-125805300D02*
X136346666Y-125838633D01*
X136346666Y-125838633D02*
X136413333Y-125838633D01*
X136413333Y-125838633D02*
X136479999Y-125805300D01*
X136479999Y-125805300D02*
X136513333Y-125771966D01*
X136513333Y-125771966D02*
X136546666Y-125705300D01*
X136546666Y-125705300D02*
X136579999Y-125571966D01*
X136579999Y-125571966D02*
X136579999Y-125405300D01*
X136579999Y-125405300D02*
X136546666Y-125271966D01*
X136546666Y-125271966D02*
X136513333Y-125205300D01*
X136513333Y-125205300D02*
X136479999Y-125171966D01*
X136479999Y-125171966D02*
X136413333Y-125138633D01*
X135879999Y-125838633D02*
X135879999Y-125138633D01*
X135813332Y-125571966D02*
X135613332Y-125838633D01*
X135613332Y-125371966D02*
X135879999Y-125638633D01*
X136880000Y-124188633D02*
X137113333Y-123855300D01*
X137280000Y-124188633D02*
X137280000Y-123488633D01*
X137280000Y-123488633D02*
X137013333Y-123488633D01*
X137013333Y-123488633D02*
X136946667Y-123521966D01*
X136946667Y-123521966D02*
X136913333Y-123555300D01*
X136913333Y-123555300D02*
X136880000Y-123621966D01*
X136880000Y-123621966D02*
X136880000Y-123721966D01*
X136880000Y-123721966D02*
X136913333Y-123788633D01*
X136913333Y-123788633D02*
X136946667Y-123821966D01*
X136946667Y-123821966D02*
X137013333Y-123855300D01*
X137013333Y-123855300D02*
X137280000Y-123855300D01*
X136280000Y-123721966D02*
X136280000Y-124188633D01*
X136446667Y-123455300D02*
X136613333Y-123955300D01*
X136613333Y-123955300D02*
X136180000Y-123955300D01*
X135780000Y-123488633D02*
X135713333Y-123488633D01*
X135713333Y-123488633D02*
X135646666Y-123521966D01*
X135646666Y-123521966D02*
X135613333Y-123555300D01*
X135613333Y-123555300D02*
X135580000Y-123621966D01*
X135580000Y-123621966D02*
X135546666Y-123755300D01*
X135546666Y-123755300D02*
X135546666Y-123921966D01*
X135546666Y-123921966D02*
X135580000Y-124055300D01*
X135580000Y-124055300D02*
X135613333Y-124121966D01*
X135613333Y-124121966D02*
X135646666Y-124155300D01*
X135646666Y-124155300D02*
X135713333Y-124188633D01*
X135713333Y-124188633D02*
X135780000Y-124188633D01*
X135780000Y-124188633D02*
X135846666Y-124155300D01*
X135846666Y-124155300D02*
X135880000Y-124121966D01*
X135880000Y-124121966D02*
X135913333Y-124055300D01*
X135913333Y-124055300D02*
X135946666Y-123921966D01*
X135946666Y-123921966D02*
X135946666Y-123755300D01*
X135946666Y-123755300D02*
X135913333Y-123621966D01*
X135913333Y-123621966D02*
X135880000Y-123555300D01*
X135880000Y-123555300D02*
X135846666Y-123521966D01*
X135846666Y-123521966D02*
X135780000Y-123488633D01*
X108641966Y-48216666D02*
X109108633Y-48216666D01*
X108375300Y-48050000D02*
X108875300Y-47883333D01*
X108875300Y-47883333D02*
X108875300Y-48316666D01*
X108408633Y-48516667D02*
X108408633Y-48983333D01*
X108408633Y-48983333D02*
X109108633Y-48683333D01*
X109108633Y-49250000D02*
X108408633Y-49250000D01*
X108841966Y-49316667D02*
X109108633Y-49516667D01*
X108641966Y-49516667D02*
X108908633Y-49250000D01*
X107458633Y-48249999D02*
X107125300Y-48016666D01*
X107458633Y-47849999D02*
X106758633Y-47849999D01*
X106758633Y-47849999D02*
X106758633Y-48116666D01*
X106758633Y-48116666D02*
X106791966Y-48183333D01*
X106791966Y-48183333D02*
X106825300Y-48216666D01*
X106825300Y-48216666D02*
X106891966Y-48249999D01*
X106891966Y-48249999D02*
X106991966Y-48249999D01*
X106991966Y-48249999D02*
X107058633Y-48216666D01*
X107058633Y-48216666D02*
X107091966Y-48183333D01*
X107091966Y-48183333D02*
X107125300Y-48116666D01*
X107125300Y-48116666D02*
X107125300Y-47849999D01*
X106825300Y-48516666D02*
X106791966Y-48549999D01*
X106791966Y-48549999D02*
X106758633Y-48616666D01*
X106758633Y-48616666D02*
X106758633Y-48783333D01*
X106758633Y-48783333D02*
X106791966Y-48849999D01*
X106791966Y-48849999D02*
X106825300Y-48883333D01*
X106825300Y-48883333D02*
X106891966Y-48916666D01*
X106891966Y-48916666D02*
X106958633Y-48916666D01*
X106958633Y-48916666D02*
X107058633Y-48883333D01*
X107058633Y-48883333D02*
X107458633Y-48483333D01*
X107458633Y-48483333D02*
X107458633Y-48916666D01*
X106825300Y-49183333D02*
X106791966Y-49216666D01*
X106791966Y-49216666D02*
X106758633Y-49283333D01*
X106758633Y-49283333D02*
X106758633Y-49450000D01*
X106758633Y-49450000D02*
X106791966Y-49516666D01*
X106791966Y-49516666D02*
X106825300Y-49550000D01*
X106825300Y-49550000D02*
X106891966Y-49583333D01*
X106891966Y-49583333D02*
X106958633Y-49583333D01*
X106958633Y-49583333D02*
X107058633Y-49550000D01*
X107058633Y-49550000D02*
X107458633Y-49150000D01*
X107458633Y-49150000D02*
X107458633Y-49583333D01*
X94050833Y-108618633D02*
X94450833Y-108618633D01*
X94250833Y-108618633D02*
X94250833Y-107918633D01*
X94250833Y-107918633D02*
X94317500Y-108018633D01*
X94317500Y-108018633D02*
X94384167Y-108085300D01*
X94384167Y-108085300D02*
X94450833Y-108118633D01*
X93617500Y-107918633D02*
X93550833Y-107918633D01*
X93550833Y-107918633D02*
X93484166Y-107951966D01*
X93484166Y-107951966D02*
X93450833Y-107985300D01*
X93450833Y-107985300D02*
X93417500Y-108051966D01*
X93417500Y-108051966D02*
X93384166Y-108185300D01*
X93384166Y-108185300D02*
X93384166Y-108351966D01*
X93384166Y-108351966D02*
X93417500Y-108485300D01*
X93417500Y-108485300D02*
X93450833Y-108551966D01*
X93450833Y-108551966D02*
X93484166Y-108585300D01*
X93484166Y-108585300D02*
X93550833Y-108618633D01*
X93550833Y-108618633D02*
X93617500Y-108618633D01*
X93617500Y-108618633D02*
X93684166Y-108585300D01*
X93684166Y-108585300D02*
X93717500Y-108551966D01*
X93717500Y-108551966D02*
X93750833Y-108485300D01*
X93750833Y-108485300D02*
X93784166Y-108351966D01*
X93784166Y-108351966D02*
X93784166Y-108185300D01*
X93784166Y-108185300D02*
X93750833Y-108051966D01*
X93750833Y-108051966D02*
X93717500Y-107985300D01*
X93717500Y-107985300D02*
X93684166Y-107951966D01*
X93684166Y-107951966D02*
X93617500Y-107918633D01*
X93084166Y-108618633D02*
X93084166Y-107918633D01*
X92684166Y-108618633D02*
X92984166Y-108218633D01*
X92684166Y-107918633D02*
X93084166Y-108318633D01*
X94017500Y-106968633D02*
X94250833Y-106635300D01*
X94417500Y-106968633D02*
X94417500Y-106268633D01*
X94417500Y-106268633D02*
X94150833Y-106268633D01*
X94150833Y-106268633D02*
X94084167Y-106301966D01*
X94084167Y-106301966D02*
X94050833Y-106335300D01*
X94050833Y-106335300D02*
X94017500Y-106401966D01*
X94017500Y-106401966D02*
X94017500Y-106501966D01*
X94017500Y-106501966D02*
X94050833Y-106568633D01*
X94050833Y-106568633D02*
X94084167Y-106601966D01*
X94084167Y-106601966D02*
X94150833Y-106635300D01*
X94150833Y-106635300D02*
X94417500Y-106635300D01*
X93417500Y-106501966D02*
X93417500Y-106968633D01*
X93584167Y-106235300D02*
X93750833Y-106735300D01*
X93750833Y-106735300D02*
X93317500Y-106735300D01*
X92750833Y-106501966D02*
X92750833Y-106968633D01*
X92917500Y-106235300D02*
X93084166Y-106735300D01*
X93084166Y-106735300D02*
X92650833Y-106735300D01*
X117688633Y-53113333D02*
X117688633Y-53546666D01*
X117688633Y-53546666D02*
X117955300Y-53313333D01*
X117955300Y-53313333D02*
X117955300Y-53413333D01*
X117955300Y-53413333D02*
X117988633Y-53479999D01*
X117988633Y-53479999D02*
X118021966Y-53513333D01*
X118021966Y-53513333D02*
X118088633Y-53546666D01*
X118088633Y-53546666D02*
X118255300Y-53546666D01*
X118255300Y-53546666D02*
X118321966Y-53513333D01*
X118321966Y-53513333D02*
X118355300Y-53479999D01*
X118355300Y-53479999D02*
X118388633Y-53413333D01*
X118388633Y-53413333D02*
X118388633Y-53213333D01*
X118388633Y-53213333D02*
X118355300Y-53146666D01*
X118355300Y-53146666D02*
X118321966Y-53113333D01*
X117688633Y-53780000D02*
X117688633Y-54213333D01*
X117688633Y-54213333D02*
X117955300Y-53980000D01*
X117955300Y-53980000D02*
X117955300Y-54080000D01*
X117955300Y-54080000D02*
X117988633Y-54146666D01*
X117988633Y-54146666D02*
X118021966Y-54180000D01*
X118021966Y-54180000D02*
X118088633Y-54213333D01*
X118088633Y-54213333D02*
X118255300Y-54213333D01*
X118255300Y-54213333D02*
X118321966Y-54180000D01*
X118321966Y-54180000D02*
X118355300Y-54146666D01*
X118355300Y-54146666D02*
X118388633Y-54080000D01*
X118388633Y-54080000D02*
X118388633Y-53880000D01*
X118388633Y-53880000D02*
X118355300Y-53813333D01*
X118355300Y-53813333D02*
X118321966Y-53780000D01*
X118388633Y-54913333D02*
X118055300Y-54680000D01*
X118388633Y-54513333D02*
X117688633Y-54513333D01*
X117688633Y-54513333D02*
X117688633Y-54780000D01*
X117688633Y-54780000D02*
X117721966Y-54846667D01*
X117721966Y-54846667D02*
X117755300Y-54880000D01*
X117755300Y-54880000D02*
X117821966Y-54913333D01*
X117821966Y-54913333D02*
X117921966Y-54913333D01*
X117921966Y-54913333D02*
X117988633Y-54880000D01*
X117988633Y-54880000D02*
X118021966Y-54846667D01*
X118021966Y-54846667D02*
X118055300Y-54780000D01*
X118055300Y-54780000D02*
X118055300Y-54513333D01*
X116738633Y-53579999D02*
X116405300Y-53346666D01*
X116738633Y-53179999D02*
X116038633Y-53179999D01*
X116038633Y-53179999D02*
X116038633Y-53446666D01*
X116038633Y-53446666D02*
X116071966Y-53513333D01*
X116071966Y-53513333D02*
X116105300Y-53546666D01*
X116105300Y-53546666D02*
X116171966Y-53579999D01*
X116171966Y-53579999D02*
X116271966Y-53579999D01*
X116271966Y-53579999D02*
X116338633Y-53546666D01*
X116338633Y-53546666D02*
X116371966Y-53513333D01*
X116371966Y-53513333D02*
X116405300Y-53446666D01*
X116405300Y-53446666D02*
X116405300Y-53179999D01*
X116738633Y-54246666D02*
X116738633Y-53846666D01*
X116738633Y-54046666D02*
X116038633Y-54046666D01*
X116038633Y-54046666D02*
X116138633Y-53979999D01*
X116138633Y-53979999D02*
X116205300Y-53913333D01*
X116205300Y-53913333D02*
X116238633Y-53846666D01*
X116338633Y-54646666D02*
X116305300Y-54580000D01*
X116305300Y-54580000D02*
X116271966Y-54546666D01*
X116271966Y-54546666D02*
X116205300Y-54513333D01*
X116205300Y-54513333D02*
X116171966Y-54513333D01*
X116171966Y-54513333D02*
X116105300Y-54546666D01*
X116105300Y-54546666D02*
X116071966Y-54580000D01*
X116071966Y-54580000D02*
X116038633Y-54646666D01*
X116038633Y-54646666D02*
X116038633Y-54780000D01*
X116038633Y-54780000D02*
X116071966Y-54846666D01*
X116071966Y-54846666D02*
X116105300Y-54880000D01*
X116105300Y-54880000D02*
X116171966Y-54913333D01*
X116171966Y-54913333D02*
X116205300Y-54913333D01*
X116205300Y-54913333D02*
X116271966Y-54880000D01*
X116271966Y-54880000D02*
X116305300Y-54846666D01*
X116305300Y-54846666D02*
X116338633Y-54780000D01*
X116338633Y-54780000D02*
X116338633Y-54646666D01*
X116338633Y-54646666D02*
X116371966Y-54580000D01*
X116371966Y-54580000D02*
X116405300Y-54546666D01*
X116405300Y-54546666D02*
X116471966Y-54513333D01*
X116471966Y-54513333D02*
X116605300Y-54513333D01*
X116605300Y-54513333D02*
X116671966Y-54546666D01*
X116671966Y-54546666D02*
X116705300Y-54580000D01*
X116705300Y-54580000D02*
X116738633Y-54646666D01*
X116738633Y-54646666D02*
X116738633Y-54780000D01*
X116738633Y-54780000D02*
X116705300Y-54846666D01*
X116705300Y-54846666D02*
X116671966Y-54880000D01*
X116671966Y-54880000D02*
X116605300Y-54913333D01*
X116605300Y-54913333D02*
X116471966Y-54913333D01*
X116471966Y-54913333D02*
X116405300Y-54880000D01*
X116405300Y-54880000D02*
X116371966Y-54846666D01*
X116371966Y-54846666D02*
X116338633Y-54780000D01*
X149223333Y-38358633D02*
X149623333Y-38358633D01*
X149423333Y-38358633D02*
X149423333Y-37658633D01*
X149423333Y-37658633D02*
X149490000Y-37758633D01*
X149490000Y-37758633D02*
X149556667Y-37825300D01*
X149556667Y-37825300D02*
X149623333Y-37858633D01*
X148923333Y-38358633D02*
X148923333Y-37658633D01*
X148856666Y-38091966D02*
X148656666Y-38358633D01*
X148656666Y-37891966D02*
X148923333Y-38158633D01*
X149256666Y-36708633D02*
X149489999Y-36375300D01*
X149656666Y-36708633D02*
X149656666Y-36008633D01*
X149656666Y-36008633D02*
X149389999Y-36008633D01*
X149389999Y-36008633D02*
X149323333Y-36041966D01*
X149323333Y-36041966D02*
X149289999Y-36075300D01*
X149289999Y-36075300D02*
X149256666Y-36141966D01*
X149256666Y-36141966D02*
X149256666Y-36241966D01*
X149256666Y-36241966D02*
X149289999Y-36308633D01*
X149289999Y-36308633D02*
X149323333Y-36341966D01*
X149323333Y-36341966D02*
X149389999Y-36375300D01*
X149389999Y-36375300D02*
X149656666Y-36375300D01*
X148589999Y-36708633D02*
X148989999Y-36708633D01*
X148789999Y-36708633D02*
X148789999Y-36008633D01*
X148789999Y-36008633D02*
X148856666Y-36108633D01*
X148856666Y-36108633D02*
X148923333Y-36175300D01*
X148923333Y-36175300D02*
X148989999Y-36208633D01*
X106064999Y-44700300D02*
X105964999Y-44733633D01*
X105964999Y-44733633D02*
X105798333Y-44733633D01*
X105798333Y-44733633D02*
X105731666Y-44700300D01*
X105731666Y-44700300D02*
X105698333Y-44666966D01*
X105698333Y-44666966D02*
X105664999Y-44600300D01*
X105664999Y-44600300D02*
X105664999Y-44533633D01*
X105664999Y-44533633D02*
X105698333Y-44466966D01*
X105698333Y-44466966D02*
X105731666Y-44433633D01*
X105731666Y-44433633D02*
X105798333Y-44400300D01*
X105798333Y-44400300D02*
X105931666Y-44366966D01*
X105931666Y-44366966D02*
X105998333Y-44333633D01*
X105998333Y-44333633D02*
X106031666Y-44300300D01*
X106031666Y-44300300D02*
X106064999Y-44233633D01*
X106064999Y-44233633D02*
X106064999Y-44166966D01*
X106064999Y-44166966D02*
X106031666Y-44100300D01*
X106031666Y-44100300D02*
X105998333Y-44066966D01*
X105998333Y-44066966D02*
X105931666Y-44033633D01*
X105931666Y-44033633D02*
X105764999Y-44033633D01*
X105764999Y-44033633D02*
X105664999Y-44066966D01*
X105364999Y-44733633D02*
X105364999Y-44033633D01*
X105364999Y-44033633D02*
X105198332Y-44033633D01*
X105198332Y-44033633D02*
X105098332Y-44066966D01*
X105098332Y-44066966D02*
X105031666Y-44133633D01*
X105031666Y-44133633D02*
X104998332Y-44200300D01*
X104998332Y-44200300D02*
X104964999Y-44333633D01*
X104964999Y-44333633D02*
X104964999Y-44433633D01*
X104964999Y-44433633D02*
X104998332Y-44566966D01*
X104998332Y-44566966D02*
X105031666Y-44633633D01*
X105031666Y-44633633D02*
X105098332Y-44700300D01*
X105098332Y-44700300D02*
X105198332Y-44733633D01*
X105198332Y-44733633D02*
X105364999Y-44733633D01*
X146283333Y-108648633D02*
X146683333Y-108648633D01*
X146483333Y-108648633D02*
X146483333Y-107948633D01*
X146483333Y-107948633D02*
X146550000Y-108048633D01*
X146550000Y-108048633D02*
X146616667Y-108115300D01*
X146616667Y-108115300D02*
X146683333Y-108148633D01*
X145850000Y-107948633D02*
X145783333Y-107948633D01*
X145783333Y-107948633D02*
X145716666Y-107981966D01*
X145716666Y-107981966D02*
X145683333Y-108015300D01*
X145683333Y-108015300D02*
X145650000Y-108081966D01*
X145650000Y-108081966D02*
X145616666Y-108215300D01*
X145616666Y-108215300D02*
X145616666Y-108381966D01*
X145616666Y-108381966D02*
X145650000Y-108515300D01*
X145650000Y-108515300D02*
X145683333Y-108581966D01*
X145683333Y-108581966D02*
X145716666Y-108615300D01*
X145716666Y-108615300D02*
X145783333Y-108648633D01*
X145783333Y-108648633D02*
X145850000Y-108648633D01*
X145850000Y-108648633D02*
X145916666Y-108615300D01*
X145916666Y-108615300D02*
X145950000Y-108581966D01*
X145950000Y-108581966D02*
X145983333Y-108515300D01*
X145983333Y-108515300D02*
X146016666Y-108381966D01*
X146016666Y-108381966D02*
X146016666Y-108215300D01*
X146016666Y-108215300D02*
X145983333Y-108081966D01*
X145983333Y-108081966D02*
X145950000Y-108015300D01*
X145950000Y-108015300D02*
X145916666Y-107981966D01*
X145916666Y-107981966D02*
X145850000Y-107948633D01*
X145183333Y-107948633D02*
X145116666Y-107948633D01*
X145116666Y-107948633D02*
X145049999Y-107981966D01*
X145049999Y-107981966D02*
X145016666Y-108015300D01*
X145016666Y-108015300D02*
X144983333Y-108081966D01*
X144983333Y-108081966D02*
X144949999Y-108215300D01*
X144949999Y-108215300D02*
X144949999Y-108381966D01*
X144949999Y-108381966D02*
X144983333Y-108515300D01*
X144983333Y-108515300D02*
X145016666Y-108581966D01*
X145016666Y-108581966D02*
X145049999Y-108615300D01*
X145049999Y-108615300D02*
X145116666Y-108648633D01*
X145116666Y-108648633D02*
X145183333Y-108648633D01*
X145183333Y-108648633D02*
X145249999Y-108615300D01*
X145249999Y-108615300D02*
X145283333Y-108581966D01*
X145283333Y-108581966D02*
X145316666Y-108515300D01*
X145316666Y-108515300D02*
X145349999Y-108381966D01*
X145349999Y-108381966D02*
X145349999Y-108215300D01*
X145349999Y-108215300D02*
X145316666Y-108081966D01*
X145316666Y-108081966D02*
X145283333Y-108015300D01*
X145283333Y-108015300D02*
X145249999Y-107981966D01*
X145249999Y-107981966D02*
X145183333Y-107948633D01*
X144649999Y-108181966D02*
X144649999Y-108648633D01*
X144649999Y-108248633D02*
X144616666Y-108215300D01*
X144616666Y-108215300D02*
X144549999Y-108181966D01*
X144549999Y-108181966D02*
X144449999Y-108181966D01*
X144449999Y-108181966D02*
X144383332Y-108215300D01*
X144383332Y-108215300D02*
X144349999Y-108281966D01*
X144349999Y-108281966D02*
X144349999Y-108648633D01*
X145950000Y-110261966D02*
X145983333Y-110295300D01*
X145983333Y-110295300D02*
X146083333Y-110328633D01*
X146083333Y-110328633D02*
X146150000Y-110328633D01*
X146150000Y-110328633D02*
X146250000Y-110295300D01*
X146250000Y-110295300D02*
X146316667Y-110228633D01*
X146316667Y-110228633D02*
X146350000Y-110161966D01*
X146350000Y-110161966D02*
X146383333Y-110028633D01*
X146383333Y-110028633D02*
X146383333Y-109928633D01*
X146383333Y-109928633D02*
X146350000Y-109795300D01*
X146350000Y-109795300D02*
X146316667Y-109728633D01*
X146316667Y-109728633D02*
X146250000Y-109661966D01*
X146250000Y-109661966D02*
X146150000Y-109628633D01*
X146150000Y-109628633D02*
X146083333Y-109628633D01*
X146083333Y-109628633D02*
X145983333Y-109661966D01*
X145983333Y-109661966D02*
X145950000Y-109695300D01*
X145283333Y-110328633D02*
X145683333Y-110328633D01*
X145483333Y-110328633D02*
X145483333Y-109628633D01*
X145483333Y-109628633D02*
X145550000Y-109728633D01*
X145550000Y-109728633D02*
X145616667Y-109795300D01*
X145616667Y-109795300D02*
X145683333Y-109828633D01*
X144950000Y-110328633D02*
X144816666Y-110328633D01*
X144816666Y-110328633D02*
X144750000Y-110295300D01*
X144750000Y-110295300D02*
X144716666Y-110261966D01*
X144716666Y-110261966D02*
X144650000Y-110161966D01*
X144650000Y-110161966D02*
X144616666Y-110028633D01*
X144616666Y-110028633D02*
X144616666Y-109761966D01*
X144616666Y-109761966D02*
X144650000Y-109695300D01*
X144650000Y-109695300D02*
X144683333Y-109661966D01*
X144683333Y-109661966D02*
X144750000Y-109628633D01*
X144750000Y-109628633D02*
X144883333Y-109628633D01*
X144883333Y-109628633D02*
X144950000Y-109661966D01*
X144950000Y-109661966D02*
X144983333Y-109695300D01*
X144983333Y-109695300D02*
X145016666Y-109761966D01*
X145016666Y-109761966D02*
X145016666Y-109928633D01*
X145016666Y-109928633D02*
X144983333Y-109995300D01*
X144983333Y-109995300D02*
X144950000Y-110028633D01*
X144950000Y-110028633D02*
X144883333Y-110061966D01*
X144883333Y-110061966D02*
X144750000Y-110061966D01*
X144750000Y-110061966D02*
X144683333Y-110028633D01*
X144683333Y-110028633D02*
X144650000Y-109995300D01*
X144650000Y-109995300D02*
X144616666Y-109928633D01*
X144296666Y-122538633D02*
X144696666Y-122538633D01*
X144496666Y-122538633D02*
X144496666Y-121838633D01*
X144496666Y-121838633D02*
X144563333Y-121938633D01*
X144563333Y-121938633D02*
X144630000Y-122005300D01*
X144630000Y-122005300D02*
X144696666Y-122038633D01*
X143996666Y-122538633D02*
X143996666Y-121838633D01*
X143929999Y-122271966D02*
X143729999Y-122538633D01*
X143729999Y-122071966D02*
X143996666Y-122338633D01*
X143329999Y-122138633D02*
X143396666Y-122105300D01*
X143396666Y-122105300D02*
X143429999Y-122071966D01*
X143429999Y-122071966D02*
X143463332Y-122005300D01*
X143463332Y-122005300D02*
X143463332Y-121971966D01*
X143463332Y-121971966D02*
X143429999Y-121905300D01*
X143429999Y-121905300D02*
X143396666Y-121871966D01*
X143396666Y-121871966D02*
X143329999Y-121838633D01*
X143329999Y-121838633D02*
X143196666Y-121838633D01*
X143196666Y-121838633D02*
X143129999Y-121871966D01*
X143129999Y-121871966D02*
X143096666Y-121905300D01*
X143096666Y-121905300D02*
X143063332Y-121971966D01*
X143063332Y-121971966D02*
X143063332Y-122005300D01*
X143063332Y-122005300D02*
X143096666Y-122071966D01*
X143096666Y-122071966D02*
X143129999Y-122105300D01*
X143129999Y-122105300D02*
X143196666Y-122138633D01*
X143196666Y-122138633D02*
X143329999Y-122138633D01*
X143329999Y-122138633D02*
X143396666Y-122171966D01*
X143396666Y-122171966D02*
X143429999Y-122205300D01*
X143429999Y-122205300D02*
X143463332Y-122271966D01*
X143463332Y-122271966D02*
X143463332Y-122405300D01*
X143463332Y-122405300D02*
X143429999Y-122471966D01*
X143429999Y-122471966D02*
X143396666Y-122505300D01*
X143396666Y-122505300D02*
X143329999Y-122538633D01*
X143329999Y-122538633D02*
X143196666Y-122538633D01*
X143196666Y-122538633D02*
X143129999Y-122505300D01*
X143129999Y-122505300D02*
X143096666Y-122471966D01*
X143096666Y-122471966D02*
X143063332Y-122405300D01*
X143063332Y-122405300D02*
X143063332Y-122271966D01*
X143063332Y-122271966D02*
X143096666Y-122205300D01*
X143096666Y-122205300D02*
X143129999Y-122171966D01*
X143129999Y-122171966D02*
X143196666Y-122138633D01*
X144330000Y-124188633D02*
X144563333Y-123855300D01*
X144730000Y-124188633D02*
X144730000Y-123488633D01*
X144730000Y-123488633D02*
X144463333Y-123488633D01*
X144463333Y-123488633D02*
X144396667Y-123521966D01*
X144396667Y-123521966D02*
X144363333Y-123555300D01*
X144363333Y-123555300D02*
X144330000Y-123621966D01*
X144330000Y-123621966D02*
X144330000Y-123721966D01*
X144330000Y-123721966D02*
X144363333Y-123788633D01*
X144363333Y-123788633D02*
X144396667Y-123821966D01*
X144396667Y-123821966D02*
X144463333Y-123855300D01*
X144463333Y-123855300D02*
X144730000Y-123855300D01*
X144063333Y-123555300D02*
X144030000Y-123521966D01*
X144030000Y-123521966D02*
X143963333Y-123488633D01*
X143963333Y-123488633D02*
X143796667Y-123488633D01*
X143796667Y-123488633D02*
X143730000Y-123521966D01*
X143730000Y-123521966D02*
X143696667Y-123555300D01*
X143696667Y-123555300D02*
X143663333Y-123621966D01*
X143663333Y-123621966D02*
X143663333Y-123688633D01*
X143663333Y-123688633D02*
X143696667Y-123788633D01*
X143696667Y-123788633D02*
X144096667Y-124188633D01*
X144096667Y-124188633D02*
X143663333Y-124188633D01*
X143063333Y-123488633D02*
X143196666Y-123488633D01*
X143196666Y-123488633D02*
X143263333Y-123521966D01*
X143263333Y-123521966D02*
X143296666Y-123555300D01*
X143296666Y-123555300D02*
X143363333Y-123655300D01*
X143363333Y-123655300D02*
X143396666Y-123788633D01*
X143396666Y-123788633D02*
X143396666Y-124055300D01*
X143396666Y-124055300D02*
X143363333Y-124121966D01*
X143363333Y-124121966D02*
X143330000Y-124155300D01*
X143330000Y-124155300D02*
X143263333Y-124188633D01*
X143263333Y-124188633D02*
X143130000Y-124188633D01*
X143130000Y-124188633D02*
X143063333Y-124155300D01*
X143063333Y-124155300D02*
X143030000Y-124121966D01*
X143030000Y-124121966D02*
X142996666Y-124055300D01*
X142996666Y-124055300D02*
X142996666Y-123888633D01*
X142996666Y-123888633D02*
X143030000Y-123821966D01*
X143030000Y-123821966D02*
X143063333Y-123788633D01*
X143063333Y-123788633D02*
X143130000Y-123755300D01*
X143130000Y-123755300D02*
X143263333Y-123755300D01*
X143263333Y-123755300D02*
X143330000Y-123788633D01*
X143330000Y-123788633D02*
X143363333Y-123821966D01*
X143363333Y-123821966D02*
X143396666Y-123888633D01*
X103488633Y-47866666D02*
X103488633Y-47466666D01*
X103488633Y-47666666D02*
X102788633Y-47666666D01*
X102788633Y-47666666D02*
X102888633Y-47599999D01*
X102888633Y-47599999D02*
X102955300Y-47533333D01*
X102955300Y-47533333D02*
X102988633Y-47466666D01*
X102788633Y-48300000D02*
X102788633Y-48366666D01*
X102788633Y-48366666D02*
X102821966Y-48433333D01*
X102821966Y-48433333D02*
X102855300Y-48466666D01*
X102855300Y-48466666D02*
X102921966Y-48500000D01*
X102921966Y-48500000D02*
X103055300Y-48533333D01*
X103055300Y-48533333D02*
X103221966Y-48533333D01*
X103221966Y-48533333D02*
X103355300Y-48500000D01*
X103355300Y-48500000D02*
X103421966Y-48466666D01*
X103421966Y-48466666D02*
X103455300Y-48433333D01*
X103455300Y-48433333D02*
X103488633Y-48366666D01*
X103488633Y-48366666D02*
X103488633Y-48300000D01*
X103488633Y-48300000D02*
X103455300Y-48233333D01*
X103455300Y-48233333D02*
X103421966Y-48200000D01*
X103421966Y-48200000D02*
X103355300Y-48166666D01*
X103355300Y-48166666D02*
X103221966Y-48133333D01*
X103221966Y-48133333D02*
X103055300Y-48133333D01*
X103055300Y-48133333D02*
X102921966Y-48166666D01*
X102921966Y-48166666D02*
X102855300Y-48200000D01*
X102855300Y-48200000D02*
X102821966Y-48233333D01*
X102821966Y-48233333D02*
X102788633Y-48300000D01*
X102788633Y-48966667D02*
X102788633Y-49033333D01*
X102788633Y-49033333D02*
X102821966Y-49100000D01*
X102821966Y-49100000D02*
X102855300Y-49133333D01*
X102855300Y-49133333D02*
X102921966Y-49166667D01*
X102921966Y-49166667D02*
X103055300Y-49200000D01*
X103055300Y-49200000D02*
X103221966Y-49200000D01*
X103221966Y-49200000D02*
X103355300Y-49166667D01*
X103355300Y-49166667D02*
X103421966Y-49133333D01*
X103421966Y-49133333D02*
X103455300Y-49100000D01*
X103455300Y-49100000D02*
X103488633Y-49033333D01*
X103488633Y-49033333D02*
X103488633Y-48966667D01*
X103488633Y-48966667D02*
X103455300Y-48900000D01*
X103455300Y-48900000D02*
X103421966Y-48866667D01*
X103421966Y-48866667D02*
X103355300Y-48833333D01*
X103355300Y-48833333D02*
X103221966Y-48800000D01*
X103221966Y-48800000D02*
X103055300Y-48800000D01*
X103055300Y-48800000D02*
X102921966Y-48833333D01*
X102921966Y-48833333D02*
X102855300Y-48866667D01*
X102855300Y-48866667D02*
X102821966Y-48900000D01*
X102821966Y-48900000D02*
X102788633Y-48966667D01*
X103021966Y-49500000D02*
X103488633Y-49500000D01*
X103088633Y-49500000D02*
X103055300Y-49533334D01*
X103055300Y-49533334D02*
X103021966Y-49600000D01*
X103021966Y-49600000D02*
X103021966Y-49700000D01*
X103021966Y-49700000D02*
X103055300Y-49766667D01*
X103055300Y-49766667D02*
X103121966Y-49800000D01*
X103121966Y-49800000D02*
X103488633Y-49800000D01*
X105101966Y-48199999D02*
X105135300Y-48166666D01*
X105135300Y-48166666D02*
X105168633Y-48066666D01*
X105168633Y-48066666D02*
X105168633Y-47999999D01*
X105168633Y-47999999D02*
X105135300Y-47899999D01*
X105135300Y-47899999D02*
X105068633Y-47833333D01*
X105068633Y-47833333D02*
X105001966Y-47799999D01*
X105001966Y-47799999D02*
X104868633Y-47766666D01*
X104868633Y-47766666D02*
X104768633Y-47766666D01*
X104768633Y-47766666D02*
X104635300Y-47799999D01*
X104635300Y-47799999D02*
X104568633Y-47833333D01*
X104568633Y-47833333D02*
X104501966Y-47899999D01*
X104501966Y-47899999D02*
X104468633Y-47999999D01*
X104468633Y-47999999D02*
X104468633Y-48066666D01*
X104468633Y-48066666D02*
X104501966Y-48166666D01*
X104501966Y-48166666D02*
X104535300Y-48199999D01*
X105168633Y-48866666D02*
X105168633Y-48466666D01*
X105168633Y-48666666D02*
X104468633Y-48666666D01*
X104468633Y-48666666D02*
X104568633Y-48599999D01*
X104568633Y-48599999D02*
X104635300Y-48533333D01*
X104635300Y-48533333D02*
X104668633Y-48466666D01*
X104468633Y-49100000D02*
X104468633Y-49533333D01*
X104468633Y-49533333D02*
X104735300Y-49300000D01*
X104735300Y-49300000D02*
X104735300Y-49400000D01*
X104735300Y-49400000D02*
X104768633Y-49466666D01*
X104768633Y-49466666D02*
X104801966Y-49500000D01*
X104801966Y-49500000D02*
X104868633Y-49533333D01*
X104868633Y-49533333D02*
X105035300Y-49533333D01*
X105035300Y-49533333D02*
X105101966Y-49500000D01*
X105101966Y-49500000D02*
X105135300Y-49466666D01*
X105135300Y-49466666D02*
X105168633Y-49400000D01*
X105168633Y-49400000D02*
X105168633Y-49200000D01*
X105168633Y-49200000D02*
X105135300Y-49133333D01*
X105135300Y-49133333D02*
X105101966Y-49100000D01*
X94417500Y-98538633D02*
X93984166Y-98538633D01*
X93984166Y-98538633D02*
X94217500Y-98805300D01*
X94217500Y-98805300D02*
X94117500Y-98805300D01*
X94117500Y-98805300D02*
X94050833Y-98838633D01*
X94050833Y-98838633D02*
X94017500Y-98871966D01*
X94017500Y-98871966D02*
X93984166Y-98938633D01*
X93984166Y-98938633D02*
X93984166Y-99105300D01*
X93984166Y-99105300D02*
X94017500Y-99171966D01*
X94017500Y-99171966D02*
X94050833Y-99205300D01*
X94050833Y-99205300D02*
X94117500Y-99238633D01*
X94117500Y-99238633D02*
X94317500Y-99238633D01*
X94317500Y-99238633D02*
X94384166Y-99205300D01*
X94384166Y-99205300D02*
X94417500Y-99171966D01*
X93550833Y-98538633D02*
X93484166Y-98538633D01*
X93484166Y-98538633D02*
X93417499Y-98571966D01*
X93417499Y-98571966D02*
X93384166Y-98605300D01*
X93384166Y-98605300D02*
X93350833Y-98671966D01*
X93350833Y-98671966D02*
X93317499Y-98805300D01*
X93317499Y-98805300D02*
X93317499Y-98971966D01*
X93317499Y-98971966D02*
X93350833Y-99105300D01*
X93350833Y-99105300D02*
X93384166Y-99171966D01*
X93384166Y-99171966D02*
X93417499Y-99205300D01*
X93417499Y-99205300D02*
X93484166Y-99238633D01*
X93484166Y-99238633D02*
X93550833Y-99238633D01*
X93550833Y-99238633D02*
X93617499Y-99205300D01*
X93617499Y-99205300D02*
X93650833Y-99171966D01*
X93650833Y-99171966D02*
X93684166Y-99105300D01*
X93684166Y-99105300D02*
X93717499Y-98971966D01*
X93717499Y-98971966D02*
X93717499Y-98805300D01*
X93717499Y-98805300D02*
X93684166Y-98671966D01*
X93684166Y-98671966D02*
X93650833Y-98605300D01*
X93650833Y-98605300D02*
X93617499Y-98571966D01*
X93617499Y-98571966D02*
X93550833Y-98538633D01*
X93017499Y-99238633D02*
X93017499Y-98538633D01*
X92950832Y-98971966D02*
X92750832Y-99238633D01*
X92750832Y-98771966D02*
X93017499Y-99038633D01*
X94017500Y-100888633D02*
X94250833Y-100555300D01*
X94417500Y-100888633D02*
X94417500Y-100188633D01*
X94417500Y-100188633D02*
X94150833Y-100188633D01*
X94150833Y-100188633D02*
X94084167Y-100221966D01*
X94084167Y-100221966D02*
X94050833Y-100255300D01*
X94050833Y-100255300D02*
X94017500Y-100321966D01*
X94017500Y-100321966D02*
X94017500Y-100421966D01*
X94017500Y-100421966D02*
X94050833Y-100488633D01*
X94050833Y-100488633D02*
X94084167Y-100521966D01*
X94084167Y-100521966D02*
X94150833Y-100555300D01*
X94150833Y-100555300D02*
X94417500Y-100555300D01*
X93784167Y-100188633D02*
X93350833Y-100188633D01*
X93350833Y-100188633D02*
X93584167Y-100455300D01*
X93584167Y-100455300D02*
X93484167Y-100455300D01*
X93484167Y-100455300D02*
X93417500Y-100488633D01*
X93417500Y-100488633D02*
X93384167Y-100521966D01*
X93384167Y-100521966D02*
X93350833Y-100588633D01*
X93350833Y-100588633D02*
X93350833Y-100755300D01*
X93350833Y-100755300D02*
X93384167Y-100821966D01*
X93384167Y-100821966D02*
X93417500Y-100855300D01*
X93417500Y-100855300D02*
X93484167Y-100888633D01*
X93484167Y-100888633D02*
X93684167Y-100888633D01*
X93684167Y-100888633D02*
X93750833Y-100855300D01*
X93750833Y-100855300D02*
X93784167Y-100821966D01*
X93117500Y-100188633D02*
X92650833Y-100188633D01*
X92650833Y-100188633D02*
X92950833Y-100888633D01*
X149243333Y-46278633D02*
X149643333Y-46278633D01*
X149443333Y-46278633D02*
X149443333Y-45578633D01*
X149443333Y-45578633D02*
X149510000Y-45678633D01*
X149510000Y-45678633D02*
X149576667Y-45745300D01*
X149576667Y-45745300D02*
X149643333Y-45778633D01*
X148943333Y-46278633D02*
X148943333Y-45578633D01*
X148876666Y-46011966D02*
X148676666Y-46278633D01*
X148676666Y-45811966D02*
X148943333Y-46078633D01*
X149276666Y-44628633D02*
X149509999Y-44295300D01*
X149676666Y-44628633D02*
X149676666Y-43928633D01*
X149676666Y-43928633D02*
X149409999Y-43928633D01*
X149409999Y-43928633D02*
X149343333Y-43961966D01*
X149343333Y-43961966D02*
X149309999Y-43995300D01*
X149309999Y-43995300D02*
X149276666Y-44061966D01*
X149276666Y-44061966D02*
X149276666Y-44161966D01*
X149276666Y-44161966D02*
X149309999Y-44228633D01*
X149309999Y-44228633D02*
X149343333Y-44261966D01*
X149343333Y-44261966D02*
X149409999Y-44295300D01*
X149409999Y-44295300D02*
X149676666Y-44295300D01*
X148676666Y-44161966D02*
X148676666Y-44628633D01*
X148843333Y-43895300D02*
X149009999Y-44395300D01*
X149009999Y-44395300D02*
X148576666Y-44395300D01*
X100585300Y-47800000D02*
X100551966Y-47833333D01*
X100551966Y-47833333D02*
X100518633Y-47900000D01*
X100518633Y-47900000D02*
X100518633Y-48066667D01*
X100518633Y-48066667D02*
X100551966Y-48133333D01*
X100551966Y-48133333D02*
X100585300Y-48166667D01*
X100585300Y-48166667D02*
X100651966Y-48200000D01*
X100651966Y-48200000D02*
X100718633Y-48200000D01*
X100718633Y-48200000D02*
X100818633Y-48166667D01*
X100818633Y-48166667D02*
X101218633Y-47766667D01*
X101218633Y-47766667D02*
X101218633Y-48200000D01*
X100585300Y-48466667D02*
X100551966Y-48500000D01*
X100551966Y-48500000D02*
X100518633Y-48566667D01*
X100518633Y-48566667D02*
X100518633Y-48733334D01*
X100518633Y-48733334D02*
X100551966Y-48800000D01*
X100551966Y-48800000D02*
X100585300Y-48833334D01*
X100585300Y-48833334D02*
X100651966Y-48866667D01*
X100651966Y-48866667D02*
X100718633Y-48866667D01*
X100718633Y-48866667D02*
X100818633Y-48833334D01*
X100818633Y-48833334D02*
X101218633Y-48433334D01*
X101218633Y-48433334D02*
X101218633Y-48866667D01*
X100751966Y-49466667D02*
X101218633Y-49466667D01*
X100751966Y-49166667D02*
X101118633Y-49166667D01*
X101118633Y-49166667D02*
X101185300Y-49200001D01*
X101185300Y-49200001D02*
X101218633Y-49266667D01*
X101218633Y-49266667D02*
X101218633Y-49366667D01*
X101218633Y-49366667D02*
X101185300Y-49433334D01*
X101185300Y-49433334D02*
X101151966Y-49466667D01*
X102831966Y-48199999D02*
X102865300Y-48166666D01*
X102865300Y-48166666D02*
X102898633Y-48066666D01*
X102898633Y-48066666D02*
X102898633Y-47999999D01*
X102898633Y-47999999D02*
X102865300Y-47899999D01*
X102865300Y-47899999D02*
X102798633Y-47833333D01*
X102798633Y-47833333D02*
X102731966Y-47799999D01*
X102731966Y-47799999D02*
X102598633Y-47766666D01*
X102598633Y-47766666D02*
X102498633Y-47766666D01*
X102498633Y-47766666D02*
X102365300Y-47799999D01*
X102365300Y-47799999D02*
X102298633Y-47833333D01*
X102298633Y-47833333D02*
X102231966Y-47899999D01*
X102231966Y-47899999D02*
X102198633Y-47999999D01*
X102198633Y-47999999D02*
X102198633Y-48066666D01*
X102198633Y-48066666D02*
X102231966Y-48166666D01*
X102231966Y-48166666D02*
X102265300Y-48199999D01*
X102898633Y-48866666D02*
X102898633Y-48466666D01*
X102898633Y-48666666D02*
X102198633Y-48666666D01*
X102198633Y-48666666D02*
X102298633Y-48599999D01*
X102298633Y-48599999D02*
X102365300Y-48533333D01*
X102365300Y-48533333D02*
X102398633Y-48466666D01*
X102265300Y-49133333D02*
X102231966Y-49166666D01*
X102231966Y-49166666D02*
X102198633Y-49233333D01*
X102198633Y-49233333D02*
X102198633Y-49400000D01*
X102198633Y-49400000D02*
X102231966Y-49466666D01*
X102231966Y-49466666D02*
X102265300Y-49500000D01*
X102265300Y-49500000D02*
X102331966Y-49533333D01*
X102331966Y-49533333D02*
X102398633Y-49533333D01*
X102398633Y-49533333D02*
X102498633Y-49500000D01*
X102498633Y-49500000D02*
X102898633Y-49100000D01*
X102898633Y-49100000D02*
X102898633Y-49533333D01*
X112986667Y-46388633D02*
X112553333Y-46388633D01*
X112553333Y-46388633D02*
X112786667Y-46655300D01*
X112786667Y-46655300D02*
X112686667Y-46655300D01*
X112686667Y-46655300D02*
X112620000Y-46688633D01*
X112620000Y-46688633D02*
X112586667Y-46721966D01*
X112586667Y-46721966D02*
X112553333Y-46788633D01*
X112553333Y-46788633D02*
X112553333Y-46955300D01*
X112553333Y-46955300D02*
X112586667Y-47021966D01*
X112586667Y-47021966D02*
X112620000Y-47055300D01*
X112620000Y-47055300D02*
X112686667Y-47088633D01*
X112686667Y-47088633D02*
X112886667Y-47088633D01*
X112886667Y-47088633D02*
X112953333Y-47055300D01*
X112953333Y-47055300D02*
X112986667Y-47021966D01*
X112320000Y-46388633D02*
X111886666Y-46388633D01*
X111886666Y-46388633D02*
X112120000Y-46655300D01*
X112120000Y-46655300D02*
X112020000Y-46655300D01*
X112020000Y-46655300D02*
X111953333Y-46688633D01*
X111953333Y-46688633D02*
X111920000Y-46721966D01*
X111920000Y-46721966D02*
X111886666Y-46788633D01*
X111886666Y-46788633D02*
X111886666Y-46955300D01*
X111886666Y-46955300D02*
X111920000Y-47021966D01*
X111920000Y-47021966D02*
X111953333Y-47055300D01*
X111953333Y-47055300D02*
X112020000Y-47088633D01*
X112020000Y-47088633D02*
X112220000Y-47088633D01*
X112220000Y-47088633D02*
X112286666Y-47055300D01*
X112286666Y-47055300D02*
X112320000Y-47021966D01*
X111186666Y-47088633D02*
X111419999Y-46755300D01*
X111586666Y-47088633D02*
X111586666Y-46388633D01*
X111586666Y-46388633D02*
X111319999Y-46388633D01*
X111319999Y-46388633D02*
X111253333Y-46421966D01*
X111253333Y-46421966D02*
X111219999Y-46455300D01*
X111219999Y-46455300D02*
X111186666Y-46521966D01*
X111186666Y-46521966D02*
X111186666Y-46621966D01*
X111186666Y-46621966D02*
X111219999Y-46688633D01*
X111219999Y-46688633D02*
X111253333Y-46721966D01*
X111253333Y-46721966D02*
X111319999Y-46755300D01*
X111319999Y-46755300D02*
X111586666Y-46755300D01*
X112186666Y-45438633D02*
X112419999Y-45105300D01*
X112586666Y-45438633D02*
X112586666Y-44738633D01*
X112586666Y-44738633D02*
X112319999Y-44738633D01*
X112319999Y-44738633D02*
X112253333Y-44771966D01*
X112253333Y-44771966D02*
X112219999Y-44805300D01*
X112219999Y-44805300D02*
X112186666Y-44871966D01*
X112186666Y-44871966D02*
X112186666Y-44971966D01*
X112186666Y-44971966D02*
X112219999Y-45038633D01*
X112219999Y-45038633D02*
X112253333Y-45071966D01*
X112253333Y-45071966D02*
X112319999Y-45105300D01*
X112319999Y-45105300D02*
X112586666Y-45105300D01*
X111553333Y-44738633D02*
X111886666Y-44738633D01*
X111886666Y-44738633D02*
X111919999Y-45071966D01*
X111919999Y-45071966D02*
X111886666Y-45038633D01*
X111886666Y-45038633D02*
X111819999Y-45005300D01*
X111819999Y-45005300D02*
X111653333Y-45005300D01*
X111653333Y-45005300D02*
X111586666Y-45038633D01*
X111586666Y-45038633D02*
X111553333Y-45071966D01*
X111553333Y-45071966D02*
X111519999Y-45138633D01*
X111519999Y-45138633D02*
X111519999Y-45305300D01*
X111519999Y-45305300D02*
X111553333Y-45371966D01*
X111553333Y-45371966D02*
X111586666Y-45405300D01*
X111586666Y-45405300D02*
X111653333Y-45438633D01*
X111653333Y-45438633D02*
X111819999Y-45438633D01*
X111819999Y-45438633D02*
X111886666Y-45405300D01*
X111886666Y-45405300D02*
X111919999Y-45371966D01*
X93835300Y-38516666D02*
X93801966Y-38549999D01*
X93801966Y-38549999D02*
X93768633Y-38616666D01*
X93768633Y-38616666D02*
X93768633Y-38783333D01*
X93768633Y-38783333D02*
X93801966Y-38849999D01*
X93801966Y-38849999D02*
X93835300Y-38883333D01*
X93835300Y-38883333D02*
X93901966Y-38916666D01*
X93901966Y-38916666D02*
X93968633Y-38916666D01*
X93968633Y-38916666D02*
X94068633Y-38883333D01*
X94068633Y-38883333D02*
X94468633Y-38483333D01*
X94468633Y-38483333D02*
X94468633Y-38916666D01*
X94468633Y-39616666D02*
X94135300Y-39383333D01*
X94468633Y-39216666D02*
X93768633Y-39216666D01*
X93768633Y-39216666D02*
X93768633Y-39483333D01*
X93768633Y-39483333D02*
X93801966Y-39550000D01*
X93801966Y-39550000D02*
X93835300Y-39583333D01*
X93835300Y-39583333D02*
X93901966Y-39616666D01*
X93901966Y-39616666D02*
X94001966Y-39616666D01*
X94001966Y-39616666D02*
X94068633Y-39583333D01*
X94068633Y-39583333D02*
X94101966Y-39550000D01*
X94101966Y-39550000D02*
X94135300Y-39483333D01*
X94135300Y-39483333D02*
X94135300Y-39216666D01*
X93835300Y-39883333D02*
X93801966Y-39916666D01*
X93801966Y-39916666D02*
X93768633Y-39983333D01*
X93768633Y-39983333D02*
X93768633Y-40150000D01*
X93768633Y-40150000D02*
X93801966Y-40216666D01*
X93801966Y-40216666D02*
X93835300Y-40250000D01*
X93835300Y-40250000D02*
X93901966Y-40283333D01*
X93901966Y-40283333D02*
X93968633Y-40283333D01*
X93968633Y-40283333D02*
X94068633Y-40250000D01*
X94068633Y-40250000D02*
X94468633Y-39850000D01*
X94468633Y-39850000D02*
X94468633Y-40283333D01*
X92818633Y-38949999D02*
X92485300Y-38716666D01*
X92818633Y-38549999D02*
X92118633Y-38549999D01*
X92118633Y-38549999D02*
X92118633Y-38816666D01*
X92118633Y-38816666D02*
X92151966Y-38883333D01*
X92151966Y-38883333D02*
X92185300Y-38916666D01*
X92185300Y-38916666D02*
X92251966Y-38949999D01*
X92251966Y-38949999D02*
X92351966Y-38949999D01*
X92351966Y-38949999D02*
X92418633Y-38916666D01*
X92418633Y-38916666D02*
X92451966Y-38883333D01*
X92451966Y-38883333D02*
X92485300Y-38816666D01*
X92485300Y-38816666D02*
X92485300Y-38549999D01*
X92818633Y-39616666D02*
X92818633Y-39216666D01*
X92818633Y-39416666D02*
X92118633Y-39416666D01*
X92118633Y-39416666D02*
X92218633Y-39349999D01*
X92218633Y-39349999D02*
X92285300Y-39283333D01*
X92285300Y-39283333D02*
X92318633Y-39216666D01*
X92118633Y-39850000D02*
X92118633Y-40283333D01*
X92118633Y-40283333D02*
X92385300Y-40050000D01*
X92385300Y-40050000D02*
X92385300Y-40150000D01*
X92385300Y-40150000D02*
X92418633Y-40216666D01*
X92418633Y-40216666D02*
X92451966Y-40250000D01*
X92451966Y-40250000D02*
X92518633Y-40283333D01*
X92518633Y-40283333D02*
X92685300Y-40283333D01*
X92685300Y-40283333D02*
X92751966Y-40250000D01*
X92751966Y-40250000D02*
X92785300Y-40216666D01*
X92785300Y-40216666D02*
X92818633Y-40150000D01*
X92818633Y-40150000D02*
X92818633Y-39950000D01*
X92818633Y-39950000D02*
X92785300Y-39883333D01*
X92785300Y-39883333D02*
X92751966Y-39850000D01*
X140971666Y-121905300D02*
X140938333Y-121871966D01*
X140938333Y-121871966D02*
X140871666Y-121838633D01*
X140871666Y-121838633D02*
X140705000Y-121838633D01*
X140705000Y-121838633D02*
X140638333Y-121871966D01*
X140638333Y-121871966D02*
X140605000Y-121905300D01*
X140605000Y-121905300D02*
X140571666Y-121971966D01*
X140571666Y-121971966D02*
X140571666Y-122038633D01*
X140571666Y-122038633D02*
X140605000Y-122138633D01*
X140605000Y-122138633D02*
X141005000Y-122538633D01*
X141005000Y-122538633D02*
X140571666Y-122538633D01*
X140304999Y-121905300D02*
X140271666Y-121871966D01*
X140271666Y-121871966D02*
X140204999Y-121838633D01*
X140204999Y-121838633D02*
X140038333Y-121838633D01*
X140038333Y-121838633D02*
X139971666Y-121871966D01*
X139971666Y-121871966D02*
X139938333Y-121905300D01*
X139938333Y-121905300D02*
X139904999Y-121971966D01*
X139904999Y-121971966D02*
X139904999Y-122038633D01*
X139904999Y-122038633D02*
X139938333Y-122138633D01*
X139938333Y-122138633D02*
X140338333Y-122538633D01*
X140338333Y-122538633D02*
X139904999Y-122538633D01*
X139604999Y-122538633D02*
X139604999Y-121838633D01*
X139538332Y-122271966D02*
X139338332Y-122538633D01*
X139338332Y-122071966D02*
X139604999Y-122338633D01*
X140605000Y-124188633D02*
X140838333Y-123855300D01*
X141005000Y-124188633D02*
X141005000Y-123488633D01*
X141005000Y-123488633D02*
X140738333Y-123488633D01*
X140738333Y-123488633D02*
X140671667Y-123521966D01*
X140671667Y-123521966D02*
X140638333Y-123555300D01*
X140638333Y-123555300D02*
X140605000Y-123621966D01*
X140605000Y-123621966D02*
X140605000Y-123721966D01*
X140605000Y-123721966D02*
X140638333Y-123788633D01*
X140638333Y-123788633D02*
X140671667Y-123821966D01*
X140671667Y-123821966D02*
X140738333Y-123855300D01*
X140738333Y-123855300D02*
X141005000Y-123855300D01*
X140005000Y-123721966D02*
X140005000Y-124188633D01*
X140171667Y-123455300D02*
X140338333Y-123955300D01*
X140338333Y-123955300D02*
X139905000Y-123955300D01*
X139271666Y-124188633D02*
X139671666Y-124188633D01*
X139471666Y-124188633D02*
X139471666Y-123488633D01*
X139471666Y-123488633D02*
X139538333Y-123588633D01*
X139538333Y-123588633D02*
X139605000Y-123655300D01*
X139605000Y-123655300D02*
X139671666Y-123688633D01*
D11*
%TO.C,U2*%
X103500000Y-83155000D02*
X108500000Y-83155000D01*
X103500000Y-87555000D02*
X108500000Y-87555000D01*
X108500000Y-83155000D02*
X108500000Y-87555000D01*
X103500000Y-83155000D02*
X103500000Y-87555000D01*
D12*
X103840000Y-81115000D02*
G75*
G02*
X103640000Y-81115000I-100000J0D01*
G01*
X103640000Y-81115000D02*
G75*
G02*
X103840000Y-81115000I100000J0D01*
G01*
D10*
%TO.C,R33*%
X104708333Y-99100000D02*
X104708333Y-97100000D01*
X103458333Y-99100000D02*
X104708333Y-99100000D01*
X104708333Y-97100000D02*
X103458333Y-97100000D01*
X103458333Y-97100000D02*
X103458333Y-99100000D01*
%TO.C,C14*%
X106300000Y-91325000D02*
X106300000Y-90075000D01*
X106300000Y-90075000D02*
X104300000Y-90075000D01*
X104300000Y-91325000D02*
X106300000Y-91325000D01*
X104300000Y-90075000D02*
X104300000Y-91325000D01*
%TO.C,Q1*%
X120260000Y-84200000D02*
X117360000Y-84200000D01*
X117360000Y-83225000D01*
X117685000Y-82900000D01*
X120260000Y-82900000D01*
X120260000Y-84200000D01*
%TO.C,R34*%
X112210000Y-66045000D02*
X112210000Y-67295000D01*
X112210000Y-67295000D02*
X114210000Y-67295000D01*
X114210000Y-66045000D02*
X112210000Y-66045000D01*
X114210000Y-67295000D02*
X114210000Y-66045000D01*
%TO.C,R32*%
X106005000Y-97100000D02*
X106005000Y-99100000D01*
X106005000Y-99100000D02*
X107255000Y-99100000D01*
X107255000Y-97100000D02*
X106005000Y-97100000D01*
X107255000Y-99100000D02*
X107255000Y-97100000D01*
%TO.C,R7*%
X140495000Y-35430000D02*
X140495000Y-37430000D01*
X140495000Y-37430000D02*
X141745000Y-37430000D01*
X141745000Y-35430000D02*
X140495000Y-35430000D01*
X141745000Y-37430000D02*
X141745000Y-35430000D01*
%TO.C,R39*%
X143250000Y-120855000D02*
X143250000Y-122105000D01*
X143250000Y-122105000D02*
X145250000Y-122105000D01*
X145250000Y-120855000D02*
X143250000Y-120855000D01*
X145250000Y-122105000D02*
X145250000Y-120855000D01*
%TO.C,R42*%
X71130000Y-117385000D02*
X71130000Y-118635000D01*
X71130000Y-118635000D02*
X73130000Y-118635000D01*
X73130000Y-117385000D02*
X71130000Y-117385000D01*
X73130000Y-118635000D02*
X73130000Y-117385000D01*
%TO.C,R21*%
X111100000Y-103895000D02*
X111100000Y-105145000D01*
X111100000Y-105145000D02*
X113100000Y-105145000D01*
X113100000Y-103895000D02*
X111100000Y-103895000D01*
X113100000Y-105145000D02*
X113100000Y-103895000D01*
%TO.C,R31*%
X100911667Y-97100000D02*
X100911667Y-99100000D01*
X100911667Y-99100000D02*
X102161667Y-99100000D01*
X102161667Y-97100000D02*
X100911667Y-97100000D01*
X102161667Y-99100000D02*
X102161667Y-97100000D01*
%TO.C,R27*%
X110874999Y-47700000D02*
X110874999Y-49700000D01*
X110874999Y-49700000D02*
X112124999Y-49700000D01*
X112124999Y-47700000D02*
X110874999Y-47700000D01*
X112124999Y-49700000D02*
X112124999Y-47700000D01*
%TO.C,R43*%
X90040000Y-117075000D02*
X90040000Y-118325000D01*
X90040000Y-118325000D02*
X92040000Y-118325000D01*
X92040000Y-117075000D02*
X90040000Y-117075000D01*
X92040000Y-118325000D02*
X92040000Y-117075000D01*
%TO.C,R28*%
X114735000Y-82180000D02*
X114735000Y-84180000D01*
X114735000Y-84180000D02*
X115985000Y-84180000D01*
X115985000Y-82180000D02*
X114735000Y-82180000D01*
X115985000Y-84180000D02*
X115985000Y-82180000D01*
%TO.C,C5*%
X87240000Y-61900000D02*
X88490000Y-61900000D01*
X88490000Y-61900000D02*
X88490000Y-59900000D01*
X87240000Y-59900000D02*
X87240000Y-61900000D01*
X88490000Y-59900000D02*
X87240000Y-59900000D01*
%TO.C,C10*%
X87275000Y-40400000D02*
X88525000Y-40400000D01*
X88525000Y-40400000D02*
X88525000Y-38400000D01*
X87275000Y-38400000D02*
X87275000Y-40400000D01*
X88525000Y-38400000D02*
X87275000Y-38400000D01*
%TO.C,R30*%
X98365000Y-97100000D02*
X98365000Y-99100000D01*
X98365000Y-99100000D02*
X99615000Y-99100000D01*
X99615000Y-97100000D02*
X98365000Y-97100000D01*
X99615000Y-99100000D02*
X99615000Y-97100000D01*
%TO.C,R15*%
X113425000Y-52980000D02*
X113425000Y-54980000D01*
X113425000Y-54980000D02*
X114675000Y-54980000D01*
X114675000Y-52980000D02*
X113425000Y-52980000D01*
X114675000Y-54980000D02*
X114675000Y-52980000D01*
%TO.C,R25*%
X108664999Y-47700000D02*
X108664999Y-49700000D01*
X108664999Y-49700000D02*
X109914999Y-49700000D01*
X109914999Y-47700000D02*
X108664999Y-47700000D01*
X109914999Y-49700000D02*
X109914999Y-47700000D01*
%TO.C,C21*%
X133600000Y-109935000D02*
X133600000Y-111185000D01*
X133600000Y-111185000D02*
X135600000Y-111185000D01*
X135600000Y-109935000D02*
X133600000Y-109935000D01*
X135600000Y-111185000D02*
X135600000Y-109935000D01*
%TO.C,R36*%
X92567500Y-102985000D02*
X92567500Y-104235000D01*
X92567500Y-104235000D02*
X94567500Y-104235000D01*
X94567500Y-102985000D02*
X92567500Y-102985000D01*
X94567500Y-104235000D02*
X94567500Y-102985000D01*
%TO.C,C20*%
X144500000Y-111795000D02*
X144500000Y-113045000D01*
X144500000Y-113045000D02*
X146500000Y-113045000D01*
X146500000Y-111795000D02*
X144500000Y-111795000D01*
X146500000Y-113045000D02*
X146500000Y-111795000D01*
D13*
%TO.C,D17*%
X120869600Y-114127600D02*
X120869600Y-116972400D01*
X120869600Y-116972400D02*
X122190400Y-116972400D01*
X122190400Y-114127600D02*
X120869600Y-114127600D01*
X122190400Y-116972400D02*
X122190400Y-114127600D01*
D10*
%TO.C,R23*%
X120615000Y-77330000D02*
X120615000Y-79330000D01*
X120615000Y-79330000D02*
X121865000Y-79330000D01*
X121865000Y-77330000D02*
X120615000Y-77330000D01*
X121865000Y-79330000D02*
X121865000Y-77330000D01*
%TO.C,R9*%
X89375000Y-61900000D02*
X90625000Y-61900000D01*
X90625000Y-61900000D02*
X90625000Y-59900000D01*
X89375000Y-59900000D02*
X89375000Y-61900000D01*
X90625000Y-59900000D02*
X89375000Y-59900000D01*
%TO.C,C4*%
X86325000Y-61900000D02*
X86325000Y-59900000D01*
X86325000Y-59900000D02*
X85075000Y-59900000D01*
X85075000Y-61900000D02*
X86325000Y-61900000D01*
X85075000Y-59900000D02*
X85075000Y-61900000D01*
%TO.C,R20*%
X111100000Y-106725000D02*
X111100000Y-107975000D01*
X111100000Y-107975000D02*
X113100000Y-107975000D01*
X113100000Y-106725000D02*
X111100000Y-106725000D01*
X113100000Y-107975000D02*
X113100000Y-106725000D01*
%TO.C,C9*%
X89590000Y-38400000D02*
X89590000Y-40400000D01*
X89590000Y-40400000D02*
X90840000Y-40400000D01*
X90840000Y-38400000D02*
X89590000Y-38400000D01*
X90840000Y-40400000D02*
X90840000Y-38400000D01*
D11*
%TO.C,U4*%
X136680000Y-115897500D02*
X136680000Y-119597500D01*
X136680000Y-119597500D02*
X143380000Y-119597500D01*
X143380000Y-115897500D02*
X136680000Y-115897500D01*
X143380000Y-119597500D02*
X143380000Y-115897500D01*
D12*
X137830000Y-113147500D02*
G75*
G02*
X137630000Y-113147500I-100000J0D01*
G01*
X137630000Y-113147500D02*
G75*
G02*
X137830000Y-113147500I100000J0D01*
G01*
D10*
%TO.C,U1*%
X119850000Y-53400000D02*
X119850000Y-27900000D01*
X137850000Y-27900000D02*
X119850000Y-27900000D01*
X137850000Y-33900000D02*
X119850000Y-33900000D01*
X137850000Y-53400000D02*
X119850000Y-53400000D01*
X137850000Y-53400000D02*
X137850000Y-27900000D01*
D11*
%TO.C,FL1*%
X124370000Y-110989500D02*
X124370000Y-112989500D01*
X124370000Y-112989500D02*
X125570000Y-112989500D01*
X125570000Y-110989500D02*
X124370000Y-110989500D01*
X125570000Y-112989500D02*
X125570000Y-110989500D01*
D10*
X125420000Y-112789500D02*
G75*
G02*
X125320000Y-112789500I-50000J0D01*
G01*
X125320000Y-112789500D02*
G75*
G02*
X125420000Y-112789500I50000J0D01*
G01*
%TO.C,C22*%
X133600000Y-112265000D02*
X133600000Y-113515000D01*
X133600000Y-113515000D02*
X135600000Y-113515000D01*
X135600000Y-112265000D02*
X133600000Y-112265000D01*
X135600000Y-113515000D02*
X135600000Y-112265000D01*
%TO.C,R40*%
X135430000Y-123245000D02*
X135430000Y-124495000D01*
X135430000Y-124495000D02*
X137430000Y-124495000D01*
X137430000Y-123245000D02*
X135430000Y-123245000D01*
X137430000Y-124495000D02*
X137430000Y-123245000D01*
%TO.C,R22*%
X106515000Y-47700000D02*
X106515000Y-49700000D01*
X106515000Y-49700000D02*
X107765000Y-49700000D01*
X107765000Y-47700000D02*
X106515000Y-47700000D01*
X107765000Y-49700000D02*
X107765000Y-47700000D01*
%TO.C,R44*%
X92567500Y-106025000D02*
X92567500Y-107275000D01*
X92567500Y-107275000D02*
X94567500Y-107275000D01*
X94567500Y-106025000D02*
X92567500Y-106025000D01*
X94567500Y-107275000D02*
X94567500Y-106025000D01*
%TO.C,R18*%
X115795000Y-53030000D02*
X115795000Y-55030000D01*
X115795000Y-55030000D02*
X117045000Y-55030000D01*
X117045000Y-53030000D02*
X115795000Y-53030000D01*
X117045000Y-55030000D02*
X117045000Y-53030000D01*
%TO.C,R1*%
X148140000Y-35765000D02*
X148140000Y-37015000D01*
X148140000Y-37015000D02*
X150140000Y-37015000D01*
X150140000Y-35765000D02*
X148140000Y-35765000D01*
X150140000Y-37015000D02*
X150140000Y-35765000D01*
D11*
%TO.C,TF1*%
X98655000Y-27530000D02*
X99580000Y-27530000D01*
X98655000Y-42030000D02*
X98655000Y-27530000D01*
X99580000Y-27530000D02*
X99580000Y-22430000D01*
X99580000Y-27530000D02*
X110580000Y-27530000D01*
X100080000Y-21930000D02*
X110080000Y-21930000D01*
X100080000Y-25230000D02*
X110080000Y-25230000D01*
X110580000Y-22430000D02*
X110580000Y-27530000D01*
X110580000Y-27530000D02*
X113405000Y-27530000D01*
X113405000Y-27530000D02*
X113405000Y-42030000D01*
X113405000Y-42030000D02*
X98655000Y-42030000D01*
X99580000Y-22430000D02*
G75*
G02*
X100080000Y-21930000I500001J-1D01*
G01*
X99580000Y-25730000D02*
G75*
G02*
X100080000Y-25230000I500001J-1D01*
G01*
X110080000Y-21930000D02*
G75*
G02*
X110580000Y-22430000I0J-500000D01*
G01*
X110080000Y-25230000D02*
G75*
G02*
X110580000Y-25730000I0J-500000D01*
G01*
D12*
X108380000Y-43880000D02*
G75*
G02*
X108180000Y-43880000I-100000J0D01*
G01*
X108180000Y-43880000D02*
G75*
G02*
X108380000Y-43880000I100000J0D01*
G01*
D10*
%TO.C,C19*%
X144500000Y-109385000D02*
X144500000Y-110635000D01*
X144500000Y-110635000D02*
X146500000Y-110635000D01*
X146500000Y-109385000D02*
X144500000Y-109385000D01*
X146500000Y-110635000D02*
X146500000Y-109385000D01*
%TO.C,R26*%
X142880000Y-123245000D02*
X142880000Y-124495000D01*
X142880000Y-124495000D02*
X144880000Y-124495000D01*
X144880000Y-123245000D02*
X142880000Y-123245000D01*
X144880000Y-124495000D02*
X144880000Y-123245000D01*
%TO.C,C13*%
X104225000Y-47650000D02*
X104225000Y-49650000D01*
X104225000Y-49650000D02*
X105475000Y-49650000D01*
X105475000Y-47650000D02*
X104225000Y-47650000D01*
X105475000Y-49650000D02*
X105475000Y-47650000D01*
%TO.C,R37*%
X92567500Y-99945000D02*
X92567500Y-101195000D01*
X92567500Y-101195000D02*
X94567500Y-101195000D01*
X94567500Y-99945000D02*
X92567500Y-99945000D01*
X94567500Y-101195000D02*
X94567500Y-99945000D01*
%TO.C,R4*%
X148160000Y-43685000D02*
X148160000Y-44935000D01*
X148160000Y-44935000D02*
X150160000Y-44935000D01*
X150160000Y-43685000D02*
X148160000Y-43685000D01*
X150160000Y-44935000D02*
X150160000Y-43685000D01*
%TO.C,C12*%
X101955000Y-47650000D02*
X101955000Y-49650000D01*
X101955000Y-49650000D02*
X103205000Y-49650000D01*
X103205000Y-47650000D02*
X101955000Y-47650000D01*
X103205000Y-49650000D02*
X103205000Y-47650000D01*
%TO.C,R5*%
X111070000Y-44495000D02*
X111070000Y-45745000D01*
X111070000Y-45745000D02*
X113070000Y-45745000D01*
X113070000Y-44495000D02*
X111070000Y-44495000D01*
X113070000Y-45745000D02*
X113070000Y-44495000D01*
%TO.C,R13*%
X91875000Y-40400000D02*
X93125000Y-40400000D01*
X93125000Y-40400000D02*
X93125000Y-38400000D01*
X91875000Y-38400000D02*
X91875000Y-40400000D01*
X93125000Y-38400000D02*
X91875000Y-38400000D01*
%TO.C,R41*%
X139155000Y-123245000D02*
X139155000Y-124495000D01*
X139155000Y-124495000D02*
X141155000Y-124495000D01*
X141155000Y-123245000D02*
X139155000Y-123245000D01*
X141155000Y-124495000D02*
X141155000Y-123245000D01*
%TD*%
M02*
