%TF.GenerationSoftware,KiCad,Pcbnew,9.0.6*%
%TF.CreationDate,2026-05-13T14:56:55+02:00*%
%TF.ProjectId,rayman_main,7261796d-616e-45f6-9d61-696e2e6b6963,rev?*%
%TF.SameCoordinates,Original*%
%TF.FileFunction,Soldermask,Top*%
%TF.FilePolarity,Negative*%
%FSLAX46Y46*%
G04 Gerber Fmt 4.6, Leading zero omitted, Abs format (unit mm)*
G04 Created by KiCad (PCBNEW 9.0.6) date 2026-05-13 14:56:55*
%MOMM*%
%LPD*%
G01*
G04 APERTURE LIST*
G04 Aperture macros list*
%AMRoundRect*
0 Rectangle with rounded corners*
0 $1 Rounding radius*
0 $2 $3 $4 $5 $6 $7 $8 $9 X,Y pos of 4 corners*
0 Add a 4 corners polygon primitive as box body*
4,1,4,$2,$3,$4,$5,$6,$7,$8,$9,$2,$3,0*
0 Add four circle primitives for the rounded corners*
1,1,$1+$1,$2,$3*
1,1,$1+$1,$4,$5*
1,1,$1+$1,$6,$7*
1,1,$1+$1,$8,$9*
0 Add four rect primitives between the rounded corners*
20,1,$1+$1,$2,$3,$4,$5,0*
20,1,$1+$1,$4,$5,$6,$7,0*
20,1,$1+$1,$6,$7,$8,$9,0*
20,1,$1+$1,$8,$9,$2,$3,0*%
G04 Aperture macros list end*
%ADD10RoundRect,0.250000X-1.000000X-0.650000X1.000000X-0.650000X1.000000X0.650000X-1.000000X0.650000X0*%
%ADD11C,1.600000*%
%ADD12RoundRect,0.250000X0.450000X-0.262500X0.450000X0.262500X-0.450000X0.262500X-0.450000X-0.262500X0*%
%ADD13RoundRect,0.250000X-0.600000X-0.750000X0.600000X-0.750000X0.600000X0.750000X-0.600000X0.750000X0*%
%ADD14O,1.700000X2.000000*%
%ADD15RoundRect,0.150000X-0.150000X0.825000X-0.150000X-0.825000X0.150000X-0.825000X0.150000X0.825000X0*%
%ADD16C,2.000000*%
%ADD17RoundRect,0.250000X-0.550000X-0.550000X0.550000X-0.550000X0.550000X0.550000X-0.550000X0.550000X0*%
%ADD18RoundRect,0.250000X-0.262500X-0.450000X0.262500X-0.450000X0.262500X0.450000X-0.262500X0.450000X0*%
%ADD19RoundRect,0.102000X-2.120900X-1.905000X2.120900X-1.905000X2.120900X1.905000X-2.120900X1.905000X0*%
%ADD20RoundRect,0.102000X2.120900X1.905000X-2.120900X1.905000X-2.120900X-1.905000X2.120900X-1.905000X0*%
%ADD21RoundRect,0.243750X0.456250X-0.243750X0.456250X0.243750X-0.456250X0.243750X-0.456250X-0.243750X0*%
%ADD22RoundRect,0.250000X-0.785000X-1.045000X0.785000X-1.045000X0.785000X1.045000X-0.785000X1.045000X0*%
%ADD23RoundRect,0.102000X-0.654000X0.654000X-0.654000X-0.654000X0.654000X-0.654000X0.654000X0.654000X0*%
%ADD24C,1.512000*%
%ADD25RoundRect,0.243750X0.243750X0.456250X-0.243750X0.456250X-0.243750X-0.456250X0.243750X-0.456250X0*%
%ADD26RoundRect,0.250000X-1.000000X-0.900000X1.000000X-0.900000X1.000000X0.900000X-1.000000X0.900000X0*%
%ADD27C,3.250000*%
%ADD28R,1.500000X1.500000*%
%ADD29C,1.500000*%
%ADD30C,2.300000*%
%ADD31RoundRect,0.250000X-0.475000X0.250000X-0.475000X-0.250000X0.475000X-0.250000X0.475000X0.250000X0*%
%ADD32RoundRect,0.150000X0.625000X-0.150000X0.625000X0.150000X-0.625000X0.150000X-0.625000X-0.150000X0*%
%ADD33RoundRect,0.250000X0.650000X-0.350000X0.650000X0.350000X-0.650000X0.350000X-0.650000X-0.350000X0*%
%ADD34C,1.800000*%
%ADD35RoundRect,0.250000X0.250000X0.475000X-0.250000X0.475000X-0.250000X-0.475000X0.250000X-0.475000X0*%
%ADD36C,4.700000*%
%ADD37RoundRect,0.250000X-0.250000X-0.475000X0.250000X-0.475000X0.250000X0.475000X-0.250000X0.475000X0*%
%ADD38RoundRect,0.250000X0.550000X-1.500000X0.550000X1.500000X-0.550000X1.500000X-0.550000X-1.500000X0*%
%ADD39RoundRect,0.243750X-0.243750X-0.456250X0.243750X-0.456250X0.243750X0.456250X-0.243750X0.456250X0*%
%ADD40RoundRect,0.250000X-1.425000X0.362500X-1.425000X-0.362500X1.425000X-0.362500X1.425000X0.362500X0*%
%ADD41RoundRect,0.250000X0.262500X0.450000X-0.262500X0.450000X-0.262500X-0.450000X0.262500X-0.450000X0*%
%ADD42RoundRect,0.250000X1.050000X-1.050000X1.050000X1.050000X-1.050000X1.050000X-1.050000X-1.050000X0*%
%ADD43C,2.600000*%
%ADD44RoundRect,0.243750X-0.456250X0.243750X-0.456250X-0.243750X0.456250X-0.243750X0.456250X0.243750X0*%
%ADD45RoundRect,0.100000X0.100000X-0.850000X0.100000X0.850000X-0.100000X0.850000X-0.100000X-0.850000X0*%
%ADD46RoundRect,0.053000X0.159000X-0.419000X0.159000X0.419000X-0.159000X0.419000X-0.159000X-0.419000X0*%
%ADD47RoundRect,0.048400X0.061600X-0.321600X0.061600X0.321600X-0.061600X0.321600X-0.061600X-0.321600X0*%
%ADD48RoundRect,0.250000X-0.450000X0.262500X-0.450000X-0.262500X0.450000X-0.262500X0.450000X0.262500X0*%
%ADD49RoundRect,0.250000X0.550000X-1.250000X0.550000X1.250000X-0.550000X1.250000X-0.550000X-1.250000X0*%
%ADD50RoundRect,0.250000X-0.600000X-0.725000X0.600000X-0.725000X0.600000X0.725000X-0.600000X0.725000X0*%
%ADD51O,1.700000X1.950000*%
%ADD52RoundRect,0.100000X-0.032506X-0.160759X0.163718X0.009817X0.032506X0.160759X-0.163718X-0.009817X0*%
%ADD53R,0.300000X0.500000*%
%ADD54R,3.100000X1.750000*%
%ADD55C,2.700000*%
%ADD56C,3.000000*%
%ADD57RoundRect,0.250000X-1.045000X0.785000X-1.045000X-0.785000X1.045000X-0.785000X1.045000X0.785000X0*%
%ADD58RoundRect,0.250000X2.500000X-0.250000X2.500000X0.250000X-2.500000X0.250000X-2.500000X-0.250000X0*%
%ADD59RoundRect,0.250000X1.250000X-0.550000X1.250000X0.550000X-1.250000X0.550000X-1.250000X-0.550000X0*%
%ADD60RoundRect,0.250000X1.500000X0.550000X-1.500000X0.550000X-1.500000X-0.550000X1.500000X-0.550000X0*%
%ADD61RoundRect,0.250000X-0.750000X0.600000X-0.750000X-0.600000X0.750000X-0.600000X0.750000X0.600000X0*%
%ADD62O,2.000000X1.700000*%
%ADD63RoundRect,0.250000X-0.550000X1.500000X-0.550000X-1.500000X0.550000X-1.500000X0.550000X1.500000X0*%
%ADD64RoundRect,0.100500X-0.986500X-0.301500X0.986500X-0.301500X0.986500X0.301500X-0.986500X0.301500X0*%
%ADD65R,2.400000X2.400000*%
%ADD66C,2.400000*%
%ADD67RoundRect,0.100000X-0.012672X-0.163522X0.161301X0.029696X0.012672X0.163522X-0.161301X-0.029696X0*%
%ADD68C,1.000000*%
G04 APERTURE END LIST*
D10*
%TO.C,D8*%
X148530000Y-109330000D03*
X144530000Y-109330000D03*
%TD*%
D11*
%TO.C,C31*%
X97400000Y-60800000D03*
X92400000Y-60800000D03*
%TD*%
D12*
%TO.C,R48*%
X99900000Y-61587500D03*
X99900000Y-63412500D03*
%TD*%
D11*
%TO.C,C32*%
X92400000Y-75500000D03*
X97400000Y-75500000D03*
%TD*%
D12*
%TO.C,R47*%
X99900000Y-66487500D03*
X99900000Y-68312500D03*
%TD*%
%TO.C,R50*%
X99900000Y-73212500D03*
X99900000Y-71387500D03*
%TD*%
%TO.C,R49*%
X99900000Y-78112500D03*
X99900000Y-76287500D03*
%TD*%
D11*
%TO.C,C30*%
X92400000Y-65700000D03*
X97400000Y-65700000D03*
%TD*%
%TO.C,C33*%
X92400000Y-70600000D03*
X97400000Y-70600000D03*
%TD*%
D13*
%TO.C,M2*%
X88090000Y-121525000D03*
D14*
X85590000Y-121525000D03*
%TD*%
D15*
%TO.C,CAN1*%
X120647500Y-90635000D03*
X119377500Y-90635000D03*
X118107500Y-90635000D03*
X116837500Y-90635000D03*
X116837500Y-95585000D03*
X118107500Y-95585000D03*
X119377500Y-95585000D03*
X120647500Y-95585000D03*
%TD*%
D16*
%TO.C,C15*%
X144230000Y-63000000D03*
X144230000Y-70500000D03*
%TD*%
D17*
%TO.C,SW_CAN_T1*%
X117025000Y-102542500D03*
D11*
X124645000Y-102542500D03*
%TD*%
D18*
%TO.C,R8*%
X118937500Y-82380000D03*
X120762500Y-82380000D03*
%TD*%
D19*
%TO.C,1\u002C0A_FUSE1*%
X129712300Y-107800000D03*
X136087700Y-107800000D03*
%TD*%
D20*
%TO.C,T1A_FUSE1*%
X88967700Y-95150000D03*
X82592300Y-95150000D03*
%TD*%
D21*
%TO.C,D4*%
X114520000Y-110917500D03*
X114520000Y-109042500D03*
%TD*%
D18*
%TO.C,R2*%
X118937500Y-85200000D03*
X120762500Y-85200000D03*
%TD*%
D22*
%TO.C,C27*%
X93580000Y-82300000D03*
X99820000Y-82300000D03*
%TD*%
D23*
%TO.C,DF_MUSIC1*%
X88790000Y-35883000D03*
D24*
X86250000Y-35883000D03*
X83710000Y-35883000D03*
X81170000Y-35883000D03*
X78630000Y-35883000D03*
X76090000Y-35883000D03*
X73550000Y-35883000D03*
X71010000Y-35883000D03*
X71010000Y-53917000D03*
X73550000Y-53917000D03*
X76090000Y-53917000D03*
X78630000Y-53917000D03*
X81170000Y-53917000D03*
X83710000Y-53917000D03*
X86250000Y-53917000D03*
X88790000Y-53917000D03*
%TD*%
D25*
%TO.C,D12*%
X73097500Y-123490000D03*
X71222500Y-123490000D03*
%TD*%
D26*
%TO.C,D9*%
X130592500Y-102722322D03*
X134892500Y-102722322D03*
%TD*%
D27*
%TO.C,RJ_LED1*%
X111046000Y-123770000D03*
X98346000Y-123770000D03*
D28*
X108256000Y-121230000D03*
D29*
X107240000Y-119450000D03*
X106224000Y-121230000D03*
X105208000Y-119450000D03*
X104192000Y-121230000D03*
X103176000Y-119450000D03*
X102160000Y-121230000D03*
X101144000Y-119450000D03*
D30*
X112826000Y-120340000D03*
X96566000Y-120340000D03*
%TD*%
D31*
%TO.C,C26*%
X90300000Y-82250000D03*
X90300000Y-84150000D03*
%TD*%
D21*
%TO.C,D3*%
X111670000Y-110917500D03*
X111670000Y-109042500D03*
%TD*%
D32*
%TO.C,PROG1*%
X106805000Y-53720000D03*
X106805000Y-52720000D03*
X106805000Y-51720000D03*
X106805000Y-50720000D03*
X106805000Y-49720000D03*
D33*
X104280000Y-55020000D03*
X104280000Y-48420000D03*
%TD*%
D34*
%TO.C,RV1*%
X132180000Y-78230000D03*
X130880000Y-85730000D03*
%TD*%
D21*
%TO.C,D1*%
X142830000Y-40657500D03*
X142830000Y-38782500D03*
%TD*%
D18*
%TO.C,R38*%
X88717500Y-105870000D03*
X90542500Y-105870000D03*
%TD*%
D35*
%TO.C,C2*%
X135790000Y-38260000D03*
X133890000Y-38260000D03*
%TD*%
D36*
%TO.C,REF\u002A\u002A*%
X151440000Y-114890000D03*
%TD*%
D37*
%TO.C,C1*%
X133850000Y-40800000D03*
X135750000Y-40800000D03*
%TD*%
D31*
%TO.C,C25*%
X135600000Y-113550000D03*
X135600000Y-115450000D03*
%TD*%
D38*
%TO.C,C3*%
X95200000Y-55600000D03*
X95200000Y-50200000D03*
%TD*%
D39*
%TO.C,D15*%
X71222500Y-120450000D03*
X73097500Y-120450000D03*
%TD*%
D40*
%TO.C,R35*%
X136800000Y-66637500D03*
X136800000Y-72562500D03*
%TD*%
D41*
%TO.C,R14*%
X145512500Y-114000000D03*
X143687500Y-114000000D03*
%TD*%
D27*
%TO.C,RJ_CAN1*%
X131076000Y-123770000D03*
X118376000Y-123770000D03*
D28*
X128286000Y-121230000D03*
D29*
X127270000Y-119450000D03*
X126254000Y-121230000D03*
X125238000Y-119450000D03*
X124222000Y-121230000D03*
X123206000Y-119450000D03*
X122190000Y-121230000D03*
X121174000Y-119450000D03*
D30*
X132856000Y-120340000D03*
X116596000Y-120340000D03*
%TD*%
D42*
%TO.C,FAN_L1*%
X152770000Y-69070000D03*
D43*
X152770000Y-64070000D03*
%TD*%
D18*
%TO.C,R19*%
X93487500Y-99300000D03*
X95312500Y-99300000D03*
%TD*%
D13*
%TO.C,5VDC1*%
X149427500Y-121285000D03*
D14*
X151927500Y-121285000D03*
%TD*%
D37*
%TO.C,C17*%
X86280000Y-99130000D03*
X88180000Y-99130000D03*
%TD*%
D36*
%TO.C,REF\u002A\u002A*%
X75440000Y-31890000D03*
%TD*%
D35*
%TO.C,C23*%
X82060000Y-114290000D03*
X80160000Y-114290000D03*
%TD*%
D44*
%TO.C,D14*%
X136300000Y-119132500D03*
X136300000Y-121007500D03*
%TD*%
D45*
%TO.C,TB1*%
X79460000Y-110360000D03*
X80110000Y-110360000D03*
X80760000Y-110360000D03*
X81410000Y-110360000D03*
X82060000Y-110360000D03*
X82710000Y-110360000D03*
X83360000Y-110360000D03*
X84010000Y-110360000D03*
X84660000Y-110360000D03*
X85310000Y-110360000D03*
X85960000Y-110360000D03*
X86610000Y-110360000D03*
X86610000Y-103360000D03*
X85960000Y-103360000D03*
X85310000Y-103360000D03*
X84660000Y-103360000D03*
X84010000Y-103360000D03*
X83360000Y-103360000D03*
X82710000Y-103360000D03*
X82060000Y-103360000D03*
X81410000Y-103360000D03*
X80760000Y-103360000D03*
X80110000Y-103360000D03*
X79460000Y-103360000D03*
%TD*%
D46*
%TO.C,U5*%
X104590000Y-46450000D03*
X105090000Y-46450000D03*
X105590000Y-46450000D03*
X106090000Y-46450000D03*
X106590000Y-46450000D03*
X107090000Y-46450000D03*
D47*
X107590000Y-46450000D03*
D46*
X107590000Y-45110000D03*
X107090000Y-45110000D03*
X106590000Y-45110000D03*
X106090000Y-45110000D03*
X105590000Y-45110000D03*
X105090000Y-45110000D03*
X104590000Y-45110000D03*
%TD*%
D31*
%TO.C,C29*%
X91500000Y-89650000D03*
X91500000Y-91550000D03*
%TD*%
D12*
%TO.C,R6*%
X112170000Y-61332500D03*
X112170000Y-59507500D03*
%TD*%
D41*
%TO.C,R29*%
X120762500Y-107740000D03*
X118937500Y-107740000D03*
%TD*%
D48*
%TO.C,R24*%
X125670000Y-96467500D03*
X125670000Y-98292500D03*
%TD*%
D25*
%TO.C,D16*%
X93757500Y-120520000D03*
X91882500Y-120520000D03*
%TD*%
D48*
%TO.C,R45*%
X97700000Y-99187500D03*
X97700000Y-101012500D03*
%TD*%
D41*
%TO.C,R3*%
X120762500Y-79560000D03*
X118937500Y-79560000D03*
%TD*%
%TO.C,R11*%
X81712500Y-80200000D03*
X79887500Y-80200000D03*
%TD*%
D39*
%TO.C,D13*%
X91882500Y-123560000D03*
X93757500Y-123560000D03*
%TD*%
D13*
%TO.C,M1*%
X76940000Y-121500000D03*
D14*
X79440000Y-121500000D03*
%TD*%
D49*
%TO.C,C34*%
X85800000Y-83400000D03*
X85800000Y-79000000D03*
%TD*%
D50*
%TO.C,GOAL1*%
X147640000Y-39240000D03*
D51*
X150140000Y-39240000D03*
X152640000Y-39240000D03*
%TD*%
D35*
%TO.C,C16*%
X90550000Y-108120000D03*
X88650000Y-108120000D03*
%TD*%
%TO.C,C7*%
X131130000Y-35500000D03*
X129230000Y-35500000D03*
%TD*%
D52*
%TO.C,D6*%
X97298493Y-105959939D03*
X97781507Y-105540061D03*
%TD*%
D21*
%TO.C,D11*%
X138370000Y-120967500D03*
X138370000Y-119092500D03*
%TD*%
D53*
%TO.C,U6*%
X139300000Y-115700000D03*
X139800000Y-115700000D03*
X140300000Y-115700000D03*
X140800000Y-115700000D03*
X141300000Y-115700000D03*
X141300000Y-113050000D03*
X140800000Y-113050000D03*
X140300000Y-113050000D03*
X139800000Y-113050000D03*
X139300000Y-113050000D03*
D54*
X140300000Y-114375000D03*
%TD*%
D55*
%TO.C,F1*%
X141800000Y-87900000D03*
D56*
X141800000Y-76650000D03*
X141800000Y-99150000D03*
%TD*%
D57*
%TO.C,C18*%
X74910000Y-103830000D03*
X74910000Y-110070000D03*
%TD*%
D41*
%TO.C,R10*%
X81712500Y-78100000D03*
X79887500Y-78100000D03*
%TD*%
D58*
%TO.C,audio_out1*%
X75800000Y-86400000D03*
X75800000Y-84400000D03*
X75800000Y-82400000D03*
D59*
X73550000Y-88800000D03*
X73550000Y-80000000D03*
%TD*%
D12*
%TO.C,R51*%
X81100000Y-84412500D03*
X81100000Y-82587500D03*
%TD*%
D37*
%TO.C,C24*%
X84300000Y-114490000D03*
X86200000Y-114490000D03*
%TD*%
D60*
%TO.C,C28*%
X98900000Y-94100000D03*
X93500000Y-94100000D03*
%TD*%
D61*
%TO.C,12VDC1*%
X75430000Y-94740000D03*
D62*
X75430000Y-97240000D03*
%TD*%
D21*
%TO.C,D2*%
X142830000Y-50017500D03*
X142830000Y-48142500D03*
%TD*%
D36*
%TO.C,REF\u002A\u002A*%
X152580000Y-31670000D03*
%TD*%
%TO.C,REF\u002A\u002A*%
X75440000Y-114890000D03*
%TD*%
D35*
%TO.C,C6*%
X131110000Y-37990000D03*
X129210000Y-37990000D03*
%TD*%
D63*
%TO.C,C11*%
X95200000Y-40000000D03*
X95200000Y-45400000D03*
%TD*%
D21*
%TO.C,D10*%
X140440000Y-120967500D03*
X140440000Y-119092500D03*
%TD*%
D23*
%TO.C,DF_SFX1*%
X88780000Y-57666000D03*
D24*
X86240000Y-57666000D03*
X83700000Y-57666000D03*
X81160000Y-57666000D03*
X78620000Y-57666000D03*
X76080000Y-57666000D03*
X73540000Y-57666000D03*
X71000000Y-57666000D03*
X71000000Y-75700000D03*
X73540000Y-75700000D03*
X76080000Y-75700000D03*
X78620000Y-75700000D03*
X81160000Y-75700000D03*
X83700000Y-75700000D03*
X86240000Y-75700000D03*
X88780000Y-75700000D03*
%TD*%
D64*
%TO.C,U7*%
X83530000Y-86095000D03*
X83530000Y-87365000D03*
X83530000Y-88635000D03*
X83530000Y-89905000D03*
X88470000Y-89905000D03*
X88470000Y-88635000D03*
X88470000Y-87365000D03*
X88470000Y-86095000D03*
%TD*%
D50*
%TO.C,GOAL2*%
X147640000Y-48600000D03*
D51*
X150140000Y-48600000D03*
X152640000Y-48600000D03*
%TD*%
D65*
%TO.C,U3*%
X152427500Y-84982500D03*
D66*
X152427500Y-90022500D03*
D16*
X152427500Y-106402500D03*
X152427500Y-110182500D03*
%TD*%
D44*
%TO.C,D5*%
X142510000Y-119132500D03*
X142510000Y-121007500D03*
%TD*%
D67*
%TO.C,D7*%
X98525878Y-103987806D03*
X98954122Y-103512194D03*
%TD*%
D48*
%TO.C,R46*%
X81100000Y-87087500D03*
X81100000Y-88912500D03*
%TD*%
D68*
%TO.C,TF1*%
X101080000Y-31530000D03*
X109080000Y-31530000D03*
%TD*%
M02*
