%TF.GenerationSoftware,KiCad,Pcbnew,9.0.6*%
%TF.CreationDate,2026-05-13T14:56:55+02:00*%
%TF.ProjectId,rayman_main,7261796d-616e-45f6-9d61-696e2e6b6963,rev?*%
%TF.SameCoordinates,Original*%
%TF.FileFunction,Other,User*%
%FSLAX46Y46*%
G04 Gerber Fmt 4.6, Leading zero omitted, Abs format (unit mm)*
G04 Created by KiCad (PCBNEW 9.0.6) date 2026-05-13 14:56:55*
%MOMM*%
%LPD*%
G01*
G04 APERTURE LIST*
%ADD10C,0.050000*%
%ADD11C,0.100000*%
G04 APERTURE END LIST*
D10*
X69880000Y-27590000D02*
X157240000Y-27590000D01*
X157240000Y-127340000D01*
X69880000Y-127340000D01*
X69880000Y-27590000D01*
%TO.C,D8*%
X150030000Y-111080000D02*
X143030000Y-111080000D01*
X150030000Y-107580000D02*
X150030000Y-111080000D01*
X143030000Y-111080000D02*
X143030000Y-107580000D01*
X143030000Y-107580000D02*
X150030000Y-107580000D01*
%TO.C,C31*%
X91150000Y-58800000D02*
X98650000Y-58800000D01*
X98650000Y-62800000D01*
X91150000Y-62800000D01*
X91150000Y-58800000D01*
%TO.C,R48*%
X100850000Y-64180000D02*
X98950000Y-64180000D01*
X100850000Y-60820000D02*
X100850000Y-64180000D01*
X98950000Y-64180000D02*
X98950000Y-60820000D01*
X98950000Y-60820000D02*
X100850000Y-60820000D01*
%TO.C,C32*%
X91150000Y-73500000D02*
X98650000Y-73500000D01*
X98650000Y-77500000D01*
X91150000Y-77500000D01*
X91150000Y-73500000D01*
%TO.C,R47*%
X100850000Y-65720000D02*
X100850000Y-69080000D01*
X98950000Y-65720000D02*
X100850000Y-65720000D01*
X100850000Y-69080000D02*
X98950000Y-69080000D01*
X98950000Y-69080000D02*
X98950000Y-65720000D01*
%TO.C,R50*%
X98950000Y-73980000D02*
X98950000Y-70620000D01*
X100850000Y-73980000D02*
X98950000Y-73980000D01*
X98950000Y-70620000D02*
X100850000Y-70620000D01*
X100850000Y-70620000D02*
X100850000Y-73980000D01*
%TO.C,R49*%
X98950000Y-78880000D02*
X98950000Y-75520000D01*
X100850000Y-78880000D02*
X98950000Y-78880000D01*
X98950000Y-75520000D02*
X100850000Y-75520000D01*
X100850000Y-75520000D02*
X100850000Y-78880000D01*
%TO.C,C30*%
X91150000Y-63700000D02*
X98650000Y-63700000D01*
X98650000Y-67700000D01*
X91150000Y-67700000D01*
X91150000Y-63700000D01*
%TO.C,C33*%
X91150000Y-68600000D02*
X98650000Y-68600000D01*
X98650000Y-72600000D01*
X91150000Y-72600000D01*
X91150000Y-68600000D01*
%TO.C,M2*%
X82640000Y-118675000D02*
X82640000Y-125425000D01*
X82640000Y-125425000D02*
X91040000Y-125425000D01*
X91040000Y-118675000D02*
X82640000Y-118675000D01*
X91040000Y-125425000D02*
X91040000Y-118675000D01*
%TO.C,CAN1*%
X116042500Y-90910000D02*
X116282500Y-90910000D01*
X116042500Y-95310000D02*
X116042500Y-90910000D01*
X116282500Y-89410000D02*
X121202500Y-89410000D01*
X116282500Y-90910000D02*
X116282500Y-89410000D01*
X116282500Y-95310000D02*
X116042500Y-95310000D01*
X116282500Y-96810000D02*
X116282500Y-95310000D01*
X121202500Y-89410000D02*
X121202500Y-90910000D01*
X121202500Y-90910000D02*
X121442500Y-90910000D01*
X121202500Y-95310000D02*
X121202500Y-96810000D01*
X121202500Y-96810000D02*
X116282500Y-96810000D01*
X121442500Y-90910000D02*
X121442500Y-95310000D01*
X121442500Y-95310000D02*
X121202500Y-95310000D01*
%TO.C,C15*%
X146480000Y-61500000D02*
X141980000Y-61500000D01*
X141980000Y-72000000D01*
X146480000Y-72000000D01*
X146480000Y-61500000D01*
%TO.C,SW_CAN_T1*%
X115965000Y-100182500D02*
X125695000Y-100182500D01*
X125695000Y-104902500D01*
X115965000Y-104902500D01*
X115965000Y-100182500D01*
%TO.C,R8*%
X118170000Y-81430000D02*
X121530000Y-81430000D01*
X118170000Y-83330000D02*
X118170000Y-81430000D01*
X121530000Y-81430000D02*
X121530000Y-83330000D01*
X121530000Y-83330000D02*
X118170000Y-83330000D01*
%TO.C,1\u002C0A_FUSE1*%
X127341400Y-105035000D02*
X138458600Y-105035000D01*
X127341400Y-110565000D02*
X127341400Y-105035000D01*
X138458600Y-105035000D02*
X138458600Y-110565000D01*
X138458600Y-110565000D02*
X127341400Y-110565000D01*
%TO.C,T1A_FUSE1*%
X80221400Y-92385000D02*
X91338600Y-92385000D01*
X80221400Y-97915000D02*
X80221400Y-92385000D01*
X91338600Y-92385000D02*
X91338600Y-97915000D01*
X91338600Y-97915000D02*
X80221400Y-97915000D01*
%TO.C,D4*%
X113570000Y-108300000D02*
X115470000Y-108300000D01*
X113570000Y-111660000D02*
X113570000Y-108300000D01*
X115470000Y-108300000D02*
X115470000Y-111660000D01*
X115470000Y-111660000D02*
X113570000Y-111660000D01*
%TO.C,R2*%
X118170000Y-84250000D02*
X121530000Y-84250000D01*
X118170000Y-86150000D02*
X118170000Y-84250000D01*
X121530000Y-84250000D02*
X121530000Y-86150000D01*
X121530000Y-86150000D02*
X118170000Y-86150000D01*
%TO.C,C27*%
X92290000Y-79900000D02*
X101110000Y-79900000D01*
X92290000Y-84700000D02*
X92290000Y-79900000D01*
X101110000Y-79900000D02*
X101110000Y-84700000D01*
X101110000Y-84700000D02*
X92290000Y-84700000D01*
%TO.C,DF_MUSIC1*%
X69490000Y-34490000D02*
X90310000Y-34490000D01*
X69490000Y-55310000D02*
X69490000Y-34490000D01*
X90310000Y-34490000D02*
X90310000Y-55310000D01*
X90310000Y-55310000D02*
X69490000Y-55310000D01*
%TO.C,D12*%
X70480000Y-122540000D02*
X73840000Y-122540000D01*
X70480000Y-124440000D02*
X70480000Y-122540000D01*
X73840000Y-122540000D02*
X73840000Y-124440000D01*
X73840000Y-124440000D02*
X70480000Y-124440000D01*
%TO.C,D9*%
X129092500Y-100472322D02*
X136392500Y-100472322D01*
X129092500Y-104972322D02*
X129092500Y-100472322D01*
X136392500Y-100472322D02*
X136392500Y-104972322D01*
X136392500Y-104972322D02*
X129092500Y-104972322D01*
%TO.C,RJ_LED1*%
X94916000Y-129730000D02*
X94916000Y-112980000D01*
X114476000Y-112980000D02*
X94916000Y-112980000D01*
X114476000Y-129730000D02*
X94916000Y-129730000D01*
X114476000Y-129730000D02*
X114476000Y-112980000D01*
%TO.C,C26*%
X91280000Y-81500000D02*
X91280000Y-84900000D01*
X89320000Y-81500000D02*
X91280000Y-81500000D01*
X91280000Y-84900000D02*
X89320000Y-84900000D01*
X89320000Y-84900000D02*
X89320000Y-81500000D01*
%TO.C,D3*%
X110720000Y-108300000D02*
X112620000Y-108300000D01*
X110720000Y-111660000D02*
X110720000Y-108300000D01*
X112620000Y-108300000D02*
X112620000Y-111660000D01*
X112620000Y-111660000D02*
X110720000Y-111660000D01*
%TO.C,PROG1*%
X102880000Y-47320000D02*
X105680000Y-47320000D01*
X102880000Y-49530000D02*
X102880000Y-47320000D01*
X102880000Y-53910000D02*
X103080000Y-53910000D01*
X102880000Y-56120000D02*
X102880000Y-53910000D01*
X103080000Y-49530000D02*
X102880000Y-49530000D01*
X103080000Y-53910000D02*
X103080000Y-49530000D01*
X105680000Y-47320000D02*
X105680000Y-47720000D01*
X105680000Y-47720000D02*
X106980000Y-47720000D01*
X105680000Y-55720000D02*
X105680000Y-56120000D01*
X105680000Y-56120000D02*
X102880000Y-56120000D01*
X106980000Y-47720000D02*
X106980000Y-48920000D01*
X106980000Y-48920000D02*
X108080000Y-48920000D01*
X106980000Y-54520000D02*
X106980000Y-55720000D01*
X106980000Y-55720000D02*
X105680000Y-55720000D01*
X108080000Y-48920000D02*
X108080000Y-54520000D01*
X108080000Y-54520000D02*
X106980000Y-54520000D01*
%TO.C,RV1*%
X127930000Y-73480000D02*
X127930000Y-90480000D01*
X135130000Y-73480000D02*
X127930000Y-73480000D01*
X135130000Y-73480000D02*
X135130000Y-90480000D01*
X135130000Y-90480000D02*
X127930000Y-90480000D01*
%TO.C,D1*%
X141880000Y-38040000D02*
X143780000Y-38040000D01*
X141880000Y-41400000D02*
X141880000Y-38040000D01*
X143780000Y-38040000D02*
X143780000Y-41400000D01*
X143780000Y-41400000D02*
X141880000Y-41400000D01*
%TO.C,R38*%
X87950000Y-104920000D02*
X91310000Y-104920000D01*
X87950000Y-106820000D02*
X87950000Y-104920000D01*
X91310000Y-104920000D02*
X91310000Y-106820000D01*
X91310000Y-106820000D02*
X87950000Y-106820000D01*
%TO.C,C2*%
X133140000Y-37280000D02*
X136540000Y-37280000D01*
X133140000Y-39240000D02*
X133140000Y-37280000D01*
X136540000Y-37280000D02*
X136540000Y-39240000D01*
X136540000Y-39240000D02*
X133140000Y-39240000D01*
%TO.C,REF\u002A\u002A*%
X154040000Y-114890000D02*
G75*
G02*
X148840000Y-114890000I-2600000J0D01*
G01*
X148840000Y-114890000D02*
G75*
G02*
X154040000Y-114890000I2600000J0D01*
G01*
%TO.C,C1*%
X133100000Y-39820000D02*
X136500000Y-39820000D01*
X133100000Y-41780000D02*
X133100000Y-39820000D01*
X136500000Y-39820000D02*
X136500000Y-41780000D01*
X136500000Y-41780000D02*
X133100000Y-41780000D01*
%TO.C,C25*%
X134620000Y-112800000D02*
X136580000Y-112800000D01*
X134620000Y-116200000D02*
X134620000Y-112800000D01*
X136580000Y-112800000D02*
X136580000Y-116200000D01*
X136580000Y-116200000D02*
X134620000Y-116200000D01*
%TO.C,C3*%
X98750000Y-55300000D02*
X98750000Y-49350000D01*
X97600000Y-56450000D02*
X98750000Y-55300000D01*
X96250000Y-57600000D02*
X96250000Y-56450000D01*
X96250000Y-56450000D02*
X97600000Y-56450000D01*
X96250000Y-49350000D02*
X98750000Y-49350000D01*
X96250000Y-48200000D02*
X96250000Y-49350000D01*
X94150000Y-57600000D02*
X96250000Y-57600000D01*
X94150000Y-56450000D02*
X94150000Y-57600000D01*
X94150000Y-49350000D02*
X94150000Y-48200000D01*
X94150000Y-48200000D02*
X96250000Y-48200000D01*
X92800000Y-56450000D02*
X94150000Y-56450000D01*
X92800000Y-56450000D02*
X91650000Y-55300000D01*
X91650000Y-55300000D02*
X91650000Y-49350000D01*
X91650000Y-49350000D02*
X94150000Y-49350000D01*
%TO.C,D15*%
X70480000Y-119500000D02*
X73840000Y-119500000D01*
X70480000Y-121400000D02*
X70480000Y-119500000D01*
X73840000Y-119500000D02*
X73840000Y-121400000D01*
X73840000Y-121400000D02*
X70480000Y-121400000D01*
%TO.C,R35*%
X134870000Y-65770000D02*
X138730000Y-65770000D01*
X134870000Y-73430000D02*
X134870000Y-65770000D01*
X138730000Y-65770000D02*
X138730000Y-73430000D01*
X138730000Y-73430000D02*
X134870000Y-73430000D01*
%TO.C,R14*%
X142920000Y-113050000D02*
X146280000Y-113050000D01*
X142920000Y-114950000D02*
X142920000Y-113050000D01*
X146280000Y-113050000D02*
X146280000Y-114950000D01*
X146280000Y-114950000D02*
X142920000Y-114950000D01*
%TO.C,RJ_CAN1*%
X114946000Y-129730000D02*
X114946000Y-112980000D01*
X134506000Y-112980000D02*
X114946000Y-112980000D01*
X134506000Y-129730000D02*
X114946000Y-129730000D01*
X134506000Y-129730000D02*
X134506000Y-112980000D01*
%TO.C,FAN_L1*%
X147060000Y-61070000D02*
X147060000Y-72070000D01*
X147060000Y-72070000D02*
X157870000Y-72070000D01*
X157870000Y-61070000D02*
X147060000Y-61070000D01*
X157870000Y-72070000D02*
X157870000Y-61070000D01*
%TO.C,R19*%
X92720000Y-98350000D02*
X96080000Y-98350000D01*
X92720000Y-100250000D02*
X92720000Y-98350000D01*
X96080000Y-98350000D02*
X96080000Y-100250000D01*
X96080000Y-100250000D02*
X92720000Y-100250000D01*
%TO.C,5VDC1*%
X146477500Y-116885000D02*
X146477500Y-129385000D01*
X146477500Y-129385000D02*
X154877500Y-129385000D01*
X154877500Y-116885000D02*
X146477500Y-116885000D01*
X154877500Y-129385000D02*
X154877500Y-116885000D01*
%TO.C,C17*%
X85530000Y-98150000D02*
X88930000Y-98150000D01*
X85530000Y-100110000D02*
X85530000Y-98150000D01*
X88930000Y-98150000D02*
X88930000Y-100110000D01*
X88930000Y-100110000D02*
X85530000Y-100110000D01*
%TO.C,REF\u002A\u002A*%
X78040000Y-31890000D02*
G75*
G02*
X72840000Y-31890000I-2600000J0D01*
G01*
X72840000Y-31890000D02*
G75*
G02*
X78040000Y-31890000I2600000J0D01*
G01*
%TO.C,C23*%
X79410000Y-113310000D02*
X82810000Y-113310000D01*
X79410000Y-115270000D02*
X79410000Y-113310000D01*
X82810000Y-113310000D02*
X82810000Y-115270000D01*
X82810000Y-115270000D02*
X79410000Y-115270000D01*
%TO.C,D14*%
X135350000Y-118390000D02*
X137250000Y-118390000D01*
X135350000Y-121750000D02*
X135350000Y-118390000D01*
X137250000Y-118390000D02*
X137250000Y-121750000D01*
X137250000Y-121750000D02*
X135350000Y-121750000D01*
%TO.C,TB1*%
X78685000Y-103960000D02*
X79005000Y-103960000D01*
X78685000Y-109760000D02*
X78685000Y-103960000D01*
X79005000Y-102160000D02*
X87065000Y-102160000D01*
X79005000Y-103960000D02*
X79005000Y-102160000D01*
X79005000Y-109760000D02*
X78685000Y-109760000D01*
X79005000Y-111560000D02*
X79005000Y-109760000D01*
X87065000Y-102160000D02*
X87065000Y-103960000D01*
X87065000Y-103960000D02*
X87385000Y-103960000D01*
X87065000Y-109760000D02*
X87065000Y-111560000D01*
X87065000Y-111560000D02*
X79005000Y-111560000D01*
X87385000Y-103960000D02*
X87385000Y-109760000D01*
X87385000Y-109760000D02*
X87065000Y-109760000D01*
%TO.C,U5*%
X104040000Y-44490000D02*
X108140000Y-44490000D01*
X104040000Y-47070000D02*
X104040000Y-44490000D01*
X104040000Y-47070000D02*
X108140000Y-47070000D01*
X108140000Y-47070000D02*
X108140000Y-44490000D01*
%TO.C,C29*%
X92480000Y-88900000D02*
X92480000Y-92300000D01*
X90520000Y-88900000D02*
X92480000Y-88900000D01*
X92480000Y-92300000D02*
X90520000Y-92300000D01*
X90520000Y-92300000D02*
X90520000Y-88900000D01*
%TO.C,R6*%
X111220000Y-58740000D02*
X113120000Y-58740000D01*
X111220000Y-62100000D02*
X111220000Y-58740000D01*
X113120000Y-58740000D02*
X113120000Y-62100000D01*
X113120000Y-62100000D02*
X111220000Y-62100000D01*
%TO.C,R29*%
X118170000Y-106790000D02*
X121530000Y-106790000D01*
X118170000Y-108690000D02*
X118170000Y-106790000D01*
X121530000Y-106790000D02*
X121530000Y-108690000D01*
X121530000Y-108690000D02*
X118170000Y-108690000D01*
%TO.C,R24*%
X124720000Y-95700000D02*
X126620000Y-95700000D01*
X124720000Y-99060000D02*
X124720000Y-95700000D01*
X126620000Y-95700000D02*
X126620000Y-99060000D01*
X126620000Y-99060000D02*
X124720000Y-99060000D01*
%TO.C,D16*%
X91140000Y-119570000D02*
X94500000Y-119570000D01*
X91140000Y-121470000D02*
X91140000Y-119570000D01*
X94500000Y-119570000D02*
X94500000Y-121470000D01*
X94500000Y-121470000D02*
X91140000Y-121470000D01*
%TO.C,R45*%
X98650000Y-98420000D02*
X98650000Y-101780000D01*
X96750000Y-98420000D02*
X98650000Y-98420000D01*
X98650000Y-101780000D02*
X96750000Y-101780000D01*
X96750000Y-101780000D02*
X96750000Y-98420000D01*
%TO.C,R3*%
X118170000Y-78610000D02*
X121530000Y-78610000D01*
X118170000Y-80510000D02*
X118170000Y-78610000D01*
X121530000Y-78610000D02*
X121530000Y-80510000D01*
X121530000Y-80510000D02*
X118170000Y-80510000D01*
%TO.C,R11*%
X82480000Y-81150000D02*
X79120000Y-81150000D01*
X82480000Y-79250000D02*
X82480000Y-81150000D01*
X79120000Y-81150000D02*
X79120000Y-79250000D01*
X79120000Y-79250000D02*
X82480000Y-79250000D01*
%TO.C,D13*%
X91140000Y-122610000D02*
X94500000Y-122610000D01*
X91140000Y-124510000D02*
X91140000Y-122610000D01*
X94500000Y-122610000D02*
X94500000Y-124510000D01*
X94500000Y-124510000D02*
X91140000Y-124510000D01*
%TO.C,M1*%
X73990000Y-118650000D02*
X73990000Y-125400000D01*
X73990000Y-125400000D02*
X82390000Y-125400000D01*
X82390000Y-118650000D02*
X73990000Y-118650000D01*
X82390000Y-125400000D02*
X82390000Y-118650000D01*
%TO.C,C34*%
X84750000Y-85150000D02*
X86850000Y-85150000D01*
X86850000Y-85150000D02*
X86850000Y-84100000D01*
X84050000Y-84100000D02*
X84750000Y-84100000D01*
X84050000Y-84100000D02*
X82900000Y-82950000D01*
X84750000Y-84100000D02*
X84750000Y-85150000D01*
X86850000Y-84100000D02*
X87550000Y-84100000D01*
X87550000Y-84100000D02*
X88700000Y-82950000D01*
X82900000Y-82950000D02*
X82900000Y-78300000D01*
X88700000Y-82950000D02*
X88700000Y-78300000D01*
X82900000Y-78300000D02*
X84750000Y-78300000D01*
X84750000Y-78300000D02*
X84750000Y-77250000D01*
X86850000Y-78300000D02*
X88700000Y-78300000D01*
X84750000Y-77250000D02*
X86850000Y-77250000D01*
X86850000Y-77250000D02*
X86850000Y-78300000D01*
%TO.C,GOAL1*%
X144690000Y-36390000D02*
X144690000Y-43140000D01*
X144690000Y-43140000D02*
X155590000Y-43140000D01*
X155590000Y-36390000D02*
X144690000Y-36390000D01*
X155590000Y-43140000D02*
X155590000Y-36390000D01*
%TO.C,C16*%
X87900000Y-107140000D02*
X91300000Y-107140000D01*
X87900000Y-109100000D02*
X87900000Y-107140000D01*
X91300000Y-107140000D02*
X91300000Y-109100000D01*
X91300000Y-109100000D02*
X87900000Y-109100000D01*
%TO.C,C7*%
X128480000Y-34520000D02*
X131880000Y-34520000D01*
X128480000Y-36480000D02*
X128480000Y-34520000D01*
X131880000Y-34520000D02*
X131880000Y-36480000D01*
X131880000Y-36480000D02*
X128480000Y-36480000D01*
%TO.C,D6*%
X96782083Y-105945093D02*
X97838676Y-105026610D01*
X97241324Y-106473390D02*
X96782083Y-105945093D01*
X97838676Y-105026610D02*
X98297917Y-105554907D01*
X98297917Y-105554907D02*
X97241324Y-106473390D01*
%TO.C,D11*%
X137420000Y-118350000D02*
X139320000Y-118350000D01*
X137420000Y-121710000D02*
X137420000Y-118350000D01*
X139320000Y-118350000D02*
X139320000Y-121710000D01*
X139320000Y-121710000D02*
X137420000Y-121710000D01*
D11*
%TO.C,U6*%
X137750000Y-111800000D02*
X142850000Y-111800000D01*
X137750000Y-116950000D02*
X137750000Y-111800000D01*
X142850000Y-111800000D02*
X142850000Y-116950000D01*
X142850000Y-116950000D02*
X137750000Y-116950000D01*
D10*
%TO.C,F1*%
X136750000Y-74900000D02*
X146850000Y-74900000D01*
X136750000Y-100900000D02*
X136750000Y-74900000D01*
X146850000Y-74900000D02*
X146850000Y-100900000D01*
X146850000Y-100900000D02*
X136750000Y-100900000D01*
%TO.C,C18*%
X72510000Y-102540000D02*
X77310000Y-102540000D01*
X72510000Y-111360000D02*
X72510000Y-102540000D01*
X77310000Y-102540000D02*
X77310000Y-111360000D01*
X77310000Y-111360000D02*
X72510000Y-111360000D01*
%TO.C,R10*%
X82480000Y-79050000D02*
X79120000Y-79050000D01*
X82480000Y-77150000D02*
X82480000Y-79050000D01*
X79120000Y-79050000D02*
X79120000Y-77150000D01*
X79120000Y-77150000D02*
X82480000Y-77150000D01*
%TO.C,audio_out1*%
X70550000Y-78920000D02*
X71550000Y-78920000D01*
X70550000Y-89880000D02*
X70550000Y-78920000D01*
X71550000Y-78700000D02*
X75550000Y-78700000D01*
X71550000Y-78920000D02*
X71550000Y-78700000D01*
X71550000Y-89880000D02*
X70550000Y-89880000D01*
X71550000Y-90100000D02*
X71550000Y-89880000D01*
X75550000Y-78700000D02*
X75550000Y-78920000D01*
X75550000Y-78920000D02*
X76550000Y-78920000D01*
X75550000Y-89880000D02*
X75550000Y-90100000D01*
X75550000Y-90100000D02*
X71550000Y-90100000D01*
X76550000Y-78920000D02*
X76550000Y-81400000D01*
X76550000Y-81400000D02*
X79050000Y-81400000D01*
X76550000Y-87400000D02*
X76550000Y-89880000D01*
X76550000Y-89880000D02*
X75550000Y-89880000D01*
X79050000Y-81400000D02*
X79050000Y-87400000D01*
X79050000Y-87400000D02*
X76550000Y-87400000D01*
%TO.C,R51*%
X80150000Y-85180000D02*
X80150000Y-81820000D01*
X82050000Y-85180000D02*
X80150000Y-85180000D01*
X80150000Y-81820000D02*
X82050000Y-81820000D01*
X82050000Y-81820000D02*
X82050000Y-85180000D01*
%TO.C,C24*%
X83550000Y-113510000D02*
X86950000Y-113510000D01*
X83550000Y-115470000D02*
X83550000Y-113510000D01*
X86950000Y-113510000D02*
X86950000Y-115470000D01*
X86950000Y-115470000D02*
X83550000Y-115470000D01*
%TO.C,C28*%
X98600000Y-90550000D02*
X92650000Y-90550000D01*
X99750000Y-91700000D02*
X98600000Y-90550000D01*
X100900000Y-93050000D02*
X99750000Y-93050000D01*
X99750000Y-93050000D02*
X99750000Y-91700000D01*
X92650000Y-93050000D02*
X92650000Y-90550000D01*
X91500000Y-93050000D02*
X92650000Y-93050000D01*
X100900000Y-95150000D02*
X100900000Y-93050000D01*
X99750000Y-95150000D02*
X100900000Y-95150000D01*
X92650000Y-95150000D02*
X91500000Y-95150000D01*
X91500000Y-95150000D02*
X91500000Y-93050000D01*
X99750000Y-96500000D02*
X99750000Y-95150000D01*
X99750000Y-96500000D02*
X98600000Y-97650000D01*
X98600000Y-97650000D02*
X92650000Y-97650000D01*
X92650000Y-97650000D02*
X92650000Y-95150000D01*
%TO.C,12VDC1*%
X67330000Y-91790000D02*
X67330000Y-100190000D01*
X67330000Y-100190000D02*
X79830000Y-100190000D01*
X79830000Y-91790000D02*
X67330000Y-91790000D01*
X79830000Y-100190000D02*
X79830000Y-91790000D01*
%TO.C,D2*%
X141880000Y-47400000D02*
X143780000Y-47400000D01*
X141880000Y-50760000D02*
X141880000Y-47400000D01*
X143780000Y-47400000D02*
X143780000Y-50760000D01*
X143780000Y-50760000D02*
X141880000Y-50760000D01*
%TO.C,REF\u002A\u002A*%
X155180000Y-31670000D02*
G75*
G02*
X149980000Y-31670000I-2600000J0D01*
G01*
X149980000Y-31670000D02*
G75*
G02*
X155180000Y-31670000I2600000J0D01*
G01*
X78040000Y-114890000D02*
G75*
G02*
X72840000Y-114890000I-2600000J0D01*
G01*
X72840000Y-114890000D02*
G75*
G02*
X78040000Y-114890000I2600000J0D01*
G01*
%TO.C,C6*%
X128460000Y-37010000D02*
X131860000Y-37010000D01*
X128460000Y-38970000D02*
X128460000Y-37010000D01*
X131860000Y-37010000D02*
X131860000Y-38970000D01*
X131860000Y-38970000D02*
X128460000Y-38970000D01*
%TO.C,C11*%
X91650000Y-40300000D02*
X91650000Y-46250000D01*
X92800000Y-39150000D02*
X91650000Y-40300000D01*
X94150000Y-38000000D02*
X94150000Y-39150000D01*
X94150000Y-39150000D02*
X92800000Y-39150000D01*
X94150000Y-46250000D02*
X91650000Y-46250000D01*
X94150000Y-47400000D02*
X94150000Y-46250000D01*
X96250000Y-38000000D02*
X94150000Y-38000000D01*
X96250000Y-39150000D02*
X96250000Y-38000000D01*
X96250000Y-46250000D02*
X96250000Y-47400000D01*
X96250000Y-47400000D02*
X94150000Y-47400000D01*
X97600000Y-39150000D02*
X96250000Y-39150000D01*
X97600000Y-39150000D02*
X98750000Y-40300000D01*
X98750000Y-40300000D02*
X98750000Y-46250000D01*
X98750000Y-46250000D02*
X96250000Y-46250000D01*
%TO.C,D10*%
X139490000Y-118350000D02*
X141390000Y-118350000D01*
X139490000Y-121710000D02*
X139490000Y-118350000D01*
X141390000Y-118350000D02*
X141390000Y-121710000D01*
X141390000Y-121710000D02*
X139490000Y-121710000D01*
%TO.C,DF_SFX1*%
X69480000Y-56273000D02*
X90300000Y-56273000D01*
X69480000Y-77093000D02*
X69480000Y-56273000D01*
X90300000Y-56273000D02*
X90300000Y-77093000D01*
X90300000Y-77093000D02*
X69480000Y-77093000D01*
%TO.C,U7*%
X82295000Y-85297500D02*
X82295000Y-90702500D01*
X82295000Y-85297500D02*
X89705000Y-85297500D01*
X82295000Y-90702500D02*
X89705000Y-90702500D01*
X89705000Y-85297500D02*
X89705000Y-90702500D01*
%TO.C,GOAL2*%
X144690000Y-45750000D02*
X144690000Y-52500000D01*
X144690000Y-52500000D02*
X155590000Y-52500000D01*
X155590000Y-45750000D02*
X144690000Y-45750000D01*
X155590000Y-52500000D02*
X155590000Y-45750000D01*
%TO.C,U3*%
X150977500Y-82832500D02*
X156477500Y-82832500D01*
X150977500Y-111332500D02*
X150977500Y-82832500D01*
X151177500Y-111332500D02*
X150977500Y-111332500D01*
X153677500Y-111332500D02*
X151177500Y-111332500D01*
X156477500Y-82832500D02*
X156477500Y-111332500D01*
X156477500Y-111332500D02*
X153677500Y-111332500D01*
%TO.C,D5*%
X141560000Y-118390000D02*
X143460000Y-118390000D01*
X141560000Y-121750000D02*
X141560000Y-118390000D01*
X143460000Y-118390000D02*
X143460000Y-121750000D01*
X143460000Y-121750000D02*
X141560000Y-121750000D01*
%TO.C,D7*%
X98011508Y-104036006D02*
X98948291Y-102995603D01*
X98531709Y-104504397D02*
X98011508Y-104036006D01*
X98948291Y-102995603D02*
X99468492Y-103463994D01*
X99468492Y-103463994D02*
X98531709Y-104504397D01*
%TO.C,R46*%
X82050000Y-86320000D02*
X82050000Y-89680000D01*
X80150000Y-86320000D02*
X82050000Y-86320000D01*
X82050000Y-89680000D02*
X80150000Y-89680000D01*
X80150000Y-89680000D02*
X80150000Y-86320000D01*
%TD*%
M02*
