M48
; DRILL file {KiCad 9.0.6} date 2026-05-13T14:33:42+0200
; FORMAT={-:-/ absolute / metric / decimal}
; #@! TF.CreationDate,2026-05-13T14:33:42+02:00
; #@! TF.GenerationSoftware,Kicad,Pcbnew,9.0.6
; #@! TF.FileFunction,Plated,1,2,PTH
FMAT,2
METRIC
; #@! TA.AperFunction,Plated,PTH,ViaDrill
T1C0.300
; #@! TA.AperFunction,Plated,PTH,ComponentDrill
T2C0.300
; #@! TA.AperFunction,Plated,PTH,ViaDrill
T3C0.400
; #@! TA.AperFunction,Plated,PTH,ViaDrill
T4C0.500
; #@! TA.AperFunction,Plated,PTH,ComponentDrill
T5C0.800
; #@! TA.AperFunction,Plated,PTH,ComponentDrill
T6C0.890
; #@! TA.AperFunction,Plated,PTH,ComponentDrill
T7C0.900
; #@! TA.AperFunction,Plated,PTH,ComponentDrill
T8C0.950
; #@! TA.AperFunction,Plated,PTH,ComponentDrill
T9C1.000
; #@! TA.AperFunction,Plated,PTH,ComponentDrill
T10C1.300
; #@! TA.AperFunction,Plated,PTH,ComponentDrill
T11C1.570
; #@! TA.AperFunction,Plated,PTH,ComponentDrill
T12C2.700
%
G90
G05
T1
X71.222Y-120.45
X79.44Y-105.09
X80.15Y-101.261
X81.155Y-101.261
X82.16Y-101.261
X84.287Y-105.39
X85.243Y-105.39
X86.199Y-105.39
X86.7Y-89.9
X90.54Y-106.15
X91.6Y-89.6
X92.5Y-42.2
X93.78Y-120.21
X94.45Y-115.13
X94.48Y-106.9
X94.9Y-60.9
X95.2Y-38.9
X95.2Y-57.3
X97.174Y-106.068
X97.9Y-105.42
X98.415Y-104.11
X99.025Y-103.39
X101.776Y-59.82
X101.83Y-42.68
X101.928Y-104.844
X102.07Y-106.044
X102.8Y-56.767
X103.88Y-42.68
X104.19Y-122.91
X104.623Y-86.868
X105.8Y-58.2
X105.89Y-42.68
X106.71Y-48.5
X107.04Y-55.764
X107.35Y-42.68
X108.9Y-49.4
X110.891Y-60.886
X111.157Y-45.12
X111.5Y-51.86
X111.7Y-110.98
X111.72Y-109.1
X111.97Y-96.176
X112.17Y-61.332
X112.575Y-96.176
X113.12Y-53.989
X114.239Y-51.452
X114.54Y-110.98
X114.55Y-109.07
X114.854Y-50.865
X115.283Y-74.0
X115.6Y-88.55
X115.976Y-61.582
X116.074Y-73.059
X116.8Y-72.2
X116.837Y-84.6
X117.237Y-41.667
X117.24Y-44.28
X117.24Y-45.36
X117.24Y-50.29
X117.275Y-69.203
X118.14Y-88.55
X118.14Y-89.27
X118.7Y-62.39
X118.938Y-79.56
X119.81Y-62.39
X120.0Y-39.2
X120.26Y-51.84
X122.8Y-50.9
X123.1Y-98.78
X125.32Y-107.74
X126.79Y-55.73
X128.067Y-55.73
X128.54Y-107.99
X129.343Y-55.73
X130.62Y-55.73
X131.49Y-58.615
X131.897Y-55.73
X133.173Y-55.73
X134.45Y-55.73
X135.54Y-123.8
X136.418Y-114.16
X137.343Y-123.87
X137.6Y-37.93
X137.6Y-41.74
X137.7Y-115.227
X141.09Y-123.8
X141.11Y-35.5
X141.6Y-112.1
X142.95Y-48.17
X143.01Y-38.77
X143.01Y-123.8
X143.418Y-121.904
X144.043Y-117.594
X144.81Y-123.5
X146.1Y-116.6
T2
X128.95Y-42.41
X128.95Y-43.81
X129.65Y-41.71
X129.65Y-43.11
X129.65Y-44.51
X130.35Y-42.41
X130.35Y-43.81
X131.05Y-41.71
X131.05Y-43.11
X131.05Y-44.51
X131.75Y-42.41
X131.75Y-43.81
T3
X86.302Y-101.336
T4
X78.26Y-103.21
X89.7Y-101.863
X91.0Y-101.88
X93.8Y-96.5
X95.2Y-96.5
X99.6Y-85.9
X99.6Y-87.35
X102.66Y-74.09
X102.66Y-75.54
X103.98Y-74.09
X103.98Y-75.54
X104.3Y-110.4
X104.3Y-115.3
X104.48Y-50.93
X105.7Y-80.0
X107.6Y-80.0
X108.9Y-44.6
X109.42Y-92.66
X109.42Y-94.11
X115.9Y-41.4
X117.325Y-70.967
X122.98Y-85.28
X122.98Y-92.05
X130.442Y-96.458
X138.3Y-112.905
X142.472Y-112.905
X145.29Y-118.3
X145.29Y-119.75
X146.61Y-118.3
X146.61Y-119.75
T5
X71.0Y-57.666
X71.0Y-75.7
X71.01Y-35.883
X71.01Y-53.917
X73.54Y-57.666
X73.54Y-75.7
X73.55Y-35.883
X73.55Y-53.917
X76.08Y-57.666
X76.08Y-75.7
X76.09Y-35.883
X76.09Y-53.917
X78.62Y-57.666
X78.62Y-75.7
X78.63Y-35.883
X78.63Y-53.917
X81.16Y-57.666
X81.16Y-75.7
X81.17Y-35.883
X81.17Y-53.917
X83.7Y-57.666
X83.7Y-75.7
X83.71Y-35.883
X83.71Y-53.917
X86.24Y-57.666
X86.24Y-75.7
X86.25Y-35.883
X86.25Y-53.917
X88.78Y-57.666
X88.78Y-75.7
X88.79Y-35.883
X88.79Y-53.917
X92.4Y-60.8
X92.4Y-65.7
X92.4Y-70.6
X92.4Y-75.5
X97.4Y-60.8
X97.4Y-65.7
X97.4Y-70.6
X97.4Y-75.5
X117.025Y-102.542
X124.645Y-102.542
T6
X101.144Y-119.45
X102.16Y-121.23
X103.176Y-119.45
X104.192Y-121.23
X105.208Y-119.45
X106.224Y-121.23
X107.24Y-119.45
X108.256Y-121.23
X121.174Y-119.45
X122.19Y-121.23
X123.206Y-119.45
X124.222Y-121.23
X125.238Y-119.45
X126.254Y-121.23
X127.27Y-119.45
X128.286Y-121.23
T7
X130.88Y-85.73
X132.18Y-78.23
T8
X147.64Y-39.24
X147.64Y-48.6
X150.14Y-39.24
X150.14Y-48.6
X152.64Y-39.24
X152.64Y-48.6
T9
X75.43Y-94.74
X75.43Y-97.24
X76.94Y-121.5
X79.44Y-121.5
X85.59Y-121.525
X88.09Y-121.525
X144.23Y-63.0
X144.23Y-70.5
X149.427Y-121.285
X151.927Y-121.285
X152.427Y-106.402
X152.427Y-110.182
T10
X141.8Y-76.65
X141.8Y-99.15
X152.427Y-84.983
X152.427Y-90.022
X152.77Y-64.07
X152.77Y-69.07
T11
X96.566Y-120.34
X112.826Y-120.34
X116.596Y-120.34
X132.856Y-120.34
T12
X75.44Y-31.89
X75.44Y-114.89
X151.44Y-114.89
X152.58Y-31.67
M30
