%TF.GenerationSoftware,KiCad,Pcbnew,9.0.6*%
%TF.CreationDate,2026-05-13T14:56:55+02:00*%
%TF.ProjectId,rayman_main,7261796d-616e-45f6-9d61-696e2e6b6963,rev?*%
%TF.SameCoordinates,Original*%
%TF.FileFunction,Legend,Bot*%
%TF.FilePolarity,Positive*%
%FSLAX46Y46*%
G04 Gerber Fmt 4.6, Leading zero omitted, Abs format (unit mm)*
G04 Created by KiCad (PCBNEW 9.0.6) date 2026-05-13 14:56:55*
%MOMM*%
%LPD*%
G01*
G04 APERTURE LIST*
%ADD10C,0.300000*%
%ADD11C,0.100000*%
%ADD12C,0.127000*%
%ADD13C,0.200000*%
%ADD14C,0.120000*%
%ADD15C,0.203200*%
G04 APERTURE END LIST*
D10*
X90687142Y-30335912D02*
X91187142Y-29621626D01*
X91544285Y-30335912D02*
X91544285Y-28835912D01*
X91544285Y-28835912D02*
X90972856Y-28835912D01*
X90972856Y-28835912D02*
X90829999Y-28907341D01*
X90829999Y-28907341D02*
X90758570Y-28978769D01*
X90758570Y-28978769D02*
X90687142Y-29121626D01*
X90687142Y-29121626D02*
X90687142Y-29335912D01*
X90687142Y-29335912D02*
X90758570Y-29478769D01*
X90758570Y-29478769D02*
X90829999Y-29550198D01*
X90829999Y-29550198D02*
X90972856Y-29621626D01*
X90972856Y-29621626D02*
X91544285Y-29621626D01*
X89472856Y-30264484D02*
X89615713Y-30335912D01*
X89615713Y-30335912D02*
X89901428Y-30335912D01*
X89901428Y-30335912D02*
X90044285Y-30264484D01*
X90044285Y-30264484D02*
X90115713Y-30121626D01*
X90115713Y-30121626D02*
X90115713Y-29550198D01*
X90115713Y-29550198D02*
X90044285Y-29407341D01*
X90044285Y-29407341D02*
X89901428Y-29335912D01*
X89901428Y-29335912D02*
X89615713Y-29335912D01*
X89615713Y-29335912D02*
X89472856Y-29407341D01*
X89472856Y-29407341D02*
X89401428Y-29550198D01*
X89401428Y-29550198D02*
X89401428Y-29693055D01*
X89401428Y-29693055D02*
X90115713Y-29835912D01*
X88901428Y-29335912D02*
X88544285Y-30335912D01*
X88544285Y-30335912D02*
X88187142Y-29335912D01*
X85687142Y-30335912D02*
X86544285Y-30335912D01*
X86115714Y-30335912D02*
X86115714Y-28835912D01*
X86115714Y-28835912D02*
X86258571Y-29050198D01*
X86258571Y-29050198D02*
X86401428Y-29193055D01*
X86401428Y-29193055D02*
X86544285Y-29264484D01*
X85044286Y-30193055D02*
X84972857Y-30264484D01*
X84972857Y-30264484D02*
X85044286Y-30335912D01*
X85044286Y-30335912D02*
X85115714Y-30264484D01*
X85115714Y-30264484D02*
X85044286Y-30193055D01*
X85044286Y-30193055D02*
X85044286Y-30335912D01*
X83687143Y-28835912D02*
X83972857Y-28835912D01*
X83972857Y-28835912D02*
X84115714Y-28907341D01*
X84115714Y-28907341D02*
X84187143Y-28978769D01*
X84187143Y-28978769D02*
X84330000Y-29193055D01*
X84330000Y-29193055D02*
X84401428Y-29478769D01*
X84401428Y-29478769D02*
X84401428Y-30050198D01*
X84401428Y-30050198D02*
X84330000Y-30193055D01*
X84330000Y-30193055D02*
X84258571Y-30264484D01*
X84258571Y-30264484D02*
X84115714Y-30335912D01*
X84115714Y-30335912D02*
X83830000Y-30335912D01*
X83830000Y-30335912D02*
X83687143Y-30264484D01*
X83687143Y-30264484D02*
X83615714Y-30193055D01*
X83615714Y-30193055D02*
X83544285Y-30050198D01*
X83544285Y-30050198D02*
X83544285Y-29693055D01*
X83544285Y-29693055D02*
X83615714Y-29550198D01*
X83615714Y-29550198D02*
X83687143Y-29478769D01*
X83687143Y-29478769D02*
X83830000Y-29407341D01*
X83830000Y-29407341D02*
X84115714Y-29407341D01*
X84115714Y-29407341D02*
X84258571Y-29478769D01*
X84258571Y-29478769D02*
X84330000Y-29550198D01*
X84330000Y-29550198D02*
X84401428Y-29693055D01*
X94722855Y-32750828D02*
X95579998Y-32750828D01*
X95151427Y-32750828D02*
X95151427Y-31250828D01*
X95151427Y-31250828D02*
X95294284Y-31465114D01*
X95294284Y-31465114D02*
X95437141Y-31607971D01*
X95437141Y-31607971D02*
X95579998Y-31679400D01*
X94151427Y-31393685D02*
X94079999Y-31322257D01*
X94079999Y-31322257D02*
X93937142Y-31250828D01*
X93937142Y-31250828D02*
X93579999Y-31250828D01*
X93579999Y-31250828D02*
X93437142Y-31322257D01*
X93437142Y-31322257D02*
X93365713Y-31393685D01*
X93365713Y-31393685D02*
X93294284Y-31536542D01*
X93294284Y-31536542D02*
X93294284Y-31679400D01*
X93294284Y-31679400D02*
X93365713Y-31893685D01*
X93365713Y-31893685D02*
X94222856Y-32750828D01*
X94222856Y-32750828D02*
X93294284Y-32750828D01*
X92651428Y-32179400D02*
X91508571Y-32179400D01*
X90794285Y-32750828D02*
X90794285Y-31250828D01*
X90794285Y-31250828D02*
X90294285Y-32322257D01*
X90294285Y-32322257D02*
X89794285Y-31250828D01*
X89794285Y-31250828D02*
X89794285Y-32750828D01*
X89151427Y-32322257D02*
X88437142Y-32322257D01*
X89294284Y-32750828D02*
X88794284Y-31250828D01*
X88794284Y-31250828D02*
X88294284Y-32750828D01*
X87508570Y-32036542D02*
X87508570Y-32750828D01*
X88008570Y-31250828D02*
X87508570Y-32036542D01*
X87508570Y-32036542D02*
X87008570Y-31250828D01*
X86508571Y-32179400D02*
X85365714Y-32179400D01*
X84722856Y-31393685D02*
X84651428Y-31322257D01*
X84651428Y-31322257D02*
X84508571Y-31250828D01*
X84508571Y-31250828D02*
X84151428Y-31250828D01*
X84151428Y-31250828D02*
X84008571Y-31322257D01*
X84008571Y-31322257D02*
X83937142Y-31393685D01*
X83937142Y-31393685D02*
X83865713Y-31536542D01*
X83865713Y-31536542D02*
X83865713Y-31679400D01*
X83865713Y-31679400D02*
X83937142Y-31893685D01*
X83937142Y-31893685D02*
X84794285Y-32750828D01*
X84794285Y-32750828D02*
X83865713Y-32750828D01*
X82937142Y-31250828D02*
X82794285Y-31250828D01*
X82794285Y-31250828D02*
X82651428Y-31322257D01*
X82651428Y-31322257D02*
X82580000Y-31393685D01*
X82580000Y-31393685D02*
X82508571Y-31536542D01*
X82508571Y-31536542D02*
X82437142Y-31822257D01*
X82437142Y-31822257D02*
X82437142Y-32179400D01*
X82437142Y-32179400D02*
X82508571Y-32465114D01*
X82508571Y-32465114D02*
X82580000Y-32607971D01*
X82580000Y-32607971D02*
X82651428Y-32679400D01*
X82651428Y-32679400D02*
X82794285Y-32750828D01*
X82794285Y-32750828D02*
X82937142Y-32750828D01*
X82937142Y-32750828D02*
X83080000Y-32679400D01*
X83080000Y-32679400D02*
X83151428Y-32607971D01*
X83151428Y-32607971D02*
X83222857Y-32465114D01*
X83222857Y-32465114D02*
X83294285Y-32179400D01*
X83294285Y-32179400D02*
X83294285Y-31822257D01*
X83294285Y-31822257D02*
X83222857Y-31536542D01*
X83222857Y-31536542D02*
X83151428Y-31393685D01*
X83151428Y-31393685D02*
X83080000Y-31322257D01*
X83080000Y-31322257D02*
X82937142Y-31250828D01*
X81865714Y-31393685D02*
X81794286Y-31322257D01*
X81794286Y-31322257D02*
X81651429Y-31250828D01*
X81651429Y-31250828D02*
X81294286Y-31250828D01*
X81294286Y-31250828D02*
X81151429Y-31322257D01*
X81151429Y-31322257D02*
X81080000Y-31393685D01*
X81080000Y-31393685D02*
X81008571Y-31536542D01*
X81008571Y-31536542D02*
X81008571Y-31679400D01*
X81008571Y-31679400D02*
X81080000Y-31893685D01*
X81080000Y-31893685D02*
X81937143Y-32750828D01*
X81937143Y-32750828D02*
X81008571Y-32750828D01*
X79722858Y-31250828D02*
X80008572Y-31250828D01*
X80008572Y-31250828D02*
X80151429Y-31322257D01*
X80151429Y-31322257D02*
X80222858Y-31393685D01*
X80222858Y-31393685D02*
X80365715Y-31607971D01*
X80365715Y-31607971D02*
X80437143Y-31893685D01*
X80437143Y-31893685D02*
X80437143Y-32465114D01*
X80437143Y-32465114D02*
X80365715Y-32607971D01*
X80365715Y-32607971D02*
X80294286Y-32679400D01*
X80294286Y-32679400D02*
X80151429Y-32750828D01*
X80151429Y-32750828D02*
X79865715Y-32750828D01*
X79865715Y-32750828D02*
X79722858Y-32679400D01*
X79722858Y-32679400D02*
X79651429Y-32607971D01*
X79651429Y-32607971D02*
X79580000Y-32465114D01*
X79580000Y-32465114D02*
X79580000Y-32107971D01*
X79580000Y-32107971D02*
X79651429Y-31965114D01*
X79651429Y-31965114D02*
X79722858Y-31893685D01*
X79722858Y-31893685D02*
X79865715Y-31822257D01*
X79865715Y-31822257D02*
X80151429Y-31822257D01*
X80151429Y-31822257D02*
X80294286Y-31893685D01*
X80294286Y-31893685D02*
X80365715Y-31965114D01*
X80365715Y-31965114D02*
X80437143Y-32107971D01*
D11*
X102183633Y-84226666D02*
X102750300Y-84226666D01*
X102750300Y-84226666D02*
X102816966Y-84260000D01*
X102816966Y-84260000D02*
X102850300Y-84293333D01*
X102850300Y-84293333D02*
X102883633Y-84360000D01*
X102883633Y-84360000D02*
X102883633Y-84493333D01*
X102883633Y-84493333D02*
X102850300Y-84560000D01*
X102850300Y-84560000D02*
X102816966Y-84593333D01*
X102816966Y-84593333D02*
X102750300Y-84626666D01*
X102750300Y-84626666D02*
X102183633Y-84626666D01*
X102250300Y-84926666D02*
X102216966Y-84959999D01*
X102216966Y-84959999D02*
X102183633Y-85026666D01*
X102183633Y-85026666D02*
X102183633Y-85193333D01*
X102183633Y-85193333D02*
X102216966Y-85259999D01*
X102216966Y-85259999D02*
X102250300Y-85293333D01*
X102250300Y-85293333D02*
X102316966Y-85326666D01*
X102316966Y-85326666D02*
X102383633Y-85326666D01*
X102383633Y-85326666D02*
X102483633Y-85293333D01*
X102483633Y-85293333D02*
X102883633Y-84893333D01*
X102883633Y-84893333D02*
X102883633Y-85326666D01*
X104403712Y-94824183D02*
X104070379Y-94590850D01*
X104403712Y-94424183D02*
X103703712Y-94424183D01*
X103703712Y-94424183D02*
X103703712Y-94690850D01*
X103703712Y-94690850D02*
X103737045Y-94757517D01*
X103737045Y-94757517D02*
X103770379Y-94790850D01*
X103770379Y-94790850D02*
X103837045Y-94824183D01*
X103837045Y-94824183D02*
X103937045Y-94824183D01*
X103937045Y-94824183D02*
X104003712Y-94790850D01*
X104003712Y-94790850D02*
X104037045Y-94757517D01*
X104037045Y-94757517D02*
X104070379Y-94690850D01*
X104070379Y-94690850D02*
X104070379Y-94424183D01*
X103703712Y-95057517D02*
X103703712Y-95490850D01*
X103703712Y-95490850D02*
X103970379Y-95257517D01*
X103970379Y-95257517D02*
X103970379Y-95357517D01*
X103970379Y-95357517D02*
X104003712Y-95424183D01*
X104003712Y-95424183D02*
X104037045Y-95457517D01*
X104037045Y-95457517D02*
X104103712Y-95490850D01*
X104103712Y-95490850D02*
X104270379Y-95490850D01*
X104270379Y-95490850D02*
X104337045Y-95457517D01*
X104337045Y-95457517D02*
X104370379Y-95424183D01*
X104370379Y-95424183D02*
X104403712Y-95357517D01*
X104403712Y-95357517D02*
X104403712Y-95157517D01*
X104403712Y-95157517D02*
X104370379Y-95090850D01*
X104370379Y-95090850D02*
X104337045Y-95057517D01*
X103703712Y-95724184D02*
X103703712Y-96157517D01*
X103703712Y-96157517D02*
X103970379Y-95924184D01*
X103970379Y-95924184D02*
X103970379Y-96024184D01*
X103970379Y-96024184D02*
X104003712Y-96090850D01*
X104003712Y-96090850D02*
X104037045Y-96124184D01*
X104037045Y-96124184D02*
X104103712Y-96157517D01*
X104103712Y-96157517D02*
X104270379Y-96157517D01*
X104270379Y-96157517D02*
X104337045Y-96124184D01*
X104337045Y-96124184D02*
X104370379Y-96090850D01*
X104370379Y-96090850D02*
X104403712Y-96024184D01*
X104403712Y-96024184D02*
X104403712Y-95824184D01*
X104403712Y-95824184D02*
X104370379Y-95757517D01*
X104370379Y-95757517D02*
X104337045Y-95724184D01*
X105750000Y-92631966D02*
X105783333Y-92665300D01*
X105783333Y-92665300D02*
X105883333Y-92698633D01*
X105883333Y-92698633D02*
X105950000Y-92698633D01*
X105950000Y-92698633D02*
X106050000Y-92665300D01*
X106050000Y-92665300D02*
X106116667Y-92598633D01*
X106116667Y-92598633D02*
X106150000Y-92531966D01*
X106150000Y-92531966D02*
X106183333Y-92398633D01*
X106183333Y-92398633D02*
X106183333Y-92298633D01*
X106183333Y-92298633D02*
X106150000Y-92165300D01*
X106150000Y-92165300D02*
X106116667Y-92098633D01*
X106116667Y-92098633D02*
X106050000Y-92031966D01*
X106050000Y-92031966D02*
X105950000Y-91998633D01*
X105950000Y-91998633D02*
X105883333Y-91998633D01*
X105883333Y-91998633D02*
X105783333Y-92031966D01*
X105783333Y-92031966D02*
X105750000Y-92065300D01*
X105083333Y-92698633D02*
X105483333Y-92698633D01*
X105283333Y-92698633D02*
X105283333Y-91998633D01*
X105283333Y-91998633D02*
X105350000Y-92098633D01*
X105350000Y-92098633D02*
X105416667Y-92165300D01*
X105416667Y-92165300D02*
X105483333Y-92198633D01*
X104483333Y-92231966D02*
X104483333Y-92698633D01*
X104650000Y-91965300D02*
X104816666Y-92465300D01*
X104816666Y-92465300D02*
X104383333Y-92465300D01*
X117855300Y-85343333D02*
X117821966Y-85276666D01*
X117821966Y-85276666D02*
X117755300Y-85210000D01*
X117755300Y-85210000D02*
X117655300Y-85110000D01*
X117655300Y-85110000D02*
X117621966Y-85043333D01*
X117621966Y-85043333D02*
X117621966Y-84976666D01*
X117788633Y-85010000D02*
X117755300Y-84943333D01*
X117755300Y-84943333D02*
X117688633Y-84876666D01*
X117688633Y-84876666D02*
X117555300Y-84843333D01*
X117555300Y-84843333D02*
X117321966Y-84843333D01*
X117321966Y-84843333D02*
X117188633Y-84876666D01*
X117188633Y-84876666D02*
X117121966Y-84943333D01*
X117121966Y-84943333D02*
X117088633Y-85010000D01*
X117088633Y-85010000D02*
X117088633Y-85143333D01*
X117088633Y-85143333D02*
X117121966Y-85210000D01*
X117121966Y-85210000D02*
X117188633Y-85276666D01*
X117188633Y-85276666D02*
X117321966Y-85310000D01*
X117321966Y-85310000D02*
X117555300Y-85310000D01*
X117555300Y-85310000D02*
X117688633Y-85276666D01*
X117688633Y-85276666D02*
X117755300Y-85210000D01*
X117755300Y-85210000D02*
X117788633Y-85143333D01*
X117788633Y-85143333D02*
X117788633Y-85010000D01*
X117788633Y-85976666D02*
X117788633Y-85576666D01*
X117788633Y-85776666D02*
X117088633Y-85776666D01*
X117088633Y-85776666D02*
X117188633Y-85709999D01*
X117188633Y-85709999D02*
X117255300Y-85643333D01*
X117255300Y-85643333D02*
X117288633Y-85576666D01*
X113660000Y-68638633D02*
X113893333Y-68305300D01*
X114060000Y-68638633D02*
X114060000Y-67938633D01*
X114060000Y-67938633D02*
X113793333Y-67938633D01*
X113793333Y-67938633D02*
X113726667Y-67971966D01*
X113726667Y-67971966D02*
X113693333Y-68005300D01*
X113693333Y-68005300D02*
X113660000Y-68071966D01*
X113660000Y-68071966D02*
X113660000Y-68171966D01*
X113660000Y-68171966D02*
X113693333Y-68238633D01*
X113693333Y-68238633D02*
X113726667Y-68271966D01*
X113726667Y-68271966D02*
X113793333Y-68305300D01*
X113793333Y-68305300D02*
X114060000Y-68305300D01*
X113426667Y-67938633D02*
X112993333Y-67938633D01*
X112993333Y-67938633D02*
X113226667Y-68205300D01*
X113226667Y-68205300D02*
X113126667Y-68205300D01*
X113126667Y-68205300D02*
X113060000Y-68238633D01*
X113060000Y-68238633D02*
X113026667Y-68271966D01*
X113026667Y-68271966D02*
X112993333Y-68338633D01*
X112993333Y-68338633D02*
X112993333Y-68505300D01*
X112993333Y-68505300D02*
X113026667Y-68571966D01*
X113026667Y-68571966D02*
X113060000Y-68605300D01*
X113060000Y-68605300D02*
X113126667Y-68638633D01*
X113126667Y-68638633D02*
X113326667Y-68638633D01*
X113326667Y-68638633D02*
X113393333Y-68605300D01*
X113393333Y-68605300D02*
X113426667Y-68571966D01*
X112393333Y-68171966D02*
X112393333Y-68638633D01*
X112560000Y-67905300D02*
X112726666Y-68405300D01*
X112726666Y-68405300D02*
X112293333Y-68405300D01*
X106951251Y-94824183D02*
X106617918Y-94590850D01*
X106951251Y-94424183D02*
X106251251Y-94424183D01*
X106251251Y-94424183D02*
X106251251Y-94690850D01*
X106251251Y-94690850D02*
X106284584Y-94757517D01*
X106284584Y-94757517D02*
X106317918Y-94790850D01*
X106317918Y-94790850D02*
X106384584Y-94824183D01*
X106384584Y-94824183D02*
X106484584Y-94824183D01*
X106484584Y-94824183D02*
X106551251Y-94790850D01*
X106551251Y-94790850D02*
X106584584Y-94757517D01*
X106584584Y-94757517D02*
X106617918Y-94690850D01*
X106617918Y-94690850D02*
X106617918Y-94424183D01*
X106251251Y-95057517D02*
X106251251Y-95490850D01*
X106251251Y-95490850D02*
X106517918Y-95257517D01*
X106517918Y-95257517D02*
X106517918Y-95357517D01*
X106517918Y-95357517D02*
X106551251Y-95424183D01*
X106551251Y-95424183D02*
X106584584Y-95457517D01*
X106584584Y-95457517D02*
X106651251Y-95490850D01*
X106651251Y-95490850D02*
X106817918Y-95490850D01*
X106817918Y-95490850D02*
X106884584Y-95457517D01*
X106884584Y-95457517D02*
X106917918Y-95424183D01*
X106917918Y-95424183D02*
X106951251Y-95357517D01*
X106951251Y-95357517D02*
X106951251Y-95157517D01*
X106951251Y-95157517D02*
X106917918Y-95090850D01*
X106917918Y-95090850D02*
X106884584Y-95057517D01*
X106317918Y-95757517D02*
X106284584Y-95790850D01*
X106284584Y-95790850D02*
X106251251Y-95857517D01*
X106251251Y-95857517D02*
X106251251Y-96024184D01*
X106251251Y-96024184D02*
X106284584Y-96090850D01*
X106284584Y-96090850D02*
X106317918Y-96124184D01*
X106317918Y-96124184D02*
X106384584Y-96157517D01*
X106384584Y-96157517D02*
X106451251Y-96157517D01*
X106451251Y-96157517D02*
X106551251Y-96124184D01*
X106551251Y-96124184D02*
X106951251Y-95724184D01*
X106951251Y-95724184D02*
X106951251Y-96157517D01*
X141508633Y-33183333D02*
X141175300Y-32950000D01*
X141508633Y-32783333D02*
X140808633Y-32783333D01*
X140808633Y-32783333D02*
X140808633Y-33050000D01*
X140808633Y-33050000D02*
X140841966Y-33116667D01*
X140841966Y-33116667D02*
X140875300Y-33150000D01*
X140875300Y-33150000D02*
X140941966Y-33183333D01*
X140941966Y-33183333D02*
X141041966Y-33183333D01*
X141041966Y-33183333D02*
X141108633Y-33150000D01*
X141108633Y-33150000D02*
X141141966Y-33116667D01*
X141141966Y-33116667D02*
X141175300Y-33050000D01*
X141175300Y-33050000D02*
X141175300Y-32783333D01*
X140808633Y-33416667D02*
X140808633Y-33883333D01*
X140808633Y-33883333D02*
X141508633Y-33583333D01*
X147373522Y-121795159D02*
X147606855Y-121461826D01*
X147773522Y-121795159D02*
X147773522Y-121095159D01*
X147773522Y-121095159D02*
X147506855Y-121095159D01*
X147506855Y-121095159D02*
X147440189Y-121128492D01*
X147440189Y-121128492D02*
X147406855Y-121161826D01*
X147406855Y-121161826D02*
X147373522Y-121228492D01*
X147373522Y-121228492D02*
X147373522Y-121328492D01*
X147373522Y-121328492D02*
X147406855Y-121395159D01*
X147406855Y-121395159D02*
X147440189Y-121428492D01*
X147440189Y-121428492D02*
X147506855Y-121461826D01*
X147506855Y-121461826D02*
X147773522Y-121461826D01*
X147140189Y-121095159D02*
X146706855Y-121095159D01*
X146706855Y-121095159D02*
X146940189Y-121361826D01*
X146940189Y-121361826D02*
X146840189Y-121361826D01*
X146840189Y-121361826D02*
X146773522Y-121395159D01*
X146773522Y-121395159D02*
X146740189Y-121428492D01*
X146740189Y-121428492D02*
X146706855Y-121495159D01*
X146706855Y-121495159D02*
X146706855Y-121661826D01*
X146706855Y-121661826D02*
X146740189Y-121728492D01*
X146740189Y-121728492D02*
X146773522Y-121761826D01*
X146773522Y-121761826D02*
X146840189Y-121795159D01*
X146840189Y-121795159D02*
X147040189Y-121795159D01*
X147040189Y-121795159D02*
X147106855Y-121761826D01*
X147106855Y-121761826D02*
X147140189Y-121728492D01*
X146373522Y-121795159D02*
X146240188Y-121795159D01*
X146240188Y-121795159D02*
X146173522Y-121761826D01*
X146173522Y-121761826D02*
X146140188Y-121728492D01*
X146140188Y-121728492D02*
X146073522Y-121628492D01*
X146073522Y-121628492D02*
X146040188Y-121495159D01*
X146040188Y-121495159D02*
X146040188Y-121228492D01*
X146040188Y-121228492D02*
X146073522Y-121161826D01*
X146073522Y-121161826D02*
X146106855Y-121128492D01*
X146106855Y-121128492D02*
X146173522Y-121095159D01*
X146173522Y-121095159D02*
X146306855Y-121095159D01*
X146306855Y-121095159D02*
X146373522Y-121128492D01*
X146373522Y-121128492D02*
X146406855Y-121161826D01*
X146406855Y-121161826D02*
X146440188Y-121228492D01*
X146440188Y-121228492D02*
X146440188Y-121395159D01*
X146440188Y-121395159D02*
X146406855Y-121461826D01*
X146406855Y-121461826D02*
X146373522Y-121495159D01*
X146373522Y-121495159D02*
X146306855Y-121528492D01*
X146306855Y-121528492D02*
X146173522Y-121528492D01*
X146173522Y-121528492D02*
X146106855Y-121495159D01*
X146106855Y-121495159D02*
X146073522Y-121461826D01*
X146073522Y-121461826D02*
X146040188Y-121395159D01*
X72050000Y-116638633D02*
X72283333Y-116305300D01*
X72450000Y-116638633D02*
X72450000Y-115938633D01*
X72450000Y-115938633D02*
X72183333Y-115938633D01*
X72183333Y-115938633D02*
X72116667Y-115971966D01*
X72116667Y-115971966D02*
X72083333Y-116005300D01*
X72083333Y-116005300D02*
X72050000Y-116071966D01*
X72050000Y-116071966D02*
X72050000Y-116171966D01*
X72050000Y-116171966D02*
X72083333Y-116238633D01*
X72083333Y-116238633D02*
X72116667Y-116271966D01*
X72116667Y-116271966D02*
X72183333Y-116305300D01*
X72183333Y-116305300D02*
X72450000Y-116305300D01*
X71450000Y-116171966D02*
X71450000Y-116638633D01*
X71616667Y-115905300D02*
X71783333Y-116405300D01*
X71783333Y-116405300D02*
X71350000Y-116405300D01*
X71116666Y-116005300D02*
X71083333Y-115971966D01*
X71083333Y-115971966D02*
X71016666Y-115938633D01*
X71016666Y-115938633D02*
X70850000Y-115938633D01*
X70850000Y-115938633D02*
X70783333Y-115971966D01*
X70783333Y-115971966D02*
X70750000Y-116005300D01*
X70750000Y-116005300D02*
X70716666Y-116071966D01*
X70716666Y-116071966D02*
X70716666Y-116138633D01*
X70716666Y-116138633D02*
X70750000Y-116238633D01*
X70750000Y-116238633D02*
X71150000Y-116638633D01*
X71150000Y-116638633D02*
X70716666Y-116638633D01*
X109260000Y-104788633D02*
X109493333Y-104455300D01*
X109660000Y-104788633D02*
X109660000Y-104088633D01*
X109660000Y-104088633D02*
X109393333Y-104088633D01*
X109393333Y-104088633D02*
X109326667Y-104121966D01*
X109326667Y-104121966D02*
X109293333Y-104155300D01*
X109293333Y-104155300D02*
X109260000Y-104221966D01*
X109260000Y-104221966D02*
X109260000Y-104321966D01*
X109260000Y-104321966D02*
X109293333Y-104388633D01*
X109293333Y-104388633D02*
X109326667Y-104421966D01*
X109326667Y-104421966D02*
X109393333Y-104455300D01*
X109393333Y-104455300D02*
X109660000Y-104455300D01*
X108993333Y-104155300D02*
X108960000Y-104121966D01*
X108960000Y-104121966D02*
X108893333Y-104088633D01*
X108893333Y-104088633D02*
X108726667Y-104088633D01*
X108726667Y-104088633D02*
X108660000Y-104121966D01*
X108660000Y-104121966D02*
X108626667Y-104155300D01*
X108626667Y-104155300D02*
X108593333Y-104221966D01*
X108593333Y-104221966D02*
X108593333Y-104288633D01*
X108593333Y-104288633D02*
X108626667Y-104388633D01*
X108626667Y-104388633D02*
X109026667Y-104788633D01*
X109026667Y-104788633D02*
X108593333Y-104788633D01*
X107926666Y-104788633D02*
X108326666Y-104788633D01*
X108126666Y-104788633D02*
X108126666Y-104088633D01*
X108126666Y-104088633D02*
X108193333Y-104188633D01*
X108193333Y-104188633D02*
X108260000Y-104255300D01*
X108260000Y-104255300D02*
X108326666Y-104288633D01*
X101856172Y-94824183D02*
X101522839Y-94590850D01*
X101856172Y-94424183D02*
X101156172Y-94424183D01*
X101156172Y-94424183D02*
X101156172Y-94690850D01*
X101156172Y-94690850D02*
X101189505Y-94757517D01*
X101189505Y-94757517D02*
X101222839Y-94790850D01*
X101222839Y-94790850D02*
X101289505Y-94824183D01*
X101289505Y-94824183D02*
X101389505Y-94824183D01*
X101389505Y-94824183D02*
X101456172Y-94790850D01*
X101456172Y-94790850D02*
X101489505Y-94757517D01*
X101489505Y-94757517D02*
X101522839Y-94690850D01*
X101522839Y-94690850D02*
X101522839Y-94424183D01*
X101156172Y-95057517D02*
X101156172Y-95490850D01*
X101156172Y-95490850D02*
X101422839Y-95257517D01*
X101422839Y-95257517D02*
X101422839Y-95357517D01*
X101422839Y-95357517D02*
X101456172Y-95424183D01*
X101456172Y-95424183D02*
X101489505Y-95457517D01*
X101489505Y-95457517D02*
X101556172Y-95490850D01*
X101556172Y-95490850D02*
X101722839Y-95490850D01*
X101722839Y-95490850D02*
X101789505Y-95457517D01*
X101789505Y-95457517D02*
X101822839Y-95424183D01*
X101822839Y-95424183D02*
X101856172Y-95357517D01*
X101856172Y-95357517D02*
X101856172Y-95157517D01*
X101856172Y-95157517D02*
X101822839Y-95090850D01*
X101822839Y-95090850D02*
X101789505Y-95057517D01*
X101856172Y-96157517D02*
X101856172Y-95757517D01*
X101856172Y-95957517D02*
X101156172Y-95957517D01*
X101156172Y-95957517D02*
X101256172Y-95890850D01*
X101256172Y-95890850D02*
X101322839Y-95824184D01*
X101322839Y-95824184D02*
X101356172Y-95757517D01*
X111828633Y-51239999D02*
X111495300Y-51006666D01*
X111828633Y-50839999D02*
X111128633Y-50839999D01*
X111128633Y-50839999D02*
X111128633Y-51106666D01*
X111128633Y-51106666D02*
X111161966Y-51173333D01*
X111161966Y-51173333D02*
X111195300Y-51206666D01*
X111195300Y-51206666D02*
X111261966Y-51239999D01*
X111261966Y-51239999D02*
X111361966Y-51239999D01*
X111361966Y-51239999D02*
X111428633Y-51206666D01*
X111428633Y-51206666D02*
X111461966Y-51173333D01*
X111461966Y-51173333D02*
X111495300Y-51106666D01*
X111495300Y-51106666D02*
X111495300Y-50839999D01*
X111195300Y-51506666D02*
X111161966Y-51539999D01*
X111161966Y-51539999D02*
X111128633Y-51606666D01*
X111128633Y-51606666D02*
X111128633Y-51773333D01*
X111128633Y-51773333D02*
X111161966Y-51839999D01*
X111161966Y-51839999D02*
X111195300Y-51873333D01*
X111195300Y-51873333D02*
X111261966Y-51906666D01*
X111261966Y-51906666D02*
X111328633Y-51906666D01*
X111328633Y-51906666D02*
X111428633Y-51873333D01*
X111428633Y-51873333D02*
X111828633Y-51473333D01*
X111828633Y-51473333D02*
X111828633Y-51906666D01*
X111128633Y-52140000D02*
X111128633Y-52606666D01*
X111128633Y-52606666D02*
X111828633Y-52306666D01*
X91490000Y-119668633D02*
X91723333Y-119335300D01*
X91890000Y-119668633D02*
X91890000Y-118968633D01*
X91890000Y-118968633D02*
X91623333Y-118968633D01*
X91623333Y-118968633D02*
X91556667Y-119001966D01*
X91556667Y-119001966D02*
X91523333Y-119035300D01*
X91523333Y-119035300D02*
X91490000Y-119101966D01*
X91490000Y-119101966D02*
X91490000Y-119201966D01*
X91490000Y-119201966D02*
X91523333Y-119268633D01*
X91523333Y-119268633D02*
X91556667Y-119301966D01*
X91556667Y-119301966D02*
X91623333Y-119335300D01*
X91623333Y-119335300D02*
X91890000Y-119335300D01*
X90890000Y-119201966D02*
X90890000Y-119668633D01*
X91056667Y-118935300D02*
X91223333Y-119435300D01*
X91223333Y-119435300D02*
X90790000Y-119435300D01*
X90590000Y-118968633D02*
X90156666Y-118968633D01*
X90156666Y-118968633D02*
X90390000Y-119235300D01*
X90390000Y-119235300D02*
X90290000Y-119235300D01*
X90290000Y-119235300D02*
X90223333Y-119268633D01*
X90223333Y-119268633D02*
X90190000Y-119301966D01*
X90190000Y-119301966D02*
X90156666Y-119368633D01*
X90156666Y-119368633D02*
X90156666Y-119535300D01*
X90156666Y-119535300D02*
X90190000Y-119601966D01*
X90190000Y-119601966D02*
X90223333Y-119635300D01*
X90223333Y-119635300D02*
X90290000Y-119668633D01*
X90290000Y-119668633D02*
X90490000Y-119668633D01*
X90490000Y-119668633D02*
X90556666Y-119635300D01*
X90556666Y-119635300D02*
X90590000Y-119601966D01*
X114028633Y-82729999D02*
X113695300Y-82496666D01*
X114028633Y-82329999D02*
X113328633Y-82329999D01*
X113328633Y-82329999D02*
X113328633Y-82596666D01*
X113328633Y-82596666D02*
X113361966Y-82663333D01*
X113361966Y-82663333D02*
X113395300Y-82696666D01*
X113395300Y-82696666D02*
X113461966Y-82729999D01*
X113461966Y-82729999D02*
X113561966Y-82729999D01*
X113561966Y-82729999D02*
X113628633Y-82696666D01*
X113628633Y-82696666D02*
X113661966Y-82663333D01*
X113661966Y-82663333D02*
X113695300Y-82596666D01*
X113695300Y-82596666D02*
X113695300Y-82329999D01*
X113395300Y-82996666D02*
X113361966Y-83029999D01*
X113361966Y-83029999D02*
X113328633Y-83096666D01*
X113328633Y-83096666D02*
X113328633Y-83263333D01*
X113328633Y-83263333D02*
X113361966Y-83329999D01*
X113361966Y-83329999D02*
X113395300Y-83363333D01*
X113395300Y-83363333D02*
X113461966Y-83396666D01*
X113461966Y-83396666D02*
X113528633Y-83396666D01*
X113528633Y-83396666D02*
X113628633Y-83363333D01*
X113628633Y-83363333D02*
X114028633Y-82963333D01*
X114028633Y-82963333D02*
X114028633Y-83396666D01*
X113628633Y-83796666D02*
X113595300Y-83730000D01*
X113595300Y-83730000D02*
X113561966Y-83696666D01*
X113561966Y-83696666D02*
X113495300Y-83663333D01*
X113495300Y-83663333D02*
X113461966Y-83663333D01*
X113461966Y-83663333D02*
X113395300Y-83696666D01*
X113395300Y-83696666D02*
X113361966Y-83730000D01*
X113361966Y-83730000D02*
X113328633Y-83796666D01*
X113328633Y-83796666D02*
X113328633Y-83930000D01*
X113328633Y-83930000D02*
X113361966Y-83996666D01*
X113361966Y-83996666D02*
X113395300Y-84030000D01*
X113395300Y-84030000D02*
X113461966Y-84063333D01*
X113461966Y-84063333D02*
X113495300Y-84063333D01*
X113495300Y-84063333D02*
X113561966Y-84030000D01*
X113561966Y-84030000D02*
X113595300Y-83996666D01*
X113595300Y-83996666D02*
X113628633Y-83930000D01*
X113628633Y-83930000D02*
X113628633Y-83796666D01*
X113628633Y-83796666D02*
X113661966Y-83730000D01*
X113661966Y-83730000D02*
X113695300Y-83696666D01*
X113695300Y-83696666D02*
X113761966Y-83663333D01*
X113761966Y-83663333D02*
X113895300Y-83663333D01*
X113895300Y-83663333D02*
X113961966Y-83696666D01*
X113961966Y-83696666D02*
X113995300Y-83730000D01*
X113995300Y-83730000D02*
X114028633Y-83796666D01*
X114028633Y-83796666D02*
X114028633Y-83930000D01*
X114028633Y-83930000D02*
X113995300Y-83996666D01*
X113995300Y-83996666D02*
X113961966Y-84030000D01*
X113961966Y-84030000D02*
X113895300Y-84063333D01*
X113895300Y-84063333D02*
X113761966Y-84063333D01*
X113761966Y-84063333D02*
X113695300Y-84030000D01*
X113695300Y-84030000D02*
X113661966Y-83996666D01*
X113661966Y-83996666D02*
X113628633Y-83930000D01*
X88115838Y-63203267D02*
X88149172Y-63169934D01*
X88149172Y-63169934D02*
X88182505Y-63069934D01*
X88182505Y-63069934D02*
X88182505Y-63003267D01*
X88182505Y-63003267D02*
X88149172Y-62903267D01*
X88149172Y-62903267D02*
X88082505Y-62836601D01*
X88082505Y-62836601D02*
X88015838Y-62803267D01*
X88015838Y-62803267D02*
X87882505Y-62769934D01*
X87882505Y-62769934D02*
X87782505Y-62769934D01*
X87782505Y-62769934D02*
X87649172Y-62803267D01*
X87649172Y-62803267D02*
X87582505Y-62836601D01*
X87582505Y-62836601D02*
X87515838Y-62903267D01*
X87515838Y-62903267D02*
X87482505Y-63003267D01*
X87482505Y-63003267D02*
X87482505Y-63069934D01*
X87482505Y-63069934D02*
X87515838Y-63169934D01*
X87515838Y-63169934D02*
X87549172Y-63203267D01*
X87482505Y-63836601D02*
X87482505Y-63503267D01*
X87482505Y-63503267D02*
X87815838Y-63469934D01*
X87815838Y-63469934D02*
X87782505Y-63503267D01*
X87782505Y-63503267D02*
X87749172Y-63569934D01*
X87749172Y-63569934D02*
X87749172Y-63736601D01*
X87749172Y-63736601D02*
X87782505Y-63803267D01*
X87782505Y-63803267D02*
X87815838Y-63836601D01*
X87815838Y-63836601D02*
X87882505Y-63869934D01*
X87882505Y-63869934D02*
X88049172Y-63869934D01*
X88049172Y-63869934D02*
X88115838Y-63836601D01*
X88115838Y-63836601D02*
X88149172Y-63803267D01*
X88149172Y-63803267D02*
X88182505Y-63736601D01*
X88182505Y-63736601D02*
X88182505Y-63569934D01*
X88182505Y-63569934D02*
X88149172Y-63503267D01*
X88149172Y-63503267D02*
X88115838Y-63469934D01*
X88161055Y-41677354D02*
X88194389Y-41644021D01*
X88194389Y-41644021D02*
X88227722Y-41544021D01*
X88227722Y-41544021D02*
X88227722Y-41477354D01*
X88227722Y-41477354D02*
X88194389Y-41377354D01*
X88194389Y-41377354D02*
X88127722Y-41310688D01*
X88127722Y-41310688D02*
X88061055Y-41277354D01*
X88061055Y-41277354D02*
X87927722Y-41244021D01*
X87927722Y-41244021D02*
X87827722Y-41244021D01*
X87827722Y-41244021D02*
X87694389Y-41277354D01*
X87694389Y-41277354D02*
X87627722Y-41310688D01*
X87627722Y-41310688D02*
X87561055Y-41377354D01*
X87561055Y-41377354D02*
X87527722Y-41477354D01*
X87527722Y-41477354D02*
X87527722Y-41544021D01*
X87527722Y-41544021D02*
X87561055Y-41644021D01*
X87561055Y-41644021D02*
X87594389Y-41677354D01*
X88227722Y-42344021D02*
X88227722Y-41944021D01*
X88227722Y-42144021D02*
X87527722Y-42144021D01*
X87527722Y-42144021D02*
X87627722Y-42077354D01*
X87627722Y-42077354D02*
X87694389Y-42010688D01*
X87694389Y-42010688D02*
X87727722Y-41944021D01*
X87527722Y-42777355D02*
X87527722Y-42844021D01*
X87527722Y-42844021D02*
X87561055Y-42910688D01*
X87561055Y-42910688D02*
X87594389Y-42944021D01*
X87594389Y-42944021D02*
X87661055Y-42977355D01*
X87661055Y-42977355D02*
X87794389Y-43010688D01*
X87794389Y-43010688D02*
X87961055Y-43010688D01*
X87961055Y-43010688D02*
X88094389Y-42977355D01*
X88094389Y-42977355D02*
X88161055Y-42944021D01*
X88161055Y-42944021D02*
X88194389Y-42910688D01*
X88194389Y-42910688D02*
X88227722Y-42844021D01*
X88227722Y-42844021D02*
X88227722Y-42777355D01*
X88227722Y-42777355D02*
X88194389Y-42710688D01*
X88194389Y-42710688D02*
X88161055Y-42677355D01*
X88161055Y-42677355D02*
X88094389Y-42644021D01*
X88094389Y-42644021D02*
X87961055Y-42610688D01*
X87961055Y-42610688D02*
X87794389Y-42610688D01*
X87794389Y-42610688D02*
X87661055Y-42644021D01*
X87661055Y-42644021D02*
X87594389Y-42677355D01*
X87594389Y-42677355D02*
X87561055Y-42710688D01*
X87561055Y-42710688D02*
X87527722Y-42777355D01*
X99308633Y-94824183D02*
X98975300Y-94590850D01*
X99308633Y-94424183D02*
X98608633Y-94424183D01*
X98608633Y-94424183D02*
X98608633Y-94690850D01*
X98608633Y-94690850D02*
X98641966Y-94757517D01*
X98641966Y-94757517D02*
X98675300Y-94790850D01*
X98675300Y-94790850D02*
X98741966Y-94824183D01*
X98741966Y-94824183D02*
X98841966Y-94824183D01*
X98841966Y-94824183D02*
X98908633Y-94790850D01*
X98908633Y-94790850D02*
X98941966Y-94757517D01*
X98941966Y-94757517D02*
X98975300Y-94690850D01*
X98975300Y-94690850D02*
X98975300Y-94424183D01*
X98608633Y-95057517D02*
X98608633Y-95490850D01*
X98608633Y-95490850D02*
X98875300Y-95257517D01*
X98875300Y-95257517D02*
X98875300Y-95357517D01*
X98875300Y-95357517D02*
X98908633Y-95424183D01*
X98908633Y-95424183D02*
X98941966Y-95457517D01*
X98941966Y-95457517D02*
X99008633Y-95490850D01*
X99008633Y-95490850D02*
X99175300Y-95490850D01*
X99175300Y-95490850D02*
X99241966Y-95457517D01*
X99241966Y-95457517D02*
X99275300Y-95424183D01*
X99275300Y-95424183D02*
X99308633Y-95357517D01*
X99308633Y-95357517D02*
X99308633Y-95157517D01*
X99308633Y-95157517D02*
X99275300Y-95090850D01*
X99275300Y-95090850D02*
X99241966Y-95057517D01*
X98608633Y-95924184D02*
X98608633Y-95990850D01*
X98608633Y-95990850D02*
X98641966Y-96057517D01*
X98641966Y-96057517D02*
X98675300Y-96090850D01*
X98675300Y-96090850D02*
X98741966Y-96124184D01*
X98741966Y-96124184D02*
X98875300Y-96157517D01*
X98875300Y-96157517D02*
X99041966Y-96157517D01*
X99041966Y-96157517D02*
X99175300Y-96124184D01*
X99175300Y-96124184D02*
X99241966Y-96090850D01*
X99241966Y-96090850D02*
X99275300Y-96057517D01*
X99275300Y-96057517D02*
X99308633Y-95990850D01*
X99308633Y-95990850D02*
X99308633Y-95924184D01*
X99308633Y-95924184D02*
X99275300Y-95857517D01*
X99275300Y-95857517D02*
X99241966Y-95824184D01*
X99241966Y-95824184D02*
X99175300Y-95790850D01*
X99175300Y-95790850D02*
X99041966Y-95757517D01*
X99041966Y-95757517D02*
X98875300Y-95757517D01*
X98875300Y-95757517D02*
X98741966Y-95790850D01*
X98741966Y-95790850D02*
X98675300Y-95824184D01*
X98675300Y-95824184D02*
X98641966Y-95857517D01*
X98641966Y-95857517D02*
X98608633Y-95924184D01*
X114338633Y-50619999D02*
X114005300Y-50386666D01*
X114338633Y-50219999D02*
X113638633Y-50219999D01*
X113638633Y-50219999D02*
X113638633Y-50486666D01*
X113638633Y-50486666D02*
X113671966Y-50553333D01*
X113671966Y-50553333D02*
X113705300Y-50586666D01*
X113705300Y-50586666D02*
X113771966Y-50619999D01*
X113771966Y-50619999D02*
X113871966Y-50619999D01*
X113871966Y-50619999D02*
X113938633Y-50586666D01*
X113938633Y-50586666D02*
X113971966Y-50553333D01*
X113971966Y-50553333D02*
X114005300Y-50486666D01*
X114005300Y-50486666D02*
X114005300Y-50219999D01*
X114338633Y-51286666D02*
X114338633Y-50886666D01*
X114338633Y-51086666D02*
X113638633Y-51086666D01*
X113638633Y-51086666D02*
X113738633Y-51019999D01*
X113738633Y-51019999D02*
X113805300Y-50953333D01*
X113805300Y-50953333D02*
X113838633Y-50886666D01*
X113638633Y-51920000D02*
X113638633Y-51586666D01*
X113638633Y-51586666D02*
X113971966Y-51553333D01*
X113971966Y-51553333D02*
X113938633Y-51586666D01*
X113938633Y-51586666D02*
X113905300Y-51653333D01*
X113905300Y-51653333D02*
X113905300Y-51820000D01*
X113905300Y-51820000D02*
X113938633Y-51886666D01*
X113938633Y-51886666D02*
X113971966Y-51920000D01*
X113971966Y-51920000D02*
X114038633Y-51953333D01*
X114038633Y-51953333D02*
X114205300Y-51953333D01*
X114205300Y-51953333D02*
X114271966Y-51920000D01*
X114271966Y-51920000D02*
X114305300Y-51886666D01*
X114305300Y-51886666D02*
X114338633Y-51820000D01*
X114338633Y-51820000D02*
X114338633Y-51653333D01*
X114338633Y-51653333D02*
X114305300Y-51586666D01*
X114305300Y-51586666D02*
X114271966Y-51553333D01*
X109588633Y-51239999D02*
X109255300Y-51006666D01*
X109588633Y-50839999D02*
X108888633Y-50839999D01*
X108888633Y-50839999D02*
X108888633Y-51106666D01*
X108888633Y-51106666D02*
X108921966Y-51173333D01*
X108921966Y-51173333D02*
X108955300Y-51206666D01*
X108955300Y-51206666D02*
X109021966Y-51239999D01*
X109021966Y-51239999D02*
X109121966Y-51239999D01*
X109121966Y-51239999D02*
X109188633Y-51206666D01*
X109188633Y-51206666D02*
X109221966Y-51173333D01*
X109221966Y-51173333D02*
X109255300Y-51106666D01*
X109255300Y-51106666D02*
X109255300Y-50839999D01*
X108955300Y-51506666D02*
X108921966Y-51539999D01*
X108921966Y-51539999D02*
X108888633Y-51606666D01*
X108888633Y-51606666D02*
X108888633Y-51773333D01*
X108888633Y-51773333D02*
X108921966Y-51839999D01*
X108921966Y-51839999D02*
X108955300Y-51873333D01*
X108955300Y-51873333D02*
X109021966Y-51906666D01*
X109021966Y-51906666D02*
X109088633Y-51906666D01*
X109088633Y-51906666D02*
X109188633Y-51873333D01*
X109188633Y-51873333D02*
X109588633Y-51473333D01*
X109588633Y-51473333D02*
X109588633Y-51906666D01*
X108888633Y-52540000D02*
X108888633Y-52206666D01*
X108888633Y-52206666D02*
X109221966Y-52173333D01*
X109221966Y-52173333D02*
X109188633Y-52206666D01*
X109188633Y-52206666D02*
X109155300Y-52273333D01*
X109155300Y-52273333D02*
X109155300Y-52440000D01*
X109155300Y-52440000D02*
X109188633Y-52506666D01*
X109188633Y-52506666D02*
X109221966Y-52540000D01*
X109221966Y-52540000D02*
X109288633Y-52573333D01*
X109288633Y-52573333D02*
X109455300Y-52573333D01*
X109455300Y-52573333D02*
X109521966Y-52540000D01*
X109521966Y-52540000D02*
X109555300Y-52506666D01*
X109555300Y-52506666D02*
X109588633Y-52440000D01*
X109588633Y-52440000D02*
X109588633Y-52273333D01*
X109588633Y-52273333D02*
X109555300Y-52206666D01*
X109555300Y-52206666D02*
X109521966Y-52173333D01*
X131750000Y-110851966D02*
X131783333Y-110885300D01*
X131783333Y-110885300D02*
X131883333Y-110918633D01*
X131883333Y-110918633D02*
X131950000Y-110918633D01*
X131950000Y-110918633D02*
X132050000Y-110885300D01*
X132050000Y-110885300D02*
X132116667Y-110818633D01*
X132116667Y-110818633D02*
X132150000Y-110751966D01*
X132150000Y-110751966D02*
X132183333Y-110618633D01*
X132183333Y-110618633D02*
X132183333Y-110518633D01*
X132183333Y-110518633D02*
X132150000Y-110385300D01*
X132150000Y-110385300D02*
X132116667Y-110318633D01*
X132116667Y-110318633D02*
X132050000Y-110251966D01*
X132050000Y-110251966D02*
X131950000Y-110218633D01*
X131950000Y-110218633D02*
X131883333Y-110218633D01*
X131883333Y-110218633D02*
X131783333Y-110251966D01*
X131783333Y-110251966D02*
X131750000Y-110285300D01*
X131483333Y-110285300D02*
X131450000Y-110251966D01*
X131450000Y-110251966D02*
X131383333Y-110218633D01*
X131383333Y-110218633D02*
X131216667Y-110218633D01*
X131216667Y-110218633D02*
X131150000Y-110251966D01*
X131150000Y-110251966D02*
X131116667Y-110285300D01*
X131116667Y-110285300D02*
X131083333Y-110351966D01*
X131083333Y-110351966D02*
X131083333Y-110418633D01*
X131083333Y-110418633D02*
X131116667Y-110518633D01*
X131116667Y-110518633D02*
X131516667Y-110918633D01*
X131516667Y-110918633D02*
X131083333Y-110918633D01*
X130416666Y-110918633D02*
X130816666Y-110918633D01*
X130616666Y-110918633D02*
X130616666Y-110218633D01*
X130616666Y-110218633D02*
X130683333Y-110318633D01*
X130683333Y-110318633D02*
X130750000Y-110385300D01*
X130750000Y-110385300D02*
X130816666Y-110418633D01*
X90880000Y-103918633D02*
X91113333Y-103585300D01*
X91280000Y-103918633D02*
X91280000Y-103218633D01*
X91280000Y-103218633D02*
X91013333Y-103218633D01*
X91013333Y-103218633D02*
X90946667Y-103251966D01*
X90946667Y-103251966D02*
X90913333Y-103285300D01*
X90913333Y-103285300D02*
X90880000Y-103351966D01*
X90880000Y-103351966D02*
X90880000Y-103451966D01*
X90880000Y-103451966D02*
X90913333Y-103518633D01*
X90913333Y-103518633D02*
X90946667Y-103551966D01*
X90946667Y-103551966D02*
X91013333Y-103585300D01*
X91013333Y-103585300D02*
X91280000Y-103585300D01*
X90646667Y-103218633D02*
X90213333Y-103218633D01*
X90213333Y-103218633D02*
X90446667Y-103485300D01*
X90446667Y-103485300D02*
X90346667Y-103485300D01*
X90346667Y-103485300D02*
X90280000Y-103518633D01*
X90280000Y-103518633D02*
X90246667Y-103551966D01*
X90246667Y-103551966D02*
X90213333Y-103618633D01*
X90213333Y-103618633D02*
X90213333Y-103785300D01*
X90213333Y-103785300D02*
X90246667Y-103851966D01*
X90246667Y-103851966D02*
X90280000Y-103885300D01*
X90280000Y-103885300D02*
X90346667Y-103918633D01*
X90346667Y-103918633D02*
X90546667Y-103918633D01*
X90546667Y-103918633D02*
X90613333Y-103885300D01*
X90613333Y-103885300D02*
X90646667Y-103851966D01*
X89613333Y-103218633D02*
X89746666Y-103218633D01*
X89746666Y-103218633D02*
X89813333Y-103251966D01*
X89813333Y-103251966D02*
X89846666Y-103285300D01*
X89846666Y-103285300D02*
X89913333Y-103385300D01*
X89913333Y-103385300D02*
X89946666Y-103518633D01*
X89946666Y-103518633D02*
X89946666Y-103785300D01*
X89946666Y-103785300D02*
X89913333Y-103851966D01*
X89913333Y-103851966D02*
X89880000Y-103885300D01*
X89880000Y-103885300D02*
X89813333Y-103918633D01*
X89813333Y-103918633D02*
X89680000Y-103918633D01*
X89680000Y-103918633D02*
X89613333Y-103885300D01*
X89613333Y-103885300D02*
X89580000Y-103851966D01*
X89580000Y-103851966D02*
X89546666Y-103785300D01*
X89546666Y-103785300D02*
X89546666Y-103618633D01*
X89546666Y-103618633D02*
X89580000Y-103551966D01*
X89580000Y-103551966D02*
X89613333Y-103518633D01*
X89613333Y-103518633D02*
X89680000Y-103485300D01*
X89680000Y-103485300D02*
X89813333Y-103485300D01*
X89813333Y-103485300D02*
X89880000Y-103518633D01*
X89880000Y-103518633D02*
X89913333Y-103551966D01*
X89913333Y-103551966D02*
X89946666Y-103618633D01*
X149370000Y-112691966D02*
X149403333Y-112725300D01*
X149403333Y-112725300D02*
X149503333Y-112758633D01*
X149503333Y-112758633D02*
X149570000Y-112758633D01*
X149570000Y-112758633D02*
X149670000Y-112725300D01*
X149670000Y-112725300D02*
X149736667Y-112658633D01*
X149736667Y-112658633D02*
X149770000Y-112591966D01*
X149770000Y-112591966D02*
X149803333Y-112458633D01*
X149803333Y-112458633D02*
X149803333Y-112358633D01*
X149803333Y-112358633D02*
X149770000Y-112225300D01*
X149770000Y-112225300D02*
X149736667Y-112158633D01*
X149736667Y-112158633D02*
X149670000Y-112091966D01*
X149670000Y-112091966D02*
X149570000Y-112058633D01*
X149570000Y-112058633D02*
X149503333Y-112058633D01*
X149503333Y-112058633D02*
X149403333Y-112091966D01*
X149403333Y-112091966D02*
X149370000Y-112125300D01*
X149103333Y-112125300D02*
X149070000Y-112091966D01*
X149070000Y-112091966D02*
X149003333Y-112058633D01*
X149003333Y-112058633D02*
X148836667Y-112058633D01*
X148836667Y-112058633D02*
X148770000Y-112091966D01*
X148770000Y-112091966D02*
X148736667Y-112125300D01*
X148736667Y-112125300D02*
X148703333Y-112191966D01*
X148703333Y-112191966D02*
X148703333Y-112258633D01*
X148703333Y-112258633D02*
X148736667Y-112358633D01*
X148736667Y-112358633D02*
X149136667Y-112758633D01*
X149136667Y-112758633D02*
X148703333Y-112758633D01*
X148270000Y-112058633D02*
X148203333Y-112058633D01*
X148203333Y-112058633D02*
X148136666Y-112091966D01*
X148136666Y-112091966D02*
X148103333Y-112125300D01*
X148103333Y-112125300D02*
X148070000Y-112191966D01*
X148070000Y-112191966D02*
X148036666Y-112325300D01*
X148036666Y-112325300D02*
X148036666Y-112491966D01*
X148036666Y-112491966D02*
X148070000Y-112625300D01*
X148070000Y-112625300D02*
X148103333Y-112691966D01*
X148103333Y-112691966D02*
X148136666Y-112725300D01*
X148136666Y-112725300D02*
X148203333Y-112758633D01*
X148203333Y-112758633D02*
X148270000Y-112758633D01*
X148270000Y-112758633D02*
X148336666Y-112725300D01*
X148336666Y-112725300D02*
X148370000Y-112691966D01*
X148370000Y-112691966D02*
X148403333Y-112625300D01*
X148403333Y-112625300D02*
X148436666Y-112491966D01*
X148436666Y-112491966D02*
X148436666Y-112325300D01*
X148436666Y-112325300D02*
X148403333Y-112191966D01*
X148403333Y-112191966D02*
X148370000Y-112125300D01*
X148370000Y-112125300D02*
X148336666Y-112091966D01*
X148336666Y-112091966D02*
X148270000Y-112058633D01*
X119138633Y-114729999D02*
X118438633Y-114729999D01*
X118438633Y-114729999D02*
X118438633Y-114896666D01*
X118438633Y-114896666D02*
X118471966Y-114996666D01*
X118471966Y-114996666D02*
X118538633Y-115063333D01*
X118538633Y-115063333D02*
X118605300Y-115096666D01*
X118605300Y-115096666D02*
X118738633Y-115129999D01*
X118738633Y-115129999D02*
X118838633Y-115129999D01*
X118838633Y-115129999D02*
X118971966Y-115096666D01*
X118971966Y-115096666D02*
X119038633Y-115063333D01*
X119038633Y-115063333D02*
X119105300Y-114996666D01*
X119105300Y-114996666D02*
X119138633Y-114896666D01*
X119138633Y-114896666D02*
X119138633Y-114729999D01*
X119138633Y-115796666D02*
X119138633Y-115396666D01*
X119138633Y-115596666D02*
X118438633Y-115596666D01*
X118438633Y-115596666D02*
X118538633Y-115529999D01*
X118538633Y-115529999D02*
X118605300Y-115463333D01*
X118605300Y-115463333D02*
X118638633Y-115396666D01*
X118438633Y-116030000D02*
X118438633Y-116496666D01*
X118438633Y-116496666D02*
X119138633Y-116196666D01*
X119908633Y-77879999D02*
X119575300Y-77646666D01*
X119908633Y-77479999D02*
X119208633Y-77479999D01*
X119208633Y-77479999D02*
X119208633Y-77746666D01*
X119208633Y-77746666D02*
X119241966Y-77813333D01*
X119241966Y-77813333D02*
X119275300Y-77846666D01*
X119275300Y-77846666D02*
X119341966Y-77879999D01*
X119341966Y-77879999D02*
X119441966Y-77879999D01*
X119441966Y-77879999D02*
X119508633Y-77846666D01*
X119508633Y-77846666D02*
X119541966Y-77813333D01*
X119541966Y-77813333D02*
X119575300Y-77746666D01*
X119575300Y-77746666D02*
X119575300Y-77479999D01*
X119275300Y-78146666D02*
X119241966Y-78179999D01*
X119241966Y-78179999D02*
X119208633Y-78246666D01*
X119208633Y-78246666D02*
X119208633Y-78413333D01*
X119208633Y-78413333D02*
X119241966Y-78479999D01*
X119241966Y-78479999D02*
X119275300Y-78513333D01*
X119275300Y-78513333D02*
X119341966Y-78546666D01*
X119341966Y-78546666D02*
X119408633Y-78546666D01*
X119408633Y-78546666D02*
X119508633Y-78513333D01*
X119508633Y-78513333D02*
X119908633Y-78113333D01*
X119908633Y-78113333D02*
X119908633Y-78546666D01*
X119208633Y-78780000D02*
X119208633Y-79213333D01*
X119208633Y-79213333D02*
X119475300Y-78980000D01*
X119475300Y-78980000D02*
X119475300Y-79080000D01*
X119475300Y-79080000D02*
X119508633Y-79146666D01*
X119508633Y-79146666D02*
X119541966Y-79180000D01*
X119541966Y-79180000D02*
X119608633Y-79213333D01*
X119608633Y-79213333D02*
X119775300Y-79213333D01*
X119775300Y-79213333D02*
X119841966Y-79180000D01*
X119841966Y-79180000D02*
X119875300Y-79146666D01*
X119875300Y-79146666D02*
X119908633Y-79080000D01*
X119908633Y-79080000D02*
X119908633Y-78880000D01*
X119908633Y-78880000D02*
X119875300Y-78813333D01*
X119875300Y-78813333D02*
X119841966Y-78780000D01*
X90346376Y-63203267D02*
X90013043Y-62969934D01*
X90346376Y-62803267D02*
X89646376Y-62803267D01*
X89646376Y-62803267D02*
X89646376Y-63069934D01*
X89646376Y-63069934D02*
X89679709Y-63136601D01*
X89679709Y-63136601D02*
X89713043Y-63169934D01*
X89713043Y-63169934D02*
X89779709Y-63203267D01*
X89779709Y-63203267D02*
X89879709Y-63203267D01*
X89879709Y-63203267D02*
X89946376Y-63169934D01*
X89946376Y-63169934D02*
X89979709Y-63136601D01*
X89979709Y-63136601D02*
X90013043Y-63069934D01*
X90013043Y-63069934D02*
X90013043Y-62803267D01*
X90346376Y-63536601D02*
X90346376Y-63669934D01*
X90346376Y-63669934D02*
X90313043Y-63736601D01*
X90313043Y-63736601D02*
X90279709Y-63769934D01*
X90279709Y-63769934D02*
X90179709Y-63836601D01*
X90179709Y-63836601D02*
X90046376Y-63869934D01*
X90046376Y-63869934D02*
X89779709Y-63869934D01*
X89779709Y-63869934D02*
X89713043Y-63836601D01*
X89713043Y-63836601D02*
X89679709Y-63803267D01*
X89679709Y-63803267D02*
X89646376Y-63736601D01*
X89646376Y-63736601D02*
X89646376Y-63603267D01*
X89646376Y-63603267D02*
X89679709Y-63536601D01*
X89679709Y-63536601D02*
X89713043Y-63503267D01*
X89713043Y-63503267D02*
X89779709Y-63469934D01*
X89779709Y-63469934D02*
X89946376Y-63469934D01*
X89946376Y-63469934D02*
X90013043Y-63503267D01*
X90013043Y-63503267D02*
X90046376Y-63536601D01*
X90046376Y-63536601D02*
X90079709Y-63603267D01*
X90079709Y-63603267D02*
X90079709Y-63736601D01*
X90079709Y-63736601D02*
X90046376Y-63803267D01*
X90046376Y-63803267D02*
X90013043Y-63836601D01*
X90013043Y-63836601D02*
X89946376Y-63869934D01*
X85951966Y-63203267D02*
X85985300Y-63169934D01*
X85985300Y-63169934D02*
X86018633Y-63069934D01*
X86018633Y-63069934D02*
X86018633Y-63003267D01*
X86018633Y-63003267D02*
X85985300Y-62903267D01*
X85985300Y-62903267D02*
X85918633Y-62836601D01*
X85918633Y-62836601D02*
X85851966Y-62803267D01*
X85851966Y-62803267D02*
X85718633Y-62769934D01*
X85718633Y-62769934D02*
X85618633Y-62769934D01*
X85618633Y-62769934D02*
X85485300Y-62803267D01*
X85485300Y-62803267D02*
X85418633Y-62836601D01*
X85418633Y-62836601D02*
X85351966Y-62903267D01*
X85351966Y-62903267D02*
X85318633Y-63003267D01*
X85318633Y-63003267D02*
X85318633Y-63069934D01*
X85318633Y-63069934D02*
X85351966Y-63169934D01*
X85351966Y-63169934D02*
X85385300Y-63203267D01*
X85551966Y-63803267D02*
X86018633Y-63803267D01*
X85285300Y-63636601D02*
X85785300Y-63469934D01*
X85785300Y-63469934D02*
X85785300Y-63903267D01*
X109170000Y-107658633D02*
X109403333Y-107325300D01*
X109570000Y-107658633D02*
X109570000Y-106958633D01*
X109570000Y-106958633D02*
X109303333Y-106958633D01*
X109303333Y-106958633D02*
X109236667Y-106991966D01*
X109236667Y-106991966D02*
X109203333Y-107025300D01*
X109203333Y-107025300D02*
X109170000Y-107091966D01*
X109170000Y-107091966D02*
X109170000Y-107191966D01*
X109170000Y-107191966D02*
X109203333Y-107258633D01*
X109203333Y-107258633D02*
X109236667Y-107291966D01*
X109236667Y-107291966D02*
X109303333Y-107325300D01*
X109303333Y-107325300D02*
X109570000Y-107325300D01*
X108903333Y-107025300D02*
X108870000Y-106991966D01*
X108870000Y-106991966D02*
X108803333Y-106958633D01*
X108803333Y-106958633D02*
X108636667Y-106958633D01*
X108636667Y-106958633D02*
X108570000Y-106991966D01*
X108570000Y-106991966D02*
X108536667Y-107025300D01*
X108536667Y-107025300D02*
X108503333Y-107091966D01*
X108503333Y-107091966D02*
X108503333Y-107158633D01*
X108503333Y-107158633D02*
X108536667Y-107258633D01*
X108536667Y-107258633D02*
X108936667Y-107658633D01*
X108936667Y-107658633D02*
X108503333Y-107658633D01*
X108070000Y-106958633D02*
X108003333Y-106958633D01*
X108003333Y-106958633D02*
X107936666Y-106991966D01*
X107936666Y-106991966D02*
X107903333Y-107025300D01*
X107903333Y-107025300D02*
X107870000Y-107091966D01*
X107870000Y-107091966D02*
X107836666Y-107225300D01*
X107836666Y-107225300D02*
X107836666Y-107391966D01*
X107836666Y-107391966D02*
X107870000Y-107525300D01*
X107870000Y-107525300D02*
X107903333Y-107591966D01*
X107903333Y-107591966D02*
X107936666Y-107625300D01*
X107936666Y-107625300D02*
X108003333Y-107658633D01*
X108003333Y-107658633D02*
X108070000Y-107658633D01*
X108070000Y-107658633D02*
X108136666Y-107625300D01*
X108136666Y-107625300D02*
X108170000Y-107591966D01*
X108170000Y-107591966D02*
X108203333Y-107525300D01*
X108203333Y-107525300D02*
X108236666Y-107391966D01*
X108236666Y-107391966D02*
X108236666Y-107225300D01*
X108236666Y-107225300D02*
X108203333Y-107091966D01*
X108203333Y-107091966D02*
X108170000Y-107025300D01*
X108170000Y-107025300D02*
X108136666Y-106991966D01*
X108136666Y-106991966D02*
X108070000Y-106958633D01*
X90453106Y-41677355D02*
X90486440Y-41644022D01*
X90486440Y-41644022D02*
X90519773Y-41544022D01*
X90519773Y-41544022D02*
X90519773Y-41477355D01*
X90519773Y-41477355D02*
X90486440Y-41377355D01*
X90486440Y-41377355D02*
X90419773Y-41310689D01*
X90419773Y-41310689D02*
X90353106Y-41277355D01*
X90353106Y-41277355D02*
X90219773Y-41244022D01*
X90219773Y-41244022D02*
X90119773Y-41244022D01*
X90119773Y-41244022D02*
X89986440Y-41277355D01*
X89986440Y-41277355D02*
X89919773Y-41310689D01*
X89919773Y-41310689D02*
X89853106Y-41377355D01*
X89853106Y-41377355D02*
X89819773Y-41477355D01*
X89819773Y-41477355D02*
X89819773Y-41544022D01*
X89819773Y-41544022D02*
X89853106Y-41644022D01*
X89853106Y-41644022D02*
X89886440Y-41677355D01*
X90519773Y-42010689D02*
X90519773Y-42144022D01*
X90519773Y-42144022D02*
X90486440Y-42210689D01*
X90486440Y-42210689D02*
X90453106Y-42244022D01*
X90453106Y-42244022D02*
X90353106Y-42310689D01*
X90353106Y-42310689D02*
X90219773Y-42344022D01*
X90219773Y-42344022D02*
X89953106Y-42344022D01*
X89953106Y-42344022D02*
X89886440Y-42310689D01*
X89886440Y-42310689D02*
X89853106Y-42277355D01*
X89853106Y-42277355D02*
X89819773Y-42210689D01*
X89819773Y-42210689D02*
X89819773Y-42077355D01*
X89819773Y-42077355D02*
X89853106Y-42010689D01*
X89853106Y-42010689D02*
X89886440Y-41977355D01*
X89886440Y-41977355D02*
X89953106Y-41944022D01*
X89953106Y-41944022D02*
X90119773Y-41944022D01*
X90119773Y-41944022D02*
X90186440Y-41977355D01*
X90186440Y-41977355D02*
X90219773Y-42010689D01*
X90219773Y-42010689D02*
X90253106Y-42077355D01*
X90253106Y-42077355D02*
X90253106Y-42210689D01*
X90253106Y-42210689D02*
X90219773Y-42277355D01*
X90219773Y-42277355D02*
X90186440Y-42310689D01*
X90186440Y-42310689D02*
X90119773Y-42344022D01*
X135686121Y-117210714D02*
X136252788Y-117210714D01*
X136252788Y-117210714D02*
X136319454Y-117244048D01*
X136319454Y-117244048D02*
X136352788Y-117277381D01*
X136352788Y-117277381D02*
X136386121Y-117344048D01*
X136386121Y-117344048D02*
X136386121Y-117477381D01*
X136386121Y-117477381D02*
X136352788Y-117544048D01*
X136352788Y-117544048D02*
X136319454Y-117577381D01*
X136319454Y-117577381D02*
X136252788Y-117610714D01*
X136252788Y-117610714D02*
X135686121Y-117610714D01*
X135919454Y-118244047D02*
X136386121Y-118244047D01*
X135652788Y-118077381D02*
X136152788Y-117910714D01*
X136152788Y-117910714D02*
X136152788Y-118344047D01*
X139731366Y-52583333D02*
X139164700Y-52583333D01*
X139164700Y-52583333D02*
X139098033Y-52550000D01*
X139098033Y-52550000D02*
X139064700Y-52516666D01*
X139064700Y-52516666D02*
X139031366Y-52450000D01*
X139031366Y-52450000D02*
X139031366Y-52316666D01*
X139031366Y-52316666D02*
X139064700Y-52250000D01*
X139064700Y-52250000D02*
X139098033Y-52216666D01*
X139098033Y-52216666D02*
X139164700Y-52183333D01*
X139164700Y-52183333D02*
X139731366Y-52183333D01*
X139031366Y-51483333D02*
X139031366Y-51883333D01*
X139031366Y-51683333D02*
X139731366Y-51683333D01*
X139731366Y-51683333D02*
X139631366Y-51750000D01*
X139631366Y-51750000D02*
X139564700Y-51816667D01*
X139564700Y-51816667D02*
X139531366Y-51883333D01*
X126441966Y-111493333D02*
X126441966Y-111259999D01*
X126808633Y-111259999D02*
X126108633Y-111259999D01*
X126108633Y-111259999D02*
X126108633Y-111593333D01*
X126808633Y-112193333D02*
X126808633Y-111859999D01*
X126808633Y-111859999D02*
X126108633Y-111859999D01*
X126808633Y-112793333D02*
X126808633Y-112393333D01*
X126808633Y-112593333D02*
X126108633Y-112593333D01*
X126108633Y-112593333D02*
X126208633Y-112526666D01*
X126208633Y-112526666D02*
X126275300Y-112460000D01*
X126275300Y-112460000D02*
X126308633Y-112393333D01*
X131750000Y-113161966D02*
X131783333Y-113195300D01*
X131783333Y-113195300D02*
X131883333Y-113228633D01*
X131883333Y-113228633D02*
X131950000Y-113228633D01*
X131950000Y-113228633D02*
X132050000Y-113195300D01*
X132050000Y-113195300D02*
X132116667Y-113128633D01*
X132116667Y-113128633D02*
X132150000Y-113061966D01*
X132150000Y-113061966D02*
X132183333Y-112928633D01*
X132183333Y-112928633D02*
X132183333Y-112828633D01*
X132183333Y-112828633D02*
X132150000Y-112695300D01*
X132150000Y-112695300D02*
X132116667Y-112628633D01*
X132116667Y-112628633D02*
X132050000Y-112561966D01*
X132050000Y-112561966D02*
X131950000Y-112528633D01*
X131950000Y-112528633D02*
X131883333Y-112528633D01*
X131883333Y-112528633D02*
X131783333Y-112561966D01*
X131783333Y-112561966D02*
X131750000Y-112595300D01*
X131483333Y-112595300D02*
X131450000Y-112561966D01*
X131450000Y-112561966D02*
X131383333Y-112528633D01*
X131383333Y-112528633D02*
X131216667Y-112528633D01*
X131216667Y-112528633D02*
X131150000Y-112561966D01*
X131150000Y-112561966D02*
X131116667Y-112595300D01*
X131116667Y-112595300D02*
X131083333Y-112661966D01*
X131083333Y-112661966D02*
X131083333Y-112728633D01*
X131083333Y-112728633D02*
X131116667Y-112828633D01*
X131116667Y-112828633D02*
X131516667Y-113228633D01*
X131516667Y-113228633D02*
X131083333Y-113228633D01*
X130816666Y-112595300D02*
X130783333Y-112561966D01*
X130783333Y-112561966D02*
X130716666Y-112528633D01*
X130716666Y-112528633D02*
X130550000Y-112528633D01*
X130550000Y-112528633D02*
X130483333Y-112561966D01*
X130483333Y-112561966D02*
X130450000Y-112595300D01*
X130450000Y-112595300D02*
X130416666Y-112661966D01*
X130416666Y-112661966D02*
X130416666Y-112728633D01*
X130416666Y-112728633D02*
X130450000Y-112828633D01*
X130450000Y-112828633D02*
X130850000Y-113228633D01*
X130850000Y-113228633D02*
X130416666Y-113228633D01*
X136830000Y-125888633D02*
X137063333Y-125555300D01*
X137230000Y-125888633D02*
X137230000Y-125188633D01*
X137230000Y-125188633D02*
X136963333Y-125188633D01*
X136963333Y-125188633D02*
X136896667Y-125221966D01*
X136896667Y-125221966D02*
X136863333Y-125255300D01*
X136863333Y-125255300D02*
X136830000Y-125321966D01*
X136830000Y-125321966D02*
X136830000Y-125421966D01*
X136830000Y-125421966D02*
X136863333Y-125488633D01*
X136863333Y-125488633D02*
X136896667Y-125521966D01*
X136896667Y-125521966D02*
X136963333Y-125555300D01*
X136963333Y-125555300D02*
X137230000Y-125555300D01*
X136230000Y-125421966D02*
X136230000Y-125888633D01*
X136396667Y-125155300D02*
X136563333Y-125655300D01*
X136563333Y-125655300D02*
X136130000Y-125655300D01*
X135730000Y-125188633D02*
X135663333Y-125188633D01*
X135663333Y-125188633D02*
X135596666Y-125221966D01*
X135596666Y-125221966D02*
X135563333Y-125255300D01*
X135563333Y-125255300D02*
X135530000Y-125321966D01*
X135530000Y-125321966D02*
X135496666Y-125455300D01*
X135496666Y-125455300D02*
X135496666Y-125621966D01*
X135496666Y-125621966D02*
X135530000Y-125755300D01*
X135530000Y-125755300D02*
X135563333Y-125821966D01*
X135563333Y-125821966D02*
X135596666Y-125855300D01*
X135596666Y-125855300D02*
X135663333Y-125888633D01*
X135663333Y-125888633D02*
X135730000Y-125888633D01*
X135730000Y-125888633D02*
X135796666Y-125855300D01*
X135796666Y-125855300D02*
X135830000Y-125821966D01*
X135830000Y-125821966D02*
X135863333Y-125755300D01*
X135863333Y-125755300D02*
X135896666Y-125621966D01*
X135896666Y-125621966D02*
X135896666Y-125455300D01*
X135896666Y-125455300D02*
X135863333Y-125321966D01*
X135863333Y-125321966D02*
X135830000Y-125255300D01*
X135830000Y-125255300D02*
X135796666Y-125221966D01*
X135796666Y-125221966D02*
X135730000Y-125188633D01*
X107348633Y-51239999D02*
X107015300Y-51006666D01*
X107348633Y-50839999D02*
X106648633Y-50839999D01*
X106648633Y-50839999D02*
X106648633Y-51106666D01*
X106648633Y-51106666D02*
X106681966Y-51173333D01*
X106681966Y-51173333D02*
X106715300Y-51206666D01*
X106715300Y-51206666D02*
X106781966Y-51239999D01*
X106781966Y-51239999D02*
X106881966Y-51239999D01*
X106881966Y-51239999D02*
X106948633Y-51206666D01*
X106948633Y-51206666D02*
X106981966Y-51173333D01*
X106981966Y-51173333D02*
X107015300Y-51106666D01*
X107015300Y-51106666D02*
X107015300Y-50839999D01*
X106715300Y-51506666D02*
X106681966Y-51539999D01*
X106681966Y-51539999D02*
X106648633Y-51606666D01*
X106648633Y-51606666D02*
X106648633Y-51773333D01*
X106648633Y-51773333D02*
X106681966Y-51839999D01*
X106681966Y-51839999D02*
X106715300Y-51873333D01*
X106715300Y-51873333D02*
X106781966Y-51906666D01*
X106781966Y-51906666D02*
X106848633Y-51906666D01*
X106848633Y-51906666D02*
X106948633Y-51873333D01*
X106948633Y-51873333D02*
X107348633Y-51473333D01*
X107348633Y-51473333D02*
X107348633Y-51906666D01*
X106715300Y-52173333D02*
X106681966Y-52206666D01*
X106681966Y-52206666D02*
X106648633Y-52273333D01*
X106648633Y-52273333D02*
X106648633Y-52440000D01*
X106648633Y-52440000D02*
X106681966Y-52506666D01*
X106681966Y-52506666D02*
X106715300Y-52540000D01*
X106715300Y-52540000D02*
X106781966Y-52573333D01*
X106781966Y-52573333D02*
X106848633Y-52573333D01*
X106848633Y-52573333D02*
X106948633Y-52540000D01*
X106948633Y-52540000D02*
X107348633Y-52140000D01*
X107348633Y-52140000D02*
X107348633Y-52573333D01*
X90880000Y-106978633D02*
X91113333Y-106645300D01*
X91280000Y-106978633D02*
X91280000Y-106278633D01*
X91280000Y-106278633D02*
X91013333Y-106278633D01*
X91013333Y-106278633D02*
X90946667Y-106311966D01*
X90946667Y-106311966D02*
X90913333Y-106345300D01*
X90913333Y-106345300D02*
X90880000Y-106411966D01*
X90880000Y-106411966D02*
X90880000Y-106511966D01*
X90880000Y-106511966D02*
X90913333Y-106578633D01*
X90913333Y-106578633D02*
X90946667Y-106611966D01*
X90946667Y-106611966D02*
X91013333Y-106645300D01*
X91013333Y-106645300D02*
X91280000Y-106645300D01*
X90280000Y-106511966D02*
X90280000Y-106978633D01*
X90446667Y-106245300D02*
X90613333Y-106745300D01*
X90613333Y-106745300D02*
X90180000Y-106745300D01*
X89613333Y-106511966D02*
X89613333Y-106978633D01*
X89780000Y-106245300D02*
X89946666Y-106745300D01*
X89946666Y-106745300D02*
X89513333Y-106745300D01*
X116678633Y-50619999D02*
X116345300Y-50386666D01*
X116678633Y-50219999D02*
X115978633Y-50219999D01*
X115978633Y-50219999D02*
X115978633Y-50486666D01*
X115978633Y-50486666D02*
X116011966Y-50553333D01*
X116011966Y-50553333D02*
X116045300Y-50586666D01*
X116045300Y-50586666D02*
X116111966Y-50619999D01*
X116111966Y-50619999D02*
X116211966Y-50619999D01*
X116211966Y-50619999D02*
X116278633Y-50586666D01*
X116278633Y-50586666D02*
X116311966Y-50553333D01*
X116311966Y-50553333D02*
X116345300Y-50486666D01*
X116345300Y-50486666D02*
X116345300Y-50219999D01*
X116678633Y-51286666D02*
X116678633Y-50886666D01*
X116678633Y-51086666D02*
X115978633Y-51086666D01*
X115978633Y-51086666D02*
X116078633Y-51019999D01*
X116078633Y-51019999D02*
X116145300Y-50953333D01*
X116145300Y-50953333D02*
X116178633Y-50886666D01*
X116278633Y-51686666D02*
X116245300Y-51620000D01*
X116245300Y-51620000D02*
X116211966Y-51586666D01*
X116211966Y-51586666D02*
X116145300Y-51553333D01*
X116145300Y-51553333D02*
X116111966Y-51553333D01*
X116111966Y-51553333D02*
X116045300Y-51586666D01*
X116045300Y-51586666D02*
X116011966Y-51620000D01*
X116011966Y-51620000D02*
X115978633Y-51686666D01*
X115978633Y-51686666D02*
X115978633Y-51820000D01*
X115978633Y-51820000D02*
X116011966Y-51886666D01*
X116011966Y-51886666D02*
X116045300Y-51920000D01*
X116045300Y-51920000D02*
X116111966Y-51953333D01*
X116111966Y-51953333D02*
X116145300Y-51953333D01*
X116145300Y-51953333D02*
X116211966Y-51920000D01*
X116211966Y-51920000D02*
X116245300Y-51886666D01*
X116245300Y-51886666D02*
X116278633Y-51820000D01*
X116278633Y-51820000D02*
X116278633Y-51686666D01*
X116278633Y-51686666D02*
X116311966Y-51620000D01*
X116311966Y-51620000D02*
X116345300Y-51586666D01*
X116345300Y-51586666D02*
X116411966Y-51553333D01*
X116411966Y-51553333D02*
X116545300Y-51553333D01*
X116545300Y-51553333D02*
X116611966Y-51586666D01*
X116611966Y-51586666D02*
X116645300Y-51620000D01*
X116645300Y-51620000D02*
X116678633Y-51686666D01*
X116678633Y-51686666D02*
X116678633Y-51820000D01*
X116678633Y-51820000D02*
X116645300Y-51886666D01*
X116645300Y-51886666D02*
X116611966Y-51920000D01*
X116611966Y-51920000D02*
X116545300Y-51953333D01*
X116545300Y-51953333D02*
X116411966Y-51953333D01*
X116411966Y-51953333D02*
X116345300Y-51920000D01*
X116345300Y-51920000D02*
X116311966Y-51886666D01*
X116311966Y-51886666D02*
X116278633Y-51820000D01*
X149326666Y-35068633D02*
X149559999Y-34735300D01*
X149726666Y-35068633D02*
X149726666Y-34368633D01*
X149726666Y-34368633D02*
X149459999Y-34368633D01*
X149459999Y-34368633D02*
X149393333Y-34401966D01*
X149393333Y-34401966D02*
X149359999Y-34435300D01*
X149359999Y-34435300D02*
X149326666Y-34501966D01*
X149326666Y-34501966D02*
X149326666Y-34601966D01*
X149326666Y-34601966D02*
X149359999Y-34668633D01*
X149359999Y-34668633D02*
X149393333Y-34701966D01*
X149393333Y-34701966D02*
X149459999Y-34735300D01*
X149459999Y-34735300D02*
X149726666Y-34735300D01*
X148659999Y-35068633D02*
X149059999Y-35068633D01*
X148859999Y-35068633D02*
X148859999Y-34368633D01*
X148859999Y-34368633D02*
X148926666Y-34468633D01*
X148926666Y-34468633D02*
X148993333Y-34535300D01*
X148993333Y-34535300D02*
X149059999Y-34568633D01*
X106673333Y-34308633D02*
X106273333Y-34308633D01*
X106473333Y-35008633D02*
X106473333Y-34308633D01*
X105806667Y-34641966D02*
X106040000Y-34641966D01*
X106040000Y-35008633D02*
X106040000Y-34308633D01*
X106040000Y-34308633D02*
X105706667Y-34308633D01*
X105073333Y-35008633D02*
X105473333Y-35008633D01*
X105273333Y-35008633D02*
X105273333Y-34308633D01*
X105273333Y-34308633D02*
X105340000Y-34408633D01*
X105340000Y-34408633D02*
X105406667Y-34475300D01*
X105406667Y-34475300D02*
X105473333Y-34508633D01*
X149370000Y-110271966D02*
X149403333Y-110305300D01*
X149403333Y-110305300D02*
X149503333Y-110338633D01*
X149503333Y-110338633D02*
X149570000Y-110338633D01*
X149570000Y-110338633D02*
X149670000Y-110305300D01*
X149670000Y-110305300D02*
X149736667Y-110238633D01*
X149736667Y-110238633D02*
X149770000Y-110171966D01*
X149770000Y-110171966D02*
X149803333Y-110038633D01*
X149803333Y-110038633D02*
X149803333Y-109938633D01*
X149803333Y-109938633D02*
X149770000Y-109805300D01*
X149770000Y-109805300D02*
X149736667Y-109738633D01*
X149736667Y-109738633D02*
X149670000Y-109671966D01*
X149670000Y-109671966D02*
X149570000Y-109638633D01*
X149570000Y-109638633D02*
X149503333Y-109638633D01*
X149503333Y-109638633D02*
X149403333Y-109671966D01*
X149403333Y-109671966D02*
X149370000Y-109705300D01*
X148703333Y-110338633D02*
X149103333Y-110338633D01*
X148903333Y-110338633D02*
X148903333Y-109638633D01*
X148903333Y-109638633D02*
X148970000Y-109738633D01*
X148970000Y-109738633D02*
X149036667Y-109805300D01*
X149036667Y-109805300D02*
X149103333Y-109838633D01*
X148370000Y-110338633D02*
X148236666Y-110338633D01*
X148236666Y-110338633D02*
X148170000Y-110305300D01*
X148170000Y-110305300D02*
X148136666Y-110271966D01*
X148136666Y-110271966D02*
X148070000Y-110171966D01*
X148070000Y-110171966D02*
X148036666Y-110038633D01*
X148036666Y-110038633D02*
X148036666Y-109771966D01*
X148036666Y-109771966D02*
X148070000Y-109705300D01*
X148070000Y-109705300D02*
X148103333Y-109671966D01*
X148103333Y-109671966D02*
X148170000Y-109638633D01*
X148170000Y-109638633D02*
X148303333Y-109638633D01*
X148303333Y-109638633D02*
X148370000Y-109671966D01*
X148370000Y-109671966D02*
X148403333Y-109705300D01*
X148403333Y-109705300D02*
X148436666Y-109771966D01*
X148436666Y-109771966D02*
X148436666Y-109938633D01*
X148436666Y-109938633D02*
X148403333Y-110005300D01*
X148403333Y-110005300D02*
X148370000Y-110038633D01*
X148370000Y-110038633D02*
X148303333Y-110071966D01*
X148303333Y-110071966D02*
X148170000Y-110071966D01*
X148170000Y-110071966D02*
X148103333Y-110038633D01*
X148103333Y-110038633D02*
X148070000Y-110005300D01*
X148070000Y-110005300D02*
X148036666Y-109938633D01*
X144360000Y-125888633D02*
X144593333Y-125555300D01*
X144760000Y-125888633D02*
X144760000Y-125188633D01*
X144760000Y-125188633D02*
X144493333Y-125188633D01*
X144493333Y-125188633D02*
X144426667Y-125221966D01*
X144426667Y-125221966D02*
X144393333Y-125255300D01*
X144393333Y-125255300D02*
X144360000Y-125321966D01*
X144360000Y-125321966D02*
X144360000Y-125421966D01*
X144360000Y-125421966D02*
X144393333Y-125488633D01*
X144393333Y-125488633D02*
X144426667Y-125521966D01*
X144426667Y-125521966D02*
X144493333Y-125555300D01*
X144493333Y-125555300D02*
X144760000Y-125555300D01*
X144093333Y-125255300D02*
X144060000Y-125221966D01*
X144060000Y-125221966D02*
X143993333Y-125188633D01*
X143993333Y-125188633D02*
X143826667Y-125188633D01*
X143826667Y-125188633D02*
X143760000Y-125221966D01*
X143760000Y-125221966D02*
X143726667Y-125255300D01*
X143726667Y-125255300D02*
X143693333Y-125321966D01*
X143693333Y-125321966D02*
X143693333Y-125388633D01*
X143693333Y-125388633D02*
X143726667Y-125488633D01*
X143726667Y-125488633D02*
X144126667Y-125888633D01*
X144126667Y-125888633D02*
X143693333Y-125888633D01*
X143093333Y-125188633D02*
X143226666Y-125188633D01*
X143226666Y-125188633D02*
X143293333Y-125221966D01*
X143293333Y-125221966D02*
X143326666Y-125255300D01*
X143326666Y-125255300D02*
X143393333Y-125355300D01*
X143393333Y-125355300D02*
X143426666Y-125488633D01*
X143426666Y-125488633D02*
X143426666Y-125755300D01*
X143426666Y-125755300D02*
X143393333Y-125821966D01*
X143393333Y-125821966D02*
X143360000Y-125855300D01*
X143360000Y-125855300D02*
X143293333Y-125888633D01*
X143293333Y-125888633D02*
X143160000Y-125888633D01*
X143160000Y-125888633D02*
X143093333Y-125855300D01*
X143093333Y-125855300D02*
X143060000Y-125821966D01*
X143060000Y-125821966D02*
X143026666Y-125755300D01*
X143026666Y-125755300D02*
X143026666Y-125588633D01*
X143026666Y-125588633D02*
X143060000Y-125521966D01*
X143060000Y-125521966D02*
X143093333Y-125488633D01*
X143093333Y-125488633D02*
X143160000Y-125455300D01*
X143160000Y-125455300D02*
X143293333Y-125455300D01*
X143293333Y-125455300D02*
X143360000Y-125488633D01*
X143360000Y-125488633D02*
X143393333Y-125521966D01*
X143393333Y-125521966D02*
X143426666Y-125588633D01*
X105041966Y-51239999D02*
X105075300Y-51206666D01*
X105075300Y-51206666D02*
X105108633Y-51106666D01*
X105108633Y-51106666D02*
X105108633Y-51039999D01*
X105108633Y-51039999D02*
X105075300Y-50939999D01*
X105075300Y-50939999D02*
X105008633Y-50873333D01*
X105008633Y-50873333D02*
X104941966Y-50839999D01*
X104941966Y-50839999D02*
X104808633Y-50806666D01*
X104808633Y-50806666D02*
X104708633Y-50806666D01*
X104708633Y-50806666D02*
X104575300Y-50839999D01*
X104575300Y-50839999D02*
X104508633Y-50873333D01*
X104508633Y-50873333D02*
X104441966Y-50939999D01*
X104441966Y-50939999D02*
X104408633Y-51039999D01*
X104408633Y-51039999D02*
X104408633Y-51106666D01*
X104408633Y-51106666D02*
X104441966Y-51206666D01*
X104441966Y-51206666D02*
X104475300Y-51239999D01*
X105108633Y-51906666D02*
X105108633Y-51506666D01*
X105108633Y-51706666D02*
X104408633Y-51706666D01*
X104408633Y-51706666D02*
X104508633Y-51639999D01*
X104508633Y-51639999D02*
X104575300Y-51573333D01*
X104575300Y-51573333D02*
X104608633Y-51506666D01*
X104408633Y-52140000D02*
X104408633Y-52573333D01*
X104408633Y-52573333D02*
X104675300Y-52340000D01*
X104675300Y-52340000D02*
X104675300Y-52440000D01*
X104675300Y-52440000D02*
X104708633Y-52506666D01*
X104708633Y-52506666D02*
X104741966Y-52540000D01*
X104741966Y-52540000D02*
X104808633Y-52573333D01*
X104808633Y-52573333D02*
X104975300Y-52573333D01*
X104975300Y-52573333D02*
X105041966Y-52540000D01*
X105041966Y-52540000D02*
X105075300Y-52506666D01*
X105075300Y-52506666D02*
X105108633Y-52440000D01*
X105108633Y-52440000D02*
X105108633Y-52240000D01*
X105108633Y-52240000D02*
X105075300Y-52173333D01*
X105075300Y-52173333D02*
X105041966Y-52140000D01*
X90880000Y-100888633D02*
X91113333Y-100555300D01*
X91280000Y-100888633D02*
X91280000Y-100188633D01*
X91280000Y-100188633D02*
X91013333Y-100188633D01*
X91013333Y-100188633D02*
X90946667Y-100221966D01*
X90946667Y-100221966D02*
X90913333Y-100255300D01*
X90913333Y-100255300D02*
X90880000Y-100321966D01*
X90880000Y-100321966D02*
X90880000Y-100421966D01*
X90880000Y-100421966D02*
X90913333Y-100488633D01*
X90913333Y-100488633D02*
X90946667Y-100521966D01*
X90946667Y-100521966D02*
X91013333Y-100555300D01*
X91013333Y-100555300D02*
X91280000Y-100555300D01*
X90646667Y-100188633D02*
X90213333Y-100188633D01*
X90213333Y-100188633D02*
X90446667Y-100455300D01*
X90446667Y-100455300D02*
X90346667Y-100455300D01*
X90346667Y-100455300D02*
X90280000Y-100488633D01*
X90280000Y-100488633D02*
X90246667Y-100521966D01*
X90246667Y-100521966D02*
X90213333Y-100588633D01*
X90213333Y-100588633D02*
X90213333Y-100755300D01*
X90213333Y-100755300D02*
X90246667Y-100821966D01*
X90246667Y-100821966D02*
X90280000Y-100855300D01*
X90280000Y-100855300D02*
X90346667Y-100888633D01*
X90346667Y-100888633D02*
X90546667Y-100888633D01*
X90546667Y-100888633D02*
X90613333Y-100855300D01*
X90613333Y-100855300D02*
X90646667Y-100821966D01*
X89980000Y-100188633D02*
X89513333Y-100188633D01*
X89513333Y-100188633D02*
X89813333Y-100888633D01*
X149276666Y-42978633D02*
X149509999Y-42645300D01*
X149676666Y-42978633D02*
X149676666Y-42278633D01*
X149676666Y-42278633D02*
X149409999Y-42278633D01*
X149409999Y-42278633D02*
X149343333Y-42311966D01*
X149343333Y-42311966D02*
X149309999Y-42345300D01*
X149309999Y-42345300D02*
X149276666Y-42411966D01*
X149276666Y-42411966D02*
X149276666Y-42511966D01*
X149276666Y-42511966D02*
X149309999Y-42578633D01*
X149309999Y-42578633D02*
X149343333Y-42611966D01*
X149343333Y-42611966D02*
X149409999Y-42645300D01*
X149409999Y-42645300D02*
X149676666Y-42645300D01*
X148676666Y-42511966D02*
X148676666Y-42978633D01*
X148843333Y-42245300D02*
X149009999Y-42745300D01*
X149009999Y-42745300D02*
X148576666Y-42745300D01*
X102801966Y-51239999D02*
X102835300Y-51206666D01*
X102835300Y-51206666D02*
X102868633Y-51106666D01*
X102868633Y-51106666D02*
X102868633Y-51039999D01*
X102868633Y-51039999D02*
X102835300Y-50939999D01*
X102835300Y-50939999D02*
X102768633Y-50873333D01*
X102768633Y-50873333D02*
X102701966Y-50839999D01*
X102701966Y-50839999D02*
X102568633Y-50806666D01*
X102568633Y-50806666D02*
X102468633Y-50806666D01*
X102468633Y-50806666D02*
X102335300Y-50839999D01*
X102335300Y-50839999D02*
X102268633Y-50873333D01*
X102268633Y-50873333D02*
X102201966Y-50939999D01*
X102201966Y-50939999D02*
X102168633Y-51039999D01*
X102168633Y-51039999D02*
X102168633Y-51106666D01*
X102168633Y-51106666D02*
X102201966Y-51206666D01*
X102201966Y-51206666D02*
X102235300Y-51239999D01*
X102868633Y-51906666D02*
X102868633Y-51506666D01*
X102868633Y-51706666D02*
X102168633Y-51706666D01*
X102168633Y-51706666D02*
X102268633Y-51639999D01*
X102268633Y-51639999D02*
X102335300Y-51573333D01*
X102335300Y-51573333D02*
X102368633Y-51506666D01*
X102235300Y-52173333D02*
X102201966Y-52206666D01*
X102201966Y-52206666D02*
X102168633Y-52273333D01*
X102168633Y-52273333D02*
X102168633Y-52440000D01*
X102168633Y-52440000D02*
X102201966Y-52506666D01*
X102201966Y-52506666D02*
X102235300Y-52540000D01*
X102235300Y-52540000D02*
X102301966Y-52573333D01*
X102301966Y-52573333D02*
X102368633Y-52573333D01*
X102368633Y-52573333D02*
X102468633Y-52540000D01*
X102468633Y-52540000D02*
X102868633Y-52140000D01*
X102868633Y-52140000D02*
X102868633Y-52573333D01*
X112186666Y-43788633D02*
X112419999Y-43455300D01*
X112586666Y-43788633D02*
X112586666Y-43088633D01*
X112586666Y-43088633D02*
X112319999Y-43088633D01*
X112319999Y-43088633D02*
X112253333Y-43121966D01*
X112253333Y-43121966D02*
X112219999Y-43155300D01*
X112219999Y-43155300D02*
X112186666Y-43221966D01*
X112186666Y-43221966D02*
X112186666Y-43321966D01*
X112186666Y-43321966D02*
X112219999Y-43388633D01*
X112219999Y-43388633D02*
X112253333Y-43421966D01*
X112253333Y-43421966D02*
X112319999Y-43455300D01*
X112319999Y-43455300D02*
X112586666Y-43455300D01*
X111553333Y-43088633D02*
X111886666Y-43088633D01*
X111886666Y-43088633D02*
X111919999Y-43421966D01*
X111919999Y-43421966D02*
X111886666Y-43388633D01*
X111886666Y-43388633D02*
X111819999Y-43355300D01*
X111819999Y-43355300D02*
X111653333Y-43355300D01*
X111653333Y-43355300D02*
X111586666Y-43388633D01*
X111586666Y-43388633D02*
X111553333Y-43421966D01*
X111553333Y-43421966D02*
X111519999Y-43488633D01*
X111519999Y-43488633D02*
X111519999Y-43655300D01*
X111519999Y-43655300D02*
X111553333Y-43721966D01*
X111553333Y-43721966D02*
X111586666Y-43755300D01*
X111586666Y-43755300D02*
X111653333Y-43788633D01*
X111653333Y-43788633D02*
X111819999Y-43788633D01*
X111819999Y-43788633D02*
X111886666Y-43755300D01*
X111886666Y-43755300D02*
X111919999Y-43721966D01*
X92811823Y-41677354D02*
X92478490Y-41444021D01*
X92811823Y-41277354D02*
X92111823Y-41277354D01*
X92111823Y-41277354D02*
X92111823Y-41544021D01*
X92111823Y-41544021D02*
X92145156Y-41610688D01*
X92145156Y-41610688D02*
X92178490Y-41644021D01*
X92178490Y-41644021D02*
X92245156Y-41677354D01*
X92245156Y-41677354D02*
X92345156Y-41677354D01*
X92345156Y-41677354D02*
X92411823Y-41644021D01*
X92411823Y-41644021D02*
X92445156Y-41610688D01*
X92445156Y-41610688D02*
X92478490Y-41544021D01*
X92478490Y-41544021D02*
X92478490Y-41277354D01*
X92811823Y-42344021D02*
X92811823Y-41944021D01*
X92811823Y-42144021D02*
X92111823Y-42144021D01*
X92111823Y-42144021D02*
X92211823Y-42077354D01*
X92211823Y-42077354D02*
X92278490Y-42010688D01*
X92278490Y-42010688D02*
X92311823Y-41944021D01*
X92111823Y-42577355D02*
X92111823Y-43010688D01*
X92111823Y-43010688D02*
X92378490Y-42777355D01*
X92378490Y-42777355D02*
X92378490Y-42877355D01*
X92378490Y-42877355D02*
X92411823Y-42944021D01*
X92411823Y-42944021D02*
X92445156Y-42977355D01*
X92445156Y-42977355D02*
X92511823Y-43010688D01*
X92511823Y-43010688D02*
X92678490Y-43010688D01*
X92678490Y-43010688D02*
X92745156Y-42977355D01*
X92745156Y-42977355D02*
X92778490Y-42944021D01*
X92778490Y-42944021D02*
X92811823Y-42877355D01*
X92811823Y-42877355D02*
X92811823Y-42677355D01*
X92811823Y-42677355D02*
X92778490Y-42610688D01*
X92778490Y-42610688D02*
X92745156Y-42577355D01*
X140625000Y-125888633D02*
X140858333Y-125555300D01*
X141025000Y-125888633D02*
X141025000Y-125188633D01*
X141025000Y-125188633D02*
X140758333Y-125188633D01*
X140758333Y-125188633D02*
X140691667Y-125221966D01*
X140691667Y-125221966D02*
X140658333Y-125255300D01*
X140658333Y-125255300D02*
X140625000Y-125321966D01*
X140625000Y-125321966D02*
X140625000Y-125421966D01*
X140625000Y-125421966D02*
X140658333Y-125488633D01*
X140658333Y-125488633D02*
X140691667Y-125521966D01*
X140691667Y-125521966D02*
X140758333Y-125555300D01*
X140758333Y-125555300D02*
X141025000Y-125555300D01*
X140025000Y-125421966D02*
X140025000Y-125888633D01*
X140191667Y-125155300D02*
X140358333Y-125655300D01*
X140358333Y-125655300D02*
X139925000Y-125655300D01*
X139291666Y-125888633D02*
X139691666Y-125888633D01*
X139491666Y-125888633D02*
X139491666Y-125188633D01*
X139491666Y-125188633D02*
X139558333Y-125288633D01*
X139558333Y-125288633D02*
X139625000Y-125355300D01*
X139625000Y-125355300D02*
X139691666Y-125388633D01*
D12*
%TO.C,U2*%
X108500000Y-83155000D02*
X108500000Y-87555000D01*
X103500000Y-83155000D02*
X103500000Y-87555000D01*
D13*
X103840000Y-81115000D02*
G75*
G02*
X103640000Y-81115000I-100000J0D01*
G01*
X103640000Y-81115000D02*
G75*
G02*
X103840000Y-81115000I100000J0D01*
G01*
D14*
%TO.C,R33*%
X104818333Y-98327064D02*
X104818333Y-97872936D01*
X103348333Y-98327064D02*
X103348333Y-97872936D01*
%TO.C,C14*%
X105038748Y-91435000D02*
X105561252Y-91435000D01*
X105038748Y-89965000D02*
X105561252Y-89965000D01*
%TO.C,Q1*%
X117250000Y-82790000D02*
X117250000Y-84310000D01*
X117250000Y-84310000D02*
X118250000Y-84310000D01*
X117300000Y-82790000D02*
X117250000Y-82790000D01*
X119200000Y-82790000D02*
X118420000Y-82790000D01*
X119370000Y-84310000D02*
X120370000Y-84310000D01*
X120370000Y-82790000D02*
X120320000Y-82790000D01*
X120370000Y-84310000D02*
X120370000Y-82790000D01*
X118760000Y-82490000D02*
X118430000Y-82250000D01*
X118760000Y-82010000D01*
X118760000Y-82490000D01*
G36*
X118760000Y-82490000D02*
G01*
X118430000Y-82250000D01*
X118760000Y-82010000D01*
X118760000Y-82490000D01*
G37*
%TO.C,R34*%
X112982936Y-65935000D02*
X113437064Y-65935000D01*
X112982936Y-67405000D02*
X113437064Y-67405000D01*
%TO.C,R32*%
X105895000Y-97872936D02*
X105895000Y-98327064D01*
X107365000Y-97872936D02*
X107365000Y-98327064D01*
%TO.C,R7*%
X140385000Y-36202936D02*
X140385000Y-36657064D01*
X141855000Y-36202936D02*
X141855000Y-36657064D01*
%TO.C,R39*%
X144477064Y-120745000D02*
X144022936Y-120745000D01*
X144477064Y-122215000D02*
X144022936Y-122215000D01*
%TO.C,R42*%
X72357064Y-117275000D02*
X71902936Y-117275000D01*
X72357064Y-118745000D02*
X71902936Y-118745000D01*
%TO.C,R21*%
X112327064Y-103785000D02*
X111872936Y-103785000D01*
X112327064Y-105255000D02*
X111872936Y-105255000D01*
%TO.C,R31*%
X100801667Y-97872936D02*
X100801667Y-98327064D01*
X102271667Y-97872936D02*
X102271667Y-98327064D01*
%TO.C,R27*%
X110764999Y-48927064D02*
X110764999Y-48472936D01*
X112234999Y-48927064D02*
X112234999Y-48472936D01*
%TO.C,R43*%
X90812936Y-116965000D02*
X91267064Y-116965000D01*
X90812936Y-118435000D02*
X91267064Y-118435000D01*
%TO.C,R28*%
X114625000Y-82952936D02*
X114625000Y-83407064D01*
X116095000Y-82952936D02*
X116095000Y-83407064D01*
%TO.C,C5*%
X87130000Y-60638748D02*
X87130000Y-61161252D01*
X88600000Y-60638748D02*
X88600000Y-61161252D01*
%TO.C,C10*%
X87165000Y-39138748D02*
X87165000Y-39661252D01*
X88635000Y-39138748D02*
X88635000Y-39661252D01*
%TO.C,R30*%
X98255000Y-97872936D02*
X98255000Y-98327064D01*
X99725000Y-97872936D02*
X99725000Y-98327064D01*
%TO.C,R15*%
X113315000Y-53752936D02*
X113315000Y-54207064D01*
X114785000Y-53752936D02*
X114785000Y-54207064D01*
%TO.C,R25*%
X108554999Y-48472936D02*
X108554999Y-48927064D01*
X110024999Y-48472936D02*
X110024999Y-48927064D01*
%TO.C,C21*%
X134861252Y-109825000D02*
X134338748Y-109825000D01*
X134861252Y-111295000D02*
X134338748Y-111295000D01*
%TO.C,R36*%
X93340436Y-102875000D02*
X93794564Y-102875000D01*
X93340436Y-104345000D02*
X93794564Y-104345000D01*
%TO.C,C20*%
X145238748Y-111685000D02*
X145761252Y-111685000D01*
X145238748Y-113155000D02*
X145761252Y-113155000D01*
D15*
%TO.C,D17*%
X120830000Y-114150000D02*
X121630000Y-114150000D01*
X120830000Y-114750000D02*
X120830000Y-114150000D01*
X120830000Y-116350000D02*
X120830000Y-116950000D01*
X120830000Y-116950000D02*
X121630000Y-116950000D01*
D14*
%TO.C,R23*%
X120505000Y-78102936D02*
X120505000Y-78557064D01*
X121975000Y-78102936D02*
X121975000Y-78557064D01*
%TO.C,R9*%
X89265000Y-60672936D02*
X89265000Y-61127064D01*
X90735000Y-60672936D02*
X90735000Y-61127064D01*
%TO.C,C4*%
X86435000Y-60638748D02*
X86435000Y-61161252D01*
X84965000Y-60638748D02*
X84965000Y-61161252D01*
%TO.C,R20*%
X112327064Y-106615000D02*
X111872936Y-106615000D01*
X112327064Y-108085000D02*
X111872936Y-108085000D01*
%TO.C,C9*%
X89480000Y-39138748D02*
X89480000Y-39661252D01*
X90950000Y-39138748D02*
X90950000Y-39661252D01*
D12*
%TO.C,U4*%
X136680000Y-115897500D02*
X136930000Y-115897500D01*
X136680000Y-119597500D02*
X136680000Y-115897500D01*
X138080000Y-119597500D02*
X136680000Y-119597500D01*
X141980000Y-119597500D02*
X143380000Y-119597500D01*
X143380000Y-115897500D02*
X143130000Y-115897500D01*
X143380000Y-119597500D02*
X143380000Y-115897500D01*
D13*
X137830000Y-113147500D02*
G75*
G02*
X137630000Y-113147500I-100000J0D01*
G01*
X137630000Y-113147500D02*
G75*
G02*
X137830000Y-113147500I100000J0D01*
G01*
D14*
%TO.C,U1*%
X119650000Y-27750000D02*
X119650000Y-33950000D01*
X119650000Y-53600000D02*
X119650000Y-52600000D01*
X119650000Y-53600000D02*
X121150000Y-53600000D01*
X138050000Y-27750000D02*
X119650000Y-27750000D01*
X138050000Y-27750000D02*
X138050000Y-33950000D01*
X138050000Y-52600000D02*
X138050000Y-53600000D01*
X138050000Y-53600000D02*
X136550000Y-53600000D01*
X138550000Y-34625000D02*
X138050000Y-34625000D01*
X138050000Y-34125000D01*
X138550000Y-34625000D01*
G36*
X138550000Y-34625000D02*
G01*
X138050000Y-34625000D01*
X138050000Y-34125000D01*
X138550000Y-34625000D01*
G37*
%TO.C,FL1*%
D11*
X125420000Y-113689500D02*
G75*
G02*
X125320000Y-113689500I-50000J0D01*
G01*
X125320000Y-113689500D02*
G75*
G02*
X125420000Y-113689500I50000J0D01*
G01*
D14*
%TO.C,C22*%
X134861252Y-112155000D02*
X134338748Y-112155000D01*
X134861252Y-113625000D02*
X134338748Y-113625000D01*
%TO.C,R40*%
X136657064Y-123135000D02*
X136202936Y-123135000D01*
X136657064Y-124605000D02*
X136202936Y-124605000D01*
%TO.C,R22*%
X106405000Y-48472936D02*
X106405000Y-48927064D01*
X107875000Y-48472936D02*
X107875000Y-48927064D01*
%TO.C,R44*%
X93794564Y-105915000D02*
X93340436Y-105915000D01*
X93794564Y-107385000D02*
X93340436Y-107385000D01*
%TO.C,R18*%
X115685000Y-53802936D02*
X115685000Y-54257064D01*
X117155000Y-53802936D02*
X117155000Y-54257064D01*
%TO.C,R1*%
X149367064Y-35655000D02*
X148912936Y-35655000D01*
X149367064Y-37125000D02*
X148912936Y-37125000D01*
D12*
%TO.C,TF1*%
X98655000Y-27530000D02*
X113405000Y-27530000D01*
X98655000Y-30510000D02*
X98655000Y-27530000D01*
X98655000Y-40010000D02*
X98655000Y-33350000D01*
X111760000Y-42030000D02*
X108950000Y-42030000D01*
X113405000Y-30510000D02*
X113405000Y-27530000D01*
X113405000Y-40410000D02*
X113405000Y-33350000D01*
D13*
X108380000Y-43880000D02*
G75*
G02*
X108180000Y-43880000I-100000J0D01*
G01*
X108180000Y-43880000D02*
G75*
G02*
X108380000Y-43880000I100000J0D01*
G01*
D14*
%TO.C,C19*%
X145238748Y-109275000D02*
X145761252Y-109275000D01*
X145238748Y-110745000D02*
X145761252Y-110745000D01*
%TO.C,R26*%
X143652936Y-123135000D02*
X144107064Y-123135000D01*
X143652936Y-124605000D02*
X144107064Y-124605000D01*
%TO.C,C13*%
X104115000Y-48911252D02*
X104115000Y-48388748D01*
X105585000Y-48911252D02*
X105585000Y-48388748D01*
%TO.C,R37*%
X93340436Y-99835000D02*
X93794564Y-99835000D01*
X93340436Y-101305000D02*
X93794564Y-101305000D01*
%TO.C,R4*%
X149387064Y-43575000D02*
X148932936Y-43575000D01*
X149387064Y-45045000D02*
X148932936Y-45045000D01*
%TO.C,C12*%
X101845000Y-48911252D02*
X101845000Y-48388748D01*
X103315000Y-48911252D02*
X103315000Y-48388748D01*
%TO.C,R5*%
X112297064Y-44385000D02*
X111842936Y-44385000D01*
X112297064Y-45855000D02*
X111842936Y-45855000D01*
%TO.C,R13*%
X91765000Y-39172936D02*
X91765000Y-39627064D01*
X93235000Y-39172936D02*
X93235000Y-39627064D01*
%TO.C,R41*%
X139927936Y-123135000D02*
X140382064Y-123135000D01*
X139927936Y-124605000D02*
X140382064Y-124605000D01*
%TD*%
M02*
