%TF.GenerationSoftware,KiCad,Pcbnew,9.0.6*%
%TF.CreationDate,2026-05-13T14:56:54+02:00*%
%TF.ProjectId,rayman_main,7261796d-616e-45f6-9d61-696e2e6b6963,rev?*%
%TF.SameCoordinates,Original*%
%TF.FileFunction,Paste,Top*%
%TF.FilePolarity,Positive*%
%FSLAX46Y46*%
G04 Gerber Fmt 4.6, Leading zero omitted, Abs format (unit mm)*
G04 Created by KiCad (PCBNEW 9.0.6) date 2026-05-13 14:56:54*
%MOMM*%
%LPD*%
G01*
G04 APERTURE LIST*
G04 Aperture macros list*
%AMRoundRect*
0 Rectangle with rounded corners*
0 $1 Rounding radius*
0 $2 $3 $4 $5 $6 $7 $8 $9 X,Y pos of 4 corners*
0 Add a 4 corners polygon primitive as box body*
4,1,4,$2,$3,$4,$5,$6,$7,$8,$9,$2,$3,0*
0 Add four circle primitives for the rounded corners*
1,1,$1+$1,$2,$3*
1,1,$1+$1,$4,$5*
1,1,$1+$1,$6,$7*
1,1,$1+$1,$8,$9*
0 Add four rect primitives between the rounded corners*
20,1,$1+$1,$2,$3,$4,$5,0*
20,1,$1+$1,$4,$5,$6,$7,0*
20,1,$1+$1,$6,$7,$8,$9,0*
20,1,$1+$1,$8,$9,$2,$3,0*%
G04 Aperture macros list end*
%ADD10RoundRect,0.250000X-1.000000X-0.650000X1.000000X-0.650000X1.000000X0.650000X-1.000000X0.650000X0*%
%ADD11RoundRect,0.250000X0.450000X-0.262500X0.450000X0.262500X-0.450000X0.262500X-0.450000X-0.262500X0*%
%ADD12RoundRect,0.150000X-0.150000X0.825000X-0.150000X-0.825000X0.150000X-0.825000X0.150000X0.825000X0*%
%ADD13RoundRect,0.250000X-0.262500X-0.450000X0.262500X-0.450000X0.262500X0.450000X-0.262500X0.450000X0*%
%ADD14R,4.241800X3.810000*%
%ADD15RoundRect,0.243750X0.456250X-0.243750X0.456250X0.243750X-0.456250X0.243750X-0.456250X-0.243750X0*%
%ADD16RoundRect,0.250000X-0.785000X-1.045000X0.785000X-1.045000X0.785000X1.045000X-0.785000X1.045000X0*%
%ADD17RoundRect,0.243750X0.243750X0.456250X-0.243750X0.456250X-0.243750X-0.456250X0.243750X-0.456250X0*%
%ADD18RoundRect,0.250000X-1.000000X-0.900000X1.000000X-0.900000X1.000000X0.900000X-1.000000X0.900000X0*%
%ADD19RoundRect,0.250000X-0.475000X0.250000X-0.475000X-0.250000X0.475000X-0.250000X0.475000X0.250000X0*%
%ADD20RoundRect,0.150000X0.625000X-0.150000X0.625000X0.150000X-0.625000X0.150000X-0.625000X-0.150000X0*%
%ADD21RoundRect,0.250000X0.650000X-0.350000X0.650000X0.350000X-0.650000X0.350000X-0.650000X-0.350000X0*%
%ADD22RoundRect,0.250000X0.250000X0.475000X-0.250000X0.475000X-0.250000X-0.475000X0.250000X-0.475000X0*%
%ADD23RoundRect,0.250000X-0.250000X-0.475000X0.250000X-0.475000X0.250000X0.475000X-0.250000X0.475000X0*%
%ADD24RoundRect,0.250000X0.550000X-1.500000X0.550000X1.500000X-0.550000X1.500000X-0.550000X-1.500000X0*%
%ADD25RoundRect,0.243750X-0.243750X-0.456250X0.243750X-0.456250X0.243750X0.456250X-0.243750X0.456250X0*%
%ADD26RoundRect,0.250000X-1.425000X0.362500X-1.425000X-0.362500X1.425000X-0.362500X1.425000X0.362500X0*%
%ADD27RoundRect,0.250000X0.262500X0.450000X-0.262500X0.450000X-0.262500X-0.450000X0.262500X-0.450000X0*%
%ADD28RoundRect,0.243750X-0.456250X0.243750X-0.456250X-0.243750X0.456250X-0.243750X0.456250X0.243750X0*%
%ADD29RoundRect,0.100000X0.100000X-0.850000X0.100000X0.850000X-0.100000X0.850000X-0.100000X-0.850000X0*%
%ADD30RoundRect,0.027500X0.082500X-0.342500X0.082500X0.342500X-0.082500X0.342500X-0.082500X-0.342500X0*%
%ADD31RoundRect,0.048400X0.061600X-0.321600X0.061600X0.321600X-0.061600X0.321600X-0.061600X-0.321600X0*%
%ADD32RoundRect,0.250000X-0.450000X0.262500X-0.450000X-0.262500X0.450000X-0.262500X0.450000X0.262500X0*%
%ADD33RoundRect,0.250000X0.550000X-1.250000X0.550000X1.250000X-0.550000X1.250000X-0.550000X-1.250000X0*%
%ADD34RoundRect,0.079500X0.005935X-0.128005X0.125933X-0.023692X-0.005935X0.128005X-0.125933X0.023692X0*%
%ADD35R,0.300000X0.500000*%
%ADD36R,3.100000X1.750000*%
%ADD37RoundRect,0.250000X-1.045000X0.785000X-1.045000X-0.785000X1.045000X-0.785000X1.045000X0.785000X0*%
%ADD38RoundRect,0.250000X2.500000X-0.250000X2.500000X0.250000X-2.500000X0.250000X-2.500000X-0.250000X0*%
%ADD39RoundRect,0.250000X1.250000X-0.550000X1.250000X0.550000X-1.250000X0.550000X-1.250000X-0.550000X0*%
%ADD40RoundRect,0.250000X1.500000X0.550000X-1.500000X0.550000X-1.500000X-0.550000X1.500000X-0.550000X0*%
%ADD41RoundRect,0.250000X-0.550000X1.500000X-0.550000X-1.500000X0.550000X-1.500000X0.550000X1.500000X0*%
%ADD42RoundRect,0.075000X-0.910000X-0.225000X0.910000X-0.225000X0.910000X0.225000X-0.910000X0.225000X0*%
%ADD43RoundRect,0.079500X0.021490X-0.126328X0.127882X-0.008168X-0.021490X0.126328X-0.127882X0.008168X0*%
G04 APERTURE END LIST*
D10*
%TO.C,D8*%
X148530000Y-109330000D03*
X144530000Y-109330000D03*
%TD*%
D11*
%TO.C,R48*%
X99900000Y-61587500D03*
X99900000Y-63412500D03*
%TD*%
%TO.C,R47*%
X99900000Y-66487500D03*
X99900000Y-68312500D03*
%TD*%
%TO.C,R50*%
X99900000Y-73212500D03*
X99900000Y-71387500D03*
%TD*%
%TO.C,R49*%
X99900000Y-78112500D03*
X99900000Y-76287500D03*
%TD*%
D12*
%TO.C,CAN1*%
X120647500Y-90635000D03*
X119377500Y-90635000D03*
X118107500Y-90635000D03*
X116837500Y-90635000D03*
X116837500Y-95585000D03*
X118107500Y-95585000D03*
X119377500Y-95585000D03*
X120647500Y-95585000D03*
%TD*%
D13*
%TO.C,R8*%
X118937500Y-82380000D03*
X120762500Y-82380000D03*
%TD*%
D14*
%TO.C,1\u002C0A_FUSE1*%
X129712300Y-107800000D03*
X136087700Y-107800000D03*
%TD*%
%TO.C,T1A_FUSE1*%
X88967700Y-95150000D03*
X82592300Y-95150000D03*
%TD*%
D15*
%TO.C,D4*%
X114520000Y-110917500D03*
X114520000Y-109042500D03*
%TD*%
D13*
%TO.C,R2*%
X118937500Y-85200000D03*
X120762500Y-85200000D03*
%TD*%
D16*
%TO.C,C27*%
X93580000Y-82300000D03*
X99820000Y-82300000D03*
%TD*%
D17*
%TO.C,D12*%
X73097500Y-123490000D03*
X71222500Y-123490000D03*
%TD*%
D18*
%TO.C,D9*%
X130592500Y-102722322D03*
X134892500Y-102722322D03*
%TD*%
D19*
%TO.C,C26*%
X90300000Y-82250000D03*
X90300000Y-84150000D03*
%TD*%
D15*
%TO.C,D3*%
X111670000Y-110917500D03*
X111670000Y-109042500D03*
%TD*%
D20*
%TO.C,PROG1*%
X106805000Y-53720000D03*
X106805000Y-52720000D03*
X106805000Y-51720000D03*
X106805000Y-50720000D03*
X106805000Y-49720000D03*
D21*
X104280000Y-55020000D03*
X104280000Y-48420000D03*
%TD*%
D15*
%TO.C,D1*%
X142830000Y-40657500D03*
X142830000Y-38782500D03*
%TD*%
D13*
%TO.C,R38*%
X88717500Y-105870000D03*
X90542500Y-105870000D03*
%TD*%
D22*
%TO.C,C2*%
X135790000Y-38260000D03*
X133890000Y-38260000D03*
%TD*%
D23*
%TO.C,C1*%
X133850000Y-40800000D03*
X135750000Y-40800000D03*
%TD*%
D19*
%TO.C,C25*%
X135600000Y-113550000D03*
X135600000Y-115450000D03*
%TD*%
D24*
%TO.C,C3*%
X95200000Y-55600000D03*
X95200000Y-50200000D03*
%TD*%
D25*
%TO.C,D15*%
X71222500Y-120450000D03*
X73097500Y-120450000D03*
%TD*%
D26*
%TO.C,R35*%
X136800000Y-66637500D03*
X136800000Y-72562500D03*
%TD*%
D27*
%TO.C,R14*%
X145512500Y-114000000D03*
X143687500Y-114000000D03*
%TD*%
D13*
%TO.C,R19*%
X93487500Y-99300000D03*
X95312500Y-99300000D03*
%TD*%
D23*
%TO.C,C17*%
X86280000Y-99130000D03*
X88180000Y-99130000D03*
%TD*%
D22*
%TO.C,C23*%
X82060000Y-114290000D03*
X80160000Y-114290000D03*
%TD*%
D28*
%TO.C,D14*%
X136300000Y-119132500D03*
X136300000Y-121007500D03*
%TD*%
D29*
%TO.C,TB1*%
X79460000Y-110360000D03*
X80110000Y-110360000D03*
X80760000Y-110360000D03*
X81410000Y-110360000D03*
X82060000Y-110360000D03*
X82710000Y-110360000D03*
X83360000Y-110360000D03*
X84010000Y-110360000D03*
X84660000Y-110360000D03*
X85310000Y-110360000D03*
X85960000Y-110360000D03*
X86610000Y-110360000D03*
X86610000Y-103360000D03*
X85960000Y-103360000D03*
X85310000Y-103360000D03*
X84660000Y-103360000D03*
X84010000Y-103360000D03*
X83360000Y-103360000D03*
X82710000Y-103360000D03*
X82060000Y-103360000D03*
X81410000Y-103360000D03*
X80760000Y-103360000D03*
X80110000Y-103360000D03*
X79460000Y-103360000D03*
%TD*%
D30*
%TO.C,U5*%
X104590000Y-46450000D03*
X105090000Y-46450000D03*
X105590000Y-46450000D03*
X106090000Y-46450000D03*
X106590000Y-46450000D03*
X107090000Y-46450000D03*
D31*
X107590000Y-46450000D03*
D30*
X107590000Y-45110000D03*
X107090000Y-45110000D03*
X106590000Y-45110000D03*
X106090000Y-45110000D03*
X105590000Y-45110000D03*
X105090000Y-45110000D03*
X104590000Y-45110000D03*
%TD*%
D19*
%TO.C,C29*%
X91500000Y-89650000D03*
X91500000Y-91550000D03*
%TD*%
D11*
%TO.C,R6*%
X112170000Y-61332500D03*
X112170000Y-59507500D03*
%TD*%
D27*
%TO.C,R29*%
X120762500Y-107740000D03*
X118937500Y-107740000D03*
%TD*%
D32*
%TO.C,R24*%
X125670000Y-96467500D03*
X125670000Y-98292500D03*
%TD*%
D17*
%TO.C,D16*%
X93757500Y-120520000D03*
X91882500Y-120520000D03*
%TD*%
D32*
%TO.C,R45*%
X97700000Y-99187500D03*
X97700000Y-101012500D03*
%TD*%
D27*
%TO.C,R3*%
X120762500Y-79560000D03*
X118937500Y-79560000D03*
%TD*%
%TO.C,R11*%
X81712500Y-80200000D03*
X79887500Y-80200000D03*
%TD*%
D25*
%TO.C,D13*%
X91882500Y-123560000D03*
X93757500Y-123560000D03*
%TD*%
D33*
%TO.C,C34*%
X85800000Y-83400000D03*
X85800000Y-79000000D03*
%TD*%
D22*
%TO.C,C16*%
X90550000Y-108120000D03*
X88650000Y-108120000D03*
%TD*%
%TO.C,C7*%
X131130000Y-35500000D03*
X129230000Y-35500000D03*
%TD*%
D34*
%TO.C,D6*%
X97279625Y-105976340D03*
X97800375Y-105523660D03*
%TD*%
D15*
%TO.C,D11*%
X138370000Y-120967500D03*
X138370000Y-119092500D03*
%TD*%
D35*
%TO.C,U6*%
X139300000Y-115700000D03*
X139800000Y-115700000D03*
X140300000Y-115700000D03*
X140800000Y-115700000D03*
X141300000Y-115700000D03*
X141300000Y-113050000D03*
X140800000Y-113050000D03*
X140300000Y-113050000D03*
X139800000Y-113050000D03*
X139300000Y-113050000D03*
D36*
X140300000Y-114375000D03*
%TD*%
D37*
%TO.C,C18*%
X74910000Y-103830000D03*
X74910000Y-110070000D03*
%TD*%
D27*
%TO.C,R10*%
X81712500Y-78100000D03*
X79887500Y-78100000D03*
%TD*%
D38*
%TO.C,audio_out1*%
X75800000Y-86400000D03*
X75800000Y-84400000D03*
X75800000Y-82400000D03*
D39*
X73550000Y-88800000D03*
X73550000Y-80000000D03*
%TD*%
D11*
%TO.C,R51*%
X81100000Y-84412500D03*
X81100000Y-82587500D03*
%TD*%
D23*
%TO.C,C24*%
X84300000Y-114490000D03*
X86200000Y-114490000D03*
%TD*%
D40*
%TO.C,C28*%
X98900000Y-94100000D03*
X93500000Y-94100000D03*
%TD*%
D15*
%TO.C,D2*%
X142830000Y-50017500D03*
X142830000Y-48142500D03*
%TD*%
D22*
%TO.C,C6*%
X131110000Y-37990000D03*
X129210000Y-37990000D03*
%TD*%
D41*
%TO.C,C11*%
X95200000Y-40000000D03*
X95200000Y-45400000D03*
%TD*%
D15*
%TO.C,D10*%
X140440000Y-120967500D03*
X140440000Y-119092500D03*
%TD*%
D42*
%TO.C,U7*%
X83530000Y-86095000D03*
X83530000Y-87365000D03*
X83530000Y-88635000D03*
X83530000Y-89905000D03*
X88470000Y-89905000D03*
X88470000Y-88635000D03*
X88470000Y-87365000D03*
X88470000Y-86095000D03*
%TD*%
D28*
%TO.C,D5*%
X142510000Y-119132500D03*
X142510000Y-121007500D03*
%TD*%
D43*
%TO.C,D7*%
X98509150Y-104006385D03*
X98970850Y-103493615D03*
%TD*%
D32*
%TO.C,R46*%
X81100000Y-87087500D03*
X81100000Y-88912500D03*
%TD*%
M02*
