%TF.GenerationSoftware,KiCad,Pcbnew,9.0.6*%
%TF.CreationDate,2026-05-13T14:56:54+02:00*%
%TF.ProjectId,rayman_main,7261796d-616e-45f6-9d61-696e2e6b6963,rev?*%
%TF.SameCoordinates,Original*%
%TF.FileFunction,Paste,Bot*%
%TF.FilePolarity,Positive*%
%FSLAX46Y46*%
G04 Gerber Fmt 4.6, Leading zero omitted, Abs format (unit mm)*
G04 Created by KiCad (PCBNEW 9.0.6) date 2026-05-13 14:56:54*
%MOMM*%
%LPD*%
G01*
G04 APERTURE LIST*
G04 Aperture macros list*
%AMRoundRect*
0 Rectangle with rounded corners*
0 $1 Rounding radius*
0 $2 $3 $4 $5 $6 $7 $8 $9 X,Y pos of 4 corners*
0 Add a 4 corners polygon primitive as box body*
4,1,4,$2,$3,$4,$5,$6,$7,$8,$9,$2,$3,0*
0 Add four circle primitives for the rounded corners*
1,1,$1+$1,$2,$3*
1,1,$1+$1,$4,$5*
1,1,$1+$1,$6,$7*
1,1,$1+$1,$8,$9*
0 Add four rect primitives between the rounded corners*
20,1,$1+$1,$2,$3,$4,$5,0*
20,1,$1+$1,$4,$5,$6,$7,0*
20,1,$1+$1,$6,$7,$8,$9,0*
20,1,$1+$1,$8,$9,$2,$3,0*%
G04 Aperture macros list end*
%ADD10RoundRect,0.049200X-0.155800X0.735800X-0.155800X-0.735800X0.155800X-0.735800X0.155800X0.735800X0*%
%ADD11RoundRect,0.051250X-0.153750X0.733750X-0.153750X-0.733750X0.153750X-0.733750X0.153750X0.733750X0*%
%ADD12RoundRect,0.250000X0.450000X-0.262500X0.450000X0.262500X-0.450000X0.262500X-0.450000X-0.262500X0*%
%ADD13RoundRect,0.250000X-0.250000X-0.475000X0.250000X-0.475000X0.250000X0.475000X-0.250000X0.475000X0*%
%ADD14RoundRect,0.150000X-0.150000X0.587500X-0.150000X-0.587500X0.150000X-0.587500X0.150000X0.587500X0*%
%ADD15RoundRect,0.250000X-0.262500X-0.450000X0.262500X-0.450000X0.262500X0.450000X-0.262500X0.450000X0*%
%ADD16RoundRect,0.250000X-0.450000X0.262500X-0.450000X-0.262500X0.450000X-0.262500X0.450000X0.262500X0*%
%ADD17RoundRect,0.250000X0.262500X0.450000X-0.262500X0.450000X-0.262500X-0.450000X0.262500X-0.450000X0*%
%ADD18RoundRect,0.250000X-0.475000X0.250000X-0.475000X-0.250000X0.475000X-0.250000X0.475000X0.250000X0*%
%ADD19RoundRect,0.250000X0.250000X0.475000X-0.250000X0.475000X-0.250000X-0.475000X0.250000X-0.475000X0*%
%ADD20R,0.900000X0.800000*%
%ADD21RoundRect,0.111250X-0.333750X0.873750X-0.333750X-0.873750X0.333750X-0.873750X0.333750X0.873750X0*%
%ADD22RoundRect,0.246250X-1.348750X0.738750X-1.348750X-0.738750X1.348750X-0.738750X1.348750X0.738750X0*%
%ADD23R,0.900000X0.900000*%
%ADD24R,1.500000X0.900000*%
%ADD25R,0.900000X1.500000*%
%ADD26R,0.400000X0.750000*%
%ADD27R,0.700000X1.600000*%
%ADD28R,1.200000X1.800000*%
%ADD29R,1.600000X1.500000*%
%ADD30R,1.200000X2.200000*%
%ADD31RoundRect,0.250000X0.475000X-0.250000X0.475000X0.250000X-0.475000X0.250000X-0.475000X-0.250000X0*%
G04 APERTURE END LIST*
D10*
%TO.C,U2*%
X104050000Y-82485000D03*
D11*
X104700000Y-82485000D03*
X105350000Y-82485000D03*
X106000000Y-82485000D03*
X106650000Y-82485000D03*
X107300000Y-82485000D03*
X107950000Y-82485000D03*
X107950000Y-88225000D03*
X107300000Y-88225000D03*
X106650000Y-88225000D03*
X106000000Y-88225000D03*
X105350000Y-88225000D03*
X104700000Y-88225000D03*
X104050000Y-88225000D03*
%TD*%
D12*
%TO.C,R33*%
X104083333Y-99012500D03*
X104083333Y-97187500D03*
%TD*%
D13*
%TO.C,C14*%
X104350000Y-90700000D03*
X106250000Y-90700000D03*
%TD*%
D14*
%TO.C,Q1*%
X117860000Y-82612500D03*
X119760000Y-82612500D03*
X118810000Y-84487500D03*
%TD*%
D15*
%TO.C,R34*%
X112297500Y-66670000D03*
X114122500Y-66670000D03*
%TD*%
D16*
%TO.C,R32*%
X106630000Y-97187500D03*
X106630000Y-99012500D03*
%TD*%
%TO.C,R7*%
X141120000Y-35517500D03*
X141120000Y-37342500D03*
%TD*%
D17*
%TO.C,R39*%
X145162500Y-121480000D03*
X143337500Y-121480000D03*
%TD*%
%TO.C,R42*%
X73042500Y-118010000D03*
X71217500Y-118010000D03*
%TD*%
%TO.C,R21*%
X113012500Y-104520000D03*
X111187500Y-104520000D03*
%TD*%
D16*
%TO.C,R31*%
X101536667Y-97187500D03*
X101536667Y-99012500D03*
%TD*%
D12*
%TO.C,R27*%
X111499999Y-49612500D03*
X111499999Y-47787500D03*
%TD*%
D15*
%TO.C,R43*%
X90127500Y-117700000D03*
X91952500Y-117700000D03*
%TD*%
D16*
%TO.C,R28*%
X115360000Y-82267500D03*
X115360000Y-84092500D03*
%TD*%
D18*
%TO.C,C5*%
X87865000Y-59950000D03*
X87865000Y-61850000D03*
%TD*%
%TO.C,C10*%
X87900000Y-38450000D03*
X87900000Y-40350000D03*
%TD*%
D16*
%TO.C,R30*%
X98990000Y-97187500D03*
X98990000Y-99012500D03*
%TD*%
%TO.C,R15*%
X114050000Y-53067500D03*
X114050000Y-54892500D03*
%TD*%
%TO.C,R25*%
X109289999Y-47787500D03*
X109289999Y-49612500D03*
%TD*%
D19*
%TO.C,C21*%
X135550000Y-110560000D03*
X133650000Y-110560000D03*
%TD*%
D15*
%TO.C,R36*%
X92655000Y-103610000D03*
X94480000Y-103610000D03*
%TD*%
D13*
%TO.C,C20*%
X144550000Y-112420000D03*
X146450000Y-112420000D03*
%TD*%
D20*
%TO.C,D17*%
X122530000Y-114600000D03*
X122530000Y-116500000D03*
X120430000Y-115550000D03*
%TD*%
D16*
%TO.C,R23*%
X121240000Y-77417500D03*
X121240000Y-79242500D03*
%TD*%
%TO.C,R9*%
X90000000Y-59987500D03*
X90000000Y-61812500D03*
%TD*%
D18*
%TO.C,C4*%
X85700000Y-59950000D03*
X85700000Y-61850000D03*
%TD*%
D17*
%TO.C,R20*%
X113012500Y-107350000D03*
X111187500Y-107350000D03*
%TD*%
D18*
%TO.C,C9*%
X90215000Y-38450000D03*
X90215000Y-40350000D03*
%TD*%
D21*
%TO.C,U4*%
X137730000Y-114722500D03*
X140030000Y-114722500D03*
X142330000Y-114722500D03*
D22*
X140030000Y-120772500D03*
%TD*%
D23*
%TO.C,U1*%
X131750000Y-44510000D03*
X131750000Y-43110000D03*
X131750000Y-41710000D03*
X130350000Y-44510000D03*
X130350000Y-43110000D03*
X130350000Y-41710000D03*
X128950000Y-44510000D03*
X128950000Y-43110000D03*
X128950000Y-41710000D03*
D24*
X137600000Y-35390000D03*
X137600000Y-36660000D03*
X137600000Y-37930000D03*
X137600000Y-39200000D03*
X137600000Y-40470000D03*
X137600000Y-41740000D03*
X137600000Y-43010000D03*
X137600000Y-44280000D03*
X137600000Y-45550000D03*
X137600000Y-46820000D03*
X137600000Y-48090000D03*
X137600000Y-49360000D03*
X137600000Y-50630000D03*
X137600000Y-51900000D03*
D25*
X135835000Y-53150000D03*
X134565000Y-53150000D03*
X133295000Y-53150000D03*
X132025000Y-53150000D03*
X130755000Y-53150000D03*
X129485000Y-53150000D03*
X128215000Y-53150000D03*
X126945000Y-53150000D03*
X125675000Y-53150000D03*
X124405000Y-53150000D03*
X123135000Y-53150000D03*
X121865000Y-53150000D03*
D24*
X120100000Y-51900000D03*
X120100000Y-50630000D03*
X120100000Y-49360000D03*
X120100000Y-48090000D03*
X120100000Y-46820000D03*
X120100000Y-45550000D03*
X120100000Y-44280000D03*
X120100000Y-43010000D03*
X120100000Y-41740000D03*
X120100000Y-40470000D03*
X120100000Y-39200000D03*
X120100000Y-37930000D03*
X120100000Y-36660000D03*
X120100000Y-35390000D03*
%TD*%
D26*
%TO.C,FL1*%
X125370000Y-112914500D03*
X124570000Y-112914500D03*
X124570000Y-111064500D03*
X125370000Y-111064500D03*
%TD*%
D19*
%TO.C,C22*%
X135550000Y-112890000D03*
X133650000Y-112890000D03*
%TD*%
D17*
%TO.C,R40*%
X137342500Y-123870000D03*
X135517500Y-123870000D03*
%TD*%
D16*
%TO.C,R22*%
X107140000Y-47787500D03*
X107140000Y-49612500D03*
%TD*%
D17*
%TO.C,R44*%
X94480000Y-106650000D03*
X92655000Y-106650000D03*
%TD*%
D16*
%TO.C,R18*%
X116420000Y-53117500D03*
X116420000Y-54942500D03*
%TD*%
D17*
%TO.C,R1*%
X150052500Y-36390000D03*
X148227500Y-36390000D03*
%TD*%
D27*
%TO.C,TF1*%
X108280000Y-42530000D03*
X107180000Y-42530000D03*
X106080000Y-42530000D03*
X104980000Y-42530000D03*
X103880000Y-42530000D03*
X102780000Y-42530000D03*
X101680000Y-42530000D03*
X100580000Y-42530000D03*
X99480000Y-42530000D03*
D28*
X98280000Y-41230000D03*
D29*
X112880000Y-41480000D03*
D30*
X98280000Y-31930000D03*
X113780000Y-31930000D03*
%TD*%
D13*
%TO.C,C19*%
X144550000Y-110010000D03*
X146450000Y-110010000D03*
%TD*%
D15*
%TO.C,R26*%
X142967500Y-123870000D03*
X144792500Y-123870000D03*
%TD*%
D31*
%TO.C,C13*%
X104850000Y-49600000D03*
X104850000Y-47700000D03*
%TD*%
D15*
%TO.C,R37*%
X92655000Y-100570000D03*
X94480000Y-100570000D03*
%TD*%
D17*
%TO.C,R4*%
X150072500Y-44310000D03*
X148247500Y-44310000D03*
%TD*%
D31*
%TO.C,C12*%
X102580000Y-49600000D03*
X102580000Y-47700000D03*
%TD*%
D17*
%TO.C,R5*%
X112982500Y-45120000D03*
X111157500Y-45120000D03*
%TD*%
D16*
%TO.C,R13*%
X92500000Y-38487500D03*
X92500000Y-40312500D03*
%TD*%
D15*
%TO.C,R41*%
X139242500Y-123870000D03*
X141067500Y-123870000D03*
%TD*%
M02*
