%TF.GenerationSoftware,KiCad,Pcbnew,9.0.6*%
%TF.CreationDate,2026-05-13T14:56:55+02:00*%
%TF.ProjectId,rayman_main,7261796d-616e-45f6-9d61-696e2e6b6963,rev?*%
%TF.SameCoordinates,Original*%
%TF.FileFunction,Other,User*%
%FSLAX46Y46*%
G04 Gerber Fmt 4.6, Leading zero omitted, Abs format (unit mm)*
G04 Created by KiCad (PCBNEW 9.0.6) date 2026-05-13 14:56:55*
%MOMM*%
%LPD*%
G01*
G04 APERTURE LIST*
%ADD10C,0.050000*%
G04 APERTURE END LIST*
D10*
%TO.C,U2*%
X103250000Y-81450000D02*
X108750000Y-81450000D01*
X103250000Y-89260000D02*
X108750000Y-89260000D01*
X108750000Y-81450000D02*
X108750000Y-89260000D01*
X103250000Y-81450000D02*
X103250000Y-89260000D01*
%TO.C,R33*%
X105033333Y-99780000D02*
X105033333Y-96420000D01*
X103133333Y-99780000D02*
X105033333Y-99780000D01*
X105033333Y-96420000D02*
X103133333Y-96420000D01*
X103133333Y-96420000D02*
X103133333Y-99780000D01*
%TO.C,C14*%
X107000000Y-91680000D02*
X107000000Y-89720000D01*
X107000000Y-89720000D02*
X103600000Y-89720000D01*
X103600000Y-91680000D02*
X107000000Y-91680000D01*
X103600000Y-89720000D02*
X103600000Y-91680000D01*
%TO.C,Q1*%
X117110000Y-82650000D02*
X117110000Y-84450000D01*
X117110000Y-84450000D02*
X118260000Y-84450000D01*
X117310000Y-81620000D02*
X117310000Y-82650000D01*
X117310000Y-82650000D02*
X117110000Y-82650000D01*
X118260000Y-84450000D02*
X118260000Y-85480000D01*
X118260000Y-85480000D02*
X119360000Y-85480000D01*
X119360000Y-84450000D02*
X120510000Y-84450000D01*
X119360000Y-85480000D02*
X119360000Y-84450000D01*
X120310000Y-81620000D02*
X117310000Y-81620000D01*
X120310000Y-82650000D02*
X120310000Y-81620000D01*
X120510000Y-82650000D02*
X120310000Y-82650000D01*
X120510000Y-84450000D02*
X120510000Y-82650000D01*
%TO.C,R34*%
X111530000Y-65720000D02*
X111530000Y-67620000D01*
X111530000Y-67620000D02*
X114890000Y-67620000D01*
X114890000Y-65720000D02*
X111530000Y-65720000D01*
X114890000Y-67620000D02*
X114890000Y-65720000D01*
%TO.C,R32*%
X105680000Y-96420000D02*
X105680000Y-99780000D01*
X105680000Y-99780000D02*
X107580000Y-99780000D01*
X107580000Y-96420000D02*
X105680000Y-96420000D01*
X107580000Y-99780000D02*
X107580000Y-96420000D01*
%TO.C,R7*%
X140170000Y-34750000D02*
X140170000Y-38110000D01*
X140170000Y-38110000D02*
X142070000Y-38110000D01*
X142070000Y-34750000D02*
X140170000Y-34750000D01*
X142070000Y-38110000D02*
X142070000Y-34750000D01*
%TO.C,R39*%
X142570000Y-120530000D02*
X142570000Y-122430000D01*
X142570000Y-122430000D02*
X145930000Y-122430000D01*
X145930000Y-120530000D02*
X142570000Y-120530000D01*
X145930000Y-122430000D02*
X145930000Y-120530000D01*
%TO.C,R42*%
X70450000Y-117060000D02*
X70450000Y-118960000D01*
X70450000Y-118960000D02*
X73810000Y-118960000D01*
X73810000Y-117060000D02*
X70450000Y-117060000D01*
X73810000Y-118960000D02*
X73810000Y-117060000D01*
%TO.C,R21*%
X110420000Y-103570000D02*
X110420000Y-105470000D01*
X110420000Y-105470000D02*
X113780000Y-105470000D01*
X113780000Y-103570000D02*
X110420000Y-103570000D01*
X113780000Y-105470000D02*
X113780000Y-103570000D01*
%TO.C,R31*%
X100586667Y-96420000D02*
X100586667Y-99780000D01*
X100586667Y-99780000D02*
X102486667Y-99780000D01*
X102486667Y-96420000D02*
X100586667Y-96420000D01*
X102486667Y-99780000D02*
X102486667Y-96420000D01*
%TO.C,R27*%
X110549999Y-47020000D02*
X110549999Y-50380000D01*
X110549999Y-50380000D02*
X112449999Y-50380000D01*
X112449999Y-47020000D02*
X110549999Y-47020000D01*
X112449999Y-50380000D02*
X112449999Y-47020000D01*
%TO.C,R43*%
X89360000Y-116750000D02*
X89360000Y-118650000D01*
X89360000Y-118650000D02*
X92720000Y-118650000D01*
X92720000Y-116750000D02*
X89360000Y-116750000D01*
X92720000Y-118650000D02*
X92720000Y-116750000D01*
%TO.C,R28*%
X114410000Y-81500000D02*
X114410000Y-84860000D01*
X114410000Y-84860000D02*
X116310000Y-84860000D01*
X116310000Y-81500000D02*
X114410000Y-81500000D01*
X116310000Y-84860000D02*
X116310000Y-81500000D01*
%TO.C,C5*%
X86885000Y-62600000D02*
X88845000Y-62600000D01*
X88845000Y-62600000D02*
X88845000Y-59200000D01*
X86885000Y-59200000D02*
X86885000Y-62600000D01*
X88845000Y-59200000D02*
X86885000Y-59200000D01*
%TO.C,C10*%
X86920000Y-41100000D02*
X88880000Y-41100000D01*
X88880000Y-41100000D02*
X88880000Y-37700000D01*
X86920000Y-37700000D02*
X86920000Y-41100000D01*
X88880000Y-37700000D02*
X86920000Y-37700000D01*
%TO.C,R30*%
X98040000Y-96420000D02*
X98040000Y-99780000D01*
X98040000Y-99780000D02*
X99940000Y-99780000D01*
X99940000Y-96420000D02*
X98040000Y-96420000D01*
X99940000Y-99780000D02*
X99940000Y-96420000D01*
%TO.C,R15*%
X113100000Y-52300000D02*
X113100000Y-55660000D01*
X113100000Y-55660000D02*
X115000000Y-55660000D01*
X115000000Y-52300000D02*
X113100000Y-52300000D01*
X115000000Y-55660000D02*
X115000000Y-52300000D01*
%TO.C,R25*%
X108339999Y-47020000D02*
X108339999Y-50380000D01*
X108339999Y-50380000D02*
X110239999Y-50380000D01*
X110239999Y-47020000D02*
X108339999Y-47020000D01*
X110239999Y-50380000D02*
X110239999Y-47020000D01*
%TO.C,C21*%
X132900000Y-109580000D02*
X132900000Y-111540000D01*
X132900000Y-111540000D02*
X136300000Y-111540000D01*
X136300000Y-109580000D02*
X132900000Y-109580000D01*
X136300000Y-111540000D02*
X136300000Y-109580000D01*
%TO.C,R36*%
X91887500Y-102660000D02*
X91887500Y-104560000D01*
X91887500Y-104560000D02*
X95247500Y-104560000D01*
X95247500Y-102660000D02*
X91887500Y-102660000D01*
X95247500Y-104560000D02*
X95247500Y-102660000D01*
%TO.C,C20*%
X143800000Y-111440000D02*
X143800000Y-113400000D01*
X143800000Y-113400000D02*
X147200000Y-113400000D01*
X147200000Y-111440000D02*
X143800000Y-111440000D01*
X147200000Y-113400000D02*
X147200000Y-111440000D01*
%TO.C,R23*%
X120290000Y-76650000D02*
X120290000Y-80010000D01*
X120290000Y-80010000D02*
X122190000Y-80010000D01*
X122190000Y-76650000D02*
X120290000Y-76650000D01*
X122190000Y-80010000D02*
X122190000Y-76650000D01*
%TO.C,R9*%
X89050000Y-62580000D02*
X90950000Y-62580000D01*
X90950000Y-62580000D02*
X90950000Y-59220000D01*
X89050000Y-59220000D02*
X89050000Y-62580000D01*
X90950000Y-59220000D02*
X89050000Y-59220000D01*
%TO.C,C4*%
X86680000Y-62600000D02*
X86680000Y-59200000D01*
X86680000Y-59200000D02*
X84720000Y-59200000D01*
X84720000Y-62600000D02*
X86680000Y-62600000D01*
X84720000Y-59200000D02*
X84720000Y-62600000D01*
%TO.C,R20*%
X110420000Y-106400000D02*
X110420000Y-108300000D01*
X110420000Y-108300000D02*
X113780000Y-108300000D01*
X113780000Y-106400000D02*
X110420000Y-106400000D01*
X113780000Y-108300000D02*
X113780000Y-106400000D01*
%TO.C,C9*%
X89235000Y-37700000D02*
X89235000Y-41100000D01*
X89235000Y-41100000D02*
X91195000Y-41100000D01*
X91195000Y-37700000D02*
X89235000Y-37700000D01*
X91195000Y-41100000D02*
X91195000Y-37700000D01*
%TO.C,U4*%
X136430000Y-115647500D02*
X136430000Y-119847500D01*
X136430000Y-115647500D02*
X137000000Y-115647500D01*
X136430000Y-119847500D02*
X138150000Y-119847500D01*
X137000000Y-113487500D02*
X143060000Y-113487500D01*
X137000000Y-115647500D02*
X137000000Y-113487500D01*
X138150000Y-119847500D02*
X138150000Y-122007500D01*
X138150000Y-122007500D02*
X141910000Y-122007500D01*
X141910000Y-119847500D02*
X143630000Y-119847500D01*
X141910000Y-122007500D02*
X141910000Y-119847500D01*
X143060000Y-113487500D02*
X143060000Y-115647500D01*
X143060000Y-115647500D02*
X143630000Y-115647500D01*
X143630000Y-119847500D02*
X143630000Y-115647500D01*
%TO.C,U1*%
X119100000Y-26150000D02*
X119100000Y-54100000D01*
X119100000Y-26150000D02*
X138600000Y-26050000D01*
X138600000Y-54100000D02*
X119100000Y-54100000D01*
X138600000Y-54100000D02*
X138600000Y-26050000D01*
%TO.C,FL1*%
X124220000Y-110473500D02*
X124220000Y-113505500D01*
X124220000Y-113505500D02*
X125720000Y-113505500D01*
X125720000Y-110473500D02*
X124220000Y-110473500D01*
X125720000Y-113505500D02*
X125720000Y-110473500D01*
%TO.C,C22*%
X132900000Y-111910000D02*
X132900000Y-113870000D01*
X132900000Y-113870000D02*
X136300000Y-113870000D01*
X136300000Y-111910000D02*
X132900000Y-111910000D01*
X136300000Y-113870000D02*
X136300000Y-111910000D01*
%TO.C,R40*%
X134750000Y-122920000D02*
X134750000Y-124820000D01*
X134750000Y-124820000D02*
X138110000Y-124820000D01*
X138110000Y-122920000D02*
X134750000Y-122920000D01*
X138110000Y-124820000D02*
X138110000Y-122920000D01*
%TO.C,R22*%
X106190000Y-47020000D02*
X106190000Y-50380000D01*
X106190000Y-50380000D02*
X108090000Y-50380000D01*
X108090000Y-47020000D02*
X106190000Y-47020000D01*
X108090000Y-50380000D02*
X108090000Y-47020000D01*
%TO.C,R44*%
X91887500Y-105700000D02*
X91887500Y-107600000D01*
X91887500Y-107600000D02*
X95247500Y-107600000D01*
X95247500Y-105700000D02*
X91887500Y-105700000D01*
X95247500Y-107600000D02*
X95247500Y-105700000D01*
%TO.C,R18*%
X115470000Y-52350000D02*
X115470000Y-55710000D01*
X115470000Y-55710000D02*
X117370000Y-55710000D01*
X117370000Y-52350000D02*
X115470000Y-52350000D01*
X117370000Y-55710000D02*
X117370000Y-52350000D01*
%TO.C,R1*%
X147460000Y-35440000D02*
X147460000Y-37340000D01*
X147460000Y-37340000D02*
X150820000Y-37340000D01*
X150820000Y-35440000D02*
X147460000Y-35440000D01*
X150820000Y-37340000D02*
X150820000Y-35440000D01*
%TO.C,TF1*%
X97430000Y-21680000D02*
X97430000Y-43580000D01*
X97430000Y-43580000D02*
X114630000Y-43580000D01*
X114630000Y-21680000D02*
X97430000Y-21680000D01*
X114630000Y-43580000D02*
X114630000Y-21680000D01*
%TO.C,C19*%
X143800000Y-109030000D02*
X143800000Y-110990000D01*
X143800000Y-110990000D02*
X147200000Y-110990000D01*
X147200000Y-109030000D02*
X143800000Y-109030000D01*
X147200000Y-110990000D02*
X147200000Y-109030000D01*
%TO.C,R26*%
X142200000Y-122920000D02*
X142200000Y-124820000D01*
X142200000Y-124820000D02*
X145560000Y-124820000D01*
X145560000Y-122920000D02*
X142200000Y-122920000D01*
X145560000Y-124820000D02*
X145560000Y-122920000D01*
%TO.C,C13*%
X103870000Y-46950000D02*
X103870000Y-50350000D01*
X103870000Y-50350000D02*
X105830000Y-50350000D01*
X105830000Y-46950000D02*
X103870000Y-46950000D01*
X105830000Y-50350000D02*
X105830000Y-46950000D01*
%TO.C,R37*%
X91887500Y-99620000D02*
X91887500Y-101520000D01*
X91887500Y-101520000D02*
X95247500Y-101520000D01*
X95247500Y-99620000D02*
X91887500Y-99620000D01*
X95247500Y-101520000D02*
X95247500Y-99620000D01*
%TO.C,R4*%
X147480000Y-43360000D02*
X147480000Y-45260000D01*
X147480000Y-45260000D02*
X150840000Y-45260000D01*
X150840000Y-43360000D02*
X147480000Y-43360000D01*
X150840000Y-45260000D02*
X150840000Y-43360000D01*
%TO.C,C12*%
X101600000Y-46950000D02*
X101600000Y-50350000D01*
X101600000Y-50350000D02*
X103560000Y-50350000D01*
X103560000Y-46950000D02*
X101600000Y-46950000D01*
X103560000Y-50350000D02*
X103560000Y-46950000D01*
%TO.C,R5*%
X110390000Y-44170000D02*
X110390000Y-46070000D01*
X110390000Y-46070000D02*
X113750000Y-46070000D01*
X113750000Y-44170000D02*
X110390000Y-44170000D01*
X113750000Y-46070000D02*
X113750000Y-44170000D01*
%TO.C,R13*%
X91550000Y-41080000D02*
X93450000Y-41080000D01*
X93450000Y-41080000D02*
X93450000Y-37720000D01*
X91550000Y-37720000D02*
X91550000Y-41080000D01*
X93450000Y-37720000D02*
X91550000Y-37720000D01*
%TO.C,R41*%
X138475000Y-122920000D02*
X138475000Y-124820000D01*
X138475000Y-124820000D02*
X141835000Y-124820000D01*
X141835000Y-122920000D02*
X138475000Y-122920000D01*
X141835000Y-124820000D02*
X141835000Y-122920000D01*
%TD*%
M02*
