%TF.GenerationSoftware,KiCad,Pcbnew,9.0.6*%
%TF.CreationDate,2026-05-13T14:56:55+02:00*%
%TF.ProjectId,rayman_main,7261796d-616e-45f6-9d61-696e2e6b6963,rev?*%
%TF.SameCoordinates,Original*%
%TF.FileFunction,Soldermask,Bot*%
%TF.FilePolarity,Negative*%
%FSLAX46Y46*%
G04 Gerber Fmt 4.6, Leading zero omitted, Abs format (unit mm)*
G04 Created by KiCad (PCBNEW 9.0.6) date 2026-05-13 14:56:55*
%MOMM*%
%LPD*%
G01*
G04 APERTURE LIST*
G04 Aperture macros list*
%AMRoundRect*
0 Rectangle with rounded corners*
0 $1 Rounding radius*
0 $2 $3 $4 $5 $6 $7 $8 $9 X,Y pos of 4 corners*
0 Add a 4 corners polygon primitive as box body*
4,1,4,$2,$3,$4,$5,$6,$7,$8,$9,$2,$3,0*
0 Add four circle primitives for the rounded corners*
1,1,$1+$1,$2,$3*
1,1,$1+$1,$4,$5*
1,1,$1+$1,$6,$7*
1,1,$1+$1,$8,$9*
0 Add four rect primitives between the rounded corners*
20,1,$1+$1,$2,$3,$4,$5,0*
20,1,$1+$1,$4,$5,$6,$7,0*
20,1,$1+$1,$6,$7,$8,$9,0*
20,1,$1+$1,$8,$9,$2,$3,0*%
G04 Aperture macros list end*
%ADD10RoundRect,0.061680X-0.195320X0.775320X-0.195320X-0.775320X0.195320X-0.775320X0.195320X0.775320X0*%
%ADD11RoundRect,0.064250X-0.192750X0.772750X-0.192750X-0.772750X0.192750X-0.772750X0.192750X0.772750X0*%
%ADD12C,1.600000*%
%ADD13RoundRect,0.250000X-0.600000X-0.750000X0.600000X-0.750000X0.600000X0.750000X-0.600000X0.750000X0*%
%ADD14O,1.700000X2.000000*%
%ADD15C,2.000000*%
%ADD16RoundRect,0.250000X-0.550000X-0.550000X0.550000X-0.550000X0.550000X0.550000X-0.550000X0.550000X0*%
%ADD17RoundRect,0.102000X-0.654000X0.654000X-0.654000X-0.654000X0.654000X-0.654000X0.654000X0.654000X0*%
%ADD18C,1.512000*%
%ADD19C,3.250000*%
%ADD20R,1.500000X1.500000*%
%ADD21C,1.500000*%
%ADD22C,2.300000*%
%ADD23C,1.800000*%
%ADD24C,4.700000*%
%ADD25RoundRect,0.250000X1.050000X-1.050000X1.050000X1.050000X-1.050000X1.050000X-1.050000X-1.050000X0*%
%ADD26C,2.600000*%
%ADD27RoundRect,0.250000X-0.600000X-0.725000X0.600000X-0.725000X0.600000X0.725000X-0.600000X0.725000X0*%
%ADD28O,1.700000X1.950000*%
%ADD29RoundRect,0.250000X0.450000X-0.262500X0.450000X0.262500X-0.450000X0.262500X-0.450000X-0.262500X0*%
%ADD30C,2.700000*%
%ADD31C,3.000000*%
%ADD32RoundRect,0.250000X-0.750000X0.600000X-0.750000X-0.600000X0.750000X-0.600000X0.750000X0.600000X0*%
%ADD33O,2.000000X1.700000*%
%ADD34R,2.400000X2.400000*%
%ADD35C,2.400000*%
%ADD36RoundRect,0.250000X-0.250000X-0.475000X0.250000X-0.475000X0.250000X0.475000X-0.250000X0.475000X0*%
%ADD37RoundRect,0.150000X-0.150000X0.587500X-0.150000X-0.587500X0.150000X-0.587500X0.150000X0.587500X0*%
%ADD38RoundRect,0.250000X-0.262500X-0.450000X0.262500X-0.450000X0.262500X0.450000X-0.262500X0.450000X0*%
%ADD39RoundRect,0.250000X-0.450000X0.262500X-0.450000X-0.262500X0.450000X-0.262500X0.450000X0.262500X0*%
%ADD40RoundRect,0.250000X0.262500X0.450000X-0.262500X0.450000X-0.262500X-0.450000X0.262500X-0.450000X0*%
%ADD41RoundRect,0.250000X-0.475000X0.250000X-0.475000X-0.250000X0.475000X-0.250000X0.475000X0.250000X0*%
%ADD42RoundRect,0.250000X0.250000X0.475000X-0.250000X0.475000X-0.250000X-0.475000X0.250000X-0.475000X0*%
%ADD43RoundRect,0.102000X-0.450000X0.400000X-0.450000X-0.400000X0.450000X-0.400000X0.450000X0.400000X0*%
%ADD44RoundRect,0.136750X-0.410250X0.950250X-0.410250X-0.950250X0.410250X-0.950250X0.410250X0.950250X0*%
%ADD45RoundRect,0.271750X-1.425250X0.815250X-1.425250X-0.815250X1.425250X-0.815250X1.425250X0.815250X0*%
%ADD46R,1.500000X0.900000*%
%ADD47R,0.900000X1.500000*%
%ADD48C,0.600000*%
%ADD49R,3.900000X3.900000*%
%ADD50RoundRect,0.102000X0.200000X-0.375000X0.200000X0.375000X-0.200000X0.375000X-0.200000X-0.375000X0*%
%ADD51C,1.000000*%
%ADD52RoundRect,0.102000X-0.350000X-0.800000X0.350000X-0.800000X0.350000X0.800000X-0.350000X0.800000X0*%
%ADD53RoundRect,0.102000X-0.600000X-0.900000X0.600000X-0.900000X0.600000X0.900000X-0.600000X0.900000X0*%
%ADD54RoundRect,0.102000X-0.800000X-0.750000X0.800000X-0.750000X0.800000X0.750000X-0.800000X0.750000X0*%
%ADD55RoundRect,0.102000X-0.600000X-1.100000X0.600000X-1.100000X0.600000X1.100000X-0.600000X1.100000X0*%
%ADD56RoundRect,0.250000X0.475000X-0.250000X0.475000X0.250000X-0.475000X0.250000X-0.475000X-0.250000X0*%
G04 APERTURE END LIST*
D10*
%TO.C,U2*%
X104050000Y-82485000D03*
D11*
X104700000Y-82485000D03*
X105350000Y-82485000D03*
X106000000Y-82485000D03*
X106650000Y-82485000D03*
X107300000Y-82485000D03*
X107950000Y-82485000D03*
X107950000Y-88225000D03*
X107300000Y-88225000D03*
X106650000Y-88225000D03*
X106000000Y-88225000D03*
X105350000Y-88225000D03*
X104700000Y-88225000D03*
X104050000Y-88225000D03*
%TD*%
D12*
%TO.C,C31*%
X97400000Y-60800000D03*
X92400000Y-60800000D03*
%TD*%
%TO.C,C32*%
X92400000Y-75500000D03*
X97400000Y-75500000D03*
%TD*%
%TO.C,C30*%
X92400000Y-65700000D03*
X97400000Y-65700000D03*
%TD*%
%TO.C,C33*%
X92400000Y-70600000D03*
X97400000Y-70600000D03*
%TD*%
D13*
%TO.C,M2*%
X88090000Y-121525000D03*
D14*
X85590000Y-121525000D03*
%TD*%
D15*
%TO.C,C15*%
X144230000Y-63000000D03*
X144230000Y-70500000D03*
%TD*%
D16*
%TO.C,SW_CAN_T1*%
X117025000Y-102542500D03*
D12*
X124645000Y-102542500D03*
%TD*%
D17*
%TO.C,DF_MUSIC1*%
X88790000Y-35883000D03*
D18*
X86250000Y-35883000D03*
X83710000Y-35883000D03*
X81170000Y-35883000D03*
X78630000Y-35883000D03*
X76090000Y-35883000D03*
X73550000Y-35883000D03*
X71010000Y-35883000D03*
X71010000Y-53917000D03*
X73550000Y-53917000D03*
X76090000Y-53917000D03*
X78630000Y-53917000D03*
X81170000Y-53917000D03*
X83710000Y-53917000D03*
X86250000Y-53917000D03*
X88790000Y-53917000D03*
%TD*%
D19*
%TO.C,RJ_LED1*%
X111046000Y-123770000D03*
X98346000Y-123770000D03*
D20*
X108256000Y-121230000D03*
D21*
X107240000Y-119450000D03*
X106224000Y-121230000D03*
X105208000Y-119450000D03*
X104192000Y-121230000D03*
X103176000Y-119450000D03*
X102160000Y-121230000D03*
X101144000Y-119450000D03*
D22*
X112826000Y-120340000D03*
X96566000Y-120340000D03*
%TD*%
D23*
%TO.C,RV1*%
X132180000Y-78230000D03*
X130880000Y-85730000D03*
%TD*%
D24*
%TO.C,REF\u002A\u002A*%
X151440000Y-114890000D03*
%TD*%
D19*
%TO.C,RJ_CAN1*%
X131076000Y-123770000D03*
X118376000Y-123770000D03*
D20*
X128286000Y-121230000D03*
D21*
X127270000Y-119450000D03*
X126254000Y-121230000D03*
X125238000Y-119450000D03*
X124222000Y-121230000D03*
X123206000Y-119450000D03*
X122190000Y-121230000D03*
X121174000Y-119450000D03*
D22*
X132856000Y-120340000D03*
X116596000Y-120340000D03*
%TD*%
D25*
%TO.C,FAN_L1*%
X152770000Y-69070000D03*
D26*
X152770000Y-64070000D03*
%TD*%
D13*
%TO.C,5VDC1*%
X149427500Y-121285000D03*
D14*
X151927500Y-121285000D03*
%TD*%
D24*
%TO.C,REF\u002A\u002A*%
X75440000Y-31890000D03*
%TD*%
D13*
%TO.C,M1*%
X76940000Y-121500000D03*
D14*
X79440000Y-121500000D03*
%TD*%
D27*
%TO.C,GOAL1*%
X147640000Y-39240000D03*
D28*
X150140000Y-39240000D03*
X152640000Y-39240000D03*
%TD*%
D29*
%TO.C,R33*%
X104083333Y-99012500D03*
X104083333Y-97187500D03*
%TD*%
D30*
%TO.C,F1*%
X141800000Y-87900000D03*
D31*
X141800000Y-76650000D03*
X141800000Y-99150000D03*
%TD*%
D32*
%TO.C,12VDC1*%
X75430000Y-94740000D03*
D33*
X75430000Y-97240000D03*
%TD*%
D24*
%TO.C,REF\u002A\u002A*%
X152580000Y-31670000D03*
%TD*%
%TO.C,REF\u002A\u002A*%
X75440000Y-114890000D03*
%TD*%
D17*
%TO.C,DF_SFX1*%
X88780000Y-57666000D03*
D18*
X86240000Y-57666000D03*
X83700000Y-57666000D03*
X81160000Y-57666000D03*
X78620000Y-57666000D03*
X76080000Y-57666000D03*
X73540000Y-57666000D03*
X71000000Y-57666000D03*
X71000000Y-75700000D03*
X73540000Y-75700000D03*
X76080000Y-75700000D03*
X78620000Y-75700000D03*
X81160000Y-75700000D03*
X83700000Y-75700000D03*
X86240000Y-75700000D03*
X88780000Y-75700000D03*
%TD*%
D27*
%TO.C,GOAL2*%
X147640000Y-48600000D03*
D28*
X150140000Y-48600000D03*
X152640000Y-48600000D03*
%TD*%
D34*
%TO.C,U3*%
X152427500Y-84982500D03*
D35*
X152427500Y-90022500D03*
D15*
X152427500Y-106402500D03*
X152427500Y-110182500D03*
%TD*%
D36*
%TO.C,C14*%
X104350000Y-90700000D03*
X106250000Y-90700000D03*
%TD*%
D37*
%TO.C,Q1*%
X117860000Y-82612500D03*
X119760000Y-82612500D03*
X118810000Y-84487500D03*
%TD*%
D38*
%TO.C,R34*%
X112297500Y-66670000D03*
X114122500Y-66670000D03*
%TD*%
D39*
%TO.C,R32*%
X106630000Y-97187500D03*
X106630000Y-99012500D03*
%TD*%
%TO.C,R7*%
X141120000Y-35517500D03*
X141120000Y-37342500D03*
%TD*%
D40*
%TO.C,R39*%
X145162500Y-121480000D03*
X143337500Y-121480000D03*
%TD*%
%TO.C,R42*%
X73042500Y-118010000D03*
X71217500Y-118010000D03*
%TD*%
%TO.C,R21*%
X113012500Y-104520000D03*
X111187500Y-104520000D03*
%TD*%
D39*
%TO.C,R31*%
X101536667Y-97187500D03*
X101536667Y-99012500D03*
%TD*%
D29*
%TO.C,R27*%
X111499999Y-49612500D03*
X111499999Y-47787500D03*
%TD*%
D38*
%TO.C,R43*%
X90127500Y-117700000D03*
X91952500Y-117700000D03*
%TD*%
D39*
%TO.C,R28*%
X115360000Y-82267500D03*
X115360000Y-84092500D03*
%TD*%
D41*
%TO.C,C5*%
X87865000Y-59950000D03*
X87865000Y-61850000D03*
%TD*%
%TO.C,C10*%
X87900000Y-38450000D03*
X87900000Y-40350000D03*
%TD*%
D39*
%TO.C,R30*%
X98990000Y-97187500D03*
X98990000Y-99012500D03*
%TD*%
%TO.C,R15*%
X114050000Y-53067500D03*
X114050000Y-54892500D03*
%TD*%
%TO.C,R25*%
X109289999Y-47787500D03*
X109289999Y-49612500D03*
%TD*%
D42*
%TO.C,C21*%
X135550000Y-110560000D03*
X133650000Y-110560000D03*
%TD*%
D38*
%TO.C,R36*%
X92655000Y-103610000D03*
X94480000Y-103610000D03*
%TD*%
D36*
%TO.C,C20*%
X144550000Y-112420000D03*
X146450000Y-112420000D03*
%TD*%
D43*
%TO.C,D17*%
X122530000Y-114600000D03*
X122530000Y-116500000D03*
X120430000Y-115550000D03*
%TD*%
D39*
%TO.C,R23*%
X121240000Y-77417500D03*
X121240000Y-79242500D03*
%TD*%
%TO.C,R9*%
X90000000Y-59987500D03*
X90000000Y-61812500D03*
%TD*%
D41*
%TO.C,C4*%
X85700000Y-59950000D03*
X85700000Y-61850000D03*
%TD*%
D40*
%TO.C,R20*%
X113012500Y-107350000D03*
X111187500Y-107350000D03*
%TD*%
D41*
%TO.C,C9*%
X90215000Y-38450000D03*
X90215000Y-40350000D03*
%TD*%
D44*
%TO.C,U4*%
X137730000Y-114722500D03*
X140030000Y-114722500D03*
X142330000Y-114722500D03*
D45*
X140030000Y-120772500D03*
%TD*%
D46*
%TO.C,U1*%
X137600000Y-35390000D03*
X137600000Y-36660000D03*
X137600000Y-37930000D03*
X137600000Y-39200000D03*
X137600000Y-40470000D03*
X137600000Y-41740000D03*
X137600000Y-43010000D03*
X137600000Y-44280000D03*
X137600000Y-45550000D03*
X137600000Y-46820000D03*
X137600000Y-48090000D03*
X137600000Y-49360000D03*
X137600000Y-50630000D03*
X137600000Y-51900000D03*
D47*
X135835000Y-53150000D03*
X134565000Y-53150000D03*
X133295000Y-53150000D03*
X132025000Y-53150000D03*
X130755000Y-53150000D03*
X129485000Y-53150000D03*
X128215000Y-53150000D03*
X126945000Y-53150000D03*
X125675000Y-53150000D03*
X124405000Y-53150000D03*
X123135000Y-53150000D03*
X121865000Y-53150000D03*
D46*
X120100000Y-51900000D03*
X120100000Y-50630000D03*
X120100000Y-49360000D03*
X120100000Y-48090000D03*
X120100000Y-46820000D03*
X120100000Y-45550000D03*
X120100000Y-44280000D03*
X120100000Y-43010000D03*
X120100000Y-41740000D03*
X120100000Y-40470000D03*
X120100000Y-39200000D03*
X120100000Y-37930000D03*
X120100000Y-36660000D03*
X120100000Y-35390000D03*
D48*
X131750000Y-43810000D03*
X131750000Y-42410000D03*
X131050000Y-44510000D03*
X131050000Y-43110000D03*
X131050000Y-41710000D03*
X130350000Y-43810000D03*
D49*
X130350000Y-43110000D03*
D48*
X130350000Y-42410000D03*
X129650000Y-44510000D03*
X129650000Y-43110000D03*
X129650000Y-41710000D03*
X128950000Y-43810000D03*
X128950000Y-42410000D03*
%TD*%
D50*
%TO.C,FL1*%
X125370000Y-112914500D03*
X124570000Y-112914500D03*
X124570000Y-111064500D03*
X125370000Y-111064500D03*
%TD*%
D42*
%TO.C,C22*%
X135550000Y-112890000D03*
X133650000Y-112890000D03*
%TD*%
D40*
%TO.C,R40*%
X137342500Y-123870000D03*
X135517500Y-123870000D03*
%TD*%
D39*
%TO.C,R22*%
X107140000Y-47787500D03*
X107140000Y-49612500D03*
%TD*%
D40*
%TO.C,R44*%
X94480000Y-106650000D03*
X92655000Y-106650000D03*
%TD*%
D39*
%TO.C,R18*%
X116420000Y-53117500D03*
X116420000Y-54942500D03*
%TD*%
D40*
%TO.C,R1*%
X150052500Y-36390000D03*
X148227500Y-36390000D03*
%TD*%
D51*
%TO.C,TF1*%
X101080000Y-31530000D03*
X109080000Y-31530000D03*
D52*
X108280000Y-42530000D03*
X107180000Y-42530000D03*
X106080000Y-42530000D03*
X104980000Y-42530000D03*
X103880000Y-42530000D03*
X102780000Y-42530000D03*
X101680000Y-42530000D03*
X100580000Y-42530000D03*
X99480000Y-42530000D03*
D53*
X98280000Y-41230000D03*
D54*
X112880000Y-41480000D03*
D55*
X98280000Y-31930000D03*
X113780000Y-31930000D03*
%TD*%
D36*
%TO.C,C19*%
X144550000Y-110010000D03*
X146450000Y-110010000D03*
%TD*%
D38*
%TO.C,R26*%
X142967500Y-123870000D03*
X144792500Y-123870000D03*
%TD*%
D56*
%TO.C,C13*%
X104850000Y-49600000D03*
X104850000Y-47700000D03*
%TD*%
D38*
%TO.C,R37*%
X92655000Y-100570000D03*
X94480000Y-100570000D03*
%TD*%
D40*
%TO.C,R4*%
X150072500Y-44310000D03*
X148247500Y-44310000D03*
%TD*%
D56*
%TO.C,C12*%
X102580000Y-49600000D03*
X102580000Y-47700000D03*
%TD*%
D40*
%TO.C,R5*%
X112982500Y-45120000D03*
X111157500Y-45120000D03*
%TD*%
D39*
%TO.C,R13*%
X92500000Y-38487500D03*
X92500000Y-40312500D03*
%TD*%
D38*
%TO.C,R41*%
X139242500Y-123870000D03*
X141067500Y-123870000D03*
%TD*%
M02*
